<svg xmlns="http://www.w3.org/2000/svg" width="362.681" height="382.681" viewBox="0 0 362.681 382.681"><defs><clipPath id="a"><path data-name="Path 22898" d="M5739.5 2131.05a181.341 181.341 0 0 1-362.681 0c0-100.152 81.189-201.341 181.34-201.341S5739.5 2030.9 5739.5 2131.05z" fill="none"/></clipPath></defs><g data-name="Group 10815"><g data-name="Group 10814" clip-path="url(#a)" transform="translate(-5376.819 -1929.709)"><path data-name="Path 22862" d="M5523.639 2346.449l-15.922 204.4s-19.251 99.653-10.168 146.67c1.707 8.814-.269 19.78-29.908 19.78-16.6 0-26.648-4.448-26.731-9.083-2.079-123.063 12.166-152.919 11.763-171.006-.538-22.977-2.422-193.7-2.422-193.7z" fill="#383736"/><path data-name="Path 22863" d="M5523.639 2346.449l-15.922 204.4s-19.251 99.653-10.168 146.67c1.645 8.462-.186 18.869-26.535 19.7-.228-2.235-.465-4.51-.714-6.869-3.217-30.994 9.61-141.333 18.166-173.407 6.631-24.8 2.482-152.691.807-201.435z" fill="#161615" opacity=".55"/><path data-name="Path 22864" d="M5576.842 2382.345s-2.317 153.064-5.544 191.737c-.973 11.68-5 38.07-5.638 46.491-2.1 28.986 2.42 123.973 2.42 123.973-3.466 7.2-.29 12.931-33.661 11.235-10.17-.538-22.356-9.269-22.843-13.635 0 0-6.807-109.552 1.211-164.05 2.742-18.682-21.114-203.856-21.114-203.856z" fill="#383736"/><path data-name="Path 22865" d="M5576.842 2382.345s-2.317 153.064-5.544 191.737c-.973 11.68-5 38.07-5.638 46.491-2.1 28.986 2.42 123.973 2.42 123.973-3.1 6.476-.879 11.732-24.434 11.524-1.458-7.862-2.9-16.862-3.88-26.483-.723-7.034 4.966-90.145 11.773-146.69 2.8-23.339.537-140.97-1-203.066z" fill="#161615" opacity=".55"/><g data-name="Group 10807"><path data-name="Path 22866" d="M5468.863 2288.775c10.6 14.033-19.615 36.321-19.615 36.321-8.244-5.539-62.183-75.466-63.538-104.809-.993-21.052 19.728-93.638 29.814-117.575 5.431-12.9 11.689-44.784 50.493-38.519 21.538 3.476 7 30.31 2.846 46.8-9.415 37.345-28.242 78.528-28.242 78.528s-10.49 27.967-9.228 33.549c4.117 18.191 25.47 49.842 37.47 65.705z" fill="#fff"/></g><path data-name="Path 22867" d="M5408.4 2231.971c-9.714 4.7 26.793 67.817 45.559 93.653 7.945-7.759 21.548-28.066 14.907-36.849-12-15.863-33.353-47.514-37.47-65.7-1.262-5.582 9.228-33.549 9.228-33.549s18.827-41.183 28.242-78.528c3.217-12.775 12.59-31.717 6.682-41.235-29.058.916-43.873 19.78-48.755 31.351-8.659 20.549-24.249 77.948-22.159 107.022.414 5.856 9.331 11.318 9.2 13.382-.115 1.815-13.79-1.251-4.9 5.436 2.166 1.646 2.886 3.357-.534 5.017z" fill="#407284" opacity=".17" style="mix-blend-mode:multiply;isolation:isolate"/><path data-name="Path 22868" d="M5484.97 2113.191l-2.5-52.577 6.61-43.48 46.387 14.767s-8.09 30.2-9.549 48.1c-.547 6.637 6.332 13.827 9.777 19.47l21.569 23.969c4.521 7.387 13.955 19.143 13.955 39.818l-29.131 139.547-50.225 21.052-16.241-187.951c4.433-5.812 6.109-14.553 9.348-22.715z" fill="#efb797"/><path data-name="Path 22869" d="M5586.805 2130.473c13.561 10.572 3.445 101.571 3.445 136.615l1.685 272.6c-3.537 1.852-20.027 16.965-51.3 21.8-9.8 1.489-29.411-.207-51.56-7.593-9.041-2.99-61.025-26.23-61.025-33.436 0 0 13.367-167.235 6.673-274.269-1.272-20.607-19.272-80.427-9.186-153.854 5.855-42.647 56.235-28.62 56.235-28.62s29.99 13.625 54.641 27.658c10.305 5.844 36.281 23.674 50.392 39.099z" fill="#fff"/><path data-name="Path 22870" d="M5540.636 2561.483c31.272-4.832 47.762-19.945 51.3-21.8l-1.685-272.6c0-9.792.817-23.964 1.644-39.524-5.1-5.42-8.172-10.955-7.707-16.458-17.151-13.3-32.141-24.962-32.141-24.962-6.341 58.541-12.8 65.974-12.8 140.308 0 33.181-1.335 133.371-6.983 235.506a57.189 57.189 0 0 0 8.372-.47z" fill="#acc6cc" opacity=".12" style="mix-blend-mode:multiply;isolation:isolate"/><path data-name="Path 22871" d="M5570.491 2134.859c-26.225-1.051-24.756 35.855-22.449 48.9 5.338 29.928 15.808 77.307 29.659 109.806a23.9 23.9 0 0 0 12.818 13.039l-.269-39.516c0-27.145 6.072-87.85 2.5-118.766-4.807-7.597-11.884-13.05-22.259-13.463z" fill="#407284" opacity=".25"/><path data-name="Path 22872" d="M5646.433 2237.423s35.566-22.955 38.183-35.825a155.476 155.476 0 0 0 2.866-24.579s-6.983-8.659-13.335 7.06-22.439 23.37-22.439 23.37z" fill="#efb797"/><g data-name="Group 10809"><path data-name="Path 22873" d="M5617.4 2175.452c-1.283 1.36-1.417 1.655-.673 4.055l43.728 36.425c1.055 1.608 2.679 1.986 3.962.615l48.89-78.7c1.117-1.676 1.086-3.041-.279-4.355l-44.969-39.238a4.582 4.582 0 0 0-2.711-1.474 12.871 12.871 0 0 0-2.668-.094z" fill="#2a3244"/><path data-name="Path 22874" d="M5613.649 2176.285c-.537.92-.868 1.862 0 2.731l43.729 36.424c1.531 1.252 3.589 1.252 4.52-.336l48.559-78.254a2.6 2.6 0 0 0-.517-3.858l-45.487-39.626c-1.189-1.056-2.151-.931-2.782.19z" fill="#454c60"/><path data-name="Path 22875" d="M5620.664 2173c-.332.58-.145.87.144 1.113l38.339 30.4c.921 1.345 2.3 1.681 3.393.522l42.383-68.513a1.094 1.094 0 0 0-.155-1.434l-40.9-33.884c-.445-.393-.972-.626-1.48.2z" fill="#b4e0ef"/><path data-name="Path 22876" d="M5664.06 2102.588c-.424-.393-.982-.642-1.459.2l-41.648 71.452-.145-.118c-.289-.243-.476-.533-.144-1.113l41.72-71.592c.508-.827 1.035-.594 1.48-.2l40.9 33.884a1.11 1.11 0 0 1 .175 1.361z" fill="#57b6d9"/><path data-name="Path 22877" d="M5691.04 2158.931l-11.028 17.871-12.558-72.606 16.283 13.485z" fill="#fff" opacity=".31"/><path data-name="Path 22878" d="M5671.84 2189.991l-13.956-80.834 3.063-5.25 13.986 81.093z" fill="#fff" opacity=".31"/><g data-name="Group 10808"><path data-name="Path 22879" d="M5684.844 2114.779a.894.894 0 1 0 1.292-.491.993.993 0 0 0-1.292.491z" fill="#2a3244"/></g></g><path data-name="Path 22880" d="M5669.549 2186.909l-15.434-13.986a1.487 1.487 0 0 1-.291-1.842l4.183-7.294a1.488 1.488 0 0 1 2.259-.388l15.629 13.428a1.489 1.489 0 0 1 .33 1.853l-4.379 7.852a1.487 1.487 0 0 1-2.297.377z" fill="#8dc63f"/><path data-name="Path 22881" d="M5656.115 2230.627s-20.379-12.011-4.324-30.927c11-12.951 16.283-20.2 16.283-20.2s6.683-.006 2.928 8.054c-3.734 8.033-5.711 15.848-2.162 19.406 2.576 2.556 8.131 1.945 6.331 5.654-6.931 14.195-19.056 18.013-19.056 18.013z" fill="#efb797"/><path data-name="Path 22882" d="M5542.229 1960.49l18.393 5.632 14.865 11.706a71.61 71.61 0 0 1-3.682 24.626c-.807 2.384-1.914 8.9-2.4 10.153-1.086 2.778-5.67 6.968-6.393 9.772-.962 3.646 1.024 6.631-.994 11.535-5.9 14.28-12.01 26.627-14.048 31.959-3.5 9.1-9.962 6.559-16.935 4.252-10.428-3.418-15.041-6.336-21.517-12.7-17.783-17.421-16.842-44.742-16.759-46.831l-.083-51.642z" fill="#efb797"/><path data-name="Path 22883" d="M5566.435 1978.025s-.362 30.336-3.321 33.636c-1.83 2.08-6.123 4.609-6.423 14.794-.165 5.5-16.179 16.536-17.421 32.969-.486 6.237 1.562 10.029 3.621 12.418-3.342 1.247-7.521-.294-11.856-1.717a86.68 86.68 0 0 1-4.975-1.789l-5.277 11.891-12.5 5.772s8.742-16.122 2.927-27.811c-2.968-5.939-19.6-12.606-21.041-26.375l2.979-11.891c-.042-.523-.093-1.009-.134-1.475 14.269-30.139 73.421-40.422 73.421-40.422z" fill="#cc9e7f" opacity=".27" style="mix-blend-mode:multiply;isolation:isolate"/><g data-name="Group 10810"><path data-name="Path 22884" d="M5483.563 2051.665c.113-1.128-5.783.015-6.28 1.878-.8 3-8.783 8.467-8.783 8.467s5.328 12.549 31.356 26.969c13.831 7.676 42.942 6.16 42.942 6.16s-2.277-4.676-4.625-9.9c-2.182-4.832-3.754-6.249-7.075-6.291-5.194-.046-16.459-.129-26.856-4.711 0 .001-22.159-9.284-20.679-22.572z" fill="#e3faff"/></g><path data-name="Path 22885" d="M5581.2 1968.849c8.948 8.792-5.9 18.005-5.9 18.005.021-.243-2.2.108-5.648-.434-6.487-1.046-8.452 2.493-8.751 2.627-2.877 1.272-9.746 35.416-9.746 35.416-.144 2.943-5.017 1.086-6.734-3.383-1.9-5-7.739-7.4-19.324 6.755 0 0-7.273 8.524-12.829 16.552-3.3 4.758-5.616 4.526-6.124 4.329 0 0-18.527-3.02-20-11.3-.238-1.3 1.107-11.467-7.6-36.124-5.71-16.227 8.524-46.568 18.859-50.716 3.352-1.329-2.948-.746-2.214-1.123 12.477-6.346 28.51-4.923 41.6-2.876 24.464 3.842 44.411 22.272 44.411 22.272z" fill="#7a7a7a"/><g data-name="Group 10811"><path data-name="Path 22886" d="M5543.853 2018.67a12.581 12.581 0 0 0-10.832 5.668c-3.755 5.613-1.9 9.156-1.241 10.6a11.149 11.149 0 0 0 4.231 5.214s2.773-11.881 3.4-14.033c.656-2.127 4.442-7.449 4.442-7.449z" fill="#efb797"/><path data-name="Path 22887" d="M5546.015 2018.132s3.465.683-.156 5.049c-3.6 4.37-4.923 7.215-5.679 10-.7 2.555-1.965 10.387-1.965 10.387s-2.908 2.648-3.838-2.571c-.476-2.457-.073-6.884 1.355-12.321.589-2.201 6.838-12.588 10.283-10.544z" fill="#f4c5ae"/></g><path data-name="Path 22888" d="M5560.591 1989.27a.512.512 0 0 1-.093.118c-.063.088-.135.187-.217.316a.585.585 0 0 0-.073.156 2.491 2.491 0 0 0-.279.49.8.8 0 0 0-.062.115c-.1.211-.207.45-.311.7-.01.021-.01.046-.031.062-.238.594-.5 1.283-.765 2.053v.021c-.114.352-.248.714-.372 1.1a2.979 2.979 0 0 1-.135.377c-.041.207-.114.419-.166.621a4.75 4.75 0 0 0-.165.512s2.214-10.009 9.445-15.993c5.441-4.516 10.821-6.978 1.645-15.61-9.725-9.176-31.315-15.72-44.029-19.154 4.076.325 8.06.847 11.8 1.432 24.466 3.838 44.411 22.268 44.411 22.268 8.948 8.792-5.9 18.005-5.9 18.005.021-.243-2.2.108-5.648-.434-6.487-1.046-8.452 2.493-8.751 2.627a1.067 1.067 0 0 0-.304.218z" fill="#fff" opacity=".15"/><path data-name="Path 22889" d="M5660.409 2219.749c5.658 4.676 7.189 13.453 5.948 15.983-7.075 14.4-36.983 49.614-41.08 53.622-21.817 21.363-40.23 10.464-47.576-6.764-13.851-32.5-24.321-79.885-29.659-109.807-2.307-13.045-3.776-49.945 22.449-48.9 21.88.863 29.213 24.062 31.086 42.771 7.221 72.125 12.156 76 12.156 76s.424 2.653 2.369.791c6.786-6.553 18.558-20.137 26.141-27.983 2.121-2.199 10.572-1.988 18.166 4.287z" fill="#fff"/><g data-name="Group 10812"><path data-name="Path 22890" d="M5636.419 2194.973a1.918 1.918 0 0 1-.952-1.122 2.7 2.7 0 0 1 .186-2.121 2.668 2.668 0 0 1 2.069-1.552 1.972 1.972 0 0 1 .953.181 2.409 2.409 0 0 1 .764 3.253 2.693 2.693 0 0 1-2.089 1.527 1.749 1.749 0 0 1-.931-.166zm-.207-2.969a2.328 2.328 0 0 0-.166 1.655 1.365 1.365 0 0 0 .642.755 1.817 1.817 0 0 0 2.183-1.1 1.726 1.726 0 0 0-.476-2.384 1.085 1.085 0 0 0-.631-.119 2.043 2.043 0 0 0-1.552 1.189z" fill="#2a3244"/></g><path data-name="Path 22891" d="M5616.039 2243.465c-1.882 1.8-2.306-.807-2.306-.807s-4.935-3.874-12.156-76c-1.6-16.071-7.283-35.4-22.686-41.106 4.634 10.868 9.941 29.348 11.576 59.375 2.255 40.945 12.538 56.441 8.794 63.352-2.173 3.968 4.541 3.465 6.888-.321 4.676-7.478 2.618 8.236 3.456 10.661.983 2.856.795-7.365 6.434-15.154z" fill="#acc6cc" opacity=".12" style="mix-blend-mode:multiply;isolation:isolate"/><path data-name="Path 22892" d="M5637.195 2259.561c-13.883 17.892-26.876 39.968-48.777 37.108 9.249 6.791 22.283 6.957 36.859-7.315 4.1-4.008 34.005-39.227 41.08-53.622 1.024-2.064.125-8.292-3.311-13.066-4.81 7.434-15.403 23.442-25.851 36.895z" fill="#acc6cc" opacity=".12" style="mix-blend-mode:multiply;isolation:isolate"/><g data-name="Group 10813"><path data-name="Path 22893" d="M5654.732 2066.935l-37.907-33.478c-4.049-3.577-7.006-11.856-6.571-18.4l2.1-31.593c.435-6.543 4.1-8.971 8.153-5.4l37.907 33.479c4.049 3.576 7.006 11.855 6.571 18.4l-2.1 31.593c-.435 6.548-4.104 8.975-8.153 5.399z" fill="#1c75bc"/><path data-name="Path 22894" d="M5657.837 2064.761l-1.724 25.935-13.51-39.389z" fill="#1c75bc"/><ellipse data-name="Ellipse 546" cx="2.334" cy="4.894" rx="2.334" ry="4.894" transform="rotate(-15.405 10290.608 -19777.896)" fill="#fff"/><ellipse data-name="Ellipse 547" cx="2.334" cy="4.894" rx="2.334" ry="4.894" transform="rotate(-15.405 10325.941 -19808.451)" fill="#fff"/><ellipse data-name="Ellipse 548" cx="2.334" cy="4.894" rx="2.334" ry="4.894" transform="rotate(-15.405 10361.276 -19838.998)" fill="#fff"/></g><path data-name="Path 22895" d="M5670.216 2137.056l-15.434-13.986a1.487 1.487 0 0 1-.291-1.842l4.183-7.294a1.488 1.488 0 0 1 2.259-.388l15.629 13.428a1.488 1.488 0 0 1 .33 1.853l-4.378 7.852a1.488 1.488 0 0 1-2.298.377z" fill="#1c75bc"/><path data-name="Path 22896" d="M5683.38 2163.56l-15.433-13.987a1.489 1.489 0 0 1-.292-1.842l4.184-7.293a1.486 1.486 0 0 1 2.259-.388l15.629 13.428a1.487 1.487 0 0 1 .33 1.852l-4.379 7.852a1.488 1.488 0 0 1-2.298.378z" fill="#8dc63f"/><path data-name="Path 22897" d="M5656.384 2160.406l-15.434-13.987a1.486 1.486 0 0 1-.291-1.842l4.183-7.293a1.487 1.487 0 0 1 2.259-.388l15.629 13.428a1.486 1.486 0 0 1 .33 1.852l-4.378 7.852a1.488 1.488 0 0 1-2.298.378z" fill="#1c75bc"/></g></g></svg>