<svg xmlns="http://www.w3.org/2000/svg" width="140.125" height="290.903" viewBox="0 0 140.125 290.903">
  <g id="ILLUSTRATION" transform="translate(-7081.998 -2033.654)">
    <path id="Path_22544" data-name="Path 22544" d="M7198.14,2295.73l-61.58-35.073c-6.714-3.067-16.322-5.508-23.161-1.949-6.232,3.244-16.5,9.882-21.038,12.47-3.447,1.967-15.416,9.137-7.962,13.191,21.93,11.924,43.632,25.335,65.9,37.449,4.211,2.291,10.373,3.119,16.84,2.582a44.6,44.6,0,0,0,18.238-5.432q5.552-3.228,10.921-6.357c4.83-2.812,7.391-6.138,7.645-9.213C7204.191,2300.394,7202.261,2297.611,7198.14,2295.73Z" fill="#c1d5de" fill-rule="evenodd" opacity="0.7" style="mix-blend-mode: multiply;isolation: isolate"/>
    <g id="Group_10723" data-name="Group 10723">
      <g id="Group_10722" data-name="Group 10722">
        <path id="Path_22545" data-name="Path 22545" d="M7156.146,2261.5c.91,3.195,1.139,4.845,2.466,6.7,2.647,3.71,6.55,6.359,12.233,10.387,2.7,1.917,3.275,3.734.536,5.405-2.155,1.315-7.43.27-10.724-.5-6.181-1.454-8.681-5.175-10.8-6.142l-1.6.364c-1.312.022-6.462-2.057-7.467-3.4a36.775,36.775,0,0,1-.807-4.789c-.19-5.233.63-4.7,2.029-8.794C7146.774,2261.068,7151.381,2261.335,7156.146,2261.5Z" fill="#111214" fill-rule="evenodd"/>
        <path id="Path_22546" data-name="Path 22546" d="M7173.174,2281.6c.026.826-.533,1.626-1.793,2.4-2.155,1.315-7.43.27-10.724-.5-6.181-1.454-8.681-5.175-10.8-6.142l-1.6.364c-1.312.022-6.462-2.057-7.467-3.4a36.775,36.775,0,0,1-.807-4.789c-.19-5.233.63-4.7,2.029-8.794,2.106.154,4.181.291,6.253.41.376,3.445-.126,9.386,2.708,11.6,3.17,2.471,5.642,3.129,7.76,4.417C7165.487,2281.25,7169.943,2284.583,7173.174,2281.6Z" fill-rule="evenodd"/>
        <path id="Path_22547" data-name="Path 22547" d="M7157.645,2267.37c-.674.995-2,1.556-4.191,2.1,3.535,3.985,4.033,3.611,8.781,6.28,2.393,2.734,2.725,3.253,4.252,4.135,1.823,1.053,4.4,2.135,5.48,1.357.465-.334-.161-1.271-2.169-2.726-2.277-1.65-4.6-3.322-6.691-5.066A24.7,24.7,0,0,1,7157.645,2267.37Z" fill="#20232e" fill-rule="evenodd"/>
      </g>
      <path id="Path_22548" data-name="Path 22548" d="M7138.446,2174.085a76.613,76.613,0,0,1-.674-12.21c3.853-1.541,7.9-3,11.808-4.706l-.279-.235c4.139-1.943,7.706-4.962,12.48-7.7,2,6.288,2.737,9.1,2.585,14.22a156.736,156.736,0,0,1-2.236,20.226c-.7,10.361-1.628,21.173-2.3,28.248-1.715,18.05-1.5,35.856-2.584,53.875-2.237,3.671-13.027,3.9-16.713-1.264-.552-14.254-1.443-25.51-1.041-33.309.336-6.493.645-10.233,2.745-16C7140.838,2205.624,7138.957,2187.947,7138.446,2174.085Z" fill="#001624" fill-rule="evenodd"/>
      <path id="Path_22549" data-name="Path 22549" d="M7120.451,2280.438c-.792,2.31-1.514,4.1-1.44,5.551.076,1.5.487,2.965.468,4.868-.016,1.63-.1,3.017-.29,4.863-.192,1.888,0,2.781.833,3.535,1.347,1.226,5.358,3.122,7.258,3.767a7.65,7.65,0,0,0,3.327.446,14.789,14.789,0,0,0,4.459-.812c.41-.154.831-1.747.861-3.127.062-2.891-.2-2.647-1.4-7.229-.41-1.565-.74-3.057-1.3-4.886-.7-2.277-1.57-4.281-1.661-6.521l-8.465-.331Z" fill="#111214" fill-rule="evenodd"/>
      <path id="Path_22550" data-name="Path 22550" d="M7120.451,2280.438c-.792,2.31-1.514,4.1-1.44,5.551.076,1.5.487,2.965.468,4.868-.016,1.63-.1,3.017-.29,4.863-.192,1.888,0,2.781.833,3.535,1.347,1.226,5.358,3.122,7.258,3.767a7.65,7.65,0,0,0,3.327.446,14.789,14.789,0,0,0,4.459-.812c.372-.14.751-1.458.842-2.732h-.023c-2.588.882-5.1,1.234-7.583.02-5.248-2.562-4.565-4.692-4.072-10.741,3.414-.6,4.756-1.208,6.488-3.078-2.911.856-6.039,1.009-7.588-.77l-.48-4.812Z" fill-rule="evenodd"/>
      <path id="Path_22551" data-name="Path 22551" d="M7151.023,2215.172c-3.539,16.722-4.435,28.522-2.175,53.278-3.257-.241-6.576-1.477-8.314-3.911-.552-14.254-1.443-25.51-1.041-33.309.336-6.493.645-10.233,2.745-16-1.8-12.349-4.4-38.041-3.848-51.815l7.391-2.955C7148.022,2180.834,7149.435,2191.343,7151.023,2215.172Z" fill="#00101a" fill-rule="evenodd"/>
      <path id="Path_22552" data-name="Path 22552" d="M7143.371,2181.424c-1.364,13.888-4.037,33.189-5.589,43.047-2.819,17.91-3.261,38.911-4.844,56.893-2.447,3.826-11.667,4.615-15.2-.147-.153-14.264-1.447-30.234-.826-38.019a49.212,49.212,0,0,1,3.856-16.122c-.355-11.118-6.155-56.787,1.507-65.749a6.7,6.7,0,0,1,1.442-2.028l11.162-.872,13.241-1.541a38.359,38.359,0,0,1-.1,15.725,2.439,2.439,0,0,1-.3.648c-.126.936-.294,1.881-.507,2.827C7147.027,2176.953,7144.907,2179.378,7143.371,2181.424Z" fill="#001e30" fill-rule="evenodd"/>
      <path id="Path_22553" data-name="Path 22553" d="M7131.253,2172.251a43.66,43.66,0,0,0-2.765,15.325c-.19,8.453-.819,28.439-1.622,37.953-1.573,18.65-5.126,34.193-2.311,58.957a9.074,9.074,0,0,1-6.814-3.269c-.153-14.264-1.447-30.235-.826-38.019a49.212,49.212,0,0,1,3.856-16.122c-.362-11.338-6.389-58.615,1.976-66.242l12.751-.873C7133.856,2164.7,7133.338,2167.424,7131.253,2172.251Z" fill="#001624" fill-rule="evenodd"/>
      <path id="Path_22554" data-name="Path 22554" d="M7132.008,2286.592c-2.449,1.932-1.591,2.776-5.167,3.243a20.023,20.023,0,0,0,2.788,6.969c.143,1.348.252,3.116,2.875,3.132,4.9.032,1.5-4.011,1.483-4.163A40.31,40.31,0,0,0,7132.008,2286.592Z" fill="#20232e" fill-rule="evenodd"/>
      <path id="Path_22555" data-name="Path 22555" d="M7161.3,2153.231a34.6,34.6,0,0,1-9.227,6.481c-.012,6.321-.008,18.03.227,29.733.026,6.922.137,13.971.437,19.838.011.284.019.57.027.856-.588,4.871-2.87,7.619-3.157,14.94a185.919,185.919,0,0,0,2.184,30.748c-.047,3.917-.073,7.822-.04,11.714a7.683,7.683,0,0,0,5.187-2.143l.29-44.329c.279-7.063,1.366-17.637,2.24-28.514C7161.322,2179.564,7163.118,2164.5,7161.3,2153.231Z" fill="#001e30" fill-rule="evenodd"/>
      <path id="Path_22556" data-name="Path 22556" d="M7135.957,2163.256l-.032.009a205.751,205.751,0,0,1-5.978,20.4c-1.627,14.1-1.212,29.487-1.408,40.359-1.468,19.89-3.13,39.82-4.122,59.735,1.81-.157,5.823-.965,6.786-1.838,1.086-16.218.893-39.087,2.914-54.328.412-3.112,3.416-29.543,7.037-44.521,1.214-5.018,4.684-4.923,5.386-7.809,1.525-6.26,1.557-9.117.93-15.915C7143.664,2160.773,7139.869,2162.14,7135.957,2163.256Z" fill="#00263d" fill-rule="evenodd"/>
    </g>
    <g id="Group_10726" data-name="Group 10726">
      <g id="Group_10725" data-name="Group 10725">
        <path id="Path_22557" data-name="Path 22557" d="M7159.964,2118.581a5.1,5.1,0,0,1-3.644.391c-1.82-.625-3.174-2.875-4.26-4.638-2.945-4.786-4.793-17.346-4.248-34.814.3-9.684,7.262-12.033,11.531-7.923a12.563,12.563,0,0,1,2.864,6.044,94.011,94.011,0,0,1,1.608,12.639c.6,7.35,1.058,15.194.837,17.622Z" fill="#d2eefc" fill-rule="evenodd"/>
        <path id="Path_22558" data-name="Path 22558" d="M7197.006,2122.271c-.711-2.051.4-7.431,1.574-8.856a3.073,3.073,0,0,1,1.421-.445c2.37.566-.017,9.771-2.439,9.531A1.421,1.421,0,0,1,7197.006,2122.271Z" fill="#d1d7f2" fill-rule="evenodd"/>
        <g id="Group_10724" data-name="Group 10724">
          <path id="Path_22559" data-name="Path 22559" d="M7216.3,2115.215a35.716,35.716,0,0,1,2.208-3.277,21.314,21.314,0,0,0,1.178-1.841l.006-.011c-2.577-.242-6.284.633-8.573.824a22.7,22.7,0,0,1-3.426-.236,12.656,12.656,0,0,0,2.155-2.775c1.5-1.978,1.06-3.375-.34-4.231a13.663,13.663,0,0,1-2.129,3.014c-1.176,1.149-2.374,1.446-3.634,2.367-1.461,1.07-2.8,3.855-4.126,4.518-.853.427-1.883.159-4.663.1l-2.686,3.806-.939,3.9a82.633,82.633,0,0,0,9.719.92c2.625,1.993,7.365,1.015,10.542-.127a29.721,29.721,0,0,0,3.2-.539A12.177,12.177,0,0,1,7216.3,2115.215Z" fill="#9e6d4c" fill-rule="evenodd"/>
          <path id="Path_22560" data-name="Path 22560" d="M7210.61,2113.559a30.866,30.866,0,0,1,8.265-1.306c.371-.719.765-1.431,1.19-2.125-2.58-.373-6.545.581-8.946.782a19.7,19.7,0,0,1-3.248-.223c-1.133.236-2.265.5-3.556.823,1.254-1.076,2.51-2.107,3.795-3.146,1.64-1.391,2.175-2.6,1.955-4.279a3.424,3.424,0,0,0-.557-.417,13.663,13.663,0,0,1-2.129,3.014c-1.176,1.149-2.374,1.446-3.634,2.367-1.461,1.07-2.8,3.855-4.126,4.518-.853.427-1.883.159-4.663.1l-2.31,3.274a37.755,37.755,0,0,0,9.018.48,2.814,2.814,0,0,0,2.994.968C7211.671,2117.191,7207.613,2113.773,7210.61,2113.559Z" fill="#ad7c5b" fill-rule="evenodd"/>
        </g>
        <path id="Path_22561" data-name="Path 22561" d="M7200.081,2112.963c-2.444.411-3.523,8.279-2.429,9.558l-3.18-.1c-2.045-3.31-2.264-9.593,1.838-9.817C7196.944,2112.567,7199.192,2112.913,7200.081,2112.963Z" fill="#e6edff" fill-rule="evenodd"/>
        <path id="Path_22562" data-name="Path 22562" d="M7198.132,2112.479c-1.779,1.129-3.739,6.815-2.219,10.135a99.988,99.988,0,0,1-38.447-2.005,4.346,4.346,0,0,1-2.758-1.849c-1.031-1.528.3-5.1.447-7.342l7.661-4.644C7169.172,2106.2,7187.629,2110.109,7198.132,2112.479Z" fill="#d2eefc" fill-rule="evenodd"/>
        <path id="Path_22563" data-name="Path 22563" d="M7195.384,2119.242a7.27,7.27,0,0,0,.529,3.372,99.988,99.988,0,0,1-38.447-2.005,4.347,4.347,0,0,1-2.758-1.849c-1.031-1.528-.677-2.464-.535-4.7a6.21,6.21,0,0,0,4.422,3.591C7169.411,2120.7,7184.167,2118.487,7195.384,2119.242Z" fill="#c3e6f7" fill-rule="evenodd"/>
        <path id="Path_22564" data-name="Path 22564" d="M7161.208,2121.44c-1.51-.367-4.3-.714-4.967-1.054-1.714-.875-4.025-4.584-4.713-6.446-2.228-6.035-4.772-20.751-3.324-42.306.98.373,9.112.652,9.842,1.106a9.292,9.292,0,0,1,1.207.883c1.149,3.844,2.268,7.15,1.992,10.907-.321,4.371-5.107,14.637-6.359,18.344-.489,3.272-1.332,9.2.6,13.483C7156.545,2118.7,7158.26,2120.131,7161.208,2121.44Z" fill="#c3e6f7" fill-rule="evenodd"/>
        <path id="Path_22565" data-name="Path 22565" d="M7198.162,2112.467c-.849.378-1.982,2.677-2.174,3.563-8.6-1.5-31-5.054-36.6-.723,1.176-3.819,3.011-7.42,5.278-8.519C7171.517,2106.677,7188.756,2110.344,7198.162,2112.467Z" fill="#e0f5ff" fill-rule="evenodd"/>
      </g>
      <path id="Path_22566" data-name="Path 22566" d="M7163,2083.558c-.72,8.944-3.725,14.248-3.764,20.3-.028,4.407,1.828,7.22.235,11.311l5.247-8.221C7164.469,2098.351,7163.848,2091.179,7163,2083.558Z" fill="#e0f5ff" fill-rule="evenodd"/>
    </g>
    <path id="Path_22567" data-name="Path 22567" d="M7118.737,2079.632c5.348-2.968,23.8-14.69,29.194-13.891,14.487,2.145,16.356,15.338,15.865,35.188-.162,6.593-1.206,12.389-1.287,20.58-.069,6.93.856,17.353,1.238,26.539.159,3.829,3.228,38.846,3.087,41.9-4.4-18.241-6.744-32.24-9.686-42.206-1.966,8.512-3.388,46.349-5.511,53.548-7.8,4.9-28.942,8.466-36.253-.617-.685-26.455.042-38.762.768-41.749,2.188-8.976,5.544-11.2,6.161-20.21.644-9.38-12.835-34.434-12.712-47.4C7109.656,2085.564,7114.5,2081.98,7118.737,2079.632Z" fill="#d2eefc" fill-rule="evenodd"/>
    <path id="Path_22568" data-name="Path 22568" d="M7151.322,2072.436c7.7,9.021,7.182,25.648,7.053,39.648-.074,8.058-1.423,19.68.234,31.186,3.189,22.154,5.761,29.818,7.58,43-.206-4.919-3.388-38.141-3.627-43.283-.583-12.493-1.021-25.351-.146-37.161,1.05-14.194,1.329-28.22-6.926-36.334C7153.369,2068.359,7150.77,2070.264,7151.322,2072.436Z" fill="#e0f5ff" fill-rule="evenodd"/>
    <path id="Path_22569" data-name="Path 22569" d="M7118.737,2079.632l11.543-6.4c-1.723,2.763-7.331,7.346-11.6,12.556,6.1,9.063,12.995,28.019,14.008,41.953,1.414,19.469-2.427,26.085-3.818,36.194-1.184,8.611-.841,38.293-.856,42.234-5.211-.634-9.794-1.968-12.631-5.491-.643-13.619-.051-35.1.324-38.675,1.246-11.8,5.923-13.333,6.6-23.284.644-9.38-12.835-34.434-12.712-47.4C7109.656,2085.564,7114.5,2081.98,7118.737,2079.632Z" fill="#c3e6f7" fill-rule="evenodd"/>
    <path id="Path_22570" data-name="Path 22570" d="M7149.061,2070.986c4.221,1.969,4.663,2.641,7.6,7.169l-2.562,2.116,3.23,1.057c1.283,13.079.429,30.9-.307,44.158-1.551-13.134-1.405-32.211-5.779-43.829a32.408,32.408,0,0,0-4.15-7.3C7146.64,2073.687,7148.269,2070.616,7149.061,2070.986Z" fill="#ebf9ff" fill-rule="evenodd"/>
    <path id="Path_22571" data-name="Path 22571" d="M7131.99,2074.7c-1.2,19.348,19.476,18.12,24.89,47-1.195-16.019-.416-28.072-6.9-43.211l-1.5,2.116-4.343.78Z" fill="#001624" fill-rule="evenodd"/>
    <path id="Path_22572" data-name="Path 22572" d="M7130.632,2071.139c-1.949,1.805-3.546,2.625-4.083,3.929-1.656,4.023,3.237,11.063,5.226,18.026l3.827-1.057-1.285,3.855c14.82,11.3,21.156,16.782,23.457,32.936C7155.151,2088.992,7129.475,2088.384,7130.632,2071.139Z" fill="#ebf9ff" fill-rule="evenodd"/>
    <g id="Group_10727" data-name="Group 10727">
      <path id="Path_22573" data-name="Path 22573" d="M7135.738,2145.9c5.669-2.619,7.229-3.3,12.151-4.519l-2.065,14.449a19.226,19.226,0,0,1-11.678,4.327Z" fill="#d2eefc" fill-rule="evenodd"/>
      <path id="Path_22574" data-name="Path 22574" d="M7135.738,2145.9c5.669-2.619,7.229-3.3,12.151-4.519-.648,4.322-.312,4.139-4.642,6.251-7.734,3.771-5.336,3.6-7.892,12.462-.113.39-.811.057-1.209.063Z" fill="#c3e6f7" fill-rule="evenodd"/>
      <path id="Path_22575" data-name="Path 22575" d="M7136.129,2144c5.706-2.616,8.244-4.143,12.477-5.97l-1.012,5.833c-1.436,1.367-9.014,5.507-12.39,5.365Z" fill="#d2eefc" fill-rule="evenodd"/>
      <path id="Path_22576" data-name="Path 22576" d="M7136.129,2144c5.706-2.616,8.244-4.143,12.477-5.97-4.1,3.286-11.067,5.846-12.213,11.11a6.014,6.014,0,0,1-1.189.088Z" fill="#c3e6f7" fill-rule="evenodd"/>
      <path id="Path_22577" data-name="Path 22577" d="M7146.917,2146.52l-7.128,4.2-2.784,8.3a29.772,29.772,0,0,0,7.935-2.951Z" fill="#e0f5ff" fill-rule="evenodd"/>
      <path id="Path_22578" data-name="Path 22578" d="M7148,2139c-3.318,2.439-7.981,5.85-9.911,9.161a34.546,34.546,0,0,0,8.743-4.316A26.592,26.592,0,0,0,7148,2139Z" fill="#e0f5ff" fill-rule="evenodd"/>
    </g>
    <g id="Group_10730" data-name="Group 10730">
      <g id="Group_10728" data-name="Group 10728">
        <path id="Path_22579" data-name="Path 22579" d="M7159.348,2137.186c1.872-2.159,2.387-2.708,4.013-3.531l-.167,14.921c-.9,1.383-3.607,2.9-4.372,2.737Z" fill="#d2eefc" fill-rule="evenodd"/>
        <path id="Path_22580" data-name="Path 22580" d="M7159.348,2137.186c1.872-2.159,2.387-2.708,4.013-3.531-.215,4.27-.1,4.114-1.533,5.872-2.555,3.143-1.686,3.156-2.53,11.808a1.428,1.428,0,0,1-.476-.022Z" fill="#c3e6f7" fill-rule="evenodd"/>
        <path id="Path_22581" data-name="Path 22581" d="M7163.04,2138.719l-2.354,3.624-.558,8.294a6.511,6.511,0,0,0,2.69-2.307Z" fill="#e0f5ff" fill-rule="evenodd"/>
      </g>
      <g id="Group_10729" data-name="Group 10729">
        <path id="Path_22582" data-name="Path 22582" d="M7159.043,2133.707c1.985-1.192,2.836-2.093,4.321-2.861l.149,5.687c-.435,1.023-3.011,3.286-4.344,2.266Z" fill="#d2eefc" fill-rule="evenodd"/>
        <path id="Path_22583" data-name="Path 22583" d="M7159.043,2133.707c1.985-1.192,2.836-2.093,4.321-2.861-1.3,2.29-3.781,3.1-3.739,8.171a1.248,1.248,0,0,1-.456-.218Z" fill="#c3e6f7" fill-rule="evenodd"/>
        <path id="Path_22584" data-name="Path 22584" d="M7163.218,2131.682a17.06,17.06,0,0,0-3.02,6.777c1.34-.344,1.789-.758,3.015-2.14C7163.305,2134.769,7163.251,2133.349,7163.218,2131.682Z" fill="#e0f5ff" fill-rule="evenodd"/>
      </g>
    </g>
    <g id="Group_10736" data-name="Group 10736">
      <g id="Group_10734" data-name="Group 10734">
        <g id="Group_10731" data-name="Group 10731">
          <path id="Path_22585" data-name="Path 22585" d="M7145.129,2083.665c.683,2.976.8,2.966,3.489,5.017-.349,1.513-.579,2.819-.811,4.368,5.309,12.813,6.393,15.964,9.407,30.653-.1-2.383.329-.592.228-2.615a220.629,220.629,0,0,0-4.037-32.619,9.385,9.385,0,0,0-2.788-1.011c.775-3.285.38-5.4-.289-5.8C7147.9,2081.568,7146.886,2081.855,7145.129,2083.665Z" fill="#596e7d" fill-rule="evenodd"/>
          <path id="Path_22586" data-name="Path 22586" d="M7145.129,2083.665c.683,2.976.8,2.966,3.489,5.017-.349,1.513-.579,2.819-.811,4.368,5.309,12.813,6.393,15.964,9.407,30.653-.1-2.383.329-.592.228-2.615l-.025-.492a117.319,117.319,0,0,0-7.755-28.084,24.961,24.961,0,0,1-.009-4.484,7.93,7.93,0,0,1-3.487-5.319l.1-.08-.1.159-.012-.07A10.867,10.867,0,0,0,7145.129,2083.665Z" fill="#41535f" fill-rule="evenodd"/>
          <path id="Path_22587" data-name="Path 22587" d="M7150.7,2082.219l-1.825.306-.716,1.964,2.029,3.125-.039.013a13.269,13.269,0,0,1,.745,4.209c3.494,8.595,3.864,11.387,5.862,20.5-.318-7.386-1.893-16.534-3.349-23.869a9.392,9.392,0,0,0-2.785-1.01C7151.03,2085.357,7151.332,2083.74,7150.7,2082.219Z" fill="#7b94a6" fill-rule="evenodd"/>
        </g>
        <g id="Group_10732" data-name="Group 10732">
          <path id="Path_22588" data-name="Path 22588" d="M7130.541,2073.654c-.4,4.639,12.305,10.712,17.143,8.339.51-.252.777-1.323,1.092-1.755a8.308,8.308,0,0,1-.476-3.1,13.361,13.361,0,0,1,1.069-3.613c.578-1.568.6-4.888,1.595-8.563l-14.481-6.313-3.1-1.645C7134.867,2064.233,7133.228,2067.594,7130.541,2073.654Z" fill="#9e6d4c" fill-rule="evenodd"/>
          <path id="Path_22589" data-name="Path 22589" d="M7130.54,2073.654a2.106,2.106,0,0,0,.064.781c6.864-4.322,11.139-.7,19.189-2.854a53.358,53.358,0,0,1,1.171-6.62l-14.481-6.313-3.1-1.645C7134.868,2064.233,7133.228,2067.594,7130.54,2073.654Z" fill="#8f6142" fill-rule="evenodd"/>
        </g>
        <g id="Group_10733" data-name="Group 10733">
          <path id="Path_22590" data-name="Path 22590" d="M7147.677,2081.808c.558-1.4.165-4.116.745-5.445,1.649.21,3.4,4.14,4.8,7.082A7.568,7.568,0,0,0,7147.677,2081.808Z" fill="#002740" fill-rule="evenodd"/>
          <path id="Path_22591" data-name="Path 22591" d="M7148.05,2081.53c.47-1.182.138-3.467.626-4.586,1.388.178,2.861,3.487,4.04,5.963A6.364,6.364,0,0,0,7148.05,2081.53Z" fill="#003454" fill-rule="evenodd"/>
          <path id="Path_22592" data-name="Path 22592" d="M7131.62,2071.072c-.331,5.327,10.483,9.408,16.127,10.751-1.416,1.71-3.263,3.848-3.191,5.556-4.069-1.114-11.761-3.763-14.557-8.967C7128.087,2074.853,7129.765,2072.489,7131.62,2071.072Z" fill="#002740" fill-rule="evenodd"/>
          <path id="Path_22593" data-name="Path 22593" d="M7139.12,2079.719c3.042.932,5.44,2.021,7.532,2.52-1.587,1.5-2.6,2.691-2.534,4.235a31.151,31.151,0,0,1-8.225-3.588C7133.949,2080.88,7135.5,2078.4,7139.12,2079.719Z" fill="#003454" fill-rule="evenodd"/>
        </g>
      </g>
      <g id="Group_10735" data-name="Group 10735">
        <path id="Path_22594" data-name="Path 22594" d="M7147.983,2072.235c-1.9-.764-6.852-3.935-9.785-4.751-2.219-.617-2.083-3.335-4.174-7.808-3.517-1.566-4.9-3.095-5.579-5.005-1.6-4.537.026-10.109,3.029-13.586a12.642,12.642,0,0,1,10.282-4.386c4.256.058,7.9.553,10.285,2.875,1.907,1.859,4.526,8.17,4.252,10.916-.145,1.45-.608,2.174-.723,3.162-.269,2.324.739,1.906,1.036,3.653a18.154,18.154,0,0,1-.637,6.532c-.326,1.255-.751,5.875-1.3,6.412-1.06,1.038-3.828,2.588-4.736,2.5A14.788,14.788,0,0,1,7147.983,2072.235Z" fill="#ad7c5b" fill-rule="evenodd"/>
        <path id="Path_22595" data-name="Path 22595" d="M7148.18,2073.339c-1.936-.587-7.665-4.424-10.339-5.445-3.458-1.32-1.351-3.638-3.817-8.218-3.517-1.566-4.9-3.095-5.579-5.005-1.6-4.535.026-10.109,3.029-13.586a12.642,12.642,0,0,1,10.282-4.386c5.521.076,8.991.914,11.182,4a12.3,12.3,0,0,1,1.087,1.868c-.593,2.928-7.78,4.325-10.235,4.441-1.751.082-2.107,1.054-2.518,2.828s1.868,4.123,1.908,4.977c.064,1.311-2.079,2.428-1.532,4.3.309,1.059,3.858,2.072,4.026,3.631.2,1.857.276,3.4.456,4.814a15.336,15.336,0,0,0,.517,2.541,4.705,4.705,0,0,0,2.218,2.358,2.285,2.285,0,0,0,2.041.056C7149.41,2073.122,7149.157,2073.564,7148.18,2073.339Z" fill="#9e6d4c" fill-rule="evenodd"/>
        <path id="Path_22596" data-name="Path 22596" d="M7137.851,2045.767c2.164-3.618,13.3-1.546,14.833-5.427-4.038-8.862-24.881-10.9-26.343,6.345-.433,5.114,2.173,9.68,5.734,13.49a15.044,15.044,0,0,1,2.908,3.687q.242.205.482.407l.548-6.863.244-.355a8.52,8.52,0,0,0,1.531.974c.4-.726.555-1.3.8-1.735-1.173-2.14-.064-3.2.086-4.513C7138.916,2049.668,7136.5,2048.027,7137.851,2045.767Z" fill="#4e3625" fill-rule="evenodd"/>
        <path id="Path_22597" data-name="Path 22597" d="M7134.983,2063.862q.242.205.482.407l.548-6.863.244-.355a8.52,8.52,0,0,0,1.531.974c.4-.726.555-1.3.8-1.735-3.959-4.619-9.221-2.827-12.28-7.845.216,4.405,2.616,8.363,5.764,11.73A15.044,15.044,0,0,1,7134.983,2063.862Z" fill="#3d291c" fill-rule="evenodd"/>
        <path id="Path_22598" data-name="Path 22598" d="M7133.889,2054.663c-2.281-.52-2.906.964-2.852,2.7.049,1.583.35,3.3,1.789,4.16a2.666,2.666,0,0,1,1.2,1.1,3.08,3.08,0,0,0,3,1.919c2.045-.272.457-3.186.087-4.373C7137.15,2058.16,7136.1,2055.168,7133.889,2054.663Z" fill="#9e6d4c" fill-rule="evenodd"/>
        <path id="Path_22599" data-name="Path 22599" d="M7151.7,2041.35c.814-.726.561-1.74-.035-2.684-4.362-5.632-16.038-7.374-21.919-.708a1.344,1.344,0,0,0-.1.35c-.446,3.7,5.591,1.556,14.112,4.183C7146.2,2043.243,7150.443,2042.47,7151.7,2041.35Z" fill="#61422d" fill-rule="evenodd"/>
      </g>
    </g>
    <g id="Group_10737" data-name="Group 10737">
      <path id="Path_22600" data-name="Path 22600" d="M7201.372,2125.5l11.851,2.489.656-3.125-10.46-9.11Z" fill="#c3e6f7"/>
      <path id="Path_22601" data-name="Path 22601" d="M7217.652,2106.9l-11.851-2.489-.667,3.174,10.524,8.8Z" fill="#c3e6f7"/>
      <path id="Path_22602" data-name="Path 22602" d="M7203.822,2113.837l10.524,8.8.207-.986-10.46-9.11Z" fill="#c3e6f7"/>
      <path id="Path_22603" data-name="Path 22603" d="M7205.135,2107.585l-1.042,4.961,10.46,9.11,1.106-5.267Z" fill="#c3e6f7"/>
      <path id="Path_22604" data-name="Path 22604" d="M7205.135,2107.585l-1.042,4.961,10.46,9.11,1.106-5.267Z" fill="#aecddd" style="mix-blend-mode: multiply;isolation: isolate"/>
      <path id="Path_22605" data-name="Path 22605" d="M7204.625,2102.489l-.834,3.972-1.034,4.922-.279,1.33-.394,1.878-2.562,12.195,14.877,3.125.815-3.884.475-2.261.2-.947,1.115-5.306,2.5-11.9Zm9.721,20.153-.467,2.222-.656,3.125-11.851-2.489,2.047-9.746.4-1.917.271-1.291,1.042-4.961.666-3.175,11.851,2.489-1.993,9.49-1.106,5.267Z" fill="#001624"/>
      <path id="Path_22606" data-name="Path 22606" d="M7203.419,2115.754l10.46,9.11.467-2.223-10.524-8.8Z" fill="#c3e6f7"/>
      <path id="Path_22607" data-name="Path 22607" d="M7203.419,2115.754l10.46,9.11.467-2.223-10.524-8.8Z" fill="#aecddd" style="mix-blend-mode: multiply;isolation: isolate"/>
    </g>
    <path id="Path_22608" data-name="Path 22608" d="M7117.53,2132.154a5.1,5.1,0,0,1-3.665-.012c-1.74-.822-2.839-3.207-3.724-5.078-2.4-5.082-2.855-17.769-.392-35.07,1.367-9.592,8.543-11.161,12.333-6.607a12.573,12.573,0,0,1,2.182,6.322,94.321,94.321,0,0,1,.208,12.739c-.215,7.372-.621,15.219-1.108,17.608Z" fill="#d2eefc" fill-rule="evenodd"/>
    <path id="Path_22609" data-name="Path 22609" d="M7118.451,2135.133c-1.46-.532-4.2-1.183-4.82-1.594-1.608-1.058-3.5-5-3.976-6.926-1.55-6.244-2.459-21.15,1.352-42.415.932.479,8.985,1.651,9.661,2.182a9.35,9.35,0,0,1,1.1,1.01c.72,3.948,1.468,7.357.78,11.061-.8,4.309-6.686,13.986-8.338,17.533-.847,3.2-2.337,9-.886,13.467C7114.119,2131.892,7115.666,2133.507,7118.451,2135.133Z" fill="#c3e6f7" fill-rule="evenodd"/>
    <path id="Path_22610" data-name="Path 22610" d="M7124.4,2097.678c-1.7,8.811-5.27,13.751-5.974,19.761-.514,4.376,1.022,7.377-1.012,11.267l6.12-7.593C7124.234,2112.543,7124.406,2105.346,7124.4,2097.678Z" fill="#e0f5ff" fill-rule="evenodd"/>
    <g id="Group_10739" data-name="Group 10739">
      <path id="Path_22611" data-name="Path 22611" d="M7129.06,2172.011s4.421,8.158-2.027,8.152a8.69,8.69,0,0,1-8.949-6.7Z" fill="#9e6d4c" fill-rule="evenodd"/>
      <path id="Path_22612" data-name="Path 22612" d="M7114.732,2158.093c1.883-1.081,7.376-.993,9-.1a3.07,3.07,0,0,1,.7,1.314c-.115,2.433-9.6,1.8-9.818-.624A1.4,1.4,0,0,1,7114.732,2158.093Z" fill="#d1d7f2" fill-rule="evenodd"/>
      <g id="Group_10738" data-name="Group 10738">
        <path id="Path_22613" data-name="Path 22613" d="M7123.77,2159.041c.9,1.179,3.884,1.978,5.207,3.214,1.139,1.067,1.654,2.188,3,3.13a13.66,13.66,0,0,0,3.357,1.531c-.581,1.535-1.872,2.223-4.094,1.121a12.631,12.631,0,0,1-3.127-1.6,22.626,22.626,0,0,0,.4,3.41c.475,1.715,1.511,4.19,2.068,6.417-.113.038-.229.054-.339.1a6.171,6.171,0,0,1-3.615.459,19.773,19.773,0,0,0-5.83-.6,5.635,5.635,0,0,0-.576.113c-.182-.3-.356-.6-.528-.9a3.33,3.33,0,0,0-1.574-1.331c-.2-.544-.4-1.1-.584-1.7-1.712-2.909-3.555-7.384-2.085-10.334a82.726,82.726,0,0,1-.9-9.72l4.01.2,4.239,1.931C7123.264,2157.221,7123.192,2158.283,7123.77,2159.041Z" fill="#9e6d4c" fill-rule="evenodd"/>
        <path id="Path_22614" data-name="Path 22614" d="M7123.77,2159.041c.9,1.179,3.884,1.978,5.207,3.214,1.139,1.067,1.654,2.188,3,3.13a13.66,13.66,0,0,0,3.357,1.531,3.453,3.453,0,0,1-.306.626c-1.609.528-2.9.227-4.568-1.126-1.26-1.07-2.506-2.111-3.8-3.143.555,1.208,1.027,2.271,1.469,3.34a19.805,19.805,0,0,0,.385,3.233c.368,1.329,1.072,3.116,1.631,4.89l-.053.022c-.307.147-.656.324-.954.488-.019.011-.039.021-.058.033a1.108,1.108,0,0,0-.133.095,8.091,8.091,0,0,0-.691.613,39.718,39.718,0,0,0-2.439-6.148c-.768-2.905-3.372,1.718-5.856-4.95a2.814,2.814,0,0,1,.394-3.122,37.694,37.694,0,0,1-1.205-8.949l3.646,1.661C7123.264,2157.221,7123.192,2158.283,7123.77,2159.041Z" fill="#ad7c5b" fill-rule="evenodd"/>
      </g>
      <path id="Path_22615" data-name="Path 22615" d="M7124.45,2159.383c-.858-2.325-8.79-1.922-9.843-.61l-.491-3.143c2.872-2.624,9.006-4.008,9.988-.02C7124.256,2156.226,7124.333,2158.5,7124.45,2159.383Z" fill="#e6edff" fill-rule="evenodd"/>
      <path id="Path_22616" data-name="Path 22616" d="M7124.563,2157.378c-1.441-1.539-7.392-2.407-10.371-.295a100.016,100.016,0,0,1-5.181-38.15,4.345,4.345,0,0,1,1.3-3.053c1.309-1.3,5.069-.651,7.3-.927l5.989,6.664C7125.344,2127.755,7124.938,2146.617,7124.563,2157.378Z" fill="#d2eefc" fill-rule="evenodd"/>
      <path id="Path_22617" data-name="Path 22617" d="M7117.407,2155.935a7.281,7.281,0,0,0-3.215,1.148,100.016,100.016,0,0,1-5.181-38.15,4.347,4.347,0,0,1,1.3-3.053c1.309-1.3,2.295-1.124,4.523-1.4a6.209,6.209,0,0,0-2.707,5.013C7111.148,2130.686,7116.063,2144.774,7117.407,2155.935Z" fill="#c3e6f7" fill-rule="evenodd"/>
      <path id="Path_22618" data-name="Path 22618" d="M7124.581,2157.405c-.53-.764-3-1.449-3.906-1.474-.129-8.727-.8-31.4-6.1-36.1,3.972.446,7.852,1.579,9.353,3.6C7125.313,2130.148,7124.917,2147.768,7124.581,2157.405Z" fill="#e0f5ff" fill-rule="evenodd"/>
      <path id="Path_22619" data-name="Path 22619" d="M7128.977,2162.255s4.745,4.352,4.31,5.321-4.384-.336-6.621-4.3" fill="#ad7c5b"/>
    </g>
    <path id="Path_22620" data-name="Path 22620" d="M7202.985,2109.256s5.574-3.556,6.27-2.754c1.835,2.114-2.36,5.1-6.777,6.211" fill="#ad7c5b"/>
    <path id="Path_22621" data-name="Path 22621" d="M7217.948,2110.282s-6.91,7.38-4.761,9.867,3.047.732,3.047.732S7222.644,2109.977,7217.948,2110.282Z" fill="#ad7c5b"/>
    <g id="Group_10746" data-name="Group 10746">
      <rect id="Rectangle_134" data-name="Rectangle 134" width="19.504" height="21.59" rx="3.736" transform="translate(7202.62 2068.759) rotate(0.494)" fill="#ed1c24"/>
      <g id="Group_10745" data-name="Group 10745">
        <g id="Group_10744" data-name="Group 10744">
          <path id="Path_22622" data-name="Path 22622" d="M7216.009,2078.231a3.717,3.717,0,0,0-3.111-3.7l0-.22a.592.592,0,0,0-.514-.6.576.576,0,0,0-.637.567l0,.246a3.714,3.714,0,0,0-3.174,3.642c-.055,6.4-1.811,3.8-1.827,5.7a.306.306,0,0,0,.3.31l10.378.089a.306.306,0,0,0,.31-.3v-.088C7217.753,2082.232,7215.955,2084.464,7216.009,2078.231Zm-3.791,8.377a1.929,1.929,0,0,0,1.94-1.791l-3.848-.033A1.929,1.929,0,0,0,7212.218,2086.608Z" fill="#fff"/>
          <g id="Group_10740" data-name="Group 10740">
            <path id="Path_22623" data-name="Path 22623" d="M7217.093,2078.2l-.247,0a.178.178,0,0,1-.175-.175,4.051,4.051,0,0,0-1.164-2.711,4.062,4.062,0,0,0-1.127-.811.178.178,0,0,1-.089-.231l.1-.226a.176.176,0,0,1,.238-.091,4.661,4.661,0,0,1,2.646,4.067A.177.177,0,0,1,7217.093,2078.2Z" fill="#fff"/>
          </g>
          <g id="Group_10741" data-name="Group 10741">
            <path id="Path_22624" data-name="Path 22624" d="M7207.736,2078.116l-.247,0a.178.178,0,0,1-.176-.184,4.674,4.674,0,0,1,2.716-4.021.177.177,0,0,1,.236.095l.094.228a.178.178,0,0,1-.093.23,4.079,4.079,0,0,0-2.023,2.076,3.991,3.991,0,0,0-.328,1.406A.179.179,0,0,1,7207.736,2078.116Z" fill="#fff"/>
          </g>
          <g id="Group_10742" data-name="Group 10742">
            <path id="Path_22625" data-name="Path 22625" d="M7218.444,2078.208l-.421,0a.177.177,0,0,1-.175-.175,5.248,5.248,0,0,0-3-4.612.178.178,0,0,1-.089-.231l.167-.386a.178.178,0,0,1,.237-.092,6.015,6.015,0,0,1,3.461,5.32A.178.178,0,0,1,7218.444,2078.208Z" fill="#fff"/>
          </g>
          <g id="Group_10743" data-name="Group 10743">
            <path id="Path_22626" data-name="Path 22626" d="M7206.559,2078.106l-.42,0a.178.178,0,0,1-.177-.183,6.029,6.029,0,0,1,3.552-5.26.177.177,0,0,1,.235.1l.161.389a.179.179,0,0,1-.093.23,5.241,5.241,0,0,0-3.08,4.559A.178.178,0,0,1,7206.559,2078.106Z" fill="#fff"/>
          </g>
        </g>
      </g>
      <path id="Path_22627" data-name="Path 22627" d="M7212.1,2099.879l3.018-10.994-5.846-.05Z" fill="#ed1c24"/>
    </g>
  </g>
</svg>
