<svg xmlns="http://www.w3.org/2000/svg" width="123.226" height="313.571" viewBox="0 0 123.226 313.571">
  <g id="Group_11138" data-name="Group 11138" transform="translate(-3914.626 -2005.512)">
    <g id="Group_11135" data-name="Group 11135">
      <path id="Path_23262" data-name="Path 23262" d="M3919.012,2297.373l46.375-26.413c5.056-2.31,12.292-4.148,17.443-1.468,4.693,2.443,12.424,7.442,15.843,9.391,2.6,1.481,11.609,6.881,6,9.934-16.515,8.98-32.859,19.08-49.628,28.2-3.172,1.726-7.812,2.349-12.683,1.945a33.591,33.591,0,0,1-13.734-4.091q-4.181-2.432-8.224-4.787c-3.638-2.118-5.567-4.623-5.758-6.938C3914.455,2300.886,3915.909,2298.789,3919.012,2297.373Z" fill="#020202" fill-rule="evenodd" opacity="0.12"/>
      <g id="Group_11120" data-name="Group 11120">
        <g id="Group_11119" data-name="Group 11119">
          <path id="Path_23263" data-name="Path 23263" d="M3977.862,2266.92c.941,3.308,1.178,5.016,2.553,6.941,2.739,3.839,6.779,6.581,12.66,10.75,2.8,1.983,3.389,3.864.556,5.593-2.231,1.362-7.69.28-11.1-.522-6.4-1.5-8.985-5.356-11.173-6.357l-1.657.375c-1.356.024-6.688-2.128-7.728-3.521a38.057,38.057,0,0,1-.834-4.958c-.2-5.415.651-4.864,2.1-9.1C3968.162,2266.478,3972.93,2266.753,3977.862,2266.92Z" fill="#111214" fill-rule="evenodd"/>
          <path id="Path_23264" data-name="Path 23264" d="M3995.485,2287.725c.029.855-.55,1.683-1.854,2.479-2.232,1.362-7.69.28-11.1-.522-6.4-1.5-8.984-5.356-11.172-6.357l-1.657.375c-1.356.024-6.688-2.128-7.728-3.521a38.057,38.057,0,0,1-.834-4.958c-.2-5.415.651-4.864,2.1-9.1,2.178.158,4.327.3,6.472.423.389,3.565-.132,9.715,2.8,12,3.28,2.559,5.84,3.241,8.032,4.573C3987.529,2287.365,3992.143,2290.816,3995.485,2287.725Z" fill-rule="evenodd"/>
          <path id="Path_23265" data-name="Path 23265" d="M3979.414,2273c-.7,1.03-2.07,1.611-4.339,2.176,3.659,4.125,4.175,3.739,9.09,6.5,2.476,2.83,2.82,3.367,4.4,4.28,1.887,1.09,4.551,2.209,5.671,1.4.481-.346-.166-1.314-2.245-2.82-2.357-1.708-4.756-3.44-6.927-5.245A25.58,25.58,0,0,1,3979.414,2273Z" fill="#20232e" fill-rule="evenodd"/>
        </g>
        <path id="Path_23266" data-name="Path 23266" d="M3959.543,2176.449a79.11,79.11,0,0,1-.7-12.637c3.987-1.595,8.178-3.1,12.22-4.871l-.288-.244c4.284-2.01,7.976-5.134,12.917-7.969,2.068,6.509,2.834,9.424,2.677,14.719a162.619,162.619,0,0,1-2.315,20.933c-.722,10.725-1.685,21.914-2.38,29.238-1.774,18.681-1.557,37.111-2.675,55.761-2.315,3.8-13.483,4.033-17.3-1.308-.57-14.754-1.494-26.4-1.076-34.475.348-6.72.667-10.592,2.841-16.564C3962.018,2209.092,3960.071,2190.8,3959.543,2176.449Z" fill="#001624" fill-rule="evenodd"/>
        <path id="Path_23267" data-name="Path 23267" d="M3940.916,2286.527c-.818,2.389-1.566,4.241-1.489,5.744.079,1.556.5,3.07.484,5.038-.017,1.688-.1,3.123-.3,5.034-.2,1.954,0,2.879.862,3.659,1.393,1.269,5.543,3.231,7.512,3.9a7.882,7.882,0,0,0,3.443.463,15.323,15.323,0,0,0,4.615-.841c.425-.16.86-1.807.891-3.237.065-2.991-.207-2.739-1.446-7.481-.423-1.621-.765-3.166-1.346-5.058-.725-2.356-1.626-4.43-1.719-6.75l-8.763-.341Z" fill="#111214" fill-rule="evenodd"/>
        <path id="Path_23268" data-name="Path 23268" d="M3940.916,2286.527c-.818,2.389-1.566,4.241-1.489,5.744.079,1.556.5,3.07.484,5.038-.017,1.688-.1,3.123-.3,5.034-.2,1.954,0,2.879.862,3.659,1.393,1.269,5.543,3.231,7.512,3.9a7.882,7.882,0,0,0,3.443.463,15.323,15.323,0,0,0,4.615-.841c.384-.145.778-1.509.871-2.827h-.023c-2.678.912-5.277,1.277-7.85.021-5.431-2.653-4.724-4.856-4.213-11.117,3.533-.622,4.922-1.252,6.714-3.187-3.012.885-6.25,1.044-7.852-.8l-.5-4.982Z" fill-rule="evenodd"/>
        <path id="Path_23269" data-name="Path 23269" d="M3972.559,2218.975c-3.662,17.308-4.59,29.521-2.251,55.143-3.37-.25-6.805-1.528-8.605-4.047-.57-14.754-1.494-26.4-1.076-34.475.348-6.72.667-10.592,2.841-16.564-1.864-12.78-4.552-39.373-3.983-53.629l7.649-3.059C3969.453,2183.435,3970.916,2194.312,3972.559,2218.975Z" fill="#00101a" fill-rule="evenodd"/>
        <path id="Path_23270" data-name="Path 23270" d="M3964.64,2184.045c-1.412,14.373-4.178,34.353-5.784,44.554-2.919,18.538-3.376,40.273-5.014,58.885-2.533,3.961-12.075,4.777-15.729-.151-.159-14.764-1.5-31.293-.856-39.351a50.931,50.931,0,0,1,3.991-16.687c-.367-11.506-6.371-58.774,1.56-68.05a6.959,6.959,0,0,1,1.492-2.1l11.554-.9,13.7-1.595a39.712,39.712,0,0,1-.1,16.274,2.539,2.539,0,0,1-.308.671c-.131.97-.3,1.948-.525,2.927C3968.423,2179.418,3966.229,2181.928,3964.64,2184.045Z" fill="#001e30" fill-rule="evenodd"/>
        <path id="Path_23271" data-name="Path 23271" d="M3952.1,2174.552c-1.573,3.643-2.789,9.753-2.861,15.861-.2,8.75-.849,29.435-1.679,39.282-1.629,19.3-5.307,35.39-2.394,61.022a9.4,9.4,0,0,1-7.051-3.384c-.159-14.764-1.5-31.293-.856-39.351a50.925,50.925,0,0,1,3.991-16.687c-.374-11.734-6.613-60.667,2.045-68.56l13.2-.9C3954.791,2166.733,3954.255,2169.556,3952.1,2174.552Z" fill="#001624" fill-rule="evenodd"/>
        <path id="Path_23272" data-name="Path 23272" d="M3952.879,2292.9c-2.535,2-1.647,2.875-5.348,3.357a20.787,20.787,0,0,0,2.884,7.214c.15,1.394.262,3.225,2.978,3.242,5.071.032,1.553-4.153,1.535-4.311A41.946,41.946,0,0,0,3952.879,2292.9Z" fill="#20232e" fill-rule="evenodd"/>
        <path id="Path_23273" data-name="Path 23273" d="M3983.2,2154.865a35.778,35.778,0,0,1-9.55,6.708c-.014,6.543-.009,18.661.236,30.775.025,7.163.141,14.459.451,20.532.011.3.02.59.029.886-.609,5.041-2.972,7.887-3.269,15.462-.33,8.443.765,22.587,2.261,31.826-.049,4.054-.076,8.095-.042,12.125a7.946,7.946,0,0,0,5.369-2.22l.3-45.879c.288-7.311,1.414-18.256,2.318-29.513C3983.219,2182.121,3985.078,2166.523,3983.2,2154.865Z" fill="#001e30" fill-rule="evenodd"/>
        <path id="Path_23274" data-name="Path 23274" d="M3956.965,2164.562l-.033.01a226.25,226.25,0,0,1-6.185,21.789c-1.685,14.595-1.256,30.52-1.459,41.773-1.519,20.586-3.239,41.214-4.267,61.826,1.874-.162,6.029-1,7.024-1.9,1.124-16.785.925-40.455,3.017-56.23.427-3.221,3.535-30.578,7.284-46.079,1.255-5.194,4.848-5.1,5.575-8.083,1.577-6.479,1.61-10.116.961-17.152C3964.943,2161.992,3961.016,2163.406,3956.965,2164.562Z" fill="#00263d" fill-rule="evenodd"/>
      </g>
      <g id="Group_11121" data-name="Group 11121">
        <path id="Path_23275" data-name="Path 23275" d="M4003.386,2132.342l.683-2.185.654-4.523c2.2-1.323,3.852-1.765,4.785-1.387a2.228,2.228,0,0,1,.236.082C4012.729,2125.979,4006.253,2135.157,4003.386,2132.342Z" fill="#8f9ba6" fill-rule="evenodd"/>
        <path id="Path_23276" data-name="Path 23276" d="M4021.551,2126.77c1.44,2.57-2.759,3.282-3.979,3.205-1.68.412-2.456.107-3.294,1.32-.94,1.362-4.173-5.787-4.066-5.866.729-.219,4.285.808,5.048,1.106,1.42.555,1.48.791,3.162.694C4019.293,2127.178,4020.148,2126.965,4021.551,2126.77Z" fill="#f1b287" fill-rule="evenodd"/>
        <path id="Path_23277" data-name="Path 23277" d="M4021.8,2127.394c.485,2.063-3.116,2.651-4.231,2.581-1.68.412-2.456.107-3.294,1.32-.578.836-3.547-2.731.533-2.967C4016.61,2128.349,4019.228,2129.227,4021.8,2127.394Z" fill="#e8a476" fill-rule="evenodd"/>
        <path id="Path_23278" data-name="Path 23278" d="M3998.007,2128.883c1.97.811,3.337,1.258,4.4,1.774,2.82,1.365,1.572,4.614,6.838,7.083l6.03,2.826c.788.369,6.851-.984,8.544-1.974,1.2-.7,6.234-4.374,5.656-4.688-.432-.235-3.08-.018-5.532-.184l-5.464-1.382c-5.179-1.815-4.23-4.8-6.064-5.988-2.389-1.554-4.864-1.205-8.7-4.753l-4.585,1.633.125,5.151Z" fill="#f1b287" fill-rule="evenodd"/>
        <path id="Path_23279" data-name="Path 23279" d="M3998.007,2128.883c1.97.811,3.337,1.258,4.4,1.774,2.82,1.365,1.572,4.614,6.838,7.083l6.03,2.826c.788.369,6.851-.984,8.544-1.974.208-.121.531-.332.919-.6-1.761-1.333-6.468,1.025-8.332.656a7.854,7.854,0,0,1-4.369-2.129c-2.095-1.994-2.427-3.442-3.74-5.015a36.375,36.375,0,0,0-4.924-4.067l1.132-5.388q-.383-.215-.787-.454l-4.585,1.633.125,5.151Z" fill="#e8a476" fill-rule="evenodd"/>
        <path id="Path_23280" data-name="Path 23280" d="M3977.322,2118.82c9.878,6.311,15.918,8.114,26.247,13.669.311-5,4.454-8.4,6.517-7.975-8.309-5.711-18.079-13.368-27.5-17.272Z" fill="#d2eefc" fill-rule="evenodd"/>
        <path id="Path_23281" data-name="Path 23281" d="M3977.322,2118.82c9.878,6.311,15.918,8.114,26.247,13.669a9.751,9.751,0,0,1,1.945-5.239c-4.841-2.371-11.172-6.556-17.779-10.864-1.108-.9.352-4.612.485-6.438Z" fill="#c3e6f7" fill-rule="evenodd"/>
      </g>
      <g id="Group_11123" data-name="Group 11123">
        <path id="Path_23282" data-name="Path 23282" d="M3952.693,2083.27c-.408,4.8,12.728,11.08,17.733,8.625.528-.259.8-1.368,1.129-1.815-.3-1.229.111-1.753.222-3a15.317,15.317,0,0,1,.731-4.008c.6-1.623.278-4.989,1.312-8.79l-14.98-6.529-3.207-1.7C3957.17,2073.526,3955.474,2077,3952.693,2083.27Z" fill="#e8a476" fill-rule="evenodd"/>
        <path id="Path_23283" data-name="Path 23283" d="M3952.693,2083.27a2.179,2.179,0,0,0,.066.807c7.1-4.47,11.522-.725,19.849-2.951a54.7,54.7,0,0,1,1.212-6.848l-14.98-6.529-3.208-1.7C3957.17,2073.526,3955.475,2077,3952.693,2083.27Z" fill="#db9669" fill-rule="evenodd"/>
        <g id="Group_11122" data-name="Group 11122">
          <path id="Path_23284" data-name="Path 23284" d="M3985.119,2150.386a2.086,2.086,0,0,1-.377.911c-4.237,5.9-30.818,14.8-36.38,14.342,4.414-38.383-35.784-71.059,7.286-83.712l12.391,6.821,4.434-.8.568-5.457c6,5.963,8.77,13.864,9.837,24.851C3984.275,2121.72,3981.258,2134.614,3985.119,2150.386Z" fill="#12a8b3" fill-rule="evenodd"/>
          <path id="Path_23285" data-name="Path 23285" d="M3965.549,2161.4c-7.37,2.62-14.583,4.456-17.187,4.24,4.414-38.383-35.784-71.059,7.286-83.712l12.391,6.821,4.434-.8.568-5.457a28.984,28.984,0,0,1,6.173,9.095l-.355.39c-3.234-1.024-4.933-2.335-6.6-1.6-1.374.607-2.947,2.771-3.431,6.2-1.955-.489-5.68-1.891-7.617-2.445,7.178,10.706,13.874,33.712,8.849,57.737C3969.435,2154.862,3966.9,2158.316,3965.549,2161.4Z" fill="#06929c" fill-rule="evenodd"/>
          <path id="Path_23286" data-name="Path 23286" d="M3968.437,2090c.716,2.991.832,2.981,3.556,5.042-.337,1.521-.554,2.833-.772,4.391,4.44,12.879,6.809,23.776,9.415,39,.316-15.571-.458-27.39-3.833-43.6a9.526,9.526,0,0,0-2.812-1.016c.745-3.3.329-5.431-.348-5.831C3971.2,2087.893,3970.185,2088.182,3968.437,2090Z" fill="#041e2e" fill-rule="evenodd"/>
          <path id="Path_23287" data-name="Path 23287" d="M3968.437,2090c.716,2.991.832,2.981,3.556,5.042-.337,1.521-.554,2.833-.772,4.391,4.44,12.879,6.809,23.776,9.415,39-1.382-18.56-3.821-26.065-7.739-38.743a33.507,33.507,0,0,0,.346-5.4c-1.744-1.546-2.494-1.7-2.94-2.762-.4-.941,1.552-3.322,1.234-3.51C3970.318,2088.369,3970.185,2088.182,3968.437,2090Z" fill="#020d14" fill-rule="evenodd"/>
          <path id="Path_23288" data-name="Path 23288" d="M3971.089,2088.16c.3-.777.461-2.38.789-3.775a16.4,16.4,0,0,1,1.041-2.936c1.7.217,2.45,5.363,3.9,8.4A7.82,7.82,0,0,0,3971.089,2088.16Z" fill="#1abac6" fill-rule="evenodd"/>
          <path id="Path_23289" data-name="Path 23289" d="M3955.2,2077.445c-.342,5.506,10.108,9.332,15.941,10.719-1.463,1.767-3.354,3.988-3.279,5.752-4.206-1.15-11.339-3.129-14.228-8.506A5.9,5.9,0,0,1,3955.2,2077.445Z" fill="#1abac6" fill-rule="evenodd"/>
        </g>
      </g>
      <g id="Group_11128" data-name="Group 11128">
        <path id="Path_23290" data-name="Path 23290" d="M3974.961,2073.48c4.336-.211,6.359.8,8.719,4.317,4.248,6.331,4.911,19.811,4.612,31.959-.17,6.882-1.26,12.933-1.345,21.484-.068,6.893,1.319,17.31,2.081,26.69.371,4.568.6,48.943.432,52.494-.931,2.006-7.507,5.375-8.374,5.206.4-5.118.756-51.187.986-57.68.727-20.558.2-45.913-4.172-62.777-1.094-4.218-1.707-9.038-4.075-12.744-.4-.607-.787-1.193-1.151-1.758a49.007,49.007,0,0,1,1.146-6.393l-1.113-.484A19.722,19.722,0,0,1,3974.961,2073.48Z" fill="#d2eefc" fill-rule="evenodd"/>
        <path id="Path_23291" data-name="Path 23291" d="M3941.25,2087.52c2.367-1.312,7.192-4.268,12.394-7.174-4.38,5.249,6.2,17.869,11.11,33.6,1.669,5.349,2.753,13.148,3.015,20.914.252,7.494-2.13,83.288-3.829,89.353-4.956,3.423-9.857,3.667-15.066,1.522a49.969,49.969,0,0,1-12.634-7.991c1.986-14.119-1.459-42.759,3.536-53.983,2.422-5.442,4.958-7.722,5.208-14.563.359-9.807-13.4-35.948-13.271-49.481C3931.771,2093.714,3936.827,2089.974,3941.25,2087.52Z" fill="#d2eefc" fill-rule="evenodd"/>
        <path id="Path_23292" data-name="Path 23292" d="M3941.25,2087.52l12.051-6.683c-1.8,2.884-6.595,5.978-11.766,10.343a23.628,23.628,0,0,1,6.681,11.8c2.722,10.761,6.884,24.925,7.6,34.766,1.137,15.662-2.61,22.715-5.838,29.7-2.189,4.734-4.14,49.491-4.169,56.825a50.7,50.7,0,0,1-9.51-6.518c.449-4.25.238-27.215,1.1-41.6a39.043,39.043,0,0,1,3.906-15.584c1.7-3.246,3.294-5.756,3.678-11.362.672-9.791-13.4-35.948-13.271-49.481C3931.771,2093.714,3936.827,2089.974,3941.25,2087.52Z" fill="#c3e6f7" fill-rule="evenodd"/>
        <path id="Path_23293" data-name="Path 23293" d="M3955.815,2137.743c.181,2.494.238,4.769.194,6.86-6.633-6.042-12.863-13.772-18.678-22.14-2.978-8.378-5.674-16.783-5.618-22.741Z" fill="#b2d9ed" fill-rule="evenodd"/>
        <path id="Path_23294" data-name="Path 23294" d="M3973.427,2078a15.674,15.674,0,0,1,8.225,6.585l-2.325,1.8,3.023,1.511a209.334,209.334,0,0,1-.263,43.193c-.615-12.021-.811-27.062-5.6-38.964-.754-1.873-3.288-10.539-3.871-11.362C3973.078,2078.858,3972.851,2079.981,3973.427,2078Z" fill="#ebf9ff" fill-rule="evenodd"/>
        <path id="Path_23295" data-name="Path 23295" d="M3951.044,2085.769l-7.354,5.377c6.091,10.027,14.253,28.857,14.478,47.883.109,9.173-6.852,46.906-9.712,83.933,5.435,3.284,11.726,1.857,14.6-.769,2.9-18.653,3.333-91.6-.584-106.415C3959.115,2103.076,3953.339,2093.879,3951.044,2085.769Z" fill="#e0f5ff" fill-rule="evenodd"/>
        <g id="Group_11124" data-name="Group 11124">
          <path id="Path_23296" data-name="Path 23296" d="M3950.089,2149.367c5.921-.2,7.55-.211,12.675.71l-2.36,14.161c-3.317,1.406-8.027,1.022-12.184-.7Z" fill="#d2eefc" fill-rule="evenodd"/>
          <path id="Path_23297" data-name="Path 23297" d="M3950.089,2149.367c5.921-.2,7.55-.211,12.675.71-.737,4.222-.386,4.181-4.91,4.452-8.082.482-5.591,1.378-8.378,9.483-.123.358-.842-.3-1.256-.473Z" fill="#c3e6f7" fill-rule="evenodd"/>
          <path id="Path_23298" data-name="Path 23298" d="M3950.522,2147.563c5.96-.183,8.617-.644,13.038-.66l-1.14,5.636c-1.509.787-9.436,1.724-12.937.068Z" fill="#d2eefc" fill-rule="evenodd"/>
          <path id="Path_23299" data-name="Path 23299" d="M3950.522,2147.563c5.96-.183,8.617-.644,13.038-.66-4.307,1.6-11.573,1.16-12.842,6.143a7.3,7.3,0,0,1-1.235-.439Z" fill="#c3e6f7" fill-rule="evenodd"/>
          <path id="Path_23300" data-name="Path 23300" d="M3961.679,2155.011l-7.46,1.205-3.014,7.418a25.745,25.745,0,0,0,8.278.463Z" fill="#e0f5ff" fill-rule="evenodd"/>
          <path id="Path_23301" data-name="Path 23301" d="M3962.918,2147.648c-3.481,1.063-8.371,2.541-10.422,5.135a26.311,26.311,0,0,0,9.136-.6A20.723,20.723,0,0,0,3962.918,2147.648Z" fill="#e0f5ff" fill-rule="evenodd"/>
        </g>
        <g id="Group_11127" data-name="Group 11127">
          <g id="Group_11125" data-name="Group 11125">
            <path id="Path_23302" data-name="Path 23302" d="M3984.354,2142.262c1.753-1.913,2.24-2.392,3.86-2.938l1.217,15.814c-.814,1.285-3.495,2.351-4.31,2.022Z" fill="#d2eefc" fill-rule="evenodd"/>
            <path id="Path_23303" data-name="Path 23303" d="M3984.354,2142.262c1.753-1.913,2.24-2.392,3.86-2.938.175,4.491.276,4.349-1.053,5.928-2.374,2.82-1.466,3.01-1.541,12.027a1.653,1.653,0,0,1-.5-.119Z" fill="#c3e6f7" fill-rule="evenodd"/>
            <path id="Path_23304" data-name="Path 23304" d="M3988.351,2144.637l-2.12,3.373.191,8.7a4.541,4.541,0,0,0,2.594-1.905Z" fill="#e0f5ff" fill-rule="evenodd"/>
          </g>
          <g id="Group_11126" data-name="Group 11126">
            <path id="Path_23305" data-name="Path 23305" d="M3983.711,2138.506c1.963-.864,2.766-1.649,4.244-2.164l.685,6.069c-.357,1-2.836,2.88-4.322,1.529Z" fill="#d2eefc" fill-rule="evenodd"/>
            <path id="Path_23306" data-name="Path 23306" d="M3983.711,2138.506c1.963-.864,2.766-1.649,4.244-2.164-1.141,2.169-3.658,2.527-3.141,7.921a1.8,1.8,0,0,1-.5-.323Z" fill="#c3e6f7" fill-rule="evenodd"/>
            <path id="Path_23307" data-name="Path 23307" d="M3987.881,2137.2a13.461,13.461,0,0,0-2.52,6.588c1.366-.1,1.8-.444,2.948-1.662C3988.259,2140.5,3988.072,2138.978,3987.881,2137.2Z" fill="#e0f5ff" fill-rule="evenodd"/>
          </g>
        </g>
        <path id="Path_23308" data-name="Path 23308" d="M3949.551,2082.554c-1.726,4.2-.487,11.752,1.59,19.022l4.228-1.568-2.039,4.6c8.495,11.1,13.249,27.637,13.907,44.617,4.6-36.773-8.689-51.8-12.349-64.676-.492-1.731-1.641-4.462-.868-6A10.39,10.39,0,0,0,3949.551,2082.554Z" fill="#ebf9ff" fill-rule="evenodd"/>
      </g>
      <g id="Group_11129" data-name="Group 11129">
        <path id="Path_23309" data-name="Path 23309" d="M3969.917,2079.9c-1.972-.791-6.483-1.611-8.271-2.435-3.916-1.8-4.211-5.807-6.217-10.6-3.648-1.624-5.087-3.211-5.789-5.194-1.666-4.706.027-10.49,3.144-14.1a13.12,13.12,0,0,1,10.67-4.551c8.488.118,13.091,5.581,14.957,12.52a4.8,4.8,0,0,1,.128,1.793c-.15,1.5-.63,2.255-.749,3.28-.28,2.412.764,1.975,1,4.346.385,3.844-.252,7.472-.872,11.707-.183,1.245-.436,1.827-1.158,2.3a16.981,16.981,0,0,1-2.576,1.1C3973.309,2080.439,3972.43,2080.585,3969.917,2079.9Z" fill="#f1b287" fill-rule="evenodd"/>
        <path id="Path_23310" data-name="Path 23310" d="M3969.917,2079.9c-1.972-.791-6.483-1.611-8.271-2.435-3.916-1.8-4.211-5.807-6.217-10.6-3.648-1.624-5.087-3.211-5.789-5.194-1.666-4.706.027-10.49,3.144-14.1a13.12,13.12,0,0,1,10.67-4.551c7.374.1,11.815,4.239,14.078,9.873-.3.781-7.2,4.4-13.445,4.438-.468,2.822,1,5.139,1.067,6.558.065,1.359.058,2.52.182,3.282.184,1.13,1.344,2,1.52,3.62.569,5.268,3.472,8.637,5.834,9.583A10.856,10.856,0,0,1,3969.917,2079.9Z" fill="#e8a476" fill-rule="evenodd"/>
        <path id="Path_23311" data-name="Path 23311" d="M3974.653,2051.371c.936.034,2.061-.506,2.828,1.414-.556-3.145-1.51-3.437-3.45-3.732Z" fill="#361d07" fill-rule="evenodd"/>
        <path id="Path_23312" data-name="Path 23312" d="M3962.924,2055.579c-5.945-.6-12.539-4.785-14.083-7.466-3.21,6.295-2.432,14.774,2.545,19.908,1.433,2.719,2.836,5.394,4.178,8.159a57.636,57.636,0,0,0,1.93-11.665l.255-.368c.343.711,1.2,2.474,1.515,3.207.374,0,.981-.543,1.511-.86C3959.729,2061.009,3960.01,2057.618,3962.924,2055.579Z" fill="#361d07" fill-rule="evenodd"/>
        <path id="Path_23313" data-name="Path 23313" d="M3963.319,2055.308c6.245-.547,14.462-3.4,17.59-8.142-5.664.854-12.088-7.595-21.037-6.757-5.188.486-10.791,3.143-11.032,7.661C3950.534,2050.3,3958.111,2055.764,3963.319,2055.308Z" fill="#361d07" fill-rule="evenodd"/>
        <path id="Path_23314" data-name="Path 23314" d="M3963.065,2055.576c6.245-.546,14.716-3.671,17.844-8.41l-.055.006a21.426,21.426,0,0,1-14.933,1.973,5.759,5.759,0,0,0,2.178-1.075c-4.705.256-7.944.48-12.019-2.035a8.061,8.061,0,0,0,3.254.178c-2.415-.572-4.7-2.52-8.408-2.271a5.872,5.872,0,0,0-2.171,4.3C3950.28,2050.84,3957.857,2056.032,3963.065,2055.576Z" fill="#241304" fill-rule="evenodd"/>
        <path id="Path_23315" data-name="Path 23315" d="M3955.617,2062.445c-3.349-.764-2.98,2.973-2.242,5.185.508,1.519,1.78,1.27,2.374,2.449a2.951,2.951,0,0,0,2.882,1.84c1.962-.26.439-3.057.084-4.193C3958.745,2065.8,3957.742,2062.929,3955.617,2062.445Z" fill="#e8a476" fill-rule="evenodd"/>
        <path id="Path_23316" data-name="Path 23316" d="M3948.712,2048.677c-.482,1.1-1.633,4.107-1.3,6.279a7.68,7.68,0,0,1,2.065-3.677c-1.265,2.03-1.464,4.53-.594,7.523.041-2.59.31-4.062,2.177-5.515-1.361,2.569-.859,7.288-.085,9.332.238-2.93.474-6.928,2.97-7.777-1.455,2.378-1.241,3.688-.368,6.052.256-2.626,1.038-4.1,2.828-5.09.05,2.388.789,6.815,3.139,8.88-.194-.936-1.391-7.252-.141-8.145a4.538,4.538,0,0,0,.169,3,5.389,5.389,0,0,1,2.574-3.677C3957.113,2055.707,3949.822,2051.111,3948.712,2048.677Z" fill="#4a2b12" fill-rule="evenodd"/>
        <path id="Path_23317" data-name="Path 23317" d="M3951.786,2043.2c2.535-1.989,7-2.994,10.21-2.843,2.721.127,5.362,1.246,7.8,1.8a6.646,6.646,0,0,1-1.951.056c4.324,1.212,7.928,5.067,12.981,4.949a9.675,9.675,0,0,1-5.883-.227,12.87,12.87,0,0,0,2.206,1.075c-4.807.37-7.977-2.235-12.33-3.761a5.38,5.38,0,0,0,2.63,1.612C3962.779,2045.006,3958.459,2041.266,3951.786,2043.2Z" fill="#4a2b12" fill-rule="evenodd"/>
      </g>
      <g id="Group_11134" data-name="Group 11134">
        <g id="Group_11130" data-name="Group 11130">
          <path id="Path_23318" data-name="Path 23318" d="M3932.95,2095.053c-4.563,7.689-7.628,24.325-9.014,35.44-.705,5.653-.853,10.115,3.371,12.228,4,2,8.5-1.628,10.182-5.892,1.994-5.051,3.86-11.38,7.394-22.143,2.816-8.574.009-17.225-4.184-20.585C3938.269,2092.155,3935.187,2091.283,3932.95,2095.053Z" fill="#d2eefc" fill-rule="evenodd"/>
          <path id="Path_23319" data-name="Path 23319" d="M3932.95,2095.053c-4.563,7.689-7.628,24.325-9.014,35.44-.705,5.653-.853,10.115,3.371,12.228,2.811,1.405,5.863.036,8.015-2.38a49.621,49.621,0,0,1-4.863-1.864c-1.393-.626-2.271-.686-1.57-3.982,3.117-14.662,5.9-27.219,10.868-41.068C3937.511,2092.009,3934.907,2091.755,3932.95,2095.053Z" fill="#c3e6f7" fill-rule="evenodd"/>
        </g>
        <g id="Group_11131" data-name="Group 11131">
          <path id="Path_23320" data-name="Path 23320" d="M3945.812,2107.433l2.424-1.364v49.458l-2.424,1.364Z" fill="#1a0101" fill-rule="evenodd"/>
          <path id="Path_23321" data-name="Path 23321" d="M3948.236,2106.069l27.168,15.446v49.458l-27.168-15.446Z" fill="#240101" fill-rule="evenodd"/>
          <path id="Path_23322" data-name="Path 23322" d="M3948.263,2106.873l26.107,14.789-.145,48.352-2.335,1.322-23.626-17.2-2.289-45.955Z" fill="#e6e6e6" fill-rule="evenodd"/>
          <path id="Path_23323" data-name="Path 23323" d="M3945.812,2107.433l27.168,15.446v49.459l-27.168-15.446Z" fill="#380303" fill-rule="evenodd"/>
        </g>
        <g id="Group_11133" data-name="Group 11133">
          <path id="Path_23324" data-name="Path 23324" d="M3959.64,2150.013l-1.3-2.825.733-5.073c2.464-1.484,4.321-1.979,5.368-1.555a2.4,2.4,0,0,1,.264.091C3968.05,2142.5,3964.263,2151.99,3959.64,2150.013Z" fill="#8f9ba6" fill-rule="evenodd"/>
          <g id="Group_11132" data-name="Group 11132">
            <path id="Path_23325" data-name="Path 23325" d="M3969.617,2154.971a23.578,23.578,0,0,0,6.766-1.985c1.3-.609,1.7-9.781,1.548-9.806-1.633.284-5.229,1.181-6.975,1.4-2.119-.67-8.819-2.994-10.938-3.663l-2.006,4.212-.09,4.382a6.216,6.216,0,0,1,2.422.741C3963.387,2151.573,3965.98,2153.934,3969.617,2154.971Z" fill="#e8a476" fill-rule="evenodd"/>
            <path id="Path_23326" data-name="Path 23326" d="M3970.85,2145.53a23.58,23.58,0,0,0,6.766-1.984c1.3-.61-1.568-.959-2.361-.821-1.634.284-2.976.649-4.722.868-2.119-.669-6.793-2.148-8.859-2.976l-1.744.14A109.548,109.548,0,0,0,3970.85,2145.53Z" fill="#f1b287" fill-rule="evenodd"/>
            <path id="Path_23327" data-name="Path 23327" d="M3972.986,2142.663c.355,2.52-3.494,1.32-4.452.877-.837-.068-6.794-1.748-5.628-2.112a6.9,6.9,0,0,1,4.65-.676c1.271.34,1.314.818,2.7,1.266A14.349,14.349,0,0,0,3972.986,2142.663Z" fill="#f1b287" fill-rule="evenodd"/>
          </g>
          <path id="Path_23328" data-name="Path 23328" d="M3924.269,2139.139a6.309,6.309,0,0,0,2.338,3.122c1.185.9,2.928,1.289,4.718,2.117,6.926,3.2,17.926,4.321,28.7,5.807-.453-5.782,1.434-9.1,4.685-9.536-8.944-3.632-19.791-5.417-28.741-8.057a18.135,18.135,0,0,0-3.379-.657C3928.943,2133.255,3922.512,2134.068,3924.269,2139.139Z" fill="#d2eefc" fill-rule="evenodd"/>
          <path id="Path_23329" data-name="Path 23329" d="M3924.269,2139.139a6.309,6.309,0,0,0,2.338,3.122c1.185.9,2.928,1.289,4.718,2.117,6.926,3.2,17.926,4.321,28.7,5.807a18.3,18.3,0,0,1,.029-3.443c-9.388-3.285-20.308-4.093-29.594-8.265-1.393-.626-2.271-.686-1.57-3.982l.318-1.5C3926.044,2134.015,3922.991,2135.451,3924.269,2139.139Z" fill="#c3e6f7" fill-rule="evenodd"/>
          <path id="Path_23330" data-name="Path 23330" d="M3938.669,2102.162c-2.183,10.959-7.509,21.8-7.862,34.112,9.946,3.427,18.624,5.652,28.846,8.136a6.425,6.425,0,0,1,3.563-3.589l-27.013-6.956,2.527-11.73Z" fill="#e0f5ff" fill-rule="evenodd"/>
        </g>
      </g>
    </g>
    <g id="Group_11137" data-name="Group 11137">
      <path id="Path_23331" data-name="Path 23331" d="M3983.141,2007.857l.891-.515A2.154,2.154,0,0,0,3983.141,2007.857Z" fill="#fff"/>
      <path id="Path_23332" data-name="Path 23332" d="M3982.162,2038.815a9.821,9.821,0,0,0,4.457,7.72l2.236,1.291-.025,8.759,10.629-2.636,25.155,14.523-42.382-54.373Z" fill="#fff"/>
      <g id="Group_11136" data-name="Group 11136">
        <path id="Path_23333" data-name="Path 23333" d="M4033.4,2031.29l-43.586-25.165c-1.384-.8-2.623-.79-3.446-.129l-2.331,1.346a3.487,3.487,0,0,1,2.7.512l43.586,25.164a9.822,9.822,0,0,1,4.457,7.72l-.08,28.405c0,1.577-.628,2.628-1.6,3.009.011.021.025.04.036.062l3.233-1.873a2.157,2.157,0,0,0,.224-.13h0a3.209,3.209,0,0,0,1.192-2.8l.08-28.405A9.823,9.823,0,0,0,4033.4,2031.29Z" fill="#d3d3d3" opacity="0.6" style="mix-blend-mode: multiply;isolation: isolate"/>
        <path id="Path_23334" data-name="Path 23334" d="M4034.691,2069.143l.08-28.405a9.822,9.822,0,0,0-4.457-7.72l-43.586-25.164a3.487,3.487,0,0,0-2.7-.512l-.891.515a3.449,3.449,0,0,0-.9,2.553l-.011,3.689,42.382,54.373,5.59,3.228C4032.674,2073.125,4034.683,2071.98,4034.691,2069.143Z" fill="#fff"/>
      </g>
    </g>
  </g>
</svg>
