<svg xmlns="http://www.w3.org/2000/svg" width="136.893" height="365.137" viewBox="0 0 136.893 365.137"><g data-name="Group 7001"><path data-name="Path 14479" d="M52.949 332.398c6.871-3.3-13.5-2.743-6.229-10.68 3.11-3.4 21.882-4 32.407-2.674 21.183 2.674 50.475 12.7 46.731 25.406-3.351 11.37-24.422 23.827-69.661 19.971-19.363-1.656-40.188-11.4-38.1-19.63 1.281-5 31.776-10.909 34.852-12.393z" fill="#231f20" opacity=".1" style="mix-blend-mode:multiply;isolation:isolate"/><g data-name="Group 6990"><path data-name="Path 14480" d="M97.536 313.626s-1.669 2.985-7.022 3.166c-2.29.078-10.977-.621-10.977-.621-3.9-.785-8.8-.742-9.706 2.278a5.838 5.838 0 0 0-.362 1.816c.181 2.23-.552.366 2.351 3.1a71.011 71.011 0 0 0 8.955 6.1c4.317 2.148 6.538 2.234 7.94 2.083a18.158 18.158 0 0 1 4.547-.315c1.937.259 1.428 2.8 1.406 4.8l5.944 2.593c6.064 1.72 12.194-3.719 12.207-5.25l.1-15.942z" fill="#231f20"/><g data-name="Group 6989" fill="#383736"><path data-name="Path 14481" d="M91.142 330.621c-1.678-.047-3.614-.345-8.614-1.829-4.175-1.225-10.287-5.728-10.287-5.728-1.462-1.139-2.644-2.536-2.623-3.856a9.1 9.1 0 0 0-.155 1.285c-.147 2.028 1.553 3.149 2.95 4.167 0 0 4.771 3.787 8.36 5.025 4.645 1.609 5.365 1.48 7.453 1.562 0 0 2.661.146 4.413.237.789.043 1.881.53 1.881.75-.025-.103-.287-1.518-3.378-1.613z"/><path data-name="Path 14482" d="M100.629 336.841l-5.9-2.571c0 .656-.056 1.346-.061 1.976l5.944 2.6c6.064 1.7 12.194-3.723 12.207-5.258l.008-2c-.008 1.535-6.137 6.965-12.198 5.253z"/></g></g><g data-name="Group 6992" style="isolation:isolate"><path data-name="Path 14483" d="M67.101 328.335s-4.49 5.262-8.346 6.224a55.139 55.139 0 0 1-9.58 1.031c-3.947.078-11.331-.2-12.471 3.7a13.665 13.665 0 0 0-.392 2.618c.259 2.278 2.256 3.373 4.7 4.581a66.629 66.629 0 0 0 8.307 3.377c5 1.527 4.516 1.074 8.247.884a59.408 59.408 0 0 1 6.591-.12c2.079.22 1.57 1.742 1.613 3.787l6.414 2.493c6.514 1.592 11.5-4.089 11.465-5.651l-.509-28.425z" fill="#231f20" opacity=".999" style="mix-blend-mode:multiply;isolation:isolate"/><g data-name="Group 6991" fill="#383736"><path data-name="Path 14484" d="M61.878 350.053a49.564 49.564 0 0 1-12.22-.794 28.585 28.585 0 0 1-9.27-4.4c-2.152-1.057-3.916-2.683-3.951-4.042a6.419 6.419 0 0 0-.125 1.328c.267 2.269 2.256 3.356 4.7 4.573a65.2 65.2 0 0 0 8.3 3.364c5 1.527 4.525 1.087 8.256.9 0 0 5.4-.22 5.6-.22 1.234-.056 2.424.41 2.424.643-.022-.114-.41-1.322-3.714-1.352z"/><path data-name="Path 14485" d="M72.122 354.216l-6.367-2.477c0 .669.009 2.243.013 2.9l6.423 2.506c6.509 1.587 11.491-4.089 11.456-5.659l-.064-2.916c.03 1.561-4.952 7.229-11.461 5.646z"/></g></g><g data-name="Group 7000"><path data-name="Path 14486" d="M79.387 167.395l6.637 85.2s8.024 41.537 4.238 61.135c-.711 3.674.112 8.245 12.466 8.245 6.921 0 11.108-1.855 11.142-3.786.867-51.295-5.07-63.74-4.9-71.279.225-9.578 1.01-80.74 1.01-80.74z" fill="#383736"/><path data-name="Path 14487" d="M79.387 167.395l6.637 85.2s8.024 41.537 4.238 61.135c-.685 3.527.078 7.865 11.06 8.21.1-.932.194-1.88.3-2.863 1.341-12.919-4.006-58.91-7.572-72.28-2.764-10.335-1.035-63.644-.336-83.962z" fill="#161615" opacity=".55"/><path data-name="Path 14488" d="M57.211 182.353s.966 63.8 2.311 79.92c.406 4.869 2.083 15.869 2.35 19.378.876 12.082-1.009 51.675-1.009 51.675 1.445 3 .121 5.39 14.031 4.683 4.239-.224 9.319-3.864 9.521-5.683 0 0 2.838-45.664-.5-68.38-1.143-7.787 8.8-84.971 8.8-84.971z" fill="#383736"/><path data-name="Path 14489" d="M57.211 182.353s.966 63.8 2.311 79.92c.406 4.869 2.083 15.869 2.35 19.378.876 12.082-1.009 51.675-1.009 51.675 1.294 2.7.367 4.89 10.185 4.8.608-3.278 1.208-7.029 1.617-11.039.3-2.932-2.07-37.574-4.907-61.144-1.168-9.728-.224-58.759.419-84.642z" fill="#161615" opacity=".55"/><g data-name="Group 6993"><path data-name="Path 14490" d="M102.219 143.353c-4.42 5.85 8.176 15.14 8.176 15.14 3.436-2.309 25.919-31.456 26.484-43.687.414-8.775-8.223-39.03-12.427-49.007-2.264-5.377-4.872-18.667-21.047-16.056-8.977 1.449-2.919 12.634-1.186 19.509 3.924 15.567 11.772 32.733 11.772 32.733s4.373 11.657 3.846 13.983c-1.716 7.585-10.616 20.775-15.618 27.385z" fill="#fff"/></g><path data-name="Path 14491" d="M127.423 119.678c4.049 1.96-11.168 28.268-18.99 39.037-3.312-3.234-8.982-11.7-6.214-15.36 5-6.612 13.9-19.8 15.618-27.385.527-2.326-3.846-13.983-3.846-13.983s-7.848-17.166-11.772-32.733c-1.341-5.325-5.247-13.22-2.785-17.187 12.112.382 18.287 8.244 20.322 13.067 3.609 8.566 10.108 32.491 9.236 44.61-.172 2.441-3.889 4.717-3.833 5.577.048.757 5.748-.521 2.044 2.266-.906.686-1.207 1.4.22 2.091z" fill="#407284" opacity=".17" style="mix-blend-mode:multiply;isolation:isolate"/><path data-name="Path 14492" d="M95.506 70.168l1.043-21.915-2.755-18.123-19.335 6.155s3.372 12.589 3.98 20.051c.228 2.766-2.639 5.763-4.075 8.115l-8.99 9.991c-1.885 3.079-5.817 7.979-5.817 16.6l12.142 58.166 20.935 8.774 6.77-78.341c-1.85-2.427-2.549-6.07-3.898-9.473z" fill="#efb797"/><path data-name="Path 14493" d="M53.058 77.372c-5.652 4.406-1.435 42.337-1.435 56.944l-.7 113.624c1.474.772 8.348 7.072 21.383 9.086 4.083.62 12.259-.086 21.491-3.165 3.768-1.246 25.436-10.933 25.436-13.937 0 0-5.571-69.707-2.781-114.321.53-8.589 8.033-33.523 3.829-64.13-2.441-17.776-23.44-11.929-23.44-11.929s-12.5 5.679-22.776 11.529c-4.298 2.438-15.123 9.869-21.007 16.299z" fill="#fff"/><path data-name="Path 14494" d="M72.303 257.026c-13.035-2.014-19.909-8.314-21.383-9.086l.7-113.624c0-4.082-.341-9.989-.686-16.474 2.126-2.26 3.406-4.567 3.213-6.861 7.149-5.543 13.4-10.4 13.4-10.4 2.643 24.4 5.334 27.5 5.334 58.483 0 13.83.556 55.592 2.91 98.164a23.935 23.935 0 0 1-3.488-.202z" fill="#acc6cc" opacity=".12" style="mix-blend-mode:multiply;isolation:isolate"/><path data-name="Path 14495" d="M59.859 79.2c10.931-.438 10.318 14.945 9.357 20.383-2.225 12.474-6.589 32.223-12.363 45.769a9.964 9.964 0 0 1-5.343 5.435l.113-16.471c0-11.315-2.531-36.618-1.044-49.5a11.114 11.114 0 0 1 9.28-5.616z" fill="#407284" opacity=".25"/><path data-name="Path 14496" d="M28.204 121.953s-14.824-9.568-15.915-14.933a64.78 64.78 0 0 1-1.2-10.245s2.911-3.609 5.559 2.943S26 109.459 26 109.459z" fill="#efb797"/><g data-name="Group 6995"><path data-name="Path 14497" d="M40.308 96.12c.535.567.591.69.28 1.69l-18.226 15.183c-.44.67-1.117.828-1.652.257L.332 80.444a1.252 1.252 0 0 1 .116-1.815l18.744-16.355a1.914 1.914 0 0 1 1.13-.615 5.379 5.379 0 0 1 1.113-.039z" fill="#2a3244"/><path data-name="Path 14498" d="M41.869 96.467c.224.384.362.777 0 1.139l-18.227 15.182a1.215 1.215 0 0 1-1.884-.14L1.518 80.03a1.082 1.082 0 0 1 .215-1.608l18.96-16.517c.5-.44.9-.388 1.16.079z" fill="#454c60"/><path data-name="Path 14499" d="M38.942 95.1c.139.242.061.363-.06.464l-15.98 12.673c-.384.56-.957.7-1.414.217L3.821 79.897a.458.458 0 0 1 .065-.6l17.05-14.124c.185-.163.4-.261.617.084z" fill="#b4e0ef"/><path data-name="Path 14500" d="M20.857 65.753c.177-.164.409-.268.608.082l17.36 29.782.06-.049c.121-.1.2-.222.06-.464L21.556 65.263c-.212-.345-.432-.247-.617-.084L3.889 79.303a.463.463 0 0 0-.073.567z" fill="#57b6d9"/><path data-name="Path 14501" d="M9.611 89.234l4.6 7.449 5.235-30.263-6.787 5.621z" fill="#fff" opacity=".31"/><path data-name="Path 14502" d="M17.614 102.181l5.817-33.693-1.276-2.188-5.83 33.8z" fill="#fff" opacity=".31"/><g data-name="Group 6994"><path data-name="Path 14503" d="M12.194 70.83a.372.372 0 1 1-.539-.2.415.415 0 0 1 .539.2z" fill="#2a3244"/></g></g><path data-name="Path 14504" d="M18.569 100.896l6.433-5.83a.62.62 0 0 0 .122-.768l-1.744-3.04a.621.621 0 0 0-.942-.162l-6.514 5.6a.62.62 0 0 0-.138.772l1.826 3.273a.619.619 0 0 0 .957.155z" fill="#8dc63f"/><path data-name="Path 14505" d="M24.169 119.118s8.494-5.006 1.8-12.891c-4.584-5.4-6.787-8.421-6.787-8.421s-2.786 0-1.22 3.357 2.38 6.606.9 8.089c-1.074 1.065-3.39.811-2.639 2.357a14.736 14.736 0 0 0 7.946 7.509z" fill="#efb797"/><path data-name="Path 14506" d="M71.642 6.52l-7.667 2.347-6.2 4.879a29.858 29.858 0 0 0 1.535 10.265c.336.994.8 3.711 1 4.232.453 1.158 2.363 2.9 2.665 4.073.4 1.52-.427 2.764.414 4.808 2.458 5.953 5.006 11.1 5.856 13.321 1.457 3.793 4.152 2.735 7.059 1.773a19.383 19.383 0 0 0 8.968-5.293c7.412-7.262 7.02-18.65 6.986-19.52l.034-21.526z" fill="#efb797"/><path data-name="Path 14507" d="M61.549 13.829s.151 12.644 1.384 14.02c.763.867 2.553 1.921 2.678 6.166.069 2.294 6.743 6.893 7.261 13.742a6.7 6.7 0 0 1-1.509 5.177c1.393.519 3.135-.123 4.942-.716.767-.248 1.444-.5 2.073-.746l2.2 4.956 5.208 2.406s-3.643-6.72-1.22-11.592c1.237-2.475 8.172-5.254 8.771-10.994l-1.242-4.956c.017-.218.039-.421.056-.615-5.946-12.562-30.602-16.848-30.602-16.848z" fill="#cc9e7f" opacity=".27" style="mix-blend-mode:multiply;isolation:isolate"/><g data-name="Group 6996"><path data-name="Path 14508" d="M96.092 44.523c-.047-.47 2.41.007 2.617.783.332 1.25 3.661 3.529 3.661 3.529s-2.22 5.231-13.069 11.241c-5.765 3.2-17.9 2.568-17.9 2.568s.948-1.949 1.927-4.126c.91-2.014 1.565-2.6 2.949-2.622a28.491 28.491 0 0 0 11.195-1.964s9.237-3.87 8.62-9.409z" fill="#e3faff"/></g><path data-name="Path 14509" d="M55.396 10.004c-3.73 3.665 2.458 7.505 2.458 7.505-.009-.1.918.045 2.354-.181 2.7-.436 3.523 1.039 3.648 1.095 1.2.53 4.062 14.762 4.062 14.762.06 1.227 2.091.453 2.807-1.41.793-2.085 3.225-3.083 8.054 2.815 0 0 3.032 3.554 5.348 6.9 1.375 1.983 2.341 1.886 2.552 1.8 0 0 7.723-1.259 8.335-4.708.1-.542-.461-4.78 3.17-15.058 2.379-6.763-3.554-19.41-7.861-21.139-1.4-.554 1.229-.311.923-.468-5.2-2.645-11.884-2.052-17.339-1.2-10.198 1.605-18.511 9.287-18.511 9.287z" fill="#7a7a7a"/><g data-name="Group 6997"><path data-name="Path 14510" d="M70.962 30.77a5.243 5.243 0 0 1 4.515 2.363c1.565 2.339.793 3.816.517 4.42a4.644 4.644 0 0 1-1.763 2.173s-1.156-4.952-1.419-5.849a19.109 19.109 0 0 0-1.85-3.107z" fill="#efb797"/><path data-name="Path 14511" d="M70.061 30.546s-1.445.285.065 2.1a10.665 10.665 0 0 1 2.367 4.168c.293 1.065.819 4.329.819 4.329s1.212 1.1 1.6-1.072a13.243 13.243 0 0 0-.564-5.135c-.247-.913-2.851-5.242-4.287-4.39z" fill="#f4c5ae"/></g><path data-name="Path 14512" d="M63.985 18.516a.217.217 0 0 0 .039.049c.026.037.056.078.09.132a.258.258 0 0 1 .031.064 1.087 1.087 0 0 1 .116.2.3.3 0 0 1 .026.048c.043.088.086.187.129.291 0 .008 0 .019.013.026.1.247.207.534.319.855v.009c.048.147.1.3.155.457a1.431 1.431 0 0 0 .056.157c.018.087.048.175.07.259s.051.142.069.214a13.468 13.468 0 0 0-3.937-6.667c-2.268-1.882-4.511-2.908-.686-6.506C64.529 4.279 73.528 1.552 78.827.12c-1.7.136-3.359.353-4.92.6-10.2 1.6-18.511 9.282-18.511 9.282-3.73 3.665 2.458 7.505 2.458 7.505-.009-.1.918.045 2.354-.181 2.7-.436 3.523 1.039 3.648 1.095a.443.443 0 0 1 .129.095z" fill="#fff" opacity=".15"/><path data-name="Path 14513" d="M22.379 114.584c-2.359 1.949-3 5.608-2.479 6.662 2.949 6 15.415 20.68 17.122 22.351 9.095 8.9 16.769 4.362 19.831-2.82 5.774-13.546 10.138-33.3 12.363-45.769.961-5.438 1.574-20.818-9.357-20.381-9.12.36-12.177 10.03-12.958 17.828-3.009 30.063-5.067 31.678-5.067 31.678s-.176 1.106-.987.33c-2.828-2.732-7.735-8.394-10.9-11.664-.88-.919-4.405-.83-7.568 1.785z" fill="#fff"/><g data-name="Group 6998"><path data-name="Path 14514" d="M31.99 104.326a1.126 1.126 0 0 1-.871-.636 1 1 0 0 1 .319-1.356.828.828 0 0 1 .4-.076 1.109 1.109 0 0 1 .862.647 1.122 1.122 0 0 1 .078.884.8.8 0 0 1-.4.468.722.722 0 0 1-.388.069zm-.172-1.8a.458.458 0 0 0-.263.05.718.718 0 0 0-.2.994.757.757 0 0 0 .909.459.569.569 0 0 0 .268-.315.972.972 0 0 0-.069-.69.854.854 0 0 0-.645-.503z" fill="#2a3244"/></g><path data-name="Path 14515" d="M40.873 124.469c.785.75.961-.336.961-.336s2.058-1.615 5.067-31.678c.669-6.7 3.036-14.753 9.456-17.134-1.931 4.53-4.144 12.233-4.825 24.749-.94 17.066-5.226 23.526-3.665 26.407.905 1.653-1.893 1.444-2.872-.134-1.949-3.118-1.091 3.432-1.44 4.443-.413 1.19-.332-3.07-2.682-6.317z" fill="#acc6cc" opacity=".12" style="mix-blend-mode:multiply;isolation:isolate"/><path data-name="Path 14516" d="M32.055 131.179c5.786 7.457 11.2 16.659 20.331 15.467-3.855 2.831-9.288 2.9-15.364-3.049-1.707-1.671-14.173-16.351-17.122-22.351-.427-.86-.052-3.456 1.38-5.446 2.005 3.1 6.42 9.771 10.775 15.379z" fill="#acc6cc" opacity=".12" style="mix-blend-mode:multiply;isolation:isolate"/><g data-name="Group 6999" transform="translate(-6938.058 -1953.547)"><path data-name="Path 14517" d="M6962.8 2004.435l15.8-13.954c1.688-1.491 2.921-4.942 2.74-7.67l-.876-13.168c-.181-2.728-1.71-3.74-3.4-2.249l-15.8 13.954c-1.688 1.491-2.92 4.942-2.739 7.67l.875 13.168c.186 2.728 1.716 3.74 3.4 2.249z" fill="#1c75bc"/><path data-name="Path 14518" d="M6961.509 2003.529l.719 10.81 5.631-16.418z" fill="#1c75bc"/><ellipse data-name="Ellipse 485" cx="2.04" cy=".973" rx="2.04" ry=".973" transform="rotate(-74.595 4792.372 -3582.227)" fill="#fff"/><ellipse data-name="Ellipse 486" cx="2.04" cy=".973" rx="2.04" ry=".973" transform="rotate(-74.595 4792.683 -3577.933)" fill="#fff"/><ellipse data-name="Ellipse 487" cx="2.04" cy=".973" rx="2.04" ry=".973" transform="rotate(-74.595 4792.995 -3573.637)" fill="#fff"/></g><path data-name="Path 14519" d="M18.291 80.116l6.433-5.83a.62.62 0 0 0 .122-.768l-1.744-3.04a.62.62 0 0 0-.942-.161l-6.514 5.6a.619.619 0 0 0-.138.772l1.825 3.273a.62.62 0 0 0 .958.154z" fill="#1c75bc"/><path data-name="Path 14520" d="M12.804 91.163l6.433-5.83a.618.618 0 0 0 .121-.767l-1.743-3.04a.62.62 0 0 0-.942-.162l-6.514 5.6a.62.62 0 0 0-.138.772l1.825 3.273a.62.62 0 0 0 .958.154z" fill="#8dc63f"/><path data-name="Path 14521" d="M24.057 89.853l6.433-5.83a.621.621 0 0 0 .121-.768l-1.744-3.04a.619.619 0 0 0-.941-.162l-6.515 5.6a.619.619 0 0 0-.137.772l1.825 3.273a.62.62 0 0 0 .958.155z" fill="#1c75bc"/></g></g></svg>