<svg xmlns="http://www.w3.org/2000/svg" width="275.777" height="237.151" viewBox="0 0 275.777 237.151">
  <g id="Group_10803" data-name="Group 10803" transform="translate(-6755 -2069.842)">
    <path id="Path_22628" data-name="Path 22628" d="M6856.149,2157.422l-88.2,50.882,46.774,26.427c-22.282,11.909-36.137,18.448-59.72,32.06,67.8,39.4,1.444.8,69.237,40.2l58.687-33.725,55.392,31.3c112.717-65.5-20.259,12.155,92.461-53.355C6972.426,2217.53,6942.391,2207.23,6856.149,2157.422Z" fill="#c1d5de" fill-rule="evenodd" opacity="0.7" style="mix-blend-mode: multiply;isolation: isolate"/>
    <g id="Group_10747" data-name="Group 10747">
      <path id="Path_22629" data-name="Path 22629" d="M6787.559,2132.1l8.912-.027c0,.189-.019,76.817-.056,76.987-.713,3.247-7.94,3.288-8.777.113C6787.586,2208.976,6787.559,2132.318,6787.559,2132.1Z" fill="#1e7e96" fill-rule="evenodd"/>
      <path id="Path_22630" data-name="Path 22630" d="M6792.625,2132.083l3.846-.012c0,.189-.019,76.817-.056,76.987-.326,1.486-2.017,2.3-3.835,2.442C6792.609,2199.626,6792.624,2137.439,6792.625,2132.083Z" fill="#17667a" fill-rule="evenodd"/>
      <path id="Path_22631" data-name="Path 22631" d="M6788.679,2132.507l1.872-.348c0,.057,0,78.739-.01,78.791a3.425,3.425,0,0,1-2.011-1.193C6788.515,2209.7,6788.679,2132.573,6788.679,2132.507Z" fill="#1b9ebf" fill-rule="evenodd"/>
      <path id="Path_22632" data-name="Path 22632" d="M6795.547,2132.124l-1.221.246c0,7.842,0,77.924.008,77.972a1.826,1.826,0,0,0,1.361-.966Z" fill="#1e7e96" fill-rule="evenodd"/>
    </g>
    <g id="Group_10763" data-name="Group 10763">
      <g id="Group_10752" data-name="Group 10752">
        <g id="Group_10749" data-name="Group 10749">
          <g id="Group_10748" data-name="Group 10748">
            <path id="Path_22633" data-name="Path 22633" d="M6864.849,2242.409c-1.014.963-2.2,1.436-4.54,2.837v2.068c-2.431,4.253-4.773,6.187-7.848,5.28-4.289-1.266-5.587-2.321-5.638-5.388-.49-5.225-.6-6.2.809-10.051a30.879,30.879,0,0,1,9.291-4.346c2.49-.794,6.243-2.968,9.86-3.923a2.768,2.768,0,0,1,3.464,2.584C6870.441,2234.738,6867.56,2239.533,6864.849,2242.409Z" fill="#111214" fill-rule="evenodd"/>
            <path id="Path_22634" data-name="Path 22634" d="M6864.849,2242.409c-1.014.963-2.2,1.436-4.54,2.837v2.068c-2.431,4.253-4.773,6.187-7.848,5.28-4.289-1.266-5.587-2.321-5.638-5.388a32,32,0,0,1-.271-5.973c5.7,2.915,10.546,2.648,15.864-2.843,1.6-1.647,6.278-5.908,6.681-9.083a3.074,3.074,0,0,1,1.15,2.163C6870.441,2234.738,6867.56,2239.533,6864.849,2242.409Z" fill-rule="evenodd"/>
          </g>
          <path id="Path_22635" data-name="Path 22635" d="M6871.3,2198.11c-3.775,13.843-7.067,24.62-11.351,38.325a8.9,8.9,0,0,1-4.251,5.275c-3.631,1.95-8.652,2.128-9.639-.689.848-13.928,1.3-21.544,2.49-29.069.986-6.263,1.524-12.231,4.719-17.286C6856.95,2182.264,6875.163,2183.95,6871.3,2198.11Z" fill="#001624" fill-rule="evenodd"/>
          <path id="Path_22636" data-name="Path 22636" d="M6865.865,2217.168c-1.845,6.19-3.754,12.356-5.914,19.267a8.9,8.9,0,0,1-4.251,5.275,12.225,12.225,0,0,1-5.254,1.444c.652-4.333,2.23-10.716,3.262-15a21.544,21.544,0,0,1-7.051,2.736c.137-2.127.237-3.038.373-4.862Z" fill="#00101a" fill-rule="evenodd"/>
        </g>
        <g id="Group_10751" data-name="Group 10751">
          <g id="Group_10750" data-name="Group 10750">
            <path id="Path_22637" data-name="Path 22637" d="M6872.6,2248.544c1.2-.322,4.288-5.03,8.619-4.1,5.2,1.111,11.241-1.835,15.934-1.892.836-.01,1.893-.22,2.4.16,2.233,1.666,2.507,3.392.582,5.583a33.571,33.571,0,0,1-6.191,5.115,39.879,39.879,0,0,1-7,3.967c-2.107.875-3.526.755-5.434,1.433l-.12,1.659a9.092,9.092,0,0,1-4.282,2.19c-2.683.236-5.83-1.483-8.09-3.894-.261-2.742-1.238-5.473.173-9.5Z" fill="#111214" fill-rule="evenodd"/>
            <path id="Path_22638" data-name="Path 22638" d="M6900.908,2244.039c.876,1.273.652,2.635-.767,4.251a33.571,33.571,0,0,1-6.191,5.115,39.879,39.879,0,0,1-7,3.967c-2.107.875-3.526.755-5.434,1.433l-.12,1.659a9.092,9.092,0,0,1-4.282,2.19c-2.683.236-5.83-1.483-8.09-3.894-.2-2.093-.816-4.178-.469-6.841,5.786,4.43,9.349,1.432,11.574,1.318,3.3-.168,8.071.12,15.417-5.156C6897.245,2246.86,6899.08,2245.511,6900.908,2244.039Z" fill-rule="evenodd"/>
            <path id="Path_22639" data-name="Path 22639" d="M6884.393,2250.04c1.343-2.345,1.347-3.883.9-4.81l9.244-1.826c4.531-.94,5.452-.088,4.25.981C6894.749,2247.979,6889.433,2248.876,6884.393,2250.04Z" fill="#20232e" fill-rule="evenodd"/>
          </g>
          <path id="Path_22640" data-name="Path 22640" d="M6885.414,2187.5c-.351,14.3-.8,45.446-2.049,60-.9,4.674-11.931,9.095-16.136,4.447-.787-13.906-2.389-25.441-1.747-33.08.532-6.357.7-25.327,3.034-30.928C6870.305,2180.879,6885.719,2175.03,6885.414,2187.5Z" fill="#001e30" fill-rule="evenodd"/>
          <path id="Path_22641" data-name="Path 22641" d="M6885.818,2189.341c-.35,14.3-1.206,43.6-2.453,58.158-.41,2.145-2.958,4.235-6,5.422.788-10.517,1.328-21.442,2.612-31.814.578-4.669,1.192-8.837,1.629-12.463.623-5.178,1.27-22.595-.824-27.524a9.907,9.907,0,0,0-3.11-4.161,9.464,9.464,0,0,1,5.1,2.986,12.4,12.4,0,0,1,2.863,6.959A11.292,11.292,0,0,1,6885.818,2189.341Z" fill="#001624" fill-rule="evenodd"/>
          <path id="Path_22642" data-name="Path 22642" d="M6875.25,2252.473c-3.277.97-6.171.16-7.518-1.213-.842-26.148-1.807-30.252,3.738-40.261,1.941-3.505,4.5-7.129,8.567-14.018C6877.362,2216.941,6877.745,2230.384,6875.25,2252.473Z" fill="#00263d" fill-rule="evenodd"/>
        </g>
      </g>
      <g id="Group_10756" data-name="Group 10756">
        <g id="Group_10753" data-name="Group 10753">
          <path id="Path_22643" data-name="Path 22643" d="M6795.244,2269.134l39.882-.121a23.423,23.423,0,0,1-.253,3.5c-3.189,14.528-35.529,14.712-39.275.5A21.208,21.208,0,0,1,6795.244,2269.134Z" fill="#cfe0e8" fill-rule="evenodd"/>
          <path id="Path_22644" data-name="Path 22644" d="M6796.028,2269.131l39.1-.118a23.423,23.423,0,0,1-.253,3.5c-2.925,13.328-30.379,14.581-37.79,3.729,5.392,5.589,12.447,7.451,20.429,6.862a26.607,26.607,0,0,0,6.714-1.318c1.093-.384,1.354-1.272-.058-.915C6815.7,2283,6797.249,2283.176,6796.028,2269.131Z" fill="#b6ccd6" fill-rule="evenodd"/>
          <path id="Path_22645" data-name="Path 22645" d="M6801.107,2261.19c7.826-4.652,20.477-4.652,28.243,0s7.739,12.189-.091,16.841-20.468,4.646-28.244-.005S6793.284,2265.836,6801.107,2261.19Z" fill="#dceaf0" fill-rule="evenodd"/>
          <path id="Path_22646" data-name="Path 22646" d="M6804.058,2261.621c6.182-3.571,16.176-3.571,22.312,0s6.113,9.358-.073,12.93-16.169,3.566-22.313-.005S6797.877,2265.187,6804.058,2261.621Z" fill="#f5fcff" fill-rule="evenodd"/>
          <path id="Path_22647" data-name="Path 22647" d="M6822.221,2282.21a33.848,33.848,0,0,1-12.309.323c-5.5-.9-10.831-3.45-13.609-8.241,2.547,3.69,7.416,6.585,13.659,7.58a38.369,38.369,0,0,0,12.243-.361C6822.959,2281.383,6822.8,2282.08,6822.221,2282.21Z" fill="#f5fcff" fill-rule="evenodd"/>
        </g>
        <g id="Group_10754" data-name="Group 10754">
          <path id="Path_22648" data-name="Path 22648" d="M6809.871,2186.775l10.628-.033c0,.225-.022,81.407-.067,81.611-.85,3.87-9.468,3.92-10.466.134C6809.9,2268.254,6809.871,2187.037,6809.871,2186.775Z" fill="#dceaf0" fill-rule="evenodd"/>
          <path id="Path_22649" data-name="Path 22649" d="M6815.913,2186.756l4.586-.014c0,.225-.022,81.407-.067,81.611-.389,1.771-2.405,2.742-4.573,2.911C6815.893,2257.106,6815.912,2193.144,6815.913,2186.756Z" fill="#cfe0e8" fill-rule="evenodd"/>
          <path id="Path_22650" data-name="Path 22650" d="M6811.207,2187.262l3.007-.01c0,.068-.006,82.806-.019,82.868-.664.116-2.764-.675-3.174-1.828C6811,2268.221,6811.207,2187.341,6811.207,2187.262Z" fill="#f5fcff" fill-rule="evenodd"/>
          <path id="Path_22651" data-name="Path 22651" d="M6809.871,2215.024l10.628-.032c0,.224-.022,21.219-.067,21.422-.849,3.871-9.468,3.921-10.466.135C6809.9,2236.316,6809.871,2215.286,6809.871,2215.024Z" fill="#b6ccd6" fill-rule="evenodd"/>
        </g>
        <g id="Group_10755" data-name="Group 10755">
          <path id="Path_22652" data-name="Path 22652" d="M6779.53,2206.531l71.311-.217a90.088,90.088,0,0,1-.453,9.125c-5.7,25.977-63.527,26.3-70.226.9A76.028,76.028,0,0,1,6779.53,2206.531Z" fill="#1e7e96" fill-rule="evenodd"/>
          <path id="Path_22653" data-name="Path 22653" d="M6780.932,2206.527l69.909-.213a89.805,89.805,0,0,1-.453,9.125c-5.231,23.83-54.322,26.072-67.57,6.667,9.641,10,22.217,12.716,36.49,11.662a47.783,47.783,0,0,0,12.043-2.356c1.954-.685,2.463-4.1-.066-3.482C6815.047,2231.9,6783.115,2231.64,6780.932,2206.527Z" fill="#17667a" fill-rule="evenodd"/>
          <path id="Path_22654" data-name="Path 22654" d="M6790.014,2192.327c13.993-8.318,36.612-8.318,50.5-.008,13.91,8.314,13.837,21.8-.164,30.113-13.976,8.308-36.6,8.308-50.5-.009S6776.025,2200.633,6790.014,2192.327Z" fill="#248ca6" fill-rule="evenodd"/>
          <path id="Path_22655" data-name="Path 22655" d="M6791.4,2192.2c13.551,22.2,60.539,16.68,47.548,27.635-13.2,7.626-34.57,7.626-47.7-.009S6778.182,2199.82,6791.4,2192.2Z" fill="#1b9ebf" fill-rule="evenodd"/>
          <path id="Path_22656" data-name="Path 22656" d="M6827.728,2231.645c-3.665,1.127-12.511,1.509-16.022,1.386-7.89-.276-29.861-4.2-31.118-18.374,4.8,12.55,26.177,18.821,46.922,14.86C6830.066,2229.03,6829.563,2231.08,6827.728,2231.645Z" fill="#1b9ebf" fill-rule="evenodd"/>
        </g>
      </g>
      <g id="Group_10762" data-name="Group 10762">
        <g id="Group_10759" data-name="Group 10759">
          <g id="Group_10757" data-name="Group 10757">
            <path id="Path_22657" data-name="Path 22657" d="M6863.91,2189.893c4.916-2.772,14.647-9.992,10.163-14.285-4.574-10.88-19.866-6.137-25.686-4.427-8.832,2.595-31.56,8.317-40.237,17.575l-15.194-15.283c-1.719,7.852-4.878,18.641-3.175,27.421,1.045,5.386,1.713,7.022,6.368,9.758a35.528,35.528,0,0,0,8.989,3.877,17.938,17.938,0,0,0,11.4-1.483C6827.326,2207.875,6857.567,2193.47,6863.91,2189.893Z" fill="#001624" fill-rule="evenodd"/>
            <path id="Path_22658" data-name="Path 22658" d="M6842.018,2191.107c3.508-1.978,23.038-6.152,25.177-10.11.493-.914-.432-2.594-.927-3.46-9.276.015-29.762,5.3-42.244,10.237Z" fill="#00101a" fill-rule="evenodd"/>
          </g>
          <g id="Group_10758" data-name="Group 10758">
            <path id="Path_22659" data-name="Path 22659" d="M6881.059,2193.692c4.916-2.772,4.879-9.967.9-14.734-2.326-2.79-6.845-4.093-12.65-3.079-9.193,1.6-39.471,13.889-48.149,20.092l-18.16-18.52c-1.72,7.852-2.182,21.878-.478,30.658,1.045,5.386,1.982,7.022,6.638,9.757a35.532,35.532,0,0,0,8.988,3.879,17.958,17.958,0,0,0,11.405-1.485C6840.339,2215.09,6874.716,2197.268,6881.059,2193.692Z" fill="#001e30" fill-rule="evenodd"/>
            <path id="Path_22660" data-name="Path 22660" d="M6832.463,2189.455a83.7,83.7,0,0,0-11.3,6.516l-18.16-18.52c-1.72,7.852-2.182,21.878-.478,30.658,1.045,5.386,1.982,7.022,6.638,9.757a35.532,35.532,0,0,0,8.988,3.879,17.958,17.958,0,0,0,11.405-1.485c5.822-2.792,33.346-16.513,41.4-21.168,3.59-3.138,7.349-11.554,6.832-11.369-12.752,10.115-31.978,16.056-39.239,19.807C6838,2205.483,6838.141,2193.36,6832.463,2189.455Z" fill="#001624" fill-rule="evenodd"/>
            <path id="Path_22661" data-name="Path 22661" d="M6875.917,2175.781c7.906,1.133,13.01,11.444,6.378,17.584a35.622,35.622,0,0,0-.554-8.339A15.356,15.356,0,0,0,6875.917,2175.781Z" fill="#001624" fill-rule="evenodd"/>
            <path id="Path_22662" data-name="Path 22662" d="M6875.43,2185.755c4.728-2.2,2.4-7.588-.58-8.319-6.376-1.562-29.986,8.324-38.744,12.033,2.883,2.334,4.232,7.709,4.81,11.441C6847.7,2198.07,6868.351,2189.041,6875.43,2185.755Z" fill="#00263d" fill-rule="evenodd"/>
          </g>
        </g>
        <g id="Group_10761" data-name="Group 10761">
          <path id="Path_22663" data-name="Path 22663" d="M6823.972,2186.338c7.747-2.518,15.186-5.457,22.925-8-1.9-3.236-4.949-4.137-8.216-4.342-10.431,3.149-24.209,8.016-30.531,14.762C6806.221,2186.815,6818.132,2193.367,6823.972,2186.338Z" fill="#1abac6" fill-rule="evenodd"/>
          <g id="Group_10760" data-name="Group 10760">
            <path id="Path_22664" data-name="Path 22664" d="M6830.414,2190.754a72.422,72.422,0,0,0-9.251,5.217l-18.16-18.52c-1.72,7.852-2.182,21.878-.478,30.658,1.045,5.386,1.982,7.022,6.638,9.757a35.532,35.532,0,0,0,8.988,3.879,17.958,17.958,0,0,0,11.405-1.485c6.964-3.339,23.764-11.952,36.5-18.6.129-6.967-1.444-13.518-6.935-18.739-9.391,3.1-20.576,6.14-27.779,8.99Q6830.883,2191.3,6830.414,2190.754Z" fill="#1abac6" fill-rule="evenodd"/>
            <path id="Path_22665" data-name="Path 22665" d="M6832.05,2189.848a111.914,111.914,0,0,0-10.887,6.123l-18.16-18.52c-1.72,7.852-2.182,21.878-.478,30.658,1.045,5.386,1.982,7.022,6.638,9.757a35.532,35.532,0,0,0,8.988,3.879,17.958,17.958,0,0,0,11.405-1.485c4.934-2.365,25.455-12.581,36.5-18.475a34.041,34.041,0,0,0-.414-6.337c-10.658,5.62-21.918,9.408-27.1,12.082-.518-1.932-3.5-12.243-5.293-16.023C6832.9,2191.028,6832.418,2190.266,6832.05,2189.848Z" fill="#1abac6" fill-rule="evenodd"/>
            <path id="Path_22666" data-name="Path 22666" d="M6836.67,2189.986c2.5,2.539,3.707,7.445,4.246,10.924,4.441-1.86,14.824-6.371,23.452-10.187a21.1,21.1,0,0,0-5.244-7.8C6851.819,2185.333,6843.429,2187.708,6836.67,2189.986Z" fill="#06929c" fill-rule="evenodd"/>
          </g>
        </g>
      </g>
    </g>
    <g id="Group_10764" data-name="Group 10764">
      <path id="Path_22667" data-name="Path 22667" d="M7002.435,2176.5l8.912-.028c0,.189-.018,76.817-.056,76.988-.713,3.246-7.94,3.287-8.776.113C7002.462,2253.376,7002.435,2176.719,7002.435,2176.5Z" fill="#1e7e96" fill-rule="evenodd"/>
      <path id="Path_22668" data-name="Path 22668" d="M7007.5,2176.483l3.845-.012c0,.189-.018,76.817-.056,76.988-.326,1.485-2.017,2.3-3.835,2.442C7007.485,2244.027,7007.5,2181.84,7007.5,2176.483Z" fill="#17667a" fill-rule="evenodd"/>
      <path id="Path_22669" data-name="Path 22669" d="M7003.556,2176.907l1.871-.347c0,.057,0,78.739-.009,78.791a3.423,3.423,0,0,1-2.011-1.193C7003.392,2254.1,7003.556,2176.974,7003.556,2176.907Z" fill="#1b9ebf" fill-rule="evenodd"/>
      <path id="Path_22670" data-name="Path 22670" d="M7010.423,2176.526l-1.221.245c0,7.842,0,77.923.009,77.972a1.829,1.829,0,0,0,1.361-.967Z" fill="#1e7e96" fill-rule="evenodd"/>
    </g>
    <g id="Group_10765" data-name="Group 10765">
      <path id="Path_22671" data-name="Path 22671" d="M6934.226,2215.816l8.912-.028c0,.189-.019,76.817-.056,76.988-.712,3.246-7.94,3.287-8.777.112C6934.253,2292.692,6934.226,2216.036,6934.226,2215.816Z" fill="#1e7e96" fill-rule="evenodd"/>
      <path id="Path_22672" data-name="Path 22672" d="M6939.293,2215.8l3.845-.012c0,.189-.019,76.817-.056,76.988-.326,1.485-2.017,2.3-3.834,2.442C6939.276,2283.343,6939.292,2221.156,6939.293,2215.8Z" fill="#17667a" fill-rule="evenodd"/>
      <path id="Path_22673" data-name="Path 22673" d="M6935.346,2216.224l1.872-.348c0,.058,0,78.74-.009,78.791a3.422,3.422,0,0,1-2.012-1.193C6935.183,2293.415,6935.346,2216.291,6935.346,2216.224Z" fill="#1b9ebf" fill-rule="evenodd"/>
      <path id="Path_22674" data-name="Path 22674" d="M6942.214,2215.842l-1.221.245c0,7.842,0,77.924.008,77.973a1.831,1.831,0,0,0,1.362-.967Z" fill="#1e7e96" fill-rule="evenodd"/>
    </g>
    <g id="Group_10766" data-name="Group 10766">
      <path id="Path_22675" data-name="Path 22675" d="M6862.619,2082.873l-11.019,6.345c-29.712,17.249-21.615,12-51.326,29.258l-5.528,3.207a62.567,62.567,0,0,0-6.579,4.266,5.515,5.515,0,0,0-1.567,4.172v1.437a5.988,5.988,0,0,0,2.628,5.248c37.169,21.437,110.749,64.047,147.95,85.512,37.056-21.518,36.322-20.509,73.354-42.067a4.041,4.041,0,0,0,.556-.381,2.24,2.24,0,0,1,.174-.159,5.923,5.923,0,0,0,1.734-3.049c0-.016.011-.023.011-.039a14.187,14.187,0,0,0,.174-3.047,6.481,6.481,0,0,0-3.318-5.648l-10.193-5.884c-32.61-18.837-101.175-59.511-133.787-78.342C6864.84,2083.1,6863.326,2082.369,6862.619,2082.873Z" fill="#b6ccd6" fill-rule="evenodd"/>
      <path id="Path_22676" data-name="Path 22676" d="M7012.284,2170.187l-12.462,4.715-62.636,38.366v3.447c-.01.166-.01.34-.01.507l75.98-43.6A6.719,6.719,0,0,0,7012.284,2170.187Z" fill="#dceaf0" fill-rule="evenodd"/>
      <path id="Path_22677" data-name="Path 22677" d="M6787.622,2126.5a6.744,6.744,0,0,0-1.047,3.665l150.6,87.052c.01-.659.01-1.342.01-2.016v-2.247L6792.9,2128.416Z" fill="#c5d7e0" fill-rule="evenodd"/>
      <path id="Path_22678" data-name="Path 22678" d="M6937.186,2211.776v-2.914l-129.51-76.8-16.6-7.648a3.99,3.99,0,0,0-3.457,2.089l149.564,86.454v-1.183Z" fill="#dceaf0" fill-rule="evenodd"/>
      <path id="Path_22679" data-name="Path 22679" d="M6937.186,2212.515v.753l75.1-43.081a4.272,4.272,0,0,0-3.576-2.314h-.012l-12.479,5.235-59.031,35.754v3.653Z" fill="#e8f3f7" fill-rule="evenodd"/>
      <path id="Path_22680" data-name="Path 22680" d="M6863.494,2083.056c-35.691,20.74-36.724,20.622-72.415,41.36,71.569,41.317,74.538,43.131,146.107,84.446,35.68-20.737,35.818-20.25,71.51-40.989C6937.127,2126.556,6935.052,2124.372,6863.494,2083.056Z" fill="#f4fafc" fill-rule="evenodd"/>
    </g>
    <g id="Group_10773" data-name="Group 10773">
      <g id="Group_10767" data-name="Group 10767">
        <path id="Path_22681" data-name="Path 22681" d="M6939.387,2136.192l-4.434,2.554c-11.957,6.941,3.183-2.028-8.773,4.915l-2.224,1.291a24.959,24.959,0,0,0-2.648,1.716,2.221,2.221,0,0,0-.63,1.679v.578a2.411,2.411,0,0,0,1.057,2.112c14.957,8.626,21.577,12.345,36.546,20.983,14.911-8.658,2.736-1.394,17.637-10.069a1.635,1.635,0,0,0,.224-.154.907.907,0,0,1,.07-.064,2.39,2.39,0,0,0,.7-1.226c0-.007,0-.01,0-.017a5.728,5.728,0,0,0,.07-1.225,2.607,2.607,0,0,0-1.335-2.273l-4.1-2.367c-13.122-7.581-17.723-10.521-30.847-18.1C6940.281,2136.284,6939.672,2135.989,6939.387,2136.192Z" fill="#b6ccd6" fill-rule="evenodd"/>
        <path id="Path_22682" data-name="Path 22682" d="M6976.623,2157.9l-5.015,1.9-13.323,8.58v1.387c-.005.068-.005.138-.005.205l18.694-10.686A2.7,2.7,0,0,0,6976.623,2157.9Z" fill="#dceaf0" fill-rule="evenodd"/>
        <path id="Path_22683" data-name="Path 22683" d="M6921.089,2146.891a2.725,2.725,0,0,0-.421,1.476l37.612,21.6c.005-.265.005-.54.005-.812v-.9l-35.072-20.594Z" fill="#c5d7e0" fill-rule="evenodd"/>
        <path id="Path_22684" data-name="Path 22684" d="M6958.285,2167.778v-1.172l-29.126-17.477-6.679-3.078a1.606,1.606,0,0,0-1.391.84l37.2,21.364v-.477Z" fill="#dceaf0" fill-rule="evenodd"/>
        <path id="Path_22685" data-name="Path 22685" d="M6958.285,2168.075v.3l18.338-10.476a1.719,1.719,0,0,0-1.44-.933h0l-5.022,2.107-11.872,7.53v1.469Z" fill="#e8f3f7" fill-rule="evenodd"/>
        <path id="Path_22686" data-name="Path 22686" d="M6939.74,2136.266c-14.363,8.346-2.9,1.44-17.26,9.785,28.8,16.626,7,3.93,35.805,20.555,14.358-8.345,2.532-1.29,16.894-9.637C6946.38,2140.343,6968.535,2152.892,6939.74,2136.266Z" fill="#f4fafc" fill-rule="evenodd"/>
      </g>
      <g id="Group_10772" data-name="Group 10772">
        <g id="Group_10770" data-name="Group 10770">
          <g id="Group_10768" data-name="Group 10768">
            <path id="Path_22687" data-name="Path 22687" d="M6946.429,2154.985l-.8-.468a3.573,3.573,0,0,1-.971-.811,4.058,4.058,0,0,1-.885-1.963,29.882,29.882,0,0,1-.139-5.06,6.658,6.658,0,0,1,.926-3.051,26.086,26.086,0,0,1,4.527-4.647q2.681-2.354,5.392-4.671l17.451-14.552a.2.2,0,0,0-.037.019,56.714,56.714,0,0,1,5.362-3.556,5.341,5.341,0,0,1,5.036-.191l.8.467a3.72,3.72,0,0,1,1.8,3.263v-.012a3,3,0,0,1-.949,2.662l-.046.042c-.973.923-2.149,1.806-3.168,2.659-7.7,6.444-16.89,15.36-22.758,23-.054,1.649-.077,2.3-.08,2.31h0v.011l0,.007h0v.007a.9.9,0,0,1-.509.316v0c-2.406,1.4-4.789,2.763-7.2,4.156A3.653,3.653,0,0,1,6946.429,2154.985Z" fill="#e8f3f7" fill-rule="evenodd"/>
            <path id="Path_22688" data-name="Path 22688" d="M6951.439,2153.577l5.947-3.472.016.013.04-1.552a1.546,1.546,0,0,1,.012-.3.263.263,0,0,1,.052-.076c3.1-4.283,13.07-15.209,22.975-23.423.7-.576,1.751-1.449,2.585-2.2a4.561,4.561,0,0,0,1.83-2.81,3,3,0,0,1-.949,2.662l-.046.042c-.973.923-2.149,1.806-3.168,2.659-7.7,6.444-16.89,15.36-22.758,23-.054,1.649-.077,2.3-.08,2.31h0v.011l0,.007h0v.007a.9.9,0,0,1-.509.316v0c-2.445,1.422-4.868,2.808-7.321,4.225A3.678,3.678,0,0,0,6951.439,2153.577Z" fill="#b6ccd6" fill-rule="evenodd"/>
            <path id="Path_22689" data-name="Path 22689" d="M6951.439,2153.577a16.311,16.311,0,0,1,.117-4.2c.357-1.831,2.185-3.428,7.56-8.068,6.454-5.541,12.8-10.856,18.91-15.915.2-.166,6.05-5.371,6.09-7.879a3.246,3.246,0,0,1,.652,3.07,3.658,3.658,0,0,1-1.162,1.588c-.883.817-2.34,1.971-2.661,2.237-10.1,8.294-20.4,19.558-23.488,23.862l-.039,1.883C6956.067,2150.938,6952.836,2152.765,6951.439,2153.577Z" fill="#cfe0e8" fill-rule="evenodd"/>
            <path id="Path_22690" data-name="Path 22690" d="M6971.893,2119.781a56.714,56.714,0,0,1,5.362-3.556,5.341,5.341,0,0,1,5.036-.191l.8.467a3.651,3.651,0,0,1,1.662,2.192c-.46.867-1.7,2.435-7.018,6.937-5.972,5.052-12.27,10.223-18.623,15.678-5.375,4.64-7.2,6.237-7.56,8.068a16.355,16.355,0,0,0-.117,4.2,3.77,3.77,0,0,1-1.16,1.284,3.645,3.645,0,0,1-3.85.124l-.8-.468a3.573,3.573,0,0,1-.971-.811,4.058,4.058,0,0,1-.885-1.963,29.882,29.882,0,0,1-.139-5.06,6.658,6.658,0,0,1,.926-3.051,26.086,26.086,0,0,1,4.527-4.647q2.681-2.354,5.392-4.671l17.461-14.56A.449.449,0,0,0,6971.893,2119.781Z" fill="#e8f3f7" fill-rule="evenodd"/>
            <path id="Path_22691" data-name="Path 22691" d="M6971.893,2119.781a56.714,56.714,0,0,1,5.362-3.556,5.341,5.341,0,0,1,5.036-.191l.8.467a3.651,3.651,0,0,1,1.662,2.192c-.46.867-1.7,2.435-7.018,6.937-5.972,5.052-12.27,10.223-18.623,15.678-5.375,4.64-7.2,6.237-7.56,8.068a16.355,16.355,0,0,0-.117,4.2,3.77,3.77,0,0,1-1.16,1.284,3.645,3.645,0,0,1-3.85.124l-.8-.468a3.573,3.573,0,0,1-.971-.811,4.058,4.058,0,0,1-.885-1.963c-.188-1.2.4-3.8.5-5,.429,2.7,3.093,3.086,4.216,3.04a1.439,1.439,0,0,0,1.4-1.341c.377-1.987,3.081-4.253,4.335-5.354q2.68-2.354,5.392-4.671l15.96-13.522c1.094-1.232-1.831-4.4-4.405-4.5l.771-.643A.449.449,0,0,0,6971.893,2119.781Z" fill="#dceaf0" fill-rule="evenodd"/>
            <path id="Path_22692" data-name="Path 22692" d="M6971.893,2119.781a56.714,56.714,0,0,1,5.362-3.556,6.5,6.5,0,0,1,3.035-.736c-3.781,1.274-7.119,4.275-12.187,8.584-4.207,3.578-17.346,13.5-22.013,19.474a7.933,7.933,0,0,0-1.464,3.57c-.164,3.1.335,6.919,6.736,4.679.006.667.045,1.3.077,1.781a3.77,3.77,0,0,1-1.16,1.284,3.645,3.645,0,0,1-3.85.124l-.8-.468a3.573,3.573,0,0,1-.971-.811,4.058,4.058,0,0,1-.885-1.963,29.882,29.882,0,0,1-.139-5.06,6.658,6.658,0,0,1,.926-3.051,26.086,26.086,0,0,1,4.527-4.647q2.681-2.354,5.392-4.671l17.461-14.56A.449.449,0,0,0,6971.893,2119.781Z" fill="#cfe0e8" fill-rule="evenodd"/>
            <path id="Path_22693" data-name="Path 22693" d="M6971.892,2119.781a56.847,56.847,0,0,1,5.363-3.556c-2.853,2.1-6.831,5.2-8.69,6.783-1.906,1.621-5.988,5.03-10.231,8.493-5.121,4.178-10.514,8.576-13.066,11.84a7.726,7.726,0,0,0-1.207,3.776c-.134,2.519-.123,4.011.484,5.2a4.351,4.351,0,0,0,4.612,2.331,5.007,5.007,0,0,0,2.282-1.067,3.77,3.77,0,0,1-1.16,1.284,3.645,3.645,0,0,1-3.85.124l-.8-.468a3.583,3.583,0,0,1-.97-.811,4.058,4.058,0,0,1-.885-1.963,29.781,29.781,0,0,1-.139-5.06,6.658,6.658,0,0,1,.926-3.051,26.086,26.086,0,0,1,4.527-4.647q2.681-2.354,5.392-4.671l17.461-14.56A.463.463,0,0,0,6971.892,2119.781Z" fill="#b6ccd6" fill-rule="evenodd"/>
            <path id="Path_22694" data-name="Path 22694" d="M6950.064,2146.3a2.54,2.54,0,0,1-.365,1.308c-.4.837-1.016.951-1.97.657a8.9,8.9,0,0,1-1.865-.754c-.955-.742-.3-3.2.845-3.373a4.031,4.031,0,0,1,1.994.467C6949.649,2145.018,6950.111,2145.528,6950.064,2146.3Z" fill="#f4fafc" fill-rule="evenodd"/>
          </g>
          <g id="Group_10769" data-name="Group 10769">
            <path id="Path_22695" data-name="Path 22695" d="M6952.173,2114.029c0,.01.007.024.031.047a82.207,82.207,0,0,0,7.76,4.393c4.949-3.191,10.887-6.031,16.03-8.847,6.15-3.254,8.068-3.693,7.593,1.876.295.209.753-.027.75,0,.024-.3.055-.707.08-1.01,0-.043,0-.08,0-.124a14.217,14.217,0,0,0-.112-3.1,6.755,6.755,0,0,0-1.547-3.321,10.144,10.144,0,0,0-3.675-2.448c-3.528-1.341-6.531.405-9.624,2.123C6963.53,2106.923,6958.064,2110.232,6952.173,2114.029Z" fill="#dceaf0" fill-rule="evenodd"/>
            <path id="Path_22696" data-name="Path 22696" d="M6952.666,2114.417c1.039.689,3.341,1.967,5.087,2.906a179.9,179.9,0,0,1,18.715-10.535c1.353-.672,3.183-1.436,4.1-1.192-.909-2.133-5.287-4.16-8.156-2.645C6970.523,2103.952,6954.378,2113.262,6952.666,2114.417Z" fill="#e8f3f7" fill-rule="evenodd"/>
            <path id="Path_22697" data-name="Path 22697" d="M6972,2102.251a14.977,14.977,0,0,1,2.871-1.035,7.255,7.255,0,0,1,5.1.683c.055.027.11.055.163.086l.759.441a7.652,7.652,0,0,1,1.867,1.524,6.755,6.755,0,0,1,1.547,3.321c.242,1.423.141,9.854.1,11.273-2.446,3.138-7.6,4.393-9.81.318-.1-2.119-.206-4.952-.282-5.008-4.807,1.778-11.316,5.615-15.814,7.89a3.777,3.777,0,0,0,1.489-1.435l-.024-1.84c2.686-1.733,9.165-5.767,13.921-8.512.858-.477,1.687-.964,2.413-1.362,2.581-1.366,4.419-2.116,5.649-2.117C6981.194,2101.866,6975.7,2101.046,6972,2102.251Z" fill="#cfe0e8" fill-rule="evenodd"/>
            <path id="Path_22698" data-name="Path 22698" d="M6952.173,2114.034a19.759,19.759,0,0,0,1.8,1.132l.8.467c1.7.985,3.435,1.95,5.19,2.834.01.649.026,1.189.026,1.841a3.585,3.585,0,0,1-1.364,1.37,3.8,3.8,0,0,1-3.763.022l-.807-.467a3.734,3.734,0,0,1-1.828-3.071C6952.228,2116.786,6952.173,2115.41,6952.173,2114.034Z" fill="#e8f3f7" fill-rule="evenodd"/>
          </g>
        </g>
        <g id="Group_10771" data-name="Group 10771">
          <path id="Path_22699" data-name="Path 22699" d="M6927.835,2115.163l45.271,31.207-4,1.917-24.848-15.411-20.424-15.8,1.178-1.067Z" fill="#2d394a" fill-rule="evenodd"/>
          <path id="Path_22700" data-name="Path 22700" d="M6926.722,2081.578l4.056-1.9-2.942,35.481-4,1.916-.252-4.021Z" fill="#283240" fill-rule="evenodd"/>
          <path id="Path_22701" data-name="Path 22701" d="M6924.964,2077.774l4.006-1.915.025-.013a3.03,3.03,0,0,1,2.89.536l-1.691,1.121-2.308.8C6926.874,2077.993,6925.891,2077.464,6924.964,2077.774Z" fill="#dceaf0" fill-rule="evenodd"/>
          <path id="Path_22702" data-name="Path 22702" d="M6972.311,2149.556l2.459-1.43,1.559-.484a2.887,2.887,0,0,1-1.414,2.552l-4.006,1.915C6971.687,2151.737,6971.881,2150.259,6972.311,2149.556Z" fill="#cfe0e8" fill-rule="evenodd"/>
          <path id="Path_22703" data-name="Path 22703" d="M6971.583,2108.421l2.205-1.567,1.8-.348a9.182,9.182,0,0,1,3.538,7.446l-1.731,1.7-2.277.211A12.224,12.224,0,0,0,6971.583,2108.421Z" fill="#dceaf0" fill-rule="evenodd"/>
          <path id="Path_22704" data-name="Path 22704" d="M6927.582,2081.207l45.272,31.208-2.942,35.481-45.272-31.208Z" fill="#000002" fill-rule="evenodd"/>
          <path id="Path_22705" data-name="Path 22705" d="M6944.769,2093.055l10.8,7.442,9.824,33.229c2.839,9.139-8.769,4.62-20.329-3.524-10.279-7.241-17.2-17.612-12.82-23.33Z" fill="#171e29" fill-rule="evenodd"/>
          <path id="Path_22706" data-name="Path 22706" d="M6931.885,2076.382l43.705,30.124-4.007,1.915-6.4-3.719-37.3-26.4Z" fill="#e8f3f7" fill-rule="evenodd"/>
          <path id="Path_22707" data-name="Path 22707" d="M6975.106,2115.866l4.021-1.914-2.8,33.689-4,1.916-.193-8.96Z" fill="#cfe0e8" fill-rule="evenodd"/>
          <path id="Path_22708" data-name="Path 22708" d="M6969.108,2148.286l2.943-35.481-45.272-31.208-2.942,35.482,45.271,31.207Zm-45.557-67.966c.216-2.615,2.153-3.522,4.335-2.021l43.7,30.122a9.078,9.078,0,0,1,3.537,7.446l-2.79,33.69c-.219,2.616-2.156,3.529-4.329,2.032l-43.7-30.125a9.084,9.084,0,0,1-3.544-7.453Z" fill="#212934" fill-rule="evenodd"/>
          <path id="Path_22709" data-name="Path 22709" d="M6945.179,2095.659l9.567,6.595,8.705,29.443c2.516,8.1-7.771,4.095-18.014-3.121-9.109-6.418-15.237-15.607-11.36-20.673Z" fill="#2b374a" fill-rule="evenodd"/>
          <path id="Path_22710" data-name="Path 22710" d="M6952.412,2103.869l2.428,8.21c.923,2.972-2.851,1.5-6.609-1.145-3.342-2.355-5.591-5.726-4.169-7.585l3-3.3C6949.333,2097.536,6951.744,2101.61,6952.412,2103.869Z" fill="#171e29" fill-rule="evenodd"/>
          <path id="Path_22711" data-name="Path 22711" d="M6927.582,2081.207c13.843,24.963,25.816,43.4,42.33,66.689l-45.272-31.207Z" fill="#566e94" fill-rule="evenodd" opacity="0.5"/>
        </g>
      </g>
    </g>
    <g id="Group_10784" data-name="Group 10784">
      <path id="Path_22712" data-name="Path 22712" d="M6864.5,2112.718l50.406,29.1c3.759,2.161,1.916,2.786-.47,4.4l-36.575,19.99-47.042-27.862Z" fill="#e8f3f7" fill-rule="evenodd"/>
      <g id="Group_10783" data-name="Group 10783">
        <g id="Group_10774" data-name="Group 10774">
          <path id="Path_22713" data-name="Path 22713" d="M6877.74,2160.328c.136.124.146,1.009.21,1.082l-43.423-25.236a.542.542,0,0,1-.259-.5c0-.18,0-.36,0-.54,0-.855,1.192-1.893,1.816-2.314l22.674,15.709,20.749,9.524c-.484.655-1.49,1.7-1.787,2.26Z" fill="#dceaf0" fill-rule="evenodd"/>
          <path id="Path_22714" data-name="Path 22714" d="M6868.816,2107.054l17.626,9.767,25.8,15.467-14.527,15.23-18.208,10.537-3.167-.957-38.809-22.823-1.446-1.453Z" fill="#e8f3f7" fill-rule="evenodd"/>
          <path id="Path_22715" data-name="Path 22715" d="M6868.824,2107.049a1.6,1.6,0,0,1,1.522-.312l43.423,25.236a5.55,5.55,0,0,1-1.53.315l-43.423-25.234Z" fill="#dceaf0" fill-rule="evenodd"/>
          <path id="Path_22716" data-name="Path 22716" d="M6879.5,2158.055l32.736-25.767c.071-.048.141-.092.21-.132.9-.518,1.61-.285,1.612.363l.026,9.251a3.442,3.442,0,0,1-1.815,2.316l-32.76,17.038c-1.006.58-1.82.482-1.822-.217l0-.537C6877.686,2159.672,6878.528,2158.728,6879.5,2158.055Z" fill="#c5d7e0" fill-rule="evenodd"/>
          <path id="Path_22717" data-name="Path 22717" d="M6868.93,2109.959c13.27,7.354,26.04,14.894,39.052,22.7l-26.814,21.091-.845.668-3.707,2.854a2.9,2.9,0,0,0-1.142,1.787l0,.537a.625.625,0,0,0,.216.5l-39.031-22.681a.545.545,0,0,1-.259-.5c0-.179,0-.36,0-.539a2.341,2.341,0,0,1,.755-1.409,30.093,30.093,0,0,1,2.887-2.316l3.136-2.435Z" fill="#f4fafc" fill-rule="evenodd"/>
          <path id="Path_22718" data-name="Path 22718" d="M6876.616,2157.267a2.9,2.9,0,0,0-1.142,1.787l0,.537a.625.625,0,0,0,.216.5l-39.031-22.681a.545.545,0,0,1-.259-.5c0-.179,0-.36,0-.539a2.341,2.341,0,0,1,.755-1.409Z" fill="#f4fafc" fill-rule="evenodd"/>
        </g>
        <g id="Group_10782" data-name="Group 10782">
          <g id="Group_10775" data-name="Group 10775">
            <path id="Path_22719" data-name="Path 22719" d="M6897.355,2132.65a.426.426,0,0,1,.225.017,4.724,4.724,0,0,1,1.579.977.392.392,0,0,1-.042.466c-.28.246-1.384,1.222-1.813,1.589-.117.1-.193.161-.361.108a4.735,4.735,0,0,1-.765-.365c-.2-.119-.4-.233-.594-.367a2.4,2.4,0,0,1-.327-.26.252.252,0,0,1-.05-.295c.042-.149.153-.237.511-.54C6896.234,2133.544,6897.187,2132.747,6897.355,2132.65Z" fill="#40526f" fill-rule="evenodd"/>
            <path id="Path_22720" data-name="Path 22720" d="M6894.661,2131.06a.424.424,0,0,1,.225.017,4.723,4.723,0,0,1,1.58.976.4.4,0,0,1-.043.467c-.281.245-1.384,1.223-1.813,1.59-.117.1-.194.161-.362.108a4.678,4.678,0,0,1-.763-.365c-.205-.119-.4-.235-.6-.369a2.487,2.487,0,0,1-.327-.259.252.252,0,0,1-.048-.3c.041-.148.151-.237.509-.54C6893.539,2131.955,6894.492,2131.157,6894.661,2131.06Z" fill="#40526f" fill-rule="evenodd"/>
            <path id="Path_22721" data-name="Path 22721" d="M6892.017,2129.469a.43.43,0,0,1,.225.016,4.712,4.712,0,0,1,1.58.977.39.39,0,0,1-.043.467c-.28.245-1.383,1.222-1.813,1.588-.117.1-.192.162-.36.109a4.723,4.723,0,0,1-.765-.365c-.2-.118-.4-.234-.594-.368a2.462,2.462,0,0,1-.328-.259.254.254,0,0,1-.049-.295c.042-.148.153-.237.51-.54C6890.9,2130.364,6891.849,2129.566,6892.017,2129.469Z" fill="#40526f" fill-rule="evenodd"/>
            <path id="Path_22722" data-name="Path 22722" d="M6889.334,2127.858a.423.423,0,0,1,.225.015,4.739,4.739,0,0,1,1.58.978.393.393,0,0,1-.043.467c-.281.245-1.384,1.221-1.813,1.589-.117.1-.193.161-.361.108a4.683,4.683,0,0,1-.764-.366c-.205-.118-.4-.233-.6-.368a2.35,2.35,0,0,1-.327-.259.251.251,0,0,1-.049-.295c.041-.148.152-.238.51-.54C6888.213,2128.752,6889.166,2127.955,6889.334,2127.858Z" fill="#40526f" fill-rule="evenodd"/>
            <path id="Path_22723" data-name="Path 22723" d="M6886.65,2126.246a.426.426,0,0,1,.226.016,4.748,4.748,0,0,1,1.58.977.394.394,0,0,1-.045.467c-.279.245-1.382,1.222-1.812,1.589-.116.1-.193.161-.361.108a4.643,4.643,0,0,1-.764-.366c-.2-.118-.4-.233-.6-.367a2.582,2.582,0,0,1-.327-.259c-.093-.1-.084-.169-.049-.295.041-.149.152-.237.51-.54C6885.529,2127.14,6886.482,2126.343,6886.65,2126.246Z" fill="#40526f" fill-rule="evenodd"/>
            <path id="Path_22724" data-name="Path 22724" d="M6883.966,2124.634a.436.436,0,0,1,.226.016,4.715,4.715,0,0,1,1.579.977.391.391,0,0,1-.043.467c-.28.245-1.383,1.222-1.812,1.59-.118.1-.193.161-.361.108a4.825,4.825,0,0,1-.765-.366c-.2-.118-.4-.233-.594-.367a2.7,2.7,0,0,1-.328-.26.255.255,0,0,1-.049-.3c.042-.148.153-.237.51-.54C6882.845,2125.529,6883.8,2124.731,6883.966,2124.634Z" fill="#40526f" fill-rule="evenodd"/>
            <path id="Path_22725" data-name="Path 22725" d="M6881.283,2123.023a.431.431,0,0,1,.225.015,4.725,4.725,0,0,1,1.58.978.394.394,0,0,1-.043.467c-.28.245-1.384,1.221-1.813,1.589-.117.1-.192.161-.361.108a4.752,4.752,0,0,1-.764-.365c-.2-.119-.4-.234-.595-.369a2.369,2.369,0,0,1-.327-.259c-.093-.1-.085-.169-.049-.295.041-.148.152-.238.51-.539C6880.162,2123.917,6881.115,2123.12,6881.283,2123.023Z" fill="#40526f" fill-rule="evenodd"/>
            <path id="Path_22726" data-name="Path 22726" d="M6878.6,2121.411a.42.42,0,0,1,.226.017,4.723,4.723,0,0,1,1.58.976.394.394,0,0,1-.044.467c-.28.245-1.383,1.222-1.813,1.589-.116.1-.193.162-.361.108a4.751,4.751,0,0,1-.764-.364c-.2-.119-.4-.235-.594-.369a2.448,2.448,0,0,1-.327-.259c-.094-.1-.085-.169-.05-.295.042-.149.153-.237.511-.539C6877.479,2122.3,6878.432,2121.508,6878.6,2121.411Z" fill="#40526f" fill-rule="evenodd"/>
            <path id="Path_22727" data-name="Path 22727" d="M6875.916,2119.8a.433.433,0,0,1,.225.016,4.731,4.731,0,0,1,1.58.978.392.392,0,0,1-.044.466c-.279.245-1.382,1.222-1.812,1.59-.117.1-.193.161-.361.108a4.8,4.8,0,0,1-.765-.366c-.2-.118-.4-.233-.594-.367a2.559,2.559,0,0,1-.328-.26.254.254,0,0,1-.049-.3c.042-.148.153-.237.51-.54C6874.795,2120.694,6875.747,2119.9,6875.916,2119.8Z" fill="#40526f" fill-rule="evenodd"/>
            <path id="Path_22728" data-name="Path 22728" d="M6873.232,2118.188a.437.437,0,0,1,.226.015,4.733,4.733,0,0,1,1.579.978.4.4,0,0,1-.043.467c-.28.245-1.383,1.222-1.812,1.589-.118.1-.193.161-.361.108a4.759,4.759,0,0,1-.765-.365c-.2-.119-.4-.234-.594-.369a2.333,2.333,0,0,1-.328-.259c-.093-.1-.084-.168-.049-.3.041-.148.152-.236.51-.539C6872.111,2119.082,6873.064,2118.285,6873.232,2118.188Z" fill="#40526f" fill-rule="evenodd"/>
            <path id="Path_22729" data-name="Path 22729" d="M6870.548,2116.576a.417.417,0,0,1,.226.017,4.711,4.711,0,0,1,1.58.976.393.393,0,0,1-.044.467c-.279.246-1.383,1.222-1.813,1.589-.116.1-.192.162-.361.108a4.7,4.7,0,0,1-.763-.364c-.2-.119-.4-.234-.6-.369a2.552,2.552,0,0,1-.327-.259c-.094-.1-.085-.169-.05-.295.042-.149.153-.237.511-.539C6869.428,2117.47,6870.381,2116.673,6870.548,2116.576Z" fill="#40526f" fill-rule="evenodd"/>
            <path id="Path_22730" data-name="Path 22730" d="M6867.865,2114.964a.431.431,0,0,1,.225.017,4.713,4.713,0,0,1,1.58.977.393.393,0,0,1-.043.467c-.28.245-1.383,1.222-1.813,1.589-.117.1-.193.161-.361.108a4.669,4.669,0,0,1-.764-.366c-.2-.118-.4-.233-.595-.367a2.513,2.513,0,0,1-.327-.259.253.253,0,0,1-.049-.3c.042-.148.153-.237.51-.54C6866.744,2115.859,6867.7,2115.062,6867.865,2114.964Z" fill="#40526f" fill-rule="evenodd"/>
          </g>
          <g id="Group_10776" data-name="Group 10776">
            <path id="Path_22731" data-name="Path 22731" d="M6893.795,2135.886a.434.434,0,0,1,.225.017,4.733,4.733,0,0,1,1.58.977.394.394,0,0,1-.044.467c-.28.246-1.383,1.222-1.813,1.589-.116.1-.193.161-.361.108a4.723,4.723,0,0,1-.764-.365c-.2-.119-.4-.234-.594-.368a2.605,2.605,0,0,1-.327-.259c-.094-.1-.085-.17-.049-.3.041-.148.152-.237.51-.539C6892.674,2136.781,6893.627,2135.984,6893.795,2135.886Z" fill="#40526f" fill-rule="evenodd"/>
            <path id="Path_22732" data-name="Path 22732" d="M6891.1,2134.3a.428.428,0,0,1,.226.016,4.726,4.726,0,0,1,1.58.977.394.394,0,0,1-.044.467c-.28.245-1.383,1.222-1.812,1.589-.117.1-.193.161-.361.108a4.585,4.585,0,0,1-.765-.366c-.2-.117-.4-.233-.594-.367a2.505,2.505,0,0,1-.328-.259c-.093-.1-.084-.169-.049-.295.041-.149.152-.238.51-.54C6889.979,2135.191,6890.932,2134.394,6891.1,2134.3Z" fill="#40526f" fill-rule="evenodd"/>
            <path id="Path_22733" data-name="Path 22733" d="M6888.457,2132.706a.428.428,0,0,1,.226.016,4.752,4.752,0,0,1,1.58.977.394.394,0,0,1-.044.467c-.28.245-1.383,1.221-1.813,1.588-.117.1-.193.162-.361.109a4.79,4.79,0,0,1-.764-.366c-.2-.118-.4-.233-.595-.368a2.311,2.311,0,0,1-.326-.259.249.249,0,0,1-.05-.294c.042-.149.152-.238.51-.54C6887.337,2133.6,6888.289,2132.8,6888.457,2132.706Z" fill="#40526f" fill-rule="evenodd"/>
            <path id="Path_22734" data-name="Path 22734" d="M6885.774,2131.094a.431.431,0,0,1,.225.016,4.724,4.724,0,0,1,1.58.977.4.4,0,0,1-.044.467c-.28.245-1.382,1.222-1.812,1.588-.117.1-.193.162-.361.109a4.716,4.716,0,0,1-.765-.365c-.2-.118-.4-.234-.594-.368a2.669,2.669,0,0,1-.328-.259.251.251,0,0,1-.048-.295c.041-.148.151-.237.509-.54C6884.652,2131.988,6885.6,2131.191,6885.774,2131.094Z" fill="#40526f" fill-rule="evenodd"/>
            <path id="Path_22735" data-name="Path 22735" d="M6883.09,2129.482a.437.437,0,0,1,.226.016,4.738,4.738,0,0,1,1.579.977.394.394,0,0,1-.043.467c-.28.246-1.384,1.222-1.813,1.59-.117.1-.193.161-.361.108a4.67,4.67,0,0,1-.764-.366c-.2-.118-.4-.233-.6-.368a2.383,2.383,0,0,1-.327-.259c-.093-.1-.084-.169-.049-.295.041-.148.152-.238.51-.54C6881.969,2130.377,6882.922,2129.58,6883.09,2129.482Z" fill="#40526f" fill-rule="evenodd"/>
            <path id="Path_22736" data-name="Path 22736" d="M6880.407,2127.871a.422.422,0,0,1,.225.016,4.724,4.724,0,0,1,1.579.977.393.393,0,0,1-.043.467c-.279.245-1.383,1.222-1.813,1.589-.116.1-.192.161-.361.108a4.79,4.79,0,0,1-.764-.366c-.2-.118-.4-.233-.594-.368a2.239,2.239,0,0,1-.327-.259c-.094-.1-.085-.169-.05-.294.042-.149.152-.237.51-.54C6879.285,2128.765,6880.239,2127.968,6880.407,2127.871Z" fill="#40526f" fill-rule="evenodd"/>
            <path id="Path_22737" data-name="Path 22737" d="M6877.723,2126.259a.433.433,0,0,1,.225.016,4.726,4.726,0,0,1,1.58.977.392.392,0,0,1-.043.467c-.281.245-1.383,1.222-1.813,1.589-.117.1-.193.162-.361.108a4.691,4.691,0,0,1-.764-.365c-.205-.118-.4-.233-.595-.368a2.558,2.558,0,0,1-.327-.259.251.251,0,0,1-.049-.3c.041-.148.152-.237.51-.54C6876.6,2127.153,6877.555,2126.356,6877.723,2126.259Z" fill="#40526f" fill-rule="evenodd"/>
            <path id="Path_22738" data-name="Path 22738" d="M6875.04,2124.648a.423.423,0,0,1,.225.015,4.754,4.754,0,0,1,1.58.978.4.4,0,0,1-.044.467c-.28.245-1.383,1.221-1.812,1.589-.117.1-.194.161-.362.108a4.772,4.772,0,0,1-.764-.365c-.2-.119-.4-.234-.595-.369a2.43,2.43,0,0,1-.327-.259c-.093-.1-.084-.169-.049-.295.041-.148.152-.238.51-.54C6873.918,2125.542,6874.871,2124.745,6875.04,2124.648Z" fill="#40526f" fill-rule="evenodd"/>
            <path id="Path_22739" data-name="Path 22739" d="M6872.355,2123.036a.429.429,0,0,1,.226.016,4.711,4.711,0,0,1,1.579.977.392.392,0,0,1-.043.467c-.279.245-1.383,1.222-1.812,1.589-.117.1-.193.161-.361.108a4.675,4.675,0,0,1-.765-.365c-.2-.119-.4-.234-.594-.368a2.4,2.4,0,0,1-.327-.26c-.093-.1-.085-.168-.05-.294.042-.149.153-.237.511-.539C6871.234,2123.93,6872.188,2123.133,6872.355,2123.036Z" fill="#40526f" fill-rule="evenodd"/>
            <path id="Path_22740" data-name="Path 22740" d="M6869.672,2121.424a.433.433,0,0,1,.225.016,4.706,4.706,0,0,1,1.58.978.393.393,0,0,1-.043.466c-.28.245-1.383,1.222-1.813,1.59-.117.1-.192.161-.361.108a4.807,4.807,0,0,1-.764-.366c-.2-.118-.4-.233-.594-.368a2.49,2.49,0,0,1-.328-.259.251.251,0,0,1-.049-.3c.042-.148.152-.237.51-.54C6868.551,2122.318,6869.5,2121.521,6869.672,2121.424Z" fill="#40526f" fill-rule="evenodd"/>
            <path id="Path_22741" data-name="Path 22741" d="M6866.989,2119.813a.422.422,0,0,1,.225.015,4.767,4.767,0,0,1,1.58.978.4.4,0,0,1-.043.467c-.281.245-1.384,1.222-1.813,1.589-.117.1-.194.161-.362.108a4.76,4.76,0,0,1-.763-.365c-.205-.119-.4-.234-.6-.369a2.41,2.41,0,0,1-.326-.259c-.094-.1-.085-.169-.049-.3.041-.148.152-.237.51-.539C6865.868,2120.707,6866.821,2119.91,6866.989,2119.813Z" fill="#40526f" fill-rule="evenodd"/>
            <path id="Path_22742" data-name="Path 22742" d="M6864.305,2118.2a.421.421,0,0,1,.225.016,4.716,4.716,0,0,1,1.58.977.392.392,0,0,1-.044.467c-.279.245-1.382,1.222-1.812,1.589-.117.1-.193.162-.361.108a4.642,4.642,0,0,1-.765-.365c-.2-.118-.4-.234-.594-.368a2.458,2.458,0,0,1-.327-.26c-.093-.1-.084-.168-.05-.294.042-.149.153-.237.511-.539C6863.183,2119.095,6864.137,2118.3,6864.305,2118.2Z" fill="#40526f" fill-rule="evenodd"/>
          </g>
          <g id="Group_10777" data-name="Group 10777">
            <path id="Path_22743" data-name="Path 22743" d="M6890.235,2139.123a.433.433,0,0,1,.225.016,4.735,4.735,0,0,1,1.58.978.4.4,0,0,1-.044.467c-.28.245-1.383,1.221-1.812,1.588-.117.1-.193.162-.361.108a4.7,4.7,0,0,1-.765-.364c-.2-.119-.4-.234-.6-.369a2.648,2.648,0,0,1-.327-.259.254.254,0,0,1-.049-.3c.042-.148.152-.237.51-.54C6889.113,2140.018,6890.066,2139.22,6890.235,2139.123Z" fill="#40526f" fill-rule="evenodd"/>
            <path id="Path_22744" data-name="Path 22744" d="M6887.54,2137.534a.423.423,0,0,1,.225.015,4.75,4.75,0,0,1,1.58.977.394.394,0,0,1-.043.468c-.28.245-1.383,1.221-1.813,1.589-.117.1-.192.161-.36.108a4.761,4.761,0,0,1-.765-.366c-.2-.118-.4-.233-.594-.368a2.305,2.305,0,0,1-.328-.259.252.252,0,0,1-.049-.295c.042-.148.152-.238.51-.54C6886.419,2138.427,6887.372,2137.631,6887.54,2137.534Z" fill="#40526f" fill-rule="evenodd"/>
            <path id="Path_22745" data-name="Path 22745" d="M6884.9,2135.942a.439.439,0,0,1,.226.016,4.76,4.76,0,0,1,1.58.977.394.394,0,0,1-.045.467c-.279.245-1.382,1.222-1.812,1.59-.117.1-.193.161-.361.108a4.7,4.7,0,0,1-.764-.366c-.2-.119-.4-.234-.6-.368a2.41,2.41,0,0,1-.327-.259.252.252,0,0,1-.049-.295c.041-.148.152-.238.51-.54C6883.776,2136.836,6884.728,2136.04,6884.9,2135.942Z" fill="#40526f" fill-rule="evenodd"/>
            <path id="Path_22746" data-name="Path 22746" d="M6882.213,2134.33a.437.437,0,0,1,.226.017,4.715,4.715,0,0,1,1.579.977.393.393,0,0,1-.043.467c-.28.245-1.383,1.221-1.812,1.588-.118.1-.193.162-.361.109a4.776,4.776,0,0,1-.765-.366c-.2-.118-.4-.234-.594-.368a2.389,2.389,0,0,1-.328-.259.252.252,0,0,1-.049-.294c.042-.149.152-.238.51-.54C6881.093,2135.224,6882.045,2134.428,6882.213,2134.33Z" fill="#40526f" fill-rule="evenodd"/>
            <path id="Path_22747" data-name="Path 22747" d="M6879.53,2132.719a.43.43,0,0,1,.225.016,4.724,4.724,0,0,1,1.58.977.394.394,0,0,1-.043.467c-.28.245-1.383,1.222-1.813,1.588-.117.1-.192.162-.361.109a4.691,4.691,0,0,1-.764-.365c-.2-.119-.4-.234-.594-.368a2.443,2.443,0,0,1-.328-.26c-.094-.1-.085-.169-.049-.294.041-.149.152-.238.51-.54C6878.409,2133.613,6879.362,2132.816,6879.53,2132.719Z" fill="#40526f" fill-rule="evenodd"/>
            <path id="Path_22748" data-name="Path 22748" d="M6876.846,2131.107a.435.435,0,0,1,.226.016,4.767,4.767,0,0,1,1.58.977.393.393,0,0,1-.044.467c-.28.245-1.383,1.222-1.813,1.59-.117.1-.193.161-.361.108a4.709,4.709,0,0,1-.764-.366c-.2-.119-.4-.234-.595-.368a2.357,2.357,0,0,1-.326-.259c-.094-.1-.085-.169-.05-.295.042-.148.153-.238.511-.54C6875.726,2132,6876.678,2131.205,6876.846,2131.107Z" fill="#40526f" fill-rule="evenodd"/>
            <path id="Path_22749" data-name="Path 22749" d="M6874.163,2129.5a.434.434,0,0,1,.225.017,4.726,4.726,0,0,1,1.58.977.394.394,0,0,1-.044.467c-.28.245-1.382,1.221-1.812,1.589-.117.1-.193.161-.361.108a4.762,4.762,0,0,1-.765-.366c-.2-.118-.4-.233-.594-.368a2.35,2.35,0,0,1-.327-.259.251.251,0,0,1-.05-.294c.042-.149.152-.237.51-.54C6873.042,2130.39,6873.994,2129.593,6874.163,2129.5Z" fill="#40526f" fill-rule="evenodd"/>
            <path id="Path_22750" data-name="Path 22750" d="M6871.479,2127.884a.438.438,0,0,1,.226.016,4.724,4.724,0,0,1,1.579.977.4.4,0,0,1-.043.467c-.28.245-1.383,1.222-1.813,1.589-.117.1-.193.162-.361.108a4.7,4.7,0,0,1-.764-.365c-.2-.118-.4-.233-.594-.368a2.549,2.549,0,0,1-.328-.259.253.253,0,0,1-.049-.3c.041-.148.152-.238.51-.54C6870.358,2128.778,6871.311,2127.981,6871.479,2127.884Z" fill="#40526f" fill-rule="evenodd"/>
            <path id="Path_22751" data-name="Path 22751" d="M6868.795,2126.272a.436.436,0,0,1,.226.016,4.765,4.765,0,0,1,1.58.977.393.393,0,0,1-.044.467c-.279.246-1.383,1.222-1.813,1.59-.117.1-.192.161-.361.108a4.848,4.848,0,0,1-.764-.365c-.2-.119-.4-.235-.594-.369a2.343,2.343,0,0,1-.327-.259c-.094-.1-.085-.169-.05-.295.042-.148.153-.238.511-.54C6867.675,2127.167,6868.627,2126.37,6868.795,2126.272Z" fill="#40526f" fill-rule="evenodd"/>
            <path id="Path_22752" data-name="Path 22752" d="M6866.112,2124.661a.425.425,0,0,1,.225.016,4.724,4.724,0,0,1,1.58.977.394.394,0,0,1-.043.467c-.281.245-1.383,1.221-1.813,1.589-.117.1-.193.161-.361.108a4.69,4.69,0,0,1-.764-.366c-.2-.118-.4-.233-.6-.368a2.383,2.383,0,0,1-.327-.259.25.25,0,0,1-.049-.294c.041-.149.152-.237.51-.54C6864.991,2125.555,6865.944,2124.758,6866.112,2124.661Z" fill="#40526f" fill-rule="evenodd"/>
            <path id="Path_22753" data-name="Path 22753" d="M6863.429,2123.049a.431.431,0,0,1,.225.016,4.733,4.733,0,0,1,1.58.977.4.4,0,0,1-.044.467c-.28.245-1.383,1.222-1.813,1.589-.116.1-.193.162-.361.108a4.711,4.711,0,0,1-.764-.365c-.2-.118-.4-.233-.594-.368a2.588,2.588,0,0,1-.328-.259c-.093-.1-.084-.17-.049-.3.041-.148.152-.237.51-.54C6862.307,2123.943,6863.26,2123.146,6863.429,2123.049Z" fill="#40526f" fill-rule="evenodd"/>
            <path id="Path_22754" data-name="Path 22754" d="M6860.745,2121.438a.427.427,0,0,1,.226.015,4.747,4.747,0,0,1,1.578.978.39.39,0,0,1-.043.467c-.279.245-1.383,1.222-1.812,1.589-.117.1-.193.161-.361.108a4.826,4.826,0,0,1-.765-.365c-.2-.119-.4-.234-.594-.369a2.311,2.311,0,0,1-.327-.259c-.093-.1-.084-.169-.05-.3.042-.148.153-.237.511-.54C6859.624,2122.332,6860.577,2121.535,6860.745,2121.438Z" fill="#40526f" fill-rule="evenodd"/>
          </g>
          <g id="Group_10778" data-name="Group 10778">
            <path id="Path_22755" data-name="Path 22755" d="M6886.674,2142.36a.437.437,0,0,1,.226.016,4.724,4.724,0,0,1,1.579.977.393.393,0,0,1-.043.467c-.28.245-1.383,1.222-1.812,1.589-.117.1-.194.161-.361.108a4.766,4.766,0,0,1-.765-.365c-.2-.119-.4-.234-.6-.369a2.445,2.445,0,0,1-.327-.259c-.093-.1-.084-.168-.049-.294.041-.149.152-.237.51-.54C6885.553,2143.254,6886.506,2142.457,6886.674,2142.36Z" fill="#40526f" fill-rule="evenodd"/>
            <path id="Path_22756" data-name="Path 22756" d="M6883.98,2140.77a.422.422,0,0,1,.225.016,4.728,4.728,0,0,1,1.58.977.393.393,0,0,1-.043.467c-.281.245-1.383,1.222-1.813,1.588-.117.1-.193.162-.361.109a4.7,4.7,0,0,1-.764-.365c-.2-.118-.4-.234-.6-.368a2.5,2.5,0,0,1-.326-.259.252.252,0,0,1-.05-.3c.041-.149.152-.238.51-.54C6882.859,2141.664,6883.812,2140.867,6883.98,2140.77Z" fill="#40526f" fill-rule="evenodd"/>
            <path id="Path_22757" data-name="Path 22757" d="M6881.337,2139.179a.428.428,0,0,1,.226.016,4.7,4.7,0,0,1,1.579.977.4.4,0,0,1-.043.467c-.28.245-1.384,1.221-1.813,1.588-.117.1-.193.162-.361.108a4.736,4.736,0,0,1-.765-.364c-.2-.119-.4-.234-.594-.368a2.545,2.545,0,0,1-.327-.26.253.253,0,0,1-.05-.294c.042-.149.153-.238.511-.54C6880.216,2140.072,6881.169,2139.275,6881.337,2139.179Z" fill="#40526f" fill-rule="evenodd"/>
            <path id="Path_22758" data-name="Path 22758" d="M6878.653,2137.567a.425.425,0,0,1,.225.016,4.73,4.73,0,0,1,1.58.977.391.391,0,0,1-.043.467c-.28.245-1.383,1.222-1.813,1.589-.117.1-.192.162-.361.109a4.812,4.812,0,0,1-.764-.366c-.2-.119-.4-.234-.594-.368a2.269,2.269,0,0,1-.327-.259c-.094-.1-.085-.17-.05-.295.042-.148.152-.238.51-.54C6877.532,2138.461,6878.485,2137.665,6878.653,2137.567Z" fill="#40526f" fill-rule="evenodd"/>
            <path id="Path_22759" data-name="Path 22759" d="M6875.97,2135.955a.432.432,0,0,1,.225.017,4.728,4.728,0,0,1,1.58.977.4.4,0,0,1-.043.467c-.281.245-1.384,1.221-1.813,1.588-.117.1-.193.161-.362.109a4.737,4.737,0,0,1-.763-.366c-.205-.118-.4-.234-.595-.368a2.362,2.362,0,0,1-.327-.259c-.093-.1-.085-.169-.049-.3.041-.148.152-.237.51-.539C6874.849,2136.849,6875.8,2136.053,6875.97,2135.955Z" fill="#40526f" fill-rule="evenodd"/>
            <path id="Path_22760" data-name="Path 22760" d="M6873.287,2134.344a.421.421,0,0,1,.225.016,4.741,4.741,0,0,1,1.58.977.4.4,0,0,1-.044.467c-.28.245-1.383,1.222-1.813,1.588-.116.1-.193.162-.361.109a4.742,4.742,0,0,1-.765-.365c-.2-.119-.4-.234-.594-.368a2.479,2.479,0,0,1-.327-.26.253.253,0,0,1-.05-.294c.042-.149.153-.238.511-.54C6872.165,2135.238,6873.118,2134.44,6873.287,2134.344Z" fill="#40526f" fill-rule="evenodd"/>
            <path id="Path_22761" data-name="Path 22761" d="M6870.6,2132.732a.437.437,0,0,1,.226.016,4.723,4.723,0,0,1,1.579.977.391.391,0,0,1-.043.467c-.28.245-1.383,1.222-1.812,1.589-.118.1-.193.162-.361.109a4.845,4.845,0,0,1-.765-.366c-.2-.119-.4-.234-.594-.368a2.293,2.293,0,0,1-.327-.259c-.093-.1-.084-.169-.05-.295.042-.148.153-.238.51-.54C6869.481,2133.627,6870.434,2132.83,6870.6,2132.732Z" fill="#40526f" fill-rule="evenodd"/>
            <path id="Path_22762" data-name="Path 22762" d="M6867.919,2131.12a.434.434,0,0,1,.225.017,4.728,4.728,0,0,1,1.58.977.4.4,0,0,1-.043.467c-.28.245-1.384,1.221-1.813,1.589-.117.1-.192.16-.361.108a4.763,4.763,0,0,1-.764-.366c-.2-.118-.4-.234-.6-.368a2.35,2.35,0,0,1-.327-.259.25.25,0,0,1-.049-.294c.041-.149.152-.238.51-.54C6866.8,2132.014,6867.751,2131.218,6867.919,2131.12Z" fill="#40526f" fill-rule="evenodd"/>
            <path id="Path_22763" data-name="Path 22763" d="M6865.236,2129.509a.423.423,0,0,1,.225.016,4.748,4.748,0,0,1,1.58.977.394.394,0,0,1-.044.467c-.28.245-1.383,1.222-1.813,1.589-.116.1-.193.162-.361.108a4.73,4.73,0,0,1-.764-.365c-.2-.119-.4-.234-.6-.368a2.547,2.547,0,0,1-.326-.26c-.094-.1-.085-.169-.05-.294.042-.148.153-.238.511-.54C6864.115,2130.4,6865.068,2129.606,6865.236,2129.509Z" fill="#40526f" fill-rule="evenodd"/>
            <path id="Path_22764" data-name="Path 22764" d="M6862.552,2127.9a.432.432,0,0,1,.225.016,4.755,4.755,0,0,1,1.58.977.393.393,0,0,1-.044.467c-.28.245-1.382,1.222-1.812,1.589-.117.1-.193.162-.361.109a4.8,4.8,0,0,1-.765-.366c-.2-.118-.4-.234-.594-.368a2.4,2.4,0,0,1-.327-.259c-.093-.1-.084-.169-.05-.295.042-.148.153-.238.51-.54C6861.431,2128.792,6862.383,2128,6862.552,2127.9Z" fill="#40526f" fill-rule="evenodd"/>
            <path id="Path_22765" data-name="Path 22765" d="M6859.868,2126.286a.43.43,0,0,1,.226.016,4.718,4.718,0,0,1,1.579.977.393.393,0,0,1-.043.467c-.28.245-1.383,1.221-1.812,1.589-.118.1-.193.16-.362.108a4.729,4.729,0,0,1-.764-.366c-.2-.118-.4-.233-.594-.368a2.287,2.287,0,0,1-.328-.259.253.253,0,0,1-.049-.294c.041-.149.152-.238.51-.54C6858.747,2127.179,6859.7,2126.383,6859.868,2126.286Z" fill="#40526f" fill-rule="evenodd"/>
            <path id="Path_22766" data-name="Path 22766" d="M6857.185,2124.674a.423.423,0,0,1,.225.016,4.743,4.743,0,0,1,1.58.977.393.393,0,0,1-.044.467c-.279.245-1.383,1.222-1.813,1.589-.116.1-.193.162-.361.108a4.751,4.751,0,0,1-.764-.365c-.2-.118-.4-.234-.594-.368a2.528,2.528,0,0,1-.327-.259.252.252,0,0,1-.05-.3c.042-.148.153-.237.511-.54C6856.064,2125.568,6857.017,2124.771,6857.185,2124.674Z" fill="#40526f" fill-rule="evenodd"/>
          </g>
          <g id="Group_10779" data-name="Group 10779">
            <path id="Path_22767" data-name="Path 22767" d="M6883.114,2145.6a.418.418,0,0,1,.226.017,4.707,4.707,0,0,1,1.579.976.394.394,0,0,1-.043.467c-.28.245-1.383,1.223-1.813,1.59-.117.1-.192.161-.36.108a4.764,4.764,0,0,1-.765-.366c-.2-.118-.4-.234-.594-.368a2.287,2.287,0,0,1-.328-.259.252.252,0,0,1-.049-.295c.042-.148.152-.237.51-.54C6881.994,2146.491,6882.946,2145.693,6883.114,2145.6Z" fill="#40526f" fill-rule="evenodd"/>
            <path id="Path_22768" data-name="Path 22768" d="M6880.42,2144.006a.432.432,0,0,1,.225.017,4.728,4.728,0,0,1,1.58.977.392.392,0,0,1-.044.467c-.28.245-1.382,1.221-1.812,1.588-.117.1-.193.161-.361.109a4.776,4.776,0,0,1-.765-.366c-.2-.118-.4-.234-.594-.368a2.41,2.41,0,0,1-.327-.259.251.251,0,0,1-.049-.294c.042-.149.152-.238.509-.54C6879.3,2144.9,6880.251,2144.1,6880.42,2144.006Z" fill="#40526f" fill-rule="evenodd"/>
            <path id="Path_22769" data-name="Path 22769" d="M6877.777,2142.415a.433.433,0,0,1,.225.016,4.757,4.757,0,0,1,1.58.978.393.393,0,0,1-.044.467c-.279.245-1.383,1.221-1.812,1.588-.117.1-.193.161-.362.109a4.73,4.73,0,0,1-.763-.366c-.2-.119-.4-.234-.594-.368a2.435,2.435,0,0,1-.328-.259c-.094-.1-.085-.17-.049-.3.041-.148.152-.237.51-.538C6876.656,2143.309,6877.609,2142.512,6877.777,2142.415Z" fill="#40526f" fill-rule="evenodd"/>
            <path id="Path_22770" data-name="Path 22770" d="M6875.093,2140.8a.427.427,0,0,1,.226.016,4.71,4.71,0,0,1,1.579.977.392.392,0,0,1-.043.467c-.28.245-1.383,1.221-1.813,1.588-.117.1-.193.162-.361.108a4.71,4.71,0,0,1-.764-.364c-.2-.119-.4-.234-.6-.368a2.516,2.516,0,0,1-.327-.26c-.093-.1-.084-.169-.049-.294.042-.149.153-.238.51-.54C6873.973,2141.7,6874.925,2140.9,6875.093,2140.8Z" fill="#40526f" fill-rule="evenodd"/>
            <path id="Path_22771" data-name="Path 22771" d="M6872.41,2139.191a.424.424,0,0,1,.225.017,4.72,4.72,0,0,1,1.58.977.394.394,0,0,1-.044.467c-.28.245-1.382,1.222-1.812,1.589-.117.1-.193.161-.361.108a4.664,4.664,0,0,1-.765-.365c-.2-.119-.4-.234-.594-.368a2.35,2.35,0,0,1-.327-.259c-.094-.1-.085-.17-.05-.295.041-.149.152-.238.51-.54C6871.288,2140.086,6872.241,2139.289,6872.41,2139.191Z" fill="#40526f" fill-rule="evenodd"/>
            <path id="Path_22772" data-name="Path 22772" d="M6869.726,2137.58a.438.438,0,0,1,.226.016,4.741,4.741,0,0,1,1.579.978.392.392,0,0,1-.044.467c-.279.245-1.383,1.221-1.812,1.588-.117.1-.193.161-.361.109a4.73,4.73,0,0,1-.764-.366c-.2-.118-.4-.234-.595-.368a2.507,2.507,0,0,1-.327-.259.255.255,0,0,1-.05-.3c.042-.149.153-.237.511-.539C6868.6,2138.474,6869.558,2137.677,6869.726,2137.58Z" fill="#40526f" fill-rule="evenodd"/>
            <path id="Path_22773" data-name="Path 22773" d="M6867.043,2135.969a.421.421,0,0,1,.225.016,4.72,4.72,0,0,1,1.579.977.392.392,0,0,1-.043.467c-.279.245-1.383,1.221-1.812,1.588-.118.1-.193.162-.362.109a4.869,4.869,0,0,1-.764-.365c-.2-.119-.4-.234-.594-.368a2.355,2.355,0,0,1-.327-.26c-.094-.1-.085-.169-.05-.294.042-.149.153-.238.51-.54C6865.922,2136.862,6866.874,2136.065,6867.043,2135.969Z" fill="#40526f" fill-rule="evenodd"/>
            <path id="Path_22774" data-name="Path 22774" d="M6864.359,2134.356a.433.433,0,0,1,.225.017,4.736,4.736,0,0,1,1.58.977.394.394,0,0,1-.043.467c-.281.245-1.383,1.222-1.813,1.589-.117.1-.193.161-.361.108a4.684,4.684,0,0,1-.764-.365c-.2-.119-.4-.234-.6-.368a2.383,2.383,0,0,1-.327-.259.25.25,0,0,1-.049-.295c.041-.148.152-.238.51-.54C6863.238,2135.252,6864.191,2134.455,6864.359,2134.356Z" fill="#40526f" fill-rule="evenodd"/>
            <path id="Path_22775" data-name="Path 22775" d="M6861.676,2132.745a.433.433,0,0,1,.225.017,4.748,4.748,0,0,1,1.58.977.4.4,0,0,1-.044.467c-.28.245-1.383,1.221-1.812,1.589-.118.1-.194.16-.362.108a4.71,4.71,0,0,1-.764-.366c-.2-.118-.4-.234-.6-.368a2.51,2.51,0,0,1-.327-.259c-.093-.1-.084-.169-.05-.294.042-.15.153-.238.511-.54C6860.554,2133.639,6861.507,2132.842,6861.676,2132.745Z" fill="#40526f" fill-rule="evenodd"/>
            <path id="Path_22776" data-name="Path 22776" d="M6858.992,2131.134a.426.426,0,0,1,.226.016,4.725,4.725,0,0,1,1.578.977.391.391,0,0,1-.043.467c-.279.245-1.383,1.222-1.812,1.589-.117.1-.193.162-.361.108a4.742,4.742,0,0,1-.765-.365c-.2-.119-.4-.234-.594-.368a2.375,2.375,0,0,1-.327-.26.251.251,0,0,1-.05-.294c.042-.149.153-.238.51-.54C6857.871,2132.028,6858.824,2131.231,6858.992,2131.134Z" fill="#40526f" fill-rule="evenodd"/>
            <path id="Path_22777" data-name="Path 22777" d="M6856.308,2129.522a.424.424,0,0,1,.225.016,4.728,4.728,0,0,1,1.58.977.392.392,0,0,1-.043.467c-.28.245-1.383,1.222-1.813,1.589-.117.1-.193.161-.361.108a4.671,4.671,0,0,1-.764-.365c-.2-.118-.4-.234-.594-.368a2.305,2.305,0,0,1-.328-.259.252.252,0,0,1-.049-.295c.041-.148.152-.238.51-.54C6855.187,2130.417,6856.14,2129.62,6856.308,2129.522Z" fill="#40526f" fill-rule="evenodd"/>
            <path id="Path_22778" data-name="Path 22778" d="M6853.625,2127.911a.426.426,0,0,1,.225.016,4.744,4.744,0,0,1,1.58.977.4.4,0,0,1-.044.467c-.28.245-1.383,1.221-1.812,1.589-.117.1-.194.16-.362.108a4.73,4.73,0,0,1-.763-.366c-.205-.118-.4-.234-.6-.368a2.417,2.417,0,0,1-.326-.259.251.251,0,0,1-.05-.294c.042-.15.153-.238.511-.54C6852.5,2128.8,6853.457,2128.007,6853.625,2127.911Z" fill="#40526f" fill-rule="evenodd"/>
          </g>
          <g id="Group_10780" data-name="Group 10780">
            <path id="Path_22779" data-name="Path 22779" d="M6879.554,2148.833a.419.419,0,0,1,.225.016,4.719,4.719,0,0,1,1.58.977.39.39,0,0,1-.043.467c-.281.245-1.383,1.222-1.813,1.589-.117.1-.193.161-.361.108a4.611,4.611,0,0,1-.764-.366c-.205-.118-.4-.233-.595-.368a2.389,2.389,0,0,1-.327-.259c-.093-.1-.084-.168-.049-.294.042-.149.152-.238.51-.54C6878.433,2149.727,6879.386,2148.93,6879.554,2148.833Z" fill="#40526f" fill-rule="evenodd"/>
            <path id="Path_22780" data-name="Path 22780" d="M6876.86,2147.242a.436.436,0,0,1,.225.017,4.74,4.74,0,0,1,1.58.977.393.393,0,0,1-.044.467c-.279.245-1.383,1.222-1.812,1.589-.117.1-.193.161-.361.108a4.722,4.722,0,0,1-.765-.365c-.2-.119-.4-.234-.594-.368a2.324,2.324,0,0,1-.327-.259c-.093-.1-.084-.17-.05-.3.042-.147.153-.237.51-.539C6875.739,2148.137,6876.692,2147.34,6876.86,2147.242Z" fill="#40526f" fill-rule="evenodd"/>
            <path id="Path_22781" data-name="Path 22781" d="M6874.217,2145.651a.426.426,0,0,1,.225.017,4.738,4.738,0,0,1,1.58.977.4.4,0,0,1-.043.467c-.281.245-1.384,1.222-1.813,1.588-.117.1-.193.162-.361.108a4.673,4.673,0,0,1-.764-.364c-.205-.119-.4-.234-.6-.368a2.484,2.484,0,0,1-.327-.259c-.094-.1-.085-.17-.049-.3.041-.148.152-.237.51-.539C6873.1,2146.546,6874.049,2145.748,6874.217,2145.651Z" fill="#40526f" fill-rule="evenodd"/>
            <path id="Path_22782" data-name="Path 22782" d="M6871.533,2144.04a.43.43,0,0,1,.225.016,4.761,4.761,0,0,1,1.581.978.4.4,0,0,1-.045.467c-.279.245-1.382,1.221-1.812,1.588-.117.1-.193.161-.361.109a4.742,4.742,0,0,1-.765-.366c-.2-.119-.4-.234-.594-.368a2.47,2.47,0,0,1-.327-.259c-.093-.1-.084-.17-.05-.3.042-.148.153-.237.511-.539C6870.412,2144.934,6871.365,2144.137,6871.533,2144.04Z" fill="#40526f" fill-rule="evenodd"/>
            <path id="Path_22783" data-name="Path 22783" d="M6868.849,2142.428a.425.425,0,0,1,.226.017,4.689,4.689,0,0,1,1.579.977.392.392,0,0,1-.043.467c-.28.245-1.383,1.221-1.812,1.588-.118.1-.193.162-.361.108a4.642,4.642,0,0,1-.765-.365c-.2-.119-.4-.233-.594-.367a2.471,2.471,0,0,1-.328-.26.254.254,0,0,1-.049-.295c.042-.148.153-.237.51-.539C6867.728,2143.322,6868.681,2142.525,6868.849,2142.428Z" fill="#40526f" fill-rule="evenodd"/>
            <path id="Path_22784" data-name="Path 22784" d="M6866.166,2140.816a.426.426,0,0,1,.225.017,4.729,4.729,0,0,1,1.58.977.4.4,0,0,1-.043.467c-.28.245-1.384,1.222-1.813,1.589-.117.1-.193.161-.361.108a4.786,4.786,0,0,1-.764-.365c-.2-.119-.4-.234-.6-.368a2.513,2.513,0,0,1-.327-.259.25.25,0,0,1-.049-.295c.041-.149.152-.238.51-.54C6865.045,2141.711,6866,2140.913,6866.166,2140.816Z" fill="#40526f" fill-rule="evenodd"/>
            <path id="Path_22785" data-name="Path 22785" d="M6863.482,2139.205a.432.432,0,0,1,.225.016,4.761,4.761,0,0,1,1.581.978.4.4,0,0,1-.044.467c-.28.245-1.383,1.221-1.813,1.588-.117.1-.193.161-.361.109a4.763,4.763,0,0,1-.764-.366c-.2-.119-.4-.234-.6-.368a2.516,2.516,0,0,1-.326-.259.252.252,0,0,1-.05-.3c.042-.149.153-.238.511-.539C6862.361,2140.1,6863.314,2139.3,6863.482,2139.205Z" fill="#40526f" fill-rule="evenodd"/>
            <path id="Path_22786" data-name="Path 22786" d="M6860.8,2137.593a.43.43,0,0,1,.225.017,4.724,4.724,0,0,1,1.58.977.393.393,0,0,1-.044.467c-.28.245-1.383,1.221-1.812,1.588-.117.1-.193.162-.361.109a4.826,4.826,0,0,1-.765-.365c-.2-.119-.4-.234-.594-.368a2.576,2.576,0,0,1-.328-.26.254.254,0,0,1-.049-.3c.042-.148.153-.237.51-.539C6859.678,2138.487,6860.63,2137.69,6860.8,2137.593Z" fill="#40526f" fill-rule="evenodd"/>
            <path id="Path_22787" data-name="Path 22787" d="M6858.115,2135.981a.436.436,0,0,1,.226.017,4.717,4.717,0,0,1,1.579.977.394.394,0,0,1-.043.467c-.28.245-1.383,1.222-1.812,1.589-.118.1-.193.161-.361.108a4.644,4.644,0,0,1-.765-.365c-.2-.119-.4-.234-.594-.368a2.287,2.287,0,0,1-.328-.259c-.093-.1-.084-.17-.049-.295.041-.149.152-.238.51-.54C6856.994,2136.876,6857.947,2136.079,6858.115,2135.981Z" fill="#40526f" fill-rule="evenodd"/>
            <path id="Path_22788" data-name="Path 22788" d="M6855.431,2134.37a.436.436,0,0,1,.226.016,4.755,4.755,0,0,1,1.58.978.392.392,0,0,1-.044.467c-.28.245-1.383,1.221-1.813,1.589-.117.1-.193.16-.361.108a4.75,4.75,0,0,1-.764-.366c-.2-.119-.4-.234-.594-.368a2.293,2.293,0,0,1-.327-.259.251.251,0,0,1-.05-.295c.042-.149.153-.237.511-.539C6854.311,2135.264,6855.263,2134.467,6855.431,2134.37Z" fill="#40526f" fill-rule="evenodd"/>
            <path id="Path_22789" data-name="Path 22789" d="M6852.748,2132.758a.433.433,0,0,1,.225.017,4.733,4.733,0,0,1,1.58.977.394.394,0,0,1-.043.467c-.281.245-1.383,1.221-1.813,1.588-.117.1-.193.162-.361.109a4.855,4.855,0,0,1-.764-.365c-.2-.119-.4-.234-.595-.368a2.5,2.5,0,0,1-.327-.26.251.251,0,0,1-.049-.3c.042-.148.152-.237.51-.539C6851.627,2133.652,6852.58,2132.856,6852.748,2132.758Z" fill="#40526f" fill-rule="evenodd"/>
            <path id="Path_22790" data-name="Path 22790" d="M6850.064,2131.147a.426.426,0,0,1,.226.016,4.749,4.749,0,0,1,1.58.977.4.4,0,0,1-.044.467c-.28.245-1.383,1.222-1.812,1.589-.117.1-.193.161-.361.108a4.657,4.657,0,0,1-.765-.365c-.2-.118-.4-.234-.594-.368a2.454,2.454,0,0,1-.328-.259.252.252,0,0,1-.049-.295c.041-.148.152-.238.51-.54C6848.943,2132.041,6849.9,2131.244,6850.064,2131.147Z" fill="#40526f" fill-rule="evenodd"/>
          </g>
          <g id="Group_10781" data-name="Group 10781">
            <path id="Path_22791" data-name="Path 22791" d="M6875.994,2152.069a.438.438,0,0,1,.226.016,4.764,4.764,0,0,1,1.579.977.392.392,0,0,1-.044.467c-.28.246-1.382,1.222-1.812,1.589-.117.1-.193.162-.361.109a4.722,4.722,0,0,1-.765-.366c-.2-.118-.4-.233-.594-.368a2.4,2.4,0,0,1-.328-.259.254.254,0,0,1-.048-.295c.041-.148.151-.238.509-.54C6874.873,2152.963,6875.825,2152.166,6875.994,2152.069Z" fill="#40526f" fill-rule="evenodd"/>
            <path id="Path_22792" data-name="Path 22792" d="M6873.3,2150.479a.431.431,0,0,1,.225.017,4.7,4.7,0,0,1,1.58.977.393.393,0,0,1-.044.467c-.279.245-1.383,1.221-1.812,1.588-.117.1-.193.161-.362.108a4.688,4.688,0,0,1-.764-.365c-.2-.119-.4-.233-.594-.367a2.45,2.45,0,0,1-.327-.26c-.094-.1-.085-.169-.05-.295.042-.149.153-.237.511-.539C6872.179,2151.373,6873.132,2150.576,6873.3,2150.479Z" fill="#40526f" fill-rule="evenodd"/>
            <path id="Path_22793" data-name="Path 22793" d="M6870.657,2148.888a.424.424,0,0,1,.225.017,4.7,4.7,0,0,1,1.58.977.394.394,0,0,1-.044.466c-.28.246-1.383,1.222-1.812,1.589-.117.1-.194.161-.362.108a4.671,4.671,0,0,1-.764-.365c-.2-.119-.4-.233-.594-.368a2.4,2.4,0,0,1-.328-.259c-.093-.1-.084-.169-.049-.295.041-.149.152-.237.51-.54C6869.535,2149.782,6870.488,2148.985,6870.657,2148.888Z" fill="#40526f" fill-rule="evenodd"/>
            <path id="Path_22794" data-name="Path 22794" d="M6867.973,2147.276a.431.431,0,0,1,.226.017,4.716,4.716,0,0,1,1.579.977.394.394,0,0,1-.043.467c-.28.245-1.384,1.222-1.813,1.588-.117.1-.193.162-.361.108a4.764,4.764,0,0,1-.765-.364c-.2-.119-.4-.234-.594-.368a2.6,2.6,0,0,1-.327-.259c-.093-.1-.084-.17-.05-.3.042-.148.153-.237.511-.539C6866.852,2148.171,6867.805,2147.373,6867.973,2147.276Z" fill="#40526f" fill-rule="evenodd"/>
            <path id="Path_22795" data-name="Path 22795" d="M6865.289,2145.664a.444.444,0,0,1,.225.017,4.755,4.755,0,0,1,1.58.977.393.393,0,0,1-.043.467c-.279.246-1.383,1.222-1.813,1.589-.116.1-.192.161-.361.109a4.833,4.833,0,0,1-.764-.366c-.2-.119-.4-.234-.594-.368a2.348,2.348,0,0,1-.327-.259c-.094-.1-.085-.17-.05-.3.041-.148.152-.237.51-.539C6864.168,2146.559,6865.122,2145.762,6865.289,2145.664Z" fill="#40526f" fill-rule="evenodd"/>
            <path id="Path_22796" data-name="Path 22796" d="M6862.606,2144.053a.421.421,0,0,1,.225.017,4.714,4.714,0,0,1,1.58.977.393.393,0,0,1-.043.466c-.281.246-1.384,1.222-1.813,1.589-.117.1-.194.161-.362.108a4.711,4.711,0,0,1-.763-.365c-.205-.119-.4-.233-.6-.368a2.369,2.369,0,0,1-.327-.259.251.251,0,0,1-.049-.295c.041-.148.152-.237.51-.539C6861.485,2144.947,6862.438,2144.15,6862.606,2144.053Z" fill="#40526f" fill-rule="evenodd"/>
            <path id="Path_22797" data-name="Path 22797" d="M6859.923,2142.441a.426.426,0,0,1,.225.017,4.71,4.71,0,0,1,1.579.977.394.394,0,0,1-.043.467c-.28.245-1.383,1.222-1.812,1.588-.117.1-.194.162-.362.108a4.736,4.736,0,0,1-.765-.364c-.2-.119-.4-.234-.594-.368a2.722,2.722,0,0,1-.327-.259c-.093-.1-.084-.17-.05-.3.042-.148.153-.237.511-.539C6858.8,2143.336,6859.754,2142.538,6859.923,2142.441Z" fill="#40526f" fill-rule="evenodd"/>
            <path id="Path_22798" data-name="Path 22798" d="M6857.238,2140.83a.436.436,0,0,1,.226.016,4.743,4.743,0,0,1,1.579.978.391.391,0,0,1-.043.467c-.28.245-1.383,1.221-1.812,1.588-.117.1-.193.161-.361.109a4.805,4.805,0,0,1-.765-.366c-.2-.119-.4-.234-.594-.368a2.355,2.355,0,0,1-.327-.259.253.253,0,0,1-.05-.3c.042-.149.153-.238.51-.54C6856.117,2141.724,6857.071,2140.927,6857.238,2140.83Z" fill="#40526f" fill-rule="evenodd"/>
            <path id="Path_22799" data-name="Path 22799" d="M6854.555,2139.218a.419.419,0,0,1,.225.017,4.719,4.719,0,0,1,1.58.977.392.392,0,0,1-.043.466c-.28.246-1.384,1.222-1.813,1.589-.117.1-.193.161-.361.109a4.69,4.69,0,0,1-.764-.366c-.2-.119-.4-.233-.594-.367a2.408,2.408,0,0,1-.328-.26c-.093-.1-.085-.169-.049-.3.041-.148.152-.237.51-.539C6853.434,2140.112,6854.387,2139.315,6854.555,2139.218Z" fill="#40526f" fill-rule="evenodd"/>
            <path id="Path_22800" data-name="Path 22800" d="M6851.872,2137.606a.434.434,0,0,1,.225.017,4.724,4.724,0,0,1,1.579.977.393.393,0,0,1-.042.467c-.281.245-1.384,1.222-1.813,1.589-.117.1-.194.161-.362.108a4.792,4.792,0,0,1-.764-.365c-.2-.119-.4-.234-.595-.368a2.637,2.637,0,0,1-.326-.259.251.251,0,0,1-.05-.295c.042-.149.153-.238.511-.54C6850.751,2138.5,6851.7,2137.7,6851.872,2137.606Z" fill="#40526f" fill-rule="evenodd"/>
            <path id="Path_22801" data-name="Path 22801" d="M6849.187,2136a.436.436,0,0,1,.226.016,4.747,4.747,0,0,1,1.58.978.394.394,0,0,1-.044.467c-.28.245-1.382,1.221-1.812,1.588-.117.1-.193.161-.361.109a4.776,4.776,0,0,1-.765-.366c-.2-.119-.4-.234-.594-.368a2.4,2.4,0,0,1-.328-.259.256.256,0,0,1-.049-.295c.042-.149.153-.238.51-.539C6848.066,2136.889,6849.019,2136.092,6849.187,2136Z" fill="#40526f" fill-rule="evenodd"/>
            <path id="Path_22802" data-name="Path 22802" d="M6846.5,2134.383a.428.428,0,0,1,.226.017,4.744,4.744,0,0,1,1.579.977.393.393,0,0,1-.043.467c-.28.245-1.384,1.221-1.812,1.588-.118.1-.194.162-.362.109a4.828,4.828,0,0,1-.764-.365c-.2-.119-.4-.234-.594-.368a2.492,2.492,0,0,1-.328-.26.254.254,0,0,1-.049-.3c.042-.148.152-.237.51-.539C6845.383,2135.277,6846.336,2134.481,6846.5,2134.383Z" fill="#40526f" fill-rule="evenodd"/>
          </g>
        </g>
      </g>
    </g>
    <g id="Group_10786" data-name="Group 10786">
      <g id="Group_10785" data-name="Group 10785">
        <path id="Path_22803" data-name="Path 22803" d="M6820.916,2142.538c2.541-1.038,6.533-2.239,7.815-3.983,2.782-3.785,6.218-8.83,8.482-9.075l8.67-.933,6.534,7.97a5.882,5.882,0,0,1-3.9.936c-2.17-.255-6.51-3.371-6.96-2.814l-4.127,5.1,5.936-2.626c2.46-.406,3.692.548,3.9,1.449.186.8-.6,1.846-2.155,2.578a19.621,19.621,0,0,0-6.234,4.169c-2.135,1.958-4.657,2.22-8.972,2.752-.417.051-7.147,3.2-7.6,3.258Z" fill="#e8a476" fill-rule="evenodd"/>
        <path id="Path_22804" data-name="Path 22804" d="M6844.579,2132.053c-.393-.919-1.866-1.173-3.29-.566s-2.259,1.847-1.866,2.766l1,4.174c2.472-1.109,3.049-1.559,5.109-1.306C6845.447,2136.453,6844.764,2132.485,6844.579,2132.053Z" fill="#dfebf0" fill-rule="evenodd"/>
      </g>
      <path id="Path_22805" data-name="Path 22805" d="M6792.857,2148.493l32.572-8.255c3.659-.005,4.866,7.873,2.361,9.22l-31.907,14.3c-4.1.639-7.1-.132-8.479-1.8-1.645-1.992-1.179-5.2-.032-7.915C6788.423,2151.554,6790,2150,6792.857,2148.493Z" fill="#d2eefc" fill-rule="evenodd"/>
      <path id="Path_22806" data-name="Path 22806" d="M6828.877,2144.141c.509,2.192.2,4.622-1.087,5.317l-31.907,14.3c-4.1.639-6.88-.336-8.479-1.8Z" fill="#b2d9ed" fill-rule="evenodd"/>
    </g>
    <path id="Path_22807" data-name="Path 22807" d="M6794.6,2108.886c10.826,6.667,1.244,43.185,7.724,52.824-4.927,1.49-13.839,2.457-15.635-.049a6.193,6.193,0,0,1-1.466-3.981c-.754-10.977-2.534-21.892-2.316-29.6C6783.149,2119.448,6785.536,2110.334,6794.6,2108.886Z" fill="#1abac6" fill-rule="evenodd"/>
    <path id="Path_22808" data-name="Path 22808" d="M6794.6,2108.886c10.826,6.667,1.244,43.185,7.724,52.824a57.445,57.445,0,0,1-10.22,1.467,6.837,6.837,0,0,1-2.023-.125c-1.935-10.519-7.677-27.751-7.024-37.47C6783.517,2118.662,6786.3,2110.43,6794.6,2108.886Z" fill="#1abac6" fill-rule="evenodd"/>
    <path id="Path_22809" data-name="Path 22809" d="M6793.024,2109.292a12.844,12.844,0,0,0-8.123,9.778c-2.864,13.275,6.3,31.531,7.121,46.216.443,7.9-3.622,21.083-3.13,34.6.528,14.524,27.625,28.708,40.913,20.159,1.332-.856,5.217-19.969,5.2-20.025-2.314-7.19-6.535-16.715-6.384-23.651.391-17.811,8.659-32.586,6.812-41.551a16.428,16.428,0,0,0-6-9.226C6822.315,2119.87,6801.126,2105.937,6793.024,2109.292Z" fill="#06929c" fill-rule="evenodd"/>
    <g id="Group_10789" data-name="Group 10789">
      <g id="Group_10787" data-name="Group 10787">
        <path id="Path_22810" data-name="Path 22810" d="M6799.342,2118c-.868,5.7,14.044,8.967,18.887,3.727.424-6.673-.241-11.277,2.335-17.815l-15.122-4.416-3.947-1.462C6803.379,2106.351,6802.32,2110.51,6799.342,2118Z" fill="#e8a476" fill-rule="evenodd"/>
        <path id="Path_22811" data-name="Path 22811" d="M6827.872,2107.744c-.443.771-6.245.585-8.472-.253-2.557,3.981-14.6,4.627-17.684,3.835.17-1.453.725-3.2.717-4.067-.017-1.927-.972-2.15-1.333-2.639-1.972-2.672-5.809-5.516-7.428-9.681C6795.593,2089.008,6812.893,2096.816,6827.872,2107.744Z" fill="#db9669" fill-rule="evenodd"/>
      </g>
      <path id="Path_22812" data-name="Path 22812" d="M6827.793,2107.813c-1.211.869-9.3-2.86-10.018-2.794-6.879.642-15.218,1.574-16.675-.4-1.972-2.672-5.809-5.516-7.428-9.681-2.588-6.656-2.473-14.3,3.474-19.872,10.34-9.694,27.488-3.669,30.357,6.674,1.176,4.243-.294,5.392.034,8.254a19.81,19.81,0,0,0,1.611,3.534c.391.662-.3,3.648-.356,7.367C6828.745,2104.093,6828.6,2107.237,6827.793,2107.813Z" fill="#e8a476" fill-rule="evenodd"/>
      <path id="Path_22813" data-name="Path 22813" d="M6827.793,2107.813a3.126,3.126,0,0,1-2.037-.094,8.673,8.673,0,0,1-2.332-4.333c-.225-4.456,1.722-8.244,1.563-10.044-.336-3.8-1.445-1.8-.331-6.032.561-2.133-.1-2.926-.519-4.129-.758-2.169.358-6.7.359-6.7a9.554,9.554,0,0,1,1.611,2.087,12.451,12.451,0,0,1,1.4,3.174c1.176,4.243-.294,5.392.034,8.254a19.81,19.81,0,0,0,1.611,3.534c.391.662-.3,3.648-.356,7.367C6828.745,2104.093,6828.6,2107.237,6827.793,2107.813Z" fill="#f1b287" fill-rule="evenodd"/>
      <path id="Path_22814" data-name="Path 22814" d="M6793.672,2094.939c-2.587-6.656-2.472-14.3,3.474-19.872a20.337,20.337,0,0,1,12.658-5.2c3.359-.217,10.467,1.095,13.047,3.7.107.095-2.305,3.241-1.251,5.036,1.632,2.779,1,6.749.793,7.49-1.61,5.884-.727,9.1-2.695,12.248-1.665,2.9-2.552,4.851-4.04,5.91-2.543,1.809-10.468,3.888-13.194,2.628C6800.06,2105.762,6794.438,2096.912,6793.672,2094.939Z" fill="#361d07" fill-rule="evenodd"/>
      <g id="Group_10788" data-name="Group 10788">
        <path id="Path_22815" data-name="Path 22815" d="M6819.449,2099.163c.483-1.777-.1-2.362-.839-2.113a4.926,4.926,0,0,0-2.373,3.408c-.757,2.966.967,6.493,3.636,4.841C6820.568,2104.265,6819.42,2101.879,6819.449,2099.163Z" fill="#e8a476" fill-rule="evenodd"/>
        <path id="Path_22816" data-name="Path 22816" d="M6819.449,2099.163c.483-1.777-.1-2.362-.839-2.113a4.926,4.926,0,0,0-2.373,3.408c-.757,2.966.967,6.493,3.636,4.841-2.384.335-2.4-2.571-1.826-4.412C6818.435,2099.638,6819.12,2098.718,6819.449,2099.163Z" fill="#f1b287" fill-rule="evenodd"/>
        <path id="Path_22817" data-name="Path 22817" d="M6818.412,2100.035c.773,1.192,1.066,1.915.885,2.362-.126.31-.56.687-1.375.018A4.324,4.324,0,0,1,6818.412,2100.035Z" fill="#db9669" fill-rule="evenodd"/>
      </g>
      <path id="Path_22818" data-name="Path 22818" d="M6822.385,2073.282c-8.581-4-20.8-2.511-23,1.889,5.491,4.76,3.882,17.606,11.423,23.055C6824.491,2108.107,6833.9,2075.443,6822.385,2073.282Z" fill="#361d07" fill-rule="evenodd"/>
      <path id="Path_22819" data-name="Path 22819" d="M6822.385,2073.282c8.5,4.206,2.259,21.037-3.439,23.918-4.466,2.258-7.431.214-9.7-3.392-3.984-6.337-5.816-17.5-9.859-18.637,4.6,3.988,4.841,13.888,9.034,20.121,2.4,3.565,5.925,6.157,10.407,4.154C6827.557,2095.547,6831.445,2074.981,6822.385,2073.282Z" fill="#4a2b12" fill-rule="evenodd"/>
      <path id="Path_22820" data-name="Path 22820" d="M6824.172,2074.64c1.964,5.793.925,17.719-8.042,18.705-10.638,1.17-10.012-16.817-16.2-18.218,3.343,2.023,3.924,6,5.016,9.1,1.856,5.265,5.551,14.075,14.082,9.943C6826.531,2090.533,6826.612,2080.517,6824.172,2074.64Z" fill="#4a2b12" fill-rule="evenodd"/>
      <path id="Path_22821" data-name="Path 22821" d="M6823.455,2074.027c1.392,5.478-.4,16.171-8.992,15.925-8.278-.237-7.692-13.019-13.412-14.11,5.852,2.883,4.086,15.273,13.268,15.543C6823.643,2091.661,6825.943,2079.35,6823.455,2074.027Z" fill="#4a2b12" fill-rule="evenodd"/>
      <path id="Path_22822" data-name="Path 22822" d="M6806.1,2091.857c.453-7.227-2.065-14.806-5.792-17.087-2.644-1.618-5.421-.924-7.337-.192-4.8,1.838-5.91,9.759-2.666,16.974,2.515,5.6,8.478,13.082,12.089,12.874C6804.941,2104.278,6805.643,2099.162,6806.1,2091.857Z" fill="#361d07" fill-rule="evenodd"/>
      <path id="Path_22823" data-name="Path 22823" d="M6806.1,2091.857a27.856,27.856,0,0,0-.042-4c-6.669,4.083-14.066,1.888-17.593-3.988a20.6,20.6,0,0,0,1.84,7.686c2.515,5.6,8.462,14.859,12.074,14.65C6804.926,2106.054,6805.643,2099.162,6806.1,2091.857Z" fill="#241304" fill-rule="evenodd"/>
      <path id="Path_22824" data-name="Path 22824" d="M6822.925,2073.539c.875,4.193.19,7.545-1.193,9.88-4.836,8.165-11.232,3.685-15.143-2.706-1.435-2.346-3.173-4.62-6.288-5.678a13.423,13.423,0,0,1,6.922,5.014c3.689,4.578,8.629,10.09,13.69,2.792A13.225,13.225,0,0,0,6822.925,2073.539Z" fill="#4a2b12" fill-rule="evenodd"/>
    </g>
    <path id="Path_22825" data-name="Path 22825" d="M6826.235,2221.622c5.008-1.258,6.338-4.6,7.777-9.3,1.885-6.167,2.312-13.986-.136-19.3-.215-.465-.494-1.15-.809-2-1.514-4.071-3.85-11.924-3.727-17.532.39-17.811,7.894-29.708,6.047-38.674a16.433,16.433,0,0,0-6-9.226,90.085,90.085,0,0,0-13.963-8.594l.151,1.89a41.135,41.135,0,0,1,9.979,8.321c-11.54,10.951-5.109,38.048-3.488,50.461C6822.6,2181.736,6825.238,2203.287,6826.235,2221.622Z" fill="#06929c" fill-rule="evenodd"/>
    <path id="Path_22826" data-name="Path 22826" d="M6794.415,2111.248c-.711,10.942,7.736,18.681,27.51,15.644-7.547,12.429-4.891,32.04-2.537,50.166,1.6,12.341,5.255,24.847,5.145,35.871-13.655,9.2-29.568-2.976-32.726-11.238-1.039-9.959,1.39-21.067,2.431-29.351.794-6.322.11-9.312-1.48-15.129C6786.854,2135.62,6779.194,2116.038,6794.415,2111.248Z" fill="#1abac6" fill-rule="evenodd"/>
    <path id="Path_22827" data-name="Path 22827" d="M6801.458,2109.721c-.885-.126-1.641-.458-2.578-.668-2.113.748-2.481,5.883-1.686,7.718,1.7,3.918,6.431,7.02,13.246,8.261,7.757,1.413,17.128-.22,19.458.937.409.2-6.717-5.359-7.557-5.518C6814.653,2119,6800.088,2115.922,6801.458,2109.721Z" fill="#1abac6" fill-rule="evenodd"/>
    <path id="Path_22828" data-name="Path 22828" d="M6801.828,2109.572c-.2,4,10.533,6.888,16.763,4.595,1.655.843,3.267,4.549,3.3,6.3-7.486,1.785-18.939.881-21.8-4.974C6799.465,2114.21,6800.4,2111.167,6801.828,2109.572Z" fill="#1abac6" fill-rule="evenodd"/>
    <g id="Group_10791" data-name="Group 10791">
      <g id="Group_10790" data-name="Group 10790">
        <path id="Path_22829" data-name="Path 22829" d="M6862.955,2160.872c2.842-3.06,13.219-6.2,13.89-9.223l2.423-10.912c-1.528,1.351-4.047,3.459-5.685,4.672l-5.775,4.276,2.953-4.717c.776-2.37.021-3.733-.838-4.077-.761-.305-1.788.335-2.876,1.737-2.659,3.428-1.728,2.325-5.052,4.987-2.48,1.988-3.553,4.729-4.988,9.7Z" fill="#f1b287" fill-rule="evenodd"/>
        <path id="Path_22830" data-name="Path 22830" d="M6862.955,2160.872c2.842-3.06,13.219-6.2,13.89-9.223l2.423-10.912c-1.528,1.351-2.721,5.318-4.422,6.441l-6.445,4.252-.593-1.745,2.953-4.717a4.48,4.48,0,0,0,.111-3.04c-2.431,5.338-3.746,7.183-6.206,9.152-2.48,1.987-6.224,1.264-7.659,6.231Z" fill="#e8a476" fill-rule="evenodd"/>
      </g>
      <path id="Path_22831" data-name="Path 22831" d="M6837.112,2135.919c2.119,9.491,1.086,25.306,1.225,36.21.056,4.343-2.261,9.659-6.577,11.309-5.2,1.987-7.893-1.882-8.4-6.527-.85-7.7-1.891-17.8-2.2-24.052-.217-4.3-.562-10.9.637-16.285,1.32-5.927,4.544-8.886,7.716-8.758C6832.489,2127.937,6835.843,2130.237,6837.112,2135.919Z" fill="#1abac6" fill-rule="evenodd"/>
      <path id="Path_22832" data-name="Path 22832" d="M6828.7,2168.274l26.779-14.833c6.008-1.921,9.106,6.639,6.481,9.73l-27.174,19.43c-3.884,1.464-6.975,1.322-8.669-.033-2.018-1.614-2.217-4.848-1.65-7.741C6824.985,2172.178,6826.217,2170.335,6828.7,2168.274Z" fill="#1abac6" fill-rule="evenodd"/>
      <path id="Path_22833" data-name="Path 22833" d="M6835.982,2169.677a14.254,14.254,0,0,0,2.234-6.674l17.262-9.562a4.881,4.881,0,0,1,4.707.792Z" fill="#1abac6" fill-rule="evenodd"/>
      <path id="Path_22834" data-name="Path 22834" d="M6862.236,2157.017c.927,2.177.925,4.738-.277,6.154l-27.174,19.43c-3.938,1.976-6.839,1.808-8.534.453,3.2-.789,9.64-6.81,13.824-9.841Z" fill="#06929c" fill-rule="evenodd"/>
      <path id="Path_22835" data-name="Path 22835" d="M6837.112,2135.919c1.594,7.139,1.405,17.317,1.272,26.832a12.5,12.5,0,0,1-3.931,5.926c-.406-14.908-3.034-34.853-4.949-40.861C6832.489,2127.937,6835.843,2130.237,6837.112,2135.919Z" fill="#06929c" fill-rule="evenodd"/>
      <path id="Path_22836" data-name="Path 22836" d="M6823.355,2176.911c-.85-7.7-1.891-17.8-2.2-24.052-.217-4.3-.562-10.9.637-16.285.99-4.444,3.049-7.219,5.355-8.275a261.858,261.858,0,0,1,2.938,36.233c.155,7.722.306,12.843-.915,15.122C6827.88,2182.055,6825.113,2181.931,6823.355,2176.911Z" fill="#1abac6" fill-rule="evenodd"/>
    </g>
    <g id="Group_10795" data-name="Group 10795">
      <g id="Group_10792" data-name="Group 10792">
        <path id="Path_22837" data-name="Path 22837" d="M6807.463,2202.551l3.192-.01c0,.067-.006,24.452-.021,24.512-.254,1.163-2.843,1.177-3.143.041C6807.473,2227.024,6807.463,2202.63,6807.463,2202.551Z" fill="#dceaf0" fill-rule="evenodd"/>
        <path id="Path_22838" data-name="Path 22838" d="M6809.277,2202.545l1.378,0c0,.067-.006,24.452-.021,24.512-.116.532-.722.824-1.372.875C6809.271,2223.675,6809.277,2204.464,6809.277,2202.545Z" fill="#cfe0e8" fill-rule="evenodd"/>
        <path id="Path_22839" data-name="Path 22839" d="M6807.865,2202.7l.9,0c0,.021,0,24.872,0,24.89a1.158,1.158,0,0,1-.954-.549C6807.8,2227.014,6807.865,2202.721,6807.865,2202.7Z" fill="#f5fcff" fill-rule="evenodd"/>
      </g>
      <g id="Group_10793" data-name="Group 10793">
        <path id="Path_22840" data-name="Path 22840" d="M6780.9,2187.919l3.193-.009c0,.067-.007,24.45-.02,24.511-.255,1.163-2.844,1.178-3.144.041C6780.907,2212.392,6780.9,2188,6780.9,2187.919Z" fill="#dceaf0" fill-rule="evenodd"/>
        <path id="Path_22841" data-name="Path 22841" d="M6782.711,2187.914l1.378,0c0,.067-.007,24.45-.02,24.511-.117.533-.723.824-1.374.875C6782.705,2209.043,6782.711,2189.833,6782.711,2187.914Z" fill="#cfe0e8" fill-rule="evenodd"/>
        <path id="Path_22842" data-name="Path 22842" d="M6781.3,2188.066l.9,0c0,.021,0,24.872-.005,24.89a1.154,1.154,0,0,1-.954-.548C6781.237,2212.382,6781.3,2188.09,6781.3,2188.066Z" fill="#f5fcff" fill-rule="evenodd"/>
      </g>
      <g id="Group_10794" data-name="Group 10794">
        <path id="Path_22843" data-name="Path 22843" d="M6779.26,2177.133c2.129-7.055,5.973-10.486,12.05-13.422h0l-.742,10.842c-4.882,2.6-7.066,10.365-4.114,14.858,2.011,3.059,8.1,5.241,12.41,6.637,1.554.5,19.872,4.35,35.7-.4.519,1.313.577,8.392.606,10.327-19.306,8.262-50.476,3.288-55.285-14.953C6779.48,2189.455,6779.26,2178.9,6779.26,2177.133Z" fill="#248ca6" fill-rule="evenodd"/>
        <path id="Path_22844" data-name="Path 22844" d="M6779.26,2177.133c2.129-7.055,6.234-11.909,12.042-13.43l.012.009c-4.265,8.72-11.494,15.6-4.856,25.7Z" fill="#17667a" fill-rule="evenodd"/>
        <path id="Path_22845" data-name="Path 22845" d="M6780.663,2177.129c.87,7.066,3.579,12.771,15.8,17.657,9.259,3.7,26.085,2.905,38.932.585v10.5c-17.075,7.43-43.63,4.41-52.846-9.088,9.1,8.578,22.218,12.31,36.49,11.257a45.028,45.028,0,0,0,11.975-2.761c1.94-.726,2.26-6.138-.268-5.521-13.665,3.34-44.911,1.547-50.813-16.735a9.418,9.418,0,0,1-.364-4.7C6779.917,2177.271,6780.712,2177.7,6780.663,2177.129Z" fill="#17667a" fill-rule="evenodd"/>
        <path id="Path_22846" data-name="Path 22846" d="M6789.744,2162.929c-13.989,8.306-14.063,21.789-.166,30.095,12.446,7.445,31.873,8.225,45.835,2.35l-1.694-1.908c-12.886,5.561-30.99,4.888-42.554-2.029-12.8-7.654-12.741-20.072.149-27.725l-1.363-.9C6789.882,2162.849,6789.812,2162.888,6789.744,2162.929Z" fill="#248ca6" fill-rule="evenodd"/>
        <path id="Path_22847" data-name="Path 22847" d="M6790.048,2164.415c-13.214,7.85-13.284,20.59-.156,28.441,12.18,7.288,31.438,7.816,44.7,1.595l-.874-.985c-12.886,5.561-30.99,4.888-42.554-2.029-12.383-7.4-12.726-19.263-1.077-26.959C6790.075,2164.457,6790.062,2164.437,6790.048,2164.415Z" fill="#1b9ebf" fill-rule="evenodd"/>
        <path id="Path_22848" data-name="Path 22848" d="M6827.391,2205.313c-7.011,2.156-18.032,2.1-25.285.206-8.654-2.265-18.609-6.562-21.551-14.954l-.3-4.549c5.206,11.944,25.976,19.832,46.719,16.008C6829.529,2201.551,6829.225,2204.749,6827.391,2205.313Z" fill="#1b9ebf" fill-rule="evenodd"/>
      </g>
    </g>
    <path id="Path_22849" data-name="Path 22849" d="M6892.322,2176.206l-9.875-5.7v-1.44l26.5-3.971v1.44Z" fill="#b6ccd6" fill-rule="evenodd"/>
    <path id="Path_22850" data-name="Path 22850" d="M6892.322,2174.766l-9.875-5.7,16.685-9.278,9.819,5.307Z" fill="#001624" fill-rule="evenodd"/>
    <path id="Path_22851" data-name="Path 22851" d="M6892.425,2173.529l-8.349-4.82,14.4-8.022,8.3,4.487Z" fill="#c3e6f7" fill-rule="evenodd"/>
    <g id="Group_10802" data-name="Group 10802">
      <rect id="Rectangle_135" data-name="Rectangle 135" width="18.051" height="19.982" rx="3.736" transform="translate(6894.953 2136.364)" fill="#ed1c24"/>
      <g id="Group_10801" data-name="Group 10801">
        <g id="Group_10800" data-name="Group 10800">
          <path id="Path_22852" data-name="Path 22852" d="M6907.42,2145.023a3.44,3.44,0,0,0-2.909-3.4v-.2a.549.549,0,0,0-.48-.553.533.533,0,0,0-.585.53v.227a3.44,3.44,0,0,0-2.909,3.4c0,5.919-1.646,3.529-1.646,5.293a.285.285,0,0,0,.285.284h9.6a.285.285,0,0,0,.285-.284v-.082C6909.066,2148.712,6907.42,2150.791,6907.42,2145.023Zm-3.442,7.783a1.786,1.786,0,0,0,1.782-1.673H6902.2A1.786,1.786,0,0,0,6903.978,2152.806Z" fill="#fff"/>
          <g id="Group_10796" data-name="Group 10796">
            <path id="Path_22853" data-name="Path 22853" d="M6908.423,2144.982h-.228a.165.165,0,0,1-.164-.16,3.767,3.767,0,0,0-2.149-3.242.166.166,0,0,1-.084-.213l.089-.21a.164.164,0,0,1,.219-.087,4.332,4.332,0,0,1,2.145,2.231,4.272,4.272,0,0,1,.337,1.513A.164.164,0,0,1,6908.423,2144.982Z" fill="#fff"/>
          </g>
          <g id="Group_10797" data-name="Group 10797">
            <path id="Path_22854" data-name="Path 22854" d="M6899.762,2144.982h-.228a.164.164,0,0,1-.165-.168,4.326,4.326,0,0,1,2.482-3.744.163.163,0,0,1,.218.087l.089.21a.165.165,0,0,1-.083.213,3.759,3.759,0,0,0-2.149,3.242A.164.164,0,0,1,6899.762,2144.982Z" fill="#fff"/>
          </g>
          <g id="Group_10798" data-name="Group 10798">
            <path id="Path_22855" data-name="Path 22855" d="M6909.673,2144.982h-.389a.165.165,0,0,1-.164-.161,4.854,4.854,0,0,0-2.813-4.244.166.166,0,0,1-.085-.214l.152-.358a.164.164,0,0,1,.219-.087,5.563,5.563,0,0,1,3.245,4.9A.164.164,0,0,1,6909.673,2144.982Z" fill="#fff"/>
          </g>
          <g id="Group_10799" data-name="Group 10799">
            <path id="Path_22856" data-name="Path 22856" d="M6898.673,2144.982h-.389a.166.166,0,0,1-.166-.168,5.577,5.577,0,0,1,3.246-4.9.164.164,0,0,1,.219.087l.151.358a.165.165,0,0,1-.084.214,4.849,4.849,0,0,0-2.814,4.244A.164.164,0,0,1,6898.673,2144.982Z" fill="#fff"/>
          </g>
        </g>
      </g>
      <path id="Path_22857" data-name="Path 22857" d="M6903.979,2165.089l2.705-10.2h-5.411Z" fill="#ed1c24"/>
    </g>
  </g>
</svg>
