<svg xmlns="http://www.w3.org/2000/svg" width="123.226" height="313.57" viewBox="0 0 123.226 313.57">
  <g id="Group_7419" data-name="Group 7419" transform="translate(-2392.113 -1966.394)">
    <g id="Group_7416" data-name="Group 7416">
      <path id="Path_15250" data-name="Path 15250" d="M2396.5,2258.254l46.375-26.413c5.056-2.309,12.292-4.148,17.442-1.467,4.693,2.442,12.425,7.441,15.843,9.39,2.6,1.481,11.61,6.881,6,9.934-16.514,8.98-32.858,19.08-49.628,28.2-3.171,1.726-7.811,2.349-12.682,1.945a33.6,33.6,0,0,1-13.735-4.091q-4.181-2.431-8.224-4.787c-3.637-2.118-5.566-4.622-5.757-6.938C2391.942,2261.767,2393.4,2259.671,2396.5,2258.254Z" fill="#231f20" fill-rule="evenodd" opacity="0.1" style="mix-blend-mode: multiply;isolation: isolate"/>
      <g id="Group_7401" data-name="Group 7401">
        <g id="Group_7400" data-name="Group 7400">
          <path id="Path_15251" data-name="Path 15251" d="M2455.348,2227.8c.942,3.308,1.179,5.015,2.553,6.94,2.739,3.839,6.779,6.581,12.66,10.75,2.8,1.984,3.39,3.864.557,5.593-2.232,1.362-7.691.28-11.1-.522-6.4-1.5-8.985-5.356-11.173-6.357l-1.656.376c-1.357.024-6.688-2.129-7.728-3.522a37.961,37.961,0,0,1-.834-4.958c-.2-5.415.651-4.864,2.1-9.1C2445.648,2227.359,2450.417,2227.635,2455.348,2227.8Z" fill="#111214" fill-rule="evenodd"/>
          <path id="Path_15252" data-name="Path 15252" d="M2472.972,2248.606c.028.856-.55,1.683-1.854,2.479-2.232,1.362-7.691.28-11.1-.522-6.4-1.5-8.985-5.356-11.173-6.357l-1.656.376c-1.357.024-6.688-2.129-7.728-3.522a37.961,37.961,0,0,1-.834-4.958c-.2-5.415.651-4.864,2.1-9.1,2.179.158,4.327.3,6.473.424.388,3.565-.132,9.714,2.8,12,3.281,2.558,5.841,3.24,8.033,4.572C2465.016,2248.247,2469.63,2251.7,2472.972,2248.606Z" fill-rule="evenodd"/>
          <path id="Path_15253" data-name="Path 15253" d="M2456.9,2233.882c-.7,1.03-2.069,1.611-4.338,2.176,3.659,4.125,4.175,3.74,9.09,6.5,2.475,2.829,2.82,3.366,4.4,4.279,1.886,1.09,4.55,2.21,5.671,1.405.481-.346-.166-1.315-2.245-2.821-2.357-1.708-4.756-3.439-6.927-5.244A25.616,25.616,0,0,1,2456.9,2233.882Z" fill="#20232e" fill-rule="evenodd"/>
        </g>
        <path id="Path_15254" data-name="Path 15254" d="M2437.03,2137.33a78.884,78.884,0,0,1-.7-12.637c3.987-1.594,8.178-3.1,12.22-4.871l-.289-.243c4.285-2.011,7.977-5.135,12.918-7.969,2.067,6.508,2.833,9.423,2.676,14.718a162.783,162.783,0,0,1-2.314,20.934c-.722,10.724-1.686,21.914-2.381,29.237-1.773,18.682-1.556,37.112-2.674,55.762-2.315,3.8-13.483,4.032-17.3-1.309-.571-14.754-1.494-26.4-1.077-34.475.348-6.72.667-10.592,2.841-16.564C2439.5,2169.973,2437.557,2151.678,2437.03,2137.33Z" fill="#001624" fill-rule="evenodd"/>
        <path id="Path_15255" data-name="Path 15255" d="M2418.4,2247.408c-.818,2.39-1.565,4.242-1.488,5.744.078,1.557.5,3.07.484,5.038-.018,1.689-.1,3.124-.3,5.034-.2,1.954,0,2.879.861,3.659,1.393,1.269,5.544,3.232,7.512,3.9a7.91,7.91,0,0,0,3.443.464,15.363,15.363,0,0,0,4.616-.842c.424-.16.859-1.807.89-3.237.065-2.991-.206-2.739-1.445-7.481-.423-1.62-.765-3.165-1.346-5.058-.725-2.356-1.627-4.43-1.719-6.75l-8.763-.341Z" fill="#111214" fill-rule="evenodd"/>
        <path id="Path_15256" data-name="Path 15256" d="M2418.4,2247.408c-.818,2.39-1.565,4.242-1.488,5.744.078,1.557.5,3.07.484,5.038-.018,1.689-.1,3.124-.3,5.034-.2,1.954,0,2.879.861,3.659,1.393,1.269,5.544,3.232,7.512,3.9a7.91,7.91,0,0,0,3.443.464,15.363,15.363,0,0,0,4.616-.842c.384-.144.777-1.509.871-2.826l-.023,0c-2.678.912-5.277,1.277-7.85.021-5.431-2.653-4.725-4.856-4.213-11.117,3.532-.622,4.921-1.252,6.714-3.187-3.012.886-6.25,1.044-7.852-.8l-.5-4.982Z" fill-rule="evenodd"/>
        <path id="Path_15257" data-name="Path 15257" d="M2450.046,2179.856c-3.663,17.308-4.59,29.521-2.251,55.143-3.371-.249-6.806-1.528-8.6-4.047-.571-14.754-1.495-26.4-1.077-34.475.348-6.72.667-10.592,2.841-16.564-1.863-12.78-4.551-39.373-3.983-53.628l7.649-3.06C2446.94,2144.317,2448.4,2155.193,2450.046,2179.856Z" fill="#00101a" fill-rule="evenodd"/>
        <path id="Path_15258" data-name="Path 15258" d="M2442.127,2144.926c-1.413,14.374-4.179,34.353-5.785,44.554-2.918,18.538-3.375,40.273-5.014,58.885-2.533,3.961-12.074,4.778-15.729-.151-.158-14.764-1.5-31.293-.855-39.351a50.912,50.912,0,0,1,3.991-16.687c-.368-11.505-6.371-58.774,1.559-68.049a6.96,6.96,0,0,1,1.493-2.1l11.553-.9,13.7-1.595a39.728,39.728,0,0,1-.1,16.275,2.592,2.592,0,0,1-.309.671c-.13.969-.3,1.947-.524,2.926C2445.91,2140.3,2443.716,2142.809,2442.127,2144.926Z" fill="#001e30" fill-rule="evenodd"/>
        <path id="Path_15259" data-name="Path 15259" d="M2429.585,2135.434c-1.574,3.642-2.789,9.752-2.862,15.86-.2,8.75-.848,29.435-1.679,39.282-1.628,19.3-5.306,35.39-2.393,61.022a9.388,9.388,0,0,1-7.051-3.384c-.159-14.764-1.5-31.293-.856-39.351a50.906,50.906,0,0,1,3.991-16.687c-.375-11.734-6.614-60.667,2.045-68.56l13.2-.9C2432.278,2127.614,2431.742,2130.437,2429.585,2135.434Z" fill="#001624" fill-rule="evenodd"/>
        <path id="Path_15260" data-name="Path 15260" d="M2430.366,2253.777c-2.535,2-1.647,2.874-5.348,3.356a20.761,20.761,0,0,0,2.884,7.214c.149,1.4.262,3.225,2.977,3.242,5.071.033,1.553-4.153,1.536-4.311A41.936,41.936,0,0,0,2430.366,2253.777Z" fill="#20232e" fill-rule="evenodd"/>
        <path id="Path_15261" data-name="Path 15261" d="M2460.686,2115.747a35.818,35.818,0,0,1-9.55,6.707c-.014,6.543-.01,18.662.235,30.775.026,7.163.142,14.46.452,20.532q.016.442.028.886c-.609,5.042-2.972,7.887-3.269,15.462-.33,8.443.765,22.588,2.262,31.826-.05,4.054-.076,8.095-.042,12.125a7.937,7.937,0,0,0,5.368-2.22l.3-45.879c.289-7.311,1.415-18.255,2.318-29.513C2460.706,2143,2462.565,2127.4,2460.686,2115.747Z" fill="#001e30" fill-rule="evenodd"/>
        <path id="Path_15262" data-name="Path 15262" d="M2434.452,2125.443l-.033.01a225.806,225.806,0,0,1-6.186,21.789c-1.684,14.595-1.256,30.52-1.458,41.773-1.519,20.586-3.24,41.214-4.267,61.827,1.873-.163,6.029-1,7.024-1.9,1.124-16.785.925-40.455,3.016-56.23.427-3.22,3.536-30.577,7.284-46.079,1.256-5.193,4.848-5.1,5.575-8.083,1.578-6.479,1.611-10.116.962-17.152C2442.43,2122.874,2438.5,2124.288,2434.452,2125.443Z" fill="#00263d" fill-rule="evenodd"/>
      </g>
      <g id="Group_7402" data-name="Group 7402">
        <path id="Path_15263" data-name="Path 15263" d="M2480.872,2093.223l.684-2.185.653-4.522c2.2-1.324,3.853-1.766,4.786-1.387a2.366,2.366,0,0,1,.236.081C2490.216,2086.86,2483.739,2096.038,2480.872,2093.223Z" fill="#8f9ba6" fill-rule="evenodd"/>
        <path id="Path_15264" data-name="Path 15264" d="M2499.037,2087.651c1.441,2.571-2.759,3.283-3.978,3.205-1.681.412-2.457.108-3.3,1.321-.94,1.361-4.173-5.788-4.066-5.867.73-.219,4.286.808,5.048,1.107,1.42.554,1.481.79,3.162.693C2496.78,2088.059,2497.634,2087.846,2499.037,2087.651Z" fill="#f1b287" fill-rule="evenodd"/>
        <path id="Path_15265" data-name="Path 15265" d="M2499.29,2088.276c.485,2.062-3.117,2.651-4.231,2.58-1.681.412-2.457.108-3.3,1.321-.577.836-3.546-2.732.533-2.968C2494.1,2089.23,2496.715,2090.108,2499.29,2088.276Z" fill="#e8a476" fill-rule="evenodd"/>
        <path id="Path_15266" data-name="Path 15266" d="M2475.493,2089.764c1.971.811,3.337,1.258,4.405,1.774,2.819,1.365,1.572,4.615,6.838,7.083l6.03,2.826c.788.37,6.85-.983,8.544-1.973,1.2-.7,6.233-4.375,5.655-4.689-.432-.235-3.08-.018-5.532-.184l-5.464-1.382c-5.178-1.815-4.229-4.795-6.064-5.988-2.389-1.554-4.863-1.205-8.7-4.752l-4.585,1.633.126,5.15Z" fill="#f1b287" fill-rule="evenodd"/>
        <path id="Path_15267" data-name="Path 15267" d="M2475.493,2089.764c1.971.811,3.337,1.258,4.405,1.774,2.819,1.365,1.572,4.615,6.838,7.083l6.03,2.826c.788.37,6.85-.983,8.544-1.973.208-.122.531-.332.919-.6-1.761-1.332-6.468,1.025-8.333.657a7.851,7.851,0,0,1-4.369-2.13c-2.1-1.994-2.426-3.442-3.739-5.015a36.495,36.495,0,0,0-4.925-4.067l1.133-5.388c-.255-.143-.517-.294-.788-.453l-4.585,1.633.126,5.15Z" fill="#e8a476" fill-rule="evenodd"/>
        <path id="Path_15268" data-name="Path 15268" d="M2454.808,2079.7c9.878,6.311,15.919,8.114,26.247,13.669.312-5,4.455-8.4,6.518-7.974-8.309-5.711-18.079-13.369-27.5-17.273Z" fill="#d2eefc" fill-rule="evenodd"/>
        <path id="Path_15269" data-name="Path 15269" d="M2454.808,2079.7c9.878,6.311,15.919,8.114,26.247,13.669a9.747,9.747,0,0,1,1.946-5.238c-4.841-2.372-11.172-6.557-17.78-10.865-1.108-.9.352-4.612.485-6.438Z" fill="#c3e6f7" fill-rule="evenodd"/>
      </g>
      <g id="Group_7404" data-name="Group 7404">
        <path id="Path_15270" data-name="Path 15270" d="M2430.18,2044.152c-.409,4.8,12.728,11.079,17.733,8.624.527-.259.8-1.368,1.129-1.815-.3-1.229.111-1.753.221-3a15.344,15.344,0,0,1,.732-4.007c.6-1.623.277-4.99,1.311-8.79l-14.979-6.53-3.208-1.7C2434.656,2034.407,2432.961,2037.885,2430.18,2044.152Z" fill="#e8a476" fill-rule="evenodd"/>
        <path id="Path_15271" data-name="Path 15271" d="M2430.18,2044.152a2.176,2.176,0,0,0,.066.806c7.1-4.47,11.521-.725,19.849-2.95a54.715,54.715,0,0,1,1.211-6.848l-14.979-6.53-3.208-1.7C2434.656,2034.407,2432.961,2037.885,2430.18,2044.152Z" fill="#db9669" fill-rule="evenodd"/>
        <g id="Group_7403" data-name="Group 7403">
          <path id="Path_15272" data-name="Path 15272" d="M2462.606,2111.267a2.1,2.1,0,0,1-.377.912c-4.237,5.9-30.819,14.8-36.381,14.342,4.415-38.384-35.784-71.06,7.286-83.713l12.392,6.821,4.434-.795.568-5.458c6,5.964,8.769,13.864,9.837,24.851C2461.761,2082.6,2458.744,2095.5,2462.606,2111.267Z" fill="#12a8b3" fill-rule="evenodd"/>
          <path id="Path_15273" data-name="Path 15273" d="M2443.035,2122.281c-7.369,2.62-14.582,4.456-17.187,4.24,4.415-38.384-35.784-71.06,7.286-83.713l12.392,6.821,4.434-.795.568-5.458a28.981,28.981,0,0,1,6.172,9.095l-.355.39c-3.234-1.024-4.933-2.335-6.6-1.6-1.374.608-2.947,2.771-3.432,6.2-1.954-.489-5.68-1.891-7.616-2.444,7.178,10.705,13.873,33.711,8.849,57.736C2446.922,2115.744,2444.382,2119.2,2443.035,2122.281Z" fill="#06929c" fill-rule="evenodd"/>
          <path id="Path_15274" data-name="Path 15274" d="M2445.923,2050.882c.716,2.992.833,2.982,3.556,5.043-.336,1.52-.553,2.833-.772,4.391,4.441,12.879,6.81,23.776,9.416,39,.316-15.571-.458-27.39-3.834-43.6a9.517,9.517,0,0,0-2.812-1.016c.746-3.3.33-5.431-.348-5.831C2448.688,2048.774,2447.671,2049.063,2445.923,2050.882Z" fill="#041e2e" fill-rule="evenodd"/>
          <path id="Path_15275" data-name="Path 15275" d="M2445.923,2050.882c.716,2.992.833,2.982,3.556,5.043-.336,1.52-.553,2.833-.772,4.391,4.441,12.879,6.81,23.776,9.416,39-1.382-18.56-3.821-26.065-7.74-38.743a33.555,33.555,0,0,0,.347-5.4c-1.745-1.546-2.495-1.7-2.941-2.761-.4-.942,1.553-3.323,1.235-3.511C2447.8,2049.25,2447.671,2049.063,2445.923,2050.882Z" fill="#020d14" fill-rule="evenodd"/>
          <path id="Path_15276" data-name="Path 15276" d="M2448.575,2049.042c.3-.777.461-2.38.79-3.776a16.357,16.357,0,0,1,1.041-2.936c1.7.217,2.449,5.363,3.9,8.4A7.816,7.816,0,0,0,2448.575,2049.042Z" fill="#1abac6" fill-rule="evenodd"/>
          <path id="Path_15277" data-name="Path 15277" d="M2432.688,2038.327c-.342,5.505,10.109,9.331,15.942,10.719-1.464,1.766-3.354,3.987-3.279,5.751-4.206-1.15-11.339-3.128-14.229-8.506A5.9,5.9,0,0,1,2432.688,2038.327Z" fill="#1abac6" fill-rule="evenodd"/>
        </g>
      </g>
      <g id="Group_7409" data-name="Group 7409">
        <path id="Path_15278" data-name="Path 15278" d="M2452.447,2034.362c4.337-.212,6.36.8,8.72,4.316,4.248,6.331,4.911,19.811,4.612,31.959-.17,6.882-1.26,12.933-1.345,21.484-.069,6.894,1.318,17.311,2.08,26.691.372,4.567.6,48.943.433,52.494-.931,2.006-7.508,5.374-8.375,5.205.4-5.118.756-51.187.987-57.68.727-20.558.2-45.913-4.173-62.776-1.093-4.219-1.706-9.039-4.074-12.745-.4-.606-.788-1.193-1.151-1.758a49.193,49.193,0,0,1,1.145-6.392l-1.112-.485A19.375,19.375,0,0,1,2452.447,2034.362Z" fill="#d2eefc" fill-rule="evenodd"/>
        <path id="Path_15279" data-name="Path 15279" d="M2418.736,2048.4c2.368-1.313,7.193-4.269,12.4-7.175-4.381,5.249,6.2,17.869,11.11,33.6,1.669,5.349,2.753,13.148,3.014,20.914.253,7.494-2.13,83.289-3.828,89.354-4.957,3.422-9.858,3.666-15.067,1.521a49.925,49.925,0,0,1-12.634-7.991c1.987-14.119-1.459-42.759,3.537-53.982,2.422-5.442,4.957-7.722,5.208-14.564.359-9.807-13.4-35.948-13.272-49.481C2409.257,2054.595,2414.313,2050.855,2418.736,2048.4Z" fill="#d2eefc" fill-rule="evenodd"/>
        <path id="Path_15280" data-name="Path 15280" d="M2418.736,2048.4l12.051-6.684c-1.8,2.884-6.594,5.978-11.765,10.343a23.635,23.635,0,0,1,6.681,11.8c2.722,10.762,6.884,24.925,7.6,34.766,1.137,15.662-2.61,22.716-5.839,29.7-2.188,4.735-4.14,49.492-4.168,56.825a50.77,50.77,0,0,1-9.511-6.517c.45-4.25.239-27.216,1.1-41.6a39.01,39.01,0,0,1,3.906-15.584c1.7-3.246,3.294-5.756,3.678-11.362.672-9.791-13.4-35.948-13.272-49.481C2409.257,2054.595,2414.313,2050.855,2418.736,2048.4Z" fill="#c3e6f7" fill-rule="evenodd"/>
        <path id="Path_15281" data-name="Path 15281" d="M2433.3,2098.624c.181,2.494.238,4.769.193,6.86-6.633-6.042-12.863-13.772-18.678-22.14-2.978-8.378-5.673-16.783-5.618-22.741Z" fill="#b2d9ed" fill-rule="evenodd"/>
        <path id="Path_15282" data-name="Path 15282" d="M2450.914,2038.88a15.678,15.678,0,0,1,8.224,6.585l-2.325,1.8,3.023,1.511a209.236,209.236,0,0,1-.262,43.192c-.615-12.02-.811-27.062-5.6-38.964-.753-1.873-3.287-10.539-3.87-11.361C2450.564,2039.739,2450.338,2040.862,2450.914,2038.88Z" fill="#ebf9ff" fill-rule="evenodd"/>
        <path id="Path_15283" data-name="Path 15283" d="M2428.53,2046.65l-7.353,5.378c6.091,10.027,14.253,28.856,14.478,47.882.108,9.174-6.853,46.906-9.712,83.933,5.435,3.284,11.725,1.857,14.6-.769,2.9-18.653,3.333-91.6-.585-106.415C2436.6,2063.957,2430.825,2054.761,2428.53,2046.65Z" fill="#e0f5ff" fill-rule="evenodd"/>
        <g id="Group_7405" data-name="Group 7405">
          <path id="Path_15284" data-name="Path 15284" d="M2427.575,2110.248c5.922-.2,7.551-.211,12.675.71l-2.359,14.161c-3.317,1.406-8.027,1.022-12.185-.7Z" fill="#d2eefc" fill-rule="evenodd"/>
          <path id="Path_15285" data-name="Path 15285" d="M2427.575,2110.248c5.922-.2,7.551-.211,12.675.71-.736,4.222-.385,4.181-4.909,4.452-8.083.482-5.592,1.378-8.379,9.484-.123.357-.842-.3-1.256-.474Z" fill="#c3e6f7" fill-rule="evenodd"/>
          <path id="Path_15286" data-name="Path 15286" d="M2428.008,2108.444c5.961-.182,8.618-.644,13.039-.66l-1.14,5.636c-1.51.787-9.436,1.725-12.937.068Z" fill="#d2eefc" fill-rule="evenodd"/>
          <path id="Path_15287" data-name="Path 15287" d="M2428.008,2108.444c5.961-.182,8.618-.644,13.039-.66-4.307,1.6-11.573,1.16-12.842,6.143a7.221,7.221,0,0,1-1.235-.439Z" fill="#c3e6f7" fill-rule="evenodd"/>
          <path id="Path_15288" data-name="Path 15288" d="M2439.165,2115.892l-7.459,1.2-3.015,7.418a25.691,25.691,0,0,0,8.279.463Z" fill="#e0f5ff" fill-rule="evenodd"/>
          <path id="Path_15289" data-name="Path 15289" d="M2440.405,2108.529c-3.482,1.063-8.371,2.541-10.423,5.136a26.311,26.311,0,0,0,9.137-.6A20.816,20.816,0,0,0,2440.405,2108.529Z" fill="#e0f5ff" fill-rule="evenodd"/>
        </g>
        <g id="Group_7408" data-name="Group 7408">
          <g id="Group_7406" data-name="Group 7406">
            <path id="Path_15290" data-name="Path 15290" d="M2461.84,2103.143c1.754-1.913,2.24-2.392,3.861-2.938l1.217,15.814c-.815,1.286-3.495,2.351-4.31,2.023Z" fill="#d2eefc" fill-rule="evenodd"/>
            <path id="Path_15291" data-name="Path 15291" d="M2461.84,2103.143c1.754-1.913,2.24-2.392,3.861-2.938.174,4.491.276,4.349-1.053,5.928-2.374,2.82-1.466,3.01-1.541,12.027a1.655,1.655,0,0,1-.5-.118Z" fill="#c3e6f7" fill-rule="evenodd"/>
            <path id="Path_15292" data-name="Path 15292" d="M2465.838,2105.518l-2.12,3.373.19,8.695a4.529,4.529,0,0,0,2.594-1.9Z" fill="#e0f5ff" fill-rule="evenodd"/>
          </g>
          <g id="Group_7407" data-name="Group 7407">
            <path id="Path_15293" data-name="Path 15293" d="M2461.2,2099.387c1.962-.864,2.765-1.649,4.243-2.164l.686,6.07c-.357,1-2.836,2.88-4.322,1.528Z" fill="#d2eefc" fill-rule="evenodd"/>
            <path id="Path_15294" data-name="Path 15294" d="M2461.2,2099.387c1.962-.864,2.765-1.649,4.243-2.164-1.14,2.169-3.658,2.527-3.14,7.921a1.791,1.791,0,0,1-.5-.323Z" fill="#c3e6f7" fill-rule="evenodd"/>
            <path id="Path_15295" data-name="Path 15295" d="M2465.368,2098.081a13.456,13.456,0,0,0-2.521,6.587c1.367-.095,1.8-.444,2.948-1.662C2465.745,2101.376,2465.558,2099.859,2465.368,2098.081Z" fill="#e0f5ff" fill-rule="evenodd"/>
          </g>
        </g>
        <path id="Path_15296" data-name="Path 15296" d="M2427.038,2043.435c-1.726,4.2-.487,11.752,1.59,19.022l4.227-1.568-2.039,4.6c8.5,11.1,13.25,27.637,13.908,44.617,4.6-36.773-8.69-51.8-12.35-64.676-.491-1.73-1.64-4.462-.868-6A10.4,10.4,0,0,0,2427.038,2043.435Z" fill="#ebf9ff" fill-rule="evenodd"/>
      </g>
      <g id="Group_7410" data-name="Group 7410">
        <path id="Path_15297" data-name="Path 15297" d="M2447.4,2040.784c-1.971-.791-6.482-1.611-8.271-2.435-3.915-1.8-4.21-5.807-6.216-10.6-3.649-1.625-5.087-3.211-5.79-5.194-1.665-4.706.028-10.49,3.144-14.1a13.12,13.12,0,0,1,10.67-4.552c8.489.118,13.092,5.581,14.958,12.521a4.813,4.813,0,0,1,.128,1.792c-.15,1.5-.63,2.255-.749,3.28-.281,2.412.764,1.975,1,4.346.385,3.844-.252,7.472-.873,11.707-.182,1.245-.435,1.827-1.157,2.3a17.082,17.082,0,0,1-2.576,1.1C2450.8,2041.32,2449.916,2041.466,2447.4,2040.784Z" fill="#f1b287" fill-rule="evenodd"/>
        <path id="Path_15298" data-name="Path 15298" d="M2447.4,2040.784c-1.971-.791-6.482-1.611-8.271-2.435-3.915-1.8-4.21-5.807-6.216-10.6-3.649-1.625-5.087-3.211-5.79-5.194-1.665-4.706.028-10.49,3.144-14.1a13.12,13.12,0,0,1,10.67-4.552c7.374.1,11.816,4.24,14.078,9.873-.3.782-7.194,4.4-13.444,4.438-.469,2.822,1,5.139,1.067,6.558.065,1.36.058,2.52.182,3.282.183,1.13,1.344,2,1.519,3.62.57,5.268,3.473,8.637,5.835,9.584A10.938,10.938,0,0,1,2447.4,2040.784Z" fill="#e8a476" fill-rule="evenodd"/>
        <path id="Path_15299" data-name="Path 15299" d="M2452.14,2012.253c.935.033,2.061-.506,2.827,1.413-.555-3.145-1.509-3.436-3.449-3.732Z" fill="#361d07" fill-rule="evenodd"/>
        <path id="Path_15300" data-name="Path 15300" d="M2440.41,2016.46c-5.945-.6-12.538-4.785-14.082-7.466-3.21,6.295-2.432,14.774,2.545,19.909,1.432,2.719,2.835,5.393,4.177,8.158a57.634,57.634,0,0,0,1.931-11.665l.255-.368c.343.711,1.2,2.474,1.515,3.207.374,0,.98-.543,1.511-.859C2437.216,2021.89,2437.5,2018.5,2440.41,2016.46Z" fill="#361d07" fill-rule="evenodd"/>
        <path id="Path_15301" data-name="Path 15301" d="M2440.806,2016.189c6.245-.546,14.462-3.4,17.59-8.142-5.665.854-12.088-7.594-21.037-6.757-5.188.486-10.791,3.143-11.032,7.662C2428.02,2011.185,2435.6,2016.645,2440.806,2016.189Z" fill="#361d07" fill-rule="evenodd"/>
        <path id="Path_15302" data-name="Path 15302" d="M2440.551,2016.458c6.245-.547,14.717-3.671,17.845-8.411l-.055.006a21.434,21.434,0,0,1-14.933,1.974,5.761,5.761,0,0,0,2.177-1.075c-4.7.255-7.944.48-12.018-2.036a8.022,8.022,0,0,0,3.254.178c-2.415-.572-4.705-2.52-8.409-2.271a5.873,5.873,0,0,0-2.17,4.3C2427.766,2011.722,2435.343,2016.913,2440.551,2016.458Z" fill="#241304" fill-rule="evenodd"/>
        <path id="Path_15303" data-name="Path 15303" d="M2433.1,2023.326c-3.348-.764-2.979,2.973-2.241,5.185.507,1.519,1.779,1.27,2.373,2.449a2.951,2.951,0,0,0,2.882,1.84c1.963-.26.44-3.057.084-4.193C2436.232,2026.681,2435.229,2023.811,2433.1,2023.326Z" fill="#e8a476" fill-rule="evenodd"/>
        <path id="Path_15304" data-name="Path 15304" d="M2426.2,2009.559c-.482,1.1-1.632,4.106-1.3,6.278a7.675,7.675,0,0,1,2.064-3.676c-1.264,2.03-1.463,4.529-.593,7.522.041-2.59.309-4.062,2.177-5.515-1.362,2.569-.86,7.288-.085,9.332.237-2.929.473-6.928,2.97-7.777-1.455,2.379-1.241,3.688-.368,6.052.255-2.625,1.038-4.1,2.828-5.09.05,2.388.789,6.815,3.139,8.88-.194-.935-1.392-7.252-.142-8.144a4.526,4.526,0,0,0,.17,3,5.388,5.388,0,0,1,2.574-3.677C2434.6,2016.589,2427.309,2011.993,2426.2,2009.559Z" fill="#4a2b12" fill-rule="evenodd"/>
        <path id="Path_15305" data-name="Path 15305" d="M2429.272,2004.079c2.535-1.989,7-2.993,10.21-2.843,2.721.127,5.362,1.247,7.805,1.8a6.584,6.584,0,0,1-1.952.056c4.325,1.213,7.928,5.067,12.981,4.949a9.678,9.678,0,0,1-5.882-.226,13.05,13.05,0,0,0,2.2,1.075c-4.807.369-7.976-2.236-12.33-3.762a5.382,5.382,0,0,0,2.631,1.612C2440.266,2005.887,2435.946,2002.148,2429.272,2004.079Z" fill="#4a2b12" fill-rule="evenodd"/>
      </g>
      <g id="Group_7415" data-name="Group 7415">
        <g id="Group_7411" data-name="Group 7411">
          <path id="Path_15306" data-name="Path 15306" d="M2410.436,2055.934c-4.562,7.689-7.628,24.325-9.013,35.44-.705,5.653-.854,10.115,3.37,12.228,4.005,2,8.5-1.628,10.183-5.891,1.993-5.052,3.859-11.38,7.394-22.143,2.815-8.574.008-17.226-4.185-20.586C2415.756,2053.036,2412.674,2052.164,2410.436,2055.934Z" fill="#d2eefc" fill-rule="evenodd"/>
          <path id="Path_15307" data-name="Path 15307" d="M2410.436,2055.934c-4.562,7.689-7.628,24.325-9.013,35.44-.705,5.653-.854,10.115,3.371,12.228,2.81,1.406,5.862.036,8.014-2.38a49.556,49.556,0,0,1-4.862-1.864c-1.394-.626-2.271-.686-1.571-3.982,3.118-14.662,5.9-27.218,10.869-41.068C2415,2052.891,2412.393,2052.636,2410.436,2055.934Z" fill="#c3e6f7" fill-rule="evenodd"/>
        </g>
        <g id="Group_7412" data-name="Group 7412">
          <path id="Path_15308" data-name="Path 15308" d="M2423.3,2068.315l2.424-1.364v49.458l-2.424,1.364Z" fill="#1a0101" fill-rule="evenodd"/>
          <path id="Path_15309" data-name="Path 15309" d="M2425.722,2066.95l27.168,15.446v49.458l-27.168-15.446Z" fill="#240101" fill-rule="evenodd"/>
          <path id="Path_15310" data-name="Path 15310" d="M2425.75,2067.754l26.107,14.789-.145,48.352-2.336,1.322-23.626-17.2-2.288-45.955Z" fill="#e6e6e6" fill-rule="evenodd"/>
          <path id="Path_15311" data-name="Path 15311" d="M2423.3,2068.315l27.168,15.446v49.459l-27.168-15.446Z" fill="#380303" fill-rule="evenodd"/>
        </g>
        <g id="Group_7414" data-name="Group 7414">
          <path id="Path_15312" data-name="Path 15312" d="M2437.126,2110.894l-1.3-2.825.732-5.073c2.465-1.484,4.322-1.979,5.368-1.555a2.394,2.394,0,0,1,.265.091C2445.537,2103.383,2441.75,2112.871,2437.126,2110.894Z" fill="#8f9ba6" fill-rule="evenodd"/>
          <g id="Group_7413" data-name="Group 7413">
            <path id="Path_15313" data-name="Path 15313" d="M2447.1,2115.852a23.576,23.576,0,0,0,6.767-1.985c1.3-.609,1.7-9.781,1.548-9.806-1.633.284-5.229,1.181-6.976,1.4-2.119-.669-8.818-2.994-10.937-3.663l-2.006,4.213-.091,4.381a6.2,6.2,0,0,1,2.422.742C2440.874,2112.454,2443.467,2114.816,2447.1,2115.852Z" fill="#e8a476" fill-rule="evenodd"/>
            <path id="Path_15314" data-name="Path 15314" d="M2448.337,2106.412a23.6,23.6,0,0,0,6.766-1.985c1.3-.61-1.568-.959-2.361-.82-1.634.283-2.976.648-4.722.867-2.12-.668-6.793-2.148-8.86-2.976l-1.743.141A109.514,109.514,0,0,0,2448.337,2106.412Z" fill="#f1b287" fill-rule="evenodd"/>
            <path id="Path_15315" data-name="Path 15315" d="M2450.473,2103.544c.355,2.52-3.495,1.321-4.452.877-.838-.067-6.794-1.748-5.629-2.112a6.9,6.9,0,0,1,4.651-.676c1.271.341,1.314.818,2.7,1.266A14.35,14.35,0,0,0,2450.473,2103.544Z" fill="#f1b287" fill-rule="evenodd"/>
          </g>
          <path id="Path_15316" data-name="Path 15316" d="M2401.755,2100.02a6.319,6.319,0,0,0,2.338,3.122c1.185.9,2.928,1.289,4.719,2.117,6.926,3.2,17.925,4.321,28.7,5.807-.453-5.782,1.434-9.1,4.684-9.536-8.943-3.631-19.79-5.417-28.741-8.057a18.106,18.106,0,0,0-3.378-.656C2406.429,2094.136,2400,2094.949,2401.755,2100.02Z" fill="#d2eefc" fill-rule="evenodd"/>
          <path id="Path_15317" data-name="Path 15317" d="M2401.755,2100.02a6.319,6.319,0,0,0,2.338,3.122c1.185.9,2.928,1.289,4.719,2.117,6.926,3.2,17.925,4.321,28.7,5.807a18.294,18.294,0,0,1,.029-3.443c-9.388-3.285-20.309-4.093-29.594-8.265-1.394-.626-2.271-.686-1.571-3.982l.319-1.5C2403.53,2094.9,2400.478,2096.332,2401.755,2100.02Z" fill="#c3e6f7" fill-rule="evenodd"/>
          <path id="Path_15318" data-name="Path 15318" d="M2416.156,2063.043c-2.184,10.959-7.509,21.8-7.863,34.112,9.947,3.427,18.624,5.652,28.846,8.136a6.427,6.427,0,0,1,3.564-3.588l-27.013-6.957,2.527-11.73Z" fill="#e0f5ff" fill-rule="evenodd"/>
        </g>
      </g>
    </g>
    <g id="Group_7418" data-name="Group 7418">
      <path id="Path_15319" data-name="Path 15319" d="M2460.628,1968.738l.891-.514A2.136,2.136,0,0,0,2460.628,1968.738Z" fill="#fff"/>
      <path id="Path_15320" data-name="Path 15320" d="M2459.649,1999.7a9.826,9.826,0,0,0,4.456,7.721l2.236,1.291-.025,8.758,10.629-2.636,25.155,14.523-42.381-54.372Z" fill="#fff"/>
      <g id="Group_7417" data-name="Group 7417">
        <path id="Path_15321" data-name="Path 15321" d="M2510.881,1992.171l-43.585-25.164c-1.385-.8-2.623-.791-3.447-.13l-2.33,1.347a3.487,3.487,0,0,1,2.7.511L2507.8,1993.9a9.823,9.823,0,0,1,4.458,7.72l-.08,28.405c0,1.577-.629,2.628-1.6,3.009.012.021.026.041.037.062l3.233-1.873a2.175,2.175,0,0,0,.224-.13h0a3.207,3.207,0,0,0,1.191-2.8l.081-28.405A9.823,9.823,0,0,0,2510.881,1992.171Z" fill="#d3d3d3" opacity="0.6" style="mix-blend-mode: multiply;isolation: isolate"/>
        <path id="Path_15322" data-name="Path 15322" d="M2512.178,2030.024l.08-28.405a9.823,9.823,0,0,0-4.458-7.72l-43.585-25.164a3.487,3.487,0,0,0-2.7-.511l-.891.514a3.455,3.455,0,0,0-.9,2.553l-.01,3.69,42.381,54.372,5.591,3.228C2510.16,2034.007,2512.17,2032.862,2512.178,2030.024Z" fill="#fff"/>
      </g>
    </g>
  </g>
</svg>
