<svg xmlns="http://www.w3.org/2000/svg" width="275.776" height="237.151" viewBox="0 0 275.776 237.151">
  <g id="Group_7086" data-name="Group 7086" transform="translate(-5232.487 -2030.723)">
    <path id="Path_14614" data-name="Path 14614" d="M5333.636,2118.3l-88.2,50.881,46.773,26.428c-22.281,11.908-36.137,18.447-59.719,32.059,67.8,39.4,1.444.8,69.237,40.2l58.687-33.725,55.392,31.3c112.716-65.5-20.26,12.155,92.46-53.355C5449.912,2178.411,5419.877,2168.111,5333.636,2118.3Z" fill="#231f20" fill-rule="evenodd" opacity="0.1" style="mix-blend-mode: multiply;isolation: isolate"/>
    <g id="Group_7030" data-name="Group 7030">
      <path id="Path_14615" data-name="Path 14615" d="M5265.046,2092.979l8.911-.027c0,.189-.018,76.817-.056,76.987-.713,3.247-7.94,3.288-8.777.113C5265.072,2169.857,5265.046,2093.2,5265.046,2092.979Z" fill="#1e7e96" fill-rule="evenodd"/>
      <path id="Path_14616" data-name="Path 14616" d="M5270.112,2092.964l3.845-.012c0,.189-.018,76.817-.056,76.987-.325,1.487-2.016,2.3-3.834,2.443C5270.1,2160.507,5270.111,2098.32,5270.112,2092.964Z" fill="#17667a" fill-rule="evenodd"/>
      <path id="Path_14617" data-name="Path 14617" d="M5266.166,2093.388l1.871-.348c0,.057,0,78.739-.009,78.792a3.423,3.423,0,0,1-2.011-1.194C5266,2170.579,5266.166,2093.454,5266.166,2093.388Z" fill="#1b9ebf" fill-rule="evenodd"/>
      <path id="Path_14618" data-name="Path 14618" d="M5273.034,2093.006l-1.222.245c0,7.842,0,77.924.009,77.973a1.828,1.828,0,0,0,1.361-.967Z" fill="#1e7e96" fill-rule="evenodd"/>
    </g>
    <g id="Group_7046" data-name="Group 7046">
      <g id="Group_7035" data-name="Group 7035">
        <g id="Group_7032" data-name="Group 7032">
          <g id="Group_7031" data-name="Group 7031">
            <path id="Path_14619" data-name="Path 14619" d="M5342.335,2203.29c-1.014.963-2.194,1.437-4.54,2.837v2.068c-2.43,4.254-4.773,6.188-7.848,5.28-4.288-1.266-5.587-2.321-5.638-5.387-.489-5.225-.6-6.2.809-10.051a30.881,30.881,0,0,1,9.292-4.347c2.49-.793,6.243-2.967,9.86-3.923a2.768,2.768,0,0,1,3.464,2.584C5347.928,2195.619,5345.046,2200.414,5342.335,2203.29Z" fill="#111214" fill-rule="evenodd"/>
            <path id="Path_14620" data-name="Path 14620" d="M5342.335,2203.29c-1.014.963-2.194,1.437-4.54,2.837v2.068c-2.43,4.254-4.773,6.188-7.848,5.28-4.288-1.266-5.587-2.321-5.638-5.387a32.059,32.059,0,0,1-.27-5.974c5.7,2.915,10.546,2.648,15.864-2.842,1.6-1.648,6.278-5.908,6.681-9.084a3.076,3.076,0,0,1,1.15,2.163C5347.928,2195.619,5345.046,2200.414,5342.335,2203.29Z" fill-rule="evenodd"/>
          </g>
          <path id="Path_14621" data-name="Path 14621" d="M5348.789,2158.992c-3.775,13.842-7.067,24.619-11.352,38.325a8.9,8.9,0,0,1-4.25,5.275c-3.631,1.95-8.652,2.127-9.639-.69.848-13.928,1.3-21.544,2.489-29.069.987-6.263,1.525-12.231,4.72-17.286C5334.436,2143.145,5352.65,2144.831,5348.789,2158.992Z" fill="#001624" fill-rule="evenodd"/>
          <path id="Path_14622" data-name="Path 14622" d="M5343.351,2178.049c-1.845,6.191-3.753,12.357-5.914,19.268a8.9,8.9,0,0,1-4.25,5.275,12.239,12.239,0,0,1-5.255,1.443c.653-4.333,2.231-10.716,3.262-15a21.533,21.533,0,0,1-7.05,2.736c.137-2.127.236-3.037.372-4.862Z" fill="#00101a" fill-rule="evenodd"/>
        </g>
        <g id="Group_7034" data-name="Group 7034">
          <g id="Group_7033" data-name="Group 7033">
            <path id="Path_14623" data-name="Path 14623" d="M5350.092,2209.425c1.2-.322,4.288-5.03,8.619-4.1,5.2,1.111,11.241-1.835,15.934-1.892.836-.01,1.892-.22,2.4.16,2.233,1.666,2.506,3.392.582,5.583a33.563,33.563,0,0,1-6.192,5.115,39.773,39.773,0,0,1-7,3.967c-2.106.875-3.526.755-5.433,1.433l-.121,1.659a9.075,9.075,0,0,1-4.281,2.19c-2.684.236-5.83-1.483-8.091-3.894-.261-2.742-1.238-5.472.173-9.5Z" fill="#111214" fill-rule="evenodd"/>
            <path id="Path_14624" data-name="Path 14624" d="M5378.394,2204.92c.877,1.273.652,2.635-.766,4.251a33.563,33.563,0,0,1-6.192,5.115,39.773,39.773,0,0,1-7,3.967c-2.106.875-3.526.755-5.433,1.433l-.121,1.659a9.075,9.075,0,0,1-4.281,2.19c-2.684.236-5.83-1.483-8.091-3.894-.2-2.092-.815-4.178-.469-6.841,5.787,4.43,9.35,1.432,11.575,1.318,3.3-.167,8.071.12,15.416-5.156C5374.731,2207.741,5376.567,2206.392,5378.394,2204.92Z" fill-rule="evenodd"/>
            <path id="Path_14625" data-name="Path 14625" d="M5361.879,2210.921c1.343-2.344,1.348-3.883.9-4.81l9.245-1.826c4.531-.94,5.451-.088,4.249.981C5372.235,2208.86,5366.919,2209.757,5361.879,2210.921Z" fill="#20232e" fill-rule="evenodd"/>
          </g>
          <path id="Path_14626" data-name="Path 14626" d="M5362.9,2148.378c-.35,14.3-.8,45.447-2.048,60-.9,4.674-11.932,9.1-16.137,4.447-.787-13.906-2.388-25.441-1.747-33.08.533-6.357.7-25.327,3.035-30.928C5347.792,2141.76,5363.206,2135.911,5362.9,2148.378Z" fill="#001e30" fill-rule="evenodd"/>
          <path id="Path_14627" data-name="Path 14627" d="M5363.305,2150.222c-.35,14.3-1.207,43.6-2.453,58.158-.411,2.145-2.958,4.235-6,5.422.787-10.517,1.328-21.441,2.611-31.814.579-4.669,1.193-8.836,1.629-12.463.624-5.178,1.27-22.595-.823-27.524a9.9,9.9,0,0,0-3.111-4.16,9.461,9.461,0,0,1,5.1,2.985,12.4,12.4,0,0,1,2.864,6.959A11.322,11.322,0,0,1,5363.305,2150.222Z" fill="#001624" fill-rule="evenodd"/>
          <path id="Path_14628" data-name="Path 14628" d="M5352.737,2213.354c-3.278.97-6.172.16-7.518-1.213-.842-26.148-1.807-30.252,3.737-40.261,1.941-3.5,4.5-7.129,8.568-14.018C5354.849,2177.823,5355.231,2191.265,5352.737,2213.354Z" fill="#00263d" fill-rule="evenodd"/>
        </g>
      </g>
      <g id="Group_7039" data-name="Group 7039">
        <g id="Group_7036" data-name="Group 7036">
          <path id="Path_14629" data-name="Path 14629" d="M5272.731,2230.015l39.882-.121a23.481,23.481,0,0,1-.253,3.5c-3.19,14.528-35.529,14.712-39.275.5A21.125,21.125,0,0,1,5272.731,2230.015Z" fill="#cfe0e8" fill-rule="evenodd"/>
          <path id="Path_14630" data-name="Path 14630" d="M5273.515,2230.013l39.1-.119a23.481,23.481,0,0,1-.253,3.5c-2.925,13.328-30.38,14.581-37.79,3.729,5.392,5.59,12.447,7.451,20.428,6.862a26.609,26.609,0,0,0,6.715-1.317c1.093-.384,1.354-1.272-.058-.916C5293.189,2243.884,5274.736,2244.057,5273.515,2230.013Z" fill="#b6ccd6" fill-rule="evenodd"/>
          <path id="Path_14631" data-name="Path 14631" d="M5278.594,2222.072c7.826-4.653,20.476-4.653,28.243-.005s7.738,12.19-.092,16.841-20.467,4.646-28.243,0S5270.77,2226.717,5278.594,2222.072Z" fill="#dceaf0" fill-rule="evenodd"/>
          <path id="Path_14632" data-name="Path 14632" d="M5281.544,2222.5c6.183-3.571,16.177-3.571,22.313,0s6.113,9.358-.073,12.929-16.17,3.567-22.313,0S5275.363,2226.068,5281.544,2222.5Z" fill="#f5fcff" fill-rule="evenodd"/>
          <path id="Path_14633" data-name="Path 14633" d="M5299.708,2243.091a33.874,33.874,0,0,1-12.309.324c-5.5-.9-10.832-3.451-13.61-8.242,2.547,3.69,7.417,6.586,13.659,7.58a38.379,38.379,0,0,0,12.244-.361C5300.446,2242.264,5300.286,2242.961,5299.708,2243.091Z" fill="#f5fcff" fill-rule="evenodd"/>
        </g>
        <g id="Group_7037" data-name="Group 7037">
          <path id="Path_14634" data-name="Path 14634" d="M5287.358,2147.656l10.628-.033c0,.226-.023,81.407-.068,81.611-.849,3.871-9.468,3.92-10.466.134C5287.391,2229.135,5287.358,2147.919,5287.358,2147.656Z" fill="#dceaf0" fill-rule="evenodd"/>
          <path id="Path_14635" data-name="Path 14635" d="M5293.4,2147.637l4.586-.014c0,.226-.023,81.407-.068,81.611-.389,1.771-2.4,2.742-4.572,2.911C5293.379,2217.987,5293.4,2154.025,5293.4,2147.637Z" fill="#cfe0e8" fill-rule="evenodd"/>
          <path id="Path_14636" data-name="Path 14636" d="M5288.694,2148.143l3.007-.01c0,.069-.006,82.806-.019,82.868-.665.117-2.764-.675-3.174-1.828C5288.491,2229.1,5288.694,2148.222,5288.694,2148.143Z" fill="#f5fcff" fill-rule="evenodd"/>
          <path id="Path_14637" data-name="Path 14637" d="M5287.358,2175.905l10.628-.032c0,.225-.023,21.219-.068,21.422-.849,3.872-9.468,3.921-10.466.135C5287.391,2197.2,5287.358,2176.167,5287.358,2175.905Z" fill="#b6ccd6" fill-rule="evenodd"/>
        </g>
        <g id="Group_7038" data-name="Group 7038">
          <path id="Path_14638" data-name="Path 14638" d="M5257.016,2167.413l71.312-.218a90.229,90.229,0,0,1-.454,9.125c-5.7,25.977-63.527,26.306-70.225.9A75.858,75.858,0,0,1,5257.016,2167.413Z" fill="#1e7e96" fill-rule="evenodd"/>
          <path id="Path_14639" data-name="Path 14639" d="M5258.419,2167.408l69.909-.213a89.946,89.946,0,0,1-.454,9.125c-5.23,23.831-54.321,26.073-67.57,6.668,9.642,9.994,22.217,12.715,36.49,11.661a47.783,47.783,0,0,0,12.043-2.356c1.955-.685,2.463-4.1-.066-3.482C5292.533,2192.78,5260.6,2192.521,5258.419,2167.408Z" fill="#17667a" fill-rule="evenodd"/>
          <path id="Path_14640" data-name="Path 14640" d="M5267.5,2153.208c13.993-8.318,36.613-8.318,50.5-.008,13.911,8.315,13.837,21.8-.163,30.113-13.977,8.308-36.6,8.308-50.5-.009S5253.511,2161.515,5267.5,2153.208Z" fill="#248ca6" fill-rule="evenodd"/>
          <path id="Path_14641" data-name="Path 14641" d="M5268.884,2153.077c13.551,22.2,60.538,16.679,47.548,27.635-13.2,7.625-34.571,7.625-47.705-.01S5255.669,2160.7,5268.884,2153.077Z" fill="#1b9ebf" fill-rule="evenodd"/>
          <path id="Path_14642" data-name="Path 14642" d="M5305.215,2192.526c-3.666,1.128-12.511,1.509-16.022,1.386-7.89-.275-29.861-4.2-31.118-18.374,4.8,12.551,26.177,18.821,46.922,14.861C5307.553,2189.911,5307.049,2191.961,5305.215,2192.526Z" fill="#1b9ebf" fill-rule="evenodd"/>
        </g>
      </g>
      <g id="Group_7045" data-name="Group 7045">
        <g id="Group_7042" data-name="Group 7042">
          <g id="Group_7040" data-name="Group 7040">
            <path id="Path_14643" data-name="Path 14643" d="M5341.4,2150.774c4.916-2.771,14.648-9.991,10.164-14.285-4.574-10.88-19.867-6.137-25.686-4.427-8.833,2.595-31.56,8.317-40.238,17.575l-15.193-15.283c-1.72,7.852-4.879,18.641-3.176,27.422,1.046,5.385,1.714,7.021,6.368,9.757a35.531,35.531,0,0,0,8.99,3.878,17.945,17.945,0,0,0,11.4-1.484C5304.813,2168.757,5335.053,2154.352,5341.4,2150.774Z" fill="#001624" fill-rule="evenodd"/>
            <path id="Path_14644" data-name="Path 14644" d="M5319.5,2151.989c3.508-1.979,23.038-6.152,25.177-10.111.493-.914-.433-2.594-.927-3.459-9.276.014-29.763,5.3-42.245,10.236Z" fill="#00101a" fill-rule="evenodd"/>
          </g>
          <g id="Group_7041" data-name="Group 7041">
            <path id="Path_14645" data-name="Path 14645" d="M5358.545,2154.573c4.916-2.772,4.879-9.967.9-14.734-2.327-2.79-6.846-4.093-12.65-3.079-9.193,1.6-39.472,13.89-48.149,20.092l-18.161-18.52c-1.719,7.852-2.181,21.879-.478,30.658,1.046,5.386,1.983,7.022,6.638,9.757a35.494,35.494,0,0,0,8.989,3.879,17.948,17.948,0,0,0,11.4-1.485C5317.826,2175.971,5352.2,2158.15,5358.545,2154.573Z" fill="#001e30" fill-rule="evenodd"/>
            <path id="Path_14646" data-name="Path 14646" d="M5309.949,2150.336a83.655,83.655,0,0,0-11.3,6.516l-18.161-18.52c-1.719,7.852-2.181,21.879-.478,30.658,1.046,5.386,1.983,7.022,6.638,9.757a35.494,35.494,0,0,0,8.989,3.879,17.948,17.948,0,0,0,11.4-1.485c5.823-2.791,33.347-16.512,41.4-21.168,3.589-3.138,7.348-11.554,6.832-11.368-12.753,10.115-31.978,16.056-39.24,19.806C5315.485,2166.364,5315.628,2154.241,5309.949,2150.336Z" fill="#001624" fill-rule="evenodd"/>
            <path id="Path_14647" data-name="Path 14647" d="M5353.4,2136.662c7.905,1.133,13.01,11.445,6.377,17.585a35.611,35.611,0,0,0-.553-8.34A15.36,15.36,0,0,0,5353.4,2136.662Z" fill="#001624" fill-rule="evenodd"/>
            <path id="Path_14648" data-name="Path 14648" d="M5352.916,2146.636c4.728-2.2,2.4-7.588-.58-8.319-6.375-1.562-29.985,8.324-38.744,12.034,2.884,2.333,4.232,7.708,4.81,11.44C5325.188,2158.951,5345.838,2149.922,5352.916,2146.636Z" fill="#00263d" fill-rule="evenodd"/>
          </g>
        </g>
        <g id="Group_7044" data-name="Group 7044">
          <path id="Path_14649" data-name="Path 14649" d="M5301.458,2147.219c7.748-2.518,15.187-5.457,22.926-8-1.9-3.236-4.95-4.137-8.217-4.342-10.43,3.15-24.209,8.016-30.531,14.762C5283.707,2147.7,5295.619,2154.249,5301.458,2147.219Z" fill="#1abac6" fill-rule="evenodd"/>
          <g id="Group_7043" data-name="Group 7043">
            <path id="Path_14650" data-name="Path 14650" d="M5307.9,2151.635a72.353,72.353,0,0,0-9.251,5.217l-18.161-18.52c-1.719,7.852-2.181,21.879-.478,30.658,1.046,5.386,1.983,7.022,6.638,9.757a35.494,35.494,0,0,0,8.989,3.879,17.948,17.948,0,0,0,11.4-1.485c6.964-3.339,23.764-11.952,36.5-18.6.129-6.966-1.444-13.518-6.935-18.738-9.39,3.1-20.575,6.139-27.779,8.99Q5308.369,2152.182,5307.9,2151.635Z" fill="#1abac6" fill-rule="evenodd"/>
            <path id="Path_14651" data-name="Path 14651" d="M5309.537,2150.729a111.984,111.984,0,0,0-10.887,6.123l-18.161-18.52c-1.719,7.852-2.181,21.879-.478,30.658,1.046,5.386,1.983,7.022,6.638,9.757a35.494,35.494,0,0,0,8.989,3.879,17.948,17.948,0,0,0,11.4-1.485c4.935-2.365,25.455-12.581,36.5-18.475a34,34,0,0,0-.415-6.337c-10.658,5.62-21.918,9.408-27.095,12.082-.517-1.931-3.5-12.243-5.292-16.023C5310.382,2151.91,5309.9,2151.148,5309.537,2150.729Z" fill="#1abac6" fill-rule="evenodd"/>
            <path id="Path_14652" data-name="Path 14652" d="M5314.157,2150.867c2.5,2.54,3.706,7.446,4.245,10.924,4.442-1.859,14.824-6.37,23.453-10.187a21.1,21.1,0,0,0-5.245-7.8C5329.305,2146.214,5320.916,2148.589,5314.157,2150.867Z" fill="#06929c" fill-rule="evenodd"/>
          </g>
        </g>
      </g>
    </g>
    <g id="Group_7047" data-name="Group 7047">
      <path id="Path_14653" data-name="Path 14653" d="M5479.922,2137.38l8.912-.028c0,.189-.019,76.818-.056,76.988-.713,3.246-7.94,3.287-8.777.113C5479.949,2214.257,5479.922,2137.6,5479.922,2137.38Z" fill="#1e7e96" fill-rule="evenodd"/>
      <path id="Path_14654" data-name="Path 14654" d="M5484.988,2137.365l3.846-.013c0,.189-.019,76.818-.056,76.988-.327,1.486-2.017,2.3-3.836,2.442C5484.971,2204.909,5484.987,2142.721,5484.988,2137.365Z" fill="#17667a" fill-rule="evenodd"/>
      <path id="Path_14655" data-name="Path 14655" d="M5481.042,2137.788l1.871-.347c0,.057,0,78.739-.009,78.791a3.416,3.416,0,0,1-2.011-1.193C5480.878,2214.979,5481.042,2137.855,5481.042,2137.788Z" fill="#1b9ebf" fill-rule="evenodd"/>
      <path id="Path_14656" data-name="Path 14656" d="M5487.91,2137.407l-1.221.245c0,7.842,0,77.923.008,77.972a1.827,1.827,0,0,0,1.361-.967Z" fill="#1e7e96" fill-rule="evenodd"/>
    </g>
    <g id="Group_7048" data-name="Group 7048">
      <path id="Path_14657" data-name="Path 14657" d="M5411.713,2176.7l8.912-.028c0,.189-.019,76.817-.057,76.988-.712,3.247-7.94,3.287-8.776.113C5411.74,2253.574,5411.713,2176.917,5411.713,2176.7Z" fill="#1e7e96" fill-rule="evenodd"/>
      <path id="Path_14658" data-name="Path 14658" d="M5416.779,2176.681l3.846-.012c0,.189-.019,76.817-.057,76.988-.325,1.486-2.016,2.3-3.834,2.442C5416.763,2244.225,5416.778,2182.038,5416.779,2176.681Z" fill="#17667a" fill-rule="evenodd"/>
      <path id="Path_14659" data-name="Path 14659" d="M5412.833,2177.1l1.871-.347c0,.057,0,78.739-.009,78.791a3.413,3.413,0,0,1-2.011-1.194C5412.669,2254.3,5412.833,2177.172,5412.833,2177.1Z" fill="#1b9ebf" fill-rule="evenodd"/>
      <path id="Path_14660" data-name="Path 14660" d="M5419.7,2176.723l-1.222.245c0,7.842,0,77.924.009,77.973a1.83,1.83,0,0,0,1.362-.967Z" fill="#1e7e96" fill-rule="evenodd"/>
    </g>
    <g id="Group_7049" data-name="Group 7049">
      <path id="Path_14661" data-name="Path 14661" d="M5340.1,2043.754l-11.019,6.345c-29.712,17.25-21.615,12-51.325,29.258l-5.529,3.207a62.67,62.67,0,0,0-6.578,4.266,5.518,5.518,0,0,0-1.567,4.172v1.437a5.988,5.988,0,0,0,2.628,5.248c37.168,21.438,110.749,64.047,147.95,85.512,37.055-21.518,36.322-20.509,73.353-42.067a4,4,0,0,0,.556-.381c.054-.047.11-.112.175-.159a5.92,5.92,0,0,0,1.734-3.049c0-.016.011-.023.011-.039a14.275,14.275,0,0,0,.174-3.047,6.482,6.482,0,0,0-3.318-5.648l-10.193-5.883c-32.61-18.838-101.175-59.512-133.788-78.343C5342.327,2043.982,5340.813,2043.25,5340.1,2043.754Z" fill="#b6ccd6" fill-rule="evenodd"/>
      <path id="Path_14662" data-name="Path 14662" d="M5489.771,2131.068l-12.463,4.715-62.636,38.367v3.446c-.01.166-.01.341-.01.508l75.981-43.6A6.72,6.72,0,0,0,5489.771,2131.068Z" fill="#dceaf0" fill-rule="evenodd"/>
      <path id="Path_14663" data-name="Path 14663" d="M5265.109,2087.386a6.749,6.749,0,0,0-1.047,3.665l150.6,87.053c.01-.659.01-1.342.01-2.017v-2.247L5270.387,2089.3Z" fill="#c5d7e0" fill-rule="evenodd"/>
      <path id="Path_14664" data-name="Path 14664" d="M5414.672,2172.657v-2.914l-129.51-76.8-16.6-7.648a3.99,3.99,0,0,0-3.457,2.089l149.563,86.454v-1.183Z" fill="#dceaf0" fill-rule="evenodd"/>
      <path id="Path_14665" data-name="Path 14665" d="M5414.672,2173.4v.754l75.1-43.082a4.271,4.271,0,0,0-3.577-2.314h-.011l-12.48,5.235-59.031,35.754v3.653Z" fill="#e8f3f7" fill-rule="evenodd"/>
      <path id="Path_14666" data-name="Path 14666" d="M5340.981,2043.937c-35.692,20.74-36.724,20.622-72.415,41.36,71.568,41.317,74.537,43.131,146.106,84.446,35.681-20.736,35.819-20.249,71.511-40.989C5414.613,2087.437,5412.539,2085.254,5340.981,2043.937Z" fill="#f4fafc" fill-rule="evenodd"/>
    </g>
    <g id="Group_7056" data-name="Group 7056">
      <g id="Group_7050" data-name="Group 7050">
        <path id="Path_14667" data-name="Path 14667" d="M5416.873,2097.073l-4.434,2.554c-11.956,6.941,3.184-2.028-8.772,4.915l-2.224,1.291a25.176,25.176,0,0,0-2.648,1.716,2.223,2.223,0,0,0-.63,1.679v.578a2.408,2.408,0,0,0,1.057,2.112c14.957,8.626,21.576,12.346,36.546,20.983,14.911-8.658,2.735-1.394,17.637-10.069a1.656,1.656,0,0,0,.223-.153.8.8,0,0,1,.07-.064,2.391,2.391,0,0,0,.7-1.227c0-.007,0-.009,0-.016a5.807,5.807,0,0,0,.07-1.226,2.61,2.61,0,0,0-1.336-2.273l-4.1-2.367c-13.122-7.581-17.723-10.521-30.847-18.1C5417.767,2097.165,5417.158,2096.871,5416.873,2097.073Z" fill="#b6ccd6" fill-rule="evenodd"/>
        <path id="Path_14668" data-name="Path 14668" d="M5454.11,2118.783l-5.015,1.9-13.324,8.58v1.387c0,.067,0,.137,0,.2l18.694-10.685A2.688,2.688,0,0,0,5454.11,2118.783Z" fill="#dceaf0" fill-rule="evenodd"/>
        <path id="Path_14669" data-name="Path 14669" d="M5398.576,2107.773a2.708,2.708,0,0,0-.421,1.475l37.612,21.6c0-.265,0-.54,0-.812v-.9l-35.071-20.594Z" fill="#c5d7e0" fill-rule="evenodd"/>
        <path id="Path_14670" data-name="Path 14670" d="M5435.771,2128.66v-1.173l-29.125-17.477-6.679-3.078a1.606,1.606,0,0,0-1.391.841l37.195,21.363v-.476Z" fill="#dceaf0" fill-rule="evenodd"/>
        <path id="Path_14671" data-name="Path 14671" d="M5435.771,2128.956v.3l18.339-10.477a1.719,1.719,0,0,0-1.44-.932h0l-5.022,2.106-11.873,7.53v1.469Z" fill="#e8f3f7" fill-rule="evenodd"/>
        <path id="Path_14672" data-name="Path 14672" d="M5417.226,2097.147c-14.363,8.346-2.9,1.44-17.259,9.785,28.8,16.627,7,3.93,35.8,20.555,14.359-8.345,2.532-1.29,16.9-9.636C5423.867,2101.225,5446.021,2113.773,5417.226,2097.147Z" fill="#f4fafc" fill-rule="evenodd"/>
      </g>
      <g id="Group_7055" data-name="Group 7055">
        <g id="Group_7053" data-name="Group 7053">
          <g id="Group_7051" data-name="Group 7051">
            <path id="Path_14673" data-name="Path 14673" d="M5423.916,2115.866l-.8-.468a3.548,3.548,0,0,1-.971-.81,4.053,4.053,0,0,1-.885-1.964,29.834,29.834,0,0,1-.14-5.06,6.644,6.644,0,0,1,.927-3.05,26.111,26.111,0,0,1,4.527-4.648q2.678-2.353,5.392-4.671l17.451-14.552a.252.252,0,0,0-.038.019,56.9,56.9,0,0,1,5.362-3.556,5.345,5.345,0,0,1,5.037-.191l.8.468a3.714,3.714,0,0,1,1.8,3.263v-.013a3,3,0,0,1-.948,2.662l-.047.043c-.972.922-2.149,1.805-3.167,2.658-7.7,6.444-16.891,15.36-22.758,23-.054,1.649-.078,2.3-.08,2.31h0v.011l0,.007h0v.007a.907.907,0,0,1-.51.316v0c-2.405,1.4-4.789,2.763-7.2,4.157A3.653,3.653,0,0,1,5423.916,2115.866Z" fill="#e8f3f7" fill-rule="evenodd"/>
            <path id="Path_14674" data-name="Path 14674" d="M5428.926,2114.458l5.946-3.472.017.013.04-1.552a1.475,1.475,0,0,1,.012-.3.244.244,0,0,1,.052-.076c3.1-4.283,13.069-15.209,22.975-23.422.7-.577,1.751-1.45,2.585-2.2a4.552,4.552,0,0,0,1.829-2.81,3,3,0,0,1-.948,2.662l-.047.043c-.972.922-2.149,1.805-3.167,2.658-7.7,6.444-16.891,15.36-22.758,23-.054,1.649-.078,2.3-.08,2.31h0v.011l0,.007h0v.007a.907.907,0,0,1-.51.316v0c-2.445,1.422-4.867,2.808-7.32,4.225A3.68,3.68,0,0,0,5428.926,2114.458Z" fill="#b6ccd6" fill-rule="evenodd"/>
            <path id="Path_14675" data-name="Path 14675" d="M5428.926,2114.458a16.311,16.311,0,0,1,.117-4.2c.356-1.831,2.185-3.428,7.559-8.068,6.454-5.541,12.8-10.856,18.91-15.915.2-.166,6.05-5.37,6.09-7.879a3.244,3.244,0,0,1,.653,3.07,3.666,3.666,0,0,1-1.162,1.589c-.884.816-2.341,1.97-2.661,2.236-10.1,8.294-20.4,19.558-23.489,23.862l-.039,1.883C5433.554,2111.819,5430.323,2113.646,5428.926,2114.458Z" fill="#cfe0e8" fill-rule="evenodd"/>
            <path id="Path_14676" data-name="Path 14676" d="M5449.379,2080.662a56.9,56.9,0,0,1,5.362-3.556,5.345,5.345,0,0,1,5.037-.191l.8.468a3.646,3.646,0,0,1,1.661,2.191c-.459.867-1.7,2.435-7.018,6.937-5.971,5.053-12.269,10.224-18.623,15.678-5.374,4.64-7.2,6.237-7.559,8.068a16.311,16.311,0,0,0-.117,4.2,3.788,3.788,0,0,1-1.16,1.285,3.647,3.647,0,0,1-3.85.123l-.8-.468a3.548,3.548,0,0,1-.971-.81,4.053,4.053,0,0,1-.885-1.964,29.834,29.834,0,0,1-.14-5.06,6.644,6.644,0,0,1,.927-3.05,26.111,26.111,0,0,1,4.527-4.648q2.678-2.353,5.392-4.671l17.46-14.56Z" fill="#e8f3f7" fill-rule="evenodd"/>
            <path id="Path_14677" data-name="Path 14677" d="M5449.379,2080.662a56.9,56.9,0,0,1,5.362-3.556,5.345,5.345,0,0,1,5.037-.191l.8.468a3.646,3.646,0,0,1,1.661,2.191c-.459.867-1.7,2.435-7.018,6.937-5.971,5.053-12.269,10.224-18.623,15.678-5.374,4.64-7.2,6.237-7.559,8.068a16.311,16.311,0,0,0-.117,4.2,3.788,3.788,0,0,1-1.16,1.285,3.647,3.647,0,0,1-3.85.123l-.8-.468a3.548,3.548,0,0,1-.971-.81,4.053,4.053,0,0,1-.885-1.964c-.188-1.2.4-3.8.5-5,.43,2.7,3.093,3.087,4.217,3.041a1.441,1.441,0,0,0,1.4-1.342c.377-1.986,3.081-4.253,4.334-5.354q2.681-2.352,5.392-4.67l15.961-13.523c1.094-1.231-1.831-4.4-4.405-4.5l.77-.643Z" fill="#dceaf0" fill-rule="evenodd"/>
            <path id="Path_14678" data-name="Path 14678" d="M5449.379,2080.662a56.9,56.9,0,0,1,5.362-3.556,6.519,6.519,0,0,1,3.035-.736c-3.781,1.274-7.119,4.276-12.187,8.585-4.207,3.578-17.346,13.5-22.012,19.473a7.956,7.956,0,0,0-1.465,3.57c-.164,3.1.335,6.92,6.736,4.679.007.667.045,1.3.078,1.781a3.788,3.788,0,0,1-1.16,1.285,3.647,3.647,0,0,1-3.85.123l-.8-.468a3.548,3.548,0,0,1-.971-.81,4.053,4.053,0,0,1-.885-1.964,29.834,29.834,0,0,1-.14-5.06,6.644,6.644,0,0,1,.927-3.05,26.111,26.111,0,0,1,4.527-4.648q2.678-2.353,5.392-4.671l17.46-14.56Z" fill="#cfe0e8" fill-rule="evenodd"/>
            <path id="Path_14679" data-name="Path 14679" d="M5449.379,2080.662a56.9,56.9,0,0,1,5.362-3.556c-2.852,2.1-6.83,5.2-8.689,6.783-1.906,1.621-5.988,5.03-10.231,8.493-5.121,4.178-10.515,8.576-13.066,11.84a7.734,7.734,0,0,0-1.208,3.776c-.133,2.519-.123,4.012.484,5.2a4.351,4.351,0,0,0,4.613,2.331,4.992,4.992,0,0,0,2.282-1.067,3.788,3.788,0,0,1-1.16,1.285,3.647,3.647,0,0,1-3.85.123l-.8-.468a3.558,3.558,0,0,1-.97-.81,4.053,4.053,0,0,1-.885-1.964,29.834,29.834,0,0,1-.14-5.06,6.644,6.644,0,0,1,.927-3.05,26.078,26.078,0,0,1,4.527-4.648q2.678-2.353,5.392-4.671l17.46-14.56Z" fill="#b6ccd6" fill-rule="evenodd"/>
            <path id="Path_14680" data-name="Path 14680" d="M5427.551,2107.179a2.533,2.533,0,0,1-.366,1.308c-.4.837-1.016.951-1.97.657a8.883,8.883,0,0,1-1.864-.754c-.956-.742-.3-3.195.845-3.373a4.035,4.035,0,0,1,1.994.467C5427.136,2105.9,5427.6,2106.409,5427.551,2107.179Z" fill="#f4fafc" fill-rule="evenodd"/>
          </g>
          <g id="Group_7052" data-name="Group 7052">
            <path id="Path_14681" data-name="Path 14681" d="M5429.66,2074.911c0,.009.007.023.031.047a82.36,82.36,0,0,0,7.76,4.393c4.948-3.192,10.887-6.031,16.029-8.848,6.151-3.254,8.069-3.693,7.594,1.876.294.209.752-.027.75,0,.023-.3.055-.707.079-1.01,0-.043,0-.08.005-.123a14.255,14.255,0,0,0-.112-3.1,6.763,6.763,0,0,0-1.547-3.321,10.16,10.16,0,0,0-3.675-2.448c-3.528-1.341-6.532.405-9.624,2.123C5441.017,2067.8,5435.55,2071.114,5429.66,2074.911Z" fill="#dceaf0" fill-rule="evenodd"/>
            <path id="Path_14682" data-name="Path 14682" d="M5430.153,2075.3c1.038.689,3.34,1.968,5.087,2.906a179.7,179.7,0,0,1,18.715-10.535c1.353-.672,3.183-1.436,4.1-1.192-.91-2.133-5.287-4.159-8.156-2.645C5448.01,2064.833,5431.865,2074.143,5430.153,2075.3Z" fill="#e8f3f7" fill-rule="evenodd"/>
            <path id="Path_14683" data-name="Path 14683" d="M5449.483,2063.132a14.941,14.941,0,0,1,2.872-1.034,7.251,7.251,0,0,1,5.1.682c.056.027.11.056.164.087l.759.441a7.64,7.64,0,0,1,1.867,1.523,6.763,6.763,0,0,1,1.547,3.321c.242,1.423.14,9.854.1,11.273-2.446,3.138-7.6,4.393-9.81.318-.1-2.118-.205-4.952-.281-5.007-4.808,1.777-11.317,5.614-15.815,7.889a3.776,3.776,0,0,0,1.489-1.435l-.023-1.839c2.686-1.734,9.165-5.767,13.921-8.513.857-.476,1.686-.964,2.413-1.362,2.58-1.365,4.418-2.116,5.648-2.117C5458.681,2062.747,5453.191,2061.927,5449.483,2063.132Z" fill="#cfe0e8" fill-rule="evenodd"/>
            <path id="Path_14684" data-name="Path 14684" d="M5429.66,2074.915a19.55,19.55,0,0,0,1.8,1.132l.8.467c1.7.985,3.434,1.95,5.19,2.834.01.649.026,1.189.026,1.842a3.6,3.6,0,0,1-1.364,1.369,3.8,3.8,0,0,1-3.763.023l-.807-.468a3.734,3.734,0,0,1-1.828-3.071C5429.715,2077.667,5429.66,2076.291,5429.66,2074.915Z" fill="#e8f3f7" fill-rule="evenodd"/>
          </g>
        </g>
        <g id="Group_7054" data-name="Group 7054">
          <path id="Path_14685" data-name="Path 14685" d="M5405.322,2076.044l45.271,31.207-4,1.917-24.848-15.411-20.423-15.8,1.178-1.067Z" fill="#2d394a" fill-rule="evenodd"/>
          <path id="Path_14686" data-name="Path 14686" d="M5404.208,2042.459l4.056-1.9-2.942,35.481-4,1.916-.252-4.021Z" fill="#283240" fill-rule="evenodd"/>
          <path id="Path_14687" data-name="Path 14687" d="M5402.451,2038.655l4.006-1.915.024-.012a3.031,3.031,0,0,1,2.89.535l-1.69,1.122-2.309.8C5404.36,2038.875,5403.378,2038.346,5402.451,2038.655Z" fill="#dceaf0" fill-rule="evenodd"/>
          <path id="Path_14688" data-name="Path 14688" d="M5449.8,2110.437l2.459-1.43,1.558-.484a2.882,2.882,0,0,1-1.414,2.552l-4,1.916C5449.174,2112.618,5449.368,2111.14,5449.8,2110.437Z" fill="#cfe0e8" fill-rule="evenodd"/>
          <path id="Path_14689" data-name="Path 14689" d="M5449.07,2069.3l2.205-1.566,1.8-.349a9.187,9.187,0,0,1,3.539,7.447l-1.732,1.7-2.276.212A12.228,12.228,0,0,0,5449.07,2069.3Z" fill="#dceaf0" fill-rule="evenodd"/>
          <path id="Path_14690" data-name="Path 14690" d="M5405.069,2042.088l45.271,31.208-2.942,35.481-45.272-31.208Z" fill="#000002" fill-rule="evenodd"/>
          <path id="Path_14691" data-name="Path 14691" d="M5422.256,2053.937l10.8,7.442,9.825,33.228c2.839,9.139-8.769,4.62-20.329-3.523-10.28-7.242-17.2-17.613-12.82-23.331Z" fill="#171e29" fill-rule="evenodd"/>
          <path id="Path_14692" data-name="Path 14692" d="M5409.372,2037.263l43.705,30.124-4.007,1.915-6.4-3.719-37.3-26.4Z" fill="#e8f3f7" fill-rule="evenodd"/>
          <path id="Path_14693" data-name="Path 14693" d="M5452.593,2076.748l4.021-1.914-2.8,33.689-4,1.916-.193-8.96Z" fill="#cfe0e8" fill-rule="evenodd"/>
          <path id="Path_14694" data-name="Path 14694" d="M5446.6,2109.167l2.942-35.481-45.271-31.208-2.943,35.482,45.272,31.207Zm-45.557-67.965c.216-2.616,2.153-3.523,4.334-2.022l43.7,30.122a9.077,9.077,0,0,1,3.537,7.447l-2.791,33.69c-.218,2.615-2.155,3.528-4.328,2.031l-43.7-30.124a9.081,9.081,0,0,1-3.544-7.454Z" fill="#212934" fill-rule="evenodd"/>
          <path id="Path_14695" data-name="Path 14695" d="M5422.665,2056.54l9.567,6.595,8.706,29.444c2.516,8.1-7.771,4.094-18.014-3.122-9.109-6.417-15.238-15.606-11.36-20.673Z" fill="#2b374a" fill-rule="evenodd"/>
          <path id="Path_14696" data-name="Path 14696" d="M5429.9,2064.75l2.428,8.21c.922,2.972-2.852,1.5-6.61-1.145-3.341-2.354-5.59-5.726-4.168-7.585l3-3.3C5426.82,2058.417,5429.231,2062.491,5429.9,2064.75Z" fill="#171e29" fill-rule="evenodd"/>
          <path id="Path_14697" data-name="Path 14697" d="M5405.069,2042.088c13.843,24.963,25.815,43.4,42.329,66.69l-45.272-31.208Z" fill="#566e94" fill-rule="evenodd" opacity="0.5"/>
        </g>
      </g>
    </g>
    <g id="Group_7067" data-name="Group 7067">
      <path id="Path_14698" data-name="Path 14698" d="M5341.988,2073.6l50.406,29.1c3.758,2.161,1.916,2.786-.47,4.405l-36.575,19.991-47.042-27.863Z" fill="#e8f3f7" fill-rule="evenodd"/>
      <g id="Group_7066" data-name="Group 7066">
        <g id="Group_7057" data-name="Group 7057">
          <path id="Path_14699" data-name="Path 14699" d="M5355.226,2121.21c.136.124.147,1.008.21,1.081l-43.423-25.235a.545.545,0,0,1-.259-.5q0-.27,0-.54c0-.855,1.192-1.892,1.815-2.314l22.675,15.709,20.749,9.524c-.485.656-1.49,1.7-1.787,2.26Z" fill="#dceaf0" fill-rule="evenodd"/>
          <path id="Path_14700" data-name="Path 14700" d="M5346.3,2067.935l17.626,9.767,25.8,15.467L5375.2,2108.4l-18.208,10.537-3.167-.957-38.809-22.823-1.447-1.453Z" fill="#e8f3f7" fill-rule="evenodd"/>
          <path id="Path_14701" data-name="Path 14701" d="M5346.311,2067.93a1.591,1.591,0,0,1,1.521-.311l43.424,25.235a5.561,5.561,0,0,1-1.531.315l-43.422-25.234Z" fill="#dceaf0" fill-rule="evenodd"/>
          <path id="Path_14702" data-name="Path 14702" d="M5356.99,2118.936l32.735-25.767c.071-.048.142-.091.21-.132.9-.517,1.611-.285,1.613.363l.026,9.251a3.442,3.442,0,0,1-1.815,2.316L5357,2122c-1,.58-1.819.482-1.821-.217l0-.537C5355.172,2120.553,5356.015,2119.609,5356.99,2118.936Z" fill="#c5d7e0" fill-rule="evenodd"/>
          <path id="Path_14703" data-name="Path 14703" d="M5346.416,2070.841c13.271,7.353,26.04,14.893,39.053,22.695l-26.815,21.09-.845.668-3.706,2.854a2.9,2.9,0,0,0-1.143,1.787l0,.538a.619.619,0,0,0,.216.5l-39.031-22.681a.542.542,0,0,1-.26-.5q0-.268,0-.539a2.338,2.338,0,0,1,.755-1.409,30.1,30.1,0,0,1,2.888-2.316l3.136-2.435Z" fill="#f4fafc" fill-rule="evenodd"/>
          <path id="Path_14704" data-name="Path 14704" d="M5354.1,2118.148a2.9,2.9,0,0,0-1.143,1.787l0,.538a.619.619,0,0,0,.216.5l-39.031-22.681a.542.542,0,0,1-.26-.5q0-.268,0-.539a2.338,2.338,0,0,1,.755-1.409Z" fill="#f4fafc" fill-rule="evenodd"/>
        </g>
        <g id="Group_7065" data-name="Group 7065">
          <g id="Group_7058" data-name="Group 7058">
            <path id="Path_14705" data-name="Path 14705" d="M5374.841,2093.532a.411.411,0,0,1,.225.016,4.714,4.714,0,0,1,1.58.977.393.393,0,0,1-.043.467c-.28.245-1.383,1.221-1.813,1.588-.117.1-.192.162-.36.108a4.624,4.624,0,0,1-.765-.365c-.2-.118-.4-.233-.594-.367a2.388,2.388,0,0,1-.327-.26.251.251,0,0,1-.05-.294c.041-.149.152-.238.51-.54C5373.72,2094.425,5374.673,2093.629,5374.841,2093.532Z" fill="#40526f" fill-rule="evenodd"/>
            <path id="Path_14706" data-name="Path 14706" d="M5372.147,2091.941a.429.429,0,0,1,.226.017,4.744,4.744,0,0,1,1.58.977.4.4,0,0,1-.044.467c-.28.245-1.383,1.222-1.813,1.589-.117.1-.193.161-.361.108a4.7,4.7,0,0,1-.764-.365c-.2-.119-.4-.234-.6-.368a2.429,2.429,0,0,1-.327-.259c-.093-.1-.084-.17-.049-.3.042-.148.152-.237.51-.539C5371.026,2092.836,5371.979,2092.038,5372.147,2091.941Z" fill="#40526f" fill-rule="evenodd"/>
            <path id="Path_14707" data-name="Path 14707" d="M5369.5,2090.35a.433.433,0,0,1,.225.016,4.706,4.706,0,0,1,1.58.978.4.4,0,0,1-.043.467c-.28.245-1.383,1.221-1.813,1.588-.117.1-.193.162-.361.108a4.644,4.644,0,0,1-.764-.365c-.2-.118-.4-.233-.594-.367a2.708,2.708,0,0,1-.328-.259.253.253,0,0,1-.049-.3c.041-.148.152-.237.51-.54C5368.383,2091.245,5369.336,2090.447,5369.5,2090.35Z" fill="#40526f" fill-rule="evenodd"/>
            <path id="Path_14708" data-name="Path 14708" d="M5366.821,2088.739a.423.423,0,0,1,.225.016,4.764,4.764,0,0,1,1.58.977.393.393,0,0,1-.044.467c-.281.245-1.383,1.222-1.812,1.589-.117.1-.194.161-.362.108a4.813,4.813,0,0,1-.764-.365c-.2-.119-.4-.234-.6-.369a2.486,2.486,0,0,1-.326-.258c-.094-.1-.085-.17-.05-.3.042-.148.153-.237.51-.539C5365.7,2089.633,5366.653,2088.836,5366.821,2088.739Z" fill="#40526f" fill-rule="evenodd"/>
            <path id="Path_14709" data-name="Path 14709" d="M5364.137,2087.127a.421.421,0,0,1,.225.017,4.7,4.7,0,0,1,1.58.976.391.391,0,0,1-.044.467c-.28.245-1.382,1.222-1.812,1.589-.117.1-.193.161-.361.108a4.6,4.6,0,0,1-.765-.365c-.2-.119-.4-.233-.594-.368a2.506,2.506,0,0,1-.328-.259c-.092-.1-.084-.169-.048-.295.041-.149.152-.237.509-.539C5363.016,2088.021,5363.968,2087.224,5364.137,2087.127Z" fill="#40526f" fill-rule="evenodd"/>
            <path id="Path_14710" data-name="Path 14710" d="M5361.453,2085.515a.441.441,0,0,1,.226.016,4.706,4.706,0,0,1,1.579.978.394.394,0,0,1-.043.467c-.28.245-1.383,1.221-1.812,1.589-.118.1-.194.161-.362.108a4.889,4.889,0,0,1-.765-.365c-.2-.119-.4-.234-.594-.368a2.678,2.678,0,0,1-.327-.259c-.093-.1-.084-.17-.049-.3.041-.148.152-.237.51-.54C5360.332,2086.41,5361.285,2085.612,5361.453,2085.515Z" fill="#40526f" fill-rule="evenodd"/>
            <path id="Path_14711" data-name="Path 14711" d="M5358.77,2083.9a.423.423,0,0,1,.225.016,4.762,4.762,0,0,1,1.58.978.394.394,0,0,1-.043.466c-.281.245-1.384,1.222-1.813,1.589-.117.1-.193.161-.362.108a4.919,4.919,0,0,1-.764-.365c-.2-.119-.4-.234-.594-.369a2.3,2.3,0,0,1-.327-.258c-.094-.1-.085-.17-.05-.3.042-.148.153-.237.511-.539C5357.649,2084.8,5358.6,2084,5358.77,2083.9Z" fill="#40526f" fill-rule="evenodd"/>
            <path id="Path_14712" data-name="Path 14712" d="M5356.086,2082.292a.421.421,0,0,1,.225.017,4.708,4.708,0,0,1,1.58.977.392.392,0,0,1-.043.466c-.281.245-1.383,1.222-1.813,1.589-.117.1-.193.162-.361.108a4.7,4.7,0,0,1-.764-.364c-.205-.119-.4-.234-.6-.368a2.6,2.6,0,0,1-.327-.26c-.093-.1-.084-.169-.049-.295.042-.149.152-.237.51-.539C5354.965,2083.186,5355.918,2082.389,5356.086,2082.292Z" fill="#40526f" fill-rule="evenodd"/>
            <path id="Path_14713" data-name="Path 14713" d="M5353.4,2080.68a.426.426,0,0,1,.225.017,4.73,4.73,0,0,1,1.58.977.4.4,0,0,1-.044.467c-.28.245-1.383,1.221-1.812,1.589-.117.1-.193.161-.362.108a4.71,4.71,0,0,1-.764-.365c-.2-.119-.4-.234-.594-.368a2.522,2.522,0,0,1-.328-.259.255.255,0,0,1-.049-.3c.041-.148.152-.237.51-.54C5352.281,2081.575,5353.234,2080.777,5353.4,2080.68Z" fill="#40526f" fill-rule="evenodd"/>
            <path id="Path_14714" data-name="Path 14714" d="M5350.719,2079.069a.426.426,0,0,1,.226.016,4.753,4.753,0,0,1,1.579.978.393.393,0,0,1-.044.467c-.28.245-1.383,1.221-1.811,1.588-.119.1-.194.161-.362.108a4.763,4.763,0,0,1-.765-.365c-.2-.119-.4-.234-.594-.369a2.4,2.4,0,0,1-.327-.258c-.093-.1-.084-.169-.05-.3.042-.148.153-.236.511-.538C5349.6,2079.963,5350.55,2079.166,5350.719,2079.069Z" fill="#40526f" fill-rule="evenodd"/>
            <path id="Path_14715" data-name="Path 14715" d="M5348.035,2077.457a.429.429,0,0,1,.225.017,4.694,4.694,0,0,1,1.58.977.391.391,0,0,1-.043.467c-.28.245-1.383,1.221-1.813,1.588-.117.1-.192.162-.361.108a4.731,4.731,0,0,1-.764-.364c-.2-.119-.4-.234-.594-.368a2.512,2.512,0,0,1-.328-.26.251.251,0,0,1-.049-.3c.042-.149.152-.237.51-.539C5346.914,2078.351,5347.867,2077.554,5348.035,2077.457Z" fill="#40526f" fill-rule="evenodd"/>
            <path id="Path_14716" data-name="Path 14716" d="M5345.352,2075.845a.434.434,0,0,1,.225.017,4.735,4.735,0,0,1,1.58.977.4.4,0,0,1-.043.467c-.281.245-1.384,1.222-1.813,1.589-.117.1-.193.161-.361.108a4.742,4.742,0,0,1-.765-.365c-.2-.119-.4-.234-.594-.368a2.35,2.35,0,0,1-.327-.259c-.094-.1-.085-.17-.049-.3.041-.148.152-.237.51-.54C5344.231,2076.74,5345.184,2075.943,5345.352,2075.845Z" fill="#40526f" fill-rule="evenodd"/>
          </g>
          <g id="Group_7059" data-name="Group 7059">
            <path id="Path_14717" data-name="Path 14717" d="M5371.281,2096.767a.443.443,0,0,1,.225.017,4.744,4.744,0,0,1,1.58.977.393.393,0,0,1-.043.467c-.28.246-1.383,1.222-1.813,1.589-.117.1-.193.161-.361.108a4.751,4.751,0,0,1-.764-.365c-.2-.119-.4-.234-.594-.368a2.3,2.3,0,0,1-.328-.259.253.253,0,0,1-.049-.3c.042-.147.152-.237.51-.539C5370.16,2097.662,5371.113,2096.865,5371.281,2096.767Z" fill="#40526f" fill-rule="evenodd"/>
            <path id="Path_14718" data-name="Path 14718" d="M5368.587,2095.178a.416.416,0,0,1,.226.017,4.724,4.724,0,0,1,1.58.976.4.4,0,0,1-.045.467c-.279.246-1.383,1.222-1.811,1.589-.117.1-.193.161-.362.108a4.6,4.6,0,0,1-.764-.365c-.2-.118-.4-.234-.6-.368a2.605,2.605,0,0,1-.327-.259c-.093-.1-.084-.169-.049-.295.041-.149.152-.237.51-.539C5367.466,2096.072,5368.418,2095.275,5368.587,2095.178Z" fill="#40526f" fill-rule="evenodd"/>
            <path id="Path_14719" data-name="Path 14719" d="M5365.944,2093.587a.425.425,0,0,1,.225.016,4.72,4.72,0,0,1,1.58.977.394.394,0,0,1-.043.467c-.281.245-1.383,1.222-1.813,1.589-.117.1-.193.161-.361.108a4.752,4.752,0,0,1-.764-.365c-.205-.119-.4-.234-.6-.368a2.494,2.494,0,0,1-.327-.26c-.093-.1-.085-.168-.049-.294.042-.149.152-.237.51-.54C5364.823,2094.481,5365.776,2093.684,5365.944,2093.587Z" fill="#40526f" fill-rule="evenodd"/>
            <path id="Path_14720" data-name="Path 14720" d="M5363.261,2091.975a.431.431,0,0,1,.225.016,4.725,4.725,0,0,1,1.58.978.393.393,0,0,1-.044.466c-.28.246-1.383,1.222-1.812,1.589-.117.1-.194.162-.361.108a4.605,4.605,0,0,1-.765-.365c-.2-.118-.4-.233-.6-.368a2.623,2.623,0,0,1-.327-.259c-.093-.1-.084-.169-.049-.295.041-.148.152-.237.51-.54C5362.139,2092.87,5363.092,2092.072,5363.261,2091.975Z" fill="#40526f" fill-rule="evenodd"/>
            <path id="Path_14721" data-name="Path 14721" d="M5360.576,2090.363a.425.425,0,0,1,.226.017,4.752,4.752,0,0,1,1.58.976.392.392,0,0,1-.044.467c-.28.246-1.383,1.223-1.812,1.59-.118.1-.193.161-.361.108a4.785,4.785,0,0,1-.765-.365c-.2-.119-.4-.234-.594-.369a2.38,2.38,0,0,1-.327-.258.256.256,0,0,1-.05-.3c.042-.148.153-.237.51-.539C5359.456,2091.258,5360.408,2090.461,5360.576,2090.363Z" fill="#40526f" fill-rule="evenodd"/>
            <path id="Path_14722" data-name="Path 14722" d="M5357.893,2088.752a.434.434,0,0,1,.225.016,4.716,4.716,0,0,1,1.58.977.394.394,0,0,1-.043.467c-.28.245-1.383,1.222-1.813,1.589-.117.1-.192.161-.361.108a4.813,4.813,0,0,1-.764-.365c-.2-.119-.4-.233-.594-.368a2.381,2.381,0,0,1-.328-.259.251.251,0,0,1-.049-.295c.042-.149.152-.237.51-.539C5356.772,2089.646,5357.725,2088.849,5357.893,2088.752Z" fill="#40526f" fill-rule="evenodd"/>
            <path id="Path_14723" data-name="Path 14723" d="M5355.21,2087.14a.436.436,0,0,1,.225.016,4.721,4.721,0,0,1,1.58.978.394.394,0,0,1-.044.466c-.28.246-1.383,1.222-1.812,1.589-.117.1-.194.162-.361.108a4.738,4.738,0,0,1-.765-.364c-.2-.119-.4-.234-.6-.369a2.581,2.581,0,0,1-.326-.258c-.094-.1-.085-.17-.049-.3.041-.148.152-.237.509-.54C5354.089,2088.035,5355.042,2087.237,5355.21,2087.14Z" fill="#40526f" fill-rule="evenodd"/>
            <path id="Path_14724" data-name="Path 14724" d="M5352.526,2085.529a.417.417,0,0,1,.226.016,4.737,4.737,0,0,1,1.579.978.392.392,0,0,1-.044.466c-.28.245-1.382,1.222-1.812,1.589-.117.1-.193.161-.361.108a4.821,4.821,0,0,1-.765-.365c-.2-.119-.4-.234-.594-.369a2.449,2.449,0,0,1-.327-.258c-.093-.1-.084-.17-.05-.3.042-.148.153-.237.51-.539C5351.4,2086.423,5352.357,2085.626,5352.526,2085.529Z" fill="#40526f" fill-rule="evenodd"/>
            <path id="Path_14725" data-name="Path 14725" d="M5349.842,2083.917a.435.435,0,0,1,.226.016,4.713,4.713,0,0,1,1.579.978.391.391,0,0,1-.043.466c-.28.245-1.384,1.222-1.812,1.589-.118.1-.193.161-.361.108a4.624,4.624,0,0,1-.765-.365c-.2-.119-.4-.233-.6-.367a2.68,2.68,0,0,1-.327-.26.254.254,0,0,1-.049-.295c.041-.149.152-.237.51-.539C5348.721,2084.811,5349.674,2084.014,5349.842,2083.917Z" fill="#40526f" fill-rule="evenodd"/>
            <path id="Path_14726" data-name="Path 14726" d="M5347.159,2082.3a.424.424,0,0,1,.225.017,4.7,4.7,0,0,1,1.58.977.391.391,0,0,1-.044.466c-.279.246-1.383,1.222-1.812,1.59-.117.1-.193.161-.362.108a4.833,4.833,0,0,1-.764-.365c-.2-.119-.4-.234-.594-.368a2.578,2.578,0,0,1-.327-.259c-.094-.1-.085-.17-.049-.3.041-.148.152-.237.509-.54C5346.038,2083.2,5346.991,2082.4,5347.159,2082.3Z" fill="#40526f" fill-rule="evenodd"/>
            <path id="Path_14727" data-name="Path 14727" d="M5344.475,2080.694a.428.428,0,0,1,.226.016,4.735,4.735,0,0,1,1.579.978.392.392,0,0,1-.043.467c-.281.245-1.383,1.221-1.813,1.588-.117.1-.193.161-.361.108a4.711,4.711,0,0,1-.764-.365c-.2-.119-.4-.234-.595-.369a2.348,2.348,0,0,1-.326-.258c-.094-.1-.085-.17-.05-.3.042-.148.153-.237.51-.538C5343.355,2081.588,5344.307,2080.791,5344.475,2080.694Z" fill="#40526f" fill-rule="evenodd"/>
            <path id="Path_14728" data-name="Path 14728" d="M5341.792,2079.082a.422.422,0,0,1,.225.017,4.708,4.708,0,0,1,1.58.977.4.4,0,0,1-.044.467c-.28.244-1.382,1.221-1.812,1.588-.117.1-.193.162-.361.108a4.636,4.636,0,0,1-.765-.365c-.2-.118-.4-.233-.6-.367a2.739,2.739,0,0,1-.327-.26.254.254,0,0,1-.049-.3c.041-.149.152-.237.51-.539C5340.67,2079.976,5341.623,2079.179,5341.792,2079.082Z" fill="#40526f" fill-rule="evenodd"/>
          </g>
          <g id="Group_7060" data-name="Group 7060">
            <path id="Path_14729" data-name="Path 14729" d="M5367.721,2100a.434.434,0,0,1,.225.017,4.717,4.717,0,0,1,1.581.977.392.392,0,0,1-.045.467c-.28.245-1.382,1.222-1.812,1.588-.117.1-.193.162-.361.109a4.848,4.848,0,0,1-.765-.365c-.2-.119-.4-.234-.594-.368a2.458,2.458,0,0,1-.327-.26c-.093-.1-.084-.169-.049-.295.042-.148.152-.237.51-.539C5366.6,2100.9,5367.552,2100.1,5367.721,2100Z" fill="#40526f" fill-rule="evenodd"/>
            <path id="Path_14730" data-name="Path 14730" d="M5365.027,2098.415a.432.432,0,0,1,.225.015,4.77,4.77,0,0,1,1.58.977.394.394,0,0,1-.044.468c-.279.245-1.383,1.222-1.813,1.589-.116.1-.192.161-.36.108a4.826,4.826,0,0,1-.765-.365c-.2-.119-.4-.234-.594-.369a2.337,2.337,0,0,1-.327-.259.251.251,0,0,1-.049-.3c.041-.148.152-.237.51-.54C5363.906,2099.309,5364.859,2098.512,5365.027,2098.415Z" fill="#40526f" fill-rule="evenodd"/>
            <path id="Path_14731" data-name="Path 14731" d="M5362.384,2096.823a.433.433,0,0,1,.225.016,4.739,4.739,0,0,1,1.58.977.391.391,0,0,1-.044.467c-.28.245-1.382,1.223-1.812,1.59-.117.1-.193.161-.361.108a4.7,4.7,0,0,1-.765-.366c-.2-.118-.4-.234-.594-.368a2.458,2.458,0,0,1-.328-.259c-.092-.1-.083-.169-.048-.295.041-.148.151-.237.509-.539C5361.262,2097.718,5362.215,2096.921,5362.384,2096.823Z" fill="#40526f" fill-rule="evenodd"/>
            <path id="Path_14732" data-name="Path 14732" d="M5359.7,2095.212a.428.428,0,0,1,.226.016,4.721,4.721,0,0,1,1.579.977.394.394,0,0,1-.043.467c-.28.245-1.384,1.221-1.812,1.589-.118.1-.194.161-.362.108a4.761,4.761,0,0,1-.765-.366c-.2-.118-.4-.233-.594-.367a2.523,2.523,0,0,1-.327-.26.252.252,0,0,1-.049-.294c.041-.149.152-.237.51-.54C5358.579,2096.106,5359.532,2095.309,5359.7,2095.212Z" fill="#40526f" fill-rule="evenodd"/>
            <path id="Path_14733" data-name="Path 14733" d="M5357.016,2093.6a.436.436,0,0,1,.226.016,4.736,4.736,0,0,1,1.58.977.392.392,0,0,1-.044.467c-.28.245-1.383,1.222-1.813,1.589-.117.1-.192.162-.361.108a4.791,4.791,0,0,1-.764-.365c-.2-.118-.4-.233-.594-.368a2.389,2.389,0,0,1-.328-.26c-.093-.1-.084-.168-.049-.294.042-.148.153-.238.51-.54C5355.9,2094.5,5356.848,2093.7,5357.016,2093.6Z" fill="#40526f" fill-rule="evenodd"/>
            <path id="Path_14734" data-name="Path 14734" d="M5354.333,2091.988a.424.424,0,0,1,.225.017,4.741,4.741,0,0,1,1.58.976.4.4,0,0,1-.043.467c-.281.245-1.383,1.223-1.813,1.59-.117.1-.193.161-.361.108a4.7,4.7,0,0,1-.764-.366c-.205-.118-.4-.234-.6-.368a2.389,2.389,0,0,1-.327-.259.251.251,0,0,1-.049-.3c.042-.148.152-.237.51-.539C5353.212,2092.883,5354.165,2092.086,5354.333,2091.988Z" fill="#40526f" fill-rule="evenodd"/>
            <path id="Path_14735" data-name="Path 14735" d="M5351.65,2090.377a.433.433,0,0,1,.225.016,4.74,4.74,0,0,1,1.58.977.4.4,0,0,1-.044.467c-.28.245-1.383,1.221-1.812,1.589-.117.1-.193.161-.362.108a4.722,4.722,0,0,1-.764-.366c-.2-.118-.4-.232-.594-.367a2.669,2.669,0,0,1-.328-.259.252.252,0,0,1-.049-.295c.041-.149.152-.237.51-.54C5350.528,2091.271,5351.481,2090.474,5351.65,2090.377Z" fill="#40526f" fill-rule="evenodd"/>
            <path id="Path_14736" data-name="Path 14736" d="M5348.965,2088.765a.444.444,0,0,1,.227.016,4.73,4.73,0,0,1,1.579.977.393.393,0,0,1-.044.467c-.28.245-1.383,1.222-1.812,1.589-.118.1-.193.162-.361.108a4.849,4.849,0,0,1-.765-.364c-.2-.119-.4-.234-.594-.369a2.543,2.543,0,0,1-.328-.259c-.092-.1-.083-.169-.049-.295.042-.148.153-.237.51-.54C5347.845,2089.66,5348.8,2088.862,5348.965,2088.765Z" fill="#40526f" fill-rule="evenodd"/>
            <path id="Path_14737" data-name="Path 14737" d="M5346.282,2087.153a.422.422,0,0,1,.225.017,4.747,4.747,0,0,1,1.58.976.392.392,0,0,1-.043.467c-.28.246-1.383,1.223-1.813,1.59-.117.1-.192.161-.361.108a4.835,4.835,0,0,1-.764-.365c-.2-.119-.4-.235-.594-.369a2.3,2.3,0,0,1-.328-.259c-.093-.1-.085-.169-.049-.3.041-.148.152-.237.51-.539C5345.161,2088.048,5346.114,2087.251,5346.282,2087.153Z" fill="#40526f" fill-rule="evenodd"/>
            <path id="Path_14738" data-name="Path 14738" d="M5343.6,2085.542a.431.431,0,0,1,.225.016,4.719,4.719,0,0,1,1.58.978.394.394,0,0,1-.043.466c-.281.245-1.384,1.222-1.813,1.589-.117.1-.193.161-.361.108a4.7,4.7,0,0,1-.765-.366c-.2-.118-.4-.232-.594-.367a2.535,2.535,0,0,1-.327-.259.251.251,0,0,1-.05-.295c.042-.149.153-.237.511-.54C5342.478,2086.436,5343.431,2085.639,5343.6,2085.542Z" fill="#40526f" fill-rule="evenodd"/>
            <path id="Path_14739" data-name="Path 14739" d="M5340.915,2083.93a.44.44,0,0,1,.226.016,4.76,4.76,0,0,1,1.58.977.394.394,0,0,1-.045.467c-.279.245-1.382,1.222-1.812,1.589-.117.1-.193.162-.361.108a4.826,4.826,0,0,1-.765-.364c-.2-.119-.4-.234-.594-.368a2.726,2.726,0,0,1-.327-.259.254.254,0,0,1-.049-.3c.041-.148.152-.237.509-.54C5339.794,2084.825,5340.746,2084.027,5340.915,2083.93Z" fill="#40526f" fill-rule="evenodd"/>
            <path id="Path_14740" data-name="Path 14740" d="M5338.231,2082.319a.427.427,0,0,1,.226.016,4.727,4.727,0,0,1,1.579.978.394.394,0,0,1-.043.467c-.28.245-1.383,1.221-1.812,1.588-.118.1-.193.161-.361.108a4.737,4.737,0,0,1-.765-.365c-.2-.119-.4-.234-.594-.369a2.287,2.287,0,0,1-.328-.259.253.253,0,0,1-.049-.295c.041-.148.152-.237.51-.539C5337.11,2083.213,5338.063,2082.416,5338.231,2082.319Z" fill="#40526f" fill-rule="evenodd"/>
          </g>
          <g id="Group_7061" data-name="Group 7061">
            <path id="Path_14741" data-name="Path 14741" d="M5364.161,2103.241a.438.438,0,0,1,.226.016,4.7,4.7,0,0,1,1.578.978.39.39,0,0,1-.043.467c-.279.245-1.383,1.221-1.812,1.588-.117.1-.193.161-.361.108a4.722,4.722,0,0,1-.765-.365c-.2-.119-.4-.234-.594-.368a2.4,2.4,0,0,1-.327-.26c-.093-.1-.084-.168-.05-.294.042-.149.153-.237.511-.54C5363.04,2104.135,5363.993,2103.338,5364.161,2103.241Z" fill="#40526f" fill-rule="evenodd"/>
            <path id="Path_14742" data-name="Path 14742" d="M5361.467,2101.651a.435.435,0,0,1,.225.016,4.728,4.728,0,0,1,1.58.977.394.394,0,0,1-.043.467c-.281.245-1.384,1.222-1.813,1.589-.117.1-.193.162-.361.108a4.672,4.672,0,0,1-.764-.365c-.205-.118-.4-.233-.6-.368a2.7,2.7,0,0,1-.326-.258.251.251,0,0,1-.049-.3c.041-.148.152-.237.51-.54C5360.346,2102.545,5361.3,2101.748,5361.467,2101.651Z" fill="#40526f" fill-rule="evenodd"/>
            <path id="Path_14743" data-name="Path 14743" d="M5358.823,2100.06a.426.426,0,0,1,.226.016,4.715,4.715,0,0,1,1.579.977.391.391,0,0,1-.043.467c-.28.245-1.383,1.221-1.812,1.589-.118.1-.193.162-.361.108a4.7,4.7,0,0,1-.765-.365c-.2-.119-.4-.234-.594-.368a2.464,2.464,0,0,1-.328-.26.253.253,0,0,1-.049-.294c.042-.149.152-.238.51-.54C5357.7,2100.954,5358.655,2100.157,5358.823,2100.06Z" fill="#40526f" fill-rule="evenodd"/>
            <path id="Path_14744" data-name="Path 14744" d="M5356.14,2098.448a.421.421,0,0,1,.225.016,4.728,4.728,0,0,1,1.58.977.392.392,0,0,1-.043.467c-.28.245-1.384,1.222-1.813,1.589-.117.1-.192.162-.361.109a4.69,4.69,0,0,1-.764-.366c-.2-.118-.4-.234-.595-.368a2.369,2.369,0,0,1-.327-.259.251.251,0,0,1-.049-.295c.041-.148.152-.237.51-.54C5355.019,2099.343,5355.972,2098.546,5356.14,2098.448Z" fill="#40526f" fill-rule="evenodd"/>
            <path id="Path_14745" data-name="Path 14745" d="M5353.457,2096.837a.426.426,0,0,1,.225.016,4.745,4.745,0,0,1,1.58.977.394.394,0,0,1-.044.467c-.28.245-1.383,1.221-1.812,1.589-.117.1-.194.161-.362.108a4.729,4.729,0,0,1-.764-.366c-.2-.118-.4-.233-.595-.368a2.3,2.3,0,0,1-.326-.259c-.094-.1-.085-.169-.05-.294.042-.149.153-.238.51-.54C5352.336,2097.73,5353.289,2096.934,5353.457,2096.837Z" fill="#40526f" fill-rule="evenodd"/>
            <path id="Path_14746" data-name="Path 14746" d="M5350.773,2095.225a.427.427,0,0,1,.226.016,4.734,4.734,0,0,1,1.579.977.394.394,0,0,1-.044.467c-.28.245-1.382,1.222-1.812,1.589-.117.1-.193.162-.361.108a4.737,4.737,0,0,1-.765-.365c-.2-.119-.4-.234-.594-.368a2.515,2.515,0,0,1-.328-.26.252.252,0,0,1-.049-.294c.042-.149.153-.238.51-.54C5349.651,2096.12,5350.6,2095.322,5350.773,2095.225Z" fill="#40526f" fill-rule="evenodd"/>
            <path id="Path_14747" data-name="Path 14747" d="M5348.089,2093.613a.437.437,0,0,1,.226.016,4.73,4.73,0,0,1,1.579.977.393.393,0,0,1-.043.467c-.28.245-1.384,1.222-1.812,1.59-.118.1-.193.161-.361.108a4.663,4.663,0,0,1-.765-.366c-.2-.118-.4-.234-.6-.368a2.487,2.487,0,0,1-.327-.259c-.093-.1-.084-.169-.049-.3.041-.148.152-.237.51-.539C5346.968,2094.508,5347.921,2093.711,5348.089,2093.613Z" fill="#40526f" fill-rule="evenodd"/>
            <path id="Path_14748" data-name="Path 14748" d="M5345.4,2092a.436.436,0,0,1,.226.016,4.73,4.73,0,0,1,1.58.977.393.393,0,0,1-.044.467c-.279.245-1.383,1.221-1.813,1.589-.116.1-.192.161-.361.108a4.748,4.748,0,0,1-.764-.366c-.2-.118-.4-.233-.594-.368a2.335,2.335,0,0,1-.327-.258c-.094-.1-.085-.17-.05-.295.042-.149.153-.238.51-.54C5344.285,2092.9,5345.238,2092.1,5345.4,2092Z" fill="#40526f" fill-rule="evenodd"/>
            <path id="Path_14749" data-name="Path 14749" d="M5342.722,2090.39a.441.441,0,0,1,.226.016,4.728,4.728,0,0,1,1.579.977.392.392,0,0,1-.043.467c-.281.245-1.383,1.222-1.813,1.589-.117.1-.193.162-.361.108a4.8,4.8,0,0,1-.764-.364c-.205-.12-.4-.235-.595-.369a2.458,2.458,0,0,1-.327-.26c-.093-.1-.085-.168-.049-.294.042-.148.152-.238.51-.54C5341.6,2091.285,5342.554,2090.487,5342.722,2090.39Z" fill="#40526f" fill-rule="evenodd"/>
            <path id="Path_14750" data-name="Path 14750" d="M5340.039,2088.778a.433.433,0,0,1,.225.016,4.765,4.765,0,0,1,1.58.977.4.4,0,0,1-.044.467c-.28.245-1.383,1.222-1.812,1.59-.117.1-.193.161-.361.108a4.683,4.683,0,0,1-.765-.366c-.2-.118-.4-.234-.595-.368a2.487,2.487,0,0,1-.327-.259c-.093-.1-.084-.169-.049-.3.041-.148.152-.237.51-.539C5338.917,2089.673,5339.87,2088.876,5340.039,2088.778Z" fill="#40526f" fill-rule="evenodd"/>
            <path id="Path_14751" data-name="Path 14751" d="M5337.354,2087.167a.438.438,0,0,1,.227.016,4.739,4.739,0,0,1,1.579.977.394.394,0,0,1-.044.467c-.28.245-1.383,1.221-1.812,1.589-.118.1-.193.161-.361.108a4.755,4.755,0,0,1-.765-.366c-.2-.118-.4-.232-.594-.368a2.361,2.361,0,0,1-.327-.258.254.254,0,0,1-.05-.295c.042-.149.153-.237.511-.54C5336.234,2088.061,5337.186,2087.264,5337.354,2087.167Z" fill="#40526f" fill-rule="evenodd"/>
            <path id="Path_14752" data-name="Path 14752" d="M5334.671,2085.555a.435.435,0,0,1,.225.016,4.727,4.727,0,0,1,1.58.977.391.391,0,0,1-.043.467c-.28.245-1.383,1.222-1.813,1.589-.117.1-.193.162-.361.108a4.767,4.767,0,0,1-.764-.364c-.2-.119-.4-.234-.594-.369a2.5,2.5,0,0,1-.328-.259.25.25,0,0,1-.049-.295c.042-.148.152-.237.51-.54C5333.55,2086.45,5334.5,2085.652,5334.671,2085.555Z" fill="#40526f" fill-rule="evenodd"/>
          </g>
          <g id="Group_7062" data-name="Group 7062">
            <path id="Path_14753" data-name="Path 14753" d="M5360.6,2106.477a.424.424,0,0,1,.225.017,4.72,4.72,0,0,1,1.58.977.392.392,0,0,1-.044.467c-.279.245-1.383,1.222-1.813,1.589-.116.1-.192.161-.36.108a4.847,4.847,0,0,1-.765-.365c-.2-.119-.4-.234-.594-.368a2.47,2.47,0,0,1-.327-.259.254.254,0,0,1-.05-.3c.042-.148.153-.237.511-.539C5359.48,2107.372,5360.433,2106.574,5360.6,2106.477Z" fill="#40526f" fill-rule="evenodd"/>
            <path id="Path_14754" data-name="Path 14754" d="M5357.907,2104.888a.421.421,0,0,1,.225.016,4.73,4.73,0,0,1,1.58.977.394.394,0,0,1-.044.467c-.28.245-1.383,1.221-1.812,1.589-.117.1-.193.16-.361.108a4.644,4.644,0,0,1-.765-.366c-.2-.118-.4-.233-.594-.368a2.423,2.423,0,0,1-.328-.259c-.093-.1-.084-.169-.048-.294.041-.149.151-.238.509-.54C5356.785,2105.781,5357.738,2104.985,5357.907,2104.888Z" fill="#40526f" fill-rule="evenodd"/>
            <path id="Path_14755" data-name="Path 14755" d="M5355.263,2103.3a.435.435,0,0,1,.226.015,4.752,4.752,0,0,1,1.58.978.392.392,0,0,1-.044.467c-.28.245-1.383,1.221-1.813,1.588-.117.1-.192.161-.361.109a4.769,4.769,0,0,1-.764-.366c-.2-.118-.4-.233-.594-.368a2.287,2.287,0,0,1-.328-.259c-.093-.1-.084-.17-.049-.295.042-.148.153-.238.51-.539C5354.143,2104.19,5355.1,2103.393,5355.263,2103.3Z" fill="#40526f" fill-rule="evenodd"/>
            <path id="Path_14756" data-name="Path 14756" d="M5352.58,2101.685a.423.423,0,0,1,.225.016,4.736,4.736,0,0,1,1.58.977.4.4,0,0,1-.043.467c-.281.245-1.383,1.221-1.813,1.589-.117.1-.193.162-.361.108a4.814,4.814,0,0,1-.764-.365c-.2-.119-.4-.234-.595-.368a2.471,2.471,0,0,1-.327-.26.25.25,0,0,1-.049-.294c.041-.149.152-.238.51-.54C5351.459,2102.579,5352.412,2101.782,5352.58,2101.685Z" fill="#40526f" fill-rule="evenodd"/>
            <path id="Path_14757" data-name="Path 14757" d="M5349.9,2100.072a.431.431,0,0,1,.225.017,4.743,4.743,0,0,1,1.58.977.4.4,0,0,1-.045.467c-.279.245-1.382,1.222-1.811,1.589-.117.1-.193.162-.361.109a4.677,4.677,0,0,1-.765-.366c-.2-.118-.4-.234-.6-.368a2.43,2.43,0,0,1-.327-.259.253.253,0,0,1-.049-.295c.041-.148.152-.237.51-.54C5348.775,2100.968,5349.727,2100.17,5349.9,2100.072Z" fill="#40526f" fill-rule="evenodd"/>
            <path id="Path_14758" data-name="Path 14758" d="M5347.212,2098.462a.44.44,0,0,1,.226.015,4.739,4.739,0,0,1,1.58.978.393.393,0,0,1-.044.467c-.279.245-1.383,1.221-1.812,1.589-.118.1-.193.161-.361.108a4.735,4.735,0,0,1-.765-.366c-.2-.118-.4-.233-.594-.368a2.4,2.4,0,0,1-.328-.259.256.256,0,0,1-.049-.295c.042-.148.152-.237.51-.539C5346.092,2099.355,5347.044,2098.558,5347.212,2098.462Z" fill="#40526f" fill-rule="evenodd"/>
            <path id="Path_14759" data-name="Path 14759" d="M5344.529,2096.85a.423.423,0,0,1,.225.016,4.719,4.719,0,0,1,1.58.977.394.394,0,0,1-.043.467c-.28.245-1.383,1.221-1.813,1.589-.117.1-.192.162-.361.108a4.835,4.835,0,0,1-.764-.365c-.2-.119-.4-.234-.594-.368a2.422,2.422,0,0,1-.328-.26c-.094-.1-.085-.168-.049-.294.041-.149.152-.238.51-.54C5343.408,2097.744,5344.361,2096.947,5344.529,2096.85Z" fill="#40526f" fill-rule="evenodd"/>
            <path id="Path_14760" data-name="Path 14760" d="M5341.846,2095.238a.421.421,0,0,1,.225.016,4.749,4.749,0,0,1,1.58.977.394.394,0,0,1-.044.467c-.28.245-1.383,1.222-1.812,1.59-.118.1-.193.161-.362.108a4.677,4.677,0,0,1-.763-.366c-.205-.118-.4-.234-.6-.368a2.4,2.4,0,0,1-.326-.259c-.094-.1-.085-.17-.05-.3.042-.148.153-.237.511-.54C5340.725,2096.133,5341.677,2095.336,5341.846,2095.238Z" fill="#40526f" fill-rule="evenodd"/>
            <path id="Path_14761" data-name="Path 14761" d="M5339.162,2093.627a.428.428,0,0,1,.226.016,4.738,4.738,0,0,1,1.58.977.4.4,0,0,1-.045.467c-.279.245-1.382,1.221-1.812,1.589-.117.1-.193.161-.361.108a4.682,4.682,0,0,1-.765-.366c-.2-.118-.4-.233-.594-.368a2.421,2.421,0,0,1-.327-.258.254.254,0,0,1-.05-.295c.041-.149.152-.238.51-.54C5338.04,2094.52,5338.993,2093.724,5339.162,2093.627Z" fill="#40526f" fill-rule="evenodd"/>
            <path id="Path_14762" data-name="Path 14762" d="M5336.478,2092.015a.43.43,0,0,1,.226.016,4.72,4.72,0,0,1,1.579.977.393.393,0,0,1-.043.467c-.28.245-1.384,1.222-1.812,1.589-.118.1-.193.162-.361.108a4.849,4.849,0,0,1-.765-.364c-.2-.12-.4-.235-.594-.369a2.389,2.389,0,0,1-.328-.26.252.252,0,0,1-.049-.294c.041-.149.152-.238.51-.54C5335.357,2092.91,5336.31,2092.112,5336.478,2092.015Z" fill="#40526f" fill-rule="evenodd"/>
            <path id="Path_14763" data-name="Path 14763" d="M5333.795,2090.4a.433.433,0,0,1,.225.016,4.754,4.754,0,0,1,1.58.977.393.393,0,0,1-.044.467c-.279.245-1.383,1.222-1.812,1.59-.118.1-.194.161-.362.108a4.711,4.711,0,0,1-.763-.366c-.2-.118-.4-.234-.6-.368a2.333,2.333,0,0,1-.327-.259c-.094-.1-.085-.17-.049-.3.041-.148.152-.237.51-.54C5332.674,2091.3,5333.626,2090.5,5333.795,2090.4Z" fill="#40526f" fill-rule="evenodd"/>
            <path id="Path_14764" data-name="Path 14764" d="M5331.111,2088.792a.421.421,0,0,1,.225.016,4.737,4.737,0,0,1,1.581.977.394.394,0,0,1-.044.467c-.28.245-1.383,1.221-1.813,1.589-.117.1-.193.161-.361.108a4.69,4.69,0,0,1-.764-.366c-.2-.118-.4-.233-.6-.368a2.456,2.456,0,0,1-.327-.258.251.251,0,0,1-.049-.295c.042-.149.152-.237.51-.54C5329.99,2089.686,5330.943,2088.889,5331.111,2088.792Z" fill="#40526f" fill-rule="evenodd"/>
          </g>
          <g id="Group_7063" data-name="Group 7063">
            <path id="Path_14765" data-name="Path 14765" d="M5357.041,2109.714a.414.414,0,0,1,.225.017,4.734,4.734,0,0,1,1.58.976.393.393,0,0,1-.044.467c-.28.245-1.383,1.222-1.812,1.589-.117.1-.194.161-.362.108a4.67,4.67,0,0,1-.763-.365c-.205-.119-.4-.234-.6-.368a2.591,2.591,0,0,1-.326-.259.252.252,0,0,1-.05-.295c.042-.149.153-.237.511-.539C5355.92,2110.608,5356.873,2109.811,5357.041,2109.714Z" fill="#40526f" fill-rule="evenodd"/>
            <path id="Path_14766" data-name="Path 14766" d="M5354.346,2108.124a.426.426,0,0,1,.226.016,4.726,4.726,0,0,1,1.579.977.39.39,0,0,1-.043.467c-.28.245-1.384,1.222-1.812,1.589-.118.1-.193.162-.361.108a4.624,4.624,0,0,1-.765-.365c-.2-.118-.4-.234-.594-.368a2.382,2.382,0,0,1-.328-.259c-.093-.1-.084-.17-.049-.3.042-.148.152-.238.51-.54C5353.225,2109.019,5354.178,2108.221,5354.346,2108.124Z" fill="#40526f" fill-rule="evenodd"/>
            <path id="Path_14767" data-name="Path 14767" d="M5351.7,2106.532a.438.438,0,0,1,.226.017,4.741,4.741,0,0,1,1.58.977.394.394,0,0,1-.044.467c-.281.245-1.383,1.222-1.813,1.589-.117.1-.193.161-.361.108a4.671,4.671,0,0,1-.764-.365c-.2-.118-.4-.234-.595-.368a2.477,2.477,0,0,1-.326-.259c-.094-.1-.085-.17-.05-.3.042-.148.153-.237.51-.539C5350.583,2107.427,5351.535,2106.63,5351.7,2106.532Z" fill="#40526f" fill-rule="evenodd"/>
            <path id="Path_14768" data-name="Path 14768" d="M5349.02,2104.922a.423.423,0,0,1,.225.015,4.747,4.747,0,0,1,1.58.978.4.4,0,0,1-.044.467c-.28.245-1.382,1.221-1.812,1.588-.117.1-.193.161-.361.109a4.722,4.722,0,0,1-.765-.366c-.2-.119-.4-.234-.594-.368a2.4,2.4,0,0,1-.328-.259.254.254,0,0,1-.049-.295c.042-.148.152-.238.51-.54C5347.9,2105.815,5348.851,2105.018,5349.02,2104.922Z" fill="#40526f" fill-rule="evenodd"/>
            <path id="Path_14769" data-name="Path 14769" d="M5346.336,2103.31a.427.427,0,0,1,.226.016,4.724,4.724,0,0,1,1.579.977.4.4,0,0,1-.043.467c-.28.245-1.384,1.221-1.812,1.588-.118.1-.194.162-.362.109a4.776,4.776,0,0,1-.765-.366c-.2-.118-.4-.233-.594-.367a2.572,2.572,0,0,1-.327-.26.251.251,0,0,1-.049-.294c.041-.149.152-.238.51-.54C5345.215,2104.2,5346.168,2103.407,5346.336,2103.31Z" fill="#40526f" fill-rule="evenodd"/>
            <path id="Path_14770" data-name="Path 14770" d="M5343.652,2101.7a.434.434,0,0,1,.226.017,4.733,4.733,0,0,1,1.58.977.393.393,0,0,1-.044.467c-.28.245-1.383,1.222-1.813,1.589-.117.1-.192.162-.361.109a4.812,4.812,0,0,1-.764-.366c-.2-.118-.4-.234-.594-.368a2.441,2.441,0,0,1-.327-.259c-.094-.1-.085-.17-.05-.295.042-.149.153-.238.511-.54C5342.532,2102.592,5343.484,2101.795,5343.652,2101.7Z" fill="#40526f" fill-rule="evenodd"/>
            <path id="Path_14771" data-name="Path 14771" d="M5340.969,2100.087a.421.421,0,0,1,.225.015,4.739,4.739,0,0,1,1.58.978.394.394,0,0,1-.043.467c-.281.245-1.383,1.221-1.813,1.588-.117.1-.193.162-.361.109a4.67,4.67,0,0,1-.764-.366c-.205-.119-.4-.234-.595-.368a2.35,2.35,0,0,1-.327-.259.251.251,0,0,1-.049-.295c.041-.148.152-.238.51-.539C5339.848,2100.98,5340.8,2100.183,5340.969,2100.087Z" fill="#40526f" fill-rule="evenodd"/>
            <path id="Path_14772" data-name="Path 14772" d="M5338.286,2098.475a.423.423,0,0,1,.225.016,4.736,4.736,0,0,1,1.58.977.394.394,0,0,1-.045.467c-.279.245-1.382,1.221-1.811,1.588-.117.1-.194.162-.362.109a4.794,4.794,0,0,1-.764-.365c-.2-.119-.4-.234-.595-.368a2.458,2.458,0,0,1-.327-.26.251.251,0,0,1-.049-.294c.041-.149.152-.238.51-.54C5337.164,2099.369,5338.117,2098.572,5338.286,2098.475Z" fill="#40526f" fill-rule="evenodd"/>
            <path id="Path_14773" data-name="Path 14773" d="M5335.6,2096.863a.431.431,0,0,1,.227.016,4.749,4.749,0,0,1,1.579.977.393.393,0,0,1-.044.467c-.28.245-1.383,1.222-1.812,1.59-.118.1-.193.161-.361.108a4.762,4.762,0,0,1-.765-.366c-.2-.118-.4-.234-.594-.368a2.33,2.33,0,0,1-.327-.259.255.255,0,0,1-.05-.3c.042-.149.153-.238.511-.54C5334.481,2097.757,5335.433,2096.96,5335.6,2096.863Z" fill="#40526f" fill-rule="evenodd"/>
            <path id="Path_14774" data-name="Path 14774" d="M5332.918,2095.252a.423.423,0,0,1,.225.015,4.73,4.73,0,0,1,1.58.978.393.393,0,0,1-.043.467c-.28.245-1.384,1.221-1.813,1.589-.117.1-.193.161-.361.108a4.683,4.683,0,0,1-.764-.366c-.2-.119-.4-.234-.6-.368a2.369,2.369,0,0,1-.327-.259.251.251,0,0,1-.049-.295c.041-.148.152-.237.51-.539C5331.8,2096.145,5332.75,2095.349,5332.918,2095.252Z" fill="#40526f" fill-rule="evenodd"/>
            <path id="Path_14775" data-name="Path 14775" d="M5330.235,2093.64a.425.425,0,0,1,.225.016,4.734,4.734,0,0,1,1.58.977.394.394,0,0,1-.044.467c-.28.245-1.383,1.221-1.813,1.588-.116.1-.193.162-.361.109a4.827,4.827,0,0,1-.764-.365c-.2-.119-.4-.234-.594-.368a2.43,2.43,0,0,1-.327-.26c-.094-.1-.085-.169-.049-.294.041-.149.152-.238.51-.54C5329.114,2094.534,5330.067,2093.737,5330.235,2093.64Z" fill="#40526f" fill-rule="evenodd"/>
            <path id="Path_14776" data-name="Path 14776" d="M5327.55,2092.028a.429.429,0,0,1,.227.016,4.75,4.75,0,0,1,1.579.977.393.393,0,0,1-.044.467c-.279.245-1.382,1.222-1.812,1.59-.117.1-.193.161-.361.108a4.71,4.71,0,0,1-.764-.366c-.205-.118-.4-.234-.6-.368a2.4,2.4,0,0,1-.327-.259.255.255,0,0,1-.05-.3c.042-.148.153-.238.511-.54C5326.43,2092.923,5327.382,2092.126,5327.55,2092.028Z" fill="#40526f" fill-rule="evenodd"/>
          </g>
          <g id="Group_7064" data-name="Group 7064">
            <path id="Path_14777" data-name="Path 14777" d="M5353.481,2112.95a.444.444,0,0,1,.225.016,4.762,4.762,0,0,1,1.58.977.4.4,0,0,1-.044.467c-.28.246-1.383,1.222-1.812,1.59-.117.1-.194.161-.361.108a4.738,4.738,0,0,1-.765-.365c-.2-.119-.4-.234-.594-.369a2.4,2.4,0,0,1-.328-.259c-.093-.1-.084-.169-.048-.295.04-.148.151-.237.509-.54C5352.359,2113.845,5353.312,2113.048,5353.481,2112.95Z" fill="#40526f" fill-rule="evenodd"/>
            <path id="Path_14778" data-name="Path 14778" d="M5350.786,2111.36a.434.434,0,0,1,.225.017,4.717,4.717,0,0,1,1.58.977.392.392,0,0,1-.043.467c-.28.245-1.383,1.221-1.813,1.588-.117.1-.192.162-.361.109a4.75,4.75,0,0,1-.764-.366c-.2-.119-.4-.233-.594-.367a2.389,2.389,0,0,1-.328-.26.251.251,0,0,1-.049-.295c.041-.148.152-.237.51-.539C5349.665,2112.255,5350.618,2111.458,5350.786,2111.36Z" fill="#40526f" fill-rule="evenodd"/>
            <path id="Path_14779" data-name="Path 14779" d="M5348.144,2109.769a.424.424,0,0,1,.225.017,4.743,4.743,0,0,1,1.58.977.4.4,0,0,1-.045.467c-.279.245-1.382,1.221-1.811,1.588-.118.1-.194.161-.362.108a4.762,4.762,0,0,1-.765-.365c-.2-.119-.4-.233-.594-.368a2.389,2.389,0,0,1-.327-.259c-.093-.1-.084-.169-.049-.3.041-.149.152-.237.509-.539C5347.022,2110.664,5347.975,2109.867,5348.144,2109.769Z" fill="#40526f" fill-rule="evenodd"/>
            <path id="Path_14780" data-name="Path 14780" d="M5345.459,2108.157a.438.438,0,0,1,.226.017,4.71,4.71,0,0,1,1.579.977.393.393,0,0,1-.043.467c-.28.245-1.383,1.222-1.812,1.588-.118.1-.193.162-.361.109a4.7,4.7,0,0,1-.765-.365c-.2-.119-.4-.234-.594-.368a2.469,2.469,0,0,1-.327-.259.254.254,0,0,1-.05-.3c.041-.148.152-.237.51-.539C5344.338,2109.052,5345.291,2108.254,5345.459,2108.157Z" fill="#40526f" fill-rule="evenodd"/>
            <path id="Path_14781" data-name="Path 14781" d="M5342.776,2106.546a.435.435,0,0,1,.225.016,4.75,4.75,0,0,1,1.58.977.394.394,0,0,1-.043.467c-.28.246-1.384,1.222-1.813,1.589-.117.1-.192.161-.361.109a4.826,4.826,0,0,1-.764-.366c-.2-.119-.4-.234-.6-.368a2.383,2.383,0,0,1-.327-.259c-.094-.1-.085-.17-.049-.295.041-.148.152-.238.51-.54C5341.655,2107.44,5342.608,2106.643,5342.776,2106.546Z" fill="#40526f" fill-rule="evenodd"/>
            <path id="Path_14782" data-name="Path 14782" d="M5340.092,2104.935a.416.416,0,0,1,.226.016,4.738,4.738,0,0,1,1.58.977.394.394,0,0,1-.044.467c-.28.245-1.383,1.221-1.813,1.588-.117.1-.193.161-.361.108a4.751,4.751,0,0,1-.764-.365c-.2-.118-.4-.233-.6-.368a2.343,2.343,0,0,1-.326-.259c-.094-.1-.085-.169-.049-.294.041-.149.152-.238.509-.54C5338.972,2105.829,5339.924,2105.032,5340.092,2104.935Z" fill="#40526f" fill-rule="evenodd"/>
            <path id="Path_14783" data-name="Path 14783" d="M5337.409,2103.322a.429.429,0,0,1,.225.017,4.719,4.719,0,0,1,1.58.977.393.393,0,0,1-.044.467c-.28.245-1.382,1.222-1.812,1.589-.117.1-.193.161-.361.108a4.7,4.7,0,0,1-.765-.365c-.2-.119-.4-.234-.594-.368a2.535,2.535,0,0,1-.327-.259.254.254,0,0,1-.05-.3c.042-.148.152-.237.51-.539C5336.287,2104.217,5337.24,2103.419,5337.409,2103.322Z" fill="#40526f" fill-rule="evenodd"/>
            <path id="Path_14784" data-name="Path 14784" d="M5334.725,2101.711a.438.438,0,0,1,.226.016,4.733,4.733,0,0,1,1.579.978.394.394,0,0,1-.043.467c-.28.245-1.384,1.221-1.812,1.588-.118.1-.193.162-.361.109a4.724,4.724,0,0,1-.765-.366c-.2-.119-.4-.234-.595-.368a2.35,2.35,0,0,1-.327-.259.252.252,0,0,1-.049-.295c.041-.148.152-.238.51-.54C5333.6,2102.6,5334.557,2101.808,5334.725,2101.711Z" fill="#40526f" fill-rule="evenodd"/>
            <path id="Path_14785" data-name="Path 14785" d="M5332.042,2100.1a.414.414,0,0,1,.225.016,4.738,4.738,0,0,1,1.58.977.394.394,0,0,1-.044.467c-.279.245-1.383,1.221-1.813,1.588-.116.1-.193.162-.361.109a4.763,4.763,0,0,1-.764-.366c-.2-.118-.4-.233-.594-.367a2.336,2.336,0,0,1-.327-.26c-.094-.1-.085-.169-.049-.294.041-.149.152-.238.509-.54C5330.921,2100.994,5331.874,2100.2,5332.042,2100.1Z" fill="#40526f" fill-rule="evenodd"/>
            <path id="Path_14786" data-name="Path 14786" d="M5329.358,2098.488a.423.423,0,0,1,.225.016,4.728,4.728,0,0,1,1.58.977.393.393,0,0,1-.043.467c-.281.245-1.383,1.222-1.813,1.59-.117.1-.193.161-.361.108a4.786,4.786,0,0,1-.764-.366c-.2-.119-.4-.234-.6-.368a2.629,2.629,0,0,1-.327-.259.251.251,0,0,1-.049-.3c.041-.149.152-.238.51-.54C5328.237,2099.382,5329.19,2098.584,5329.358,2098.488Z" fill="#40526f" fill-rule="evenodd"/>
            <path id="Path_14787" data-name="Path 14787" d="M5326.674,2096.877a.425.425,0,0,1,.226.015,4.739,4.739,0,0,1,1.58.978.4.4,0,0,1-.044.467c-.28.245-1.383,1.221-1.812,1.588-.117.1-.193.162-.361.109a4.682,4.682,0,0,1-.765-.366c-.2-.119-.4-.234-.6-.368a2.532,2.532,0,0,1-.327-.259c-.093-.1-.084-.17-.049-.295.041-.148.152-.238.51-.539C5325.553,2097.77,5326.506,2096.974,5326.674,2096.877Z" fill="#40526f" fill-rule="evenodd"/>
            <path id="Path_14788" data-name="Path 14788" d="M5323.991,2095.265a.428.428,0,0,1,.226.016,4.74,4.74,0,0,1,1.579.977.393.393,0,0,1-.044.467c-.279.245-1.383,1.221-1.812,1.588-.117.1-.193.162-.361.109a4.826,4.826,0,0,1-.765-.365c-.2-.119-.4-.234-.594-.368a2.336,2.336,0,0,1-.327-.26c-.093-.1-.084-.169-.05-.294.042-.149.153-.238.511-.54C5322.87,2096.159,5323.823,2095.362,5323.991,2095.265Z" fill="#40526f" fill-rule="evenodd"/>
          </g>
        </g>
      </g>
    </g>
    <g id="Group_7069" data-name="Group 7069">
      <g id="Group_7068" data-name="Group 7068">
        <path id="Path_14789" data-name="Path 14789" d="M5298.4,2103.419c2.541-1.038,6.533-2.238,7.815-3.983,2.782-3.785,6.217-8.83,8.482-9.075l8.67-.933,6.534,7.97a5.875,5.875,0,0,1-3.9.936c-2.17-.254-6.509-3.371-6.959-2.814l-4.128,5.1,5.936-2.625c2.46-.406,3.693.547,3.9,1.448.185.8-.6,1.846-2.155,2.578a19.621,19.621,0,0,0-6.234,4.169c-2.135,1.958-4.658,2.22-8.972,2.752-.418.051-7.147,3.2-7.6,3.258Z" fill="#e8a476" fill-rule="evenodd"/>
        <path id="Path_14790" data-name="Path 14790" d="M5322.066,2092.935c-.393-.92-1.867-1.174-3.291-.567s-2.258,1.847-1.865,2.767l1,4.174c2.471-1.11,3.049-1.56,5.108-1.307C5322.933,2097.335,5322.251,2093.366,5322.066,2092.935Z" fill="#dfebf0" fill-rule="evenodd"/>
      </g>
      <path id="Path_14791" data-name="Path 14791" d="M5270.343,2109.375l32.573-8.256c3.658,0,4.865,7.874,2.36,9.22l-31.907,14.3c-4.1.64-7.1-.132-8.478-1.805-1.645-1.992-1.179-5.2-.032-7.915C5265.909,2112.435,5267.492,2110.884,5270.343,2109.375Z" fill="#d2eefc" fill-rule="evenodd"/>
      <path id="Path_14792" data-name="Path 14792" d="M5306.363,2105.023c.51,2.191.205,4.622-1.087,5.316l-31.907,14.3c-4.1.64-6.879-.336-8.478-1.805Z" fill="#b2d9ed" fill-rule="evenodd"/>
    </g>
    <path id="Path_14793" data-name="Path 14793" d="M5272.082,2069.768c10.826,6.666,1.244,43.184,7.725,52.823-4.927,1.49-13.84,2.457-15.636-.048a6.206,6.206,0,0,1-1.466-3.982c-.753-10.977-2.533-21.892-2.315-29.6C5260.635,2080.329,5263.022,2071.216,5272.082,2069.768Z" fill="#1abac6" fill-rule="evenodd"/>
    <path id="Path_14794" data-name="Path 14794" d="M5272.082,2069.768c10.826,6.666,1.244,43.184,7.725,52.823a57.306,57.306,0,0,1-10.221,1.467,6.838,6.838,0,0,1-2.022-.125c-1.935-10.519-7.677-27.751-7.025-37.47C5261,2079.543,5263.783,2071.311,5272.082,2069.768Z" fill="#1abac6" fill-rule="evenodd"/>
    <path id="Path_14795" data-name="Path 14795" d="M5270.51,2070.173a12.844,12.844,0,0,0-8.123,9.778c-2.864,13.276,6.3,31.532,7.121,46.216.444,7.9-3.621,21.083-3.129,34.595.528,14.524,27.625,28.708,40.913,20.159,1.332-.856,5.217-19.968,5.2-20.025-2.315-7.19-6.536-16.715-6.384-23.651.391-17.811,8.659-32.586,6.811-41.551a16.428,16.428,0,0,0-6-9.226C5299.8,2080.751,5278.613,2066.818,5270.51,2070.173Z" fill="#06929c" fill-rule="evenodd"/>
    <g id="Group_7072" data-name="Group 7072">
      <g id="Group_7070" data-name="Group 7070">
        <path id="Path_14796" data-name="Path 14796" d="M5276.829,2078.884c-.868,5.7,14.044,8.967,18.886,3.728.425-6.673-.241-11.278,2.336-17.815l-15.122-4.417-3.947-1.462C5280.865,2067.232,5279.806,2071.391,5276.829,2078.884Z" fill="#e8a476" fill-rule="evenodd"/>
        <path id="Path_14797" data-name="Path 14797" d="M5305.358,2068.625c-.442.771-6.244.585-8.471-.252-2.557,3.98-14.606,4.626-17.685,3.835.171-1.454.725-3.2.718-4.068-.017-1.926-.972-2.149-1.334-2.639-1.972-2.672-5.809-5.515-7.428-9.681C5273.08,2049.889,5290.38,2057.7,5305.358,2068.625Z" fill="#db9669" fill-rule="evenodd"/>
      </g>
      <path id="Path_14798" data-name="Path 14798" d="M5305.28,2068.694c-1.211.869-9.3-2.86-10.018-2.794-6.88.642-15.219,1.575-16.676-.4-1.972-2.672-5.809-5.515-7.428-9.681-2.587-6.656-2.472-14.3,3.474-19.872,10.341-9.694,27.488-3.668,30.358,6.675,1.176,4.242-.294,5.391.034,8.253a19.829,19.829,0,0,0,1.61,3.534c.392.663-.3,3.648-.356,7.367C5306.232,2064.974,5306.084,2068.118,5305.28,2068.694Z" fill="#e8a476" fill-rule="evenodd"/>
      <path id="Path_14799" data-name="Path 14799" d="M5305.28,2068.694a3.126,3.126,0,0,1-2.037-.094,8.668,8.668,0,0,1-2.333-4.333c-.225-4.456,1.723-8.244,1.564-10.044-.337-3.8-1.445-1.8-.332-6.031.561-2.133-.1-2.927-.519-4.13-.758-2.169.358-6.7.359-6.7a9.6,9.6,0,0,1,1.612,2.087,12.474,12.474,0,0,1,1.4,3.175c1.176,4.242-.294,5.391.034,8.253a19.829,19.829,0,0,0,1.61,3.534c.392.663-.3,3.648-.356,7.367C5306.232,2064.974,5306.084,2068.118,5305.28,2068.694Z" fill="#f1b287" fill-rule="evenodd"/>
      <path id="Path_14800" data-name="Path 14800" d="M5271.158,2055.82c-2.586-6.656-2.472-14.3,3.474-19.872a20.345,20.345,0,0,1,12.658-5.2c3.36-.217,10.467,1.1,13.048,3.7.106.1-2.306,3.241-1.252,5.036,1.632,2.779,1,6.749.794,7.491-1.61,5.883-.727,9.1-2.695,12.247-1.665,2.9-2.553,4.851-4.041,5.91-2.542,1.809-10.468,3.888-13.194,2.628C5277.547,2066.643,5271.925,2057.793,5271.158,2055.82Z" fill="#361d07" fill-rule="evenodd"/>
      <g id="Group_7071" data-name="Group 7071">
        <path id="Path_14801" data-name="Path 14801" d="M5296.936,2060.045c.483-1.777-.1-2.363-.84-2.113a4.92,4.92,0,0,0-2.373,3.407c-.757,2.966.968,6.494,3.637,4.841C5298.055,2065.146,5296.907,2062.761,5296.936,2060.045Z" fill="#e8a476" fill-rule="evenodd"/>
        <path id="Path_14802" data-name="Path 14802" d="M5296.936,2060.045c.483-1.777-.1-2.363-.84-2.113a4.92,4.92,0,0,0-2.373,3.407c-.757,2.966.968,6.494,3.637,4.841-2.384.335-2.4-2.571-1.826-4.412C5295.922,2060.519,5296.607,2059.6,5296.936,2060.045Z" fill="#f1b287" fill-rule="evenodd"/>
        <path id="Path_14803" data-name="Path 14803" d="M5295.9,2060.916c.772,1.192,1.066,1.915.885,2.362-.126.31-.56.687-1.376.018A4.325,4.325,0,0,1,5295.9,2060.916Z" fill="#db9669" fill-rule="evenodd"/>
      </g>
      <path id="Path_14804" data-name="Path 14804" d="M5299.872,2034.163c-8.582-4-20.8-2.511-23,1.89,5.491,4.759,3.882,17.6,11.423,23.054C5301.978,2068.989,5311.392,2036.324,5299.872,2034.163Z" fill="#361d07" fill-rule="evenodd"/>
      <path id="Path_14805" data-name="Path 14805" d="M5299.872,2034.163c8.5,4.206,2.259,21.037-3.439,23.918-4.466,2.258-7.431.214-9.7-3.392-3.983-6.336-5.815-17.5-9.858-18.636,4.6,3.988,4.841,13.887,9.033,20.121,2.4,3.564,5.926,6.156,10.407,4.154C5305.043,2056.428,5308.932,2035.862,5299.872,2034.163Z" fill="#4a2b12" fill-rule="evenodd"/>
      <path id="Path_14806" data-name="Path 14806" d="M5301.659,2035.521c1.964,5.793.924,17.719-8.042,18.705-10.639,1.171-10.012-16.816-16.2-18.218,3.342,2.023,3.923,6,5.016,9.1,1.856,5.265,5.551,14.075,14.081,9.943C5304.017,2051.414,5304.1,2041.4,5301.659,2035.521Z" fill="#4a2b12" fill-rule="evenodd"/>
      <path id="Path_14807" data-name="Path 14807" d="M5300.942,2034.909c1.392,5.477-.4,16.17-8.992,15.924-8.278-.237-7.692-13.018-13.412-14.11,5.852,2.884,4.086,15.273,13.268,15.544C5301.129,2052.542,5303.43,2040.231,5300.942,2034.909Z" fill="#4a2b12" fill-rule="evenodd"/>
      <path id="Path_14808" data-name="Path 14808" d="M5283.587,2052.738c.452-7.226-2.065-14.806-5.792-17.087-2.644-1.618-5.422-.924-7.337-.192-4.805,1.838-5.91,9.759-2.667,16.974,2.516,5.6,8.479,13.083,12.09,12.874C5282.428,2065.159,5283.13,2060.044,5283.587,2052.738Z" fill="#361d07" fill-rule="evenodd"/>
      <path id="Path_14809" data-name="Path 14809" d="M5283.587,2052.738a27.715,27.715,0,0,0-.043-4c-6.668,4.084-14.065,1.889-17.593-3.988a20.614,20.614,0,0,0,1.84,7.686c2.516,5.6,8.463,14.859,12.074,14.65C5282.413,2066.935,5283.13,2060.044,5283.587,2052.738Z" fill="#241304" fill-rule="evenodd"/>
      <path id="Path_14810" data-name="Path 14810" d="M5300.412,2034.42c.874,4.193.189,7.545-1.193,9.881-4.836,8.164-11.233,3.684-15.144-2.707-1.435-2.346-3.173-4.62-6.288-5.677a13.425,13.425,0,0,1,6.923,5.013c3.689,4.578,8.628,10.09,13.69,2.793A13.241,13.241,0,0,0,5300.412,2034.42Z" fill="#4a2b12" fill-rule="evenodd"/>
    </g>
    <path id="Path_14811" data-name="Path 14811" d="M5303.722,2182.5c5.008-1.258,6.338-4.6,7.776-9.3,1.886-6.167,2.313-13.986-.136-19.3-.214-.465-.494-1.15-.809-2-1.513-4.071-3.849-11.924-3.726-17.532.39-17.811,7.894-29.708,6.046-38.674a16.433,16.433,0,0,0-6-9.226,90.1,90.1,0,0,0-13.964-8.593l.152,1.889a41.163,41.163,0,0,1,9.979,8.321c-11.54,10.952-5.11,38.049-3.488,50.461C5300.083,2142.617,5302.724,2164.169,5303.722,2182.5Z" fill="#06929c" fill-rule="evenodd"/>
    <path id="Path_14812" data-name="Path 14812" d="M5271.9,2072.13c-.712,10.941,7.736,18.68,27.51,15.643-7.547,12.429-4.892,32.04-2.538,50.167,1.6,12.341,5.255,24.846,5.145,35.87-13.654,9.2-29.568-2.976-32.725-11.238-1.039-9.959,1.39-21.066,2.431-29.351.794-6.322.109-9.311-1.481-15.129C5264.341,2096.5,5256.68,2076.919,5271.9,2072.13Z" fill="#1abac6" fill-rule="evenodd"/>
    <path id="Path_14813" data-name="Path 14813" d="M5278.945,2070.6c-.885-.125-1.642-.458-2.579-.668-2.112.748-2.48,5.884-1.685,7.718,1.7,3.919,6.431,7.02,13.245,8.261,7.758,1.413,17.129-.22,19.459.937.408.2-6.718-5.359-7.558-5.517C5292.14,2079.884,5277.575,2076.8,5278.945,2070.6Z" fill="#1abac6" fill-rule="evenodd"/>
    <path id="Path_14814" data-name="Path 14814" d="M5279.315,2070.454c-.2,3.995,10.532,6.887,16.763,4.595,1.655.842,3.267,4.548,3.3,6.3-7.487,1.785-18.939.881-21.8-4.974C5276.952,2075.091,5277.891,2072.048,5279.315,2070.454Z" fill="#1abac6" fill-rule="evenodd"/>
    <g id="Group_7074" data-name="Group 7074">
      <g id="Group_7073" data-name="Group 7073">
        <path id="Path_14815" data-name="Path 14815" d="M5340.442,2121.753c2.842-3.059,13.218-6.2,13.889-9.223l2.424-10.912c-1.528,1.351-4.048,3.459-5.686,4.672l-5.774,4.276,2.952-4.717c.777-2.37.022-3.733-.837-4.077-.762-.3-1.789.335-2.877,1.738-2.658,3.427-1.727,2.324-5.051,4.986-2.481,1.988-3.554,4.729-4.988,9.7Z" fill="#f1b287" fill-rule="evenodd"/>
        <path id="Path_14816" data-name="Path 14816" d="M5340.442,2121.753c2.842-3.059,13.218-6.2,13.889-9.223l2.424-10.912c-1.528,1.351-2.722,5.318-4.423,6.441l-6.445,4.253-.592-1.746,2.952-4.717a4.471,4.471,0,0,0,.111-3.04c-2.43,5.338-3.746,7.183-6.205,9.153-2.48,1.986-6.225,1.263-7.659,6.23Z" fill="#e8a476" fill-rule="evenodd"/>
      </g>
      <path id="Path_14817" data-name="Path 14817" d="M5314.6,2096.8c2.118,9.491,1.086,25.306,1.225,36.21.056,4.343-2.262,9.66-6.577,11.31-5.2,1.987-7.894-1.882-8.406-6.528-.849-7.7-1.89-17.8-2.2-24.051-.216-4.3-.561-10.9.638-16.286,1.32-5.927,4.544-8.886,7.715-8.758C5309.975,2088.818,5313.33,2091.118,5314.6,2096.8Z" fill="#1abac6" fill-rule="evenodd"/>
      <path id="Path_14818" data-name="Path 14818" d="M5306.186,2129.156l26.779-14.834c6.008-1.921,9.106,6.639,6.48,9.73l-27.174,19.43c-3.884,1.464-6.974,1.322-8.668-.033-2.018-1.613-2.217-4.848-1.65-7.741C5302.472,2133.059,5303.7,2131.216,5306.186,2129.156Z" fill="#1abac6" fill-rule="evenodd"/>
      <path id="Path_14819" data-name="Path 14819" d="M5313.468,2130.558a14.249,14.249,0,0,0,2.234-6.673l17.263-9.563a4.877,4.877,0,0,1,4.707.793Z" fill="#1abac6" fill-rule="evenodd"/>
      <path id="Path_14820" data-name="Path 14820" d="M5339.723,2117.9c.926,2.177.925,4.738-.278,6.154l-27.174,19.43c-3.937,1.977-6.839,1.808-8.533.453,3.2-.789,9.64-6.809,13.824-9.84Z" fill="#06929c" fill-rule="evenodd"/>
      <path id="Path_14821" data-name="Path 14821" d="M5314.6,2096.8c1.593,7.139,1.4,17.318,1.271,26.832a12.5,12.5,0,0,1-3.93,5.927c-.406-14.909-3.035-34.854-4.95-40.862C5309.975,2088.818,5313.33,2091.118,5314.6,2096.8Z" fill="#06929c" fill-rule="evenodd"/>
      <path id="Path_14822" data-name="Path 14822" d="M5300.841,2137.792c-.849-7.7-1.89-17.8-2.2-24.051-.216-4.3-.561-10.9.638-16.286.99-4.443,3.048-7.218,5.354-8.275a261.634,261.634,0,0,1,2.938,36.233c.155,7.722.307,12.844-.914,15.123C5305.366,2142.936,5302.6,2142.813,5300.841,2137.792Z" fill="#1abac6" fill-rule="evenodd"/>
    </g>
    <g id="Group_7078" data-name="Group 7078">
      <g id="Group_7075" data-name="Group 7075">
        <path id="Path_14823" data-name="Path 14823" d="M5284.949,2163.433l3.193-.011c0,.068-.007,24.452-.021,24.512-.255,1.164-2.844,1.177-3.143.041C5284.96,2187.905,5284.949,2163.512,5284.949,2163.433Z" fill="#dceaf0" fill-rule="evenodd"/>
        <path id="Path_14824" data-name="Path 14824" d="M5286.764,2163.426l1.378,0c0,.068-.007,24.452-.021,24.512a1.4,1.4,0,0,1-1.373.875C5286.758,2184.556,5286.764,2165.345,5286.764,2163.426Z" fill="#cfe0e8" fill-rule="evenodd"/>
        <path id="Path_14825" data-name="Path 14825" d="M5285.351,2163.579l.9,0c0,.021,0,24.872-.006,24.891a1.159,1.159,0,0,1-.953-.549C5285.29,2187.9,5285.351,2163.6,5285.351,2163.579Z" fill="#f5fcff" fill-rule="evenodd"/>
      </g>
      <g id="Group_7076" data-name="Group 7076">
        <path id="Path_14826" data-name="Path 14826" d="M5258.383,2148.8l3.193-.009c0,.068-.007,24.451-.021,24.511-.255,1.163-2.843,1.178-3.143.041C5258.393,2173.273,5258.383,2148.879,5258.383,2148.8Z" fill="#dceaf0" fill-rule="evenodd"/>
        <path id="Path_14827" data-name="Path 14827" d="M5260.2,2148.795l1.378,0c0,.068-.007,24.451-.021,24.511-.117.533-.722.824-1.374.875C5260.192,2169.924,5260.2,2150.714,5260.2,2148.795Z" fill="#cfe0e8" fill-rule="evenodd"/>
        <path id="Path_14828" data-name="Path 14828" d="M5258.784,2148.947l.9,0c0,.021,0,24.872-.006,24.89a1.154,1.154,0,0,1-.953-.548C5258.723,2173.264,5258.784,2148.971,5258.784,2148.947Z" fill="#f5fcff" fill-rule="evenodd"/>
      </g>
      <g id="Group_7077" data-name="Group 7077">
        <path id="Path_14829" data-name="Path 14829" d="M5256.747,2138.014c2.129-7.055,5.973-10.486,12.05-13.422h0l-.742,10.842c-4.883,2.6-7.066,10.365-4.114,14.858,2.01,3.059,8.1,5.241,12.409,6.637,1.555.5,19.873,4.351,35.705-.4.518,1.312.577,8.391.606,10.326-19.306,8.262-50.476,3.289-55.286-14.953C5256.966,2150.336,5256.747,2139.777,5256.747,2138.014Z" fill="#248ca6" fill-rule="evenodd"/>
        <path id="Path_14830" data-name="Path 14830" d="M5256.747,2138.014c2.129-7.055,6.234-11.909,12.041-13.43l.013.009c-4.266,8.721-11.495,15.6-4.856,25.7Z" fill="#17667a" fill-rule="evenodd"/>
        <path id="Path_14831" data-name="Path 14831" d="M5258.149,2138.01c.871,7.066,3.579,12.771,15.8,17.657,9.259,3.7,26.085,2.905,38.933.586v10.5c-17.075,7.43-43.63,4.411-52.846-9.088,9.1,8.578,22.217,12.31,36.49,11.257a45.046,45.046,0,0,0,11.975-2.761c1.94-.725,2.26-6.138-.269-5.52-13.665,3.339-44.911,1.546-50.813-16.736a9.439,9.439,0,0,1-.364-4.7C5257.4,2138.152,5258.2,2138.576,5258.149,2138.01Z" fill="#17667a" fill-rule="evenodd"/>
        <path id="Path_14832" data-name="Path 14832" d="M5267.231,2123.81c-13.989,8.306-14.063,21.789-.166,30.095,12.446,7.445,31.872,8.225,45.834,2.351l-1.693-1.909c-12.887,5.561-30.99,4.888-42.554-2.029-12.8-7.653-12.741-20.072.149-27.725l-1.364-.9C5267.369,2123.73,5267.3,2123.769,5267.231,2123.81Z" fill="#248ca6" fill-rule="evenodd"/>
        <path id="Path_14833" data-name="Path 14833" d="M5267.535,2125.3c-13.214,7.85-13.285,20.59-.157,28.441,12.18,7.288,31.439,7.817,44.7,1.595l-.874-.985c-12.887,5.561-30.99,4.888-42.554-2.029-12.383-7.4-12.726-19.263-1.077-26.959C5267.562,2125.338,5267.548,2125.318,5267.535,2125.3Z" fill="#1b9ebf" fill-rule="evenodd"/>
        <path id="Path_14834" data-name="Path 14834" d="M5304.878,2166.194c-7.012,2.156-18.033,2.1-25.285.206-8.654-2.265-18.61-6.562-21.552-14.953l-.3-4.55c5.206,11.944,25.975,19.832,46.719,16.008C5307.015,2162.433,5306.711,2165.63,5304.878,2166.194Z" fill="#1b9ebf" fill-rule="evenodd"/>
      </g>
    </g>
    <path id="Path_14835" data-name="Path 14835" d="M5369.809,2137.087l-9.874-5.7v-1.44l26.5-3.971v1.44Z" fill="#b6ccd6" fill-rule="evenodd"/>
    <path id="Path_14836" data-name="Path 14836" d="M5369.809,2135.647l-9.874-5.7,16.685-9.278,9.819,5.307Z" fill="#001624" fill-rule="evenodd"/>
    <path id="Path_14837" data-name="Path 14837" d="M5369.912,2134.41l-8.348-4.82,14.4-8.023,8.3,4.487Z" fill="#c3e6f7" fill-rule="evenodd"/>
    <g id="Group_7085" data-name="Group 7085">
      <rect id="Rectangle_108" data-name="Rectangle 108" width="18.051" height="19.982" rx="3.736" transform="translate(5372.439 2097.245)" fill="#ed1c24"/>
      <g id="Group_7084" data-name="Group 7084">
        <g id="Group_7083" data-name="Group 7083">
          <path id="Path_14838" data-name="Path 14838" d="M5384.907,2105.9a3.439,3.439,0,0,0-2.909-3.4v-.2a.55.55,0,0,0-.481-.554.534.534,0,0,0-.585.531v.227a3.438,3.438,0,0,0-2.908,3.4c0,5.92-1.646,3.529-1.646,5.293a.284.284,0,0,0,.284.284h9.606a.284.284,0,0,0,.284-.284v-.082C5386.552,2109.593,5384.907,2111.673,5384.907,2105.9Zm-3.442,7.783a1.785,1.785,0,0,0,1.781-1.673h-3.562A1.785,1.785,0,0,0,5381.465,2113.687Z" fill="#fff"/>
          <g id="Group_7079" data-name="Group 7079">
            <path id="Path_14839" data-name="Path 14839" d="M5385.909,2105.863h-.228a.165.165,0,0,1-.164-.16,3.705,3.705,0,0,0-.292-1.3,3.767,3.767,0,0,0-1.856-1.937.165.165,0,0,1-.084-.214l.089-.21a.163.163,0,0,1,.219-.086,4.316,4.316,0,0,1,2.481,3.743A.164.164,0,0,1,5385.909,2105.863Z" fill="#fff"/>
          </g>
          <g id="Group_7080" data-name="Group 7080">
            <path id="Path_14840" data-name="Path 14840" d="M5377.249,2105.863h-.228a.164.164,0,0,1-.165-.168,4.327,4.327,0,0,1,2.481-3.743.163.163,0,0,1,.219.086l.089.21a.165.165,0,0,1-.084.214,3.767,3.767,0,0,0-1.856,1.937,3.7,3.7,0,0,0-.292,1.3A.165.165,0,0,1,5377.249,2105.863Z" fill="#fff"/>
          </g>
          <g id="Group_7081" data-name="Group 7081">
            <path id="Path_14841" data-name="Path 14841" d="M5387.16,2105.863h-.39a.164.164,0,0,1-.163-.161,4.859,4.859,0,0,0-2.813-4.244.164.164,0,0,1-.085-.214l.152-.358a.164.164,0,0,1,.218-.087,5.562,5.562,0,0,1,3.246,4.9A.164.164,0,0,1,5387.16,2105.863Z" fill="#fff"/>
          </g>
          <g id="Group_7082" data-name="Group 7082">
            <path id="Path_14842" data-name="Path 14842" d="M5376.16,2105.863h-.39a.164.164,0,0,1-.165-.167,5.576,5.576,0,0,1,3.246-4.9.163.163,0,0,1,.218.087l.152.358a.166.166,0,0,1-.084.214,4.849,4.849,0,0,0-2.814,4.244A.164.164,0,0,1,5376.16,2105.863Z" fill="#fff"/>
          </g>
        </g>
      </g>
      <path id="Path_14843" data-name="Path 14843" d="M5381.465,2125.97l2.706-10.2h-5.411Z" fill="#ed1c24"/>
    </g>
  </g>
</svg>
