<svg xmlns="http://www.w3.org/2000/svg" width="136.893" height="365.138" viewBox="0 0 136.893 365.138">
  <g id="ILLUSTRATION" transform="translate(-8460.572 -1992.665)">
    <g id="Group_10717" data-name="Group 10717">
      <path id="Path_22494" data-name="Path 22494" d="M8513.52,2325.064c6.871-3.3-13.5-2.743-6.228-10.68,3.11-3.4,21.881-4,32.406-2.674,21.183,2.674,50.476,12.7,46.731,25.406-3.352,11.37-24.423,23.827-69.662,19.971-19.362-1.657-40.187-11.4-38.1-19.63C8479.949,2332.457,8510.445,2326.548,8513.52,2325.064Z" fill="#c1d5de" opacity="0.7" style="mix-blend-mode: multiply;isolation: isolate"/>
      <g id="Group_10706" data-name="Group 10706">
        <path id="Path_22495" data-name="Path 22495" d="M8558.108,2306.292s-1.669,2.985-7.022,3.166c-2.291.078-10.978-.621-10.978-.621-3.9-.785-8.795-.742-9.705,2.277a5.832,5.832,0,0,0-.362,1.816c.181,2.23-.553.367,2.35,3.1a71.081,71.081,0,0,0,8.955,6.1c4.318,2.148,6.539,2.234,7.941,2.083a18.092,18.092,0,0,1,4.546-.315c1.937.259,1.428,2.8,1.407,4.8l5.942,2.592c6.065,1.721,12.194-3.718,12.207-5.249l.1-15.943Z" fill="#231f20"/>
        <g id="Group_10705" data-name="Group 10705">
          <path id="Path_22496" data-name="Path 22496" d="M8551.715,2323.287c-1.677-.048-3.614-.345-8.614-1.829-4.175-1.225-10.286-5.728-10.286-5.728-1.463-1.139-2.645-2.536-2.622-3.856a8.826,8.826,0,0,0-.156,1.285c-.147,2.027,1.553,3.149,2.951,4.167,0,0,4.77,3.787,8.358,5.025,4.646,1.609,5.366,1.479,7.454,1.562,0,0,2.661.146,4.412.237.789.043,1.881.53,1.881.75C8555.067,2324.8,8554.8,2323.382,8551.715,2323.287Z" fill="#383736"/>
          <path id="Path_22497" data-name="Path 22497" d="M8561.2,2329.507l-5.9-2.571c0,.656-.056,1.346-.06,1.976l5.942,2.6c6.065,1.7,12.194-3.723,12.207-5.259l.01-2C8573.39,2325.789,8567.261,2331.215,8561.2,2329.507Z" fill="#383736"/>
        </g>
      </g>
      <g id="Group_10708" data-name="Group 10708">
        <path id="Path_22498" data-name="Path 22498" d="M8527.673,2321s-4.491,5.262-8.347,6.224a55.161,55.161,0,0,1-9.58,1.031c-3.947.077-11.331-.2-12.47,3.7a13.659,13.659,0,0,0-.393,2.618c.258,2.277,2.255,3.373,4.7,4.581a66.793,66.793,0,0,0,8.307,3.377c5,1.527,4.518,1.074,8.248.884a59.4,59.4,0,0,1,6.591-.12c2.079.22,1.57,1.742,1.613,3.787l6.414,2.493c6.513,1.591,11.5-4.089,11.465-5.651l-.509-28.425Z" fill="#231f20"/>
        <g id="Group_10707" data-name="Group 10707">
          <path id="Path_22499" data-name="Path 22499" d="M8522.449,2342.723a49.541,49.541,0,0,1-12.221-.793,28.6,28.6,0,0,1-9.269-4.405c-2.153-1.057-3.917-2.682-3.951-4.041a6.346,6.346,0,0,0-.125,1.328c.268,2.269,2.255,3.356,4.7,4.573a65.34,65.34,0,0,0,8.3,3.364c5,1.527,4.525,1.087,8.256.9,0,0,5.4-.22,5.6-.22,1.234-.056,2.424.41,2.424.643C8526.141,2343.957,8525.753,2342.749,8522.449,2342.723Z" fill="#383736"/>
          <path id="Path_22500" data-name="Path 22500" d="M8532.693,2346.881l-6.366-2.476c0,.669.008,2.243.013,2.9l6.422,2.506c6.511,1.587,11.491-4.089,11.457-5.66l-.064-2.915C8544.184,2342.8,8539.2,2348.464,8532.693,2346.881Z" fill="#383736"/>
        </g>
      </g>
      <g id="Group_10716" data-name="Group 10716">
        <path id="Path_22501" data-name="Path 22501" d="M8539.959,2160.061l6.636,85.2s8.024,41.537,4.239,61.135c-.712,3.673.112,8.244,12.466,8.244,6.92,0,11.107-1.854,11.143-3.785.865-51.3-5.071-63.74-4.9-71.28.224-9.577,1.009-80.739,1.009-80.739Z" fill="#383736"/>
        <path id="Path_22502" data-name="Path 22502" d="M8539.959,2160.061l6.636,85.2s8.024,41.537,4.239,61.135c-.686,3.527.077,7.865,11.06,8.21.1-.932.194-1.88.3-2.864,1.34-12.918-4.007-58.91-7.573-72.279-2.763-10.335-1.034-63.645-.336-83.962Z" fill="#161615" opacity="0.55"/>
        <path id="Path_22503" data-name="Path 22503" d="M8517.783,2175.023s.965,63.8,2.311,79.92c.405,4.869,2.083,15.868,2.351,19.378.875,12.082-1.01,51.675-1.01,51.675,1.444,3,.121,5.39,14.031,4.683,4.238-.225,9.318-3.864,9.521-5.683,0,0,2.837-45.664-.5-68.38-1.144-7.787,8.8-84.971,8.8-84.971Z" fill="#383736"/>
        <path id="Path_22504" data-name="Path 22504" d="M8517.783,2175.023s.965,63.8,2.311,79.92c.405,4.869,2.083,15.868,2.351,19.378.875,12.082-1.01,51.675-1.01,51.675,1.293,2.7.366,4.89,10.185,4.8.607-3.277,1.208-7.028,1.618-11.038.3-2.932-2.07-37.575-4.908-61.144-1.168-9.728-.223-58.759.419-84.642Z" fill="#161615" opacity="0.55"/>
        <g id="Group_10709" data-name="Group 10709">
          <path id="Path_22505" data-name="Path 22505" d="M8562.791,2136.021c-4.42,5.849,8.175,15.14,8.175,15.14,3.438-2.309,25.919-31.456,26.484-43.687.414-8.775-8.224-39.03-12.427-49.008-2.264-5.377-4.872-18.666-21.047-16.055-8.978,1.449-2.92,12.634-1.186,19.509,3.924,15.566,11.771,32.732,11.771,32.732s4.373,11.658,3.848,13.984C8576.693,2116.217,8567.793,2129.409,8562.791,2136.021Z" fill="#fff"/>
        </g>
        <path id="Path_22506" data-name="Path 22506" d="M8587.994,2112.344c4.049,1.96-11.168,28.268-18.99,39.037-3.311-3.234-8.98-11.7-6.213-15.36,5-6.612,13.9-19.8,15.618-27.385.525-2.326-3.848-13.984-3.848-13.984s-7.847-17.166-11.771-32.732c-1.341-5.325-5.248-13.22-2.786-17.187,12.112.382,18.288,8.244,20.323,13.067,3.608,8.566,10.106,32.491,9.236,44.609-.174,2.441-3.891,4.718-3.834,5.578.048.757,5.747-.521,2.044,2.266C8586.869,2110.939,8586.567,2111.652,8587.994,2112.344Z" fill="#407284" opacity="0.17" style="mix-blend-mode: multiply;isolation: isolate"/>
        <path id="Path_22507" data-name="Path 22507" d="M8556.077,2062.834l1.043-21.915-2.755-18.123-19.335,6.155s3.372,12.589,3.979,20.05c.229,2.767-2.639,5.764-4.075,8.116l-8.989,9.99c-1.885,3.079-5.817,7.98-5.817,16.6l12.144,58.166,20.934,8.775,6.77-78.341C8558.125,2069.88,8557.427,2066.236,8556.077,2062.834Z" fill="#efb797"/>
        <path id="Path_22508" data-name="Path 22508" d="M8513.63,2070.038c-5.653,4.406-1.436,42.337-1.436,56.943l-.7,113.625c1.475.772,8.348,7.072,21.383,9.085,4.084.621,12.259-.086,21.491-3.165,3.769-1.246,25.437-10.933,25.437-13.936,0,0-5.571-69.707-2.782-114.321.531-8.589,8.033-33.524,3.829-64.13-2.439-17.776-23.438-11.929-23.438-11.929s-12.5,5.679-22.776,11.528C8530.339,2056.177,8519.512,2063.608,8513.63,2070.038Z" fill="#fff"/>
        <path id="Path_22509" data-name="Path 22509" d="M8532.874,2249.691c-13.035-2.013-19.908-8.313-21.383-9.085l.7-113.625c0-4.081-.341-9.988-.686-16.474,2.125-2.259,3.406-4.566,3.212-6.86,7.149-5.543,13.4-10.4,13.4-10.4,2.643,24.4,5.334,27.5,5.334,58.483,0,13.83.557,55.592,2.911,98.164A23.9,23.9,0,0,1,8532.874,2249.691Z" fill="#acc6cc" opacity="0.12" style="mix-blend-mode: multiply;isolation: isolate"/>
        <path id="Path_22510" data-name="Path 22510" d="M8520.43,2071.866c10.932-.438,10.319,14.945,9.357,20.383-2.226,12.474-6.589,32.223-12.362,45.769a9.963,9.963,0,0,1-5.343,5.435l.112-16.472c0-11.314-2.531-36.617-1.043-49.5A11.113,11.113,0,0,1,8520.43,2071.866Z" fill="#407284" opacity="0.25"/>
        <path id="Path_22511" data-name="Path 22511" d="M8488.776,2114.617s-14.825-9.568-15.916-14.933a64.776,64.776,0,0,1-1.194-10.245s2.911-3.609,5.558,2.943,9.354,9.741,9.354,9.741Z" fill="#efb797"/>
        <g id="Group_10711" data-name="Group 10711">
          <path id="Path_22512" data-name="Path 22512" d="M8500.879,2088.786c.535.567.591.69.281,1.69l-18.228,15.183c-.439.67-1.115.828-1.65.256l-20.379-32.8a1.254,1.254,0,0,1,.116-1.815l18.744-16.356a1.9,1.9,0,0,1,1.13-.614,5.319,5.319,0,0,1,1.112-.039Z" fill="#2a3244"/>
          <path id="Path_22513" data-name="Path 22513" d="M8502.441,2089.133c.224.384.361.776,0,1.138l-18.228,15.183a1.215,1.215,0,0,1-1.884-.14l-20.241-32.618a1.083,1.083,0,0,1,.216-1.608l18.96-16.517c.5-.441.9-.388,1.159.079Z" fill="#454c60"/>
          <path id="Path_22514" data-name="Path 22514" d="M8499.517,2087.766c.139.242.061.363-.06.464l-15.981,12.672c-.383.561-.957.7-1.414.218l-17.665-28.558a.453.453,0,0,1,.064-.6l17.049-14.124c.187-.164.405-.261.617.084Z" fill="#b4e0ef"/>
          <path id="Path_22515" data-name="Path 22515" d="M8481.428,2058.415c.178-.164.41-.268.608.081l17.36,29.783.061-.049c.12-.1.2-.222.06-.464l-17.39-29.841c-.212-.345-.431-.248-.617-.084l-17.049,14.124a.463.463,0,0,0-.074.567Z" fill="#57b6d9"/>
          <path id="Path_22516" data-name="Path 22516" d="M8470.183,2081.9l4.6,7.449,5.234-30.264-6.787,5.621Z" fill="#fff" opacity="0.31"/>
          <path id="Path_22517" data-name="Path 22517" d="M8478.186,2094.846l5.817-33.693-1.276-2.188-5.83,33.8Z" fill="#fff" opacity="0.31"/>
          <g id="Group_10710" data-name="Group 10710">
            <path id="Path_22518" data-name="Path 22518" d="M8472.765,2063.5a.372.372,0,1,1-.538-.2A.412.412,0,0,1,8472.765,2063.5Z" fill="#2a3244"/>
          </g>
        </g>
        <path id="Path_22519" data-name="Path 22519" d="M8479.141,2093.562l6.434-5.83a.62.62,0,0,0,.121-.768l-1.743-3.04a.621.621,0,0,0-.942-.162l-6.515,5.6a.62.62,0,0,0-.137.772l1.824,3.273A.62.62,0,0,0,8479.141,2093.562Z" fill="#8dc63f"/>
        <path id="Path_22520" data-name="Path 22520" d="M8484.74,2111.784s8.494-5.006,1.8-12.891c-4.583-5.4-6.787-8.421-6.787-8.421s-2.785,0-1.22,3.357,2.38,6.606.9,8.089c-1.073,1.065-3.389.811-2.639,2.357A14.735,14.735,0,0,0,8484.74,2111.784Z" fill="#efb797"/>
        <path id="Path_22521" data-name="Path 22521" d="M8532.21,1999.185l-7.666,2.348-6.2,4.879a29.873,29.873,0,0,0,1.535,10.265c.337.994.8,3.711,1,4.232.452,1.158,2.363,2.9,2.664,4.073.4,1.52-.427,2.764.415,4.808,2.457,5.952,5.006,11.1,5.855,13.321,1.457,3.793,4.152,2.734,7.059,1.773a19.377,19.377,0,0,0,8.969-5.293c7.412-7.262,7.021-18.65,6.985-19.52l.035-21.526Z" fill="#efb797"/>
        <path id="Path_22522" data-name="Path 22522" d="M8522.12,2006.494s.151,12.645,1.385,14.021c.763.866,2.552,1.92,2.677,6.166.069,2.294,6.744,6.892,7.262,13.742a6.691,6.691,0,0,1-1.51,5.176c1.394.52,3.136-.122,4.942-.715.767-.248,1.444-.5,2.074-.746l2.2,4.956,5.209,2.406s-3.645-6.72-1.221-11.592c1.237-2.475,8.171-5.255,8.771-10.994l-1.242-4.956c.018-.218.039-.421.056-.615C8546.776,2010.78,8522.12,2006.494,8522.12,2006.494Z" fill="#cc9e7f" opacity="0.27" style="mix-blend-mode: multiply;isolation: isolate"/>
        <g id="Group_10712" data-name="Group 10712">
          <path id="Path_22523" data-name="Path 22523" d="M8556.663,2037.189c-.047-.47,2.411.006,2.618.783.332,1.25,3.661,3.529,3.661,3.529s-2.222,5.23-13.07,11.241c-5.765,3.2-17.9,2.568-17.9,2.568s.949-1.949,1.929-4.126c.908-2.014,1.564-2.6,2.948-2.622a28.489,28.489,0,0,0,11.194-1.964S8557.28,2042.728,8556.663,2037.189Z" fill="#e3faff"/>
        </g>
        <path id="Path_22524" data-name="Path 22524" d="M8515.967,2002.67c-3.729,3.664,2.458,7.505,2.458,7.505-.009-.1.918.045,2.354-.181,2.7-.436,3.522,1.039,3.647,1.095,1.2.53,4.063,14.762,4.063,14.762.06,1.226,2.091.452,2.807-1.411.794-2.084,3.227-3.082,8.055,2.816,0,0,3.031,3.553,5.348,6.9,1.375,1.984,2.341,1.887,2.552,1.8,0,0,7.723-1.259,8.336-4.709.1-.541-.462-4.779,3.169-15.057,2.38-6.763-3.553-19.41-7.861-21.139-1.4-.554,1.229-.311.924-.468-5.2-2.646-11.885-2.053-17.34-1.2C8524.28,1994.988,8515.967,2002.67,8515.967,2002.67Z" fill="#7a7a7a"/>
        <g id="Group_10713" data-name="Group 10713">
          <path id="Path_22525" data-name="Path 22525" d="M8531.533,2023.436a5.243,5.243,0,0,1,4.515,2.363c1.565,2.339.793,3.816.519,4.42a4.653,4.653,0,0,1-1.765,2.173s-1.155-4.953-1.419-5.849A19.036,19.036,0,0,0,8531.533,2023.436Z" fill="#efb797"/>
          <path id="Path_22526" data-name="Path 22526" d="M8530.632,2023.212s-1.443.284.065,2.1a10.671,10.671,0,0,1,2.367,4.167c.293,1.065.818,4.33.818,4.33s1.212,1.1,1.6-1.072a13.273,13.273,0,0,0-.565-5.136C8534.673,2026.689,8532.068,2022.36,8530.632,2023.212Z" fill="#f4c5ae"/>
        </g>
        <path id="Path_22527" data-name="Path 22527" d="M8524.556,2011.181a.315.315,0,0,0,.039.05c.026.036.057.077.091.131a.218.218,0,0,1,.03.065,1,1,0,0,1,.116.2.33.33,0,0,1,.026.047c.044.089.086.188.13.291,0,.009,0,.02.013.026.1.248.207.535.319.856v.009c.047.147.1.3.154.457a1.265,1.265,0,0,0,.057.157c.017.087.048.175.068.259a1.76,1.76,0,0,1,.069.214,13.464,13.464,0,0,0-3.937-6.667c-2.269-1.882-4.511-2.908-.686-6.506,4.053-3.825,13.052-6.553,18.352-7.984-1.7.135-3.359.353-4.921.6-10.2,1.6-18.511,9.282-18.511,9.282-3.729,3.664,2.458,7.505,2.458,7.505-.009-.1.918.045,2.354-.181,2.7-.436,3.522,1.039,3.647,1.095A.431.431,0,0,1,8524.556,2011.181Z" fill="#fff" opacity="0.15"/>
        <path id="Path_22528" data-name="Path 22528" d="M8482.95,2107.25c-2.358,1.949-3,5.607-2.479,6.662,2.949,6,15.415,20.68,17.123,22.351,9.095,8.9,16.77,4.361,19.831-2.82,5.773-13.546,10.137-33.3,12.362-45.77.962-5.437,1.574-20.818-9.357-20.38-9.12.36-12.177,10.03-12.957,17.828-3.01,30.063-5.066,31.678-5.066,31.678s-.178,1.106-.987.329c-2.829-2.731-7.736-8.393-10.9-11.663C8489.638,2104.546,8486.115,2104.634,8482.95,2107.25Z" fill="#fff"/>
        <g id="Group_10714" data-name="Group 10714">
          <path id="Path_22529" data-name="Path 22529" d="M8492.562,2096.992a1.121,1.121,0,0,1-.87-.637,1,1,0,0,1,.318-1.356.826.826,0,0,1,.4-.075,1.109,1.109,0,0,1,.861.647,1.122,1.122,0,0,1,.078.884.8.8,0,0,1-.4.468A.737.737,0,0,1,8492.562,2096.992Zm-.173-1.8a.445.445,0,0,0-.263.05.718.718,0,0,0-.2.993.758.758,0,0,0,.91.46.581.581,0,0,0,.268-.315.971.971,0,0,0-.069-.69A.852.852,0,0,0,8492.389,2095.187Z" fill="#2a3244"/>
        </g>
        <path id="Path_22530" data-name="Path 22530" d="M8501.445,2117.135c.783.75.961-.336.961-.336s2.057-1.615,5.066-31.678c.668-6.7,3.035-14.754,9.456-17.134-1.932,4.53-4.144,12.233-4.826,24.749-.939,17.066-5.226,23.526-3.664,26.406.905,1.654-1.894,1.445-2.871-.134-1.949-3.117-1.092,3.433-1.44,4.444C8503.717,2124.642,8503.794,2120.382,8501.445,2117.135Z" fill="#acc6cc" opacity="0.12" style="mix-blend-mode: multiply;isolation: isolate"/>
        <path id="Path_22531" data-name="Path 22531" d="M8492.626,2123.844c5.787,7.458,11.2,16.66,20.331,15.468-3.855,2.83-9.287,2.9-15.363-3.049-1.708-1.671-14.174-16.351-17.123-22.351-.427-.86-.052-3.456,1.38-5.446C8483.856,2111.566,8488.271,2118.237,8492.626,2123.844Z" fill="#acc6cc" opacity="0.12" style="mix-blend-mode: multiply;isolation: isolate"/>
        <g id="Group_10715" data-name="Group 10715">
          <path id="Path_22532" data-name="Path 22532" d="M8485.317,2043.554l15.8-13.955c1.688-1.49,2.92-4.941,2.739-7.669l-.875-13.169c-.182-2.727-1.712-3.739-3.4-2.248l-15.8,13.954c-1.687,1.491-2.92,4.942-2.739,7.669l.875,13.169C8482.1,2044.033,8483.629,2045.044,8485.317,2043.554Z" fill="#1c75bc"/>
          <path id="Path_22533" data-name="Path 22533" d="M8484.022,2042.648l.719,10.81,5.631-16.418Z" fill="#1c75bc"/>
          <ellipse id="Ellipse_509" data-name="Ellipse 509" cx="2.04" cy="0.973" rx="2.04" ry="0.973" transform="translate(8495.364 2028.667) rotate(-74.595)" fill="#fff"/>
          <ellipse id="Ellipse_510" data-name="Ellipse 510" cx="2.04" cy="0.973" rx="2.04" ry="0.973" transform="translate(8491.453 2032.122) rotate(-74.595)" fill="#fff"/>
          <ellipse id="Ellipse_511" data-name="Ellipse 511" cx="2.04" cy="0.973" rx="2.04" ry="0.973" transform="translate(8487.541 2035.577) rotate(-74.595)" fill="#fff"/>
        </g>
        <path id="Path_22534" data-name="Path 22534" d="M8478.863,2072.782l6.433-5.83a.62.62,0,0,0,.121-.768l-1.743-3.04a.62.62,0,0,0-.941-.162l-6.516,5.6a.619.619,0,0,0-.137.772l1.825,3.273A.62.62,0,0,0,8478.863,2072.782Z" fill="#1c75bc"/>
        <path id="Path_22535" data-name="Path 22535" d="M8473.375,2083.829l6.433-5.83a.618.618,0,0,0,.122-.768l-1.744-3.04a.619.619,0,0,0-.941-.161l-6.514,5.6a.62.62,0,0,0-.139.772l1.826,3.273A.62.62,0,0,0,8473.375,2083.829Z" fill="#8dc63f"/>
        <path id="Path_22536" data-name="Path 22536" d="M8484.628,2082.514l6.433-5.83a.618.618,0,0,0,.122-.767l-1.743-3.04a.62.62,0,0,0-.942-.162l-6.514,5.6a.62.62,0,0,0-.139.772l1.825,3.273A.62.62,0,0,0,8484.628,2082.514Z" fill="#1c75bc"/>
      </g>
    </g>
  </g>
</svg>
