<svg xmlns="http://www.w3.org/2000/svg" width="275.776" height="237.151" viewBox="0 0 275.776 237.151"><g data-name="Group 7086"><path data-name="Path 14614" d="M101.149 87.577l-88.2 50.881 46.773 26.428C37.441 176.794 23.585 183.333.003 196.945c67.8 39.4 1.444.8 69.237 40.2l58.687-33.725 55.392 31.3c112.716-65.5-20.26 12.155 92.46-53.355-58.354-33.677-88.389-43.977-174.63-93.788z" fill="#231f20" fill-rule="evenodd" opacity=".1" style="mix-blend-mode:multiply;isolation:isolate"/><g data-name="Group 7030" fill-rule="evenodd"><path data-name="Path 14615" d="M32.559 62.256l8.911-.027c0 .189-.018 76.817-.056 76.987-.713 3.247-7.94 3.288-8.777.113-.052-.195-.078-76.852-.078-77.073z" fill="#1e7e96"/><path data-name="Path 14616" d="M37.625 62.241l3.845-.012c0 .189-.018 76.817-.056 76.987-.325 1.487-2.016 2.3-3.834 2.443.033-11.875.044-74.062.045-79.418z" fill="#17667a"/><path data-name="Path 14617" d="M33.679 62.665l1.871-.348c0 .057 0 78.739-.009 78.792a3.423 3.423 0 0 1-2.011-1.194c-.017-.059.149-77.184.149-77.25z" fill="#1b9ebf"/><path data-name="Path 14618" d="M40.547 62.283l-1.222.245c0 7.842 0 77.924.009 77.973a1.828 1.828 0 0 0 1.361-.967z" fill="#1e7e96"/></g><g data-name="Group 7046" fill-rule="evenodd"><g data-name="Group 7035"><g data-name="Group 7032"><g data-name="Group 7031"><path data-name="Path 14619" d="M109.848 172.567c-1.014.963-2.194 1.437-4.54 2.837v2.068c-2.43 4.254-4.773 6.188-7.848 5.28-4.288-1.266-5.587-2.321-5.638-5.387-.489-5.225-.6-6.2.809-10.051a30.881 30.881 0 0 1 9.292-4.347c2.49-.793 6.243-2.967 9.86-3.923a2.768 2.768 0 0 1 3.464 2.584c.194 3.268-2.688 8.063-5.399 10.939z" fill="#111214"/><path data-name="Path 14620" d="M109.848 172.567c-1.014.963-2.194 1.437-4.54 2.837v2.068c-2.43 4.254-4.773 6.188-7.848 5.28-4.288-1.266-5.587-2.321-5.638-5.387a32.059 32.059 0 0 1-.27-5.974c5.7 2.915 10.546 2.648 15.864-2.842 1.6-1.648 6.278-5.908 6.681-9.084a3.076 3.076 0 0 1 1.15 2.163c.194 3.268-2.688 8.063-5.399 10.939z"/></g><path data-name="Path 14621" d="M116.302 128.269c-3.775 13.842-7.067 24.619-11.352 38.325a8.9 8.9 0 0 1-4.25 5.275c-3.631 1.95-8.652 2.127-9.639-.69.848-13.928 1.3-21.544 2.489-29.069.987-6.263 1.525-12.231 4.72-17.286 3.679-12.402 21.893-10.716 18.032 3.445z" fill="#001624"/><path data-name="Path 14622" d="M110.864 147.326c-1.845 6.191-3.753 12.357-5.914 19.268a8.9 8.9 0 0 1-4.25 5.275 12.239 12.239 0 0 1-5.255 1.443c.653-4.333 2.231-10.716 3.262-15a21.533 21.533 0 0 1-7.05 2.736c.137-2.127.236-3.037.372-4.862z" fill="#00101a"/></g><g data-name="Group 7034"><g data-name="Group 7033"><path data-name="Path 14623" d="M117.605 178.702c1.2-.322 4.288-5.03 8.619-4.1 5.2 1.111 11.241-1.835 15.934-1.892.836-.01 1.892-.22 2.4.16 2.233 1.666 2.506 3.392.582 5.583a33.563 33.563 0 0 1-6.192 5.115 39.773 39.773 0 0 1-7 3.967c-2.106.875-3.526.755-5.433 1.433l-.121 1.659a9.075 9.075 0 0 1-4.281 2.19c-2.684.236-5.83-1.483-8.091-3.894-.261-2.742-1.238-5.472.173-9.5z" fill="#111214"/><path data-name="Path 14624" d="M145.907 174.197c.877 1.273.652 2.635-.766 4.251a33.563 33.563 0 0 1-6.192 5.115 39.773 39.773 0 0 1-7 3.967c-2.106.875-3.526.755-5.433 1.433l-.121 1.659a9.075 9.075 0 0 1-4.281 2.19c-2.684.236-5.83-1.483-8.091-3.894-.2-2.092-.815-4.178-.469-6.841 5.787 4.43 9.35 1.432 11.575 1.318 3.3-.167 8.071.12 15.416-5.156 1.699-1.221 3.535-2.57 5.362-4.042z"/><path data-name="Path 14625" d="M129.392 180.198c1.343-2.344 1.348-3.883.9-4.81l9.245-1.826c4.531-.94 5.451-.088 4.249.981-4.038 3.594-9.354 4.491-14.394 5.655z" fill="#20232e"/></g><path data-name="Path 14626" d="M130.413 117.655c-.35 14.3-.8 45.447-2.048 60-.9 4.674-11.932 9.1-16.137 4.447-.787-13.906-2.388-25.441-1.747-33.08.533-6.357.7-25.327 3.035-30.928 1.789-7.057 17.203-12.906 16.897-.439z" fill="#001e30"/><path data-name="Path 14627" d="M130.818 119.499c-.35 14.3-1.207 43.6-2.453 58.158-.411 2.145-2.958 4.235-6 5.422.787-10.517 1.328-21.441 2.611-31.814.579-4.669 1.193-8.836 1.629-12.463.624-5.178 1.27-22.595-.823-27.524a9.9 9.9 0 0 0-3.111-4.16 9.461 9.461 0 0 1 5.1 2.985 12.4 12.4 0 0 1 2.864 6.959 11.322 11.322 0 0 1 .183 2.437z" fill="#001624"/><path data-name="Path 14628" d="M120.25 182.631c-3.278.97-6.172.16-7.518-1.213-.842-26.148-1.807-30.252 3.737-40.261 1.941-3.5 4.5-7.129 8.568-14.018-2.675 19.961-2.293 33.403-4.787 55.492z" fill="#00263d"/></g></g><g data-name="Group 7039"><g data-name="Group 7036"><path data-name="Path 14629" d="M40.244 199.292l39.882-.121a23.481 23.481 0 0 1-.253 3.5c-3.19 14.528-35.529 14.712-39.275.5a21.125 21.125 0 0 1-.354-3.879z" fill="#cfe0e8"/><path data-name="Path 14630" d="M41.028 199.29l39.1-.119a23.481 23.481 0 0 1-.253 3.5c-2.925 13.328-30.38 14.581-37.79 3.729 5.392 5.59 12.447 7.451 20.428 6.862a26.609 26.609 0 0 0 6.715-1.317c1.093-.384 1.354-1.272-.058-.916-8.468 2.132-26.921 2.305-28.142-11.739z" fill="#b6ccd6"/><path data-name="Path 14631" d="M46.107 191.349c7.826-4.653 20.476-4.653 28.243-.005s7.738 12.19-.092 16.841-20.467 4.646-28.243 0-7.732-12.191.092-16.836z" fill="#dceaf0"/><path data-name="Path 14632" d="M49.057 191.777c6.183-3.571 16.177-3.571 22.313 0s6.113 9.358-.073 12.929-16.17 3.567-22.313 0-6.108-9.361.073-12.929z" fill="#f5fcff"/><path data-name="Path 14633" d="M67.221 212.368a33.874 33.874 0 0 1-12.309.324c-5.5-.9-10.832-3.451-13.61-8.242 2.547 3.69 7.417 6.586 13.659 7.58a38.379 38.379 0 0 0 12.244-.361c.754-.128.594.569.016.699z" fill="#f5fcff"/></g><g data-name="Group 7037"><path data-name="Path 14634" d="M54.871 116.933l10.628-.033c0 .226-.023 81.407-.068 81.611-.849 3.871-9.468 3.92-10.466.134-.061-.233-.094-81.449-.094-81.712z" fill="#dceaf0"/><path data-name="Path 14635" d="M60.913 116.914l4.586-.014c0 .226-.023 81.407-.068 81.611-.389 1.771-2.4 2.742-4.572 2.911.033-14.158.054-78.12.054-84.508z" fill="#cfe0e8"/><path data-name="Path 14636" d="M56.207 117.42l3.007-.01c0 .069-.006 82.806-.019 82.868-.665.117-2.764-.675-3.174-1.828-.017-.073.186-80.951.186-81.03z" fill="#f5fcff"/><path data-name="Path 14637" d="M54.871 145.182l10.628-.032c0 .225-.023 21.219-.068 21.422-.849 3.872-9.468 3.921-10.466.135-.061-.23-.094-21.263-.094-21.525z" fill="#b6ccd6"/></g><g data-name="Group 7038"><path data-name="Path 14638" d="M24.529 136.69l71.312-.218a90.229 90.229 0 0 1-.454 9.125c-5.7 25.977-63.527 26.306-70.225.9a75.858 75.858 0 0 1-.633-9.807z" fill="#1e7e96"/><path data-name="Path 14639" d="M25.932 136.685l69.909-.213a89.946 89.946 0 0 1-.454 9.125c-5.23 23.831-54.321 26.073-67.57 6.668 9.642 9.994 22.217 12.715 36.49 11.661a47.783 47.783 0 0 0 12.043-2.356c1.955-.685 2.463-4.1-.066-3.482-16.238 3.969-48.171 3.71-50.352-21.403z" fill="#17667a"/><path data-name="Path 14640" d="M35.013 122.485c13.993-8.318 36.613-8.318 50.5-.008 13.911 8.315 13.837 21.8-.163 30.113-13.977 8.308-36.6 8.308-50.5-.009s-13.826-21.789.163-30.096z" fill="#248ca6"/><path data-name="Path 14641" d="M36.397 122.354c13.551 22.2 60.538 16.679 47.548 27.635-13.2 7.625-34.571 7.625-47.705-.01s-13.058-20.002.157-27.625z" fill="#1b9ebf"/><path data-name="Path 14642" d="M72.728 161.803c-3.666 1.128-12.511 1.509-16.022 1.386-7.89-.275-29.861-4.2-31.118-18.374 4.8 12.551 26.177 18.821 46.922 14.861 2.556-.488 2.052 1.562.218 2.127z" fill="#1b9ebf"/></g></g><g data-name="Group 7045"><g data-name="Group 7042"><g data-name="Group 7040"><path data-name="Path 14643" d="M108.913 120.051c4.916-2.771 14.648-9.991 10.164-14.285-4.574-10.88-19.867-6.137-25.686-4.427-8.833 2.595-31.56 8.317-40.238 17.575L37.96 103.631c-1.72 7.852-4.879 18.641-3.176 27.422 1.046 5.385 1.714 7.021 6.368 9.757a35.531 35.531 0 0 0 8.99 3.878 17.945 17.945 0 0 0 11.4-1.484c10.784-5.17 41.024-19.575 47.371-23.153z" fill="#001624"/><path data-name="Path 14644" d="M87.013 121.266c3.508-1.979 23.038-6.152 25.177-10.111.493-.914-.433-2.594-.927-3.459-9.276.014-29.763 5.3-42.245 10.236z" fill="#00101a"/></g><g data-name="Group 7041"><path data-name="Path 14645" d="M126.058 123.85c4.916-2.772 4.879-9.967.9-14.734-2.327-2.79-6.846-4.093-12.65-3.079-9.193 1.6-39.472 13.89-48.149 20.092l-18.161-18.52c-1.719 7.852-2.181 21.879-.478 30.658 1.046 5.386 1.983 7.022 6.638 9.757a35.494 35.494 0 0 0 8.989 3.879 17.948 17.948 0 0 0 11.4-1.485c10.792-5.17 45.166-22.991 51.511-26.568z" fill="#001e30"/><path data-name="Path 14646" d="M77.462 119.613a83.655 83.655 0 0 0-11.3 6.516l-18.161-18.52c-1.719 7.852-2.181 21.879-.478 30.658 1.046 5.386 1.983 7.022 6.638 9.757a35.494 35.494 0 0 0 8.989 3.879 17.948 17.948 0 0 0 11.4-1.485c5.823-2.791 33.347-16.512 41.4-21.168 3.589-3.138 7.348-11.554 6.832-11.368-12.753 10.115-31.978 16.056-39.24 19.806-.544-2.047-.401-14.17-6.08-18.075z" fill="#001624"/><path data-name="Path 14647" d="M120.913 105.939c7.905 1.133 13.01 11.445 6.377 17.585a35.611 35.611 0 0 0-.553-8.34 15.36 15.36 0 0 0-5.824-9.245z" fill="#001624"/><path data-name="Path 14648" d="M120.429 115.913c4.728-2.2 2.4-7.588-.58-8.319-6.375-1.562-29.985 8.324-38.744 12.034 2.884 2.333 4.232 7.708 4.81 11.44 6.786-2.84 27.436-11.869 34.514-15.155z" fill="#00263d"/></g></g><g data-name="Group 7044"><path data-name="Path 14649" d="M68.971 116.496c7.748-2.518 15.187-5.457 22.926-8-1.9-3.236-4.95-4.137-8.217-4.342-10.43 3.15-24.209 8.016-30.531 14.762-1.929-1.939 9.983 4.61 15.822-2.42z" fill="#1abac6"/><g data-name="Group 7043"><path data-name="Path 14650" d="M75.413 120.912a72.353 72.353 0 0 0-9.251 5.217l-18.161-18.52c-1.719 7.852-2.181 21.879-.478 30.658 1.046 5.386 1.983 7.022 6.638 9.757a35.494 35.494 0 0 0 8.989 3.879 17.948 17.948 0 0 0 11.4-1.485c6.964-3.339 23.764-11.952 36.5-18.6.129-6.966-1.444-13.518-6.935-18.738-9.39 3.1-20.575 6.139-27.779 8.99q-.454-.611-.923-1.158z" fill="#1abac6"/><path data-name="Path 14651" d="M77.05 120.006a111.984 111.984 0 0 0-10.887 6.123l-18.161-18.52c-1.719 7.852-2.181 21.879-.478 30.658 1.046 5.386 1.983 7.022 6.638 9.757a35.494 35.494 0 0 0 8.989 3.879 17.948 17.948 0 0 0 11.4-1.485c4.935-2.365 25.455-12.581 36.5-18.475a34 34 0 0 0-.415-6.337c-10.658 5.62-21.918 9.408-27.095 12.082-.517-1.931-3.5-12.243-5.292-16.023-.354-.478-.836-1.24-1.199-1.659z" fill="#1abac6"/><path data-name="Path 14652" d="M81.67 120.144c2.5 2.54 3.706 7.446 4.245 10.924 4.442-1.859 14.824-6.37 23.453-10.187a21.1 21.1 0 0 0-5.245-7.8c-7.305 2.41-15.694 4.785-22.453 7.063z" fill="#06929c"/></g></g></g></g><g data-name="Group 7047" fill-rule="evenodd"><path data-name="Path 14653" d="M247.435 106.657l8.912-.028c0 .189-.019 76.818-.056 76.988-.713 3.246-7.94 3.287-8.777.113-.052-.196-.079-76.853-.079-77.073z" fill="#1e7e96"/><path data-name="Path 14654" d="M252.501 106.642l3.846-.013c0 .189-.019 76.818-.056 76.988-.327 1.486-2.017 2.3-3.836 2.442.029-11.873.045-74.061.046-79.417z" fill="#17667a"/><path data-name="Path 14655" d="M248.555 107.065l1.871-.347c0 .057 0 78.739-.009 78.791a3.416 3.416 0 0 1-2.011-1.193c-.015-.06.149-77.184.149-77.251z" fill="#1b9ebf"/><path data-name="Path 14656" d="M255.423 106.684l-1.221.245c0 7.842 0 77.923.008 77.972a1.827 1.827 0 0 0 1.361-.967z" fill="#1e7e96"/></g><g data-name="Group 7048" fill-rule="evenodd"><path data-name="Path 14657" d="M179.226 145.977l8.912-.028c0 .189-.019 76.817-.057 76.988-.712 3.247-7.94 3.287-8.776.113-.052-.199-.079-76.856-.079-77.073z" fill="#1e7e96"/><path data-name="Path 14658" d="M184.292 145.958l3.846-.012c0 .189-.019 76.817-.057 76.988-.325 1.486-2.016 2.3-3.834 2.442.029-11.874.044-74.061.045-79.418z" fill="#17667a"/><path data-name="Path 14659" d="M180.346 146.377l1.871-.347c0 .057 0 78.739-.009 78.791a3.413 3.413 0 0 1-2.011-1.194c-.015-.05.149-77.178.149-77.25z" fill="#1b9ebf"/><path data-name="Path 14660" d="M187.213 146l-1.222.245c0 7.842 0 77.924.009 77.973a1.83 1.83 0 0 0 1.362-.967z" fill="#1e7e96"/></g><g data-name="Group 7049" fill-rule="evenodd"><path data-name="Path 14661" d="M107.613 13.031l-11.019 6.345c-29.712 17.25-21.615 12-51.325 29.258l-5.529 3.207a62.67 62.67 0 0 0-6.578 4.266 5.518 5.518 0 0 0-1.567 4.172v1.437a5.988 5.988 0 0 0 2.628 5.248c37.168 21.438 110.749 64.047 147.95 85.512 37.055-21.518 36.322-20.509 73.353-42.067a4 4 0 0 0 .556-.381c.054-.047.11-.112.175-.159a5.92 5.92 0 0 0 1.734-3.049c0-.016.011-.023.011-.039a14.275 14.275 0 0 0 .174-3.047 6.482 6.482 0 0 0-3.318-5.648l-10.193-5.883C212.055 73.365 143.49 32.691 110.877 13.86c-1.037-.601-2.551-1.333-3.264-.829z" fill="#b6ccd6"/><path data-name="Path 14662" d="M257.284 100.345l-12.463 4.715-62.636 38.367v3.446c-.01.166-.01.341-.01.508l75.981-43.6a6.72 6.72 0 0 0-.872-3.436z" fill="#dceaf0"/><path data-name="Path 14663" d="M32.622 56.663a6.749 6.749 0 0 0-1.047 3.665l150.6 87.053c.01-.659.01-1.342.01-2.017v-2.247L37.9 58.577z" fill="#c5d7e0"/><path data-name="Path 14664" d="M182.185 141.934v-2.914l-129.51-76.8-16.6-7.648a3.99 3.99 0 0 0-3.457 2.089l149.563 86.454v-1.183z" fill="#dceaf0"/><path data-name="Path 14665" d="M182.185 142.677v.754l75.1-43.082a4.271 4.271 0 0 0-3.577-2.314h-.011l-12.48 5.235-59.031 35.754v3.653z" fill="#e8f3f7"/><path data-name="Path 14666" d="M108.494 13.214c-35.692 20.74-36.724 20.622-72.415 41.36 71.568 41.317 74.537 43.131 146.106 84.446 35.681-20.736 35.819-20.249 71.511-40.989-71.57-41.317-73.644-43.5-145.202-84.817z" fill="#f4fafc"/></g><g data-name="Group 7056" fill-rule="evenodd"><g data-name="Group 7050"><path data-name="Path 14667" d="M184.386 66.35l-4.434 2.554c-11.956 6.941 3.184-2.028-8.772 4.915l-2.224 1.291a25.176 25.176 0 0 0-2.648 1.716 2.223 2.223 0 0 0-.63 1.679v.578a2.408 2.408 0 0 0 1.057 2.112c14.957 8.626 21.576 12.346 36.546 20.983 14.911-8.658 2.735-1.394 17.637-10.069a1.656 1.656 0 0 0 .223-.153.8.8 0 0 1 .07-.064 2.391 2.391 0 0 0 .7-1.227v-.016a5.807 5.807 0 0 0 .07-1.226 2.61 2.61 0 0 0-1.336-2.273l-4.1-2.367c-13.122-7.581-17.723-10.521-30.847-18.1-.418-.241-1.027-.535-1.312-.333z" fill="#b6ccd6"/><path data-name="Path 14668" d="M221.623 88.06l-5.015 1.9-13.324 8.58v1.587l18.694-10.685a2.688 2.688 0 0 0-.355-1.382z" fill="#dceaf0"/><path data-name="Path 14669" d="M166.089 77.05a2.708 2.708 0 0 0-.421 1.475l37.612 21.6V98.413l-35.071-20.594z" fill="#c5d7e0"/><path data-name="Path 14670" d="M203.284 97.937v-1.173l-29.125-17.477-6.679-3.078a1.606 1.606 0 0 0-1.391.841l37.195 21.363v-.476z" fill="#dceaf0"/><path data-name="Path 14671" d="M203.284 98.233v.3l18.339-10.477a1.719 1.719 0 0 0-1.44-.932l-5.022 2.106-11.873 7.53v1.469z" fill="#e8f3f7"/><path data-name="Path 14672" d="M184.739 66.424c-14.363 8.346-2.9 1.44-17.259 9.785 28.8 16.627 7 3.93 35.8 20.555 14.359-8.345 2.532-1.29 16.9-9.636-28.8-16.626-6.646-4.078-35.441-20.704z" fill="#f4fafc"/></g><g data-name="Group 7055"><g data-name="Group 7053"><g data-name="Group 7051"><path data-name="Path 14673" d="M191.429 85.143l-.8-.468a3.548 3.548 0 0 1-.971-.81 4.053 4.053 0 0 1-.885-1.964 29.834 29.834 0 0 1-.14-5.06 6.644 6.644 0 0 1 .927-3.05 26.111 26.111 0 0 1 4.527-4.648q2.678-2.353 5.392-4.671L216.93 49.92a.252.252 0 0 0-.038.019 56.9 56.9 0 0 1 5.362-3.556 5.345 5.345 0 0 1 5.037-.191l.8.468a3.714 3.714 0 0 1 1.8 3.263v-.013a3 3 0 0 1-.948 2.662l-.047.043c-.972.922-2.149 1.805-3.167 2.658-7.7 6.444-16.891 15.36-22.758 23-.054 1.649-.078 2.3-.08 2.31V80.608a.907.907 0 0 1-.51.316c-2.405 1.4-4.789 2.763-7.2 4.157a3.653 3.653 0 0 1-3.752.062z" fill="#e8f3f7"/><path data-name="Path 14674" d="M196.439 83.735l5.946-3.472.017.013.04-1.552a1.475 1.475 0 0 1 .012-.3.244.244 0 0 1 .052-.076c3.1-4.283 13.069-15.209 22.975-23.422a85.36 85.36 0 0 0 2.585-2.2 4.552 4.552 0 0 0 1.829-2.81 3 3 0 0 1-.948 2.662l-.047.043c-.972.922-2.149 1.805-3.167 2.658-7.7 6.444-16.891 15.36-22.758 23-.054 1.649-.078 2.3-.08 2.31V80.614a.907.907 0 0 1-.51.316c-2.445 1.422-4.867 2.808-7.32 4.225a3.68 3.68 0 0 0 1.374-1.42z" fill="#b6ccd6"/><path data-name="Path 14675" d="M196.439 83.735a16.311 16.311 0 0 1 .117-4.2c.356-1.831 2.185-3.428 7.559-8.068 6.454-5.541 12.8-10.856 18.91-15.915.2-.166 6.05-5.37 6.09-7.879a3.244 3.244 0 0 1 .653 3.07 3.666 3.666 0 0 1-1.162 1.589c-.884.816-2.341 1.97-2.661 2.236-10.1 8.294-20.4 19.558-23.489 23.862l-.039 1.883c-1.35.783-4.581 2.61-5.978 3.422z" fill="#cfe0e8"/><path data-name="Path 14676" d="M216.892 49.939a56.9 56.9 0 0 1 5.362-3.556 5.345 5.345 0 0 1 5.037-.191l.8.468a3.646 3.646 0 0 1 1.661 2.191c-.459.867-1.7 2.435-7.018 6.937-5.971 5.053-12.269 10.224-18.623 15.678-5.374 4.64-7.2 6.237-7.559 8.068a16.311 16.311 0 0 0-.117 4.2 3.788 3.788 0 0 1-1.16 1.285 3.647 3.647 0 0 1-3.85.123l-.8-.468a3.548 3.548 0 0 1-.971-.81 4.053 4.053 0 0 1-.885-1.964 29.834 29.834 0 0 1-.14-5.06 6.644 6.644 0 0 1 .927-3.05 26.111 26.111 0 0 1 4.527-4.648q2.678-2.353 5.392-4.671l17.46-14.56z" fill="#e8f3f7"/><path data-name="Path 14677" d="M216.892 49.939a56.9 56.9 0 0 1 5.362-3.556 5.345 5.345 0 0 1 5.037-.191l.8.468a3.646 3.646 0 0 1 1.661 2.191c-.459.867-1.7 2.435-7.018 6.937-5.971 5.053-12.269 10.224-18.623 15.678-5.374 4.64-7.2 6.237-7.559 8.068a16.311 16.311 0 0 0-.117 4.2 3.788 3.788 0 0 1-1.16 1.285 3.647 3.647 0 0 1-3.85.123l-.8-.468a3.548 3.548 0 0 1-.971-.81 4.053 4.053 0 0 1-.885-1.964c-.188-1.2.4-3.8.5-5 .43 2.7 3.093 3.087 4.217 3.041a1.441 1.441 0 0 0 1.4-1.342c.377-1.986 3.081-4.253 4.334-5.354q2.681-2.352 5.392-4.67l15.961-13.523c1.094-1.231-1.831-4.4-4.405-4.5l.77-.643z" fill="#dceaf0"/><path data-name="Path 14678" d="M216.892 49.939a56.9 56.9 0 0 1 5.362-3.556 6.519 6.519 0 0 1 3.035-.736c-3.781 1.274-7.119 4.276-12.187 8.585-4.207 3.578-17.346 13.5-22.012 19.473a7.956 7.956 0 0 0-1.465 3.57c-.164 3.1.335 6.92 6.736 4.679.007.667.045 1.3.078 1.781a3.788 3.788 0 0 1-1.16 1.285 3.647 3.647 0 0 1-3.85.123l-.8-.468a3.548 3.548 0 0 1-.971-.81 4.053 4.053 0 0 1-.885-1.964 29.834 29.834 0 0 1-.14-5.06 6.644 6.644 0 0 1 .927-3.05 26.111 26.111 0 0 1 4.527-4.648q2.678-2.353 5.392-4.671l17.46-14.56z" fill="#cfe0e8"/><path data-name="Path 14679" d="M216.892 49.939a56.9 56.9 0 0 1 5.362-3.556c-2.852 2.1-6.83 5.2-8.689 6.783a759.592 759.592 0 0 1-10.231 8.493c-5.121 4.178-10.515 8.576-13.066 11.84a7.734 7.734 0 0 0-1.208 3.776c-.133 2.519-.123 4.012.484 5.2a4.351 4.351 0 0 0 4.613 2.331 4.992 4.992 0 0 0 2.282-1.067 3.788 3.788 0 0 1-1.16 1.285 3.647 3.647 0 0 1-3.85.123l-.8-.468a3.558 3.558 0 0 1-.97-.81 4.053 4.053 0 0 1-.885-1.964 29.834 29.834 0 0 1-.14-5.06 6.644 6.644 0 0 1 .927-3.05 26.078 26.078 0 0 1 4.527-4.648q2.678-2.353 5.392-4.671l17.46-14.56z" fill="#b6ccd6"/><path data-name="Path 14680" d="M195.064 76.456a2.533 2.533 0 0 1-.366 1.308c-.4.837-1.016.951-1.97.657a8.883 8.883 0 0 1-1.864-.754c-.956-.742-.3-3.195.845-3.373a4.035 4.035 0 0 1 1.994.467c.946.416 1.41.925 1.361 1.695z" fill="#f4fafc"/></g><g data-name="Group 7052"><path data-name="Path 14681" d="M197.173 44.188c0 .009.007.023.031.047a82.36 82.36 0 0 0 7.76 4.393c4.948-3.192 10.887-6.031 16.029-8.848 6.151-3.254 8.069-3.693 7.594 1.876.294.209.752-.027.75 0l.079-1.01c0-.043 0-.08.005-.123a14.255 14.255 0 0 0-.112-3.1 6.763 6.763 0 0 0-1.547-3.321 10.16 10.16 0 0 0-3.675-2.448c-3.528-1.341-6.532.405-9.624 2.123-5.933 3.3-11.4 6.614-17.29 10.411z" fill="#dceaf0"/><path data-name="Path 14682" d="M197.666 44.577c1.038.689 3.34 1.968 5.087 2.906a179.7 179.7 0 0 1 18.715-10.535c1.353-.672 3.183-1.436 4.1-1.192-.91-2.133-5.287-4.159-8.156-2.645-1.889.999-18.034 10.309-19.746 11.466z" fill="#e8f3f7"/><path data-name="Path 14683" d="M216.996 32.409a14.941 14.941 0 0 1 2.872-1.034 7.251 7.251 0 0 1 5.1.682c.056.027.11.056.164.087l.759.441a7.64 7.64 0 0 1 1.867 1.523 6.763 6.763 0 0 1 1.547 3.321c.242 1.423.14 9.854.1 11.273-2.446 3.138-7.6 4.393-9.81.318-.1-2.118-.205-4.952-.281-5.007-4.808 1.777-11.317 5.614-15.815 7.889a3.776 3.776 0 0 0 1.489-1.435l-.023-1.839c2.686-1.734 9.165-5.767 13.921-8.513.857-.476 1.686-.964 2.413-1.362 2.58-1.365 4.418-2.116 5.648-2.117-.753-4.612-6.243-5.432-9.951-4.227z" fill="#cfe0e8"/><path data-name="Path 14684" d="M197.173 44.192a19.55 19.55 0 0 0 1.8 1.132l.8.467c1.7.985 3.434 1.95 5.19 2.834.01.649.026 1.189.026 1.842a3.6 3.6 0 0 1-1.364 1.369 3.8 3.8 0 0 1-3.763.023l-.807-.468a3.734 3.734 0 0 1-1.828-3.071c.001-1.376-.054-2.752-.054-4.128z" fill="#e8f3f7"/></g></g><g data-name="Group 7054"><path data-name="Path 14685" d="M172.835 45.321l45.271 31.207-4 1.917-24.848-15.411-20.423-15.8 1.178-1.067z" fill="#2d394a"/><path data-name="Path 14686" d="M171.721 11.736l4.056-1.9-2.942 35.481-4 1.916-.252-4.021z" fill="#283240"/><path data-name="Path 14687" d="M169.964 7.932l4.006-1.915.024-.012a3.031 3.031 0 0 1 2.89.535l-1.69 1.122-2.309.8c-1.012-.31-1.994-.839-2.921-.53z" fill="#dceaf0"/><path data-name="Path 14688" d="M217.313 79.714l2.459-1.43 1.558-.484a2.882 2.882 0 0 1-1.414 2.552l-4 1.916c.771-.373.965-1.851 1.397-2.554z" fill="#cfe0e8"/><path data-name="Path 14689" d="M216.583 38.577l2.205-1.566 1.8-.349a9.187 9.187 0 0 1 3.539 7.447l-1.732 1.7-2.276.212a12.228 12.228 0 0 0-3.536-7.444z" fill="#dceaf0"/><path data-name="Path 14690" d="M172.582 11.365l45.271 31.208-2.942 35.481-45.272-31.208z" fill="#000002"/><path data-name="Path 14691" d="M189.769 23.214l10.8 7.442 9.825 33.228c2.839 9.139-8.769 4.62-20.329-3.523-10.28-7.242-17.2-17.613-12.82-23.331z" fill="#171e29"/><path data-name="Path 14692" d="M176.885 6.54l43.705 30.124-4.007 1.915-6.4-3.719-37.3-26.4z" fill="#e8f3f7"/><path data-name="Path 14693" d="M220.106 46.025l4.021-1.914-2.8 33.689-4 1.916-.193-8.96z" fill="#cfe0e8"/><path data-name="Path 14694" d="M214.113 78.444l2.942-35.481-45.271-31.208-2.943 35.482 45.272 31.207zm-45.557-67.965c.216-2.616 2.153-3.523 4.334-2.022l43.7 30.122a9.077 9.077 0 0 1 3.537 7.447l-2.791 33.69c-.218 2.615-2.155 3.528-4.328 2.031l-43.7-30.124a9.081 9.081 0 0 1-3.544-7.454z" fill="#212934"/><path data-name="Path 14695" d="M190.178 25.817l9.567 6.595 8.706 29.444c2.516 8.1-7.771 4.094-18.014-3.122-9.109-6.417-15.238-15.606-11.36-20.673z" fill="#2b374a"/><path data-name="Path 14696" d="M197.413 34.027l2.428 8.21c.922 2.972-2.852 1.5-6.61-1.145-3.341-2.354-5.59-5.726-4.168-7.585l3-3.3c2.27-2.513 4.681 1.561 5.35 3.82z" fill="#171e29"/><path data-name="Path 14697" d="M172.582 11.365c13.843 24.963 25.815 43.4 42.329 66.69l-45.272-31.208z" fill="#566e94" opacity=".5"/></g></g></g><g data-name="Group 7067" fill-rule="evenodd"><path data-name="Path 14698" d="M109.501 42.877l50.406 29.1c3.758 2.161 1.916 2.786-.47 4.405l-36.575 19.991L75.82 68.51z" fill="#e8f3f7"/><g data-name="Group 7066"><g data-name="Group 7057"><path data-name="Path 14699" d="M122.739 90.487c.136.124.147 1.008.21 1.081L79.526 66.333a.545.545 0 0 1-.259-.5v-.54c0-.855 1.192-1.892 1.815-2.314l22.675 15.709 20.749 9.524c-.485.656-1.49 1.7-1.787 2.26z" fill="#dceaf0"/><path data-name="Path 14700" d="M113.813 37.212l17.626 9.767 25.8 15.467-14.526 15.231-18.208 10.537-3.167-.957-38.809-22.823-1.447-1.453z" fill="#e8f3f7"/><path data-name="Path 14701" d="M113.824 37.207a1.591 1.591 0 0 1 1.521-.311l43.424 25.235a5.561 5.561 0 0 1-1.531.315l-43.422-25.234z" fill="#dceaf0"/><path data-name="Path 14702" d="M124.503 88.213l32.735-25.767c.071-.048.142-.091.21-.132.9-.517 1.611-.285 1.613.363l.026 9.251a3.442 3.442 0 0 1-1.815 2.316l-32.759 17.033c-1 .58-1.819.482-1.821-.217v-.537c-.007-.693.836-1.637 1.811-2.31z" fill="#c5d7e0"/><path data-name="Path 14703" d="M113.929 40.118c13.271 7.353 26.04 14.893 39.053 22.695l-26.815 21.09-.845.668-3.706 2.854a2.9 2.9 0 0 0-1.143 1.787v.538a.619.619 0 0 0 .216.5L81.658 67.569a.542.542 0 0 1-.26-.5v-.539a2.338 2.338 0 0 1 .755-1.409 30.1 30.1 0 0 1 2.888-2.316l3.136-2.435z" fill="#f4fafc"/><path data-name="Path 14704" d="M121.613 87.425a2.9 2.9 0 0 0-1.143 1.787v.538a.619.619 0 0 0 .216.5L81.655 67.569a.542.542 0 0 1-.26-.5v-.539a2.338 2.338 0 0 1 .755-1.409z" fill="#f4fafc"/></g><g data-name="Group 7065" fill="#40526f"><g data-name="Group 7058"><path data-name="Path 14705" d="M142.354 62.809a.411.411 0 0 1 .225.016 4.714 4.714 0 0 1 1.58.977.393.393 0 0 1-.043.467c-.28.245-1.383 1.221-1.813 1.588-.117.1-.192.162-.36.108a4.624 4.624 0 0 1-.765-.365c-.2-.118-.4-.233-.594-.367a2.388 2.388 0 0 1-.327-.26.251.251 0 0 1-.05-.294c.041-.149.152-.238.51-.54.516-.437 1.469-1.233 1.637-1.33z"/><path data-name="Path 14706" d="M139.66 61.218a.429.429 0 0 1 .226.017 4.744 4.744 0 0 1 1.58.977.4.4 0 0 1-.044.467c-.28.245-1.383 1.222-1.813 1.589-.117.1-.193.161-.361.108a4.7 4.7 0 0 1-.764-.365c-.2-.119-.4-.234-.6-.368a2.429 2.429 0 0 1-.327-.259c-.093-.1-.084-.17-.049-.3.042-.148.152-.237.51-.539.521-.432 1.474-1.23 1.642-1.327z"/><path data-name="Path 14707" d="M137.013 59.627a.433.433 0 0 1 .225.016 4.706 4.706 0 0 1 1.58.978.4.4 0 0 1-.043.467c-.28.245-1.383 1.221-1.813 1.588-.117.1-.193.162-.361.108a4.644 4.644 0 0 1-.764-.365c-.2-.118-.4-.233-.594-.367a2.708 2.708 0 0 1-.328-.259.253.253 0 0 1-.049-.3c.041-.148.152-.237.51-.54.52-.431 1.473-1.229 1.637-1.326z"/><path data-name="Path 14708" d="M134.334 58.016a.423.423 0 0 1 .225.016 4.764 4.764 0 0 1 1.58.977.393.393 0 0 1-.044.467c-.281.245-1.383 1.222-1.812 1.589-.117.1-.194.161-.362.108a4.813 4.813 0 0 1-.764-.365c-.2-.119-.4-.234-.6-.369a2.486 2.486 0 0 1-.326-.258c-.094-.1-.085-.17-.05-.3.042-.148.153-.237.51-.539.522-.432 1.475-1.229 1.643-1.326z"/><path data-name="Path 14709" d="M131.65 56.404a.421.421 0 0 1 .225.017 4.7 4.7 0 0 1 1.58.976.391.391 0 0 1-.044.467c-.28.245-1.382 1.222-1.812 1.589-.117.1-.193.161-.361.108a4.6 4.6 0 0 1-.765-.365c-.2-.119-.4-.233-.594-.368a2.506 2.506 0 0 1-.328-.259c-.092-.1-.084-.169-.048-.295.041-.149.152-.237.509-.539.517-.437 1.469-1.234 1.638-1.331z"/><path data-name="Path 14710" d="M128.966 54.792a.441.441 0 0 1 .226.016 4.706 4.706 0 0 1 1.579.978.394.394 0 0 1-.043.467c-.28.245-1.383 1.221-1.812 1.589-.118.1-.194.161-.362.108a4.889 4.889 0 0 1-.765-.365c-.2-.119-.4-.234-.594-.368a2.678 2.678 0 0 1-.327-.259c-.093-.1-.084-.17-.049-.3.041-.148.152-.237.51-.54.516-.431 1.469-1.229 1.637-1.326z"/><path data-name="Path 14711" d="M126.283 53.177a.423.423 0 0 1 .225.016 4.762 4.762 0 0 1 1.58.978.394.394 0 0 1-.043.466c-.281.245-1.384 1.222-1.813 1.589-.117.1-.193.161-.362.108a4.919 4.919 0 0 1-.764-.365c-.2-.119-.4-.234-.594-.369a2.3 2.3 0 0 1-.327-.258c-.094-.1-.085-.17-.05-.3.042-.148.153-.237.511-.539.516-.426 1.467-1.226 1.637-1.326z"/><path data-name="Path 14712" d="M123.599 51.569a.421.421 0 0 1 .225.017 4.708 4.708 0 0 1 1.58.977.392.392 0 0 1-.043.466c-.281.245-1.383 1.222-1.813 1.589-.117.1-.193.162-.361.108a4.7 4.7 0 0 1-.764-.364c-.205-.119-.4-.234-.6-.368a2.6 2.6 0 0 1-.327-.26c-.093-.1-.084-.169-.049-.295.042-.149.152-.237.51-.539.521-.437 1.474-1.234 1.642-1.331z"/><path data-name="Path 14713" d="M120.913 49.957a.426.426 0 0 1 .225.017 4.73 4.73 0 0 1 1.58.977.4.4 0 0 1-.044.467c-.28.245-1.383 1.221-1.812 1.589-.117.1-.193.161-.362.108a4.71 4.71 0 0 1-.764-.365c-.2-.119-.4-.234-.594-.368a2.522 2.522 0 0 1-.328-.259.255.255 0 0 1-.049-.3c.041-.148.152-.237.51-.54.519-.431 1.472-1.229 1.638-1.326z"/><path data-name="Path 14714" d="M118.232 48.346a.426.426 0 0 1 .226.016 4.753 4.753 0 0 1 1.579.978.393.393 0 0 1-.044.467c-.28.245-1.383 1.221-1.811 1.588-.119.1-.194.161-.362.108a4.763 4.763 0 0 1-.765-.365c-.2-.119-.4-.234-.594-.369a2.4 2.4 0 0 1-.327-.258c-.093-.1-.084-.169-.05-.3.042-.148.153-.236.511-.538.518-.433 1.468-1.23 1.637-1.327z"/><path data-name="Path 14715" d="M115.548 46.734a.429.429 0 0 1 .225.017 4.694 4.694 0 0 1 1.58.977.391.391 0 0 1-.043.467c-.28.245-1.383 1.221-1.813 1.588-.117.1-.192.162-.361.108a4.731 4.731 0 0 1-.764-.364c-.2-.119-.4-.234-.594-.368a2.512 2.512 0 0 1-.328-.26.251.251 0 0 1-.049-.3c.042-.149.152-.237.51-.539.516-.432 1.469-1.229 1.637-1.326z"/><path data-name="Path 14716" d="M112.865 45.122a.434.434 0 0 1 .225.017 4.735 4.735 0 0 1 1.58.977.4.4 0 0 1-.043.467c-.281.245-1.384 1.222-1.813 1.589-.117.1-.193.161-.361.108a4.742 4.742 0 0 1-.765-.365c-.2-.119-.4-.234-.594-.368a2.35 2.35 0 0 1-.327-.259c-.094-.1-.085-.17-.049-.3.041-.148.152-.237.51-.54.516-.431 1.469-1.228 1.637-1.326z"/></g><g data-name="Group 7059"><path data-name="Path 14717" d="M138.794 66.044a.443.443 0 0 1 .225.017 4.744 4.744 0 0 1 1.58.977.393.393 0 0 1-.043.467c-.28.246-1.383 1.222-1.813 1.589-.117.1-.193.161-.361.108a4.751 4.751 0 0 1-.764-.365c-.2-.119-.4-.234-.594-.368a2.3 2.3 0 0 1-.328-.259.253.253 0 0 1-.049-.3c.042-.147.152-.237.51-.539.516-.432 1.469-1.229 1.637-1.327z"/><path data-name="Path 14718" d="M136.1 64.455a.416.416 0 0 1 .226.017 4.724 4.724 0 0 1 1.58.976.4.4 0 0 1-.045.467c-.279.246-1.383 1.222-1.811 1.589-.117.1-.193.161-.362.108a4.6 4.6 0 0 1-.764-.365c-.2-.118-.4-.234-.6-.368a2.605 2.605 0 0 1-.327-.259c-.093-.1-.084-.169-.049-.295.041-.149.152-.237.51-.539.521-.437 1.473-1.234 1.642-1.331z"/><path data-name="Path 14719" d="M133.457 62.864a.425.425 0 0 1 .225.016 4.72 4.72 0 0 1 1.58.977.394.394 0 0 1-.043.467c-.281.245-1.383 1.222-1.813 1.589-.117.1-.193.161-.361.108a4.752 4.752 0 0 1-.764-.365c-.205-.119-.4-.234-.6-.368a2.494 2.494 0 0 1-.327-.26c-.093-.1-.085-.168-.049-.294.042-.149.152-.237.51-.54.521-.436 1.474-1.233 1.642-1.33z"/><path data-name="Path 14720" d="M130.774 61.252a.431.431 0 0 1 .225.016 4.725 4.725 0 0 1 1.58.978.393.393 0 0 1-.044.466c-.28.246-1.383 1.222-1.812 1.589-.117.1-.194.162-.361.108a4.605 4.605 0 0 1-.765-.365c-.2-.118-.4-.233-.6-.368a2.623 2.623 0 0 1-.327-.259c-.093-.1-.084-.169-.049-.295.041-.148.152-.237.51-.54.521-.435 1.474-1.233 1.643-1.33z"/><path data-name="Path 14721" d="M128.089 59.64a.425.425 0 0 1 .226.017 4.752 4.752 0 0 1 1.58.976.392.392 0 0 1-.044.467c-.28.246-1.383 1.223-1.812 1.59-.118.1-.193.161-.361.108a4.785 4.785 0 0 1-.765-.365c-.2-.119-.4-.234-.594-.369a2.38 2.38 0 0 1-.327-.258.256.256 0 0 1-.05-.3c.042-.148.153-.237.51-.539.517-.432 1.469-1.229 1.637-1.327z"/><path data-name="Path 14722" d="M125.406 58.029a.434.434 0 0 1 .225.016 4.716 4.716 0 0 1 1.58.977.394.394 0 0 1-.043.467c-.28.245-1.383 1.222-1.813 1.589-.117.1-.192.161-.361.108a4.813 4.813 0 0 1-.764-.365c-.2-.119-.4-.233-.594-.368a2.381 2.381 0 0 1-.328-.259.251.251 0 0 1-.049-.295c.042-.149.152-.237.51-.539.516-.437 1.469-1.234 1.637-1.331z"/><path data-name="Path 14723" d="M122.723 56.417a.436.436 0 0 1 .225.016 4.721 4.721 0 0 1 1.58.978.394.394 0 0 1-.044.466c-.28.246-1.383 1.222-1.812 1.589-.117.1-.194.162-.361.108a4.738 4.738 0 0 1-.765-.364c-.2-.119-.4-.234-.6-.369a2.581 2.581 0 0 1-.326-.258c-.094-.1-.085-.17-.049-.3.041-.148.152-.237.509-.54.522-.431 1.475-1.229 1.643-1.326z"/><path data-name="Path 14724" d="M120.039 54.806a.417.417 0 0 1 .226.016 4.737 4.737 0 0 1 1.579.978.392.392 0 0 1-.044.466c-.28.245-1.382 1.222-1.812 1.589-.117.1-.193.161-.361.108a4.821 4.821 0 0 1-.765-.365c-.2-.119-.4-.234-.594-.369a2.449 2.449 0 0 1-.327-.258c-.093-.1-.084-.17-.05-.3.042-.148.153-.237.51-.539.512-.432 1.469-1.229 1.638-1.326z"/><path data-name="Path 14725" d="M117.355 53.194a.435.435 0 0 1 .226.016 4.713 4.713 0 0 1 1.579.978.391.391 0 0 1-.043.466c-.28.245-1.384 1.222-1.812 1.589-.118.1-.193.161-.361.108a4.624 4.624 0 0 1-.765-.365c-.2-.119-.4-.233-.6-.367a2.68 2.68 0 0 1-.327-.26.254.254 0 0 1-.049-.295c.041-.149.152-.237.51-.539.521-.437 1.474-1.234 1.642-1.331z"/><path data-name="Path 14726" d="M114.672 51.577a.424.424 0 0 1 .225.017 4.7 4.7 0 0 1 1.58.977.391.391 0 0 1-.044.466c-.279.246-1.383 1.222-1.812 1.59-.117.1-.193.161-.362.108a4.833 4.833 0 0 1-.764-.365c-.2-.119-.4-.234-.594-.368a2.578 2.578 0 0 1-.327-.259c-.094-.1-.085-.17-.049-.3.041-.148.152-.237.509-.54.517-.426 1.47-1.226 1.638-1.326z"/><path data-name="Path 14727" d="M111.988 49.971a.428.428 0 0 1 .226.016 4.735 4.735 0 0 1 1.579.978.392.392 0 0 1-.043.467c-.281.245-1.383 1.221-1.813 1.588-.117.1-.193.161-.361.108a4.711 4.711 0 0 1-.764-.365c-.2-.119-.4-.234-.595-.369a2.348 2.348 0 0 1-.326-.258c-.094-.1-.085-.17-.05-.3.042-.148.153-.237.51-.538.517-.433 1.469-1.23 1.637-1.327z"/><path data-name="Path 14728" d="M109.305 48.359a.422.422 0 0 1 .225.017 4.708 4.708 0 0 1 1.58.977.4.4 0 0 1-.044.467c-.28.244-1.382 1.221-1.812 1.588-.117.1-.193.162-.361.108a4.636 4.636 0 0 1-.765-.365c-.2-.118-.4-.233-.6-.367a2.739 2.739 0 0 1-.327-.26.254.254 0 0 1-.049-.3c.041-.149.152-.237.51-.539.521-.432 1.474-1.229 1.643-1.326z"/></g><g data-name="Group 7060"><path data-name="Path 14729" d="M135.234 69.277a.434.434 0 0 1 .225.017 4.717 4.717 0 0 1 1.581.977.392.392 0 0 1-.045.467c-.28.245-1.382 1.222-1.812 1.588-.117.1-.193.162-.361.109a4.848 4.848 0 0 1-.765-.365c-.2-.119-.4-.234-.594-.368a2.458 2.458 0 0 1-.327-.26c-.093-.1-.084-.169-.049-.295.042-.148.152-.237.51-.539.516-.431 1.468-1.231 1.637-1.331z"/><path data-name="Path 14730" d="M132.54 67.692a.432.432 0 0 1 .225.015 4.77 4.77 0 0 1 1.58.977.394.394 0 0 1-.044.468c-.279.245-1.383 1.222-1.813 1.589-.116.1-.192.161-.36.108a4.826 4.826 0 0 1-.765-.365c-.2-.119-.4-.234-.594-.369a2.337 2.337 0 0 1-.327-.259.251.251 0 0 1-.049-.3c.041-.148.152-.237.51-.54.516-.43 1.469-1.227 1.637-1.324z"/><path data-name="Path 14731" d="M129.897 66.1a.433.433 0 0 1 .225.016 4.739 4.739 0 0 1 1.58.977.391.391 0 0 1-.044.467c-.28.245-1.382 1.223-1.812 1.59-.117.1-.193.161-.361.108a4.7 4.7 0 0 1-.765-.366c-.2-.118-.4-.234-.594-.368a2.458 2.458 0 0 1-.328-.259c-.092-.1-.083-.169-.048-.295.041-.148.151-.237.509-.539.516-.436 1.469-1.233 1.638-1.331z"/><path data-name="Path 14732" d="M127.213 64.489a.428.428 0 0 1 .226.016 4.721 4.721 0 0 1 1.579.977.394.394 0 0 1-.043.467c-.28.245-1.384 1.221-1.812 1.589-.118.1-.194.161-.362.108a4.761 4.761 0 0 1-.765-.366c-.2-.118-.4-.233-.594-.367a2.523 2.523 0 0 1-.327-.26.252.252 0 0 1-.049-.294c.041-.149.152-.237.51-.54.516-.436 1.469-1.233 1.637-1.33z"/><path data-name="Path 14733" d="M124.529 62.877a.436.436 0 0 1 .226.016 4.736 4.736 0 0 1 1.58.977.392.392 0 0 1-.044.467c-.28.245-1.383 1.222-1.813 1.589-.117.1-.192.162-.361.108a4.791 4.791 0 0 1-.764-.365c-.2-.118-.4-.233-.594-.368a2.389 2.389 0 0 1-.328-.26c-.093-.1-.084-.168-.049-.294.042-.148.153-.238.51-.54.521-.43 1.469-1.23 1.637-1.33z"/><path data-name="Path 14734" d="M121.846 61.265a.424.424 0 0 1 .225.017 4.741 4.741 0 0 1 1.58.976.4.4 0 0 1-.043.467c-.281.245-1.383 1.223-1.813 1.59-.117.1-.193.161-.361.108a4.7 4.7 0 0 1-.764-.366c-.205-.118-.4-.234-.6-.368a2.389 2.389 0 0 1-.327-.259.251.251 0 0 1-.049-.3c.042-.148.152-.237.51-.539.521-.431 1.474-1.228 1.642-1.326z"/><path data-name="Path 14735" d="M119.163 59.654a.433.433 0 0 1 .225.016 4.74 4.74 0 0 1 1.58.977.4.4 0 0 1-.044.467c-.28.245-1.383 1.221-1.812 1.589-.117.1-.193.161-.362.108a4.722 4.722 0 0 1-.764-.366c-.2-.118-.4-.232-.594-.367a2.669 2.669 0 0 1-.328-.259.252.252 0 0 1-.049-.295c.041-.149.152-.237.51-.54.516-.436 1.469-1.233 1.638-1.33z"/><path data-name="Path 14736" d="M116.478 58.042a.444.444 0 0 1 .227.016 4.73 4.73 0 0 1 1.579.977.393.393 0 0 1-.044.467c-.28.245-1.383 1.222-1.812 1.589-.118.1-.193.162-.361.108a4.849 4.849 0 0 1-.765-.364c-.2-.119-.4-.234-.594-.369a2.543 2.543 0 0 1-.328-.259c-.092-.1-.083-.169-.049-.295.042-.148.153-.237.51-.54.517-.435 1.472-1.233 1.637-1.33z"/><path data-name="Path 14737" d="M113.795 56.43a.422.422 0 0 1 .225.017 4.747 4.747 0 0 1 1.58.976.392.392 0 0 1-.043.467c-.28.246-1.383 1.223-1.813 1.59-.117.1-.192.161-.361.108a4.835 4.835 0 0 1-.764-.365c-.2-.119-.4-.235-.594-.369a2.3 2.3 0 0 1-.328-.259c-.093-.1-.085-.169-.049-.3.041-.148.152-.237.51-.539.516-.431 1.469-1.228 1.637-1.326z"/><path data-name="Path 14738" d="M111.113 54.819a.431.431 0 0 1 .225.016 4.719 4.719 0 0 1 1.58.978.394.394 0 0 1-.043.466c-.281.245-1.384 1.222-1.813 1.589-.117.1-.193.161-.361.108a4.7 4.7 0 0 1-.765-.366c-.2-.118-.4-.232-.594-.367a2.535 2.535 0 0 1-.327-.259.251.251 0 0 1-.05-.295c.042-.149.153-.237.511-.54.515-.436 1.468-1.233 1.637-1.33z"/><path data-name="Path 14739" d="M108.428 53.207a.44.44 0 0 1 .226.016 4.76 4.76 0 0 1 1.58.977.394.394 0 0 1-.045.467c-.279.245-1.382 1.222-1.812 1.589-.117.1-.193.162-.361.108a4.826 4.826 0 0 1-.765-.364c-.2-.119-.4-.234-.594-.368a2.726 2.726 0 0 1-.327-.259.254.254 0 0 1-.049-.3c.041-.148.152-.237.509-.54.517-.431 1.469-1.229 1.638-1.326z"/><path data-name="Path 14740" d="M105.744 51.596a.427.427 0 0 1 .226.016 4.727 4.727 0 0 1 1.579.978.394.394 0 0 1-.043.467c-.28.245-1.383 1.221-1.812 1.588-.118.1-.193.161-.361.108a4.737 4.737 0 0 1-.765-.365c-.2-.119-.4-.234-.594-.369a2.287 2.287 0 0 1-.328-.259.253.253 0 0 1-.049-.295c.041-.148.152-.237.51-.539.516-.436 1.469-1.233 1.637-1.33z"/></g><g data-name="Group 7061"><path data-name="Path 14741" d="M131.674 72.518a.438.438 0 0 1 .226.016 4.7 4.7 0 0 1 1.578.978.39.39 0 0 1-.043.467c-.279.245-1.383 1.221-1.812 1.588-.117.1-.193.161-.361.108a4.722 4.722 0 0 1-.765-.365c-.2-.119-.4-.234-.594-.368a2.4 2.4 0 0 1-.327-.26c-.093-.1-.084-.168-.05-.294.042-.149.153-.237.511-.54.516-.436 1.469-1.233 1.637-1.33z"/><path data-name="Path 14742" d="M128.98 70.928a.435.435 0 0 1 .225.016 4.728 4.728 0 0 1 1.58.977.394.394 0 0 1-.043.467c-.281.245-1.384 1.222-1.813 1.589-.117.1-.193.162-.361.108a4.672 4.672 0 0 1-.764-.365 9.657 9.657 0 0 1-.6-.368 2.7 2.7 0 0 1-.326-.258.251.251 0 0 1-.049-.3c.041-.148.152-.237.51-.54.52-.432 1.474-1.229 1.641-1.326z"/><path data-name="Path 14743" d="M126.336 69.337a.426.426 0 0 1 .226.016 4.715 4.715 0 0 1 1.579.977.391.391 0 0 1-.043.467c-.28.245-1.383 1.221-1.812 1.589-.118.1-.193.162-.361.108a4.7 4.7 0 0 1-.765-.365c-.2-.119-.4-.234-.594-.368a2.464 2.464 0 0 1-.328-.26.253.253 0 0 1-.049-.294c.042-.149.152-.238.51-.54.514-.436 1.469-1.233 1.637-1.33z"/><path data-name="Path 14744" d="M123.653 67.725a.421.421 0 0 1 .225.016 4.728 4.728 0 0 1 1.58.977.392.392 0 0 1-.043.467c-.28.245-1.384 1.222-1.813 1.589-.117.1-.192.162-.361.109a4.69 4.69 0 0 1-.764-.366c-.2-.118-.4-.234-.595-.368a2.369 2.369 0 0 1-.327-.259.251.251 0 0 1-.049-.295c.041-.148.152-.237.51-.54.516-.435 1.469-1.232 1.637-1.33z"/><path data-name="Path 14745" d="M120.97 66.114a.426.426 0 0 1 .225.016 4.745 4.745 0 0 1 1.58.977.394.394 0 0 1-.044.467c-.28.245-1.383 1.221-1.812 1.589-.117.1-.194.161-.362.108a4.729 4.729 0 0 1-.764-.366c-.2-.118-.4-.233-.595-.368a2.3 2.3 0 0 1-.326-.259c-.094-.1-.085-.169-.05-.294.042-.149.153-.238.51-.54.517-.437 1.47-1.233 1.638-1.33z"/><path data-name="Path 14746" d="M118.286 64.502a.427.427 0 0 1 .226.016 4.734 4.734 0 0 1 1.579.977.394.394 0 0 1-.044.467c-.28.245-1.382 1.222-1.812 1.589-.117.1-.193.162-.361.108a4.737 4.737 0 0 1-.765-.365c-.2-.119-.4-.234-.594-.368a2.515 2.515 0 0 1-.328-.26.252.252 0 0 1-.049-.294c.042-.149.153-.238.51-.54.516-.435 1.465-1.233 1.638-1.33z"/><path data-name="Path 14747" d="M115.602 62.89a.437.437 0 0 1 .226.016 4.73 4.73 0 0 1 1.579.977.393.393 0 0 1-.043.467c-.28.245-1.384 1.222-1.812 1.59-.118.1-.193.161-.361.108a4.663 4.663 0 0 1-.765-.366c-.2-.118-.4-.234-.6-.368a2.487 2.487 0 0 1-.327-.259c-.093-.1-.084-.169-.049-.3.041-.148.152-.237.51-.539.521-.431 1.474-1.228 1.642-1.326z"/><path data-name="Path 14748" d="M112.913 61.277a.436.436 0 0 1 .226.016 4.73 4.73 0 0 1 1.58.977.393.393 0 0 1-.044.467c-.279.245-1.383 1.221-1.813 1.589-.116.1-.192.161-.361.108a4.748 4.748 0 0 1-.764-.366c-.2-.118-.4-.233-.594-.368a2.335 2.335 0 0 1-.327-.258c-.094-.1-.085-.17-.05-.295.042-.149.153-.238.51-.54.522-.43 1.475-1.23 1.637-1.33z"/><path data-name="Path 14749" d="M110.235 59.667a.441.441 0 0 1 .226.016 4.728 4.728 0 0 1 1.579.977.392.392 0 0 1-.043.467c-.281.245-1.383 1.222-1.813 1.589-.117.1-.193.162-.361.108a4.8 4.8 0 0 1-.764-.364 9.52 9.52 0 0 1-.595-.369 2.458 2.458 0 0 1-.327-.26c-.093-.1-.085-.168-.049-.294.042-.148.152-.238.51-.54.515-.435 1.469-1.233 1.637-1.33z"/><path data-name="Path 14750" d="M107.552 58.055a.433.433 0 0 1 .225.016 4.765 4.765 0 0 1 1.58.977.4.4 0 0 1-.044.467c-.28.245-1.383 1.222-1.812 1.59-.117.1-.193.161-.361.108a4.683 4.683 0 0 1-.765-.366c-.2-.118-.4-.234-.595-.368a2.487 2.487 0 0 1-.327-.259c-.093-.1-.084-.169-.049-.3.041-.148.152-.237.51-.539.516-.431 1.469-1.228 1.638-1.326z"/><path data-name="Path 14751" d="M104.867 56.444a.438.438 0 0 1 .227.016 4.739 4.739 0 0 1 1.579.977.394.394 0 0 1-.044.467c-.28.245-1.383 1.221-1.812 1.589-.118.1-.193.161-.361.108a4.755 4.755 0 0 1-.765-.366c-.2-.118-.4-.232-.594-.368a2.361 2.361 0 0 1-.327-.258.254.254 0 0 1-.05-.295c.042-.149.153-.237.511-.54.516-.436 1.468-1.233 1.636-1.33z"/><path data-name="Path 14752" d="M102.184 54.832a.435.435 0 0 1 .225.016 4.727 4.727 0 0 1 1.58.977.391.391 0 0 1-.043.467c-.28.245-1.383 1.222-1.813 1.589-.117.1-.193.162-.361.108a4.767 4.767 0 0 1-.764-.364c-.2-.119-.4-.234-.594-.369a2.5 2.5 0 0 1-.328-.259.25.25 0 0 1-.049-.295c.042-.148.152-.237.51-.54.516-.435 1.466-1.233 1.637-1.33z"/></g><g data-name="Group 7062"><path data-name="Path 14753" d="M128.113 75.754a.424.424 0 0 1 .225.017 4.72 4.72 0 0 1 1.58.977.392.392 0 0 1-.044.467c-.279.245-1.383 1.222-1.813 1.589-.116.1-.192.161-.36.108a4.847 4.847 0 0 1-.765-.365c-.2-.119-.4-.234-.594-.368a2.47 2.47 0 0 1-.327-.259.254.254 0 0 1-.05-.3c.042-.148.153-.237.511-.539.517-.432 1.47-1.23 1.637-1.327z"/><path data-name="Path 14754" d="M125.42 74.165a.421.421 0 0 1 .225.016 4.73 4.73 0 0 1 1.58.977.394.394 0 0 1-.044.467c-.28.245-1.383 1.221-1.812 1.589-.117.1-.193.16-.361.108a4.644 4.644 0 0 1-.765-.366c-.2-.118-.4-.233-.594-.368a2.423 2.423 0 0 1-.328-.259c-.093-.1-.084-.169-.048-.294.041-.149.151-.238.509-.54.516-.437 1.469-1.233 1.638-1.33z"/><path data-name="Path 14755" d="M122.776 72.577a.435.435 0 0 1 .226.015 4.752 4.752 0 0 1 1.58.978.392.392 0 0 1-.044.467c-.28.245-1.383 1.221-1.813 1.588-.117.1-.192.161-.361.109a4.769 4.769 0 0 1-.764-.366c-.2-.118-.4-.233-.594-.368a2.287 2.287 0 0 1-.328-.259c-.093-.1-.084-.17-.049-.295.042-.148.153-.238.51-.539.517-.44 1.474-1.237 1.637-1.33z"/><path data-name="Path 14756" d="M120.093 70.962a.423.423 0 0 1 .225.016 4.736 4.736 0 0 1 1.58.977.4.4 0 0 1-.043.467c-.281.245-1.383 1.221-1.813 1.589-.117.1-.193.162-.361.108a4.814 4.814 0 0 1-.764-.365c-.2-.119-.4-.234-.595-.368a2.471 2.471 0 0 1-.327-.26.25.25 0 0 1-.049-.294c.041-.149.152-.238.51-.54.516-.436 1.469-1.233 1.637-1.33z"/><path data-name="Path 14757" d="M117.413 69.349a.431.431 0 0 1 .225.017 4.743 4.743 0 0 1 1.58.977.4.4 0 0 1-.045.467c-.279.245-1.382 1.222-1.811 1.589-.117.1-.193.162-.361.109a4.677 4.677 0 0 1-.765-.366c-.2-.118-.4-.234-.6-.368a2.43 2.43 0 0 1-.327-.259.253.253 0 0 1-.049-.295c.041-.148.152-.237.51-.54.518-.435 1.47-1.233 1.643-1.331z"/><path data-name="Path 14758" d="M114.725 67.739a.44.44 0 0 1 .226.015 4.739 4.739 0 0 1 1.58.978.393.393 0 0 1-.044.467c-.279.245-1.383 1.221-1.812 1.589-.118.1-.193.161-.361.108a4.735 4.735 0 0 1-.765-.366c-.2-.118-.4-.233-.594-.368a2.4 2.4 0 0 1-.328-.259.256.256 0 0 1-.049-.295c.042-.148.152-.237.51-.539.517-.437 1.469-1.234 1.637-1.33z"/><path data-name="Path 14759" d="M112.042 66.127a.423.423 0 0 1 .225.016 4.719 4.719 0 0 1 1.58.977.394.394 0 0 1-.043.467c-.28.245-1.383 1.221-1.813 1.589-.117.1-.192.162-.361.108a4.835 4.835 0 0 1-.764-.365c-.2-.119-.4-.234-.594-.368a2.422 2.422 0 0 1-.328-.26c-.094-.1-.085-.168-.049-.294.041-.149.152-.238.51-.54.516-.436 1.469-1.233 1.637-1.33z"/><path data-name="Path 14760" d="M109.359 64.515a.421.421 0 0 1 .225.016 4.749 4.749 0 0 1 1.58.977.394.394 0 0 1-.044.467c-.28.245-1.383 1.222-1.812 1.59-.118.1-.193.161-.362.108a4.677 4.677 0 0 1-.763-.366c-.205-.118-.4-.234-.6-.368a2.4 2.4 0 0 1-.326-.259c-.094-.1-.085-.17-.05-.3.042-.148.153-.237.511-.54.52-.43 1.472-1.227 1.641-1.325z"/><path data-name="Path 14761" d="M106.675 62.904a.428.428 0 0 1 .226.016 4.738 4.738 0 0 1 1.58.977.4.4 0 0 1-.045.467c-.279.245-1.382 1.221-1.812 1.589-.117.1-.193.161-.361.108a4.682 4.682 0 0 1-.765-.366c-.2-.118-.4-.233-.594-.368a2.421 2.421 0 0 1-.327-.258.254.254 0 0 1-.05-.295c.041-.149.152-.238.51-.54.516-.437 1.469-1.233 1.638-1.33z"/><path data-name="Path 14762" d="M103.991 61.292a.43.43 0 0 1 .226.016 4.72 4.72 0 0 1 1.579.977.393.393 0 0 1-.043.467c-.28.245-1.384 1.222-1.812 1.589-.118.1-.193.162-.361.108a4.849 4.849 0 0 1-.765-.364c-.2-.12-.4-.235-.594-.369a2.389 2.389 0 0 1-.328-.26.252.252 0 0 1-.049-.294c.041-.149.152-.238.51-.54.516-.435 1.469-1.233 1.637-1.33z"/><path data-name="Path 14763" d="M101.308 59.677a.433.433 0 0 1 .225.016 4.754 4.754 0 0 1 1.58.977.393.393 0 0 1-.044.467c-.279.245-1.383 1.222-1.812 1.59-.118.1-.194.161-.362.108a4.711 4.711 0 0 1-.763-.366c-.2-.118-.4-.234-.6-.368a2.333 2.333 0 0 1-.327-.259c-.094-.1-.085-.17-.049-.3.041-.148.152-.237.51-.54.521-.425 1.473-1.225 1.642-1.325z"/><path data-name="Path 14764" d="M98.624 58.069a.421.421 0 0 1 .225.016 4.737 4.737 0 0 1 1.581.977.394.394 0 0 1-.044.467c-.28.245-1.383 1.221-1.813 1.589-.117.1-.193.161-.361.108a4.69 4.69 0 0 1-.764-.366c-.2-.118-.4-.233-.6-.368a2.456 2.456 0 0 1-.327-.258.251.251 0 0 1-.049-.295c.042-.149.152-.237.51-.54.521-.436 1.474-1.233 1.642-1.33z"/></g><g data-name="Group 7063"><path data-name="Path 14765" d="M124.554 78.991a.414.414 0 0 1 .225.017 4.734 4.734 0 0 1 1.58.976.393.393 0 0 1-.044.467c-.28.245-1.383 1.222-1.812 1.589-.117.1-.194.161-.362.108a4.67 4.67 0 0 1-.763-.365c-.205-.119-.4-.234-.6-.368a2.591 2.591 0 0 1-.326-.259.252.252 0 0 1-.05-.295c.042-.149.153-.237.511-.539.52-.437 1.473-1.234 1.641-1.331z"/><path data-name="Path 14766" d="M121.859 77.401a.426.426 0 0 1 .226.016 4.726 4.726 0 0 1 1.579.977.39.39 0 0 1-.043.467c-.28.245-1.384 1.222-1.812 1.589-.118.1-.193.162-.361.108a4.624 4.624 0 0 1-.765-.365c-.2-.118-.4-.234-.594-.368a2.382 2.382 0 0 1-.328-.259c-.093-.1-.084-.17-.049-.3.042-.148.152-.238.51-.54.516-.43 1.469-1.228 1.637-1.325z"/><path data-name="Path 14767" d="M119.213 75.809a.438.438 0 0 1 .226.017 4.741 4.741 0 0 1 1.58.977.394.394 0 0 1-.044.467c-.281.245-1.383 1.222-1.813 1.589-.117.1-.193.161-.361.108a4.671 4.671 0 0 1-.764-.365c-.2-.118-.4-.234-.595-.368a2.477 2.477 0 0 1-.326-.259c-.094-.1-.085-.17-.05-.3.042-.148.153-.237.51-.539.52-.432 1.472-1.229 1.637-1.327z"/><path data-name="Path 14768" d="M116.533 74.199a.423.423 0 0 1 .225.015 4.747 4.747 0 0 1 1.58.978.4.4 0 0 1-.044.467c-.28.245-1.382 1.221-1.812 1.588-.117.1-.193.161-.361.109a4.722 4.722 0 0 1-.765-.366c-.2-.119-.4-.234-.594-.368a2.4 2.4 0 0 1-.328-.259.254.254 0 0 1-.049-.295c.042-.148.152-.238.51-.54.518-.436 1.469-1.233 1.638-1.329z"/><path data-name="Path 14769" d="M113.849 72.587a.427.427 0 0 1 .226.016 4.724 4.724 0 0 1 1.579.977.4.4 0 0 1-.043.467c-.28.245-1.384 1.221-1.812 1.588-.118.1-.194.162-.362.109a4.776 4.776 0 0 1-.765-.366c-.2-.118-.4-.233-.594-.367a2.572 2.572 0 0 1-.327-.26.251.251 0 0 1-.049-.294c.041-.149.152-.238.51-.54.516-.44 1.469-1.233 1.637-1.33z"/><path data-name="Path 14770" d="M111.165 70.977a.434.434 0 0 1 .226.017 4.733 4.733 0 0 1 1.58.977.393.393 0 0 1-.044.467c-.28.245-1.383 1.222-1.813 1.589-.117.1-.192.162-.361.109a4.812 4.812 0 0 1-.764-.366c-.2-.118-.4-.234-.594-.368a2.441 2.441 0 0 1-.327-.259c-.094-.1-.085-.17-.05-.295.042-.149.153-.238.511-.54.516-.439 1.468-1.236 1.636-1.331z"/><path data-name="Path 14771" d="M108.482 69.364a.421.421 0 0 1 .225.015 4.739 4.739 0 0 1 1.58.978.394.394 0 0 1-.043.467c-.281.245-1.383 1.221-1.813 1.588-.117.1-.193.162-.361.109a4.67 4.67 0 0 1-.764-.366 9.059 9.059 0 0 1-.595-.368 2.35 2.35 0 0 1-.327-.259.251.251 0 0 1-.049-.295c.041-.148.152-.238.51-.539.516-.437 1.468-1.234 1.637-1.33z"/><path data-name="Path 14772" d="M105.799 67.752a.423.423 0 0 1 .225.016 4.736 4.736 0 0 1 1.58.977.394.394 0 0 1-.045.467c-.279.245-1.382 1.221-1.811 1.588-.117.1-.194.162-.362.109a4.794 4.794 0 0 1-.764-.365c-.2-.119-.4-.234-.595-.368a2.458 2.458 0 0 1-.327-.26.251.251 0 0 1-.049-.294c.041-.149.152-.238.51-.54.516-.436 1.469-1.233 1.638-1.33z"/><path data-name="Path 14773" d="M103.113 66.14a.431.431 0 0 1 .227.016 4.749 4.749 0 0 1 1.579.977.393.393 0 0 1-.044.467c-.28.245-1.383 1.222-1.812 1.59-.118.1-.193.161-.361.108a4.762 4.762 0 0 1-.765-.366c-.2-.118-.4-.234-.594-.368a2.33 2.33 0 0 1-.327-.259.255.255 0 0 1-.05-.3c.042-.149.153-.238.511-.54.517-.431 1.469-1.228 1.636-1.325z"/><path data-name="Path 14774" d="M100.431 64.529a.423.423 0 0 1 .225.015 4.73 4.73 0 0 1 1.58.978.393.393 0 0 1-.043.467c-.28.245-1.384 1.221-1.813 1.589-.117.1-.193.161-.361.108a4.683 4.683 0 0 1-.764-.366c-.2-.119-.4-.234-.6-.368a2.369 2.369 0 0 1-.327-.259.251.251 0 0 1-.049-.295c.041-.148.152-.237.51-.539.524-.437 1.474-1.233 1.642-1.33z"/><path data-name="Path 14775" d="M97.748 62.917a.425.425 0 0 1 .225.016 4.734 4.734 0 0 1 1.58.977.394.394 0 0 1-.044.467c-.28.245-1.383 1.221-1.813 1.588-.116.1-.193.162-.361.109a4.827 4.827 0 0 1-.764-.365c-.2-.119-.4-.234-.594-.368a2.43 2.43 0 0 1-.327-.26c-.094-.1-.085-.169-.049-.294.041-.149.152-.238.51-.54.516-.436 1.469-1.233 1.637-1.33z"/><path data-name="Path 14776" d="M95.063 61.305a.429.429 0 0 1 .227.016 4.75 4.75 0 0 1 1.579.977.393.393 0 0 1-.044.467c-.279.245-1.382 1.222-1.812 1.59-.117.1-.193.161-.361.108a4.71 4.71 0 0 1-.764-.366c-.205-.118-.4-.234-.6-.368a2.4 2.4 0 0 1-.327-.259.255.255 0 0 1-.05-.3c.042-.148.153-.238.511-.54.521-.43 1.473-1.227 1.641-1.325z"/></g><g data-name="Group 7064"><path data-name="Path 14777" d="M120.994 82.227a.444.444 0 0 1 .225.016 4.762 4.762 0 0 1 1.58.977.4.4 0 0 1-.044.467c-.28.246-1.383 1.222-1.812 1.59-.117.1-.194.161-.361.108a4.738 4.738 0 0 1-.765-.365c-.2-.119-.4-.234-.594-.369a2.4 2.4 0 0 1-.328-.259c-.093-.1-.084-.169-.048-.295.04-.148.151-.237.509-.54.516-.435 1.469-1.232 1.638-1.33z"/><path data-name="Path 14778" d="M118.299 80.637a.434.434 0 0 1 .225.017 4.717 4.717 0 0 1 1.58.977.392.392 0 0 1-.043.467c-.28.245-1.383 1.221-1.813 1.588-.117.1-.192.162-.361.109a4.75 4.75 0 0 1-.764-.366c-.2-.119-.4-.233-.594-.367a2.389 2.389 0 0 1-.328-.26.251.251 0 0 1-.049-.295c.041-.148.152-.237.51-.539.516-.436 1.469-1.233 1.637-1.331z"/><path data-name="Path 14779" d="M115.657 79.046a.424.424 0 0 1 .225.017 4.743 4.743 0 0 1 1.58.977.4.4 0 0 1-.045.467c-.279.245-1.382 1.221-1.811 1.588-.118.1-.194.161-.362.108a4.762 4.762 0 0 1-.765-.365c-.2-.119-.4-.233-.594-.368a2.389 2.389 0 0 1-.327-.259c-.093-.1-.084-.169-.049-.3.041-.149.152-.237.509-.539.517-.431 1.47-1.228 1.639-1.326z"/><path data-name="Path 14780" d="M112.972 77.434a.438.438 0 0 1 .226.017 4.71 4.71 0 0 1 1.579.977.393.393 0 0 1-.043.467c-.28.245-1.383 1.222-1.812 1.588-.118.1-.193.162-.361.109a4.7 4.7 0 0 1-.765-.365c-.2-.119-.4-.234-.594-.368a2.469 2.469 0 0 1-.327-.259.254.254 0 0 1-.05-.3c.041-.148.152-.237.51-.539.516-.432 1.469-1.23 1.637-1.327z"/><path data-name="Path 14781" d="M110.289 75.823a.435.435 0 0 1 .225.016 4.75 4.75 0 0 1 1.58.977.394.394 0 0 1-.043.467c-.28.246-1.384 1.222-1.813 1.589-.117.1-.192.161-.361.109a4.826 4.826 0 0 1-.764-.366c-.2-.119-.4-.234-.6-.368a2.383 2.383 0 0 1-.327-.259c-.094-.1-.085-.17-.049-.295.041-.148.152-.238.51-.54.521-.436 1.474-1.233 1.642-1.33z"/><path data-name="Path 14782" d="M107.605 74.212a.416.416 0 0 1 .226.016 4.738 4.738 0 0 1 1.58.977.394.394 0 0 1-.044.467c-.28.245-1.383 1.221-1.813 1.588-.117.1-.193.161-.361.108a4.751 4.751 0 0 1-.764-.365c-.2-.118-.4-.233-.6-.368a2.343 2.343 0 0 1-.326-.259c-.094-.1-.085-.169-.049-.294.041-.149.152-.238.509-.54.522-.436 1.474-1.233 1.642-1.33z"/><path data-name="Path 14783" d="M104.922 72.599a.429.429 0 0 1 .225.017 4.719 4.719 0 0 1 1.58.977.393.393 0 0 1-.044.467c-.28.245-1.382 1.222-1.812 1.589-.117.1-.193.161-.361.108a4.7 4.7 0 0 1-.765-.365c-.2-.119-.4-.234-.594-.368a2.535 2.535 0 0 1-.327-.259.254.254 0 0 1-.05-.3c.042-.148.152-.237.51-.539.516-.432 1.469-1.23 1.638-1.327z"/><path data-name="Path 14784" d="M102.238 70.988a.438.438 0 0 1 .226.016 4.733 4.733 0 0 1 1.579.978.394.394 0 0 1-.043.467c-.28.245-1.384 1.221-1.812 1.588-.118.1-.193.162-.361.109a4.724 4.724 0 0 1-.765-.366c-.2-.119-.4-.234-.595-.368a2.35 2.35 0 0 1-.327-.259.252.252 0 0 1-.049-.295c.041-.148.152-.238.51-.54.512-.441 1.469-1.233 1.637-1.33z"/><path data-name="Path 14785" d="M99.555 69.377a.414.414 0 0 1 .225.016 4.738 4.738 0 0 1 1.58.977.394.394 0 0 1-.044.467c-.279.245-1.383 1.221-1.813 1.588-.116.1-.193.162-.361.109a4.763 4.763 0 0 1-.764-.366c-.2-.118-.4-.233-.594-.367a2.336 2.336 0 0 1-.327-.26c-.094-.1-.085-.169-.049-.294.041-.149.152-.238.509-.54.517-.436 1.47-1.23 1.638-1.33z"/><path data-name="Path 14786" d="M96.871 67.765a.423.423 0 0 1 .225.016 4.728 4.728 0 0 1 1.58.977.393.393 0 0 1-.043.467c-.281.245-1.383 1.222-1.813 1.59-.117.1-.193.161-.361.108a4.786 4.786 0 0 1-.764-.366c-.2-.119-.4-.234-.6-.368a2.629 2.629 0 0 1-.327-.259.251.251 0 0 1-.049-.3c.041-.149.152-.238.51-.54.521-.431 1.474-1.229 1.642-1.325z"/><path data-name="Path 14787" d="M94.187 66.154a.425.425 0 0 1 .226.015 4.739 4.739 0 0 1 1.58.978.4.4 0 0 1-.044.467c-.28.245-1.383 1.221-1.812 1.588-.117.1-.193.162-.361.109a4.682 4.682 0 0 1-.765-.366c-.2-.119-.4-.234-.6-.368a2.532 2.532 0 0 1-.327-.259c-.093-.1-.084-.17-.049-.295.041-.148.152-.238.51-.539.521-.437 1.474-1.233 1.642-1.33z"/><path data-name="Path 14788" d="M91.504 64.542a.428.428 0 0 1 .226.016 4.74 4.74 0 0 1 1.579.977.393.393 0 0 1-.044.467c-.279.245-1.383 1.221-1.812 1.588-.117.1-.193.162-.361.109a4.826 4.826 0 0 1-.765-.365c-.2-.119-.4-.234-.594-.368a2.336 2.336 0 0 1-.327-.26c-.093-.1-.084-.169-.05-.294.042-.149.153-.238.511-.54.516-.436 1.469-1.233 1.637-1.33z"/></g></g></g></g><g data-name="Group 7069" fill-rule="evenodd"><g data-name="Group 7068"><path data-name="Path 14789" d="M65.913 72.696c2.541-1.038 6.533-2.238 7.815-3.983 2.782-3.785 6.217-8.83 8.482-9.075l8.67-.933 6.534 7.97a5.875 5.875 0 0 1-3.9.936c-2.17-.254-6.509-3.371-6.959-2.814l-4.128 5.1 5.936-2.625c2.46-.406 3.693.547 3.9 1.448.185.8-.6 1.846-2.155 2.578a19.621 19.621 0 0 0-6.234 4.169c-2.135 1.958-4.658 2.22-8.972 2.752-.418.051-7.147 3.2-7.6 3.258z" fill="#e8a476"/><path data-name="Path 14790" d="M89.579 62.212c-.393-.92-1.867-1.174-3.291-.567s-2.258 1.847-1.865 2.767l1 4.174c2.471-1.11 3.049-1.56 5.108-1.307-.085-.667-.767-4.636-.952-5.067z" fill="#dfebf0"/></g><path data-name="Path 14791" d="M37.856 78.652l32.573-8.256c3.658 0 4.865 7.874 2.36 9.22l-31.907 14.3c-4.1.64-7.1-.132-8.478-1.805-1.645-1.992-1.179-5.2-.032-7.915 1.05-2.484 2.633-4.035 5.484-5.544z" fill="#d2eefc"/><path data-name="Path 14792" d="M73.876 74.3c.51 2.191.205 4.622-1.087 5.316l-31.907 14.3c-4.1.64-6.879-.336-8.478-1.805z" fill="#b2d9ed"/></g><path data-name="Path 14793" d="M39.595 39.045c10.826 6.666 1.244 43.184 7.725 52.823-4.927 1.49-13.84 2.457-15.636-.048a6.206 6.206 0 0 1-1.466-3.982c-.753-10.977-2.533-21.892-2.315-29.6.245-8.632 2.632-17.745 11.692-19.193z" fill="#1abac6" fill-rule="evenodd"/><path data-name="Path 14794" d="M39.595 39.045c10.826 6.666 1.244 43.184 7.725 52.823a57.306 57.306 0 0 1-10.221 1.467 6.838 6.838 0 0 1-2.022-.125c-1.935-10.519-7.677-27.751-7.025-37.47.461-6.92 3.244-15.152 11.543-16.695z" fill="#1abac6" fill-rule="evenodd"/><path data-name="Path 14795" d="M38.023 39.45a12.844 12.844 0 0 0-8.123 9.778c-2.864 13.276 6.3 31.532 7.121 46.216.444 7.9-3.621 21.083-3.129 34.595.528 14.524 27.625 28.708 40.913 20.159 1.332-.856 5.217-19.968 5.2-20.025-2.315-7.19-6.536-16.715-6.384-23.651.391-17.811 8.659-32.586 6.811-41.551a16.428 16.428 0 0 0-6-9.226c-7.119-5.717-28.306-19.65-36.409-16.295z" fill="#06929c" fill-rule="evenodd"/><g data-name="Group 7072" fill-rule="evenodd"><g data-name="Group 7070"><path data-name="Path 14796" d="M44.342 48.161c-.868 5.7 14.044 8.967 18.886 3.728.425-6.673-.241-11.278 2.336-17.815l-15.122-4.417-3.947-1.462c1.883 8.314.824 12.473-2.153 19.966z" fill="#e8a476"/><path data-name="Path 14797" d="M72.871 37.902c-.442.771-6.244.585-8.471-.252-2.557 3.98-14.606 4.626-17.685 3.835.171-1.454.725-3.2.718-4.068-.017-1.926-.972-2.149-1.334-2.639-1.972-2.672-5.809-5.515-7.428-9.681 1.922-5.931 19.222 1.88 34.2 12.805z" fill="#db9669"/></g><path data-name="Path 14798" d="M72.793 37.971c-1.211.869-9.3-2.86-10.018-2.794-6.88.642-15.219 1.575-16.676-.4-1.972-2.672-5.809-5.515-7.428-9.681-2.587-6.656-2.472-14.3 3.474-19.872 10.341-9.694 27.488-3.668 30.358 6.675 1.176 4.242-.294 5.391.034 8.253a19.829 19.829 0 0 0 1.61 3.534c.392.663-.3 3.648-.356 7.367-.046 3.198-.194 6.342-.998 6.918z" fill="#e8a476"/><path data-name="Path 14799" d="M72.793 37.971a3.126 3.126 0 0 1-2.037-.094 8.668 8.668 0 0 1-2.333-4.333c-.225-4.456 1.723-8.244 1.564-10.044-.337-3.8-1.445-1.8-.332-6.031.561-2.133-.1-2.927-.519-4.13-.758-2.169.358-6.7.359-6.7a9.6 9.6 0 0 1 1.612 2.087 12.474 12.474 0 0 1 1.4 3.175c1.176 4.242-.294 5.391.034 8.253a19.829 19.829 0 0 0 1.61 3.534c.392.663-.3 3.648-.356 7.367-.05 3.196-.198 6.34-1.002 6.916z" fill="#f1b287"/><path data-name="Path 14800" d="M38.671 25.097c-2.586-6.656-2.472-14.3 3.474-19.872a20.345 20.345 0 0 1 12.658-5.2c3.36-.217 10.467 1.1 13.048 3.7.106.1-2.306 3.241-1.252 5.036 1.632 2.779 1 6.749.794 7.491-1.61 5.883-.727 9.1-2.695 12.247-1.665 2.9-2.553 4.851-4.041 5.91-2.542 1.809-10.468 3.888-13.194 2.628-2.403-1.117-8.025-9.967-8.792-11.94z" fill="#361d07"/><g data-name="Group 7071"><path data-name="Path 14801" d="M64.449 29.322c.483-1.777-.1-2.363-.84-2.113a4.92 4.92 0 0 0-2.373 3.407c-.757 2.966.968 6.494 3.637 4.841.695-1.034-.453-3.419-.424-6.135z" fill="#e8a476"/><path data-name="Path 14802" d="M64.449 29.322c.483-1.777-.1-2.363-.84-2.113a4.92 4.92 0 0 0-2.373 3.407c-.757 2.966.968 6.494 3.637 4.841-2.384.335-2.4-2.571-1.826-4.412.388-1.249 1.073-2.168 1.402-1.723z" fill="#f1b287"/><path data-name="Path 14803" d="M63.413 30.193c.772 1.192 1.066 1.915.885 2.362-.126.31-.56.687-1.376.018a4.325 4.325 0 0 1 .491-2.38z" fill="#db9669"/></g><path data-name="Path 14804" d="M67.385 3.44c-8.582-4-20.8-2.511-23 1.89 5.491 4.759 3.882 17.6 11.423 23.054C69.491 38.266 78.905 5.601 67.385 3.44z" fill="#361d07"/><path data-name="Path 14805" d="M67.385 3.44c8.5 4.206 2.259 21.037-3.439 23.918-4.466 2.258-7.431.214-9.7-3.392-3.983-6.336-5.815-17.5-9.858-18.636 4.6 3.988 4.841 13.887 9.033 20.121 2.4 3.564 5.926 6.156 10.407 4.154 8.728-3.9 12.617-24.466 3.557-26.165z" fill="#4a2b12"/><path data-name="Path 14806" d="M69.172 4.798c1.964 5.793.924 17.719-8.042 18.705-10.639 1.171-10.012-16.816-16.2-18.218 3.342 2.023 3.923 6 5.016 9.1 1.856 5.265 5.551 14.075 14.081 9.943 7.503-3.637 7.586-13.651 5.145-19.53z" fill="#4a2b12"/><path data-name="Path 14807" d="M68.455 4.186c1.392 5.477-.4 16.17-8.992 15.924C51.185 19.873 51.771 7.092 46.051 6c5.852 2.884 4.086 15.273 13.268 15.544 9.323.275 11.624-12.036 9.136-17.358z" fill="#4a2b12"/><path data-name="Path 14808" d="M51.1 22.015c.452-7.226-2.065-14.806-5.792-17.087-2.644-1.618-5.422-.924-7.337-.192-4.805 1.838-5.91 9.759-2.667 16.974 2.516 5.6 8.479 13.083 12.09 12.874 2.547-.148 3.249-5.263 3.706-12.569z" fill="#361d07"/><path data-name="Path 14809" d="M51.1 22.015a27.715 27.715 0 0 0-.043-4c-6.668 4.084-14.065 1.889-17.593-3.988a20.614 20.614 0 0 0 1.84 7.686c2.516 5.6 8.463 14.859 12.074 14.65 2.548-.151 3.265-7.042 3.722-14.348z" fill="#241304"/><path data-name="Path 14810" d="M67.925 3.697c.874 4.193.189 7.545-1.193 9.881-4.836 8.164-11.233 3.684-15.144-2.707-1.435-2.346-3.173-4.62-6.288-5.677a13.425 13.425 0 0 1 6.923 5.013c3.689 4.578 8.628 10.09 13.69 2.793a13.241 13.241 0 0 0 2.012-9.303z" fill="#4a2b12"/></g><path data-name="Path 14811" d="M71.235 151.777c5.008-1.258 6.338-4.6 7.776-9.3 1.886-6.167 2.313-13.986-.136-19.3a30.012 30.012 0 0 1-.809-2c-1.513-4.071-3.849-11.924-3.726-17.532.39-17.811 7.894-29.708 6.046-38.674a16.433 16.433 0 0 0-6-9.226 90.1 90.1 0 0 0-13.964-8.593l.152 1.889a41.163 41.163 0 0 1 9.979 8.321c-11.54 10.952-5.11 38.049-3.488 50.461.531 4.071 3.172 25.623 4.17 43.954z" fill="#06929c" fill-rule="evenodd"/><path data-name="Path 14812" d="M39.413 41.407c-.712 10.941 7.736 18.68 27.51 15.643-7.547 12.429-4.892 32.04-2.538 50.167 1.6 12.341 5.255 24.846 5.145 35.87-13.654 9.2-29.568-2.976-32.725-11.238-1.039-9.959 1.39-21.066 2.431-29.351.794-6.322.109-9.311-1.481-15.129-5.901-21.592-13.562-41.173 1.658-45.962z" fill="#1abac6" fill-rule="evenodd"/><path data-name="Path 14813" d="M46.458 39.877c-.885-.125-1.642-.458-2.579-.668-2.112.748-2.48 5.884-1.685 7.718 1.7 3.919 6.431 7.02 13.245 8.261 7.758 1.413 17.129-.22 19.459.937.408.2-6.718-5.359-7.558-5.517-7.687-1.447-22.252-4.531-20.882-10.731z" fill="#1abac6" fill-rule="evenodd"/><path data-name="Path 14814" d="M46.828 39.731c-.2 3.995 10.532 6.887 16.763 4.595 1.655.842 3.267 4.548 3.3 6.3-7.487 1.785-18.939.881-21.8-4.974-.626-1.284.313-4.327 1.737-5.921z" fill="#1abac6" fill-rule="evenodd"/><g data-name="Group 7074" fill-rule="evenodd"><g data-name="Group 7073"><path data-name="Path 14815" d="M107.955 91.03c2.842-3.059 13.218-6.2 13.889-9.223l2.424-10.912c-1.528 1.351-4.048 3.459-5.686 4.672l-5.774 4.276 2.952-4.717c.777-2.37.022-3.733-.837-4.077-.762-.3-1.789.335-2.877 1.738-2.658 3.427-1.727 2.324-5.051 4.986-2.481 1.988-3.554 4.729-4.988 9.7z" fill="#f1b287"/><path data-name="Path 14816" d="M107.955 91.03c2.842-3.059 13.218-6.2 13.889-9.223l2.424-10.912c-1.528 1.351-2.722 5.318-4.423 6.441l-6.445 4.253-.592-1.746 2.952-4.717a4.471 4.471 0 0 0 .111-3.04c-2.43 5.338-3.746 7.183-6.205 9.153-2.48 1.986-6.225 1.263-7.659 6.23z" fill="#e8a476"/></g><path data-name="Path 14817" d="M82.113 66.077c2.118 9.491 1.086 25.306 1.225 36.21.056 4.343-2.262 9.66-6.577 11.31-5.2 1.987-7.894-1.882-8.406-6.528-.849-7.7-1.89-17.8-2.2-24.051-.216-4.3-.561-10.9.638-16.286 1.32-5.927 4.544-8.886 7.715-8.758 2.98.121 6.335 2.421 7.605 8.103z" fill="#1abac6"/><path data-name="Path 14818" d="M73.699 98.433l26.779-14.834c6.008-1.921 9.106 6.639 6.48 9.73l-27.174 19.43c-3.884 1.464-6.974 1.322-8.668-.033-2.018-1.613-2.217-4.848-1.65-7.741.519-2.649 1.747-4.492 4.233-6.552z" fill="#1abac6"/><path data-name="Path 14819" d="M80.981 99.835a14.249 14.249 0 0 0 2.234-6.673l17.263-9.563a4.877 4.877 0 0 1 4.707.793z" fill="#1abac6"/><path data-name="Path 14820" d="M107.236 87.177c.926 2.177.925 4.738-.278 6.154l-27.174 19.43c-3.937 1.977-6.839 1.808-8.533.453 3.2-.789 9.64-6.809 13.824-9.84z" fill="#06929c"/><path data-name="Path 14821" d="M82.113 66.077c1.593 7.139 1.4 17.318 1.271 26.832a12.5 12.5 0 0 1-3.93 5.927c-.406-14.909-3.035-34.854-4.95-40.862 2.984.121 6.339 2.421 7.609 8.103z" fill="#06929c"/><path data-name="Path 14822" d="M68.354 107.069c-.849-7.7-1.89-17.8-2.2-24.051-.216-4.3-.561-10.9.638-16.286.99-4.443 3.048-7.218 5.354-8.275a261.634 261.634 0 0 1 2.938 36.233c.155 7.722.307 12.844-.914 15.123-1.291 2.4-4.057 2.277-5.816-2.744z" fill="#1abac6"/></g><g data-name="Group 7078" fill-rule="evenodd"><g data-name="Group 7075"><path data-name="Path 14823" d="M52.462 132.71l3.193-.011c0 .068-.007 24.452-.021 24.512-.255 1.164-2.844 1.177-3.143.041-.018-.07-.029-24.463-.029-24.542z" fill="#dceaf0"/><path data-name="Path 14824" d="M54.277 132.703h1.378c0 .068-.007 24.452-.021 24.512a1.4 1.4 0 0 1-1.373.875c.01-4.257.016-23.468.016-25.387z" fill="#cfe0e8"/><path data-name="Path 14825" d="M52.864 132.856h.9c0 .021 0 24.872-.006 24.891a1.159 1.159 0 0 1-.953-.549c-.002-.021.059-24.321.059-24.342z" fill="#f5fcff"/></g><g data-name="Group 7076"><path data-name="Path 14826" d="M25.896 118.077l3.193-.009c0 .068-.007 24.451-.021 24.511-.255 1.163-2.843 1.178-3.143.041-.019-.07-.029-24.464-.029-24.543z" fill="#dceaf0"/><path data-name="Path 14827" d="M27.713 118.072h1.378c0 .068-.007 24.451-.021 24.511-.117.533-.722.824-1.374.875.009-4.257.017-23.467.017-25.386z" fill="#cfe0e8"/><path data-name="Path 14828" d="M26.297 118.224h.9c0 .021 0 24.872-.006 24.89a1.154 1.154 0 0 1-.953-.548c-.002-.025.059-24.318.059-24.342z" fill="#f5fcff"/></g><g data-name="Group 7077"><path data-name="Path 14829" d="M24.26 107.291c2.129-7.055 5.973-10.486 12.05-13.422l-.742 10.842c-4.883 2.6-7.066 10.365-4.114 14.858 2.01 3.059 8.1 5.241 12.409 6.637 1.555.5 19.873 4.351 35.705-.4.518 1.312.577 8.391.606 10.326-19.306 8.262-50.476 3.289-55.286-14.953-.409-1.566-.628-12.125-.628-13.888z" fill="#248ca6"/><path data-name="Path 14830" d="M24.26 107.291c2.129-7.055 6.234-11.909 12.041-13.43l.013.009c-4.266 8.721-11.495 15.6-4.856 25.7z" fill="#17667a"/><path data-name="Path 14831" d="M25.662 107.287c.871 7.066 3.579 12.771 15.8 17.657 9.259 3.7 26.085 2.905 38.933.586v10.5c-17.075 7.43-43.63 4.411-52.846-9.088 9.1 8.578 22.217 12.31 36.49 11.257a45.046 45.046 0 0 0 11.975-2.761c1.94-.725 2.26-6.138-.269-5.52-13.665 3.339-44.911 1.546-50.813-16.736a9.439 9.439 0 0 1-.364-4.7c.345-1.053 1.145-.629 1.094-1.195z" fill="#17667a"/><path data-name="Path 14832" d="M34.744 93.087c-13.989 8.306-14.063 21.789-.166 30.095 12.446 7.445 31.872 8.225 45.834 2.351l-1.693-1.909c-12.887 5.561-30.99 4.888-42.554-2.029-12.8-7.653-12.741-20.072.149-27.725l-1.364-.9a6.269 6.269 0 0 0-.206.117z" fill="#248ca6"/><path data-name="Path 14833" d="M35.048 94.577c-13.214 7.85-13.285 20.59-.157 28.441 12.18 7.288 31.439 7.817 44.7 1.595l-.874-.985c-12.887 5.561-30.99 4.888-42.554-2.029-12.383-7.4-12.726-19.263-1.077-26.959a.339.339 0 0 0-.038-.063z" fill="#1b9ebf"/><path data-name="Path 14834" d="M72.391 135.471c-7.012 2.156-18.033 2.1-25.285.206-8.654-2.265-18.61-6.562-21.552-14.953l-.3-4.55c5.206 11.944 25.975 19.832 46.719 16.008 2.555-.472 2.251 2.725.418 3.289z" fill="#1b9ebf"/></g></g><path data-name="Path 14835" d="M137.322 106.364l-9.874-5.7v-1.44l26.5-3.971v1.44z" fill="#b6ccd6" fill-rule="evenodd"/><path data-name="Path 14836" d="M137.322 104.924l-9.874-5.7 16.685-9.278 9.819 5.307z" fill="#001624" fill-rule="evenodd"/><path data-name="Path 14837" d="M137.425 103.687l-8.348-4.82 14.4-8.023 8.3 4.487z" fill="#c3e6f7" fill-rule="evenodd"/><g data-name="Group 7085" transform="translate(-5232.487 -2030.723)"><rect data-name="Rectangle 108" width="18.051" height="19.982" rx="3.736" transform="translate(5372.439 2097.245)" fill="#ed1c24"/><g data-name="Group 7084"><g data-name="Group 7083"><path data-name="Path 14838" d="M5384.907 2105.9a3.439 3.439 0 0 0-2.909-3.4v-.2a.55.55 0 0 0-.481-.554.534.534 0 0 0-.585.531v.227a3.438 3.438 0 0 0-2.908 3.4c0 5.92-1.646 3.529-1.646 5.293a.284.284 0 0 0 .284.284h9.606a.284.284 0 0 0 .284-.284v-.082c0-1.522-1.645.558-1.645-5.215zm-3.442 7.783a1.785 1.785 0 0 0 1.781-1.673h-3.562a1.785 1.785 0 0 0 1.781 1.677z" fill="#fff"/><g data-name="Group 7079"><path data-name="Path 14839" d="M5385.909 2105.863h-.228a.165.165 0 0 1-.164-.16 3.705 3.705 0 0 0-.292-1.3 3.767 3.767 0 0 0-1.856-1.937.165.165 0 0 1-.084-.214l.089-.21a.163.163 0 0 1 .219-.086 4.316 4.316 0 0 1 2.481 3.743.164.164 0 0 1-.165.164z" fill="#fff"/></g><g data-name="Group 7080"><path data-name="Path 14840" d="M5377.249 2105.863h-.228a.164.164 0 0 1-.165-.168 4.327 4.327 0 0 1 2.481-3.743.163.163 0 0 1 .219.086l.089.21a.165.165 0 0 1-.084.214 3.767 3.767 0 0 0-1.856 1.937 3.7 3.7 0 0 0-.292 1.3.165.165 0 0 1-.164.164z" fill="#fff"/></g><g data-name="Group 7081"><path data-name="Path 14841" d="M5387.16 2105.863h-.39a.164.164 0 0 1-.163-.161 4.859 4.859 0 0 0-2.813-4.244.164.164 0 0 1-.085-.214l.152-.358a.164.164 0 0 1 .218-.087 5.562 5.562 0 0 1 3.246 4.9.164.164 0 0 1-.165.164z" fill="#fff"/></g><g data-name="Group 7082"><path data-name="Path 14842" d="M5376.16 2105.863h-.39a.164.164 0 0 1-.165-.167 5.576 5.576 0 0 1 3.246-4.9.163.163 0 0 1 .218.087l.152.358a.166.166 0 0 1-.084.214 4.849 4.849 0 0 0-2.814 4.244.164.164 0 0 1-.163.164z" fill="#fff"/></g></g></g><path data-name="Path 14843" d="M5381.465 2125.97l2.706-10.2h-5.411z" fill="#ed1c24"/></g></g></svg>