<svg xmlns="http://www.w3.org/2000/svg" width="140.124" height="290.904" viewBox="0 0 140.124 290.904"><path data-name="Path 14530" d="M116.142 262.076l-61.581-35.073c-6.713-3.067-16.321-5.508-23.161-1.949-6.231 3.244-16.5 9.882-21.037 12.47-3.448 1.967-15.417 9.137-7.962 13.191 21.929 11.924 43.632 25.335 65.9 37.449 4.212 2.291 10.373 3.119 16.841 2.582a44.6 44.6 0 0 0 18.238-5.432q5.552-3.228 10.92-6.357c4.83-2.812 7.392-6.138 7.645-9.212.248-3.005-1.683-5.788-5.803-7.669z" fill="#231f20" fill-rule="evenodd" opacity=".1" style="mix-blend-mode:multiply;isolation:isolate"/><g data-name="Group 7006" fill-rule="evenodd"><g data-name="Group 7005"><path data-name="Path 14531" d="M74.147 227.842c.91 3.2 1.139 4.845 2.467 6.705 2.646 3.709 6.549 6.358 12.233 10.387 2.7 1.916 3.274 3.733.536 5.4-2.156 1.316-7.43.271-10.724-.5-6.181-1.455-8.681-5.176-10.795-6.143l-1.6.364c-1.311.022-6.462-2.057-7.466-3.4a36.735 36.735 0 0 1-.807-4.79c-.191-5.232.63-4.7 2.029-8.793 4.756.342 9.363.609 14.127.77z" fill="#111214"/><path data-name="Path 14532" d="M91.175 247.942c.026.827-.532 1.627-1.792 2.4-2.156 1.316-7.43.271-10.724-.5-6.181-1.455-8.681-5.176-10.795-6.143l-1.6.364c-1.311.022-6.462-2.057-7.466-3.4a36.735 36.735 0 0 1-.807-4.79c-.191-5.232.63-4.7 2.029-8.793 2.106.153 4.18.29 6.252.41.377 3.445-.126 9.385 2.708 11.6 3.171 2.472 5.643 3.129 7.761 4.417 6.748 4.089 11.204 7.422 14.434 4.435z"/><path data-name="Path 14533" d="M75.647 233.716c-.675 1-2 1.557-4.191 2.1 3.535 3.985 4.032 3.612 8.781 6.28 2.393 2.734 2.724 3.253 4.252 4.135 1.823 1.053 4.4 2.135 5.479 1.357.466-.334-.16-1.271-2.168-2.725-2.277-1.65-4.6-3.323-6.692-5.067a24.708 24.708 0 0 1-5.461-6.08z" fill="#20232e"/></g><path data-name="Path 14534" d="M56.448 140.431a76.442 76.442 0 0 1-.674-12.21c3.853-1.541 7.9-3 11.807-4.705l-.279-.236c4.139-1.943 7.707-4.961 12.481-7.7 2 6.287 2.737 9.1 2.585 14.219a157.146 157.146 0 0 1-2.236 20.226c-.7 10.361-1.628 21.173-2.3 28.248-1.714 18.051-1.5 35.856-2.584 53.875-2.236 3.671-13.027 3.9-16.712-1.264-.552-14.254-1.444-25.509-1.041-33.309.335-6.493.645-10.233 2.745-16-1.401-9.61-3.281-27.282-3.792-41.144z" fill="#001624"/><path data-name="Path 14535" d="M38.452 246.785c-.791 2.309-1.513 4.1-1.44 5.55.077 1.5.487 2.965.469 4.868-.017 1.63-.1 3.017-.29 4.863-.192 1.888 0 2.781.833 3.535 1.347 1.227 5.357 3.122 7.258 3.767a7.628 7.628 0 0 0 3.326.446 14.778 14.778 0 0 0 4.459-.812c.41-.153.831-1.746.862-3.127.061-2.89-.2-2.646-1.4-7.229-.409-1.565-.74-3.057-1.3-4.885-.7-2.278-1.571-4.282-1.661-6.522l-8.466-.331z" fill="#111214"/><path data-name="Path 14536" d="M38.452 246.785c-.791 2.309-1.513 4.1-1.44 5.55.077 1.5.487 2.965.469 4.868-.017 1.63-.1 3.017-.29 4.863-.192 1.888 0 2.781.833 3.535 1.347 1.227 5.357 3.122 7.258 3.767a7.628 7.628 0 0 0 3.326.446 14.778 14.778 0 0 0 4.459-.812c.372-.14.752-1.458.843-2.731h-.023c-2.588.882-5.1 1.234-7.584.021-5.248-2.563-4.565-4.692-4.072-10.741 3.415-.6 4.757-1.209 6.489-3.079-2.911.856-6.04 1.009-7.588-.769l-.481-4.813z"/><path data-name="Path 14537" d="M69.025 181.518c-3.54 16.723-4.436 28.522-2.175 53.278-3.257-.241-6.577-1.477-8.314-3.911-.552-14.254-1.444-25.509-1.041-33.309.335-6.493.645-10.233 2.745-16-1.8-12.348-4.4-38.041-3.849-51.814l7.392-2.956c2.24 20.375 3.653 30.883 5.242 54.712z" fill="#00101a"/><path data-name="Path 14538" d="M61.373 147.765c-1.364 13.888-4.037 33.189-5.59 43.048-2.818 17.909-3.26 38.91-4.843 56.892-2.447 3.827-11.667 4.615-15.2-.147-.153-14.264-1.448-30.234-.826-38.019a49.212 49.212 0 0 1 3.856-16.122c-.355-11.118-6.156-56.787 1.506-65.749a6.7 6.7 0 0 1 1.443-2.028l11.161-.871 13.242-1.542a38.375 38.375 0 0 1-.1 15.725 2.435 2.435 0 0 1-.3.648 33.189 33.189 0 0 1-.507 2.827c-.187.872-2.306 3.297-3.842 5.338z" fill="#001e30"/><path data-name="Path 14539" d="M49.255 138.598a43.637 43.637 0 0 0-2.765 15.324c-.191 8.454-.819 28.439-1.622 37.953-1.573 18.65-5.127 34.193-2.312 58.958a9.076 9.076 0 0 1-6.813-3.27c-.153-14.264-1.448-30.235-.826-38.019a49.212 49.212 0 0 1 3.856-16.122c-.362-11.338-6.39-58.615 1.975-66.241l12.751-.873c-1.641 4.735-2.16 7.457-4.244 12.29z" fill="#001624"/><path data-name="Path 14540" d="M50.015 252.939c-2.45 1.931-1.591 2.775-5.167 3.242a20.013 20.013 0 0 0 2.787 6.969c.144 1.348.252 3.116 2.876 3.133 4.9.032 1.5-4.012 1.483-4.164a40.456 40.456 0 0 0-1.979-9.18z" fill="#20232e"/><path data-name="Path 14541" d="M79.303 119.577a34.591 34.591 0 0 1-9.226 6.481c-.012 6.322-.008 18.03.227 29.733.025 6.922.137 13.971.436 19.838q.016.427.028.856c-.588 4.872-2.87 7.62-3.157 14.94a185.865 185.865 0 0 0 2.183 30.748 579.612 579.612 0 0 0-.039 11.714 7.674 7.674 0 0 0 5.187-2.143l.29-44.328c.278-7.064 1.365-17.638 2.239-28.515 1.852-12.99 3.644-28.06 1.832-39.324z" fill="#001e30"/><path data-name="Path 14542" d="M53.958 129.602l-.032.01a205.8 205.8 0 0 1-5.977 20.4c-1.628 14.1-1.212 29.487-1.409 40.359-1.467 19.89-3.13 39.82-4.122 59.735 1.81-.157 5.824-.965 6.787-1.838 1.085-16.217.893-39.087 2.913-54.328.413-3.111 3.416-29.543 7.038-44.521 1.214-5.018 4.684-4.923 5.386-7.809 1.524-6.26 1.556-9.116.929-15.915-3.806 1.424-7.6 2.791-11.513 3.907z" fill="#00263d"/></g><g data-name="Group 7009" fill-rule="evenodd"><g data-name="Group 7008"><path data-name="Path 14543" d="M77.966 84.927a5.1 5.1 0 0 1-3.645.391c-1.82-.625-3.174-2.875-4.259-4.638-2.945-4.786-4.794-17.346-4.249-34.813.3-9.685 7.263-12.033 11.531-7.924a12.558 12.558 0 0 1 2.865 6.044 94.26 94.26 0 0 1 1.608 12.639c.6 7.35 1.058 15.194.836 17.623z" fill="#d2eefc"/><path data-name="Path 14544" d="M115.008 88.618c-.712-2.052.4-7.432 1.573-8.857a3.075 3.075 0 0 1 1.422-.445c2.37.566-.017 9.772-2.439 9.531a1.417 1.417 0 0 1-.556-.229z" fill="#d1d7f2"/><g data-name="Group 7007"><path data-name="Path 14545" d="M134.302 81.565a35.6 35.6 0 0 1 2.207-3.277 21.384 21.384 0 0 0 1.178-1.841l.006-.011c-2.577-.241-6.284.633-8.573.824a22.544 22.544 0 0 1-3.426-.236 12.609 12.609 0 0 0 2.155-2.775c1.5-1.978 1.061-3.375-.34-4.231a13.628 13.628 0 0 1-2.129 3.014c-1.176 1.149-2.373 1.447-3.633 2.367-1.461 1.07-2.8 3.856-4.127 4.518-.852.427-1.882.159-4.662.1l-2.686 3.806-.939 3.9a82.631 82.631 0 0 0 9.719.92c2.625 1.993 7.365 1.015 10.541-.127a29.67 29.67 0 0 0 3.2-.539 12.176 12.176 0 0 1 1.509-6.412z" fill="#9e6d4c"/><path data-name="Path 14546" d="M128.615 79.905a30.856 30.856 0 0 1 8.264-1.306 33.81 33.81 0 0 1 1.19-2.124c-2.58-.374-6.544.581-8.946.781a19.73 19.73 0 0 1-3.248-.223c-1.132.236-2.264.5-3.555.823a155.732 155.732 0 0 1 3.8-3.146c1.64-1.391 2.175-2.6 1.955-4.279a3.435 3.435 0 0 0-.558-.417 13.628 13.628 0 0 1-2.129 3.014c-1.176 1.149-2.373 1.447-3.633 2.367-1.461 1.07-2.8 3.856-4.127 4.518-.852.427-1.882.159-4.662.1l-2.311 3.274a37.631 37.631 0 0 0 9.018.48 2.812 2.812 0 0 0 2.994.968c7.005-1.198 2.948-4.616 5.948-4.83z" fill="#ad7c5b"/></g><path data-name="Path 14547" d="M118.083 79.309c-2.444.411-3.524 8.28-2.43 9.558l-3.179-.1c-2.045-3.309-2.264-9.593 1.837-9.817.634-.037 2.883.309 3.772.359z" fill="#e6edff"/><path data-name="Path 14548" d="M116.134 78.825c-1.78 1.13-3.739 6.815-2.219 10.135a99.994 99.994 0 0 1-38.448-2.005 4.346 4.346 0 0 1-2.757-1.849c-1.032-1.527.3-5.1.446-7.342l7.662-4.644c6.355-.571 24.813 3.335 35.316 5.705z" fill="#d2eefc"/><path data-name="Path 14549" d="M113.385 85.588a7.289 7.289 0 0 0 .53 3.372 99.994 99.994 0 0 1-38.448-2.005 4.347 4.347 0 0 1-2.757-1.849c-1.032-1.527-.677-2.463-.535-4.7a6.207 6.207 0 0 0 4.422 3.592c10.818 3.044 25.572.835 36.788 1.59z" fill="#c3e6f7"/><path data-name="Path 14550" d="M79.209 87.786c-1.51-.367-4.3-.714-4.967-1.053-1.714-.875-4.024-4.585-4.713-6.447-2.228-6.035-4.772-20.751-3.323-42.306.979.374 9.112.652 9.842 1.106a9.308 9.308 0 0 1 1.206.883c1.15 3.844 2.268 7.15 1.992 10.907-.32 4.372-5.107 14.637-6.358 18.345-.49 3.271-1.332 9.2.6 13.482 1.058 2.339 2.774 3.774 5.721 5.083z" fill="#c3e6f7"/><path data-name="Path 14551" d="M116.164 78.813c-.849.378-1.982 2.677-2.175 3.563-8.6-1.5-31-5.054-36.6-.722 1.177-3.82 3.012-7.421 5.279-8.52 6.847-.11 24.089 3.556 33.496 5.679z" fill="#e0f5ff"/></g><path data-name="Path 14552" d="M81 49.904c-.72 8.945-3.725 14.248-3.764 20.3-.029 4.406 1.828 7.22.234 11.31l5.247-8.22c-.246-8.597-.867-15.768-1.717-23.39z" fill="#e0f5ff"/></g><path data-name="Path 14553" d="M36.738 45.978c5.349-2.968 23.8-14.689 29.195-13.891 14.487 2.145 16.356 15.338 15.865 35.189-.162 6.592-1.206 12.388-1.287 20.579-.069 6.93.856 17.353 1.238 26.539.159 3.829 3.227 38.846 3.087 41.9-4.4-18.242-6.744-32.241-9.686-42.207-1.966 8.513-3.389 46.349-5.512 53.549-7.795 4.9-28.942 8.465-36.252-.618-.686-26.455.041-38.762.768-41.749 2.188-8.976 5.544-11.2 6.161-20.21.643-9.38-12.835-34.434-12.712-47.4.055-5.748 4.898-9.333 9.135-11.681z" fill="#d2eefc" fill-rule="evenodd"/><path data-name="Path 14554" d="M69.324 38.782c7.695 9.021 7.181 25.648 7.053 39.648-.074 8.059-1.424 19.68.233 31.186 3.189 22.154 5.762 29.818 7.581 43-.207-4.918-3.389-38.141-3.628-43.282-.582-12.494-1.021-25.352-.146-37.161 1.051-14.2 1.33-28.221-6.926-36.335-2.121-1.133-4.719.772-4.167 2.944z" fill="#e0f5ff" fill-rule="evenodd"/><path data-name="Path 14555" d="M36.738 45.978l11.544-6.4c-1.723 2.763-7.332 7.346-11.6 12.557 6.1 9.062 13 28.019 14.007 41.952 1.415 19.469-2.426 26.085-3.817 36.194-1.184 8.611-.842 38.294-.857 42.234-5.21-.634-9.793-1.967-12.63-5.491-.643-13.619-.051-35.1.324-38.675 1.246-11.8 5.923-13.333 6.6-23.284.643-9.38-12.835-34.434-12.712-47.4.061-5.754 4.904-9.339 9.141-11.687z" fill="#c3e6f7" fill-rule="evenodd"/><path data-name="Path 14556" d="M67.063 37.332c4.22 1.969 4.663 2.641 7.6 7.169l-2.562 2.116 3.231 1.058c1.282 13.078.429 30.9-.308 44.157-1.551-13.134-1.4-32.21-5.778-43.829a32.413 32.413 0 0 0-4.151-7.3c-.453-.67 1.176-3.738 1.968-3.371z" fill="#ebf9ff" fill-rule="evenodd"/><path data-name="Path 14557" d="M49.991 41.048c-1.2 19.348 19.477 18.12 24.891 47-1.2-16.018-.416-28.071-6.905-43.21l-1.5 2.115-4.343.78z" fill="#001624" fill-rule="evenodd"/><path data-name="Path 14558" d="M48.634 37.485c-1.949 1.8-3.547 2.625-4.084 3.93-1.655 4.022 3.237 11.062 5.226 18.025l3.828-1.056-1.285 3.854c14.82 11.3 21.156 16.783 23.457 32.936-2.624-39.835-28.299-40.444-27.142-57.689z" fill="#ebf9ff" fill-rule="evenodd"/><g data-name="Group 7010" fill-rule="evenodd"><path data-name="Path 14559" d="M53.74 112.242c5.669-2.619 7.229-3.3 12.151-4.518l-2.065 14.448a19.225 19.225 0 0 1-11.679 4.327z" fill="#d2eefc"/><path data-name="Path 14560" d="M53.74 112.242c5.669-2.619 7.229-3.3 12.151-4.518-.648 4.321-.312 4.138-4.642 6.25-7.735 3.771-5.337 3.6-7.893 12.462-.112.39-.81.058-1.209.063z" fill="#c3e6f7"/><path data-name="Path 14561" d="M54.131 110.347c5.7-2.617 8.244-4.144 12.477-5.971l-1.013 5.833c-1.436 1.368-9.013 5.508-12.389 5.365z" fill="#d2eefc"/><path data-name="Path 14562" d="M54.131 110.347c5.7-2.617 8.244-4.144 12.477-5.971-4.1 3.286-11.067 5.847-12.214 11.11a5.908 5.908 0 0 1-1.188.088z" fill="#c3e6f7"/><path data-name="Path 14563" d="M64.915 112.865l-7.128 4.2-2.784 8.3a29.758 29.758 0 0 0 7.935-2.952z" fill="#e0f5ff"/><path data-name="Path 14564" d="M66.004 105.347c-3.319 2.439-7.982 5.85-9.911 9.162a34.546 34.546 0 0 0 8.743-4.317 26.557 26.557 0 0 0 1.168-4.845z" fill="#e0f5ff"/></g><g data-name="Group 7013" fill-rule="evenodd"><g data-name="Group 7011"><path data-name="Path 14565" d="M77.35 103.532c1.871-2.159 2.387-2.708 4.012-3.53l-.166 14.921c-.9 1.382-3.607 2.9-4.373 2.736z" fill="#d2eefc"/><path data-name="Path 14566" d="M77.35 103.532c1.871-2.159 2.387-2.708 4.012-3.53-.214 4.269-.1 4.113-1.533 5.872-2.554 3.142-1.685 3.156-2.53 11.807a1.441 1.441 0 0 1-.476-.022z" fill="#c3e6f7"/><path data-name="Path 14567" d="M81.041 105.065l-2.354 3.624-.557 8.294a6.515 6.515 0 0 0 2.69-2.307z" fill="#e0f5ff"/></g><g data-name="Group 7012"><path data-name="Path 14568" d="M77.045 100.053c1.985-1.191 2.835-2.093 4.32-2.861l.149 5.687c-.435 1.023-3.01 3.286-4.344 2.266z" fill="#d2eefc"/><path data-name="Path 14569" d="M77.045 100.053c1.985-1.191 2.835-2.093 4.32-2.861-1.3 2.29-3.78 3.1-3.738 8.171a1.229 1.229 0 0 1-.457-.218z" fill="#c3e6f7"/><path data-name="Path 14570" d="M81.215 98.028a17.062 17.062 0 0 0-3.019 6.777c1.34-.344 1.789-.758 3.015-2.14.095-1.55.042-2.97.004-4.637z" fill="#e0f5ff"/></g></g><g data-name="Group 7019" fill-rule="evenodd"><g data-name="Group 7017"><g data-name="Group 7014"><path data-name="Path 14571" d="M63.131 50.011c.683 2.976.8 2.967 3.489 5.017a54.124 54.124 0 0 0-.811 4.368c5.309 12.813 6.392 15.964 9.407 30.653-.1-2.383.329-.591.228-2.615a220.573 220.573 0 0 0-4.038-32.619 9.381 9.381 0 0 0-2.787-1.011c.775-3.285.38-5.4-.29-5.8-2.428-.09-3.441.197-5.198 2.007z" fill="#596e7d"/><path data-name="Path 14572" d="M63.131 50.011c.683 2.976.8 2.967 3.489 5.017a54.124 54.124 0 0 0-.811 4.368c5.309 12.813 6.392 15.964 9.407 30.653-.1-2.383.329-.591.228-2.615l-.025-.492a117.362 117.362 0 0 0-7.755-28.084 25.058 25.058 0 0 1-.01-4.484 7.929 7.929 0 0 1-3.486-5.319l.1-.079-.1.158-.013-.07a10.877 10.877 0 0 0-1.024.947z" fill="#41535f"/><path data-name="Path 14573" d="M68.7 48.565l-1.825.305-.717 1.964 2.029 3.125-.038.014a13.255 13.255 0 0 1 .744 4.208c3.494 8.595 3.865 11.387 5.862 20.5-.317-7.386-1.892-16.533-3.349-23.869a9.371 9.371 0 0 0-2.784-1.01c.409-2.099.711-3.716.078-5.237z" fill="#7b94a6"/></g><g data-name="Group 7015"><path data-name="Path 14574" d="M48.543 40c-.4 4.639 12.3 10.712 17.142 8.339.51-.252.778-1.323 1.092-1.755a8.307 8.307 0 0 1-.475-3.1 13.338 13.338 0 0 1 1.068-3.612c.578-1.569.6-4.889 1.6-8.564l-14.481-6.313-3.1-1.645c1.48 7.23-.159 10.591-2.846 16.65z" fill="#9e6d4c"/><path data-name="Path 14575" d="M48.541 40a2.115 2.115 0 0 0 .065.781c6.864-4.322 11.139-.7 19.189-2.853a53.2 53.2 0 0 1 1.171-6.621l-14.481-6.313-3.1-1.645C52.87 30.58 51.23 33.941 48.541 40z" fill="#8f6142"/></g><g data-name="Group 7016"><path data-name="Path 14576" d="M65.678 48.154c.558-1.4.166-4.116.745-5.444 1.65.209 3.4 4.14 4.8 7.081a7.569 7.569 0 0 0-5.545-1.637z" fill="#002740"/><path data-name="Path 14577" d="M66.052 47.876c.47-1.182.138-3.467.625-4.586 1.389.178 2.861 3.487 4.04 5.963a6.362 6.362 0 0 0-4.665-1.377z" fill="#003454"/><path data-name="Path 14578" d="M49.622 37.418c-.332 5.327 10.482 9.408 16.127 10.751-1.416 1.71-3.263 3.848-3.191 5.556-4.07-1.113-11.761-3.763-14.558-8.967-1.911-3.559-.233-5.923 1.622-7.34z" fill="#002740"/><path data-name="Path 14579" d="M57.122 46.065c3.041.932 5.439 2.021 7.532 2.52-1.588 1.5-2.6 2.691-2.535 4.235a31.184 31.184 0 0 1-8.225-3.587c-1.944-2.006-.395-4.486 3.228-3.168z" fill="#003454"/></g></g><g data-name="Group 7018"><path data-name="Path 14580" d="M65.985 38.581c-1.9-.764-6.853-3.935-9.786-4.751-2.218-.616-2.082-3.335-4.173-7.808-3.518-1.566-4.9-3.095-5.579-5.005-1.606-4.536.026-10.109 3.029-13.586a12.642 12.642 0 0 1 10.281-4.386c4.256.058 7.9.554 10.286 2.876 1.907 1.858 4.526 8.169 4.252 10.915-.145 1.45-.608 2.174-.723 3.162-.269 2.324.739 1.906 1.035 3.653a18.12 18.12 0 0 1-.636 6.532c-.327 1.255-.752 5.875-1.3 6.412-1.06 1.038-3.829 2.588-4.736 2.5a14.9 14.9 0 0 1-1.95-.514z" fill="#ad7c5b"/><path data-name="Path 14581" d="M66.181 39.685c-1.935-.586-7.664-4.424-10.338-5.445-3.458-1.32-1.352-3.638-3.817-8.218-3.518-1.566-4.9-3.095-5.579-5.005-1.606-4.535.026-10.109 3.029-13.586a12.642 12.642 0 0 1 10.281-4.386c5.522.076 8.992.914 11.182 4a12.117 12.117 0 0 1 1.087 1.867c-.592 2.929-7.779 4.325-10.234 4.441-1.751.082-2.107 1.055-2.519 2.828s1.868 4.123 1.909 4.978c.063 1.31-2.079 2.427-1.533 4.3.309 1.06 3.859 2.072 4.027 3.631.2 1.857.276 3.4.456 4.814a15.28 15.28 0 0 0 .516 2.541 4.717 4.717 0 0 0 2.218 2.359 2.288 2.288 0 0 0 2.041.055c-1.492.606-1.749 1.051-2.726.826z" fill="#9e6d4c"/><path data-name="Path 14582" d="M55.852 12.113c2.165-3.618 13.3-1.545 14.834-5.427-4.039-8.862-24.882-10.9-26.344 6.345-.432 5.114 2.173 9.68 5.735 13.491a15.076 15.076 0 0 1 2.908 3.686c.161.137.321.274.482.407l.548-6.863.244-.355a8.511 8.511 0 0 0 1.531.974c.394-.725.554-1.3.8-1.735-1.174-2.14-.064-3.2.086-4.512.239-2.11-2.176-3.751-.824-6.011z" fill="#4e3625"/><path data-name="Path 14583" d="M52.985 30.208c.161.137.321.274.482.407l.548-6.863.244-.355a8.511 8.511 0 0 0 1.531.974c.394-.725.554-1.3.8-1.735-3.96-4.619-9.221-2.826-12.281-7.845.217 4.4 2.617 8.363 5.765 11.731a15.076 15.076 0 0 1 2.911 3.686z" fill="#3d291c"/><path data-name="Path 14584" d="M51.89 21.009c-2.28-.519-2.906.964-2.851 2.7.049 1.583.349 3.3 1.788 4.161a2.674 2.674 0 0 1 1.2 1.1 3.077 3.077 0 0 0 3 1.919c2.045-.272.457-3.186.087-4.372.037-2.01-1.008-5.003-3.224-5.508z" fill="#9e6d4c"/><path data-name="Path 14585" d="M69.702 7.696c.815-.726.562-1.74-.035-2.684C65.306-.62 53.63-2.361 47.749 4.305a1.393 1.393 0 0 0-.1.349c-.445 3.7 5.591 1.556 14.113 4.183 2.441.753 6.682-.021 7.94-1.141z" fill="#61422d"/></g></g><g data-name="Group 7020"><path data-name="Path 14586" d="M119.374 91.846l11.851 2.489.656-3.125-10.46-9.11z" fill="#c3e6f7"/><path data-name="Path 14587" d="M135.654 73.246l-11.851-2.489-.667 3.174 10.524 8.8z" fill="#c3e6f7"/><path data-name="Path 14588" d="M121.823 80.184l10.524 8.8.207-.986-10.46-9.11z" fill="#c3e6f7"/><path data-name="Path 14589" d="M123.136 73.931l-1.042 4.961 10.46 9.11 1.106-5.267z" fill="#c3e6f7"/><path data-name="Path 14590" d="M123.136 73.931l-1.042 4.961 10.46 9.11 1.106-5.267z" fill="#aecddd" style="mix-blend-mode:multiply;isolation:isolate"/><path data-name="Path 14591" d="M122.627 68.835l-.834 3.972-1.034 4.922-.279 1.33-.4 1.878-2.561 12.2 14.877 3.125.815-3.884.475-2.261.2-.947L135 83.864l2.5-11.9zm9.72 20.153l-.466 2.222-.657 3.125-11.85-2.489 2.047-9.746.4-1.917.271-1.291 1.042-4.961.667-3.174 11.851 2.488-1.993 9.49-1.107 5.267z" fill="#001624"/><path data-name="Path 14592" d="M121.421 82.1l10.46 9.11.467-2.222-10.524-8.8z" fill="#c3e6f7"/><path data-name="Path 14593" d="M121.421 82.1l10.46 9.11.467-2.222-10.524-8.8z" fill="#aecddd" style="mix-blend-mode:multiply;isolation:isolate"/></g><path data-name="Path 14594" d="M35.532 98.5a5.094 5.094 0 0 1-3.666-.012c-1.74-.821-2.838-3.207-3.723-5.078-2.4-5.082-2.856-17.769-.392-35.07 1.366-9.592 8.542-11.161 12.332-6.607a12.558 12.558 0 0 1 2.183 6.323 94.208 94.208 0 0 1 .207 12.739c-.214 7.371-.62 15.218-1.107 17.607z" fill="#d2eefc" fill-rule="evenodd"/><path data-name="Path 14595" d="M36.453 101.479c-1.46-.531-4.2-1.183-4.821-1.594-1.607-1.058-3.5-5-3.975-6.926-1.55-6.243-2.46-21.15 1.352-42.415.932.48 8.984 1.651 9.66 2.183a9.274 9.274 0 0 1 1.1 1.01c.72 3.947 1.468 7.356.78 11.06-.8 4.31-6.687 13.986-8.338 17.534-.847 3.2-2.337 9-.886 13.466.79 2.441 2.343 4.056 5.128 5.682z" fill="#c3e6f7" fill-rule="evenodd"/><path data-name="Path 14596" d="M42.401 64.024c-1.7 8.811-5.27 13.751-5.975 19.761-.513 4.377 1.023 7.377-1.011 11.268l6.119-7.594c.701-8.57.873-15.766.867-23.435z" fill="#e0f5ff" fill-rule="evenodd"/><g data-name="Group 7022"><path data-name="Path 14597" d="M47.061 138.357s4.422 8.159-2.026 8.152a8.69 8.69 0 0 1-8.949-6.7z" fill="#9e6d4c" fill-rule="evenodd"/><path data-name="Path 14598" d="M32.734 124.439c1.883-1.081 7.375-.993 8.994-.1a3.083 3.083 0 0 1 .7 1.314c-.115 2.433-9.6 1.8-9.818-.624a1.394 1.394 0 0 1 .124-.59z" fill="#d1d7f2" fill-rule="evenodd"/><g data-name="Group 7021" fill-rule="evenodd"><path data-name="Path 14599" d="M41.772 125.387c.9 1.179 3.884 1.978 5.207 3.214 1.138 1.067 1.654 2.188 3 3.13a13.629 13.629 0 0 0 3.358 1.531c-.581 1.536-1.873 2.223-4.094 1.121a12.573 12.573 0 0 1-3.127-1.6 22.552 22.552 0 0 0 .4 3.41c.475 1.715 1.511 4.19 2.067 6.417-.112.039-.229.054-.339.1a6.175 6.175 0 0 1-3.614.458 19.772 19.772 0 0 0-5.831-.6 5.371 5.371 0 0 0-.576.112c-.182-.3-.355-.6-.528-.9a3.332 3.332 0 0 0-1.573-1.331c-.2-.544-.4-1.1-.584-1.695-1.713-2.909-3.555-7.385-2.086-10.334a82.717 82.717 0 0 1-.9-9.721l4.01.2 4.239 1.931c.465 2.735.393 3.799.971 4.557z" fill="#9e6d4c"/><path data-name="Path 14600" d="M41.772 125.387c.9 1.179 3.884 1.978 5.207 3.214 1.138 1.067 1.654 2.188 3 3.13a13.629 13.629 0 0 0 3.358 1.531 3.463 3.463 0 0 1-.307.626c-1.609.528-2.9.227-4.568-1.125a159.144 159.144 0 0 0-3.8-3.144 96.143 96.143 0 0 1 1.47 3.34 19.534 19.534 0 0 0 .385 3.233c.368 1.329 1.072 3.116 1.63 4.89l-.052.022c-.307.147-.656.324-.954.488l-.058.033a1.03 1.03 0 0 0-.133.095 8.222 8.222 0 0 0-.692.613 39.582 39.582 0 0 0-2.439-6.148c-.768-2.905-3.371 1.718-5.856-4.95a2.812 2.812 0 0 1 .4-3.121 37.706 37.706 0 0 1-1.206-8.95l3.647 1.661c.462 2.74.39 3.804.968 4.562z" fill="#ad7c5b"/></g><path data-name="Path 14601" d="M42.452 125.729c-.859-2.325-8.791-1.922-9.843-.609l-.491-3.144c2.872-2.624 9-4.008 9.988-.02.151.617.229 2.89.346 3.773z" fill="#e6edff" fill-rule="evenodd"/><path data-name="Path 14602" d="M42.565 123.724c-1.441-1.538-7.392-2.406-10.372-.295a100.018 100.018 0 0 1-5.18-38.15 4.342 4.342 0 0 1 1.3-3.053c1.309-1.3 5.068-.651 7.3-.927l5.988 6.664c1.744 6.139 1.339 25.002.964 35.761z" fill="#d2eefc" fill-rule="evenodd"/><path data-name="Path 14603" d="M35.409 122.281a7.291 7.291 0 0 0-3.216 1.148 100.018 100.018 0 0 1-5.18-38.15 4.344 4.344 0 0 1 1.3-3.053c1.309-1.3 2.3-1.123 4.522-1.4a6.205 6.205 0 0 0-2.706 5.012c-.979 11.194 3.935 25.282 5.28 36.443z" fill="#c3e6f7" fill-rule="evenodd"/><path data-name="Path 14604" d="M42.582 123.751c-.529-.764-3-1.449-3.9-1.474-.13-8.726-.8-31.4-6.1-36.1 3.972.445 7.851 1.579 9.352 3.6 1.381 6.718.981 24.337.648 33.974z" fill="#e0f5ff" fill-rule="evenodd"/><path data-name="Path 14605" d="M46.979 128.601s4.745 4.352 4.31 5.322-4.384-.337-6.622-4.3" fill="#ad7c5b"/></g><path data-name="Path 14606" d="M120.987 75.603s5.573-3.557 6.27-2.755c1.835 2.114-2.36 5.1-6.777 6.211" fill="#ad7c5b"/><path data-name="Path 14607" d="M135.949 76.628s-6.91 7.38-4.76 9.867 3.046.732 3.046.732 6.411-10.904 1.714-10.599z" fill="#ad7c5b"/><g data-name="Group 7029" transform="translate(-5559.485 -1994.535)"><rect data-name="Rectangle 107" width="19.504" height="21.59" rx="3.736" transform="rotate(.494 -232563.07 659808.515)" fill="#ed1c24"/><g data-name="Group 7028"><g data-name="Group 7027"><path data-name="Path 14608" d="M5693.5 2039.112a3.715 3.715 0 0 0-3.111-3.7v-.221a.593.593 0 0 0-.514-.6.576.576 0 0 0-.637.568v.245a3.717 3.717 0 0 0-3.175 3.642c-.055 6.4-1.81 3.8-1.827 5.7a.308.308 0 0 0 .305.31l10.378.09a.307.307 0 0 0 .309-.305v-.088c.011-1.64-1.786.592-1.728-5.641zm-3.791 8.377a1.928 1.928 0 0 0 1.94-1.791l-3.849-.033a1.93 1.93 0 0 0 1.905 1.824z" fill="#fff"/><g data-name="Group 7023"><path data-name="Path 14609" d="M5694.58 2039.078h-.247a.177.177 0 0 1-.175-.174 4.026 4.026 0 0 0-.3-1.412 4.078 4.078 0 0 0-1.987-2.11.179.179 0 0 1-.089-.232l.1-.226a.177.177 0 0 1 .237-.091 4.679 4.679 0 0 1 2.3 2.429 4.6 4.6 0 0 1 .349 1.639.177.177 0 0 1-.188.177z" fill="#fff"/></g><g data-name="Group 7024"><path data-name="Path 14610" d="M5685.223 2039h-.247a.177.177 0 0 1-.176-.183 4.672 4.672 0 0 1 2.716-4.022.177.177 0 0 1 .235.095l.094.228a.179.179 0 0 1-.092.23 4.063 4.063 0 0 0-2.352 3.482.178.178 0 0 1-.178.17z" fill="#fff"/></g><g data-name="Group 7025"><path data-name="Path 14611" d="M5695.931 2039.089h-.421a.178.178 0 0 1-.175-.176 5.249 5.249 0 0 0-3-4.612.177.177 0 0 1-.09-.231l.168-.386a.178.178 0 0 1 .237-.092 6.012 6.012 0 0 1 3.461 5.321.178.178 0 0 1-.18.176z" fill="#fff"/></g><g data-name="Group 7026"><path data-name="Path 14612" d="M5684.046 2038.987h-.421a.177.177 0 0 1-.177-.183 6.027 6.027 0 0 1 3.553-5.26.178.178 0 0 1 .235.1l.161.389a.179.179 0 0 1-.094.23 5.236 5.236 0 0 0-3.079 4.559.177.177 0 0 1-.178.165z" fill="#fff"/></g></g></g><path data-name="Path 14613" d="M5689.591 2060.76l3.018-10.994-5.846-.051z" fill="#ed1c24"/></g></svg>