<svg xmlns="http://www.w3.org/2000/svg" width="136.893" height="365.137" viewBox="0 0 136.893 365.137">
  <g id="ILLUSTRATION" transform="translate(-6938.058 -1953.547)">
    <g id="Group_7001" data-name="Group 7001">
      <path id="Path_14479" data-name="Path 14479" d="M6991.007,2285.945c6.871-3.3-13.5-2.743-6.229-10.68,3.11-3.4,21.882-4,32.407-2.674,21.183,2.674,50.475,12.7,46.731,25.406-3.351,11.37-24.422,23.827-69.661,19.971-19.363-1.656-40.188-11.4-38.1-19.63C6957.436,2293.338,6987.931,2287.429,6991.007,2285.945Z" fill="#231f20" opacity="0.1" style="mix-blend-mode: multiply;isolation: isolate"/>
      <g id="Group_6990" data-name="Group 6990">
        <path id="Path_14480" data-name="Path 14480" d="M7035.594,2267.173s-1.669,2.985-7.022,3.166c-2.29.078-10.977-.621-10.977-.621-3.9-.785-8.8-.742-9.706,2.278a5.838,5.838,0,0,0-.362,1.816c.181,2.23-.552.366,2.351,3.1a71.011,71.011,0,0,0,8.955,6.1c4.317,2.148,6.538,2.234,7.94,2.083a18.158,18.158,0,0,1,4.547-.315c1.937.259,1.428,2.8,1.406,4.8l5.944,2.593c6.064,1.72,12.194-3.719,12.207-5.25l.1-15.942Z" fill="#231f20"/>
        <g id="Group_6989" data-name="Group 6989">
          <path id="Path_14481" data-name="Path 14481" d="M7029.2,2284.168c-1.678-.047-3.614-.345-8.614-1.829-4.175-1.225-10.287-5.728-10.287-5.728-1.462-1.139-2.644-2.536-2.623-3.856a9.1,9.1,0,0,0-.155,1.285c-.147,2.028,1.553,3.149,2.95,4.167,0,0,4.771,3.787,8.36,5.025,4.645,1.609,5.365,1.48,7.453,1.562,0,0,2.661.146,4.413.237.789.043,1.881.53,1.881.75C7032.553,2285.678,7032.291,2284.263,7029.2,2284.168Z" fill="#383736"/>
          <path id="Path_14482" data-name="Path 14482" d="M7038.687,2290.388l-5.9-2.571c0,.656-.056,1.346-.061,1.976l5.944,2.6c6.064,1.7,12.194-3.723,12.207-5.258l.008-2C7050.877,2286.67,7044.748,2292.1,7038.687,2290.388Z" fill="#383736"/>
        </g>
      </g>
      <g id="Group_6992" data-name="Group 6992" style="isolation: isolate">
        <path id="Path_14483" data-name="Path 14483" d="M7005.159,2281.882s-4.49,5.262-8.346,6.224a55.139,55.139,0,0,1-9.58,1.031c-3.947.078-11.331-.2-12.471,3.7a13.665,13.665,0,0,0-.392,2.618c.259,2.278,2.256,3.373,4.7,4.581a66.629,66.629,0,0,0,8.307,3.377c5,1.527,4.516,1.074,8.247.884a59.408,59.408,0,0,1,6.591-.12c2.079.22,1.57,1.742,1.613,3.787l6.414,2.493c6.514,1.592,11.5-4.089,11.465-5.651l-.509-28.425Z" fill="#231f20" opacity="0.999" style="mix-blend-mode: multiply;isolation: isolate"/>
        <g id="Group_6991" data-name="Group 6991">
          <path id="Path_14484" data-name="Path 14484" d="M6999.936,2303.6a49.564,49.564,0,0,1-12.22-.794,28.585,28.585,0,0,1-9.27-4.4c-2.152-1.057-3.916-2.683-3.951-4.042a6.419,6.419,0,0,0-.125,1.328c.267,2.269,2.256,3.356,4.7,4.573a65.2,65.2,0,0,0,8.3,3.364c5,1.527,4.525,1.087,8.256.9,0,0,5.4-.22,5.6-.22,1.234-.056,2.424.41,2.424.643C7003.628,2304.838,7003.24,2303.63,6999.936,2303.6Z" fill="#383736"/>
          <path id="Path_14485" data-name="Path 14485" d="M7010.18,2307.763l-6.367-2.477c0,.669.009,2.243.013,2.9l6.423,2.506c6.509,1.587,11.491-4.089,11.456-5.659l-.064-2.916C7021.671,2303.678,7016.689,2309.346,7010.18,2307.763Z" fill="#383736"/>
        </g>
      </g>
      <g id="Group_7000" data-name="Group 7000">
        <path id="Path_14486" data-name="Path 14486" d="M7017.445,2120.942l6.637,85.2s8.024,41.537,4.238,61.135c-.711,3.674.112,8.245,12.466,8.245,6.921,0,11.108-1.855,11.142-3.786.867-51.295-5.07-63.74-4.9-71.279.225-9.578,1.01-80.74,1.01-80.74Z" fill="#383736"/>
        <path id="Path_14487" data-name="Path 14487" d="M7017.445,2120.942l6.637,85.2s8.024,41.537,4.238,61.135c-.685,3.527.078,7.865,11.06,8.21.1-.932.194-1.88.3-2.863,1.341-12.919-4.006-58.91-7.572-72.28-2.764-10.335-1.035-63.644-.336-83.962Z" fill="#161615" opacity="0.55"/>
        <path id="Path_14488" data-name="Path 14488" d="M6995.269,2135.9s.966,63.8,2.311,79.92c.406,4.869,2.083,15.869,2.35,19.378.876,12.082-1.009,51.675-1.009,51.675,1.445,3,.121,5.39,14.031,4.683,4.239-.224,9.319-3.864,9.521-5.683,0,0,2.838-45.664-.5-68.38-1.143-7.787,8.8-84.971,8.8-84.971Z" fill="#383736"/>
        <path id="Path_14489" data-name="Path 14489" d="M6995.269,2135.9s.966,63.8,2.311,79.92c.406,4.869,2.083,15.869,2.35,19.378.876,12.082-1.009,51.675-1.009,51.675,1.294,2.7.367,4.89,10.185,4.8.608-3.278,1.208-7.029,1.617-11.039.3-2.932-2.07-37.574-4.907-61.144-1.168-9.728-.224-58.759.419-84.642Z" fill="#161615" opacity="0.55"/>
        <g id="Group_6993" data-name="Group 6993">
          <path id="Path_14490" data-name="Path 14490" d="M7040.277,2096.9c-4.42,5.85,8.176,15.14,8.176,15.14,3.436-2.309,25.919-31.456,26.484-43.687.414-8.775-8.223-39.03-12.427-49.007-2.264-5.377-4.872-18.667-21.047-16.056-8.977,1.449-2.919,12.634-1.186,19.509,3.924,15.567,11.772,32.733,11.772,32.733s4.373,11.657,3.846,13.983C7054.179,2077.1,7045.279,2090.29,7040.277,2096.9Z" fill="#fff"/>
        </g>
        <path id="Path_14491" data-name="Path 14491" d="M7065.481,2073.225c4.049,1.96-11.168,28.268-18.99,39.037-3.312-3.234-8.982-11.7-6.214-15.36,5-6.612,13.9-19.8,15.618-27.385.527-2.326-3.846-13.983-3.846-13.983s-7.848-17.166-11.772-32.733c-1.341-5.325-5.247-13.22-2.785-17.187,12.112.382,18.287,8.244,20.322,13.067,3.609,8.566,10.108,32.491,9.236,44.61-.172,2.441-3.889,4.717-3.833,5.577.048.757,5.748-.521,2.044,2.266C7064.355,2071.82,7064.054,2072.534,7065.481,2073.225Z" fill="#407284" opacity="0.17" style="mix-blend-mode: multiply;isolation: isolate"/>
        <path id="Path_14492" data-name="Path 14492" d="M7033.564,2023.715l1.043-21.915-2.755-18.123-19.335,6.155s3.372,12.589,3.98,20.051c.228,2.766-2.639,5.763-4.075,8.115l-8.99,9.991c-1.885,3.079-5.817,7.979-5.817,16.6l12.142,58.166,20.935,8.774,6.77-78.341C7035.612,2030.761,7034.913,2027.118,7033.564,2023.715Z" fill="#efb797"/>
        <path id="Path_14493" data-name="Path 14493" d="M6991.116,2030.919c-5.652,4.406-1.435,42.337-1.435,56.944l-.7,113.624c1.474.772,8.348,7.072,21.383,9.086,4.083.62,12.259-.086,21.491-3.165,3.768-1.246,25.436-10.933,25.436-13.937,0,0-5.571-69.707-2.781-114.321.53-8.589,8.033-33.523,3.829-64.13-2.441-17.776-23.44-11.929-23.44-11.929s-12.5,5.679-22.776,11.529C7007.825,2017.058,6997,2024.489,6991.116,2030.919Z" fill="#fff"/>
        <path id="Path_14494" data-name="Path 14494" d="M7010.361,2210.573c-13.035-2.014-19.909-8.314-21.383-9.086l.7-113.624c0-4.082-.341-9.989-.686-16.474,2.126-2.26,3.406-4.567,3.213-6.861,7.149-5.543,13.4-10.4,13.4-10.4,2.643,24.4,5.334,27.5,5.334,58.483,0,13.83.556,55.592,2.91,98.164A23.935,23.935,0,0,1,7010.361,2210.573Z" fill="#acc6cc" opacity="0.12" style="mix-blend-mode: multiply;isolation: isolate"/>
        <path id="Path_14495" data-name="Path 14495" d="M6997.917,2032.747c10.931-.438,10.318,14.945,9.357,20.383-2.225,12.474-6.589,32.223-12.363,45.769a9.964,9.964,0,0,1-5.343,5.435l.113-16.471c0-11.315-2.531-36.618-1.044-49.5A11.114,11.114,0,0,1,6997.917,2032.747Z" fill="#407284" opacity="0.25"/>
        <path id="Path_14496" data-name="Path 14496" d="M6966.262,2075.5s-14.824-9.568-15.915-14.933a64.78,64.78,0,0,1-1.2-10.245s2.911-3.609,5.559,2.943,9.352,9.741,9.352,9.741Z" fill="#efb797"/>
        <g id="Group_6995" data-name="Group 6995">
          <path id="Path_14497" data-name="Path 14497" d="M6978.366,2049.667c.535.567.591.69.28,1.69l-18.226,15.183c-.44.67-1.117.828-1.652.257l-20.378-32.806a1.252,1.252,0,0,1,.116-1.815l18.744-16.355a1.914,1.914,0,0,1,1.13-.615,5.379,5.379,0,0,1,1.113-.039Z" fill="#2a3244"/>
          <path id="Path_14498" data-name="Path 14498" d="M6979.927,2050.014c.224.384.362.777,0,1.139l-18.227,15.182a1.215,1.215,0,0,1-1.884-.14l-20.24-32.618a1.082,1.082,0,0,1,.215-1.608l18.96-16.517c.5-.44.9-.388,1.16.079Z" fill="#454c60"/>
          <path id="Path_14499" data-name="Path 14499" d="M6977,2048.647c.139.242.061.363-.06.464l-15.98,12.673c-.384.56-.957.7-1.414.217l-17.667-28.557a.458.458,0,0,1,.065-.6l17.05-14.124c.185-.163.4-.261.617.084Z" fill="#b4e0ef"/>
          <path id="Path_14500" data-name="Path 14500" d="M6958.915,2019.3c.177-.164.409-.268.608.082l17.36,29.782.06-.049c.121-.1.2-.222.06-.464l-17.389-29.841c-.212-.345-.432-.247-.617-.084l-17.05,14.124a.463.463,0,0,0-.073.567Z" fill="#57b6d9"/>
          <path id="Path_14501" data-name="Path 14501" d="M6947.669,2042.781l4.6,7.449,5.235-30.263-6.787,5.621Z" fill="#fff" opacity="0.31"/>
          <path id="Path_14502" data-name="Path 14502" d="M6955.672,2055.728l5.817-33.693-1.276-2.188-5.83,33.8Z" fill="#fff" opacity="0.31"/>
          <g id="Group_6994" data-name="Group 6994">
            <path id="Path_14503" data-name="Path 14503" d="M6950.252,2024.377a.372.372,0,1,1-.539-.2A.415.415,0,0,1,6950.252,2024.377Z" fill="#2a3244"/>
          </g>
        </g>
        <path id="Path_14504" data-name="Path 14504" d="M6956.627,2054.443l6.433-5.83a.62.62,0,0,0,.122-.768l-1.744-3.04a.621.621,0,0,0-.942-.162l-6.514,5.6a.62.62,0,0,0-.138.772l1.826,3.273A.619.619,0,0,0,6956.627,2054.443Z" fill="#8dc63f"/>
        <path id="Path_14505" data-name="Path 14505" d="M6962.227,2072.665s8.494-5.006,1.8-12.891c-4.584-5.4-6.787-8.421-6.787-8.421s-2.786,0-1.22,3.357,2.38,6.606.9,8.089c-1.074,1.065-3.39.811-2.639,2.357A14.736,14.736,0,0,0,6962.227,2072.665Z" fill="#efb797"/>
        <path id="Path_14506" data-name="Path 14506" d="M7009.7,1960.067l-7.667,2.347-6.2,4.879a29.858,29.858,0,0,0,1.535,10.265c.336.994.8,3.711,1,4.232.453,1.158,2.363,2.9,2.665,4.073.4,1.52-.427,2.764.414,4.808,2.458,5.953,5.006,11.1,5.856,13.321,1.457,3.793,4.152,2.735,7.059,1.773a19.383,19.383,0,0,0,8.968-5.293c7.412-7.262,7.02-18.65,6.986-19.52l.034-21.526Z" fill="#efb797"/>
        <path id="Path_14507" data-name="Path 14507" d="M6999.607,1967.376s.151,12.644,1.384,14.02c.763.867,2.553,1.921,2.678,6.166.069,2.294,6.743,6.893,7.261,13.742a6.7,6.7,0,0,1-1.509,5.177c1.393.519,3.135-.123,4.942-.716.767-.248,1.444-.5,2.073-.746l2.2,4.956,5.208,2.406s-3.643-6.72-1.22-11.592c1.237-2.475,8.172-5.254,8.771-10.994l-1.242-4.956c.017-.218.039-.421.056-.615C7024.263,1971.662,6999.607,1967.376,6999.607,1967.376Z" fill="#cc9e7f" opacity="0.27" style="mix-blend-mode: multiply;isolation: isolate"/>
        <g id="Group_6996" data-name="Group 6996">
          <path id="Path_14508" data-name="Path 14508" d="M7034.15,1998.07c-.047-.47,2.41.007,2.617.783.332,1.25,3.661,3.529,3.661,3.529s-2.22,5.231-13.069,11.241c-5.765,3.2-17.9,2.568-17.9,2.568s.948-1.949,1.927-4.126c.91-2.014,1.565-2.6,2.949-2.622a28.491,28.491,0,0,0,11.195-1.964S7034.767,2003.609,7034.15,1998.07Z" fill="#e3faff"/>
        </g>
        <path id="Path_14509" data-name="Path 14509" d="M6993.454,1963.551c-3.73,3.665,2.458,7.505,2.458,7.505-.009-.1.918.045,2.354-.181,2.7-.436,3.523,1.039,3.648,1.095,1.2.53,4.062,14.762,4.062,14.762.06,1.227,2.091.453,2.807-1.41.793-2.085,3.225-3.083,8.054,2.815,0,0,3.032,3.554,5.348,6.9,1.375,1.983,2.341,1.886,2.552,1.8,0,0,7.723-1.259,8.335-4.708.1-.542-.461-4.78,3.17-15.058,2.379-6.763-3.554-19.41-7.861-21.139-1.4-.554,1.229-.311.923-.468-5.2-2.645-11.884-2.052-17.339-1.2C7001.767,1955.869,6993.454,1963.551,6993.454,1963.551Z" fill="#7a7a7a"/>
        <g id="Group_6997" data-name="Group 6997">
          <path id="Path_14510" data-name="Path 14510" d="M7009.02,1984.317a5.243,5.243,0,0,1,4.515,2.363c1.565,2.339.793,3.816.517,4.42a4.644,4.644,0,0,1-1.763,2.173s-1.156-4.952-1.419-5.849A19.109,19.109,0,0,0,7009.02,1984.317Z" fill="#efb797"/>
          <path id="Path_14511" data-name="Path 14511" d="M7008.119,1984.093s-1.445.285.065,2.1a10.665,10.665,0,0,1,2.367,4.168c.293,1.065.819,4.329.819,4.329s1.212,1.1,1.6-1.072a13.243,13.243,0,0,0-.564-5.135C7012.159,1987.57,7009.555,1983.241,7008.119,1984.093Z" fill="#f4c5ae"/>
        </g>
        <path id="Path_14512" data-name="Path 14512" d="M7002.043,1972.063a.217.217,0,0,0,.039.049c.026.037.056.078.09.132a.258.258,0,0,1,.031.064,1.087,1.087,0,0,1,.116.2.3.3,0,0,1,.026.048c.043.088.086.187.129.291,0,.008,0,.019.013.026.1.247.207.534.319.855v.009c.048.147.1.3.155.457a1.431,1.431,0,0,0,.056.157c.018.087.048.175.07.259s.051.142.069.214a13.468,13.468,0,0,0-3.937-6.667c-2.268-1.882-4.511-2.908-.686-6.506,4.054-3.825,13.053-6.552,18.352-7.984-1.7.136-3.359.353-4.92.6-10.2,1.6-18.511,9.282-18.511,9.282-3.73,3.665,2.458,7.505,2.458,7.505-.009-.1.918.045,2.354-.181,2.7-.436,3.523,1.039,3.648,1.095A.443.443,0,0,1,7002.043,1972.063Z" fill="#fff" opacity="0.15"/>
        <path id="Path_14513" data-name="Path 14513" d="M6960.437,2068.131c-2.359,1.949-3,5.608-2.479,6.662,2.949,6,15.415,20.68,17.122,22.351,9.095,8.9,16.769,4.362,19.831-2.82,5.774-13.546,10.138-33.3,12.363-45.769.961-5.438,1.574-20.818-9.357-20.381-9.12.36-12.177,10.03-12.958,17.828-3.009,30.063-5.067,31.678-5.067,31.678s-.176,1.106-.987.33c-2.828-2.732-7.735-8.394-10.9-11.664C6967.125,2065.427,6963.6,2065.516,6960.437,2068.131Z" fill="#fff"/>
        <g id="Group_6998" data-name="Group 6998">
          <path id="Path_14514" data-name="Path 14514" d="M6970.048,2057.873a1.126,1.126,0,0,1-.871-.636,1,1,0,0,1,.319-1.356.828.828,0,0,1,.4-.076,1.109,1.109,0,0,1,.862.647,1.122,1.122,0,0,1,.078.884.8.8,0,0,1-.4.468A.722.722,0,0,1,6970.048,2057.873Zm-.172-1.8a.458.458,0,0,0-.263.05.718.718,0,0,0-.2.994.757.757,0,0,0,.909.459.569.569,0,0,0,.268-.315.972.972,0,0,0-.069-.69A.854.854,0,0,0,6969.876,2056.068Z" fill="#2a3244"/>
        </g>
        <path id="Path_14515" data-name="Path 14515" d="M6978.931,2078.016c.785.75.961-.336.961-.336s2.058-1.615,5.067-31.678c.669-6.7,3.036-14.753,9.456-17.134-1.931,4.53-4.144,12.233-4.825,24.749-.94,17.066-5.226,23.526-3.665,26.407.905,1.653-1.893,1.444-2.872-.134-1.949-3.118-1.091,3.432-1.44,4.443C6981.2,2085.523,6981.281,2081.263,6978.931,2078.016Z" fill="#acc6cc" opacity="0.12" style="mix-blend-mode: multiply;isolation: isolate"/>
        <path id="Path_14516" data-name="Path 14516" d="M6970.113,2084.726c5.786,7.457,11.2,16.659,20.331,15.467-3.855,2.831-9.288,2.9-15.364-3.049-1.707-1.671-14.173-16.351-17.122-22.351-.427-.86-.052-3.456,1.38-5.446C6961.343,2072.447,6965.758,2079.118,6970.113,2084.726Z" fill="#acc6cc" opacity="0.12" style="mix-blend-mode: multiply;isolation: isolate"/>
        <g id="Group_6999" data-name="Group 6999">
          <path id="Path_14517" data-name="Path 14517" d="M6962.8,2004.435l15.8-13.954c1.688-1.491,2.921-4.942,2.74-7.67l-.876-13.168c-.181-2.728-1.71-3.74-3.4-2.249l-15.8,13.954c-1.688,1.491-2.92,4.942-2.739,7.67l.875,13.168C6959.586,2004.914,6961.116,2005.926,6962.8,2004.435Z" fill="#1c75bc"/>
          <path id="Path_14518" data-name="Path 14518" d="M6961.509,2003.529l.719,10.81,5.631-16.418Z" fill="#1c75bc"/>
          <ellipse id="Ellipse_485" data-name="Ellipse 485" cx="2.04" cy="0.973" rx="2.04" ry="0.973" transform="translate(6972.851 1989.549) rotate(-74.595)" fill="#fff"/>
          <ellipse id="Ellipse_486" data-name="Ellipse 486" cx="2.04" cy="0.973" rx="2.04" ry="0.973" transform="translate(6968.939 1993.003) rotate(-74.595)" fill="#fff"/>
          <ellipse id="Ellipse_487" data-name="Ellipse 487" cx="2.04" cy="0.973" rx="2.04" ry="0.973" transform="translate(6965.027 1996.458) rotate(-74.595)" fill="#fff"/>
        </g>
        <path id="Path_14519" data-name="Path 14519" d="M6956.349,2033.663l6.433-5.83a.62.62,0,0,0,.122-.768l-1.744-3.04a.62.62,0,0,0-.942-.161l-6.514,5.6a.619.619,0,0,0-.138.772l1.825,3.273A.62.62,0,0,0,6956.349,2033.663Z" fill="#1c75bc"/>
        <path id="Path_14520" data-name="Path 14520" d="M6950.862,2044.71l6.433-5.83a.618.618,0,0,0,.121-.767l-1.743-3.04a.62.62,0,0,0-.942-.162l-6.514,5.6a.62.62,0,0,0-.138.772l1.825,3.273A.62.62,0,0,0,6950.862,2044.71Z" fill="#8dc63f"/>
        <path id="Path_14521" data-name="Path 14521" d="M6962.115,2043.4l6.433-5.83a.621.621,0,0,0,.121-.768l-1.744-3.04a.619.619,0,0,0-.941-.162l-6.515,5.6a.619.619,0,0,0-.137.772l1.825,3.273A.62.62,0,0,0,6962.115,2043.4Z" fill="#1c75bc"/>
      </g>
    </g>
  </g>
</svg>
