<svg xmlns="http://www.w3.org/2000/svg" width="219.337" height="362.087" viewBox="0 0 219.337 362.087"><g data-name="Group 10013"><g data-name="Group 7734"><path data-name="Path 15392" d="M31.522 155.73l-.216-.133a2.5 2.5 0 0 0-3.481.931 2.722 2.722 0 0 0 .974 3.656 2.61 2.61 0 1 0 2.723-4.454z" fill="#f1f5f9"/><path data-name="Path 15393" d="M40.371 161.114l-.11-.067a2.553 2.553 0 0 0-3.536.886 2.664 2.664 0 0 0 .908 3.626 2.585 2.585 0 0 0 1.366.388 2.61 2.61 0 0 0 1.372-4.833z" fill="#f1f5f9"/><g data-name="Group 7435"><path data-name="Path 15394" d="M167.522 115.726l.466 209.039 51.349-29.646-.466-209.039z" fill="#cadada"/></g><g data-name="Group 7436"><path data-name="Path 15395" d="M25.458 29.646l.466 209.038 142.063 86.08-.466-209.039z" fill="#edf4f5"/></g><g data-name="Group 7437"><path data-name="Path 15396" d="M31.143 39.577l.428 195.762 130.732 79.494-.428-195.762z" fill="#cadada"/></g><g data-name="Group 7438"><path data-name="Path 15397" d="M31.571 129.702l130.732 79.494v-5.439L31.571 124.262z" fill="#fff"/></g><g data-name="Group 7439"><path data-name="Path 15398" d="M31.571 85.908l130.732 79.495v-5.439L31.571 80.469z" fill="#fff"/></g><g data-name="Group 7440"><path data-name="Path 15399" d="M25.458 29.646l142.063 86.079 51.349-29.646L76.807-.001z" fill="#fff"/></g><path data-name="Path 15400" d="M50.655 150.223v-.109a1663.522 1663.522 0 0 0-10.076-5.708z" fill="#9b9b9a"/><g data-name="Group 7441"><path data-name="Path 15401" d="M39.551 141.873c-.13-.084-.259-.172-.387-.26v.076l.009.255.008.208a.463.463 0 0 0 .051.178.635.635 0 0 0 .07.106.405.405 0 0 0 .1.086l.012.007c.12.062.211.012.217-.12v-.027l-.019-.463z" fill="#d7d1ca"/></g><g data-name="Group 7442"><path data-name="Path 15402" d="M39.307 142.437a.349.349 0 0 0 .094.083l.019.01-.012-.007a.405.405 0 0 1-.101-.086z" fill="#8b8b8a"/></g><path data-name="Path 15403" d="M39.176 141.944l-2.879-1.731-.107-.186.115-.059 2.862 1.721v-.076a21.181 21.181 0 0 1-1.96-1.531l-.925-.5-.115-.191.109-.062.257.14q-.216-.205-.431-.418l.037.923a.985.985 0 0 0 .441.746l.024.013 2.589 1.581.045.018a.463.463 0 0 1-.051-.178z" fill="#e5e5e2"/><path data-name="Path 15404" d="M39.235 142.33a.56.56 0 0 0 .071.1.635.635 0 0 1-.07-.106z" fill="#efe9e1"/><path data-name="Path 15405" d="M36.097 139.047l.038.925-.036-.923z" fill="#8b8b8a"/><g data-name="Group 7443"><path data-name="Path 15406" d="M36.215 138.103l-.1.085.115.175h.006l2.847 1.262-.01-.265z" fill="#efe9e1"/></g><g data-name="Group 7444"><path data-name="Path 15407" d="M66.385 158.822l.007.167c0 .315-.226.143-.495 0l-.852-.492c-1.34-.784-4.2-2.455-8.182-4.794-.919-.543-2-1.17-3.151-1.836-.979-.566-2.014-1.16-3.056-1.756v.109l19.049 11c.413.238.745.041.747-.426l.005-1.911-4.162-2.4z" fill="#00b3ba"/></g><g data-name="Group 7445"><path data-name="Path 15408" d="M66.385 158.822c-.461-.256-.911-.506-1.356-.755l.016.429.852.5c.269.14.493.313.495.026v-.029z" fill="#d7d1ca"/></g><g data-name="Group 7446"><path data-name="Path 15409" d="M65.045 158.5l.849.489-.849-.493z" fill="#efe9e1"/></g><g data-name="Group 7447"><path data-name="Path 15410" d="M39.922 139.888l-.385-.2.045 1.2.045 1.127v.077l.385.2-.052-1.337z" fill="#adafb1"/></g><g data-name="Group 7448"><path data-name="Path 15411" d="M56.56 145.942a328.935 328.935 0 0 1-5.885-2.709c-.8-.376-1.609-.758-2.4-1.133l-2.185-1.04c-3.217-1.535-5.616-2.7-5.743-2.758-.277-.145-.487.006-.475.332l.049 1.258.041 1.067a5.58 5.58 0 0 0 1.6 2.042l-.086-2.812 22.136 11.721.1 3.039-21.572-11.423c2.285 2 7.141 5.5 17.628 11.553 1.618.935 3.368 1.928 5.265 2.988l-.324-8.411a591.503 591.503 0 0 0-8.149-3.714z" fill="#2cad6e"/></g><g data-name="Group 7449"><path data-name="Path 15412" d="M59.764 155.08c-10.487-6.055-15.343-9.552-17.628-11.554l-.571-.3-.007-.222a5.58 5.58 0 0 1-1.6-2.042l.051 1.337.048 1.265a1.117 1.117 0 0 0 .5.832c.024.013 7.514 4.219 13.156 7.477 1.155.666 2.232 1.293 3.151 1.836 3.977 2.34 6.842 4.01 8.182 4.79l-.016-.429a468.158 468.158 0 0 1-5.266-2.99z" fill="#289b63"/></g><g data-name="Group 7450"><path data-name="Path 15413" d="M33.757 140.466l6.787 3.919a1.121 1.121 0 0 1-.484-.824l-.049-1.266-.385-.2.011.289c-.006.159-.1.209-.217.147l-2.819-1.8a.99.99 0 0 1-.465-.759l-.039-.925-.031-.859c-.013-.287.184-.423.427-.3l2.571 1.111a.324.324 0 0 1 .224.02.5.5 0 0 1 .236.377l.011.293.385.2-.049-1.258c-.012-.326.2-.477.475-.332.127.061 2.526 1.223 5.743 2.758l.033-11.643c0-1.166.831-1.63 1.845-1.044l.149.086c.066.038.132.08.2.125l2.4 1.374v-.256l19.008 10.974a1.74 1.74 0 0 1 .782 1.362l-.053 18.757c0 .467-.334.664-.747.426l4.355 2.514a3.3 3.3 0 0 1-1.5-2.6l.009-3.233.019-6.861.007-2.316.007-2.572c0-.955.675-1.346 1.507-.866l.338.195v-.481l-.548-.316a.831.831 0 0 1-.377-.654v-1.616c0-.241.171-.338.38-.217l4.071 2.35a.831.831 0 0 1 .378.654v.588a1.352 1.352 0 0 1 .995.2l.379.218v-.544l-.595-.343a.98.98 0 0 1-.445-.771l.006-1.779c0-.28.2-.4.447-.255l4.544 2.624a.987.987 0 0 1 .445.77l-.005 1.779c0 .177-.082.288-.2.311l2.752 1.589a.832.832 0 0 1 .378.653l-.005 1.616c0 .241-.17.338-.38.217l-.358-.207v.482l.339.2a3.3 3.3 0 0 1 1.5 2.6l-.043 14.988c0 .86-.545 1.255-1.26.978l2.865 1.653.08-28.338-55.95-32.3z" fill="#9b9b9a"/></g><g data-name="Group 7451"><path data-name="Path 15414" d="M48.274 142.1c.792.375 1.6.757 2.4 1.133l.009-3.267v-1.181l.025-8.827-2.4-1.386z" fill="#d8cfc4"/></g><g data-name="Group 7452"><path data-name="Path 15415" d="M38.17 110.264a.828.828 0 0 0 .371.642l2.766 1.6c.2.117.379.024.38-.209v-1.538l-3.516-2.031z" fill="#c0e7d4"/></g><g data-name="Group 7453"><path data-name="Path 15416" d="M41.687 112.294c0 .233-.177.326-.38.209l-2.766-1.6a.828.828 0 0 1-.371-.642l.005-1.539-.291-.167v1.538a1.457 1.457 0 0 0 .66 1.144l2.766 1.6c.365.21.663.041.665-.379v-1.539l-.284-.164z" fill="#fff"/></g><g data-name="Group 7454"><path data-name="Path 15417" d="M65.557 150.055l-.81-.379c.515.245.795.372.81.379z" fill="#2cad6e"/></g><g data-name="Group 7455"><path data-name="Path 15418" d="M77.9 165.953l1.393.8a2.972 2.972 0 0 1-.718-.6 1.368 1.368 0 0 1-.675-.2z" fill="#9b9b9a"/></g><g data-name="Group 7456"><path data-name="Path 15419" d="M50.675 143.233a328.935 328.935 0 0 0 5.885 2.709 564.573 564.573 0 0 1 8.145 3.714l.852.4c.094.048.182.088.257.131a.431.431 0 0 1 .25.4l.23 5.9 4.162 2.4.021-7.491-19.793-11.427z" fill="#f9f7f5"/></g><g data-name="Group 7457"><path data-name="Path 15420" d="M50.684 139.966l19.793 11.427v-.513l-19.793-11.427z" fill="#00b3ba"/></g><g data-name="Group 7458"><path data-name="Path 15421" d="M67.551 141.75l-1.44-.832v1.453l-1.264-.73v1.655l1.265.73v1.445l1.44.831v-1.445l1.258.726v-1.655l-1.258-.726z" fill="#fff"/></g><g data-name="Group 7459"><path data-name="Path 15422" d="M47.522 111.094l-.291-.167-.009 3.022.291.168 3.516 2.03.291.168.009-3.023-.291-.168z" fill="#fff"/></g><g data-name="Group 7460"><path data-name="Path 15423" d="M50.222 110.616v-.722l-1.88-1.086v.723h-.169c-.4-.021-.652.285-.653.782v.28l3.517 2.03v-.279a2.451 2.451 0 0 0-.646-1.533z" fill="#c0e7d4"/></g><g data-name="Group 7461"><path data-name="Path 15424" d="M50.522 110.061l-.291-.167v.722l.168.191a2.451 2.451 0 0 1 .646 1.533v.784l.291.168v-.785a3.064 3.064 0 0 0-.814-1.933z" fill="#fff"/></g><g data-name="Group 7462"><path data-name="Path 15425" d="M47.94 106.888c-.121-.071-.217-.009-.217.123v1.174a.479.479 0 0 0 .216.381l.121.07.291.168 1.88 1.086.291.167.115.067c.121.07.223.012.223-.128v-1.173a.5.5 0 0 0-.223-.378z" fill="#4e4e4d"/></g><g data-name="Group 7463"><path data-name="Path 15426" d="M52.188 113.788l-.291-.168-.009 3.022.291.168 3.516 2.03.291.168.008-3.022-.291-.168z" fill="#fff"/></g><g data-name="Group 7464"><path data-name="Path 15427" d="M52.188 113.788l3.516 2.03v-.505l-3.516-2.03z" fill="#c0e7d4"/></g><g data-name="Group 7465"><path data-name="Path 15428" d="M56.847 121.047a.829.829 0 0 0 .378.646l1.826 1.054.005-1.966-2.2-1.272z" fill="#c0e7d4"/></g><g data-name="Group 7466" fill="#fff"><path data-name="Path 15429" d="M79.435 154.988l.006-2.315-.006 2.315z"/><path data-name="Path 15430" d="M72.572 157.903l6.843 3.951.019-6.861-6.843-3.951z"/></g><g data-name="Group 7467"><path data-name="Path 15431" d="M57.394 114.545c-.481-.029-.82.336-.822.988v.785l.291.168v-.785c0-.5.259-.8.652-.783h.17v-.722l-.29-.168z" fill="#fff"/></g><g data-name="Group 7468"><path data-name="Path 15432" d="M36.305 139.968l-.115.058.108.187 2.879 1.731-.01-.255z" fill="#d7d1ca"/></g><g data-name="Group 7469"><path data-name="Path 15433" d="M37.204 140.082a21.181 21.181 0 0 0 1.96 1.531l-.019-.477z" fill="#fffffc"/></g><g data-name="Group 7470"><path data-name="Path 15434" d="M36.53 139.467q.334.316.674.615l1.941 1.054-.009-.255z" fill="#efe9e1"/></g><g data-name="Group 7471"><path data-name="Path 15435" d="M36.26 139.009l-.115-.183.1-.082 2.862 1.431-.021-.545-2.846-1.262-.122-.18.095-.085 2.863 1.262-.008-.2a.191.191 0 0 1 .041-.14l-.022-.014-.025-.013-2.571-1.111c-.243-.125-.44.011-.427.3l.033.861q.214.213.431.418l2.606 1.414-.017-.443z" fill="#fffffc"/></g><g data-name="Group 7472"><path data-name="Path 15436" d="M36.247 138.745l-.1.081.115.183 2.859 1.429-.01-.263z" fill="#efe9e1"/></g><g data-name="Group 7473"><path data-name="Path 15437" d="M39.19 142.311c.016.009.032.015.047.022z" fill="#fffffc"/></g><g data-name="Group 7474"><path data-name="Path 15438" d="M39.622 142.041l-.044-1.15-.045-1.2-.011-.293a.5.5 0 0 0-.224-.37l-.012-.007a.142.142 0 0 0-.177.007.191.191 0 0 0-.041.14l.008.2.01.265.021.545.01.263.017.443.009.255.019.477c.128.088.257.176.387.26l.067.047.019.463-.011-.289z" fill="#efe9e1"/></g><g data-name="Group 7475"><path data-name="Path 15439" d="M35.038 73.105l17.081 9.862.008-2.6-17.081-9.862z" fill="#fff"/></g><g data-name="Group 7476"><path data-name="Path 15440" d="M37.522 59.308c-.189-.109-.345-.02-.346.2l-.005 1.9a.757.757 0 0 0 .344.6l4.544 2.624c.189.109.345.021.346-.2v-1.9a.758.758 0 0 0-.344-.595z" fill="#fff"/></g><g data-name="Group 7477"><path data-name="Path 15441" d="M45.333 63.818c-.2-.114-.346-.021-.346.2l-.006 1.9a.754.754 0 0 0 .344.6l4.544 2.623c.189.11.346.021.346-.2l.006-1.9a.764.764 0 0 0-.344-.6z" fill="#fff"/></g><g data-name="Group 7478"><path data-name="Path 15442" d="M69.927 78.749l-3.312-1.913-.193-.111c-.088-.051-.156-.012-.156.089v.155a.339.339 0 0 0 .155.269l.264.152 3.165 1.827.27.156c.081.047.156.012.156-.089v-.155a.349.349 0 0 0-.155-.269z" fill="#fff"/></g><g data-name="Group 7479"><path data-name="Path 15443" d="M38.71 103.758c-.481-.029-.813.339-.815.992v.78l.291.168v-.785c0-.5.253-.8.645-.787H39v-.722l-.291-.168z" fill="#fff"/></g><g data-name="Group 7480"><path data-name="Path 15444" d="M38.183 105.703l-.291-.168-.008 3.023.291.168 3.516 2.03.284.164.009-3.023-.284-.164z" fill="#fff"/></g><g data-name="Group 7481"><path data-name="Path 15445" d="M38.183 105.703l3.516 2.03v-.506l-3.516-2.03z" fill="#c0e7d4"/></g><g data-name="Group 7482"><path data-name="Path 15446" d="M40.887 105.225v-.723l-1.886-1.089v.722h-.169c-.392-.017-.644.29-.645.787v.279l3.516 2.031v-.28a2.461 2.461 0 0 0-.646-1.533z" fill="#c0e7d4"/></g><g data-name="Group 7483"><path data-name="Path 15447" d="M41.18 104.67l-.291-.168v.723l.169.19a2.461 2.461 0 0 1 .646 1.533v.785l.284.164v-.785a3.048 3.048 0 0 0-.807-1.929z" fill="#fff"/></g><g data-name="Group 7484"><path data-name="Path 15448" d="M42.836 112.958a.83.83 0 0 0 .378.646l2.759 1.592c.209.122.379.025.38-.208v-1.539l-3.516-2.03z" fill="#c0e7d4"/></g><g data-name="Group 7485"><path data-name="Path 15449" d="M46.353 114.988c0 .233-.171.329-.38.208l-2.759-1.592a.83.83 0 0 1-.378-.646l.005-1.539-.291-.168-.005 1.539a1.476 1.476 0 0 0 .668 1.148l2.759 1.593c.372.214.67.044.671-.375l.005-1.539-.291-.168z" fill="#fff"/></g><g data-name="Group 7486"><path data-name="Path 15450" d="M38.602 101.5c-.122-.07-.217-.008-.217.124v1.173a.481.481 0 0 0 .216.381l.115.067.291.168 1.886 1.089.291.168.115.066c.122.071.217.009.217-.131v-1.174a.477.477 0 0 0-.215-.373z" fill="#4e4e4d"/></g><g data-name="Group 7487"><path data-name="Path 15451" d="M43.383 106.455c-.481-.028-.821.336-.822.989v.785l.291.168v-.785c0-.5.26-.8.653-.783h.169v-.722l-.29-.168z" fill="#fff"/></g><g data-name="Group 7488"><path data-name="Path 15452" d="M42.849 108.397l-.291-.168-.009 3.023.291.168 3.516 2.03.291.168.009-3.023-.291-.167z" fill="#fff"/></g><g data-name="Group 7489"><path data-name="Path 15453" d="M42.849 108.397l3.517 2.03v-.506l-3.516-2.03z" fill="#c0e7d4"/></g><g data-name="Group 7490"><path data-name="Path 15454" d="M45.553 107.918v-.722l-1.88-1.085v.722h-.169c-.393-.017-.651.286-.653.783v.279l3.516 2.03v-.279a2.464 2.464 0 0 0-.646-1.533z" fill="#c0e7d4"/></g><g data-name="Group 7491"><path data-name="Path 15455" d="M36.291 104.104l1.6.926v-.28c0-.653.334-1.021.815-.992v-.513l-.115-.067a.481.481 0 0 1-.216-.381v-1.173c0-.132.095-.194.217-.124l2.7 1.558a.477.477 0 0 1 .215.373v1.174c0 .14-.095.2-.217.131l-.115-.066v.518a3.048 3.048 0 0 1 .807 1.929v.28l.575.332v-.28c0-.653.341-1.017.822-.989v-.512l-.116-.067a.5.5 0 0 1-.222-.385v-1.173c0-.132.1-.191.224-.12l2.7 1.558a.492.492 0 0 1 .216.373v1.173c0 .14-.1.2-.218.132l-.121-.07v.513a3.071 3.071 0 0 1 .814 1.933v.279l.574.332v-.279c0-.653.342-1.017.823-.989v-.513l-.121-.07a.479.479 0 0 1-.216-.381v-1.174c0-.132.1-.194.217-.123l2.7 1.557a.5.5 0 0 1 .223.378v1.173c0 .14-.1.2-.223.128l-.115-.067v.513a3.065 3.065 0 0 1 .814 1.934v.279l.568.328v-.28c0-.652.342-1.016.823-.988v-.513l-.115-.066a.493.493 0 0 1-.222-.385v-1.174c0-.132.1-.19.224-.12l2.7 1.558a.482.482 0 0 1 .216.374v1.173c0 .14-.095.2-.217.132l-.121-.071v.513a3.041 3.041 0 0 1 .814 1.933v.28l.575.332v-.28c0-.652.342-1.017.822-.988v-.513l-.115-.066a.5.5 0 0 1-.223-.386v-1.173c0-.132.1-.19.223-.12l1.792 1.035.008-2.595-22.775-13.149z" fill="#2cad6e"/></g><g data-name="Group 7492"><path data-name="Path 15456" d="M45.846 107.364l-.291-.168v.722l.169.191a2.464 2.464 0 0 1 .646 1.533v.785l.29.168v-.785a3.065 3.065 0 0 0-.813-1.933z" fill="#fff"/></g><g data-name="Group 7493"><path data-name="Path 15457" d="M43.274 104.198c-.122-.071-.223-.012-.224.12v1.173a.5.5 0 0 0 .222.385l.116.067.29.168 1.88 1.085.291.168.121.07c.116.066.217.008.218-.132v-1.173a.492.492 0 0 0-.216-.373z" fill="#4e4e4d"/></g><g data-name="Group 7494"><path data-name="Path 15458" d="M48.056 109.153c-.481-.028-.821.336-.823.989v.784l.291.168v-.785c0-.5.253-.8.653-.782h.169v-.723l-.291-.168z" fill="#fff"/></g><g data-name="Group 7495"><path data-name="Path 15459" d="M47.522 111.094l3.517 2.03v-.505l-3.516-2.03z" fill="#c0e7d4"/></g><g data-name="Group 7496"><path data-name="Path 15460" d="M57.758 91.227l-4.273-2.467a2.213 2.213 0 0 1-.274-.189L33.935 77.442l-.01 3.59 55.8 32.213.01-3.59-31.7-18.3a1.594 1.594 0 0 1-.277-.128z" fill="#819ca3"/></g><g data-name="Group 7497"><path data-name="Path 15461" d="M77.372 79.856l-.886-.512-.527-.3-.893-.515a.253.253 0 0 0-.08-.032c-.1-.022-.186.042-.2.167l-.227 2.764 3.305 1.908-.211-3.017a.635.635 0 0 0-.281-.463z" fill="#fff"/></g><g data-name="Group 7498"><path data-name="Path 15462" d="M85.812 87.92L82.5 86.007l-.194-.111c-.088-.051-.156-.012-.156.089v.155a.336.336 0 0 0 .155.269l.27.156 3.165 1.827.264.152c.087.051.155.012.156-.089V88.3a.336.336 0 0 0-.155-.269z" fill="#fff"/></g><g data-name="Group 7499"><path data-name="Path 15463" d="M33.935 77.442l1.089.628.014-4.965.007-2.6 2.577 1.488a3.024 3.024 0 0 1-1.375-2.382v-.412l.017-5.905v-.412c0-.878.62-1.23 1.384-.789l4.274 2.468a3.035 3.035 0 0 1 1.375 2.381l-.02 6.729c0 .878-.626 1.226-1.383.789l3.536 2.042a3.024 3.024 0 0 1-1.375-2.382v-.412l.017-5.9v-.412c0-.878.62-1.23 1.384-.789l4.274 2.468a3.036 3.036 0 0 1 1.375 2.382l-.019 6.729c0 .877-.627 1.225-1.384.788l2.421 1.4v-.715c0-.87.62-1.23 1.384-.789l4.273 2.468a3.043 3.043 0 0 1 1.375 2.381v.715l2.773 1.6-.022 7.568 4.382 2.53a3.289 3.289 0 0 1-1.5-2.592l.009-3.24.02-6.861.006-2.315.008-2.573c0-.955.674-1.338 1.505-.858l.339.2v-.489l-.264-.152a.339.339 0 0 1-.155-.269c0-.256.069-.3.157-.244l.193.111.228-2.764c.013-.155.136-.217.284-.131l.893.515.521.3.892.515a.636.636 0 0 1 .277.456l.217 3.021.194.111a.349.349 0 0 1 .155.269c0 .256-.076.291-.157.244l-.27-.156v.49l.339.195a2.832 2.832 0 0 1 .817.748 1.256 1.256 0 0 1 .819.2l.338.195v-.49l-.263-.152a.364.364 0 0 1-.162-.28c0-.241.075-.283.163-.233l.189.11.232-2.762c.014-.156.136-.217.278-.135l.892.515.521.3.893.516 1.055.609.527.3.886.512a.635.635 0 0 1 .283.459l.211 3.017.193.112a.347.347 0 0 1 .162.272c0 .257-.075.291-.163.241l-.264-.152v.489l.338.2a2.808 2.808 0 0 1 .816.749 1.257 1.257 0 0 1 .82.2l.332.191v-.489l-.257-.148a.362.362 0 0 1-.161-.281c0-.241.075-.283.163-.233l.189.11.231-2.762c.008-.159.13-.221.278-.135l.893.515.521.3.892.515 1.055.61.521.3.893.515a.635.635 0 0 1 .276.455l.218 3.022.193.111a.336.336 0 0 1 .155.269c0 .256-.069.295-.156.244l-.264-.152v.489l.339.195a3.3 3.3 0 0 1 1.5 2.592l-.042 14.989c0 .956-.682 1.335-1.507.859l3.706 2.139-.01 3.59-55.8-32.213-.078 27.5 2.428 1.4.016-5.828.019-6.526 22.775 13.149-.008 2.595.9.519a.489.489 0 0 1 .222.377v1.174c0 .14-.1.2-.224.127l-.116.447a3.069 3.069 0 0 1 .814 1.933l-.015 5.346c0 .42-.307.586-.672.375l1.839 1.062.017-5.851.026-9.052.02-7.087 7.553 4.361-.02 7.087.893.515.02-7.087 7.553 4.361-.02 7.087 1.136.656.02-7.087 7.56 4.365-.02 7.087 1.089.628-.042 14.9 2.191 1.265.164-58.1-55.95-32.3zm25.15 33.137L36.31 97.43l.012-4.289.005-1.547.018-6.519L59.12 98.224zm-6.046-34.3c0-.225.15-.31.346-.2l4.544 2.624a.747.747 0 0 1 .344.595l-.005 1.9c0 .217-.157.306-.346.2l-4.545-2.624a.747.747 0 0 1-.343-.6zm-8.052-12.268c0-.218.149-.311.346-.2l4.544 2.623a.764.764 0 0 1 .344.6l-.006 1.9c0 .218-.157.306-.346.2l-4.544-2.623a.754.754 0 0 1-.344-.6zm-7.811-4.51c0-.217.157-.306.346-.2l4.544 2.624a.758.758 0 0 1 .344.595v1.9c0 .217-.157.306-.346.2l-4.544-2.624a.757.757 0 0 1-.344-.6z" fill="#9b9b9a"/></g><g data-name="Group 7500"><path data-name="Path 15464" d="M60.364 123.077c0 .233-.17.33-.38.209l-.933-.539-1.826-1.054a.829.829 0 0 1-.378-.646l.005-1.538-.291-.168v1.538a1.471 1.471 0 0 0 .667 1.148l2.759 1.593c.365.211.67.045.672-.375v-1.538l-.291-.168z" fill="#fff"/></g><g data-name="Group 7501" fill="#2cad6e"><path data-name="Path 15465" d="M45.972 115.531l-2-1.156z"/><path data-name="Path 15466" d="M41.306 112.837l-.014-.008z"/><path data-name="Path 15467" d="M50.644 118.229l-2.237-1.292z"/><path data-name="Path 15468" d="M52.551 119.329l1.326.765-1.326-.765z"/><path data-name="Path 15469" d="M47.222 115.488l.005-1.539.008-3.022v-.506l-.574-.332-.015 5.067c0 .419-.3.589-.671.375l2.436 1.406-.523-.3a1.462 1.462 0 0 1-.666-1.149z"/><path data-name="Path 15470" d="M57.222 122.027a1.474 1.474 0 0 1-.667-1.148v-1.538l.009-3.023v-.5l-.575-.332-.014 5.066c0 .42-.3.59-.665.379l-1.44-.832 5.173 2.987z"/><path data-name="Path 15471" d="M51.888 116.643l.009-3.023v-.5l-.568-.328-.015 5.067c0 .419-.306.585-.671.374l1.906 1.1a1.471 1.471 0 0 1-.667-1.148z"/><path data-name="Path 15472" d="M37.88 110.096v-1.538l.008-3.023v-.5l-1.6-.926-.016 5.828 5.017 2.9-2.752-1.589a1.457 1.457 0 0 1-.657-1.152z"/><path data-name="Path 15473" d="M42.545 112.788l.005-1.539.008-3.022v-.505l-.575-.332-.014 5.066c0 .42-.3.589-.665.379l2.664 1.538-.757-.437a1.476 1.476 0 0 1-.666-1.148z"/></g><g data-name="Group 7502"><path data-name="Path 15474" d="M57.685 114.713v.21l-.17-.005c-.393-.017-.651.286-.652.783v.28l2.2 1.273.007-2.254-1.386-.8z" fill="#c0e7d4"/></g><g data-name="Group 7503"><path data-name="Path 15475" d="M73.91 142.199c-.209-.121-.379-.024-.38.217v1.616a.831.831 0 0 0 .377.654l3.749 2.164.322.186c.21.121.379.024.38-.217v-1.616a.831.831 0 0 0-.378-.654z" fill="#edf4f5"/></g><g data-name="Group 7504"><path data-name="Path 15476" d="M81.281 156.082l6.85 3.955.007-2.315-6.85-3.955z" fill="#d1f1f3"/></g><g data-name="Group 7505" fill="#fff"><path data-name="Path 15477" d="M88.131 160.037l.007-2.315-.007 2.315z"/><path data-name="Path 15478" d="M81.261 162.943l6.85 3.955.02-6.861-6.85-3.955z"/></g><g data-name="Group 7506" fill="#819ca3"><path data-name="Path 15479" d="M82.222 149.076v-1.616c0-.241.171-.338.38-.217l1.319.762c.122-.023.2-.134.2-.311l.005-1.779a.987.987 0 0 0-.445-.77l-4.544-2.624c-.25-.145-.447-.025-.447.255l-.006 1.779a.98.98 0 0 0 .445.771l.595.343v.544l-.379-.218a1.351 1.351 0 0 0-.995-.2v1.028c0 .241-.17.338-.38.217l-.322-.186v.48l.3.176a3.3 3.3 0 0 1 1.5 2.6l-.043 14.982c0 .676-.339 1.069-.831 1.071a2.972 2.972 0 0 0 .718.6l3.216 1.857a3.347 3.347 0 0 1-1.257-2.431l.009-3.24.02-6.861.007-2.315.007-2.572c0-.956.681-1.343 1.513-.863l.338.2v-.482l-.548-.316a.831.831 0 0 1-.375-.664z"/><path data-name="Path 15480" d="M83.147 150.046l2.216 1.28z"/></g><g data-name="Group 7507"><path data-name="Path 15481" d="M72.867 120.925l.108.062v-.761l-.108-.062z" fill="#fff"/></g><g data-name="Group 7508"><path data-name="Path 15482" d="M73.535 121.855l.108.063v-1.306l-.108-.062z" fill="#fff"/></g><g data-name="Group 7509"><path data-name="Path 15483" d="M74.205 121.698l.1.059v-.761l-.1-.058z" fill="#fff"/></g><g data-name="Group 7510"><path data-name="Path 15484" d="M76.986 122.969l.561.324v-.427l-.561-.324z" fill="#edf4f5"/></g><g data-name="Group 7511"><path data-name="Path 15485" d="M77.547 123.288v.878l.108.063V122.924l-.108-.062z" fill="#fff"/></g><g data-name="Group 7512"><path data-name="Path 15486" d="M78.217 123.679v.334l.108.062v-.761l-.108-.062z" fill="#fff"/></g><g data-name="Group 7513"><path data-name="Path 15487" d="M78.322 123.974l.561.324v-.233l-.561-.324z" fill="#d1d3d4"/></g><g data-name="Group 7514"><path data-name="Path 15488" d="M78.322 123.741l.561.324v-.427l-.561-.324z" fill="#edf4f5"/></g><g data-name="Group 7515"><path data-name="Path 15489" d="M61.865 109.779l7.553 4.361.02-7.087-7.553-4.361z" fill="#819ca3"/></g><g data-name="Group 7516"><path data-name="Path 15490" d="M78.993 124.361l.561.324v-.233l-.561-.324z" fill="#d1d3d4"/></g><g data-name="Group 7517"><path data-name="Path 15491" d="M79.663 124.748l.561.324v-.233l-.561-.324z" fill="#d1d3d4"/></g><g data-name="Group 7518"><path data-name="Path 15492" d="M79.664 124.514l.561.324v-.427l-.561-.324z" fill="#edf4f5"/></g><g data-name="Group 7519"><path data-name="Path 15493" d="M39.622 142.041v-.023l-.045-1.127z" fill="#fffffc"/></g><g data-name="Group 7520"><path data-name="Path 15494" d="M33.837 112.128l55.95 32.3.01-3.6-55.95-32.3z" fill="#819ca3"/></g><g data-name="Group 7521"><path data-name="Path 15495" d="M80.322 125.775l-.1-.059v-.645l-.561-.324v.1l-.108-.063v-.1l-.561-.324v.645l-.108-.062v-.645l-.561-.324v.1l-.108-.062v-.1l-.561-.324v.645l-.108-.062v-.645l-.561-.324v.1l-.108-.062v-.1l-.1-.058v1.391l4.754 2.75v-1.4l-1.2-.695z" fill="#bebfc1"/></g><g data-name="Group 7522"><path data-name="Path 15496" d="M81.694 124.971c-.088-.051-.162-.016-.163.085v2.7a.36.36 0 0 0 .162.28l.047.028c.088.05.163.008.163-.093v-2.7a.35.35 0 0 0-.161-.273z" fill="#8d8f90"/></g><g data-name="Group 7523"><path data-name="Path 15497" d="M81.897 127.436l2.887 1.67v-1.4l-2.887-1.667z" fill="#bebfc1"/></g><g data-name="Group 7524"><path data-name="Path 15498" d="M57.786 81.328l-4.273-2.468c-.764-.441-1.382-.081-1.384.789v.42l5.775 3.334-.017 5.9-5.775-3.334v.412a3.063 3.063 0 0 0 1.1 2.193 2.213 2.213 0 0 0 .274.189l4.273 2.467a1.594 1.594 0 0 0 .272.126c.63.218 1.11-.144 1.112-.915l.01-3.411.007-2.6v-.715a3.043 3.043 0 0 0-1.374-2.387z" fill="#e6e7e8"/></g><g data-name="Group 7525"><path data-name="Path 15499" d="M84.79 127.179l-.006 2.214a.314.314 0 0 0 .128.245c.067.039.129 0 .122-.1l.006-2.215a.276.276 0 0 0-.121-.234c-.067-.038-.129-.001-.129.09z" fill="#8d8f90"/></g><g data-name="Group 7526"><path data-name="Path 15500" d="M59.152 87.027l2.772 1.6.007-2.6-2.773-1.6z" fill="#fff"/></g><g data-name="Group 7527"><path data-name="Path 15501" d="M70.133 98.341l1.637.944a2.836 2.836 0 0 1-.818-.748 1.265 1.265 0 0 1-.819-.196z" fill="#9b9b9a"/></g><g data-name="Group 7528"><path data-name="Path 15502" d="M78.994 124.128l.561.324v-.427l-.561-.324z" fill="#edf4f5"/></g><g data-name="Group 7529"><path data-name="Path 15503" d="M79.555 124.452v.334l.108.063v-.762l-.108-.062z" fill="#fff"/></g><g data-name="Group 7530"><path data-name="Path 15504" d="M79 119.672l7.56 4.365.02-7.087-7.558-4.362z" fill="#819ca3"/></g><g data-name="Group 7531"><path data-name="Path 15505" d="M64.822 83.43l6.85 3.955.006-2.316-6.85-3.955z" fill="#d1f1f3"/></g><g data-name="Group 7532" fill="#fff"><path data-name="Path 15506" d="M79.613 91.968l.006-2.316-.006 2.316z"/><path data-name="Path 15507" d="M72.751 94.879l6.843 3.951.019-6.861-6.843-3.951z"/></g><g data-name="Group 7533"><path data-name="Path 15508" d="M74.628 82.467l3.165 1.827v-.489l-3.165-1.827z" fill="#00868c"/></g><g data-name="Group 7534"><path data-name="Path 15509" d="M78.131 84.488l-.338-.2-3.165-1.827-.338-.2c-.831-.48-1.5-.1-1.506.859l-.007 2.572 6.843 3.951-.026 9.177-6.843-3.951-.009 3.24a3.29 3.29 0 0 0 1.5 2.592l1.373.792 2.468 1.425a1.252 1.252 0 0 0 .818.2c.413-.069.686-.444.688-1.053l.042-14.989a3.212 3.212 0 0 0-.679-1.843 2.824 2.824 0 0 0-.821-.745z" fill="#27bfc4"/></g><g data-name="Group 7535"><path data-name="Path 15510" d="M77.866 83.332l-3.305-1.908-.194-.112c-.088-.05-.162-.016-.163.085v.156a.35.35 0 0 0 .162.272l.264.152 3.164 1.828.264.152c.088.05.162.016.163-.085v-.156a.347.347 0 0 0-.162-.272z" fill="#fff"/></g><g data-name="Group 7536"><path data-name="Path 15511" d="M80.709 92.601l6.85 3.955.007-2.316-6.85-3.955z" fill="#d1f1f3"/></g><g data-name="Group 7537"><path data-name="Path 15512" d="M26.442 145.162l69.873 40.342.306-107.82-69.874-40.342zm66.559 31.432a4.126 4.126 0 0 1 1.874 3.245c0 1.189-.851 1.664-1.886 1.067a4.119 4.119 0 0 1-1.874-3.238c.007-1.196.845-1.68 1.886-1.074zm-59.164-64.466l.01-3.6.078-27.5.01-3.59.077-27.01 55.95 32.3-.255 90.034-2.865-1.653a1.986 1.986 0 0 1-.246-.119l-3.841-2.218a2.254 2.254 0 0 1-.246-.165L40.58 144.399l-6.823-3.94z" fill="#edf4f5"/></g><g data-name="Group 7538"><path data-name="Path 15513" d="M36.273 139.327l-.109.062.115.191.925.5q-.341-.3-.674-.615z" fill="#d7d1ca"/></g><g data-name="Group 7539"><path data-name="Path 15514" d="M47.967 128.373c-1.014-.586-1.842-.122-1.845 1.044l-.033 11.643 2.185 1.04.038-13.516a2.036 2.036 0 0 0-.2-.125z" fill="#efe9e1"/></g><g data-name="Group 7540"><path data-name="Path 15515" d="M41.472 140.188l.086 2.812.007.222.571.3 21.572 11.423-.1-3.039z" fill="#d1f1f3"/></g><g data-name="Group 7541"><path data-name="Path 15516" d="M66.064 150.581a.43.43 0 0 0-.25-.4c-.075-.043-.163-.083-.257-.131-.015-.007-.3-.134-.81-.379l-.042-.02.324 8.411c.445.249.9.5 1.356.755l-.091-2.341z" fill="#efe9e1"/></g><g data-name="Group 7542"><path data-name="Path 15517" d="M50.686 139.453l19.793 11.427v-.668l-19.793-11.427z" fill="#f9f7f5"/></g><g data-name="Group 7543"><path data-name="Path 15518" d="M47.509 115.655a.827.827 0 0 0 .377.646l2.759 1.593c.21.121.379.025.38-.208l.005-1.539-3.517-2.03z" fill="#c0e7d4"/></g><g data-name="Group 7544"><path data-name="Path 15519" d="M51.022 117.688c0 .233-.17.329-.38.208l-2.759-1.593a.827.827 0 0 1-.377-.646v-1.538l-.29-.168-.005 1.539a1.462 1.462 0 0 0 .667 1.148l2.759 1.592c.366.211.671.045.672-.374v-1.539l-.29-.168z" fill="#fff"/></g><g data-name="Group 7545"><path data-name="Path 15520" d="M52.175 118.349a.828.828 0 0 0 .377.646l2.766 1.6c.2.117.372.021.373-.212l.005-1.539-3.517-2.03z" fill="#c0e7d4"/></g><g data-name="Group 7546"><path data-name="Path 15521" d="M55.691 120.38c0 .233-.17.329-.373.212l-2.766-1.6a.828.828 0 0 1-.377-.646v-1.538l-.291-.168v1.538a1.471 1.471 0 0 0 .667 1.148l2.766 1.6c.365.211.664.041.665-.379v-1.538l-.29-.168z" fill="#fff"/></g><g data-name="Group 7547"><path data-name="Path 15522" d="M52.722 111.847c-.481-.028-.821.336-.823.988v.78l.291.168v-.785c0-.5.26-.8.652-.782h.17v-.723l-.291-.168z" fill="#fff"/></g><g data-name="Group 7548"><path data-name="Path 15523" d="M50.714 129.702v.256l-.025 8.827 19.793 11.428.023-8.175a1.74 1.74 0 0 0-.782-1.362zM68.8 145.584l-1.257-.726v1.445l-1.441-.831v-1.445l-1.264-.73v-1.655l1.265.73v-1.454l1.44.832v1.453l1.258.726z" fill="#00b3ba"/></g><g data-name="Group 7549"><path data-name="Path 15524" d="M54.898 113.314v-.723l-1.887-1.089v.723h-.17c-.392-.017-.651.285-.652.782v.28l3.516 2.03v-.279a2.421 2.421 0 0 0-.646-1.533z" fill="#c0e7d4"/></g><g data-name="Group 7550"><path data-name="Path 15525" d="M55.185 112.755l-.285-.164v.723l.162.187a2.421 2.421 0 0 1 .646 1.533v.784l.291.168v-.785a3.041 3.041 0 0 0-.814-1.933z" fill="#fff"/></g><g data-name="Group 7551"><path data-name="Path 15526" d="M59.051 122.747l.933.539c.21.121.379.024.38-.209v-1.538l-1.312-.758z" fill="#e1e1e1"/></g><g data-name="Group 7552"><path data-name="Path 15527" d="M72.591 151.042l6.843 3.951.006-2.315-6.843-3.951z" fill="#d1f1f3"/></g><g data-name="Group 7553"><path data-name="Path 15528" d="M52.613 109.588c-.122-.07-.224-.012-.224.12v1.174a.493.493 0 0 0 .222.385l.115.066.291.168 1.887 1.089.284.164.121.071c.122.07.217.008.217-.132v-1.173a.482.482 0 0 0-.216-.374z" fill="#4e4e4d"/></g><g data-name="Group 7554"><path data-name="Path 15529" d="M59.065 117.759l-2.2-1.273-.291-.168-.009 3.022.291.168 2.2 1.273 1.312.758.291.168.009-3.022-.291-.168z" fill="#fff"/></g><g data-name="Group 7555" fill="#c0e7d4"><path data-name="Path 15530" d="M59.066 117.254l.006-2.253-.006 2.253z"/><path data-name="Path 15531" d="M56.861 116.488l2.2 1.273v-.505l-2.2-1.273z"/></g><g data-name="Group 7556"><path data-name="Path 15532" d="M74.45 145.488l3.165 1.827v-.481l-3.164-1.827z" fill="#5c463f"/></g><g data-name="Group 7557"><path data-name="Path 15533" d="M77.614 147.311l.034.019v-.373-.107l-.036-.021z" fill="#9b9b9a"/></g><g data-name="Group 7558"><path data-name="Path 15534" d="M59.564 116.008v-.723l-.493-.285-.008 2.759 1.312.757v-.785a2.457 2.457 0 0 0-.646-1.532z" fill="#e1e1e1"/></g><g data-name="Group 7559"><path data-name="Path 15535" d="M59.857 115.453l-.291-.168v.723l.169.191a2.457 2.457 0 0 1 .646 1.532v.785l.291.168v-.785a3.069 3.069 0 0 0-.814-1.933z" fill="#fff"/></g><g data-name="Group 7560" fill="#7b5d54"><path data-name="Path 15536" d="M79.416 161.854l.018-6.487-.018 6.487z"/><path data-name="Path 15537" d="M77.952 147.506l-.3-.176-3.2-1.846-.338-.2c-.832-.48-1.5-.089-1.507.866l-.007 2.572 6.843 3.951-.007 2.69.015-5.262a3.3 3.3 0 0 0-1.499-2.595z"/><path data-name="Path 15538" d="M72.563 161.136a3.3 3.3 0 0 0 1.5 2.6l3.841 2.218a1.368 1.368 0 0 0 .675.205c.492 0 .829-.4.831-1.071l.01-3.233-6.844-3.951z"/></g><g data-name="Group 7561"><path data-name="Path 15539" d="M59.077 113.322l-1.792-1.035c-.121-.07-.223-.012-.223.12v1.173a.5.5 0 0 0 .223.386l.115.066.291.168 1.386.8.493.285.291.168.115.066c.122.071.224.013.224-.127v-1.173a.49.49 0 0 0-.222-.378z" fill="#4e4e4d"/></g><g data-name="Group 7562"><path data-name="Path 15540" d="M36.322 93.141l22.775 13.149v-1.546L36.322 91.595z" fill="#d1f1f3"/></g><g data-name="Group 7563" fill="#7b5d54"><path data-name="Path 15541" d="M88.111 166.898l.016-5.549-.016 5.549z"/><path data-name="Path 15542" d="M86.649 152.55l-.339-.2-3.164-1.827-.338-.2c-.832-.48-1.511-.093-1.513.863l-.007 2.572 6.85 3.955-.011 3.627.018-6.2a3.3 3.3 0 0 0-1.496-2.59z"/><path data-name="Path 15543" d="M81.252 166.188a3.347 3.347 0 0 0 1.257 2.431 2.254 2.254 0 0 0 .246.165l3.841 2.218a1.856 1.856 0 0 0 .246.119c.715.277 1.258-.118 1.26-.978l.009-3.24-6.85-3.955z"/></g><g data-name="Group 7564"><path data-name="Path 15544" d="M69.275 119.116l-.365-.211a.1.1 0 0 0-.163.093v.062a.351.351 0 0 0 .162.273l.365.21v.148l1.379.914v-.95l-1.379-.686z" fill="#00b3ba"/></g><g data-name="Group 7565"><path data-name="Path 15545" d="M71.528 120.152l.108.063v-.762l-.108-.062z" fill="#fff"/></g><g data-name="Group 7566"><path data-name="Path 15546" d="M72.196 121.082l.108.063v-1.305l-.108-.062z" fill="#fff"/></g><g data-name="Group 7567"><path data-name="Path 15547" d="M75.646 122.53l-.1-.059v-.761l-.568-.328v1.3l-.1-.058v-1.306l-.568-.328v.762l-.1-.059v-.761l-.562-.325v1.306l-.108-.063v-1.3l-.561-.324v.762l-.108-.063v-.761l-.562-.325v1.306l-.108-.063v-1.3l-.561-.324v.762l-.108-.063v-.761l-.162-.094c-.088-.051-.163.007-.163.139v2.024a.416.416 0 0 0 .161.326l.055.031 4.727 2.729v-2.49l-.494-.285z" fill="#00b3ba"/></g><g data-name="Group 7568"><path data-name="Path 15548" d="M76.775 123.081l.1.058v-.233l-.1-.058z" fill="#d1d3d4"/></g><g data-name="Group 7569"><path data-name="Path 15549" d="M76.877 122.906v.334l.108.063v-.762l-.108-.062z" fill="#fff"/></g><g data-name="Group 7570"><path data-name="Path 15550" d="M76.985 123.201l.561.324v-.233l-.561-.324z" fill="#d1d3d4"/></g><g data-name="Group 7571"><path data-name="Path 15551" d="M77.654 123.588l.561.324v-.233l-.561-.324z" fill="#d1d3d4"/></g><g data-name="Group 7572"><path data-name="Path 15552" d="M79 119.672l-1.136-.656-7.553-4.361-.893-.515-7.553-4.361-.026 9.052 11.849 8.81a9.528 9.528 0 0 0 .856.562 6.87 6.87 0 0 0 .82.406l12.259 5.108.026-9.052-1.089-.628zm-10.267-.588l-4.294-2.479.521.176 3.774 2.178zm16.3 10.454c.007.1-.055.139-.122.1a.311.311 0 0 1-.128-.245v-.287l-2.887-1.67v.531a.1.1 0 0 1-.163.093l-.048-.028a.361.361 0 0 1-.161-.28v-.1l-10.109-5.837-.055-.031a.416.416 0 0 1-.161-.326v-.6l-.386-.222v.07l-.081.046-.081-.14-1.379-.921v-.148l-.365-.21a.351.351 0 0 1-.162-.273v-.062a.1.1 0 0 1 .163-.093l.365.211v-.147l1.379.686.082-.053.081.14v.07l.386.222v-.6c0-.132.075-.19.163-.139l.162.094.108.062.561.324.108.062.562.325.108.062.561.324.108.062.562.325.1.058.568.328.1.059.568.328.1.058.494.285.074.043.1.059.46.265.1.059.108.062.561.324.108.063.562.324.108.062.561.324.108.063.562.324.108.062.561.324.1.059 1.2.7v-.109c0-.1.075-.136.163-.085l.048.027a.35.35 0 0 1 .161.273v.536l2.887 1.667v-.295c0-.094.061-.128.129-.09a.276.276 0 0 1 .121.234z" fill="#d1f1f3"/></g><g data-name="Group 7573"><path data-name="Path 15553" d="M64.439 116.597l4.294 2.487v-.124l-3.773-2.178z" fill="#939598"/></g><g data-name="Group 7574"><path data-name="Path 15554" d="M83.922 148.005l-1.319-.762c-.209-.121-.379-.024-.38.217v1.616a.831.831 0 0 0 .377.654l2.764 1.595 1.307.755c.21.121.379.024.38-.216l.005-1.617a.832.832 0 0 0-.378-.653z" fill="#edf4f5"/></g><g data-name="Group 7575"><path data-name="Path 15555" d="M70.656 119.648v.964l.081.14.082-.046v-.964l-.081-.14z" fill="#00b3ba"/></g><g data-name="Group 7576"><path data-name="Path 15556" d="M70.815 120.636l.386.222v-.824l-.386-.222z" fill="#bebfc1"/></g><g data-name="Group 7577" fill="#fff"><path data-name="Path 15557" d="M59.098 106.288v-1.546l.019-6.519-.023 8.065z"/><path data-name="Path 15558" d="M36.31 97.43l22.775 13.149.012-4.289-22.775-13.149z"/></g><g data-name="Group 7578"><path data-name="Path 15559" d="M36.322 91.594l22.775 13.149.019-6.519-22.775-13.149z" fill="#2cad6e"/></g><g data-name="Group 7579"><path data-name="Path 15560" d="M36.248 69.196l5.775 3.334.017-5.906-5.775-3.334z" fill="#fff"/></g><g data-name="Group 7580"><path data-name="Path 15561" d="M52.111 85.966l.008-3-17.081-9.862-.014 4.965 18.187 10.5a3.063 3.063 0 0 1-1.1-2.193z" fill="#ec5f61"/></g><g data-name="Group 7581"><path data-name="Path 15562" d="M74.873 122.628l.1.059v-1.305l-.1-.059z" fill="#fff"/></g><g data-name="Group 7582"><path data-name="Path 15563" d="M75.544 122.471l.1.058v-.761l-.1-.059z" fill="#fff"/></g><g data-name="Group 7583"><path data-name="Path 15564" d="M41.922 64.558l-4.274-2.468c-.764-.441-1.382-.089-1.384.789v.412l5.775 3.334-.017 5.905-5.775-3.334v.412a3.024 3.024 0 0 0 1.375 2.382l4.274 2.467c.757.437 1.381.089 1.383-.789l.02-6.729a3.035 3.035 0 0 0-1.377-2.381z" fill="#e6e7e8"/></g><g data-name="Group 7584"><path data-name="Path 15565" d="M76.212 123.401l.1.058v-1.305l-.1-.059z" fill="#fff"/></g><g data-name="Group 7585"><path data-name="Path 15566" d="M76.314 123.46l-.1-.058v-1.305l-.074-.043v2.49l.629.363.007-2.486-.46-.266z" fill="#939598"/></g><g data-name="Group 7586"><path data-name="Path 15567" d="M76.776 122.847l.1.058v-.427l-.1-.059z" fill="#edf4f5"/></g><g data-name="Group 7587"><path data-name="Path 15568" d="M77.655 123.355l.561.324v-.427l-.561-.324z" fill="#edf4f5"/></g><g data-name="Group 7588"><path data-name="Path 15569" d="M78.886 124.065v.878l.108.062V123.7l-.108-.063z" fill="#fff"/></g><g data-name="Group 7589"><path data-name="Path 15570" d="M76.77 124.907l4.754 2.745v-.43l-4.754-2.75z" fill="#edf4f5"/></g><g data-name="Group 7590"><path data-name="Path 15571" d="M80.222 124.839v.878l.1.059v-1.306l-.1-.059z" fill="#fff"/></g><g data-name="Group 7591"><path data-name="Path 15572" d="M44.058 73.705l5.775 3.334.017-5.906-5.775-3.334z" fill="#fff"/></g><g data-name="Group 7592"><path data-name="Path 15573" d="M80.322 125.13l1.2.695v-.233l-1.2-.695z" fill="#d1d3d4"/></g><g data-name="Group 7593"><path data-name="Path 15574" d="M80.322 124.897l1.2.695v-.427l-1.2-.7z" fill="#edf4f5"/></g><g data-name="Group 7594"><path data-name="Path 15575" d="M52.122 80.364l-.008 2.6-.008 3 5.775 3.334.017-5.9-5.775-3.334z" fill="#fff"/></g><g data-name="Group 7595"><path data-name="Path 15576" d="M49.734 69.067l-4.274-2.468c-.764-.441-1.381-.089-1.384.789v.412l5.775 3.334-.017 5.906-5.775-3.335v.412a3.024 3.024 0 0 0 1.375 2.382l4.274 2.467c.757.437 1.381.09 1.384-.788l.019-6.729a3.036 3.036 0 0 0-1.377-2.382z" fill="#e6e7e8"/></g><g data-name="Group 7596"><path data-name="Path 15577" d="M59.142 90.438c0 .771-.483 1.133-1.112.915l3.88 2.24.015-4.965-2.773-1.6z" fill="#ec5f61"/></g><g data-name="Group 7597"><path data-name="Path 15578" d="M81.901 126.04l2.887 1.667v-.233l-2.887-1.667z" fill="#d1d3d4"/></g><g data-name="Group 7598"><path data-name="Path 15579" d="M53.385 76.088c-.2-.113-.345-.028-.346.2l-.005 1.9a.745.745 0 0 0 .344.6l4.544 2.624c.189.109.345.021.346-.2l.005-1.9a.747.747 0 0 0-.344-.595z" fill="#fff"/></g><g data-name="Group 7599"><path data-name="Path 15580" d="M70.311 114.655l7.553 4.361.02-7.086-7.553-4.361z" fill="#819ca3"/></g><g data-name="Group 7600"><path data-name="Path 15581" d="M75.364 128.609a6.87 6.87 0 0 1-.82-.406 9.528 9.528 0 0 1-.856-.562l-11.849-8.81-.017 5.851 7.554 4.361.892.515 7.554 4.361 1.136.656 7.56 4.365 1.089.628.042-14.9-.026 9.053z" fill="#66d1d5"/></g><g data-name="Group 7601"><path data-name="Path 15582" d="M78.079 102.928l1.636.945a2.846 2.846 0 0 1-.818-.75 1.252 1.252 0 0 1-.818-.195z" fill="#9b9b9a"/></g><g data-name="Group 7602" fill="#fff"><path data-name="Path 15583" d="M71.675 87.388l.006-2.316-.006 2.316z"/><path data-name="Path 15584" d="M64.805 90.288l6.85 3.955.019-6.861-6.85-3.955z"/></g><g data-name="Group 7603"><path data-name="Path 15585" d="M66.683 77.879l3.165 1.827v-.489l-3.165-1.827z" fill="#00868c"/></g><g data-name="Group 7604" fill="#27bfc4"><path data-name="Path 15586" d="M64.796 93.532a3.289 3.289 0 0 0 1.5 2.591l3.841 2.218a1.265 1.265 0 0 0 .819.2c.416-.067.692-.441.694-1.051l.009-3.24-6.85-3.955z"/><path data-name="Path 15587" d="M71.656 94.246l.015-5.514-.015 5.514z"/><path data-name="Path 15588" d="M71.003 80.65a2.832 2.832 0 0 0-.817-.748l-.339-.195-3.164-1.828-.339-.2c-.831-.48-1.5-.1-1.505.858l-.008 2.573 6.85 3.954-.01 3.663.018-6.234a3.223 3.223 0 0 0-.686-1.843z"/></g><g data-name="Group 7605"><path data-name="Path 15589" d="M69.433 75.272l-.892-.515-.521-.3-.893-.516c-.148-.086-.271-.024-.284.131l-.228 2.764 3.312 1.913-.217-3.021a.636.636 0 0 0-.277-.456z" fill="#fff"/></g><g data-name="Group 7606"><path data-name="Path 15590" d="M72.77 88.017l6.843 3.951.006-2.316-6.843-3.951z" fill="#d1f1f3"/></g><g data-name="Group 7607" fill="#819ca3"><path data-name="Path 15591" d="M74.238 100.711l1.373.792-1.373-.793z"/><path data-name="Path 15592" d="M72.742 98.119l.009-3.24.019-6.862.007-2.315.007-2.572c0-.956.675-1.339 1.506-.859l.338.2v-.49l-.264-.152a.35.35 0 0 1-.162-.272v-.156c0-.1.075-.135.163-.085l.194.112.227-2.764c.012-.125.093-.189.2-.167a.472.472 0 0 0-.082-.062l-.893-.515-.52-.3-.893-.515c-.142-.082-.264-.021-.278.135l-.232 2.762-.189-.11a.1.1 0 0 0-.163.093v.14a.364.364 0 0 0 .162.28l.263.152v.49l-.338-.195a1.256 1.256 0 0 0-.819-.2 3.223 3.223 0 0 1 .686 1.848l-.043 14.988c0 .61-.278.984-.694 1.051a2.854 2.854 0 0 0 .818.749l2.468 1.424a3.287 3.287 0 0 1-1.497-2.593z"/></g><g data-name="Group 7608" fill="#fff"><path data-name="Path 15593" d="M87.559 96.556l.007-2.316-.007 2.316z"/><path data-name="Path 15594" d="M80.69 99.462l6.85 3.955.019-6.861-6.85-3.955z"/></g><g data-name="Group 7609"><path data-name="Path 15595" d="M82.574 87.054l3.165 1.827v-.489l-3.165-1.827z" fill="#00868c"/></g><g data-name="Group 7610"><path data-name="Path 15596" d="M86.077 89.076l-.338-.195-3.165-1.827-.338-.195c-.832-.48-1.51-.1-1.513.854l-.007 2.572 6.85 3.955-.026 9.177-6.85-3.955-.01 3.24a3.305 3.305 0 0 0 1.5 2.6l1.366.788 2.474 1.43c.825.476 1.5.1 1.507-.859l.042-14.989a3.3 3.3 0 0 0-1.492-2.596z" fill="#27bfc4"/></g><g data-name="Group 7611" fill="#819ca3"><path data-name="Path 15597" d="M82.183 105.298l1.366.789-1.366-.789z"/><path data-name="Path 15598" d="M80.68 102.702l.01-3.24.019-6.861.007-2.316.007-2.572c0-.955.681-1.334 1.513-.854l.338.195v-.489l-.27-.156a.336.336 0 0 1-.155-.269v-.155c0-.1.068-.14.156-.089l.194.111.234-2.76c.011-.125.088-.192.195-.168a.44.44 0 0 0-.079-.061l-.893-.515-.521-.3-.893-.515c-.148-.086-.27-.024-.278.135l-.231 2.762-.189-.11c-.088-.05-.163-.008-.163.093v.14a.362.362 0 0 0 .161.281l.257.148v.489l-.331-.191a1.259 1.259 0 0 0-.82-.2 3.212 3.212 0 0 1 .679 1.843l-.042 14.989c0 .609-.275.984-.688 1.053a2.846 2.846 0 0 0 .818.75l2.469 1.425a3.305 3.305 0 0 1-1.504-2.593z"/></g><g data-name="Group 7612"><path data-name="Path 15599" d="M85.322 84.443l-.893-.515-.521-.3-.892-.516a.266.266 0 0 0-.083-.033c-.107-.024-.184.043-.195.168l-.234 2.76 3.312 1.913-.218-3.021a.635.635 0 0 0-.276-.456z" fill="#fff"/></g><path data-name="Path 15600" d="M134.99 121.161l2.5 1.441v-.381l-2.5-1.441z" fill="#e0e0e0"/><path data-name="Path 15601" d="M153.003 192.019l-.049 17.281 2.86 1.651 1.021.59.049-17.281-1.021-.589z" fill="#2cad6e"/><path data-name="Path 15602" d="M96.315 185.504l.751.433.306-107.82-.751-.433z" fill="#e6ecec"/><g data-name="Group 7613" fill="#fff"><path data-name="Path 15603" d="M126.359 186.428z"/><path data-name="Path 15604" d="M125.775 184.518c-.325-.187-.582-.032-.584.34v.894l.048-.011.135.008a1.038 1.038 0 0 1 .183.043 1.324 1.324 0 0 1 .216.1 1.657 1.657 0 0 1 .216.148 2.34 2.34 0 0 1 .19.171l.135.148.047.066v-.893a1.293 1.293 0 0 0-.586-1.014z"/><path data-name="Path 15605" d="M126.176 186.431a.708.708 0 0 1-.19-.055 1.257 1.257 0 0 1-.216-.1 1.712 1.712 0 0 1-.216-.148 1.289 1.289 0 0 1-.183-.16l-.135-.148-.047-.066v.894a1.279 1.279 0 0 0 .579 1.012c.325.187.589.036.59-.337v-.893l-.048.011z"/></g><g data-name="Group 7614"><path data-name="Path 15606" d="M125.776 184.188c-.48-.277-.874-.053-.875.507l-.005 1.787a1.921 1.921 0 0 0 .869 1.513c.487.282.88.057.882-.5l.005-1.787a1.924 1.924 0 0 0-.876-1.52zm.58 3.137c0 .373-.265.524-.59.337a1.279 1.279 0 0 1-.579-1.012v-1.788c0-.372.259-.527.584-.34a1.3 1.3 0 0 1 .586 1.016z" fill="#a6adb5"/></g><g data-name="Group 7615"><path data-name="Path 15607" d="M126.177 186.213a2.34 2.34 0 0 0-.19-.171 1.657 1.657 0 0 0-.216-.148 1.324 1.324 0 0 0-.216-.1 1.038 1.038 0 0 0-.183-.043l-.135-.008-.048.011.047.066.135.148a1.289 1.289 0 0 0 .183.16 1.712 1.712 0 0 0 .216.148 1.257 1.257 0 0 0 .216.1.708.708 0 0 0 .19.055l.135.008.048-.011-.047-.067z" fill="#d6d9db"/></g><g data-name="Group 7616"><path data-name="Path 15608" d="M116.268 166.81c-.318-.183-.575-.044-.583.317l-.255 6.08-.067.031a.365.365 0 0 1-.135-.218l-.068-7.231a1.347 1.347 0 0 0-.6-1.046c-.345-.2-.623-.052-.631.328l-.14 6.76c-.018.044-.062.061-.139.016a.374.374 0 0 1-.145-.328l-.054-7.207a1.382 1.382 0 0 0-.607-1.051c-.345-.2-.623-.051-.631.329l-.142 7.241c-.048.068-.1.041-.151.015a.448.448 0 0 1-.194-.26v-6.555a1.36 1.36 0 0 0-.607-1.058c-.338-.195-.623-.049-.624.34l-.111 8.085.013.132c-.014.217-.021.431-.022.648a2.52 2.52 0 0 1-.168-.5l-.473-2.927a3.3 3.3 0 0 0-1.3-2.253.855.855 0 0 0-.271-.11l.367 4.314c.03.18.606 3.611.982 4.855.275.9 1.419 3.536 1.493 3.711-.015.326-.086 1.577-.179 3.329l4.991 2.9c-.07-1.6-.141-2.859-.194-3.559a11.619 11.619 0 0 0 1.2-5.082c0-.692.013-2.238.013-2.32v-6.74a1.272 1.272 0 0 0-.568-.986z" fill="#66d1d5"/></g><g data-name="Group 7617"><path data-name="Path 15609" d="M129.328 188.033a2.5 2.5 0 0 0-.189-.172 1.773 1.773 0 0 0-.217-.148 1.386 1.386 0 0 0-.216-.1 1.019 1.019 0 0 0-.183-.043l-.135-.008-.048.012.047.066.136.148a1.224 1.224 0 0 0 .182.159 1.749 1.749 0 0 0 .216.149 1.274 1.274 0 0 0 .217.1.667.667 0 0 0 .189.055h.129l.054-.008-.054-.07z" fill="#d6d9db"/></g><g data-name="Group 7618"><path data-name="Path 15610" d="M126.189 181.73a2.134 2.134 0 0 0-.189-.171c-.067-.047-.142-.1-.216-.141a1.329 1.329 0 0 0-.217-.1.615.615 0 0 0-.182-.052l-.136-.008-.047.011.047.067.135.148a2.121 2.121 0 0 0 .183.167 1.664 1.664 0 0 0 .216.149 1.247 1.247 0 0 0 .216.1 1.029 1.029 0 0 0 .19.048l.135.008.048-.012-.048-.066z" fill="#d6d9db"/></g><g data-name="Group 7619"><path data-name="Path 15611" d="M128.927 186.004c-.48-.278-.88-.057-.882.5l-.005 1.787a1.941 1.941 0 0 0 .876 1.518c.487.281.881.057.882-.5l.006-1.787a1.928 1.928 0 0 0-.877-1.518zm.58 3.136c0 .373-.265.524-.59.337a1.279 1.279 0 0 1-.579-1.012v-1.787c0-.373.259-.528.583-.341a1.3 1.3 0 0 1 .587 1.016z" fill="#a6adb5"/></g><g data-name="Group 7620" fill="#fff"><path data-name="Path 15612" d="M125.204 180.375v.893l.047-.011.136.008a.615.615 0 0 1 .182.052 1.329 1.329 0 0 1 .217.1c.074.043.149.094.216.141a2.134 2.134 0 0 1 .189.171l.135.148.048.066v-.893a1.3 1.3 0 0 0-.586-1.016c-.325-.187-.583-.032-.584.341z"/><path data-name="Path 15613" d="M126.189 181.948a1.029 1.029 0 0 1-.19-.048 1.247 1.247 0 0 1-.216-.1 1.664 1.664 0 0 1-.216-.149 2.121 2.121 0 0 1-.183-.167l-.135-.148-.047-.067v.894a1.279 1.279 0 0 0 .58 1.012c.324.188.589.037.59-.336v-.894l-.048.012z"/></g><g data-name="Group 7621"><path data-name="Path 15614" d="M132.479 189.852a2.3 2.3 0 0 0-.189-.171 1.734 1.734 0 0 0-.216-.149 1.275 1.275 0 0 0-.217-.1.95.95 0 0 0-.183-.044l-.135-.008-.054.008.054.07.135.148a1.343 1.343 0 0 0 .182.16 1.831 1.831 0 0 0 .216.148 1.34 1.34 0 0 0 .217.1.713.713 0 0 0 .189.055h.129l.054-.008-.054-.07z" fill="#d6d9db"/></g><g data-name="Group 7622"><path data-name="Path 15615" d="M129.341 183.549a2.115 2.115 0 0 0-.19-.171c-.067-.047-.142-.1-.216-.141a1.381 1.381 0 0 0-.217-.1.606.606 0 0 0-.182-.05l-.136-.009-.047.012.047.066.135.148a2.187 2.187 0 0 0 .183.168 1.753 1.753 0 0 0 .216.148 1.336 1.336 0 0 0 .216.1 1.15 1.15 0 0 0 .19.047h.129l.054-.008-.054-.07z" fill="#d6d9db"/></g><g data-name="Group 7623" fill="#fff"><path data-name="Path 15616" d="M132.478 190.07a.713.713 0 0 1-.189-.055 1.34 1.34 0 0 1-.217-.1 1.831 1.831 0 0 1-.216-.148 1.343 1.343 0 0 1-.182-.16l-.135-.148-.054-.07v.893a1.3 1.3 0 0 0 .586 1.016c.325.187.59.037.591-.336v-.894l-.054.008z"/><path data-name="Path 15618" d="M132.077 188.157c-.324-.188-.589-.037-.59.336v.894l.054-.008.135.008a.95.95 0 0 1 .183.044 1.275 1.275 0 0 1 .217.1 1.734 1.734 0 0 1 .216.149 2.3 2.3 0 0 1 .189.171l.128.144.054.07v-.893a1.293 1.293 0 0 0-.586-1.015z"/></g><g data-name="Group 7624"><path data-name="Path 15619" d="M132.078 187.823c-.48-.278-.88-.057-.882.5l-.005 1.787a1.939 1.939 0 0 0 .876 1.518c.487.281.881.057.883-.5l.005-1.788a1.928 1.928 0 0 0-.877-1.517zm.581 3.137c0 .373-.266.523-.591.336a1.3 1.3 0 0 1-.586-1.016v-1.787c0-.373.266-.524.59-.336a1.293 1.293 0 0 1 .587 1.016z" fill="#a6adb5"/></g><g data-name="Group 7625" fill="#fff"><path data-name="Path 15620" d="M129.34 183.767a1.15 1.15 0 0 1-.19-.047 1.336 1.336 0 0 1-.216-.1 1.753 1.753 0 0 1-.216-.148 2.187 2.187 0 0 1-.183-.168l-.135-.148-.047-.066v.893a1.277 1.277 0 0 0 .58 1.012c.325.188.589.037.59-.336v-.894l-.054.008z"/><path data-name="Path 15621" d="M128.356 182.195v.893l.047-.012.136.009a.606.606 0 0 1 .182.05 1.381 1.381 0 0 1 .217.1c.074.043.149.094.216.141a2.115 2.115 0 0 1 .19.171l.128.144.054.07v-.893a1.291 1.291 0 0 0-.586-1.016c-.326-.185-.583-.031-.584.343z"/></g><g data-name="Group 7626"><path data-name="Path 15622" d="M110.607 151.93c0 .512-.367.721-.814.464l.974.562c.446.257.812.049.814-.464v-1.4l-.974-.562z" fill="#957d76"/></g><g data-name="Group 7627" fill="#fff"><path data-name="Path 15624" d="M135.229 189.976c-.325-.187-.59-.036-.591.336v.894l.054-.007.136.008a1.029 1.029 0 0 1 .182.043 1.343 1.343 0 0 1 .217.1 1.649 1.649 0 0 1 .216.148 2.3 2.3 0 0 1 .189.171l.128.144.054.071v-.894a1.3 1.3 0 0 0-.585-1.014z"/><path data-name="Path 15625" d="M135.63 191.888a.7.7 0 0 1-.19-.055 1.264 1.264 0 0 1-.217-.1 1.719 1.719 0 0 1-.216-.148 1.343 1.343 0 0 1-.182-.16l-.135-.148-.054-.07v.894a1.3 1.3 0 0 0 .587 1.016c.324.187.589.036.59-.337v-.893l-.054.007z"/></g><g data-name="Group 7628"><path data-name="Path 15626" d="M135.63 191.671a2.3 2.3 0 0 0-.189-.171 1.649 1.649 0 0 0-.216-.148 1.343 1.343 0 0 0-.217-.1 1.029 1.029 0 0 0-.182-.043l-.136-.008-.054.007.054.07.135.148a1.343 1.343 0 0 0 .182.16 1.719 1.719 0 0 0 .216.148 1.264 1.264 0 0 0 .217.1.7.7 0 0 0 .19.055h.128l.054-.007-.054-.071z" fill="#d6d9db"/></g><g data-name="Group 7629"><path data-name="Path 15627" d="M132.492 185.369a2.474 2.474 0 0 0-.189-.172c-.068-.047-.142-.1-.217-.14a1.186 1.186 0 0 0-.216-.1.656.656 0 0 0-.183-.051l-.136-.008-.054.008.054.07.135.148a2.414 2.414 0 0 0 .183.167 1.649 1.649 0 0 0 .216.148 1.284 1.284 0 0 0 .217.1 1.115 1.115 0 0 0 .189.047h.129l.054-.007-.054-.07z" fill="#d6d9db"/></g><g data-name="Group 7630"><path data-name="Path 15628" d="M135.229 189.642c-.479-.277-.88-.057-.882.5v1.787a1.936 1.936 0 0 0 .876 1.517c.487.282.88.057.882-.5l.005-1.787a1.928 1.928 0 0 0-.881-1.517zm.581 3.137c0 .373-.266.524-.59.337a1.3 1.3 0 0 1-.587-1.016v-1.788c0-.372.266-.523.59-.336a1.294 1.294 0 0 1 .587 1.016z" fill="#a6adb5"/></g><g data-name="Group 7631"><path data-name="Path 15629" d="M107.487 148.727l3.124 1.8.011-3.823-3.124-1.8z" fill="#fff"/></g><g data-name="Group 7632"><path data-name="Path 15630" d="M132.091 183.339c-.48-.277-.88-.057-.882.5l-.005 1.787a1.937 1.937 0 0 0 .876 1.518c.487.281.881.057.882-.5l.005-1.787a1.926 1.926 0 0 0-.876-1.518zm.581 3.137c0 .373-.266.524-.591.337a1.3 1.3 0 0 1-.586-1.016v-1.787c0-.373.266-.524.59-.336a1.291 1.291 0 0 1 .587 1.015z" fill="#a6adb5"/></g><g data-name="Group 7633" fill="#fff"><path data-name="Path 15631" d="M132.491 185.588a1.115 1.115 0 0 1-.189-.047 1.284 1.284 0 0 1-.217-.1 1.649 1.649 0 0 1-.216-.148 2.414 2.414 0 0 1-.183-.167l-.135-.148-.054-.07v.893a1.3 1.3 0 0 0 .586 1.016c.325.187.589.036.591-.337v-.893l-.054.007z"/><path data-name="Path 15632" d="M131.5 184.01v.894l.054-.008.136.008a.656.656 0 0 1 .183.051 1.186 1.186 0 0 1 .216.1c.075.042.149.093.217.14a2.474 2.474 0 0 1 .189.172l.128.144.054.07v-.894a1.291 1.291 0 0 0-.587-1.015c-.324-.184-.589-.035-.59.338z"/></g><g data-name="Group 7634"><path data-name="Path 15633" d="M111.585 151.093l.23.133.011-3.823-.23-.133z" fill="#fff"/></g><g data-name="Group 7635"><path data-name="Path 15634" d="M136.989 195.304l-13-7.5-2.149-1.241-.014 4.771 6.194 3.576 8.507 4.911 1 .578 1.17.676.014-4.771-1.17-.675z" fill="#ec5f61"/></g><g data-name="Group 7636"><path data-name="Path 15635" d="M135.242 185.159c-.48-.278-.88-.057-.882.5l-.005 1.787a1.94 1.94 0 0 0 .876 1.518c.487.281.881.057.882-.5l.005-1.787a1.924 1.924 0 0 0-.876-1.518zm.581 3.137c0 .373-.266.523-.591.336a1.3 1.3 0 0 1-.586-1.016v-1.787c0-.373.266-.523.59-.336a1.292 1.292 0 0 1 .587 1.015z" fill="#a6adb5"/></g><g data-name="Group 7637"><path data-name="Path 15636" d="M135.643 187.188a2.527 2.527 0 0 0-.189-.172c-.068-.046-.142-.1-.216-.14a1.4 1.4 0 0 0-.217-.1.656.656 0 0 0-.183-.051l-.135-.008-.055.008.055.07.135.148a2.143 2.143 0 0 0 .182.167 1.736 1.736 0 0 0 .216.149 1.254 1.254 0 0 0 .217.1 1.128 1.128 0 0 0 .189.048h.129l.054-.008-.054-.07z" fill="#d6d9db"/></g><g data-name="Group 7638"><path data-name="Path 15637" d="M109.822 144.126a1.788 1.788 0 0 1 .808 1.4v1.181l.974.562v-1.181a1.787 1.787 0 0 0-.809-1.4z" fill="#957d76"/></g><g data-name="Group 7639" fill="#7b5d54"><path data-name="Path 15638" d="M110.607 151.93v-1.4l-3.124-1.8v1.36a1.858 1.858 0 0 0 .836 1.456l1.475.851c.446.254.812.045.813-.467z"/><path data-name="Path 15639" d="M109.793 152.394l.974.562-.974-.562z"/><path data-name="Path 15640" d="M111.062 144.611l-.23-.132-2.333-1.347-.23-.133a.566.566 0 0 1-.143-.119c-.356-.094-.623.13-.624.579v1.445l3.124 1.8v-1.181a1.788 1.788 0 0 0-.808-1.4l.973.562a1.787 1.787 0 0 1 .809 1.4v1.181l.23.133-.011 3.823-.23-.133v1.4c0 .513-.367.721-.814.464l.2.113c.467.27.847.053.848-.483l.019-6.628a1.888 1.888 0 0 0-.623-1.3.3.3 0 0 1-.157-.044z"/></g><g data-name="Group 7640"><path data-name="Path 15641" d="M111.063 144.223l-2.793-1.613a.355.355 0 0 0-.059-.028c-.107-.04-.185-.01-.185.082a.358.358 0 0 0 .1.216.566.566 0 0 0 .143.119l.23.133 2.333 1.347.23.132a.3.3 0 0 0 .145.047.091.091 0 0 0 .1-.1.531.531 0 0 0-.249-.338z" fill="#efe9e1"/></g><g data-name="Group 7641"><path data-name="Path 15642" d="M116.058 155.077c0 .512-.368.721-.821.459l.98.566c.447.258.813.049.814-.463v-1.4l-.973-.562z" fill="#957d76"/></g><g data-name="Group 7642"><path data-name="Path 15643" d="M110.753 141.281l-2.151-1.242c-.162-.093-.3-.016-.3.162l-.093 2.381a.355.355 0 0 1 .059.028l2.793 1.613a.441.441 0 0 1 .059.04l-.08-2.48a.643.643 0 0 0-.287-.502z" fill="#fff"/></g><g data-name="Group 7643"><path data-name="Path 15644" d="M112.931 151.87l3.131 1.808.011-3.823-3.131-1.808z" fill="#fff"/></g><g data-name="Group 7644"><path data-name="Path 15645" d="M105.652 181.988l13.606 7.855.071-25.2-13.6-7.855zm2.781-15.494a3.3 3.3 0 0 1 1.3 2.253l.473 2.927a2.52 2.52 0 0 0 .168.5c0-.217.008-.431.022-.648l-.013-.117.111-8.1c0-.389.286-.535.624-.34a1.356 1.356 0 0 1 .606 1.058v6.555a.433.433 0 0 0 .164.242c.076.044.133.071.181 0l.142-7.241c.008-.38.286-.528.619-.336a1.385 1.385 0 0 1 .619 1.058l.047 7.2c.007 0-.014.21.114.307.115.07.159.052.177.009l.14-6.76c.008-.38.286-.528.619-.336a1.353 1.353 0 0 1 .612 1.054l.068 7.231a.356.356 0 0 0 .135.217l.067-.03.255-6.08c.008-.361.265-.5.583-.317a1.272 1.272 0 0 1 .566.989l-.005 6.728c.006.012-.005 1.64-.007 2.332a11.619 11.619 0 0 1-1.2 5.082c.053.7.124 1.963.194 3.559l-4.991-2.9c.093-1.752.164-3 .179-3.329-.074-.175-1.218-2.812-1.493-3.711-.376-1.244-.952-4.675-.982-4.855l-.367-4.314a.855.855 0 0 1 .273.116z" fill="#edfafa"/></g><g data-name="Group 7645"><path data-name="Path 15646" d="M115.222 143.861l.981.567a.656.656 0 0 1 .29.5l.079 2.48a.435.435 0 0 1 .184.294.091.091 0 0 1-.1.1 1.883 1.883 0 0 1 .624 1.3l-.019 6.628c0 .537-.381.753-.848.484l-1.224-.707 6.012 3.471-1.981-1.144a1.857 1.857 0 0 1-.843-1.459v-1.36l.011-3.823v-1.445c0-.449.268-.674.628-.577a.364.364 0 0 1-.1-.218c0-.093.083-.12.191-.079l.093-2.38c0-.179.13-.26.292-.166l1.738 1 .029-10.342-6.011-3.471z" fill="#819ca3"/></g><g data-name="Group 7646"><path data-name="Path 15647" d="M118.377 156.377a1.857 1.857 0 0 0 .843 1.459l1.142.66.007-2.331-1.988-1.148z" fill="#7b5d54"/></g><g data-name="Group 7647"><path data-name="Path 15648" d="M117.035 154.24l.23.133.011-3.823-.23-.133z" fill="#fff"/></g><g data-name="Group 7648"><path data-name="Path 15649" d="M112.1 122.438l-.23-.133h-.007v.148l1.69.976v-.148l-1.407-.812z" fill="#9b9b9a"/></g><g data-name="Group 7649"><path data-name="Path 15650" d="M111.891 114.915c-.558-.317-1.009-.058-1.011.576l-.014 5.074a2.224 2.224 0 0 0 1 1.736l.237.137.047.026.021-7.387-.047-.029z" fill="#f0ebe4"/></g><g data-name="Group 7650"><path data-name="Path 15651" d="M103.65 152.442l55.95 32.3.01-3.59-55.95-32.3z" fill="#819ca3"/></g><g data-name="Group 7651" fill="#819ca3"><path data-name="Path 15652" d="M139.547 169.572l-.8-.46z"/><path data-name="Path 15653" d="M142.176 159.641v-2.23l.009-3.054c0-.742.408-1.143.978-1.061a2.54 2.54 0 0 0-.527-.414l-.338-.2v-.482l.257.149c.095.054.17.012.17-.089v-.14a.363.363 0 0 0-.168-.284l-.19-.11-.215-3.019a.62.62 0 0 0-.276-.456l-.893-.515-.52-.3-.893-.516c-.142-.082-.264-.02-.278.135l-.231 2.762-.19-.109a.1.1 0 0 0-.162.093v.14a.364.364 0 0 0 .162.28l.264.152v.482l-.338-.2c-.832-.48-1.51-.093-1.513.863l-.008 3.054v2.229l-.012 4.484v1.251l2.306 1.331-.016 5.7 3.043 1.757a1.5 1.5 0 0 0 .527.194 3.332 3.332 0 0 1-.969-2.177l.015-5.221z"/></g><g data-name="Group 7652"><path data-name="Path 15654" d="M103.569 180.788l2.083 1.2.072-25.2 13.6 7.855-.071 25.2 2.569 1.483.014-4.77 2.149 1.241a2.376 2.376 0 0 1-.523-1.384l.022-7.794c0-.7.5-.982 1.106-.63l3.469 2 .02-7.087 8.507 4.911-.021 7.1a2.451 2.451 0 0 1 .971 1.82l-.022 7.793c0 .457-.214.736-.53.776l.554.32.048-17.227 8.507 4.912-.013 4.634 1.277 1.052.014-4.948 8.5 4.907-.013 4.717 1.021.589-.049 17.281 2.685 1.55.08-28.346-55.95-32.3z" fill="#9b9b9a"/></g><g data-name="Group 7653"><path data-name="Path 15655" d="M147.2 155.513l.257.148v-.481l-.257-.148z" fill="#9b9b9a"/></g><g data-name="Group 7654" fill="#819ca3"><path data-name="Path 15656" d="M147.486 174.156l-.413-.239z"/><path data-name="Path 15657" d="M150.284 164.322v-2.23l.009-3.054c0-.787.459-1.191 1.085-1.039a2.407 2.407 0 0 0-.418-.311l-.338-.2v-.482l.257.149a.1.1 0 0 0 .162-.093v-.14a.365.365 0 0 0-.162-.281l-.19-.109-.214-3.019a.634.634 0 0 0-.277-.455l-.892-.516-.521-.3-.893-.516c-.148-.086-.264-.02-.278.136l-.231 2.761.081.047a.349.349 0 0 1 .155.269v.155a.1.1 0 0 1-.156.089l-.271-.156.257.148v.482l.081.047a3.314 3.314 0 0 1 1.5 2.6l-.043 14.989c0 .948-.68 1.334-1.512.854l3.428 1.98a1.6 1.6 0 0 0 .418.172 3.346 3.346 0 0 1-1.076-2.28l.015-5.221z"/></g><g data-name="Group 7655"><path data-name="Path 15658" d="M147.392 154.628l-.112-.065-3.313-1.912-.193-.112c-.088-.05-.156-.012-.156.089v.156a.349.349 0 0 0 .155.269l.263.152 3.165 1.827.271.156a.1.1 0 0 0 .156-.089v-.155a.349.349 0 0 0-.155-.269z" fill="#ec5f61"/></g><g data-name="Group 7656"><path data-name="Path 15659" d="M146.786 151.088l-.893-.515-.521-.3-.892-.515c-.149-.086-.271-.024-.285.131l-.228 2.764 3.313 1.912-.218-3.02a.635.635 0 0 0-.276-.457z" fill="#ec5f61"/></g><g data-name="Group 7657"><path data-name="Path 15660" d="M155.387 159.244l-3.312-1.912-.193-.112c-.088-.05-.156-.011-.156.089v.156a.347.347 0 0 0 .154.269l.264.152 3.165 1.827.271.156a.1.1 0 0 0 .156-.089v-.155a.349.349 0 0 0-.155-.269z" fill="#ec5f61"/></g><g data-name="Group 7658"><path data-name="Path 15661" d="M154.893 155.768l-.892-.515-.521-.3-.892-.515c-.149-.086-.271-.024-.285.131l-.228 2.764 3.312 1.912-.217-3.02a.635.635 0 0 0-.277-.457z" fill="#ec5f61"/></g><g data-name="Group 7659"><path data-name="Path 15662" d="M137.749 122.754l-.264-.152-2.495-1.441-.263-.152c-.657-.378-1.193-.081-1.195.673v1.43l5.4 3.119v-1.43a2.6 2.6 0 0 0-1.183-2.047z" fill="#fff"/></g><g data-name="Group 7660"><path data-name="Path 15663" d="M137.547 121.844l-2.614-1.509-.116-.067c-.088-.051-.156-.005-.156.1v.039a.348.348 0 0 0 .155.276l.176.1 2.5 1.441.175.1c.088.051.156 0 .156-.1v-.036a.35.35 0 0 0-.154-.277z" fill="#ec5f61"/></g><g data-name="Group 7661"><path data-name="Path 15664" d="M137.157 119.112l-.7-.405-.412-.239-.7-.406c-.115-.066-.21-.028-.224.1l-.181 2.176 2.614 1.509-.175-2.381a.461.461 0 0 0-.222-.354z" fill="#ec5f61"/></g><g data-name="Group 7662"><path data-name="Path 15665" d="M147.156 127.388l-2.607-1.506-.117-.067a.1.1 0 0 0-.162.093v.039a.359.359 0 0 0 .161.28l.176.1 2.495 1.44.176.1c.088.05.156 0 .156-.1v-.039a.349.349 0 0 0-.155-.276z" fill="#ec5f61"/></g><g data-name="Group 7663"><path data-name="Path 15666" d="M146.766 124.66l-.7-.4-.412-.238-.7-.406c-.115-.066-.21-.028-.223.1l-.181 2.176 2.607 1.506-.168-2.378a.488.488 0 0 0-.223-.36z" fill="#ec5f61"/></g><g data-name="Group 7664"><path data-name="Path 15667" d="M110.611 150.531l.974.562.011-3.823-.974-.562z" fill="#fff"/></g><g data-name="Group 7665"><path data-name="Path 15668" d="M116.062 153.678l.974.562.011-3.823-.974-.562z" fill="#fff"/></g><g data-name="Group 7666"><path data-name="Path 15669" d="M116.513 147.37l-2.793-1.613a.342.342 0 0 0-.059-.028c-.106-.041-.184-.011-.185.082a.363.363 0 0 0 .1.215.613.613 0 0 0 .144.12l.23.132 2.333 1.347.23.133a.3.3 0 0 0 .144.046.091.091 0 0 0 .1-.1.435.435 0 0 0-.184-.294.475.475 0 0 0-.06-.04z" fill="#efe9e1"/></g><g data-name="Group 7667"><path data-name="Path 15670" d="M116.203 144.428l-.981-.567-1.176-.679c-.162-.093-.291-.013-.292.166l-.093 2.381a.342.342 0 0 1 .059.028l2.793 1.613a.475.475 0 0 1 .059.04l-.079-2.48a.656.656 0 0 0-.29-.502z" fill="#fff"/></g><g data-name="Group 7668"><path data-name="Path 15671" d="M105.932 150.164l2.387 1.379a1.858 1.858 0 0 1-.836-1.456v-1.36l.011-3.823v-1.445c0-.449.268-.673.624-.579a.358.358 0 0 1-.1-.216c0-.092.078-.122.185-.082l.093-2.381c0-.178.136-.255.3-.162l2.151 1.242a.643.643 0 0 1 .289.5l.08 2.48a.444.444 0 0 1 .19.3.091.091 0 0 1-.1.1 1.888 1.888 0 0 1 .623 1.3l-.019 6.628c0 .536-.381.752-.848.483l.981.566.048-16.931-6.012-3.471z" fill="#819ca3"/></g><g data-name="Group 7669"><path data-name="Path 15672" d="M118.381 155.017l1.988 1.148.01-3.365 1.136.656v-.458l-3.124-1.8z" fill="#fff"/></g><g data-name="Group 7670"><path data-name="Path 15673" d="M121.515 153.456l.981.566v-.458l-.98-.566z" fill="#fff"/></g><g data-name="Group 7671"><path data-name="Path 15674" d="M103.893 121.443l55.795 32.213.01-3.59-55.795-32.213z" fill="#819ca3"/></g><g data-name="Group 7672"><path data-name="Path 15675" d="M153.756 131.202l-2.607-1.5-.123-.071c-.082-.047-.156 0-.156.1v.038a.361.361 0 0 0 .154.277l.176.1 2.5 1.445.169.1a.1.1 0 0 0 .163-.093v-.038a.364.364 0 0 0-.161-.281z" fill="#ec5f61"/></g><g data-name="Group 7673"><path data-name="Path 15676" d="M103.66 148.853l2.272 1.311.048-16.931 6.012 3.471-.048 16.931 1.825 1.054a1.857 1.857 0 0 1-.842-1.459v-1.36l.011-3.823v-1.445c0-.45.268-.674.629-.576a.363.363 0 0 1-.1-.215c0-.093.079-.123.185-.082l.093-2.381c0-.179.13-.259.292-.166l1.176.679.03-10.342 6.011 3.471-.029 10.342.413.238a.658.658 0 0 1 .3.506l.079 2.48a.433.433 0 0 1 .184.3.092.092 0 0 1-.1.1 1.886 1.886 0 0 1 .619 1.3l-.006 1.9.988.57.016-5.7 5.443 3.143.005-1.507v-.762l.009-3.053c0-.956.68-1.343 1.512-.863l.338.2v-.482l-.264-.152a.366.366 0 0 1-.162-.281c0-.24.076-.283.164-.232l.189.109.231-2.762c.014-.155.136-.217.278-.135l.893.516.521.3.892.515a.622.622 0 0 1 .277.456l.215 3.019.189.109a.363.363 0 0 1 .168.284c0 .241-.075.284-.169.229l-.258-.148v.482l.338.195a3.3 3.3 0 0 1 1.5 2.6l-.015 5.322.23.133-.016 5.695 1.028.594v-1.251l.012-4.484v-2.23l.008-3.053c0-.956.681-1.343 1.513-.863l.338.2v-.482l-.264-.152a.366.366 0 0 1-.162-.28c0-.241.075-.284.163-.233l.19.109.231-2.762c.014-.155.136-.217.278-.135l.893.516.52.3.893.515a.62.62 0 0 1 .276.456l.215 3.019.19.109a.366.366 0 0 1 .168.285c0 .24-.075.283-.17.229l-.257-.149v.482l.338.2a2.54 2.54 0 0 1 .527.414 1.515 1.515 0 0 1 .528.2l.338.2v-.481l-.263-.153a.343.343 0 0 1-.155-.268c0-.257.068-.295.156-.245l.193.112.228-2.764c.014-.155.136-.217.285-.131l.892.515.521.3.893.515a.635.635 0 0 1 .276.456l.218 3.02.343-2.7c.014-.156.13-.222.278-.136l.893.516.52.3.893.516a.634.634 0 0 1 .277.455l.214 3.019.19.109a.365.365 0 0 1 .162.281c0 .241-.076.283-.164.233l-.256-.149v.482l.338.2a2.407 2.407 0 0 1 .418.311 1.59 1.59 0 0 1 .421.173l.338.2v-.481l-.264-.153a.344.344 0 0 1-.154-.268c0-.256.068-.3.156-.245l.193.112.228-2.764c.014-.155.136-.217.285-.131l.892.515.521.3.892.515a.635.635 0 0 1 .277.456l.217 3.02.194.112a.349.349 0 0 1 .155.269c0 .248-.076.291-.156.244l-.271-.156v.481l.338.2a3.316 3.316 0 0 1 1.5 2.6l-.043 14.989c0 .948-.681 1.335-1.513.854l4.017 2.319.078-27.5-55.8-32.214.011-3.59 1.244.719.057-20.1 6.715 3.877-.036 12.565.237.136 1.454.84.035-12.565 6.708 3.873-.035 12.417 1.691.976.035-12.417 6.708 3.873-.057 20.1 1.494.863.014-4.918.008-2.766.012-4.142 3.34 1.929v-1.43c0-.754.538-1.051 1.195-.673l.263.152v-.38l-.176-.1a.348.348 0 0 1-.155-.276c0-.14.069-.186.157-.135l.3-2.109c.014-.125.109-.163.224-.1l.7.406.412.239.7.405a.461.461 0 0 1 .215.351l.175 2.381c.2.118.272.243.271.344 0 .139-.068.186-.156.135l-.175-.1v.38l.264.152a2.6 2.6 0 0 1 1.186 2.047v1.43l4.213 2.432v-1.429c0-.754.538-1.052 1.188-.677l.27.156v-.38l-.176-.1a.359.359 0 0 1-.161-.28c0-.14.074-.183.162-.132l.3-2.109c.013-.124.108-.162.223-.1l.7.406.412.238.7.4a.488.488 0 0 1 .222.354l.168 2.378c.211.122.278.246.278.347 0 .14-.068.186-.156.136l-.176-.1v.381l.264.152a2.593 2.593 0 0 1 1.18 2.043l-.005 1.43 1.2.695v-1.43c0-.753.532-1.055 1.187-.677l.264.153v-.381l-.176-.1a.361.361 0 0 1-.154-.277c0-.14.074-.182.156-.135l.3-2.1c.007-.128.1-.167.217-.1l.71.409.405.235.7.406a.487.487 0 0 1 .222.354l.168 2.377c.2.118.278.247.278.348 0 .139-.075.182-.163.131l-.169-.1v.38l.264.153a2.593 2.593 0 0 1 1.18 2.042l-.005 1.43 2.245 1.3-.033 11.827 2.346 1.355.077-27.018-55.95-32.3z" fill="#9b9b9a"/></g><g data-name="Group 7674" fill="#7b5d54"><path data-name="Path 15677" d="M116.222 156.103l-.216-.125z"/><path data-name="Path 15678" d="M116.058 155.077v-1.4l-3.131-1.808v1.36a1.857 1.857 0 0 0 .842 1.459l1.421.82.812.469-.765-.442c.453.263.819.053.821-.458z"/><path data-name="Path 15679" d="M116.512 147.758l-.23-.133-2.333-1.347-.23-.132a.59.59 0 0 1-.144-.12c-.361-.1-.628.126-.629.576v1.445l3.13 1.808v-1.181a1.793 1.793 0 0 0-.816-1.405l.981.566a1.791 1.791 0 0 1 .809 1.4v1.181l.23.133v-1.446a1.883 1.883 0 0 0-.624-1.3.3.3 0 0 1-.144-.045z"/><path data-name="Path 15680" d="M117.035 154.24v1.4c0 .513-.367.721-.814.464l.2.113c.467.269.847.053.848-.484l.01-3.4-.006 2.039z"/></g><g data-name="Group 7675"><path data-name="Path 15681" d="M115.26 147.269a1.792 1.792 0 0 1 .816 1.405v1.181l.974.562v-1.181a1.788 1.788 0 0 0-.808-1.4z" fill="#957d76"/></g><g data-name="Group 7676"><path data-name="Path 15682" d="M122.495 154.022l.223.129v-.458l-.223-.129z" fill="#fff"/></g><g data-name="Group 7677"><path data-name="Path 15683" d="M120.71 150.416a1.785 1.785 0 0 1 .809 1.4v1.181l.981.566v-1.181a1.79 1.79 0 0 0-.809-1.4z" fill="#957d76"/></g><g data-name="Group 7678"><path data-name="Path 15684" d="M121.963 150.516l-2.792-1.612a.556.556 0 0 0-.06-.029c-.108-.041-.191-.014-.191.079a.364.364 0 0 0 .1.218.612.612 0 0 0 .145.12l.23.133 2.327 1.343.236.137a.3.3 0 0 0 .143.046.092.092 0 0 0 .1-.1.433.433 0 0 0-.184-.3.542.542 0 0 0-.054-.035z" fill="#efe9e1"/></g><g data-name="Group 7679"><path data-name="Path 15685" d="M122.722 154.151l-.223-.129-.981-.566-1.136-.656-.009 3.365-.007 2.331.325.187.98.566.2.113 4.355 2.514.016-5.7-2.529-1.46z" fill="#fff"/></g><g data-name="Group 7680"><path data-name="Path 15686" d="M146.085 187.943l-1.912-1.574-3.206 15.07 3.791 3.13 1.3-6.087 1.3-6.088.618-2.9-.608-.5z" fill="#2cad6e"/></g><g data-name="Group 7681"><path data-name="Path 15687" d="M137.543 195.624l1.17.675-.014 4.771-1.17-.676 8.507 4.912.019-6.825-1.3 6.087-3.791-3.13 3.206-15.07 1.912 1.574.013-4.635-8.507-4.911z" fill="#819ca3"/></g><g data-name="Group 7682"><path data-name="Path 15688" d="M147.922 206.396l3.882 2.241.049-17.281-3.882-2.241z" fill="#2cad6e"/></g><g data-name="Group 7683"><path data-name="Path 15689" d="M147.538 155.709l-.081-.047-.257-.149-3.165-1.827-.338-.2a1.515 1.515 0 0 0-.528-.2c-.57-.082-.976.319-.978 1.061l-.009 3.054 5.43 3.135v.761l-5.43-3.134v1.468l5.43 3.135-.013 4.483-5.43-3.134-.015 5.221a3.332 3.332 0 0 0 .969 2.177 2.571 2.571 0 0 0 .527.415l3.429 1.979.413.238c.831.481 1.51.094 1.512-.854l.043-14.989a3.314 3.314 0 0 0-1.509-2.593z" fill="#fff"/></g><g data-name="Group 7684"><path data-name="Path 15690" d="M142.59 171.329l1.054.609a2.571 2.571 0 0 1-.527-.415 1.5 1.5 0 0 1-.527-.194z" fill="#9b9b9a"/></g><g data-name="Group 7685" fill="#819ca3"><path data-name="Path 15691" d="M133.7 160.488l2.3 1.328z"/><path data-name="Path 15692" d="M129.568 158.106l-.419-.242z"/><path data-name="Path 15693" d="M134.534 148.201l-.338-.195v-.482l.258.148c.094.055.169.012.169-.088v-.141a.363.363 0 0 0-.168-.284l-.189-.109-.215-3.019a.622.622 0 0 0-.277-.456l-.892-.515-.521-.3-.893-.516c-.142-.082-.264-.02-.278.135l-.231 2.762-.189-.109a.1.1 0 0 0-.163.093v.139a.366.366 0 0 0 .162.281l.264.152v.482l-.338-.2c-.832-.48-1.51-.093-1.512.863l-.009 3.053v.762l-.005 1.468.42.281-.017 5.7 3.327 1.921-.016 5.695-2.238-1.292 3.841 2.218-.8-.461.016-5.7-3.334-1.924.017-5.7 5.632 3.252.015-5.322a3.3 3.3 0 0 0-1.498-2.592z"/></g><g data-name="Group 7686"><path data-name="Path 15694" d="M127.039 156.646l-.016 5.7 3.618 2.089 2.238 1.292.016-5.7-3.746-2.163z" fill="#fff"/></g><g data-name="Group 7687"><path data-name="Path 15695" d="M130.383 152.871l-.016 5.7 5.633 3.252.23.133.016-5.7-.23-.133z" fill="#d1f1f3"/></g><g data-name="Group 7688"><path data-name="Path 15696" d="M112.147 122.464l1.406.813.012-1.7v-.957l.013-4.732-1.413-.816z" fill="#e6dcd1"/></g><g data-name="Group 7689"><path data-name="Path 15697" d="M113.56 123.281v.148l11.861 6.848.088.05c.108.063.2.047.2-.077V128.595l-12.152-7.016z" fill="#2cad6e"/></g><g data-name="Group 7690"><path data-name="Path 15698" d="M113.566 121.214l12.152 7.016v-.591l-12.151-7.016z" fill="#8acbc1"/></g><g data-name="Group 7691"><path data-name="Path 15699" d="M105.148 118.572l6.715 3.877v-.148a2.224 2.224 0 0 1-1-1.736l.014-5.074c0-.634.452-.893 1-.579l.036-12.565-6.715-3.877zm.875-17.364l5.065 2.924-.022 7.785-5.065-2.924z" fill="#00b3ba"/></g><g data-name="Group 7692"><path data-name="Path 15700" d="M114.4 113.842l5.065 2.924.022-7.785-5.065-2.924zm.764-4.2l1.136.657v-1.306l1.292.746v1.3l1.136.656v1.484l-1.136-.656v1.306l-1.291-.746v-1.305l-1.136-.656z" fill="#99e1e3"/></g><g data-name="Group 7693"><path data-name="Path 15701" d="M113.575 115.888l.007-.144 6.7 3.869.035-12.417-6.708-3.873zm.847-9.831l5.065 2.924-.022 7.785-5.065-2.924z" fill="#00b3ba"/></g><g data-name="Group 7694"><path data-name="Path 15702" d="M117.591 111.046v-1.305l-1.292-.746v1.305l-1.136-.656v1.484l1.136.656v1.305l1.292.746v-1.306l.416.24.72.416v-1.484l-.48-.277z" fill="#fff"/></g><g data-name="Group 7695" fill="#faf8f6"><path data-name="Path 15703" d="M113.565 121.58l12.151 7.016v1.523l.005-1.888-12.152-7.016z"/><path data-name="Path 15704" d="M125.722 128.23z"/><path data-name="Path 15705" d="M125.531 122.642l-3.557-2.053-1.691-.976-6.7-3.869v.147l-.013 4.732 12.151 7.016v.2l.014-4.85a.462.462 0 0 0-.204-.347z"/></g><g data-name="Group 7696"><path data-name="Path 15706" d="M144.035 153.688l3.165 1.827v-.481l-3.165-1.827z" fill="#e0e0e0"/></g><g data-name="Group 7697"><path data-name="Path 15707" d="M150.271 168.805l5.43 3.135.013-4.484-5.43-3.135z" fill="#ec5f61"/></g><g data-name="Group 7698"><path data-name="Path 15708" d="M130.176 125.325l-.008 2.766 2.437 1.406a4.8 4.8 0 0 1-.276-1.544 2.47 2.47 0 0 1 .284-1.222z" fill="#fff"/></g><g data-name="Group 7699"><path data-name="Path 15709" d="M150.288 162.854l5.43 3.135v-.762l-5.43-3.135z" fill="#00b3ba"/></g><g data-name="Group 7700"><path data-name="Path 15710" d="M152.143 158.367l3.165 1.827v-.482l-3.165-1.827z" fill="#e0e0e0"/></g><g data-name="Group 7701"><path data-name="Path 15711" d="M121.974 120.588l3.557 2.053a.462.462 0 0 1 .2.351l-.02 7.125v.132c0 .124-.095.14-.2.077l3.151 1.819.057-20.1-6.708-3.873zm.853-9.68l5.058 2.921-.022 7.786-5.058-2.921z" fill="#00b3ba"/></g><g data-name="Group 7702"><path data-name="Path 15712" d="M137.793 131.108a2.471 2.471 0 0 1-.282 1.222l19.855 11.463.008-2.766-19.855-11.463a4.79 4.79 0 0 1 .274 1.544z" fill="#fff"/></g><g data-name="Group 7703"><path data-name="Path 15713" d="M153.965 132.117l-.264-.153-2.5-1.444-.264-.153c-.655-.378-1.185-.076-1.187.677v1.43l5.4 3.115.005-1.43a2.593 2.593 0 0 0-1.19-2.042z" fill="#fff"/></g><g data-name="Group 7704"><path data-name="Path 15714" d="M97.066 185.937l69.623 40.2.306-107.821-69.623-40.2zm6.5-5.149l.081-28.346.01-3.589.164-58.106 55.951 32.3-.077 27.018-.01 3.59-.078 27.5-.01 3.59-.08 28.346-1.134-.654-19.687-11.367-1.17-.676-1-.578-8.507-4.911-6.194-3.577-2.569-1.483-13.606-7.855-2.083-1.2zm-3.149.089a4.116 4.116 0 0 1 1.873 3.245c0 1.189-.844 1.668-1.886 1.067a4.116 4.116 0 0 1-1.867-3.234c.007-1.196.848-1.676 1.885-1.078z" fill="#edf4f5"/></g><g data-name="Group 7705"><path data-name="Path 15715" d="M125.789 179.701c-.481-.278-.874-.053-.876.506l-.005 1.787a1.926 1.926 0 0 0 .87 1.514c.487.281.88.057.882-.5l.005-1.787a1.924 1.924 0 0 0-.876-1.52zm.58 3.137c0 .373-.266.523-.59.336a1.279 1.279 0 0 1-.58-1.012v-1.787c0-.373.259-.528.584-.34a1.293 1.293 0 0 1 .586 1.015z" fill="#a6adb5"/></g><g data-name="Group 7706"><path data-name="Path 15716" d="M136.57 184.915a1.638 1.638 0 0 0-.128-.083l-8.378-4.837-3.469-2c-.609-.352-1.1-.07-1.106.63l-.022 7.794a2.383 2.383 0 0 0 .523 1.384l13 7.5c.316-.04.528-.319.53-.776l.022-7.793a2.453 2.453 0 0 0-.972-1.819zm-9.923 2.574c0 .559-.4.784-.882.5a1.925 1.925 0 0 1-.869-1.514l.005-1.787c0-.56.4-.784.875-.507a1.924 1.924 0 0 1 .876 1.518zm.013-4.484c0 .56-.395.784-.882.5a1.926 1.926 0 0 1-.87-1.514l.006-1.787c0-.559.394-.784.875-.506a1.924 1.924 0 0 1 .876 1.517zm3.138 6.3c0 .56-.4.784-.882.5a1.939 1.939 0 0 1-.876-1.518l.005-1.787c0-.559.4-.78.882-.5a1.928 1.928 0 0 1 .877 1.517zm.013-4.483c0 .559-.395.783-.882.5a1.94 1.94 0 0 1-.876-1.518l.005-1.787c0-.56.4-.78.882-.5a1.924 1.924 0 0 1 .876 1.518zm3.139 6.3c0 .559-.4.783-.883.5a1.935 1.935 0 0 1-.875-1.518v-1.787c0-.559.4-.78.882-.5a1.928 1.928 0 0 1 .877 1.517zm.012-4.484c0 .56-.395.784-.882.5a1.937 1.937 0 0 1-.876-1.518l.005-1.787c0-.56.4-.78.882-.5a1.928 1.928 0 0 1 .876 1.518zm3.139 6.3c0 .559-.4.784-.882.5a1.935 1.935 0 0 1-.876-1.517v-1.787c0-.56.4-.78.883-.5a1.93 1.93 0 0 1 .876 1.518zm.012-4.484c0 .56-.395.784-.881.5a1.938 1.938 0 0 1-.877-1.518l.005-1.787c0-.559.4-.78.882-.5a1.924 1.924 0 0 1 .876 1.517z" fill="#d1f1f3"/></g><g data-name="Group 7707" fill="#fff"><path data-name="Path 15717" d="M128.341 188.536a1.274 1.274 0 0 0 .205.572l.045.065a1.1 1.1 0 0 0 .326.3.622.622 0 0 0 .175.07.424.424 0 0 0 .106.01.358.358 0 0 0 .048-.006c.157-.031.261-.177.261-.411v-.893l-.054.008h-.129a.667.667 0 0 1-.189-.055 1.274 1.274 0 0 1-.217-.1 1.749 1.749 0 0 1-.216-.149 1.224 1.224 0 0 1-.182-.159l-.135-.148-.048-.066v.893l.004.069z"/><path data-name="Path 15718" d="M129.501 187.21a1.154 1.154 0 0 0-.034-.146 1.229 1.229 0 0 0-.07-.18c-.011-.024-.022-.047-.035-.07l-.046-.08-.03-.046a1.318 1.318 0 0 0-.069-.093l-.017-.021a1.064 1.064 0 0 0-.274-.236.406.406 0 0 0-.413-.04.3.3 0 0 0-.1.1.518.518 0 0 0-.07.282v.894l.048-.012.135.008a1.019 1.019 0 0 1 .183.043 1.386 1.386 0 0 1 .216.1 1.773 1.773 0 0 1 .217.148 2.5 2.5 0 0 1 .189.172l.128.144.054.07v-.894-.07c0-.023-.008-.048-.012-.073z"/></g><g data-name="Group 7708"><path data-name="Path 15719" d="M128.94 181.52c-.48-.277-.881-.057-.882.5l-.005 1.787a1.94 1.94 0 0 0 .876 1.518c.487.28.881.056.882-.5l.005-1.787a1.924 1.924 0 0 0-.876-1.518zm.58 3.137c0 .373-.265.524-.59.336a1.277 1.277 0 0 1-.58-1.012v-1.786c0-.374.258-.528.583-.341a1.294 1.294 0 0 1 .586 1.016z" fill="#a6adb5"/></g><g data-name="Group 7709" fill="#fff"><path data-name="Path 15720" d="M135.642 187.406a1.128 1.128 0 0 1-.189-.048 1.254 1.254 0 0 1-.217-.1 1.736 1.736 0 0 1-.216-.149 2.143 2.143 0 0 1-.182-.167l-.135-.148-.055-.07v.893a1.293 1.293 0 0 0 .587 1.016c.324.187.589.037.59-.336v-.894l-.054.008z"/><path data-name="Path 15722" d="M135.241 185.488c-.324-.187-.589-.037-.59.336v.894l.055-.008.135.008a.656.656 0 0 1 .183.051 1.4 1.4 0 0 1 .217.1c.074.043.148.094.216.14a2.527 2.527 0 0 1 .189.172l.128.144.054.07v-.894a1.292 1.292 0 0 0-.587-1.013z"/></g><g data-name="Group 7710"><path data-name="Path 15723" d="M128.064 179.995l8.378 4.837c.043.025.086.053.129.083l.02-7.095-8.507-4.912z" fill="#819ca3"/></g><g data-name="Group 7711"><path data-name="Path 15724" d="M121.962 150.905l-.236-.137-2.327-1.343-.23-.133a.612.612 0 0 1-.145-.12c-.36-.1-.627.128-.628.577v1.445l3.124 1.8v-1.181a1.788 1.788 0 0 0-.809-1.4l.981.567a1.79 1.79 0 0 1 .809 1.4v1.181l.223.129v-1.446a1.886 1.886 0 0 0-.619-1.3.31.31 0 0 1-.143-.039z" fill="#7b5d54"/></g><g data-name="Group 7712"><path data-name="Path 15725" d="M146.036 205.306l1.278.738.039-13.65-1.3 6.088z" fill="#9b9b9a"/></g><g data-name="Group 7713"><path data-name="Path 15726" d="M121.647 147.57l-.413-.238-1.738-1c-.162-.094-.291-.013-.292.166l-.093 2.38a.556.556 0 0 1 .06.029l2.792 1.612a.542.542 0 0 1 .059.04l-.079-2.48a.658.658 0 0 0-.296-.509z" fill="#fff"/></g><g data-name="Group 7714"><path data-name="Path 15727" d="M126.222 161.877l.8.465.016-5.7-.8-.465z" fill="#9b9b9a"/></g><g data-name="Group 7715"><path data-name="Path 15728" d="M147.314 206.044l.609.352.048-16.9-.618 2.9z" fill="#819ca3"/></g><g data-name="Group 7716"><path data-name="Path 15729" d="M123.722 149.025l-.016 5.7 2.529 1.46 2.914 1.683.419.242.016-5.7-.419-.242z" fill="#d1f1f3"/></g><g data-name="Group 7717"><path data-name="Path 15730" d="M113.553 123.425h.007v-.147h-.007z" fill="#00b3ba"/></g><g data-name="Group 7718"><path data-name="Path 15731" d="M135.999 161.819l-2.3-1.328-.016 5.7.8.461 4.267 2.464.8.46.016-5.7-2.306-1.331z" fill="#fff"/></g><g data-name="Group 7719"><path data-name="Path 15732" d="M147.362 188.995l.608.5v-.381l3.882 2.241-.049 17.281 1.15.664.049-17.281 2.86 1.652.013-4.717-8.5-4.907z" fill="#819ca3"/></g><g data-name="Group 7720"><path data-name="Path 15733" d="M106.001 108.988l5.065 2.924.022-7.785-5.066-2.919zm.764-4.2l1.136.655v-1.3l1.291.746v1.3l1.136.656-.005 1.484-1.136-.656v1.306l-1.292-.746v-1.306l-1.136-.655z" fill="#99e1e3"/></g><g data-name="Group 7721"><path data-name="Path 15734" d="M109.196 104.888l-1.292-.746v1.305l-1.136-.656v1.484l1.136.656v1.306l1.292.746v-1.306l1.136.656v-1.484l-1.136-.656z" fill="#fff"/></g><g data-name="Group 7722"><path data-name="Path 15735" d="M150.914 176.135l.839.484a2.454 2.454 0 0 1-.421-.312 1.6 1.6 0 0 1-.418-.172z" fill="#9b9b9a"/></g><g data-name="Group 7723"><path data-name="Path 15736" d="M142.163 164.125l5.43 3.135.013-4.483-5.43-3.135z" fill="#ec5f61"/></g><g data-name="Group 7724"><path data-name="Path 15737" d="M142.18 158.173l5.43 3.135v-.761l-5.43-3.135z" fill="#00b3ba"/></g><g data-name="Group 7725"><path data-name="Path 15738" d="M125.993 114.588l-1.284-.742v1.305l-1.136-.656v1.484l1.136.656v1.306l1.285.742v-1.305l1.136.656v-1.484l-1.136-.656z" fill="#fff"/></g><g data-name="Group 7726"><path data-name="Path 15739" d="M122.805 118.695l5.058 2.921.022-7.786-5.058-2.921zm.764-4.2l1.136.656v-1.305l1.284.742v1.3l1.136.656v1.484l-1.136-.656v1.306l-1.285-.742v-1.306l-1.136-.655z" fill="#99e1e3"/></g><g data-name="Group 7727"><path data-name="Path 15740" d="M135.07 126.388c-1.076-.621-2.009-.442-2.457.34a2.47 2.47 0 0 0-.284 1.222 4.8 4.8 0 0 0 .276 1.544 6.02 6.02 0 0 0 2.447 3.173c1.081.624 2.012.444 2.459-.34a2.471 2.471 0 0 0 .282-1.222 4.79 4.79 0 0 0-.274-1.544 6.007 6.007 0 0 0-2.449-3.173z" fill="#fff"/></g><g data-name="Group 7728"><path data-name="Path 15741" d="M155.646 160.388l-.338-.195-3.165-1.827-.338-.2a1.59 1.59 0 0 0-.421-.173c-.626-.152-1.083.252-1.085 1.039l-.009 3.054 5.43 3.135v.762l-5.43-3.135v1.468l5.43 3.135-.013 4.484-5.43-3.135-.015 5.221a3.346 3.346 0 0 0 1.076 2.28 2.492 2.492 0 0 0 .421.312l3.84 2.217c.832.481 1.511.094 1.513-.854l.043-14.989a3.314 3.314 0 0 0-1.509-2.599z" fill="#fff"/></g><g data-name="Group 7729"><path data-name="Path 15742" d="M144.606 126.713l2.5 1.441v-.381l-2.5-1.441z" fill="#e0e0e0"/></g><g data-name="Group 7730"><path data-name="Path 15743" d="M147.365 128.306l-.264-.152-2.495-1.441-.27-.156c-.65-.375-1.185-.077-1.188.677v1.429l5.4 3.116.005-1.43a2.593 2.593 0 0 0-1.188-2.043z" fill="#fff"/></g><g data-name="Group 7731"><path data-name="Path 15744" d="M151.199 130.52l2.5 1.445v-.381l-2.5-1.445z" fill="#e0e0e0"/></g><g data-name="Group 7732" fill="#d1f1f3"><path data-name="Path 15745" d="M135.052 132.67a6.02 6.02 0 0 1-2.447-3.173l-2.437-1.406-.014 4.918 27.2 15.7.014-4.919-19.855-11.463c-.449.787-1.38.967-2.461.343z"/><path data-name="Path 15746" d="M157.366 143.793l.005-1.936-.005 1.936z"/><path data-name="Path 15747" d="M155.14 135.588l-5.4-3.115-1.2-.695-5.4-3.116-4.213-2.432-5.4-3.119-3.34-1.929-.012 4.142 2.437 1.406c.448-.782 1.381-.961 2.457-.34a6.007 6.007 0 0 1 2.449 3.173l19.855 11.463v.831l.014-4.973z"/></g><g data-name="Group 7733"><path data-name="Path 15748" d="M153.366 128.471l-.7-.406-.405-.235-.71-.409c-.115-.067-.21-.028-.217.1l-.181 2.176 2.607 1.5-.168-2.377a.487.487 0 0 0-.226-.349z" fill="#ec5f61"/></g><path data-name="Path 15749" d="M83.147 150.046v.482l3.164 1.827v-.482l-.948-.548z" fill="#5c463f"/><path data-name="Path 15750" d="M100.422 180.877c-1.035-.6-1.876-.118-1.88 1.078a4.116 4.116 0 0 0 1.867 3.234c1.042.6 1.883.122 1.886-1.067a4.116 4.116 0 0 0-1.873-3.245z" fill="#9d9d9c"/><path data-name="Path 15751" d="M93.002 176.594c-1.042-.6-1.883-.122-1.887 1.074a4.119 4.119 0 0 0 1.874 3.238c1.035.6 1.883.122 1.886-1.067a4.128 4.128 0 0 0-1.873-3.245z" fill="#9d9d9c"/></g><g data-name="Group 7767" fill-rule="evenodd"><path data-name="Path 15825" d="M87.749 340.47l-46.175-26.3c-5.034-2.3-12.239-4.131-17.367-1.461-4.673 2.431-12.371 7.409-15.775 9.35-2.585 1.475-11.559 6.851-5.97 9.891 16.443 8.941 32.717 19 49.414 28.081 3.158 1.717 7.778 2.338 12.628 1.935a33.427 33.427 0 0 0 13.675-4.073q4.163-2.421 8.189-4.766c3.621-2.109 5.542-4.6 5.732-6.908.186-2.251-1.261-4.338-4.351-5.749z" fill="#231f20" opacity=".1" style="mix-blend-mode:multiply;isolation:isolate"/><path data-name="Path 15826" d="M43.655 171.914a89.017 89.017 0 0 1-24.2 15.834c1.834-1.079-.52-7.641-3.372-7.239 6.963-5.975 14.824-13.07 22.127-16.9 4.2-1.709 7.682-.3 8.5 1.957.594 1.622.223 3.508-3.055 6.348z" fill="#4aa1ad"/><path data-name="Path 15827" d="M43.655 171.914a89.017 89.017 0 0 1-24.2 15.834c.92-.542.785-2.467.062-4.2 4.937-3.415 9.1-5.939 9.3-6.658.425-1.52-.054-4.318.129-7.151a65.773 65.773 0 0 1 9.264-6.133c4.2-1.709 7.682-.3 8.5 1.957.594 1.625.223 3.511-3.055 6.351z" fill="#387f88"/><path data-name="Path 15828" d="M48.315 200.382c1.932 6.038.077 16.063-1.545 26.539-.893 5.762-2.328 11.7-3.022 16.782-.774 5.662-1.151 9.3-.933 12.1.52 6.638 3.313 8.04 4.358 16.691 1.269 10.5-4.251 22.53-3.839 34.1a7.243 7.243 0 0 0 1.383 2.84c4.635 5.7-.142 4.947.3 12.473.04.662-2.521 12.145-2.521 12.145s-6.879 1.914-7.4 1.84-4.788-1.559-4.788-1.559c.336-.628.756-2.148 1.027-2.722 3.1-6.574 3.513-14.627 3.518-22.045.008-10.146-2.791-34.036-5.4-43.789-2.623-5.978-3.544-6.562-3.171-16.917.608-16.881-.532-29.339 1.553-47.176z" fill="#f1b287"/><path data-name="Path 15829" d="M42.945 250.421a32.8 32.8 0 0 0-.13 5.386c.52 6.638 3.313 8.04 4.358 16.691 1.269 10.5-4.251 22.53-3.84 34.1a7.258 7.258 0 0 0 1.384 2.84c4.635 5.7-.142 4.947.3 12.473.039.662-2.521 12.145-2.521 12.145s-4.194 1.167-6.28 1.643a22.335 22.335 0 0 0 4.822-12.357c.425-5-1.265-12.664-1.293-15.587-.086-8.923.259-28.685-.112-32.19-.61-5.766-2.621-10.362-4.826-18.535-.62-2.3.143-3.741 5.612-4.314z" fill="#e8a476"/><path data-name="Path 15830" d="M32.248 329.517c-.74 1.358-1.538 3.306-2.218 4.774a29.756 29.756 0 0 0-1.736 4.623 2.171 2.171 0 0 0 .157 1.859c1.662 2.23 9.986-1.837 12.776-4.3 1.8-1.592 1.836-3.474 2.26-5.773.636-3.45.744-3.838 1.57-7.384l.938 9.625.793.48a106.977 106.977 0 0 1 1.19-12.457c.241-1.336.653-2.858.711-3.6a7.636 7.636 0 0 0-3.8-7.73c.728 2.65-1.194 6.96-2.067 12.388-.914 5.679-4.06 11.889-6.532 12.415-1.042.221-3.344-1.079-4.6-1.793-.468-.269.072-1.896.558-3.127z" fill="#00263d"/><path data-name="Path 15831" d="M30.797 341.388c3.177-.338 8.346-3.072 10.43-4.911 1.8-1.592 1.836-3.474 2.26-5.773.636-3.45.744-3.838 1.57-7.384l.938 9.625.818.548.73-.752c.142-3.711-.1-8.787.435-11.773.241-1.335.653-2.858.711-3.6a7.634 7.634 0 0 0-3.8-7.729c.729 2.65-1.193 6.96-2.066 12.388-.753 4.674-3.016 9.706-5.172 11.634a38.972 38.972 0 0 1-6.854 7.727z" fill="#001624"/><g data-name="Group 7755"><path data-name="Path 15832" d="M55.344 267.996c1.822 2.872 3.909 5.786 4.819 8.149 3.469 9.006 2.044 24.865 3 38.5.094 1.355.945 2.594 1.333 3.893a47.151 47.151 0 0 1 1.679 7.007 64.02 64.02 0 0 1 .658 13.012c-.095 1.843-.751 2.741-.857 5.261l-10.146 3.539c.175-2.181.392-5.516.429-9.187.034-3.283-.1-6.834-.193-10.084-.113-3.732.108-7.138-.206-9.188-1.987-12.981-5.454-17.476-9.43-30.666-1.643-5.449-1.688-7.773-4.126-12.735a23.96 23.96 0 0 1-1.08-11.444c.56-4.251 8.011-.321 14.12 3.943z" fill="#f1b287"/><path data-name="Path 15833" d="M66.109 235.844c-4.908 15.69-8.762 21.43-9.44 28.178a29 29 0 0 0 .881 7.9l-15.143.882a67.455 67.455 0 0 1-1.249-7.358 28.456 28.456 0 0 1 .6-9.71c1.29-5.158 3.493-12.7 7.047-22.757l17.4 1.342z" fill="#f1b287"/><path data-name="Path 15834" d="M51.508 256.596a26.443 26.443 0 0 0 .888 5.618c1.215 4.307 6.24 9.982 7.8 14.035 3.469 9.007 2.045 24.866 3 38.5.095 1.355.945 2.593 1.332 3.893a47.08 47.08 0 0 1 1.68 7.007 63.936 63.936 0 0 1 .658 13.012c-.095 1.842-.751 2.741-.857 5.261l-3.786 1.32c.834-6.691-.06-15.552-1.1-23.874-1.774-14.251-4.925-30.461-8.93-41.394-1.368-3.735-2.657-6.474-5.531-8.346 3.506-.615-.684-3.82-3.014-9.03z" fill="#e8a476"/><path data-name="Path 15835" d="M64.222 317.762c.938 2.006 1.809 3.019 2.353 5.873s-.072 7.547.6 11.081l1.067 5.609c.621 3.267.146 5.677-3.155 8.98-2.991 3-6.125 4.523-8.054 3.932-1.421-.435-2.842-2.592-1.789-9.043.877-5.373.691-10.433.805-16.13a56.7 56.7 0 0 1 .232 12.917c-.131 1.548-.157 4.043 1.652 4.017 7.485-.111 7.542-2.137 7.789-4.491.658-6.287.142-17.207-1.5-22.745z" fill="#00263d"/></g><path data-name="Path 15836" d="M64.222 317.762c.938 2.006 1.809 3.019 2.353 5.873s-.072 7.547.6 11.081l1.067 5.609c.621 3.267.146 5.677-3.155 8.98a16.481 16.481 0 0 1-4.787 3.478c-.375.165 2.6-5.19 2.058-8.222 3.1-.736 3.18-2.3 3.364-4.054.658-6.287.142-17.207-1.5-22.745z" fill="#001624"/><g data-name="Group 7756"><path data-name="Path 15837" d="M59.505 190.172a7.949 7.949 0 0 0 .247 1.13 25.987 25.987 0 0 0 3.71 6.839 32.489 32.489 0 0 1 5.241 11.1c1.574 6.037.263 15.381-1.979 25.857-1.234 5.762-3.021 11.7-4.015 16.782-.915 4.672-4.223 11.3-2.445 16.088-2.337 2.139-3.1 3.314-6.962 3.409-10.373.253-24.4-7.624-26.874-11.684a135.306 135.306 0 0 1-.736-16.03c-.323-12.117.335-23.495.518-35.68.33-3.417.575-7.068.756-10.571.034-.854.1-1.665.189-2.438.095-.855.234-1.7.4-2.544.882-4.389 2.8-7.748 3.495-11.205 3.619-2.737 21.506 4.145 28.455 8.947z" fill="#001e30"/><path data-name="Path 15838" d="M68.703 209.238c1.574 6.037.263 15.381-1.979 25.857-1.234 5.762-3.021 11.7-4.015 16.782a121.532 121.532 0 0 0-2.211 16.251c-1.18 1.947-4.8 3.391-7.253 3.222-3.1-18.031 2.942-37.841 3.489-53.1.28-7.794-4.076-6.618-12.434-10.436-7.854-3.587-10.454-9.859-3.813-7.751 8.212 2.606 13.492.485 13.057-3.593-.213-2-.5-3.936-.534-5.576l-.235-.359a21.094 21.094 0 0 0 6.688-.606 8.7 8.7 0 0 0 .289 1.374 25.987 25.987 0 0 0 3.71 6.839 33.542 33.542 0 0 1 5.241 11.096z" fill="#001624"/><path data-name="Path 15839" d="M52.739 224.295c-1.089 10.127-1.89 19.242-3.01 29.53-.536 4.932-.744 10.7.475 15.586-8.112-.752-18.271-5.467-22.817-10.714-1.427-11.54-.462-41.708-.2-53.784.171-7.757.364-12.6 3.061-19.4 5.072 3.971 10.257 6.311 18.6 8.184-2.982 4.369-4.9 5.689-7.71 4.939-2.328-.622-5.082-1.024-6.5-.231-1.632.911-1.614 3.269 1.018 6.507 1.725 2.122 9.377 7.128 15.185 9.235 3.881 1.41 2.323 6.198 1.898 10.148z" fill="#00263d"/></g><path data-name="Path 15840" d="M63.228 175.115c-2.744 5.447-4.208 11.5-3.723 15.057-2.878 3.717-22.051 1.237-28.451-8.95 1.043-5.221-1.27-10.358-.7-16.4.153-1.617.311-3.251.474-4.882.552-5.52.618-10.416 1.242-15.239.805-6.219 1.549-11.519 2.353-14.018a7.527 7.527 0 0 1 1.209-2.479c1.646-2.351 4.6-3.543 9.747-1.385a115.862 115.862 0 0 1 16.086 7.861c2.33 1.446 9.7 6.938 11.29 9.165a7.9 7.9 0 0 1 1.434 4.185c.557 8.114-7.421 20.063-10.961 27.085z" fill="#387f88"/><path data-name="Path 15841" d="M38.083 162.832c2.451 1.247 4.85 4.9 8.721 7.022a9.578 9.578 0 0 0 11.913-2.329 22.235 22.235 0 0 0 1.338-6.15c.354-7.88 1.446-12.114 5.918-18.454-2.8-1.531-5.653-3.16-7.206-4.836l-17.7-9.653-5.645 1.49c-1.846 5.318-2.741 8.1-6.253 13.225a12.248 12.248 0 0 0-2.029 9.951c1.296 5.59 6.482 7.468 10.943 9.734z" fill="#4aa1ad"/><path data-name="Path 15842" d="M42.355 131.688c-.924 1.93-6.524 12.644-7.03 14.141s-.911 3.027-1.446 5.122l-.991-.252c.539-2.108.951-3.663 1.471-5.2s6.757-13.059 7.706-15.041z" fill="#403e3e"/><path data-name="Path 15843" d="M61.899 150.279c1.965.99 6.654 12.049 8.486 9.484 4.153-5.81 6.3-13.033.281-18.38a63.787 63.787 0 0 0-9.724-7.045l.11 4.216c1.6 1.564 3.08 3.156 4.923 4.729-1.753 2.488-3.053 4.017-4.076 6.996z" fill="#387f88"/><g data-name="Group 7760"><g data-name="Group 7758"><path data-name="Path 15844" d="M9.582 181.55a16.5 16.5 0 0 1-2.935.67c.419 2.042 2.408 1.681 4.047 1.361z" fill="#db9669"/><g data-name="Group 7757"><path data-name="Path 15845" d="M1.895 168.826l21.041 8.5 18.369 27.442-1.1.737L.556 169.31z" fill="#e6e6e6"/><path data-name="Path 15846" d="M1.699 168.541l21.237 8.788-2.878 2.2-19.7-10.5z" fill="#f5f5f5"/><path data-name="Path 15847" d="M0 168.775l21.789 9.048 19.105 28.4-22.365-9.971z" fill="#380303"/></g><path data-name="Path 15848" d="M11.058 183.5c-1.7-.076-1.888-.876-1.587.17.442 1.53 2.678 5.679 4.355 6.326.011 0 2.157.12 2.567-.384.346-.426.223-.6-.415-1.518l-2.04-3.34c-.516-.855-.716-1.157-2.88-1.254z" fill="#db9669"/></g><g data-name="Group 7759"><path data-name="Path 15849" d="M75.035 147.471c3.014 8.691.949 22.014.779 34.564-.091 6.658-9 6.368-10.121.052-1.442-7.589-1.739-16.811-2.03-24.3-.266-6.833-.086-14.065 4.688-15.093 3.471-.745 5.553 1.513 6.684 4.777z" fill="#4aa1ad"/><path data-name="Path 15850" d="M75.035 147.471c3.014 8.691.949 22.014.779 34.564-.07 5.128-5.373 6.134-8.317 3.438l.036-.03c4.352-3.734 2.764-2.053 2.766-6.764.005-12.718.293-23.239-1.642-36.041 3.29-.55 5.281 1.667 6.378 4.833z" fill="#387f88"/><path data-name="Path 15851" d="M44.91 196.467c2.483-1.081 5.684 6.437 3.278 7.227-2.445.802-5.666-6.188-3.278-7.227z" fill="#a9d3e8"/><path data-name="Path 15852" d="M48.303 195.226a7.889 7.889 0 0 1-3.385 1.428c-.83.13-2.047.31-2.885.517-1.377.342-3.143 1.46-5.553 2.39 1.131 2.347 3.883.453 5.126.356a22.454 22.454 0 0 0 3.351-.22c1.609-.393 3.665-2.675 3.346-4.471z" fill="#f1b287"/><path data-name="Path 15853" d="M49.562 193.914a14.794 14.794 0 0 1-3.584 2.943 12.39 12.39 0 0 1-2.266 1.048c-2.454.833-3.588 3.432-5.107 3.28s-5.6-2.62-5.444-1.846a13.923 13.923 0 0 0 1.622 3.1 12.238 12.238 0 0 0 3.416 2.908 16.9 16.9 0 0 0 3.957 1.826 2.2 2.2 0 0 0 1.928-.237 19.727 19.727 0 0 0 3.381-3.01c2.173-2.6 2.641-3.121 4.837-4.429z" fill="#f1b287"/><path data-name="Path 15854" d="M49.562 193.914c-.019.024-.038.048-.059.072l.349 1.088a40.983 40.983 0 0 0-4.294 3.855c-2.487 2.369-3.624 4.693-5.716 3.89a52.5 52.5 0 0 1-6.346-2.631 15.682 15.682 0 0 0 1.287 2.249 12.238 12.238 0 0 0 3.416 2.908 16.9 16.9 0 0 0 3.957 1.826 2.2 2.2 0 0 0 1.928-.237 19.727 19.727 0 0 0 3.381-3.01c2.173-2.6 2.641-3.121 4.837-4.429z" fill="#e8a476"/><path data-name="Path 15855" d="M72.469 187.876a89.041 89.041 0 0 1-24.2 15.835c1.834-1.08-.519-7.641-3.371-7.24 5.712-4.182 14.824-13.069 22.127-16.9 4.2-1.708 7.682-.3 8.5 1.958.597 1.622.222 3.508-3.056 6.347z" fill="#4aa1ad"/><path data-name="Path 15856" d="M72.469 187.876a89.048 89.048 0 0 1-24.2 15.835c.931-.548.782-2.51.037-4.255a182.2 182.2 0 0 0 19.23-14.013c4.307-3.7 2.8-2.088 2.766-6.621 2.646-.115 4.631 1.075 5.226 2.707s.219 3.508-3.059 6.347z" fill="#387f88"/></g></g><g data-name="Group 7761"><path data-name="Path 15857" d="M58.579 133.481c.339 4.161-7.97 6.145-13.041 5.482a3.713 3.713 0 0 1-1.414-.458 1.891 1.891 0 0 1-.577-.494 11.977 11.977 0 0 1-.737-3.3 26.718 26.718 0 0 0-3.1-10.242l13.33-5.26 3.377-1.473c-1.727 7.052-.26 9.692 2.162 15.745z" fill="#e8a476"/><path data-name="Path 15858" d="M58.445 133.164a.936.936 0 0 1 .018.243c-4.819-4.3-11.388-1.357-16.108-1.716-.148-.338-1.257-5.594-1.386-5.73-.417-1.18-.592-.986-1.148-2.5l13.329-5.26 3.378-1.473c-1.724 7.048-.506 10.382 1.917 16.436z" fill="#db9669"/></g><g data-name="Group 7763"><path data-name="Path 15859" d="M58.038 131.514c6.7 4.63 2.764 10.931-3.984 21.734l-.463.742-.867-.537.463-.742c6.424-10.285 10.17-16.282 4.27-20.359z" fill="#403e3e"/><path data-name="Path 15860" d="M43.538 162.66q.768-1.467 1.49-2.662a22.512 22.512 0 0 1 4.712-5.892c1.507-1.209 2.8-1.482 3.736-.992a.997.997 0 0 1 .1.059c1 .6 1.513 2.058 1.1 4.676a37.539 37.539 0 0 1-2.9 8.756l-.933-.409a36.594 36.594 0 0 0 2.826-8.5c.334-2.138.031-3.256-.62-3.648l-.049-.027c-.571-.3-1.47-.042-2.626.885a21.546 21.546 0 0 0-4.477 5.621q-.726 1.2-1.462 2.608z" fill="#403e3e"/><g data-name="Group 7762" fill="#141414"><path data-name="Path 15861" d="M44.395 161.904a1.062 1.062 0 0 1 .519 1.406l-.55 1.146a1.063 1.063 0 0 1-1.406.52 1.063 1.063 0 0 1-.518-1.406l.549-1.147a1.062 1.062 0 0 1 1.406-.519z"/><path data-name="Path 15862" d="M51.806 165.334a1.063 1.063 0 0 1 .519 1.406l-.55 1.147a1.063 1.063 0 0 1-1.406.519 1.063 1.063 0 0 1-.518-1.406l.549-1.146a1.063 1.063 0 0 1 1.406-.52z"/></g></g><g data-name="Group 7765"><path data-name="Path 15863" d="M48.487 90.3c11.026-8.1 18.5 2.58 12.747 8.322-.888.886-1.854.338-3.273 1.162 0 0-9.831-.592-9.96-1.173s.486-8.311.486-8.311z" fill="#241304"/><path data-name="Path 15864" d="M61.243 96.543c4.99-1.753.616-10.432-3.755-4.993 4.277-1.813 6.664 2.215 3.755 4.993z" fill="#361d07"/><path data-name="Path 15865" d="M60.217 96.476c4.416-1.412.858-7.262-2.769-3.651 3.288-1.078 5.363 1.514 2.769 3.651z" fill="#361d07"/><path data-name="Path 15866" d="M61.985 98.006c5.664-4.508-.87-13.761-5.453-9.35 4.718-1.962 9.719 4.195 5.453 9.35z" fill="#361d07"/><path data-name="Path 15867" d="M56.759 92.878c4.468-5.953-5.624-10.3-7.015-2.2 3.3-4.471 8.425-3.007 7.015 2.2z" fill="#361d07"/><path data-name="Path 15868" d="M55.731 93.512c3.27-4.358-4.118-7.541-5.136-1.614 2.416-3.27 6.168-2.198 5.136 1.614z" fill="#361d07"/><path data-name="Path 15869" d="M56.535 104.696l-7.868 5.513 8 3.239c1.4.012-3.611 3.819-1 9.454 4.478-1.733 7.815-9.01 5.892-13-1.363-2.814-2.743-1.756-5.024-5.206z" fill="#140a02"/><path data-name="Path 15870" d="M37.436 117.42l5.754-3.547-2.248-10.143-4.609-7.292c-7.734 4.794-3.723 20.238 1.103 20.982z" fill="#241304"/><path data-name="Path 15871" d="M43.549 129.422c7.259-3.028 9.411-6.644 11.137-14.056 3.183-2.115 4.553-3.886 4.9-5.868.82-4.706-1.7-9.891-5.216-12.8a12.55 12.55 0 0 0-10.792-2.59c-7.988 1.467-10.977 6.555-11.629 13.4a20.57 20.57 0 0 0 .98 5.471c.65 2.23-.4 1.614-.315 3.892a38.729 38.729 0 0 0 2.087 8.405c.79 2.23.9 4.522 2.039 4.888s3.495.64 6.809-.742z" fill="#f1b287"/><path data-name="Path 15872" d="M32.955 100.929c3.369-1.454 16.526 4.748 20.485 13.367.661 1.438 1.484 1 1.575 3.237.1 2.468 3.7-5.113 4.52-7.492 2.242-6.514.407-11.793-5.672-15.561-7.641-4.735-18.219-.492-20.908 6.449z" fill="#361d07"/><g data-name="Group 7764"><path data-name="Path 15873" d="M55.285 110.439c2.97-1.406 3.4 2.159 3.167 4.378-.16 1.525-1.4 1.555-1.71 2.78a2.826 2.826 0 0 1-2.311 2.315c-1.887.164-1.043-2.764-.947-3.9-.427-1.792-.084-4.681 1.801-5.573z" fill="#e8a476"/><path data-name="Path 15874" d="M54.431 114.814c.494-1.541.57-3.458 2.694-3.472-1.817.358-2.034 2.066-2.694 3.472z" fill="#db9669"/></g><path data-name="Path 15875" d="M43.549 129.422c7.275-3.031 9.411-6.644 11.137-14.056 3.183-2.115 4.553-3.886 4.9-5.868.82-4.706-1.7-9.891-5.216-12.8a12.55 12.55 0 0 0-10.792-2.59c-4.644.853-9.648 4.149-10.58 8.364.44-.355 1.807-1.223 5.954-.124 4.928 1.8 3.538 5.986 5.239 7.52a10.238 10.238 0 0 1 2.532 4.9c.569 2.666-2.535 2.854-2.586 4.12-.053 1.3 3.195 1.449 2.519 4.949a22.03 22.03 0 0 1-3.558 5.766c.152-.05.297-.115.451-.181z" fill="#e8a476"/><path data-name="Path 15876" d="M38.572 101.546c-1.641-.606-4.7-.474-5.814.471-.559-2 2.8-8.1 9.775-10.691 5.906-2.192 13.253-2.4 17.853 3.714 3.46 4.6 4.739 12.737-.1 17.433-2.2 2.136-4.944 3.9-6.508 4.055-.491-1.073-3.074-1.805-3.961-2.556-.734-.622-.551-1.467-1.523-2.491a21.27 21.27 0 0 1-2.934-2.736c-1.117-1.62-.189-6.89-6.788-7.199z" fill="#361d07"/><path data-name="Path 15877" d="M63.567 104.137a10.976 10.976 0 0 1-3.281 8.336c-2.225 2.11-4.944 3.9-6.508 4.055-.491-1.073-3.074-1.805-3.961-2.556-.734-.622-.551-1.467-1.523-2.491a21.27 21.27 0 0 1-2.934-2.736c8.604 3.171 15.652.143 18.207-4.608z" fill="#241304"/><path data-name="Path 15878" d="M53.143 90.448c2.923 1.766-3.387 1.858-4.824 1.865-4.067.019-8.777 1.527-7.831 7.43.215 1.34.715 2.265.557 2.217a10.6 10.6 0 0 0-2.573-.428c-1.961-.849-4.878.282-5.317.046a6.916 6.916 0 0 1 .824-9.071c3.925-4.03 9.639-3.2 14.607-2.316 1.647.297 5.312 1.483 4.557.257z" fill="#4f2b0c"/><path data-name="Path 15879" d="M44.872 103.956c9.093-.827 20.205-5.071 11.528-12.753 12.308 8.952-2.978 14.975-11.528 12.753z" fill="#4f2b0c"/><path data-name="Path 15880" d="M43.193 100.906c.643-8.329 5.974-5.413 10.811-7.641 1.231-.567 1.963-1.994-.6-2.839 1.941 1.131.721 1.741.049 1.925-3.156.859-6.324.248-8.819 1.232a4.866 4.866 0 0 0-3.2 4.892c.034 1.626.526 3.853 1.175 4.1.285.106.49-.448.584-1.669z" fill="#4f2b0c"/><path data-name="Path 15881" d="M42.584 102.633c7.955-3.816 20.65-5.248 12.01-11.889 4.007 3.615 1.791 4.494-2.224 6.07a27.192 27.192 0 0 0-9.786 5.819z" fill="#4f2b0c"/><path data-name="Path 15882" d="M53.43 90.676c.243.49-.692.679-1.993.463a60.7 60.7 0 0 0-9.155-1.2c-5.657-.038-9.436 2.7-8.176 8.948-.021-5.145 1.56-10.04 13.348-8.071-9.076-.515-11.38.448-11.171 8.143.554-7.554 3.377-8.32 12.244-7.646-7.725-.148-10.361.693-9.946 8.384.7-6.964 1.821-8.54 12.774-7.933 1.251.068 2.947-.262 2.075-1.088z" fill="#361d07"/><path data-name="Path 15883" d="M45.117 105.362c5.015 3.508 24.654-1.753 14.5-10.862 12.753 9.97-9.317 16.009-14.5 10.862z" fill="#4f2b0c"/></g><g data-name="Group 7766"><path data-name="Path 15884" d="M32.915 149.756c1.645.172 2.785 2.173 2.546 4.471s-1.768 4.021-3.413 3.849-2.785-2.172-2.545-4.47 1.767-4.018 3.412-3.85z" fill="#736f6f"/><path data-name="Path 15885" d="M32.885 150.043c1.532.16 2.593 2.023 2.37 4.163-.219 2.106-1.6 3.694-3.107 3.589 1.4-.082 2.641-1.606 2.847-3.591.223-2.139-.837-4-2.369-4.162l-.07-.006a2.149 2.149 0 0 1 .329.007z" fill="#b8b6b6"/><path data-name="Path 15886" d="M32.771 151.137c1.1.115 1.861 1.452 1.7 2.987s-1.181 2.686-2.28 2.572-1.86-1.452-1.7-2.987 1.181-2.686 2.28-2.572z" fill="#4a4848"/><path data-name="Path 15887" d="M32.742 151.424c.985.1 1.668 1.3 1.524 2.678s-1.059 2.41-2.044 2.307-1.669-1.3-1.525-2.679 1.059-2.409 2.045-2.306z" fill="#736f6f"/><path data-name="Path 15888" d="M32.615 152.634c.507.054.858.67.785 1.378s-.545 1.239-1.052 1.186-.858-.67-.784-1.377.544-1.24 1.051-1.187z" fill="#454242"/><path data-name="Path 15889" d="M32.722 151.603c.915.1 1.548 1.209 1.415 2.486-.131 1.261-.961 2.212-1.863 2.143a2.251 2.251 0 0 0 1.589-2.133c.133-1.277-.5-2.39-1.415-2.485h-.034a1.171 1.171 0 0 1 .308-.011z" fill="#b8b6b6"/></g></g></g></svg>