<svg xmlns="http://www.w3.org/2000/svg" width="95.828" height="248.281" viewBox="0 0 95.828 248.281"><g data-name="Group 5481"><path data-name="Path 10716" d="M4.576 225.631l48.383-27.556c5.275-2.41 12.824-4.328 18.2-1.531 4.9 2.548 12.963 7.763 16.528 9.8 2.71 1.545 12.114 7.179 6.256 10.364-17.23 9.369-34.281 19.906-51.777 29.423-3.309 1.8-8.149 2.451-13.23 2.029a35.03 35.03 0 0 1-14.331-4.268l-8.58-4.993c-3.795-2.21-5.807-4.823-6.006-7.24-.197-2.363 1.32-4.545 4.557-6.028z" fill="#231f20" fill-rule="evenodd" opacity=".1" style="mix-blend-mode:multiply;isolation:isolate"/><g data-name="Group 5480"><g data-name="Group 5464" fill-rule="evenodd"><path data-name="Path 10717" d="M70.506 84.089l.216-1.7-.112-3.412c1.443-1.261 2.6-1.8 3.34-1.647.058.012.216.025.271.044 2.413.825-1.238 8.41-3.715 6.715z" fill="#c3e6f7"/><path data-name="Path 10718" d="M83.139 77.614c1.4 1.7-1.6 2.776-2.507 2.879-1.182.524-1.793.4-2.251 1.4-.513 1.125-3.828-3.711-3.759-3.783a13.42 13.42 0 0 1 3.858.152 3.86 3.86 0 0 0 2.417.1c.634-.157 1.235-.425 2.242-.748z" fill="#ad7c5b"/><path data-name="Path 10719" d="M83.406 78.036c.627 1.454-1.945 2.359-2.774 2.452-1.182.524-1.793.4-2.251 1.4-.315.69-2.967-1.545 0-2.253 1.33-.221 3.371.087 5.025-1.599z" fill="#9e6d4c"/><path data-name="Path 10720" d="M66.096 82.249c1.556.338 2.62.488 3.473.728 2.253.635 1.761 3.189 5.958 4.315l4.807 1.288c.627.169 4.91-1.621 6.027-2.571.792-.675 4.012-4.035 3.546-4.19-.349-.117-2.268.39-4.094.589l-4.2-.3c-4.047-.657-3.739-2.974-5.245-3.611-1.961-.83-3.736-.249-7.021-2.357l-3.159 1.8.768 3.773z" fill="#ad7c5b"/><path data-name="Path 10721" d="M66.096 82.249c1.556.338 2.62.488 3.473.728 2.253.635 1.761 3.189 5.958 4.315l4.807 1.288c.627.169 4.91-1.621 6.027-2.571.137-.116.346-.313.6-.56-1.47-.75-4.623 1.6-6.044 1.574a5.869 5.869 0 0 1-3.493-.994c-1.8-1.193-2.236-2.214-3.408-3.2a27.236 27.236 0 0 0-4.156-2.346l.128-4.112q-.309-.108-.639-.231l-3.159 1.8.768 3.773z" fill="#9e6d4c"/><path data-name="Path 10722" d="M49.56 77.556c8.094 3.348 12.774 3.883 21.1 6.617-.425-3.718 2.177-6.76 3.75-6.72-6.86-3.113-15.051-7.466-22.49-9.1z" fill="#d2eefc"/><path data-name="Path 10723" d="M49.56 77.556c8.094 3.348 12.774 3.883 21.1 6.617a7.3 7.3 0 0 1 .745-4.109 146.743 146.743 0 0 1-14.5-5.663c-.932-.517-.345-3.439-.486-4.8z" fill="#c3e6f7"/></g><g data-name="Group 5467" fill-rule="evenodd"><g data-name="Group 5465"><path data-name="Path 10724" d="M41.574 98.963c-1.75 5.471-.07 14.555 1.4 24.047.809 5.221 2.11 10.6 2.739 15.206q.15 1.1.279 2.1a45.723 45.723 0 0 1 .565 8.87c-.47 6.015-3 7.285-3.948 15.123-1.149 9.511 3.852 20.416 3.479 30.9a6.587 6.587 0 0 1-1.253 2.573c-4.2 5.164.128 4.482-.275 11.3-.035.6 2.284 11.006 2.284 11.006s6.234 1.734 6.7 1.667 4.338-1.413 4.338-1.413c-.3-.568-.684-1.945-.929-2.467-2.808-5.957-3.183-13.254-3.189-19.975-.006-9.193 2.53-30.841 4.9-39.678a115.121 115.121 0 0 0 1.894-15.623c.97-15.275 1.463-26.289-.427-42.451z" fill="#ad7c5b"/><path data-name="Path 10725" d="M41.574 98.963c-1.75 5.471-.07 14.555 1.4 24.047.809 5.221 2.11 10.6 2.739 15.206q.15 1.1.279 2.1a45.723 45.723 0 0 1 .565 8.87c-.47 6.015-3 7.285-3.948 15.123-1.149 9.511 3.852 20.416 3.479 30.9a6.587 6.587 0 0 1-1.253 2.573c-4.2 5.164.128 4.482-.275 11.3-.035.6 2.284 11.006 2.284 11.006s6.234 1.734 6.7 1.667.032-.461-.238-.969c-3.359-6.324-3.388-15.689-3.341-22.825.061-9.292-2.479-26.4-.215-33.971 2.622-1.7 7.024-3.552 8.911-5.768a115.121 115.121 0 0 0 1.894-15.623c.97-15.275 1.463-26.289-.427-42.451z" fill="#9e6d4c"/><path data-name="Path 10726" d="M56.132 215.974c.671 1.23 1.393 2.995 2.009 4.325a26.906 26.906 0 0 1 1.573 4.19 1.966 1.966 0 0 1-.141 1.684c-1.507 2.02-9.049-1.665-11.578-3.9-1.632-1.442-1.663-3.148-2.047-5.23-.576-3.127-.674-3.478-1.423-6.691l-.849 8.721-1.018.466a99.918 99.918 0 0 0-.779-11.319c-.219-1.21-.593-2.589-.645-3.26a6.917 6.917 0 0 1 3.439-7c-.66 2.4 1.082 6.306 1.873 11.225.829 5.145 3.679 10.772 5.919 11.248.943.2 3.03-.976 4.166-1.623.43-.247-.059-1.721-.499-2.836z" fill="#2a3c4a"/><path data-name="Path 10727" d="M57.446 226.725c-2.878-.306-7.562-2.783-9.45-4.45-1.633-1.442-1.664-3.148-2.048-5.23-.576-3.127-.674-3.478-1.423-6.691l-.849 8.721-1.018.466a99.918 99.918 0 0 0-.779-11.319c-.219-1.21-.592-2.589-.645-3.26a6.917 6.917 0 0 1 3.439-7c-.66 2.4 1.082 6.306 1.873 11.225.682 4.235 2.733 8.794 4.686 10.542a35.34 35.34 0 0 0 6.214 6.996z" fill="#111c24"/></g><g data-name="Group 5466"><path data-name="Path 10728" d="M26.757 128.869c1.514 14.819 3.9 20.614 3.274 26.728-.409 4.035-4 9.886-4.762 13.749-1.685 8.581 2.07 22.512 3.351 34.834.128 1.224-.437 2.462-.58 3.683a42.755 42.755 0 0 0-.4 6.516 58.029 58.029 0 0 0 1.451 11.716c.374 1.63 1.1 2.329 1.59 4.561l9.61 1.569c-.946-3.636-2.337-10.986-3.231-17.162-.484-3.349-1.214-6.353-1.255-8.232-.26-11.9 2.13-16.451 3.612-28.845.612-5.122-.222-7.984 1.687-12.013a61.389 61.389 0 0 0 2.442-6.306 25.767 25.767 0 0 0 1.231-8.729c-.211-4.813-.8-11.9-2.133-21.481l-15.689-1.961z" fill="#ad7c5b"/><path data-name="Path 10729" d="M26.757 128.869c1.514 14.819 3.9 20.614 3.274 26.728-.409 4.035-4 9.886-4.762 13.749-1.685 8.581 2.07 22.512 3.351 34.834.128 1.224-.437 2.462-.58 3.683a42.755 42.755 0 0 0-.4 6.516 58.029 58.029 0 0 0 1.451 11.716c.374 1.63 1.1 2.329 1.59 4.561l4.89 2.55c-1.558-3.208-3.133-14.173-4.027-20.349a55.72 55.72 0 0 1-.213-8.294c-.287-13.132-.766-27.662 2.65-38.38 3.417-.178 7.035-1.1 7.831-1.82.518-1.255 1.086-2.79 1.734-4.7a25.767 25.767 0 0 0 1.231-8.729c-.211-4.813-.8-11.9-2.133-21.481l-15.689-1.961z" fill="#9e6d4c"/><path data-name="Path 10730" d="M28.129 207.214c-.556 1.929-1.191 2.958-1.275 5.59s1.131 6.744 1.03 10l-.162 5.171c-.094 3.012.672 5.1 4.093 7.592 3.1 2.256 6.123 3.18 7.766 2.379 1.21-.589 2.176-2.722.322-8.346-1.545-4.685-1.943-9.263-2.851-14.347a51.145 51.145 0 0 0 1.645 11.558c.336 1.368.536 3.656-1.087 3.889-6.715.96-7.052-.846-7.606-2.918-1.48-5.527-2.562-15.368-1.875-20.568z" fill="#2a3c4a"/><path data-name="Path 10731" d="M28.129 207.214c-.556 1.929-1.191 2.958-1.275 5.59s1.131 6.744 1.03 10l-.162 5.171c-.094 3.012.672 5.1 4.093 7.592 2.386 1.736 4.724 2.683 6.424 2.663-1.8-1.507-3.1-4.071-4.055-7.268-3.438-.067-3.742-1.54-4.18-3.18-1.48-5.527-2.562-15.368-1.875-20.568z" fill="#111c24"/></g></g><g data-name="Group 5468" fill-rule="evenodd"><path data-name="Path 10732" d="M28.073 76.296c2.487 4.936 3.814 10.418 3.374 13.644h.005a7.337 7.337 0 0 1-.228 1.022 23.588 23.588 0 0 1-3.363 6.2 29.427 29.427 0 0 0-4.748 10.055c-1.427 5.471-.238 13.937 1.794 23.429 1.117 5.221 2.736 10.6 3.637 15.206.829 4.234 3.826 10.237 2.215 14.578 2.118 1.939 2.811 3 6.309 3.088 9.4.23 21.457-4.946 23.7-8.624a19.669 19.669 0 0 0 1.095-6.233c.248-1.953.064-4.226.225-10.254.293-10.979-.3-21.289-.469-32.33-.3-3.1-.521-6.4-.684-9.578a29.995 29.995 0 0 0-.172-2.21 26.458 26.458 0 0 0-.366-2.3c-.8-3.978-2.542-7.021-3.167-10.154-.945-4.73 1.151-9.385.634-14.856a765.874 765.874 0 0 0-.43-4.424c-.5-5-.559-9.437-1.125-13.808-.729-5.636-1.4-10.438-2.132-12.7a6.834 6.834 0 0 0-1.095-2.246c-1.492-2.13-4.17-3.21-8.832-1.254a104.976 104.976 0 0 0-14.576 7.123c-2.111 1.309-8.789 6.286-10.23 8.3a7.171 7.171 0 0 0-1.3 3.792c-.506 7.345 6.722 18.171 9.929 24.534z" fill="#2982ab"/><path data-name="Path 10733" d="M28.073 76.296a33.315 33.315 0 0 1 3.33 10.369c.553 4.517-.874 6.537-3.542 10.5a29.427 29.427 0 0 0-4.748 10.055c-1.2 4.621-.544 11.382.915 19.091 4.186-11.379 7.014-19.238 6.461-18.936 1.917-5.371 4.43-10.292 5.533-15.32a25.8 25.8 0 0 0-2.636-18.28 8.68 8.68 0 0 0 10.795 2.11c3.507-1.921 5.681-5.232 7.9-6.363a59.263 59.263 0 0 0 5.734-3c-.125-1.315-.255-2.64-.387-3.964-.5-5-.559-9.437-1.125-13.808-.729-5.636-1.4-10.438-2.132-12.7a6.834 6.834 0 0 0-1.095-2.246c-1.492-2.13-4.17-3.21-8.832-1.254a104.976 104.976 0 0 0-14.576 7.123c-2.111 1.309-8.789 6.286-10.23 8.3a7.171 7.171 0 0 0-1.3 3.792c-.5 7.342 6.728 18.168 9.935 24.531z" fill="#1e688a"/><path data-name="Path 10734" d="M50.858 65.167c-2.221 1.129-4.311 4.6-7.9 6.363-6.661 3.261-11.761-1.508-12.007-7.682-.283-7.143-1.309-10.978-5.362-16.723 2.537-1.387 5.123-2.863 6.529-4.382l16.043-8.747 5.116 1.35a41.687 41.687 0 0 0 5.87 11.984 11.178 11.178 0 0 1 1.8 9.058c-1.185 5.063-6.051 6.726-10.089 8.779z" fill="#2982ab"/><path data-name="Path 10735" d="M50.688 62.858c-2.994 1.3-3.614 3.9-6.889 5.695-2.175 1.191-6.43 2.43-9.712-1.48a18.856 18.856 0 0 1-1.133-5.2c-.3-6.667-.18-9.453-3.965-14.817 1.027-.562 4.024-2.058 4.975-2.648 6.692 2.08 12.789 5.226 16.593-4.648l3.122-2.967c1.562 5.02 2.571 6.543 5.543 10.883 1.709 2.5 2.452 4.172 1.739 7.232-1.101 4.724-6.392 6.264-10.273 7.95z" fill="#349ac9"/><path data-name="Path 10736" d="M23.113 107.214c-1.427 5.471-.238 13.937 1.794 23.429 1.117 5.221 2.736 10.6 3.637 15.206.583 2.981 1.82 8.922.042 13.439.64 1.826 4.411 4.544 8.533 4.207 2.813-16.338-2.666-34.288-3.162-48.117-.253-7.061 3.694-6 11.268-9.455 7.116-3.251 9.472-8.934 3.454-7.024-7.44 2.362-13.573.379-13.179-3.316.1-.92.5-4.776.85-5.317a12.418 12.418 0 0 1-4.865-.549 7.977 7.977 0 0 1-.261 1.245 23.588 23.588 0 0 1-3.363 6.2 30.4 30.4 0 0 0-4.748 10.052z" fill="#1e688a"/><path data-name="Path 10737" d="M37.577 120.859c.58 5.387 1.56 10.764 2.07 15.919.506 5.1 2.008 19.851 1.024 23.8 6.963-.538 15.249-4.483 18.388-7.277 3.024-2.692 2.9-8.114 2.909-12.059.026-8.233.2-23.5-.476-35.722a119.9 119.9 0 0 0-1.259-12.954c-.8-4.6-2.737-7.227-3.278-11.988-.586-5.161 1.18-9.619.643-11.835-1.824 2.206-4.521 2.155-6.574 4.6-2.458 2.928-5.749 7.074-12.314 5.762 2.143 5.047.239 15 .386 15.381 1.608 4.149 6.661 3.2 8.991 2.578 2.109-.563 4.6-.927 5.892-.209 1.478.826 1.462 3.514-.923 6.448-1.563 1.922-8.5 6.458-13.759 8.367-3.516 1.272-2.101 5.61-1.72 9.189z" fill="#349ac9"/><path data-name="Path 10738" d="M25.914 45.557c3.513-4.087 6.536-7.638 10.416-9.488 4.724-2.255 8.1-2.107 12.143-2.625-2.838 8.57 2.181 12.326-2.116 14.647-4.675 2.523-11.298-5.369-20.443-2.534z" fill="#9e6d4c"/></g><path data-name="Path 10739" d="M28.061 76.414c-3.207-6.363-10.435-17.189-9.931-24.538.223-3.269 2.044-5.076 4.538-6.594a35.814 35.814 0 0 1 7.546-5.842 3.533 3.533 0 0 0-.11 3.093 2.264 2.264 0 0 0 .9 1.139c1.341 2.414 3.535 5.453 4.65 7.023 4.035 4.822 9.985 8.874 14.086 17.05 6.188 12.338 5.246 61.9 2.442 78.032-2.459 2.457-12.375 6.733-14.559 7.119a15.5 15.5 0 0 1-9.922-1.2c-1.434-9.55-5.029-22.41-5.886-32.951-.317-3.9-.353-8.165.818-11.934 1.539-5.2 4.572-9.469 6.61-12.43 1.63-2.369 2.3-3.187 2.274-5.79a30.43 30.43 0 0 0-3.457-12.179zm34.479 62.683c.165-7.577.092-14.9-.024-22.312-.108-6.89-.045-16.635-1.284-23.226-1.117-5.946-2.654-7.976-3.4-11.734-.944-4.73 1.029-8.712.513-14.183a854.898 854.898 0 0 0-.43-4.423c-.5-5-1.049-9.989-1.616-14.36-.729-5.635-1.362-10.724-2.091-12.988a6.826 6.826 0 0 0-1.1-2.246c-1.492-2.13-4.415-3.128-9.077-1.173a27.577 27.577 0 0 0-4.279 2.128 19.785 19.785 0 0 1 3.128.819 7.82 7.82 0 0 1 6.225 4.971c4.8 12.3 4.18 25.329 5.015 38.257 2.189 15.993 3.659 48.98 2.134 65.094a52.122 52.122 0 0 0 6.286-4.625z" fill="#d2eefc" fill-rule="evenodd"/><path data-name="Path 10740" d="M22.634 106.814c-1.171 3.769-1.135 8.036-.818 11.934.857 10.541 4.452 23.4 5.886 32.951a14.255 14.255 0 0 0 6.985 1.5c-1.872-8.945-4.38-23.061-5.137-30.686a31.676 31.676 0 0 1 2.179-11.658z" fill="#c3e6f7" fill-rule="evenodd"/><path data-name="Path 10741" d="M28.061 76.414c-3.207-6.363-10.435-17.189-9.931-24.538.273-3.992 2.929-5.8 6.284-7.571v1.55a24.1 24.1 0 0 1 5.8 11.847l8.656-3.33c3.987 4.039 8.59 8.5 11.983 16.019-1.891 1.627-3.561 3.769-7.91 5.4-1.82.681-3.96 1.319-4.739 2.175-3.341 3.664-1.113 7.144-.928 11.842.526 13.36-8.194 21.53-8.257 32.338a10.033 10.033 0 0 1-7.163-6.058c-1.69-12.322 8.3-21.722 9.356-25 .954-2.976-.376-9.162-3.151-14.668zm22.852-26.675l2.724-1.048c1.454 4.331 3.352 8.884 4.167 13.484l.106 1.044c.1 1.005.2 2.011.295 3.012v.227c-1.488.683-2.927 1.324-4.559 2.11a90.556 90.556 0 0 0-2.733-18.83z" fill="#c3e6f7" fill-rule="evenodd"/><path data-name="Path 10742" d="M49.077 66.563c-6.3-10.731-13.738-14.341-17.682-22.565-1.463 1.377-3.509 1.979-5.821 3.244 4.053 5.745 5.042 9.581 5.362 16.721a20.225 20.225 0 0 0 1.213 5.573 8.678 8.678 0 0 0 10.794 2.11c2.585-1.415 4.445-3.586 6.134-5.083zm-.93-32.45l5.115 1.35a41.72 41.72 0 0 0 5.87 11.983 11.18 11.18 0 0 1 1.8 9.058c-.952 4.084-4.217 5.929-7.6 7.577a70.866 70.866 0 0 0-4.755-21.357c-.853-2.142-3.062-6.342-5.7-7.369z" fill="#d2eefc" fill-rule="evenodd"/><path data-name="Path 10743" d="M28.696 46.121l-1.411 1.4c1.6 2.275 3.781 5.721 3.93 9.666a28.781 28.781 0 0 0 1.97 10.147c1.721 3.75 4.747 4.422 8.534 3.4a9.193 9.193 0 0 0 6.1-5.329c-2.823-5.102-16.462-16.791-19.123-19.284z" fill="#e0f5ff" fill-rule="evenodd"/><path data-name="Path 10744" d="M51.502 45.414a38.22 38.22 0 0 1 1.844 4.427c.456 1.347.826 2.742 1.311 4.64l.9-.228c-.487-1.91-.862-3.318-1.332-4.709a39.343 39.343 0 0 0-1.888-4.528z" fill="#403e3e" fill-rule="evenodd"/><path data-name="Path 10745" d="M29.267 53.876c-1.78.9-6.029 10.917-7.69 8.593-3.763-5.265-5.7-11.81-.254-16.655a57.747 57.747 0 0 1 8.811-6.383l-.1 3.82c-1.451 1.417-2.789 2.86-4.46 4.285 1.591 2.254 2.764 3.64 3.693 6.34z" fill="#c3e6f7" fill-rule="evenodd"/><path data-name="Path 10746" d="M38.566 87.003a41.909 41.909 0 0 1-.639 13.542c-.972 3.637-3.654 7.708-5.389 12.325-2.874 7.65.553 16.1 3.362 39.272a66.63 66.63 0 0 0 14.968-6.635c1.946-10.787 1.6-24.13 2.336-35.912.575-9.23.979-24.992-2.767-37.314-2.878 3.066-5.965 4.4-8.406 5.735-5.359 2.922-3.976 3.498-3.465 8.987z" fill="#e0f5ff" fill-rule="evenodd"/><path data-name="Path 10747" d="M57.917 67.887c-1.23.542-2.276 1-3.524 1.5.242 5.313.462 10.247 1.143 15 .647 4.523 1.1 7.842 1.4 11a319.231 319.231 0 0 1 .361 46.949 26.729 26.729 0 0 0 4.54-3.78c-.223-13.092 1.065-33.144-1.675-45.42-.877-3.929-1.973-6.907-2.747-10.864-.688-3.532.526-7.429.502-14.385z" fill="#e0f5ff" fill-rule="evenodd"/><path data-name="Path 10748" d="M52.677 39.331l-2.256 1.864 2.844.931c.852 6.735.944 12.3.095 21.987-.846-8.511-2.4-16.577-5.994-23.809a9.531 9.531 0 0 0-7.539-5.717l3.006-1.352c4.72-.865 7.904 2.021 9.844 6.096z" fill="#ebf9ff" fill-rule="evenodd"/><g data-name="Group 5470" fill-rule="evenodd"><path data-name="Path 10749" d="M30.596 40.834c-5.731 4.65-1.736 10.068 5.115 19.357l.471.638.745-.546-.471-.638c-6.52-8.843-10.324-14-5.278-18.095z" fill="#403e3e"/><path data-name="Path 10750" d="M45.864 67.959q-.795-1.27-1.532-2.3a20.383 20.383 0 0 0-4.669-4.994c-1.444-.986-2.63-1.143-3.443-.634a1.623 1.623 0 0 0-.089.061c-.864.616-1.225 1.965-.671 4.3a34 34 0 0 0 3.233 7.707l.815-.434a33.122 33.122 0 0 1-3.147-7.483c-.452-1.908-.255-2.94.305-3.339l.043-.028c.5-.31 1.326-.14 2.434.616a19.529 19.529 0 0 1 4.438 4.766c.492.692 1 1.443 1.5 2.254z" fill="#403e3e"/><g data-name="Group 5469" fill="#141414"><path data-name="Path 10751" d="M45.038 67.337a.963.963 0 0 0-.37 1.306l.576 1a.962.962 0 0 0 1.306.371.962.962 0 0 0 .371-1.306l-.576-1a.962.962 0 0 0-1.307-.371z"/><path data-name="Path 10752" d="M38.582 70.953a.963.963 0 0 0-.371 1.306l.576 1a.963.963 0 0 0 1.307.371.961.961 0 0 0 .37-1.306l-.576-1a.962.962 0 0 0-1.306-.371z"/></g></g><path data-name="Path 10753" d="M28.038 42.271c-.929 3.2.752 6.29 3.465 10.41l3.37-.931-1.132 3.394c7.529 3.665 10.639 5.955 15.406 11.658-6.147-12.433-15.73-17.223-17.67-24.3a6.027 6.027 0 0 1-.236-2.646c.072-.414 1.021-1.286 1.177-1.587a6.939 6.939 0 0 0 .484-1.172c.008-.022-3.972 2.108-4.864 5.174z" fill="#ebf9ff" fill-rule="evenodd"/><g data-name="Group 5471" fill-rule="evenodd"><path data-name="Path 10754" d="M55.53 53.402c-1.49.155-2.523 1.969-2.306 4.05s1.6 3.644 3.092 3.489 2.523-1.969 2.306-4.052-1.601-3.643-3.092-3.487z" fill="#736f6f"/><path data-name="Path 10755" d="M55.558 53.661c-1.388.145-2.35 1.833-2.148 3.771.2 1.91 1.451 3.349 2.815 3.254-1.27-.074-2.392-1.456-2.58-3.254-.2-1.939.759-3.626 2.147-3.772l.064-.005a1.99 1.99 0 0 0-.298.006z" fill="#b8b6b6"/><path data-name="Path 10756" d="M55.661 54.653c-1 .1-1.687 1.315-1.541 2.706s1.069 2.434 2.065 2.331 1.686-1.316 1.542-2.707-1.07-2.434-2.066-2.33z" fill="#4a4848"/><path data-name="Path 10757" d="M55.687 54.914c-.893.093-1.511 1.18-1.381 2.428s.96 2.183 1.852 2.089 1.512-1.179 1.382-2.426-.959-2.186-1.853-2.091z" fill="#736f6f"/><path data-name="Path 10758" d="M55.802 56.009c-.46.048-.778.607-.711 1.249s.494 1.123.953 1.074.777-.606.711-1.247-.494-1.123-.953-1.076z" fill="#454242"/><path data-name="Path 10759" d="M55.705 55.074c-.829.087-1.4 1.1-1.283 2.253s.871 2 1.688 1.943a2.044 2.044 0 0 1-1.44-1.934c-.12-1.157.454-2.166 1.283-2.252h.031a1.132 1.132 0 0 0-.279-.01z" fill="#b8b6b6"/></g><g data-name="Group 5472" fill-rule="evenodd"><path data-name="Path 10760" d="M51.156 20.174l-5.984-1.626-.657-9.509 2.161-7.614c8.052 2.21 8.533 16.841 4.48 18.749z"/><path data-name="Path 10761" d="M52.881 29.838c1.37 6.453-.055 12.3-3.467 18.245-.817-2.8-4.551-10.124-2.527-16.512z"/></g><g data-name="Group 5473" fill-rule="evenodd"><path data-name="Path 10762" d="M33.514 37.782c-.988 3.876 9.649 9.162 13.417 6.141.74-4.618.061-7.957 3.112-12.533l-10.684-5.661-2.694-1.553c.784 6.076-.552 8.758-3.151 13.606z" fill="#9e6d4c"/><path data-name="Path 10763" d="M33.514 37.782a.86.86 0 0 0-.038.2c5.8-5.009 10.577-2.466 14.683-3.345a14.078 14.078 0 0 1 .686-1.257c.461-.95.589-.771 1.2-1.992l-10.684-5.661-2.694-1.553c.782 6.078-.554 8.76-3.153 13.608z" fill="#8f6142"/></g><g data-name="Group 5477" fill-rule="evenodd"><g data-name="Group 5475"><path data-name="Path 10764" d="M48.662 33.514c-3.221-1.065-8.013-2.442-9.91-3.371-1.729-.845-1.21-3.009-1.671-3.465a11 11 0 0 1-1.474-2.88c-3.008-1.162-4.46-2.37-5.106-3.94-1.535-3.727-.4-8.459 1.96-11.5a10.6 10.6 0 0 1 8.417-4.1c4.862-.176 7.882.485 9.93 3.753.837 1.335 1.122 4.019 2.125 5.99.745.638.1 2.69.02 3.859-.127 1.955 1.036 1.146 1.4 3.035.323 1.685-.163 3.762-.242 7.363a12.412 12.412 0 0 1-.209 3.14c-.26.751-1.907 1.738-2.632 2.027a3.6 3.6 0 0 1-2.608.089z" fill="#ad7c5b"/><path data-name="Path 10765" d="M48.662 33.514c-3.221-1.065-8.013-2.442-9.91-3.371-1.729-.845-1.21-3.009-1.671-3.465a11 11 0 0 1-1.474-2.88c-3.008-1.162-4.46-2.37-5.106-3.94-1.535-3.727-.4-8.459 1.96-11.5a10.6 10.6 0 0 1 8.417-4.1c4.862-.176 7.882.485 9.93 3.753.592 2.552-9.041 8.455-8.322 10.611.206.619-.43 2.838-.427 3.229.018 2.3 2.609 1.888 2.883 2.922.281 1.058-2.369 1.776-1.172 4.536.336.774 2.86 3.073 6.381 4.329.026.018.058.038.088.056a3.6 3.6 0 0 1-1.577-.18z" fill="#9e6d4c"/><g data-name="Group 5474"><path data-name="Path 10766" d="M36.151 28.814c-7.394-1.467-11.125-6.011-11.476-12.186a22.533 22.533 0 0 1 1.494-8.767C27.642 4.131 34.145.121 38.743.13c1.763 0-5.09 2.183-2.749 2.974l-.524 15.835 1.354 8.8z" fill="#1d1e24"/><path data-name="Path 10767" d="M50.626 4.485c-4.35 13.981-15.658 17.383-15.338 20.293.248 2.253-4.663-1.044-6-2.924a14.484 14.484 0 0 1 1.026-17.66c5.492-6.151 16.445-5.09 20.312.291z" fill="#1d1e24"/><path data-name="Path 10768" d="M36.251 28.9c-4.415-1.8-8.1-1.078-10.183-5.974a20.036 20.036 0 0 1-.093-14.611 15.77 15.77 0 0 0 .484 9.074c-.062-3.148.687-4.651 2.262-7.776a23 23 0 0 0-.7 7.855c.291-2.354 1.8-6.1 3.053-7.116a11.139 11.139 0 0 0-.834 9.078c-.117-2.959 1.241-7.206 3.2-8.557-.843 1.417-1.78 4.672-1.324 6.5.863-2.548.8-3.038 2.813-5.669a15.315 15.315 0 0 0-1.1 5.706c.786-1.754 1.367-3.349 2.462-5.333-.36 1.307-1.141 5.614-.8 6.866.287-.822 3.543-4.54 4.978-6.01-1.219 2.726-2.63 5.653-4.108 7.083-.154.464 6.119-3.445 12.506-11.97-2.81 6.779-8.251 9.939-12.792 14.837l.407 2.647a8.7 8.7 0 0 1-.231 3.37z"/><path data-name="Path 10769" d="M24.696 15.589c-.607 4.116-.641 17.159 8.178 22.677 2.137-1.073 4.324-8.711 4.485-10.518-8.573-5.394-7.322-2.302-12.663-12.159z"/><path data-name="Path 10770" d="M50.615 4.42c-1.3-2.772-8.109-5.258-13.949-4.057-4.052.833-7.87 3.121-9.535 6.095 2.657-2.352 5.4-4.3 9.012-5.109-2.045.7-6.408 2.918-7.814 6.462a13.841 13.841 0 0 1 8.219-5.644c-3.173 1.609-3.828 2.665-5.463 5.205a19.881 19.881 0 0 1 6.811-4.776 9.643 9.643 0 0 0-4.188 5.291c2.469-2.725 2.5-3.629 6.032-4.9a23.087 23.087 0 0 0-4.481 5.734 43.734 43.734 0 0 1 6.3-4.964 26.381 26.381 0 0 0-3.693 5.231 25.226 25.226 0 0 1 5.984-4.841 28.362 28.362 0 0 0-5.418 7.29 51.626 51.626 0 0 1 6.5-6.4c-1.372 2.34-2.364 3.712-3.763 6.057a49.113 49.113 0 0 0 6.337-6.608c-1.2 2.054-4.829 7.9-6.383 9.9a71.309 71.309 0 0 0 7.574-9.232 14.877 14.877 0 0 1-3.356 6.527 21.669 21.669 0 0 0 5.274-7.261z" fill="#2c2e38"/></g></g><g data-name="Group 5476"><path data-name="Path 10771" d="M34.215 19.852c-2.7-.616-2.4 2.4-1.81 4.186.409 1.226 1.437 1.025 1.916 1.977a2.383 2.383 0 0 0 2.327 1.485c1.584-.21.355-2.467.067-3.385.025-1.555-.785-3.872-2.5-4.263z" fill="#9e6d4c"/><path data-name="Path 10772" d="M35.71 23.301a4.65 4.65 0 0 0-1.486-2.239c-.343-.21-1.5-.574-1.5 1.026.177-1.318 1.08-.952 1.424-.693a7.886 7.886 0 0 1 1.562 1.906z" fill="#8f6142"/></g></g><g data-name="Group 5478"><path data-name="Path 10773" d="M23.096 97.443a6.6 6.6 0 0 0 2.985-.56 1.274 1.274 0 0 0 .377-1.524c-.327-1.138-5.056-2.463-6.738-2.92-2.475-.672-3.2 1.7-1.072 3.5-3.183.388-2.064 2.1.055 3.244 1.722.931 5.457 1.72 6.008.513.185-.408-.97-1.396-1.615-2.253z" fill="#171e29" fill-rule="evenodd"/></g><g data-name="Group 5479" fill-rule="evenodd"><path data-name="Path 10774" d="M17.709 111.104c1.843 4.775.717 12.34 1.194 13.3.4.813 5.318 2.91 6.823 3.586.469.19 3.3-1.381 3.247-1.6-.968-.521-1.676-1.007-1.894-1.608-.115-.664-.789-2.6.019-3.317.2-.18.7 1.595 1.642 2.635.18 1.361 1.351 4.129 3.108 2.689-.231-.942-.807-3.734-1.081-4.423-.559-1.413-2.069-5.642-3.409-6.758-.924-.77-1.784-1.517-2.547-4.548z" fill="#ad7c5b"/><path data-name="Path 10775" d="M17.709 111.104c1.843 4.775.532 12.279 1.255 13.364.5.754 5.257 2.848 6.762 3.524-1.877-2.029-.375-8.511-3.839-16.915z" fill="#9e6d4c"/><path data-name="Path 10776" d="M19.526 48.583c-4.918 5.608-5.594 24.408-6.539 36.492 1.486 9.9 2.505 16.8 4.153 26.155.083.475.845.956.867 1.058q.22 1.011.461 2.066c2.066 2 6.26 1.25 7.1-1.042a23.3 23.3 0 0 1-.374-2.41c-.012-.145.52-.973.53-1.117.176-2.789-.583-16.592-2.763-25.055 1.3-7.114 4.148-19.664 4.213-26.27.052-5.088-1.214-9.077-4.724-10.439a2.457 2.457 0 0 0-2.924.562z" fill="#d2eefc"/><path data-name="Path 10777" d="M23.406 115.209a6.776 6.776 0 0 1-.867-3.707 25.545 25.545 0 0 1 2.687-.313c.076.721.205 1.352.347 2.123a3.4 3.4 0 0 1-2.167 1.9zm-1.111-5.184c-1.12-8.532-2.412-17.255-3.357-25.819a1063.13 1063.13 0 0 1 5.41-34.924l.053-.048c2.043 1.9 2.819 5.222 2.778 9.226-.066 6.606-2.909 19.156-4.213 26.27 2.18 8.463 2.939 22.266 2.763 25.055a4.326 4.326 0 0 1-.338.677 7.125 7.125 0 0 0-3.095-.437z" fill="#e0f5ff"/><path data-name="Path 10778" d="M19.526 48.583c-4.918 5.608-5.594 24.408-6.539 36.492 1.486 9.9 2.505 16.8 4.153 26.155.083.475.845.956.867 1.058q.22 1.011.461 2.066a4.546 4.546 0 0 0 3.337 1.154 24.908 24.908 0 0 1-.985-3.862c.723-.537 2.376-.674 4.04-.812a12.371 12.371 0 0 0-4.326.072 430.895 430.895 0 0 0-3.6-26.271c2.3-11.934 1.834-25.483 6.555-36.053-.01-.007 0-.02.013-.037a6.148 6.148 0 0 0-1.047-.524 2.457 2.457 0 0 0-2.929.562z" fill="#c3e6f7"/></g></g></g></svg>