<svg xmlns="http://www.w3.org/2000/svg" width="176.616" height="284.997" viewBox="0 0 176.616 284.997"><g data-name="Group 10012"><g data-name="Group 5692"><path data-name="Path 11251" d="M4.138 264.514l43.754-24.919c4.771-2.179 11.6-3.914 16.457-1.385 4.428 2.3 11.722 7.021 14.948 8.86 2.449 1.4 10.953 6.492 5.657 9.373-15.581 8.472-31 18-46.824 26.608-2.992 1.627-7.369 2.216-11.965 1.834a31.673 31.673 0 0 1-12.959-3.859l-7.759-4.516c-3.432-2-5.252-4.362-5.432-6.546-.176-2.135 1.195-4.113 4.123-5.45z" fill="#231f20" fill-rule="evenodd" opacity=".1" style="mix-blend-mode:multiply;isolation:isolate"/><g data-name="Group 5680" fill-rule="evenodd"><g data-name="Group 5678"><path data-name="Path 11252" d="M41.616 243.082a1.463 1.463 0 0 0 .558 1.231c4.124 3.353 4.348.575 7.7 3.11 2.371 1.791 2.163 2.72 3.877 3.88a14.236 14.236 0 0 0 6.628 2.144c1.611.161 8.21.317 8.555-1.842l.044-.4a2.951 2.951 0 0 0-.38-2.344c-1.667-2.367-7.238-3.8-8.045-4.214-2.547-1.286-15.344-8.434-18.55-4.749-.558.641-.414 2.35-.387 3.184z" fill="#b4dcf0"/><path data-name="Path 11253" d="M43.854 228.895a15.163 15.163 0 0 1 .163 2.825c-.083.871-.972 2.4-1.418 4-.893 3.212-.823 5.01.2 6.294.734.924 3.375 2.11 5.6 3.2a9.428 9.428 0 0 1 2.809 1.828c1.43 1.48 2.181 2.5 4.135 3.371a23.389 23.389 0 0 0 8.521 1.664c2.407.033 4.042-.651 4.645-1.285a1 1 0 0 0 .367-.811c-1.173-6.47-13.92-7.855-13.666-17.707-3.518 1.765-9.425-.17-11.356-3.379z" fill="#d2eefc"/><path data-name="Path 11254" d="M43.86 228.961a14.65 14.65 0 0 1 .157 2.759c-.083.871-.972 2.4-1.418 4-.893 3.212-.823 5.01.2 6.294.734.924 3.375 2.11 5.6 3.2a9.428 9.428 0 0 1 2.809 1.828c1.43 1.48 2.181 2.5 4.135 3.371a23.389 23.389 0 0 0 8.521 1.664 7.545 7.545 0 0 0 4.351-1.032 3.911 3.911 0 0 0 .4-.336c.5-.522.143-1.319.029-1.529-2.295 1.708-4.713 1.442-7.776.278-3.089-1.173-4.735-3.943-8-5.821s-5.694-2.542-6.814-4.586-.575-4.354-.63-8.385a7.627 7.627 0 0 1-1.564-1.705z" fill="#c3e6f7"/><path data-name="Path 11255" d="M56.876 238.711a11.957 11.957 0 0 1-7.87 1.481c6.517 2.524 9.418 8.007 14.071 9.289 3.183.876 5.2-.262 5.147-.476-.773-2.988-8.767-6.666-11.348-10.294z" fill="#e0f5ff"/></g><g data-name="Group 5679"><path data-name="Path 11256" d="M36.442 257.639a6.529 6.529 0 0 0 .322 2.925c.571 1.747 1.471 3.065 1.547 5.028.149 3.841-1.274 7-4.915 7.537a6.857 6.857 0 0 1-7.2-3.606c-1.752-3.637-.434-7.244 2.02-11.521.887-1.547.049-5.011 1.56-4.152z" fill="#b4dcf0"/><path data-name="Path 11257" d="M37.975 251.105a26.179 26.179 0 0 1 .018 4.01l-.275 3.083a21.3 21.3 0 0 0-.084 3c.127 2.321.688 4.318.246 5.692-1.047 3.249-2.672 4.042-4.888 4.218-1.935.154-5.018-.34-6.461-3.19-1.6-3.154-.523-5.778.584-9.948a17.593 17.593 0 0 0 .289-4.691l-.048-4.5.093.035c.058-1.077.185-1.927.308-3.014 3.259 2.909 8.3 2.367 9.839.308a42.836 42.836 0 0 1 .434 4.95c-.018.018-.037.032-.055.047z" fill="#d2eefc"/><path data-name="Path 11258" d="M36.126 269.939a4.99 4.99 0 0 1-3.133 1.166c-1.935.154-5.018-.34-6.461-3.19-1.6-3.154-.523-5.778.584-9.948a17.593 17.593 0 0 0 .289-4.691l-.048-4.5c.053-1.491.229-2.362.465-2.285s1.663.962 2.352 1.274c.143.519.28 5.881.263 6.607-.199 8.379-4.244 15.778 5.689 15.567z" fill="#c3e6f7"/><path data-name="Path 11259" d="M31.6 253.266a13.243 13.243 0 0 0 5.657-.968 58.093 58.093 0 0 0-.334 9.863c.327 4.613-.187 6.363-2.765 6.748-1.984.3-4.142-1.543-3.761-5.582.32-3.398 1.436-6.457 1.203-10.061z" fill="#e0f5ff"/></g><path data-name="Path 11260" d="M43.38 122.645c-1.536 5.888-6.966 6.071-4.867 15.878 2.092 9.778 7.208 28.956 6.5 37.986-.479 6.128-2.176 6.94-3.141 14.926-1.17 9.689.828 31.722.448 42.4.437 2.595 6.446 8.49 14.244 4.143.776-9.367 1.253-46.514 3.765-56.517 1.856-5.538 1.332-8.232 1.774-13.751 1-12.484.29-24.587.121-35.836-.42-4.352-.1-9.709-.721-13.5z" fill="#12a8b3"/><path data-name="Path 11261" d="M43.38 122.645c-1.536 5.888-6.966 6.071-4.867 15.878 2.092 9.778 7.208 28.956 6.5 37.986-.479 6.128-2.176 6.94-3.141 14.926-1.17 9.689.828 31.722.448 42.4.32 1.9 3.639 5.582 8.463 5.692-1.212-18.484-3.36-41.333 2.122-56.386a18.452 18.452 0 0 0 .9-7.415c-.427-6.981-1.125-11.633-1.853-17.74 6.338-3.825 9.431-7.983 10.619-10.235a5195.6 5195.6 0 0 1-.35-15.877c-.42-4.352-.1-9.709-.721-13.5z" fill="#06929c"/><path data-name="Path 11262" d="M41.746 152.775c1.921 8.713 3.705 18.159 3.269 23.734-.479 6.128-2.176 6.94-3.141 14.926-.72 5.965-.24 16.606.147 26.4a238.349 238.349 0 0 1 3.218-24.729c1.147-5.539 3.431-9.975 3.916-14.654.6-5.776-.3-11.328-1.032-20.911 5.415-3.631 14.13-10.032 14.4-12.445z" fill="#05818a"/><path data-name="Path 11263" d="M31.461 116.578c-1.583 4.931-6.575 7.789-8.878 16.624-1.454 5.573-1.659 11.7 1.243 23.2 1.331 5.275 2.971 13.632 3.707 18.352 2.18 13.991-.533 12.916-2.925 24.337-2.215 10.573-.071 39.506 1.234 52.06.879 3.937 10.636 5.549 13.247 1.685.9-12.452-.06-34.676 1.448-47.3.967-8.1.741-8.508 3.466-16.52a24.211 24.211 0 0 0 1.41-10.509l-1-36.328c5.953-6.143 12.535-12.45 17.445-19.975l-.355-3.835z" fill="#12a8b3"/><path data-name="Path 11264" d="M31.461 116.578c-1.583 4.931-6.575 7.789-8.878 16.624-1.454 5.573-1.659 11.7 1.243 23.2 1.331 5.275 2.971 13.632 3.707 18.352 2.18 13.991-.533 12.916-2.925 24.337-2.215 10.573-.071 39.506 1.234 52.06.506 2.27 3.964 3.766 7.3 3.887-.312-5.954-.793-15.9-.9-17.375-1.438-18.979-1.9-30.816 3.029-46.048.73-2.8 1.426-4.264 1.142-7.162-.679-6.926-1.733-13.737-3.025-20.588-.052-.279 5.327-.489 11.489-5.089l-.46-16.6c5.953-6.143 12.535-12.45 17.445-19.975l-.355-3.835z" fill="#06929c"/><path data-name="Path 11265" d="M31.461 116.578c-1.583 4.931-6.575 7.789-8.878 16.624-1.454 5.573-1.659 11.7 1.243 23.2.366 1.447.754 3.126 1.14 4.9 1.022 4.688 2.033 10.029 2.567 13.454 2.18 13.991-.533 12.916-2.925 24.337-.767 3.661-1.011 9.525-.949 16.147 2.543-15.177 6.41-20.4 7.614-24.123.73-2.8 1.426-4.264 1.141-7.162-.678-6.925-.984-14.777-2.274-21.628-.053-.279 8.541-.525 14.7-5.126l-.428-15.023c5.953-6.143 12.535-12.45 17.445-19.975l-.355-3.835z" fill="#05818a"/><path data-name="Path 11266" d="M35.67 166.119c.455 2.308.914 4.7 1.342 6.979.924 4.935 1.523 9.756 2.186 10.408 1.071 1.052 3.991 2.584 5.276-1.331.714-2.174-.234-13.11-.264-13.87-.079-1.934-.159-3.979-.237-5.976-2.077 1.51-5.128 3.577-8.303 3.79z" fill="#1abac6"/><path data-name="Path 11267" d="M43.015 189.581c-2.709 1.226-3.172 1.691-6.128 2.065-6.644 15.212-3.465 41.239-2.8 62.074a5.056 5.056 0 0 0 4.062-1.881c.044-14.222.243-34.159 1.449-48.088.663-7.631.818-7.712 3.417-14.17z" fill="#1abac6"/><path data-name="Path 11268" d="M54.002 159.427c.854 8.043 1.684 16.412 2.063 16.786 1.071 1.052 3.392 1.684 4.677-2.23.283-.864.828-12 .979-21.677-1.656 2.579-4.928 5.865-7.719 7.121z" fill="#1abac6"/><path data-name="Path 11269" d="M60.198 180.606a14.763 14.763 0 0 1-5.794 3.313c-5.145 16.045-3.681 34.046-2.515 54.715a7.624 7.624 0 0 0 4.188-1.34c.027-9.024.928-27.29 1.263-35.489.393-9.631-.142-14.013 2.858-21.199z" fill="#1abac6"/></g><path data-name="Path 11270" d="M72.035 112.944c-2.353-1.024-5.387 6.091-3.107 6.839 2.317.756 5.369-5.854 3.107-6.839z" fill="#131a30" fill-rule="evenodd"/><path data-name="Path 11271" d="M30.871 110.339c2.549 4.992 2.869 10.6 1.992 13.3-.8 2.456-6.9 7.434-8.182 16.431a160.011 160.011 0 0 0-.031 16.318 8.586 8.586 0 0 0 2.8 3.472c.347-3.71.175-8.112.312-11.14.745 4.295 1.325 8.379 2.107 12.463a14.526 14.526 0 0 0 8.607.872c1.989-.347 21.045-7.531 23.9-13.716.19-4.508-.58-20.529-.825-22.528-.651-5.316-2.062-7.157-2.751-10.564-.868-4.288.344-7.9-.13-12.858a421.832 421.832 0 0 0-.4-4.011c-.459-4.535-.964-9.056-1.483-13.02a85.655 85.655 0 0 0-1.958-11.516 6.143 6.143 0 0 0-1-2.036c-1.37-1.932-3.829-2.911-8.109-1.138-5.934 2.458-14.81 6.206-19.8 11.448-2.29 1.375-3.962 3.014-4.167 5.978-.463 6.662 6.173 16.478 9.118 22.245z" fill="#12a8b3" fill-rule="evenodd"/><path data-name="Path 11272" d="M70.352 112.323c1.059.706 2.494.847 3.065 1.5 3.261 3.746-3.888 6.747-4.169 6.565-.924-.6-1.853-2.638-3.51-4.4z" fill="#db9669" fill-rule="evenodd"/><path data-name="Path 11273" d="M45.926 104.795a84.323 84.323 0 0 0 22.934 15c-1.738-1.023.492-7.24 3.2-6.86-6.6-5.661-14.047-12.384-20.968-16.014-3.984-1.619-7.278-.282-8.058 1.855-.571 1.541-.22 3.328 2.892 6.019z" fill="#12a8b3" fill-rule="evenodd"/><path data-name="Path 11274" d="M45.926 104.795a84.339 84.339 0 0 0 22.934 15c-.872-.514-.744-2.337-.059-3.977-4.678-3.236-8.623-5.628-8.813-6.309-.4-1.44.051-4.092-.122-6.776a62.293 62.293 0 0 0-8.779-5.812c-3.984-1.619-7.278-.282-8.058 1.855-.566 1.541-.215 3.328 2.897 6.019z" fill="#06929c" fill-rule="evenodd"/><path data-name="Path 11275" d="M27.373 107.828c2.6 5.161 3.988 10.894 3.529 14.268 2.726 3.522 20.894 1.172 26.959-8.481-.988-4.947 1.2-9.815.663-15.536-.144-1.533-.3-3.081-.449-4.626-.524-5.231-.585-9.87-1.177-14.44-.762-5.893-1.468-10.916-2.23-13.284a7.115 7.115 0 0 0-1.145-2.349c-1.56-2.227-4.361-3.357-9.236-1.312a109.787 109.787 0 0 0-15.242 7.449c-2.208 1.37-9.192 6.574-10.7 8.685a7.494 7.494 0 0 0-1.359 3.965c-.526 7.685 7.033 19.007 10.387 25.661z" fill="#12a8b3" fill-rule="evenodd"/><path data-name="Path 11276" d="M30.993 124.945c.84-2.617.533-8.062-1.91-12.908-2.822-5.6-9.184-15.128-8.741-21.6a6.252 6.252 0 0 1 1.466-3.748 2.74 2.74 0 0 0 2.964-.374c.2-.166.412-.32.617-.48a20.812 20.812 0 0 0 4.672 11.17c3.861 4.371 9.405 4.407 14.115 1.363 2.888-1.866.2-6.5-2.7-4.624-2.5 1.614-4.775 1.888-6.7.354l16.861-6.486c1.227 3.653 2.768 7.271 3.53 11.15a19.018 19.018 0 0 1 .4 3.8c-1.464.672-2.9 2.071-4.53 2.864-2.592 1.258-3.738 4.14-8.807 6.036-1.6.6-3.486 1.161-4.171 1.914a5.5 5.5 0 0 0-1.608 4.192c.236 4.467 1.062 7.849-.806 13.2-1.035 2.965-2.356 6.075-3.325 9.512-1.869 6.632-1.162 12.612.967 22.221a12.717 12.717 0 0 1-5.159-1.111c-.749-3.964-1.305-7.929-2.019-12.1-.131 2.94.034 7.213-.3 10.814a8.31 8.31 0 0 1-2.682-3.37 157 157 0 0 1 .03-15.84c1.225-8.732 7.069-13.565 7.836-15.949z" fill="#06929c" fill-rule="evenodd"/><path data-name="Path 11277" d="M28.633 84.295c-1.862.937-6.306 11.417-8.042 8.987-3.935-5.506-5.965-12.351-.266-17.417a60.543 60.543 0 0 1 9.214-6.676l-.1 4c-1.518 1.482-2.918 2.991-4.664 4.481 1.658 2.352 2.886 3.802 3.858 6.625z" fill="#12a8b3" fill-rule="evenodd"/><g data-name="Group 5684" fill-rule="evenodd"><g data-name="Group 5682"><path data-name="Path 11278" d="M78.207 113.926a15.76 15.76 0 0 0 2.782.635c-.4 1.935-2.283 1.593-3.836 1.289z" fill="#f1b287"/><g data-name="Group 5681"><path data-name="Path 11279" d="M85.491 101.869l-19.937 8.057-17.406 26 1.042.7 37.571-34.3z" fill="#e6e6e6"/><path data-name="Path 11280" d="M85.676 101.599l-20.123 8.327 2.727 2.083 18.666-9.948z" fill="#f5f5f5"/><path data-name="Path 11281" d="M87.287 101.821l-20.646 8.574-18.1 26.912 21.192-9.448z" fill="#44c8f5"/></g><path data-name="Path 11282" d="M76.808 115.774c1.612-.072 1.789-.831 1.5.16-.419 1.451-2.537 5.382-4.127 5.995-.01 0-2.043.114-2.431-.364-.329-.4-.212-.566.392-1.439l1.934-3.164c.488-.81.679-1.096 2.732-1.188z" fill="#f1b287"/></g><g data-name="Group 5683"><path data-name="Path 11283" d="M16.186 81.633c-2.857 8.236-.9 20.86-.738 32.753.086 6.308 8.529 6.034 9.59.049 1.366-7.192 1.647-15.93 1.923-23.023.253-6.475.082-13.328-4.441-14.3-3.294-.711-5.262 1.427-6.334 4.521z" fill="#12a8b3"/><path data-name="Path 11284" d="M16.186 81.633c-2.857 8.236-.9 20.86-.738 32.753.066 4.859 5.091 5.812 7.881 3.257l-.034-.028c-4.124-3.538-2.62-1.946-2.622-6.41 0-12.051-.277-22.02 1.556-34.151-3.117-.524-5.003 1.579-6.043 4.579z" fill="#06929c"/><path data-name="Path 11285" d="M44.726 128.061c-2.353-1.024-5.386 6.1-3.106 6.848 2.322.76 5.373-5.864 3.106-6.848z" fill="#a9d3e8"/><path data-name="Path 11286" d="M41.516 126.884a7.455 7.455 0 0 0 3.21 1.355c.786.124 1.939.294 2.733.49 1.305.324 2.979 1.384 5.262 2.265-1.072 2.224-3.679.429-4.857.337a21.362 21.362 0 0 1-3.175-.208c-1.527-.374-3.475-2.537-3.173-4.239z" fill="#f1b287"/><path data-name="Path 11287" d="M40.326 125.639a14.038 14.038 0 0 0 3.4 2.788 11.713 11.713 0 0 0 2.148.993c2.325.79 3.4 3.252 4.839 3.109s5.307-2.483 5.158-1.75a13.188 13.188 0 0 1-1.537 2.936 11.576 11.576 0 0 1-3.237 2.756 16.018 16.018 0 0 1-3.749 1.73 2.083 2.083 0 0 1-1.827-.225 18.688 18.688 0 0 1-3.2-2.852c-2.059-2.46-2.5-2.957-4.583-4.2z" fill="#f1b287"/><path data-name="Path 11288" d="M40.326 125.639l.056.068-.331 1.031a38.984 38.984 0 0 1 4.069 3.653c2.357 2.244 3.434 4.447 5.416 3.685a49.579 49.579 0 0 0 6.014-2.492 14.759 14.759 0 0 1-1.22 2.131 11.576 11.576 0 0 1-3.237 2.756 16.018 16.018 0 0 1-3.749 1.73 2.083 2.083 0 0 1-1.827-.225 18.688 18.688 0 0 1-3.2-2.852c-2.059-2.46-2.5-2.957-4.583-4.2z" fill="#e8a476"/><path data-name="Path 11289" d="M18.617 119.92a84.366 84.366 0 0 0 22.935 15.005c-1.738-1.023.492-7.241 3.194-6.86-5.413-3.963-14.047-12.384-20.967-16.014-3.984-1.619-7.278-.282-8.058 1.855-.561 1.533-.21 3.324 2.896 6.014z" fill="#12a8b3"/><path data-name="Path 11290" d="M18.617 119.92a84.373 84.373 0 0 0 22.934 15.005c-.882-.52-.741-2.378-.034-4.032a172.515 172.515 0 0 1-18.222-13.278c-4.081-3.5-2.65-1.979-2.622-6.274-2.507-.109-4.387 1.018-4.952 2.565s-.21 3.324 2.896 6.014z" fill="#06929c"/></g></g><path data-name="Path 11291" d="M51.26 99.965c-2.04 1.037-4.036 4.078-7.257 5.842a7.967 7.967 0 0 1-9.91-1.938 18.526 18.526 0 0 1-1.113-5.116c-.295-6.556-1.2-10.078-4.924-15.353a25.525 25.525 0 0 0 6-4.024l14.73-8.03 4.7 1.24a38.333 38.333 0 0 0 5.39 11 10.266 10.266 0 0 1 1.651 8.317c-1.093 4.65-5.559 6.176-9.267 8.062z" fill="#12a8b3" fill-rule="evenodd"/><g data-name="Group 5685" fill-rule="evenodd"><path data-name="Path 11292" d="M32.685 67.412c-1.179 3.775 6.088 7.34 10.914 7.783a3.544 3.544 0 0 0 1.4-.129 1.821 1.821 0 0 0 .635-.337 11.3 11.3 0 0 0 1.368-2.894 25.311 25.311 0 0 1 5-8.821l-11.227-7.638-2.816-2.065c.13 6.878-1.775 9.009-5.274 14.101z" fill="#e8a476"/><path data-name="Path 11293" d="M32.875 67.147a.886.886 0 0 0-.067.221c5.349-2.97 10.809 1.116 15.247 1.767.208-.282 2.327-4.91 2.475-5.009.631-1 .752-.788 1.582-2.075l-11.227-7.638-2.815-2.065c.126 6.878-1.696 9.706-5.195 14.799z" fill="#db9669"/></g><g data-name="Group 5691"><g data-name="Group 5686"><path data-name="Path 11294" d="M58.103 55.512l-5.394-3.989 3.072-9.842 5.167-6.826c7.248 5.384 1.99 20.325-2.845 20.657z" fill="#98482d" fill-rule="evenodd"/></g><g data-name="Group 5690"><g data-name="Group 5688" fill-rule="evenodd"><path data-name="Path 11295" d="M50.35 67.983c-2.828-2.338-7.118-5.607-8.665-7.288-1.411-1.531-.039-3.508-.324-4.15a11.884 11.884 0 0 1-.355-3.48c-2.576-2.352-3.565-4.141-3.6-5.977-.084-4.359 2.912-8.685 6.489-10.817a11.463 11.463 0 0 1 10.1-.833c4.97 1.731 7.754 3.583 8.536 7.681.32 1.674-.448 4.491-.21 6.872.5.935-.959 2.75-1.494 3.9-.9 1.922.593 1.562.218 3.609-.336 1.825-1.641 3.728-3.135 7.326a13.429 13.429 0 0 1-1.443 3.084c-.556.655-2.6 1-3.448 1.009a3.9 3.9 0 0 1-2.669-.936z" fill="#f1b287"/><path data-name="Path 11296" d="M50.35 67.983c-2.828-2.338-7.118-5.607-8.665-7.288-1.411-1.531-.039-3.508-.324-4.15a11.884 11.884 0 0 1-.355-3.48c-2.576-2.352-3.565-4.141-3.6-5.977-.084-4.359 2.912-8.685 6.489-10.817a11.463 11.463 0 0 1 10.1-.833c4.97 1.731 7.754 3.583 8.536 7.681-.406 2.805-12.432 4.973-12.554 7.429-.036.7-1.548 2.692-1.7 3.086-.884 2.325 1.889 2.929 1.759 4.078-.133 1.176-3.085.86-2.962 4.112.034.912 1.676 4.221 4.731 6.868.02.029.045.061.067.091a3.9 3.9 0 0 1-1.522-.8z" fill="#e8a476"/><g data-name="Group 5687"><path data-name="Path 11297" d="M39.587 58.33c-6.877-4.382-8.854-10.426-6.784-16.789a24.374 24.374 0 0 1 4.948-8.25c2.949-3.181 11.078-4.67 15.709-2.856 1.776.7-5.987.2-3.938 1.918l-6.745 15.756-2.091 9.4z" fill="#98482d"/><path data-name="Path 11298" d="M63.726 39.489c-9.873 12.385-22.607 11.375-23.427 14.434-.635 2.368-4.29-2.883-4.9-5.3a15.669 15.669 0 0 1 7.967-17.4c7.952-4.044 18.576 1.325 20.36 8.266z" fill="#98482d"/><path data-name="Path 11299" d="M39.653 58.456c-3.745-3.542-7.737-4.265-7.918-10.019a21.674 21.674 0 0 1 5.642-14.764 17.048 17.048 0 0 0-3.074 9.336c1.173-3.2 2.518-4.419 5.332-6.95a24.92 24.92 0 0 0-3.79 7.642c1.217-2.258 4.215-5.445 5.871-5.974a12.043 12.043 0 0 0-4.4 8.823c1.043-3.028 4.079-6.777 6.587-7.367-1.406 1.1-3.627 4.01-3.885 6.03 1.87-2.229 2-2.749 5.06-4.609a16.564 16.564 0 0 0-3.348 5.319c1.48-1.459 2.692-2.839 4.575-4.409-.876 1.177-3.355 5.211-3.5 6.607.613-.716 5.354-3.185 7.378-4.1-2.3 2.269-4.87 4.666-6.921 5.527-.338.407 7.52-1.071 17.3-7.156-5.5 5.73-12.219 6.779-18.719 9.933l-.629 2.828a9.4 9.4 0 0 1-1.561 3.303z" fill="#da6947"/><path data-name="Path 11300" d="M33.236 40.505c-2.227 3.91-7.382 17.043-.658 26.068 2.574-.243 7.778-7.083 8.649-8.841-6.528-8.804-6.481-5.193-7.991-17.227z" fill="#98482d"/><path data-name="Path 11301" d="M63.742 39.419c-.222-3.3-6.109-8.482-12.467-9.565-4.411-.751-9.158.057-12 2.4 3.6-1.328 7.133-2.22 11.089-1.612-2.336-.1-7.6.425-10.412 3.446a14.974 14.974 0 0 1 10.5-2.463c-3.829.377-4.9 1.184-7.549 3.1a21.515 21.515 0 0 1 8.74-2.14 10.426 10.426 0 0 0-6.3 3.689c3.558-1.777 3.942-2.678 8-2.566a24.93 24.93 0 0 0-6.767 4.02 47.4 47.4 0 0 1 8.3-2.53 28.58 28.58 0 0 0-5.777 3.823 27.319 27.319 0 0 1 7.933-2.531 30.714 30.714 0 0 0-8.323 5.222 55.819 55.819 0 0 1 9.063-3.894c-2.3 1.82-3.84 2.813-6.17 4.628a53.2 53.2 0 0 0 8.981-4.172c-2.013 1.6-7.968 6.063-10.319 7.468a77.185 77.185 0 0 0 11.258-6.332 16.076 16.076 0 0 1-5.945 5.261c2.8-.842 5.949-3.17 8.165-5.252z" fill="#da6947"/></g></g><g data-name="Group 5689"><path data-name="Path 11302" d="M41.153 48.539c-2.483-1.682-3.366 1.476-3.467 3.509-.069 1.4 1.045 1.6 1.155 2.745a2.579 2.579 0 0 0 1.762 2.411c1.68.41 1.326-2.348 1.4-3.386.632-1.561.723-4.214-.85-5.279z" fill="#e8a476" fill-rule="evenodd"/></g></g></g></g><g data-name="Group 5710"><path data-name="Path 11303" d="M85.97 224.132l48.062-27.373c5.24-2.394 12.738-4.3 18.076-1.521 4.864 2.531 12.877 7.711 16.419 9.732 2.691 1.535 12.033 7.131 6.214 10.295-17.115 9.307-34.053 19.774-51.433 29.228-3.287 1.788-8.095 2.434-13.143 2.015a34.809 34.809 0 0 1-14.235-4.239q-4.332-2.52-8.523-4.961c-3.769-2.2-5.768-4.791-5.966-7.191-.194-2.345 1.313-4.517 4.529-5.985z" fill="#231f20" fill-rule="evenodd" opacity=".1" style="mix-blend-mode:multiply;isolation:isolate"/><g data-name="Group 5709"><g data-name="Group 5693" fill-rule="evenodd"><path data-name="Path 11304" d="M151.462 83.53l.215-1.686-.112-3.39c1.433-1.253 2.586-1.792 3.317-1.637.059.013.215.026.27.045 2.397.817-1.226 8.351-3.69 6.668z" fill="#c3e6f7"/><path data-name="Path 11305" d="M164.01 77.093c1.388 1.691-1.589 2.758-2.49 2.86-1.174.52-1.781.4-2.235 1.395-.511 1.117-3.8-3.687-3.735-3.759a13.319 13.319 0 0 1 3.833.152 3.839 3.839 0 0 0 2.4.095c.631-.151 1.227-.417 2.227-.743z" fill="#ad7c5b"/><path data-name="Path 11306" d="M164.276 77.517c.623 1.444-1.932 2.343-2.756 2.436-1.174.52-1.781.4-2.235 1.395-.313.685-2.948-1.536 0-2.239 1.32-.219 3.348.082 4.991-1.592z" fill="#9e6d4c"/><path data-name="Path 11307" d="M147.08 81.702c1.546.335 2.6.485 3.45.723 2.238.631 1.749 3.168 5.919 4.286l4.774 1.28c.624.168 4.878-1.61 5.987-2.554.787-.67 3.985-4.008 3.522-4.162-.346-.116-2.253.388-4.066.585l-4.173-.3c-4.02-.652-3.714-2.954-5.211-3.587-1.948-.825-3.71-.248-6.973-2.341l-3.139 1.79.763 3.748z" fill="#ad7c5b"/><path data-name="Path 11308" d="M147.08 81.702c1.546.335 2.6.485 3.45.723 2.238.631 1.749 3.168 5.919 4.286l4.774 1.28c.624.168 4.878-1.61 5.987-2.554.136-.116.344-.311.593-.557-1.46-.745-4.592 1.591-6 1.564a5.813 5.813 0 0 1-3.47-.988c-1.791-1.184-2.221-2.2-3.385-3.178a27.252 27.252 0 0 0-4.129-2.33l.127-4.085a30.352 30.352 0 0 1-.634-.229l-3.139 1.79.763 3.748z" fill="#9e6d4c"/><path data-name="Path 11309" d="M130.655 77.039c8.04 3.326 12.689 3.858 20.959 6.573-.423-3.693 2.162-6.715 3.725-6.675-6.815-3.093-14.952-7.417-22.341-9.044z" fill="#d2eefc"/><path data-name="Path 11310" d="M130.655 77.039c8.04 3.326 12.689 3.858 20.959 6.573a7.235 7.235 0 0 1 .74-4.081 145.742 145.742 0 0 1-14.407-5.626c-.926-.513-.343-3.416-.483-4.767z" fill="#c3e6f7"/></g><g data-name="Group 5696" fill-rule="evenodd"><g data-name="Group 5694"><path data-name="Path 11311" d="M122.726 98.305c-1.738 5.435-.069 14.458 1.391 23.887.8 5.186 2.1 10.534 2.72 15.105.1.731.193 1.424.278 2.084a45.446 45.446 0 0 1 .561 8.811c-.467 5.975-2.981 7.237-3.922 15.023-1.142 9.448 3.827 20.28 3.456 30.692a6.54 6.54 0 0 1-1.245 2.557c-4.172 5.129.128 4.452-.273 11.226-.035.6 2.269 10.932 2.269 10.932s6.192 1.723 6.66 1.656 4.309-1.4 4.309-1.4c-.3-.565-.68-1.933-.923-2.45-2.79-5.918-3.163-13.166-3.168-19.843-.006-9.132 2.513-30.636 4.865-39.415a114.324 114.324 0 0 0 1.88-15.518c.965-15.174 1.454-26.116-.424-42.17z" fill="#ad7c5b"/><path data-name="Path 11312" d="M122.726 98.305c-1.738 5.435-.069 14.458 1.391 23.887.8 5.186 2.1 10.534 2.72 15.105.1.731.193 1.424.278 2.084a45.446 45.446 0 0 1 .561 8.811c-.467 5.975-2.981 7.237-3.922 15.023-1.142 9.448 3.827 20.28 3.456 30.692a6.54 6.54 0 0 1-1.245 2.557c-4.172 5.129.128 4.452-.273 11.226-.035.6 2.269 10.932 2.269 10.932s6.192 1.723 6.66 1.656.031-.457-.237-.962c-3.336-6.282-3.366-15.585-3.319-22.673.061-9.231-2.463-26.23-.214-33.746 2.6-1.692 6.978-3.528 8.853-5.73a114.324 114.324 0 0 0 1.88-15.518c.965-15.174 1.454-26.116-.424-42.17z" fill="#9e6d4c"/><path data-name="Path 11313" d="M137.183 214.539c.667 1.222 1.384 2.975 2 4.3a26.892 26.892 0 0 1 1.563 4.162 1.957 1.957 0 0 1-.141 1.673c-1.5 2.007-8.988-1.654-11.5-3.872-1.622-1.432-1.653-3.127-2.034-5.2-.572-3.106-.67-3.454-1.414-6.646l-.843 8.664-1.011.462a99.647 99.647 0 0 0-.774-11.243c-.218-1.2-.589-2.572-.641-3.239a6.869 6.869 0 0 1 3.416-6.956c-.655 2.385 1.075 6.264 1.861 11.15.823 5.111 3.654 10.7 5.88 11.174.936.2 3.009-.971 4.137-1.613.424-.244-.061-1.709-.499-2.816z" fill="#2a3c4a"/><path data-name="Path 11314" d="M138.489 225.219c-2.86-.3-7.512-2.765-9.388-4.421-1.622-1.432-1.653-3.127-2.034-5.2-.572-3.106-.67-3.454-1.414-6.646l-.843 8.664-1.011.462a99.647 99.647 0 0 0-.774-11.243c-.218-1.2-.588-2.572-.641-3.239a6.869 6.869 0 0 1 3.416-6.956c-.655 2.385 1.075 6.264 1.861 11.15.677 4.206 2.715 8.735 4.655 10.471a35.029 35.029 0 0 0 6.173 6.958z" fill="#111c24"/></g><g data-name="Group 5695"><path data-name="Path 11315" d="M108.004 128.013c1.5 14.72 3.868 20.477 3.252 26.55-.407 4.008-3.978 9.82-4.731 13.657-1.674 8.525 2.057 22.363 3.329 34.6.127 1.216-.434 2.445-.576 3.659a42.286 42.286 0 0 0-.4 6.473 57.664 57.664 0 0 0 1.442 11.637c.372 1.619 1.092 2.314 1.579 4.531l9.546 1.559c-.939-3.612-2.321-10.913-3.209-17.048-.481-3.327-1.206-6.311-1.247-8.177-.258-11.817 2.116-16.342 3.588-28.654.608-5.088-.22-7.931 1.676-11.933a60.816 60.816 0 0 0 2.426-6.264 25.649 25.649 0 0 0 1.223-8.671c-.21-4.781-.8-11.826-2.12-21.338l-15.585-1.948z" fill="#ad7c5b"/><path data-name="Path 11316" d="M108.004 128.013c1.5 14.72 3.868 20.477 3.252 26.55-.407 4.008-3.978 9.82-4.731 13.657-1.674 8.525 2.057 22.363 3.329 34.6.127 1.216-.434 2.445-.576 3.659a42.286 42.286 0 0 0-.4 6.473 57.664 57.664 0 0 0 1.442 11.637c.372 1.619 1.092 2.314 1.579 4.531l4.858 2.533c-1.548-3.186-3.112-14.079-4-20.213a55.36 55.36 0 0 1-.212-8.239c-.285-13.045-.761-27.479 2.632-38.125 3.394-.178 6.988-1.1 7.779-1.808.515-1.247 1.079-2.772 1.723-4.665a25.649 25.649 0 0 0 1.223-8.671c-.21-4.781-.8-11.826-2.12-21.338l-15.585-1.948z" fill="#9e6d4c"/><path data-name="Path 11317" d="M109.366 205.839c-.552 1.917-1.183 2.939-1.266 5.553s1.124 6.7 1.023 9.935l-.161 5.137c-.093 2.992.667 5.068 4.066 7.541 3.081 2.242 6.082 3.16 7.714 2.364 1.2-.586 2.162-2.7.32-8.291-1.535-4.654-1.93-9.2-2.832-14.251a50.785 50.785 0 0 0 1.634 11.481c.334 1.359.532 3.632-1.08 3.863-6.671.953-7-.84-7.556-2.9-1.469-5.493-2.544-15.273-1.862-20.432z" fill="#2a3c4a"/><path data-name="Path 11318" d="M109.366 205.839c-.552 1.917-1.183 2.939-1.266 5.553s1.124 6.7 1.023 9.935l-.161 5.137c-.093 2.992.667 5.068 4.066 7.541 2.37 1.725 4.692 2.666 6.381 2.646-1.793-1.5-3.084-4.044-4.028-7.22-3.416-.066-3.717-1.53-4.153-3.159-1.469-5.494-2.544-15.274-1.862-20.433z" fill="#111c24"/></g></g><g data-name="Group 5697" fill-rule="evenodd"><path data-name="Path 11319" d="M109.31 75.789c2.471 4.9 3.789 10.348 3.352 13.553a7.1 7.1 0 0 1-.227 1.015 23.374 23.374 0 0 1-3.34 6.156 29.2 29.2 0 0 0-4.716 9.988c-1.418 5.434-.237 13.845 1.781 23.273 1.11 5.187 2.718 10.535 3.613 15.106.824 4.206 3.8 10.168 2.2 14.481 2.1 1.926 2.792 2.983 6.267 3.068 9.336.228 21.314-4.914 23.539-8.568a19.5 19.5 0 0 0 1.088-6.191c.246-1.94.064-4.2.224-10.186.29-10.906-.3-21.148-.467-32.115-.3-3.077-.517-6.362-.679-9.515-.032-.769-.09-1.5-.17-2.195a26.451 26.451 0 0 0-.365-2.289c-.793-3.951-2.524-6.974-3.146-10.086-.938-4.7 1.144-9.323.631-14.758-.137-1.455-.28-2.925-.427-4.394-.5-4.969-.555-9.375-1.118-13.717-.724-5.6-1.394-10.368-2.118-12.618a6.8 6.8 0 0 0-1.087-2.231c-1.483-2.116-4.143-3.188-8.774-1.246a104.112 104.112 0 0 0-14.479 7.076c-2.1 1.3-8.731 6.244-10.163 8.249a7.117 7.117 0 0 0-1.29 3.767c-.495 7.302 6.687 18.056 9.871 24.377z" fill="#2982ab"/><path data-name="Path 11320" d="M109.31 75.789a33.114 33.114 0 0 1 3.309 10.3c.548 4.487-.869 6.494-3.519 10.426a29.2 29.2 0 0 0-4.716 9.988c-1.2 4.591-.541 11.306.908 18.964 4.158-11.3 6.967-19.11 6.419-18.809 1.9-5.336 4.4-10.224 5.5-15.219a25.641 25.641 0 0 0-2.618-18.159 8.62 8.62 0 0 0 10.723 2.1c3.484-1.908 5.643-5.2 7.85-6.32a59.034 59.034 0 0 0 5.7-2.984 856.392 856.392 0 0 0-.384-3.938c-.5-4.969-.555-9.375-1.118-13.717-.724-5.6-1.394-10.368-2.118-12.618a6.8 6.8 0 0 0-1.087-2.231c-1.483-2.116-4.143-3.188-8.774-1.246a104.112 104.112 0 0 0-14.479 7.076c-2.1 1.3-8.731 6.244-10.163 8.249a7.117 7.117 0 0 0-1.29 3.767c-.509 7.296 6.673 18.05 9.857 24.371z" fill="#1e688a"/><path data-name="Path 11321" d="M131.944 64.739c-2.207 1.122-4.282 4.573-7.85 6.32-6.617 3.24-11.684-1.5-11.927-7.631-.282-7.095-1.3-10.905-5.327-16.611 2.52-1.379 5.089-2.845 6.486-4.354l15.936-8.688 5.082 1.341a41.425 41.425 0 0 0 5.831 11.9 11.1 11.1 0 0 1 1.786 9c-1.173 5.023-6.005 6.677-10.017 8.723z" fill="#2982ab"/><path data-name="Path 11322" d="M131.775 62.439c-2.974 1.291-3.589 3.876-6.843 5.657-2.16 1.183-6.388 2.413-9.647-1.47a18.711 18.711 0 0 1-1.126-5.169c-.3-6.623-.179-9.39-3.938-14.718 1.02-.558 4-2.045 4.941-2.631 6.647 2.067 12.7 5.192 16.483-4.617l3.1-2.947c1.552 4.987 2.555 6.5 5.506 10.811 1.7 2.48 2.436 4.144 1.728 7.184-1.092 4.7-6.353 6.226-10.204 7.9z" fill="#349ac9"/><path data-name="Path 11323" d="M104.384 106.503c-1.418 5.434-.237 13.845 1.781 23.273 1.11 5.187 2.718 10.535 3.613 15.106.58 2.961 1.808 8.862.043 13.349.635 1.814 4.381 4.514 8.476 4.18 2.794-16.23-2.649-34.061-3.141-47.8-.252-7.014 3.669-5.956 11.192-9.392 7.069-3.229 9.41-8.875 3.432-6.977-7.391 2.346-13.483.376-13.092-3.295.1-.913.493-4.744.844-5.281a12.344 12.344 0 0 1-4.832-.546 7.821 7.821 0 0 1-.26 1.237 23.374 23.374 0 0 1-3.34 6.156 30.171 30.171 0 0 0-4.716 9.99z" fill="#1e688a"/><path data-name="Path 11324" d="M118.752 120.055c.575 5.352 1.549 10.694 2.056 15.813.5 5.068 2 19.72 1.017 23.64 6.916-.535 15.147-4.454 18.265-7.229 3-2.674 2.879-8.06 2.891-11.979.025-8.178.2-23.341-.473-35.484a119.421 119.421 0 0 0-1.251-12.868c-.792-4.566-2.719-7.179-3.256-11.909-.582-5.126 1.172-9.555.639-11.756-1.812 2.191-4.492 2.141-6.531 4.568-2.441 2.909-5.711 7.027-12.232 5.724 2.128 5.013.238 14.9.383 15.279 1.6 4.121 6.617 3.179 8.931 2.561 2.095-.56 4.575-.921 5.853-.208 1.469.82 1.453 3.49-.916 6.405-1.553 1.91-8.44 6.415-13.668 8.312-3.492 1.267-2.091 5.577-1.708 9.131z" fill="#349ac9"/><path data-name="Path 11325" d="M107.166 45.254c3.49-4.06 6.492-7.587 10.346-9.426 4.693-2.239 8.044-2.092 12.063-2.607-2.819 8.513 2.167 12.245-2.1 14.55-4.649 2.509-11.225-5.332-20.309-2.517z" fill="#9e6d4c"/></g><path data-name="Path 11326" d="M109.299 75.905c-3.186-6.321-10.367-17.075-9.866-24.375.222-3.247 2.031-5.043 4.509-6.55a35.588 35.588 0 0 1 7.495-5.8 3.512 3.512 0 0 0-.109 3.072 2.242 2.242 0 0 0 .9 1.132c1.332 2.4 3.511 5.417 4.619 6.977 4.008 4.789 9.919 8.815 13.993 16.937 6.146 12.256 5.21 61.492 2.426 77.513-2.443 2.44-12.294 6.689-14.463 7.072a15.406 15.406 0 0 1-9.856-1.19c-1.425-9.487-5-22.262-5.847-32.732-.315-3.872-.351-8.111.813-11.855 1.528-5.162 4.542-9.406 6.565-12.348 1.62-2.353 2.286-3.166 2.26-5.751a30.228 30.228 0 0 0-3.434-12.1zm34.25 62.267c.164-7.527.091-14.805-.024-22.164-.108-6.845-.045-16.525-1.276-23.073-1.109-5.905-2.636-7.922-3.382-11.655-.938-4.7 1.022-8.654.509-14.088-.138-1.456-.28-2.926-.427-4.394-.5-4.969-1.042-9.923-1.6-14.265-.724-5.6-1.353-10.653-2.078-12.9a6.762 6.762 0 0 0-1.087-2.231c-1.482-2.116-4.385-3.107-9.017-1.165a27.341 27.341 0 0 0-4.25 2.114 19.682 19.682 0 0 1 3.107.813 7.764 7.764 0 0 1 6.184 4.938c4.772 12.222 4.152 25.161 4.981 38 2.175 15.887 3.635 48.655 2.121 64.662a52.011 52.011 0 0 0 6.239-4.592z" fill="#d2eefc" fill-rule="evenodd"/><path data-name="Path 11327" d="M103.908 106.102c-1.164 3.744-1.128 7.983-.813 11.855.851 10.47 4.422 23.245 5.847 32.732a14.159 14.159 0 0 0 6.939 1.486c-1.86-8.886-4.351-22.908-5.1-30.482a31.437 31.437 0 0 1 2.164-11.581z" fill="#c3e6f7" fill-rule="evenodd"/><path data-name="Path 11328" d="M109.299 75.905c-3.186-6.321-10.367-17.075-9.866-24.375.271-3.966 2.91-5.766 6.242-7.521v1.54a23.94 23.94 0 0 1 5.762 11.768l8.6-3.307c3.96 4.011 8.533 8.446 11.9 15.912-1.879 1.616-3.538 3.744-7.857 5.359-1.808.677-3.934 1.311-4.708 2.16-3.319 3.64-1.106 7.1-.922 11.764.523 13.271-8.14 21.386-8.2 32.123a9.963 9.963 0 0 1-7.115-6.018c-1.679-12.24 8.247-21.578 9.294-24.835.947-2.955-.374-9.1-3.13-14.57zm22.7-26.5l2.707-1.041c1.444 4.3 3.329 8.825 4.139 13.4l.1 1.037q.15 1.5.293 2.992v.225c-1.477.678-2.907 1.315-4.528 2.1a89.946 89.946 0 0 0-2.712-18.711z" fill="#c3e6f7" fill-rule="evenodd"/><path data-name="Path 11329" d="M130.175 66.121c-6.255-10.66-13.647-14.246-17.564-22.416-1.454 1.368-3.486 1.966-5.783 3.222 4.026 5.707 5.009 9.518 5.327 16.611a20.055 20.055 0 0 0 1.2 5.535 8.623 8.623 0 0 0 10.723 2.1c2.568-1.406 4.416-3.563 6.093-5.049zm-.924-32.235l5.081 1.341a41.455 41.455 0 0 0 5.831 11.9 11.1 11.1 0 0 1 1.786 9c-.945 4.057-4.188 5.889-7.545 7.527a70.392 70.392 0 0 0-4.724-21.215c-.847-2.128-3.041-6.3-5.657-7.32z" fill="#d2eefc" fill-rule="evenodd"/><path data-name="Path 11330" d="M109.926 45.814l-1.4 1.389c1.594 2.259 3.755 5.683 3.9 9.6a28.567 28.567 0 0 0 1.958 10.079c1.709 3.725 4.715 4.393 8.477 3.376a9.133 9.133 0 0 0 6.061-5.293c-2.796-5.063-16.349-16.672-18.996-19.151z" fill="#e0f5ff" fill-rule="evenodd"/><path data-name="Path 11331" d="M132.584 45.117a38.258 38.258 0 0 1 1.832 4.4c.452 1.338.82 2.724 1.3 4.61l.891-.227c-.484-1.9-.856-3.3-1.323-4.677a39.132 39.132 0 0 0-1.875-4.5z" fill="#403e3e" fill-rule="evenodd"/><path data-name="Path 11332" d="M110.497 53.517c-1.768.89-5.989 10.845-7.639 8.536-3.738-5.229-5.666-11.731-.252-16.544a57.332 57.332 0 0 1 8.752-6.341l-.1 3.8c-1.442 1.408-2.771 2.841-4.431 4.257 1.581 2.234 2.747 3.614 3.67 6.292z" fill="#c3e6f7" fill-rule="evenodd"/><path data-name="Path 11333" d="M119.734 86.424a41.637 41.637 0 0 1-.635 13.452c-.965 3.614-3.63 7.657-5.353 12.244-2.855 7.6.549 16 3.339 39.011a66.2 66.2 0 0 0 14.869-6.591c1.933-10.716 1.59-23.97 2.32-35.674.572-9.169.973-24.825-2.748-37.066-2.859 3.046-5.926 4.374-8.35 5.7-5.324 2.9-3.95 3.477-3.442 8.924z" fill="#e0f5ff" fill-rule="evenodd"/><path data-name="Path 11334" d="M138.956 67.439c-1.221.539-2.261 1-3.5 1.493.24 5.277.459 10.178 1.135 14.9.643 4.493 1.1 7.79 1.393 10.927a317.148 317.148 0 0 1 .358 46.637 26.553 26.553 0 0 0 4.51-3.755c-.222-13 1.058-32.924-1.664-45.118-.871-3.9-1.96-6.861-2.728-10.793-.686-3.514.52-7.385.496-14.291z" fill="#e0f5ff" fill-rule="evenodd"/><path data-name="Path 11335" d="M133.751 39.069l-2.241 1.851 2.825.926c.846 6.69.938 12.214.094 21.84-.84-8.454-2.388-16.466-5.954-23.65a9.465 9.465 0 0 0-7.488-5.68l2.986-1.342c4.688-.86 7.853 2.007 9.778 6.055z" fill="#ebf9ff" fill-rule="evenodd"/><g data-name="Group 5699" fill-rule="evenodd"><path data-name="Path 11336" d="M111.812 40.562c-5.692 4.619-1.723 10 5.082 19.229l.467.633.741-.542-.468-.634c-6.477-8.784-10.255-13.907-5.243-17.974z" fill="#403e3e"/><path data-name="Path 11337" d="M126.984 67.507q-.791-1.263-1.522-2.285a20.242 20.242 0 0 0-4.638-4.961c-1.435-.98-2.613-1.136-3.421-.63a1.273 1.273 0 0 0-.089.06c-.859.612-1.217 1.952-.667 4.273a33.8 33.8 0 0 0 3.212 7.657l.809-.432a32.92 32.92 0 0 1-3.126-7.433c-.448-1.895-.253-2.92.3-3.317l.043-.028c.492-.309 1.317-.14 2.418.611a19.415 19.415 0 0 1 4.408 4.735q.735 1.031 1.493 2.238z" fill="#403e3e"/><g data-name="Group 5698" fill="#141414"><path data-name="Path 11338" d="M126.162 66.889a.956.956 0 0 0-.368 1.3l.573.991a.955.955 0 0 0 1.3.368.955.955 0 0 0 .368-1.3l-.572-.991a.957.957 0 0 0-1.301-.368z"/><path data-name="Path 11339" d="M119.75 70.481a.956.956 0 0 0-.369 1.3l.572.991a.958.958 0 0 0 1.3.369.958.958 0 0 0 .367-1.3l-.572-.992a.957.957 0 0 0-1.298-.368z"/></g></g><path data-name="Path 11340" d="M109.276 41.989c-.923 3.176.747 6.249 3.442 10.342l3.347-.925-1.124 3.371c7.479 3.64 10.569 5.915 15.3 11.581-6.106-12.351-15.626-17.109-17.554-24.136a6.018 6.018 0 0 1-.234-2.629c.072-.41 1.014-1.277 1.17-1.576a6.887 6.887 0 0 0 .48-1.164c.012-.025-3.942 2.091-4.827 5.136z" fill="#ebf9ff" fill-rule="evenodd"/><g data-name="Group 5700" fill-rule="evenodd"><path data-name="Path 11341" d="M136.585 53.046c-1.48.154-2.507 1.956-2.291 4.024s1.591 3.619 3.072 3.465 2.506-1.956 2.29-4.024-1.59-3.619-3.071-3.465z" fill="#736f6f"/><path data-name="Path 11342" d="M136.612 53.304c-1.378.144-2.333 1.821-2.133 3.746.2 1.9 1.442 3.327 2.8 3.232-1.261-.074-2.376-1.446-2.562-3.232-.2-1.926.754-3.6 2.133-3.747h.063a1.947 1.947 0 0 0-.301.001z" fill="#b8b6b6"/><path data-name="Path 11343" d="M136.715 54.289c-.989.1-1.675 1.307-1.531 2.688s1.063 2.418 2.052 2.316 1.675-1.307 1.531-2.689-1.063-2.418-2.052-2.315z" fill="#4a4848"/><path data-name="Path 11344" d="M136.741 54.547c-.887.092-1.5 1.172-1.372 2.411s.954 2.169 1.84 2.076 1.5-1.172 1.373-2.411-.956-2.168-1.841-2.076z" fill="#736f6f"/><path data-name="Path 11345" d="M136.855 55.639c-.456.048-.772.6-.706 1.241s.49 1.115.947 1.067.772-.6.706-1.239-.491-1.118-.947-1.069z" fill="#454242"/><path data-name="Path 11346" d="M136.759 54.708c-.824.086-1.394 1.088-1.274 2.237s.865 1.992 1.676 1.931a2.031 2.031 0 0 1-1.43-1.921c-.12-1.15.45-2.152 1.274-2.237h.031a1.1 1.1 0 0 0-.277-.01z" fill="#b8b6b6"/></g><g data-name="Group 5701" fill-rule="evenodd"><path data-name="Path 11347" d="M132.24 20.039l-5.945-1.616-.652-9.446 2.147-7.563c7.998 2.196 8.477 16.73 4.45 18.625z"/><path data-name="Path 11348" d="M133.953 29.639c1.361 6.411-.054 12.22-3.444 18.124-.811-2.779-4.52-10.056-2.509-16.4z"/></g><g data-name="Group 5702" fill-rule="evenodd"><path data-name="Path 11349" d="M114.715 37.531c-.981 3.85 9.585 9.1 13.328 6.1.736-4.587.06-7.9 3.091-12.449l-10.613-5.624-2.676-1.542c.781 6.034-.548 8.698-3.13 13.515z" fill="#9e6d4c"/><path data-name="Path 11350" d="M114.715 37.531a.793.793 0 0 0-.037.2c5.762-4.975 10.506-2.449 14.585-3.323a13.779 13.779 0 0 1 .682-1.248c.457-.944.584-.767 1.189-1.979l-10.613-5.624-2.676-1.542c.781 6.035-.548 8.699-3.13 13.516z" fill="#8f6142"/></g><g data-name="Group 5706" fill-rule="evenodd"><g data-name="Group 5704"><path data-name="Path 11351" d="M129.762 33.295c-3.2-1.058-7.96-2.426-9.843-3.349-1.718-.84-1.2-2.989-1.661-3.442a10.934 10.934 0 0 1-1.463-2.86c-2.988-1.155-4.431-2.355-5.073-3.915-1.525-3.7-.4-8.4 1.948-11.419a10.528 10.528 0 0 1 8.361-4.077c4.829-.175 7.829.482 9.863 3.728.832 1.326 1.115 3.992 2.112 5.951.739.633.095 2.672.019 3.833-.126 1.942 1.029 1.138 1.39 3.014.321 1.674-.162 3.738-.241 7.314a12.332 12.332 0 0 1-.207 3.12c-.258.746-1.894 1.726-2.614 2.013a3.579 3.579 0 0 1-2.591.089z" fill="#ad7c5b"/><path data-name="Path 11352" d="M129.762 33.295c-3.2-1.058-7.96-2.426-9.843-3.349-1.718-.84-1.2-2.989-1.661-3.442a10.934 10.934 0 0 1-1.463-2.86c-2.988-1.155-4.431-2.355-5.073-3.915-1.525-3.7-.4-8.4 1.948-11.419a10.528 10.528 0 0 1 8.361-4.077c4.829-.175 7.829.482 9.863 3.728.588 2.535-8.98 8.4-8.266 10.541.205.615-.427 2.819-.424 3.207.018 2.284 2.592 1.876 2.864 2.9.278 1.05-2.354 1.764-1.165 4.506.334.769 2.841 3.053 6.338 4.3l.088.055a3.564 3.564 0 0 1-1.567-.175z" fill="#9e6d4c"/><g data-name="Group 5703"><path data-name="Path 11353" d="M117.335 28.621c-7.345-1.457-11.051-5.97-11.4-12.1a22.353 22.353 0 0 1 1.485-8.709c1.463-3.705 7.922-7.688 12.489-7.68 1.752 0-5.055 2.169-2.73 2.954l-.521 15.731 1.345 8.743z" fill="#1d1e24"/><path data-name="Path 11354" d="M131.714 4.454c-4.321 13.889-15.555 17.268-15.237 20.159.247 2.238-4.631-1.037-5.96-2.905a14.389 14.389 0 0 1 1.019-17.542c5.456-6.11 16.336-5.056 20.178.288z" fill="#1d1e24"/><path data-name="Path 11355" d="M117.434 28.708c-4.385-1.784-8.042-1.071-10.115-5.935a19.9 19.9 0 0 1-.093-14.513 15.674 15.674 0 0 0 .481 9.013c-.062-3.127.682-4.621 2.247-7.724a22.859 22.859 0 0 0-.7 7.8c.29-2.338 1.793-6.064 3.034-7.068a11.056 11.056 0 0 0-.829 9.017c-.116-2.939 1.232-7.158 3.182-8.5-.837 1.407-1.768 4.64-1.315 6.455.857-2.531.792-3.018 2.793-5.631a15.253 15.253 0 0 0-1.092 5.667c.781-1.742 1.358-3.326 2.446-5.3-.357 1.3-1.134 5.577-.795 6.821.285-.817 3.52-4.51 4.945-5.97-1.211 2.707-2.613 5.615-4.08 7.035-.154.462 6.078-3.422 12.423-11.89-2.792 6.734-8.2 9.872-12.708 14.738l.4 2.63a8.624 8.624 0 0 1-.224 3.355z"/><path data-name="Path 11356" d="M105.96 15.485c-.6 4.089-.637 17.045 8.124 22.526 2.122-1.065 4.3-8.653 4.455-10.448-8.52-5.358-7.277-2.286-12.579-12.078z"/><path data-name="Path 11357" d="M131.702 4.39c-1.291-2.754-8.054-5.223-13.855-4.03-4.026.827-7.819 3.1-9.472 6.055 2.639-2.337 5.364-4.277 8.952-5.075-2.031.7-6.366 2.9-7.762 6.418a13.752 13.752 0 0 1 8.164-5.606c-3.151 1.6-3.8 2.647-5.426 5.17a19.739 19.739 0 0 1 6.765-4.743 9.574 9.574 0 0 0-4.16 5.255c2.452-2.707 2.481-3.6 5.992-4.863a22.944 22.944 0 0 0-4.451 5.7 43.6 43.6 0 0 1 6.258-4.931 26.213 26.213 0 0 0-3.669 5.2 25.094 25.094 0 0 1 5.945-4.81 28.174 28.174 0 0 0-5.382 7.243 51.24 51.24 0 0 1 6.457-6.353c-1.363 2.325-2.348 3.687-3.737 6.017a48.979 48.979 0 0 0 6.295-6.564c-1.19 2.04-4.8 7.844-6.341 9.83a70.879 70.879 0 0 0 7.523-9.171 14.762 14.762 0 0 1-3.334 6.483 21.5 21.5 0 0 0 5.238-7.225z" fill="#2c2e38"/></g></g><g data-name="Group 5705"><path data-name="Path 11358" d="M115.411 19.719c-2.685-.611-2.389 2.385-1.8 4.159.407 1.218 1.428 1.018 1.9 1.963a2.367 2.367 0 0 0 2.311 1.476c1.574-.209.353-2.451.067-3.363.031-1.544-.773-3.846-2.478-4.235z" fill="#9e6d4c"/><path data-name="Path 11359" d="M116.897 23.146a4.623 4.623 0 0 0-1.476-2.225c-.341-.208-1.491-.57-1.494 1.019.177-1.309 1.073-.945 1.415-.688a7.832 7.832 0 0 1 1.555 1.894z" fill="#8f6142"/></g></g><g data-name="Group 5707"><path data-name="Path 11360" d="M104.37 96.795a6.574 6.574 0 0 0 2.966-.556 1.266 1.266 0 0 0 .374-1.514c-.325-1.13-5.022-2.447-6.693-2.9-2.458-.667-3.178 1.693-1.065 3.477-3.162.384-2.05 2.085.055 3.222 1.71.924 5.421 1.708 5.968.509.184-.405-.968-1.386-1.605-2.238z" fill="#171e29" fill-rule="evenodd"/></g><g data-name="Group 5708" fill-rule="evenodd"><path data-name="Path 11361" d="M99.016 110.366c1.83 4.743.711 12.258 1.185 13.213.4.808 5.283 2.891 6.778 3.563.466.188 3.275-1.373 3.225-1.593-.961-.517-1.665-1-1.881-1.6-.114-.659-.784-2.581.019-3.294.2-.179.7 1.584 1.631 2.617.179 1.352 1.342 4.1 3.087 2.671-.229-.936-.8-3.709-1.073-4.394-.556-1.4-2.056-5.6-3.386-6.712-.919-.765-1.773-1.507-2.531-4.518z" fill="#ad7c5b"/><path data-name="Path 11362" d="M99.016 110.366c1.83 4.743.528 12.2 1.246 13.274.5.75 5.222 2.83 6.717 3.5-1.864-2.017-.373-8.456-3.813-16.8z" fill="#9e6d4c"/><path data-name="Path 11363" d="M100.82 48.26c-4.885 5.571-5.557 24.245-6.5 36.249 1.476 9.832 2.488 16.688 4.125 25.981.083.472.84.95.862 1.052q.218 1 .457 2.052c2.052 1.988 6.218 1.241 7.058-1.036a23.226 23.226 0 0 1-.372-2.394c-.012-.143.517-.966.527-1.109.175-2.771-.579-16.482-2.744-24.889 1.295-7.066 4.12-19.533 4.185-26.095.051-5.054-1.207-9.016-4.693-10.369a2.439 2.439 0 0 0-2.905.558z" fill="#d2eefc"/><path data-name="Path 11364" d="M104.674 114.439a6.736 6.736 0 0 1-.861-3.683 25.384 25.384 0 0 1 2.67-.31c.075.716.2 1.343.344 2.108a3.379 3.379 0 0 1-2.153 1.885zm-1.1-5.149c-1.113-8.475-2.4-17.141-3.335-25.648a1053.909 1053.909 0 0 1 5.375-34.691l.052-.048c2.03 1.885 2.8 5.186 2.76 9.164-.066 6.562-2.89 19.029-4.185 26.095 2.165 8.407 2.919 22.118 2.744 24.889a4.177 4.177 0 0 1-.336.673 7.057 7.057 0 0 0-3.078-.43z" fill="#e0f5ff"/><path data-name="Path 11365" d="M100.82 48.26c-4.885 5.571-5.557 24.245-6.5 36.249 1.476 9.832 2.488 16.688 4.125 25.981.083.472.84.95.862 1.052q.218 1 .457 2.052a4.516 4.516 0 0 0 3.315 1.146 24.7 24.7 0 0 1-.978-3.837c.718-.532 2.36-.669 4.013-.806a12.338 12.338 0 0 0-4.3.071 425.143 425.143 0 0 0-3.576-26.095c2.29-11.855 1.822-25.314 6.512-35.815-.01-.006 0-.019.013-.036a6.119 6.119 0 0 0-1.04-.52 2.439 2.439 0 0 0-2.903.558z" fill="#c3e6f7"/></g></g></g></g></svg>