<svg xmlns="http://www.w3.org/2000/svg" width="189.783" height="288.944" viewBox="0 0 189.783 288.944">
  <g id="Group_10012" data-name="Group 10012" transform="translate(-837.46 -3646.476)">
    <path id="Path_12891" data-name="Path 12891" d="M909.843,3917.453l-38.378-21.858c-4.185-1.911-10.173-3.433-14.435-1.215-3.884,2.021-10.282,6.158-13.111,7.772-2.149,1.226-9.608,5.694-4.963,8.221,13.667,7.431,27.193,15.79,41.071,23.339,2.625,1.428,6.465,1.944,10.5,1.609a27.793,27.793,0,0,0,11.366-3.385q3.461-2.013,6.806-3.962c3.01-1.753,4.607-3.825,4.765-5.741C913.614,3920.36,912.411,3918.625,909.843,3917.453Z" fill="#231f20" fill-rule="evenodd" opacity="0.1" style="mix-blend-mode: multiply;isolation: isolate"/>
    <g id="Group_6375" data-name="Group 6375">
      <path id="Path_12892" data-name="Path 12892" d="M965.535,3721.11c-.929.619-2.188.742-2.689,1.318-2.86,3.285,3.411,5.918,3.657,5.758.81-.525,1.625-2.314,3.079-3.858Z" fill="#12a8b3" fill-rule="evenodd"/>
      <g id="Group_6364" data-name="Group 6364">
        <path id="Path_12893" data-name="Path 12893" d="M967.548,3725.8a6.546,6.546,0,0,0-2.026,2.285c-.324.618-.789,1.529-1.176,2.133-.635.993-1.987,2.086-3.361,3.735-1.546-1.516.678-3.178,1.085-4.13a18.831,18.831,0,0,1,1.066-2.58C963.875,3726.082,966.219,3725.071,967.548,3725.8Z" fill="#f1b287" fill-rule="evenodd"/>
        <path id="Path_12894" data-name="Path 12894" d="M968.917,3725.159a12.326,12.326,0,0,0-3.272,2.038,10.269,10.269,0,0,0-1.429,1.5c-1.31,1.71-3.658,1.911-3.943,3.147s.57,5.107,0,4.778a11.571,11.571,0,0,1-2.006-2.1,10.151,10.151,0,0,1-1.38-3.464,14.049,14.049,0,0,1-.383-3.6,1.825,1.825,0,0,1,.7-1.455,16.461,16.461,0,0,1,3.271-1.86c2.623-1.019,3.16-1.247,4.776-2.627Z" fill="#f1b287" fill-rule="evenodd"/>
        <g id="Group_6363" data-name="Group 6363">
          <path id="Path_12895" data-name="Path 12895" d="M968.917,3725.159l-.073.028-.763-.565a34.18,34.18,0,0,1-4.18,2.354c-2.527,1.326-4.66,1.6-4.585,3.463a43.5,43.5,0,0,0,.38,5.7,12.855,12.855,0,0,1-1.427-1.612,10.151,10.151,0,0,1-1.38-3.464,14.049,14.049,0,0,1-.383-3.6,1.825,1.825,0,0,1,.7-1.455,16.461,16.461,0,0,1,3.271-1.86c2.623-1.019,3.16-1.247,4.776-2.627Z" fill="#e8a476" fill-rule="evenodd"/>
        </g>
      </g>
      <path id="Path_12896" data-name="Path 12896" d="M1023.614,3854.6l-38.379-21.857c-4.184-1.912-10.172-3.434-14.435-1.215-3.884,2.021-10.282,6.158-13.111,7.771-2.149,1.226-9.608,5.7-4.962,8.222,13.667,7.431,27.193,15.789,41.071,23.339,2.624,1.427,6.464,1.943,10.5,1.609a27.8,27.8,0,0,0,11.367-3.385q3.459-2.013,6.806-3.962c3.01-1.753,4.606-3.825,4.764-5.742C1027.385,3857.511,1026.182,3855.776,1023.614,3854.6Z" fill="#231f20" fill-rule="evenodd" opacity="0.1" style="mix-blend-mode: multiply;isolation: isolate"/>
      <g id="Group_6367" data-name="Group 6367">
        <g id="Group_6365" data-name="Group 6365">
          <path id="Path_12897" data-name="Path 12897" d="M992.218,3835.8a1.287,1.287,0,0,1-.49,1.08c-3.618,2.941-3.814.5-6.758,2.728-2.08,1.571-1.9,2.386-3.4,3.4a12.487,12.487,0,0,1-5.814,1.881c-1.414.141-7.2.278-7.5-1.615l-.039-.353a2.593,2.593,0,0,1,.333-2.056c1.463-2.077,6.349-3.329,7.058-3.7,2.233-1.129,13.458-7.4,16.27-4.166C992.367,3833.576,992.241,3835.073,992.218,3835.8Z" fill="#b4dcf0" fill-rule="evenodd"/>
          <path id="Path_12898" data-name="Path 12898" d="M990.255,3823.36a13.193,13.193,0,0,0-.143,2.479c.072.763.852,2.1,1.243,3.51.783,2.818.722,4.395-.173,5.521-.644.811-2.96,1.851-4.916,2.8a8.242,8.242,0,0,0-2.464,1.6,10.46,10.46,0,0,1-3.627,2.957,20.51,20.51,0,0,1-7.474,1.459,5.89,5.89,0,0,1-4.074-1.127.878.878,0,0,1-.323-.711c1.03-5.675,12.211-6.89,11.987-15.532C983.379,3827.871,988.561,3826.175,990.255,3823.36Z" fill="#d2eefc" fill-rule="evenodd"/>
          <path id="Path_12899" data-name="Path 12899" d="M990.249,3823.418a12.752,12.752,0,0,0-.137,2.421c.072.763.852,2.1,1.243,3.51.783,2.818.722,4.395-.173,5.521-.644.811-2.96,1.851-4.916,2.8a8.242,8.242,0,0,0-2.464,1.6,10.46,10.46,0,0,1-3.627,2.957,20.51,20.51,0,0,1-7.474,1.459,6.608,6.608,0,0,1-3.816-.905,3.155,3.155,0,0,1-.349-.3c-.435-.457-.126-1.156-.026-1.341,2.013,1.5,4.134,1.265,6.82.245,2.71-1.03,4.154-3.46,7.013-5.106s4.995-2.231,5.977-4.023.5-3.819.553-7.355A6.731,6.731,0,0,0,990.249,3823.418Z" fill="#c3e6f7" fill-rule="evenodd"/>
          <path id="Path_12900" data-name="Path 12900" d="M978.832,3831.971a10.493,10.493,0,0,0,6.9,1.3c-5.716,2.215-8.261,7.024-12.342,8.148-2.792.769-4.563-.23-4.515-.417C969.556,3838.379,976.568,3835.149,978.832,3831.971Z" fill="#e0f5ff" fill-rule="evenodd"/>
        </g>
        <g id="Group_6366" data-name="Group 6366">
          <path id="Path_12901" data-name="Path 12901" d="M996.755,3848.576a5.727,5.727,0,0,1-.282,2.565c-.5,1.533-1.29,2.688-1.357,4.41-.131,3.37,1.118,6.142,4.311,6.612a6.016,6.016,0,0,0,6.318-3.163c1.537-3.19.381-6.354-1.771-10.106-.779-1.357-.043-4.4-1.369-3.642Z" fill="#b4dcf0" fill-rule="evenodd"/>
          <path id="Path_12902" data-name="Path 12902" d="M995.411,3842.842a23.067,23.067,0,0,0-.016,3.517l.241,2.705a18.652,18.652,0,0,1,.074,2.629c-.111,2.035-.6,3.787-.215,4.993.918,2.85,2.343,3.545,4.286,3.7,1.7.134,4.4-.3,5.668-2.8,1.4-2.767.458-5.069-.512-8.727a15.413,15.413,0,0,1-.254-4.114l.042-3.944-.082.031c-.051-.945-.161-1.69-.269-2.644-2.859,2.552-7.284,2.076-8.63.27a37.5,37.5,0,0,0-.382,4.342Z" fill="#d2eefc" fill-rule="evenodd"/>
          <path id="Path_12903" data-name="Path 12903" d="M997.034,3859.362a4.376,4.376,0,0,0,2.747,1.024c1.7.134,4.4-.3,5.668-2.8,1.4-2.767.458-5.069-.512-8.727a15.413,15.413,0,0,1-.254-4.114l.042-3.944c-.046-1.307-.2-2.071-.408-2s-1.459.844-2.063,1.117c-.125.456-.246,5.159-.23,5.8C1002.2,3853.057,1005.746,3859.546,997.034,3859.362Z" fill="#c3e6f7" fill-rule="evenodd"/>
          <path id="Path_12904" data-name="Path 12904" d="M1001,3844.737a11.613,11.613,0,0,1-4.961-.848,51.029,51.029,0,0,1,.293,8.651c-.287,4.046.164,5.581,2.425,5.918,1.74.26,3.633-1.353,3.3-4.9C1001.777,3850.582,1000.8,3847.9,1001,3844.737Z" fill="#e0f5ff" fill-rule="evenodd"/>
        </g>
        <path id="Path_12905" data-name="Path 12905" d="M990.67,3730.164c1.347,5.164,6.11,5.325,4.269,13.927-1.835,8.577-6.323,25.4-5.7,33.32.42,5.375,1.908,6.087,2.755,13.091,1.027,8.5-.726,27.825-.393,37.191-.383,2.277-5.654,7.447-12.494,3.634-.681-8.215-1.1-40.8-3.3-49.573-1.628-4.858-1.169-7.221-1.556-12.062-.875-10.95-.255-21.566-.106-31.433.368-3.817.084-8.516.632-11.845Z" fill="#12a8b3" fill-rule="evenodd"/>
        <path id="Path_12906" data-name="Path 12906" d="M990.67,3730.164c1.347,5.164,6.11,5.325,4.269,13.927-1.835,8.577-6.323,25.4-5.7,33.32.42,5.375,1.908,6.087,2.755,13.091,1.027,8.5-.726,27.825-.393,37.191-.281,1.67-3.192,4.9-7.424,4.993,1.064-16.213,2.948-36.255-1.861-49.458a16.189,16.189,0,0,1-.791-6.5c.374-6.124.986-10.2,1.624-15.561-5.558-3.355-8.272-7-9.313-8.977.036-1.517.284-12.443.307-13.927.368-3.817.084-8.516.632-11.845Z" fill="#06929c" fill-rule="evenodd"/>
        <path id="Path_12907" data-name="Path 12907" d="M992.1,3756.593c-1.685,7.642-3.25,15.927-2.867,20.818.42,5.375,1.908,6.087,2.755,13.091.632,5.233.21,14.566-.129,23.155a208.912,208.912,0,0,0-2.823-21.691c-1.006-4.858-3.009-8.749-3.435-12.853-.525-5.067.265-9.936.906-18.342-4.75-3.185-12.4-8.8-12.631-10.916Z" fill="#05818a" fill-rule="evenodd"/>
        <path id="Path_12908" data-name="Path 12908" d="M1001.124,3724.842c1.389,4.325,5.768,6.832,7.788,14.582,1.275,4.888,1.455,10.264-1.091,20.353-1.167,4.627-2.6,11.957-3.251,16.1-1.912,12.272.467,11.328,2.565,21.346,1.944,9.275.063,34.653-1.082,45.664-.77,3.454-9.329,4.868-11.619,1.479-.79-10.923.053-30.416-1.27-41.492-.849-7.1-.65-7.463-3.041-14.49a21.256,21.256,0,0,1-1.236-9.219l.875-31.864c-5.221-5.388-10.995-10.92-15.3-17.521l.312-3.364Z" fill="#12a8b3" fill-rule="evenodd"/>
        <path id="Path_12909" data-name="Path 12909" d="M1001.124,3724.842c1.389,4.325,5.768,6.832,7.788,14.582,1.275,4.888,1.455,10.264-1.091,20.353-1.167,4.627-2.6,11.957-3.251,16.1-1.912,12.272.467,11.328,2.565,21.346,1.944,9.275.063,34.653-1.082,45.664-.444,1.992-3.477,3.3-6.4,3.41.273-5.223.7-13.946.793-15.24,1.261-16.648,1.663-27.03-2.658-40.391-.64-2.46-1.25-3.74-1-6.282.595-6.075,1.52-12.049,2.653-18.059.046-.245-4.673-.428-10.077-4.464l.4-14.56c-5.221-5.388-10.995-10.92-15.3-17.521l.312-3.364Z" fill="#06929c" fill-rule="evenodd"/>
        <path id="Path_12910" data-name="Path 12910" d="M1001.124,3724.842c1.389,4.325,5.768,6.832,7.788,14.582,1.275,4.888,1.455,10.264-1.091,20.353-.32,1.269-.66,2.742-1,4.3-.9,4.112-1.782,8.8-2.251,11.8-1.912,12.272.467,11.328,2.565,21.346a75.111,75.111,0,0,1,.833,14.164c-2.23-13.313-5.622-17.893-6.678-21.159-.641-2.46-1.251-3.741-1-6.282.594-6.075.862-12.962,1.995-18.972.046-.245-7.493-.46-12.9-4.5l.375-13.177c-5.221-5.388-10.995-10.92-15.3-17.521l.312-3.364Z" fill="#05818a" fill-rule="evenodd"/>
        <path id="Path_12911" data-name="Path 12911" d="M997.432,3768.3c-.4,2.024-.8,4.122-1.176,6.122-.811,4.328-1.336,8.556-1.918,9.129-.939.923-3.5,2.266-4.628-1.168-.626-1.907.2-11.5.232-12.166.069-1.7.14-3.49.208-5.241C991.971,3766.294,994.648,3768.11,997.432,3768.3Z" fill="#1abac6" fill-rule="evenodd"/>
        <path id="Path_12912" data-name="Path 12912" d="M990.991,3788.876c2.375,1.075,2.781,1.484,5.374,1.811,5.828,13.343,3.039,36.173,2.454,54.449a4.432,4.432,0,0,1-3.563-1.651c-.039-12.475-.214-29.962-1.271-42.18C993.406,3794.612,993.27,3794.544,990.991,3788.876Z" fill="#1abac6" fill-rule="evenodd"/>
        <path id="Path_12913" data-name="Path 12913" d="M981.353,3762.427c-.749,7.055-1.477,14.4-1.81,14.723-.939.924-2.975,1.477-4.1-1.956-.248-.757-.726-10.524-.859-19.014A18.8,18.8,0,0,0,981.353,3762.427Z" fill="#1abac6" fill-rule="evenodd"/>
        <path id="Path_12914" data-name="Path 12914" d="M975.918,3781A12.94,12.94,0,0,0,981,3783.91c4.513,14.074,3.228,29.863,2.205,47.993a6.7,6.7,0,0,1-3.673-1.175c-.024-7.916-.814-23.938-1.108-31.129C978.081,3791.151,978.55,3787.307,975.918,3781Z" fill="#1abac6" fill-rule="evenodd"/>
      </g>
      <path id="Path_12915" data-name="Path 12915" d="M1000.165,3719.371c-2.235,4.379-2.517,9.3-1.747,11.665.7,2.154,6.049,6.52,7.176,14.412a140.106,140.106,0,0,1,.028,14.313,7.526,7.526,0,0,1-2.455,3.046c-.3-3.255-.153-7.115-.273-9.772-.653,3.768-1.162,7.35-1.848,10.932a12.738,12.738,0,0,1-7.549.765c-1.746-.3-18.461-6.606-20.968-12.031-.166-3.954.509-18.007.724-19.76.57-4.663,1.808-6.278,2.413-9.266.761-3.762-.3-6.928.114-11.279.111-1.165.227-2.342.346-3.518.4-3.978.846-7.944,1.3-11.42a75.257,75.257,0,0,1,1.717-10.1,5.429,5.429,0,0,1,.882-1.787c1.2-1.694,3.359-2.552,7.113-1,5.205,2.156,12.99,5.443,17.369,10.041,2.008,1.206,3.475,2.644,3.655,5.243C1008.569,3705.7,1002.748,3714.311,1000.165,3719.371Z" fill="#12a8b3" fill-rule="evenodd"/>
      <path id="Path_12916" data-name="Path 12916" d="M986.965,3714.506a73.978,73.978,0,0,1-20.117,13.161c1.524-.9-.432-6.35-2.8-6.017,5.787-4.966,12.321-10.862,18.391-14.046,3.495-1.42,6.384-.248,7.068,1.627C990,3710.579,989.689,3712.146,986.965,3714.506Z" fill="#12a8b3" fill-rule="evenodd"/>
      <path id="Path_12917" data-name="Path 12917" d="M986.965,3714.506a73.994,73.994,0,0,1-20.117,13.161c.765-.45.653-2.05.051-3.488,4.1-2.838,7.564-4.936,7.731-5.534.352-1.263-.045-3.589.107-5.943a54.619,54.619,0,0,1,7.7-5.1c3.495-1.42,6.384-.248,7.068,1.627C990,3710.579,989.689,3712.146,986.965,3714.506Z" fill="#06929c" fill-rule="evenodd"/>
      <path id="Path_12918" data-name="Path 12918" d="M1003.233,3717.167c-2.281,4.528-3.5,9.556-3.095,12.515-2.391,3.09-18.327,1.029-23.647-7.439.867-4.339-1.056-8.609-.582-13.627.127-1.345.259-2.7.4-4.058.459-4.588.513-8.657,1.032-12.666a87.467,87.467,0,0,1,1.956-11.652,6.258,6.258,0,0,1,1-2.06c1.369-1.954,3.825-2.944,8.1-1.151a96.246,96.246,0,0,1,13.37,6.534c1.937,1.2,8.062,5.766,9.385,7.618a6.578,6.578,0,0,1,1.191,3.478C1012.806,3701.4,1006.175,3711.331,1003.233,3717.167Z" fill="#12a8b3" fill-rule="evenodd"/>
      <path id="Path_12919" data-name="Path 12919" d="M1000.058,3732.182c-.737-2.3-.467-7.073,1.675-11.323,2.476-4.912,8.057-13.27,7.667-18.943a5.475,5.475,0,0,0-1.285-3.287,2.4,2.4,0,0,1-2.6-.329c-.178-.145-.361-.28-.542-.42a18.24,18.24,0,0,1-4.1,9.8c-3.386,3.833-8.249,3.865-12.38,1.2-2.533-1.637-.176-5.7,2.371-4.056,2.19,1.416,4.188,1.656,5.877.311l-14.789-5.689a78.246,78.246,0,0,0-3.1,9.779,16.74,16.74,0,0,0-.348,3.33c1.284.59,2.543,1.817,3.974,2.512,2.273,1.1,3.278,3.631,7.725,5.295,1.405.525,3.058,1.018,3.658,1.678a4.822,4.822,0,0,1,1.41,3.678c-.206,3.917-.93,6.884.708,11.578.908,2.6,2.067,5.329,2.916,8.343,1.639,5.818,1.02,11.063-.848,19.491a11.139,11.139,0,0,0,4.525-.975c.658-3.477,1.145-6.954,1.771-10.611.115,2.578-.029,6.326.263,9.485a7.3,7.3,0,0,0,2.352-2.956,137.977,137.977,0,0,0-.026-13.9C1005.857,3738.511,1000.729,3734.272,1000.058,3732.182Z" fill="#06929c" fill-rule="evenodd"/>
      <path id="Path_12920" data-name="Path 12920" d="M1002.128,3696.525c1.634.822,5.531,10.014,7.054,7.883,3.452-4.829,5.233-10.833.233-15.277a52.952,52.952,0,0,0-8.082-5.855l.092,3.5c1.331,1.3,2.559,2.623,4.091,3.93A20.875,20.875,0,0,0,1002.128,3696.525Z" fill="#12a8b3" fill-rule="evenodd"/>
      <path id="Path_12921" data-name="Path 12921" d="M1013.047,3694.191c2.505,7.223.789,18.3.647,28.728-.076,5.534-7.482,5.293-8.413.043-1.2-6.308-1.444-13.972-1.686-20.194-.222-5.68-.072-11.691,3.9-12.545C1010.377,3689.6,1012.106,3691.478,1013.047,3694.191Z" fill="#12a8b3" fill-rule="evenodd"/>
      <path id="Path_12922" data-name="Path 12922" d="M1013.047,3694.191c2.505,7.223.789,18.3.647,28.728-.059,4.262-4.466,5.1-6.913,2.858l.03-.026c3.617-3.1,2.3-1.706,2.3-5.622,0-10.57.244-19.314-1.365-29.955C1010.48,3689.714,1012.134,3691.559,1013.047,3694.191Z" fill="#06929c" fill-rule="evenodd"/>
      <path id="Path_12923" data-name="Path 12923" d="M988.008,3734.914c2.064-.9,4.724,5.351,2.725,6.007C988.7,3741.588,986.024,3735.777,988.008,3734.914Z" fill="#a9d3e8" fill-rule="evenodd"/>
      <path id="Path_12924" data-name="Path 12924" d="M990.828,3733.882a6.545,6.545,0,0,1-2.814,1.188c-.689.108-1.7.257-2.4.43-1.145.283-2.613,1.213-4.616,1.986.94,1.951,3.228.376,4.261.3a18.675,18.675,0,0,0,2.785-.183C989.384,3737.272,991.093,3735.375,990.828,3733.882Z" fill="#f1b287" fill-rule="evenodd"/>
      <path id="Path_12925" data-name="Path 12925" d="M991.875,3732.792a12.3,12.3,0,0,1-2.98,2.446,10.2,10.2,0,0,1-1.883.871c-2.04.693-2.982,2.853-4.245,2.727s-4.655-2.178-4.525-1.535a11.558,11.558,0,0,0,1.349,2.575,10.142,10.142,0,0,0,2.839,2.417,14.023,14.023,0,0,0,3.289,1.518,1.824,1.824,0,0,0,1.6-.2,16.462,16.462,0,0,0,2.811-2.5c1.8-2.159,2.194-2.595,4.019-3.682Z" fill="#f1b287" fill-rule="evenodd"/>
      <path id="Path_12926" data-name="Path 12926" d="M991.875,3732.792c-.016.02-.032.04-.05.06l.291.9a34.207,34.207,0,0,0-3.57,3.2c-2.067,1.968-3.012,3.9-4.75,3.232a43.39,43.39,0,0,1-5.275-2.186,13,13,0,0,0,1.07,1.869,10.142,10.142,0,0,0,2.839,2.417,14.023,14.023,0,0,0,3.289,1.518,1.824,1.824,0,0,0,1.6-.2,16.462,16.462,0,0,0,2.811-2.5c1.8-2.159,2.194-2.595,4.019-3.682Z" fill="#e8a476" fill-rule="evenodd"/>
      <path id="Path_12927" data-name="Path 12927" d="M1010.914,3727.774a74.033,74.033,0,0,1-20.117,13.161c1.524-.9-.432-6.351-2.8-6.017,4.747-3.476,12.321-10.863,18.391-14.047,3.495-1.42,6.384-.247,7.068,1.627C1013.946,3723.847,1013.638,3725.414,1010.914,3727.774Z" fill="#12a8b3" fill-rule="evenodd"/>
      <path id="Path_12928" data-name="Path 12928" d="M1010.914,3727.774a74.033,74.033,0,0,1-20.117,13.161c.774-.456.65-2.086.031-3.537a151.232,151.232,0,0,0,15.983-11.647c3.58-3.071,2.324-1.735,2.3-5.5,2.2-.095,3.849.894,4.344,2.25S1013.638,3725.414,1010.914,3727.774Z" fill="#06929c" fill-rule="evenodd"/>
      <path id="Path_12929" data-name="Path 12929" d="M982.281,3710.27c1.79.91,3.54,3.577,6.365,5.124a6.989,6.989,0,0,0,8.693-1.7,16.271,16.271,0,0,0,.977-4.487c.258-5.75,1.054-8.84,4.318-13.467a22.394,22.394,0,0,1-5.258-3.529l-12.92-7.044-4.12,1.087a33.607,33.607,0,0,1-4.727,9.651,9,9,0,0,0-1.448,7.295C975.111,3707.277,979.029,3708.616,982.281,3710.27Z" fill="#12a8b3" fill-rule="evenodd"/>
      <g id="Group_6368" data-name="Group 6368">
        <path id="Path_12930" data-name="Path 12930" d="M998.574,3681.716c1.034,3.312-5.34,6.438-9.573,6.827a3.1,3.1,0,0,1-1.231-.113,1.606,1.606,0,0,1-.557-.295,9.969,9.969,0,0,1-1.2-2.539,22.212,22.212,0,0,0-4.386-7.737l9.848-6.7,2.469-1.811C993.834,3675.381,995.505,3677.25,998.574,3681.716Z" fill="#e8a476" fill-rule="evenodd"/>
        <path id="Path_12931" data-name="Path 12931" d="M998.407,3681.484a.757.757,0,0,1,.059.193c-4.692-2.6-9.481.98-13.374,1.55-.182-.247-2.041-4.306-2.17-4.392-.554-.881-.66-.692-1.388-1.821l9.847-6.7,2.47-1.812C993.741,3674.536,995.338,3677.017,998.407,3681.484Z" fill="#db9669" fill-rule="evenodd"/>
      </g>
      <g id="Group_6374" data-name="Group 6374">
        <g id="Group_6369" data-name="Group 6369">
          <path id="Path_12932" data-name="Path 12932" d="M977.155,3670.025l5.125-2.89-1.611-8.9-3.761-6.5C970.017,3655.644,972.982,3669.214,977.155,3670.025Z" fill="#98482d" fill-rule="evenodd"/>
        </g>
        <g id="Group_6373" data-name="Group 6373">
          <g id="Group_6371" data-name="Group 6371">
            <path id="Path_12933" data-name="Path 12933" d="M982.557,3681.718c2.714-1.73,6.8-4.113,8.329-5.409,1.394-1.18.413-3.05.731-3.577a10.45,10.45,0,0,0,.684-2.991c2.5-1.77,3.55-3.22,3.779-4.814.544-3.786-1.6-7.875-4.48-10.117a10.051,10.051,0,0,0-8.7-1.814c-4.513.969-7.137,2.281-8.259,5.764-.46,1.423-.1,3.958-.56,6-.536.76.538,2.5.88,3.553.573,1.77-.685,1.3-.579,3.118.1,1.625,1.026,3.423,1.937,6.716a11.776,11.776,0,0,0,.924,2.84c.413.63,2.158,1.154,2.892,1.251A3.422,3.422,0,0,0,982.557,3681.718Z" fill="#f1b287" fill-rule="evenodd"/>
            <path id="Path_12934" data-name="Path 12934" d="M982.557,3681.718c2.714-1.73,6.8-4.113,8.329-5.409,1.394-1.18.413-3.05.731-3.577a10.45,10.45,0,0,0,.684-2.991c2.5-1.77,3.55-3.22,3.779-4.814.544-3.786-1.6-7.875-4.48-10.117a10.051,10.051,0,0,0-8.7-1.814c-4.513.969-7.137,2.281-8.259,5.764.05,2.485,10.284,5.671,10.125,7.822-.045.617,1.057,2.51,1.145,2.87.519,2.119-1.96,2.345-1.971,3.36-.012,1.037,2.593,1.082,2.134,3.9-.128.79-1.914,3.493-4.86,5.467-.02.023-.045.049-.068.072A3.407,3.407,0,0,0,982.557,3681.718Z" fill="#e8a476" fill-rule="evenodd"/>
            <g id="Group_6370" data-name="Group 6370">
              <path id="Path_12935" data-name="Path 12935" d="M992.968,3674.477c6.459-3.072,8.833-8.12,7.718-13.882a21.383,21.383,0,0,0-3.417-7.716c-2.223-3.087-9.138-5.261-13.365-4.182-1.622.414,5.189.823,3.221,2.095l4.17,14.444.8,8.411Z" fill="#98482d" fill-rule="evenodd"/>
              <path id="Path_12936" data-name="Path 12936" d="M973.988,3655.47c7.257,11.847,18.451,12.343,18.834,15.094.3,2.13,4.045-2.047,4.838-4.087a13.745,13.745,0,0,0-5.057-16.005C986.119,3646.094,976.292,3649.621,973.988,3655.47Z" fill="#98482d" fill-rule="evenodd"/>
              <path id="Path_12937" data-name="Path 12937" d="M992.9,3674.58c3.642-2.68,7.2-2.878,7.974-7.867a19.013,19.013,0,0,0-3.317-13.461,14.969,14.969,0,0,1,1.668,8.459c-.676-2.91-1.715-4.118-3.892-6.625a21.826,21.826,0,0,1,2.475,7.061c-.816-2.1-3.082-5.2-4.466-5.834a10.564,10.564,0,0,1,2.881,8.156c-.581-2.749-2.819-6.34-4.939-7.125,1.106,1.107,2.725,3.882,2.732,5.669-1.387-2.142-1.441-2.609-3.907-4.559a14.566,14.566,0,0,1,2.34,4.992c-1.132-1.43-2.038-2.762-3.507-4.332.636,1.119,2.358,4.9,2.336,6.13-.456-.69-4.317-3.351-5.979-4.369,1.756,2.223,3.736,4.587,5.428,5.558.25.391-6.431-1.744-14.291-8.1,4.164,5.581,9.9,7.22,15.222,10.667l.242,2.53A8.246,8.246,0,0,0,992.9,3674.58Z" fill="#da6947" fill-rule="evenodd"/>
              <path id="Path_12938" data-name="Path 12938" d="M1000.421,3659.646c1.516,3.644,4.586,15.633-2.241,22.763-2.215-.489-6.006-7-6.575-8.63C998.238,3666.82,997.807,3669.955,1000.421,3659.646Z" fill="#98482d" fill-rule="evenodd"/>
              <path id="Path_12939" data-name="Path 12939" d="M973.983,3655.408c.551-2.853,6.233-6.724,11.885-6.98,3.921-.178,7.966,1.038,10.19,3.386a18.982,18.982,0,0,0-9.479-2.6c2.044.169,6.573,1.191,8.692,4.124a13.129,13.129,0,0,0-8.874-3.277c3.293.741,4.142,1.559,6.237,3.514a18.859,18.859,0,0,0-7.377-2.8,9.142,9.142,0,0,1,5.084,3.891c-2.905-1.932-3.143-2.757-6.688-3.1a21.9,21.9,0,0,1,5.457,4.23,41.548,41.548,0,0,0-6.951-3.1,25.068,25.068,0,0,1,4.616,3.951,23.983,23.983,0,0,0-6.633-3.059,26.893,26.893,0,0,1,6.682,5.444,49,49,0,0,0-7.469-4.369c1.807,1.834,3.039,2.864,4.872,4.7a46.589,46.589,0,0,1-7.368-4.6c1.579,1.61,6.281,6.138,8.176,7.615a67.675,67.675,0,0,1-9.116-6.727,14.1,14.1,0,0,0,4.607,5.221A20.542,20.542,0,0,1,973.983,3655.408Z" fill="#da6947" fill-rule="evenodd"/>
            </g>
          </g>
          <g id="Group_6372" data-name="Group 6372">
            <path id="Path_12940" data-name="Path 12940" d="M992.662,3665.783c2.343-1.2,2.771,1.647,2.64,3.428-.091,1.224-1.083,1.278-1.3,2.265a2.26,2.26,0,0,1-1.793,1.908c-1.507.176-.9-2.187-.851-3.1C990.97,3668.862,991.175,3666.542,992.662,3665.783Z" fill="#e8a476" fill-rule="evenodd"/>
          </g>
        </g>
      </g>
    </g>
    <g id="Group_6393" data-name="Group 6393">
      <path id="Path_12941" data-name="Path 12941" d="M863.126,3863.678l46.576-26.527c5.078-2.32,12.344-4.166,17.518-1.474,4.713,2.454,12.478,7.474,15.91,9.432,2.609,1.487,11.661,6.911,6.023,9.976-16.587,9.02-33,19.163-49.844,28.325-3.185,1.733-7.845,2.359-12.736,1.953a33.731,33.731,0,0,1-13.795-4.109q-4.2-2.44-8.259-4.807c-3.653-2.127-5.591-4.642-5.783-6.969C858.549,3867.206,860.009,3865.1,863.126,3863.678Z" fill="#231f20" fill-rule="evenodd" opacity="0.1" style="mix-blend-mode: multiply;isolation: isolate"/>
      <g id="Group_6392" data-name="Group 6392">
        <g id="Group_6376" data-name="Group 6376">
          <path id="Path_12942" data-name="Path 12942" d="M926.593,3727.423l.208-1.634-.108-3.285c1.389-1.214,2.506-1.736,3.215-1.586.056.012.208.025.261.043C932.492,3721.753,928.978,3729.055,926.593,3727.423Z" fill="#c3e6f7" fill-rule="evenodd"/>
          <path id="Path_12943" data-name="Path 12943" d="M938.754,3721.185c1.344,1.639-1.54,2.673-2.413,2.772-1.139.5-1.727.386-2.167,1.351-.494,1.083-3.686-3.573-3.619-3.642a12.917,12.917,0,0,1,3.714.147,3.715,3.715,0,0,0,2.327.092C937.206,3721.759,937.784,3721.5,938.754,3721.185Z" fill="#ad7c5b" fill-rule="evenodd"/>
          <path id="Path_12944" data-name="Path 12944" d="M939.011,3721.6c.6,1.4-1.872,2.271-2.67,2.361-1.139.5-1.727.386-2.167,1.351-.3.664-2.857-1.487,0-2.169C935.454,3722.927,937.419,3723.219,939.011,3721.6Z" fill="#9e6d4c" fill-rule="evenodd"/>
          <path id="Path_12945" data-name="Path 12945" d="M922.347,3725.652c1.5.325,2.522.469,3.343.7,2.169.611,1.7,3.069,5.736,4.153l4.627,1.241c.6.162,4.727-1.561,5.8-2.476.763-.649,3.862-3.884,3.414-4.033-.336-.112-2.183.376-3.94.567l-4.045-.289c-3.9-.632-3.6-2.863-5.049-3.476-1.888-.8-3.6-.24-6.759-2.269l-3.041,1.735.739,3.632Z" fill="#ad7c5b" fill-rule="evenodd"/>
          <path id="Path_12946" data-name="Path 12946" d="M922.347,3725.652c1.5.325,2.522.469,3.343.7,2.169.611,1.7,3.069,5.736,4.153l4.627,1.241c.6.162,4.727-1.561,5.8-2.476.132-.112.334-.3.575-.539-1.415-.722-4.45,1.541-5.818,1.515a5.638,5.638,0,0,1-3.362-.957c-1.735-1.148-2.153-2.131-3.281-3.08a26.264,26.264,0,0,0-4-2.258l.123-3.959q-.3-.1-.615-.222l-3.041,1.735.739,3.632Z" fill="#9e6d4c" fill-rule="evenodd"/>
          <path id="Path_12947" data-name="Path 12947" d="M906.429,3721.134c7.792,3.223,12.3,3.738,20.311,6.37-.409-3.58,2.1-6.508,3.61-6.469-6.6-3-14.489-7.187-21.65-8.765Z" fill="#d2eefc" fill-rule="evenodd"/>
          <path id="Path_12948" data-name="Path 12948" d="M906.429,3721.134c7.792,3.223,12.3,3.738,20.311,6.37a7.031,7.031,0,0,1,.717-3.956A141.1,141.1,0,0,1,913.5,3718.1c-.9-.5-.332-3.31-.468-4.62Z" fill="#c3e6f7" fill-rule="evenodd"/>
        </g>
        <g id="Group_6379" data-name="Group 6379">
          <g id="Group_6377" data-name="Group 6377">
            <path id="Path_12949" data-name="Path 12949" d="M898.741,3741.742c-1.685,5.266-.067,14.011,1.348,23.148.778,5.026,2.031,10.208,2.635,14.638.1.708.188,1.38.27,2.02a44.13,44.13,0,0,1,.544,8.539c-.453,5.79-2.889,7.012-3.8,14.558-1.107,9.156,3.708,19.653,3.349,29.743a6.344,6.344,0,0,1-1.206,2.478c-4.043,4.971.123,4.314-.265,10.878-.034.579,2.2,10.6,2.2,10.6s6,1.67,6.454,1.6,4.176-1.36,4.176-1.36c-.293-.547-.659-1.873-.895-2.375-2.7-5.734-3.065-12.759-3.07-19.229-.006-8.85,2.435-29.688,4.714-38.2a110.563,110.563,0,0,0,1.823-15.039c.934-14.705,1.408-25.308-.411-40.866Z" fill="#ad7c5b" fill-rule="evenodd"/>
            <path id="Path_12950" data-name="Path 12950" d="M898.741,3741.742c-1.685,5.266-.067,14.011,1.348,23.148.778,5.026,2.031,10.208,2.635,14.638.1.708.188,1.38.27,2.02a44.13,44.13,0,0,1,.544,8.539c-.453,5.79-2.889,7.012-3.8,14.558-1.107,9.156,3.708,19.653,3.349,29.743a6.344,6.344,0,0,1-1.206,2.478c-4.043,4.971.123,4.314-.265,10.878-.034.579,2.2,10.6,2.2,10.6s6,1.67,6.454,1.6.03-.443-.23-.933c-3.233-6.087-3.262-15.1-3.216-21.972.059-8.945-2.387-25.418-.207-32.7,2.524-1.64,6.762-3.419,8.578-5.553a110.563,110.563,0,0,0,1.823-15.039c.934-14.705,1.408-25.308-.411-40.866Z" fill="#9e6d4c" fill-rule="evenodd"/>
            <path id="Path_12951" data-name="Path 12951" d="M912.756,3854.382c.646,1.184,1.341,2.883,1.934,4.164a25.837,25.837,0,0,1,1.514,4.033,1.893,1.893,0,0,1-.136,1.621c-1.45,1.945-8.71-1.6-11.145-3.753-1.572-1.387-1.6-3.029-1.971-5.034-.554-3.011-.649-3.348-1.37-6.442l-.817,8.4-.98.448a96.46,96.46,0,0,0-.75-10.9c-.211-1.165-.57-2.493-.621-3.139a6.658,6.658,0,0,1,3.311-6.741c-.635,2.312,1.041,6.071,1.8,10.8.8,4.954,3.541,10.371,5.7,10.829.908.193,2.917-.94,4.01-1.563C913.65,3856.875,913.18,3855.455,912.756,3854.382Z" fill="#2a3c4a" fill-rule="evenodd"/>
            <path id="Path_12952" data-name="Path 12952" d="M914.021,3864.732c-2.771-.295-7.28-2.679-9.1-4.285-1.573-1.387-1.6-3.029-1.972-5.034-.554-3.011-.649-3.348-1.37-6.442l-.817,8.4-.98.448a96.46,96.46,0,0,0-.75-10.9c-.211-1.165-.57-2.493-.621-3.139a6.658,6.658,0,0,1,3.311-6.741c-.635,2.312,1.041,6.071,1.8,10.8.656,4.077,2.631,8.466,4.511,10.148A34.015,34.015,0,0,0,914.021,3864.732Z" fill="#111c24" fill-rule="evenodd"/>
          </g>
          <g id="Group_6378" data-name="Group 6378">
            <path id="Path_12953" data-name="Path 12953" d="M884.478,3770.531c1.458,14.265,3.75,19.844,3.152,25.729-.394,3.884-3.855,9.517-4.585,13.235-1.622,8.261,1.993,21.671,3.227,33.533.122,1.179-.421,2.37-.559,3.546a41.079,41.079,0,0,0-.386,6.273,55.9,55.9,0,0,0,1.4,11.278c.36,1.569,1.059,2.241,1.53,4.39l9.251,1.511c-.91-3.5-2.25-10.576-3.11-16.521-.466-3.224-1.168-6.116-1.208-7.924-.25-11.452,2.05-15.837,3.477-27.768.589-4.931-.213-7.686,1.624-11.564a59.03,59.03,0,0,0,2.351-6.071,24.82,24.82,0,0,0,1.185-8.4c-.2-4.633-.771-11.46-2.054-20.678l-15.1-1.888Z" fill="#ad7c5b" fill-rule="evenodd"/>
            <path id="Path_12954" data-name="Path 12954" d="M884.478,3770.531c1.458,14.265,3.75,19.844,3.152,25.729-.394,3.884-3.855,9.517-4.585,13.235-1.622,8.261,1.993,21.671,3.227,33.533.122,1.179-.421,2.37-.559,3.546a41.079,41.079,0,0,0-.386,6.273,55.9,55.9,0,0,0,1.4,11.278c.36,1.569,1.059,2.241,1.53,4.39l4.708,2.455c-1.5-3.088-3.016-13.644-3.876-19.588a53.582,53.582,0,0,1-.206-7.985c-.276-12.641-.737-26.629,2.551-36.946,3.289-.172,6.772-1.062,7.539-1.752.5-1.209,1.045-2.686,1.669-4.521a24.82,24.82,0,0,0,1.185-8.4c-.2-4.633-.771-11.46-2.054-20.678l-15.1-1.888Z" fill="#9e6d4c" fill-rule="evenodd"/>
            <path id="Path_12955" data-name="Path 12955" d="M885.8,3845.954c-.535,1.857-1.147,2.848-1.227,5.381s1.088,6.492.991,9.628l-.156,4.979c-.091,2.9.647,4.91,3.94,7.308,2.986,2.172,5.894,3.061,7.476,2.29,1.165-.567,2.1-2.62.31-8.034-1.488-4.51-1.871-8.918-2.745-13.811a49.189,49.189,0,0,0,1.584,11.126c.323,1.317.516,3.52-1.047,3.744-6.464.923-6.788-.815-7.322-2.809C886.179,3860.429,885.138,3850.95,885.8,3845.954Z" fill="#2a3c4a" fill-rule="evenodd"/>
            <path id="Path_12956" data-name="Path 12956" d="M885.8,3845.954c-.535,1.857-1.147,2.848-1.227,5.381s1.088,6.492.991,9.628l-.156,4.979c-.091,2.9.647,4.91,3.94,7.308,2.3,1.671,4.547,2.583,6.184,2.564-1.737-1.452-2.989-3.919-3.9-7-3.309-.065-3.6-1.483-4.024-3.061C886.179,3860.429,885.138,3850.95,885.8,3845.954Z" fill="#111c24" fill-rule="evenodd"/>
          </g>
        </g>
        <g id="Group_6380" data-name="Group 6380">
          <path id="Path_12957" data-name="Path 12957" d="M885.745,3719.921c2.394,4.751,3.671,10.029,3.248,13.135l.005,0a7.216,7.216,0,0,1-.22.983,22.7,22.7,0,0,1-3.237,5.966,28.311,28.311,0,0,0-4.571,9.679c-1.373,5.266-.23,13.417,1.727,22.554,1.075,5.026,2.634,10.209,3.5,14.638.8,4.076,3.683,9.855,2.133,14.033,2.038,1.867,2.705,2.892,6.073,2.974,9.048.221,20.655-4.762,22.812-8.3a18.947,18.947,0,0,0,1.054-6c.239-1.88.062-4.068.216-9.871.282-10.569-.291-20.494-.451-31.122-.288-2.981-.5-6.165-.659-9.22-.03-.746-.087-1.453-.165-2.128-.083-.745-.205-1.483-.353-2.218-.768-3.829-2.446-6.759-3.049-9.775-.909-4.553,1.109-9.034.611-14.3-.132-1.41-.271-2.835-.413-4.258-.482-4.815-.539-9.085-1.084-13.293-.7-5.425-1.351-10.047-2.052-12.228a6.57,6.57,0,0,0-1.054-2.162c-1.436-2.051-4.015-3.09-8.5-1.208a101.136,101.136,0,0,0-14.032,6.857c-2.032,1.261-8.461,6.052-9.848,7.994a6.9,6.9,0,0,0-1.251,3.651C875.7,3703.374,882.657,3713.8,885.745,3719.921Z" fill="#2982ab" fill-rule="evenodd"/>
          <path id="Path_12958" data-name="Path 12958" d="M885.745,3719.921a32.1,32.1,0,0,1,3.206,9.982c.531,4.349-.842,6.293-3.41,10.1a28.311,28.311,0,0,0-4.571,9.679c-1.16,4.449-.524,10.957.881,18.378,4.029-10.954,6.752-18.519,6.22-18.228,1.845-5.171,4.264-9.908,5.326-14.748a24.848,24.848,0,0,0-2.537-17.6,8.355,8.355,0,0,0,10.391,2.032c3.376-1.849,5.469-5.037,7.608-6.125a57.028,57.028,0,0,0,5.52-2.893c-.12-1.265-.245-2.541-.372-3.815-.482-4.815-.539-9.085-1.084-13.293-.7-5.425-1.351-10.047-2.052-12.228a6.57,6.57,0,0,0-1.054-2.162c-1.436-2.051-4.015-3.09-8.5-1.208a101.136,101.136,0,0,0-14.032,6.857c-2.032,1.261-8.461,6.052-9.848,7.994a6.9,6.9,0,0,0-1.251,3.651C875.7,3703.374,882.657,3713.8,885.745,3719.921Z" fill="#1e688a" fill-rule="evenodd"/>
          <path id="Path_12959" data-name="Path 12959" d="M907.679,3709.208c-2.139,1.087-4.15,4.432-7.608,6.125-6.412,3.14-11.322-1.451-11.558-7.4-.273-6.876-1.261-10.568-5.162-16.1,2.442-1.336,4.931-2.757,6.285-4.219l15.444-8.42,4.924,1.3a40.16,40.16,0,0,0,5.651,11.536,10.758,10.758,0,0,1,1.731,8.72C916.25,3705.631,911.567,3707.23,907.679,3709.208Z" fill="#2982ab" fill-rule="evenodd"/>
          <path id="Path_12960" data-name="Path 12960" d="M907.515,3706.985c-2.882,1.251-3.479,3.756-6.632,5.482-2.093,1.147-6.19,2.339-9.349-1.425a18.122,18.122,0,0,1-1.09-5.008c-.288-6.418-.174-9.1-3.817-14.264.988-.54,3.874-1.981,4.788-2.549,6.442,2,12.312,5.031,15.974-4.474l3.005-2.856c1.5,4.832,2.476,6.3,5.336,10.476,1.645,2.4,2.361,4.017,1.675,6.962C916.345,3703.88,911.251,3705.362,907.515,3706.985Z" fill="#349ac9" fill-rule="evenodd"/>
          <path id="Path_12961" data-name="Path 12961" d="M880.97,3749.686c-1.373,5.266-.23,13.417,1.727,22.554,1.075,5.026,2.634,10.209,3.5,14.638.562,2.87,1.752,8.589.041,12.937.616,1.757,4.246,4.375,8.214,4.05,2.708-15.728-2.566-33.007-3.044-46.319-.244-6.8,3.556-5.772,10.847-9.1,6.85-3.13,9.118-8.6,3.325-6.762-7.162,2.273-13.066.364-12.686-3.193.094-.885.477-4.6.817-5.117a11.965,11.965,0,0,1-4.682-.529,7.658,7.658,0,0,1-.252,1.2,22.7,22.7,0,0,1-3.237,5.966A29.244,29.244,0,0,0,880.97,3749.686Z" fill="#1e688a" fill-rule="evenodd"/>
          <path id="Path_12962" data-name="Path 12962" d="M894.894,3762.819c.558,5.186,1.5,10.363,1.992,15.325.487,4.91,1.934,19.11.986,22.908,6.7-.518,14.679-4.316,17.7-7,2.911-2.592,2.79-7.811,2.8-11.608.024-7.926.189-22.62-.458-34.388a115.6,115.6,0,0,0-1.212-12.47c-.768-4.425-2.635-6.957-3.156-11.541-.564-4.968,1.136-9.259.619-11.392-1.756,2.123-4.353,2.074-6.328,4.427-2.366,2.818-5.535,6.809-11.854,5.547,2.062,4.858.23,14.44.371,14.806,1.548,3.994,6.413,3.081,8.655,2.482,2.03-.543,4.433-.893,5.672-.2,1.423.795,1.408,3.383-.888,6.207-1.505,1.851-8.179,6.217-13.246,8.055C893.165,3755.2,894.523,3759.375,894.894,3762.819Z" fill="#349ac9" fill-rule="evenodd"/>
          <path id="Path_12963" data-name="Path 12963" d="M883.667,3690.33c3.381-3.934,6.291-7.352,10.026-9.134,4.548-2.17,7.795-2.027,11.69-2.526-2.732,8.25,2.1,11.866-2.037,14.1C898.845,3695.2,892.47,3687.6,883.667,3690.33Z" fill="#9e6d4c" fill-rule="evenodd"/>
        </g>
        <path id="Path_12964" data-name="Path 12964" d="M885.733,3720.034c-3.087-6.126-10.046-16.548-9.56-23.622.215-3.147,1.968-4.886,4.369-6.347a34.44,34.44,0,0,1,7.263-5.624,3.4,3.4,0,0,0-.1,2.977,2.172,2.172,0,0,0,.867,1.1c1.291,2.324,3.4,5.25,4.476,6.761,3.885,4.642,9.613,8.543,13.56,16.414,5.957,11.877,5.05,59.591,2.351,75.117-2.367,2.365-11.913,6.482-14.015,6.853a14.928,14.928,0,0,1-9.551-1.153c-1.381-9.193-4.842-21.574-5.666-31.72a31,31,0,0,1,.787-11.488c1.481-5,4.4-9.116,6.363-11.966,1.569-2.281,2.214-3.069,2.189-5.574a29.261,29.261,0,0,0-3.328-11.724Zm33.191,60.342c.16-7.294.089-14.348-.022-21.479-.1-6.633-.044-16.014-1.237-22.359-1.075-5.723-2.554-7.677-3.277-11.3-.91-4.553.99-8.386.493-13.652-.133-1.411-.271-2.835-.414-4.258-.481-4.816-1.01-9.616-1.555-13.824-.7-5.425-1.312-10.323-2.014-12.5a6.538,6.538,0,0,0-1.053-2.162c-1.436-2.051-4.25-3.011-8.739-1.129a26.653,26.653,0,0,0-4.119,2.048,19.189,19.189,0,0,1,3.011.788,7.526,7.526,0,0,1,5.993,4.786c4.625,11.844,4.024,24.383,4.828,36.828,2.107,15.4,3.523,47.15,2.054,62.663A50.269,50.269,0,0,0,918.924,3780.376Z" fill="#d2eefc" fill-rule="evenodd"/>
        <path id="Path_12965" data-name="Path 12965" d="M880.509,3749.3a31,31,0,0,0-.787,11.488c.824,10.146,4.285,22.527,5.666,31.72a13.72,13.72,0,0,0,6.724,1.44c-1.8-8.611-4.216-22.2-4.945-29.54a30.448,30.448,0,0,1,2.1-11.222Z" fill="#c3e6f7" fill-rule="evenodd"/>
        <path id="Path_12966" data-name="Path 12966" d="M885.733,3720.034c-3.087-6.126-10.046-16.548-9.56-23.622.263-3.843,2.82-5.588,6.049-7.288v1.493a23.187,23.187,0,0,1,5.583,11.4l8.333-3.205c3.839,3.887,8.27,8.185,11.535,15.42-1.82,1.566-3.428,3.628-7.613,5.194-1.752.655-3.812,1.269-4.563,2.093-3.216,3.527-1.071,6.877-.893,11.4.506,12.861-7.888,20.725-7.948,31.129a9.653,9.653,0,0,1-6.9-5.831c-1.627-11.862,7.992-20.911,9.007-24.067.918-2.864-.362-8.82-3.034-14.12Zm22-25.679,2.623-1.008c1.4,4.168,3.227,8.551,4.011,12.98l.1,1.005c.1.967.192,1.936.284,2.9,0,.072,0,.145,0,.217-1.432.658-2.817,1.275-4.388,2.031A87.224,87.224,0,0,0,907.731,3694.355Z" fill="#c3e6f7" fill-rule="evenodd"/>
        <path id="Path_12967" data-name="Path 12967" d="M905.964,3710.552c-6.061-10.331-13.225-13.8-17.021-21.722-1.409,1.325-3.378,1.905-5.6,3.122,3.9,5.53,4.854,9.224,5.162,16.1a19.474,19.474,0,0,0,1.167,5.364,8.356,8.356,0,0,0,10.392,2.032c2.488-1.363,4.279-3.452,5.9-4.893Zm-.9-31.238,4.923,1.3a40.15,40.15,0,0,0,5.652,11.536,10.766,10.766,0,0,1,1.731,8.72c-.917,3.931-4.06,5.707-7.313,7.294a68.2,68.2,0,0,0-4.577-20.56c-.821-2.062-2.948-6.1-5.483-7.094Z" fill="#d2eefc" fill-rule="evenodd"/>
        <path id="Path_12968" data-name="Path 12968" d="M886.346,3690.874l-1.358,1.345c1.545,2.19,3.64,5.508,3.783,9.3a27.678,27.678,0,0,0,1.9,9.768c1.657,3.61,4.569,4.257,8.215,3.272a8.85,8.85,0,0,0,5.873-5.13C902.036,3704.525,888.906,3693.276,886.346,3690.874Z" fill="#e0f5ff" fill-rule="evenodd"/>
        <path id="Path_12969" data-name="Path 12969" d="M908.3,3690.2a36.888,36.888,0,0,1,1.775,4.261c.438,1.3.8,2.64,1.262,4.467l.864-.219c-.469-1.839-.83-3.2-1.283-4.533a37.723,37.723,0,0,0-1.817-4.36Z" fill="#403e3e" fill-rule="evenodd"/>
        <path id="Path_12970" data-name="Path 12970" d="M886.894,3698.338c-1.713.863-5.8,10.51-7.4,8.272-3.622-5.068-5.49-11.369-.244-16.032a55.547,55.547,0,0,1,8.482-6.145l-.1,3.677c-1.4,1.364-2.685,2.754-4.294,4.126C884.87,3694.405,886,3695.739,886.894,3698.338Z" fill="#c3e6f7" fill-rule="evenodd"/>
        <path id="Path_12971" data-name="Path 12971" d="M895.846,3730.228a40.312,40.312,0,0,1-.616,13.036c-.935,3.5-3.517,7.42-5.187,11.865-2.766,7.364.532,15.5,3.236,37.806a64.164,64.164,0,0,0,14.41-6.388c1.872-10.384,1.541-23.229,2.248-34.571.554-8.885.942-24.058-2.663-35.92-2.772,2.951-5.743,4.239-8.093,5.521C894.022,3724.39,895.354,3724.949,895.846,3730.228Z" fill="#e0f5ff" fill-rule="evenodd"/>
        <path id="Path_12972" data-name="Path 12972" d="M914.474,3711.826c-1.184.522-2.191.967-3.392,1.446.232,5.115.445,9.864,1.1,14.439.624,4.354,1.063,7.549,1.351,10.589a307.266,307.266,0,0,1,.347,45.2,25.742,25.742,0,0,0,4.371-3.638c-.215-12.6,1.024-31.907-1.613-43.724-.844-3.782-1.9-6.649-2.644-10.459C913.328,3722.274,914.5,3718.522,914.474,3711.826Z" fill="#e0f5ff" fill-rule="evenodd"/>
        <path id="Path_12973" data-name="Path 12973" d="M909.43,3684.337l-2.172,1.794,2.738.9c.82,6.484.909,11.837.091,21.166-.814-8.193-2.314-15.957-5.77-22.919a9.17,9.17,0,0,0-7.257-5.5l2.894-1.3C904.5,3677.635,907.562,3680.414,909.43,3684.337Z" fill="#ebf9ff" fill-rule="evenodd"/>
        <g id="Group_6382" data-name="Group 6382">
          <path id="Path_12974" data-name="Path 12974" d="M888.169,3685.784c-5.516,4.476-1.67,9.692,4.924,18.634l.454.614.717-.526-.453-.614c-6.277-8.513-9.938-13.477-5.081-17.419Z" fill="#403e3e" fill-rule="evenodd"/>
          <path id="Path_12975" data-name="Path 12975" d="M902.871,3711.9q-.765-1.224-1.474-2.215a19.636,19.636,0,0,0-4.495-4.808c-1.39-.949-2.532-1.1-3.315-.61v0c-.026.016-.055.036-.087.058-.831.593-1.178,1.892-.645,4.141a32.709,32.709,0,0,0,3.112,7.42l.784-.418a31.917,31.917,0,0,1-3.029-7.2c-.435-1.837-.245-2.83.293-3.215l.042-.027h0c.477-.3,1.277-.136,2.344.593a18.772,18.772,0,0,1,4.271,4.588q.711,1,1.447,2.169Z" fill="#403e3e" fill-rule="evenodd"/>
          <g id="Group_6381" data-name="Group 6381">
            <path id="Path_12976" data-name="Path 12976" d="M902.076,3711.3h0a.926.926,0,0,0-.356,1.257l.555.96a.926.926,0,0,0,1.257.357h0a.926.926,0,0,0,.357-1.257l-.555-.961A.926.926,0,0,0,902.076,3711.3Z" fill="#141414" fill-rule="evenodd"/>
            <path id="Path_12977" data-name="Path 12977" d="M895.861,3714.777h0a.927.927,0,0,0-.357,1.258l.555.96a.927.927,0,0,0,1.258.357h0a.927.927,0,0,0,.356-1.257l-.555-.961A.927.927,0,0,0,895.861,3714.777Z" fill="#141414" fill-rule="evenodd"/>
          </g>
        </g>
        <path id="Path_12978" data-name="Path 12978" d="M885.711,3687.167c-.894,3.078.724,6.055,3.336,10.021l3.244-.9-1.09,3.267c7.248,3.528,10.242,5.733,14.831,11.223-5.918-11.969-15.143-16.58-17.011-23.389a5.821,5.821,0,0,1-.227-2.548c.069-.4.983-1.238,1.134-1.528a6.658,6.658,0,0,0,.465-1.128C890.4,3682.165,886.569,3684.215,885.711,3687.167Z" fill="#ebf9ff" fill-rule="evenodd"/>
        <g id="Group_6383" data-name="Group 6383">
          <path id="Path_12979" data-name="Path 12979" d="M912.176,3697.882c-1.435.149-2.429,1.9-2.22,3.9s1.542,3.508,2.977,3.358,2.429-1.9,2.22-3.9S913.612,3697.732,912.176,3697.882Z" fill="#736f6f" fill-rule="evenodd"/>
          <path id="Path_12980" data-name="Path 12980" d="M912.2,3698.132c-1.336.14-2.262,1.764-2.068,3.63.192,1.838,1.4,3.224,2.71,3.132-1.222-.071-2.3-1.4-2.483-3.133-.2-1.866.73-3.49,2.067-3.63l.061-.005A1.848,1.848,0,0,0,912.2,3698.132Z" fill="#b8b6b6" fill-rule="evenodd"/>
          <path id="Path_12981" data-name="Path 12981" d="M912.3,3699.086c-.959.1-1.623,1.267-1.483,2.6s1.029,2.343,1.988,2.244,1.623-1.266,1.484-2.6S913.261,3698.986,912.3,3699.086Z" fill="#4a4848" fill-rule="evenodd"/>
          <path id="Path_12982" data-name="Path 12982" d="M912.328,3699.336c-.86.09-1.456,1.136-1.33,2.337s.924,2.1,1.783,2.011,1.455-1.135,1.33-2.336S913.188,3699.247,912.328,3699.336Z" fill="#736f6f" fill-rule="evenodd"/>
          <path id="Path_12983" data-name="Path 12983" d="M912.438,3700.392c-.442.046-.749.584-.684,1.2s.475,1.081.917,1.034.748-.584.684-1.2S912.88,3700.347,912.438,3700.392Z" fill="#454242" fill-rule="evenodd"/>
          <path id="Path_12984" data-name="Path 12984" d="M912.344,3699.492c-.8.084-1.35,1.055-1.234,2.169s.838,1.929,1.625,1.87a1.966,1.966,0,0,1-1.386-1.861c-.117-1.114.436-2.085,1.234-2.169l.03,0A1.1,1.1,0,0,0,912.344,3699.492Z" fill="#b8b6b6" fill-rule="evenodd"/>
        </g>
        <g id="Group_6384" data-name="Group 6384">
          <path id="Path_12985" data-name="Path 12985" d="M907.965,3665.9l-5.76-1.566-.632-9.154,2.08-7.329C911.4,3649.974,911.867,3664.059,907.965,3665.9Z" fill-rule="evenodd"/>
          <path id="Path_12986" data-name="Path 12986" d="M909.626,3675.2c1.319,6.213-.052,11.842-3.338,17.564-.786-2.693-4.381-9.745-2.432-15.9Z" fill-rule="evenodd"/>
        </g>
        <g id="Group_6385" data-name="Group 6385">
          <path id="Path_12987" data-name="Path 12987" d="M890.983,3682.846c-.951,3.731,9.288,8.82,12.915,5.911.713-4.445.059-7.659,3-12.064l-10.285-5.45-2.594-1.495C894.77,3675.6,893.484,3678.178,890.983,3682.846Z" fill="#9e6d4c" fill-rule="evenodd"/>
          <path id="Path_12988" data-name="Path 12988" d="M890.983,3682.846a.746.746,0,0,0-.037.194c5.584-4.821,10.182-2.374,14.135-3.22a13.171,13.171,0,0,1,.66-1.21c.443-.914.567-.742,1.153-1.917l-10.285-5.45-2.594-1.495C894.77,3675.6,893.484,3678.178,890.983,3682.846Z" fill="#8f6142" fill-rule="evenodd"/>
        </g>
        <g id="Group_6389" data-name="Group 6389">
          <g id="Group_6387" data-name="Group 6387">
            <path id="Path_12989" data-name="Path 12989" d="M905.564,3678.741c-3.1-1.025-7.713-2.351-9.539-3.245-1.665-.814-1.165-2.9-1.609-3.336a10.573,10.573,0,0,1-1.418-2.772c-2.9-1.118-4.294-2.282-4.916-3.793-1.478-3.588-.39-8.143,1.887-11.066a10.2,10.2,0,0,1,8.1-3.951c4.68-.17,7.587.467,9.558,3.612.807,1.286,1.08,3.869,2.046,5.767.717.614.093,2.59.02,3.715-.123,1.882,1,1.1,1.346,2.921.311,1.622-.157,3.622-.233,7.088a11.974,11.974,0,0,1-.2,3.023c-.25.723-1.835,1.673-2.534,1.951A3.462,3.462,0,0,1,905.564,3678.741Z" fill="#ad7c5b" fill-rule="evenodd"/>
            <path id="Path_12990" data-name="Path 12990" d="M905.564,3678.741c-3.1-1.025-7.713-2.351-9.539-3.245-1.665-.814-1.165-2.9-1.609-3.336a10.573,10.573,0,0,1-1.418-2.772c-2.9-1.118-4.294-2.282-4.916-3.793-1.478-3.588-.39-8.143,1.887-11.066a10.2,10.2,0,0,1,8.1-3.951c4.68-.17,7.587.467,9.558,3.612.57,2.457-8.7,8.139-8.011,10.215.2.6-.413,2.732-.41,3.108.017,2.214,2.511,1.819,2.775,2.814.27,1.018-2.281,1.71-1.128,4.366.322.745,2.753,2.959,6.142,4.167.025.018.056.037.084.054A3.447,3.447,0,0,1,905.564,3678.741Z" fill="#9e6d4c" fill-rule="evenodd"/>
            <g id="Group_6386" data-name="Group 6386">
              <path id="Path_12991" data-name="Path 12991" d="M893.521,3674.212c-7.118-1.412-10.709-5.786-11.047-11.73a21.67,21.67,0,0,1,1.438-8.44c1.418-3.59,7.678-7.45,12.1-7.442,1.7,0-4.9,2.1-2.646,2.863l-.505,15.244,1.3,8.473Z" fill="#1d1e24" fill-rule="evenodd"/>
              <path id="Path_12992" data-name="Path 12992" d="M907.455,3650.792c-4.187,13.459-15.073,16.734-14.765,19.535.239,2.169-4.488-1-5.776-2.814a13.945,13.945,0,0,1,.988-17C893.189,3644.592,903.732,3645.613,907.455,3650.792Z" fill="#1d1e24" fill-rule="evenodd"/>
              <path id="Path_12993" data-name="Path 12993" d="M893.617,3674.3c-4.25-1.728-7.793-1.038-9.8-5.751a19.3,19.3,0,0,1-.089-14.065,15.18,15.18,0,0,0,.466,8.735c-.06-3.031.661-4.478,2.178-7.486a22.169,22.169,0,0,0-.676,7.561c.281-2.266,1.737-5.876,2.94-6.85a10.719,10.719,0,0,0-.8,8.739c-.113-2.848,1.194-6.937,3.083-8.237-.811,1.364-1.713,4.5-1.274,6.256.831-2.453.768-2.925,2.707-5.457a14.739,14.739,0,0,0-1.058,5.492c.756-1.688,1.316-3.224,2.37-5.133-.346,1.258-1.1,5.4-.771,6.61.277-.792,3.411-4.371,4.792-5.786-1.173,2.624-2.531,5.442-3.954,6.818-.148.447,5.891-3.316,12.039-11.523-2.7,6.526-7.943,9.568-12.314,14.283l.391,2.548A8.37,8.37,0,0,1,893.617,3674.3Z" fill-rule="evenodd"/>
              <path id="Path_12994" data-name="Path 12994" d="M882.5,3661.482c-.584,3.962-.618,16.517,7.873,21.83,2.056-1.033,4.162-8.386,4.317-10.125C886.431,3667.994,887.636,3670.971,882.5,3661.482Z" fill-rule="evenodd"/>
              <path id="Path_12995" data-name="Path 12995" d="M907.445,3650.73c-1.252-2.669-7.806-5.062-13.428-3.906-3.9.8-7.576,3.005-9.179,5.868a19.268,19.268,0,0,1,8.675-4.918c-1.968.675-6.168,2.808-7.522,6.22a13.324,13.324,0,0,1,7.912-5.433c-3.054,1.549-3.685,2.565-5.259,5.01a19.141,19.141,0,0,1,6.557-4.6,9.277,9.277,0,0,0-4.031,5.093c2.376-2.623,2.4-3.493,5.806-4.712a22.186,22.186,0,0,0-4.314,5.52,42.221,42.221,0,0,1,6.065-4.779,25.449,25.449,0,0,0-3.556,5.036,24.35,24.35,0,0,1,5.762-4.661,27.321,27.321,0,0,0-5.216,7.019,49.751,49.751,0,0,1,6.258-6.157c-1.321,2.253-2.276,3.574-3.622,5.831a47.27,47.27,0,0,0,6.1-6.361c-1.152,1.977-4.649,7.6-6.145,9.526a68.593,68.593,0,0,0,7.291-8.887,14.3,14.3,0,0,1-3.231,6.283A20.85,20.85,0,0,0,907.445,3650.73Z" fill="#2c2e38" fill-rule="evenodd"/>
            </g>
          </g>
          <g id="Group_6388" data-name="Group 6388">
            <path id="Path_12996" data-name="Path 12996" d="M891.657,3665.585c-2.6-.592-2.315,2.311-1.742,4.03.394,1.18,1.383.987,1.845,1.9a2.293,2.293,0,0,0,2.239,1.43c1.526-.2.342-2.375.065-3.259C894.088,3668.192,893.309,3665.962,891.657,3665.585Z" fill="#9e6d4c" fill-rule="evenodd"/>
            <path id="Path_12997" data-name="Path 12997" d="M893.1,3668.906a4.472,4.472,0,0,0-1.43-2.156c-.33-.2-1.444-.552-1.447.988.171-1.269,1.039-.916,1.371-.667A7.573,7.573,0,0,1,893.1,3668.906Z" fill="#8f6142" fill-rule="evenodd"/>
          </g>
        </g>
        <g id="Group_6390" data-name="Group 6390">
          <path id="Path_12998" data-name="Path 12998" d="M880.957,3740.278a6.356,6.356,0,0,0,2.874-.539,1.227,1.227,0,0,0,.363-1.467c-.315-1.095-4.867-2.371-6.486-2.811-2.383-.647-3.08,1.641-1.032,3.369-3.064.373-1.987,2.02.053,3.123,1.657.9,5.253,1.655,5.783.493C882.69,3742.055,881.574,3741.1,880.957,3740.278Z" fill="#171e29" fill-rule="evenodd"/>
        </g>
        <g id="Group_6391" data-name="Group 6391">
          <path id="Path_12999" data-name="Path 12999" d="M875.768,3753.429c1.774,4.6.69,11.879,1.149,12.8.387.783,5.119,2.8,6.569,3.453.451.182,3.173-1.33,3.125-1.544-.932-.5-1.614-.97-1.823-1.548-.111-.639-.76-2.5.018-3.193.2-.173.677,1.536,1.581,2.537.173,1.309,1.3,3.975,2.992,2.588-.222-.907-.777-3.594-1.041-4.258-.538-1.36-1.992-5.431-3.281-6.505-.89-.741-1.718-1.46-2.452-4.378Z" fill="#ad7c5b" fill-rule="evenodd"/>
          <path id="Path_13000" data-name="Path 13000" d="M875.768,3753.429c1.774,4.6.512,11.82,1.208,12.865.483.726,5.06,2.742,6.51,3.393-1.807-1.954-.362-8.194-3.7-16.284Z" fill="#9e6d4c" fill-rule="evenodd"/>
          <path id="Path_13001" data-name="Path 13001" d="M877.517,3693.244c-4.734,5.4-5.385,23.5-6.3,35.128,1.431,9.528,2.412,16.172,4,25.178.08.457.814.92.835,1.019q.211.972.444,1.989c1.988,1.926,6.025,1.2,6.84-1a21.988,21.988,0,0,1-.361-2.32c-.012-.139.5-.936.51-1.075.17-2.685-.561-15.972-2.659-24.119,1.255-6.848,3.993-18.929,4.055-25.289.05-4.9-1.169-8.737-4.547-10.048A2.365,2.365,0,0,0,877.517,3693.244Z" fill="#d2eefc" fill-rule="evenodd"/>
          <path id="Path_13002" data-name="Path 13002" d="M881.252,3757.381a6.523,6.523,0,0,1-.834-3.569,24.473,24.473,0,0,1,2.586-.3c.073.694.2,1.3.335,2.043a3.276,3.276,0,0,1-2.087,1.827Zm-1.069-4.99c-1.079-8.214-2.323-16.611-3.232-24.855,1.568-11.326,3.267-22.352,5.208-33.619l.051-.047c1.967,1.828,2.713,5.026,2.674,8.881-.063,6.36-2.8,18.441-4.055,25.289,2.1,8.147,2.829,21.434,2.659,24.119a4.09,4.09,0,0,1-.325.652A6.842,6.842,0,0,0,880.183,3752.391Z" fill="#e0f5ff" fill-rule="evenodd"/>
          <path id="Path_13003" data-name="Path 13003" d="M877.517,3693.244c-4.734,5.4-5.385,23.5-6.3,35.128,1.431,9.528,2.412,16.172,4,25.178.08.457.814.92.835,1.019q.211.972.444,1.989a4.377,4.377,0,0,0,3.211,1.11,24.079,24.079,0,0,1-.947-3.718c.7-.516,2.287-.648,3.889-.781a11.943,11.943,0,0,0-4.165.069c-.875-8.324-2.061-16.966-3.466-25.289,2.219-11.488,1.766-24.531,6.311-34.707-.01-.006,0-.019.012-.036a6.034,6.034,0,0,0-1.007-.5A2.365,2.365,0,0,0,877.517,3693.244Z" fill="#c3e6f7" fill-rule="evenodd"/>
        </g>
      </g>
    </g>
    <g id="Group_6452" data-name="Group 6452">
      <g id="Group_6438" data-name="Group 6438">
        <path id="Path_13280" data-name="Path 13280" d="M858.877,3904.282c1.156-.154,2.031-2.4,6.433-1.842,5.646.718,11.609-2.794,15.373-.658,1.847,1.048,2.592,3.19,1.03,6.123a7.752,7.752,0,0,1-3.59,3.623,69.217,69.217,0,0,1-6.936,2.73c-1.314.442-3.424.256-5.01.912a9.477,9.477,0,0,0-2.18,1.382c-1.656,1.063-4.471,2.435-6.622.405-1.687-1.592-2.146-2.131-2.475-4.775-.265-2.136-.758-4.731.71-7.649Z" fill="#d2eefc" fill-rule="evenodd"/>
        <path id="Path_13281" data-name="Path 13281" d="M880.112,3901.507a4.731,4.731,0,0,1,.571.275c1.847,1.048,2.592,3.19,1.03,6.123a7.752,7.752,0,0,1-3.59,3.623,69.217,69.217,0,0,1-6.936,2.73c-1.314.442-3.424.256-5.01.912a9.477,9.477,0,0,0-2.18,1.382c-1.656,1.063-4.471,2.435-6.622.405-1.421-1.341-1.97-1.934-2.3-3.667,2.548.985,5.487.587,9.5-1.859a10.547,10.547,0,0,1,3.587-.966,22.086,22.086,0,0,0,7.666-2.552C879.019,3906.007,880.179,3903.559,880.112,3901.507Z" fill="#c3e6f7" fill-rule="evenodd"/>
        <path id="Path_13282" data-name="Path 13282" d="M880.736,3901.813c1.808,1.058,2.525,3.187.977,6.092a7.752,7.752,0,0,1-3.59,3.623,69.217,69.217,0,0,1-6.936,2.73c-1.314.442-3.424.256-5.01.912a9.477,9.477,0,0,0-2.18,1.382c-1.656,1.063-4.471,2.435-6.622.405-.3-.289-.571-.542-.8-.78,2.542.975,5.477.571,9.475-1.866a10.532,10.532,0,0,1,3.587-.966,22.086,22.086,0,0,0,7.666-2.552C882.031,3907.973,882.307,3903.965,880.736,3901.813Z" fill="#b4dcf0" fill-rule="evenodd"/>
        <path id="Path_13283" data-name="Path 13283" d="M868.762,3908.5c.209-1.6,1.065-4.095-.063-5.413,5.507-1.129,9.12-1.954,10.1-1.38.793.466-.183,2.757-1.77,3.89C875.126,3906.956,872.479,3907.589,868.762,3908.5Z" fill="#e0f5ff" fill-rule="evenodd"/>
      </g>
      <g id="Group_6439" data-name="Group 6439">
        <path id="Path_13284" data-name="Path 13284" d="M868.035,3909.091c1.156-.155,2.031-2.4,6.433-1.843,5.646.718,11.609-2.794,15.373-.658,1.847,1.049,2.592,3.19,1.03,6.123a7.75,7.75,0,0,1-3.59,3.623,68.86,68.86,0,0,1-6.936,2.73c-1.314.442-3.424.256-5.01.912a9.437,9.437,0,0,0-2.18,1.383c-1.656,1.062-4.471,2.434-6.622.4-1.687-1.592-2.146-2.131-2.475-4.774-.265-2.136-.758-4.731.71-7.65Z" fill="#d2eefc" fill-rule="evenodd"/>
        <path id="Path_13285" data-name="Path 13285" d="M889.27,3906.315a4.928,4.928,0,0,1,.571.275c1.847,1.049,2.592,3.19,1.03,6.123a7.75,7.75,0,0,1-3.59,3.623,68.86,68.86,0,0,1-6.936,2.73c-1.314.442-3.424.256-5.01.912a9.437,9.437,0,0,0-2.18,1.383c-1.656,1.062-4.471,2.434-6.622.4-1.421-1.341-1.97-1.934-2.3-3.667,2.548.985,5.487.587,9.5-1.859a10.526,10.526,0,0,1,3.586-.965,22.082,22.082,0,0,0,7.667-2.553C888.177,3910.816,889.337,3908.367,889.27,3906.315Z" fill="#c3e6f7" fill-rule="evenodd"/>
        <path id="Path_13286" data-name="Path 13286" d="M889.894,3906.621c1.808,1.058,2.525,3.187.977,6.092a7.75,7.75,0,0,1-3.59,3.623,68.86,68.86,0,0,1-6.936,2.73c-1.314.442-3.424.256-5.01.912a9.437,9.437,0,0,0-2.18,1.383c-1.656,1.062-4.471,2.434-6.622.4-.3-.289-.571-.542-.8-.78,2.542.975,5.477.571,9.475-1.866a10.531,10.531,0,0,1,3.587-.966,22.085,22.085,0,0,0,7.666-2.552C891.189,3912.781,891.465,3908.773,889.894,3906.621Z" fill="#b4dcf0" fill-rule="evenodd"/>
        <path id="Path_13287" data-name="Path 13287" d="M877.92,3913.311c.209-1.6,1.065-4.095-.063-5.412,5.507-1.13,9.12-1.955,10.1-1.381.793.467-.183,2.757-1.77,3.89C884.284,3911.764,881.637,3912.4,877.92,3913.311Z" fill="#e0f5ff" fill-rule="evenodd"/>
      </g>
      <g id="Group_6451" data-name="Group 6451">
        <g id="Group_6440" data-name="Group 6440">
          <path id="Path_13288" data-name="Path 13288" d="M873.705,3806.624c-1.063-9.315-4.629-9.846-7.882-17.6l-8.114,1.108c-4.7,9.02-8.062,23.966-3.983,33.351,1.075,10.022,3.641,20.412,2.619,30.425-1.289,12.614-3.831,16.011-3.908,23.268-.067,6.319,2.512,16.334,3.45,23.255a34.442,34.442,0,0,1,.368,5.369,46.185,46.185,0,0,0,8.556,3.738,44.467,44.467,0,0,1-.069-11.211c.479-4.085,1.319-10.277,2.2-16.136,1.021-6.783.852-17.92,1.094-21.38.308-4.4,1.187-3.643,1.7-6.154.486-2.378,1.233-5.179,1.652-6.855C875.18,3832.7,875.179,3819.533,873.705,3806.624Z" fill="#ad7c5b" fill-rule="evenodd"/>
          <path id="Path_13289" data-name="Path 13289" d="M855.333,3907.718c-.939-6.921-2.963-24.219-2.9-30.538.077-7.257,2.25-10.654,3.538-23.268,1.024-10.013-1.666-20.65-2.741-30.672l.018-2.391c-3.383-9.963.455-23.193,4.458-30.713l8.113-1.108c3.253,7.75,6.819,8.281,7.882,17.6,1.474,12.909,1.475,26.072-2.316,41.182-.419,1.676-1.166,4.477-1.652,6.855-.513,2.511-1.392,1.759-1.7,6.154-.242,3.46-.074,14.6-1.094,21.38-.881,5.859-1.255,22.138-1.341,26.248C865.406,3913.009,858.289,3911.168,855.333,3907.718Z" fill="#16242e" fill-rule="evenodd"/>
          <path id="Path_13290" data-name="Path 13290" d="M853.369,3824.436c-.048-.4-.34-3.259-.382-3.657-4.447-10,.51-22.73,4.723-30.643l8.113-1.108c3.253,7.75,6.819,8.281,7.882,17.6,1.474,12.909,2.83,25.457-.962,40.567-1.234,4.921-3.5,12.316-4.216,17.3-.7,4.856-.81,12.558-1.584,17.7-.881,5.859-1.255,22.138-1.341,26.248-.121,2.845-2.93,3.2-5.745,2.234-.09-13.725-.825-32.464-.051-40.62.692-7.3,1.89-7.741,3.2-14.935,1.793-9.842,2.783-13.789,2.869-24.125A45.042,45.042,0,0,1,853.369,3824.436Z" fill="#0b141a" fill-rule="evenodd"/>
          <path id="Path_13291" data-name="Path 13291" d="M862.04,3917.091" fill="#0b141a" fill-rule="evenodd"/>
          <path id="Path_13292" data-name="Path 13292" d="M854.384,3826.828c3.461,3.36,5.955,4.4,9.844,4.984-1.118,9.424-1.031,16.624-2.958,24.159-5.2,20.309-3.948,29.779-2.7,52.225l-2.215-1.354c-2.894-24.626-2.912-32.5.894-50.473C859.254,3846.894,856.9,3840.377,854.384,3826.828Z" fill="#263745" fill-rule="evenodd"/>
        </g>
        <g id="Group_6442" data-name="Group 6442">
          <g id="Group_6441" data-name="Group 6441">
            <path id="Path_13293" data-name="Path 13293" d="M860.976,3933.014" fill="#0b141a" fill-rule="evenodd"/>
          </g>
          <path id="Path_13294" data-name="Path 13294" d="M881.176,3861.443c-.565-10.1-5.033-20.426-8.139-30.024-13.378-8.12-11.334-21.4-5.7-30.613l14.228-4.766c4.4,7.016,8.1,6.81,10.6,15.807,3.465,12.469,5.574,25.095,4.223,40.786-.149,1.74-.443,4.658-.546,7.1C893.7,3871.594,881.868,3869.148,881.176,3861.443Z" fill="#16242e" fill-rule="evenodd"/>
          <path id="Path_13295" data-name="Path 13295" d="M863.458,3909.535c1.39-6.811,5.72-28.339,7.873-34.29,2.373-6.557,6.9-9.4,9.686-16.616q.322-.681.66-1.4c2.459-4.919,14.213-4.641,14.253.467.035,4.576-1.266,6.723-4.309,11.552-1.375,3.2-5.366,12.659-8.217,18.951a162.4,162.4,0,0,0-8.113,22.931C872.922,3915.943,864.108,3914.029,863.458,3909.535Z" fill="#16242e" fill-rule="evenodd"/>
          <path id="Path_13296" data-name="Path 13296" d="M872.14,3830.85c-12.382-8.162-10.307-21.041-4.8-30.044l14.228-4.766c4.4,7.016,8.1,6.81,10.6,15.807,3.465,12.469,5.574,25.095,4.223,40.786-.119,1.386-.329,3.522-.462,5.569-.008.524-.036,1.017-.083,1.486v.05l-.007.032c-.347,3.274-1.673,5.437-4.216,9.473-1.375,3.2-5.366,12.659-8.217,18.951a162.4,162.4,0,0,0-8.113,22.931c-1.241,2.523-4.247,3.2-6.925,2.627,2.608-13.608,5.96-25.669,11.249-37.281,2.236-4.909,4.379-7.761,7.536-13.217,1.936-3.347,1.873-2.7,1.64-6.586a209.532,209.532,0,0,0-3.143-24.6A26.928,26.928,0,0,1,872.14,3830.85Z" fill="#0b141a" fill-rule="evenodd"/>
          <path id="Path_13297" data-name="Path 13297" d="M884.572,3833.546c-3.521,1.243-7.62.415-10.239-.492,3.062,8.639,5.881,16.1,8.056,25.89-.836,3.985-6.481,9.522-8.312,13.421-4.384,9.335-5.129,16.917-9.736,36.6.7,1.745,1.32,1.82,2.767,2.552,4.727-17.539,6.037-25.635,11.189-36.152a90.166,90.166,0,0,1,9.381-15.565C886.653,3851.009,885.775,3842.32,884.572,3833.546Z" fill="#263745" fill-rule="evenodd"/>
        </g>
        <g id="Group_6443" data-name="Group 6443">
          <path id="Path_13298" data-name="Path 13298" d="M855.4,3738.33c4.718.531,6.16,12.616,9.529,25.66l12.975,25.628c1.091,3.068-3.95,7.13-6.885,5.349l-14.137-25.288c-1.822-5.257-3.836-11.187-5.412-16.539a27.129,27.129,0,0,1-1.275-9.371C850.4,3740.668,852.039,3737.95,855.4,3738.33Z" fill="#001e30" fill-rule="evenodd"/>
          <path id="Path_13299" data-name="Path 13299" d="M855.876,3738.426c4.341,1.273,5.8,12.971,9.051,25.564l12.975,25.628c.978,2.749-2.969,6.3-5.913,5.721-1.447-10.167-6.038-15.806-11.623-24.869C855.648,3759.2,856.316,3749.907,855.876,3738.426Z" fill="#001624" fill-rule="evenodd"/>
        </g>
        <path id="Path_13300" data-name="Path 13300" d="M857.1,3791.082c-4.332,6.887-7.005,21.127-5.793,29.14,3.7,4.135,27.258,17.935,41.639,2.082-.01-.159-.018-.317-.026-.477-.419-5.319-.042-14.867-1.9-20.024-1.5-4.154-3.555-6.814-4.914-11.044.011-.014.021-.029.03-.043a32.841,32.841,0,0,1-1.287-8.25c-.038-4.171,2.188-8.1,2.541-12.225,4.04-5.909,5.185-10.672,3.951-13.483-3.536-8.061-25.731-17.945-34.316-18.915-9.683-1.1-9.68,15.595-5.6,22.749,4.018,7.043,6.681,13.438,7.07,21.082C858.731,3786.141,858.651,3787.157,857.1,3791.082Z" fill="#1c2933" fill-rule="evenodd"/>
        <path id="Path_13301" data-name="Path 13301" d="M881.969,3829c3.908-.993,10.02-4.172,13.315-7.8-1.541-5.942-2.381-14.172-4.26-19.394-1.5-4.154-3.555-6.814-4.914-11.044.011-.014.021-.029.03-.043a32.841,32.841,0,0,1-1.287-8.25c-.038-4.171,2.188-8.1,2.541-12.225,4.04-5.909,5.185-10.672,3.951-13.483-3.536-8.061-25.731-17.945-34.316-18.915a6.1,6.1,0,0,0-4.413,1.046c6.94-.67,19.542,6.508,28.113,11.593-9.01,13.317-4.357,30.73-1.328,45.319C881.933,3808.013,883.441,3817.128,881.969,3829Z" fill="#111c24" fill-rule="evenodd"/>
        <path id="Path_13302" data-name="Path 13302" d="M888.762,3796.338c-.725-1.644-1.448-3.284-2.072-4.96-.047-.127-7.516-1.284-8.5-1.281.407,1.938.82,3.844,1.207,5.7q.335,1.614.643,3.161C882.832,3799.546,889.586,3798.262,888.762,3796.338Z" fill="#001624" fill-rule="evenodd"/>
        <path id="Path_13303" data-name="Path 13303" d="M859.835,3740.429l8.954,5.262,6.907-.184.925,4.086a53.037,53.037,0,0,1-5.194,3.439c-.606.108-13.782-.139-13.782-.139l-2.906-8.48,2.977-3.6Z" fill="#1c2933" fill-rule="evenodd"/>
        <path id="Path_13304" data-name="Path 13304" d="M861.838,3738.19c.328,2.978,9.054,4.813,13.9,3.436l.108-.583a10.378,10.378,0,0,1,3.009,4.592c-4.268,4.113-17.627,2.193-19.265-2.624C859.2,3741.858,860.818,3739.705,861.838,3738.19Z" fill="#e4ebf0" fill-rule="evenodd"/>
        <path id="Path_13305" data-name="Path 13305" d="M857.453,3744.042c3.75,4.059,9.043,4.985,15.115,5.767,7.208.93,3.233,3.768,1.839,9.051-2.44,9.257-1.938,17.752-.292,26.258,3.537,18.281,4.836,21.968,5.372,41.68a32.848,32.848,0,0,1-27.32-8.122c1.466-20.754,8.359-29.56,7.822-36.055-1.3-15.737-9.873-21.362-9.067-34.634C851.277,3742.17,853.544,3739.813,857.453,3744.042Z" fill="#2a3c4a" fill-rule="evenodd"/>
        <g id="Group_6447" data-name="Group 6447">
          <g id="Group_6444" data-name="Group 6444">
            <path id="Path_13306" data-name="Path 13306" d="M891.673,3758.3c.563,5.97-1.709,20.807-3.98,30.844-.673,3.707-11.935,5.3-10.533-2.563s3.043-27.389,4.786-30.289a6.246,6.246,0,0,1,5.694-2.832C890.266,3753.716,891.446,3755.913,891.673,3758.3Z" fill="#1c2933" fill-rule="evenodd"/>
            <path id="Path_13307" data-name="Path 13307" d="M877.16,3786.586c1.405-7.872,3.043-27.389,4.786-30.289a6.232,6.232,0,0,1,4.445-2.8c.7,2.173-1.827,22.046-4.1,27.46C880.339,3781.909,878.527,3784.156,877.16,3786.586Z" fill="#2a3c4a" fill-rule="evenodd"/>
            <path id="Path_13308" data-name="Path 13308" d="M891.673,3758.3c.379,4.022-.528,12.07-1.855,19.961a47.251,47.251,0,0,1-4.461,1.9c3.468-12.213,4.281-24.916,2.283-26.706C890.266,3753.716,891.446,3755.913,891.673,3758.3Z" fill="#111c24" fill-rule="evenodd"/>
          </g>
          <g id="Group_6446" data-name="Group 6446">
            <path id="Path_13309" data-name="Path 13309" d="M907.753,3768.86a11.5,11.5,0,0,1,.638-3.757c.524-.784,1.842-1.023,5.189-.171,1.014.837-1.5,3.719-1.926,4.332Z" fill="#9e6d4c" fill-rule="evenodd"/>
            <g id="Group_6445" data-name="Group 6445">
              <path id="Path_13310" data-name="Path 13310" d="M912.384,3747.843l-1.829-1.03v37.337l1.829,1.031Z" fill="#240101" fill-rule="evenodd"/>
              <path id="Path_13311" data-name="Path 13311" d="M910.555,3746.813l-20.509,11.661v37.337l20.509-11.661Z" fill="#240101" fill-rule="evenodd"/>
              <path id="Path_13312" data-name="Path 13312" d="M910.534,3747.42l-19.708,11.165.11,36.5,1.763,1,17.835-12.984,1.727-34.693Z" fill="#e6e6e6" fill-rule="evenodd"/>
              <path id="Path_13313" data-name="Path 13313" d="M912.384,3747.843,891.875,3759.5v37.337l20.509-11.661Z" fill="#380303" fill-rule="evenodd"/>
            </g>
            <path id="Path_13314" data-name="Path 13314" d="M905.86,3779.4a8.727,8.727,0,0,1,3.1-.811c1.281-.208,1.877.077,2.914-.683,2.136-1.563,3.874-2.75,4.019-3.854a12.112,12.112,0,0,0-2.178-8.981c-.261-.349-1.858,2.04-3.126,2.529-1.14.442-2.426.367-3.53.93-1.27.647-1.969,2.34-3.771,3.886Z" fill="#9e6d4c" fill-rule="evenodd"/>
            <path id="Path_13315" data-name="Path 13315" d="M913.578,3764.93a7.328,7.328,0,0,1-2.993,2.67c-1.14.442-2.426.367-3.53.93-1.27.647-1.969,2.34-3.771,3.886l.8,1.88.245-.264c1.82-1.49,2.308-2.12,3.242-2.481,2.2-.851,2.845-.484,3.991-1.235a11.2,11.2,0,0,0,3.02-3.2A6.844,6.844,0,0,0,913.578,3764.93Z" fill="#ad7c5b" fill-rule="evenodd"/>
            <path id="Path_13316" data-name="Path 13316" d="M881.545,3782.187l21.08-10.732c3.495-.984,6.069,6.02,4.083,8.75l-19.6,12.473C876.959,3798.042,873.542,3785.3,881.545,3782.187Z" fill="#1c2933" fill-rule="evenodd"/>
            <path id="Path_13317" data-name="Path 13317" d="M881.545,3782.187l21.08-10.732a3.047,3.047,0,0,1,3.254,1.483c-5.914,4.654-20.046,12.33-26.464,15.484C879.173,3785.816,880.534,3783.651,881.545,3782.187Z" fill="#2a3c4a" fill-rule="evenodd"/>
            <path id="Path_13318" data-name="Path 13318" d="M906.731,3774.532c.8,1.952.935,4.33-.023,5.673l-19.6,12.473c-4.886,2.581-8.212.969-9.454-1.747C882.232,3792.938,902.648,3779.216,906.731,3774.532Z" fill="#111c24" fill-rule="evenodd"/>
          </g>
        </g>
        <g id="Group_6450" data-name="Group 6450">
          <g id="Group_6448" data-name="Group 6448">
            <path id="Path_13319" data-name="Path 13319" d="M861.278,3740.663c-1.019,4.291,9.236,8.627,13.256,4.937.742-5.061,1.431-9.525,3.8-14.347l-11.251-4.314-2.918-1.362C865.085,3732.032,864.018,3735.137,861.278,3740.663Z" fill="#9e6d4c" fill-rule="evenodd"/>
            <path id="Path_13320" data-name="Path 13320" d="M883.67,3734.629c-.385.561-4.424-.174-6.131,0-.759,2.993-1.811,6.025-2.905,10.285-.776-4.511-1.283-8.211-10.547-11.421a6.631,6.631,0,0,0-.63-2.922c-1.337-2.161-4.085-4.57-5.057-7.845,1.358-3.254,9.851-2.563,17.9,2.966C879.138,3727.641,880.872,3732.213,883.67,3734.629Z" fill="#8f6142" fill-rule="evenodd"/>
          </g>
          <path id="Path_13321" data-name="Path 13321" d="M883.914,3734.739c-.692.312-4.054-.578-6.233-.987-.671-.126-.941-1.23-1.186-1.667-.106-.191-1.03-5.424-1.088-5.424-5.286.054-10.963,5.506-11.95,3.91-1.337-2.161-4.085-4.57-5.057-7.845-1.555-5.238-.99-11.055,3.893-14.932,5.731-4.552,13.563-3.633,18.4.044,2.331,1.771,3.856,5.861,4.848,8.389.969,1.555-1.392,2.063-1.014,4.85.045.335.978,1.62,1.283,2.4.718,1.822-.858,3.163-.887,5.993C884.9,3731.911,885.264,3734.127,883.914,3734.739Z" fill="#ad7c5b" fill-rule="evenodd"/>
          <path id="Path_13322" data-name="Path 13322" d="M883.729,3734.787c-.974.142-4.022-.655-6.048-1.035-.671-.126-.941-1.23-1.186-1.667-.106-.191-1.03-5.424-1.088-5.424-5.286.054-10.963,5.506-11.95,3.91-1.337-2.161-4.085-4.57-5.057-7.845-1.555-5.238-.99-11.055,3.893-14.932,5.731-4.552,13.563-3.633,18.4.044a11.588,11.588,0,0,1,3.357,4.48l.968,2.694c.245.943-.046,1.946-.853,3.537-1.514,2.983-3.48,4.058-.807,5.228,1.244.546.967,1.343.023,2.055-.976.738-.115,1.362-.445,4.1-.149,1.233-2.17,2.834-1.573,3.571A5.7,5.7,0,0,0,883.729,3734.787Z" fill="#9e6d4c" fill-rule="evenodd"/>
          <g id="Group_6449" data-name="Group 6449">
            <path id="Path_13323" data-name="Path 13323" d="M877.786,3727.561c.481-1.325.076-1.807-.506-1.664a3.763,3.763,0,0,0-2.023,2.449c-.763,2.214.331,5.01,2.468,3.919C878.321,3731.519,877.595,3729.629,877.786,3727.561Z" fill="#9e6d4c" fill-rule="evenodd"/>
            <path id="Path_13324" data-name="Path 13324" d="M877.786,3727.561c.481-1.325.076-1.807-.506-1.664a3.763,3.763,0,0,0-2.023,2.449c-.763,2.214.331,5.01,2.468,3.919-1.838.106-1.666-2.112-1.115-3.479C876.984,3727.858,877.565,3727.2,877.786,3727.561Z" fill="#ad7c5b" fill-rule="evenodd"/>
            <path id="Path_13325" data-name="Path 13325" d="M876.942,3728.16c.514.957.692,1.526.526,1.855-.115.229-.469.49-1.049-.072A3.3,3.3,0,0,1,876.942,3728.16Z" fill="#8f6142" fill-rule="evenodd"/>
          </g>
          <path id="Path_13326" data-name="Path 13326" d="M856.753,3705.116c-1.917.116-1.667,1.91-2.255,2.334-.573.416-2.676.681-2.869,2.387a1.221,1.221,0,0,1-.4.841c-.736.671-1.34.789-1.741,1.759-.466,1.131-.026,1.658-.15,2.115-.155.58-.926,1.046-1.083,1.685-.337,1.376.345,2.188.162,2.581-.321.687-1.26,1.254-1.543,2.221-.363,1.241.663,1.544.886,2.494a1.351,1.351,0,0,1,.025.406,2.785,2.785,0,0,0-.673,1.017c-.338,1.376.733,2.262.549,2.655-.32.686-1,1.316-.85,2.13.24,1.272.966,1.379,1.19,2.328.116.495-.33.632-.188,1.118a6.885,6.885,0,0,0,.514.985c.2.562-.372.787-.455,1.153-.339,1.516.565,1.772.694,2.485.14.775-.268,1.032.047,2.345.348,1.463.7.892,1.163,1.795.455.887-.294,1.329.407,2.112.818.91,1.04.322,1.639.824.46.383.368.912.876,1.33,1.094.9,1.888.181,2.162.516.481.587.73,1.486,1.532,1.7,1.25.334.782-.426,2.156.1.475.18,1.18.875,1.679.957.616.1,1-.27,1.432-.637a5.552,5.552,0,0,1,1.115-.314c.359.023.379.4,1.245.5.557.061.6-.322.921-.461.051-.014.1-.026.143-.042a.839.839,0,0,1,.225,0c.25.026.288.125.619.356a1.816,1.816,0,0,0,1.577.276c.653-.226,1.087-.934,1.576-1.361a.562.562,0,0,0,.28.04c1.211-.109,1.361.432,2.545.208.411-.077.712-.646,1.042-1.142.534.333,1.085.857,1.531.788,1.515-.231,1.457-1.172,2.339-1.055a4.948,4.948,0,0,0,1.859.458,1.657,1.657,0,0,0,1.259-.814c.2-.326.2-.428.4-.544.58-.323,1.252.019,1.841-.311.5-.28.311-1.126,1.082-1.431.739-.293,1.831-1.228,1.209-2.029-.185-.241-.512-.349-.418-.659a1.774,1.774,0,0,0-.21-1.723c-.59-.708-1.409-1.07-.888-1.775a1.806,1.806,0,0,0,.227-2.228,3.347,3.347,0,0,0-.869-.825c-.434-.3-.658-.709.039-1.768.349-.529.123-.873.159-1.481.139-2.226-1.692-1.639-1.441-2.958.1-.55,1.015-1.033,1.058-1.642.037-.541-.538-.92-.554-1.464-.039-1.385,1.2-.616.734-2.2-.107-.364-.934-.479-.938-1.145,0-1.059,1.23-.824,1.2-2.02-.015-.617-1.2-.97-.99-1.691.193-.654,1.042-.665,1.14-1.01.418-1.486-.7-.809-.4-2.207.131-.614.777-1.318.707-1.729-.13-.783-.884-.668-.911-1.452-.038-1.2.632-.777,1-2.527.249-1.181-1.223-1.533-1.062-2.876a2.28,2.28,0,0,0,.208-1.142,1.864,1.864,0,0,0-1.534-1.613c-.769-.109-.765-1.381-1.226-1.676-.365-.235-.92-.257-2.035.039-.348-.124-.265-.7-1.124-1.09s-1.1.132-1.691-.013-.687-.436-.974-.624a1.826,1.826,0,0,0-1.734-.009c-1.213.592-1.168.1-1.923-.206-1.693-.682-2.557.794-3.719,1.151-1,.308-1.379-.666-3.023.826-1.243,1.13-2.619-.161-3.546,1.582-.5.941-.79.815-1.053.981C858.361,3705,858.1,3705.035,856.753,3705.116Z" fill="#1a0e0e" fill-rule="evenodd"/>
          <path id="Path_13327" data-name="Path 13327" d="M847.551,3719.911a3.051,3.051,0,0,0-.681,1.128c-.363,1.241.663,1.544.886,2.494a1.351,1.351,0,0,1,.025.406,2.785,2.785,0,0,0-.673,1.017c-.338,1.376.733,2.262.549,2.654-.32.687-1,1.317-.85,2.131.24,1.272.966,1.379,1.19,2.328.116.495-.33.632-.188,1.118a6.885,6.885,0,0,0,.514.985c.2.562-.372.787-.455,1.153-.339,1.516.565,1.772.694,2.485.14.775-.268,1.032.047,2.345.348,1.463.7.892,1.163,1.795.455.887-.294,1.329.407,2.112.818.91,1.04.322,1.639.824.46.383.368.912.876,1.33,1.094.9,1.888.181,2.162.516.481.587.73,1.486,1.532,1.7,1.25.334.782-.426,2.156.1.475.18,1.18.875,1.679.957.616.1,1-.27,1.432-.637a5.552,5.552,0,0,1,1.115-.314c.359.023.379.4,1.245.5.557.061.6-.322.921-.461.051-.014.1-.026.143-.042a.839.839,0,0,1,.225,0c.25.026.288.125.619.356a1.816,1.816,0,0,0,1.577.276c.653-.226,1.087-.934,1.576-1.361a.563.563,0,0,0,.28.04c1.211-.109,1.361.432,2.545.208.411-.077.712-.646,1.042-1.142.534.333,1.085.857,1.531.788,1.515-.231,1.457-1.172,2.339-1.055a4.948,4.948,0,0,0,1.859.458,1.657,1.657,0,0,0,1.259-.814c.2-.326.2-.428.4-.544.58-.323,1.252.019,1.841-.311.5-.28.311-1.126,1.082-1.431.739-.293,1.831-1.228,1.209-2.029-.185-.241-.512-.349-.418-.659a1.771,1.771,0,0,0-.21-1.722c-.59-.709-1.409-1.071-.888-1.776a1.806,1.806,0,0,0,.227-2.228,3.347,3.347,0,0,0-.869-.825c-.351-.246-.564-.558-.265-1.229-.744-.187-1.287-.974-1.943-1.06-.547-.072-.667.631-1.126,1-.894.711-2.218-.247-2.974-.231s-1.749,1.485-2.4,1.588c-1.241.193-1.908-1.295-2.542-1.212-1.115.146-1.377,1.165-2.485,1.233-.864.052-1.354-1.651-2.337-1.581-.916.063-1.343.7-1.674.643-1.556-.25-1.327-1.389-1.947-1.617-1.365-.5-1.857.276-2.427.189-1.632-.251-.866-1.378-2.349-1.822-1.413-.423-2.567.862-2.93-.568-.671-2.649-2.7-.549-3.16-2.106-.309-1.055.011-2.593-1.087-2.641-1.735-.078-.455-1.248-1.107-2.146-.773-1.059-1.87,0-2.075-2.408Z" fill-rule="evenodd"/>
          <path id="Path_13328" data-name="Path 13328" d="M881.409,3705.129c-.921-.885-1.613-.418-2.168-.808-.721-.507-.18-.7-.835-1.217-.366-.287-.935-.111-1.538-.2a4.437,4.437,0,0,1-1.566-.574c-.566-.392-.887-.579-1.807-1.186-1.625-1.072-1.865.874-3.092.487-1.5-.472-1.765.768-2.757.981-.86.185-1.465-.235-2.443-.127a2.667,2.667,0,0,0-1.677.836c-.485.627-1.212.136-2.117.284-1.585.261-1.66,1.465-2.209,1.975-.6.555-1.4.053-2.371,1.059a3.56,3.56,0,0,0-1.083,1.908,1.276,1.276,0,0,1-.308.914c-.669.782-1.276.978-1.563,2.025-.336,1.219.184,1.7.114,2.189-.084.6-1.027.757-.81,1.782.208.989.357.614.976,1.052.839.595.644,1.521.879,2.523.346,1.476,2.162-.1,2.65,2.407.265,1.356,1.6-.061,2.895.408,1.362.492.546,2.249,2.055,2.569.529.111,1.07-1.339,2.319-.8.567.247.223,1.524,1.662,1.84.307.067.81-.728,1.668-.74.92-.013,1.328,1.949,2.137,1.945,1.038,0,1.3-1.29,2.346-1.368.6-.044,1.055,1.893,2.224,1.777.616-.061,1.706-1.9,2.413-1.871s1.893.989,2.764.372a1.322,1.322,0,0,0,.007-2.341c-.992-.769-.249-.907.078-1.28.262-.3.707-.365.92-1.322.218-.978-.338-1.542-.321-2.381.013-.673.71-1.083.667-1.57-.035-.42-.286-1.227-.264-1.563.06-.932,1.157-1.1.536-1.97-.554-.776-1.15-.845-1.222-1.825-.047-.642,1.313-1.511,1.407-2.16.2-1.351-1.176-1.626-1.27-2.1C880.569,3706.388,881.591,3705.931,881.409,3705.129Z" fill="#241414" fill-rule="evenodd"/>
        </g>
      </g>
    </g>
  </g>
</svg>
