<?xml version="1.0" encoding="UTF-8"?>
<svg width="18px" height="18px" viewBox="0 0 18 18" version="1.1" xmlns="http://www.w3.org/2000/svg" xmlns:xlink="http://www.w3.org/1999/xlink">
    <title>close</title>
    <g id="Mobile" stroke="none" stroke-width="1" fill="none" fill-rule="evenodd">
        <g id="close" fill="#BBBBBB" fill-rule="nonzero">
            <path d="M11.960041,8.99308402 L17.5239498,3.42917518 C18.1387039,2.81442108 18.1387039,1.81775105 17.5239498,1.20395749 L16.7822105,0.462218262 C16.1672643,-0.152727984 15.1705943,-0.152727984 14.5568007,0.462218262 L8.99308402,6.02593495 L3.42917518,0.461065574 C2.81442108,-0.153688525 1.81775105,-0.153688525 1.20395749,0.461065574 L0.461065574,1.2028048 C-0.153688525,1.81775105 -0.153688525,2.81442108 0.461065574,3.42821464 L6.02593495,8.99308402 L0.462218262,14.5568007 C-0.152727984,15.171747 -0.152727984,16.168417 0.462218262,16.7822105 L1.20395749,17.5239498 C1.81871159,18.1387039 2.81538167,18.1387039 3.42917518,17.5239498 L8.99308402,11.960041 L14.5568007,17.5239498 C15.171747,18.1387039 16.168417,18.1387039 16.7822105,17.5239498 L17.5239498,16.7822105 C18.1387039,16.1672643 18.1387039,15.1705943 17.5239498,14.5568007 L11.960041,8.99308402 Z" id="Path"></path>
        </g>
    </g>
</svg>