<svg xmlns="http://www.w3.org/2000/svg" width="105.708" height="313.372" viewBox="0 0 105.708 313.372"><g data-name="Group 7915"><g data-name="Group 7897" fill-rule="evenodd"><path data-name="Path 16504" d="M49.464 86.141c-7.816 4.11-24.382 6.287-35.416 7.088-5.612.408-10.021.328-11.889-3.946-1.772-4.052 2.037-8.3 6.328-9.744 5.085-1.71 11.422-3.228 22.218-6.167 8.6-2.341 16.991.867 20.092 5.174 1.796 2.495 2.499 5.584-1.333 7.595z" fill="#d2eefc"/><path data-name="Path 16505" d="M49.464 86.141c-7.816 4.11-24.382 6.287-35.416 7.088-5.612.408-10.021.328-11.889-3.947-1.244-2.843.262-5.784 2.754-7.784a48.844 48.844 0 0 0 1.592 4.891c.547 1.407.561 2.275 3.847 1.752 14.622-2.329 27.148-4.431 41.062-8.632 1.284 2.288 1.403 4.87-1.95 6.632z" fill="#c3e6f7"/></g><path data-name="Path 16506" d="M28.934 51.379l.372 3.159 3.729 3.3c3.33-.773 5.471-1.83 6.262-2.962.064-.091.158-.181.209-.273 2.244-4.001-7.14-8.302-10.572-3.224z" fill="#8f9ba6" fill-rule="evenodd"/><g data-name="Group 7898" fill-rule="evenodd"><path data-name="Path 16507" d="M51.787 50.372c.93-2.758-3.277-2.685-4.446-2.388-1.707-.093-2.405.344-3.439-.681-1.161-1.151-3 6.378-2.878 6.435.747.08 4.013-1.565 4.7-1.993 1.278-.8 1.294-1.037 2.944-1.249.853-.109 1.721-.059 3.119-.124z" fill="#f1b287"/><path data-name="Path 16508" d="M51.918 49.719c.095-2.091-3.508-2.006-4.577-1.735-1.707-.093-2.405.344-3.439-.681-.713-.707-2.945 3.3 1.058 2.784 1.743-.348 4.124-1.678 6.958-.368z" fill="#e8a476"/><path data-name="Path 16509" d="M28.55 52.608c1.766-1.146 3.011-1.829 3.953-2.525 2.488-1.838.686-4.765 5.348-8.12l5.339-3.842c.7-.5 6.829-.293 8.653.36 1.3.463 6.848 3.111 6.344 3.521-.376.307-2.986.578-5.336 1.186l-5.053 2.337c-4.7 2.705-3.232 5.425-4.8 6.917-2.036 1.944-4.5 2.056-7.577 6.2l-4.748-.751-.816-5.022z" fill="#f1b287"/><path data-name="Path 16510" d="M28.55 52.608c1.766-1.146 3.011-1.829 3.953-2.525 2.488-1.838.686-4.765 5.348-8.12l5.339-3.842c.7-.5 6.829-.293 8.653.36.225.08.576.225 1 .413-1.466 1.615-6.465.184-8.208.881a7.758 7.758 0 0 0-3.853 2.863c-1.671 2.317-1.729 3.783-2.717 5.549a35.94 35.94 0 0 1-4.04 4.845l2.081 5.024q-.331.278-.682.584l-4.748-.751-.816-5.022z" fill="#e8a476"/></g><path data-name="Path 16511" d="M.16 86.986a6.49 6.49 0 0 1 .481-4.184c.649-1.6 2.152-3.244 3.444-5.257 5-7.789 15.286-17.14 25.13-26.594 2.967 4.754 6.808 5.825 10.3 3.644-6.754 9.675-16.494 19.414-23.841 28.34a29.175 29.175 0 0 1-2.975 3.11c-4.409 1.812-11.29 6.16-12.539.941z" fill="#d2eefc" fill-rule="evenodd"/><path data-name="Path 16512" d="M.16 86.986a6.49 6.49 0 0 1 .481-4.184c.649-1.6 2.152-3.244 3.444-5.257 5-7.789 15.286-17.14 25.13-26.594a13.535 13.535 0 0 0 2.064 2.6c-7.4 9.754-17.792 18.806-24.567 29.157-1.017 1.554-1.855 2.277.791 4.246l1.2.893C4.95 89.518 1.069 90.782.16 86.986z" fill="#c3e6f7" fill-rule="evenodd"/><path data-name="Path 16513" d="M43.381 75.479S17.87 87.379 8.36 84.118c7.873-10.294 15.194-18.693 23.9-28.481a7.437 7.437 0 0 0 5.669-.02L15.157 81.784l10.217-3.67z" fill="#e0f5ff" fill-rule="evenodd"/><path data-name="Path 16514" d="M101.377 291.93l-45.805-26.087c-4.993-2.281-12.14-4.1-17.227-1.45-4.635 2.413-12.272 7.35-15.648 9.275-2.564 1.463-11.467 6.8-5.923 9.812 16.312 8.87 32.455 18.845 49.018 27.855 3.132 1.7 7.715 2.32 12.526 1.92a33.162 33.162 0 0 0 13.565-4.04q4.129-2.4 8.123-4.728c3.593-2.092 5.5-4.566 5.687-6.853.184-2.235-1.252-4.304-4.316-5.704z" fill="#231f20" fill-rule="evenodd" opacity=".1" style="mix-blend-mode:multiply;isolation:isolate"/><g data-name="Group 7900" fill-rule="evenodd"><g data-name="Group 7899"><path data-name="Path 16515" d="M43.25 261.852c-.929 3.267-1.164 4.953-2.521 6.855-2.7 3.792-6.695 6.5-12.5 10.618-2.764 1.959-3.348 3.816-.55 5.524 2.2 1.345 7.6.276 10.963-.516 6.32-1.486 8.874-5.289 11.035-6.278l1.637.37c1.339.024 6.6-2.1 7.633-3.477a37.62 37.62 0 0 0 .823-4.9c.2-5.348-.643-4.8-2.074-8.987-4.864.354-9.574.626-14.446.791z" fill="#111214"/><path data-name="Path 16516" d="M25.85 282.4c-.028.845.543 1.663 1.831 2.449 2.205 1.345 7.6.276 10.964-.516 6.319-1.486 8.873-5.289 11.034-6.278l1.637.37c1.339.024 6.6-2.1 7.633-3.477a37.62 37.62 0 0 0 .823-4.9c.2-5.348-.643-4.8-2.074-8.987-2.151.155-4.273.3-6.393.418-.383 3.521.131 9.594-2.766 11.855-3.241 2.527-5.769 3.2-7.934 4.516-6.902 4.195-11.455 7.604-14.755 4.55z"/><path data-name="Path 16517" d="M41.718 267.857c.69 1.018 2.045 1.592 4.285 2.15-3.613 4.074-4.123 3.693-8.977 6.42-2.446 2.8-2.786 3.326-4.347 4.227-1.863 1.077-4.5 2.182-5.6 1.387-.476-.341.164-1.3 2.217-2.786 2.328-1.687 4.7-3.4 6.842-5.179a25.251 25.251 0 0 0 5.58-6.219z" fill="#20232e"/></g><path data-name="Path 16518" d="M61.344 172.495a78.077 78.077 0 0 0 .69-12.482c-3.938-1.575-8.077-3.064-12.07-4.811l.285-.24c-4.232-1.986-7.878-5.071-12.758-7.871-2.042 6.428-2.8 9.307-2.644 14.537a160.924 160.924 0 0 0 2.286 20.676 1129.951 1129.951 0 0 0 2.352 28.877c1.751 18.452 1.537 36.655 2.641 55.075 2.287 3.752 13.317 3.983 17.085-1.292.564-14.572 1.476-26.078 1.063-34.051-.343-6.637-.658-10.461-2.806-16.36 1.432-9.817 3.356-27.887 3.876-42.058z" fill="#001624"/><path data-name="Path 16519" d="M79.743 281.217c.808 2.36 1.546 4.189 1.47 5.674-.078 1.537-.5 3.032-.478 4.975.017 1.668.1 3.085.295 4.972.2 1.931 0 2.844-.851 3.614-1.376 1.254-5.475 3.192-7.419 3.851a7.8 7.8 0 0 1-3.4.457 15.139 15.139 0 0 1-4.559-.831c-.419-.158-.849-1.785-.879-3.2-.064-2.955.2-2.7 1.427-7.389.418-1.6.756-3.127 1.33-5 .716-2.327 1.606-4.375 1.7-6.667l8.655-.337z" fill="#111214"/><path data-name="Path 16520" d="M79.743 281.217c.808 2.36 1.546 4.189 1.47 5.674-.078 1.537-.5 3.032-.478 4.975.017 1.668.1 3.085.295 4.972.2 1.931 0 2.844-.851 3.614-1.376 1.254-5.475 3.192-7.419 3.851a7.8 7.8 0 0 1-3.4.457 15.139 15.139 0 0 1-4.559-.831c-.379-.143-.768-1.491-.86-2.792h.023c2.645.9 5.212 1.262 7.753.021 5.364-2.62 4.666-4.8 4.161-10.979-3.489-.615-4.861-1.237-6.631-3.148 2.975.874 6.173 1.031 7.755-.786l.493-4.921z"/><path data-name="Path 16521" d="M48.489 214.497c3.617 17.095 4.533 29.157 2.223 54.464 3.329-.247 6.722-1.51 8.5-4 .564-14.572 1.476-26.078 1.063-34.051-.343-6.637-.658-10.461-2.806-16.36 1.841-12.623 4.5-38.888 3.934-52.968l-7.555-3.022c-2.291 20.835-3.736 31.578-5.359 55.937z" fill="#00101a"/><path data-name="Path 16522" d="M56.31 179.997c1.4 14.2 4.127 33.93 5.713 44.006 2.883 18.309 3.334 39.776 4.953 58.159 2.5 3.913 11.926 4.719 15.535-.149.156-14.582 1.48-30.908.845-38.867a50.266 50.266 0 0 0-3.942-16.48c.363-11.365 6.293-58.051-1.54-67.212a6.884 6.884 0 0 0-1.474-2.074l-11.411-.891-13.536-1.575a39.226 39.226 0 0 0 .1 16.074 2.552 2.552 0 0 0 .3.663c.129.957.3 1.923.518 2.89.203.889 2.37 3.365 3.939 5.456z" fill="#001e30"/><path data-name="Path 16523" d="M68.698 170.621c1.554 3.6 2.754 9.633 2.826 15.666.195 8.642.838 29.072 1.658 38.8 1.609 19.065 5.241 34.954 2.364 60.27a9.278 9.278 0 0 0 6.965-3.342c.156-14.582 1.48-30.908.845-38.867a50.266 50.266 0 0 0-3.942-16.48c.37-11.59 6.532-59.921-2.02-67.717l-13.034-.891c1.678 4.838 2.208 7.626 4.338 12.561z" fill="#001624"/><path data-name="Path 16524" d="M67.926 287.507c2.5 1.975 1.627 2.839 5.283 3.315a20.5 20.5 0 0 1-2.849 7.125c-.148 1.378-.259 3.186-2.941 3.2-5.008.033-1.534-4.1-1.516-4.257a41.454 41.454 0 0 1 2.023-9.383z" fill="#20232e"/><path data-name="Path 16525" d="M37.98 151.177a35.37 35.37 0 0 0 9.432 6.625c.014 6.462.01 18.431-.232 30.4-.026 7.076-.14 14.282-.446 20.28q-.016.437-.028.875c.6 4.979 2.935 7.79 3.228 15.272a190.078 190.078 0 0 1-2.233 31.434c.048 4 .074 7.995.041 11.975a7.842 7.842 0 0 1-5.3-2.192l-.3-45.314c-.285-7.221-1.4-18.031-2.289-29.15-1.893-13.285-3.729-28.691-1.873-40.205z" fill="#001e30"/><path data-name="Path 16526" d="M63.89 160.754l.033.01a223.158 223.158 0 0 0 6.11 21.521c1.663 14.415 1.24 30.143 1.44 41.258 1.5 20.333 3.2 40.706 4.215 61.065-1.851-.16-5.955-.987-6.938-1.879-1.11-16.578-.914-39.957-2.979-55.537-.422-3.181-3.492-30.2-7.195-45.512-1.24-5.13-4.788-5.034-5.506-7.983-1.558-6.4-1.591-9.992-.95-16.942 3.891 1.461 7.77 2.858 11.77 3.999z" fill="#00263d"/></g><g data-name="Group 7902" fill-rule="evenodd"><path data-name="Path 16527" d="M68.11 80.463c.4 4.739-12.571 10.944-17.514 8.518-.521-.255-.794-1.35-1.116-1.792.3-1.214-.109-1.732-.218-2.967a15.164 15.164 0 0 0-.723-3.958c-.589-1.6-.274-4.928-1.295-8.682l14.795-6.449 3.168-1.68c-1.518 7.386.157 10.82 2.903 17.01z" fill="#e8a476"/><path data-name="Path 16528" d="M68.11 80.463a2.153 2.153 0 0 1-.065.8c-7.013-4.415-11.38-.716-19.6-2.914a54.175 54.175 0 0 0-1.2-6.764l14.795-6.449 3.168-1.68c-1.519 7.383.155 10.817 2.902 17.007z" fill="#db9669"/><g data-name="Group 7901"><path data-name="Path 16529" d="M36.083 146.752a2.082 2.082 0 0 0 .373.9c4.185 5.832 30.439 14.621 35.932 14.165-4.36-37.911 35.344-70.184-7.2-82.681l-12.239 6.737-4.379-.786-.561-5.39c-5.923 5.889-8.662 13.693-9.716 24.544-1.375 14.198 1.604 26.934-2.21 42.511z" fill="#12a8b3"/><path data-name="Path 16530" d="M55.413 157.63c7.278 2.588 14.4 4.4 16.975 4.188-4.36-37.911 35.344-70.184-7.2-82.681l-12.239 6.737-4.379-.786-.561-5.39a28.61 28.61 0 0 0-6.1 8.983l.351.385c3.194-1.012 4.872-2.306 6.519-1.578 1.357.6 2.911 2.736 3.389 6.126 1.93-.483 5.61-1.868 7.523-2.414-7.089 10.573-13.7 33.3-8.74 57.025.623 2.949 3.132 6.36 4.462 9.405z" fill="#06929c"/><path data-name="Path 16531" d="M52.561 87.111c-.708 2.955-.823 2.945-3.513 4.98.332 1.5.547 2.8.763 4.337-4.386 12.721-6.726 23.484-9.3 38.515-.312-15.378.453-27.052 3.787-43.063a9.408 9.408 0 0 1 2.777-1c-.737-3.261-.326-5.364.344-5.759 2.411-.091 3.415.194 5.142 1.99z" fill="#041e2e"/><path data-name="Path 16532" d="M52.561 87.111c-.708 2.955-.823 2.945-3.513 4.98.332 1.5.547 2.8.763 4.337-4.386 12.721-6.726 23.484-9.3 38.515 1.365-18.33 3.774-25.743 7.644-38.265a33.091 33.091 0 0 1-.342-5.331c1.723-1.528 2.464-1.679 2.905-2.728.391-.93-1.534-3.282-1.22-3.468 1.204.348 1.336.164 3.063 1.96z" fill="#020d14"/><path data-name="Path 16533" d="M49.941 85.293c-.3-.767-.455-2.351-.78-3.729a16.149 16.149 0 0 0-1.028-2.9c-1.683.214-2.419 5.3-3.849 8.3a7.722 7.722 0 0 1 5.657-1.671z" fill="#1abac6"/><path data-name="Path 16534" d="M65.633 74.71c.337 5.438-9.984 9.217-15.746 10.587 1.446 1.745 3.313 3.938 3.239 5.681 4.154-1.136 11.2-3.09 14.053-8.4a5.831 5.831 0 0 0-1.546-7.868z" fill="#1abac6"/></g></g><g data-name="Group 7907" fill-rule="evenodd"><path data-name="Path 16535" d="M46.117 70.794c-4.283-.209-6.281.789-8.612 4.263-4.2 6.254-4.851 19.567-4.556 31.566.168 6.8 1.245 12.773 1.329 21.219.068 6.809-1.3 17.1-2.055 26.362-.367 4.511-.589 48.34-.427 51.848.919 1.981 7.415 5.308 8.271 5.141-.394-5.055-.747-50.557-.974-56.969-.718-20.306-.2-45.348 4.121-62 1.08-4.167 1.686-8.927 4.024-12.588.4-.6.778-1.178 1.137-1.736a48.375 48.375 0 0 0-1.131-6.314l1.1-.479a19.366 19.366 0 0 0-2.227-.313z" fill="#d2eefc"/><path data-name="Path 16536" d="M79.413 84.661c-2.338-1.3-7.1-4.216-12.242-7.086 4.326 5.184-6.124 17.649-10.974 33.191-1.648 5.283-2.719 12.987-2.977 20.656-.249 7.4 2.1 82.264 3.782 88.254 4.9 3.381 9.736 3.621 14.881 1.5a49.28 49.28 0 0 0 12.478-7.892c-1.962-13.945 1.441-42.233-3.493-53.318-2.392-5.375-4.9-7.627-5.144-14.384-.354-9.686 13.234-35.505 13.108-48.872-.057-5.931-5.051-9.626-9.419-12.049z" fill="#d2eefc"/><path data-name="Path 16537" d="M79.413 84.661l-11.9-6.6c1.776 2.849 6.513 5.9 11.621 10.216a23.335 23.335 0 0 0-6.6 11.651c-2.689 10.629-6.8 24.618-7.5 34.338-1.124 15.469 2.577 22.436 5.766 29.333 2.162 4.677 4.089 48.882 4.117 56.126a50.14 50.14 0 0 0 9.394-6.437c-.445-4.2-.236-26.881-1.089-41.089a38.555 38.555 0 0 0-3.858-15.392c-1.678-3.206-3.254-5.685-3.633-11.222-.663-9.67 13.234-35.505 13.108-48.872-.064-5.934-5.058-9.629-9.426-12.052z" fill="#c3e6f7"/><path data-name="Path 16538" d="M65.027 134.265a72.248 72.248 0 0 0-.191 6.776c6.551-5.968 12.7-13.6 18.447-21.868 2.942-8.274 5.6-16.576 5.549-22.461z" fill="#b2d9ed"/><path data-name="Path 16539" d="M47.632 75.257a15.483 15.483 0 0 0-8.124 6.5l2.3 1.78-2.986 1.492a206.7 206.7 0 0 0 .259 42.661c.607-11.873.8-26.729 5.531-38.484.744-1.85 3.247-10.409 3.823-11.222-.458-1.879-.235-.769-.803-2.727z" fill="#ebf9ff"/><path data-name="Path 16540" d="M69.739 82.93l7.264 5.311c-6.017 9.9-14.078 28.5-14.3 47.294-.107 9.06 6.768 46.328 9.593 82.9-5.368 3.243-11.581 1.834-14.421-.76-2.863-18.423-3.292-90.474.577-105.1 3.316-12.55 9.021-21.633 11.287-29.645z" fill="#e0f5ff"/><g data-name="Group 7903"><path data-name="Path 16541" d="M70.683 145.746c-5.849-.2-7.458-.209-12.52.7l2.331 13.987c3.276 1.388 7.928 1.009 12.034-.691z" fill="#d2eefc"/><path data-name="Path 16542" d="M70.683 145.746c-5.849-.2-7.458-.209-12.52.7.728 4.171.382 4.13 4.85 4.4 7.982.477 5.522 1.362 8.275 9.367.121.353.832-.3 1.24-.468z" fill="#c3e6f7"/><path data-name="Path 16543" d="M70.255 143.964c-5.887-.18-8.511-.636-12.878-.652l1.126 5.567c1.491.777 9.319 1.7 12.777.067z" fill="#d2eefc"/><path data-name="Path 16544" d="M70.255 143.964c-5.887-.18-8.511-.636-12.878-.652 4.254 1.578 11.431 1.146 12.684 6.067a7.053 7.053 0 0 0 1.219-.433z" fill="#c3e6f7"/><path data-name="Path 16545" d="M59.235 151.32l7.368 1.191 2.977 7.326a25.388 25.388 0 0 1-8.176.457z" fill="#e0f5ff"/><path data-name="Path 16546" d="M58.011 144.048c3.439 1.05 8.268 2.51 10.294 5.072a26.006 26.006 0 0 1-9.024-.592 20.538 20.538 0 0 1-1.27-4.48z" fill="#e0f5ff"/></g><g data-name="Group 7906"><g data-name="Group 7904"><path data-name="Path 16547" d="M36.84 138.73c-1.732-1.889-2.213-2.362-3.814-2.9l-1.2 15.619c.8 1.27 3.451 2.322 4.256 2z" fill="#d2eefc"/><path data-name="Path 16548" d="M36.84 138.73c-1.732-1.889-2.213-2.362-3.814-2.9-.172 4.435-.272 4.3 1.04 5.854 2.345 2.786 1.449 2.974 1.523 11.879a1.64 1.64 0 0 0 .492-.116z" fill="#c3e6f7"/><path data-name="Path 16549" d="M32.891 141.074l2.094 3.332-.188 8.588a4.477 4.477 0 0 1-2.562-1.881z" fill="#e0f5ff"/></g><g data-name="Group 7905"><path data-name="Path 16550" d="M37.474 135.019c-1.938-.853-2.731-1.629-4.191-2.138l-.677 5.995c.352.987 2.8 2.845 4.269 1.51z" fill="#d2eefc"/><path data-name="Path 16551" d="M37.474 135.019c-1.938-.853-2.731-1.629-4.191-2.138 1.126 2.143 3.613 2.5 3.1 7.824a1.794 1.794 0 0 0 .49-.319z" fill="#c3e6f7"/><path data-name="Path 16552" d="M33.35 133.73a13.29 13.29 0 0 1 2.49 6.507c-1.35-.094-1.775-.439-2.912-1.642.054-1.611.239-3.11.422-4.865z" fill="#e0f5ff"/></g></g><path data-name="Path 16553" d="M71.213 79.756c1.705 4.146.482 11.607-1.57 18.787l-4.175-1.548 2.014 4.547c-8.392 10.964-13.087 27.3-13.737 44.068-4.539-36.32 8.583-51.161 12.2-63.88.486-1.709 1.621-4.407.858-5.925a10.262 10.262 0 0 1 4.41 3.951z" fill="#ebf9ff"/></g><g data-name="Group 7908" fill-rule="evenodd"><path data-name="Path 16554" d="M51.099 77.138c1.947-.782 6.4-1.592 8.169-2.405 3.867-1.78 4.158-5.736 6.14-10.468 3.6-1.6 5.024-3.171 5.718-5.13 1.645-4.648-.027-10.361-3.1-13.925a12.959 12.959 0 0 0-10.539-4.5c-8.384.117-12.93 5.513-14.773 12.367a4.742 4.742 0 0 0-.127 1.77c.148 1.485.623 2.227.74 3.24.277 2.382-.754 1.951-.989 4.292-.38 3.8.249 7.38.862 11.563.181 1.23.431 1.805 1.144 2.27a16.85 16.85 0 0 0 2.543 1.086c.863.369 1.73.513 4.212-.16z" fill="#f1b287"/><path data-name="Path 16555" d="M51.099 77.138c1.947-.782 6.4-1.592 8.169-2.405 3.867-1.78 4.158-5.736 6.14-10.468 3.6-1.6 5.024-3.171 5.718-5.13 1.645-4.648-.027-10.361-3.1-13.925a12.959 12.959 0 0 0-10.539-4.5c-7.283.1-11.67 4.188-13.9 9.752.3.772 7.1 4.343 13.279 4.383.462 2.787-.988 5.076-1.055 6.477-.064 1.343-.057 2.489-.179 3.242-.182 1.116-1.328 1.977-1.5 3.576-.562 5.2-3.43 8.53-5.763 9.465a10.774 10.774 0 0 0 2.73-.467z" fill="#e8a476"/><path data-name="Path 16556" d="M46.42 48.957c-.924.033-2.035-.5-2.792 1.4.548-3.107 1.491-3.395 3.407-3.687z" fill="#361d07"/><path data-name="Path 16557" d="M58.006 53.113c5.871-.594 12.384-4.726 13.909-7.374 3.17 6.218 2.4 14.592-2.514 19.663-1.415 2.686-2.8 5.327-4.126 8.058a56.924 56.924 0 0 1-1.907-11.521l-.252-.363c-.338.7-1.183 2.443-1.5 3.167-.369 0-.968-.537-1.492-.849 1.037-5.418.759-8.764-2.118-10.781z" fill="#361d07"/><path data-name="Path 16558" d="M57.615 52.845c-6.168-.54-14.284-3.361-17.373-8.042 5.594.844 11.939-7.5 20.778-6.673 5.124.48 10.658 3.1 10.9 7.567-1.677 2.205-9.161 7.598-14.305 7.148z" fill="#361d07"/><path data-name="Path 16559" d="M57.866 53.11c-6.168-.539-14.535-3.626-17.624-8.307l.054.007a21.165 21.165 0 0 0 14.749 1.948 5.68 5.68 0 0 1-2.151-1.061c4.647.252 7.846.474 11.871-2.011a7.922 7.922 0 0 1-3.214.176c2.385-.565 4.646-2.489 8.305-2.243a5.8 5.8 0 0 1 2.143 4.245c-1.505 2.566-8.989 7.696-14.133 7.246z" fill="#241304"/><path data-name="Path 16560" d="M65.223 59.894c3.307-.754 2.942 2.937 2.214 5.121-.5 1.5-1.758 1.255-2.345 2.419a2.915 2.915 0 0 1-2.846 1.818c-1.939-.257-.434-3.019-.083-4.142-.03-1.902.96-4.737 3.06-5.216z" fill="#e8a476"/><path data-name="Path 16561" d="M72.042 46.296c.477 1.086 1.613 4.056 1.285 6.2a7.575 7.575 0 0 0-2.039-3.631c1.249 2.005 1.446 4.474.586 7.43-.04-2.558-.3-4.012-2.15-5.447 1.345 2.537.849 7.2.084 9.217-.235-2.893-.468-6.842-2.933-7.681 1.437 2.349 1.225 3.643.363 5.978-.252-2.594-1.025-4.049-2.793-5.028-.049 2.359-.779 6.731-3.1 8.77.191-.923 1.374-7.162.139-8.043a4.473 4.473 0 0 1-.167 2.96 5.325 5.325 0 0 0-2.542-3.631c4.969-.15 12.175-4.69 13.267-7.094z" fill="#4a2b12"/><path data-name="Path 16562" d="M69.006 40.884c-2.5-1.964-6.917-2.956-10.084-2.808-2.687.126-5.3 1.231-7.708 1.775a6.518 6.518 0 0 0 1.927.055c-4.271 1.2-7.83 5.005-12.821 4.889a9.555 9.555 0 0 0 5.81-.224 12.882 12.882 0 0 1-2.178 1.062c4.747.364 7.878-2.208 12.178-3.715a5.326 5.326 0 0 1-2.6 1.592c4.62-.84 8.885-4.533 15.476-2.626z" fill="#4a2b12"/></g><g data-name="Group 7913" fill-rule="evenodd"><g data-name="Group 7909"><path data-name="Path 16563" d="M87.61 92.101c4.507 7.594 7.535 24.025 8.9 35 .7 5.584.843 9.991-3.329 12.078-3.955 1.977-8.4-1.608-10.057-5.819-1.969-4.989-3.812-11.24-7.3-21.87-2.781-8.469-.008-17.014 4.133-20.332 2.399-1.919 5.443-2.781 7.653.943z" fill="#d2eefc"/><path data-name="Path 16564" d="M87.61 92.101c4.507 7.594 7.535 24.025 8.9 35 .7 5.584.843 9.991-3.33 12.078-2.775 1.388-5.79.035-7.915-2.351a48.753 48.753 0 0 0 4.8-1.841c1.377-.619 2.244-.678 1.551-3.933-3.078-14.481-5.822-26.883-10.734-40.562 2.224-1.397 4.796-1.649 6.728 1.609z" fill="#c3e6f7"/></g><g data-name="Group 7910"><path data-name="Path 16565" d="M74.907 104.33l-2.395-1.347v48.847l2.395 1.347z" fill="#1a0101"/><path data-name="Path 16566" d="M72.513 102.981L45.68 118.237v48.849l26.833-15.255z" fill="#240101"/><path data-name="Path 16567" d="M72.486 103.775l-25.785 14.607.143 47.756 2.307 1.306 23.335-16.988 2.26-45.39z" fill="#e6e6e6"/><path data-name="Path 16568" d="M74.907 104.33l-26.833 15.255v48.845l26.833-15.256z" fill="#380303"/></g><g data-name="Group 7912"><path data-name="Path 16569" d="M61.25 146.384l1.288-2.79-.724-5.01c-2.434-1.466-4.268-1.956-5.3-1.537a2.53 2.53 0 0 0-.261.09c-3.311 1.829.43 11.2 4.997 9.247z" fill="#8f9ba6"/><g data-name="Group 7911"><path data-name="Path 16570" d="M51.395 151.281a23.266 23.266 0 0 1-6.683-1.961c-1.282-.6-1.681-9.66-1.529-9.685 1.613.28 5.164 1.166 6.89 1.383 2.093-.661 8.709-2.957 10.8-3.618l1.982 4.161.089 4.327a6.121 6.121 0 0 0-2.392.733c-3.002 1.304-5.565 3.636-9.157 4.66z" fill="#e8a476"/><path data-name="Path 16571" d="M50.177 141.957a23.276 23.276 0 0 1-6.683-1.961c-1.282-.6 1.549-.946 2.332-.81 1.614.281 2.939.641 4.664.857 2.093-.66 6.709-2.122 8.75-2.939l1.722.139a108.564 108.564 0 0 1-10.785 4.714z" fill="#f1b287"/><path data-name="Path 16572" d="M48.067 139.124c-.351 2.489 3.452 1.305 4.4.867.828-.067 6.71-1.727 5.56-2.086a6.824 6.824 0 0 0-4.594-.668c-1.255.336-1.3.808-2.664 1.251a14.154 14.154 0 0 1-2.702.636z" fill="#f1b287"/></g><path data-name="Path 16573" d="M96.185 135.644a6.24 6.24 0 0 1-2.31 3.084c-1.17.885-2.892 1.273-4.66 2.09-6.841 3.162-17.705 4.268-28.346 5.736.448-5.711-1.416-8.99-4.627-9.418 8.834-3.587 19.547-5.351 28.387-7.959a17.9 17.9 0 0 1 3.338-.648c3.601 1.301 9.952 2.101 8.218 7.115z" fill="#d2eefc"/><path data-name="Path 16574" d="M96.185 135.644a6.24 6.24 0 0 1-2.31 3.084c-1.17.885-2.892 1.273-4.66 2.09-6.841 3.162-17.705 4.268-28.346 5.736a18.1 18.1 0 0 0-.028-3.4c9.272-3.244 20.058-4.042 29.229-8.163 1.377-.619 2.244-.678 1.551-3.933l-.314-1.477c3.125 1.002 6.143 2.42 4.878 6.063z" fill="#c3e6f7"/><path data-name="Path 16575" d="M81.961 99.122c2.157 10.824 7.417 21.533 7.766 33.692-9.824 3.385-18.4 5.583-28.491 8.036a6.343 6.343 0 0 0-3.52-3.544l26.681-6.871-2.5-11.586z" fill="#e0f5ff"/></g></g><g data-name="Group 7914"><path data-name="Path 16576" d="M56.459 11.608l.332-.295c4.274-.369 5.785-1.4 5.785-2.948v-.074c0-1.253-1.031-2.027-2.8-2.027a8.536 8.536 0 0 0-5.38 2.432l-3.685-4.827A12.956 12.956 0 0 1 60.255 0c5.417 0 9.212 2.911 9.212 7.738v.074c0 4.643-3.095 6.6-7.185 7.628l-.443 2.358h-4.422zm-.59 8.328h7.26V26.2h-7.26z" fill="#fff"/></g></g></svg>