<svg xmlns="http://www.w3.org/2000/svg" width="118.915" height="288.487" viewBox="0 0 118.915 288.487"><g data-name="Group 7786" fill-rule="evenodd"><path data-name="Path 15896" d="M114.377 266.019l-48-27.336c-5.232-2.391-12.721-4.293-18.052-1.519-4.857 2.528-12.859 7.7-16.4 9.719-2.687 1.533-12.016 7.121-6.206 10.281 17.092 9.294 34.008 19.747 51.363 29.188 3.283 1.786 8.085 2.431 13.126 2.012a34.759 34.759 0 0 0 14.215-4.233q4.326-2.517 8.512-4.955c3.764-2.191 5.761-4.784 5.958-7.18.2-2.342-1.305-4.511-4.516-5.977z" fill="#231f20" opacity=".1" style="mix-blend-mode:multiply;isolation:isolate"/><g data-name="Group 7771"><g data-name="Group 7770"><path data-name="Path 15897" d="M53.469 234.502c-.974 3.423-1.219 5.19-2.642 7.183-2.834 3.973-7.016 6.811-13.1 11.126-2.9 2.053-3.509 4-.576 5.788 2.309 1.41 7.959.29 11.487-.54 6.622-1.558 9.3-5.543 11.564-6.579l1.714.388c1.4.025 6.922-2.2 8-3.644a39.487 39.487 0 0 0 .863-5.132c.205-5.6-.674-5.033-2.173-9.417-5.097.369-10.033.654-15.137.827z" fill="#111214"/><path data-name="Path 15898" d="M35.23 256.034c-.03.885.569 1.742 1.919 2.565 2.31 1.41 7.959.29 11.488-.54 6.621-1.558 9.3-5.543 11.563-6.579l1.714.388c1.4.025 6.922-2.2 8-3.644a39.487 39.487 0 0 0 .863-5.132c.205-5.6-.674-5.033-2.173-9.417-2.255.163-4.478.31-6.7.438-.4 3.689.137 10.054-2.9 12.422-3.4 2.648-6.045 3.354-8.314 4.733-7.226 4.394-12.001 7.965-15.46 4.766z"/><path data-name="Path 15899" d="M51.863 240.795c.722 1.066 2.142 1.667 4.49 2.252-3.787 4.269-4.32 3.87-9.407 6.728-2.563 2.928-2.919 3.484-4.555 4.429-1.953 1.128-4.71 2.287-5.87 1.453-.5-.358.173-1.36 2.324-2.919 2.439-1.768 4.922-3.559 7.169-5.428a26.455 26.455 0 0 0 5.849-6.515z" fill="#20232e"/></g><path data-name="Path 15900" d="M72.428 140.868a81.76 81.76 0 0 0 .723-13.079c-4.127-1.651-8.464-3.212-12.647-5.042l.3-.252c-4.434-2.081-8.255-5.314-13.369-8.248-2.14 6.737-2.933 9.753-2.77 15.233a168.4 168.4 0 0 0 2.4 21.666c.748 11.1 1.745 22.68 2.464 30.259 1.836 19.335 1.611 38.409 2.768 57.712 2.4 3.931 13.955 4.173 17.9-1.355.59-15.269 1.546-27.325 1.114-35.68-.36-6.955-.69-10.962-2.94-17.143 1.496-10.288 3.512-29.222 4.057-44.071z" fill="#001624"/><path data-name="Path 15901" d="M91.707 254.79c.847 2.473 1.621 4.389 1.541 5.945-.081 1.611-.521 3.177-.5 5.214.018 1.747.108 3.232.31 5.21.206 2.022 0 2.979-.892 3.787-1.442 1.313-5.738 3.344-7.775 4.034a8.168 8.168 0 0 1-3.563.48 15.885 15.885 0 0 1-4.777-.871c-.44-.166-.89-1.871-.922-3.351-.067-3.1.214-2.834 1.5-7.742.438-1.677.792-3.276 1.393-5.235.751-2.438 1.684-4.585 1.779-6.986l9.07-.353z" fill="#111214"/><path data-name="Path 15902" d="M91.707 254.79c.847 2.473 1.621 4.389 1.541 5.945-.081 1.611-.521 3.177-.5 5.214.018 1.747.108 3.232.31 5.21.206 2.022 0 2.979-.892 3.787-1.442 1.313-5.738 3.344-7.775 4.034a8.168 8.168 0 0 1-3.563.48 15.885 15.885 0 0 1-4.777-.871c-.4-.15-.805-1.562-.9-2.926h.024c2.772.945 5.462 1.323 8.124.022 5.621-2.745 4.89-5.026 4.361-11.505-3.656-.644-5.094-1.3-6.949-3.3 3.117.916 6.469 1.08 8.127-.824l.516-5.156z"/><path data-name="Path 15903" d="M58.954 184.88c3.791 17.913 4.751 30.553 2.33 57.071 3.488-.258 7.043-1.582 8.906-4.189.59-15.269 1.547-27.325 1.114-35.68-.36-6.955-.69-10.962-2.94-17.143 1.928-13.227 4.711-40.75 4.122-55.5l-7.917-3.167c-2.397 21.826-3.915 33.083-5.615 58.608z" fill="#00101a"/><path data-name="Path 15904" d="M67.154 148.729c1.462 14.876 4.325 35.553 5.987 46.112 3.021 19.185 3.493 41.68 5.189 60.943 2.622 4.1 12.5 4.945 16.279-.156.164-15.28 1.551-32.387.886-40.727a52.723 52.723 0 0 0-4.131-17.27c.38-11.908 6.594-60.829-1.614-70.429a7.234 7.234 0 0 0-1.544-2.173l-11.958-.934-14.184-1.65a41.111 41.111 0 0 0 .1 16.843 2.648 2.648 0 0 0 .319.7c.135 1 .314 2.015.543 3.028.212.924 2.483 3.522 4.128 5.713z" fill="#001e30"/><path data-name="Path 15905" d="M80.134 138.904c1.628 3.77 2.886 10.094 2.961 16.416.205 9.055.878 30.463 1.738 40.654 1.686 19.978 5.492 36.628 2.477 63.156a9.724 9.724 0 0 0 7.3-3.5c.164-15.28 1.551-32.387.886-40.727a52.717 52.717 0 0 0-4.131-17.27c.388-12.145 6.845-62.788-2.117-70.957l-13.658-.935c1.757 5.071 2.312 7.992 4.544 13.163z" fill="#001624"/><path data-name="Path 15906" d="M79.325 261.385c2.624 2.069 1.705 2.975 5.535 3.474a21.5 21.5 0 0 1-2.984 7.466c-.155 1.443-.271 3.337-3.082 3.355-5.248.034-1.607-4.3-1.589-4.461a43.422 43.422 0 0 1 2.12-9.834z" fill="#20232e"/><path data-name="Path 15907" d="M47.946 118.529a37.048 37.048 0 0 0 9.883 6.942c.015 6.772.01 19.314-.243 31.851-.027 7.414-.147 14.965-.467 21.25q-.018.458-.03.917c.63 5.218 3.076 8.163 3.383 16 .342 8.739-.792 23.378-2.34 32.939.051 4.2.078 8.378.043 12.549a8.224 8.224 0 0 1-5.556-2.3l-.311-47.484c-.3-7.566-1.464-18.893-2.4-30.544-1.983-13.911-3.907-30.059-1.962-42.12z" fill="#001e30"/><path data-name="Path 15908" d="M75.096 128.565l.035.01a234.068 234.068 0 0 0 6.4 22.551c1.744 15.1 1.3 31.586 1.51 43.233 1.572 21.306 3.353 42.655 4.416 63.988-1.939-.168-6.239-1.034-7.27-1.969-1.163-17.372-.957-41.869-3.121-58.2-.442-3.333-3.659-31.646-7.539-47.69-1.3-5.375-5.017-5.275-5.77-8.365-1.633-6.706-1.667-10.47-1-17.752 4.083 1.534 8.147 2.998 12.339 4.194z" fill="#00263d"/></g><g data-name="Group 7772"><path data-name="Path 15909" d="M27.054 95.218l-.707-2.262-.677-4.68c-2.273-1.369-3.987-1.827-4.953-1.436-.078.033-.173.046-.244.085-3.09 1.708 3.613 11.206 6.581 8.293z" fill="#8f9ba6"/><path data-name="Path 15910" d="M8.254 89.451c-1.491 2.661 2.856 3.4 4.117 3.318 1.74.426 2.543.11 3.41 1.366.973 1.409 4.319-5.99 4.208-6.072-.754-.226-4.435.837-5.224 1.146-1.469.573-1.532.818-3.273.717-.902-.053-1.787-.273-3.238-.475z" fill="#f1b287"/><path data-name="Path 15911" d="M7.992 90.098c-.5 2.134 3.225 2.743 4.378 2.671 1.74.426 2.543.11 3.41 1.366.6.865 3.671-2.827-.551-3.072-1.862.022-4.575.927-7.237-.965z" fill="#e8a476"/><path data-name="Path 15912" d="M32.62 91.638c-2.039.839-3.454 1.3-4.558 1.836-2.918 1.413-1.627 4.776-7.078 7.331l-6.24 2.925c-.816.382-7.09-1.018-8.843-2.043-1.245-.728-6.451-4.528-5.853-4.852.447-.243 3.188-.019 5.725-.191l5.655-1.43c5.36-1.878 4.378-4.963 6.276-6.2 2.473-1.608 5.034-1.247 9-4.918l4.746 1.69-.13 5.331z" fill="#f1b287"/><path data-name="Path 15913" d="M32.62 91.638c-2.039.839-3.454 1.3-4.558 1.836-2.918 1.413-1.627 4.776-7.078 7.331l-6.24 2.925c-.816.382-7.09-1.018-8.843-2.043a18.31 18.31 0 0 1-.951-.619c1.823-1.379 6.694 1.06 8.624.679a8.13 8.13 0 0 0 4.522-2.2c2.168-2.064 2.511-3.562 3.87-5.19.961-1.152 2.559-2.238 5.1-4.209l-1.172-5.576q.395-.223.814-.47l4.746 1.69-.13 5.331z" fill="#e8a476"/><path data-name="Path 15914" d="M54.028 81.223c-10.223 6.532-16.475 8.4-27.164 14.148-.323-5.174-4.61-8.691-6.746-8.254 8.6-5.911 18.712-13.836 28.457-17.876z" fill="#d2eefc"/><path data-name="Path 15915" d="M54.028 81.223c-10.223 6.532-16.475 8.4-27.164 14.148a10.1 10.1 0 0 0-2.014-5.423c5.011-2.454 11.563-6.785 18.4-11.244 1.147-.932-.364-4.773-.5-6.663z" fill="#c3e6f7"/></g><g data-name="Group 7774"><path data-name="Path 15916" d="M79.518 44.431c.423 4.965-13.173 11.467-18.353 8.926-.546-.268-.832-1.416-1.169-1.878.316-1.272-.114-1.815-.229-3.109a15.885 15.885 0 0 0-.757-4.148c-.617-1.68-.287-5.164-1.357-9.1l15.5-6.758 3.32-1.76c-1.588 7.742.167 11.341 3.045 17.827z" fill="#e8a476"/><path data-name="Path 15917" d="M79.518 44.431a2.27 2.27 0 0 1-.068.835c-7.349-4.627-11.925-.751-20.543-3.054a56.768 56.768 0 0 0-1.254-7.087l15.5-6.758 3.32-1.76c-1.588 7.739.166 11.338 3.045 17.824z" fill="#db9669"/><g data-name="Group 7773"><path data-name="Path 15918" d="M45.954 113.89a2.185 2.185 0 0 0 .39.943c4.386 6.111 31.9 15.322 37.653 14.844-4.569-39.726 37.035-73.544-7.541-86.639l-12.824 7.059-4.589-.823-.588-5.648c-6.207 6.171-9.077 14.348-10.181 25.719-1.442 14.88 1.68 28.225-2.32 44.545z" fill="#12a8b3"/><path data-name="Path 15919" d="M66.213 125.29c7.627 2.712 15.092 4.612 17.788 4.389-4.569-39.726 37.035-73.544-7.541-86.639l-12.824 7.059-4.589-.823-.588-5.648a29.973 29.973 0 0 0-6.389 9.412l.368.4c3.347-1.06 5.1-2.417 6.831-1.654 1.422.629 3.05 2.868 3.552 6.42 2.022-.506 5.878-1.957 7.882-2.53-7.429 11.079-14.358 34.89-9.158 59.755.645 3.095 3.275 6.669 4.668 9.859z" fill="#06929c"/><path data-name="Path 15920" d="M63.224 51.397c-.741 3.1-.862 3.085-3.68 5.218.348 1.574.573 2.933.8 4.545-4.6 13.329-7.048 24.607-9.745 40.359-.327-16.115.474-28.348 3.968-45.125a9.882 9.882 0 0 1 2.91-1.051c-.772-3.417-.341-5.621.36-6.035 2.526-.093 3.578.206 5.387 2.089z" fill="#041e2e"/><path data-name="Path 15921" d="M63.224 51.397c-.741 3.1-.862 3.085-3.68 5.218.348 1.574.573 2.933.8 4.545-4.6 13.329-7.048 24.607-9.745 40.359 1.43-19.209 3.955-26.976 8.01-40.1a34.853 34.853 0 0 1-.359-5.586c1.806-1.6 2.582-1.759 3.044-2.858.41-.975-1.607-3.439-1.278-3.634 1.261.367 1.399.173 3.208 2.056z" fill="#020d14"/><path data-name="Path 15922" d="M60.479 49.49c-.315-.8-.477-2.463-.817-3.907a16.95 16.95 0 0 0-1.077-3.039c-1.764.224-2.535 5.55-4.033 8.7 2.319-1.617 3.326-1.759 5.927-1.754z" fill="#1abac6"/><path data-name="Path 15923" d="M76.922 38.402c.354 5.7-10.462 9.658-16.5 11.094 1.515 1.828 3.471 4.127 3.394 5.953 4.352-1.191 11.735-3.238 14.726-8.8a6.11 6.11 0 0 0-1.62-8.247z" fill="#1abac6"/></g></g><g data-name="Group 7779"><path data-name="Path 15924" d="M56.472 34.299c-4.488-.219-6.582.827-9.025 4.467-4.4 6.553-5.082 20.5-4.773 33.076.176 7.123 1.3 13.385 1.392 22.235.071 7.135-1.364 17.916-2.153 27.624-.384 4.727-.617 50.654-.447 54.33.963 2.076 7.769 5.562 8.667 5.387-.414-5.3-.783-52.977-1.021-59.7-.753-21.278-.208-47.519 4.318-64.972 1.132-4.366 1.766-9.354 4.217-13.19.414-.628.815-1.235 1.191-1.82a50.742 50.742 0 0 0-1.185-6.615l1.151-.5a20.026 20.026 0 0 0-2.332-.322z" fill="#d2eefc"/><path data-name="Path 15925" d="M91.362 48.829c-2.45-1.358-7.444-4.417-12.828-7.425 4.533 5.432-6.417 18.494-11.5 34.78-1.727 5.536-2.849 13.608-3.119 21.645-.262 7.756 2.2 86.2 3.962 92.478 5.13 3.542 10.2 3.794 15.593 1.574a51.681 51.681 0 0 0 13.076-8.27c-2.056-14.613 1.51-44.254-3.66-55.87-2.507-5.632-5.131-7.992-5.391-15.072-.371-10.151 13.868-37.205 13.736-51.211-.059-6.218-5.292-10.09-9.869-12.629z" fill="#d2eefc"/><path data-name="Path 15926" d="M91.362 48.829l-12.473-6.917c1.862 2.985 6.825 6.187 12.177 10.705a24.472 24.472 0 0 0-6.915 12.209c-2.817 11.138-7.124 25.8-7.864 35.982-1.177 16.209 2.7 23.51 6.042 30.737 2.266 4.9 4.285 51.222 4.315 58.812a52.561 52.561 0 0 0 9.843-6.745c-.466-4.4-.247-28.168-1.141-43.055a40.407 40.407 0 0 0-4.043-16.129c-1.758-3.36-3.409-5.958-3.807-11.759-.695-10.134 13.868-37.205 13.736-51.211-.06-6.218-5.293-10.09-9.87-12.629z" fill="#c3e6f7"/><path data-name="Path 15927" d="M76.287 100.808a75.576 75.576 0 0 0-.2 7.1c6.865-6.254 13.312-14.254 19.33-22.914 3.083-8.671 5.873-17.37 5.815-23.536z" fill="#b2d9ed"/><path data-name="Path 15928" d="M58.054 38.975a16.23 16.23 0 0 0-8.512 6.816l2.406 1.865-3.128 1.564a216.551 216.551 0 0 0 .271 44.7c.637-12.441.84-28.008 5.8-40.326.78-1.939 3.4-10.907 4.006-11.759-.476-1.971-.243-.808-.843-2.86z" fill="#ebf9ff"/><path data-name="Path 15929" d="M81.225 47.017l7.611 5.565c-6.3 10.378-14.752 29.865-14.985 49.557-.112 9.494 7.092 48.546 10.052 86.867-5.625 3.4-12.135 1.923-15.111-.8-3-19.3-3.45-94.8.6-110.135 3.48-13.142 9.462-22.66 11.833-31.054z" fill="#e0f5ff"/><g data-name="Group 7775"><path data-name="Path 15930" d="M82.214 112.838c-6.129-.209-7.815-.218-13.119.735l2.443 14.656c3.433 1.455 8.307 1.058 12.61-.723z" fill="#d2eefc"/><path data-name="Path 15931" d="M82.214 112.838c-6.129-.209-7.815-.218-13.119.735.762 4.37.4 4.328 5.081 4.608 8.365.5 5.788 1.426 8.672 9.815.127.369.871-.313 1.3-.49z" fill="#c3e6f7"/><path data-name="Path 15932" d="M81.765 110.971c-6.168-.189-8.918-.666-13.494-.683l1.18 5.833c1.562.814 9.765 1.785 13.389.07z" fill="#d2eefc"/><path data-name="Path 15933" d="M81.765 110.971c-6.168-.189-8.918-.666-13.494-.683 4.458 1.654 11.978 1.2 13.291 6.358a7.562 7.562 0 0 0 1.278-.455z" fill="#c3e6f7"/><path data-name="Path 15934" d="M70.218 118.679l7.721 1.248 3.119 7.677a26.6 26.6 0 0 1-8.567.479z" fill="#e0f5ff"/><path data-name="Path 15935" d="M68.936 111.059c3.6 1.1 8.663 2.63 10.786 5.315a27.208 27.208 0 0 1-9.455-.621 21.4 21.4 0 0 1-1.331-4.694z" fill="#e0f5ff"/></g><g data-name="Group 7778"><g data-name="Group 7776"><path data-name="Path 15936" d="M46.754 105.485c-1.815-1.98-2.319-2.476-4-3.041l-1.259 16.367c.843 1.33 3.617 2.433 4.46 2.093z" fill="#d2eefc"/><path data-name="Path 15937" d="M46.754 105.485c-1.815-1.98-2.319-2.476-4-3.041-.181 4.648-.285 4.5 1.09 6.135 2.457 2.919 1.517 3.116 1.595 12.448a1.742 1.742 0 0 0 .516-.123z" fill="#c3e6f7"/><path data-name="Path 15938" d="M42.613 107.943l2.194 3.491-.2 9a4.7 4.7 0 0 1-2.685-1.971z" fill="#e0f5ff"/></g><g data-name="Group 7777"><path data-name="Path 15939" d="M47.415 101.598c-2.031-.894-2.862-1.707-4.391-2.24l-.71 6.282c.369 1.033 2.935 2.98 4.474 1.581z" fill="#d2eefc"/><path data-name="Path 15940" d="M47.415 101.598c-2.031-.894-2.862-1.707-4.391-2.24 1.18 2.245 3.785 2.615 3.25 8.2a1.867 1.867 0 0 0 .514-.335z" fill="#c3e6f7"/><path data-name="Path 15941" d="M43.1 100.245a13.932 13.932 0 0 1 2.608 6.818c-1.414-.1-1.86-.459-3.051-1.72.052-1.687.245-3.253.443-5.098z" fill="#e0f5ff"/></g></g><path data-name="Path 15942" d="M82.77 43.69c1.786 4.345.5 12.164-1.646 19.687l-4.375-1.623 2.11 4.766c-8.792 11.488-13.712 28.6-14.394 46.176-4.756-38.058 8.994-53.609 12.782-66.937.509-1.791 1.7-4.618.9-6.209a10.763 10.763 0 0 1 4.623 4.14z" fill="#ebf9ff"/></g><g data-name="Group 7780"><path data-name="Path 15943" d="M61.692 40.946c2.041-.819 6.709-1.668 8.561-2.52 4.052-1.865 4.357-6.011 6.433-10.969 3.776-1.681 5.265-3.323 5.992-5.375 1.724-4.871-.028-10.857-3.254-14.592a13.578 13.578 0 0 0-11.043-4.711c-8.785.123-13.549 5.777-15.48 12.959a4.988 4.988 0 0 0-.133 1.854c.155 1.557.652 2.335.775 3.4.291 2.5-.79 2.044-1.035 4.5-.4 3.979.26 7.734.9 12.117.189 1.289.451 1.891 1.2 2.378a17.662 17.662 0 0 0 2.665 1.138c.908.375 1.819.526 4.419-.179z" fill="#f1b287"/><path data-name="Path 15944" d="M61.692 40.946c2.041-.819 6.709-1.668 8.561-2.52 4.052-1.865 4.357-6.011 6.433-10.969 3.776-1.681 5.265-3.323 5.992-5.375 1.724-4.871-.028-10.857-3.254-14.592a13.578 13.578 0 0 0-11.043-4.711c-7.632.107-12.228 4.388-14.57 10.218.313.809 7.446 4.552 13.915 4.594.485 2.92-1.035 5.319-1.1 6.787-.067 1.407-.06 2.608-.188 3.4-.19 1.17-1.391 2.073-1.573 3.748-.589 5.451-3.594 8.938-6.038 9.918a11.312 11.312 0 0 0 2.865-.498z" fill="#e8a476"/><path data-name="Path 15945" d="M56.79 11.417c-.968.034-2.133-.524-2.926 1.463.575-3.255 1.562-3.557 3.57-3.863z" fill="#361d07"/><path data-name="Path 15946" d="M68.93 15.771c6.153-.622 12.977-4.952 14.575-7.727 3.322 6.516 2.516 15.291-2.634 20.6-1.483 2.814-2.935 5.582-4.324 8.444a59.716 59.716 0 0 1-2-12.073l-.264-.381c-.355.736-1.24 2.56-1.568 3.319-.387 0-1.015-.562-1.563-.89 1.084-5.673.793-9.181-2.222-11.292z" fill="#361d07"/><path data-name="Path 15947" d="M68.52 15.49c-6.463-.565-14.967-3.521-18.2-8.426 5.862.884 12.51-7.86 21.772-6.993C77.461.571 83.26 3.324 83.509 8c-1.755 2.311-9.598 7.962-14.989 7.49z" fill="#361d07"/><path data-name="Path 15948" d="M68.784 15.769c-6.463-.566-15.231-3.8-18.468-8.705l.056.007a22.182 22.182 0 0 0 15.455 2.042A5.96 5.96 0 0 1 63.574 8c4.869.264 8.221.5 12.439-2.107a8.307 8.307 0 0 1-3.368.184c2.5-.592 4.869-2.608 8.7-2.35a6.079 6.079 0 0 1 2.246 4.449c-1.575 2.691-9.417 8.064-14.807 7.593z" fill="#241304"/><path data-name="Path 15949" d="M76.492 22.877c3.466-.79 3.084 3.077 2.32 5.366-.525 1.573-1.842 1.315-2.456 2.535a3.056 3.056 0 0 1-2.983 1.905c-2.031-.269-.455-3.164-.087-4.34-.032-1.993 1.007-4.964 3.206-5.466z" fill="#e8a476"/><path data-name="Path 15950" d="M83.638 8.629c.5 1.138 1.69 4.249 1.347 6.5a7.952 7.952 0 0 0-2.137-3.8c1.309 2.1 1.515 4.688.614 7.786-.042-2.681-.32-4.2-2.253-5.708 1.409 2.659.889 7.543.088 9.659-.246-3.033-.49-7.171-3.074-8.049 1.506 2.461 1.284 3.817.381 6.263-.264-2.717-1.074-4.242-2.927-5.268-.051 2.472-.816 7.054-3.248 9.19.2-.968 1.44-7.505.146-8.429a4.685 4.685 0 0 1-.176 3.1 5.575 5.575 0 0 0-2.663-3.805c5.207-.164 12.753-4.92 13.902-7.439z" fill="#4a2b12"/><path data-name="Path 15951" d="M80.454 2.957C77.831.899 73.206-.143 69.887.015c-2.816.131-5.549 1.29-8.077 1.86a6.842 6.842 0 0 0 2.02.058c-4.476 1.255-8.206 5.244-13.435 5.122a10.012 10.012 0 0 0 6.088-.235A13.458 13.458 0 0 1 54.2 7.933c4.975.382 8.256-2.314 12.761-3.893a5.564 5.564 0 0 1-2.722 1.668c4.84-.879 9.315-4.75 16.215-2.751z" fill="#4a2b12"/></g><g data-name="Group 7785"><g data-name="Group 7781"><path data-name="Path 15952" d="M99.954 56.626c4.722 7.957 7.894 25.175 9.328 36.678.73 5.851.884 10.469-3.488 12.656-4.144 2.072-8.8-1.685-10.538-6.1-2.064-5.228-3.995-11.777-7.653-22.917-2.914-8.873-.009-17.828 4.331-21.305 2.512-2.012 5.702-2.915 8.02.988z" fill="#d2eefc"/><path data-name="Path 15953" d="M99.954 56.626c4.722 7.957 7.894 25.175 9.328 36.678.73 5.851.884 10.469-3.489 12.656-2.908 1.455-6.067.037-8.294-2.463a51.573 51.573 0 0 0 5.032-1.929c1.443-.649 2.351-.711 1.626-4.121-3.226-15.175-6.1-28.171-11.249-42.505 2.323-1.467 5.018-1.73 7.046 1.684z" fill="#c3e6f7"/></g><g data-name="Group 7782"><path data-name="Path 15954" d="M86.64 69.439l-2.509-1.412v51.188l2.509 1.412z" fill="#1a0101"/><path data-name="Path 15955" d="M84.131 68.027L56.014 84.013v51.188l28.117-15.986z" fill="#240101"/><path data-name="Path 15956" d="M84.103 68.858l-27.02 15.306.15 50.042 2.417 1.368 24.452-17.8 2.368-47.562z" fill="#e6e6e6"/><path data-name="Path 15957" d="M86.64 69.439L58.522 85.425v51.188l28.118-15.986z" fill="#380303"/></g><g data-name="Group 7784"><path data-name="Path 15958" d="M72.329 113.507l1.349-2.924-.759-5.25c-2.55-1.536-4.472-2.049-5.555-1.61a2.481 2.481 0 0 0-.274.095c-3.466 1.916.454 11.735 5.239 9.689z" fill="#8f9ba6"/><g data-name="Group 7783"><path data-name="Path 15959" d="M62.003 118.638a24.4 24.4 0 0 1-7-2.054c-1.344-.63-1.762-10.123-1.6-10.149 1.691.294 5.412 1.222 7.22 1.449 2.193-.693 9.127-3.1 11.32-3.791l2.076 4.36.094 4.534a6.418 6.418 0 0 0-2.507.768c-3.152 1.367-5.84 3.81-9.603 4.883z" fill="#e8a476"/><path data-name="Path 15960" d="M60.726 108.868a24.383 24.383 0 0 1-7-2.055c-1.343-.63 1.624-.992 2.444-.849 1.691.294 3.08.672 4.887.9 2.194-.692 7.031-2.223 9.17-3.08l1.8.146a113.633 113.633 0 0 1-11.301 4.938z" fill="#f1b287"/><path data-name="Path 15961" d="M58.515 105.9c-.367 2.608 3.617 1.367 4.608.907.867-.069 7.031-1.808 5.826-2.185a7.151 7.151 0 0 0-4.814-.7c-1.315.352-1.36.846-2.792 1.31a14.8 14.8 0 0 1-2.828.668z" fill="#f1b287"/></g><path data-name="Path 15962" d="M108.936 102.252a6.531 6.531 0 0 1-2.42 3.232c-1.226.928-3.03 1.334-4.883 2.19-7.168 3.314-18.552 4.473-29.7 6.011.468-5.984-1.484-9.42-4.849-9.869 9.257-3.759 20.483-5.607 29.746-8.339a18.744 18.744 0 0 1 3.5-.68c3.769 1.366 10.424 2.207 8.606 7.455z" fill="#d2eefc"/><path data-name="Path 15963" d="M108.936 102.252a6.531 6.531 0 0 1-2.42 3.232c-1.226.928-3.03 1.334-4.883 2.19-7.168 3.314-18.552 4.473-29.7 6.011a18.954 18.954 0 0 0-.03-3.564c9.716-3.4 21.018-4.235 30.628-8.553 1.443-.649 2.351-.711 1.626-4.121l-.33-1.549c3.272 1.052 6.427 2.537 5.109 6.354z" fill="#c3e6f7"/><path data-name="Path 15964" d="M94.032 63.983c2.26 11.342 7.772 22.563 8.138 35.3-10.294 3.547-19.276 5.85-29.855 8.421a6.647 6.647 0 0 0-3.688-3.714l27.957-7.2-2.615-12.14z" fill="#e0f5ff"/></g></g></g></svg>