<svg xmlns="http://www.w3.org/2000/svg" width="120.751" height="268.568" viewBox="0 0 120.751 268.568">
  <g id="Group_8097" data-name="Group 8097" transform="translate(-469.381 -1169.388)">
    <path id="Path_17440" data-name="Path 17440" d="M584.786,1411.493,528.257,1379.3c-6.163-2.816-14.982-5.057-21.261-1.79-5.721,2.978-15.145,9.071-19.312,11.447-3.165,1.8-14.152,8.387-7.308,12.109,20.13,10.946,40.052,23.257,60.493,34.376,3.866,2.1,9.522,2.864,15.459,2.37a40.914,40.914,0,0,0,16.742-4.986q5.1-2.964,10.025-5.834c4.434-2.582,6.785-5.635,7.018-8.458C590.34,1415.776,588.569,1413.22,584.786,1411.493Z" fill="#231f20" fill-rule="evenodd" opacity="0.1" style="mix-blend-mode: multiply;isolation: isolate"/>
    <g id="Group_8096" data-name="Group 8096">
      <g id="Group_8081" data-name="Group 8081">
        <path id="Path_17441" data-name="Path 17441" d="M497.532,1248.964c-1.565.379-3.026-.148-4.426-.309-4.368-.5-7.684-.073-10.438,1.513-.667.384,1.89,7.389,4.936,9.607.145.106.342-.067.488-.124l2.844-.9,7.7-2.576Z" fill="#db9669" fill-rule="evenodd"/>
        <path id="Path_17442" data-name="Path 17442" d="M494.981,1248.978c-2.794-.478-4.681-1.715-6.259-1.753-1.619-.04-3.947,1.266-6.88,1.563.537,2.924,4.377,1.015,5.775,1.283,1.287.246,1.36,1.809,2.56,1.842C492.067,1251.965,494.791,1251.051,494.981,1248.978Z" fill="#db9669" fill-rule="evenodd"/>
        <path id="Path_17443" data-name="Path 17443" d="M526.556,1254.619c-12.405,2.15-18.562,1.521-31.1,2.735,1.378-4.774-1.184-9.047-3.1-9.507,10.6-2.207,23.459-5.738,34.407-5.7Z" fill="#12a8b3" fill-rule="evenodd"/>
        <path id="Path_17444" data-name="Path 17444" d="M528.927,1254.955c-12.405,2.151-19.137,1.43-31.674,2.645,1.766-5.081-.927-10.168-3.146-10.606,10.6-2.207,23.459-5.737,34.407-5.7Z" fill="#d2eefc" fill-rule="evenodd"/>
        <path id="Path_17445" data-name="Path 17445" d="M528.927,1254.955c-12.405,2.151-19.137,1.43-31.674,2.645a10.469,10.469,0,0,0,.247-6c7.624-.447,20.956-3.225,30.8-4.907Z" fill="#c3e6f7" fill-rule="evenodd"/>
      </g>
      <g id="Group_8083" data-name="Group 8083">
        <g id="Group_8082" data-name="Group 8082">
          <path id="Path_17446" data-name="Path 17446" d="M529.994,1385.41c-.894,3.14-1.119,4.761-2.423,6.589-2.6,3.644-6.437,6.248-12.021,10.206-2.656,1.884-3.218,3.669-.528,5.311,2.119,1.293,7.3.265,10.539-.5,6.074-1.429,8.53-5.085,10.608-6.036l1.572.357c1.288.023,6.35-2.02,7.338-3.343a36.084,36.084,0,0,0,.791-4.708c.188-5.141-.618-4.618-1.993-8.64C539.2,1384.989,534.676,1385.251,529.994,1385.41Z" fill="#111214" fill-rule="evenodd"/>
          <path id="Path_17447" data-name="Path 17447" d="M513.262,1405.162c-.027.812.522,1.6,1.76,2.354,2.119,1.293,7.3.265,10.539-.5,6.074-1.429,8.53-5.085,10.608-6.036l1.572.357c1.288.023,6.35-2.02,7.338-3.343a36.084,36.084,0,0,0,.791-4.708c.188-5.141-.618-4.618-1.993-8.64-2.069.15-4.108.285-6.145.4-.369,3.384.125,9.223-2.66,11.4-3.115,2.43-5.545,3.077-7.627,4.342C520.815,1404.821,516.435,1408.1,513.262,1405.162Z" fill-rule="evenodd"/>
          <path id="Path_17448" data-name="Path 17448" d="M528.521,1391.182c.662.978,1.965,1.53,4.119,2.066-3.475,3.917-3.964,3.55-8.63,6.172-2.351,2.687-2.678,3.2-4.179,4.064-1.791,1.034-4.32,2.1-5.384,1.333-.457-.329.158-1.248,2.131-2.678,2.238-1.622,4.516-3.266,6.576-4.979A24.291,24.291,0,0,0,528.521,1391.182Z" fill="#20232e" fill-rule="evenodd"/>
        </g>
        <path id="Path_17449" data-name="Path 17449" d="M547.386,1299.513a75.029,75.029,0,0,0,.663-12c-3.785-1.514-7.764-2.946-11.6-4.625l.274-.231c-4.068-1.909-7.574-4.874-12.265-7.566-1.962,6.179-2.69,8.947-2.54,13.974a154.273,154.273,0,0,0,2.2,19.875c.685,10.182,1.6,20.806,2.26,27.759,1.684,17.737,1.478,35.235,2.54,52.942,2.2,3.606,12.8,3.828,16.423-1.242.541-14.008,1.418-25.068,1.022-32.732-.33-6.38-.634-10.056-2.7-15.727C545.036,1330.505,546.886,1313.135,547.386,1299.513Z" fill="#001624" fill-rule="evenodd"/>
        <path id="Path_17450" data-name="Path 17450" d="M565.072,1404.025c.776,2.268,1.486,4.026,1.413,5.453-.075,1.478-.478,2.915-.459,4.784.016,1.6.1,2.965.284,4.778.19,1.856,0,2.734-.818,3.475a28.525,28.525,0,0,1-7.132,3.7,7.489,7.489,0,0,1-3.27.439,14.535,14.535,0,0,1-4.382-.8c-.4-.151-.816-1.715-.845-3.072-.062-2.841.2-2.6,1.372-7.1.4-1.537.726-3.005,1.278-4.8.688-2.238,1.544-4.207,1.633-6.409l8.319-.324Z" fill="#111214" fill-rule="evenodd"/>
        <path id="Path_17451" data-name="Path 17451" d="M565.072,1404.025c.776,2.268,1.486,4.026,1.413,5.453-.075,1.478-.478,2.915-.459,4.784.016,1.6.1,2.965.284,4.778.19,1.856,0,2.734-.818,3.475a28.525,28.525,0,0,1-7.132,3.7,7.489,7.489,0,0,1-3.27.439,14.535,14.535,0,0,1-4.382-.8c-.365-.137-.738-1.432-.827-2.683l.023,0c2.542.866,5.01,1.214,7.452.02,5.157-2.518,4.486-4.61,4-10.554-3.355-.591-4.673-1.189-6.375-3.026,2.86.841,5.934.991,7.455-.756l.473-4.73Z" fill-rule="evenodd"/>
        <path id="Path_17452" data-name="Path 17452" d="M535.029,1339.888c3.477,16.433,4.357,28.028,2.137,52.355,3.2-.237,6.461-1.451,8.17-3.842.541-14.008,1.418-25.068,1.022-32.732-.33-6.38-.634-10.056-2.7-15.727,1.768-12.133,4.321-37.381,3.781-50.916l-7.262-2.905C537.977,1306.146,536.589,1316.472,535.029,1339.888Z" fill="#00101a" fill-rule="evenodd"/>
        <path id="Path_17453" data-name="Path 17453" d="M542.547,1306.725c1.341,13.647,3.967,32.615,5.492,42.3,2.771,17.6,3.205,38.236,4.76,55.907,2.406,3.761,11.465,4.536,14.934-.143.151-14.018,1.423-29.711.813-37.362a48.314,48.314,0,0,0-3.79-15.842c.349-10.925,6.049-55.8-1.48-64.609a6.607,6.607,0,0,0-1.417-1.993l-10.97-.857-13.012-1.515a37.75,37.75,0,0,0,.094,15.453,2.471,2.471,0,0,0,.293.637c.125.921.289,1.848.5,2.778C538.955,1302.332,541.038,1304.715,542.547,1306.725Z" fill="#001e30" fill-rule="evenodd"/>
        <path id="Path_17454" data-name="Path 17454" d="M554.455,1297.712a42.864,42.864,0,0,1,2.717,15.059c.188,8.307.8,27.946,1.594,37.3,1.546,18.327,5.038,33.6,2.272,57.937a8.918,8.918,0,0,0,6.695-3.213c.151-14.018,1.423-29.711.813-37.362a48.314,48.314,0,0,0-3.79-15.842c.356-11.141,6.279-57.6-1.942-65.094l-12.529-.857C551.9,1290.288,552.407,1292.968,554.455,1297.712Z" fill="#001624" fill-rule="evenodd"/>
        <path id="Path_17455" data-name="Path 17455" d="M553.713,1410.071c2.407,1.9,1.564,2.729,5.078,3.187a19.733,19.733,0,0,1-2.738,6.849c-.142,1.324-.249,3.061-2.827,3.078-4.815.031-1.475-3.943-1.458-4.093A39.855,39.855,0,0,1,553.713,1410.071Z" fill="#20232e" fill-rule="evenodd"/>
        <path id="Path_17456" data-name="Path 17456" d="M524.927,1279.021a33.98,33.98,0,0,0,9.067,6.368c.013,6.212.009,17.718-.224,29.218-.024,6.8-.134,13.729-.428,19.495q-.016.42-.028.841c.578,4.786,2.822,7.488,3.1,14.68a182.6,182.6,0,0,1-2.147,30.216c.047,3.85.072,7.686.04,11.512a7.542,7.542,0,0,1-5.1-2.107l-.285-43.56c-.274-6.941-1.343-17.332-2.2-28.02C524.908,1304.9,523.143,1290.089,524.927,1279.021Z" fill="#001e30" fill-rule="evenodd"/>
        <path id="Path_17457" data-name="Path 17457" d="M549.834,1288.872l.031.009a202.172,202.172,0,0,0,5.873,20.042c1.6,13.857,1.192,28.977,1.385,39.661,1.442,19.545,3.075,39.13,4.051,58.7-1.779-.154-5.724-.948-6.669-1.806-1.067-15.936-.878-38.409-2.863-53.386-.406-3.058-3.357-29.032-6.916-43.75-1.193-4.931-4.6-4.838-5.294-7.674-1.5-6.151-1.529-8.959-.913-15.64C542.26,1286.432,545.988,1287.775,549.834,1288.872Z" fill="#00263d" fill-rule="evenodd"/>
      </g>
      <path id="Path_17458" data-name="Path 17458" d="M524.342,1275.541a1.98,1.98,0,0,0,.358.866c4.023,5.606,29.26,14.055,34.54,13.617-4.19-36.443,33.975-67.466-6.917-79.479l-11.765,6.476-4.21-.756-.539-5.181c-5.693,5.662-8.326,13.163-9.339,23.594C525.144,1248.325,528.008,1260.567,524.342,1275.541Z" fill="#12a8b3" fill-rule="evenodd"/>
      <path id="Path_17459" data-name="Path 17459" d="M533.11,1201.712c-4.379-.278-6.347.637-8.655,4.077-4.033,6.011-4.663,18.809-4.378,30.342.161,6.535,1.2,12.279,1.276,20.4.049,4.949-.691,11.811-1.369,18.714-.653,6.67-1.25,52.382-1.017,57.441.884,1.905,7.128,5.1,7.951,4.942-.446-5.719-.714-51.537-.794-58.891-.063-5.849-.009-12.041.168-18.3.388-13.712,1.348-27.74,3.909-38.153,3.758-15.278,10.235-16.931,9.569-18.994C539.636,1202.88,533.361,1201.727,533.11,1201.712Z" fill="#d2eefc" fill-rule="evenodd"/>
      <path id="Path_17460" data-name="Path 17460" d="M550.911,1262.7c-.172,2.367-.226,4.527-.183,6.513,6.3-5.737,12.212-13.076,17.733-21.021,2.827-7.954,5.387-15.934,5.333-21.591Z" fill="#11101a" fill-rule="evenodd"/>
      <path id="Path_17461" data-name="Path 17461" d="M536,1207.827c-6.865,5.453-11.271,25.583-11.147,39.153.113,12.252.079,21.323.317,31.11.143,5.89.386,51.044.82,58.3a16.788,16.788,0,0,1-6.308-4.01c.229-5.45.685-49.891,1.145-55.317.921-10.855,1.865-21.664,1.068-32.435C520.873,1230.873,520,1212.07,528,1204.2,533.127,1201.446,534.784,1206.555,536,1207.827Z" fill="#e0f5ff" fill-rule="evenodd"/>
      <g id="Group_8086" data-name="Group 8086">
        <g id="Group_8084" data-name="Group 8084">
          <path id="Path_17462" data-name="Path 17462" d="M523.8,1265.369c-1.628-1.776-2.08-2.221-3.584-2.727l-1.13,14.681c.756,1.194,3.245,2.182,4,1.878Z" fill="#d2eefc" fill-rule="evenodd"/>
          <path id="Path_17463" data-name="Path 17463" d="M523.8,1265.369c-1.628-1.776-2.08-2.221-3.584-2.727-.162,4.169-.256,4.037.977,5.5,2.2,2.618,1.361,2.795,1.431,11.165a1.524,1.524,0,0,0,.464-.109Z" fill="#c3e6f7" fill-rule="evenodd"/>
          <path id="Path_17464" data-name="Path 17464" d="M520.086,1267.574l1.968,3.132-.177,8.072a4.214,4.214,0,0,1-2.409-1.768Z" fill="#e0f5ff" fill-rule="evenodd"/>
        </g>
        <g id="Group_8085" data-name="Group 8085">
          <path id="Path_17465" data-name="Path 17465" d="M524.393,1261.882c-1.821-.8-2.567-1.531-3.94-2.009l-.636,5.635c.332.927,2.633,2.674,4.013,1.419Z" fill="#d2eefc" fill-rule="evenodd"/>
          <path id="Path_17466" data-name="Path 17466" d="M524.393,1261.882c-1.821-.8-2.567-1.531-3.94-2.009,1.06,2.014,3.4,2.346,2.916,7.354a1.682,1.682,0,0,0,.461-.3Z" fill="#c3e6f7" fill-rule="evenodd"/>
          <path id="Path_17467" data-name="Path 17467" d="M520.522,1260.669a12.5,12.5,0,0,1,2.34,6.116c-1.269-.089-1.669-.412-2.737-1.543C520.171,1263.729,520.345,1262.32,520.522,1260.669Z" fill="#e0f5ff" fill-rule="evenodd"/>
        </g>
      </g>
      <path id="Path_17468" data-name="Path 17468" d="M542.923,1286c7,2.488,13.845,4.231,16.317,4.026-4.19-36.443,33.975-67.466-6.917-79.479l-11.765,6.476-4.21-.756-.539-5.181a27.54,27.54,0,0,0-5.86,8.635l.337.37c3.07-.972,4.683-2.216,6.266-1.517,1.306.577,2.8,2.631,3.259,5.889,1.855-.464,5.393-1.8,7.231-2.321-6.815,10.164-13.172,32.008-8.4,54.817C539.233,1279.792,541.645,1283.07,542.923,1286Z" fill="#06929c" fill-rule="evenodd"/>
      <path id="Path_17469" data-name="Path 17469" d="M565.169,1215.322c-2.2-1.219-6.678-3.963-11.508-6.661,4.067,4.873-5.756,16.589-10.314,31.2-2.878,9.223-3.879,26.283-1.607,36.441,1.714,7.667,6.022,7.576,11.3,13.067,2.461,2.56,3.278,5.759,4.538,8.963,2.969,7.549-1.46,41.708-.7,48.211,1.562-.359,11.033-4.37,12.61-7.747-.826-13.328.13-42.167-2.424-49.373-2.37-6.688-5.054-9.928-5.364-16.833-.408-9.1,12.44-33.375,12.321-45.939C573.969,1221.072,569.275,1217.6,565.169,1215.322Z" fill="#d2eefc" fill-rule="evenodd"/>
      <path id="Path_17470" data-name="Path 17470" d="M565.169,1215.322l-11.188-6.205c1.669,2.678,6.122,5.55,10.922,9.6a21.937,21.937,0,0,0-6.2,10.951c-2.527,9.991-6.391,23.14-7.055,32.277-1.2,16.462,4.205,22.785,7.865,30.331,1.764,3.638.9,47.259.921,52.741,2.994-.426,8.349-4.688,9.092-6.218-.484-11.762,1.748-40.363-3.367-51.669-2.093-4.625-4.006-7.99-4.456-14.545-.623-9.091,12.44-33.375,12.321-45.939C573.969,1221.072,569.275,1217.6,565.169,1215.322Z" fill="#c3e6f7" fill-rule="evenodd"/>
      <path id="Path_17471" data-name="Path 17471" d="M536.339,1204.746c-4.089,1.908-5.437,2.667-8.279,7.056l2.482,1.727-3.454,1.457c-1.243,12.675-2.549,26.775-1.026,39.624a159.368,159.368,0,0,1,5.926-35.936c1.2-4.039,2.86-5.774,5.507-9.74C537.93,1208.281,537.107,1204.388,536.339,1204.746Z" fill="#ebf9ff" fill-rule="evenodd"/>
      <g id="Group_8087" data-name="Group 8087">
        <path id="Path_17472" data-name="Path 17472" d="M562.486,1273.725c-5.276,1.556-6.714,2.024-10.96,4.336l6.225,11.785c3.334.268,7.371-1.449,10.53-4.182Z" fill="#d2eefc" fill-rule="evenodd"/>
        <path id="Path_17473" data-name="Path 17473" d="M562.486,1273.725c-5.276,1.556-6.714,2.024-10.96,4.336,1.886,3.5,1.564,3.571,5.629,2.485,7.262-1.941,5.33-.423,10.159,5.9.212.278.653-.513.967-.785Z" fill="#c3e6f7" fill-rule="evenodd"/>
        <path id="Path_17474" data-name="Path 17474" d="M561.576,1272.263c-5.3,1.583-7.781,1.955-11.68,3.235l2.654,4.632c1.561.251,8.818-1.243,11.417-3.728Z" fill="#d2eefc" fill-rule="evenodd"/>
        <path id="Path_17475" data-name="Path 17475" d="M561.576,1272.263c-5.3,1.583-7.781,1.955-11.68,3.235,4.262.147,10.535-2.366,13.112,1.652a6.732,6.732,0,0,0,.959-.748Z" fill="#c3e6f7" fill-rule="evenodd"/>
        <path id="Path_17476" data-name="Path 17476" d="M553.927,1282.09l6.925-1.121,4.827,5.652a23.847,23.847,0,0,1-7.158,2.832Z" fill="#e0f5ff" fill-rule="evenodd"/>
        <path id="Path_17477" data-name="Path 17477" d="M550.679,1275.967c3.379-.083,8.119-.212,10.687,1.473a24.447,24.447,0,0,1-8.226,2.146A19.33,19.33,0,0,1,550.679,1275.967Z" fill="#e0f5ff" fill-rule="evenodd"/>
      </g>
      <path id="Path_17478" data-name="Path 17478" d="M536.771,1222.849c.338,1.508.552,2.788.767,4.318-4.216,12.227-6.466,22.573-8.94,37.023a168,168,0,0,1,3.64-41.395,9.829,9.829,0,0,1,2.9-1.02,4.567,4.567,0,0,1,.985-.005Z" fill="#041e2e" fill-rule="evenodd"/>
      <path id="Path_17479" data-name="Path 17479" d="M556.076,1213.7l5.37,4.4c-5.655,9.309-12.532,27.51-12.742,45.174-.1,8.518.568,16.2,5.241,23.962-15.518-5.61-13.066-28.333-8.48-45.675C548.584,1229.762,553.946,1221.226,556.076,1213.7Z" fill="#e0f5ff" fill-rule="evenodd"/>
      <path id="Path_17480" data-name="Path 17480" d="M553.639,1207.091a22.716,22.716,0,0,1,2.875,4.53c1.6,3.9,1.4,10-.528,16.749l-3.925-1.455,1.893,4.274c-7.888,10.306-12.3,25.658-12.912,41.422C535.92,1231.626,555.085,1221.431,553.639,1207.091Z" fill="#ebf9ff" fill-rule="evenodd"/>
      <path id="Path_17481" data-name="Path 17481" d="M540.181,1218.21c-.688,2.874-.792,2.83-3.469,4.857l-1.729-.917c-.81-3.317-.409-5.463.255-5.856C537.556,1216.209,538.521,1216.483,540.181,1218.21Z" fill="#041e2e" fill-rule="evenodd"/>
      <g id="Group_8088" data-name="Group 8088">
        <path id="Path_17482" data-name="Path 17482" d="M471.744,1222.279l29.659,16.23,22.886,44.687-30.525-18.173Z" fill="#380303" fill-rule="evenodd"/>
        <path id="Path_17483" data-name="Path 17483" d="M471.744,1222.279l-2.363.622,21.5,41.333,2.884.789Z" fill="#380303" fill-rule="evenodd"/>
        <path id="Path_17484" data-name="Path 17484" d="M472.114,1223.288l28.867,15.833,21.794,42.664-1.71.875-50.965-58.9Z" fill="#e6e6e6" fill-rule="evenodd"/>
        <path id="Path_17485" data-name="Path 17485" d="M471.88,1222.845l29.1,16.277-4.52,2.676-26.595-18.479Z" fill="#f5f5f5" fill-rule="evenodd"/>
        <path id="Path_17486" data-name="Path 17486" d="M469.39,1222.892l29.852,16.746,22.692,44.171-30.525-18.173Z" fill="#380303" fill-rule="evenodd"/>
        <path id="Path_17487" data-name="Path 17487" d="M486,1250.417c-3.178-.583-3.175-1.353-3.363-.276-.277,1.576,1.918,7.416,4.963,9.634a14.992,14.992,0,0,0,3.2.523c.9-.032.849-.516.36-1.786l-2.171-5.631C488.272,1251.2,487.96,1250.776,486,1250.417Z" fill="#db9669" fill-rule="evenodd"/>
      </g>
      <path id="Path_17488" data-name="Path 17488" d="M546.5,1301.636c-.512,1.246-.117,7.671,5.521,4.825,4.494-2.269,6.408-2.661,7.938-5.106,1.124-1.8.864-3.682,2.871-5.6l-5.341-4.888c-1.736,2.729-3.017,1.481-5.376,2.8C549.508,1295.12,548.347,1297.146,546.5,1301.636Z" fill="#f1b287" fill-rule="evenodd"/>
      <g id="Group_8089" data-name="Group 8089">
        <path id="Path_17489" data-name="Path 17489" d="M550.77,1289.244c.388,5.356,1.544,11.886,4.886,15.924l.366,7.256c-4.238.551-7.26-4.676-8.654-5.16-1.231-.428-4.584-8.677-3.625-13.369.708-3.464,2.516-3.9,4.757-5.044A13.032,13.032,0,0,0,550.77,1289.244Z" fill="#00263d" fill-rule="evenodd"/>
        <path id="Path_17490" data-name="Path 17490" d="M551.593,1289c.387,5.356,2.3,11.741,5.643,15.779l-1.6.87c-4.6-4.34-5.877-12.195-5.3-16.88C550.643,1288.851,551.3,1288.929,551.593,1289Z" fill="#001624" fill-rule="evenodd"/>
      </g>
      <path id="Path_17491" data-name="Path 17491" d="M536.551,1216.463c-.289-.738-.437-2.26-.749-3.584a15.544,15.544,0,0,0-.989-2.788c-1.617.205-2.325,5.092-3.7,7.978A7.414,7.414,0,0,1,536.551,1216.463Z" fill="#1abac6" fill-rule="evenodd"/>
      <path id="Path_17492" data-name="Path 17492" d="M536.116,1216.081c-.994-2.659-1.629-3.16-1.95-3.017s-1.107.111-2.617,4.366A6.236,6.236,0,0,1,536.116,1216.081Z" fill="#1bd3e0" fill-rule="evenodd"/>
      <path id="Path_17493" data-name="Path 17493" d="M551.635,1206.29c.325,5.226-9.6,8.859-15.135,10.177,1.389,1.677,3.184,3.785,3.113,5.46,3.993-1.092,10.765-2.97,13.509-8.076A5.6,5.6,0,0,0,551.635,1206.29Z" fill="#1abac6" fill-rule="evenodd"/>
      <path id="Path_17494" data-name="Path 17494" d="M542.864,1215c-2.012.7-4,1.253-5.594,1.633,1.185,1.431,2.716,3.229,2.655,4.657a20.763,20.763,0,0,0,5.164-2.155C547.638,1217.65,546.7,1213.672,542.864,1215Z" fill="#1bd3e0" fill-rule="evenodd"/>
      <g id="Group_8090" data-name="Group 8090">
        <path id="Path_17495" data-name="Path 17495" d="M535.476,1211.827c-.179-.505-.385-1-.584-1.543-.566-1.54-.586-4.8-1.566-8.4l14.208-6.193,3.043-1.613a19.067,19.067,0,0,0,1.062,12.343c.155,5.142-9.59,8.72-15.091,10.036C536.057,1215.209,536.024,1213.38,535.476,1211.827Z" fill="#e8a476" fill-rule="evenodd"/>
        <path id="Path_17496" data-name="Path 17496" d="M550.34,1209.72c-5.156-1.821-9.187.442-15.865-1.343a51.971,51.971,0,0,0-1.149-6.495l14.208-6.193,3.043-1.613a19.068,19.068,0,0,0,1.062,12.343A4.913,4.913,0,0,1,550.34,1209.72Z" fill="#db9669" fill-rule="evenodd"/>
      </g>
      <g id="Group_8091" data-name="Group 8091">
        <path id="Path_17497" data-name="Path 17497" d="M561.247,1299.992c-3.428-2.041-4.681-4.6-5.791-7.695a12.068,12.068,0,0,0,2.27-2.012l5.842,6.829A11.911,11.911,0,0,0,561.247,1299.992Z" fill="#12a8b3" fill-rule="evenodd"/>
        <path id="Path_17498" data-name="Path 17498" d="M561.247,1299.992a12.375,12.375,0,0,1-2.6-2.028c.435-.4.505-.516.931-.927-.87-.878-3.5-5.1-2.91-5.707l6.9,5.784A11.911,11.911,0,0,0,561.247,1299.992Z" fill="#06929c" fill-rule="evenodd"/>
        <path id="Path_17499" data-name="Path 17499" d="M571.274,1220.52a26.261,26.261,0,0,1,1.812,2.982c4.467,8.657,9.152,26.064,10.2,36.73.258,2.645.857,4.052.635,5.781-.452,3.523-9.066-.845-12.422,1.457-3.236-7.056-4.97-14.249-13.459-29.354C555,1232.715,561.831,1216.262,571.274,1220.52Z" fill="#d2eefc" fill-rule="evenodd"/>
        <path id="Path_17500" data-name="Path 17500" d="M571.274,1220.52a26.261,26.261,0,0,1,1.812,2.982c4.467,8.657,9.152,26.064,10.2,36.73.258,2.645.857,4.052.635,5.781-.253,1.976-3.074,1.47-6.1,1.05.608-1.539.428-1.8-.2-4.651-3.163-14.428-8.03-27.674-12.781-41.724,1.334-.876,2.627-2.1,4.422-1.667A6.176,6.176,0,0,1,571.274,1220.52Z" fill="#c3e6f7" fill-rule="evenodd"/>
        <path id="Path_17501" data-name="Path 17501" d="M581.248,1259.267c1.5,2.732,3.123,4.077,2.563,7.435-.24,1.438-1.213,2.9-1.936,4.692-3.158,7.851-10.38,18.659-18.343,26.289-2.729.014-6.65-4.817-7.241-7.433,3.612-8.633,9.212-14.809,13.812-22.731a39.148,39.148,0,0,1,2.475-4.143Z" fill="#d2eefc" fill-rule="evenodd"/>
        <path id="Path_17502" data-name="Path 17502" d="M581.248,1259.267c1.5,2.732,3.123,4.077,2.563,7.435-.24,1.438-1.213,2.9-1.936,4.692-3.158,7.851-10.38,18.659-18.343,26.289-1.209.006-2.651-.938-3.934-2.219,5.654-9.09,11.363-17.657,17.444-26.544,1.456-3.472,1.4-2.8.583-6.508q-.142-.647-.289-1.291Z" fill="#c3e6f7" fill-rule="evenodd"/>
        <path id="Path_17503" data-name="Path 17503" d="M557.8,1293.314a9.6,9.6,0,0,1-1.513-3.064c3.612-8.633,9.212-14.809,13.812-22.731.309-.532.559-.987.788-1.4-2.882-6.652-4.909-13.858-12.856-28-1.951-3.472.176-11.511,4.453-15.68,4.584,13.944,8.016,26.535,12.132,40.435,1.157,3.907.931,3.364-2.466,8.729C567.787,1278.716,561.995,1287.127,557.8,1293.314Z" fill="#e0f5ff" fill-rule="evenodd"/>
      </g>
      <g id="Group_8095" data-name="Group 8095">
        <path id="Path_17504" data-name="Path 17504" d="M535.234,1206.916c1.872-.753,6.879-2.756,8.578-3.673,3.6-1.943,2.924-5.717,6.978-8.656,3.466-1.543,4.16-3.251,4.827-5.134a13.717,13.717,0,0,0-2.314-13.191,12.468,12.468,0,0,0-10.134-4.323c-7.68.107-12.423,5.168-13.868,11.448-.072.314-.456.585-.54.9a4.413,4.413,0,0,0-.19,1.668c.143,1.429.237.884.124,1.858-.136,1.181-.984,2.039-1.135,3.523-.257,2.524.073,4.086.158,6.954.031,1.03.208,2.241.152,3.272-.1,1.826.02,2.636.27,2.963a5.737,5.737,0,0,0,1.689,1.348,8.571,8.571,0,0,0,3.277,1.228A7.1,7.1,0,0,0,535.234,1206.916Z" fill="#f1b287" fill-rule="evenodd"/>
        <path id="Path_17505" data-name="Path 17505" d="M532.531,1179.866c-.889.032-1.853-.48-2.581,1.343.527-2.987,1.329-3.264,3.172-3.545Z" fill="#361d07" fill-rule="evenodd"/>
        <path id="Path_17506" data-name="Path 17506" d="M543.671,1183.862c5.647-.57,11.91-4.544,13.377-7.091,3.049,5.98,2.309,14.033-2.418,18.91a16.027,16.027,0,0,0-3.948,7.794,19.054,19.054,0,0,1-1.155-5.377l-.7-5.748-.242-.349c-.326.675-1.138,2.349-1.44,3.046-.354,0-.931-.516-1.434-.817C546.706,1189.02,546.439,1185.8,543.671,1183.862Z" fill="#361d07" fill-rule="evenodd"/>
        <path id="Path_17507" data-name="Path 17507" d="M543.464,1183.807c-3.921-.344-9.266-1.682-12.617-4.225a.915.915,0,0,1-.239-.873c1.553-4.336,7.955-7.828,10.375-8.593a13.982,13.982,0,0,1,5.587-.661c4.928.461,10.25,2.984,10.478,7.276C556.682,1179.087,548.41,1184.239,543.464,1183.807Z" fill="#361d07" fill-rule="evenodd"/>
        <g id="Group_8092" data-name="Group 8092">
          <path id="Path_17508" data-name="Path 17508" d="M543.3,1183.6c-5.932-.519-13.736-3.231-16.707-7.734,5.38.812,11.481-7.213,19.981-6.416,4.928.461,10.25,2.984,10.478,7.276C555.44,1178.852,548.243,1184.038,543.3,1183.6Z" fill="#361d07" fill-rule="evenodd"/>
          <path id="Path_17509" data-name="Path 17509" d="M543.538,1183.86c-5.932-.519-13.978-3.486-16.949-7.989l.053.007a20.352,20.352,0,0,0,14.183,1.874,5.479,5.479,0,0,1-2.069-1.021c4.469.242,7.546.456,11.416-1.934a7.629,7.629,0,0,1-3.091.17c2.294-.544,4.468-2.394,7.986-2.158a5.579,5.579,0,0,1,2.062,4.083C555.682,1179.362,548.484,1184.293,543.538,1183.86Z" fill="#241304" fill-rule="evenodd"/>
          <path id="Path_17510" data-name="Path 17510" d="M557.17,1177.307c.458,1.045,1.551,3.9,1.236,5.964a7.291,7.291,0,0,0-1.961-3.492c1.2,1.928,1.39,4.3.564,7.145-.039-2.461-.294-3.859-2.069-5.238,1.294,2.439.817,6.922.081,8.864-.225-2.783-.449-6.581-2.82-7.387,1.382,2.259,1.178,3.5.349,5.748-.242-2.494-.986-3.894-2.686-4.835-.047,2.269-.749,6.474-2.981,8.434.184-.888,1.321-6.887.134-7.735a4.3,4.3,0,0,1-.162,2.847,5.111,5.111,0,0,0-2.444-3.492C549.19,1183.985,556.116,1179.619,557.17,1177.307Z" fill="#4a2b12" fill-rule="evenodd"/>
          <path id="Path_17511" data-name="Path 17511" d="M554.25,1172.1c-2.407-1.889-6.651-2.843-9.7-2.7-2.584.122-5.093,1.185-7.413,1.707a6.3,6.3,0,0,0,1.854.054c-4.107,1.151-7.53,4.813-12.329,4.7a9.185,9.185,0,0,0,5.587-.215,12.354,12.354,0,0,1-2.1,1.021c4.565.351,7.576-2.123,11.711-3.572a5.119,5.119,0,0,1-2.5,1.531C543.809,1173.82,547.912,1170.269,554.25,1172.1Z" fill="#4a2b12" fill-rule="evenodd"/>
        </g>
        <g id="Group_8094" data-name="Group 8094">
          <path id="Path_17512" data-name="Path 17512" d="M550.612,1190.384c3.181-.725,2.83,2.824,2.129,4.924-.482,1.444-1.69,1.206-2.254,2.327a2.8,2.8,0,0,1-2.738,1.748c-1.864-.247-.417-2.9-.079-3.983C547.641,1193.571,548.593,1190.844,550.612,1190.384Z" fill="#e8a476" fill-rule="evenodd"/>
          <g id="Group_8093" data-name="Group 8093">
            <path id="Path_17513" data-name="Path 17513" d="M552.331,1194.019c.271-2.056-.058-2.265-.758-2.51-.863-.3-2.3,1.53-2.421,2.159.461-.141,1.187-.265,1.464.254a1.25,1.25,0,0,0-.94.04c-.281.093-.507.382-.9.315a1.986,1.986,0,0,1,.264-1.032c.561-1.14,1.6-2.424,2.7-2.01C552.3,1191.445,552.924,1192.058,552.331,1194.019Z" fill="#db9669" fill-rule="evenodd"/>
            <path id="Path_17514" data-name="Path 17514" d="M549.039,1195.912c.157-.324.028-.85.644-1.166a1.022,1.022,0,0,0-1.1.5c-.234.414-.242.755-.167.827C548.469,1196.129,548.763,1196.484,549.039,1195.912Z" fill="#db9669" fill-rule="evenodd"/>
          </g>
        </g>
        <path id="Path_17515" data-name="Path 17515" d="M534.864,1198.99c1.071.8,1.99,1.421.564,3.1C536.384,1200.649,535.609,1199.882,534.864,1198.99Z" fill="#e8a476" fill-rule="evenodd"/>
        <path id="Path_17516" data-name="Path 17516" d="M533.171,1195.348c1.153-.371,1.927-.023,1.794,1.076C535.594,1195.3,534.473,1194.547,533.171,1195.348Z" fill="#e8a476" fill-rule="evenodd"/>
      </g>
    </g>
  </g>
</svg>
