<svg xmlns="http://www.w3.org/2000/svg" width="106.207" height="318.044" viewBox="0 0 106.207 318.044"><g data-name="Group 7893" fill-rule="evenodd"><path data-name="Path 16435" d="M101.169 293.122l-53.238-30.32c-5.8-2.652-14.111-4.763-20.023-1.685-5.388 2.8-14.264 8.542-18.188 10.78-2.981 1.7-13.328 7.9-6.884 11.4 18.959 10.309 37.722 21.9 56.973 32.376 3.641 1.98 8.967 2.7 14.559 2.231a38.532 38.532 0 0 0 15.767-4.695q4.8-2.792 9.441-5.495c4.176-2.432 6.391-5.307 6.61-7.965.216-2.593-1.453-5-5.017-6.627z" fill="#231f20" opacity=".1" style="mix-blend-mode:multiply;isolation:isolate"/><path data-name="Path 16436" d="M50.332 98.778c-6.425 5.568-13.9 11.975-27.905 18.256 2.115-1.244-.6-8.809-3.888-8.346 8.029-6.889 17.092-15.069 25.512-19.485 4.849-1.97 8.856-.344 9.805 2.257.683 1.875.256 4.049-3.524 7.318z" fill="#4aa1ad"/><path data-name="Path 16437" d="M50.332 98.778c-6.426 5.568-13.9 11.975-27.905 18.256 1.061-.625.905-2.843.071-4.839 5.693-3.937 10.492-6.847 10.723-7.676.49-1.752-.062-4.979.149-8.245a75.893 75.893 0 0 1 10.681-7.071c4.849-1.97 8.856-.344 9.805 2.257.683 1.875.256 4.049-3.524 7.318z" fill="#387f88"/><path data-name="Path 16438" d="M55.705 131.607c2.227 6.961.089 18.519-1.781 30.6-1.029 6.644-2.685 13.493-3.485 19.349-.892 6.529-1.327 10.727-1.075 13.956.6 7.653 3.819 9.27 5.025 19.243 1.462 12.1-4.9 25.978-4.427 39.315a8.35 8.35 0 0 0 1.595 3.274c5.343 6.571-.164 5.7.349 14.381.046.763-2.906 14-2.906 14s-7.932 2.206-8.531 2.121-5.52-1.8-5.52-1.8c.387-.724.871-2.476 1.183-3.139 3.573-7.58 4.05-16.865 4.057-25.417.008-11.7-3.218-39.242-6.231-50.487-3.024-6.892-4.086-7.565-3.656-19.5.7-19.464-.614-33.827 1.79-54.392z" fill="#f1b287"/><path data-name="Path 16439" d="M49.513 189.299a37.889 37.889 0 0 0-.149 6.21c.6 7.653 3.819 9.27 5.025 19.243 1.462 12.1-4.9 25.978-4.427 39.315a8.35 8.35 0 0 0 1.595 3.274c5.343 6.571-.164 5.7.349 14.381.045.763-2.906 14-2.906 14s-4.836 1.345-7.241 1.894a25.747 25.747 0 0 0 5.559-14.247c.491-5.769-1.458-14.6-1.49-17.972-.1-10.287.3-33.072-.129-37.113-.7-6.648-3.022-11.948-5.565-21.371-.715-2.65.165-4.313 6.47-4.973z" fill="#e8a476"/><path data-name="Path 16440" d="M37.18 280.494c-.853 1.566-1.773 3.811-2.556 5.5a34.229 34.229 0 0 0-2 5.33 2.5 2.5 0 0 0 .181 2.143c1.916 2.571 11.513-2.118 14.73-4.959 2.078-1.835 2.116-4.005 2.6-6.655.734-3.979.859-4.426 1.811-8.514l1.081 11.1.915.554a123.3 123.3 0 0 1 1.371-14.363c.279-1.54.754-3.3.821-4.147.4-5.026-2.091-7.5-4.376-8.912.839 3.055-1.377 8.024-2.383 14.282-1.054 6.549-4.681 13.708-7.531 14.314-1.2.255-3.856-1.243-5.3-2.066-.546-.312.076-2.188.636-3.607z" fill="#00263d"/><path data-name="Path 16441" d="M35.508 294.178c3.662-.39 9.622-3.542 12.025-5.663 2.078-1.835 2.116-4.005 2.6-6.655.734-3.979.859-4.426 1.811-8.514l1.081 11.1.943.632.842-.867c.164-4.279-.121-10.131.5-13.574.279-1.539.754-3.3.821-4.148.4-5.025-2.091-7.5-4.377-8.911.84 3.055-1.376 8.024-2.382 14.282-.868 5.389-3.477 11.191-5.963 13.414a44.972 44.972 0 0 1-7.901 8.904z" fill="#001624"/><g data-name="Group 7881"><path data-name="Path 16442" d="M63.809 209.562c2.1 3.312 4.507 6.671 5.556 9.4 4 10.385 2.357 28.669 3.462 44.394.11 1.562 1.09 2.989 1.538 4.488a54.462 54.462 0 0 1 1.936 8.079 73.915 73.915 0 0 1 .758 15c-.109 2.124-.866 3.16-.988 6.066l-11.7 4.08c.2-2.515.452-6.36.495-10.592.039-3.785-.111-7.879-.223-11.627-.13-4.3.124-8.229-.237-10.593-2.291-14.966-6.289-20.15-10.873-35.357-1.894-6.283-1.946-8.962-4.756-14.683-1.23-2.928-1.931-7.974-1.246-13.2.644-4.902 9.238-.371 16.278 4.545z" fill="#f1b287"/><path data-name="Path 16443" d="M76.22 172.492c-5.658 18.09-10.1 24.708-10.883 32.489-.255 2.536.346 5.823 1.016 9.1l-17.46 1.016a77.891 77.891 0 0 1-1.439-8.484 32.813 32.813 0 0 1 .686-11.195c1.488-5.947 4.028-14.638 8.125-26.238l20.06 1.548z" fill="#f1b287"/><path data-name="Path 16444" d="M59.386 196.418a30.448 30.448 0 0 0 1.025 6.477c1.4 4.967 7.193 11.509 8.993 16.183 4 10.385 2.357 28.669 3.462 44.393.11 1.563 1.09 2.99 1.537 4.489a54.36 54.36 0 0 1 1.937 8.079 73.744 73.744 0 0 1 .758 15c-.109 2.124-.866 3.16-.988 6.066l-4.365 1.522c.962-7.715-.07-17.931-1.264-27.526-2.045-16.431-5.677-35.121-10.295-47.726-1.578-4.306-3.064-7.464-6.378-9.622 4.043-.71-.788-4.4-3.474-10.411z" fill="#e8a476"/><path data-name="Path 16445" d="M74.045 266.94c1.08 2.313 2.085 3.481 2.712 6.772s-.083 8.7.692 12.776l1.23 6.467c.716 3.766.169 6.545-3.637 10.353-3.449 3.453-7.063 5.215-9.287 4.534-1.638-.5-3.276-2.989-2.063-10.426 1.012-6.2.8-12.029.929-18.6.592 6.343.811 8.5.268 14.892-.152 1.785-.182 4.662 1.905 4.632 8.629-.128 8.695-2.464 8.979-5.178.761-7.246.165-19.836-1.728-26.222z" fill="#00263d"/></g><path data-name="Path 16446" d="M74.045 266.94c1.08 2.313 2.085 3.481 2.712 6.772s-.083 8.7.692 12.776l1.23 6.467c.716 3.766.169 6.545-3.637 10.353a19.028 19.028 0 0 1-5.52 4.011c-.432.189 3-5.985 2.373-9.48 3.576-.849 3.667-2.657 3.878-4.674.761-7.249.165-19.839-1.728-26.225z" fill="#001624"/><g data-name="Group 7882"><path data-name="Path 16447" d="M68.606 119.834a9.339 9.339 0 0 0 .285 1.3 29.967 29.967 0 0 0 4.279 7.885 37.469 37.469 0 0 1 6.041 12.794c1.815 6.961.3 17.734-2.282 29.813-1.422 6.643-3.482 13.493-4.628 19.349-1.055 5.386-4.869 13.024-2.819 18.549-2.7 2.466-3.578 3.821-8.027 3.93-11.959.291-28.135-8.79-30.985-13.471a155.6 155.6 0 0 1-.848-18.483c-.372-13.969.386-27.088.6-41.137.38-3.94.663-8.149.871-12.187.04-.986.115-1.921.219-2.812.109-.986.27-1.96.465-2.932 1.017-5.061 3.234-8.934 4.03-12.92 4.162-3.152 24.788 4.786 32.799 10.322z" fill="#001e30"/><path data-name="Path 16448" d="M79.211 141.816c1.815 6.961.3 17.734-2.282 29.813-1.422 6.643-3.482 13.493-4.628 19.349a139.86 139.86 0 0 0-2.549 18.736c-1.361 2.246-5.535 3.911-8.362 3.716-3.579-20.789 3.391-43.63 4.022-61.224.323-8.986-4.7-7.63-14.336-12.032-9.055-4.135-12.053-11.368-4.4-8.937 9.468 3 15.556.559 15.054-4.143-.246-2.3-.575-4.538-.616-6.428l-.27-.414a24.373 24.373 0 0 0 7.71-.7 10.041 10.041 0 0 0 .333 1.584 29.967 29.967 0 0 0 4.279 7.885 38.683 38.683 0 0 1 6.045 12.795z" fill="#001624"/><path data-name="Path 16449" d="M60.806 159.178c-1.256 11.676-2.179 22.185-3.47 34.046-.619 5.687-.858 12.34.547 17.971-9.353-.867-21.066-6.3-26.307-12.354-1.646-13.3-.533-48.087-.227-62.01.2-8.943.419-14.521 3.529-22.364 5.848 4.578 11.826 7.277 21.446 9.436-3.439 5.037-5.651 6.559-8.89 5.694-2.685-.717-5.859-1.18-7.5-.266-1.882 1.051-1.86 3.769 1.174 7.5 1.989 2.447 10.811 8.218 17.508 10.648 4.475 1.623 2.68 7.144 2.19 11.699z" fill="#00263d"/></g><path data-name="Path 16450" d="M72.9 102.478c-3.165 6.28-4.853 13.255-4.294 17.36-3.317 4.286-25.423 1.427-32.8-10.319 1.2-6.019-1.465-11.943-.807-18.9.176-1.864.358-3.748.547-5.628.636-6.365.711-12.009 1.431-17.57.928-7.171 1.786-13.282 2.714-16.163a8.655 8.655 0 0 1 1.393-2.858c1.9-2.711 5.306-4.085 11.238-1.6a133.574 133.574 0 0 1 18.546 9.063c2.687 1.667 11.183 8 13.018 10.567a9.115 9.115 0 0 1 1.653 4.825c.64 9.347-8.558 23.123-12.639 31.223z" fill="#387f88"/><path data-name="Path 16451" d="M43.908 88.313c2.826 1.437 5.592 5.651 10.055 8.095a11.042 11.042 0 0 0 13.735-2.685 25.692 25.692 0 0 0 1.543-7.09c.408-9.085 1.667-13.967 6.823-21.277-3.228-1.765-6.518-3.644-8.308-5.576L47.343 48.65l-6.509 1.719c-2.129 6.131-3.16 9.334-7.209 15.248a14.124 14.124 0 0 0-2.34 11.473c1.501 6.442 7.484 8.609 12.623 11.223z" fill="#4aa1ad"/><path data-name="Path 16452" d="M48.834 52.408c-1.066 2.225-7.522 14.579-8.106 16.305s-1.051 3.489-1.667 5.9l-1.142-.29c.62-2.431 1.1-4.223 1.695-5.992s7.791-15.057 8.885-17.342z" fill="#403e3e"/><path data-name="Path 16453" d="M71.369 73.84c2.266 1.14 7.672 13.891 9.784 10.934 4.789-6.7 7.259-15.027.324-21.192a73.586 73.586 0 0 0-11.211-8.122l.127 4.861c1.847 1.8 3.55 3.639 5.675 5.452-2.025 2.868-3.519 4.632-4.699 8.067z" fill="#387f88"/><g data-name="Group 7886"><g data-name="Group 7884"><path data-name="Path 16454" d="M11.048 109.893a19.041 19.041 0 0 1-3.385.773c.483 2.354 2.777 1.938 4.667 1.569z" fill="#db9669"/><g data-name="Group 7883"><path data-name="Path 16455" d="M2.185 95.223l24.259 9.8 21.178 31.639-1.268.85L.64 95.781z" fill="#e6e6e6"/><path data-name="Path 16456" d="M1.959 94.895l24.485 10.132-3.318 2.534-22.712-12.1z" fill="#f5f5f5"/><path data-name="Path 16457" d="M0 95.165l25.121 10.432 22.028 32.745-25.786-11.5z" fill="#380303"/></g><path data-name="Path 16458" d="M12.75 112.142c-1.962-.088-2.177-1.011-1.83.2.509 1.765 3.087 6.548 5.021 7.294.012.005 2.486.139 2.959-.442.4-.491.257-.69-.478-1.751l-2.353-3.851c-.589-.99-.821-1.338-3.319-1.45z" fill="#db9669"/></g><g data-name="Group 7885"><path data-name="Path 16459" d="M86.512 70.601c3.476 10.021 1.1 25.382.9 39.852-.1 7.676-10.378 7.342-11.669.059-1.662-8.749-2-19.382-2.34-28.013-.307-7.878-.1-16.216 5.4-17.4 4.007-.864 6.405 1.74 7.709 5.502z" fill="#4aa1ad"/><path data-name="Path 16460" d="M86.512 70.601c3.476 10.021 1.1 25.382.9 39.852-.081 5.912-6.194 7.072-9.589 3.964l.041-.035c5.018-4.3 3.187-2.367 3.19-7.8 0-14.663.338-26.793-1.893-41.553 3.791-.637 6.086 1.922 7.351 5.572z" fill="#387f88"/><path data-name="Path 16461" d="M51.779 127.092c2.863-1.246 6.554 7.422 3.78 8.332-2.819.926-6.532-7.134-3.78-8.332z" fill="#a9d3e8"/><path data-name="Path 16462" d="M55.691 125.661a9.085 9.085 0 0 1-3.9 1.647c-.956.15-2.359.357-3.326.6-1.587.394-3.623 1.683-6.4 2.755 1.3 2.706 4.477.523 5.91.411a25.936 25.936 0 0 0 3.863-.253c1.851-.458 4.221-3.089 3.853-5.16z" fill="#f1b287"/><path data-name="Path 16463" d="M57.143 124.149a17.046 17.046 0 0 1-4.133 3.392 14.182 14.182 0 0 1-2.612 1.209c-2.829.96-4.137 3.957-5.888 3.782s-6.458-3.021-6.277-2.129a16.042 16.042 0 0 0 1.87 3.572 14.085 14.085 0 0 0 3.939 3.353 19.413 19.413 0 0 0 4.562 2.1 2.532 2.532 0 0 0 2.223-.272 22.765 22.765 0 0 0 3.9-3.471c2.5-2.993 3.044-3.6 5.576-5.107z" fill="#f1b287"/><path data-name="Path 16464" d="M57.143 124.149c-.022.027-.044.055-.068.082l.4 1.255c-.78.312-4.38 3.9-4.952 4.445-2.867 2.731-4.178 5.411-6.59 4.484a60.558 60.558 0 0 1-7.317-3.032 18.06 18.06 0 0 0 1.484 2.592 14.085 14.085 0 0 0 3.939 3.353 19.413 19.413 0 0 0 4.562 2.1 2.532 2.532 0 0 0 2.223-.272 22.765 22.765 0 0 0 3.9-3.471c2.5-2.993 3.044-3.6 5.576-5.107z" fill="#e8a476"/><path data-name="Path 16465" d="M83.554 117.187c-6.427 5.568-13.9 11.975-27.906 18.257 2.114-1.244-.6-8.81-3.887-8.347 6.586-4.822 17.091-15.068 25.512-19.485 4.848-1.97 8.856-.343 9.8 2.257.687 1.871.26 4.044-3.519 7.318z" fill="#4aa1ad"/><path data-name="Path 16466" d="M83.554 117.187c-6.427 5.568-13.9 11.975-27.906 18.257 1.073-.632.9-2.894.043-4.906a209.9 209.9 0 0 0 22.171-16.156c4.966-4.261 3.224-2.408 3.19-7.634 3.05-.132 5.339 1.239 6.026 3.121s.255 4.044-3.524 7.318z" fill="#387f88"/></g></g><g data-name="Group 7887"><path data-name="Path 16467" d="M67.539 54.472c.391 4.8-9.189 7.085-15.035 6.321a4.315 4.315 0 0 1-1.631-.528 2.206 2.206 0 0 1-.665-.57 13.723 13.723 0 0 1-.849-3.8 30.835 30.835 0 0 0-3.578-11.808l15.368-6.064 3.894-1.7c-1.988 8.131-.296 11.17 2.496 18.149z" fill="#e8a476"/><path data-name="Path 16468" d="M67.385 54.106a1.125 1.125 0 0 1 .02.281c-5.555-4.955-13.129-1.565-18.571-1.979-.171-.39-1.45-6.45-1.6-6.606-.48-1.361-.682-1.138-1.323-2.887l15.368-6.065 3.9-1.7c-1.993 8.128-.587 11.976 2.206 18.956z" fill="#db9669"/></g><g data-name="Group 7889"><path data-name="Path 16469" d="M66.915 52.204c7.725 5.338 3.188 12.6-4.593 25.059l-.534.855-1-.62.534-.855c7.406-11.857 11.725-18.773 4.923-23.473z" fill="#403e3e"/><path data-name="Path 16470" d="M50.197 88.114q.887-1.692 1.718-3.069a26 26 0 0 1 5.433-6.794c1.737-1.393 3.226-1.708 4.308-1.143.036.018.076.041.121.068 1.156.7 1.745 2.373 1.272 5.391a43.248 43.248 0 0 1-3.347 10.1l-1.076-.471a42.244 42.244 0 0 0 3.26-9.8c.384-2.465.034-3.755-.716-4.206l-.057-.032c-.658-.345-1.7-.049-3.028 1.02a24.815 24.815 0 0 0-5.162 6.481q-.837 1.389-1.686 3.007z" fill="#403e3e"/><g data-name="Group 7888" fill="#141414"><path data-name="Path 16471" d="M51.186 87.243a1.225 1.225 0 0 1 .6 1.621l-.634 1.321a1.226 1.226 0 0 1-1.621.6 1.226 1.226 0 0 1-.6-1.621l.634-1.323a1.224 1.224 0 0 1 1.621-.598z"/><path data-name="Path 16472" d="M59.73 91.197a1.225 1.225 0 0 1 .6 1.621l-.634 1.322a1.225 1.225 0 0 1-1.62.6 1.224 1.224 0 0 1-.6-1.621l.633-1.322a1.226 1.226 0 0 1 1.621-.6z"/></g></g><g data-name="Group 7891"><path data-name="Path 16473" d="M55.904 4.686c12.712-9.339 21.325 2.974 14.7 9.595-1.024 1.021-2.137.389-3.774 1.34 0 0-11.334-.683-11.483-1.353s.557-9.582.557-9.582z" fill="#241304"/><path data-name="Path 16474" d="M70.61 11.878c5.754-2.021.711-12.028-4.328-5.756 4.93-2.085 7.687 2.556 4.328 5.756z" fill="#361d07"/><path data-name="Path 16475" d="M69.427 11.806c5.092-1.628.99-8.372-3.192-4.209 3.791-1.243 6.183 1.746 3.192 4.209z" fill="#361d07"/><path data-name="Path 16476" d="M71.469 13.57c6.53-5.2-1-15.865-6.287-10.78 5.437-2.262 11.203 4.837 6.287 10.78z" fill="#361d07"/><path data-name="Path 16477" d="M65.441 7.658c5.151-6.863-6.484-11.876-8.088-2.542 3.805-5.149 9.716-3.462 8.088 2.542z" fill="#361d07"/><path data-name="Path 16478" d="M64.255 8.389c3.771-5.024-4.747-8.694-5.921-1.861 2.786-3.77 7.111-2.534 5.921 1.861z" fill="#361d07"/><path data-name="Path 16479" d="M65.183 21.284l-9.071 6.356 9.219 3.734c1.613.014-4.163 4.4-1.157 10.9 5.163-2 9.01-10.387 6.793-14.986-1.563-3.241-3.154-2.027-5.784-6.004z" fill="#140a02"/><path data-name="Path 16480" d="M43.162 35.954l6.634-4.09-2.592-11.694-5.313-8.408c-8.922 5.528-4.293 23.334 1.271 24.192z" fill="#241304"/><path data-name="Path 16481" d="M50.21 49.791c8.369-3.491 10.85-7.66 12.84-16.205 3.67-2.439 5.25-4.48 5.649-6.766.945-5.425-1.96-11.4-6.014-14.755a14.474 14.474 0 0 0-12.442-2.987c-9.21 1.691-12.657 7.559-13.408 15.449-.145 1.523.683 4.771 1.13 6.308.748 2.571-.458 1.861-.363 4.487a44.508 44.508 0 0 0 2.406 9.691c.911 2.571 1.034 5.213 2.35 5.636 1.335.429 4.031.736 7.852-.858z" fill="#f1b287"/><path data-name="Path 16482" d="M37.995 16.941c3.885-1.676 19.054 5.474 23.619 15.411.762 1.658 1.711 1.15 1.816 3.732.115 2.846 4.268-5.9 5.211-8.638 2.585-7.51.47-13.6-6.539-17.941-8.807-5.459-21.007-.566-24.107 7.436z" fill="#361d07"/><g data-name="Group 7890"><path data-name="Path 16483" d="M63.741 27.905c3.424-1.621 3.918 2.49 3.651 5.048-.183 1.758-1.613 1.793-1.971 3.2a3.255 3.255 0 0 1-2.665 2.669c-2.175.189-1.2-3.187-1.091-4.5-.496-2.058-.096-5.388 2.076-6.417z" fill="#e8a476"/><path data-name="Path 16484" d="M62.757 32.95c.569-1.777.657-3.987 3.106-4-2.094.409-2.346 2.378-3.106 4z" fill="#db9669"/></g><path data-name="Path 16485" d="M50.21 49.791c8.388-3.494 10.85-7.66 12.84-16.205 3.67-2.439 5.25-4.48 5.649-6.766.945-5.425-1.96-11.4-6.014-14.755a14.474 14.474 0 0 0-12.442-2.987c-5.355.984-11.125 4.785-12.2 9.643.508-.408 2.083-1.41 6.865-.142 5.682 2.071 4.079 6.9 6.041 8.67a11.8 11.8 0 0 1 2.918 5.646c.656 3.074-2.922 3.291-2.982 4.751-.061 1.494 3.685 1.67 2.905 5.706-.22 1.132-2.823 5.325-4.1 6.648.179-.057.343-.135.52-.209z" fill="#e8a476"/><path data-name="Path 16486" d="M44.469 17.651c-1.892-.7-5.42-.545-6.7.544-.643-2.3 3.228-9.34 11.271-12.326C55.849 3.342 64.32 3.1 69.624 10.15c3.989 5.3 5.463 14.686-.116 20.1-2.538 2.462-5.7 4.5-7.5 4.675-.566-1.238-3.544-2.081-4.568-2.947-.846-.717-.635-1.692-1.755-2.872-.633-.667-2.469-1.833-3.382-3.155-1.293-1.867-.222-7.943-7.834-8.3z" fill="#361d07"/><path data-name="Path 16487" d="M73.29 20.639a12.66 12.66 0 0 1-3.783 9.612c-2.565 2.433-5.7 4.5-7.5 4.675-.566-1.238-3.544-2.081-4.568-2.947-.846-.717-.635-1.692-1.755-2.872-.633-.667-2.469-1.833-3.382-3.155 9.917 3.657 18.042.164 20.988-5.313z" fill="#241304"/><path data-name="Path 16488" d="M61.269 4.856c3.37 2.036-3.906 2.142-5.563 2.15-4.688.022-10.119 1.761-9.028 8.567.248 1.545.824 2.611.642 2.556a12.275 12.275 0 0 0-2.966-.493c-2.261-.979-5.624.325-6.131.052a7.975 7.975 0 0 1 .95-10.458c4.525-4.646 11.114-3.693 16.842-2.67 1.902.339 6.127 1.71 5.254.296z" fill="#4f2b0c"/><path data-name="Path 16489" d="M51.735 20.43c10.485-.953 23.3-5.846 13.292-14.7 14.19 10.318-3.434 17.263-13.292 14.7z" fill="#4f2b0c"/><path data-name="Path 16490" d="M49.799 16.914c.743-9.6 6.888-6.241 12.465-8.81 1.419-.653 2.263-2.3-.694-3.273 2.238 1.3.831 2.007.056 2.219-3.638.991-7.291.286-10.167 1.421a5.61 5.61 0 0 0-3.691 5.64c.04 1.875.607 4.443 1.355 4.725.332.124.568-.514.676-1.922z" fill="#4f2b0c"/><path data-name="Path 16491" d="M49.097 18.906c9.172-4.4 23.809-6.052 13.848-13.708 4.62 4.167 2.064 5.182-2.564 7-3.248 1.273-7.572 3.019-11.284 6.708z" fill="#4f2b0c"/><path data-name="Path 16492" d="M61.602 5.119c.281.565-.8.783-2.3.534-4.435-.736-7.456-1.364-10.556-1.384-6.522-.044-10.879 3.108-9.427 10.316-.023-5.931 1.8-11.575 15.391-9.3-10.465-.6-13.121.516-12.881 9.388.64-8.71 3.894-9.592 14.118-8.816-8.907-.17-11.947.8-11.468 9.667.81-8.029 2.1-9.846 14.728-9.147 1.445.075 3.401-.305 2.395-1.258z" fill="#361d07"/><path data-name="Path 16493" d="M52.018 22.051c5.782 4.046 28.425-2.02 16.714-12.522 14.707 11.495-10.738 18.457-16.714 12.522z" fill="#4f2b0c"/></g><g data-name="Group 7892"><path data-name="Path 16494" d="M37.95 73.237c1.9.2 3.211 2.505 2.934 5.154s-2.037 4.636-3.934 4.438-3.211-2.505-2.935-5.154 2.038-4.636 3.935-4.438z" fill="#736f6f"/><path data-name="Path 16495" d="M37.915 73.567c1.766.185 2.99 2.333 2.732 4.8-.253 2.429-1.847 4.26-3.582 4.139 1.616-.094 3.045-1.852 3.283-4.14.257-2.466-.966-4.615-2.732-4.8l-.081-.007a2.417 2.417 0 0 1 .38.008z" fill="#b8b6b6"/><path data-name="Path 16496" d="M37.784 74.828c1.267.133 2.145 1.675 1.96 3.444s-1.361 3.1-2.628 2.966-2.145-1.675-1.961-3.444 1.361-3.097 2.629-2.966z" fill="#4a4848"/><path data-name="Path 16497" d="M37.75 75.159c1.135.119 1.923 1.5 1.758 3.088s-1.221 2.778-2.357 2.66-1.925-1.5-1.759-3.088 1.221-2.778 2.358-2.66z" fill="#736f6f"/><path data-name="Path 16498" d="M37.604 76.555c.584.061.989.772.9 1.588s-.627 1.429-1.212 1.368-.989-.772-.9-1.588.628-1.429 1.212-1.368z" fill="#454242"/><path data-name="Path 16499" d="M37.728 75.366c1.055.11 1.785 1.393 1.631 2.866-.151 1.454-1.108 2.55-2.147 2.471a2.6 2.6 0 0 0 1.832-2.459c.153-1.473-.578-2.756-1.632-2.866h-.039a1.357 1.357 0 0 1 .355-.012z" fill="#b8b6b6"/></g></g></svg>