<svg xmlns="http://www.w3.org/2000/svg" width="120.751" height="268.568" viewBox="0 0 120.751 268.568">
  <g id="Group_11818" data-name="Group 11818" transform="translate(-1991.895 -1208.507)">
    <path id="Path_25450" data-name="Path 25450" d="M2107.3,1450.612l-56.528-32.2c-6.163-2.815-14.983-5.057-21.262-1.789-5.72,2.977-15.145,9.071-19.311,11.447-3.165,1.805-14.152,8.387-7.309,12.109,20.131,10.946,40.052,23.257,60.494,34.376,3.866,2.1,9.521,2.864,15.458,2.37a40.924,40.924,0,0,0,16.743-4.986q5.1-2.964,10.024-5.835c4.434-2.582,6.785-5.634,7.018-8.457C2112.854,1454.894,2111.082,1452.339,2107.3,1450.612Z" fill="#c1d5de" fill-rule="evenodd" opacity="0.7" style="mix-blend-mode: multiply;isolation: isolate"/>
    <g id="Group_11817" data-name="Group 11817">
      <g id="Group_11802" data-name="Group 11802">
        <path id="Path_25451" data-name="Path 25451" d="M2020.046,1288.082c-1.565.38-3.026-.148-4.426-.308-4.368-.5-7.684-.073-10.439,1.513-.667.384,1.891,7.389,4.937,9.607.145.106.341-.067.487-.124l2.844-.9,7.7-2.576Z" fill="#db9669" fill-rule="evenodd"/>
        <path id="Path_25452" data-name="Path 25452" d="M2017.494,1288.1c-2.793-.478-4.68-1.715-6.258-1.753-1.619-.04-3.947,1.266-6.881,1.563.538,2.924,4.378,1.015,5.776,1.283,1.286.246,1.359,1.808,2.559,1.842C2014.58,1291.084,2017.3,1290.17,2017.494,1288.1Z" fill="#db9669" fill-rule="evenodd"/>
        <path id="Path_25453" data-name="Path 25453" d="M2049.069,1293.737c-12.405,2.151-18.562,1.522-31.1,2.736,1.377-4.774-1.185-9.047-3.1-9.507,10.6-2.208,23.458-5.738,34.406-5.7Z" fill="#12a8b3" fill-rule="evenodd"/>
        <path id="Path_25454" data-name="Path 25454" d="M2051.441,1294.074c-12.4,2.151-19.137,1.43-31.675,2.644,1.767-5.081-.926-10.167-3.145-10.6,10.6-2.208,23.458-5.738,34.407-5.7Z" fill="#d2eefc" fill-rule="evenodd"/>
        <path id="Path_25455" data-name="Path 25455" d="M2051.441,1294.074c-12.4,2.151-19.137,1.43-31.675,2.644a10.476,10.476,0,0,0,.248-6c7.623-.448,20.955-3.226,30.8-4.907Z" fill="#c3e6f7" fill-rule="evenodd"/>
      </g>
      <g id="Group_11804" data-name="Group 11804">
        <g id="Group_11803" data-name="Group 11803">
          <path id="Path_25456" data-name="Path 25456" d="M2052.507,1424.528c-.893,3.141-1.119,4.762-2.423,6.589-2.6,3.645-6.437,6.248-12.02,10.207-2.657,1.883-3.219,3.669-.528,5.31,2.118,1.293,7.3.266,10.538-.495,6.074-1.429,8.531-5.085,10.608-6.036l1.572.357c1.288.022,6.35-2.021,7.338-3.343a36.274,36.274,0,0,0,.792-4.708c.188-5.141-.619-4.618-1.994-8.64C2061.717,1424.108,2057.19,1424.37,2052.507,1424.528Z" fill="#111214" fill-rule="evenodd"/>
          <path id="Path_25457" data-name="Path 25457" d="M2035.775,1444.281c-.026.812.522,1.6,1.761,2.353,2.118,1.293,7.3.266,10.538-.495,6.074-1.429,8.531-5.085,10.608-6.036l1.572.357c1.288.022,6.35-2.021,7.338-3.343a36.274,36.274,0,0,0,.792-4.708c.188-5.141-.619-4.618-1.994-8.64-2.068.15-4.108.285-6.145.4-.369,3.385.125,9.223-2.66,11.4-3.115,2.43-5.545,3.076-7.626,4.342C2043.329,1443.94,2038.948,1447.216,2035.775,1444.281Z" fill-rule="evenodd"/>
          <path id="Path_25458" data-name="Path 25458" d="M2051.034,1430.3c.662.978,1.965,1.53,4.119,2.066-3.474,3.917-3.963,3.55-8.63,6.172-2.351,2.686-2.678,3.2-4.178,4.063-1.791,1.035-4.321,2.1-5.384,1.334-.458-.329.157-1.249,2.131-2.679,2.237-1.621,4.515-3.265,6.576-4.979A24.26,24.26,0,0,0,2051.034,1430.3Z" fill="#20232e" fill-rule="evenodd"/>
        </g>
        <path id="Path_25459" data-name="Path 25459" d="M2069.9,1338.632a75.022,75.022,0,0,0,.664-12c-3.786-1.515-7.765-2.946-11.6-4.625l.274-.232c-4.068-1.908-7.573-4.874-12.264-7.566-1.963,6.18-2.69,8.948-2.541,13.975a154.474,154.474,0,0,0,2.2,19.875c.685,10.182,1.6,20.806,2.26,27.759,1.683,17.737,1.477,35.234,2.539,52.942,2.2,3.606,12.8,3.828,16.423-1.243.542-14.007,1.419-25.067,1.022-32.732-.33-6.38-.633-10.056-2.7-15.726C2067.55,1369.624,2069.4,1352.254,2069.9,1338.632Z" fill="#001624" fill-rule="evenodd"/>
        <path id="Path_25460" data-name="Path 25460" d="M2087.585,1443.143c.776,2.269,1.487,4.027,1.414,5.454-.075,1.478-.478,2.915-.459,4.783.016,1.6.1,2.965.283,4.779.19,1.856,0,2.734-.818,3.475a28.5,28.5,0,0,1-7.132,3.7,7.5,7.5,0,0,1-3.269.439,14.53,14.53,0,0,1-4.382-.8c-.4-.151-.816-1.716-.846-3.073-.061-2.84.2-2.6,1.372-7.1.4-1.538.727-3.005,1.279-4.8.688-2.238,1.544-4.207,1.632-6.409l8.32-.324Z" fill="#111214" fill-rule="evenodd"/>
        <path id="Path_25461" data-name="Path 25461" d="M2087.585,1443.143c.776,2.269,1.487,4.027,1.414,5.454-.075,1.478-.478,2.915-.459,4.783.016,1.6.1,2.965.283,4.779.19,1.856,0,2.734-.818,3.475a28.5,28.5,0,0,1-7.132,3.7,7.5,7.5,0,0,1-3.269.439,14.53,14.53,0,0,1-4.382-.8c-.365-.137-.738-1.432-.827-2.683l.022,0c2.543.866,5.01,1.213,7.453.02,5.156-2.518,4.485-4.61,4-10.554-3.354-.591-4.673-1.189-6.375-3.026,2.86.841,5.934.991,7.455-.756l.473-4.73Z" fill-rule="evenodd"/>
        <path id="Path_25462" data-name="Path 25462" d="M2057.542,1379.007c3.477,16.433,4.358,28.028,2.137,52.355,3.2-.237,6.462-1.451,8.17-3.843.542-14.007,1.419-25.067,1.022-32.732-.33-6.38-.633-10.056-2.7-15.726,1.769-12.133,4.321-37.382,3.782-50.916l-7.263-2.905C2060.491,1345.265,2059.1,1355.591,2057.542,1379.007Z" fill="#00101a" fill-rule="evenodd"/>
        <path id="Path_25463" data-name="Path 25463" d="M2065.061,1345.843c1.341,13.647,3.967,32.616,5.492,42.3,2.771,17.6,3.2,38.236,4.76,55.907,2.405,3.761,11.464,4.535,14.933-.144.151-14.017,1.423-29.711.813-37.361a48.354,48.354,0,0,0-3.789-15.843c.348-10.924,6.048-55.8-1.481-64.608a6.608,6.608,0,0,0-1.417-1.994l-10.969-.856-13.012-1.515a37.728,37.728,0,0,0,.094,15.452,2.453,2.453,0,0,0,.293.638c.124.92.288,1.848.5,2.778C2061.468,1341.451,2063.552,1343.834,2065.061,1345.843Z" fill="#001e30" fill-rule="evenodd"/>
        <path id="Path_25464" data-name="Path 25464" d="M2076.969,1336.831a42.869,42.869,0,0,1,2.716,15.059c.188,8.307.8,27.946,1.594,37.3,1.546,18.326,5.038,33.6,2.273,57.936a8.918,8.918,0,0,0,6.694-3.213c.151-14.017,1.423-29.711.813-37.361a48.354,48.354,0,0,0-3.789-15.843c.355-11.14,6.278-57.6-1.942-65.093l-12.53-.857C2074.411,1329.407,2074.921,1332.087,2076.969,1336.831Z" fill="#001624" fill-rule="evenodd"/>
        <path id="Path_25465" data-name="Path 25465" d="M2076.226,1449.19c2.408,1.9,1.565,2.728,5.078,3.187a19.7,19.7,0,0,1-2.738,6.848c-.142,1.325-.248,3.062-2.827,3.079-4.815.031-1.474-3.944-1.458-4.093A39.848,39.848,0,0,1,2076.226,1449.19Z" fill="#20232e" fill-rule="evenodd"/>
        <path id="Path_25466" data-name="Path 25466" d="M2047.44,1318.14a34,34,0,0,0,9.067,6.368c.013,6.212.009,17.718-.223,29.218-.025,6.8-.135,13.729-.429,19.495q-.015.42-.027.84c.578,4.787,2.822,7.489,3.1,14.681a182.671,182.671,0,0,1-2.146,30.216c.046,3.849.071,7.686.039,11.512a7.547,7.547,0,0,1-5.1-2.107l-.285-43.56c-.274-6.941-1.342-17.332-2.2-28.02C2047.421,1344.017,2045.657,1329.208,2047.44,1318.14Z" fill="#001e30" fill-rule="evenodd"/>
        <path id="Path_25467" data-name="Path 25467" d="M2072.347,1327.991l.032.009a202.189,202.189,0,0,0,5.873,20.042c1.6,13.857,1.192,28.977,1.384,39.661,1.442,19.545,3.076,39.13,4.051,58.7-1.779-.154-5.723-.949-6.668-1.806-1.068-15.936-.878-38.409-2.864-53.386-.406-3.059-3.357-29.032-6.916-43.75-1.192-4.931-4.6-4.839-5.293-7.674-1.5-6.151-1.529-8.959-.913-15.64C2064.773,1325.551,2068.5,1326.894,2072.347,1327.991Z" fill="#00263d" fill-rule="evenodd"/>
      </g>
      <path id="Path_25468" data-name="Path 25468" d="M2046.855,1314.66a1.991,1.991,0,0,0,.358.866c4.023,5.606,29.26,14.055,34.541,13.617-4.191-36.443,33.975-67.466-6.917-79.479l-11.765,6.476-4.21-.756-.54-5.181c-5.693,5.662-8.326,13.162-9.339,23.593C2047.657,1287.444,2050.522,1299.686,2046.855,1314.66Z" fill="#12a8b3" fill-rule="evenodd"/>
      <path id="Path_25469" data-name="Path 25469" d="M2055.624,1240.831c-4.379-.278-6.348.637-8.655,4.077-4.033,6.011-4.663,18.809-4.379,30.342.161,6.534,1.2,12.279,1.277,20.4.049,4.949-.692,11.811-1.369,18.713-.654,6.671-1.25,52.383-1.017,57.442.884,1.9,7.127,5.1,7.95,4.942-.446-5.72-.714-51.537-.793-58.891-.063-5.849-.009-12.041.167-18.3.388-13.712,1.348-27.74,3.91-38.154,3.758-15.277,10.234-16.931,9.568-18.993C2062.149,1242,2055.874,1240.846,2055.624,1240.831Z" fill="#d2eefc" fill-rule="evenodd"/>
      <path id="Path_25470" data-name="Path 25470" d="M2073.425,1301.822c-.172,2.368-.226,4.527-.184,6.514,6.3-5.737,12.212-13.076,17.733-21.021,2.828-7.955,5.387-15.934,5.334-21.591Z" fill="#11101a" fill-rule="evenodd"/>
      <path id="Path_25471" data-name="Path 25471" d="M2058.509,1246.946c-6.865,5.452-11.271,25.583-11.146,39.152.112,12.253.078,21.324.316,31.111.143,5.89.386,51.043.82,58.3a16.815,16.815,0,0,1-6.307-4.01c.229-5.451.684-49.892,1.145-55.317.92-10.855,1.865-21.664,1.067-32.435-1.018-13.758-1.892-32.561,6.109-40.426C2055.641,1240.564,2057.3,1245.674,2058.509,1246.946Z" fill="#e0f5ff" fill-rule="evenodd"/>
      <g id="Group_11807" data-name="Group 11807">
        <g id="Group_11805" data-name="Group 11805">
          <path id="Path_25472" data-name="Path 25472" d="M2046.31,1304.488c-1.628-1.776-2.08-2.221-3.584-2.727l-1.129,14.681c.756,1.193,3.244,2.182,4,1.877Z" fill="#d2eefc" fill-rule="evenodd"/>
          <path id="Path_25473" data-name="Path 25473" d="M2046.31,1304.488c-1.628-1.776-2.08-2.221-3.584-2.727-.162,4.169-.256,4.037.978,5.5,2.2,2.619,1.361,2.8,1.431,11.166a1.491,1.491,0,0,0,.463-.11Z" fill="#c3e6f7" fill-rule="evenodd"/>
          <path id="Path_25474" data-name="Path 25474" d="M2042.6,1306.693l1.968,3.131-.177,8.073a4.213,4.213,0,0,1-2.408-1.769Z" fill="#e0f5ff" fill-rule="evenodd"/>
        </g>
        <g id="Group_11806" data-name="Group 11806">
          <path id="Path_25475" data-name="Path 25475" d="M2046.907,1301c-1.822-.8-2.568-1.531-3.94-2.01l-.636,5.636c.331.927,2.632,2.674,4.013,1.418Z" fill="#d2eefc" fill-rule="evenodd"/>
          <path id="Path_25476" data-name="Path 25476" d="M2046.907,1301c-1.822-.8-2.568-1.531-3.94-2.01,1.059,2.014,3.4,2.347,2.915,7.355a1.666,1.666,0,0,0,.462-.3Z" fill="#c3e6f7" fill-rule="evenodd"/>
          <path id="Path_25477" data-name="Path 25477" d="M2043.035,1299.788a12.484,12.484,0,0,1,2.34,6.115c-1.268-.088-1.668-.411-2.736-1.543C2042.685,1302.848,2042.858,1301.439,2043.035,1299.788Z" fill="#e0f5ff" fill-rule="evenodd"/>
        </g>
      </g>
      <path id="Path_25478" data-name="Path 25478" d="M2065.436,1325.117c7,2.488,13.845,4.231,16.318,4.026-4.191-36.443,33.975-67.466-6.917-79.479l-11.765,6.476-4.21-.756-.54-5.181a27.526,27.526,0,0,0-5.86,8.635l.337.37c3.071-.972,4.683-2.217,6.267-1.517,1.305.577,2.8,2.631,3.258,5.889,1.855-.464,5.393-1.795,7.232-2.321-6.816,10.164-13.173,32.007-8.4,54.817C2061.746,1318.911,2064.158,1322.189,2065.436,1325.117Z" fill="#06929c" fill-rule="evenodd"/>
      <path id="Path_25479" data-name="Path 25479" d="M2087.682,1254.441c-2.2-1.219-6.677-3.963-11.507-6.661,4.067,4.873-5.756,16.589-10.315,31.2-2.877,9.222-3.878,26.283-1.607,36.44,1.715,7.667,6.022,7.577,11.3,13.068,2.461,2.56,3.278,5.759,4.539,8.963,2.968,7.548-1.461,41.708-.7,48.211,1.562-.359,11.033-4.371,12.61-7.747-.825-13.328.131-42.167-2.423-49.373-2.371-6.689-5.055-9.928-5.364-16.834-.408-9.1,12.44-33.374,12.321-45.938C2096.482,1260.191,2091.788,1256.718,2087.682,1254.441Z" fill="#d2eefc" fill-rule="evenodd"/>
      <path id="Path_25480" data-name="Path 25480" d="M2087.682,1254.441l-11.188-6.205c1.669,2.678,6.122,5.55,10.923,9.6a21.938,21.938,0,0,0-6.2,10.952c-2.527,9.991-6.391,23.14-7.054,32.276-1.2,16.463,4.2,22.785,7.864,30.332,1.765,3.638.9,47.259.922,52.74,2.993-.426,8.349-4.687,9.092-6.217-.484-11.762,1.748-40.363-3.367-51.669-2.094-4.626-4.007-7.99-4.456-14.546-.623-9.09,12.44-33.374,12.321-45.938C2096.482,1260.191,2091.788,1256.718,2087.682,1254.441Z" fill="#c3e6f7" fill-rule="evenodd"/>
      <path id="Path_25481" data-name="Path 25481" d="M2058.852,1243.865c-4.089,1.907-5.437,2.666-8.279,7.056l2.483,1.727-3.454,1.457c-1.244,12.675-2.55,26.775-1.026,39.624a159.263,159.263,0,0,1,5.926-35.936c1.2-4.04,2.86-5.775,5.506-9.74C2060.444,1247.4,2059.621,1243.506,2058.852,1243.865Z" fill="#ebf9ff" fill-rule="evenodd"/>
      <g id="Group_11808" data-name="Group 11808">
        <path id="Path_25482" data-name="Path 25482" d="M2085,1312.844c-5.276,1.556-6.713,2.024-10.959,4.336l6.225,11.785c3.333.268,7.371-1.449,10.53-4.183Z" fill="#d2eefc" fill-rule="evenodd"/>
        <path id="Path_25483" data-name="Path 25483" d="M2085,1312.844c-5.276,1.556-6.713,2.024-10.959,4.336,1.885,3.5,1.564,3.571,5.629,2.485,7.262-1.942,5.33-.423,10.158,5.9.213.279.653-.512.968-.785Z" fill="#c3e6f7" fill-rule="evenodd"/>
        <path id="Path_25484" data-name="Path 25484" d="M2084.089,1311.381c-5.3,1.584-7.78,1.956-11.679,3.236l2.654,4.632c1.56.251,8.817-1.244,11.417-3.728Z" fill="#d2eefc" fill-rule="evenodd"/>
        <path id="Path_25485" data-name="Path 25485" d="M2084.089,1311.381c-5.3,1.584-7.78,1.956-11.679,3.236,4.262.146,10.535-2.366,13.112,1.652a6.841,6.841,0,0,0,.959-.748Z" fill="#c3e6f7" fill-rule="evenodd"/>
        <path id="Path_25486" data-name="Path 25486" d="M2076.44,1321.209l6.925-1.122,4.828,5.653a23.866,23.866,0,0,1-7.158,2.831Z" fill="#e0f5ff" fill-rule="evenodd"/>
        <path id="Path_25487" data-name="Path 25487" d="M2073.193,1315.086c3.378-.084,8.118-.212,10.686,1.472a24.385,24.385,0,0,1-8.225,2.146A19.233,19.233,0,0,1,2073.193,1315.086Z" fill="#e0f5ff" fill-rule="evenodd"/>
      </g>
      <path id="Path_25488" data-name="Path 25488" d="M2059.285,1261.968c.338,1.508.552,2.788.766,4.317-4.215,12.228-6.465,22.574-8.939,37.024a168.056,168.056,0,0,1,3.639-41.4,9.884,9.884,0,0,1,2.9-1.021,4.72,4.72,0,0,1,.986-.005Z" fill="#041e2e" fill-rule="evenodd"/>
      <path id="Path_25489" data-name="Path 25489" d="M2078.589,1252.815l5.37,4.4c-5.654,9.309-12.531,27.509-12.741,45.174-.1,8.517.567,16.2,5.24,23.962-15.518-5.61-13.066-28.334-8.479-45.675C2071.1,1268.881,2076.459,1260.344,2078.589,1252.815Z" fill="#e0f5ff" fill-rule="evenodd"/>
      <path id="Path_25490" data-name="Path 25490" d="M2076.153,1246.21a22.688,22.688,0,0,1,2.875,4.53c1.6,3.9,1.4,10-.529,16.749l-3.925-1.456,1.893,4.275c-7.887,10.305-12.3,25.657-12.912,41.422C2058.433,1270.745,2077.6,1260.55,2076.153,1246.21Z" fill="#ebf9ff" fill-rule="evenodd"/>
      <path id="Path_25491" data-name="Path 25491" d="M2062.694,1257.329c-.687,2.874-.792,2.83-3.468,4.857l-1.73-.917c-.809-3.317-.409-5.463.255-5.856C2060.069,1255.328,2061.035,1255.6,2062.694,1257.329Z" fill="#041e2e" fill-rule="evenodd"/>
      <g id="Group_11809" data-name="Group 11809">
        <path id="Path_25492" data-name="Path 25492" d="M1994.258,1261.4l29.659,16.23,22.886,44.687-30.525-18.173Z" fill="#380303" fill-rule="evenodd"/>
        <path id="Path_25493" data-name="Path 25493" d="M1994.258,1261.4l-2.363.622,21.5,41.333,2.884.789Z" fill="#380303" fill-rule="evenodd"/>
        <path id="Path_25494" data-name="Path 25494" d="M1994.627,1262.407l28.867,15.833,21.794,42.664-1.71.875-50.965-58.9Z" fill="#e6e6e6" fill-rule="evenodd"/>
        <path id="Path_25495" data-name="Path 25495" d="M1994.393,1261.963l29.1,16.277-4.52,2.676-26.594-18.479Z" fill="#f5f5f5" fill-rule="evenodd"/>
        <path id="Path_25496" data-name="Path 25496" d="M1991.9,1262.011l29.852,16.746,22.692,44.171-30.525-18.173Z" fill="#380303" fill-rule="evenodd"/>
        <path id="Path_25497" data-name="Path 25497" d="M2008.518,1289.536c-3.178-.583-3.175-1.353-3.364-.276-.276,1.576,1.918,7.416,4.964,9.634a15.042,15.042,0,0,0,3.2.523c.9-.033.848-.516.359-1.786l-2.171-5.631C2010.785,1290.317,2010.474,1289.9,2008.518,1289.536Z" fill="#db9669" fill-rule="evenodd"/>
      </g>
      <path id="Path_25498" data-name="Path 25498" d="M2069.015,1340.755c-.512,1.246-.118,7.671,5.52,4.825,4.5-2.27,6.408-2.661,7.938-5.106,1.124-1.8.864-3.682,2.872-5.6l-5.342-4.888c-1.736,2.729-3.016,1.48-5.376,2.8C2072.022,1334.238,2070.86,1336.264,2069.015,1340.755Z" fill="#f1b287" fill-rule="evenodd"/>
      <g id="Group_11810" data-name="Group 11810">
        <path id="Path_25499" data-name="Path 25499" d="M2073.284,1328.363c.387,5.355,1.543,11.885,4.885,15.923l.367,7.256c-4.238.552-7.261-4.675-8.654-5.159-1.232-.428-4.584-8.678-3.626-13.369.708-3.464,2.516-3.9,4.757-5.044A13.163,13.163,0,0,0,2073.284,1328.363Z" fill="#00263d" fill-rule="evenodd"/>
        <path id="Path_25500" data-name="Path 25500" d="M2074.106,1328.121c.388,5.356,2.3,11.74,5.643,15.778l-1.6.871c-4.6-4.34-5.877-12.2-5.3-16.88C2073.157,1327.97,2073.812,1328.047,2074.106,1328.121Z" fill="#001624" fill-rule="evenodd"/>
      </g>
      <path id="Path_25501" data-name="Path 25501" d="M2059.065,1255.581c-.289-.737-.438-2.259-.749-3.584a15.628,15.628,0,0,0-.989-2.788c-1.618.206-2.326,5.093-3.7,7.978A7.423,7.423,0,0,1,2059.065,1255.581Z" fill="#1abac6" fill-rule="evenodd"/>
      <path id="Path_25502" data-name="Path 25502" d="M2058.63,1255.2c-.994-2.659-1.63-3.161-1.951-3.017s-1.107.11-2.617,4.366A6.232,6.232,0,0,1,2058.63,1255.2Z" fill="#1bd3e0" fill-rule="evenodd"/>
      <path id="Path_25503" data-name="Path 25503" d="M2074.148,1245.409c.325,5.226-9.6,8.859-15.135,10.176,1.39,1.678,3.185,3.786,3.114,5.461,3.993-1.092,10.765-2.97,13.509-8.076A5.6,5.6,0,0,0,2074.148,1245.409Z" fill="#1abac6" fill-rule="evenodd"/>
      <path id="Path_25504" data-name="Path 25504" d="M2065.377,1254.121c-2.012.7-4,1.253-5.593,1.633,1.185,1.431,2.716,3.228,2.655,4.657a20.746,20.746,0,0,0,5.163-2.156C2070.151,1256.769,2069.217,1252.791,2065.377,1254.121Z" fill="#1bd3e0" fill-rule="evenodd"/>
      <g id="Group_11811" data-name="Group 11811">
        <path id="Path_25505" data-name="Path 25505" d="M2057.989,1250.945c-.178-.505-.385-1-.584-1.542-.566-1.54-.586-4.8-1.565-8.4l14.207-6.193,3.043-1.613a19.074,19.074,0,0,0,1.062,12.343c.155,5.142-9.589,8.72-15.091,10.036C2058.57,1254.328,2058.538,1252.5,2057.989,1250.945Z" fill="#e8a476" fill-rule="evenodd"/>
        <path id="Path_25506" data-name="Path 25506" d="M2072.853,1248.839c-5.156-1.821-9.186.442-15.865-1.343a51.97,51.97,0,0,0-1.148-6.495l14.207-6.193,3.043-1.613a19.074,19.074,0,0,0,1.062,12.343A4.909,4.909,0,0,1,2072.853,1248.839Z" fill="#db9669" fill-rule="evenodd"/>
      </g>
      <g id="Group_11812" data-name="Group 11812">
        <path id="Path_25507" data-name="Path 25507" d="M2083.761,1339.111c-3.428-2.041-4.682-4.6-5.792-7.7a12.037,12.037,0,0,0,2.27-2.011l5.842,6.829A11.841,11.841,0,0,0,2083.761,1339.111Z" fill="#12a8b3" fill-rule="evenodd"/>
        <path id="Path_25508" data-name="Path 25508" d="M2083.761,1339.111a12.39,12.39,0,0,1-2.6-2.028c.435-.4.506-.517.932-.927-.87-.878-3.5-5.1-2.911-5.707l6.9,5.784A11.841,11.841,0,0,0,2083.761,1339.111Z" fill="#06929c" fill-rule="evenodd"/>
        <path id="Path_25509" data-name="Path 25509" d="M2093.787,1259.639a26.219,26.219,0,0,1,1.812,2.982c4.467,8.657,9.152,26.063,10.195,36.73.259,2.645.857,4.051.635,5.781-.452,3.523-9.065-.845-12.422,1.457-3.235-7.057-4.97-14.249-13.458-29.355C2077.514,1271.834,2084.344,1255.381,2093.787,1259.639Z" fill="#d2eefc" fill-rule="evenodd"/>
        <path id="Path_25510" data-name="Path 25510" d="M2093.787,1259.639a26.219,26.219,0,0,1,1.812,2.982c4.467,8.657,9.152,26.063,10.195,36.73.259,2.645.857,4.052.635,5.781-.253,1.975-3.074,1.47-6.094,1.05.608-1.539.427-1.8-.2-4.651-3.162-14.428-8.03-27.674-12.78-41.724,1.333-.876,2.627-2.1,4.422-1.667A6.172,6.172,0,0,1,2093.787,1259.639Z" fill="#c3e6f7" fill-rule="evenodd"/>
        <path id="Path_25511" data-name="Path 25511" d="M2103.762,1298.385c1.5,2.733,3.122,4.078,2.562,7.435-.24,1.439-1.213,2.9-1.935,4.693-3.159,7.851-10.381,18.659-18.344,26.289-2.729.014-6.65-4.817-7.241-7.433,3.613-8.633,9.213-14.809,13.813-22.731a39.178,39.178,0,0,1,2.474-4.143Z" fill="#d2eefc" fill-rule="evenodd"/>
        <path id="Path_25512" data-name="Path 25512" d="M2103.762,1298.386c1.5,2.732,3.122,4.077,2.562,7.434-.24,1.439-1.213,2.9-1.935,4.693-3.159,7.851-10.381,18.659-18.344,26.289-1.208.006-2.65-.938-3.934-2.219,5.654-9.091,11.363-17.658,17.445-26.544,1.456-3.473,1.4-2.8.582-6.508-.094-.432-.191-.862-.288-1.291Z" fill="#c3e6f7" fill-rule="evenodd"/>
        <path id="Path_25513" data-name="Path 25513" d="M2080.318,1332.433a9.6,9.6,0,0,1-1.514-3.064c3.613-8.633,9.213-14.809,13.813-22.731.309-.532.559-.987.787-1.4-2.881-6.652-4.909-13.859-12.855-28-1.951-3.472.175-11.511,4.452-15.679,4.585,13.943,8.017,26.534,12.133,40.435,1.157,3.907.93,3.364-2.467,8.728C2090.3,1317.834,2084.508,1326.246,2080.318,1332.433Z" fill="#e0f5ff" fill-rule="evenodd"/>
      </g>
      <g id="Group_11816" data-name="Group 11816">
        <path id="Path_25514" data-name="Path 25514" d="M2057.747,1246.034c1.872-.752,6.879-2.756,8.578-3.672,3.6-1.943,2.925-5.718,6.978-8.656,3.466-1.543,4.161-3.251,4.827-5.135a13.716,13.716,0,0,0-2.314-13.19,12.462,12.462,0,0,0-10.134-4.323c-7.679.107-12.423,5.168-13.868,11.447-.072.315-.456.586-.54.9a4.41,4.41,0,0,0-.19,1.668c.143,1.429.237.884.125,1.857-.137,1.182-.985,2.04-1.136,3.523-.256,2.525.073,4.086.158,6.955.031,1.03.209,2.24.153,3.272-.1,1.826.02,2.635.27,2.963a5.761,5.761,0,0,0,1.688,1.348,8.574,8.574,0,0,0,3.278,1.228A7.058,7.058,0,0,0,2057.747,1246.034Z" fill="#f1b287" fill-rule="evenodd"/>
        <path id="Path_25515" data-name="Path 25515" d="M2055.044,1218.985c-.888.031-1.852-.48-2.581,1.343.528-2.987,1.33-3.264,3.173-3.545Z" fill="#361d07" fill-rule="evenodd"/>
        <path id="Path_25516" data-name="Path 25516" d="M2066.185,1222.981c5.647-.571,11.91-4.544,13.376-7.091,3.049,5.98,2.31,14.033-2.417,18.909a16.024,16.024,0,0,0-3.948,7.8,19.018,19.018,0,0,1-1.155-5.377l-.7-5.748-.242-.349c-.326.674-1.138,2.349-1.439,3.046-.355,0-.932-.517-1.435-.817C2069.219,1228.139,2068.952,1224.918,2066.185,1222.981Z" fill="#361d07" fill-rule="evenodd"/>
        <path id="Path_25517" data-name="Path 25517" d="M2065.977,1222.925c-3.921-.343-9.266-1.681-12.617-4.224a.92.92,0,0,1-.239-.873c1.553-4.336,7.956-7.828,10.376-8.593a13.991,13.991,0,0,1,5.586-.662c4.928.462,10.25,2.985,10.479,7.277C2079.2,1218.2,2070.924,1223.358,2065.977,1222.925Z" fill="#361d07" fill-rule="evenodd"/>
        <g id="Group_11813" data-name="Group 11813">
          <path id="Path_25518" data-name="Path 25518" d="M2065.81,1222.724c-5.932-.519-13.737-3.232-16.708-7.734,5.38.812,11.482-7.213,19.981-6.417,4.928.462,10.25,2.985,10.479,7.277C2077.953,1217.97,2070.756,1223.157,2065.81,1222.724Z" fill="#361d07" fill-rule="evenodd"/>
          <path id="Path_25519" data-name="Path 25519" d="M2066.051,1222.979c-5.931-.519-13.978-3.487-16.949-7.989l.053.007a20.352,20.352,0,0,0,14.183,1.874,5.486,5.486,0,0,1-2.068-1.021c4.468.242,7.545.456,11.415-1.934a7.609,7.609,0,0,1-3.09.169c2.293-.543,4.468-2.394,7.986-2.157a5.58,5.58,0,0,1,2.061,4.083C2078.2,1218.481,2071,1223.412,2066.051,1222.979Z" fill="#241304" fill-rule="evenodd"/>
          <path id="Path_25520" data-name="Path 25520" d="M2079.683,1216.426c.459,1.045,1.552,3.9,1.236,5.963a7.281,7.281,0,0,0-1.961-3.491c1.2,1.928,1.39,4.3.564,7.144-.039-2.46-.294-3.858-2.068-5.238,1.294,2.44.816,6.922.081,8.864-.226-2.782-.45-6.58-2.821-7.386,1.382,2.258,1.179,3.5.349,5.748-.242-2.495-.986-3.894-2.686-4.835-.047,2.268-.749,6.473-2.981,8.434.184-.888,1.322-6.887.134-7.735a4.3,4.3,0,0,1-.161,2.847,5.114,5.114,0,0,0-2.444-3.492C2071.7,1223.1,2078.629,1218.738,2079.683,1216.426Z" fill="#4a2b12" fill-rule="evenodd"/>
          <path id="Path_25521" data-name="Path 25521" d="M2076.764,1211.222c-2.407-1.889-6.652-2.843-9.7-2.7-2.584.121-5.092,1.184-7.412,1.707a6.291,6.291,0,0,0,1.853.054c-4.107,1.151-7.53,4.812-12.329,4.7a9.184,9.184,0,0,0,5.587-.215,12.377,12.377,0,0,1-2.095,1.021c4.566.351,7.577-2.124,11.711-3.573a5.106,5.106,0,0,1-2.5,1.532C2066.322,1212.939,2070.426,1209.387,2076.764,1211.222Z" fill="#4a2b12" fill-rule="evenodd"/>
        </g>
        <g id="Group_11815" data-name="Group 11815">
          <path id="Path_25522" data-name="Path 25522" d="M2073.125,1229.5c3.181-.726,2.831,2.823,2.13,4.924-.482,1.444-1.691,1.206-2.254,2.326a2.8,2.8,0,0,1-2.738,1.748c-1.865-.246-.417-2.9-.08-3.982C2070.154,1232.689,2071.107,1229.963,2073.125,1229.5Z" fill="#e8a476" fill-rule="evenodd"/>
          <g id="Group_11814" data-name="Group 11814">
            <path id="Path_25523" data-name="Path 25523" d="M2074.844,1233.137c.272-2.055-.057-2.264-.758-2.509-.863-.3-2.3,1.53-2.42,2.158.46-.14,1.187-.264,1.463.255a1.25,1.25,0,0,0-.94.039c-.281.093-.507.382-.9.315a2.006,2.006,0,0,1,.264-1.031c.561-1.14,1.6-2.424,2.7-2.01C2074.816,1230.564,2075.437,1231.177,2074.844,1233.137Z" fill="#db9669" fill-rule="evenodd"/>
            <path id="Path_25524" data-name="Path 25524" d="M2071.553,1235.03c.157-.323.027-.849.644-1.165a1.024,1.024,0,0,0-1.1.5c-.234.414-.241.755-.167.827C2070.982,1235.247,2071.276,1235.6,2071.553,1235.03Z" fill="#db9669" fill-rule="evenodd"/>
          </g>
        </g>
        <path id="Path_25525" data-name="Path 25525" d="M2057.378,1238.108c1.071.8,1.989,1.422.564,3.1C2058.9,1239.768,2058.122,1239,2057.378,1238.108Z" fill="#e8a476" fill-rule="evenodd"/>
        <path id="Path_25526" data-name="Path 25526" d="M2055.685,1234.467c1.152-.371,1.926-.023,1.793,1.075C2058.107,1234.419,2056.986,1233.666,2055.685,1234.467Z" fill="#e8a476" fill-rule="evenodd"/>
      </g>
    </g>
  </g>
</svg>
