<svg xmlns="http://www.w3.org/2000/svg" width="142.074" height="361.534" viewBox="0 0 142.074 361.534">
  <g id="Group_13734" data-name="Group 13734" transform="translate(-6293.436 -1136.476)">
    <g id="Group_11599" data-name="Group 11599">
      <path id="Path_24372" data-name="Path 24372" d="M6298.492,1472.98l53.469-30.453c5.829-2.663,14.172-4.782,20.11-1.692,5.411,2.816,14.325,8.58,18.267,10.827,2.993,1.708,13.385,7.934,6.913,11.453-19.041,10.354-37.885,22-57.219,32.516-3.657,1.99-9.007,2.709-14.622,2.242a38.72,38.72,0,0,1-15.836-4.716q-4.82-2.8-9.482-5.519c-4.194-2.442-6.418-5.33-6.638-8C6293.238,1477.03,6294.915,1474.613,6298.492,1472.98Z" fill="#c1d5de" fill-rule="evenodd" opacity="0.7" style="mix-blend-mode: multiply;isolation: isolate"/>
      <g id="Group_11584" data-name="Group 11584">
        <g id="Group_11583" data-name="Group 11583">
          <path id="Path_24373" data-name="Path 24373" d="M6366.344,1437.869c1.085,3.814,1.358,5.783,2.943,8,3.158,4.427,7.816,7.588,14.6,12.4,3.226,2.287,3.908,4.455.641,6.448-2.573,1.571-8.866.323-12.8-.6-7.377-1.735-10.359-6.174-12.882-7.329l-1.91.433c-1.564.028-7.711-2.454-8.91-4.06a43.918,43.918,0,0,1-.962-5.717c-.228-6.243.751-5.607,2.421-10.491C6355.16,1437.359,6360.658,1437.677,6366.344,1437.869Z" fill="#111214" fill-rule="evenodd"/>
          <path id="Path_24374" data-name="Path 24374" d="M6386.663,1461.856c.032.987-.634,1.941-2.138,2.858-2.573,1.571-8.866.323-12.8-.6-7.376-1.735-10.358-6.174-12.881-7.329l-1.91.433c-1.564.028-7.711-2.454-8.91-4.06a43.918,43.918,0,0,1-.962-5.717c-.228-6.243.751-5.607,2.421-10.491,2.512.182,4.989.346,7.463.488.447,4.11-.153,11.2,3.229,13.839,3.783,2.95,6.734,3.736,9.262,5.272C6377.49,1461.442,6382.809,1465.421,6386.663,1461.856Z" fill-rule="evenodd"/>
          <path id="Path_24375" data-name="Path 24375" d="M6368.133,1444.88c-.8,1.188-2.386,1.857-5,2.509,4.219,4.756,4.813,4.311,10.48,7.495,2.855,3.262,3.252,3.881,5.074,4.934,2.175,1.257,5.247,2.547,6.539,1.619.555-.4-.192-1.515-2.588-3.252-2.718-1.969-5.484-3.965-7.987-6.047A29.473,29.473,0,0,1,6368.133,1444.88Z" fill="#20232e" fill-rule="evenodd"/>
        </g>
        <path id="Path_24376" data-name="Path 24376" d="M6345.223,1333.56a91.1,91.1,0,0,1-.805-14.57c4.6-1.839,9.429-3.578,14.089-5.617l-.332-.28c4.94-2.319,9.2-5.92,14.893-9.188,2.384,7.5,3.267,10.864,3.086,16.969a187.571,187.571,0,0,1-2.668,24.136c-.833,12.365-1.944,25.266-2.745,33.709-2.045,21.54-1.8,42.789-3.084,64.292-2.669,4.379-15.545,4.649-19.944-1.509-.657-17.011-1.722-30.441-1.241-39.749.4-7.747.769-12.211,3.276-19.1C6348.077,1371.195,6345.831,1350.1,6345.223,1333.56Z" fill="#001624" fill-rule="evenodd"/>
        <path id="Path_24377" data-name="Path 24377" d="M6323.746,1460.475c-.943,2.755-1.805,4.89-1.716,6.623.091,1.794.58,3.539.558,5.808-.02,1.947-.12,3.6-.345,5.8-.23,2.253,0,3.319.994,4.219,1.606,1.463,6.391,3.726,8.661,4.495a9.118,9.118,0,0,0,3.969.534,17.719,17.719,0,0,0,5.322-.97c.489-.185.991-2.084,1.027-3.733.074-3.449-.239-3.158-1.667-8.626-.487-1.867-.882-3.649-1.552-5.831-.836-2.716-1.875-5.108-1.982-7.782l-10.1-.394Z" fill="#111214" fill-rule="evenodd"/>
        <path id="Path_24378" data-name="Path 24378" d="M6323.746,1460.475c-.943,2.755-1.805,4.89-1.716,6.623.091,1.794.58,3.539.558,5.808-.02,1.947-.12,3.6-.345,5.8-.23,2.253,0,3.319.994,4.219,1.606,1.463,6.391,3.726,8.661,4.495a9.118,9.118,0,0,0,3.969.534,17.719,17.719,0,0,0,5.322-.97c.443-.167.9-1.741,1-3.26l-.027,0c-3.087,1.052-6.084,1.473-9.05.025-6.262-3.059-5.447-5.6-4.858-12.817,4.073-.717,5.675-1.444,7.741-3.675-3.472,1.021-7.206,1.2-9.053-.918l-.574-5.744Z" fill-rule="evenodd"/>
        <path id="Path_24379" data-name="Path 24379" d="M6360.23,1382.59c-4.223,19.956-5.292,34.036-2.6,63.578-3.886-.288-7.847-1.762-9.922-4.666-.657-17.011-1.723-30.441-1.241-39.749.4-7.747.769-12.211,3.276-19.1-2.149-14.735-5.248-45.4-4.593-61.832l8.82-3.527C6356.649,1341.614,6358.336,1354.155,6360.23,1382.59Z" fill="#00101a" fill-rule="evenodd"/>
        <path id="Path_24380" data-name="Path 24380" d="M6351.1,1342.317c-1.629,16.572-4.818,39.608-6.67,51.37-3.365,21.373-3.891,46.432-5.781,67.891-2.92,4.568-13.921,5.509-18.135-.174-.182-17.022-1.727-36.08-.986-45.37a58.726,58.726,0,0,1,4.6-19.239c-.423-13.266-7.345-67.765,1.8-78.459a8.053,8.053,0,0,1,1.721-2.42l13.321-1.041,15.8-1.839a45.8,45.8,0,0,1-.114,18.765,2.935,2.935,0,0,1-.356.773c-.15,1.118-.35,2.245-.6,3.374C6355.462,1336.983,6352.932,1339.877,6351.1,1342.317Z" fill="#001e30" fill-rule="evenodd"/>
        <path id="Path_24381" data-name="Path 24381" d="M6336.639,1331.373c-1.814,4.2-3.215,11.244-3.3,18.287-.228,10.087-.978,33.937-1.936,45.29-1.878,22.255-6.118,40.8-2.759,70.356-3.179-.211-6.3-1.429-8.13-3.9-.183-17.022-1.728-36.08-.987-45.37a58.72,58.72,0,0,1,4.6-19.239c-.431-13.529-7.624-69.947,2.359-79.047l15.215-1.041C6339.744,1322.357,6339.126,1325.612,6336.639,1331.373Z" fill="#001624" fill-rule="evenodd"/>
        <path id="Path_24382" data-name="Path 24382" d="M6337.54,1467.818c-2.923,2.305-1.9,3.313-6.166,3.87,1.055,4.22,1.188,4.425,3.325,8.317.172,1.608.3,3.718,3.433,3.738,5.846.037,1.79-4.789,1.77-4.97A48.336,48.336,0,0,0,6337.54,1467.818Z" fill="#20232e" fill-rule="evenodd"/>
        <path id="Path_24383" data-name="Path 24383" d="M6372.5,1308.674a41.275,41.275,0,0,1-11.01,7.734c-.016,7.544-.011,21.516.271,35.482.03,8.259.163,16.671.52,23.673.013.34.024.68.034,1.021-.7,5.813-3.427,9.094-3.769,17.827-.381,9.735.881,26.043,2.607,36.694-.057,4.675-.087,9.334-.048,13.98a9.16,9.16,0,0,0,6.189-2.559l.346-52.9c.333-8.429,1.631-21.048,2.673-34.027C6372.52,1340.1,6374.664,1322.115,6372.5,1308.674Z" fill="#001e30" fill-rule="evenodd"/>
        <path id="Path_24384" data-name="Path 24384" d="M6342.251,1319.854l-.038.012a260.756,260.756,0,0,1-7.132,25.122c-1.942,16.827-1.448,35.188-1.681,48.162-1.752,23.735-3.736,47.518-4.92,71.284,2.16-.188,6.951-1.153,8.1-2.194,1.3-19.352,1.067-46.643,3.478-64.831.492-3.713,4.076-35.254,8.4-53.128,1.448-5.987,5.59-5.876,6.428-9.318,1.819-7.47,1.857-11.664,1.108-19.777C6351.449,1316.892,6346.921,1318.522,6342.251,1319.854Z" fill="#00263d" fill-rule="evenodd"/>
      </g>
      <g id="Group_11585" data-name="Group 11585">
        <path id="Path_24385" data-name="Path 24385" d="M6395.772,1282.7l.788-2.519.753-5.214c2.533-1.525,4.442-2.035,5.518-1.6.087.036.193.051.272.094C6406.545,1275.37,6399.077,1285.951,6395.772,1282.7Z" fill="#8f9ba6" fill-rule="evenodd"/>
        <path id="Path_24386" data-name="Path 24386" d="M6416.715,1276.281c1.661,2.964-3.181,3.785-4.587,3.7-1.937.475-2.832.123-3.8,1.522-1.084,1.57-4.812-6.673-4.688-6.764.841-.252,4.941.932,5.82,1.276,1.637.639,1.707.911,3.646.8C6414.112,1276.752,6415.1,1276.507,6416.715,1276.281Z" fill="#f1b287" fill-rule="evenodd"/>
        <path id="Path_24387" data-name="Path 24387" d="M6417.006,1277c.56,2.379-3.593,3.057-4.878,2.976-1.937.475-2.832.123-3.8,1.522-.666.964-4.089-3.15.614-3.422C6411.019,1278.1,6414.037,1279.114,6417.006,1277Z" fill="#e8a476" fill-rule="evenodd"/>
        <path id="Path_24388" data-name="Path 24388" d="M6389.57,1278.718c2.272.934,3.848,1.45,5.078,2.045,3.251,1.574,1.813,5.32,7.884,8.166l6.953,3.259c.908.426,7.9-1.134,9.85-2.276,1.387-.811,7.187-5.044,6.521-5.406-.5-.27-3.551-.02-6.378-.211l-6.3-1.594c-5.971-2.092-4.876-5.529-6.991-6.9-2.755-1.791-5.608-1.389-10.028-5.479l-5.286,1.882.145,5.939Z" fill="#f1b287" fill-rule="evenodd"/>
        <path id="Path_24389" data-name="Path 24389" d="M6389.57,1278.718c2.272.934,3.848,1.45,5.078,2.045,3.251,1.574,1.813,5.32,7.884,8.166l6.953,3.259c.908.426,7.9-1.134,9.85-2.276.24-.14.612-.383,1.06-.69-2.031-1.536-7.457,1.182-9.607.757a9.052,9.052,0,0,1-5.037-2.455c-2.416-2.3-2.8-3.969-4.312-5.782-1.07-1.283-2.851-2.493-5.678-4.689l1.306-6.212c-.294-.165-.6-.34-.908-.523l-5.286,1.882.145,5.939Z" fill="#e8a476" fill-rule="evenodd"/>
        <path id="Path_24390" data-name="Path 24390" d="M6365.721,1267.115c11.389,7.277,18.353,9.356,30.262,15.761.359-5.764,5.135-9.682,7.514-9.195-9.58-6.585-20.844-15.413-31.7-19.915Z" fill="#d2eefc" fill-rule="evenodd"/>
        <path id="Path_24391" data-name="Path 24391" d="M6365.721,1267.115c11.389,7.277,18.353,9.356,30.262,15.761a11.245,11.245,0,0,1,2.243-6.041c-5.582-2.734-12.881-7.559-20.5-12.526-1.278-1.038.406-5.318.559-7.423Z" fill="#c3e6f7" fill-rule="evenodd"/>
      </g>
      <g id="Group_11587" data-name="Group 11587">
        <path id="Path_24392" data-name="Path 24392" d="M6337.326,1226.128c-.472,5.531,14.674,12.775,20.445,9.944.608-.3.926-1.577,1.3-2.092-.352-1.417.127-2.022.255-3.464a17.683,17.683,0,0,1,.843-4.621c.688-1.871.32-5.752,1.512-10.134l-17.27-7.528-3.7-1.961C6342.486,1214.893,6340.531,1218.9,6337.326,1226.128Z" fill="#e8a476" fill-rule="evenodd"/>
        <path id="Path_24393" data-name="Path 24393" d="M6337.326,1226.128a2.531,2.531,0,0,0,.075.93c8.186-5.154,13.284-.836,22.885-3.4a63.091,63.091,0,0,1,1.4-7.9l-17.27-7.528-3.7-1.961C6342.486,1214.893,6340.532,1218.9,6337.326,1226.128Z" fill="#db9669" fill-rule="evenodd"/>
        <g id="Group_11586" data-name="Group 11586">
          <path id="Path_24394" data-name="Path 24394" d="M6374.711,1303.51a2.407,2.407,0,0,1-.434,1.051c-4.886,6.807-35.533,17.068-41.946,16.535,5.09-44.255-41.257-81.928,8.4-96.516l14.286,7.864,5.113-.918.655-6.292c6.914,6.876,10.111,15.985,11.341,28.652C6373.737,1270.459,6370.259,1285.325,6374.711,1303.51Z" fill="#12a8b3" fill-rule="evenodd"/>
          <path id="Path_24395" data-name="Path 24395" d="M6352.147,1316.208c-8.5,3.021-16.813,5.138-19.816,4.888,5.09-44.255-41.257-81.928,8.4-96.516l14.286,7.864,5.113-.918.655-6.292a33.41,33.41,0,0,1,7.116,10.486l-.409.45c-3.729-1.181-5.687-2.692-7.61-1.842-1.585.7-3.4,3.194-3.957,7.151-2.253-.563-6.548-2.18-8.781-2.818,8.276,12.342,16,38.868,10.2,66.568C6356.628,1308.671,6353.7,1312.652,6352.147,1316.208Z" fill="#06929c" fill-rule="evenodd"/>
          <path id="Path_24396" data-name="Path 24396" d="M6355.477,1233.888c.825,3.449.96,3.438,4.1,5.814-.388,1.753-.639,3.266-.89,5.063,5.119,14.849,7.851,27.413,10.855,44.96.364-17.953-.528-31.58-4.42-50.27a10.985,10.985,0,0,0-3.242-1.171c.86-3.806.38-6.261-.4-6.722C6358.664,1231.458,6357.492,1231.791,6355.477,1233.888Z" fill="#041e2e" fill-rule="evenodd"/>
          <path id="Path_24397" data-name="Path 24397" d="M6355.477,1233.888c.825,3.449.96,3.438,4.1,5.814-.388,1.753-.639,3.266-.89,5.063,5.119,14.849,7.851,27.413,10.855,44.96-1.593-21.4-4.4-30.052-8.923-44.669a38.672,38.672,0,0,0,.4-6.224c-2.012-1.782-2.876-1.959-3.391-3.184-.456-1.085,1.79-3.831,1.424-4.047C6357.646,1232.006,6357.492,1231.791,6355.477,1233.888Z" fill="#020d14" fill-rule="evenodd"/>
          <path id="Path_24398" data-name="Path 24398" d="M6358.535,1231.766c.351-.9.531-2.744.91-4.353a18.992,18.992,0,0,1,1.2-3.385c1.965.25,2.824,6.183,4.493,9.688C6362.555,1231.917,6361.433,1231.759,6358.535,1231.766Z" fill="#1abac6" fill-rule="evenodd"/>
          <path id="Path_24399" data-name="Path 24399" d="M6340.217,1219.412c-.394,6.348,11.655,10.759,18.38,12.359-1.687,2.036-3.867,4.6-3.78,6.631-4.849-1.326-13.073-3.607-16.4-9.807C6336.133,1224.355,6338.008,1221.1,6340.217,1219.412Z" fill="#1abac6" fill-rule="evenodd"/>
        </g>
      </g>
      <g id="Group_11592" data-name="Group 11592">
        <path id="Path_24400" data-name="Path 24400" d="M6363,1214.841c5-.244,7.332.921,10.053,4.976,4.9,7.3,5.662,22.842,5.318,36.848-.2,7.934-1.453,14.911-1.551,24.77-.079,7.948,1.52,19.958,2.4,30.773.428,5.266.687,56.43.5,60.524-1.073,2.313-8.656,6.2-9.655,6,.46-5.9.872-59.017,1.137-66.5.839-23.7.232-52.936-4.81-72.379-1.261-4.864-1.968-10.421-4.7-14.694-.462-.7-.908-1.376-1.327-2.027a56.569,56.569,0,0,1,1.32-7.37l-1.282-.559A22.458,22.458,0,0,1,6363,1214.841Z" fill="#d2eefc" fill-rule="evenodd"/>
        <path id="Path_24401" data-name="Path 24401" d="M6324.131,1231.028c2.73-1.513,8.293-4.921,14.291-8.272-5.051,6.052,7.148,20.6,12.809,38.746,1.925,6.167,3.175,15.159,3.476,24.112.29,8.641-2.456,96.029-4.415,103.022-5.714,3.946-11.365,4.227-17.37,1.754a57.6,57.6,0,0,1-14.567-9.213c2.29-16.279-1.682-49.3,4.077-62.24,2.793-6.274,5.716-8.9,6-16.791.414-11.308-15.449-41.447-15.3-57.05C6313.2,1238.17,6319.032,1233.857,6324.131,1231.028Z" fill="#d2eefc" fill-rule="evenodd"/>
        <path id="Path_24402" data-name="Path 24402" d="M6324.131,1231.028l13.9-7.7c-2.074,3.325-7.6,6.892-13.566,11.925a27.246,27.246,0,0,1,7.7,13.6c3.138,12.408,7.937,28.738,8.761,40.084,1.311,18.057-3.009,26.19-6.732,34.241-2.523,5.459-4.773,57.062-4.806,65.518a58.5,58.5,0,0,1-10.965-7.515c.518-4.9.275-31.378,1.271-47.964a45,45,0,0,1,4.5-17.967c1.958-3.743,3.8-6.637,4.24-13.1.775-11.289-15.449-41.447-15.3-57.05C6313.2,1238.17,6319.032,1233.857,6324.131,1231.028Z" fill="#c3e6f7" fill-rule="evenodd"/>
        <path id="Path_24403" data-name="Path 24403" d="M6340.925,1288.933c.208,2.875.274,5.5.223,7.909-7.648-6.966-14.831-15.878-21.535-25.527-3.434-9.659-6.542-19.35-6.477-26.219Z" fill="#b2d9ed" fill-rule="evenodd"/>
        <path id="Path_24404" data-name="Path 24404" d="M6361.23,1220.051a18.064,18.064,0,0,1,9.483,7.592l-2.68,2.078,3.485,1.742a241.259,241.259,0,0,1-.3,49.8c-.708-13.859-.935-31.2-6.456-44.924-.868-2.159-3.79-12.151-4.462-13.1C6360.828,1221.04,6360.567,1222.336,6361.23,1220.051Z" fill="#ebf9ff" fill-rule="evenodd"/>
        <path id="Path_24405" data-name="Path 24405" d="M6335.423,1229.009l-8.478,6.2c7.023,11.561,16.433,33.27,16.693,55.207.125,10.576-7.9,54.08-11.2,96.771,6.267,3.787,13.519,2.141,16.834-.887,3.342-21.506,3.843-105.613-.673-122.692C6344.729,1248.963,6338.069,1238.36,6335.423,1229.009Z" fill="#e0f5ff" fill-rule="evenodd"/>
        <g id="Group_11588" data-name="Group 11588">
          <path id="Path_24406" data-name="Path 24406" d="M6334.322,1302.335c6.827-.233,8.706-.244,14.614.818l-2.72,16.327c-3.825,1.621-9.255,1.179-14.048-.806Z" fill="#d2eefc" fill-rule="evenodd"/>
          <path id="Path_24407" data-name="Path 24407" d="M6334.322,1302.335c6.827-.233,8.706-.244,14.614.818-.849,4.869-.445,4.821-5.66,5.133-9.319.556-6.447,1.589-9.66,10.935-.142.411-.971-.349-1.448-.547Z" fill="#c3e6f7" fill-rule="evenodd"/>
          <path id="Path_24408" data-name="Path 24408" d="M6334.821,1300.255c6.873-.21,9.936-.742,15.033-.761l-1.314,6.5c-1.74.907-10.879,1.988-14.916.078Z" fill="#d2eefc" fill-rule="evenodd"/>
          <path id="Path_24409" data-name="Path 24409" d="M6334.821,1300.255c6.873-.21,9.936-.742,15.033-.761-4.966,1.842-13.343,1.338-14.806,7.082a8.29,8.29,0,0,1-1.424-.506Z" fill="#c3e6f7" fill-rule="evenodd"/>
          <path id="Path_24410" data-name="Path 24410" d="M6347.685,1308.842l-8.6,1.39-3.476,8.552a29.674,29.674,0,0,0,9.545.534Z" fill="#e0f5ff" fill-rule="evenodd"/>
          <path id="Path_24411" data-name="Path 24411" d="M6349.114,1300.353c-4.014,1.225-9.651,2.93-12.017,5.921a30.349,30.349,0,0,0,10.534-.692A23.816,23.816,0,0,0,6349.114,1300.353Z" fill="#e0f5ff" fill-rule="evenodd"/>
        </g>
        <g id="Group_11591" data-name="Group 11591">
          <g id="Group_11589" data-name="Group 11589">
            <path id="Path_24412" data-name="Path 24412" d="M6373.828,1294.143c2.022-2.206,2.583-2.758,4.452-3.387l1.4,18.232c-.939,1.483-4.029,2.711-4.969,2.333Z" fill="#d2eefc" fill-rule="evenodd"/>
            <path id="Path_24413" data-name="Path 24413" d="M6373.828,1294.143c2.022-2.206,2.583-2.758,4.452-3.387.2,5.178.318,5.014-1.214,6.834-2.737,3.252-1.691,3.471-1.777,13.867a1.934,1.934,0,0,1-.576-.136Z" fill="#c3e6f7" fill-rule="evenodd"/>
            <path id="Path_24414" data-name="Path 24414" d="M6378.437,1296.881l-2.444,3.889.22,10.025a5.231,5.231,0,0,0,2.991-2.2Z" fill="#e0f5ff" fill-rule="evenodd"/>
          </g>
          <g id="Group_11590" data-name="Group 11590">
            <path id="Path_24415" data-name="Path 24415" d="M6373.088,1289.813c2.263-1,3.188-1.9,4.892-2.5l.79,7c-.411,1.151-3.269,3.32-4.983,1.761Z" fill="#d2eefc" fill-rule="evenodd"/>
            <path id="Path_24416" data-name="Path 24416" d="M6373.088,1289.813c2.263-1,3.188-1.9,4.892-2.5-1.314,2.5-4.217,2.914-3.621,9.133a2.049,2.049,0,0,1-.572-.373Z" fill="#c3e6f7" fill-rule="evenodd"/>
            <path id="Path_24417" data-name="Path 24417" d="M6377.9,1288.306a15.5,15.5,0,0,0-2.906,7.595c1.575-.109,2.072-.511,3.4-1.916C6378.331,1292.106,6378.115,1290.356,6377.9,1288.306Z" fill="#e0f5ff" fill-rule="evenodd"/>
          </g>
        </g>
        <path id="Path_24418" data-name="Path 24418" d="M6333.7,1225.3c-1.99,4.84-.562,13.55,1.833,21.931l4.874-1.807-2.351,5.308c9.795,12.8,15.276,31.864,16.035,51.442,5.3-42.4-10.019-59.722-14.238-74.57-.567-1.994-1.892-5.144-1-6.916A11.981,11.981,0,0,0,6333.7,1225.3Z" fill="#ebf9ff" fill-rule="evenodd"/>
      </g>
      <g id="Group_11593" data-name="Group 11593">
        <path id="Path_24419" data-name="Path 24419" d="M6357.183,1222.246c-2.273-.913-7.474-1.858-9.536-2.808-4.514-2.077-4.854-6.695-7.167-12.218-4.207-1.874-5.865-3.7-6.675-5.989-1.92-5.426.031-12.095,3.625-16.255a15.122,15.122,0,0,1,12.3-5.248c9.787.136,15.094,6.435,17.246,14.436a5.547,5.547,0,0,1,.148,2.066c-.173,1.734-.727,2.6-.864,3.782-.323,2.781.881,2.277,1.154,5.01.444,4.433-.29,8.616-1.006,13.5-.21,1.436-.5,2.107-1.334,2.65a19.678,19.678,0,0,1-2.97,1.268C6361.094,1222.864,6360.081,1223.032,6357.183,1222.246Z" fill="#f1b287" fill-rule="evenodd"/>
        <path id="Path_24420" data-name="Path 24420" d="M6357.183,1222.246c-2.273-.913-7.474-1.858-9.536-2.808-4.514-2.077-4.854-6.695-7.167-12.218-4.207-1.874-5.865-3.7-6.675-5.989-1.92-5.426.031-12.095,3.625-16.255a15.122,15.122,0,0,1,12.3-5.248c8.5.119,13.624,4.888,16.232,11.383-.348.9-8.295,5.07-15.5,5.117-.54,3.254,1.152,5.925,1.23,7.561.075,1.567.067,2.905.21,3.784.212,1.3,1.55,2.308,1.752,4.174.657,6.073,4,9.958,6.727,11.049A12.581,12.581,0,0,1,6357.183,1222.246Z" fill="#e8a476" fill-rule="evenodd"/>
        <path id="Path_24421" data-name="Path 24421" d="M6362.644,1189.35c1.079.038,2.377-.583,3.26,1.63-.64-3.626-1.74-3.962-3.977-4.3Z" fill="#361d07" fill-rule="evenodd"/>
        <path id="Path_24422" data-name="Path 24422" d="M6349.121,1194.2c-6.855-.693-14.457-5.517-16.237-8.608-3.7,7.258-2.8,17.034,2.934,22.954,1.652,3.135,3.27,6.218,4.817,9.406a66.512,66.512,0,0,0,2.226-13.449l.294-.424c.4.819,1.381,2.852,1.747,3.7.43,0,1.13-.626,1.741-.991C6345.438,1200.462,6345.762,1196.552,6349.121,1194.2Z" fill="#361d07" fill-rule="evenodd"/>
        <path id="Path_24423" data-name="Path 24423" d="M6349.577,1193.888c7.2-.63,16.673-3.923,20.28-9.387-6.531.985-13.937-8.756-24.255-7.79-5.981.56-12.441,3.624-12.719,8.833C6334.835,1188.119,6343.572,1194.414,6349.577,1193.888Z" fill="#361d07" fill-rule="evenodd"/>
        <path id="Path_24424" data-name="Path 24424" d="M6349.283,1194.2c7.2-.63,16.967-4.233,20.574-9.7l-.063.007c-6.428,3.329-11.745,3.295-17.217,2.275a6.626,6.626,0,0,0,2.51-1.239c-5.424.294-9.159.553-13.857-2.347a9.263,9.263,0,0,0,3.752.2c-2.785-.66-5.424-2.905-9.694-2.618a6.771,6.771,0,0,0-2.5,4.956C6334.542,1188.738,6343.279,1194.723,6349.283,1194.2Z" fill="#241304" fill-rule="evenodd"/>
        <path id="Path_24425" data-name="Path 24425" d="M6340.7,1202.117c-3.861-.88-3.435,3.428-2.585,5.978.586,1.752,2.052,1.464,2.737,2.824a3.4,3.4,0,0,0,3.323,2.121c2.263-.3.506-3.524.1-4.834C6344.3,1205.986,6343.146,1202.676,6340.7,1202.117Z" fill="#e8a476" fill-rule="evenodd"/>
        <path id="Path_24426" data-name="Path 24426" d="M6332.735,1186.244c-.556,1.268-1.882,4.734-1.5,7.238a8.85,8.85,0,0,1,2.381-4.238c-1.459,2.34-1.688,5.222-.685,8.673.047-2.987.357-4.684,2.511-6.358-1.571,2.961-.991,8.4-.1,10.759.273-3.378.545-7.988,3.423-8.967-1.677,2.742-1.43,4.253-.423,6.978.294-3.027,1.2-4.726,3.26-5.868.057,2.753.909,7.857,3.619,10.237-.224-1.078-1.6-8.36-.163-9.39a5.216,5.216,0,0,0,.2,3.456,6.207,6.207,0,0,1,2.967-4.239C6342.421,1194.349,6334.015,1189.05,6332.735,1186.244Z" fill="#4a2b12" fill-rule="evenodd"/>
        <path id="Path_24427" data-name="Path 24427" d="M6336.279,1179.926c2.922-2.293,8.074-3.451,11.772-3.278,3.137.147,6.182,1.437,9,2.072a7.649,7.649,0,0,1-2.25.065c4.986,1.4,9.141,5.842,14.966,5.706a11.158,11.158,0,0,1-6.782-.261,15.094,15.094,0,0,0,2.543,1.239c-5.542.426-9.2-2.577-14.216-4.337a6.2,6.2,0,0,0,3.033,1.859C6348.954,1182.011,6343.973,1177.7,6336.279,1179.926Z" fill="#4a2b12" fill-rule="evenodd"/>
      </g>
      <g id="Group_11598" data-name="Group 11598">
        <g id="Group_11594" data-name="Group 11594">
          <path id="Path_24428" data-name="Path 24428" d="M6314.562,1239.713c-5.261,8.865-8.795,28.046-10.393,40.861-.812,6.518-.984,11.662,3.887,14.1,4.616,2.309,9.8-1.877,11.739-6.792,2.3-5.825,4.45-13.121,8.525-25.53,3.247-9.886.01-19.861-4.824-23.734C6320.695,1236.372,6317.142,1235.366,6314.562,1239.713Z" fill="#d2eefc" fill-rule="evenodd"/>
          <path id="Path_24429" data-name="Path 24429" d="M6314.562,1239.713c-5.261,8.865-8.795,28.046-10.393,40.861-.812,6.518-.984,11.662,3.887,14.1,3.241,1.621,6.76.042,9.24-2.743a57.36,57.36,0,0,1-5.606-2.15c-1.606-.722-2.618-.791-1.81-4.591,3.594-16.905,6.8-31.382,12.531-47.35C6319.82,1236.2,6316.818,1235.91,6314.562,1239.713Z" fill="#c3e6f7" fill-rule="evenodd"/>
        </g>
        <g id="Group_11595" data-name="Group 11595">
          <path id="Path_24430" data-name="Path 24430" d="M6329.392,1253.987l2.795-1.573v57.024l-2.795,1.573Z" fill="#1a0101" fill-rule="evenodd"/>
          <path id="Path_24431" data-name="Path 24431" d="M6332.186,1252.414l31.324,17.808v57.024l-31.324-17.808Z" fill="#240101" fill-rule="evenodd"/>
          <path id="Path_24432" data-name="Path 24432" d="M6332.217,1253.34l30.1,17.052-.167,55.748-2.693,1.524-27.24-19.831-2.638-52.985Z" fill="#e6e6e6" fill-rule="evenodd"/>
          <path id="Path_24433" data-name="Path 24433" d="M6329.392,1253.987l31.324,17.808v57.024l-31.324-17.809Z" fill="#380303" fill-rule="evenodd"/>
        </g>
        <g id="Group_11597" data-name="Group 11597">
          <path id="Path_24434" data-name="Path 24434" d="M6345.334,1303.08l-1.5-3.257.845-5.849c2.841-1.711,4.983-2.282,6.189-1.794a2.787,2.787,0,0,1,.3.106C6355.031,1294.42,6350.665,1305.359,6345.334,1303.08Z" fill="#8f9ba6" fill-rule="evenodd"/>
          <g id="Group_11596" data-name="Group 11596">
            <path id="Path_24435" data-name="Path 24435" d="M6356.837,1308.8a27.136,27.136,0,0,0,7.8-2.289c1.5-.7,1.962-11.277,1.785-11.306-1.883.328-6.029,1.362-8.043,1.614-2.443-.771-10.167-3.451-12.61-4.223l-2.313,4.857-.1,5.052c.73-.166,2.6.769,2.793.855C6349.655,1304.879,6352.645,1307.6,6356.837,1308.8Z" fill="#e8a476" fill-rule="evenodd"/>
            <path id="Path_24436" data-name="Path 24436" d="M6358.259,1297.911a27.187,27.187,0,0,0,7.8-2.288c1.5-.7-1.809-1.105-2.723-.946-1.883.328-3.431.748-5.444,1-2.444-.771-7.832-2.477-10.215-3.431l-2.01.162A126.581,126.581,0,0,0,6358.259,1297.911Z" fill="#f1b287" fill-rule="evenodd"/>
            <path id="Path_24437" data-name="Path 24437" d="M6360.723,1294.6c.409,2.905-4.03,1.523-5.133,1.011-.966-.077-7.834-2.015-6.49-2.435,1.169-.432,2.96-1.421,5.362-.779,1.465.393,1.515.943,3.11,1.46A16.505,16.505,0,0,0,6360.723,1294.6Z" fill="#f1b287" fill-rule="evenodd"/>
          </g>
          <path id="Path_24438" data-name="Path 24438" d="M6304.553,1290.542a7.274,7.274,0,0,0,2.7,3.6c1.366,1.034,3.376,1.486,5.44,2.44,7.985,3.691,20.667,4.983,33.089,6.7-.523-6.667,1.653-10.494,5.4-10.994-10.312-4.188-22.818-6.246-33.137-9.29a20.833,20.833,0,0,0-3.9-.757C6309.942,1283.759,6302.528,1284.695,6304.553,1290.542Z" fill="#d2eefc" fill-rule="evenodd"/>
          <path id="Path_24439" data-name="Path 24439" d="M6304.553,1290.542a7.274,7.274,0,0,0,2.7,3.6c1.366,1.034,3.376,1.486,5.44,2.44,7.985,3.691,20.667,4.983,33.089,6.7a21.181,21.181,0,0,1,.033-3.97c-10.824-3.787-23.415-4.718-34.121-9.529-1.606-.722-2.618-.791-1.81-4.591l.367-1.724C6306.6,1284.635,6303.08,1286.29,6304.553,1290.542Z" fill="#c3e6f7" fill-rule="evenodd"/>
          <path id="Path_24440" data-name="Path 24440" d="M6321.156,1247.909c-2.517,12.635-8.657,25.136-9.065,39.33,11.468,3.951,21.473,6.517,33.258,9.38a7.406,7.406,0,0,1,4.109-4.137l-31.145-8.021,2.913-13.524Z" fill="#e0f5ff" fill-rule="evenodd"/>
        </g>
      </g>
    </g>
    <g id="Group_11601" data-name="Group 11601">
      <path id="Path_24441" data-name="Path 24441" d="M6372.431,1139.18l1.027-.594A2.463,2.463,0,0,0,6372.431,1139.18Z" fill="#fff"/>
      <path id="Path_24442" data-name="Path 24442" d="M6371.3,1174.873a11.327,11.327,0,0,0,5.138,8.9l2.578,1.489-.029,10.1,12.255-3.04,29,16.745-48.864-62.689Z" fill="#fff"/>
      <g id="Group_11600" data-name="Group 11600">
        <path id="Path_24443" data-name="Path 24443" d="M6430.371,1166.2l-50.253-29.013c-1.6-.921-3.024-.911-3.973-.149l-2.687,1.552a4.018,4.018,0,0,1,3.108.59l50.253,29.013a11.326,11.326,0,0,1,5.139,8.9l-.092,32.749c-.006,1.818-.725,3.031-1.85,3.47.013.024.029.047.042.071l3.727-2.159a2.573,2.573,0,0,0,.259-.15h0a3.7,3.7,0,0,0,1.374-3.224l.092-32.75A11.325,11.325,0,0,0,6430.371,1166.2Z" fill="#d3d3d3" opacity="0.6" style="mix-blend-mode: multiply;isolation: isolate"/>
        <path id="Path_24444" data-name="Path 24444" d="M6431.866,1209.839l.092-32.749a11.326,11.326,0,0,0-5.139-8.9l-50.253-29.013a4.018,4.018,0,0,0-3.108-.59l-1.027.594a3.971,3.971,0,0,0-1.036,2.943l-.012,4.254,48.864,62.689,6.445,3.721C6429.54,1214.431,6431.856,1213.111,6431.866,1209.839Z" fill="#fff"/>
      </g>
    </g>
  </g>
</svg>
