<svg xmlns="http://www.w3.org/2000/svg" width="142.075" height="361.534" viewBox="0 0 142.075 361.534">
  <g id="Group_10012" data-name="Group 10012" transform="translate(-4770.922 -1102.357)">
    <g id="Group_7878" data-name="Group 7878">
      <path id="Path_16362" data-name="Path 16362" d="M4775.979,1438.861l53.469-30.453c5.829-2.663,14.172-4.782,20.11-1.692,5.411,2.816,14.325,8.58,18.266,10.827,2.994,1.708,13.386,7.934,6.914,11.454-19.041,10.353-37.885,22-57.22,32.516-3.656,1.989-9.006,2.708-14.622,2.241a38.722,38.722,0,0,1-15.836-4.716q-4.819-2.8-9.482-5.519c-4.193-2.442-6.417-5.33-6.638-8C4770.725,1442.911,4772.4,1440.495,4775.979,1438.861Z" fill="#231f20" fill-rule="evenodd" opacity="0.1" style="mix-blend-mode: multiply;isolation: isolate"/>
      <g id="Group_7863" data-name="Group 7863">
        <g id="Group_7862" data-name="Group 7862">
          <path id="Path_16363" data-name="Path 16363" d="M4843.83,1403.751c1.086,3.814,1.359,5.782,2.943,8,3.159,4.426,7.816,7.587,14.6,12.394,3.227,2.287,3.908,4.455.641,6.449-2.572,1.57-8.866.322-12.8-.6-7.377-1.735-10.359-6.175-12.881-7.329l-1.911.432c-1.564.028-7.71-2.453-8.91-4.059a43.818,43.818,0,0,1-.961-5.717c-.229-6.244.751-5.608,2.421-10.492C4832.646,1403.24,4838.144,1403.558,4843.83,1403.751Z" fill="#111214" fill-rule="evenodd"/>
          <path id="Path_16364" data-name="Path 16364" d="M4864.15,1427.738c.032.986-.635,1.94-2.139,2.858-2.572,1.57-8.866.322-12.8-.6-7.377-1.735-10.359-6.175-12.881-7.329l-1.911.432c-1.564.028-7.71-2.453-8.91-4.059a43.818,43.818,0,0,1-.961-5.717c-.229-6.244.751-5.608,2.421-10.492,2.512.182,4.988.346,7.462.488.448,4.111-.152,11.2,3.23,13.839,3.783,2.95,6.734,3.736,9.261,5.272C4854.977,1427.323,4860.3,1431.3,4864.15,1427.738Z" fill-rule="evenodd"/>
          <path id="Path_16365" data-name="Path 16365" d="M4845.62,1410.761c-.805,1.188-2.387,1.858-5,2.509,4.218,4.756,4.813,4.312,10.48,7.495,2.854,3.263,3.251,3.882,5.074,4.934,2.175,1.257,5.246,2.548,6.538,1.619.555-.4-.191-1.515-2.588-3.252-2.717-1.969-5.483-3.965-7.986-6.046A29.5,29.5,0,0,1,4845.62,1410.761Z" fill="#20232e" fill-rule="evenodd"/>
        </g>
        <path id="Path_16366" data-name="Path 16366" d="M4822.71,1299.441a91.151,91.151,0,0,1-.805-14.57c4.6-1.839,9.429-3.578,14.089-5.616l-.332-.281c4.939-2.318,9.2-5.92,14.893-9.188,2.384,7.5,3.267,10.865,3.086,16.97a187.733,187.733,0,0,1-2.669,24.135c-.833,12.365-1.943,25.266-2.745,33.71-2.044,21.539-1.794,42.788-3.083,64.291-2.669,4.379-15.546,4.649-19.944-1.509-.658-17.01-1.723-30.441-1.241-39.749.4-7.747.769-12.211,3.275-19.1C4825.563,1337.077,4823.318,1315.984,4822.71,1299.441Z" fill="#001624" fill-rule="evenodd"/>
        <path id="Path_16367" data-name="Path 16367" d="M4801.233,1426.356c-.943,2.755-1.8,4.89-1.717,6.623.091,1.8.581,3.54.559,5.808-.021,1.947-.121,3.6-.345,5.8-.231,2.254,0,3.32.993,4.219,1.606,1.463,6.392,3.726,8.661,4.495a9.11,9.11,0,0,0,3.97.534,17.7,17.7,0,0,0,5.321-.97c.49-.185.991-2.084,1.027-3.733.075-3.448-.238-3.157-1.666-8.625-.488-1.868-.882-3.65-1.552-5.831-.836-2.717-1.876-5.108-1.982-7.783l-10.1-.393Z" fill="#111214" fill-rule="evenodd"/>
        <path id="Path_16368" data-name="Path 16368" d="M4801.233,1426.356c-.943,2.755-1.8,4.89-1.717,6.623.091,1.8.581,3.54.559,5.808-.021,1.947-.121,3.6-.345,5.8-.231,2.254,0,3.32.993,4.219,1.606,1.463,6.392,3.726,8.661,4.495a9.11,9.11,0,0,0,3.97.534,17.7,17.7,0,0,0,5.321-.97c.443-.167.9-1.741,1.005-3.259l-.027,0c-3.088,1.051-6.084,1.473-9.05.024-6.262-3.059-5.448-5.6-4.858-12.817,4.073-.717,5.674-1.443,7.741-3.674-3.473,1.02-7.206,1.2-9.053-.918l-.575-5.744Z" fill-rule="evenodd"/>
        <path id="Path_16369" data-name="Path 16369" d="M4837.717,1348.471c-4.223,19.956-5.292,34.037-2.6,63.578-3.886-.288-7.846-1.762-9.921-4.666-.658-17.01-1.723-30.441-1.241-39.749.4-7.747.769-12.211,3.275-19.1-2.148-14.735-5.248-45.4-4.592-61.831l8.819-3.528C4834.135,1307.5,4835.822,1320.036,4837.717,1348.471Z" fill="#00101a" fill-rule="evenodd"/>
        <path id="Path_16370" data-name="Path 16370" d="M4828.586,1308.2c-1.628,16.573-4.817,39.608-6.669,51.37-3.365,21.373-3.892,46.433-5.781,67.891-2.92,4.568-13.921,5.509-18.135-.174-.182-17.022-1.727-36.079-.986-45.37a58.683,58.683,0,0,1,4.6-19.239c-.424-13.266-7.345-67.765,1.8-78.459a8.036,8.036,0,0,1,1.721-2.42l13.321-1.04,15.8-1.839a45.806,45.806,0,0,1-.114,18.764,2.953,2.953,0,0,1-.356.773c-.151,1.118-.35,2.246-.6,3.374C4832.948,1302.864,4830.418,1305.758,4828.586,1308.2Z" fill="#001e30" fill-rule="evenodd"/>
        <path id="Path_16371" data-name="Path 16371" d="M4814.126,1297.254c-1.814,4.2-3.216,11.244-3.3,18.287-.228,10.088-.978,33.937-1.936,45.29-1.878,22.255-6.118,40.8-2.76,70.356-3.178-.211-6.3-1.429-8.129-3.9-.183-17.022-1.728-36.079-.987-45.37a58.683,58.683,0,0,1,4.6-19.239c-.432-13.529-7.625-69.947,2.358-79.047l15.216-1.041C4817.231,1288.239,4816.613,1291.493,4814.126,1297.254Z" fill="#001624" fill-rule="evenodd"/>
        <path id="Path_16372" data-name="Path 16372" d="M4815.026,1433.7c-2.922,2.305-1.9,3.314-6.166,3.87,1.055,4.22,1.188,4.425,3.325,8.317.173,1.608.3,3.718,3.433,3.738,5.847.038,1.791-4.788,1.771-4.97A48.373,48.373,0,0,0,4815.026,1433.7Z" fill="#20232e" fill-rule="evenodd"/>
        <path id="Path_16373" data-name="Path 16373" d="M4849.984,1274.556a41.325,41.325,0,0,1-11.011,7.734c-.016,7.543-.011,21.515.272,35.481.029,8.259.163,16.672.52,23.673q.019.51.033,1.022c-.7,5.812-3.426,9.093-3.769,17.827-.38,9.735.882,26.042,2.607,36.694-.056,4.674-.087,9.333-.047,13.979a9.156,9.156,0,0,0,6.189-2.559l.346-52.9c.332-8.429,1.63-21.048,2.672-34.027C4850.007,1305.981,4852.15,1288,4849.984,1274.556Z" fill="#001e30" fill-rule="evenodd"/>
        <path id="Path_16374" data-name="Path 16374" d="M4819.738,1285.736l-.039.011a260.594,260.594,0,0,1-7.131,25.122c-1.942,16.827-1.448,35.188-1.682,48.162-1.752,23.735-3.735,47.518-4.92,71.284,2.161-.188,6.951-1.152,8.1-2.193,1.3-19.353,1.066-46.644,3.478-64.831.492-3.714,4.076-35.255,8.4-53.128,1.448-5.988,5.589-5.877,6.428-9.319,1.818-7.47,1.857-11.664,1.108-19.776C4828.935,1282.773,4824.408,1284.4,4819.738,1285.736Z" fill="#00263d" fill-rule="evenodd"/>
      </g>
      <g id="Group_7864" data-name="Group 7864">
        <path id="Path_16375" data-name="Path 16375" d="M4873.258,1248.587l.788-2.52.754-5.214c2.532-1.525,4.442-2.035,5.518-1.6.087.036.193.051.272.094C4884.031,1241.251,4876.564,1251.832,4873.258,1248.587Z" fill="#8f9ba6" fill-rule="evenodd"/>
        <path id="Path_16376" data-name="Path 16376" d="M4894.2,1242.162c1.661,2.964-3.181,3.785-4.587,3.7-1.938.475-2.833.124-3.8,1.522-1.084,1.571-4.811-6.672-4.687-6.764.84-.252,4.941.932,5.82,1.276,1.637.64,1.707.912,3.645.8C4891.6,1242.633,4892.584,1242.388,4894.2,1242.162Z" fill="#f1b287" fill-rule="evenodd"/>
        <path id="Path_16377" data-name="Path 16377" d="M4894.493,1242.883c.559,2.378-3.593,3.056-4.878,2.975-1.938.475-2.833.124-3.8,1.522-.665.964-4.089-3.149.615-3.421C4888.5,1243.983,4891.524,1244.995,4894.493,1242.883Z" fill="#e8a476" fill-rule="evenodd"/>
        <path id="Path_16378" data-name="Path 16378" d="M4867.056,1244.6c2.273.934,3.848,1.45,5.079,2.046,3.25,1.573,1.812,5.32,7.884,8.166l6.952,3.258c.908.426,7.9-1.134,9.851-2.276,1.387-.81,7.187-5.043,6.521-5.405-.5-.271-3.552-.021-6.379-.212l-6.3-1.593c-5.971-2.093-4.877-5.53-6.992-6.905-2.755-1.791-5.607-1.389-10.027-5.479l-5.286,1.883.144,5.938Z" fill="#f1b287" fill-rule="evenodd"/>
        <path id="Path_16379" data-name="Path 16379" d="M4867.056,1244.6c2.273.934,3.848,1.45,5.079,2.046,3.25,1.573,1.812,5.32,7.884,8.166l6.952,3.258c.908.426,7.9-1.134,9.851-2.276.24-.14.612-.382,1.06-.689-2.031-1.537-7.458,1.181-9.608.756a9.055,9.055,0,0,1-5.037-2.455c-2.415-2.3-2.8-3.968-4.311-5.782-1.071-1.283-2.852-2.493-5.678-4.689l1.305-6.212q-.44-.248-.907-.523l-5.286,1.883.144,5.938Z" fill="#e8a476" fill-rule="evenodd"/>
        <path id="Path_16380" data-name="Path 16380" d="M4843.207,1233c11.389,7.276,18.354,9.355,30.262,15.76.359-5.764,5.136-9.682,7.515-9.195-9.58-6.584-20.845-15.413-31.7-19.914Z" fill="#d2eefc" fill-rule="evenodd"/>
        <path id="Path_16381" data-name="Path 16381" d="M4843.207,1233c11.389,7.276,18.354,9.355,30.262,15.76a11.237,11.237,0,0,1,2.243-6.04c-5.581-2.734-12.881-7.56-20.5-12.527-1.277-1.038.406-5.318.559-7.422Z" fill="#c3e6f7" fill-rule="evenodd"/>
      </g>
      <g id="Group_7866" data-name="Group 7866">
        <path id="Path_16382" data-name="Path 16382" d="M4814.812,1192.009c-.471,5.532,14.675,12.775,20.445,9.944.608-.3.927-1.577,1.3-2.092-.351-1.417.128-2.022.255-3.464a17.684,17.684,0,0,1,.844-4.621c.688-1.871.32-5.752,1.512-10.134l-17.271-7.528-3.7-1.961C4819.973,1180.775,4818.018,1184.784,4814.812,1192.009Z" fill="#e8a476" fill-rule="evenodd"/>
        <path id="Path_16383" data-name="Path 16383" d="M4814.812,1192.009a2.506,2.506,0,0,0,.076.931c8.186-5.154,13.284-.837,22.885-3.4a63.212,63.212,0,0,1,1.4-7.9l-17.271-7.528-3.7-1.961C4819.973,1180.775,4818.019,1184.784,4814.812,1192.009Z" fill="#db9669" fill-rule="evenodd"/>
        <g id="Group_7865" data-name="Group 7865">
          <path id="Path_16384" data-name="Path 16384" d="M4852.2,1269.391a2.426,2.426,0,0,1-.435,1.051c-4.885,6.808-35.532,17.068-41.945,16.536,5.089-44.255-41.258-81.929,8.4-96.517l14.287,7.864,5.112-.917.655-6.292c6.914,6.875,10.111,15.984,11.342,28.651C4851.224,1236.34,4847.745,1251.207,4852.2,1269.391Z" fill="#12a8b3" fill-rule="evenodd"/>
          <path id="Path_16385" data-name="Path 16385" d="M4829.634,1282.089c-8.5,3.021-16.813,5.138-19.816,4.889,5.089-44.255-41.258-81.929,8.4-96.517l14.287,7.864,5.112-.917.655-6.292a33.4,33.4,0,0,1,7.117,10.486l-.41.449c-3.728-1.18-5.687-2.692-7.609-1.842-1.585.7-3.4,3.194-3.957,7.151-2.253-.563-6.549-2.18-8.782-2.818,8.276,12.343,16,38.868,10.2,66.568C4834.115,1274.552,4831.186,1278.534,4829.634,1282.089Z" fill="#06929c" fill-rule="evenodd"/>
          <path id="Path_16386" data-name="Path 16386" d="M4832.963,1199.77c.826,3.448.96,3.437,4.1,5.813-.387,1.753-.638,3.267-.89,5.063,5.12,14.849,7.851,27.413,10.856,44.96.364-17.952-.528-31.579-4.42-50.269a11,11,0,0,0-3.242-1.171c.86-3.807.38-6.262-.4-6.723C4836.151,1197.339,4834.979,1197.672,4832.963,1199.77Z" fill="#041e2e" fill-rule="evenodd"/>
          <path id="Path_16387" data-name="Path 16387" d="M4832.963,1199.77c.826,3.448.96,3.437,4.1,5.813-.387,1.753-.638,3.267-.89,5.063,5.12,14.849,7.851,27.413,10.856,44.96-1.594-21.4-4.4-30.052-8.923-44.669a38.649,38.649,0,0,0,.4-6.223c-2.011-1.783-2.876-1.96-3.39-3.185-.457-1.085,1.79-3.83,1.423-4.047C4835.133,1197.888,4834.979,1197.672,4832.963,1199.77Z" fill="#020d14" fill-rule="evenodd"/>
          <path id="Path_16388" data-name="Path 16388" d="M4836.021,1197.647c.351-.9.532-2.744.91-4.352a18.98,18.98,0,0,1,1.2-3.386c1.966.25,2.825,6.184,4.494,9.688C4840.041,1197.8,4838.919,1197.64,4836.021,1197.647Z" fill="#1abac6" fill-rule="evenodd"/>
          <path id="Path_16389" data-name="Path 16389" d="M4817.7,1185.293c-.394,6.348,11.655,10.759,18.38,12.359-1.687,2.037-3.867,4.6-3.781,6.632-4.849-1.327-13.073-3.608-16.405-9.808C4813.62,1190.237,4815.5,1186.982,4817.7,1185.293Z" fill="#1abac6" fill-rule="evenodd"/>
        </g>
      </g>
      <g id="Group_7871" data-name="Group 7871">
        <path id="Path_16390" data-name="Path 16390" d="M4840.485,1180.722c5-.244,7.333.921,10.054,4.976,4.9,7.3,5.662,22.842,5.317,36.848-.2,7.935-1.453,14.911-1.55,24.77-.08,7.948,1.52,19.959,2.4,30.773.428,5.266.687,56.43.5,60.524-1.072,2.313-8.655,6.2-9.655,6,.461-5.9.872-59.017,1.137-66.5.839-23.7.233-52.936-4.81-72.379-1.261-4.864-1.968-10.421-4.7-14.694-.461-.7-.908-1.375-1.327-2.027a56.365,56.365,0,0,1,1.321-7.37l-1.283-.559A22.475,22.475,0,0,1,4840.485,1180.722Z" fill="#d2eefc" fill-rule="evenodd"/>
        <path id="Path_16391" data-name="Path 16391" d="M4801.618,1196.909c2.729-1.513,8.293-4.921,14.29-8.271-5.05,6.051,7.149,20.6,12.81,38.745,1.924,6.167,3.174,15.159,3.475,24.112.291,8.641-2.456,96.029-4.414,103.022-5.715,3.946-11.365,4.227-17.371,1.754a57.62,57.62,0,0,1-14.567-9.213c2.291-16.279-1.682-49.3,4.078-62.24,2.792-6.274,5.716-8.9,6-16.791.414-11.307-15.449-41.447-15.3-57.05C4790.689,1204.051,4796.518,1199.738,4801.618,1196.909Z" fill="#d2eefc" fill-rule="evenodd"/>
        <path id="Path_16392" data-name="Path 16392" d="M4801.618,1196.909l13.894-7.705c-2.073,3.325-7.6,6.892-13.565,11.925a27.231,27.231,0,0,1,7.7,13.6c3.138,12.408,7.937,28.738,8.761,40.084,1.311,18.057-3.009,26.19-6.731,34.241-2.524,5.46-4.773,57.063-4.806,65.518a58.54,58.54,0,0,1-10.966-7.514c.519-4.9.276-31.379,1.271-47.964a45.007,45.007,0,0,1,4.5-17.968c1.958-3.743,3.8-6.637,4.241-13.1.774-11.288-15.449-41.447-15.3-57.05C4790.689,1204.051,4796.518,1199.738,4801.618,1196.909Z" fill="#c3e6f7" fill-rule="evenodd"/>
        <path id="Path_16393" data-name="Path 16393" d="M4818.411,1254.814c.209,2.876.275,5.5.223,7.909-7.647-6.966-14.83-15.878-21.534-25.526-3.434-9.659-6.542-19.35-6.478-26.22Z" fill="#b2d9ed" fill-rule="evenodd"/>
        <path id="Path_16394" data-name="Path 16394" d="M4838.717,1185.932a18.068,18.068,0,0,1,9.483,7.592l-2.681,2.078,3.485,1.742a241.258,241.258,0,0,1-.3,49.8c-.709-13.859-.935-31.2-6.456-44.924-.869-2.159-3.79-12.15-4.463-13.1C4838.314,1186.922,4838.053,1188.217,4838.717,1185.932Z" fill="#ebf9ff" fill-rule="evenodd"/>
        <path id="Path_16395" data-name="Path 16395" d="M4812.91,1194.89l-8.479,6.2c7.023,11.561,16.434,33.27,16.693,55.207.125,10.577-7.9,54.08-11.2,96.771,6.266,3.787,13.519,2.142,16.834-.887,3.342-21.506,3.843-105.613-.674-122.692C4822.215,1214.844,4815.556,1204.241,4812.91,1194.89Z" fill="#e0f5ff" fill-rule="evenodd"/>
        <g id="Group_7867" data-name="Group 7867">
          <path id="Path_16396" data-name="Path 16396" d="M4811.809,1268.216c6.827-.233,8.705-.243,14.614.818l-2.721,16.328c-3.824,1.62-9.255,1.178-14.048-.806Z" fill="#d2eefc" fill-rule="evenodd"/>
          <path id="Path_16397" data-name="Path 16397" d="M4811.809,1268.216c6.827-.233,8.705-.243,14.614.818-.849,4.869-.445,4.822-5.661,5.133-9.318.557-6.447,1.589-9.66,10.935-.142.412-.971-.349-1.448-.546Z" fill="#c3e6f7" fill-rule="evenodd"/>
          <path id="Path_16398" data-name="Path 16398" d="M4812.308,1266.136c6.872-.21,9.936-.742,15.033-.761l-1.314,6.5c-1.741.906-10.879,1.988-14.916.077Z" fill="#d2eefc" fill-rule="evenodd"/>
          <path id="Path_16399" data-name="Path 16399" d="M4812.308,1266.136c6.872-.21,9.936-.742,15.033-.761-4.966,1.842-13.343,1.338-14.806,7.083a8.374,8.374,0,0,1-1.424-.507Z" fill="#c3e6f7" fill-rule="evenodd"/>
          <path id="Path_16400" data-name="Path 16400" d="M4825.172,1274.723l-8.6,1.39-3.475,8.552a29.637,29.637,0,0,0,9.544.534Z" fill="#e0f5ff" fill-rule="evenodd"/>
          <path id="Path_16401" data-name="Path 16401" d="M4826.6,1266.234c-4.014,1.226-9.651,2.93-12.017,5.921a30.326,30.326,0,0,0,10.534-.692A23.978,23.978,0,0,0,4826.6,1266.234Z" fill="#e0f5ff" fill-rule="evenodd"/>
        </g>
        <g id="Group_7870" data-name="Group 7870">
          <g id="Group_7868" data-name="Group 7868">
            <path id="Path_16402" data-name="Path 16402" d="M4851.315,1260.024c2.022-2.205,2.583-2.758,4.451-3.387l1.4,18.232c-.939,1.483-4.029,2.711-4.969,2.333Z" fill="#d2eefc" fill-rule="evenodd"/>
            <path id="Path_16403" data-name="Path 16403" d="M4851.315,1260.024c2.022-2.205,2.583-2.758,4.451-3.387.2,5.178.318,5.014-1.214,6.834-2.737,3.252-1.69,3.471-1.777,13.867a1.921,1.921,0,0,1-.575-.136Z" fill="#c3e6f7" fill-rule="evenodd"/>
            <path id="Path_16404" data-name="Path 16404" d="M4855.924,1262.763l-2.444,3.889.22,10.025a5.232,5.232,0,0,0,2.99-2.2Z" fill="#e0f5ff" fill-rule="evenodd"/>
          </g>
          <g id="Group_7869" data-name="Group 7869">
            <path id="Path_16405" data-name="Path 16405" d="M4850.575,1255.694c2.262-1,3.188-1.9,4.892-2.495l.79,7c-.411,1.151-3.269,3.32-4.983,1.762Z" fill="#d2eefc" fill-rule="evenodd"/>
            <path id="Path_16406" data-name="Path 16406" d="M4850.575,1255.694c2.262-1,3.188-1.9,4.892-2.495-1.315,2.5-4.217,2.913-3.621,9.132a2.058,2.058,0,0,1-.572-.372Z" fill="#c3e6f7" fill-rule="evenodd"/>
            <path id="Path_16407" data-name="Path 16407" d="M4855.382,1254.188a15.522,15.522,0,0,0-2.906,7.594c1.576-.109,2.072-.511,3.4-1.916C4855.818,1257.987,4855.6,1256.238,4855.382,1254.188Z" fill="#e0f5ff" fill-rule="evenodd"/>
          </g>
        </g>
        <path id="Path_16408" data-name="Path 16408" d="M4811.189,1191.183c-1.99,4.84-.561,13.55,1.833,21.932l4.874-1.808-2.35,5.308c9.795,12.8,15.276,31.864,16.035,51.442,5.3-42.4-10.019-59.722-14.239-74.569-.567-1.995-1.891-5.145-1-6.917A12,12,0,0,0,4811.189,1191.183Z" fill="#ebf9ff" fill-rule="evenodd"/>
      </g>
      <g id="Group_7872" data-name="Group 7872">
        <path id="Path_16409" data-name="Path 16409" d="M4834.67,1188.127c-2.273-.912-7.474-1.858-9.536-2.807-4.514-2.078-4.855-6.7-7.168-12.219-4.206-1.873-5.865-3.7-6.675-5.989-1.92-5.426.032-12.094,3.625-16.255a15.128,15.128,0,0,1,12.3-5.248c9.787.136,15.094,6.435,17.245,14.436a5.527,5.527,0,0,1,.149,2.066c-.174,1.734-.727,2.6-.864,3.782-.324,2.781.88,2.277,1.154,5.01.444,4.433-.291,8.616-1.006,13.5-.211,1.435-.5,2.106-1.335,2.649a19.7,19.7,0,0,1-2.969,1.268C4838.581,1188.745,4837.567,1188.913,4834.67,1188.127Z" fill="#f1b287" fill-rule="evenodd"/>
        <path id="Path_16410" data-name="Path 16410" d="M4834.67,1188.127c-2.273-.912-7.474-1.858-9.536-2.807-4.514-2.078-4.855-6.7-7.168-12.219-4.206-1.873-5.865-3.7-6.675-5.989-1.92-5.426.032-12.094,3.625-16.255a15.128,15.128,0,0,1,12.3-5.248c8.5.119,13.623,4.888,16.231,11.383-.348.9-8.294,5.07-15.5,5.117-.54,3.254,1.153,5.926,1.231,7.561.075,1.568.067,2.906.21,3.784.211,1.3,1.549,2.308,1.752,4.174.656,6.074,4,9.958,6.727,11.049A12.587,12.587,0,0,1,4834.67,1188.127Z" fill="#e8a476" fill-rule="evenodd"/>
        <path id="Path_16411" data-name="Path 16411" d="M4840.131,1155.231c1.079.038,2.376-.583,3.26,1.63-.641-3.626-1.741-3.962-3.978-4.3Z" fill="#361d07" fill-rule="evenodd"/>
        <path id="Path_16412" data-name="Path 16412" d="M4826.607,1160.082c-6.854-.693-14.456-5.517-16.237-8.608-3.7,7.258-2.8,17.034,2.935,22.954,1.652,3.135,3.269,6.218,4.817,9.407a66.563,66.563,0,0,0,2.225-13.45l.294-.424c.4.82,1.381,2.852,1.747,3.7.431,0,1.131-.626,1.742-.991C4822.924,1166.343,4823.248,1162.434,4826.607,1160.082Z" fill="#361d07" fill-rule="evenodd"/>
        <path id="Path_16413" data-name="Path 16413" d="M4827.063,1159.769c7.2-.629,16.674-3.922,20.28-9.387-6.53.985-13.936-8.756-24.254-7.79-5.982.56-12.442,3.624-12.719,8.833C4812.322,1154,4821.058,1160.3,4827.063,1159.769Z" fill="#361d07" fill-rule="evenodd"/>
        <path id="Path_16414" data-name="Path 16414" d="M4826.77,1160.079c7.2-.63,16.967-4.232,20.573-9.7l-.063.008c-6.428,3.328-11.745,3.294-17.217,2.275a6.644,6.644,0,0,0,2.511-1.24c-5.424.294-9.159.554-13.857-2.347a9.265,9.265,0,0,0,3.752.2c-2.785-.659-5.424-2.9-9.7-2.618a6.77,6.77,0,0,0-2.5,4.956C4812.029,1154.619,4820.765,1160.6,4826.77,1160.079Z" fill="#241304" fill-rule="evenodd"/>
        <path id="Path_16415" data-name="Path 16415" d="M4818.182,1168c-3.86-.88-3.435,3.428-2.584,5.978.585,1.752,2.052,1.464,2.737,2.824a3.4,3.4,0,0,0,3.323,2.122c2.262-.3.506-3.525.1-4.835C4821.789,1171.867,4820.633,1168.557,4818.182,1168Z" fill="#e8a476" fill-rule="evenodd"/>
        <path id="Path_16416" data-name="Path 16416" d="M4810.222,1152.125c-.556,1.268-1.883,4.734-1.5,7.239a8.841,8.841,0,0,1,2.38-4.239c-1.458,2.34-1.687,5.222-.684,8.673.047-2.986.357-4.683,2.51-6.358-1.57,2.961-.991,8.4-.1,10.759.274-3.378.546-7.988,3.424-8.966-1.677,2.742-1.43,4.252-.424,6.978.294-3.028,1.2-4.727,3.261-5.869.057,2.753.909,7.857,3.618,10.237-.223-1.078-1.6-8.36-.163-9.389a5.229,5.229,0,0,0,.2,3.455,6.212,6.212,0,0,1,2.967-4.238C4819.908,1160.23,4811.5,1154.931,4810.222,1152.125Z" fill="#4a2b12" fill-rule="evenodd"/>
        <path id="Path_16417" data-name="Path 16417" d="M4813.765,1145.807c2.923-2.293,8.075-3.451,11.772-3.278,3.137.147,6.182,1.438,9,2.072a7.612,7.612,0,0,1-2.25.065c4.985,1.4,9.14,5.842,14.966,5.706a11.148,11.148,0,0,1-6.782-.261,15.049,15.049,0,0,0,2.543,1.239c-5.542.426-9.2-2.577-14.216-4.336a6.2,6.2,0,0,0,3.032,1.858C4826.441,1147.892,4821.46,1143.58,4813.765,1145.807Z" fill="#4a2b12" fill-rule="evenodd"/>
      </g>
      <g id="Group_7877" data-name="Group 7877">
        <g id="Group_7873" data-name="Group 7873">
          <path id="Path_16418" data-name="Path 16418" d="M4792.048,1205.595c-5.26,8.864-8.794,28.045-10.392,40.86-.813,6.518-.984,11.663,3.886,14.1,4.617,2.309,9.8-1.876,11.74-6.792,2.3-5.824,4.45-13.121,8.525-25.53,3.246-9.886.01-19.861-4.824-23.734C4798.182,1202.253,4794.628,1201.247,4792.048,1205.595Z" fill="#d2eefc" fill-rule="evenodd"/>
          <path id="Path_16419" data-name="Path 16419" d="M4792.048,1205.595c-5.26,8.864-8.794,28.045-10.392,40.86-.813,6.518-.984,11.663,3.887,14.1,3.24,1.621,6.759.042,9.24-2.743a57.058,57.058,0,0,1-5.606-2.15c-1.607-.722-2.619-.791-1.811-4.59,3.594-16.906,6.8-31.383,12.531-47.351C4797.307,1202.085,4794.305,1201.791,4792.048,1205.595Z" fill="#c3e6f7" fill-rule="evenodd"/>
        </g>
        <g id="Group_7874" data-name="Group 7874">
          <path id="Path_16420" data-name="Path 16420" d="M4806.878,1219.868l2.8-1.573v57.024l-2.8,1.573Z" fill="#1a0101" fill-rule="evenodd"/>
          <path id="Path_16421" data-name="Path 16421" d="M4809.672,1218.3,4841,1236.1v57.024l-31.323-17.808Z" fill="#240101" fill-rule="evenodd"/>
          <path id="Path_16422" data-name="Path 16422" d="M4809.7,1219.222l30.1,17.052-.167,55.748-2.693,1.524-27.24-19.831-2.638-52.985Z" fill="#e6e6e6" fill-rule="evenodd"/>
          <path id="Path_16423" data-name="Path 16423" d="M4806.878,1219.868l31.324,17.808V1294.7l-31.324-17.809Z" fill="#380303" fill-rule="evenodd"/>
        </g>
        <g id="Group_7876" data-name="Group 7876">
          <path id="Path_16424" data-name="Path 16424" d="M4822.821,1268.961l-1.5-3.257.845-5.849c2.841-1.711,4.982-2.282,6.189-1.793a2.894,2.894,0,0,1,.305.1C4832.518,1260.3,4828.151,1271.24,4822.821,1268.961Z" fill="#8f9ba6" fill-rule="evenodd"/>
          <g id="Group_7875" data-name="Group 7875">
            <path id="Path_16425" data-name="Path 16425" d="M4834.324,1274.677a27.171,27.171,0,0,0,7.8-2.288c1.5-.7,1.963-11.278,1.786-11.307-1.884.328-6.029,1.362-8.043,1.614-2.444-.771-10.167-3.451-12.61-4.223l-2.314,4.857-.1,5.052c.73-.166,2.6.769,2.793.855C4827.142,1270.76,4830.131,1273.482,4834.324,1274.677Z" fill="#e8a476" fill-rule="evenodd"/>
            <path id="Path_16426" data-name="Path 16426" d="M4835.746,1263.793a27.21,27.21,0,0,0,7.8-2.289c1.5-.7-1.808-1.1-2.722-.945-1.884.327-3.431.748-5.444,1-2.444-.771-7.832-2.477-10.215-3.431l-2.01.162A126.335,126.335,0,0,0,4835.746,1263.793Z" fill="#f1b287" fill-rule="evenodd"/>
            <path id="Path_16427" data-name="Path 16427" d="M4838.209,1260.486c.409,2.906-4.029,1.523-5.133,1.012-.966-.078-7.833-2.015-6.49-2.435,1.169-.432,2.961-1.422,5.362-.779,1.466.392,1.515.942,3.111,1.459A16.488,16.488,0,0,0,4838.209,1260.486Z" fill="#f1b287" fill-rule="evenodd"/>
          </g>
          <path id="Path_16428" data-name="Path 16428" d="M4782.04,1256.423a7.267,7.267,0,0,0,2.695,3.6c1.366,1.034,3.376,1.487,5.44,2.441,7.986,3.691,20.668,4.982,33.089,6.7-.522-6.666,1.654-10.494,5.4-10.994-10.311-4.187-22.817-6.246-33.137-9.29a20.9,20.9,0,0,0-3.9-.757C4787.428,1249.64,4780.014,1250.577,4782.04,1256.423Z" fill="#d2eefc" fill-rule="evenodd"/>
          <path id="Path_16429" data-name="Path 16429" d="M4782.04,1256.423a7.267,7.267,0,0,0,2.695,3.6c1.366,1.034,3.376,1.487,5.44,2.441,7.986,3.691,20.668,4.982,33.089,6.7a21.057,21.057,0,0,1,.034-3.97c-10.824-3.787-23.415-4.718-34.121-9.529-1.607-.722-2.619-.791-1.811-4.59l.367-1.725C4784.086,1250.516,4780.567,1252.171,4782.04,1256.423Z" fill="#c3e6f7" fill-rule="evenodd"/>
          <path id="Path_16430" data-name="Path 16430" d="M4798.643,1213.79c-2.518,12.636-8.658,25.136-9.066,39.33,11.468,3.951,21.473,6.517,33.259,9.381a7.408,7.408,0,0,1,4.109-4.138l-31.145-8.021,2.913-13.523Z" fill="#e0f5ff" fill-rule="evenodd"/>
        </g>
      </g>
    </g>
    <g id="Group_7880" data-name="Group 7880">
      <path id="Path_16431" data-name="Path 16431" d="M4849.917,1105.061l1.028-.594A2.481,2.481,0,0,0,4849.917,1105.061Z" fill="#fff"/>
      <path id="Path_16432" data-name="Path 16432" d="M4848.788,1140.754a11.327,11.327,0,0,0,5.138,8.9l2.579,1.489-.029,10.1,12.255-3.039,29,16.744-48.865-62.689Z" fill="#fff"/>
      <g id="Group_7879" data-name="Group 7879">
        <path id="Path_16433" data-name="Path 16433" d="M4907.857,1132.078l-50.252-29.014c-1.6-.921-3.024-.911-3.973-.149l-2.687,1.552a4.025,4.025,0,0,1,3.108.59l50.252,29.013a11.326,11.326,0,0,1,5.14,8.9l-.093,32.75c0,1.818-.724,3.03-1.85,3.469.013.025.03.047.042.071l3.728-2.159a2.386,2.386,0,0,0,.258-.15h0a3.7,3.7,0,0,0,1.374-3.224l.093-32.75A11.325,11.325,0,0,0,4907.857,1132.078Z" fill="#d3d3d3" opacity="0.6" style="mix-blend-mode: multiply;isolation: isolate"/>
        <path id="Path_16434" data-name="Path 16434" d="M4909.352,1175.721l.093-32.75a11.326,11.326,0,0,0-5.14-8.9l-50.252-29.013a4.025,4.025,0,0,0-3.108-.59l-1.028.594a3.979,3.979,0,0,0-1.036,2.943l-.012,4.254,48.865,62.689,6.445,3.722C4907.026,1180.313,4909.343,1178.992,4909.352,1175.721Z" fill="#fff"/>
      </g>
    </g>
  </g>
</svg>
