<svg xmlns="http://www.w3.org/2000/svg" width="106.206" height="318.044" viewBox="0 0 106.206 318.044">
  <g id="Group_11614" data-name="Group 11614" transform="translate(-6447.944 -1180.941)">
    <path id="Path_24445" data-name="Path 24445" d="M6549.116,1474.063l-53.239-30.321c-5.8-2.651-14.11-4.762-20.023-1.685-5.388,2.8-14.263,8.543-18.188,10.781-2.981,1.7-13.328,7.9-6.883,11.4,18.958,10.309,37.721,21.9,56.972,32.376,3.641,1.98,8.968,2.7,14.559,2.231a38.541,38.541,0,0,0,15.768-4.695q4.8-2.792,9.441-5.5c4.176-2.431,6.39-5.306,6.609-7.964C6554.346,1478.1,6552.678,1475.69,6549.116,1474.063Z" fill="#c1d5de" fill-rule="evenodd" opacity="0.7" style="mix-blend-mode: multiply;isolation: isolate"/>
    <path id="Path_24446" data-name="Path 24446" d="M6498.277,1279.724c-6.426,5.568-13.9,11.974-27.906,18.256,2.115-1.244-.6-8.809-3.887-8.346,8.028-6.889,17.091-15.069,25.512-19.485,4.848-1.97,8.856-.344,9.8,2.257C6502.483,1274.276,6502.056,1276.45,6498.277,1279.724Z" fill="#4aa1ad" fill-rule="evenodd"/>
    <path id="Path_24447" data-name="Path 24447" d="M6498.277,1279.724c-6.426,5.568-13.9,11.974-27.906,18.256,1.061-.625.906-2.844.072-4.839,5.692-3.937,10.492-6.847,10.723-7.676.489-1.752-.063-4.979.148-8.245a75.73,75.73,0,0,1,10.682-7.071c4.848-1.97,8.856-.344,9.8,2.257C6502.483,1274.276,6502.056,1276.45,6498.277,1279.724Z" fill="#387f88" fill-rule="evenodd"/>
    <path id="Path_24448" data-name="Path 24448" d="M6503.649,1312.547c2.228,6.962.09,18.52-1.781,30.6-1.029,6.644-2.684,13.493-3.484,19.349-.893,6.528-1.328,10.727-1.076,13.956.6,7.653,3.819,9.269,5.025,19.243,1.463,12.1-4.9,25.977-4.427,39.314a8.35,8.35,0,0,0,1.6,3.275c5.343,6.571-.165,5.7.348,14.38.046.764-2.906,14-2.906,14s-7.931,2.206-8.531,2.121-5.52-1.8-5.52-1.8c.387-.723.871-2.476,1.184-3.138,3.572-7.58,4.05-16.865,4.056-25.417.009-11.7-3.218-39.242-6.23-50.487-3.024-6.892-4.087-7.566-3.657-19.505.7-19.463-.614-33.826,1.791-54.391Z" fill="#f1b287" fill-rule="evenodd"/>
    <path id="Path_24449" data-name="Path 24449" d="M6497.458,1370.24a37.68,37.68,0,0,0-.15,6.21c.6,7.653,3.819,9.269,5.025,19.243,1.463,12.1-4.9,25.977-4.427,39.314a8.35,8.35,0,0,0,1.6,3.275c5.343,6.571-.165,5.7.348,14.38.045.764-2.906,14-2.906,14s-4.836,1.345-7.241,1.894a25.747,25.747,0,0,0,5.559-14.247c.491-5.769-1.457-14.6-1.49-17.972-.1-10.287.3-33.072-.129-37.113-.7-6.648-3.022-11.948-5.564-21.371-.715-2.65.164-4.313,6.47-4.973Z" fill="#e8a476" fill-rule="evenodd"/>
    <path id="Path_24450" data-name="Path 24450" d="M6485.125,1461.435c-.853,1.565-1.773,3.811-2.557,5.5a34.392,34.392,0,0,0-2,5.33,2.5,2.5,0,0,0,.181,2.143c1.916,2.571,11.513-2.118,14.731-4.959,2.078-1.835,2.116-4.005,2.6-6.656.733-3.978.858-4.425,1.81-8.513l1.081,11.1.915.554a123.418,123.418,0,0,1,1.372-14.364c.278-1.539.753-3.294.82-4.147.4-5.025-2.091-7.5-4.376-8.911.839,3.055-1.376,8.024-2.383,14.282-1.054,6.548-4.681,13.708-7.531,14.314-1.2.255-3.856-1.243-5.3-2.067C6483.942,1464.73,6484.565,1462.854,6485.125,1461.435Z" fill="#00263d" fill-rule="evenodd"/>
    <path id="Path_24451" data-name="Path 24451" d="M6483.452,1475.116c3.663-.39,9.623-3.542,12.026-5.663,2.078-1.835,2.116-4.005,2.6-6.656.733-3.978.858-4.425,1.81-8.513l1.081,11.1.944.632.842-.867c.163-4.279-.122-10.131.5-13.575.278-1.539.753-3.294.82-4.147.4-5.025-2.091-7.5-4.376-8.911.839,3.055-1.376,8.024-2.383,14.282-.868,5.389-3.477,11.191-5.963,13.414A44.985,44.985,0,0,1,6483.452,1475.116Z" fill="#001624" fill-rule="evenodd"/>
    <g id="Group_11602" data-name="Group 11602">
      <path id="Path_24452" data-name="Path 24452" d="M6511.753,1390.5c2.1,3.312,4.507,6.671,5.557,9.395,4,10.384,2.357,28.669,3.462,44.394.109,1.562,1.089,2.989,1.537,4.487a54.431,54.431,0,0,1,1.936,8.079,73.813,73.813,0,0,1,.759,15c-.11,2.125-.866,3.161-.988,6.066l-11.7,4.081c.2-2.515.452-6.36.5-10.592.039-3.786-.11-7.88-.223-11.627-.129-4.3.125-8.229-.237-10.593-2.291-14.967-6.288-20.15-10.873-35.357-1.894-6.283-1.946-8.962-4.756-14.683-1.229-2.928-1.93-7.974-1.246-13.2C6496.119,1381.056,6504.71,1385.586,6511.753,1390.5Z" fill="#f1b287" fill-rule="evenodd"/>
      <path id="Path_24453" data-name="Path 24453" d="M6524.165,1353.433c-5.659,18.09-10.1,24.708-10.883,32.489-.255,2.536.346,5.822,1.015,9.1l-17.459,1.017a77.869,77.869,0,0,1-1.44-8.484,32.848,32.848,0,0,1,.686-11.195c1.489-5.947,4.029-14.638,8.126-26.238l20.06,1.547Z" fill="#f1b287" fill-rule="evenodd"/>
      <path id="Path_24454" data-name="Path 24454" d="M6507.331,1377.359a30.468,30.468,0,0,0,1.024,6.477c1.4,4.967,7.194,11.509,8.993,16.182,4,10.385,2.358,28.67,3.463,44.394.109,1.563,1.089,2.99,1.537,4.488a54.523,54.523,0,0,1,1.936,8.079,73.773,73.773,0,0,1,.759,15c-.11,2.125-.866,3.161-.988,6.066l-4.366,1.523c.963-7.716-.069-17.931-1.264-27.527-2.045-16.431-5.677-35.12-10.295-47.725-1.577-4.306-3.064-7.465-6.377-9.622,4.042-.71-.789-4.405-3.475-10.412Z" fill="#e8a476" fill-rule="evenodd"/>
      <path id="Path_24455" data-name="Path 24455" d="M6521.989,1447.881c1.081,2.313,2.085,3.481,2.712,6.772s-.083,8.7.692,12.775l1.23,6.468c.717,3.766.169,6.545-3.637,10.353-3.449,3.453-7.062,5.215-9.286,4.534-1.639-.5-3.277-2.989-2.063-10.426,1.011-6.2.8-12.029.928-18.6.592,6.344.811,8.5.268,14.893-.151,1.785-.181,4.662,1.9,4.631,8.63-.127,8.7-2.463,8.98-5.178C6524.478,1466.856,6523.882,1454.267,6521.989,1447.881Z" fill="#00263d" fill-rule="evenodd"/>
    </g>
    <path id="Path_24456" data-name="Path 24456" d="M6521.989,1447.881c1.081,2.313,2.085,3.481,2.712,6.772s-.083,8.7.692,12.775l1.23,6.468c.717,3.766.169,6.545-3.637,10.353a19.034,19.034,0,0,1-5.519,4.011c-.432.189,3-5.985,2.373-9.481,3.575-.848,3.666-2.656,3.878-4.674C6524.478,1466.856,6523.882,1454.267,6521.989,1447.881Z" fill="#001624" fill-rule="evenodd"/>
    <g id="Group_11603" data-name="Group 11603">
      <path id="Path_24457" data-name="Path 24457" d="M6516.551,1300.775a9.14,9.14,0,0,0,.285,1.3,29.962,29.962,0,0,0,4.278,7.885,37.453,37.453,0,0,1,6.042,12.794c1.814,6.961.3,17.734-2.282,29.812-1.422,6.644-3.482,13.493-4.629,19.35-1.055,5.386-4.868,13.024-2.818,18.548-2.7,2.467-3.578,3.821-8.028,3.93-11.959.292-28.134-8.789-30.984-13.47a155.994,155.994,0,0,1-.849-18.483c-.372-13.969.387-27.089.6-41.138.381-3.939.663-8.148.872-12.187.039-.985.114-1.92.218-2.811.11-.986.27-1.961.466-2.933,1.016-5.06,3.233-8.933,4.03-12.919C6487.916,1287.3,6508.54,1295.239,6516.551,1300.775Z" fill="#001e30" fill-rule="evenodd"/>
      <path id="Path_24458" data-name="Path 24458" d="M6527.156,1322.757c1.814,6.961.3,17.734-2.282,29.812-1.422,6.644-3.482,13.493-4.629,19.35a139.932,139.932,0,0,0-2.549,18.736c-1.36,2.246-5.534,3.91-8.362,3.715-3.579-20.789,3.392-43.629,4.023-61.223.323-8.986-4.7-7.63-14.337-12.032-9.055-4.136-12.053-11.368-4.4-8.937,9.467,3,15.555.559,15.053-4.143-.246-2.3-.575-4.538-.615-6.429l-.271-.413a24.383,24.383,0,0,0,7.711-.7,10.041,10.041,0,0,0,.333,1.584,29.962,29.962,0,0,0,4.278,7.885A38.676,38.676,0,0,1,6527.156,1322.757Z" fill="#001624" fill-rule="evenodd"/>
      <path id="Path_24459" data-name="Path 24459" d="M6508.751,1340.117c-1.256,11.677-2.18,22.186-3.471,34.047-.618,5.686-.857,12.34.548,17.971-9.354-.867-21.066-6.3-26.307-12.354-1.646-13.305-.534-48.087-.227-62.011.2-8.942.418-14.52,3.528-22.363,5.848,4.578,11.826,7.277,21.446,9.436-3.439,5.037-5.651,6.559-8.89,5.694-2.684-.717-5.859-1.18-7.5-.266-1.881,1.05-1.86,3.768,1.174,7.5,1.989,2.447,10.812,8.218,17.508,10.647C6511.035,1330.043,6509.241,1335.564,6508.751,1340.117Z" fill="#00263d" fill-rule="evenodd"/>
    </g>
    <path id="Path_24460" data-name="Path 24460" d="M6520.844,1283.414c-3.165,6.281-4.852,13.256-4.293,17.361-3.318,4.286-25.423,1.427-32.8-10.319,1.2-6.019-1.465-11.943-.808-18.9.176-1.864.359-3.748.547-5.628.637-6.365.712-12.009,1.431-17.571.928-7.17,1.787-13.281,2.714-16.162a8.655,8.655,0,0,1,1.393-2.858c1.9-2.711,5.306-4.085,11.238-1.6a133.582,133.582,0,0,1,18.547,9.063c2.686,1.667,11.183,8,13.017,10.568a9.111,9.111,0,0,1,1.653,4.825C6534.123,1261.543,6524.925,1275.319,6520.844,1283.414Z" fill="#387f88" fill-rule="evenodd"/>
    <path id="Path_24461" data-name="Path 24461" d="M6491.852,1269.253c2.827,1.438,5.593,5.652,10.056,8.1a11.042,11.042,0,0,0,13.735-2.685,25.726,25.726,0,0,0,1.543-7.09c.407-9.086,1.666-13.967,6.823-21.277-3.228-1.765-6.519-3.644-8.308-5.576l-20.414-11.13-6.509,1.719c-2.128,6.131-3.16,9.333-7.209,15.247a14.127,14.127,0,0,0-2.34,11.474C6480.73,1264.472,6486.713,1266.64,6491.852,1269.253Z" fill="#4aa1ad" fill-rule="evenodd"/>
    <path id="Path_24462" data-name="Path 24462" d="M6496.778,1233.349c-1.066,2.225-7.522,14.578-8.1,16.3s-1.051,3.489-1.668,5.905l-1.142-.29c.621-2.431,1.1-4.223,1.7-5.992s7.791-15.057,8.886-17.342Z" fill="#403e3e" fill-rule="evenodd"/>
    <path id="Path_24463" data-name="Path 24463" d="M6519.311,1254.78c2.266,1.141,7.673,13.892,9.785,10.935,4.788-6.7,7.259-15.027.324-21.192a73.611,73.611,0,0,0-11.212-8.122l.127,4.861c1.847,1.8,3.551,3.639,5.675,5.452C6521.988,1249.582,6520.494,1251.346,6519.311,1254.78Z" fill="#387f88" fill-rule="evenodd"/>
    <g id="Group_11607" data-name="Group 11607">
      <g id="Group_11605" data-name="Group 11605">
        <path id="Path_24464" data-name="Path 24464" d="M6458.992,1290.834a19.008,19.008,0,0,1-3.385.772c.484,2.355,2.777,1.939,4.667,1.57Z" fill="#db9669" fill-rule="evenodd"/>
        <g id="Group_11604" data-name="Group 11604">
          <path id="Path_24465" data-name="Path 24465" d="M6450.129,1276.164l24.259,9.8,21.178,31.639-1.268.85-45.714-41.731Z" fill="#e6e6e6" fill-rule="evenodd"/>
          <path id="Path_24466" data-name="Path 24466" d="M6449.9,1275.835l24.485,10.132-3.318,2.534-22.711-12.1Z" fill="#f5f5f5" fill-rule="evenodd"/>
          <path id="Path_24467" data-name="Path 24467" d="M6447.944,1276.106l25.122,10.432,22.028,32.745-25.786-11.5Z" fill="#380303" fill-rule="evenodd"/>
        </g>
        <path id="Path_24468" data-name="Path 24468" d="M6460.694,1293.082c-1.961-.087-2.177-1.01-1.83.2.509,1.765,3.087,6.548,5.021,7.294.012.005,2.487.138,2.959-.442.4-.492.258-.69-.478-1.751l-2.352-3.851C6463.424,1293.543,6463.192,1293.195,6460.694,1293.082Z" fill="#db9669" fill-rule="evenodd"/>
      </g>
      <g id="Group_11606" data-name="Group 11606">
        <path id="Path_24469" data-name="Path 24469" d="M6534.457,1251.542c3.475,10.021,1.094,25.382.9,39.852-.1,7.676-10.378,7.342-11.669.059-1.662-8.75-2-19.382-2.34-28.013-.307-7.879-.1-16.216,5.4-17.4C6530.754,1245.176,6533.152,1247.779,6534.457,1251.542Z" fill="#4aa1ad" fill-rule="evenodd"/>
        <path id="Path_24470" data-name="Path 24470" d="M6534.457,1251.542c3.475,10.021,1.094,25.382.9,39.852-.08,5.912-6.194,7.071-9.589,3.964l.042-.035c5.017-4.305,3.187-2.368,3.189-7.8.006-14.663.338-26.793-1.893-41.553C6530.9,1245.333,6533.191,1247.892,6534.457,1251.542Z" fill="#387f88" fill-rule="evenodd"/>
        <path id="Path_24471" data-name="Path 24471" d="M6499.724,1308.033c2.863-1.246,6.553,7.422,3.779,8.332C6500.685,1317.291,6496.971,1309.23,6499.724,1308.033Z" fill="#a9d3e8" fill-rule="evenodd"/>
        <path id="Path_24472" data-name="Path 24472" d="M6503.636,1306.6a9.089,9.089,0,0,1-3.9,1.647c-.957.15-2.36.357-3.326.6-1.587.393-3.624,1.683-6.4,2.755,1.3,2.706,4.477.522,5.91.411a26.066,26.066,0,0,0,3.864-.253C6501.633,1311.3,6504,1308.672,6503.636,1306.6Z" fill="#f1b287" fill-rule="evenodd"/>
        <path id="Path_24473" data-name="Path 24473" d="M6505.088,1305.089a17.1,17.1,0,0,1-4.133,3.393,14.277,14.277,0,0,1-2.613,1.209c-2.829.96-4.137,3.957-5.888,3.782s-6.457-3.021-6.277-2.129a16.071,16.071,0,0,0,1.871,3.572,14.09,14.09,0,0,0,3.938,3.353,19.48,19.48,0,0,0,4.562,2.1,2.529,2.529,0,0,0,2.223-.273,22.756,22.756,0,0,0,3.9-3.47c2.5-2.994,3.044-3.6,5.576-5.107Z" fill="#f1b287" fill-rule="evenodd"/>
        <path id="Path_24474" data-name="Path 24474" d="M6505.088,1305.089l-.069.083.4,1.255c-.779.312-4.379,3.9-4.951,4.445-2.868,2.731-4.179,5.41-6.59,4.484a60.341,60.341,0,0,1-7.317-3.033,17.988,17.988,0,0,0,1.484,2.593,14.09,14.09,0,0,0,3.938,3.353,19.48,19.48,0,0,0,4.562,2.1,2.529,2.529,0,0,0,2.223-.273,22.756,22.756,0,0,0,3.9-3.47c2.5-2.994,3.044-3.6,5.576-5.107Z" fill="#e8a476" fill-rule="evenodd"/>
        <path id="Path_24475" data-name="Path 24475" d="M6531.5,1298.128c-6.426,5.567-13.9,11.975-27.906,18.256,2.115-1.244-.6-8.809-3.887-8.346,6.586-4.822,17.092-15.069,25.512-19.485,4.848-1.97,8.856-.344,9.805,2.257C6535.705,1292.68,6535.278,1294.854,6531.5,1298.128Z" fill="#4aa1ad" fill-rule="evenodd"/>
        <path id="Path_24476" data-name="Path 24476" d="M6531.5,1298.128c-6.426,5.567-13.9,11.975-27.905,18.256,1.073-.631.9-2.893.042-4.905a210.055,210.055,0,0,0,22.172-16.156c4.965-4.261,3.224-2.408,3.19-7.634,3.049-.132,5.338,1.239,6.025,3.121S6535.278,1294.854,6531.5,1298.128Z" fill="#387f88" fill-rule="evenodd"/>
      </g>
    </g>
    <g id="Group_11608" data-name="Group 11608">
      <path id="Path_24477" data-name="Path 24477" d="M6515.484,1235.413c.39,4.8-9.189,7.085-15.036,6.321a4.306,4.306,0,0,1-1.631-.529,2.2,2.2,0,0,1-.664-.569,13.719,13.719,0,0,1-.85-3.8,30.8,30.8,0,0,0-3.578-11.808l15.369-6.065,3.894-1.7C6511,1225.4,6512.691,1228.433,6515.484,1235.413Z" fill="#e8a476" fill-rule="evenodd"/>
      <path id="Path_24478" data-name="Path 24478" d="M6515.329,1235.047a1.1,1.1,0,0,1,.021.281c-5.556-4.955-13.13-1.565-18.572-1.979-.171-.39-1.45-6.45-1.6-6.607-.481-1.36-.682-1.137-1.324-2.886l15.369-6.065,3.894-1.7C6511.131,1224.223,6512.537,1228.067,6515.329,1235.047Z" fill="#db9669" fill-rule="evenodd"/>
    </g>
    <g id="Group_11610" data-name="Group 11610">
      <path id="Path_24479" data-name="Path 24479" d="M6514.859,1233.145c7.726,5.337,3.188,12.6-4.593,25.058l-.533.856-1-.62.534-.856c7.406-11.857,11.726-18.772,4.923-23.472Z" fill="#403e3e" fill-rule="evenodd"/>
      <path id="Path_24480" data-name="Path 24480" d="M6498.142,1269.055q.885-1.692,1.717-3.07a25.975,25.975,0,0,1,5.434-6.793c1.737-1.393,3.225-1.708,4.307-1.143h0c.035.018.075.041.12.067,1.156.7,1.745,2.373,1.273,5.392a43.367,43.367,0,0,1-3.347,10.1l-1.076-.471a42.2,42.2,0,0,0,3.259-9.8c.385-2.464.035-3.754-.716-4.2l-.056-.032v0c-.658-.345-1.7-.049-3.028,1.02a24.848,24.848,0,0,0-5.161,6.481q-.837,1.389-1.686,3.007Z" fill="#403e3e" fill-rule="evenodd"/>
      <g id="Group_11609" data-name="Group 11609">
        <path id="Path_24481" data-name="Path 24481" d="M6499.13,1268.183h0a1.226,1.226,0,0,1,.6,1.621l-.634,1.322a1.227,1.227,0,0,1-1.622.6h0a1.227,1.227,0,0,1-.6-1.621l.634-1.323A1.226,1.226,0,0,1,6499.13,1268.183Z" fill="#141414" fill-rule="evenodd"/>
        <path id="Path_24482" data-name="Path 24482" d="M6507.674,1272.138h0a1.225,1.225,0,0,1,.6,1.621l-.634,1.322a1.225,1.225,0,0,1-1.621.6h0a1.226,1.226,0,0,1-.6-1.621l.634-1.322A1.224,1.224,0,0,1,6507.674,1272.138Z" fill="#141414" fill-rule="evenodd"/>
      </g>
    </g>
    <g id="Group_11612" data-name="Group 11612">
      <path id="Path_24483" data-name="Path 24483" d="M6503.848,1185.627c12.712-9.339,21.325,2.974,14.7,9.594-1.023,1.022-2.137.39-3.774,1.341,0,0-11.334-.683-11.482-1.353S6503.848,1185.627,6503.848,1185.627Z" fill="#241304" fill-rule="evenodd"/>
      <path id="Path_24484" data-name="Path 24484" d="M6518.555,1192.824c5.754-2.021.71-12.028-4.329-5.756C6519.157,1184.978,6521.909,1189.621,6518.555,1192.824Z" fill="#361d07" fill-rule="evenodd"/>
      <path id="Path_24485" data-name="Path 24485" d="M6517.372,1192.747c5.092-1.628.99-8.372-3.192-4.209C6517.97,1187.294,6520.363,1190.283,6517.372,1192.747Z" fill="#361d07" fill-rule="evenodd"/>
      <path id="Path_24486" data-name="Path 24486" d="M6519.411,1194.511c6.53-5.2-1-15.866-6.287-10.78C6518.564,1181.469,6524.329,1188.568,6519.411,1194.511Z" fill="#361d07" fill-rule="evenodd"/>
      <path id="Path_24487" data-name="Path 24487" d="M6513.385,1188.6c5.151-6.862-6.484-11.875-8.088-2.541C6509.1,1180.908,6515.01,1182.595,6513.385,1188.6Z" fill="#361d07" fill-rule="evenodd"/>
      <path id="Path_24488" data-name="Path 24488" d="M6512.2,1189.33c3.77-5.025-4.748-8.694-5.922-1.861C6509.064,1183.7,6513.389,1184.935,6512.2,1189.33Z" fill="#361d07" fill-rule="evenodd"/>
      <path id="Path_24489" data-name="Path 24489" d="M6513.127,1202.225l-9.071,6.356,9.219,3.734c1.614.014-4.162,4.4-1.157,10.9,5.163-2,9.01-10.388,6.793-14.986C6517.348,1204.988,6515.757,1206.2,6513.127,1202.225Z" fill="#140a02" fill-rule="evenodd"/>
      <path id="Path_24490" data-name="Path 24490" d="M6491.106,1216.9l6.635-4.09-2.592-11.694-5.314-8.408C6480.918,1198.231,6485.542,1216.037,6491.106,1216.9Z" fill="#241304" fill-rule="evenodd"/>
      <path id="Path_24491" data-name="Path 24491" d="M6498.154,1230.732c8.369-3.491,10.851-7.66,12.841-16.205,3.67-2.439,5.249-4.48,5.648-6.766.945-5.426-1.96-11.4-6.014-14.756a14.471,14.471,0,0,0-12.442-2.986c-9.21,1.691-12.656,7.558-13.408,15.448-.145,1.523.683,4.772,1.13,6.308.749,2.571-.458,1.862-.363,4.488a44.594,44.594,0,0,0,2.406,9.691c.911,2.571,1.034,5.213,2.351,5.636C6491.637,1232.018,6494.333,1232.326,6498.154,1230.732Z" fill="#f1b287" fill-rule="evenodd"/>
      <path id="Path_24492" data-name="Path 24492" d="M6485.94,1197.882c3.884-1.677,19.054,5.474,23.619,15.411.761,1.658,1.71,1.149,1.815,3.732.115,2.846,4.268-5.9,5.212-8.638,2.585-7.51.469-13.6-6.54-17.941C6501.239,1184.987,6489.04,1189.879,6485.94,1197.882Z" fill="#361d07" fill-rule="evenodd"/>
      <g id="Group_11611" data-name="Group 11611">
        <path id="Path_24493" data-name="Path 24493" d="M6511.685,1208.846c3.425-1.622,3.919,2.49,3.652,5.048-.184,1.758-1.613,1.793-1.971,3.2a3.257,3.257,0,0,1-2.665,2.669c-2.176.189-1.2-3.187-1.091-4.5C6509.117,1213.2,6509.512,1209.875,6511.685,1208.846Z" fill="#e8a476" fill-rule="evenodd"/>
        <path id="Path_24494" data-name="Path 24494" d="M6510.7,1213.891c.57-1.778.658-3.987,3.107-4C6511.712,1210.3,6511.461,1212.269,6510.7,1213.891Z" fill="#db9669" fill-rule="evenodd"/>
      </g>
      <path id="Path_24495" data-name="Path 24495" d="M6498.154,1230.732c8.389-3.494,10.851-7.66,12.841-16.205,3.67-2.439,5.249-4.48,5.648-6.766.945-5.426-1.96-11.4-6.014-14.756a14.472,14.472,0,0,0-12.442-2.986c-5.354.984-11.125,4.784-12.2,9.643.508-.408,2.083-1.41,6.866-.142,5.681,2.071,4.078,6.9,6.04,8.67a11.8,11.8,0,0,1,2.918,5.646c.656,3.074-2.922,3.291-2.981,4.751-.061,1.494,3.684,1.67,2.9,5.7-.219,1.132-2.822,5.326-4.1,6.649C6497.81,1230.884,6497.977,1230.805,6498.154,1230.732Z" fill="#e8a476" fill-rule="evenodd"/>
      <path id="Path_24496" data-name="Path 24496" d="M6492.417,1198.592c-1.893-.7-5.421-.546-6.7.543-.644-2.3,3.227-9.34,11.27-12.325,6.809-2.527,15.28-2.769,20.584,4.281,3.989,5.3,5.464,14.686-.115,20.1-2.538,2.462-5.7,4.5-7.5,4.676-.566-1.238-3.545-2.081-4.568-2.948-.847-.716-.635-1.691-1.756-2.872-.632-.666-2.469-1.832-3.382-3.155C6498.954,1205.025,6500.025,1198.949,6492.417,1198.592Z" fill="#361d07" fill-rule="evenodd"/>
      <path id="Path_24497" data-name="Path 24497" d="M6521.235,1201.58a12.663,12.663,0,0,1-3.783,9.611c-2.566,2.433-5.7,4.5-7.5,4.676-.566-1.238-3.545-2.081-4.568-2.948-.847-.716-.635-1.691-1.756-2.872-.632-.666-2.469-1.832-3.382-3.155C6510.163,1210.549,6518.288,1207.056,6521.235,1201.58Z" fill="#241304" fill-rule="evenodd"/>
      <path id="Path_24498" data-name="Path 24498" d="M6509.217,1185.8c3.369,2.036-3.906,2.142-5.563,2.15-4.689.022-10.12,1.761-9.029,8.567.248,1.545.824,2.611.642,2.556a12.224,12.224,0,0,0-2.966-.493c-2.261-.979-5.624.324-6.13.052a7.974,7.974,0,0,1,.949-10.458c4.526-4.647,11.114-3.693,16.843-2.67C6505.861,1185.84,6510.086,1187.211,6509.217,1185.8Z" fill="#4f2b0c" fill-rule="evenodd"/>
      <path id="Path_24499" data-name="Path 24499" d="M6499.68,1201.371c10.484-.953,23.295-5.846,13.292-14.7C6527.162,1196.989,6509.537,1203.934,6499.68,1201.371Z" fill="#4f2b0c" fill-rule="evenodd"/>
      <path id="Path_24500" data-name="Path 24500" d="M6497.744,1197.855c.742-9.6,6.887-6.242,12.465-8.81,1.418-.654,2.263-2.3-.695-3.273,2.239,1.3.832,2.007.057,2.219-3.638.99-7.291.286-10.168,1.421a5.609,5.609,0,0,0-3.69,5.64c.039,1.875.606,4.443,1.355,4.725C6497.4,1199.9,6497.636,1199.263,6497.744,1197.855Z" fill="#4f2b0c" fill-rule="evenodd"/>
      <path id="Path_24501" data-name="Path 24501" d="M6497.042,1199.846c9.171-4.4,23.808-6.051,13.847-13.708,4.62,4.168,2.065,5.182-2.564,7C6505.078,1194.412,6500.754,1196.158,6497.042,1199.846Z" fill="#4f2b0c" fill-rule="evenodd"/>
      <path id="Path_24502" data-name="Path 24502" d="M6509.547,1186.06c.281.565-.8.783-2.3.534-4.434-.736-7.456-1.364-10.556-1.385-6.522-.043-10.879,3.108-9.426,10.317-.024-5.932,1.8-11.575,15.39-9.306-10.464-.594-13.12.517-12.88,9.389.639-8.71,3.894-9.592,14.117-8.816-8.906-.17-11.946.8-11.468,9.667.81-8.029,2.1-9.846,14.728-9.147C6508.6,1187.393,6510.552,1187.013,6509.547,1186.06Z" fill="#361d07" fill-rule="evenodd"/>
      <path id="Path_24503" data-name="Path 24503" d="M6499.962,1202.992c5.782,4.046,28.425-2.02,16.715-12.522C6531.384,1201.964,6505.938,1208.927,6499.962,1202.992Z" fill="#4f2b0c" fill-rule="evenodd"/>
    </g>
    <g id="Group_11613" data-name="Group 11613">
      <path id="Path_24504" data-name="Path 24504" d="M6485.894,1254.177c1.9.2,3.211,2.505,2.935,5.155s-2.038,4.636-3.935,4.438-3.21-2.505-2.934-5.154S6484,1253.98,6485.894,1254.177Z" fill="#736f6f" fill-rule="evenodd"/>
      <path id="Path_24505" data-name="Path 24505" d="M6485.859,1254.508c1.767.184,2.99,2.332,2.733,4.8-.253,2.429-1.848,4.259-3.582,4.139,1.616-.1,3.045-1.852,3.282-4.14.258-2.466-.965-4.615-2.732-4.8l-.08-.007A2.4,2.4,0,0,1,6485.859,1254.508Z" fill="#b8b6b6" fill-rule="evenodd"/>
      <path id="Path_24506" data-name="Path 24506" d="M6485.728,1255.769c1.267.132,2.146,1.674,1.961,3.444s-1.361,3.1-2.629,2.965-2.145-1.674-1.96-3.444S6484.46,1255.637,6485.728,1255.769Z" fill="#4a4848" fill-rule="evenodd"/>
      <path id="Path_24507" data-name="Path 24507" d="M6485.694,1256.1c1.136.119,1.924,1.5,1.758,3.088s-1.221,2.778-2.357,2.66-1.924-1.5-1.758-3.089S6484.557,1255.981,6485.694,1256.1Z" fill="#736f6f" fill-rule="evenodd"/>
      <path id="Path_24508" data-name="Path 24508" d="M6485.548,1257.5c.585.061.989.772.905,1.588s-.628,1.429-1.213,1.368-.989-.773-.9-1.588S6484.964,1257.435,6485.548,1257.5Z" fill="#454242" fill-rule="evenodd"/>
      <path id="Path_24509" data-name="Path 24509" d="M6485.672,1256.307c1.055.11,1.786,1.393,1.632,2.866-.151,1.454-1.108,2.55-2.148,2.471a2.6,2.6,0,0,0,1.832-2.459c.154-1.473-.577-2.757-1.631-2.866l-.04,0A1.359,1.359,0,0,1,6485.672,1256.307Z" fill="#b8b6b6" fill-rule="evenodd"/>
    </g>
  </g>
</svg>
