<svg xmlns="http://www.w3.org/2000/svg" width="105.708" height="313.372" viewBox="0 0 105.708 313.372">
  <g id="Group_7915" data-name="Group 7915" transform="translate(-3467.65 -1123.57)">
    <g id="Group_7897" data-name="Group 7897">
      <path id="Path_16504" data-name="Path 16504" d="M3517.114,1209.711c-7.816,4.11-24.382,6.287-35.416,7.088-5.612.408-10.021.328-11.889-3.946-1.772-4.052,2.037-8.3,6.328-9.744,5.085-1.71,11.422-3.228,22.218-6.167,8.6-2.341,16.991.867,20.092,5.174C3520.243,1204.611,3520.946,1207.7,3517.114,1209.711Z" fill="#d2eefc" fill-rule="evenodd"/>
      <path id="Path_16505" data-name="Path 16505" d="M3517.114,1209.711c-7.816,4.11-24.382,6.287-35.416,7.088-5.612.408-10.021.328-11.889-3.947-1.244-2.843.262-5.784,2.754-7.784a48.844,48.844,0,0,0,1.592,4.891c.547,1.407.561,2.275,3.847,1.752,14.622-2.329,27.148-4.431,41.062-8.632C3520.348,1205.367,3520.467,1207.949,3517.114,1209.711Z" fill="#c3e6f7" fill-rule="evenodd"/>
    </g>
    <path id="Path_16506" data-name="Path 16506" d="M3496.584,1174.949l.372,3.159,3.729,3.3c3.33-.773,5.471-1.83,6.262-2.962.064-.091.158-.181.209-.273C3509.4,1174.172,3500.016,1169.871,3496.584,1174.949Z" fill="#8f9ba6" fill-rule="evenodd"/>
    <g id="Group_7898" data-name="Group 7898">
      <path id="Path_16507" data-name="Path 16507" d="M3519.437,1173.942c.93-2.758-3.277-2.685-4.446-2.388-1.707-.093-2.405.344-3.439-.681-1.161-1.151-3,6.378-2.878,6.435.747.08,4.013-1.565,4.7-1.993,1.278-.8,1.294-1.037,2.944-1.249C3517.171,1173.957,3518.039,1174.007,3519.437,1173.942Z" fill="#f1b287" fill-rule="evenodd"/>
      <path id="Path_16508" data-name="Path 16508" d="M3519.568,1173.289c.095-2.091-3.508-2.006-4.577-1.735-1.707-.093-2.405.344-3.439-.681-.713-.707-2.945,3.3,1.058,2.784C3514.353,1173.309,3516.734,1171.979,3519.568,1173.289Z" fill="#e8a476" fill-rule="evenodd"/>
      <path id="Path_16509" data-name="Path 16509" d="M3496.2,1176.178c1.766-1.146,3.011-1.829,3.953-2.525,2.488-1.838.686-4.765,5.348-8.12l5.339-3.842c.7-.5,6.829-.293,8.653.36,1.3.463,6.848,3.111,6.344,3.521-.376.307-2.986.578-5.336,1.186l-5.053,2.337c-4.7,2.705-3.232,5.425-4.8,6.917-2.036,1.944-4.5,2.056-7.577,6.2l-4.748-.751-.816-5.022Z" fill="#f1b287" fill-rule="evenodd"/>
      <path id="Path_16510" data-name="Path 16510" d="M3496.2,1176.178c1.766-1.146,3.011-1.829,3.953-2.525,2.488-1.838.686-4.765,5.348-8.12l5.339-3.842c.7-.5,6.829-.293,8.653.36.225.08.576.225,1,.413-1.466,1.615-6.465.184-8.208.881a7.758,7.758,0,0,0-3.853,2.863c-1.671,2.317-1.729,3.783-2.717,5.549a35.94,35.94,0,0,1-4.04,4.845l2.081,5.024q-.331.278-.682.584l-4.748-.751-.816-5.022Z" fill="#e8a476" fill-rule="evenodd"/>
    </g>
    <path id="Path_16511" data-name="Path 16511" d="M3467.81,1210.556a6.49,6.49,0,0,1,.481-4.184c.649-1.6,2.152-3.244,3.444-5.257,5-7.789,15.286-17.14,25.13-26.594,2.967,4.754,6.808,5.825,10.3,3.644-6.754,9.675-16.494,19.414-23.841,28.34a29.175,29.175,0,0,1-2.975,3.11C3475.94,1211.427,3469.059,1215.775,3467.81,1210.556Z" fill="#d2eefc" fill-rule="evenodd"/>
    <path id="Path_16512" data-name="Path 16512" d="M3467.81,1210.556a6.49,6.49,0,0,1,.481-4.184c.649-1.6,2.152-3.244,3.444-5.257,5-7.789,15.286-17.14,25.13-26.594a13.535,13.535,0,0,0,2.064,2.6c-7.4,9.754-17.792,18.806-24.567,29.157-1.017,1.554-1.855,2.277.791,4.246l1.2.893C3472.6,1213.088,3468.719,1214.352,3467.81,1210.556Z" fill="#c3e6f7" fill-rule="evenodd"/>
    <path id="Path_16513" data-name="Path 16513" d="M3511.031,1199.049s-25.511,11.9-35.021,8.639c7.873-10.294,15.194-18.693,23.9-28.481a7.437,7.437,0,0,0,5.669-.02l-22.772,26.167,10.217-3.67Z" fill="#e0f5ff" fill-rule="evenodd"/>
    <path id="Path_16514" data-name="Path 16514" d="M3569.027,1415.5l-45.805-26.087c-4.993-2.281-12.14-4.1-17.227-1.45-4.635,2.413-12.272,7.35-15.648,9.275-2.564,1.463-11.467,6.8-5.923,9.812,16.312,8.87,32.455,18.845,49.018,27.855,3.132,1.7,7.715,2.32,12.526,1.92a33.162,33.162,0,0,0,13.565-4.04q4.129-2.4,8.123-4.728c3.593-2.092,5.5-4.566,5.687-6.853C3573.527,1418.969,3572.091,1416.9,3569.027,1415.5Z" fill="#231f20" fill-rule="evenodd" opacity="0.1" style="mix-blend-mode: multiply;isolation: isolate"/>
    <g id="Group_7900" data-name="Group 7900">
      <g id="Group_7899" data-name="Group 7899">
        <path id="Path_16515" data-name="Path 16515" d="M3510.9,1385.422c-.929,3.267-1.164,4.953-2.521,6.855-2.7,3.792-6.695,6.5-12.5,10.618-2.764,1.959-3.348,3.816-.55,5.524,2.2,1.345,7.6.276,10.963-.516,6.32-1.486,8.874-5.289,11.035-6.278l1.637.37c1.339.024,6.6-2.1,7.633-3.477a37.62,37.62,0,0,0,.823-4.9c.2-5.348-.643-4.8-2.074-8.987C3520.482,1384.985,3515.772,1385.257,3510.9,1385.422Z" fill="#111214" fill-rule="evenodd"/>
        <path id="Path_16516" data-name="Path 16516" d="M3493.5,1405.97c-.028.845.543,1.663,1.831,2.449,2.205,1.345,7.6.276,10.964-.516,6.319-1.486,8.873-5.289,11.034-6.278l1.637.37c1.339.024,6.6-2.1,7.633-3.477a37.62,37.62,0,0,0,.823-4.9c.2-5.348-.643-4.8-2.074-8.987-2.151.155-4.273.3-6.393.418-.383,3.521.131,9.594-2.766,11.855-3.241,2.527-5.769,3.2-7.934,4.516C3501.353,1405.615,3496.8,1409.024,3493.5,1405.97Z" fill-rule="evenodd"/>
        <path id="Path_16517" data-name="Path 16517" d="M3509.368,1391.427c.69,1.018,2.045,1.592,4.285,2.15-3.613,4.074-4.123,3.693-8.977,6.42-2.446,2.8-2.786,3.326-4.347,4.227-1.863,1.077-4.5,2.182-5.6,1.387-.476-.341.164-1.3,2.217-2.786,2.328-1.687,4.7-3.4,6.842-5.179A25.251,25.251,0,0,0,3509.368,1391.427Z" fill="#20232e" fill-rule="evenodd"/>
      </g>
      <path id="Path_16518" data-name="Path 16518" d="M3528.994,1296.065a78.077,78.077,0,0,0,.69-12.482c-3.938-1.575-8.077-3.064-12.07-4.811l.285-.24c-4.232-1.986-7.878-5.071-12.758-7.871-2.042,6.428-2.8,9.307-2.644,14.537a160.924,160.924,0,0,0,2.286,20.676c.714,10.592,1.665,21.644,2.352,28.877,1.751,18.452,1.537,36.655,2.641,55.075,2.287,3.752,13.317,3.983,17.085-1.292.564-14.572,1.476-26.078,1.063-34.051-.343-6.637-.658-10.461-2.806-16.36C3526.55,1328.306,3528.474,1310.236,3528.994,1296.065Z" fill="#001624" fill-rule="evenodd"/>
      <path id="Path_16519" data-name="Path 16519" d="M3547.393,1404.787c.808,2.36,1.546,4.189,1.47,5.674-.078,1.537-.5,3.032-.478,4.975.017,1.668.1,3.085.295,4.972.2,1.931,0,2.844-.851,3.614-1.376,1.254-5.475,3.192-7.419,3.851a7.8,7.8,0,0,1-3.4.457,15.139,15.139,0,0,1-4.559-.831c-.419-.158-.849-1.785-.879-3.2-.064-2.955.2-2.7,1.427-7.389.418-1.6.756-3.127,1.33-5,.716-2.327,1.606-4.375,1.7-6.667l8.655-.337Z" fill="#111214" fill-rule="evenodd"/>
      <path id="Path_16520" data-name="Path 16520" d="M3547.393,1404.787c.808,2.36,1.546,4.189,1.47,5.674-.078,1.537-.5,3.032-.478,4.975.017,1.668.1,3.085.295,4.972.2,1.931,0,2.844-.851,3.614-1.376,1.254-5.475,3.192-7.419,3.851a7.8,7.8,0,0,1-3.4.457,15.139,15.139,0,0,1-4.559-.831c-.379-.143-.768-1.491-.86-2.792l.023,0c2.645.9,5.212,1.262,7.753.021,5.364-2.62,4.666-4.8,4.161-10.979-3.489-.615-4.861-1.237-6.631-3.148,2.975.874,6.173,1.031,7.755-.786l.493-4.921Z" fill-rule="evenodd"/>
      <path id="Path_16521" data-name="Path 16521" d="M3516.139,1338.067c3.617,17.095,4.533,29.157,2.223,54.464,3.329-.247,6.722-1.51,8.5-4,.564-14.572,1.476-26.078,1.063-34.051-.343-6.637-.658-10.461-2.806-16.36,1.841-12.623,4.5-38.888,3.934-52.968l-7.555-3.022C3519.207,1302.965,3517.762,1313.708,3516.139,1338.067Z" fill="#00101a" fill-rule="evenodd"/>
      <path id="Path_16522" data-name="Path 16522" d="M3523.96,1303.567c1.4,14.2,4.127,33.93,5.713,44.006,2.883,18.309,3.334,39.776,4.953,58.159,2.5,3.913,11.926,4.719,15.535-.149.156-14.582,1.48-30.908.845-38.867a50.266,50.266,0,0,0-3.942-16.48c.363-11.365,6.293-58.051-1.54-67.212a6.884,6.884,0,0,0-1.474-2.074l-11.411-.891-13.536-1.575a39.226,39.226,0,0,0,.1,16.074,2.552,2.552,0,0,0,.3.663c.129.957.3,1.923.518,2.89C3520.224,1299,3522.391,1301.476,3523.96,1303.567Z" fill="#001e30" fill-rule="evenodd"/>
      <path id="Path_16523" data-name="Path 16523" d="M3536.348,1294.191c1.554,3.6,2.754,9.633,2.826,15.666.195,8.642.838,29.072,1.658,38.8,1.609,19.065,5.241,34.954,2.364,60.27a9.278,9.278,0,0,0,6.965-3.342c.156-14.582,1.48-30.908.845-38.867a50.266,50.266,0,0,0-3.942-16.48c.37-11.59,6.532-59.921-2.02-67.717l-13.034-.891C3533.688,1286.468,3534.218,1289.256,3536.348,1294.191Z" fill="#001624" fill-rule="evenodd"/>
      <path id="Path_16524" data-name="Path 16524" d="M3535.576,1411.077c2.5,1.975,1.627,2.839,5.283,3.315a20.5,20.5,0,0,1-2.849,7.125c-.148,1.378-.259,3.186-2.941,3.2-5.008.033-1.534-4.1-1.516-4.257A41.454,41.454,0,0,1,3535.576,1411.077Z" fill="#20232e" fill-rule="evenodd"/>
      <path id="Path_16525" data-name="Path 16525" d="M3505.63,1274.747a35.37,35.37,0,0,0,9.432,6.625c.014,6.462.01,18.431-.232,30.4-.026,7.076-.14,14.282-.446,20.28q-.016.437-.028.875c.6,4.979,2.935,7.79,3.228,15.272a190.078,190.078,0,0,1-2.233,31.434c.048,4,.074,7.995.041,11.975a7.842,7.842,0,0,1-5.3-2.192l-.3-45.314c-.285-7.221-1.4-18.031-2.289-29.15C3505.61,1301.667,3503.774,1286.261,3505.63,1274.747Z" fill="#001e30" fill-rule="evenodd"/>
      <path id="Path_16526" data-name="Path 16526" d="M3531.54,1284.324l.033.01a223.158,223.158,0,0,0,6.11,21.521c1.663,14.415,1.24,30.143,1.44,41.258,1.5,20.333,3.2,40.706,4.215,61.065-1.851-.16-5.955-.987-6.938-1.879-1.11-16.578-.914-39.957-2.979-55.537-.422-3.181-3.492-30.2-7.195-45.512-1.24-5.13-4.788-5.034-5.506-7.983-1.558-6.4-1.591-9.992-.95-16.942C3523.661,1281.786,3527.54,1283.183,3531.54,1284.324Z" fill="#00263d" fill-rule="evenodd"/>
    </g>
    <g id="Group_7902" data-name="Group 7902">
      <path id="Path_16527" data-name="Path 16527" d="M3535.76,1204.033c.4,4.739-12.571,10.944-17.514,8.518-.521-.255-.794-1.35-1.116-1.792.3-1.214-.109-1.732-.218-2.967a15.164,15.164,0,0,0-.723-3.958c-.589-1.6-.274-4.928-1.295-8.682l14.795-6.449,3.168-1.68C3531.339,1194.409,3533.014,1197.843,3535.76,1204.033Z" fill="#e8a476" fill-rule="evenodd"/>
      <path id="Path_16528" data-name="Path 16528" d="M3535.76,1204.033a2.153,2.153,0,0,1-.065.8c-7.013-4.415-11.38-.716-19.6-2.914a54.175,54.175,0,0,0-1.2-6.764l14.795-6.449,3.168-1.68C3531.339,1194.409,3533.013,1197.843,3535.76,1204.033Z" fill="#db9669" fill-rule="evenodd"/>
      <g id="Group_7901" data-name="Group 7901">
        <path id="Path_16529" data-name="Path 16529" d="M3503.733,1270.322a2.082,2.082,0,0,0,.373.9c4.185,5.832,30.439,14.621,35.932,14.165-4.36-37.911,35.344-70.184-7.2-82.681l-12.239,6.737-4.379-.786-.561-5.39c-5.923,5.889-8.662,13.693-9.716,24.544C3504.568,1242.009,3507.547,1254.745,3503.733,1270.322Z" fill="#12a8b3" fill-rule="evenodd"/>
        <path id="Path_16530" data-name="Path 16530" d="M3523.063,1281.2c7.278,2.588,14.4,4.4,16.975,4.188-4.36-37.911,35.344-70.184-7.2-82.681l-12.239,6.737-4.379-.786-.561-5.39a28.61,28.61,0,0,0-6.1,8.983l.351.385c3.194-1.012,4.872-2.306,6.519-1.578,1.357.6,2.911,2.736,3.389,6.126,1.93-.483,5.61-1.868,7.523-2.414-7.089,10.573-13.7,33.3-8.74,57.025C3519.224,1274.744,3521.733,1278.155,3523.063,1281.2Z" fill="#06929c" fill-rule="evenodd"/>
        <path id="Path_16531" data-name="Path 16531" d="M3520.211,1210.681c-.708,2.955-.823,2.945-3.513,4.98.332,1.5.547,2.8.763,4.337-4.386,12.721-6.726,23.484-9.3,38.515-.312-15.378.453-27.052,3.787-43.063a9.408,9.408,0,0,1,2.777-1c-.737-3.261-.326-5.364.344-5.759C3517.48,1208.6,3518.484,1208.885,3520.211,1210.681Z" fill="#041e2e" fill-rule="evenodd"/>
        <path id="Path_16532" data-name="Path 16532" d="M3520.211,1210.681c-.708,2.955-.823,2.945-3.513,4.98.332,1.5.547,2.8.763,4.337-4.386,12.721-6.726,23.484-9.3,38.515,1.365-18.33,3.774-25.743,7.644-38.265a33.091,33.091,0,0,1-.342-5.331c1.723-1.528,2.464-1.679,2.905-2.728.391-.93-1.534-3.282-1.22-3.468C3518.352,1209.069,3518.484,1208.885,3520.211,1210.681Z" fill="#020d14" fill-rule="evenodd"/>
        <path id="Path_16533" data-name="Path 16533" d="M3517.591,1208.863c-.3-.767-.455-2.351-.78-3.729a16.149,16.149,0,0,0-1.028-2.9c-1.683.214-2.419,5.3-3.849,8.3A7.722,7.722,0,0,1,3517.591,1208.863Z" fill="#1abac6" fill-rule="evenodd"/>
        <path id="Path_16534" data-name="Path 16534" d="M3533.283,1198.28c.337,5.438-9.984,9.217-15.746,10.587,1.446,1.745,3.313,3.938,3.239,5.681,4.154-1.136,11.2-3.09,14.053-8.4A5.831,5.831,0,0,0,3533.283,1198.28Z" fill="#1abac6" fill-rule="evenodd"/>
      </g>
    </g>
    <g id="Group_7907" data-name="Group 7907">
      <path id="Path_16535" data-name="Path 16535" d="M3513.767,1194.364c-4.283-.209-6.281.789-8.612,4.263-4.2,6.254-4.851,19.567-4.556,31.566.168,6.8,1.245,12.773,1.329,21.219.068,6.809-1.3,17.1-2.055,26.362-.367,4.511-.589,48.34-.427,51.848.919,1.981,7.415,5.308,8.271,5.141-.394-5.055-.747-50.557-.974-56.969-.718-20.306-.2-45.348,4.121-62,1.08-4.167,1.686-8.927,4.024-12.588.4-.6.778-1.178,1.137-1.736a48.375,48.375,0,0,0-1.131-6.314l1.1-.479A19.366,19.366,0,0,0,3513.767,1194.364Z" fill="#d2eefc" fill-rule="evenodd"/>
      <path id="Path_16536" data-name="Path 16536" d="M3547.063,1208.231c-2.338-1.3-7.1-4.216-12.242-7.086,4.326,5.184-6.124,17.649-10.974,33.191-1.648,5.283-2.719,12.987-2.977,20.656-.249,7.4,2.1,82.264,3.782,88.254,4.9,3.381,9.736,3.621,14.881,1.5a49.28,49.28,0,0,0,12.478-7.892c-1.962-13.945,1.441-42.233-3.493-53.318-2.392-5.375-4.9-7.627-5.144-14.384-.354-9.686,13.234-35.505,13.108-48.872C3556.425,1214.349,3551.431,1210.654,3547.063,1208.231Z" fill="#d2eefc" fill-rule="evenodd"/>
      <path id="Path_16537" data-name="Path 16537" d="M3547.063,1208.231l-11.9-6.6c1.776,2.849,6.513,5.9,11.621,10.216a23.335,23.335,0,0,0-6.6,11.651c-2.689,10.629-6.8,24.618-7.5,34.338-1.124,15.469,2.577,22.436,5.766,29.333,2.162,4.677,4.089,48.882,4.117,56.126a50.14,50.14,0,0,0,9.394-6.437c-.445-4.2-.236-26.881-1.089-41.089a38.555,38.555,0,0,0-3.858-15.392c-1.678-3.206-3.254-5.685-3.633-11.222-.663-9.67,13.234-35.505,13.108-48.872C3556.425,1214.349,3551.431,1210.654,3547.063,1208.231Z" fill="#c3e6f7" fill-rule="evenodd"/>
      <path id="Path_16538" data-name="Path 16538" d="M3532.677,1257.835c-.179,2.464-.235,4.71-.191,6.776,6.551-5.968,12.7-13.6,18.447-21.868,2.942-8.274,5.6-16.576,5.549-22.461Z" fill="#b2d9ed" fill-rule="evenodd"/>
      <path id="Path_16539" data-name="Path 16539" d="M3515.282,1198.827a15.483,15.483,0,0,0-8.124,6.5l2.3,1.78-2.986,1.492a206.7,206.7,0,0,0,.259,42.661c.607-11.873.8-26.729,5.531-38.484.744-1.85,3.247-10.409,3.823-11.222C3515.627,1199.675,3515.85,1200.785,3515.282,1198.827Z" fill="#ebf9ff" fill-rule="evenodd"/>
      <path id="Path_16540" data-name="Path 16540" d="M3537.389,1206.5l7.264,5.311c-6.017,9.9-14.078,28.5-14.3,47.294-.107,9.06,6.768,46.328,9.593,82.9-5.368,3.243-11.581,1.834-14.421-.76-2.863-18.423-3.292-90.474.577-105.1C3529.418,1223.595,3535.123,1214.512,3537.389,1206.5Z" fill="#e0f5ff" fill-rule="evenodd"/>
      <g id="Group_7903" data-name="Group 7903">
        <path id="Path_16541" data-name="Path 16541" d="M3538.333,1269.316c-5.849-.2-7.458-.209-12.52.7l2.331,13.987c3.276,1.388,7.928,1.009,12.034-.691Z" fill="#d2eefc" fill-rule="evenodd"/>
        <path id="Path_16542" data-name="Path 16542" d="M3538.333,1269.316c-5.849-.2-7.458-.209-12.52.7.728,4.171.382,4.13,4.85,4.4,7.982.477,5.522,1.362,8.275,9.367.121.353.832-.3,1.24-.468Z" fill="#c3e6f7" fill-rule="evenodd"/>
        <path id="Path_16543" data-name="Path 16543" d="M3537.905,1267.534c-5.887-.18-8.511-.636-12.878-.652l1.126,5.567c1.491.777,9.319,1.7,12.777.067Z" fill="#d2eefc" fill-rule="evenodd"/>
        <path id="Path_16544" data-name="Path 16544" d="M3537.905,1267.534c-5.887-.18-8.511-.636-12.878-.652,4.254,1.578,11.431,1.146,12.684,6.067a7.053,7.053,0,0,0,1.219-.433Z" fill="#c3e6f7" fill-rule="evenodd"/>
        <path id="Path_16545" data-name="Path 16545" d="M3526.885,1274.89l7.368,1.191,2.977,7.326a25.388,25.388,0,0,1-8.176.457Z" fill="#e0f5ff" fill-rule="evenodd"/>
        <path id="Path_16546" data-name="Path 16546" d="M3525.661,1267.618c3.439,1.05,8.268,2.51,10.294,5.072a26.006,26.006,0,0,1-9.024-.592A20.538,20.538,0,0,1,3525.661,1267.618Z" fill="#e0f5ff" fill-rule="evenodd"/>
      </g>
      <g id="Group_7906" data-name="Group 7906">
        <g id="Group_7904" data-name="Group 7904">
          <path id="Path_16547" data-name="Path 16547" d="M3504.49,1262.3c-1.732-1.889-2.213-2.362-3.814-2.9l-1.2,15.619c.8,1.27,3.451,2.322,4.256,2Z" fill="#d2eefc" fill-rule="evenodd"/>
          <path id="Path_16548" data-name="Path 16548" d="M3504.49,1262.3c-1.732-1.889-2.213-2.362-3.814-2.9-.172,4.435-.272,4.3,1.04,5.854,2.345,2.786,1.449,2.974,1.523,11.879a1.64,1.64,0,0,0,.492-.116Z" fill="#c3e6f7" fill-rule="evenodd"/>
          <path id="Path_16549" data-name="Path 16549" d="M3500.541,1264.644l2.094,3.332-.188,8.588a4.477,4.477,0,0,1-2.562-1.881Z" fill="#e0f5ff" fill-rule="evenodd"/>
        </g>
        <g id="Group_7905" data-name="Group 7905">
          <path id="Path_16550" data-name="Path 16550" d="M3505.124,1258.589c-1.938-.853-2.731-1.629-4.191-2.138l-.677,5.995c.352.987,2.8,2.845,4.269,1.51Z" fill="#d2eefc" fill-rule="evenodd"/>
          <path id="Path_16551" data-name="Path 16551" d="M3505.124,1258.589c-1.938-.853-2.731-1.629-4.191-2.138,1.126,2.143,3.613,2.5,3.1,7.824a1.794,1.794,0,0,0,.49-.319Z" fill="#c3e6f7" fill-rule="evenodd"/>
          <path id="Path_16552" data-name="Path 16552" d="M3501,1257.3a13.29,13.29,0,0,1,2.49,6.507c-1.35-.094-1.775-.439-2.912-1.642C3500.632,1260.554,3500.817,1259.055,3501,1257.3Z" fill="#e0f5ff" fill-rule="evenodd"/>
        </g>
      </g>
      <path id="Path_16553" data-name="Path 16553" d="M3538.863,1203.326c1.705,4.146.482,11.607-1.57,18.787l-4.175-1.548,2.014,4.547c-8.392,10.964-13.087,27.3-13.737,44.068-4.539-36.32,8.583-51.161,12.2-63.88.486-1.709,1.621-4.407.858-5.925A10.262,10.262,0,0,1,3538.863,1203.326Z" fill="#ebf9ff" fill-rule="evenodd"/>
    </g>
    <g id="Group_7908" data-name="Group 7908">
      <path id="Path_16554" data-name="Path 16554" d="M3518.749,1200.708c1.947-.782,6.4-1.592,8.169-2.405,3.867-1.78,4.158-5.736,6.14-10.468,3.6-1.6,5.024-3.171,5.718-5.13,1.645-4.648-.027-10.361-3.1-13.925a12.959,12.959,0,0,0-10.539-4.5c-8.384.117-12.93,5.513-14.773,12.367a4.742,4.742,0,0,0-.127,1.77c.148,1.485.623,2.227.74,3.24.277,2.382-.754,1.951-.989,4.292-.38,3.8.249,7.38.862,11.563.181,1.23.431,1.805,1.144,2.27a16.85,16.85,0,0,0,2.543,1.086C3515.4,1201.237,3516.267,1201.381,3518.749,1200.708Z" fill="#f1b287" fill-rule="evenodd"/>
      <path id="Path_16555" data-name="Path 16555" d="M3518.749,1200.708c1.947-.782,6.4-1.592,8.169-2.405,3.867-1.78,4.158-5.736,6.14-10.468,3.6-1.6,5.024-3.171,5.718-5.13,1.645-4.648-.027-10.361-3.1-13.925a12.959,12.959,0,0,0-10.539-4.5c-7.283.1-11.67,4.188-13.9,9.752.3.772,7.1,4.343,13.279,4.383.462,2.787-.988,5.076-1.055,6.477-.064,1.343-.057,2.489-.179,3.242-.182,1.116-1.328,1.977-1.5,3.576-.562,5.2-3.43,8.53-5.763,9.465A10.774,10.774,0,0,0,3518.749,1200.708Z" fill="#e8a476" fill-rule="evenodd"/>
      <path id="Path_16556" data-name="Path 16556" d="M3514.07,1172.527c-.924.033-2.035-.5-2.792,1.4.548-3.107,1.491-3.395,3.407-3.687Z" fill="#361d07" fill-rule="evenodd"/>
      <path id="Path_16557" data-name="Path 16557" d="M3525.656,1176.683c5.871-.594,12.384-4.726,13.909-7.374,3.17,6.218,2.4,14.592-2.514,19.663-1.415,2.686-2.8,5.327-4.126,8.058a56.924,56.924,0,0,1-1.907-11.521l-.252-.363c-.338.7-1.183,2.443-1.5,3.167-.369,0-.968-.537-1.492-.849C3528.811,1182.046,3528.533,1178.7,3525.656,1176.683Z" fill="#361d07" fill-rule="evenodd"/>
      <path id="Path_16558" data-name="Path 16558" d="M3525.265,1176.415c-6.168-.54-14.284-3.361-17.373-8.042,5.594.844,11.939-7.5,20.778-6.673,5.124.48,10.658,3.1,10.9,7.567C3537.893,1171.472,3530.409,1176.865,3525.265,1176.415Z" fill="#361d07" fill-rule="evenodd"/>
      <path id="Path_16559" data-name="Path 16559" d="M3525.516,1176.68c-6.168-.539-14.535-3.626-17.624-8.307l.054.007a21.165,21.165,0,0,0,14.749,1.948,5.68,5.68,0,0,1-2.151-1.061c4.647.252,7.846.474,11.871-2.011a7.922,7.922,0,0,1-3.214.176c2.385-.565,4.646-2.489,8.305-2.243a5.8,5.8,0,0,1,2.143,4.245C3538.144,1172,3530.66,1177.13,3525.516,1176.68Z" fill="#241304" fill-rule="evenodd"/>
      <path id="Path_16560" data-name="Path 16560" d="M3532.873,1183.464c3.307-.754,2.942,2.937,2.214,5.121-.5,1.5-1.758,1.255-2.345,2.419a2.915,2.915,0,0,1-2.846,1.818c-1.939-.257-.434-3.019-.083-4.142C3529.783,1186.778,3530.773,1183.943,3532.873,1183.464Z" fill="#e8a476" fill-rule="evenodd"/>
      <path id="Path_16561" data-name="Path 16561" d="M3539.692,1169.866c.477,1.086,1.613,4.056,1.285,6.2a7.575,7.575,0,0,0-2.039-3.631c1.249,2.005,1.446,4.474.586,7.43-.04-2.558-.3-4.012-2.15-5.447,1.345,2.537.849,7.2.084,9.217-.235-2.893-.468-6.842-2.933-7.681,1.437,2.349,1.225,3.643.363,5.978-.252-2.594-1.025-4.049-2.793-5.028-.049,2.359-.779,6.731-3.1,8.77.191-.923,1.374-7.162.139-8.043a4.473,4.473,0,0,1-.167,2.96,5.325,5.325,0,0,0-2.542-3.631C3531.394,1176.81,3538.6,1172.27,3539.692,1169.866Z" fill="#4a2b12" fill-rule="evenodd"/>
      <path id="Path_16562" data-name="Path 16562" d="M3536.656,1164.454c-2.5-1.964-6.917-2.956-10.084-2.808-2.687.126-5.3,1.231-7.708,1.775a6.518,6.518,0,0,0,1.927.055c-4.271,1.2-7.83,5.005-12.821,4.889a9.555,9.555,0,0,0,5.81-.224,12.882,12.882,0,0,1-2.178,1.062c4.747.364,7.878-2.208,12.178-3.715a5.326,5.326,0,0,1-2.6,1.592C3525.8,1166.24,3530.065,1162.547,3536.656,1164.454Z" fill="#4a2b12" fill-rule="evenodd"/>
    </g>
    <g id="Group_7913" data-name="Group 7913">
      <g id="Group_7909" data-name="Group 7909">
        <path id="Path_16563" data-name="Path 16563" d="M3555.26,1215.671c4.507,7.594,7.535,24.025,8.9,35,.7,5.584.843,9.991-3.329,12.078-3.955,1.977-8.4-1.608-10.057-5.819-1.969-4.989-3.812-11.24-7.3-21.87-2.781-8.469-.008-17.014,4.133-20.332C3550.006,1212.809,3553.05,1211.947,3555.26,1215.671Z" fill="#d2eefc" fill-rule="evenodd"/>
        <path id="Path_16564" data-name="Path 16564" d="M3555.26,1215.671c4.507,7.594,7.535,24.025,8.9,35,.7,5.584.843,9.991-3.33,12.078-2.775,1.388-5.79.035-7.915-2.351a48.753,48.753,0,0,0,4.8-1.841c1.377-.619,2.244-.678,1.551-3.933-3.078-14.481-5.822-26.883-10.734-40.562C3550.756,1212.665,3553.328,1212.413,3555.26,1215.671Z" fill="#c3e6f7" fill-rule="evenodd"/>
      </g>
      <g id="Group_7910" data-name="Group 7910">
        <path id="Path_16565" data-name="Path 16565" d="M3542.557,1227.9l-2.395-1.347V1275.4l2.395,1.347Z" fill="#1a0101" fill-rule="evenodd"/>
        <path id="Path_16566" data-name="Path 16566" d="M3540.163,1226.551l-26.833,15.256v48.849l26.833-15.255Z" fill="#240101" fill-rule="evenodd"/>
        <path id="Path_16567" data-name="Path 16567" d="M3540.136,1227.345l-25.785,14.607.143,47.756,2.307,1.306,23.335-16.988,2.26-45.39Z" fill="#e6e6e6" fill-rule="evenodd"/>
        <path id="Path_16568" data-name="Path 16568" d="M3542.557,1227.9l-26.833,15.255V1292l26.833-15.256Z" fill="#380303" fill-rule="evenodd"/>
      </g>
      <g id="Group_7912" data-name="Group 7912">
        <path id="Path_16569" data-name="Path 16569" d="M3528.9,1269.954l1.288-2.79-.724-5.01c-2.434-1.466-4.268-1.956-5.3-1.537a2.53,2.53,0,0,0-.261.09C3520.592,1262.536,3524.333,1271.907,3528.9,1269.954Z" fill="#8f9ba6" fill-rule="evenodd"/>
        <g id="Group_7911" data-name="Group 7911">
          <path id="Path_16570" data-name="Path 16570" d="M3519.045,1274.851a23.266,23.266,0,0,1-6.683-1.961c-1.282-.6-1.681-9.66-1.529-9.685,1.613.28,5.164,1.166,6.89,1.383,2.093-.661,8.709-2.957,10.8-3.618l1.982,4.161.089,4.327a6.121,6.121,0,0,0-2.392.733C3525.2,1271.495,3522.637,1273.827,3519.045,1274.851Z" fill="#e8a476" fill-rule="evenodd"/>
          <path id="Path_16571" data-name="Path 16571" d="M3517.827,1265.527a23.276,23.276,0,0,1-6.683-1.961c-1.282-.6,1.549-.946,2.332-.81,1.614.281,2.939.641,4.664.857,2.093-.66,6.709-2.122,8.75-2.939l1.722.139A108.564,108.564,0,0,1,3517.827,1265.527Z" fill="#f1b287" fill-rule="evenodd"/>
          <path id="Path_16572" data-name="Path 16572" d="M3515.717,1262.694c-.351,2.489,3.452,1.305,4.4.867.828-.067,6.71-1.727,5.56-2.086a6.824,6.824,0,0,0-4.594-.668c-1.255.336-1.3.808-2.664,1.251A14.154,14.154,0,0,1,3515.717,1262.694Z" fill="#f1b287" fill-rule="evenodd"/>
        </g>
        <path id="Path_16573" data-name="Path 16573" d="M3563.835,1259.214a6.24,6.24,0,0,1-2.31,3.084c-1.17.885-2.892,1.273-4.66,2.09-6.841,3.162-17.705,4.268-28.346,5.736.448-5.711-1.416-8.99-4.627-9.418,8.834-3.587,19.547-5.351,28.387-7.959a17.9,17.9,0,0,1,3.338-.648C3559.218,1253.4,3565.569,1254.2,3563.835,1259.214Z" fill="#d2eefc" fill-rule="evenodd"/>
        <path id="Path_16574" data-name="Path 16574" d="M3563.835,1259.214a6.24,6.24,0,0,1-2.31,3.084c-1.17.885-2.892,1.273-4.66,2.09-6.841,3.162-17.705,4.268-28.346,5.736a18.1,18.1,0,0,0-.028-3.4c9.272-3.244,20.058-4.042,29.229-8.163,1.377-.619,2.244-.678,1.551-3.933l-.314-1.477C3562.082,1254.153,3565.1,1255.571,3563.835,1259.214Z" fill="#c3e6f7" fill-rule="evenodd"/>
        <path id="Path_16575" data-name="Path 16575" d="M3549.611,1222.692c2.157,10.824,7.417,21.533,7.766,33.692-9.824,3.385-18.4,5.583-28.491,8.036a6.343,6.343,0,0,0-3.52-3.544l26.681-6.871-2.5-11.586Z" fill="#e0f5ff" fill-rule="evenodd"/>
      </g>
    </g>
    <g id="Group_7914" data-name="Group 7914">
      <path id="Path_16576" data-name="Path 16576" d="M3524.109,1135.178l.332-.295c4.274-.369,5.785-1.4,5.785-2.948v-.074c0-1.253-1.031-2.027-2.8-2.027a8.536,8.536,0,0,0-5.38,2.432l-3.685-4.827a12.956,12.956,0,0,1,9.544-3.869c5.417,0,9.212,2.911,9.212,7.738v.074c0,4.643-3.095,6.6-7.185,7.628l-.443,2.358h-4.422Zm-.59,8.328h7.26v6.264h-7.26Z" fill="#fff"/>
    </g>
  </g>
</svg>
