<svg xmlns="http://www.w3.org/2000/svg" width="120.751" height="300.568" viewBox="0 0 105.71 313.37"><defs><style>.cls-1{isolation:isolate;}.cls-2{fill:#d2eefc;}.cls-10,.cls-11,.cls-12,.cls-13,.cls-14,.cls-15,.cls-16,.cls-17,.cls-18,.cls-19,.cls-2,.cls-20,.cls-21,.cls-22,.cls-23,.cls-24,.cls-25,.cls-26,.cls-27,.cls-28,.cls-29,.cls-3,.cls-30,.cls-4,.cls-5,.cls-6,.cls-7,.cls-8,.cls-9{fill-rule:evenodd;}.cls-3{fill:#c3e6f7;}.cls-4{fill:#8f9ba6;}.cls-5{fill:#f1b287;}.cls-6{fill:#e8a476;}.cls-7{fill:#e0f5ff;}.cls-8{fill:#c1d5de;opacity:0.7;mix-blend-mode:multiply;}.cls-9{fill:#111214;}.cls-11{fill:#20232e;}.cls-12{fill:#001624;}.cls-13{fill:#00101a;}.cls-14{fill:#001e30;}.cls-15{fill:#00263d;}.cls-16{fill:#db9669;}.cls-17{fill:#12a8b3;}.cls-18{fill:#06929c;}.cls-19{fill:#041e2e;}.cls-20{fill:#020d14;}.cls-21{fill:#1abac6;}.cls-22{fill:#b2d9ed;}.cls-23{fill:#ebf9ff;}.cls-24{fill:#361d07;}.cls-25{fill:#241304;}.cls-26{fill:#4a2b12;}.cls-27{fill:#1a0101;}.cls-28{fill:#240101;}.cls-29{fill:#e6e6e6;}.cls-30{fill:#380303;}.cls-31{fill:#fff;}</style></defs><g class="cls-1"><g id="Слой_2" data-name="Слой 2"><g id="ILLUSTRATION"><path class="cls-2" d="M49.46,86.14c-7.81,4.11-24.38,6.29-35.41,7.09-5.61.41-10,.33-11.89-4-1.77-4,2-8.3,6.33-9.74,5.08-1.71,11.42-3.23,22.21-6.17,8.6-2.34,17,.87,20.1,5.18C52.59,81,53.3,84.13,49.46,86.14Z"/><path class="cls-3" d="M49.46,86.14c-7.81,4.11-24.38,6.29-35.41,7.09-5.61.41-10,.33-11.89-4-1.25-2.84.26-5.78,2.75-7.78.46,1.66,1,3.3,1.59,4.89.55,1.41.57,2.27,3.85,1.75C25,85.81,37.5,83.71,51.41,79.51,52.7,81.8,52.82,84.38,49.46,86.14Z"/><path class="cls-4" d="M28.93,51.38l.38,3.16L33,57.84c3.33-.78,5.48-1.84,6.27-3,.06-.09.15-.18.21-.27C41.74,50.6,32.37,46.3,28.93,51.38Z"/><path class="cls-5" d="M51.79,50.37c.93-2.76-3.28-2.68-4.45-2.39-1.71-.09-2.4.35-3.44-.68s-3,6.38-2.88,6.44c.75.08,4-1.57,4.7-2,1.28-.79,1.3-1,3-1.24C49.52,50.39,50.39,50.44,51.79,50.37Z"/><path class="cls-6" d="M51.92,49.72c.09-2.09-3.51-2-4.58-1.74-1.71-.09-2.4.35-3.44-.68-.71-.7-2.94,3.3,1.06,2.79C46.7,49.74,49.08,48.41,51.92,49.72Z"/><path class="cls-5" d="M28.55,52.61c1.76-1.15,3-1.83,3.95-2.53,2.49-1.83.68-4.76,5.35-8.12l5.34-3.84c.69-.5,6.82-.29,8.65.36,1.29.46,6.85,3.11,6.34,3.52s-3,.58-5.33,1.19l-5.06,2.33C43.1,48.23,44.56,51,43,52.44c-2,2-4.5,2.06-7.58,6.2l-4.75-.75-.81-5Z"/><path class="cls-6" d="M28.55,52.61c1.76-1.15,3-1.83,3.95-2.53,2.49-1.83.68-4.76,5.35-8.12l5.34-3.84c.69-.5,6.82-.29,8.65.36.22.08.57.23,1,.41-1.47,1.62-6.47.19-8.21.88a7.74,7.74,0,0,0-3.85,2.87c-1.67,2.31-1.73,3.78-2.72,5.55A36,36,0,0,1,34,53l2.08,5-.68.58-4.75-.75-.81-5Z"/><path class="cls-2" d="M.16,87A6.5,6.5,0,0,1,.64,82.8c.65-1.6,2.15-3.24,3.44-5.26,5-7.78,15.29-17.13,25.13-26.59,3,4.75,6.81,5.83,10.3,3.64C32.76,64.27,23,74,15.67,82.93a27.85,27.85,0,0,1-3,3.11C8.29,87.86,1.41,92.21.16,87Z"/><path class="cls-3" d="M.16,87A6.5,6.5,0,0,1,.64,82.8c.65-1.6,2.15-3.24,3.44-5.26,5-7.78,15.29-17.13,25.13-26.59a13.91,13.91,0,0,0,2.07,2.6C23.88,63.3,13.49,72.36,6.71,82.71,5.7,84.26,4.86,85,7.5,87l1.2.9C5,89.52,1.07,90.78.16,87Z"/><path class="cls-7" d="M43.38,75.48s-25.51,11.9-35,8.64c7.87-10.3,15.19-18.7,23.9-28.48a7.47,7.47,0,0,0,5.67,0L15.16,81.78l10.21-3.67Z"/><path class="cls-8" d="M101.38,291.93,55.57,265.84c-5-2.28-12.14-4.1-17.23-1.45-4.63,2.41-12.27,7.35-15.64,9.28-2.57,1.46-11.47,6.79-5.93,9.81,16.32,8.87,32.46,18.84,49,27.85,3.13,1.71,7.72,2.32,12.53,1.92a33,33,0,0,0,13.56-4l8.13-4.72c3.59-2.1,5.49-4.57,5.68-6.86S104.44,293.33,101.38,291.93Z"/><path class="cls-9" d="M43.25,261.85c-.93,3.27-1.16,5-2.52,6.86-2.71,3.79-6.7,6.5-12.5,10.61-2.77,2-3.35,3.82-.55,5.53,2.2,1.34,7.59.28,11-.52,6.32-1.48,8.87-5.29,11-6.28l1.64.38c1.34,0,6.61-2.11,7.63-3.48a37.6,37.6,0,0,0,.83-4.9c.19-5.35-.65-4.8-2.08-9C52.83,261.41,48.12,261.69,43.25,261.85Z"/><path class="cls-10" d="M25.84,282.4c0,.85.55,1.66,1.84,2.45,2.2,1.34,7.59.28,11-.52,6.32-1.48,8.87-5.29,11-6.28l1.64.38c1.34,0,6.61-2.11,7.63-3.48a37.6,37.6,0,0,0,.83-4.9c.19-5.35-.65-4.8-2.08-9-2.15.16-4.27.3-6.39.42-.38,3.52.13,9.6-2.77,11.86-3.24,2.52-5.77,3.2-7.93,4.51C33.7,282.05,29.15,285.45,25.84,282.4Z"/><path class="cls-11" d="M41.72,267.86c.69,1,2,1.59,4.28,2.15-3.61,4.07-4.12,3.69-9,6.42-2.45,2.79-2.79,3.32-4.35,4.22-1.86,1.08-4.5,2.19-5.6,1.39-.48-.34.16-1.3,2.21-2.78,2.33-1.69,4.7-3.4,6.85-5.18A25.47,25.47,0,0,0,41.72,267.86Z"/><path class="cls-12" d="M61.34,172.49A76.84,76.84,0,0,0,62,160C58.1,158.44,54,157,50,155.2l.29-.24c-4.23-2-7.88-5.07-12.76-7.87-2,6.43-2.8,9.31-2.64,14.54a161.28,161.28,0,0,0,2.28,20.67c.72,10.6,1.67,21.65,2.35,28.88,1.76,18.45,1.54,36.66,2.65,55.08,2.28,3.75,13.31,4,17.08-1.3.56-14.57,1.48-26.07,1.06-34-.34-6.63-.65-10.46-2.8-16.36C58.9,204.74,60.82,186.67,61.34,172.49Z"/><path class="cls-9" d="M79.74,281.22c.81,2.36,1.55,4.19,1.47,5.67s-.49,3-.48,5c0,1.66.11,3.08.3,5s0,2.84-.85,3.61c-1.38,1.26-5.48,3.19-7.42,3.85a7.82,7.82,0,0,1-3.4.46,15.14,15.14,0,0,1-4.56-.83c-.42-.16-.85-1.79-.88-3.2-.06-3,.2-2.7,1.43-7.39.42-1.6.75-3.12,1.33-5,.71-2.33,1.6-4.38,1.7-6.67l8.65-.34Z"/><path class="cls-10" d="M79.74,281.22c.81,2.36,1.55,4.19,1.47,5.67s-.49,3-.48,5c0,1.66.11,3.08.3,5s0,2.84-.85,3.61c-1.38,1.26-5.48,3.19-7.42,3.85a7.82,7.82,0,0,1-3.4.46,15.14,15.14,0,0,1-4.56-.83c-.38-.14-.77-1.49-.86-2.79h0c2.65.9,5.21,1.26,7.76,0,5.36-2.62,4.66-4.8,4.16-11-3.49-.62-4.86-1.24-6.63-3.15,3,.87,6.17,1,7.75-.79l.49-4.92Z"/><path class="cls-13" d="M48.49,214.5C52.11,231.59,53,243.65,50.71,269c3.33-.25,6.72-1.51,8.5-4,.56-14.57,1.48-26.07,1.06-34-.34-6.63-.65-10.46-2.8-16.36,1.84-12.62,4.49-38.89,3.93-53l-7.55-3C51.56,179.39,50.11,190.14,48.49,214.5Z"/><path class="cls-14" d="M56.31,180c1.4,14.19,4.13,33.93,5.71,44,2.89,18.31,3.34,39.78,5,58.16,2.5,3.91,11.92,4.72,15.53-.15.16-14.58,1.48-30.9.85-38.86a50.27,50.27,0,0,0-4-16.48c.37-11.37,6.3-58.06-1.54-67.22a6.9,6.9,0,0,0-1.47-2.07L65,156.49l-13.54-1.58a39.23,39.23,0,0,0,.1,16.08,2.93,2.93,0,0,0,.3.66c.13,1,.3,1.92.52,2.89S54.74,177.91,56.31,180Z"/><path class="cls-12" d="M68.7,170.62c1.55,3.6,2.75,9.63,2.82,15.67.2,8.64.84,29.07,1.66,38.79,1.61,19.07,5.24,35,2.37,60.28a9.3,9.3,0,0,0,7-3.35c.16-14.58,1.48-30.9.85-38.86a50.27,50.27,0,0,0-4-16.48c.37-11.59,6.54-59.92-2-67.72l-13-.89C66,162.9,66.57,165.69,68.7,170.62Z"/><path class="cls-11" d="M67.93,287.51c2.5,2,1.62,2.84,5.28,3.31A20.69,20.69,0,0,1,70.36,298c-.15,1.37-.26,3.18-2.94,3.2-5,0-1.54-4.1-1.52-4.26A41.68,41.68,0,0,1,67.93,287.51Z"/><path class="cls-14" d="M38,151.18a35.44,35.44,0,0,0,9.43,6.62c0,6.46,0,18.43-.23,30.4,0,7.07-.14,14.28-.45,20.28,0,.29,0,.58,0,.87.6,5,2.93,7.79,3.22,15.27a189.51,189.51,0,0,1-2.23,31.44c0,4,.08,8,0,12a7.79,7.79,0,0,1-5.3-2.19l-.3-45.31c-.28-7.22-1.39-18-2.29-29.15C38,178.1,36.12,162.69,38,151.18Z"/><path class="cls-15" d="M63.89,160.75h0c1.6,6.63,3.82,15.18,6.11,21.52,1.67,14.42,1.24,30.15,1.44,41.26,1.5,20.34,3.2,40.71,4.22,61.07-1.85-.16-6-1-6.94-1.88-1.11-16.58-.91-40-3-55.54-.42-3.18-3.49-30.2-7.19-45.51-1.24-5.13-4.79-5-5.51-8-1.56-6.4-1.59-10-1-16.94C56,158.22,59.89,159.61,63.89,160.75Z"/><path class="cls-6" d="M68.11,80.46c.4,4.74-12.57,11-17.51,8.52-.53-.25-.8-1.35-1.12-1.79.3-1.21-.11-1.73-.22-3a15.16,15.16,0,0,0-.72-4c-.59-1.6-.28-4.92-1.3-8.68L62,65.13l3.17-1.68C63.69,70.84,65.36,74.27,68.11,80.46Z"/><path class="cls-16" d="M68.11,80.46a2,2,0,0,1-.07.8c-7-4.42-11.38-.72-19.6-2.91a53.25,53.25,0,0,0-1.2-6.77L62,65.13l3.17-1.68C63.69,70.84,65.36,74.27,68.11,80.46Z"/><path class="cls-17" d="M36.08,146.75a2,2,0,0,0,.38.9c4.18,5.83,30.43,14.62,35.93,14.17-4.36-37.91,35.34-70.19-7.2-82.68L53,85.87l-4.38-.78L48,79.7c-5.92,5.89-8.66,13.69-9.71,24.54C36.92,118.44,39.9,131.17,36.08,146.75Z"/><path class="cls-18" d="M55.41,157.63c7.28,2.59,14.41,4.4,17,4.19-4.36-37.91,35.34-70.19-7.2-82.68L53,85.87l-4.38-.78L48,79.7a28.66,28.66,0,0,0-6.09,9l.35.39c3.19-1,4.87-2.31,6.52-1.58,1.35.6,2.91,2.73,3.39,6.12,1.93-.48,5.61-1.86,7.52-2.41-7.09,10.57-13.7,33.3-8.74,57C51.57,151.17,54.08,154.58,55.41,157.63Z"/><path class="cls-19" d="M52.56,87.11c-.71,3-.82,3-3.51,5,.33,1.5.54,2.8.76,4.34-4.39,12.72-6.73,23.48-9.3,38.51-.31-15.38.45-27,3.79-43.06a9.52,9.52,0,0,1,2.77-1c-.73-3.26-.32-5.37.35-5.76C49.83,85,50.83,85.31,52.56,87.11Z"/><path class="cls-20" d="M52.56,87.11c-.71,3-.82,3-3.51,5,.33,1.5.54,2.8.76,4.34-4.39,12.72-6.73,23.48-9.3,38.51,1.37-18.33,3.77-25.74,7.64-38.26a33.89,33.89,0,0,1-.34-5.33c1.73-1.53,2.47-1.68,2.91-2.73s-1.54-3.28-1.22-3.47C50.7,85.5,50.83,85.31,52.56,87.11Z"/><path class="cls-21" d="M49.94,85.29c-.3-.76-.45-2.35-.78-3.73a16.22,16.22,0,0,0-1-2.9c-1.68.22-2.42,5.3-3.85,8.3A7.77,7.77,0,0,1,49.94,85.29Z"/><path class="cls-21" d="M65.63,74.71c.34,5.44-10,9.22-15.74,10.59C51.33,87,53.2,89.24,53.13,91c4.15-1.14,11.19-3.09,14.05-8.4A5.84,5.84,0,0,0,65.63,74.71Z"/><path class="cls-2" d="M46.12,70.79c-4.29-.2-6.28.79-8.62,4.27-4.19,6.25-4.85,19.56-4.55,31.56.17,6.8,1.24,12.78,1.33,21.22.07,6.81-1.3,17.1-2.06,26.36-.36,4.52-.59,48.34-.42,51.85.91,2,7.41,5.31,8.27,5.14-.4-5.05-.75-50.55-1-57-.72-20.3-.2-45.34,4.12-62,1.08-4.17,1.69-8.93,4-12.59.39-.6.78-1.18,1.13-1.73a47,47,0,0,0-1.13-6.32l1.1-.48A19.92,19.92,0,0,0,46.12,70.79Z"/><path class="cls-2" d="M79.41,84.66c-2.34-1.3-7.1-4.21-12.24-7.09,4.33,5.19-6.12,17.65-11,33.2-1.65,5.28-2.72,13-3,20.65-.25,7.4,2.1,82.27,3.78,88.26,4.9,3.38,9.74,3.62,14.88,1.5a49.46,49.46,0,0,0,12.48-7.89c-2-13.95,1.44-42.24-3.49-53.32-2.39-5.38-4.9-7.63-5.15-14.39-.35-9.68,13.24-35.5,13.11-48.87C88.77,90.78,83.78,87.08,79.41,84.66Z"/><path class="cls-3" d="M79.41,84.66l-11.9-6.6C69.29,80.91,74,84,79.13,88.28a23.41,23.41,0,0,0-6.6,11.65c-2.69,10.63-6.8,24.62-7.5,34.33-1.13,15.47,2.57,22.44,5.76,29.34,2.16,4.67,4.09,48.88,4.12,56.12a49.6,49.6,0,0,0,9.39-6.43c-.44-4.2-.23-26.88-1.09-41.09a38.47,38.47,0,0,0-3.85-15.39c-1.68-3.21-3.26-5.69-3.64-11.23-.66-9.67,13.24-35.5,13.11-48.87C88.77,90.78,83.78,87.08,79.41,84.66Z"/><path class="cls-22" d="M65,134.26c-.18,2.47-.24,4.72-.19,6.78,6.55-6,12.7-13.6,18.44-21.87,2.94-8.27,5.61-16.57,5.55-22.46Z"/><path class="cls-23" d="M47.63,75.26a15.42,15.42,0,0,0-8.12,6.5l2.29,1.78-3,1.49a207,207,0,0,0,.26,42.66c.6-11.87.8-26.73,5.53-38.48.74-1.85,3.25-10.41,3.82-11.22A27.45,27.45,0,0,0,47.63,75.26Z"/><path class="cls-7" d="M69.74,82.93,77,88.24c-6,9.91-14.08,28.5-14.3,47.3-.1,9.06,6.77,46.32,9.59,82.89-5.36,3.25-11.58,1.84-14.42-.76-2.86-18.42-3.29-90.47.58-105.1C61.77,100,67.47,90.94,69.74,82.93Z"/><path class="cls-2" d="M70.68,145.75c-5.85-.2-7.46-.21-12.52.7l2.33,14c3.28,1.39,7.93,1,12-.69Z"/><path class="cls-3" d="M70.68,145.75c-5.85-.2-7.46-.21-12.52.7.73,4.17.38,4.13,4.85,4.39,8,.48,5.53,1.37,8.28,9.37.12.35.83-.3,1.24-.47Z"/><path class="cls-2" d="M70.25,144c-5.88-.18-8.51-.63-12.87-.65l1.12,5.57c1.49.78,9.32,1.7,12.78.07Z"/><path class="cls-3" d="M70.25,144c-5.88-.18-8.51-.63-12.87-.65,4.25,1.58,11.43,1.15,12.68,6.07a7.24,7.24,0,0,0,1.22-.43Z"/><path class="cls-7" d="M59.24,151.32l7.36,1.19,3,7.33a25.46,25.46,0,0,1-8.18.45Z"/><path class="cls-7" d="M58,144.05c3.44,1,8.27,2.51,10.3,5.07a26.18,26.18,0,0,1-9-.59A21,21,0,0,1,58,144.05Z"/><path class="cls-2" d="M36.84,138.73c-1.73-1.89-2.21-2.36-3.81-2.9l-1.21,15.62c.81,1.27,3.46,2.32,4.26,2Z"/><path class="cls-3" d="M36.84,138.73c-1.73-1.89-2.21-2.36-3.81-2.9-.18,4.43-.28,4.29,1,5.85,2.34,2.79,1.44,3,1.52,11.88a1.36,1.36,0,0,0,.49-.12Z"/><path class="cls-7" d="M32.89,141.07,35,144.41,34.8,153a4.49,4.49,0,0,1-2.57-1.88Z"/><path class="cls-2" d="M37.47,135c-1.93-.85-2.73-1.63-4.19-2.14l-.67,6c.35,1,2.8,2.84,4.26,1.51Z"/><path class="cls-3" d="M37.47,135c-1.93-.85-2.73-1.63-4.19-2.14,1.13,2.14,3.62,2.5,3.1,7.82a1.5,1.5,0,0,0,.49-.31Z"/><path class="cls-7" d="M33.36,133.73a13.25,13.25,0,0,1,2.48,6.5c-1.35-.09-1.77-.43-2.91-1.64C33,137,33.17,135.48,33.36,133.73Z"/><path class="cls-23" d="M71.21,79.76c1.71,4.14.48,11.6-1.57,18.78L65.47,97l2,4.55c-8.39,11-13.09,27.3-13.74,44.07-4.53-36.32,8.59-51.16,12.2-63.88.49-1.71,1.62-4.41.86-5.93A10.28,10.28,0,0,1,71.21,79.76Z"/><path class="cls-5" d="M51.1,77.14c1.95-.78,6.4-1.59,8.17-2.41C63.13,73,63.43,69,65.41,64.27c3.6-1.61,5-3.18,5.72-5.13,1.64-4.65,0-10.37-3.11-13.93a13,13,0,0,0-10.54-4.5c-8.38.12-12.93,5.52-14.77,12.37a4.76,4.76,0,0,0-.13,1.77c.15,1.49.62,2.23.74,3.24.28,2.38-.75,1.95-1,4.29-.38,3.8.25,7.38.87,11.57.18,1.23.43,1.8,1.14,2.27a17.09,17.09,0,0,0,2.54,1.08C47.75,77.67,48.62,77.81,51.1,77.14Z"/><path class="cls-6" d="M51.1,77.14c1.95-.78,6.4-1.59,8.17-2.41C63.13,73,63.43,69,65.41,64.27c3.6-1.61,5-3.18,5.72-5.13,1.64-4.65,0-10.37-3.11-13.93a13,13,0,0,0-10.54-4.5c-7.28.11-11.67,4.19-13.9,9.76.3.77,7.1,4.34,13.28,4.38.46,2.79-1,5.08-1.06,6.48s0,2.49-.18,3.24c-.18,1.11-1.32,2-1.5,3.57-.56,5.21-3.43,8.53-5.76,9.47A10.87,10.87,0,0,0,51.1,77.14Z"/><path class="cls-24" d="M46.42,49c-.92,0-2-.5-2.79,1.39.55-3.1,1.49-3.39,3.4-3.68Z"/><path class="cls-24" d="M58,53.11c5.87-.59,12.38-4.72,13.9-7.37C75.08,52,74.32,60.33,69.4,65.4c-1.41,2.69-2.8,5.33-4.13,8.06a57.12,57.12,0,0,1-1.9-11.52l-.25-.36c-.34.7-1.19,2.44-1.5,3.16-.37,0-1-.53-1.49-.85C61.16,58.48,60.88,55.13,58,53.11Z"/><path class="cls-24" d="M57.61,52.84c-6.16-.53-14.28-3.36-17.37-8,5.6.85,11.94-7.5,20.78-6.67,5.12.48,10.66,3.1,10.9,7.57C70.24,47.9,62.76,53.3,57.61,52.84Z"/><path class="cls-25" d="M57.87,53.11c-6.17-.54-14.54-3.63-17.63-8.31h.06A21.17,21.17,0,0,0,55,46.76a5.69,5.69,0,0,1-2.15-1.06c4.65.25,7.85.47,11.87-2a8,8,0,0,1-3.21.17c2.39-.56,4.65-2.49,8.31-2.24A5.77,5.77,0,0,1,72,45.86C70.49,48.43,63,53.56,57.87,53.11Z"/><path class="cls-6" d="M65.22,59.89c3.31-.75,3,2.94,2.22,5.13-.5,1.5-1.76,1.25-2.35,2.41a2.91,2.91,0,0,1-2.84,1.82c-1.94-.26-.44-3-.09-4.14C62.13,63.21,63.12,60.37,65.22,59.89Z"/><path class="cls-26" d="M72,46.3c.48,1.08,1.61,4.05,1.29,6.2a7.61,7.61,0,0,0-2-3.63c1.25,2,1.44,4.47.58,7.43,0-2.56-.3-4-2.15-5.45,1.35,2.54.85,7.2.09,9.22-.24-2.9-.47-6.85-2.94-7.68,1.44,2.34,1.23,3.64.37,6-.25-2.59-1-4-2.8-5,0,2.35-.77,6.73-3.1,8.77.2-.93,1.38-7.17.14-8a4.46,4.46,0,0,1-.16,3,5.35,5.35,0,0,0-2.55-3.63C63.74,53.24,71,48.7,72,46.3Z"/><path class="cls-26" d="M69,40.88c-2.51-2-6.92-3-10.09-2.8-2.69.12-5.29,1.23-7.71,1.77a6.57,6.57,0,0,0,1.93.06c-4.27,1.19-7.83,5-12.82,4.88a9.53,9.53,0,0,0,5.81-.22A12.9,12.9,0,0,1,44,45.63c4.75.37,7.88-2.21,12.18-3.71a5.32,5.32,0,0,1-2.6,1.59C58.15,42.67,62.41,39,69,40.88Z"/><path class="cls-2" d="M87.61,92.1c4.51,7.59,7.53,24,8.9,35,.7,5.59.85,10-3.33,12.08-4,2-8.39-1.61-10.05-5.82-2-5-3.82-11.24-7.31-21.87-2.78-8.47,0-17,4.14-20.33C82.36,89.24,85.4,88.38,87.61,92.1Z"/><path class="cls-3" d="M87.61,92.1c4.51,7.59,7.53,24,8.9,35,.7,5.59.85,10-3.33,12.08-2.77,1.39-5.79,0-7.91-2.35a49.51,49.51,0,0,0,4.8-1.84c1.38-.62,2.24-.68,1.55-3.93-3.08-14.48-5.82-26.89-10.73-40.57C83.11,89.09,85.68,88.84,87.61,92.1Z"/><polygon class="cls-27" points="74.91 104.33 72.51 102.98 72.51 151.83 74.91 153.18 74.91 104.33"/><polygon class="cls-28" points="72.51 102.98 45.68 118.24 45.68 167.09 72.51 151.83 72.51 102.98"/><polygon class="cls-29" points="72.48 103.78 46.7 118.38 46.84 166.14 49.15 167.44 72.48 150.46 74.75 105.07 72.48 103.78"/><polygon class="cls-30" points="74.91 104.33 48.07 119.58 48.07 168.43 74.91 153.18 74.91 104.33"/><path class="cls-4" d="M61.25,146.38l1.29-2.79-.73-5c-2.43-1.46-4.27-2-5.3-1.53a2.67,2.67,0,0,0-.26.09C52.94,139,56.68,148.34,61.25,146.38Z"/><path class="cls-6" d="M51.39,151.28a23.26,23.26,0,0,1-6.68-2c-1.28-.6-1.68-9.66-1.53-9.69,1.62.29,5.17,1.17,6.89,1.39,2.1-.66,8.71-3,10.8-3.62l2,4.16.09,4.33a6.25,6.25,0,0,0-2.4.73C57.55,147.92,55,150.26,51.39,151.28Z"/><path class="cls-5" d="M50.18,142a23.34,23.34,0,0,1-6.69-2c-1.28-.61,1.55-.95,2.34-.81,1.61.28,2.93.64,4.66.85,2.09-.66,6.71-2.12,8.75-2.94l1.72.14A107.77,107.77,0,0,1,50.18,142Z"/><path class="cls-5" d="M48.07,139.12c-.35,2.49,3.45,1.31,4.39.87.83-.07,6.71-1.73,5.56-2.09a6.81,6.81,0,0,0-4.59-.66c-1.26.33-1.3.8-2.66,1.25A14,14,0,0,1,48.07,139.12Z"/><path class="cls-2" d="M96.18,135.64a6.26,6.26,0,0,1-2.3,3.09c-1.18.88-2.9,1.27-4.67,2.09-6.84,3.16-17.7,4.27-28.34,5.73.45-5.71-1.42-9-4.63-9.41,8.84-3.59,19.55-5.35,28.39-8a17.51,17.51,0,0,1,3.34-.65C91.57,129.83,97.92,130.64,96.18,135.64Z"/><path class="cls-3" d="M96.18,135.64a6.26,6.26,0,0,1-2.3,3.09c-1.18.88-2.9,1.27-4.67,2.09-6.84,3.16-17.7,4.27-28.34,5.73a18.17,18.17,0,0,0,0-3.4c9.27-3.24,20.06-4,29.23-8.16,1.38-.62,2.24-.68,1.55-3.93l-.31-1.48C94.43,130.58,97.45,132,96.18,135.64Z"/><path class="cls-7" d="M82,99.12c2.16,10.83,7.42,21.53,7.77,33.69-9.83,3.39-18.4,5.59-28.49,8a6.34,6.34,0,0,0-3.52-3.54l26.68-6.88-2.5-11.58Z"/><path class="cls-31" d="M56.46,11.61l.33-.3c4.28-.37,5.79-1.4,5.79-3V8.29c0-1.25-1-2-2.8-2A8.5,8.5,0,0,0,54.4,8.7L50.71,3.87A13,13,0,0,1,60.25,0c5.42,0,9.22,2.91,9.22,7.74v.07c0,4.65-3.1,6.6-7.19,7.63l-.44,2.36H57.42Zm-.59,8.33h7.26V26.2H55.87Z"/></g></g></g></svg>
