<svg xmlns="http://www.w3.org/2000/svg" width="118.917" height="288.487" viewBox="0 0 118.917 288.487">
  <g id="Group_11507" data-name="Group 11507" transform="translate(-7950.559 -1198.229)">
    <path id="Path_23906" data-name="Path 23906" d="M8064.936,1464.247l-48-27.335c-5.232-2.391-12.721-4.294-18.052-1.52-4.857,2.528-12.859,7.7-16.4,9.719-2.687,1.533-12.015,7.122-6.205,10.282,17.092,9.294,34.007,19.746,51.363,29.188,3.282,1.786,8.084,2.431,13.125,2.012a34.75,34.75,0,0,0,14.216-4.234q4.326-2.516,8.511-4.954c3.765-2.192,5.761-4.784,5.959-7.18C8069.652,1467.883,8068.147,1465.714,8064.936,1464.247Z" fill="#c1d5de" fill-rule="evenodd" opacity="0.7" style="mix-blend-mode: multiply;isolation: isolate"/>
    <g id="Group_11492" data-name="Group 11492">
      <g id="Group_11491" data-name="Group 11491">
        <path id="Path_23907" data-name="Path 23907" d="M8004.029,1432.73c-.975,3.424-1.22,5.191-2.642,7.183-2.835,3.974-7.016,6.811-13.1,11.126-2.9,2.053-3.508,4-.576,5.789,2.31,1.41,7.959.29,11.488-.54,6.622-1.558,9.3-5.543,11.563-6.579l1.715.388c1.4.025,6.921-2.2,8-3.644a39.378,39.378,0,0,0,.863-5.132c.205-5.6-.674-5.034-2.173-9.418C8014.068,1432.272,8009.133,1432.558,8004.029,1432.73Z" fill="#111214" fill-rule="evenodd"/>
        <path id="Path_23908" data-name="Path 23908" d="M7985.789,1454.262c-.029.886.57,1.743,1.919,2.566,2.31,1.41,7.959.29,11.488-.54,6.622-1.558,9.3-5.543,11.563-6.579l1.715.388c1.4.025,6.921-2.2,8-3.644a39.378,39.378,0,0,0,.863-5.132c.205-5.6-.674-5.034-2.173-9.418-2.255.163-4.478.311-6.7.438-.4,3.69.137,10.054-2.9,12.423-3.4,2.648-6.045,3.353-8.313,4.733C7994.023,1453.89,7989.248,1457.462,7985.789,1454.262Z" fill-rule="evenodd"/>
        <path id="Path_23909" data-name="Path 23909" d="M8002.422,1439.023c.723,1.067,2.143,1.668,4.491,2.253-3.787,4.269-4.321,3.87-9.408,6.728-2.562,2.928-2.919,3.484-4.555,4.428-1.952,1.129-4.709,2.287-5.869,1.454-.5-.358.172-1.36,2.323-2.919,2.44-1.768,4.923-3.56,7.169-5.428A26.446,26.446,0,0,0,8002.422,1439.023Z" fill="#20232e" fill-rule="evenodd"/>
      </g>
      <path id="Path_23910" data-name="Path 23910" d="M8022.988,1339.1a81.687,81.687,0,0,0,.722-13.079c-4.126-1.65-8.464-3.211-12.647-5.041l.3-.252c-4.435-2.081-8.256-5.314-13.37-8.248-2.139,6.736-2.932,9.753-2.769,15.233a168.4,168.4,0,0,0,2.4,21.666c.747,11.1,1.744,22.68,2.464,30.259,1.835,19.335,1.611,38.409,2.768,57.711,2.4,3.932,13.954,4.174,17.9-1.354.591-15.269,1.547-27.326,1.115-35.68-.361-6.955-.691-10.962-2.941-17.144C8020.426,1372.88,8022.442,1353.946,8022.988,1339.1Z" fill="#001624" fill-rule="evenodd"/>
      <path id="Path_23911" data-name="Path 23911" d="M8042.267,1453.023c.846,2.473,1.62,4.389,1.54,5.945-.081,1.61-.521,3.177-.5,5.213.018,1.748.108,3.233.31,5.21.207,2.023-.005,2.98-.892,3.788-1.442,1.313-5.737,3.344-7.774,4.034a8.178,8.178,0,0,1-3.564.479,15.9,15.9,0,0,1-4.777-.87c-.439-.166-.889-1.871-.921-3.351-.068-3.1.213-2.834,1.5-7.743.438-1.676.792-3.275,1.394-5.234.75-2.438,1.683-4.585,1.779-6.986l9.069-.353Z" fill="#111214" fill-rule="evenodd"/>
      <path id="Path_23912" data-name="Path 23912" d="M8042.267,1453.023c.846,2.473,1.62,4.389,1.54,5.945-.081,1.61-.521,3.177-.5,5.213.018,1.748.108,3.233.31,5.21.207,2.023-.005,2.98-.892,3.788-1.442,1.313-5.737,3.344-7.774,4.034a8.178,8.178,0,0,1-3.564.479,15.9,15.9,0,0,1-4.777-.87c-.4-.15-.8-1.563-.9-2.926l.024,0c2.771.944,5.461,1.322,8.124.022,5.621-2.746,4.89-5.026,4.36-11.505-3.656-.644-5.093-1.3-6.948-3.3,3.117.916,6.468,1.08,8.126-.825l.516-5.156Z" fill-rule="evenodd"/>
      <path id="Path_23913" data-name="Path 23913" d="M8009.517,1383.109c3.79,17.913,4.75,30.553,2.329,57.07,3.489-.258,7.044-1.581,8.906-4.188.591-15.269,1.547-27.326,1.115-35.68-.361-6.955-.691-10.962-2.941-17.144,1.929-13.226,4.711-40.749,4.123-55.5l-7.917-3.166C8012.732,1346.327,8011.217,1357.583,8009.517,1383.109Z" fill="#00101a" fill-rule="evenodd"/>
      <path id="Path_23914" data-name="Path 23914" d="M8017.713,1346.957c1.462,14.877,4.324,35.554,5.986,46.112,3.021,19.186,3.494,41.681,5.19,60.944,2.621,4.1,12.5,4.944,16.279-.157.163-15.279,1.55-32.387.885-40.726a52.679,52.679,0,0,0-4.13-17.27c.38-11.908,6.593-60.83-1.614-70.429a7.205,7.205,0,0,0-1.545-2.173l-11.958-.934-14.183-1.651a41.089,41.089,0,0,0,.1,16.844,2.682,2.682,0,0,0,.319.7c.135,1,.315,2.015.543,3.028C8013.8,1342.169,8016.068,1344.767,8017.713,1346.957Z" fill="#001e30" fill-rule="evenodd"/>
      <path id="Path_23915" data-name="Path 23915" d="M8030.693,1337.133c1.629,3.77,2.887,10.093,2.962,16.415.2,9.056.878,30.464,1.737,40.655,1.686,19.978,5.492,36.628,2.478,63.156a9.721,9.721,0,0,0,7.3-3.5c.164-15.279,1.551-32.387.886-40.726a52.679,52.679,0,0,0-4.13-17.27c.387-12.145,6.844-62.789-2.117-70.958l-13.659-.934C8027.906,1329.04,8028.461,1331.962,8030.693,1337.133Z" fill="#001624" fill-rule="evenodd"/>
      <path id="Path_23916" data-name="Path 23916" d="M8029.885,1459.614c2.623,2.069,1.705,2.974,5.535,3.474a21.5,21.5,0,0,1-2.985,7.466c-.155,1.443-.271,3.337-3.082,3.355-5.248.034-1.607-4.3-1.589-4.461A43.4,43.4,0,0,1,8029.885,1459.614Z" fill="#20232e" fill-rule="evenodd"/>
      <path id="Path_23917" data-name="Path 23917" d="M7998.5,1316.758a37.03,37.03,0,0,0,9.884,6.942c.014,6.772.01,19.314-.244,31.85-.027,7.414-.147,14.966-.467,21.251-.012.3-.021.61-.03.917.63,5.217,3.076,8.162,3.383,16,.342,8.739-.791,23.377-2.34,32.939.051,4.2.078,8.378.043,12.548a8.213,8.213,0,0,1-5.556-2.3l-.31-47.483c-.3-7.567-1.464-18.894-2.4-30.544C7998.484,1344.967,7996.56,1328.823,7998.5,1316.758Z" fill="#001e30" fill-rule="evenodd"/>
      <path id="Path_23918" data-name="Path 23918" d="M8025.656,1326.794l.034.01a234.213,234.213,0,0,0,6.4,22.551c1.743,15.1,1.3,31.586,1.509,43.233,1.573,21.306,3.353,42.655,4.417,63.988-1.94-.168-6.24-1.034-7.27-1.969-1.164-17.372-.958-41.869-3.122-58.2-.442-3.333-3.659-31.646-7.539-47.69-1.3-5.375-5.017-5.275-5.77-8.366-1.632-6.7-1.667-10.469-1-17.752C8017.4,1324.134,8021.463,1325.6,8025.656,1326.794Z" fill="#00263d" fill-rule="evenodd"/>
    </g>
    <g id="Group_11493" data-name="Group 11493">
      <path id="Path_23919" data-name="Path 23919" d="M7977.613,1293.447l-.708-2.262-.676-4.68c-2.273-1.37-3.987-1.827-4.953-1.436-.078.032-.174.046-.245.084C7967.942,1286.862,7974.645,1296.36,7977.613,1293.447Z" fill="#8f9ba6" fill-rule="evenodd"/>
      <path id="Path_23920" data-name="Path 23920" d="M7958.812,1287.68c-1.491,2.66,2.856,3.4,4.118,3.317,1.739.426,2.542.111,3.41,1.367.973,1.409,4.319-5.99,4.208-6.072-.755-.227-4.436.836-5.225,1.145-1.469.574-1.532.818-3.272.718C7961.149,1288.1,7960.265,1287.882,7958.812,1287.68Z" fill="#f1b287" fill-rule="evenodd"/>
      <path id="Path_23921" data-name="Path 23921" d="M7958.551,1288.326c-.5,2.135,3.226,2.744,4.379,2.671,1.739.426,2.542.111,3.41,1.367.6.865,3.67-2.828-.552-3.072C7963.926,1289.314,7961.216,1290.223,7958.551,1288.326Z" fill="#e8a476" fill-rule="evenodd"/>
      <path id="Path_23922" data-name="Path 23922" d="M7983.18,1289.867c-2.04.839-3.454,1.3-4.559,1.836-2.918,1.413-1.627,4.776-7.077,7.331l-6.241,2.924c-.815.383-7.09-1.018-8.843-2.042-1.245-.728-6.451-4.528-5.853-4.853.447-.243,3.188-.018,5.726-.19l5.655-1.43c5.359-1.878,4.377-4.963,6.276-6.2,2.472-1.608,5.033-1.247,9-4.918l4.745,1.69-.13,5.33Z" fill="#f1b287" fill-rule="evenodd"/>
      <path id="Path_23923" data-name="Path 23923" d="M7983.18,1289.867c-2.04.839-3.454,1.3-4.559,1.836-2.918,1.413-1.627,4.776-7.077,7.331l-6.241,2.924c-.815.383-7.09-1.018-8.843-2.042-.215-.126-.549-.344-.951-.619,1.823-1.38,6.694,1.06,8.624.679a8.13,8.13,0,0,0,4.522-2.2c2.168-2.064,2.511-3.562,3.87-5.191.961-1.151,2.56-2.237,5.1-4.209l-1.172-5.576q.4-.222.815-.469l4.745,1.69-.13,5.33Z" fill="#e8a476" fill-rule="evenodd"/>
      <path id="Path_23924" data-name="Path 23924" d="M8004.588,1279.452c-10.224,6.532-16.475,8.4-27.165,14.147-.322-5.173-4.61-8.69-6.745-8.253,8.6-5.911,18.711-13.836,28.457-17.877Z" fill="#d2eefc" fill-rule="evenodd"/>
      <path id="Path_23925" data-name="Path 23925" d="M8004.588,1279.452c-10.224,6.532-16.475,8.4-27.165,14.147a10.1,10.1,0,0,0-2.013-5.422c5.01-2.454,11.562-6.785,18.4-11.244,1.146-.932-.365-4.774-.5-6.663Z" fill="#c3e6f7" fill-rule="evenodd"/>
    </g>
    <g id="Group_11495" data-name="Group 11495">
      <path id="Path_23926" data-name="Path 23926" d="M8030.077,1242.66c.423,4.965-13.172,11.467-18.353,8.925-.545-.267-.831-1.415-1.168-1.878.315-1.271-.115-1.814-.229-3.109a15.885,15.885,0,0,0-.757-4.147c-.618-1.68-.288-5.164-1.358-9.1l15.5-6.757,3.32-1.761C8025.445,1232.575,8027.2,1236.173,8030.077,1242.66Z" fill="#e8a476" fill-rule="evenodd"/>
      <path id="Path_23927" data-name="Path 23927" d="M8030.077,1242.66a2.24,2.24,0,0,1-.068.835c-7.348-4.627-11.924-.751-20.543-3.054a56.72,56.72,0,0,0-1.254-7.088l15.5-6.757,3.321-1.761C8025.445,1232.575,8027.2,1236.173,8030.077,1242.66Z" fill="#db9669" fill-rule="evenodd"/>
      <g id="Group_11494" data-name="Group 11494">
        <path id="Path_23928" data-name="Path 23928" d="M7996.517,1312.122a2.162,2.162,0,0,0,.391.943c4.385,6.111,31.9,15.322,37.652,14.844-4.568-39.726,37.035-73.544-7.541-86.639l-12.824,7.059-4.589-.824-.588-5.648c-6.207,6.172-9.076,14.349-10.181,25.72C7997.392,1282.453,8000.514,1295.8,7996.517,1312.122Z" fill="#12a8b3" fill-rule="evenodd"/>
        <path id="Path_23929" data-name="Path 23929" d="M8016.772,1323.52c7.627,2.712,15.093,4.612,17.788,4.389-4.568-39.726,37.035-73.544-7.541-86.639l-12.824,7.059-4.589-.824-.588-5.648a30,30,0,0,0-6.388,9.413l.367.4c3.347-1.06,5.1-2.417,6.831-1.654,1.423.629,3.05,2.868,3.552,6.42,2.022-.506,5.878-1.958,7.883-2.53-7.429,11.079-14.359,34.89-9.159,59.755C8012.75,1316.755,8015.379,1320.329,8016.772,1323.52Z" fill="#06929c" fill-rule="evenodd"/>
        <path id="Path_23930" data-name="Path 23930" d="M8013.784,1249.626c-.742,3.1-.862,3.085-3.681,5.218.348,1.574.573,2.932.8,4.545-4.595,13.329-7.047,24.607-9.744,40.358-.327-16.114.474-28.347,3.967-45.124a9.853,9.853,0,0,1,2.91-1.051c-.772-3.417-.341-5.621.36-6.035C8010.922,1247.444,8011.974,1247.743,8013.784,1249.626Z" fill="#041e2e" fill-rule="evenodd"/>
        <path id="Path_23931" data-name="Path 23931" d="M8013.784,1249.626c-.742,3.1-.862,3.085-3.681,5.218.348,1.574.573,2.932.8,4.545-4.595,13.329-7.047,24.607-9.744,40.358,1.43-19.208,3.954-26.976,8.009-40.1a34.664,34.664,0,0,1-.358-5.586c1.8-1.6,2.582-1.759,3.043-2.859.41-.974-1.606-3.438-1.278-3.633C8011.836,1247.936,8011.974,1247.743,8013.784,1249.626Z" fill="#020d14" fill-rule="evenodd"/>
        <path id="Path_23932" data-name="Path 23932" d="M8011.039,1247.721c-.316-.8-.477-2.464-.817-3.908a17.074,17.074,0,0,0-1.078-3.039c-1.764.225-2.535,5.551-4.033,8.7C8007.43,1247.856,8008.437,1247.714,8011.039,1247.721Z" fill="#1abac6" fill-rule="evenodd"/>
        <path id="Path_23933" data-name="Path 23933" d="M8027.481,1236.631c.354,5.7-10.462,9.658-16.5,11.094,1.514,1.828,3.471,4.126,3.393,5.953,4.353-1.191,11.735-3.239,14.726-8.8A6.111,6.111,0,0,0,8027.481,1236.631Z" fill="#1abac6" fill-rule="evenodd"/>
      </g>
    </g>
    <g id="Group_11500" data-name="Group 11500">
      <path id="Path_23934" data-name="Path 23934" d="M8007.031,1232.527c-4.488-.218-6.582.828-9.024,4.468-4.4,6.552-5.083,20.5-4.773,33.076.175,7.123,1.3,13.385,1.392,22.235.071,7.135-1.365,17.916-2.154,27.624-.384,4.727-.616,50.654-.447,54.329.963,2.076,7.77,5.562,8.667,5.388-.413-5.3-.782-52.977-1.021-59.7-.752-21.278-.208-47.519,4.318-64.972,1.132-4.366,1.767-9.354,4.217-13.19.415-.628.816-1.235,1.192-1.82a50.73,50.73,0,0,0-1.186-6.616l1.152-.5A20.087,20.087,0,0,0,8007.031,1232.527Z" fill="#d2eefc" fill-rule="evenodd"/>
      <path id="Path_23935" data-name="Path 23935" d="M8041.921,1247.058c-2.45-1.358-7.444-4.417-12.828-7.425,4.534,5.432-6.417,18.494-11.5,34.78-1.727,5.536-2.849,13.608-3.119,21.645-.261,7.756,2.2,86.2,3.962,92.478,5.13,3.542,10.2,3.794,15.593,1.574a51.672,51.672,0,0,0,13.076-8.27c-2.056-14.613,1.51-44.254-3.66-55.87-2.507-5.632-5.131-7.992-5.39-15.072-.372-10.151,13.868-37.206,13.735-51.212C8051.732,1253.469,8046.5,1249.6,8041.921,1247.058Z" fill="#d2eefc" fill-rule="evenodd"/>
      <path id="Path_23936" data-name="Path 23936" d="M8041.921,1247.058l-12.472-6.917c1.861,2.985,6.825,6.187,12.177,10.7a24.449,24.449,0,0,0-6.915,12.209c-2.817,11.138-7.125,25.8-7.865,35.982-1.177,16.209,2.7,23.509,6.043,30.737,2.265,4.9,4.284,51.222,4.314,58.812a52.48,52.48,0,0,0,9.843-6.746c-.465-4.4-.247-28.167-1.141-43.055a40.37,40.37,0,0,0-4.043-16.128c-1.757-3.36-3.409-5.958-3.806-11.759-.7-10.134,13.868-37.206,13.735-51.212C8051.732,1253.469,8046.5,1249.6,8041.921,1247.058Z" fill="#c3e6f7" fill-rule="evenodd"/>
      <path id="Path_23937" data-name="Path 23937" d="M8026.846,1299.037c-.187,2.581-.246,4.935-.2,7.1,6.865-6.254,13.313-14.254,19.331-22.915,3.082-8.67,5.872-17.369,5.814-23.536Z" fill="#b2d9ed" fill-rule="evenodd"/>
      <path id="Path_23938" data-name="Path 23938" d="M8008.619,1237.2a16.216,16.216,0,0,0-8.512,6.815l2.406,1.866-3.129,1.563a216.629,216.629,0,0,0,.272,44.7c.636-12.441.839-28.008,5.8-40.326.78-1.939,3.4-10.908,4.006-11.759C8008.98,1238.093,8009.215,1239.255,8008.619,1237.2Z" fill="#ebf9ff" fill-rule="evenodd"/>
      <path id="Path_23939" data-name="Path 23939" d="M8031.785,1245.246l7.61,5.565c-6.3,10.378-14.751,29.865-14.984,49.557-.112,9.494,7.092,48.545,10.051,86.867-5.625,3.4-12.135,1.922-15.111-.8-3-19.3-3.45-94.8.6-110.135C8023.432,1263.157,8029.409,1253.64,8031.785,1245.246Z" fill="#e0f5ff" fill-rule="evenodd"/>
      <g id="Group_11496" data-name="Group 11496">
        <path id="Path_23940" data-name="Path 23940" d="M8032.773,1311.067c-6.128-.209-7.814-.219-13.118.735l2.442,14.656c3.433,1.455,8.308,1.058,12.61-.724Z" fill="#d2eefc" fill-rule="evenodd"/>
        <path id="Path_23941" data-name="Path 23941" d="M8032.773,1311.067c-6.128-.209-7.814-.219-13.118.735.762,4.37.4,4.327,5.081,4.607,8.365.5,5.787,1.427,8.671,9.816.128.369.872-.313,1.3-.491Z" fill="#c3e6f7" fill-rule="evenodd"/>
        <path id="Path_23942" data-name="Path 23942" d="M8032.325,1309.2c-6.169-.189-8.919-.666-13.494-.683l1.179,5.833c1.562.814,9.766,1.785,13.39.07Z" fill="#d2eefc" fill-rule="evenodd"/>
        <path id="Path_23943" data-name="Path 23943" d="M8032.325,1309.2c-6.169-.189-8.919-.666-13.494-.683,4.457,1.653,11.977,1.2,13.291,6.357a7.5,7.5,0,0,0,1.278-.454Z" fill="#c3e6f7" fill-rule="evenodd"/>
        <path id="Path_23944" data-name="Path 23944" d="M8020.778,1316.908l7.72,1.248,3.12,7.677a26.615,26.615,0,0,1-8.568.479Z" fill="#e0f5ff" fill-rule="evenodd"/>
        <path id="Path_23945" data-name="Path 23945" d="M8019.5,1309.288c3.6,1.1,8.663,2.63,10.787,5.315a27.267,27.267,0,0,1-9.456-.621A21.527,21.527,0,0,1,8019.5,1309.288Z" fill="#e0f5ff" fill-rule="evenodd"/>
      </g>
      <g id="Group_11499" data-name="Group 11499">
        <g id="Group_11497" data-name="Group 11497">
          <path id="Path_23946" data-name="Path 23946" d="M7997.31,1303.713c-1.815-1.979-2.318-2.475-4-3.04l-1.259,16.367c.843,1.33,3.617,2.433,4.461,2.093Z" fill="#d2eefc" fill-rule="evenodd"/>
          <path id="Path_23947" data-name="Path 23947" d="M7997.31,1303.713c-1.815-1.979-2.318-2.475-4-3.04-.18,4.648-.285,4.5,1.09,6.135,2.457,2.919,1.518,3.116,1.6,12.447a1.711,1.711,0,0,0,.517-.122Z" fill="#c3e6f7" fill-rule="evenodd"/>
          <path id="Path_23948" data-name="Path 23948" d="M7993.173,1306.172l2.194,3.491-.2,9a4.7,4.7,0,0,1-2.684-1.972Z" fill="#e0f5ff" fill-rule="evenodd"/>
        </g>
        <g id="Group_11498" data-name="Group 11498">
          <path id="Path_23949" data-name="Path 23949" d="M7997.975,1299.827c-2.031-.9-2.862-1.707-4.392-2.241l-.709,6.282c.369,1.034,2.934,2.981,4.473,1.582Z" fill="#d2eefc" fill-rule="evenodd"/>
          <path id="Path_23950" data-name="Path 23950" d="M7997.975,1299.827c-2.031-.9-2.862-1.707-4.392-2.241,1.18,2.246,3.786,2.616,3.25,8.2a1.825,1.825,0,0,0,.514-.334Z" fill="#c3e6f7" fill-rule="evenodd"/>
          <path id="Path_23951" data-name="Path 23951" d="M7993.659,1298.474a13.937,13.937,0,0,1,2.609,6.818c-1.415-.1-1.86-.459-3.051-1.72C7993.268,1301.885,7993.462,1300.315,7993.659,1298.474Z" fill="#e0f5ff" fill-rule="evenodd"/>
        </g>
      </g>
      <path id="Path_23952" data-name="Path 23952" d="M8033.329,1241.918c1.787,4.345.5,12.163-1.645,19.687l-4.376-1.623,2.111,4.765c-8.793,11.489-13.713,28.6-14.394,46.177-4.757-38.058,8.993-53.609,12.781-66.937.509-1.791,1.7-4.618.9-6.209A10.765,10.765,0,0,1,8033.329,1241.918Z" fill="#ebf9ff" fill-rule="evenodd"/>
    </g>
    <g id="Group_11501" data-name="Group 11501">
      <path id="Path_23953" data-name="Path 23953" d="M8012.252,1239.175c2.04-.819,6.709-1.668,8.56-2.52,4.052-1.866,4.357-6.011,6.434-10.969,3.776-1.681,5.265-3.323,5.991-5.375,1.724-4.871-.028-10.857-3.253-14.592a13.579,13.579,0,0,0-11.043-4.711c-8.785.122-13.549,5.777-15.481,12.958a5,5,0,0,0-.133,1.855c.156,1.557.653,2.334.776,3.395.29,2.5-.791,2.044-1.036,4.5-.4,3.979.261,7.734.9,12.116.189,1.289.451,1.892,1.2,2.379a17.613,17.613,0,0,0,2.666,1.138C8008.741,1239.729,8009.651,1239.88,8012.252,1239.175Z" fill="#f1b287" fill-rule="evenodd"/>
      <path id="Path_23954" data-name="Path 23954" d="M8012.252,1239.175c2.04-.819,6.709-1.668,8.56-2.52,4.052-1.866,4.357-6.011,6.434-10.969,3.776-1.681,5.265-3.323,5.991-5.375,1.724-4.871-.028-10.857-3.253-14.592a13.579,13.579,0,0,0-11.043-4.711c-7.632.107-12.229,4.388-14.57,10.218.312.809,7.446,4.552,13.914,4.593.485,2.921-1.034,5.319-1.1,6.788-.067,1.407-.06,2.608-.189,3.4-.19,1.17-1.391,2.072-1.572,3.747-.59,5.452-3.594,8.939-6.039,9.919A11.357,11.357,0,0,0,8012.252,1239.175Z" fill="#e8a476" fill-rule="evenodd"/>
      <path id="Path_23955" data-name="Path 23955" d="M8007.349,1209.645c-.968.035-2.133-.523-2.926,1.464.575-3.255,1.562-3.557,3.571-3.863Z" fill="#361d07" fill-rule="evenodd"/>
      <path id="Path_23956" data-name="Path 23956" d="M8019.489,1214c6.153-.622,12.977-4.952,14.575-7.727,3.322,6.515,2.517,15.291-2.634,20.6-1.483,2.815-2.935,5.583-4.324,8.444a59.731,59.731,0,0,1-2-12.073l-.263-.38c-.355.736-1.24,2.56-1.569,3.319-.386,0-1.014-.563-1.563-.89C8022.795,1219.62,8022.5,1216.111,8019.489,1214Z" fill="#361d07" fill-rule="evenodd"/>
      <path id="Path_23957" data-name="Path 23957" d="M8019.08,1213.719c-6.463-.565-14.968-3.521-18.205-8.426,5.862.884,12.51-7.86,21.772-6.993,5.37.5,11.169,3.253,11.418,7.929C8032.312,1208.54,8024.47,1214.191,8019.08,1213.719Z" fill="#361d07" fill-rule="evenodd"/>
      <path id="Path_23958" data-name="Path 23958" d="M8019.343,1214c-6.463-.565-15.231-3.8-18.468-8.7l.057.006a22.174,22.174,0,0,0,15.455,2.042,5.956,5.956,0,0,1-2.254-1.112c4.869.264,8.222.5,12.439-2.107a8.3,8.3,0,0,1-3.368.184c2.5-.592,4.869-2.608,8.7-2.35a6.078,6.078,0,0,1,2.247,4.449C8032.575,1209.1,8024.733,1214.469,8019.343,1214Z" fill="#241304" fill-rule="evenodd"/>
      <path id="Path_23959" data-name="Path 23959" d="M8027.052,1221.106c3.465-.79,3.083,3.077,2.32,5.366-.526,1.573-1.842,1.314-2.457,2.535a3.052,3.052,0,0,1-2.983,1.9c-2.031-.269-.454-3.163-.087-4.34C8023.814,1224.579,8024.852,1221.607,8027.052,1221.106Z" fill="#e8a476" fill-rule="evenodd"/>
      <path id="Path_23960" data-name="Path 23960" d="M8034.2,1206.857c.5,1.138,1.69,4.25,1.346,6.5a7.94,7.94,0,0,0-2.137-3.8c1.309,2.1,1.515,4.688.615,7.786-.043-2.681-.321-4.205-2.254-5.708,1.41,2.658.89,7.542.088,9.658-.246-3.032-.489-7.17-3.073-8.049,1.506,2.462,1.284,3.817.38,6.264-.264-2.718-1.074-4.243-2.926-5.268-.052,2.472-.817,7.053-3.249,9.19.2-.968,1.44-7.505.146-8.429a4.686,4.686,0,0,1-.175,3.1,5.578,5.578,0,0,0-2.664-3.8C8025.5,1214.133,8033.049,1209.376,8034.2,1206.857Z" fill="#4a2b12" fill-rule="evenodd"/>
      <path id="Path_23961" data-name="Path 23961" d="M8031.017,1201.186c-2.624-2.058-7.249-3.1-10.567-2.942-2.817.131-5.55,1.29-8.078,1.859a6.877,6.877,0,0,0,2.02.059c-4.476,1.254-8.205,5.244-13.435,5.122a10.017,10.017,0,0,0,6.088-.235,13.492,13.492,0,0,1-2.282,1.113c4.975.382,8.255-2.314,12.761-3.893a5.576,5.576,0,0,1-2.722,1.668C8019.639,1203.057,8024.11,1199.187,8031.017,1201.186Z" fill="#4a2b12" fill-rule="evenodd"/>
    </g>
    <g id="Group_11506" data-name="Group 11506">
      <g id="Group_11502" data-name="Group 11502">
        <path id="Path_23962" data-name="Path 23962" d="M8050.511,1254.854c4.722,7.958,7.895,25.176,9.329,36.679.729,5.851.883,10.469-3.489,12.655-4.144,2.073-8.8-1.684-10.538-6.1-2.063-5.228-3.994-11.778-7.652-22.917-2.914-8.874-.009-17.828,4.33-21.3C8045,1251.855,8048.195,1250.952,8050.511,1254.854Z" fill="#d2eefc" fill-rule="evenodd"/>
        <path id="Path_23963" data-name="Path 23963" d="M8050.511,1254.854c4.722,7.958,7.895,25.176,9.329,36.679.729,5.851.883,10.469-3.489,12.655-2.909,1.455-6.068.038-8.295-2.462a51.26,51.26,0,0,0,5.033-1.93c1.442-.648,2.35-.71,1.625-4.121-3.226-15.175-6.1-28.17-11.249-42.5C8045.791,1251.7,8048.486,1251.441,8050.511,1254.854Z" fill="#c3e6f7" fill-rule="evenodd"/>
      </g>
      <g id="Group_11503" data-name="Group 11503">
        <path id="Path_23964" data-name="Path 23964" d="M8037.2,1267.667l-2.509-1.412v51.188l2.509,1.412Z" fill="#1a0101" fill-rule="evenodd"/>
        <path id="Path_23965" data-name="Path 23965" d="M8034.691,1266.255l-28.118,15.986v51.188l28.118-15.986Z" fill="#240101" fill-rule="evenodd"/>
        <path id="Path_23966" data-name="Path 23966" d="M8034.663,1267.087l-27.02,15.306.15,50.042,2.417,1.368,24.452-17.8,2.368-47.562Z" fill="#e6e6e6" fill-rule="evenodd"/>
        <path id="Path_23967" data-name="Path 23967" d="M8037.2,1267.667l-28.118,15.986v51.188l28.118-15.986Z" fill="#380303" fill-rule="evenodd"/>
      </g>
      <g id="Group_11505" data-name="Group 11505">
        <path id="Path_23968" data-name="Path 23968" d="M8022.888,1311.736l1.349-2.924-.758-5.25c-2.551-1.536-4.473-2.049-5.556-1.61a2.735,2.735,0,0,0-.273.094C8014.183,1303.962,8018.1,1313.782,8022.888,1311.736Z" fill="#8f9ba6" fill-rule="evenodd"/>
        <g id="Group_11504" data-name="Group 11504">
          <path id="Path_23969" data-name="Path 23969" d="M8012.562,1316.867a24.393,24.393,0,0,1-7-2.054c-1.344-.631-1.762-10.123-1.6-10.15,1.69.294,5.412,1.223,7.219,1.449,2.194-.692,9.127-3.1,11.32-3.791l2.077,4.36.093,4.535a6.43,6.43,0,0,0-2.507.767C8019.009,1313.35,8016.326,1315.794,8012.562,1316.867Z" fill="#e8a476" fill-rule="evenodd"/>
          <path id="Path_23970" data-name="Path 23970" d="M8011.286,1307.1a24.4,24.4,0,0,1-7-2.054c-1.344-.631,1.623-.992,2.444-.849,1.69.294,3.079.672,4.887.9,2.193-.692,7.03-2.223,9.169-3.08l1.8.146A113.348,113.348,0,0,1,8011.286,1307.1Z" fill="#f1b287" fill-rule="evenodd"/>
          <path id="Path_23971" data-name="Path 23971" d="M8009.075,1304.128c-.368,2.608,3.617,1.367,4.607.908.867-.07,7.032-1.809,5.826-2.186a7.149,7.149,0,0,0-4.813-.7c-1.316.352-1.36.846-2.792,1.31A14.74,14.74,0,0,1,8009.075,1304.128Z" fill="#f1b287" fill-rule="evenodd"/>
        </g>
        <path id="Path_23972" data-name="Path 23972" d="M8059.5,1300.481a6.538,6.538,0,0,1-2.42,3.232c-1.226.927-3.031,1.334-4.883,2.19-7.169,3.314-18.553,4.473-29.7,6.011.469-5.985-1.484-9.42-4.848-9.869,9.256-3.759,20.482-5.607,29.745-8.34a18.821,18.821,0,0,1,3.5-.679C8054.658,1294.392,8061.314,1295.233,8059.5,1300.481Z" fill="#d2eefc" fill-rule="evenodd"/>
        <path id="Path_23973" data-name="Path 23973" d="M8059.5,1300.481a6.538,6.538,0,0,1-2.42,3.232c-1.226.927-3.031,1.334-4.883,2.19-7.169,3.314-18.553,4.473-29.7,6.011a18.993,18.993,0,0,0-.03-3.564c9.716-3.4,21.018-4.236,30.629-8.554,1.442-.648,2.35-.71,1.625-4.121l-.33-1.548C8057.659,1295.178,8060.818,1296.664,8059.5,1300.481Z" fill="#c3e6f7" fill-rule="evenodd"/>
        <path id="Path_23974" data-name="Path 23974" d="M8044.592,1262.211c2.259,11.343,7.771,22.564,8.137,35.3-10.294,3.547-19.275,5.85-29.854,8.421a6.65,6.65,0,0,0-3.689-3.714l27.958-7.2-2.615-12.14Z" fill="#e0f5ff" fill-rule="evenodd"/>
      </g>
    </g>
  </g>
</svg>
