<svg xmlns="http://www.w3.org/2000/svg" xmlns:xlink="http://www.w3.org/1999/xlink" viewBox="0 0 1440 809.07"><defs><style>.cls-1{opacity:0.1;fill:url(#linear-gradient);}</style><linearGradient id="linear-gradient" x1="720" y1="809.07" x2="720" gradientUnits="userSpaceOnUse"><stop offset="0" stop-color="#fff" stop-opacity="0"/><stop offset="0" stop-color="#fff" stop-opacity="0.03"/><stop offset="0.04" stop-color="#fdfdfd" stop-opacity="0.23"/><stop offset="0.08" stop-color="#fbfbfb" stop-opacity="0.42"/><stop offset="0.11" stop-color="#fafafa" stop-opacity="0.57"/><stop offset="0.16" stop-color="#f9f9f9" stop-opacity="0.71"/><stop offset="0.2" stop-color="#f8f8f8" stop-opacity="0.81"/><stop offset="0.25" stop-color="#f7f7f7" stop-opacity="0.9"/><stop offset="0.3" stop-color="#f6f6f6" stop-opacity="0.96"/><stop offset="0.37" stop-color="#f6f6f6" stop-opacity="0.99"/><stop offset="0.47" stop-color="#f6f6f6"/><stop offset="0.56" stop-color="#f6f6f6" stop-opacity="0.99"/><stop offset="0.63" stop-color="#f6f6f6" stop-opacity="0.95"/><stop offset="0.69" stop-color="#f6f6f6" stop-opacity="0.88"/><stop offset="0.75" stop-color="#f6f6f6" stop-opacity="0.79"/><stop offset="0.81" stop-color="#f6f6f6" stop-opacity="0.67"/><stop offset="0.86" stop-color="#f6f6f6" stop-opacity="0.52"/><stop offset="0.91" stop-color="#f6f6f6" stop-opacity="0.34"/><stop offset="0.96" stop-color="#f6f6f6" stop-opacity="0.14"/><stop offset="0.99" stop-color="#f6f6f6" stop-opacity="0"/></linearGradient></defs><g id="Шар_2" data-name="Шар 2"><g id="BACKGROUND"><path class="cls-1" d="M1440,251l-7,4L1129.49,80.27,1254.1,8.52l-6.61.18L1126.34,78.46l-73.51-42.33,43.53-25.06h-6.3l-40.38,23.25-41.76-24-6.47-.1,45.08,26L955.84,88.36l-1.72,0,.81.47L896.37,122.6,746.21,36.13l53.88-31-6-.16-51,29.37-55.53-32L681,2.21l58.91,33.92L666.4,78.46,592.9,36.13,652.77,1.66l-6.09-.12L589.75,34.32,530.22,0l-6.38,0L586.6,36.13,436.43,122.6,286.27,36.13,347,1.19l-6.56.15-57.27,33L232.61,5.24l-5.7.34L280,36.13,129.81,122.6,0,47.85v3.63l126.66,72.93L53.15,166.74,0,136.13v3.63l50,28.79L0,197.34V201l53.15-30.61,150.17,86.47-73.51,42.32L0,224.41V228L126.66,301,0,373.9v3.62l129.81-74.74,73.51,42.32L0,462.17v3.63L206.46,346.92l150.17,86.46L129.81,564,0,489.24v3.63L126.66,565.8,53.15,608.12,0,577.52v3.63l50,28.79L0,638.73v3.63l53.15-30.61,73.51,42.33L53.15,696.4,0,665.8v3.62l50,28.79L0,727v3.62L53.15,700l169,97.3,6.51.13L56.3,698.21l73.51-42.32L383.7,802.08l6.71.24L133,654.08l73.51-42.33L509.94,786.49l-32.78,18.88,5.95.2,30-17.26,33.15,19.08,6.56.15-36.56-21,226.82-130.6,150.16,86.46L777.36,809.07l6.43-.08,112.58-64.82,104,59.91,5.94-.21L899.52,742.35,973,700l150.16,86.46-23.7,13.65,6.82-.3,20-11.54,16.93,9.75,5.81-.28-19.59-11.28L1203,744.17l73.5,42.32-10,5.78,6.79-.28,6.4-3.68,5.57,3.2,5.89-.24-8.31-4.78L1433,700l7,4.05v-3.63l-3.88-2.24L1440,696v-3.63l-7,4-73.51-42.33L1440,607.7v-3.63l-83.69,48.19L1206.15,565.8l150.16-86.47L1440,527.52V523.9l-80.54-46.38L1433,435.19l7,4.05v-3.62l-3.88-2.24,3.88-2.23v-3.63l-7,4.05L1282.8,345.1,1433,258.64l7,4.05v-3.63l-3.88-2.23,3.88-2.24ZM1049.68,38l73.51,42.32-88.46,50.94-73.5-42.33Zm-91.6,52.74L1031.59,133,973,166.74l-73.51-42.33Zm-598.3,168L509.94,345.1l-73.5,42.33L286.27,301Zm-76.66,40.51-73.5-42.32,73.5-42.33,73.51,42.33ZM739.91,301,589.75,387.43,516.24,345.1,666.4,258.64Zm-70.36-44.14,150.17-86.47,73.5,42.33L743.06,299.15ZM513.09,343.29,362.93,256.83l150.16-86.47,150.16,86.47Zm-3.15,90.09-73.51,42.33-73.5-42.33,73.51-42.32Zm-70.36-44.14,73.51-42.32,73.51,42.32-73.51,42.33Zm150.17,1.82L893.22,565.8l-73.5,42.32L516.24,433.38Zm3.15-1.82,150.16-86.46,303.48,174.74L896.37,564Zm456.78,90.09,150.17,86.47-150.17,86.46L899.52,565.8ZM746.21,301,896.37,214.5l303.48,174.74-150.17,86.47Zm153.31-88.28L973,170.36,1276.5,345.1,1203,387.43Zm70.36-44.14-73.51,42.32-73.5-42.32,73.5-42.33ZM743.06,38l150.16,86.46-73.5,42.33L669.55,80.27ZM666.4,82.09l150.17,86.46L666.4,255,516.24,168.55ZM589.75,38l73.5,42.32L513.09,166.74l-73.51-42.33ZM436.43,126.22l73.51,42.33L359.78,255l-73.51-42.32ZM283.12,38l150.16,86.46L283.12,210.88,133,124.41ZM56.3,168.55l73.51-42.33L280,212.69,206.47,255ZM133,301l73.51-42.33L280,301l-73.51,42.32Zm76.65,44.13,73.51-42.32,150.17,86.46-73.51,42.33Zm-79.8,307.16L56.3,609.94l73.51-42.33,73.51,42.33ZM133,565.8,359.78,435.2l73.5,42.32L206.47,608.12ZM513.09,784.68,209.62,609.94,436.43,479.33,739.91,654.08ZM439.58,477.52l73.51-42.33L816.57,609.94l-73.51,42.32Zm456.79,263L746.21,654.08l73.51-42.33,150.16,86.46Zm-73.5-130.6,73.5-42.33,150.16,86.47L973,696.4Zm303.47,174.74L976.18,698.21l73.5-42.32,150.17,86.46Zm303.48-86.47-150.17,86.47-73.5-42.33,150.16-86.46Zm-76.66-44.13L1203,740.54l-150.17-86.46L1203,567.61ZM1203,564l-150.17-86.46L1203,391.06l150.16,86.46Zm226.82-130.6-73.51,42.33-150.16-86.47,73.5-42.32Zm-150.17-90.09L976.18,168.55l58.55-33.72,56.74,32.67v-3.63L1037.88,133l88.46-50.93,303.48,174.74Z"/></g></g></svg>