<svg xmlns="http://www.w3.org/2000/svg" width="207" height="196" viewBox="0 0 207 196"><g><g><path fill="#248ca6" d="M203.64 132.362c-.94 1.285-1.782 1.652-2.963 2.336-34.695 20.148-69.645 39.847-104.33 60.004.158-.092.303-.215.437-.359-.848.836-2.386 1.11-3.459 1.055-.806-.04-1.768-.249-2.454-.756.025.023.053.045.08.066-20.677-11.937-85.794-47.364-85.794-47.364-.762-.47-1.178-.886-1.72-1.598-2.037-2.684-3.463-11.538-1.742-17.85.572-2.103 1.508-4.523 3.497-5.694.222-.129.44-.258 0 0l12.577-7.309 86.662-49.739 6.29-3.653.008-.004a.955.955 0 0 1 .114-.059c1.546-.776 3.275-.893 4.852-.169.131.06.293.135.416.215l.003.001.001.001.006.005.003.001c24.861 14.348 57.01 30.747 81.87 45.098l3.843 2.22c.054.025.11.055.166.09 5.21 3.103 5.036 18.815 1.636 23.462z"/></g><g><path fill="#1c768c" d="M206.043 122.74c0 .028 0 .054-.002.08l-.002.036c-.053 2.885-.513 6.955-2.38 9.507-.938 1.285-1.782 1.65-2.963 2.336-34.694 20.148-69.644 39.846-104.33 60.004 2.253-1.317 1.896-8.28 2.167-11.062l103.998-61.844c.922-.548 3.518-.496 3.518-1.64l-.006 2.583-.002.06v.005l.002-.005v-.06z"/></g><g><path fill="#248ca6" d="M204.062 122.94c.01-3.688-.067-10.167-3.28-12.495-77.938 45.292-27.486 15.686-105.455 60.996 2.44 1.405 3.206 8.933 3.206 12.198v.001c78.05-45.358 27.149-15.152 105.529-60.7z"/></g><g><path fill="#ede8e8" d="M116.14 61.491a3.308 3.308 0 0 0-.426-.222c-1.617-.742-3.4-.6-4.975.232.297.002 1.121 3.745 1.745 1.243.883-.515 1.402-.635 2.28-.127.32-.184 1.053-1.315 1.376-1.126z"/></g><g><path fill="#1b9ebf" d="M201.938 108.857l-3.925-2.267c-24.86-14.35-57.008-30.75-81.87-45.097l-.01-.007a1.158 1.158 0 0 0-.123-.06c-.332-.133-.658-.083-.953.091l1.128 2.076 13.334 6.653 71.332 38.636c.352-.203.73-.232 1.087-.025z"/></g><g><path fill="#1b9ebf" d="M206.006 118.588a41.568 41.568 0 0 0-.073-.93c-.317-2.784-1.186-7.135-3.91-8.758-.369-.22-.697-.288-1.172-.018.111.064.206.133.29.204.58.508.303 1.011-.47 1.46 2.652 1.53 3.398 9.247 3.39 12.393.04-.024.065-.051.106-.075l-.015.02c1.414-.85 1.845-1.622 1.894-2.645.022-.481-.014-1.014-.04-1.651z"/></g><g><path fill="#1b9ebf" d="M111.846 61.522c-.358-.2-.74-.24-1.107-.02l-6.288 3.653-86.662 49.739-12.579 7.309c.362-.212.743-.168 1.101.038l104.717-58.924z"/></g><g><path fill="#19acd1" d="M200.851 108.882c.883.506.89 1.345.004 1.858-77.77 45.196-27.783 15.519-105.529 60.701-.88.514-2.32.512-3.203 0-26.167-15.106-59.626-32.257-85.795-47.365-.885-.509-.893-1.342-.01-1.854 77.771-45.195 27.781-15.519 105.528-60.7.883-.516 2.333-.514 3.211-.005 26.166 15.106 59.627 32.257 85.794 47.365z"/></g><g><path fill="#17667a" d="M6.328 124.076c-.884-.51-.893-1.342-.01-1.854-.013-.007-.028-.01-.04-.017l.005-.004a1.07 1.07 0 0 0-1.071.002c-1.99 1.17-2.925 3.59-3.497 5.693-1.721 6.313-.294 15.167 1.742 17.85.64.842 1.008 1.15 1.72 1.598-2.016-2.541-1.828-20.963 1.15-23.268z"/></g><g><path fill="#17667a" d="M88.88 183.196c-.01 2.825.512 10.318 2.092 11.512-28.277-16.324-57.453-31.003-85.797-47.365-.31-.177-.596-.517-.85-.997-.768-1.438-1.258-4.131-1.249-7.49l.01-2.582z"/></g><g><path fill="#1c768c" d="M98.532 183.64c-2.645 1.533-7.046 1.392-9.693-.141-.263 2.427.081 8.45 1.503 10.577.621.929 1.946 1.269 3.002 1.323 1.182.06 2.928-.28 3.695-1.326 1.562-2.132 1.485-7.687 1.493-10.432z"/></g><g><path fill="#1c768c" d="M92.123 171.44l-.442-.254c-28.19-16.276-57.314-30.966-85.353-47.11-2.52 1.47-3.239 9.477-3.243 12.198L88.88 183.64c.006-3.403.858-10.803 3.243-12.2z"/></g><g><path fill="#248ca6" d="M98.532 183.64c0-3.916-.67-10.338-3.098-12.127l.002-.002c-.009-.007-.053-.032-.053-.032-.018-.014-.039-.027-.057-.039-.872.505-2.332.505-3.203 0-3.146 1.724-3.539 11.17-3.243 12.2 2.721 1.575 7.068 1.498 9.652 0z"/></g><g><path fill="#dceaf0" d="M203.64 117.974c-.94 1.285-1.782 1.65-2.963 2.336-34.695 20.148-69.645 39.847-104.33 60.004a1.96 1.96 0 0 0 .437-.359c-.848.835-2.386 1.108-3.459 1.053-.806-.039-1.768-.247-2.454-.755.025.023.053.045.08.067-20.677-11.939-85.794-47.365-85.794-47.365-.762-.47-1.178-.885-1.72-1.598-2.037-2.683-3.463-11.537-1.742-17.849.572-2.103 1.508-4.523 3.497-5.694.222-.13.44-.259 0 0l12.577-7.309 86.662-49.739 6.29-3.653.008-.004c.038-.023.077-.043.114-.06 1.546-.776 3.275-.892 4.852-.168.131.06.293.134.416.215l.003.001.001.001.006.005v-.002l.003.002c24.861 14.348 57.01 30.748 81.87 45.098l3.843 2.221c.054.025.11.055.166.088 5.21 3.104 5.036 18.817 1.636 23.464z"/></g><g><path fill="#e8f3f7" d="M204.062 108.55c.01-3.686-.067-10.165-3.28-12.493-77.938 45.292-27.486 15.685-105.455 60.996 2.44 1.405 3.206 8.933 3.206 12.197v.002c78.05-45.358 27.149-15.152 105.529-60.701z"/></g><g><path fill="#ede8e8" d="M116.14 47.103c-.123-.083-.29-.16-.426-.222-1.617-.743-3.4-.6-4.975.232.318-.184.785-.17 1.107.02.883-.515 2.333-.514 3.211-.005.32-.185.76-.214 1.083-.025z"/></g><g><path fill="#cfe0e8" d="M206.043 108.351c0 .027 0 .054-.002.081l-.002.035c-.053 2.883-.513 6.955-2.38 9.507-.938 1.285-1.782 1.65-2.963 2.336-34.694 20.148-69.644 39.847-104.33 60.004 1.843-1.077 2.155-6.54 2.159-8.482l.008-2.58 105.776-60.955c.93-.536 1.74-1.386 1.74-2.53l-.006 2.584-.002.06v.004l.002-.004v-.06z"/></g><g><path fill="#dceaf0" d="M201.938 94.469l-3.925-2.267c-24.86-14.351-57.008-30.751-81.87-45.098l-.01-.006a1.17 1.17 0 0 0-.123-.061c-.332-.132-.658-.081-.953.09l14.462 8.73 71.332 38.636c.352-.203.73-.232 1.087-.024z"/></g><g><path fill="#dceaf0" d="M206.006 104.2a41.107 41.107 0 0 0-.073-.93c-.317-2.783-1.186-7.137-3.91-8.76-.369-.218-.697-.286-1.172-.017.111.065.206.133.29.205.58.508.303 1.01-.47 1.46 2.652 1.53 3.398 9.246 3.39 12.393.04-.024.065-.051.106-.076l-.015.02c1.414-.85 1.845-1.621 1.894-2.645.022-.48-.014-1.013-.04-1.65z"/></g><g><path fill="#dceaf0" d="M111.846 47.132c-.358-.198-.74-.238-1.107-.019l-6.288 3.654-86.662 49.738-12.579 7.309c.362-.212.743-.168 1.101.037z"/></g><g><path fill="#f4fafc" d="M200.851 94.493c.883.507.89 1.346.004 1.859-77.77 45.195-27.783 15.518-105.529 60.7-.88.514-2.32.512-3.203 0-26.167-15.106-59.626-32.256-85.795-47.364-.885-.509-.893-1.342-.01-1.855C84.09 62.639 34.1 92.315 111.846 47.132c.883-.514 2.333-.513 3.211-.004 26.166 15.107 59.627 32.257 85.794 47.365z"/></g><g><path fill="#b6ccd6" d="M6.328 109.688c-.884-.51-.893-1.342-.01-1.855-.013-.008-.028-.01-.04-.016l.005-.004a1.07 1.07 0 0 0-1.071 0c-1.99 1.172-2.925 3.593-3.497 5.695-1.721 6.312-.294 15.166 1.742 17.85.64.842 1.008 1.15 1.72 1.598-2.016-2.542-1.828-20.964 1.15-23.268z"/></g><g><path fill="#c5d7e0" d="M88.88 169.251c-.01 2.826-.155 9.773 2.092 11.07-28.277-16.326-57.453-31.005-85.797-47.367-.31-.179-.596-.518-.85-.998-.768-1.436-1.258-4.13-1.249-7.488l.01-2.582z"/></g><g><path fill="#cfe0e8" d="M98.532 169.251c-2.645 1.533-7.006 1.534-9.652 0-.265 2.426.04 8.31 1.462 10.436.621.93 1.946 1.27 3.002 1.321 1.182.061 2.928-.277 3.695-1.324 1.562-2.132 1.485-7.688 1.493-10.433z"/></g><g><path fill="#cfe0e8" d="M92.123 157.052l-.442-.255c-28.19-16.277-57.314-30.966-85.353-47.11-2.52 1.472-3.239 9.476-3.243 12.198l85.795 47.366c.006-3.402.858-10.803 3.243-12.199z"/></g><g><path fill="#dceaf0" d="M98.532 169.251c0-3.917-.67-10.338-3.098-12.127l.002-.002-.053-.03c-.018-.015-.039-.028-.057-.04-.872.505-2.332.505-3.203 0-3.146 1.724-3.539 11.168-3.243 12.2 2.721 1.575 7.068 1.496 9.652 0z"/></g><g><path fill="#17667a" d="M132.357 2.829l-3.16-2.033a1.485 1.485 0 0 0-.712-.202c-.23 0-.487.087-.69.2L43.608 48.752l-3.22 1.846.011-.005c-.278.16-.442.314-.587.633-1.016 2.238-.566 56.3-.258 62.74.047.965.307 1.404.961 1.764L167.64 90.178c.031-.02.052-.034.073-.046.777-.617.932-1.7.961-2.636.03-.901-32.947-79.611-36.039-84.364-.076-.115-.161-.256-.276-.304z"/></g><g><path fill="#1e7e96" d="M80.825 137.852c-.002.486-.08 1.85-.54 2.12 19.425-11.287 67.933-38.507 87.356-49.795.576-.337.564-2.535.61-3.291l-87.47 48.354z"/></g><g><path fill="#248ca6" d="M168.182 87.413c.002-.923-35.263-83.586-36.066-84.167-2.642-.563-4.946.466-6.725 1.49-21.75 12.51-62.68 37.852-80.695 48.32.386.226 8.852 27.025 18.545 49.762 8.002 18.778 17.586 34.255 17.586 34.389 19.509-11.336 67.765-38.41 87.355-49.794z"/></g><g><path fill="#19acd1" d="M168.182 87.413c.002-.923-35.263-83.586-36.066-84.167-23.274 76.006-51.29 105.534-51.29 133.96 19.51-11.335 67.766-38.41 87.356-49.793z"/></g><g><path fill="#1c768c" d="M40.745 51.047c-.631.368-.811 61.212-.811 61.89 8.62 4.98 37.898 28.156 40.283 27.072l.069-.037c1.412-.826.126-4.335-.39-5.516-5.604-12.87-34.655-81.146-35.148-81.404z"/></g><g><path fill="#248ca6" d="M76.216 137.726c2.393 1.435 3.922 2.319 4.001 2.283l.069-.037c1.412-.826.312-4.096-.253-5.413-5.548-12.894-34.792-81.681-35.285-81.939-.846-.578-.87-.675-1.896-1.288z"/></g><g><path fill="#1c768c" d="M74.319 133.123l-34.45-22.416.062 2.877c-.002.84.121 1.513.311 1.873.064.12.136.204.213.249 6.542 3.776 33.143 20.556 39.682 24.333-2.624-1.517-4.208-2.824-5.818-6.916z"/></g><g><path fill="#248ca6" d="M132.006 2.861c.221.127.223.336 0 .466-19.462 11.309-67.914 38.481-87.37 49.787a.883.883 0 0 1-.802 0l-2.963-1.764c-.22-.128-.222-.336 0-.465 19.46-11.309 67.88-38.622 87.335-49.93a.894.894 0 0 1 .804 0z"/></g><g><path fill="#000002" d="M156.32 77.454c.003-.708-27.153-64.367-27.773-64.813-15.001 8.717-58.986 34.309-73.993 43.03.544.315 27.824 64.572 27.824 64.799v.002c15.022-8.731 58.857-34.25 73.943-43.017z"/></g><g><path fill="#cfe0e8" d="M72.18 94.113l5.53 3.16-.58-5.377 4.326-1.622 4.71 3.021.766-5.852 4.83-2.018 5.47 4.09-.987-26.06 12.957 23.961-1.785-8.657 3.127-1.268.16.02c.008.002 2.887.356 3.58.473 0 0 .292-.326.682-.749.699-.764 1.476-1.814 1.79-2.338.584-.97 2.008-2.773 2.008-2.773l.228-.292 4.129.718 1.693-5.927-2-20.023 13.357 27.646-3.501-12.095 3.553-1.776.704-3.752 2.877 2.545 4.239.685-.541-2.595 3.402-2.404.694.991-2.75 1.945.739 3.537-6.323-1.022-1.54-1.363-.421 2.244-3.192 1.595 7.206 24.9-16.62-34.4 1.343 13.46c-.681 2.397-1.367 4.793-2.053 7.19l-4.49-.782c-.415.535-1.294 1.69-1.701 2.37-.343.57-1.184 1.71-1.941 2.531-.642.703-1.3 1.205-1.768 1.128a232.08 232.08 0 0 0-3.38-.446l-1.902.772 3.243 15.72L97.65 68.6l.884 23.404-6.946-5.194-3.548 1.484-.923 7.051-5.807-3.725-2.876 1.08.733 6.802-7.59-4.336z"/></g><g><path fill="#19acd1" d="M63.936 66.007c-.845-.6-1.565-1.473-2.167-2.626-.914-1.751-1.24-3.458-.973-5.134.268-1.682 1.146-2.917 2.629-3.698 1.483-.78 2.993-.783 4.509-.023 1.514.758 2.708 2.008 3.584 3.758.556 1.106.836 2.175.842 3.206a4.928 4.928 0 0 1-.881 2.863c1.247-.077 2.392.266 3.442 1.027 1.042.753 1.92 1.842 2.635 3.27.98 1.965 1.313 3.872 1.003 5.73-.31 1.855-1.258 3.223-2.847 4.106-1.597.887-3.226.952-4.901.178-1.683-.777-3.05-2.171-4.1-4.18-.787-1.5-1.177-2.915-1.16-4.237.017-1.331.44-2.455 1.269-3.381-1.081.025-2.043-.262-2.884-.86zm2.104-1.51c.872.439 1.719.444 2.54 0 .798-.43 1.258-1.13 1.402-2.103.145-.976-.05-1.98-.572-3.012-.547-1.086-1.27-1.86-2.165-2.323-.897-.466-1.745-.494-2.541-.072-.8.423-1.275 1.142-1.42 2.143-.145.999.045 2.002.563 3.005.589 1.137 1.316 1.922 2.193 2.363zm4.378 10.989c.652.598 1.359.95 2.106 1.06.749.109 1.43 0 2.04-.336.958-.532 1.529-1.395 1.708-2.593.18-1.2-.071-2.47-.744-3.806-.691-1.366-1.58-2.328-2.676-2.878-1.1-.553-2.153-.563-3.136-.031-.966.52-1.53 1.4-1.697 2.633-.168 1.23.096 2.512.782 3.834.42.809.957 1.51 1.617 2.117zm6.7-12.73a47.626 47.626 0 0 1-1.722-3.852 24.194 24.194 0 0 1-1.032-3.24c-.455-1.958-.512-3.62-.18-4.981.334-1.368 1.11-2.376 2.315-3.01.89-.468 1.798-.612 2.724-.44.917.173 1.832.64 2.729 1.397.892.752 1.79 1.765 2.697 3.034.902 1.26 1.913 3.062 3.013 5.387a47.097 47.097 0 0 1 1.603 3.785c.423 1.144.737 2.187.939 3.117.404 1.862.434 3.44.104 4.745-.331 1.296-1.07 2.262-2.221 2.904-1.518.844-3.1.746-4.734-.325-1-.656-2.01-1.696-3.045-3.103-1.04-1.415-2.101-3.224-3.19-5.417zm4.634 3.55c.769 1.173 1.46 1.98 2.07 2.43 1.218.897 2.273 1.093 3.166.6.893-.495 1.348-1.53 1.36-3.102.006-.79-.213-1.85-.661-3.19-.448-1.343-1.13-2.974-2.044-4.89-.925-1.932-1.775-3.51-2.55-4.723-.78-1.221-1.482-2.073-2.106-2.558-1.254-.974-2.36-1.21-3.308-.707-.935.494-1.404 1.47-1.398 2.917.005.918.257 2.098.742 3.533.486 1.43 1.207 3.113 2.153 5.04.945 1.92 1.805 3.473 2.576 4.65z"/></g><g><path fill="#aedfeb" d="M83.186 48.202L93.99 42.36l2.005 2.159-.653-6.742 4.493 4.228 3.628-1.928 3.507 1.433-3.231-12.081 3.369 3.767 2.697-1.03 3.172 4.53-1.084-5.885 4.23-1.716 3.058-5.012 3.39 4.932-.624-2.603 10.076-6.224.485 1.266-9.184 5.52 1.943 8.097-6.025-8.764-2.294 3.762-3.687 1.495 1.91 10.378-5.813-8.31-2.592.993-.547-.61 2.549 9.534-5.23-2.136-3.898 2.069-2.786-2.62.689 7.104-3.802-4.096-9.981 5.399z"/></g><g opacity=".5"><g opacity=".5"><path fill="#566e94" d="M156.32 77.454c.003-.71-27.153-64.367-27.773-64.813-3.776 25.783-35.422 95.549-46.17 107.828 0 .009 64.836-37.721 73.944-43.014z"/></g></g></g></svg>