<svg width="605" height="495" fill="none" xmlns="http://www.w3.org/2000/svg"><path fill-rule="evenodd" clip-rule="evenodd" d="M330.352 465.953C207.093 453.421 105.073 363.112 60.37 247.999 15.667 132.887 183.974 34.828 305.198 29.209 426.421 23.593 520 131.297 520 253.974s-66.389 224.513-189.648 211.98z" fill="#F8F9FC"/><path fill-rule="evenodd" clip-rule="evenodd" d="M482.001 343.693c.101-.059.729.771 1.659 2.405.933 1.628 2.094 4.102 3.173 7.293 2.212 6.361 3.6 15.751 2.777 25.991-.816 10.239-3.183 19.227-5.009 25.624-1.868 6.401-3.243 10.286-3.48 10.22-.262-.072.666-4.092 2.199-10.555 1.494-6.462 3.625-15.402 4.423-25.431.803-10.026-.339-19.152-2.174-25.461-1.783-6.34-3.862-9.933-3.568-10.086zM488.31 292.449c.117-.052.878 1.34 2.146 3.905a361.625 361.625 0 015.155 10.971c4.179 9.331 9.804 22.394 13.884 37.558 2.005 7.586 3.372 14.961 4.064 21.733.698 6.771.769 12.923.42 18.058-.338 5.137-.987 9.259-1.611 12.062-.617 2.808-1.106 4.321-1.217 4.296-.346-.067 1.182-6.249 1.506-16.42.403-10.15-.929-24.252-4.972-39.246-4.033-15-9.428-28.069-13.29-37.516-1.944-4.727-3.516-8.554-4.605-11.198-1.063-2.656-1.599-4.15-1.48-4.203zM254.833 352.594c.217.233-1.906 2.258-4.661 6.018-.684.944-1.427 1.977-2.122 3.157-.76 1.136-1.421 2.44-2.157 3.787-1.368 2.744-2.666 5.863-3.668 9.259-.958 3.408-1.516 6.739-1.818 9.792-.091 1.53-.224 2.987-.186 4.352-.038 1.369.041 2.641.117 3.804.334 4.648 1.056 7.492.748 7.575-.187.064-1.375-2.683-2.064-7.44-.165-1.188-.323-2.493-.353-3.906-.107-1.412-.03-2.922.017-4.512.216-3.17.744-6.646 1.741-10.183a50.12 50.12 0 013.943-9.549c.804-1.374 1.541-2.693 2.383-3.831.775-1.181 1.605-2.203 2.377-3.122 3.113-3.661 5.581-5.353 5.703-5.201zM259.816 369c.157.251-1.026 1.156-2.571 2.886-.782.855-1.607 1.963-2.417 3.246a25.209 25.209 0 00-2.106 4.455 25.018 25.018 0 00-1.087 4.806c-.154 1.51-.188 2.889-.098 4.045.15 2.314.525 3.757.245 3.858-.2.085-1.042-1.236-1.557-3.682-.269-1.219-.379-2.713-.31-4.367a20.94 20.94 0 011.037-5.271 20.927 20.927 0 012.434-4.789c.963-1.347 1.972-2.453 2.934-3.248 1.913-1.61 3.39-2.131 3.496-1.939zM190.645 216.107c.097-.085.935.74 2.372 2.312a35.91 35.91 0 012.506 2.967c.923 1.197 2.032 2.527 3.073 4.126l1.687 2.476c.58.866 1.106 1.815 1.692 2.773 1.199 1.902 2.274 4.049 3.443 6.29 2.208 4.544 4.319 9.702 6 15.292 1.627 5.608 2.66 11.086 3.277 16.099.236 2.516.5 4.904.527 7.151.029 1.123.103 2.205.086 3.248l-.069 2.994c-.006 1.91-.214 3.627-.337 5.136-.11 1.51-.301 2.8-.492 3.849-.351 2.103-.606 3.25-.734 3.232-.33-.043.291-4.702.24-12.231-.018-.941-.034-1.925-.052-2.952-.022-1.026-.131-2.092-.192-3.194-.093-2.209-.412-4.552-.688-7.019-.702-4.915-1.765-10.277-3.362-15.781-1.651-5.487-3.672-10.567-5.756-15.075-1.107-2.221-2.114-4.36-3.236-6.265-.549-.96-1.037-1.912-1.575-2.786-.544-.87-1.064-1.707-1.562-2.505-4.048-6.349-7.103-9.92-6.848-10.137zM211.845 224.878c.159-.142 2.309 1.87 5.044 5.746 1.376 1.93 2.826 4.362 4.238 7.166a64.01 64.01 0 013.722 9.505 64.049 64.049 0 012.04 10.003c.338 3.122.443 5.951.335 8.319-.189 4.739-.902 7.597-1.111 7.564-.302-.037-.06-2.93-.213-7.565-.061-2.317-.3-5.068-.721-8.093a77.455 77.455 0 00-2.124-9.697 77.388 77.388 0 00-3.486-9.294c-1.29-2.771-2.585-5.208-3.792-7.188-2.391-3.974-4.164-6.271-3.932-6.466z" fill="#fff"/><path fill-rule="evenodd" clip-rule="evenodd" d="M83.445 102.772s-2.876 1.991-1.439 5.31c1.44 3.319 7.745 13.166 16.264 12.833.35-.012-10.732-18.143-10.732-18.143h-4.093z" fill="#FF7B5B"/><path fill-rule="evenodd" clip-rule="evenodd" d="M70.413 284.293s-10.653-9.516-14.063-7.812c-4.167 2.084-28.017 25.452-27.085 36.46.383 4.509 5.632.646 14.984-9.056 9.356-9.7 21.136-5.543 21.136-5.543l5.028-14.049zM96.295 300.343l-12.86-7.716S50.1 323.88 55.308 328.046c3.95 3.16 6.272.326 15.626-9.376 9.353-9.699 21.204-4.122 21.204-4.122l4.157-14.205z" fill="#775298"/><path fill-rule="evenodd" clip-rule="evenodd" d="M174.854 197.525l2.412 34.246-53.535-13.947 51.123-20.299z" fill="#F3A683"/><path fill-rule="evenodd" clip-rule="evenodd" d="M123.731 219.002s46.828 2.952 53.063.871c0 0 9.151 89.903-7.132 99.602-16.284 9.702-52.827-4.503-52.827-4.503l9.867-19.402 21.273-1.385V259.54l-1.526.346-22.718-40.884z" fill="#112129"/><path fill-rule="evenodd" clip-rule="evenodd" d="M65.032 280.326s-11.779 4.851-7.967 16.631c0 0 40.206 31.528 59.771 24.251 10.96-4.075 22.735-35.173 30.972-61.742l28.987-39.593s-13.671.684-18.232.666c-8.717-.032-34.831-1.537-34.831-1.537s-13.641 71.373-18.502 73.104c-4.86 1.731-40.198-11.78-40.198-11.78z" fill="#22343D"/><path fill-rule="evenodd" clip-rule="evenodd" d="M134.643 129.486s28.065-26.331 32.914-33.262c4.85-6.929 15.247-30.141 28.062-39.842l-6.235-13.166s3.812-2.078 6.235 3.464c0 0 9.007-18.014 11.086-17.67 2.081.347-4.156 13.86-4.156 13.86s8.664-12.473 11.088-12.126c2.423.346-6.237 14.022-6.237 14.022s9.699-11.25 11.086-9.865c1.386 1.386-7.622 9.865-7.622 9.865s9.7-5.57 10.74-3.734c1.04 1.838-9.7 6.688-9.7 6.688s-1.04 7.968-7.621 11.432c0 0-13.034 35.214-24.814 46.646l-37.841 39.329-6.985-15.641zM101.143 143.133s-26.591 27.817-33.565 32.601c-6.976 4.783-30.283 14.963-40.102 27.69l-13.107-6.359s-2.113 3.791 3.407 6.267c0 0-18.1 8.839-17.772 10.923.326 2.082 13.896-4.028 13.896-4.028S1.347 218.773 1.67 221.2c.325 2.427 14.08-6.106 14.08-6.106s-11.34 9.594-9.967 10.992c1.371 1.4 9.935-7.527 9.935-7.527s-5.66 9.648-3.832 10.704c1.826 1.056 6.777-9.638 6.777-9.638s7.976-.962 11.504-7.514c0 0 33.353-13.271 44.897-24.943l41.505-29.41-15.426-14.625z" fill="#FFC6B2"/><path fill-rule="evenodd" clip-rule="evenodd" d="M111.112 132.046l-13.45 13.166 3.411 14.842s13.251 31.811 15.254 39.571c3.113 12.068-1.923 30.467-1.923 30.467s22.463-1.865 42.902-2.557c20.438-.694 27.124-7.278 27.124-7.278s-17.721-59.022-29.956-75.52c-12.236-16.496-16.686-21.661-16.686-21.661l-18.015 3.938-8.661 5.032z" fill="#8ACD1D"/><path fill-rule="evenodd" clip-rule="evenodd" d="M150.582 142.791l14.013-8.954s2.141-9.593-14.758-20.908l-19.816 12.418 20.561 17.444zM100.497 144.171c-7.683 1.078-21.722 20.549-23.287 20.512 0 0 9.88 16.124 17.707 16.647 0 0 34.443-41.207 5.58-37.159z" fill="#8ACD1D"/><path fill-rule="evenodd" clip-rule="evenodd" d="M127.616 131.502s-11.167-8.343-10.78-11.669c.098-.838 1.646-2.198 2.048-3.406 2.165-6.495-8.274-23.233-14.688-26.76-5.045-2.775-2.834-3.02-13.453 3.29-10.619 6.31-4.569 17.223.173 22.867 4.483 5.334 9.618 7.62 14.237 8.005l6.568 14.589 15.895-6.916z" fill="#FFC6B2"/><path fill-rule="evenodd" clip-rule="evenodd" d="M107.466 143.084c-2.112-5.181 1.888-11.706 8.934-14.58 7.049-2.875 14.471-1.006 16.587 4.172 2.111 5.18-4.981 12.966-8.939 14.58-3.958 1.615-14.471 1.006-16.582-4.172zM90.917 115.824s-3.622-.2-4.024 2.213c-.403 2.414 6.639 2.414 9.255.603l-5.231-2.816z" fill="#FFC6B2"/><path fill-rule="evenodd" clip-rule="evenodd" d="M92.728 118.037c-.688-4.362-5.336-7.605-5.104-11.855 2.227.018 3.658-2.742 2.644-5.1-.399-.927-1.075-1.72-1.507-2.634-.43-.913-.545-2.11.116-2.626.314-.244.737-.286 1.143-.327 3.303-.34 8.962.651 12.002-.476 2.894-1.072 5.996-3.158 5.695-6.704-.263-3.088-2.99-5.59-5.494-7.482-1.435-1.085-5.535-3.92-7.082-3.663-2.361.392-2.934 3.543-3.104 6.18-1.651-1.573-4.088-1.32-5.524-.041-1.436 1.28-2.116 3.312-2.742 5.275-.626 1.963-1.29 4.001-2.707 5.306-1.32 1.215-3.41 2.135-3.135 4.202.325 2.464 3.544 3.34 5.032 5.441-.367-.515-.677 2.774-.466 3.332.635 1.68 2.22 2.792 3.365 4.077 2.44 2.739 3.634 5.496 6.868 7.095z" fill="#FF7B5B"/><path fill-rule="evenodd" clip-rule="evenodd" d="M112.961 108.063l-8.252 4.268s9.911 7.195 8.252-4.268z" fill="#fff"/><path fill-rule="evenodd" clip-rule="evenodd" d="M105.153 123.829s5.264.03 8.12-1.729c0 0-2.416 2.968-7.251 3.736l-.869-2.007z" fill="#FFA192"/><path fill-rule="evenodd" clip-rule="evenodd" d="M107.436 100.223c-.048.261-.784.341-1.562.684-.789.319-1.358.792-1.578.645-.225-.119.147-1.059 1.213-1.507 1.064-.451 1.996-.067 1.927.178zM97.12 106.99c-.199-.147.114-.995.871-1.844.767-.866 1.747-1.155 1.85-.913.11.236-.487.785-1.159 1.547-.683.759-1.346 1.371-1.562 1.21z" fill="#22343D"/><path fill-rule="evenodd" clip-rule="evenodd" d="M93.122 105.682c-.427-.316-.76-1.669.873-3.492 1.647-1.865 3.488-1.536 3.71-1.018.236.508-.377 1.231-1.823 2.871-1.467 1.634-2.298 1.985-2.76 1.639zM101.787 98.5c-.236-.441.025-1.726 2.148-2.621 2.152-.926 3.587.095 3.567.625-.004.527-.815.897-2.706 1.712-1.905.8-2.754.765-3.009.284z" fill="#FF7B5B"/><path fill-rule="evenodd" clip-rule="evenodd" d="M554.6 111.282c.139.138-2.148 2.711-6.893 5.512-4.686 2.799-12.059 5.573-20.54 5.636-8.48.063-15.894-2.603-20.621-5.332-4.784-2.731-7.109-5.271-6.973-5.411.198-.249 2.798 1.893 7.589 4.238 4.744 2.354 11.895 4.691 19.99 4.633 8.098-.062 15.213-2.503 19.923-4.928 4.754-2.416 7.324-4.596 7.525-4.348zM502.86 107.396c-.129.285-2.661-.766-6.926-1.717-2.126-.501-4.705-.888-7.577-1.245-2.884-.319-6.071-.573-9.437-.813-3.367-.235-6.589-.506-9.516-.869-2.927-.388-5.557-.85-7.723-1.436-4.35-1.135-6.813-2.479-6.728-2.668.114-.286 2.704.598 7.011 1.373 2.149.411 4.742.728 7.629 1.016 2.895.264 6.091.481 9.462.718 3.374.239 6.602.549 9.526.968 2.923.46 5.545.994 7.69 1.675 4.307 1.315 6.686 2.819 6.589 2.998z" fill="#F90"/><mask id="a" maskUnits="userSpaceOnUse" x="434" y="35" width="171" height="84"><path fill-rule="evenodd" clip-rule="evenodd" d="M434.468 35.205h169.886v83.235H434.468V35.205z" fill="#fff"/></mask><g mask="url(#a)"><path fill-rule="evenodd" clip-rule="evenodd" d="M451.556 52.065c8.086-1.716 16.463-.239 24.616 1.12 8.153 1.358 16.618 2.583 24.589.395 14.392-3.95 25.318-18.491 40.242-18.374 6.146.048 11.938 2.672 17.925 4.06 7.435 1.726 15.18 1.54 22.711 2.77 7.533 1.231 15.313 4.26 19.57 10.595 5.05 7.518 3.665 18.122-1.634 25.467-5.299 7.346-13.785 11.818-22.48 14.352-6.065 1.768-12.527 2.79-17.775 6.307-5.309 3.558-8.776 9.283-13.722 13.329-12.412 10.15-31.728 7.241-44.549-2.387-3.221-2.419-6.207-5.226-9.826-6.996-14.72-7.206-35.891 2.333-48.569-10.777-12.874-13.314-11.04-35.632 8.902-39.861z" fill="#F90"/></g><path fill-rule="evenodd" clip-rule="evenodd" d="M447.516 309.916s13.487 28.908 15.065 23.556c1.574-5.355 1.053-18.212.209-20.047-.849-1.836-6.362-9.945-6.362-9.945l-8.912 6.436z" fill="#FFB2A0"/><path fill-rule="evenodd" clip-rule="evenodd" d="M545.04 76.151c1.248 1.599.414-.118 1.827 2.187 5.873-.204 9.815-5.174 9.815-5.174s9.322.247 9.214-1.418c-.106-1.668-8.936-1.045-8.936-1.045s9.341-2.934 8.829-4.4c-.51-1.463-11.294 3.206-11.294 3.206s10.882-6.755 9.274-7.838c-1.606-1.08-12.077 4.816-12.077 4.816s9.1-7.474 7.736-8.438c-1.361-.963-13.983 8.765-13.983 8.765.184-4.786-3.249-4.618-3.249-4.618l.142 11.684s2.127 1.537 2.702 2.273zM406.866 23.267c-1.994.368-.448-.326-3.037.465-4.252-4.056-3.688-10.429-3.688-10.429s-7.132-6.003-5.95-7.177c1.19-1.176 7.378 5.152 7.378 5.152s-5.035-8.396-3.681-9.151c1.353-.755 6.32 9.896 6.32 9.896S400.553-.254 402.475.004c1.918.258 5.834 11.617 5.834 11.617S406.467-.01 408.123.175c1.658.182 4.641 15.838 4.641 15.838 3.038-3.701 5.493-1.296 5.493-1.296l-7.703 8.471s-2.77-.09-3.688.078zM455.249 72.075c-2.579-.424-8.816 3.721-11.936 10.477-1.747 3.782-2.949 7.623-.944 13.773.944 2.892 2.92 3.255 3.361 4.551.557 1.64-1.289 6.812-1.289 6.812l7.362 2.973c.479-3.553 1.021-7.127 4.641-8.669 1.355-.578 2.805-.943 4.083-1.676 3.448-1.977 5.291-6.303 6.708-9.844 1.057-2.645-5.519-17.337-11.986-18.397z" fill="#FFC6B2"/><path fill-rule="evenodd" clip-rule="evenodd" d="M446.485 172.478l-12.334-4.949s-36.605 67.883-36.453 86.717c.152 18.833 50.275 56.541 50.275 56.541l8.454-7.306s-15.475-26.984-23.748-36.498c-8.273-9.517 13.806-94.505 13.806-94.505z" fill="#FFB2A0"/><path fill-rule="evenodd" clip-rule="evenodd" d="M507.727 249.807s27.186-12.899 21.723-14.038c-5.463-1.134-18.239.429-19.998 1.421-1.762.993-9.395 7.146-9.395 7.146l7.67 5.471zM458.601 171.89l-18.711 6.807s-18.717 82.325-11.571 95.25c7.142 12.93 27.21 4.374 55.789-11.224l23.938-13.068-7.99-5.318s-27.856 5.459-35.679 10.901c0 0 4.083-11.567 9.526-27.896 5.443-16.33 9.197-32.999-15.302-55.452zM435.57 115.804c0-5.47 1.76-9.425 7.23-9.425 5.469 0 13.031 1.917 13.031 7.388 0 5.472-4.31 14.355-9.783 14.355-5.469 0-10.478-6.846-10.478-12.318z" fill="#FFC6B2"/><path fill-rule="evenodd" clip-rule="evenodd" d="M439.889 105.595s-17.008-18.407-20.41-36.439c-3.404-18.029-9.184-47.286-9.184-47.286l-6.465 1.861s-3.063 39.984 0 46.107c3.061 6.123 18.021 46.891 22.576 57.597l13.483-21.84zM458.162 119.94s1.308-5.725 22.816-13.507c21.507-7.781 62.083-33.002 62.083-33.002l4.048 4.632s-22.047 25.466-34.873 29.933c-12.826 4.468-40.069 22.08-42.872 23.489-4.239 2.132-4.187 4.815-11.202-11.545z" fill="#FFC6B2"/><path fill-rule="evenodd" clip-rule="evenodd" d="M439.889 105.595s-17.28 5.6-17.28 31.895c0 0 .011 36.013 4.083 42.565 0 0 6.621 1.696 14.876 0 8.655-1.78 17.033-8.165 17.033-8.165l13.593-40.81-1.626-19.12-18.482-3.569s5.302 24.777-13.881 14.125c-3.728-2.07 5.485-16.127 5.485-16.127l-3.801-.794z" fill="#8ACD1D"/><path fill-rule="evenodd" clip-rule="evenodd" d="M425.268 126.98l-8.515-17.74s1.221-10.762 16.853-14.618c0 0 1.58 5.424 3.313 7.497 1.732 2.071 6.777 4.276 6.777 4.276l-18.428 20.585zM457.459 134.111l27.077-5.55s4.708-9.754-6.455-21.357c0 0-21.12 1.276-23.854 1.503-2.691.224-.843 2.296-.843 2.296l4.075 23.108zM426.649 171.283s-25.61 47.35-29.841 55.811c0 0 75.555 34.708 106.226-7.069 0 0-17.447-36.928-44.418-50.986l-11.635-3.485-19.877 5.501" fill="#8ACD1D"/><path fill-rule="evenodd" clip-rule="evenodd" d="M466.243 90.024s2.918-2.917 4.712-.898c1.795 2.02-6.506 4.937-6.506 4.937l1.794-4.039z" fill="#FFC6B2"/><path fill-rule="evenodd" clip-rule="evenodd" d="M519.606 50.236c.028.1-1.099.588-3.25 1.1-2.146.516-5.331.985-9.287 1.065-3.952.079-8.653-.273-13.799-.97-5.149-.683-10.743-1.686-16.628-2.328-5.875-.628-11.525-.742-16.528.066-5.005.794-9.337 2.433-12.648 4.348-3.311 1.93-5.615 4.07-7.03 5.69-1.422 1.622-2.063 2.657-2.207 2.57-.079-.04.349-1.207 1.638-3.025 1.281-1.812 3.541-4.204 6.912-6.366 3.369-2.149 7.846-3.995 13.049-4.92 5.209-.937 11.036-.864 17.013-.224 5.984.653 11.584 1.713 16.673 2.481 5.088.784 9.687 1.264 13.56 1.353 7.762.217 12.461-1.16 12.532-.84z" fill="#F90"/><path fill-rule="evenodd" clip-rule="evenodd" d="M445.313 88.684l9.974 3.93s-8.765 6.044-9.974-3.93z" fill="#fff"/><path fill-rule="evenodd" clip-rule="evenodd" d="M444.72 99.623s3.497 2.928 7.144 1.985c0 0-1.257 1.886-6.099 1.194 0 0 .402-2.078-1.045-3.18z" fill="#FFA192"/><path fill-rule="evenodd" clip-rule="evenodd" d="M458.59 84.31a.79.79 0 11-1.581 0 .79.79 0 011.581 0zM452.123 81.98a.79.79 0 11-1.581 0 .79.79 0 011.581 0z" fill="#22343D"/><path fill-rule="evenodd" clip-rule="evenodd" d="M461.129 82.205c-.244.104-.715-.467-1.43-.93-.699-.482-1.407-.698-1.406-.963-.023-.253.966-.459 1.927.186.962.64 1.153 1.63.909 1.707zM449.732 78.37c-.017-.246.832-.557 1.969-.527 1.157.025 2.011.586 1.892.82-.109.238-.914.136-1.929.117-1.021-.03-1.916-.14-1.932-.41z" fill="#F90"/><path fill-rule="evenodd" clip-rule="evenodd" d="M453.293 321.662s4.149 14.727 8.433 13.521c4.284-1.204 1.063-21.758 1.063-21.758l-4.274-6.756s4.015 34.405-5.222 14.993zM505.613 240.014s3.017-3.292 6.674-3.84c3.658-.549 16.733-2.104 18.653-.366 1.921 1.737-10.597 7.562-10.597 7.562s4.361-2.779 2.55-3.812c-3.2-1.83-17.28.456-17.28.456zM500.425 243.957l4.093 8.311 2.234-1.24-5.459-8.187-.868 1.116zM454.653 300.149l-10.048 9.056 2.978 2.481 8.434-9.18-1.364-2.357zM244.587 209.993c-2.858-7.091-3.956-14.986-8.22-21.332-6.136-9.131-17.921-13.662-22.9-23.473-2.115-4.167-2.778-8.933-2.8-13.606-.041-9.244 2.727-19.071 9.867-24.946 8.204-6.75 20.514-6.656 30.123-2.121 9.606 4.535 16.947 12.766 23.188 21.364 6.242 8.597 11.706 17.824 18.974 25.572 5.389 5.745 11.781 10.699 15.84 17.448 11.129 18.504-.321 41.915-19.967 48.593-17.263 5.866-38.133-12.674-44.105-27.499z" fill="#22343D"/><path fill-rule="evenodd" clip-rule="evenodd" d="M219.994 340.493c1.708 1.405-.156.432 2.33 2.051-.555 6.209-6.298 10.121-6.298 10.121s-.243 9.886-2.088 9.683c-1.849-.2-.665-9.519-.665-9.519s-3.781 9.737-5.381 9.117c-1.598-.617 4.19-11.791 4.19-11.791s-8.113 11.167-9.227 9.407c-1.113-1.76 6.025-12.535 6.025-12.535s-8.814 9.241-9.811 7.745c-.994-1.492 10.52-14.345 10.52-14.345-5.329-.058-4.952-3.686-4.952-3.686l12.98.77s1.591 2.333 2.377 2.982zM343.997 154.045c2.222.39.498-.346 3.38.492 4.733-4.301 4.105-11.058 4.105-11.058s7.939-6.366 6.623-7.61c-1.325-1.247-8.212 5.461-8.212 5.461s5.604-8.902 4.097-9.703c-1.505-.8-7.033 10.494-7.033 10.494s4.067-13.018 1.928-12.745c-2.134.274-6.493 12.318-6.493 12.318s2.05-12.33.206-12.136c-1.845.194-4.829 16.348-4.829 16.348-4.347-3.537-7.389-1.273-7.389-1.273l9.513 9.329s3.084-.094 4.104.083zM289.657 208.035c4.015-.626 16.261 7.31 13.145 23.426-.261 1.353-2.028 4.331-2.468 5.563-.556 1.56 3.776 7.271 3.776 7.271l-11.183 3.573c-.477-3.378.326-8.315-3.288-9.782-1.352-.549-2.799-.897-4.074-1.593-3.444-1.881-5.282-5.995-6.696-9.362-1.056-2.516-1.86-5.223-1.83-7.953.073-6.876 6.163-10.134 12.618-11.143z" fill="#FFC6B2"/><path fill-rule="evenodd" clip-rule="evenodd" d="M312.051 252.173c0-5.801-1.84-8.015-7.928-8.015s-14.125 2.214-14.125 8.015c0 5.802 4.299 13.062 10.39 13.062 6.087 0 11.663-7.26 11.663-13.062z" fill="#FFC6B2"/><path fill-rule="evenodd" clip-rule="evenodd" d="M307.243 241.346s18.931-19.518 22.717-38.639c3.788-19.119 10.223-50.144 10.223-50.144l7.194 1.974s3.409 42.399 0 48.892c-3.406 6.495-22.719 51.588-22.34 63.131l-17.794-25.214zM273.498 250.797s-6.437 1.082-16.282 23.45c-9.845 22.366-40.136 64.005-40.136 64.005l4.923 4.534s29.533-22.004 35.213-35.351c5.678-13.347 12.872-29.941 16.282-29.222 3.406.724 17.795-19.12 0-27.416z" fill="#FFC6B2"/><path fill-rule="evenodd" clip-rule="evenodd" d="M324.18 269.542l8.814-24.329s-1.36-11.411-18.757-15.502l-9.856 14.2 19.799 25.631zM276.436 248.93s-10.399.876-18.828 19.39c0 0 9.27 12.798 16.051 13.23 0 0 25.188-21.53 2.777-32.62z" fill="#8ACD1D"/><path fill-rule="evenodd" clip-rule="evenodd" d="M305.01 468.487s-15.012 30.656-16.767 24.98c-1.752-5.678-1.173-19.312-.233-21.258.944-1.947 7.082-10.546 7.082-10.546l9.918 6.824z" fill="#FFC6B2"/><path fill-rule="evenodd" clip-rule="evenodd" d="M306.157 322.747l13.728-5.249s40.742 71.985 40.573 91.957c-.168 19.97-55.957 59.958-55.957 59.958l-9.41-7.75s26.443-38.878 35.65-48.967c4.605-5.046-28.357-29.773-33.35-53.564-4.992-23.792 8.766-36.385 8.766-36.385z" fill="#654287"/><path fill-rule="evenodd" clip-rule="evenodd" d="M223.615 452.429s-28.081 20.698-26.913 14.889c1.172-5.814 8.241-17.68 10.014-19 1.776-1.318 11.363-6.284 11.363-6.284l5.536 10.395z" fill="#FFC6B2"/><path fill-rule="evenodd" clip-rule="evenodd" d="M268.806 348.237l40.617-23.539s1.612 81.769-8.139 99.449c-9.749 17.68-78.565 28.881-78.565 28.881l-4.64-10.993s42.456-25.296 55.491-30.247c13.036-4.953-4.764-63.551-4.764-63.551z" fill="#775298"/><path fill-rule="evenodd" clip-rule="evenodd" d="M292.996 308.596s-29.907 10.589-24.189 39.642c5.716 29.051 15.245 34.498 15.245 34.498l17.151-28.143 17.219-36.855-17.219-2.185-8.207-6.957z" fill="#775298"/><path fill-rule="evenodd" clip-rule="evenodd" d="M307.243 241.346s22.018 12.34 22.018 40.224c0 0-2.797 31.789-7.331 38.734 0 0-7.369 1.8-16.557 0-9.633-1.886-18.956-8.657-18.956-8.657l-7.525-38.919-5.854-22.725 3.174-1.046 16.56-1.82s-2.379 24.738 16.111 12.454c3.895-2.588-4.848-15.487-4.848-15.487l3.208-2.758z" fill="#8ACD1D"/><path fill-rule="evenodd" clip-rule="evenodd" d="M320.72 135.978l46.165 26.931 25.969-49.052-43.281-24.045-28.853 46.166zM384.944 370.786l33.017-20.439-27.278-47.615-30.182 19.571 24.443 48.483z" fill="#fff"/><path fill-rule="evenodd" clip-rule="evenodd" d="M222.376 167.89c.087-.077 1.106.848 2.718 2.735 1.605 1.89 3.795 4.764 5.993 8.642 2.206 3.862 4.389 8.762 5.948 14.449 1.613 5.646 2.695 11.992 5.175 18.104 1.287 3.02 2.848 5.831 4.705 8.316a45.043 45.043 0 006.091 6.526c4.371 3.679 8.951 6.21 13.032 7.672 4.077 1.482 7.569 2.147 9.997 2.386 2.426.268 3.796.308 3.798.467.007.1-1.36.308-3.851.26-2.489-.019-6.113-.494-10.38-1.862-4.271-1.349-9.096-3.846-13.71-7.605a45.011 45.011 0 01-6.443-6.741c-1.965-2.586-3.625-5.543-4.972-8.709-2.584-6.389-3.605-12.791-5.108-18.361a67.058 67.058 0 00-5.446-14.27c-2.004-3.881-3.994-6.823-5.404-8.828-1.419-2.002-2.25-3.087-2.143-3.181zM279.094 136.383c.34-.052.669 4.492 3.212 11.214a50.584 50.584 0 005.871 11.062c1.356 1.933 2.916 3.838 4.682 5.737 1.754 1.906 3.664 3.842 5.47 6.014 3.62 4.384 6.111 9.122 8.456 13.304 2.329 4.223 4.184 8.24 5.126 11.833.984 3.582 1.041 6.666.729 8.711-.325 2.055-.836 3.096-.921 3.068-.162-.043.103-1.142.195-3.133.081-1.988-.173-4.885-1.272-8.271-1.063-3.4-2.975-7.232-5.361-11.365-2.423-4.131-4.935-8.774-8.394-12.952-1.736-2.09-3.619-4.019-5.383-5.973-1.775-1.945-3.388-3.97-4.749-5.996-2.731-4.057-4.554-8.1-5.696-11.595a41.926 41.926 0 01-1.901-8.474c-.233-2.036-.17-3.175-.064-3.184z" fill="#22343D"/><path fill-rule="evenodd" clip-rule="evenodd" d="M298.703 226.321l-8.866 3.224s7.523 6.581 8.866-3.224z" fill="#fff"/><path fill-rule="evenodd" clip-rule="evenodd" d="M290.099 238.321s2.966.604 6.748-.34c0 0-1.864 1.811-4.91 2.232 0 0-.682-1.262-1.838-1.892z" fill="#FFA192"/><path fill-rule="evenodd" clip-rule="evenodd" d="M293.13 218.391a.79.79 0 11-1.024 1.204.79.79 0 011.024-1.204zM287.172 221.819a.79.79 0 11-1.024 1.204.79.79 0 011.024-1.204zM293.165 215.093c-.079.253-.819.244-1.632.49-.821.221-1.443.622-1.645.449-.209-.145.274-1.033 1.387-1.349 1.111-.321 1.989.175 1.89.41zM282.872 221.309c-.199-.147.113-.995.871-1.842.766-.867 1.747-1.156 1.849-.914.11.235-.488.784-1.16 1.546-.681.759-1.345 1.372-1.56 1.21z" fill="#22343D"/><path fill-rule="evenodd" clip-rule="evenodd" d="M279.528 227.893s-2.844-2.389-4.209-.228c-1.364 2.161 6.143 3.299 6.143 3.299l-1.934-3.071z" fill="#FFC6B2"/><path fill-rule="evenodd" clip-rule="evenodd" d="M211.15 445.702s-4.077 1.773-5.14 2.837c-1.064 1.063-10.814 17.902-9.572 20.029 1.241 2.127 11.018-5.093 11.018-5.093s-8.181 1.549 3.694-17.773zM290.706 467.97s-2.896 3.13-3.343 4.567c-.447 1.435-1.246 20.877.842 22.183 2.088 1.306 7.795-9.422 7.795-9.422s-6.823 5.345-5.294-17.283" fill="#775298"/></svg>