<svg xmlns="http://www.w3.org/2000/svg" width="377.922" height="321.548" viewBox="0 0 377.922 321.548"><defs><clipPath id="a"><path data-name="Path 5745" d="M3497.462 6498.041l.058 58.293a1.722 1.722 0 0 0 1.015 1.425 5.462 5.462 0 0 0 4.946 0 1.752 1.752 0 0 0 1.031-1.445v-58.289a1.815 1.815 0 0 1-1.091 1.438 5.432 5.432 0 0 1-4.943 0 1.727 1.727 0 0 1-1.016-1.422z" fill="none"/></clipPath><clipPath id="b"><path data-name="Path 5747" d="M3589.119 6460.082l.058 58.293a1.722 1.722 0 0 0 1.015 1.425 5.462 5.462 0 0 0 4.946 0 1.751 1.751 0 0 0 1.031-1.445v-58.289a1.818 1.818 0 0 1-1.091 1.439 5.438 5.438 0 0 1-4.943 0 1.73 1.73 0 0 1-1.016-1.423z" fill="none"/></clipPath><clipPath id="c"><path data-name="Path 6013" d="M3425.593 6424.158l.064 62.049a1.842 1.842 0 0 0 1.081 1.513 5.808 5.808 0 0 0 5.264.006 1.886 1.886 0 0 0 1.1-1.541l-.064-62.047a1.843 1.843 0 0 1-1.1 1.533 5.8 5.8 0 0 1-5.262 0 1.846 1.846 0 0 1-1.083-1.513z" fill="none"/></clipPath><clipPath id="d"><path data-name="Path 6021" d="M3377.025 6468.045l-27.868-16.2a1.323 1.323 0 0 1 .553 1.071.411.411 0 0 0 .182.326l27.867 16.193a.414.414 0 0 1-.183-.327 1.318 1.318 0 0 0-.551-1.063z" fill="none"/></clipPath><clipPath id="e"><path data-name="Path 6071" d="M3309.084 6427.737l-27.868-16.2a1.321 1.321 0 0 1 .553 1.069.416.416 0 0 0 .182.328q13.935 8.1 27.866 16.193a.42.42 0 0 1-.183-.327 1.307 1.307 0 0 0-.55-1.063z" fill="none"/></clipPath><clipPath id="f"><path data-name="Path 6120" d="M3459.074 6515.222l-28.485-16.555a1.349 1.349 0 0 1 .565 1.092.421.421 0 0 0 .186.335q14.244 8.275 28.484 16.552a.427.427 0 0 1-.189-.334 1.331 1.331 0 0 0-.561-1.09z" fill="none"/></clipPath></defs><g data-name="Group 3367"><g data-name="Group 3198"><g data-name="Group 3197"><g data-name="Group 3196" style="isolation:isolate"><g data-name="Group 3195" clip-path="url(#a)" transform="translate(-3241.264 -6246.017)" style="isolation:isolate"><g data-name="Group 3194"><path data-name="Path 5744" d="M3497.462 6498.041l.058 58.293a1.722 1.722 0 0 0 1.015 1.425 5.462 5.462 0 0 0 4.946 0 1.752 1.752 0 0 0 1.031-1.445l-.06-58.289a1.725 1.725 0 0 1-1.031 1.438 5.432 5.432 0 0 1-4.943 0 1.727 1.727 0 0 1-1.016-1.425z" fill="#7f8787"/></g></g></g></g></g><g data-name="Group 3203"><g data-name="Group 3202"><g data-name="Group 3201" style="isolation:isolate"><g data-name="Group 3200" clip-path="url(#b)" transform="translate(-3241.264 -6246.017)" style="isolation:isolate"><g data-name="Group 3199"><path data-name="Path 5746" d="M3589.119 6460.082l.058 58.293a1.722 1.722 0 0 0 1.015 1.425 5.462 5.462 0 0 0 4.946 0 1.751 1.751 0 0 0 1.031-1.445l-.059-58.289a1.731 1.731 0 0 1-1.032 1.439 5.438 5.438 0 0 1-4.943 0 1.73 1.73 0 0 1-1.016-1.426z" fill="#7f8787"/></g></g></g></g></g><g data-name="Group 3217"><g data-name="Group 3214"><g data-name="Group 3213"><g data-name="Group 3205"><path data-name="Path 5748" d="M258.004 119.594l40.2 23.364a.457.457 0 0 0-.465.047c-.58.334-.865 1.31-.46 1.546q-20.1-11.684-40.2-23.362a.46.46 0 0 1-.19-.422c-.004-.669.704-1.411 1.115-1.173z" fill="#d1d1d1"/><g data-name="Group 3204"><path data-name="Path 5749" d="M297.736 143.005a1.438 1.438 0 0 0-.651 1.128c0 .414.3.579.656.373a1.441 1.441 0 0 0 .651-1.129c.005-.415-.29-.581-.656-.372z" fill="#707070"/></g></g><g data-name="Group 3209"><g data-name="Group 3208"><path data-name="Path 5750" d="M246.418 133.55l17.268-9.971 2.443 1.42-17.267 9.972a2.027 2.027 0 0 1-2.043.2q-1.221-.707-2.443-1.419a2.026 2.026 0 0 0 2.042-.202z" fill="#d1d1d1"/><g data-name="Group 3207"><path data-name="Path 5751" d="M257.309 82.164c.555-.35.213-.145 6.248-3.63L266 79.955c-5.607 3.237-6.982 3.865-9.486 6.062-.741.65-1.5 1.391-2.163 2.095l-.061.064c-.2.221-.409.446-.611.673-.021.023-.044.047-.066.074-4.606 5.229-8.244 12.621-8.841 19.584-.124 1.454-.092.227-.021 25.532a2.869 2.869 0 0 0 1.2 2.627l-2.445-1.419a2.873 2.873 0 0 1-1.2-2.629l-.068-23.515c-.027-9.683 6.598-21.589 15.071-26.939z" fill="#d1d1d1"/><g data-name="Group 3206"><path data-name="Path 5752" d="M260.5 83.132c-8.748 5.05-15.845 17.339-15.816 27.392l.067 23.515c.006 2.6 1.854 3.649 4.116 2.345l17.267-9.972v-1.413l-17.267 9.972c-1.583.913-2.876.178-2.881-1.642l-.067-23.516c-.027-9.273 6.519-20.61 14.59-25.268l5.5-3.177-.006-1.413z" fill="#707070"/></g></g></g><path data-name="Path 5753" d="M257.309 82.164c.555-.35.213-.145 6.248-3.63L266 79.955c-5.607 3.237-6.982 3.865-9.486 6.062-.741.65-1.5 1.391-2.163 2.095l-.061.064c-.2.221-.409.446-.611.673-.021.023-.044.047-.066.074a38.466 38.466 0 0 0-7.01 11.752 1.18 1.18 0 0 1-1.694.637 1.689 1.689 0 0 1-.754-2.045c2.556-6.884 7.434-13.489 13.154-17.103z" fill="#444"/></g><path data-name="Path 5754" d="M234.585 114.735a7.154 7.154 0 0 1 3.474-4.8c17.221-9.943 20.394-10.585 22.042-14.291.711-1.6-.294-2.611-.662-3.483-2.586-6.171 2.942-25.89 6.917-33.685.207-.41.966-.518 2.258.215 4 2.268 20.34 11.912 29.146 17.028-.194-.114-.3.408-.469.564-1.741 1.6-10.837 27.911-6.82 34.326 3 4.785-2.741 6.07-21.92 17.141a7.092 7.092 0 0 0-3.548 5.326.473.473 0 0 0 .178.481c-8.808-5.119-21.687-12.7-30.5-17.813-.273-.161-.162-.646-.096-1.009z" fill="#565656"/><path data-name="Path 5755" d="M263.727 132.383a7.09 7.09 0 0 1 3.549-5.324c19.175-11.071 24.916-12.358 21.918-17.145-4.017-6.411 4.933-33.108 6.676-34.707.168-.156.334-.338.617-.215.081.035.779.434 1.273.739a.53.53 0 0 0-.613.178c-1.629 1.726-10.693 28.3-6.676 34.709 3 4.785-2.741 6.073-21.92 17.144a7.085 7.085 0 0 0-3.548 5.321.47.47 0 0 0 .178.483c-1.2-.692-.2-.139-1.4-.835a.616.616 0 0 1-.054-.348z" fill="#3e4444"/><path data-name="Path 5756" d="M259.624 96.603l29.512 17.38 1.132 1.016a7.31 7.31 0 0 1-.506.536l-1.133-1.018-29.416-17.325a6.522 6.522 0 0 0 .411-.589z" fill="#383838"/><path data-name="Path 5757" d="M259.495 92.26l30.824 18.067c.056.111.118.217.179.318a3.668 3.668 0 0 1 .718 2.51l-30.888-18.1c.237-1.216-.501-2.056-.833-2.795z" fill="#0c0c0c" opacity=".09"/><g data-name="Group 3210"><path data-name="Path 5758" d="M296.851 76.292c-4.257 8.36-9.881 29.074-6.6 34.318 3 4.787-2.528 6.07-21.7 17.141a7.074 7.074 0 0 0-3.548 5.326c-.04.407.2.622.538.479a1.391 1.391 0 0 0 .684-1.011 4.435 4.435 0 0 1 2.187-3.3c19.875-11.464 22.553-11.589 23.673-15.344a5.825 5.825 0 0 0-.744-4.58c-2.931-4.674 2.328-24.564 6.459-32.67.214-.427.178-.852-.083-.952s-.649.167-.866.593z" fill="#292d2d"/></g><g data-name="Group 3211"><path data-name="Path 5759" d="M289.585 94.068l.094-.416-29.358-17.211-.1.442z" fill="#444"/></g><g data-name="Group 3212"><path data-name="Path 5760" d="M289.394 94.965l.191-.9-29.359-17.215-.19.893z" fill="#6d6d6d"/></g></g></g><g data-name="Group 3216"><g data-name="Group 3215"><path data-name="Path 5761" d="M240.906 135.876c-3.277 1.892-3.3 4.961-.039 6.853l26.283 15.386a13.043 13.043 0 0 0 11.833 0l22.563-13.026c3.276-1.891 3.294-4.962.037-6.852l-26.284-15.388a13.039 13.039 0 0 0-11.828 0z" fill="#231f20" opacity=".1" style="mix-blend-mode:multiply;isolation:isolate"/></g></g></g><path data-name="Path 5762" d="M261.436 140.723c.029-14.866.183-30.928.1-35.987.135-.569 1.643-1.63 1.8-2.213l10.5 1.517s4.414-1.567 1.044 15.205c-1.193 5.933-4.252 23.226-4.252 23.226a7.323 7.323 0 0 0-.484 1.712 20.7 20.7 0 0 1-8.708-3.46z" fill="#ddb19e" opacity=".35" style="mix-blend-mode:multiply;isolation:isolate"/><path data-name="Path 5763" d="M275.148 91.876a134.073 134.073 0 0 0-10.763 8.562c-7.279 6.826-19.816 27.8-19.816 27.8a22.586 22.586 0 0 0 5.289 9.686c3.934 4.269 7.488 3.788 7.488 3.788s5.368-5.5 6.264-6.392c9.373-9.355 15.732-14.46 17.883-19.892a49.96 49.96 0 0 0 2.984-11.975z" fill="#232f38"/><path data-name="Path 5764" d="M268.509 83.374a39.966 39.966 0 0 0-8.288 7.869c-5.865 8.074-15.383 32.875-15.383 32.875a26.157 26.157 0 0 0 7.5 9.244c4.667 3.454 8.067 2.312 8.067 2.312s4.237-6.411 4.949-7.456c7.446-10.951 12.731-17.161 13.822-22.9a49.974 49.974 0 0 0 .677-12.323z" fill="#4d575b"/><path data-name="Path 5765" d="M260.673 102.734a39.975 39.975 0 0 1 4.167-10.641l14.352 3.9a50.628 50.628 0 0 1 4.1 9.636c-2.358 1.225-6.824 2.647-13.764 2.432-.358-.011-.429-.049-.456-.375-.024-.621-.182-2.38-.35-4.339-.346 1.573-.71 3.148-.883 3.959a.3.3 0 0 1-.43.241 24.673 24.673 0 0 1-6.817-4.386c.029-.146.054-.288.081-.427z" fill="#232f38" opacity=".25" style="mix-blend-mode:multiply;isolation:isolate"/><path data-name="Path 5766" d="M276.96 37.844c.427 1.731 3.482 9.318 6.5 9.411s4.975-4.24 4.673-7.234c-.214-2.124-1.056-3.954-2.952-4.71-.916-.366-1.264-1.124-2.179-1.5-3.448-1.434-6.538 2.014-6.042 4.033z" fill="#6b3012"/><path data-name="Path 5767" d="M279.531 38.383s.518 17.356-4.921 19.37c-7.579 2.806-2.889-.352-2.762-.846.767-3.019-5.539-1.185-5.553-6.255-.005-2.314.511-2.857-.493-5.846-.934-2.774-.493-4.126 1.329-5.7a13.748 13.748 0 0 1 8.575-2.616c3.73.533 3.825 1.893 3.825 1.893z" fill="#6b3012"/><path data-name="Path 5768" d="M279.071 89.51a16.232 16.232 0 0 0 .721 8.087 12.561 12.561 0 0 1-11.186 1.958 17.6 17.6 0 0 1-5.821-2.765c.176-.93 1.3-8.368 1.338-9.471a6.531 6.531 0 0 0-1.478-4.475c-1.886-2.453-2.8-3.759-1.143-8.459.465-1.325 1.316-4.51 1.825-6.641.993-4.181 2.91-5.686 4.495-5.693 6.7-.026 11.839 1.33 18.282 6.1 4.813 3.568-.4 9.359-.4 9.359s-5.489 8.146-6.633 12z" fill="#dcf3f9"/><path data-name="Path 5769" d="M279.748 65.231a30.449 30.449 0 0 1-.946-7.772c.13-3.216.133-4.316.133-4.316l-7.73 3.074s.34 6.539.278 8.54c-.014.432-.953 1.165-.273 2.989.5 1.337 3.707 4.678 8.538-2.515z" fill="#f2c4ac"/><path data-name="Path 5770" d="M278.802 57.459v.189a10.842 10.842 0 0 1-.919 1.114c-2.324 2.429-5.845 3.042-6.44 2.484a132.531 132.531 0 0 0-.234-5.029l7.73-3.074s-.003 1.1-.137 4.316z" fill="#b79484" opacity=".29" style="mix-blend-mode:multiply;isolation:isolate"/><path data-name="Path 5771" d="M285.705 77.511s-5.49 8.145-6.634 12a16.232 16.232 0 0 0 .721 8.087 14.781 14.781 0 0 1-4.856 2.221 19.994 19.994 0 0 1-.648-2.358c-.848-4.021.948-9.8-.658-10.171a7.146 7.146 0 0 1-4.226-3.046s7.259 2.816 9.356-2.195c4-9.539 4.994-7.106 5.419-7.609.082 2.632.521-1.1.573-1.061 4.816 3.564.953 4.132.953 4.132z" fill="#acc6cc" opacity=".35" style="mix-blend-mode:multiply;isolation:isolate"/><path data-name="Path 5772" d="M253.508 97.16c1.595-.325 10.7-5.2 11.448-6.312a37.68 37.68 0 0 0 5.153-9.828 98.522 98.522 0 0 0 3.027-11.367c.837-5.019-3.1-9.712-7.4-6.419-4.032 3.087-5.112 13.5-5.8 15.647-1.165 3.614-1.959 6.077-3.342 7.469-2.179 2.188-5.929 3.859-6.326 4.543-1.978 3.4 5.566-.831 5.911-.049 2.226 5.078-4.995 6.188-2.671 6.316z" fill="#575f63"/><path data-name="Path 5773" d="M231.254 102.625c1.238-1.824 7.968-4.408 8.858-4.785 1.127.983 2.18 1.421 3.129 2.185-.181.123-.294.864-.3.915-.252 1.855-.456 1.949-4.424 5.027l-3.158 3.161s-.791.893-.886-.3c-.037-.428.914-1.669 1.293-2.561 0 0-3.36 3.282-3.963 3.46-1.065.317-1.136-.524-1.388-.539-.55-.03-.841-.065-.834-.622.015-1.032 1.26-3.239 1.124-3.149-.311.2-1.267 1.755-1.764 2.238-.322.311-.718.039-.669-.156.315-1.239 2.1-3.564 2.982-4.874z" fill="#dbb397"/><g data-name="Group 3218"><path data-name="Path 5774" d="M239.097 98.068s18.851-11.945 19.272-12.777a4.515 4.515 0 0 1 2.06.913c1.383 1.1.446 5.985.3 6.21-2.232 3.577-16.133 8.268-18.1 9.419-1.363-.105-3.532-3.765-3.532-3.765z" fill="#575f63"/></g><path data-name="Path 5775" d="M272.656 69.283c.1.206-.108.43-.386.76l-2.6 2.738c-.26.2-.5.1-.446-.592l.195-5.552a18.4 18.4 0 0 1 1.119-3.421.915.915 0 0 1 .764-.654 17.271 17.271 0 0 0 .07 1.84 20.524 20.524 0 0 0 1.284 4.881z" fill="#acc6cc" opacity=".35" style="mix-blend-mode:multiply;isolation:isolate"/><path data-name="Path 5776" d="M279.536 62.583a4.1 4.1 0 0 1-.686 2.491c-1.508 2.106-6.164 4.171-6.164 4.171-.336.175-.47.253-.423.915l.633 4.085c.075.317.321.4.574.177 0 0 5.978-5.168 6.869-6.163 1.027-1.144 1.3-1.748 1.1-2.663a21.912 21.912 0 0 0-1.903-3.013z" fill="#acc6cc" opacity=".35" style="mix-blend-mode:multiply;isolation:isolate"/><path data-name="Path 5777" d="M272.678 68.634c.1.205-.106.43-.367.762l-2.457 2.753c-.246.195-.466.1-.414-.589l.215-5.551a19.513 19.513 0 0 1 1.069-3.426.884.884 0 0 1 .723-.658 17.885 17.885 0 0 0 .054 1.837 21.564 21.564 0 0 0 1.177 4.872z" fill="#fff"/><path data-name="Path 5778" d="M279.19 62.566a3.087 3.087 0 0 1-.738 2.061 24.96 24.96 0 0 1-5.569 3.993c-.332.176-.459.252-.416.915l.611 4.084c.073.316.311.4.56.175 0 0 5.865-5.178 6.74-6.175 1.006-1.146 1.272-1.751 1.077-2.665-.119-.555-2.265-2.388-2.265-2.388z" fill="#fff"/><path data-name="Path 5779" d="M274.172 38.343c-5.571-.864-6.672 2.674-7.4 6.613-.137.732.02 1.809-.074 2.373-.112.676-.943 1.108-.757 3.956a51.2 51.2 0 0 0 1.4 7.469c.314 1.155.475 1.409 1.19 1.679 1.817.687 4.856.3 8.442-2.569 3.177-2.555 4.444-7.44 4.581-7.9l-1.064-7.428s-3.349-3.733-6.318-4.193z" fill="#ffd7c2"/><g data-name="Group 3219"><path data-name="Path 5780" d="M276.411 39.529a.5.5 0 0 1-.134-.078c-.071-.09 0-.06.134.078z" fill="#f2c4ac" opacity=".34" style="mix-blend-mode:multiply;isolation:isolate"/><path data-name="Path 5781" d="M276.971 57.864c-2.83 2.264-5.317 2.978-7.135 2.843a10.8 10.8 0 0 0 4.231-3.041 11.246 11.246 0 0 0 2.562-4.6c.292-1.523-.149-1.23-1.225-2.234-2.428-2.272-2.61-5.882-4.7-8.2a6.245 6.245 0 0 0-2.747-1.361 8.422 8.422 0 0 1 1.468-2.135c1.421.325 5.719 1.037 9.389 1.784a19.856 19.856 0 0 1 1.678 1.612l1.064 7.428c-.141.464-1.408 5.349-4.585 7.904z" fill="#d8b09e" opacity=".37" style="mix-blend-mode:multiply;isolation:isolate"/></g><path data-name="Path 5782" d="M267.186 41.569c-1.323.271-1.762-5.221 2.129-6.919 4.338-1.892 6.877.72 10.655 1.513a8.093 8.093 0 0 1 6.009 6.044c2.414 9.312-5.242 16.458-7.17 15.085a42.605 42.605 0 0 1-.292-5.675c.566-8.666-7.025-10.928-11.331-10.048z" fill="#7a3b18"/><path data-name="Path 5783" d="M263.858 87.203a6.051 6.051 0 0 0-1.433-4.311c-1.882-2.454-2.85-3.868-1.191-8.57.465-1.323 1.23-4.858 2-7.264 1.32-4.09 2.675-5.046 4.26-5.053 1.1 0 1.708.043 2.732.122a20.72 20.72 0 0 0-2.492 13.1c.864 6.724 1.107 6.082 1.107 6.082s.282 13.3-.09 16.883c-.147 1.4-.908 6.742-1.269 8.422-.084.392-.258.172-.258.172-2.213-.7-6.71-4.41-7.271-5.509.183-.931 3.871-12.971 3.905-14.074z" fill="#61696d"/><path data-name="Path 5784" d="M269.108 106.59c-.059-1.445-.836-9.1-.777-11 .125-4.02.515-14.277.515-14.277s4.467-4.722 8.5-9.566a38.12 38.12 0 0 0 4.339-6.438 38.286 38.286 0 0 1 4.416 2.848c4.813 3.568-.4 9.359-.4 9.359s-5.369 7.716-6.516 11.571c-.428 1.44 3.971 12.254 5.01 14.951-2.023 1.294-6.721 3.177-14.635 2.932-.354-.016-.424-.055-.452-.38z" fill="#61696d"/><path data-name="Path 5785" d="M271.436 62.083l-.021-1.108s-.283.157-.64.345c-.794.422-1.339 1.452-1.893 2.11-.659.782-3.519 5.892-3.519 5.892-.179.349-.055.432.148.6l1.933 1.195-2.023.775c-.205.114-.27.2-.156.593.79 2.805 3.563 9.277 3.563 9.277s-.552-7.816-.32-10.324c.568-6.155 2.928-9.355 2.928-9.355z" fill="#3f4d51"/><path data-name="Path 5786" d="M269.2 81.265c0 .06-.341.632-.342.7a5.835 5.835 0 0 0-.527 2.9c.161 3.337.639 2.555.538 5.011-.114 2.744-.207 6.944-.259 9.5-.068.529-.155 1.156-.248 1.822.027-1.6.14-7.727.293-11.331.1-2.434-.378-1.655-.54-5a4.8 4.8 0 0 1 .624-3.172z" fill="#232f38" opacity=".61"/><path data-name="Path 5787" d="M279.445 62.517a.648.648 0 0 1 .443.268 16.263 16.263 0 0 0 2.068 2.62l-2.289 7.439c-.069.236-.106.442-.36.523l-3.033.044 1.251 1.865c.118.24.388.56 0 .823-4.92 3.361-4.672 2.9-9.007 5.829a49.227 49.227 0 0 1 5.031-8.164 65.38 65.38 0 0 0 5.465-9.007 5.219 5.219 0 0 0 .431-2.24z" fill="#3f4d51"/><path data-name="Path 5788" d="M278.379 51.951s1.86-2.773 3.441-1.964c.97.5.731 2-.23 3.373-2.21 3.142-3.277 2.053-3.277 2.053l-.176-3.131z" fill="#ffd7c2"/><path data-name="Path 5789" d="M278.379 51.951s1.86-2.773 3.441-1.964c.97.5.731 2-.23 3.373-2.21 3.142-3.277 2.053-3.277 2.053l-.176-3.131z" fill="#d8b09e" opacity=".37" style="mix-blend-mode:multiply;isolation:isolate"/><path data-name="Path 5790" d="M273.836 91.674c1.068.644 3.6 1.555 6.289-2.626 1.966-3.056 4.73-10.108 6.3-14.607.832-2.376.806-5.211.133-5.546 2.267.408 2.77 5.464 1.356 9.508a66.583 66.583 0 0 1-5.762 12.6c-2.689 4.181-5.223 3.269-6.289 2.627a34.461 34.461 0 0 1-6.986-5.654 33.077 33.077 0 0 0 4.959 3.698z" fill="#383736" opacity=".19" style="mix-blend-mode:multiply;isolation:isolate"/><path data-name="Path 5791" d="M272.413 43.758c1.222 1.762 1.06 2.568 2.218 4.8 1.566 3.026 2.811 3.161 4.218 3.286 1.477.13 7.64-.664 4.957-8.634-1.15-3.426-14.253-4.727-15.32-1.826-.045.125 1.771-.734 3.927 2.374z" fill="#7a3b18"/><path data-name="Path 5792" d="M280.936 40.333a8.4 8.4 0 0 1-4.718-.484c-1.84-.648-3.7-.579-4.87 1.793-.412.832.227-3.288 3.248-2.6 1.725.387 5.067 1.59 6.34 1.291z" fill="#fff" opacity=".18"/><path data-name="Path 5793" d="M279.707 39.197s-.275.71-4.326-.81a3.15 3.15 0 0 0-4.346 2.57c-.029.928-.993-3.411 1.719-3.749s5.682 2.287 6.953 1.989z" fill="#fff" opacity=".18"/><path data-name="Path 5794" d="M272.856 35.309s-3.054.456-3.035 2.567-.012 1.774-.012 1.774-.5-.4-.409-1.829.877-2.423 3.456-2.512z" fill="#fff" opacity=".18"/><g data-name="Group 3223"><g data-name="Group 3222"><path data-name="Path 5795" d="M276.881 151.283l17.268-9.971 2.444 1.421-17.269 9.969a2.024 2.024 0 0 1-2.041.2l-2.444-1.421a2.023 2.023 0 0 0 2.042-.198z" fill="#d1d1d1"/><g data-name="Group 3221"><path data-name="Path 5796" d="M287.771 99.901c.557-.352.215-.143 6.251-3.63l2.444 1.419c-5.608 3.239-6.985 3.868-9.489 6.063-.742.651-1.5 1.39-2.163 2.1-.02.021-.038.043-.061.064-.207.221-.41.446-.611.673l-.066.072c-4.606 5.233-8.241 12.623-8.841 19.586-.124 1.454-.093.228-.022 25.532a2.865 2.865 0 0 0 1.2 2.627l-2.442-1.419a2.871 2.871 0 0 1-1.2-2.63l-.065-23.512c-.032-9.688 6.596-21.595 15.065-26.945z" fill="#d1d1d1"/><g data-name="Group 3220"><path data-name="Path 5797" d="M290.962 100.868c-8.748 5.051-15.843 17.34-15.815 27.393l.066 23.515c.009 2.6 1.854 3.651 4.116 2.345l17.268-9.97v-1.414l-17.269 9.969c-1.582.915-2.875.178-2.879-1.64l-.067-23.513c-.027-9.276 6.518-20.612 14.589-25.272l5.5-3.176V97.69z" fill="#707070"/></g></g></g><path data-name="Path 5798" d="M287.771 99.901c.557-.352.215-.143 6.251-3.63l2.444 1.419c-5.608 3.239-6.985 3.868-9.489 6.063-.742.651-1.5 1.39-2.163 2.1-.02.021-.038.043-.061.064-.207.221-.41.446-.611.673l-.066.072a38.5 38.5 0 0 0-7.011 11.753 1.18 1.18 0 0 1-1.693.64 1.7 1.7 0 0 1-.755-2.049c2.558-6.89 7.437-13.493 13.154-17.105z" fill="#444"/></g><g data-name="Group 3237"><g data-name="Group 3234"><g data-name="Group 3233"><g data-name="Group 3225"><path data-name="Path 5799" d="M328.636 172.428l40.2 23.366a.455.455 0 0 0-.465.044c-.579.334-.864 1.311-.458 1.549l-40.2-23.364a.467.467 0 0 1-.191-.422c.001-.67.714-1.409 1.114-1.173z" fill="#d1d1d1"/><g data-name="Group 3224"><path data-name="Path 5800" d="M368.378 195.838a1.443 1.443 0 0 0-.651 1.129c0 .413.3.579.657.372a1.434 1.434 0 0 0 .651-1.126c.001-.417-.299-.583-.657-.375z" fill="#707070"/></g></g><g data-name="Group 3229"><g data-name="Group 3228"><path data-name="Path 5801" d="M317.056 186.383l17.268-9.971 2.443 1.423-17.266 9.969a2.02 2.02 0 0 1-2.044.2q-1.221-.707-2.445-1.419a2.023 2.023 0 0 0 2.044-.202z" fill="#d1d1d1"/><g data-name="Group 3227"><path data-name="Path 5802" d="M327.946 135c.555-.352.213-.146 6.249-3.632l2.443 1.42c-5.606 3.237-6.982 3.868-9.486 6.063-.741.649-1.5 1.39-2.164 2.094-.021.021-.039.043-.059.064-.205.223-.41.447-.613.674l-.065.073c-4.6 5.232-8.244 12.621-8.841 19.587-.123 1.451-.092.225-.02 25.53a2.863 2.863 0 0 0 1.2 2.626l-2.444-1.418a2.87 2.87 0 0 1-1.2-2.627l-.068-23.516c-.029-9.684 6.6-21.588 15.068-26.938z" fill="#d1d1d1"/><g data-name="Group 3226"><path data-name="Path 5803" d="M331.136 135.966c-8.749 5.049-15.845 17.338-15.817 27.393l.068 23.514c0 2.6 1.852 3.648 4.115 2.344l17.266-9.971v-1.411l-17.266 9.969c-1.585.914-2.877.178-2.881-1.64l-.067-23.515c-.027-9.275 6.519-20.612 14.59-25.27l5.5-3.178-.007-1.413z" fill="#707070"/></g></g></g><path data-name="Path 5804" d="M327.946 135c.555-.352.213-.146 6.249-3.632l2.443 1.42c-5.606 3.237-6.982 3.868-9.486 6.063-.741.649-1.5 1.39-2.164 2.094-.021.021-.039.043-.059.064-.205.223-.41.447-.613.674l-.065.073a38.49 38.49 0 0 0-7.011 11.753 1.181 1.181 0 0 1-1.693.639 1.694 1.694 0 0 1-.753-2.048c2.555-6.888 7.434-13.487 13.152-17.1z" fill="#444"/></g><path data-name="Path 5805" d="M305.223 167.571a7.148 7.148 0 0 1 3.472-4.8c17.222-9.945 20.4-10.588 22.045-14.294.71-1.6-.3-2.608-.664-3.48-2.585-6.174 2.944-25.891 6.918-33.688.207-.409.967-.518 2.259.215 4 2.269 20.339 11.913 29.146 17.029-.2-.115-.3.408-.469.563-1.742 1.6-10.838 27.913-6.821 34.326 3 4.785-2.74 6.071-21.919 17.144a7.1 7.1 0 0 0-3.549 5.323.472.472 0 0 0 .178.481c-8.808-5.116-21.687-12.694-30.494-17.813-.28-.16-.168-.646-.102-1.006z" fill="#565656"/><path data-name="Path 5806" d="M334.365 185.214a7.1 7.1 0 0 1 3.548-5.323c19.176-11.071 24.916-12.359 21.919-17.144-4.017-6.411 4.932-33.11 6.677-34.709.166-.155.334-.338.616-.213.082.033.778.432 1.274.737a.538.538 0 0 0-.615.179c-1.627 1.726-10.692 28.3-6.675 34.708 3 4.785-2.74 6.073-21.919 17.144a7.1 7.1 0 0 0-3.549 5.322.48.48 0 0 0 .178.485c-1.2-.694-.2-.142-1.4-.838a.607.607 0 0 1-.054-.348z" fill="#3e4444"/><path data-name="Path 5807" d="M330.262 149.436l29.513 17.386 1.132 1.017a7.292 7.292 0 0 1-.506.535l-1.132-1.016-29.416-17.328a6.573 6.573 0 0 0 .409-.594z" fill="#383838"/><path data-name="Path 5808" d="M330.136 145.096l30.823 18.067c.057.108.119.215.181.315a3.666 3.666 0 0 1 .716 2.512l-30.886-18.1c.232-1.216-.505-2.055-.834-2.794z" fill="#0c0c0c" opacity=".09"/><g data-name="Group 3230"><path data-name="Path 5809" d="M367.49 129.125c-4.257 8.362-9.882 29.077-6.6 34.318 3 4.787-2.529 6.071-21.7 17.144a7.059 7.059 0 0 0-3.549 5.323c-.039.41.2.623.539.48a1.388 1.388 0 0 0 .683-1.01 4.436 4.436 0 0 1 2.187-3.3c19.875-11.464 22.553-11.589 23.673-15.345a5.825 5.825 0 0 0-.743-4.579c-2.932-4.673 2.328-24.564 6.457-32.67.215-.428.179-.852-.081-.95s-.649.164-.866.589z" fill="#292d2d"/></g><g data-name="Group 3231"><path data-name="Path 5810" d="M360.223 146.901l.094-.415-29.359-17.211-.1.442z" fill="#444"/></g><g data-name="Group 3232"><path data-name="Path 5811" d="M360.036 147.798l.191-.9-29.359-17.215-.19.893z" fill="#6d6d6d"/></g></g></g><g data-name="Group 3236"><g data-name="Group 3235"><path data-name="Path 5812" d="M311.544 188.709c-3.277 1.892-3.3 4.961-.04 6.855l26.285 15.385a13.043 13.043 0 0 0 11.833 0l22.562-13.026c3.277-1.892 3.293-4.961.038-6.853l-26.286-15.387a13.039 13.039 0 0 0-11.831 0z" fill="#231f20" opacity=".1" style="mix-blend-mode:multiply;isolation:isolate"/></g></g></g><g data-name="Group 3244"><path data-name="Path 5813" d="M302.25 170.247s8.387 30.661 8.125 32.506-5.9 3.243-5.9 3.243 3.069 2.189 3.436 2.344 7.594-1.589 7.594-1.589 3.234-.8.725-4.575c-1.144-1.729-3.254-12.283-3.254-12.283z" fill="#d1a180"/><g data-name="Group 3239"><path data-name="Path 5814" d="M309.936 208.265l2.6.561 1.028-1.874-1.543-.274z" fill="#2d2824"/><g data-name="Group 3238"><path data-name="Path 5815" d="M313.098 203.643a3.384 3.384 0 0 0-1.149-2c-1.085-.827-2.639-1.23-2.589-.594.147 1.925-6.158 3.817-10.39 5.588-1.126.469-.979 2.418-1.008 2.922a6.568 6.568 0 0 0 2.354 1.062 11.208 11.208 0 0 0 4.166.123 25.54 25.54 0 0 0 7.7-2.963s.4-.178.4.205c0 .178-.005.744-.022.887l3.893-.889a.639.639 0 0 0 .411-.5c.111-.56.276-1.717.315-2.1a7.564 7.564 0 0 0-.537-4.22c-.3-.665-1.211-1.259-1.183-1.073.524 3.512-2.361 3.552-2.361 3.552z" fill="#23211f"/></g><path data-name="Path 5816" d="M300.316 210.621a6.568 6.568 0 0 1-2.354-1.062c.013-.221-.02-.6.021-1.01a10.276 10.276 0 0 0 5.8 1.333 34.972 34.972 0 0 0 8.139-2.3c.922-.452 2.214-.36 3.24-.621a4.913 4.913 0 0 0 1.92-.833 30.2 30.2 0 0 1-.217 1.348.639.639 0 0 1-.411.5l-3.893.889c.017-.143.022-.709.022-.887-.005-.383-.4-.205-.4-.205a25.54 25.54 0 0 1-7.7 2.963 11.208 11.208 0 0 1-4.167-.115z" fill="#3f3d3b"/></g><path data-name="Path 5817" d="M312.068 171.283c.359-.575 1.14-.6 1.821-.874 12.315-5.053 30.95-16.587 30.95-16.587l-4.941-11.322s-29.718 15.522-37.941 22.325c-1.426.908-.785 5.354-.593 5.905 1.113 3.215 6.747 29.889 7.19 31.591.686 2.627 8.384 1.107 8.7-.047 0 0-2.112-23.391-5.171-30.225a.74.74 0 0 1-.015-.766z" fill="#024063"/><path data-name="Path 5818" d="M311.916 171.201c11.784-3.911 31.309-8.563 32.486-8.98l-.653-3.206-2.362-4.052c-4.8 2.037-12.611 6.293-18.183 7.858-4.5 1.263-8.206 4.015-14.167 5.119a12.408 12.408 0 0 0-2.91 1.183 5.282 5.282 0 0 0-.853.559l.851.743c-.875.891-1.635 1.474.159 1.863 1.963.426 2.16.48 1.609.854-.86.588-.764 1.1-.4 2.17 1.92 5.547 5.246 24.357 6.292 28.311 1.351-.219 3.336-.874 3.466-1.349 0 0-2.112-23.391-5.171-30.225a3.218 3.218 0 0 1-.164-.848z" fill="#024063" opacity=".2" style="mix-blend-mode:multiply;isolation:isolate"/><g data-name="Group 3243"><path data-name="Path 5819" d="M318.944 174.983s8.387 30.661 8.124 32.506-5.9 3.245-5.9 3.245 3.07 2.187 3.436 2.342 7.595-1.588 7.595-1.588 3.233-.8.724-4.577c-1.144-1.728-3.253-12.282-3.253-12.282z" fill="#d1a180"/><g data-name="Group 3241"><path data-name="Path 5820" d="M326.636 212.996l2.6.562 1.028-1.874-1.542-.274z" fill="#2d2824"/><g data-name="Group 3240"><path data-name="Path 5821" d="M329.791 208.377a3.379 3.379 0 0 0-1.149-2c-1.084-.827-2.639-1.231-2.587-.594.147 1.925-6.159 3.816-10.391 5.588-1.126.47-.979 2.42-1.008 2.924a6.639 6.639 0 0 0 2.353 1.06 11.214 11.214 0 0 0 4.166.125 25.712 25.712 0 0 0 7.7-2.963s.4-.178.4.2c0 .178 0 .743-.022.888l3.893-.89a.631.631 0 0 0 .411-.506 33.01 33.01 0 0 0 .317-2.1 7.565 7.565 0 0 0-.539-4.218c-.294-.668-1.211-1.261-1.182-1.073.523 3.518-2.362 3.559-2.362 3.559z" fill="#23211f"/></g><path data-name="Path 5822" d="M317.009 215.353a6.639 6.639 0 0 1-2.353-1.06c.013-.224-.02-.6.021-1.01a10.3 10.3 0 0 0 5.8 1.331 34.872 34.872 0 0 0 8.139-2.295 17.232 17.232 0 0 1 3.24-.621 4.994 4.994 0 0 0 1.922-.833 29.733 29.733 0 0 1-.219 1.345.631.631 0 0 1-.411.506l-3.893.89c.017-.145.022-.71.022-.888 0-.381-.4-.2-.4-.2a25.712 25.712 0 0 1-7.7 2.963 11.214 11.214 0 0 1-4.168-.128z" fill="#3f3d3b"/></g><g data-name="Group 3242" fill="#024063"><path data-name="Path 5823" d="M317.922 176.216c1.114 3.216 6.431 29.07 6.875 30.771.687 2.627 8.768 1.317 9.087.164 0 0-2.047-23.536-5.1-30.371-.241-.54-.2-2.084-.385-2.716-.219-.762-.739-.412-.817-1.055-.061-.52.514-.481.535-.718 0-.025-1.33-7.791-1.33-7.816 0 0-7.286 4.421-8.99 6.159-1.187 1.21-.067 5.033.125 5.582z"/><path data-name="Path 5824" d="M327.503 176.308c8.73-4.511 22.114-11.077 25.646-17.435 1.81-3.253.293-9.1.293-9.1s-10.186-4.9-19.039.187c-.93.534 4.428 3.491 3.5 4.035-5.785 3.389-17.338 13.61-20.108 16.64l8.27 7.355c.522-.423.758-1.33 1.438-1.682z"/></g><path data-name="Path 5825" d="M328.567 175.761c.362-.164.567-.3.913-.465 3.983-1.9 7.2-3.761 9.9-5.295 4.671-2.653 7.969-4.311 10.451-7.18 1.9-2.193 5.725-7.33 5.725-7.33l-1.4-4.982c-1.8.764-4.213 5.551-5.6 6.647-2.3 1.824-1.946 7-5.429 7.972-4.5 1.264-12.381 3.2-16.162 5.119a29.594 29.594 0 0 0-4.382 3.235c-.168.356-.608.641-.612.934s.851.743.851.743c-.876.891-1.635 1.472.158 1.861 1.964.428 2.588 2.082 2.038 2.461-.86.586-1.192 4.128-.823 5.2 1.921 5.546 5.988 19.7 7.034 23.658 1.352-.219 2.526-.7 2.656-1.177 0 0-2.045-23.548-5.1-30.383a4.5 4.5 0 0 1-.218-1.018z" fill="#024063" opacity=".2" style="mix-blend-mode:multiply;isolation:isolate"/></g></g><path data-name="Path 5826" d="M308.747 140.952c-.219.473 2.688-.35 6.389-1.442 5.227-1.541 11.971-3.872 13.14-6.017 2.6-4.781 7.142-10.7 10.5-19.083 3.321-8.3-4.595-15.594-9.115-7.242-1.608 2.971-5.142 13.706-6.186 15.789-1.2 2.385-4.439 5.585-6.675 7.186.403.977-6.396 7.24-8.053 10.809z" fill="#024063"/><path data-name="Path 5827" d="M328.79 129.783c-2.754-13.96.391-20.475 1.855-23.4.1-.2.975-4.216 10.393-2.416a33.489 33.489 0 0 0 4.433.739c4.634.1 11.65 6.784 12.7 11.589 1.5 6.88 1.361 10.282-1.1 25.372-.845 5.189-.137 8.973-.555 13.295-.479 4.949-15.076 3.71-19.875.579-3.472-2.268-7.5-6.245-6.591-7.856 2.258-4.031-.014-11.578-1.26-17.902z" fill="#024063"/><path data-name="Path 5828" d="M346.028 139.965c.031-.747 3.409-19.185 4.779-22.786 4.148-.94 8.073-.73 8.333 3.056.26 3.753-2.2 20.516-4 24.992-2.388 5.952-25.369 9.871-28.131 7.582-.301-.254 18.935-10.834 19.019-12.844z" fill="#275a5e" opacity=".3" style="mix-blend-mode:multiply;isolation:isolate"/><g data-name="Group 3248"><g data-name="Group 3247"><path data-name="Path 5829" d="M347.519 204.123l17.268-9.972 2.444 1.419-17.27 9.97a2.024 2.024 0 0 1-2.041.2l-2.442-1.421a2.026 2.026 0 0 0 2.041-.196z" fill="#d1d1d1"/><g data-name="Group 3246"><path data-name="Path 5830" d="M358.409 152.737c.557-.352.215-.145 6.251-3.632l2.445 1.419c-5.609 3.239-6.987 3.867-9.49 6.062-.741.651-1.5 1.39-2.162 2.1-.021.02-.039.043-.062.063-.207.222-.41.447-.613.674-.019.024-.043.049-.065.072-4.6 5.233-8.241 12.624-8.84 19.586-.124 1.454-.093.227-.021 25.532a2.865 2.865 0 0 0 1.2 2.627l-2.443-1.419a2.87 2.87 0 0 1-1.2-2.629l-.065-23.511c-.031-9.688 6.597-21.598 15.065-26.944z" fill="#d1d1d1"/><g data-name="Group 3245"><path data-name="Path 5831" d="M361.601 153.703c-8.749 5.052-15.843 17.341-15.817 27.392l.068 23.515c.008 2.6 1.853 3.651 4.115 2.344l17.269-9.971v-1.415l-17.27 9.97c-1.581.915-2.875.178-2.879-1.641l-.065-23.513c-.027-9.273 6.517-20.612 14.589-25.27l5.5-3.177v-1.415z" fill="#707070"/></g></g></g><path data-name="Path 5832" d="M358.409 152.737c.557-.352.215-.145 6.251-3.632l2.445 1.419c-5.609 3.239-6.987 3.867-9.49 6.062-.741.651-1.5 1.39-2.162 2.1-.021.02-.039.043-.062.063-.207.222-.41.447-.613.674-.019.024-.043.049-.065.072a38.528 38.528 0 0 0-7.01 11.752 1.181 1.181 0 0 1-1.694.641 1.7 1.7 0 0 1-.753-2.049c2.557-6.889 7.436-13.49 13.153-17.102z" fill="#444"/></g><path data-name="Path 5833" d="M345.136 96.491l1.6 10.1s-1.763 4.06-5.13 4.744c-3.876.794-5.34-2.922-3.517-4.433.06-.045-.323-1.329-.513-2.285a38.229 38.229 0 0 0-1.19-4.314z" fill="#d59f55"/><path data-name="Path 5834" d="M337.664 105.751a6.42 6.42 0 0 0 2.347 4.716 1.125 1.125 0 0 1-.079.915c-.38.514-1.807 2.092-2.419 2.805-.1.119-.351-.026-.459-.408a49.462 49.462 0 0 1-1.327-7.8l2.883-3.16a19.09 19.09 0 0 0-.946 2.932z" fill="#cde3e8"/><path data-name="Path 5835" d="M338.25 85.793l5.8 4.277.532 6.582c.072.76.283 4.751.248 6.026-.023.762-.145.837-1.134 1.6a22.84 22.84 0 0 1-5.743 3.44c-.862.252-3.19-.567-3.19-.567-.838-.291-.962-.705-1.313-2.093 0 0-2.678-10.254-2.807-13.648a2.351 2.351 0 0 1 1.215-2.353z" fill="#f3c681"/><g data-name="Group 3249"><path data-name="Path 5836" d="M348.661 93.862c1.65-5.008-1.955-8.88-1.924-8.51-.2-2.557-5.754-5.493-10.842-3.879a8.967 8.967 0 0 0-5.123 4.749c-.047.117 1.007-1.578 1.954-1.783.225-.049.828-.088.984-.147a6.218 6.218 0 0 0-3.477 6.243c.167 2.147.4 4.664.58 4.662 7.578-.142 10.842-6.8 10.989-4.64s.686 6.556.7 6.575c.1.239 1.99-1.424 2.367-2.431 0 0 .2-1.327 1.319-1.145 1.336.219-1.106 3.993-1.131 4.173a28.129 28.129 0 0 0 .952 4.308l2.353-6.965a8.054 8.054 0 0 1 .299-1.21z" fill="#1e0c04"/></g><path data-name="Path 5837" d="M346.145 102.723s-.426 3.819-5.856 7.822c-.635.468-.306.89-.306.89l.92 3.925s.268.367.661-.026 6.472-6.382 6.082-10.119c-.056-.51-.449.383-.883-2.037-.119-.678-.618-.455-.618-.455z" fill="#cde3e8"/><path data-name="Path 5838" d="M339.871 102.148a28.119 28.119 0 0 0 2.658-2.8c1.7-1.984.319-5.6.319-5.6l1.552.6.186 2.311c.072.76.283 4.751.248 6.026-.023.762-.145.837-1.134 1.6a29.024 29.024 0 0 1-4.751 3.045c.308-1.886.847-5.107.922-5.182z" fill="#d4a071"/><path data-name="Path 5839" d="M346.336 93.196c-1.641-.489-1.6 1.063-1.9 2.074-.314 1.055-.426 1.561-.426 1.561a7.673 7.673 0 0 0 .639 2.673c.24.422 1.128.41 1.815-.63a12.762 12.762 0 0 0 1.33-2.705c.342-1.286.187-2.486-1.458-2.973z" fill="#f2c8a5"/><path data-name="Path 5840" d="M346.336 93.196c-1.641-.489-1.6 1.063-1.9 2.074-.314 1.055-.426 1.561-.426 1.561a7.673 7.673 0 0 0 .639 2.673c.24.422 1.128.41 1.815-.63a12.762 12.762 0 0 0 1.33-2.705c.342-1.286.187-2.486-1.458-2.973z" fill="#d4a071"/><g data-name="Group 3250"><path data-name="Path 5841" d="M303.024 138.806c1.153-.754 1.854-.969 3.632-2.105 5.324-3.4 16-10.268 16.313-10.892a4.525 4.525 0 0 1 2.06.915c1.384 1.1 1.554 5.268.233 7.356-2.256 3.565-16.062 7.121-18.026 8.272-1.369-.104-5.294-2.84-4.212-3.546z" fill="#024063"/></g><path data-name="Path 5842" d="M316.263 154.336c1.239-1.824 7.97-4.408 8.858-4.785 3.643.086 2.836 3.049 2.83 3.1-.252 1.855-.457 1.949-4.422 5.026l-3.16 3.162s-.79.892-.886-.3c-.035-.428.915-1.669 1.293-2.561 0 0-3.36 3.282-3.963 3.46-1.065.317-1.135-.525-1.389-.539-.549-.03-.84-.065-.833-.622.014-1.032 1.259-3.239 1.124-3.149-.309.205-1.268 1.755-1.763 2.238-.323.311-.718.039-.67-.156.316-1.24 2.099-3.563 2.981-4.874z" fill="#d3a07d"/><path data-name="Path 5843" d="M329.157 152.143c-.219.473 2.688-.35 6.388-1.441 5.229-1.542 11.974-3.872 13.141-6.018 2.6-4.781 6.073-9.981 9.427-18.366 3.321-8.3-3.524-16.31-8.046-7.958-1.607 2.973-5.141 13.708-6.185 15.788-1.2 2.385-4.438 5.585-6.675 7.188.408.975-6.392 7.239-8.05 10.807z" fill="#024063"/><g data-name="Group 3251"><path data-name="Path 5844" d="M323.436 149.997c1.153-.753 1.855-.968 3.632-2.1 5.323-3.4 16-10.27 16.312-10.892a4.5 4.5 0 0 1 2.06.913c1.385 1.1 1.557 5.268.234 7.359-2.254 3.563-16.063 7.119-18.026 8.27-1.37-.108-5.295-2.843-4.212-3.55z" fill="#024063"/></g><g data-name="Group 3271"><g data-name="Group 3268"><g data-name="Group 3267"><g data-name="Group 3255"><path data-name="Path 5846" d="M192.956 90.283l40.2 23.366a.458.458 0 0 0-.466.045c-.579.334-.863 1.31-.457 1.548q-20.1-11.683-40.205-23.364a.467.467 0 0 1-.19-.422c-.002-.668.707-1.408 1.118-1.173z" fill="#d1d1d1"/><g data-name="Group 3254"><path data-name="Path 5847" d="M232.693 113.695a1.442 1.442 0 0 0-.65 1.128c0 .414.3.58.656.373a1.437 1.437 0 0 0 .651-1.126c-.001-.418-.294-.587-.657-.375z" fill="#707070"/></g></g><g data-name="Group 3259"><g data-name="Group 3258"><path data-name="Path 5848" d="M181.372 104.24l17.268-9.971 2.443 1.422-17.268 9.97a2.019 2.019 0 0 1-2.042.2c-.816-.47-1.63-.946-2.445-1.419a2.025 2.025 0 0 0 2.044-.202z" fill="#d1d1d1"/><g data-name="Group 3257"><path data-name="Path 5849" d="M192.261 52.856c.556-.352.214-.145 6.25-3.632l2.443 1.421c-5.607 3.237-6.982 3.867-9.487 6.062a32.76 32.76 0 0 0-2.164 2.095l-.059.063a55.5 55.5 0 0 0-.612.674l-.066.074c-4.6 5.231-8.243 12.621-8.841 19.586-.124 1.452-.092.225-.02 25.53a2.859 2.859 0 0 0 1.2 2.627l-2.446-1.419a2.874 2.874 0 0 1-1.2-2.627l-.067-23.515c-.027-9.685 6.602-21.589 15.069-26.939z" fill="#d1d1d1"/><g data-name="Group 3256"><path data-name="Path 5850" d="M195.454 53.822c-8.749 5.05-15.846 17.339-15.817 27.394l.068 23.513c.006 2.6 1.853 3.649 4.115 2.344l17.267-9.971v-1.411l-17.268 9.97c-1.583.913-2.875.178-2.88-1.64l-.067-23.515c-.027-9.276 6.518-20.613 14.589-25.271l5.5-3.177-.006-1.413z" fill="#707070"/></g></g></g><path data-name="Path 5851" d="M192.261 52.856c.556-.352.214-.145 6.25-3.632l2.443 1.421c-5.607 3.237-6.982 3.867-9.487 6.062a32.76 32.76 0 0 0-2.164 2.095l-.059.063a55.5 55.5 0 0 0-.612.674l-.066.074a38.491 38.491 0 0 0-7.011 11.752 1.18 1.18 0 0 1-1.693.639 1.7 1.7 0 0 1-.754-2.047c2.557-6.888 7.436-13.487 13.153-17.101z" fill="#444"/></g><path data-name="Path 5852" d="M169.536 85.427a7.142 7.142 0 0 1 3.471-4.8c17.222-9.945 20.4-10.587 22.043-14.293.711-1.6-.294-2.609-.663-3.481-2.586-6.173 2.945-25.891 6.919-33.687.207-.409.966-.518 2.257.215 4 2.268 20.341 11.912 29.147 17.029-.2-.115-.3.407-.469.563-1.741 1.6-10.837 27.913-6.821 34.326 3 4.785-2.742 6.07-21.919 17.143a7.1 7.1 0 0 0-3.548 5.324.473.473 0 0 0 .177.481c-8.809-5.117-21.688-12.7-30.494-17.813-.275-.161-.165-.646-.1-1.007z" fill="#565656"/><path data-name="Path 5853" d="M198.681 103.071a7.1 7.1 0 0 1 3.548-5.324c19.175-11.071 24.916-12.358 21.918-17.143-4.017-6.411 4.933-33.11 6.676-34.709.167-.156.334-.338.617-.213.082.033.779.432 1.274.737a.535.535 0 0 0-.614.178c-1.628 1.726-10.692 28.3-6.676 34.709 3 4.785-2.742 6.073-21.919 17.144a7.094 7.094 0 0 0-3.548 5.321.48.48 0 0 0 .177.485c-1.2-.694-.2-.141-1.4-.837a.584.584 0 0 1-.053-.348z" fill="#3e4444"/><path data-name="Path 5854" d="M194.578 67.293l29.512 17.385 1.132 1.017a6.507 6.507 0 0 1-.507.535l-1.13-1.016-29.416-17.327c.146-.193.283-.389.409-.594z" fill="#383838"/><path data-name="Path 5855" d="M194.449 62.952l30.823 18.067c.057.109.118.215.179.316a3.664 3.664 0 0 1 .718 2.512l-30.887-18.106c.236-1.21-.501-2.05-.833-2.789z" fill="#0c0c0c" opacity=".09"/><g data-name="Group 3260"><path data-name="Path 5856" d="M231.804 46.983c-4.256 8.362-9.88 29.076-6.6 34.318 3 4.787-2.529 6.07-21.7 17.143a7.059 7.059 0 0 0-3.548 5.324c-.041.409.2.622.538.479a1.4 1.4 0 0 0 .684-1.01 4.435 4.435 0 0 1 2.186-3.3c19.874-11.464 22.553-11.589 23.673-15.344a5.828 5.828 0 0 0-.742-4.58c-2.933-4.673 2.328-24.564 6.457-32.67.215-.427.178-.852-.083-.95s-.648.163-.865.59z" fill="#292d2d"/></g><g data-name="Group 3264"><g data-name="Group 3263"><path data-name="Path 5857" d="M211.836 121.983l17.267-9.971 2.444 1.419-17.27 9.969a2.019 2.019 0 0 1-2.041.2l-2.444-1.421a2.027 2.027 0 0 0 2.044-.196z" fill="#d1d1d1"/><g data-name="Group 3262"><path data-name="Path 5858" d="M222.724 70.594c.556-.353.214-.146 6.251-3.633l2.444 1.419c-5.608 3.239-6.985 3.868-9.49 6.063a31.57 31.57 0 0 0-2.162 2.1c-.021.021-.039.043-.061.064a39.427 39.427 0 0 0-.677.745c-4.6 5.233-8.241 12.625-8.841 19.586-.123 1.454-.093.227-.02 25.532a2.864 2.864 0 0 0 1.2 2.627l-2.443-1.419a2.868 2.868 0 0 1-1.2-2.628l-.065-23.512c-.031-9.688 6.595-21.596 15.064-26.944z" fill="#d1d1d1"/><g data-name="Group 3261"><path data-name="Path 5859" d="M225.917 71.56c-8.749 5.051-15.844 17.34-15.817 27.391l.068 23.515c.006 2.6 1.852 3.651 4.114 2.345l17.268-9.97v-1.414l-17.27 9.969c-1.58.915-2.874.178-2.879-1.64l-.065-23.513c-.027-9.274 6.517-20.612 14.588-25.27l5.5-3.178V68.38z" fill="#707070"/></g></g></g><path data-name="Path 5860" d="M222.724 70.594c.556-.353.214-.146 6.251-3.633l2.444 1.419c-5.608 3.239-6.985 3.868-9.49 6.063a31.57 31.57 0 0 0-2.162 2.1c-.021.021-.039.043-.061.064a39.427 39.427 0 0 0-.677.745 38.516 38.516 0 0 0-7.011 11.753 1.181 1.181 0 0 1-1.693.641 1.7 1.7 0 0 1-.755-2.05c2.559-6.89 7.438-13.491 13.154-17.102z" fill="#444"/></g><g data-name="Group 3265"><path data-name="Path 5861" d="M224.536 64.758l.092-.416-29.358-17.211-.1.442z" fill="#444"/></g><g data-name="Group 3266"><path data-name="Path 5862" d="M224.347 65.655l.192-.9-29.36-17.215-.191.893z" fill="#6d6d6d"/></g></g></g><g data-name="Group 3270"><g data-name="Group 3269"><path data-name="Path 5863" d="M175.86 106.565c-3.279 1.893-3.3 4.962-.041 6.856l26.285 15.384a13.041 13.041 0 0 0 11.832 0l22.563-13.026c3.277-1.892 3.293-4.961.037-6.853l-26.282-15.387a13.045 13.045 0 0 0-11.831 0z" fill="#231f20" opacity=".1" style="mix-blend-mode:multiply;isolation:isolate"/></g></g></g><path data-name="Path 5864" d="M168.004 41.983a4.4 4.4 0 0 0-1.794-2 21.424 21.424 0 0 0-3.6-1.839c-1.435-.692-2.186-1.081-2.186-1.081s-1.041.694.168 1.517c3.114 2.119 1.93 2.627 1.93 2.627a5.911 5.911 0 0 1-3.742.595c-2.1-.323-3.679-1.019-4.2-.761s-.113 1.173.311 1.689c1.192 1.448 3.081 3.53 5.718 3.4a25.03 25.03 0 0 0 5.936-1.321s8.307 8.929 12.74 9.64c.43.068 3.076-2.086 3.277-2.8.828-2.915-3.076-2.607-4.758-3.145-2.646-.852-9.8-6.521-9.8-6.521z" fill="#d3a07d"/><path data-name="Path 5865" d="M196.454 56.683l-26.692 12.719a8 8 0 0 0-5.112 8.112c.2 3.918 2.675 22.184 2.832 28.476.064 2.584 3.238 4.791 8.5.788.475-.364.036-17.821 0-21.554-.034-2.925.944-3.148.944-3.148.336-1.544-1.37-1.886.945-3.145l21.309-8.366s.7-1.708.7-7.433c-.005-1.869-3.426-6.449-3.426-6.449z" fill="#345163"/><path data-name="Path 5866" d="M171.12 78.906c1.083-1.181 1.771-.592.886-1.771s5.508-4.82 11.411-7.281c5.119-2.131 12.721-4.977 16.454-6.357-.03 5.422-.7 7.064-.7 7.064l-21.309 8.366c-2.315 1.259-.609 1.6-.945 3.145 0 0-.978.223-.944 3.148.038 3.733.477 21.19 0 21.554a11.959 11.959 0 0 1-3.193 1.8c-.329-4.69-1.321-18.974-1.568-22.982-.289-4.818-1.176-5.509-.092-6.686z" fill="#345163" opacity=".29" style="mix-blend-mode:multiply;isolation:isolate"/><path data-name="Path 5867" d="M203.936 62.854S193.22 72.7 183.96 78.872a7.971 7.971 0 0 0-3.686 5.9c.557-4.629-2.951 25.837-3.043 27.662-.156 3.147 3.595 5.948 8.025 1.887.439-.407 5.612-19.514 5.655-19.971a16.167 16.167 0 0 0 .447-3.464c-.28-1.816.079-2.94.984-3.212 3.148-.942 14.561-10.258 17.785-12.363 3.572-2.326 4.928-4.814 4.881-6.569-.103-4.203-11.072-5.888-11.072-5.888z" fill="#496f82"/><path data-name="Path 5868" d="M187.056 90.808c0-1.5 1.377-.59.984-2.557-.147-.735-.491-2.951 2.459-4.721s18.2-15.938 18.2-15.938l6.278 1.72c-.226 1.7-1.642 3.915-4.846 6-3.224 2.1-14.637 11.421-17.785 12.363-.905.272-1.264 1.4-.984 3.212a16.167 16.167 0 0 1-.447 3.464c-.043.457-5.216 19.564-5.655 19.971a8.034 8.034 0 0 1-2.7 1.708c1.364-6.455 4.496-21.68 4.496-25.222z" fill="#345163" opacity=".29" style="mix-blend-mode:multiply;isolation:isolate"/><path data-name="Path 5869" d="M175.115 52.651c1.313.928 4.182 2.631 5.9 1.792a16.461 16.461 0 0 0 5.132-5.694c.185-.309 3.407-7.076 3.941-8.022 1.612-2.875-1.432-5.092-1.432-5.092s4.116-13.71.567-15.066c-3.242-1.24-4.188 3.991-5.173 7.971-.663 2.676-4.724 17.834-6.083 17.592-.827-.147-9.5-4.768-9.767-4.324-.247.411-2.2 2.24-1.665 3.341a59.436 59.436 0 0 0 8.58 7.502z" fill="#cde3e8"/><path data-name="Path 5870" d="M212.557 74.062c-1.608.807-4.016 3.528-4.4 2.787-2.046-3.9-4.521-8.764-10-10.43-9-2.736-11.236-4.795-11.781-4.924 0-.3 2.066-1.378 1.891-2.253 0 0-1.277-.471.274-2.7 1-1.438.9-7.926.688-10.6-.1-1.229-2.174-5.076-2.558-8.263-.884-7.329-2.566-12.623-.376-15.666a8.7 8.7 0 0 1 4.9-2.924 7.081 7.081 0 0 1 4.08.2c11.659 2.262 19.376 9.791 20.562 11.509 4.378 6.345 1.345 31.005 1.345 31.005-.008-.12-.26 8.843-4.625 12.259z" fill="#cde3e8"/><g data-name="Group 3273"><path data-name="Path 5871" d="M195.36 29.021s4.543 15.811 2.794 21.141-6.363 14.033-6.363 14.033" fill="none" stroke="#a6c6cc" stroke-miterlimit="10" stroke-width=".478"/><g data-name="Group 3272"><path data-name="Path 5872" d="M195.721 33.254l.91.106a55.51 55.51 0 0 1 .727 22.535c-.1.559-4.592 4.5-4.592 4.5s-1.571-4.429-1.4-5.2c3.213-14.656 4.325-21.452 4.355-21.941z" fill="#1c6893"/></g><path data-name="Path 5873" d="M195.781 33.639l-1.584-3.022 1.138-1.544.777-.052 1.021 1.6s-.182 1.827-.315 2.425c-.052.231-.1.366-.127.489z" fill="#1c6893"/></g><path data-name="Path 5874" d="M200.095 13.432c.012 6.165 2.132 8.689 2.132 8.689s-.747 6.388-5.009 7.666c-.771.229-1.272-.585-1.711-.674-1.6-.321-1.368-1.427-1.368-1.427a7.163 7.163 0 0 0-1.263-2.754c-1.525-1.959-3.083-9.44-3.083-9.44-.493-3.587 10.282-14.085 10.302-2.06z" fill="#c4906c"/><path data-name="Path 5875" d="M192.1 14.447l6.942 1.3c-.109.854-.019 1.384-.131 2.115-.191 1.243.413 3.237-.968 4.41a9.314 9.314 0 0 1-2.208 1.5 1.386 1.386 0 0 0-.595 1.558c.131.837.981 3.746.367 3.783-1.8-.978-.84-.823-.84-.823s-1.651-4.189-1.955-5.655c-.415-2.01-.612-8.188-.612-8.188z" fill="#461600" opacity=".15" style="mix-blend-mode:multiply;isolation:isolate"/><path data-name="Path 5876" d="M190.611 20.708c-.413-.694-1.263.062-1.263.062-.718.481-1.128.876-.8 1.677l2.994 9.392c.274.673.573.667 1.119.186l2.455-2.345c.647-.567.617-.5.176-1.244z" fill="#fdffff"/><path data-name="Path 5877" d="M186.202 5.768l2.249-2.678s9.337-2.391 11.343-.352c4.595 4.662.32 7.442.32 7.442-.207.834-1.067 9.345-1.263 10.06-.334 1.21-.785 1.47-1.847 2.07a27.638 27.638 0 0 1-4.7 2.1c-1.158.426-3.671.187-4.241-1.33-.706-1.876-.9-3.227-1.9-7.044-.244-.944.275-1.562.283-2.195 0-.331-.928-2.293-.9-2.559.168-1.386.656-5.514.656-5.514z" fill="#d3a07d"/><path data-name="Path 5878" d="M192.609 5.834c-.048-.017 5.353-.295 5.321-.354l3.656 1.988-.207 1.342a4.578 4.578 0 0 1-1.265 1.37c-.207.834-1.067 9.345-1.263 10.06-.334 1.21-.785 1.47-1.847 2.07a24.5 24.5 0 0 1-3.407 1.6c-.162.049-.322.1-.49.164.416-.375.731-2.41 1.316-3.7a18.022 18.022 0 0 0 1.129-3.517 4.028 4.028 0 0 0-.814-2.2 1.657 1.657 0 0 1-.027-1.576 5.924 5.924 0 0 0 .785-3.225c-.07-2.098-2.375-3.852-2.887-4.022z" fill="#461600" opacity=".13" style="mix-blend-mode:multiply;isolation:isolate"/><path data-name="Path 5879" d="M200.475 18.297s3.028-10.191 2.458-11.524a9.84 9.84 0 0 0-8.341-5.988c-3.231-.2-7.776 1.433-7.776 1.433s-1.389 4.453-.171 5.513c2.474 2.149 5.2.33 8.652-.734 2.482-.768.81 8.093.81 8.093a1.691 1.691 0 0 0 1.083-.292c.9-.568 2.307-3.027 2.276-1.792-.054 2.047-.182 3.389-.182 3.389z" fill="#563b29"/><path data-name="Path 5880" d="M196.2 15.774s1.539-2.193 2.43-3.2c.844-.958 2.431-.178 2.09 1.656-.491 2.658-2.067 4.136-3.537 2.988s-.983-1.444-.983-1.444z" fill="#461600" opacity=".13" style="mix-blend-mode:multiply;isolation:isolate"/><path data-name="Path 5881" d="M196.769 62.707c-2.508-.721 1.377-1.172 4.422.1 4.033 1.674 2.308-1.245-3.8-2.959-3.61-1.016-.838-1.906 1.769-1.918s2.681-1.176 1.8-3.729c-1.431-4.16 6.785-20.79 11.5-26.724a25.26 25.26 0 0 1 3.567 3.647 27.444 27.444 0 0 1 2.023 9.206 174.7 174.7 0 0 1-.878 21.48c0-.123-.254 8.84-4.619 12.256-1.608.807-4.016 3.528-4.4 2.787a29.708 29.708 0 0 0-2.73-4.18c1.165-2.325.367-1.9 1.763-3.413 3.264-3.531-4.012-4.717-10.417-6.553z" fill="#acc6cc" opacity=".2"/><path data-name="Path 5882" d="M201.026 3.305s-1.96-5.143-10.587-2.6c-5.333 1.574-6.659 3.5-5.694 4.615a4.082 4.082 0 0 1 1.229 2.262s4.034 3.493 8.154-1.253c2.079-2.396 5.936-4.346 6.898-3.024z" fill="#7f5132"/><path data-name="Path 5883" d="M201.078 20.927c.415-.694.776-.444 1.407.062.168.135.737.563.737.563.718.479 1.182.545.916 1.052l-4.675 9.816c-.272.674-.52.7-1.066.219l-2.562-2.811c-.646-.569-.52-.653-.079-1.392z" fill="#fdffff"/><path data-name="Path 5884" d="M195.836 64.336c1.595-.325 10.7-5.2 11.448-6.312a37.679 37.679 0 0 0 5.153-9.828 98.509 98.509 0 0 0 3.027-11.367c.837-5.019-3.1-9.712-7.4-6.419-4.032 3.087-5.112 13.5-5.8 15.646-1.165 3.614-1.959 6.077-3.342 7.47-2.178 2.188-5.929 3.859-6.326 4.543-1.978 3.4 5.566-.831 5.911-.049 2.229 5.078-4.994 6.188-2.671 6.316z" fill="#e1f4f9"/><g data-name="Group 3290"><g data-name="Group 3288" style="mix-blend-mode:multiply;isolation:isolate"><path data-name="Path 6004" d="M43.718 113.618c-35.343 20.207-35.523 52.963-.414 73.165l180.389 104.383c35.117 20.208 92.23 20.208 127.575 0s35.532-52.955.415-73.164L171.294 113.615c-35.109-20.2-92.23-20.201-127.576.003z" fill="#231f20" opacity=".17" style="mix-blend-mode:darken;isolation:isolate"/></g><path data-name="Path 6005" d="M377.899 202.227c.037 13.463-8.845 26.938-26.631 37.21-35.345 20.407-92.458 20.407-127.575 0L43.304 134.009c-17.442-10.134-26.174-23.4-26.211-36.69q.006 3.921.019 7.844c.039 13.286 8.77 26.553 26.216 36.692l180.389 105.43c35.115 20.406 92.226 20.406 127.573 0 17.786-10.271 26.669-23.747 26.632-37.208l-.023-7.85z" fill="#68441c"/><g data-name="Group 3289"><path data-name="Path 6006" d="M43.718 60.108c-35.343 20.41-35.523 53.493-.414 73.9l180.389 105.428c35.117 20.411 92.23 20.411 127.575 0s35.532-53.485.415-73.9L171.294 60.104c-35.109-20.401-92.23-20.403-127.576.004z" fill="#9b6635"/></g></g><path data-name="Path 6007" d="M126.812 224.192a8.723 8.723 0 0 0-8.977-.28l-47.524 26.615c-3.145 1.816-3.163 4.763-.036 6.579l25.229 14.767a12.507 12.507 0 0 0 11.357 0l44.842-26.055a3.212 3.212 0 0 0 .129-5.476z" fill="#231f20" opacity=".1" style="mix-blend-mode:multiply;isolation:isolate"/><g data-name="Group 3292"><path data-name="Path 6008" d="M123.007 226.672c3.721-.244 3.9 1.06 5.875 1.551a27.111 27.111 0 0 0 6.137.074c2.021.041 5.8-.1 6.386 1.89a6.844 6.844 0 0 1 .2 1.343c-.135 1.167-1.159 1.728-2.406 2.347a33.838 33.838 0 0 1-4.252 1.727 7.555 7.555 0 0 1-4.224.457 30.023 30.023 0 0 0-3.374-.063c-1.063.111-.807.892-.828 1.937l-3.285 1.279c-3.335.814-5.888-2.094-5.87-2.9l.134-7.524s.546-1.793 5.507-2.118z" fill="#231f20" opacity=".1" style="mix-blend-mode:multiply;isolation:isolate"/><g data-name="Group 3291" fill="#383736"><path data-name="Path 6009" d="M128.513 235.705a25.24 25.24 0 0 0 6.257-.407 14.667 14.667 0 0 0 4.746-2.253c1.1-.544 2.01-1.378 2.025-2.07a3.206 3.206 0 0 1 .064.672c-.138 1.167-1.159 1.728-2.406 2.348a33.486 33.486 0 0 1-4.25 1.724 7.573 7.573 0 0 1-4.229.459l-2.869-.115c-.634-.03-1.24.211-1.24.33.017-.059.213-.68 1.902-.688z"/><path data-name="Path 6010" d="M123.272 237.832l3.259-1.265c0 .342 0 1.151-.008 1.482l-3.288 1.284c-3.333.813-5.885-2.1-5.869-2.9l.037-1.5c-.014.809 2.533 3.71 5.869 2.899z"/></g></g><path data-name="Path 6011" d="M123.343 193.204c3.6-.007 5.189 4.75 4.976 8.556-.2 3.624.051 7.727-.181 12.463-.359 7.363-.135 14.672-.326 15.573-.2.958-2.835 2.1-5.563 1.937-3.241-.19-4.321-1.523-4.315-2.527l.624-21.1a22.087 22.087 0 0 0 .219-2.684c0-.813-2.168-.285-3.319.182.378-2.933 4.963-12.397 7.885-12.4z" fill="#23211f"/><g data-name="Group 3295"><g data-name="Group 3294" clip-path="url(#c)" transform="translate(-3241.264 -6246.017)" style="isolation:isolate"><g data-name="Group 3293"><path data-name="Path 6012" d="M3425.593 6424.158l.064 62.049a1.842 1.842 0 0 0 1.081 1.513 5.808 5.808 0 0 0 5.264.006 1.886 1.886 0 0 0 1.1-1.541l-.064-62.047a1.843 1.843 0 0 1-1.1 1.533 5.8 5.8 0 0 1-5.262 0 1.846 1.846 0 0 1-1.085-1.513z" fill="#7f8787"/></g></g></g><g data-name="Group 3300"><g data-name="Group 3299"><g data-name="Group 3296"><path data-name="Path 6014" d="M75.088 252.253l-2.416-1.4v1.3l2.418 1.4z" fill="#a1a1a1"/></g><path data-name="Path 6015" d="M91.401 239.945a5.937 5.937 0 0 0 2.072-4.175l-.062-23.754c-.011-4.163-1.487-7.093-3.86-8.473l2.416 1.4c2.374 1.378 3.848 4.307 3.86 8.47.066 22.891.082 23.884.015 24.349a5.918 5.918 0 0 1-2.595 3.982l-18.159 10.5-2.416-1.4c15.101-8.714 18.32-10.561 18.729-10.899z" fill="#d1d1d1"/><g data-name="Group 3297"><path data-name="Path 6016" d="M74.972 208.955v1.3l7.587-4.4c7.289-4.208 13.241-.819 13.264 7.557l.062 23.757a5.831 5.831 0 0 1-2.642 4.574l-18.159 10.5v1.305l18.16-10.5a8.32 8.32 0 0 0 3.771-6.531l-.062-23.757c-.026-9.1-6.486-12.778-14.4-8.21z" fill="#707070"/></g><g data-name="Group 3298"><path data-name="Path 6017" d="M74.972 208.955l-2.417-1.4v1.3l2.416 1.4z" fill="#a1a1a1"/></g><path data-name="Path 6018" d="M80.146 203.152c3.979-2.3 7.6-2.51 10.207-.993l2.417 1.405c-2.612-1.517-6.227-1.308-10.208.991l-7.59 4.4-2.417-1.405z" fill="#b4b4b4"/></g><path data-name="Path 6019" d="M80.146 203.152c3.979-2.3 7.6-2.51 10.207-.993l2.417 1.405c-2.612-1.517-6.227-1.308-10.208.991l-7.59 4.4-2.417-1.405z" fill="#444"/></g><g data-name="Group 3303"><g data-name="Group 3302" clip-path="url(#d)" transform="translate(-3241.264 -6246.017)" style="isolation:isolate"><g data-name="Group 3301"><path data-name="Path 6020" d="M3377.025 6468.045l-27.868-16.2a1.323 1.323 0 0 1 .553 1.071.411.411 0 0 0 .182.326l27.867 16.193a.414.414 0 0 1-.183-.327 1.318 1.318 0 0 0-.551-1.067z" fill="#4d5454" style="isolation:isolate"/></g></g></g><path data-name="Path 6022" d="M87.627 215.541c1.853-1.07 4.075-2.4 6.73-3.992a862.36 862.36 0 0 1 11.614-6.859l.174-.1a2.866 2.866 0 0 1 2.675-.346l27.867 16.194a2.867 2.867 0 0 0-2.675.344c-.06.037-.119.071-.176.108a868.92 868.92 0 0 0-11.612 6.857c-2.659 1.589-4.878 2.922-6.732 3.993-4.487 2.59-6.81 3.632-7.9 3l-27.867-16.2c1.091.636 3.411-.409 7.902-2.999z" fill="#565656"/><path data-name="Path 6023" d="M91.763 206.035s-1.358 7.694.593 10.086c1.971 2.414 8.792 5.833 12.152 6.672 4.282 1.071-3.872-5.634 1.889-9.919 2.951-2.2 11.705-9.683 13.093-10.445.727-.4 5.38 4.511 6.054 4.39 2.076-.373 2.991 3.848 2.991 3.848a102.094 102.094 0 0 1-.168-12.257c.187-3.47-3.869-7.516-7.218-7.387-4.365.17-9.569 2.686-9.569 2.686z" fill="#23211f"/><path data-name="Path 6024" d="M96.974 210.834s2.014 12.758 9.568 12.086 25.016-6.883 29.717-7.723c2.075-.37 7.386 4.03 7.386 4.03s.372-4.2.672-10.41c.2-4.123-5.431-6.8-8.73-6.21a174.826 174.826 0 0 0-22.666 5.707z" fill="#23211f"/><g data-name="Group 3305"><path data-name="Path 6025" d="M139.514 237.361c3.722-.243 3.9 1.061 5.876 1.55a27.018 27.018 0 0 0 6.136.076c2.022.039 5.8-.1 6.387 1.89a6.817 6.817 0 0 1 .2 1.343c-.135 1.165-1.16 1.728-2.406 2.347a33.923 33.923 0 0 1-4.252 1.728 7.557 7.557 0 0 1-4.224.454 30.6 30.6 0 0 0-3.375-.062c-1.061.112-.805.892-.828 1.938l-3.282 1.277c-3.336.816-5.889-2.094-5.873-2.9l.136-7.526s.546-1.793 5.505-2.115z" fill="#231f20" opacity=".1" style="mix-blend-mode:multiply;isolation:isolate"/><g data-name="Group 3304" fill="#383736"><path data-name="Path 6026" d="M145.022 246.395a25.221 25.221 0 0 0 6.257-.407 14.623 14.623 0 0 0 4.744-2.253c1.106-.544 2.012-1.379 2.026-2.07a3.183 3.183 0 0 1 .063.672c-.135 1.167-1.158 1.728-2.405 2.348a33.219 33.219 0 0 1-4.25 1.722 7.563 7.563 0 0 1-4.23.461s-2.764-.112-2.867-.115c-.635-.033-1.24.211-1.241.328.017-.057.212-.678 1.903-.686z"/><path data-name="Path 6027" d="M139.78 248.522l3.258-1.265c0 .342 0 1.148-.008 1.482l-3.288 1.284c-3.331.811-5.883-2.1-5.867-2.9l.038-1.5c-.015.808 2.532 3.71 5.867 2.899z"/></g></g><path data-name="Path 6028" d="M139.852 203.893c3.6-.006 5.189 4.751 4.976 8.555-.2 3.626.05 7.729-.181 12.465-.36 7.361-.136 14.672-.326 15.571-.2.96-2.835 2.1-5.564 1.939-3.239-.191-4.32-1.523-4.314-2.529l.624-21.1a22.229 22.229 0 0 0 .217-2.682c0-.813-2.165-.285-3.316.18.375-2.933 4.962-12.395 7.884-12.399z" fill="#23211f"/><path data-name="Path 6029" d="M112.921 208.314a174.826 174.826 0 0 1 22.666-5.707 8.775 8.775 0 0 1 7.853 3.33 13.517 13.517 0 0 0-5.881-1.9c-1.825 0-13.661 3.271-17.817 4.782-2.056.748-2.233 1.212-4.638-.333a7.833 7.833 0 0 0-2.314-.15z" fill="#161615" opacity=".2"/><path data-name="Path 6030" d="M106.836 136.715l-3.824-.743-3.472.666-2.1 6.708a9.1 9.1 0 0 1 .277 2.305c-.167.731-1.2 1.834-1.192 2.894a26.585 26.585 0 0 1-.512 6.232c-.229 1.928 1.184 2.092 2.648 2.349a9.563 9.563 0 0 0 5.048-.2c4.809-1.4 7.178-6.309 7.359-6.683l4.569-8.649z" fill="#efb797"/><path data-name="Path 6031" d="M109.551 170.364l-.953-7.616 1.383-12.066-9.865.307s-.324 7.262-.727 9.65c-.218 1.312-1.956 2.421-2.937 3.317l8.769 10.61c.473-1.696 4.524-2.455 4.33-4.202z" fill="#efb797"/><path data-name="Path 6032" d="M101.236 136.416s-3.119 6.252-2.638 7 .333 2.486-.673 4.257c-.984 1.728 1.252 4.469.252 6.781a3.2 3.2 0 0 1-1.806 1.852 4.059 4.059 0 0 0 2.289.818c.388.066.735.114 1.066.151 0 0-.177 2.206-.24 2.941a2.651 2.651 0 0 1-1.99 2.41l3.777-.551s-.073-3.673 2.06-5.184c1.082-.767 4.693-.368 6.231-2.664l.568-2.382c.058-.084.11-.165.162-.246.236-6.665-9.058-15.183-9.058-15.183z" fill="#cc9e7f" opacity=".27" style="mix-blend-mode:multiply;isolation:isolate"/><path data-name="Path 6033" d="M99.964 132.15c-3.757 3.433-1.089 6.613-.463 6.55a1.86 1.86 0 0 1 2.03 2.028c-.038 1.04-2.359 7.725-2.359 7.725-.25.535 1.214-.623 1.643-1.248.606-.883 1.7-1.044 2.466 2.55 0 0 .223 6.382 1.869 7.8.083.072.112-.915.4-1.582a2.147 2.147 0 0 1 .909-1.058 4.209 4.209 0 0 0 .441 3.129c.044.063.307.06.532-.39.437-.881.452-.849.642-.785.141.047.123.731.348 1.1.129.21.654-.513.9-.446.036.01.319.519.323.36a8.657 8.657 0 0 1 1.289-3.09c.584-.991 3.307-5.246 4.4-6.576 1.626-1.982 1.312-4.678.139-7.1-.054-.109.831-1.388-1.4-4.533-1.006-1.418-8.1-4.293-8.334-4.433s2.007-.293 1.754-.414c-2.832-1.354-5.401-1.532-7.529.413z" fill="#23211f"/><g data-name="Group 3306"><path data-name="Path 6034" d="M101.136 146.833a2.573 2.573 0 0 1 1.421 2.024 1.886 1.886 0 0 1-.762 1.987 2.259 2.259 0 0 1-1.243.523s.6-2.363.688-2.8a8.966 8.966 0 0 0-.104-1.734z" fill="#efb797"/><path data-name="Path 6035" d="M100.801 146.532s-.685-.206-.439.906a5.084 5.084 0 0 1 .092 2.3c-.109.518-.612 2.019-.612 2.019s.273.739.927-.09a6.194 6.194 0 0 0 .9-2.3c.1-.446-.06-2.871-.868-2.835z" fill="#f4c5ae"/></g><path data-name="Path 6036" d="M131.436 188.721s6.624-2.774 7.66-5.006 2.013-5.235 2.013-5.235-.981-1.411-2.815 1.171-5.983 3.546-5.983 3.546z" fill="#efb797"/><path data-name="Path 6037" d="M112.615 167.252s3.35-.813 4.59-1.028c2.463-.426 7.014 1.713 7.014 1.713l2.839 2.624s.375.589-.641.806-2.545-1.607-2.545-1.607l-2.971-.856s-1.911-.063-1.982.856c-.053.7 1.6 1.058 2.3 1.177.491.082 1.574.414 1.768.911a.818.818 0 0 1-.376 1.069 11.047 11.047 0 0 1-2.677-.321c-1.82-.318-3.179-.394-4.23-.588a4.178 4.178 0 0 1-2.3-1.339s-2.489.651-3.321.858c-3.579.89-14.35 3.407-14.35 3.407l-.816-7.334z" fill="#efb797"/><path data-name="Path 6038" d="M88.436 166.752c1.513-4.869 7.31-5.725 10.96-5.24 4.224.559 3.972 4.859 4.018 8.594.025 2.361.093 7.574.12 9.525 0 0-6.5 17.528-9.334 17.35-3.539-.221-7.374-6.282-7.808-9.281-.563-3.87.922-17.338 2.044-20.948z" fill="#383736"/><path data-name="Path 6039" d="M119.089 171.293c1.042 3.184-4.7 12.9-4.711 19.725-.009 4.71 1.8 11.507 5.5 12.875.843.312.664 10.428-1.664 12.809-3.44 3.52-9.185 6.577-13.7 6.091-9.114-.976-14.321-9.711-14.7-12.511a102.374 102.374 0 0 0-.354-16.493c-.665-5.164-1.906-15.137-.563-24.539.715-5.014 4.957-7.746 10.381-8.348 1.132-.127 6.171 1.47 10.974 4.2 1.998 1.146 8.106 3.945 8.837 6.191z" fill="#383736"/><path data-name="Path 6040" d="M130.947 186.991s-2.29-1.445 1.164-4.539l3.462-3.092s1.419.1.456 1.448-1.654 2.543-.893 3.1 1.643.726 1.182 1.347c-1.759 2.367-5.371 1.736-5.371 1.736z" fill="#efb797"/><path data-name="Path 6041" d="M111.879 203.15c1.19-1.038-1.521.1-1.764-1.093-.617-3.037.149-10.262.446-21.183 0 0 2.6.528 5.189 1.328-.9 3.731-.424 5.656-.456 8.641a14.861 14.861 0 0 0 .5 8.009 9.955 9.955 0 0 0 2.13 3.672 5.442 5.442 0 0 0 2.077 1.369c.415.17.309 3.493.276 5.266-1.139-.321-5.09-1.527-6.35-3.652-.2-.336-1.67.321-2.213.051s1.276-.389 1.9-1.646c.456-.911-3.32 1.124-4.309.372-.221-.168 1.97-.601 2.574-1.134z" fill="#161615" opacity=".2"/><path data-name="Path 6042" d="M116.819 169.477c2.5 0 4.177 3.761 4.256 8.4.01.542 1.283 12.913 1.427 13.993a10.619 10.619 0 0 1-4.185 3.1c-1.82.748 1.54 5.748-.708 5.873-3.275-1.665-7.56-21.775-7.69-23.2-.236-2.578.955-8.166 6.9-8.166z" fill="#383736"/><g data-name="Group 3307"><path data-name="Path 6043" d="M99.33 158.716c-.012-.209-.515.028-.743.262-.458.471-2.075 2.293-2.075 2.293s.118 1.673 4.238 3.774c3.154 1.607 11.476 1.117 11.476 1.117a17.17 17.17 0 0 0-2.571-3.274c-.609-.63-.826-1.126-1.549-1.126a16.45 16.45 0 0 1-5.676-.557c-.958-.257-3.058-1.789-3.1-2.489z" fill="#636363"/></g><path data-name="Path 6044" d="M121.486 191.639l8.91-5.962a3.551 3.551 0 0 1 2.589.59 3.859 3.859 0 0 1 1.383 2.129s-9.934 11.765-13.209 12.451-3.908-.252-3.908-.252l.3-6.335z" fill="#383736"/><path data-name="Path 6045" d="M113.706 230.707c1.855-1.071 4.077-2.4 6.732-3.992a826.423 826.423 0 0 1 11.616-6.857c.052-.037.113-.07.173-.107a2.974 2.974 0 0 1 2.674-.346c.263.16.792.45 1.786 1.028a2.867 2.867 0 0 0-2.675.344c-.06.037-.119.071-.176.108a868.92 868.92 0 0 0-11.612 6.857c-2.659 1.589-4.878 2.922-6.732 3.993-4.487 2.59-6.81 3.632-7.9 3l-1.714-1c1.117.557 3.433-.491 7.828-3.028z" fill="#474747"/><path data-name="Path 6046" d="M71.589 188.289a.65.65 0 0 1-.032-.067c-.005-.013-.007-.027-.012-.041s-.011-.049-.015-.076a.413.413 0 0 0 0-.047.7.7 0 0 1 0-.09v-.041c0-.047.011-.094.02-.143l.007-.019a1.007 1.007 0 0 1 .037-.129c0-.016.013-.032.018-.049s.017-.045.027-.069a.091.091 0 0 0 .012-.023 1.48 1.48 0 0 1 .107-.2 1.5 1.5 0 0 1 .119-.156l.014-.019a.135.135 0 0 1 .022-.022c.032-.033.061-.064.092-.09.013-.011.026-.025.037-.033a.94.94 0 0 1 .131-.092.463.463 0 0 1 .462-.047q13.935 8.1 27.866 16.2a.461.461 0 0 0-.462.044 1.265 1.265 0 0 0-.13.092c-.013.011-.024.023-.037.033-.032.029-.062.06-.092.09l-.037.041a2.2 2.2 0 0 0-.119.156 1.591 1.591 0 0 0-.106.2l-.039.093a.4.4 0 0 0-.018.047 1.888 1.888 0 0 0-.038.131v.018a.78.78 0 0 0-.022.142v.043a.689.689 0 0 0 0 .09v.047a.572.572 0 0 0 .017.073l.011.041a.348.348 0 0 0 .032.07l.015.031a.553.553 0 0 0 .069.075c2.217 1.769 4.749 6.362 6.3 11.429 1.782 5.828 2.031 11.317.684 15.062-.871 2.416-.99 3.978-.366 4.778a2.108 2.108 0 0 0 .608.547l-27.867-16.193a2.124 2.124 0 0 1-.609-.547c-.622-.8-.5-2.361.367-4.779 1.349-3.745 1.1-9.234-.684-15.061-1.551-5.067-4.082-9.66-6.3-11.431a.443.443 0 0 1-.068-.076.21.21 0 0 1-.021-.033z" fill="#474747"/><g data-name="Group 3308"><path data-name="Path 6047" d="M100.036 203.083a1.287 1.287 0 0 0-.415.412c-.274.422-.309.915-.079 1.1 2.217 1.769 4.749 6.362 6.3 11.429 1.782 5.828 2.031 11.317.684 15.062-.871 2.416-.99 3.978-.366 4.778 1.223 1.569 3.26.879 9.091-2.489 1.9-1.094 4.2-2.475 7-4.15a838.61 838.61 0 0 1 11.61-6.857c.559-.324 2.227-1.157 2.452.731.041.354.321.469.642.28a1.428 1.428 0 0 0 .644-1.208c-.307-2.578-2.374-2.088-3.586-1.39-.06.037-.119.071-.176.108a868.92 868.92 0 0 0-11.612 6.857c-2.659 1.589-4.878 2.922-6.732 3.993-5.019 2.9-7.333 3.859-8.232 2.707-.363-.465-.227-1.552.412-3.327 3.42-9.5-2.613-24.443-7.138-28.055a.441.441 0 0 0-.499.019z" fill="#292d2d"/></g><g data-name="Group 3313"><g data-name="Group 3312"><g data-name="Group 3309"><path data-name="Path 6048" d="M104.685 269.564l-2.417-1.4v1.306l2.416 1.4z" fill="#a1a1a1"/></g><path data-name="Path 6049" d="M120.994 257.257a5.913 5.913 0 0 0 2.074-4.173l-.06-23.757c-.011-4.16-1.487-7.09-3.861-8.473l2.415 1.4c2.377 1.38 3.85 4.312 3.861 8.473.066 22.888.084 23.884.015 24.348a5.934 5.934 0 0 1-2.594 3.983l-18.159 10.5-2.417-1.4c15.101-8.717 18.319-10.561 18.726-10.901z" fill="#d1d1d1"/><g data-name="Group 3310"><path data-name="Path 6050" d="M104.568 226.266v1.306l7.59-4.4c7.288-4.209 13.24-.819 13.262 7.56l.062 23.757a5.837 5.837 0 0 1-2.641 4.574l-18.159 10.5v1.306l18.159-10.5a8.327 8.327 0 0 0 3.771-6.534l-.061-23.757c-.026-9.094-6.487-12.778-14.4-8.208z" fill="#707070"/></g><g data-name="Group 3311"><path data-name="Path 6051" d="M104.568 226.266l-2.416-1.4v1.306l2.416 1.4z" fill="#a1a1a1"/></g><path data-name="Path 6052" d="M109.742 220.464c3.981-2.3 7.6-2.511 10.208-.991l2.417 1.4c-2.613-1.517-6.227-1.308-10.211.991l-7.588 4.4-2.416-1.4z" fill="#b4b4b4"/></g><path data-name="Path 6053" d="M109.742 220.464c3.981-2.3 7.6-2.511 10.208-.991l2.417 1.4c-2.613-1.517-6.227-1.308-10.211.991l-7.588 4.4-2.416-1.4z" fill="#444"/></g><g data-name="Group 3338"><path data-name="Path 6054" d="M58.87 183.883a8.725 8.725 0 0 0-8.976-.281L2.37 210.218c-3.144 1.814-3.163 4.762-.036 6.576l25.229 14.771a12.507 12.507 0 0 0 11.357 0l44.842-26.057a3.21 3.21 0 0 0 .129-5.474z" fill="#231f20" opacity=".1" style="mix-blend-mode:multiply;isolation:isolate"/><g data-name="Group 3314"><path data-name="Path 6055" d="M61.286 196.566c-.133-2.2 1.638-21.224 2.079-31.349a18.294 18.294 0 0 0-.44-6.521c-.633-1.677-7.091-.985-8.075-1.048-2.349-.156-.2 3.783-.653 3.263-.5 2.027-1.993 8.923-.837 15.406 1.1 6.163 3.655 19.463 3.227 19.973-1.9 2.295 1.508 6.22 1.508 6.22s1.2 4.664 3.337 6.2c.815.585 4.033.221 2.771-1.8a26.713 26.713 0 0 1-2.917-10.344z" fill="#f2c4ac"/></g><g data-name="Group 3315"><path data-name="Path 6056" d="M57.294 168.362a21.467 21.467 0 0 1 1.561-6.24 4 4 0 0 1-.824.057c-2.348-.154-3.378-.748-3.834-1.268-.5 2.027-1.993 8.923-.837 15.406 1.1 6.163 3.655 19.463 3.227 19.973-1.9 2.295 1.508 6.22 1.508 6.22s1.2 4.664 3.337 6.2a12.459 12.459 0 0 0 2.823.833c-1.08-3.939-3.679-7.424-4.348-11.664-.881-5.576-3.933-17.304-2.613-29.517z" fill="#ddb19e" opacity=".35" style="mix-blend-mode:multiply;isolation:isolate"/></g><path data-name="Path 6057" d="M56.456 196.29s-1.855 1.216-.618 4.769c.247.7.673.6.693.767a3.207 3.207 0 0 1 .7 1.321c.645 1.935 1.14 3.734 1.63 4.856a4.046 4.046 0 0 0 3.486 2.3 18.475 18.475 0 0 0 3.942.1c.516-.082.436-.78-.061-1.279-.661-.66-1.755-1.843-1.755-1.843a3.642 3.642 0 0 1-1.32-.385c-1.6-.991-2.317-3.984-4.237-8.309a3.834 3.834 0 0 0-2.46-2.297z" fill="#323b42"/><path data-name="Path 6058" d="M56.524 200.872c.57.094.672.383.99 1.059 1.056 2.252 2.475 4.895 3.466 6.627a3.266 3.266 0 0 0 2.055 1.722c-.258-.02-.521-.047-.8-.076a4.053 4.053 0 0 1-3.487-2.305c-.489-1.12-.985-2.92-1.63-4.854a3.2 3.2 0 0 0-.7-1.321 2.371 2.371 0 0 0-.021-.578c-.04-.071-.188-.343.127-.274z" fill="#6e777c"/><g data-name="Group 3316"><path data-name="Path 6059" d="M69.072 199.838c-.134-2.2.437-22.7.878-32.825.039-.913.181-1.591.234-3.078.1-2.915-2.82-4.141-3.8-4.207-2.348-.154-6.257 0-7.426 0-.5 2.027 1.037 13.378 2.2 19.86 1.1 6.163 3.653 19.464 3.225 19.973-1.9 2.3 1.509 6.221 1.509 6.221s1.2 4.664 3.336 6.2c.816.585 4.032.221 2.77-1.8a26.733 26.733 0 0 1-2.926-10.344z" fill="#f2c4ac"/></g><g data-name="Group 3317"><path data-name="Path 6060" d="M65.081 171.634a21.488 21.488 0 0 1 1.56-6.241 3.948 3.948 0 0 1-.823.058c-2.35-.154-3.379-.748-3.835-1.268-.5 2.027-1.993 8.923-.835 15.4 1.1 6.163 3.653 19.464 3.225 19.973-1.9 2.3 1.509 6.221 1.509 6.221s1.2 4.664 3.336 6.2a12.466 12.466 0 0 0 2.823.833c-1.08-3.94-3.678-7.424-4.348-11.664-.88-5.571-3.933-17.299-2.612-29.512z" fill="#ddb19e" opacity=".35" style="mix-blend-mode:multiply;isolation:isolate"/></g><path data-name="Path 6061" d="M64.244 199.561s-1.857 1.217-.619 4.769c.245.7.671.6.692.768a3.186 3.186 0 0 1 .7 1.32c.645 1.936 1.14 3.735 1.629 4.857a4.048 4.048 0 0 0 3.488 2.3 18.5 18.5 0 0 0 3.939.1c.518-.082.438-.78-.061-1.279-.66-.66-1.753-1.843-1.753-1.843a3.616 3.616 0 0 1-1.321-.385c-1.6-.991-2.315-3.985-4.236-8.309a3.832 3.832 0 0 0-2.458-2.298z" fill="#323b42"/><path data-name="Path 6062" d="M64.022 204.121a1.942 1.942 0 0 1 1.388 1.184c1.059 2.252 2.477 4.9 3.467 6.629a3.267 3.267 0 0 0 2.056 1.723 30.682 30.682 0 0 1-.8-.078 4.048 4.048 0 0 1-3.488-2.3c-.489-1.122-.984-2.921-1.629-4.857a3.186 3.186 0 0 0-.7-1.32 2.183 2.183 0 0 0-.021-.577c-.042-.076-.59-.471-.273-.404z" fill="#6e777c"/><path data-name="Path 6063" d="M64.092 213.683s.012.176.3.152c.247-.021.268-.125.268-.125l.063-11.925-.827.289z" fill="#323b42"/><g data-name="Group 3322"><g data-name="Group 3321"><g data-name="Group 3318"><path data-name="Path 6064" d="M7.148 211.945l-2.416-1.4v1.3l2.417 1.4z" fill="#a1a1a1"/></g><path data-name="Path 6065" d="M23.46 199.638a5.935 5.935 0 0 0 2.072-4.175l-.062-23.757c-.011-4.161-1.486-7.091-3.86-8.473l2.416 1.4c2.374 1.38 3.848 4.31 3.861 8.472.065 22.891.081 23.884.014 24.347a5.919 5.919 0 0 1-2.595 3.984l-18.158 10.5-2.416-1.4c15.104-8.714 18.319-10.561 18.728-10.898z" fill="#d1d1d1"/><g data-name="Group 3319"><path data-name="Path 6066" d="M7.031 168.647v1.3l7.588-4.4c7.289-4.21 13.239-.821 13.264 7.557l.061 23.757a5.829 5.829 0 0 1-2.642 4.574l-18.158 10.5v1.3l18.16-10.5a8.328 8.328 0 0 0 3.773-6.532l-.062-23.759c-.027-9.1-6.487-12.778-14.4-8.208z" fill="#707070"/></g><g data-name="Group 3320"><path data-name="Path 6067" d="M7.031 168.647l-2.417-1.405v1.3l2.416 1.4z" fill="#a1a1a1"/></g><path data-name="Path 6068" d="M12.204 162.842c3.981-2.3 7.6-2.508 10.207-.991l2.418 1.4c-2.613-1.517-6.227-1.309-10.208.991l-7.59 4.4-2.417-1.405z" fill="#b4b4b4"/></g><path data-name="Path 6069" d="M12.204 162.842c3.981-2.3 7.6-2.508 10.207-.991l2.418 1.4c-2.613-1.517-6.227-1.309-10.208.991l-7.59 4.4-2.417-1.405z" fill="#444"/></g><g data-name="Group 3325"><g data-name="Group 3324" clip-path="url(#e)" transform="translate(-3241.264 -6246.017)" style="isolation:isolate"><g data-name="Group 3323"><path data-name="Path 6070" d="M3309.084 6427.737l-27.868-16.2a1.321 1.321 0 0 1 .553 1.069.416.416 0 0 0 .182.328l27.866 16.193a.42.42 0 0 1-.183-.327 1.307 1.307 0 0 0-.55-1.067z" fill="#4d5454" style="isolation:isolate"/></g></g></g><path data-name="Path 6072" d="M19.686 175.234a455.53 455.53 0 0 0 6.73-4 869.473 869.473 0 0 1 11.613-6.857c.056-.035.114-.072.175-.107a2.873 2.873 0 0 1 2.676-.346l27.867 16.2a2.868 2.868 0 0 0-2.676.344c-.06.035-.119.072-.175.109a852.679 852.679 0 0 0-11.613 6.857c-2.658 1.588-4.878 2.921-6.731 3.99-4.488 2.59-6.811 3.634-7.9 3l-27.867-16.193c1.091.635 3.413-.409 7.901-2.997z" fill="#565656"/><path data-name="Path 6073" d="M45.765 190.399c1.855-1.071 4.076-2.406 6.732-3.992a837.555 837.555 0 0 1 11.615-6.857c.053-.037.114-.07.175-.109a2.98 2.98 0 0 1 2.674-.344c.261.16.791.451 1.786 1.028a2.868 2.868 0 0 0-2.676.344c-.06.035-.119.072-.175.109a852.679 852.679 0 0 0-11.613 6.857c-2.658 1.588-4.878 2.921-6.731 3.99-4.488 2.59-6.811 3.634-7.9 3l-1.714-1c1.116.558 3.433-.491 7.827-3.026z" fill="#474747"/><g data-name="Group 3331"><g data-name="Group 3329"><path data-name="Path 6074" d="M36.007 111.33l-6.543-1.722.816 3.057 4 3.012h2.282z" fill="#dda058"/><path data-name="Path 6075" d="M32.688 123.655a31 31 0 0 0 1.208-7.888c-.031-3.281 0-4.4 0-4.4l7.78 3.376s-.552 6.653-.552 8.694c0 .441.935 1.216.183 3.055-.551 1.344-3.925 4.647-8.619-2.837z" fill="#f2c4ac"/><path data-name="Path 6076" d="M40.414 114.194c-.455 3.769-1.168 9.748-1.664 14.173-1.519.161-3.61-.8-6.062-4.712a31 31 0 0 0 1.208-7.888c-.025-2.691-.008-3.925 0-4.284a3.69 3.69 0 0 1 .034-.1z" fill="#b79484" opacity=".29" style="mix-blend-mode:multiply;isolation:isolate"/><path data-name="Path 6077" d="M39.16 96.6c5.706-.707 7.248 3.566 8.07 7.568.3 1.467-.695 2.925-.616 3.5a6.3 6.3 0 0 1 .372 3.239 33.693 33.693 0 0 1-1.626 5.966c-.48 1.356-1 2.273-1.745 2.5-1.723.516-4.358.066-7.92-2.971-3.157-2.7-4.3-7.721-4.421-8.194l1.321-7.535s3.528-3.698 6.565-4.073z" fill="#ffd7c2"/><path data-name="Path 6078" d="M37.62 96.6c5.706-.707 8.114 2.893 9.3 6.8.144.475-1.089 3.839-1.012 4.416a6.2 6.2 0 0 1 .268 2.743c-.041.578-.474 2.394-.743 3.487-.342 1.4-.983 5.082-1.728 5.306-1.721.518-4.782.03-8.218-3.133a29.731 29.731 0 0 1-5.756-8.012l1.319-7.535s3.533-3.697 6.57-4.072z" fill="#b79484" opacity=".29" style="mix-blend-mode:multiply;isolation:isolate"/><g data-name="Group 3326"><path data-name="Path 6079" d="M36.897 97.573a.576.576 0 0 0 .138-.076c.078-.09.001-.062-.138.076z" fill="#f2c4ac" opacity=".34" style="mix-blend-mode:multiply;isolation:isolate"/></g><g data-name="Group 3327" fill="#145f7f"><path data-name="Path 6080" d="M40.346 142.251s-7.671 2.354-12.026 2.6c-.675.037-.968.078-1.153-.137-.245-.283-.737.059-.838.133-.037.023-4.569 1.566-4.566 1.593.407 3.65 2.919 3.634 2.919 3.634 7.1 1.2 16.176-3.946 16.176-3.946.48-.352 2.761-1.537 1.389-2.831a5.182 5.182 0 0 0-1.901-1.046z"/><path data-name="Path 6081" d="M27.694 146.417c0-.106-.248-.409-.242-.522.182-3.776 2.107-11.321 3.295-14.746 1.459-4.2 1.316-10.213-1.012-10.311-2.674-.117-4.543 1.689-5.834 5.721-1.572 4.922-2.694 16.539-2.066 20.436.015.094.036.188.053.282l5.41-.327c-.062-.167.392-.342.396-.533z"/></g><path data-name="Path 6082" d="M40.321 145.838c-.029-.039-.063-.074-.093-.113-3.35.885-14.488 3.982-15.9 2.517a.251.251 0 0 1-.073-.109h1.929c.092-.067.065-.121-.171-.121-1.485 0-1.931-.35-2.118-.688-.09-.162 1.018-.135 1.018-.6 0-.172-1.194-.493-1.192-.688.024-4.285 2.143-14 2.985-19.473.473-3.078 1.959-4.781 3.775-5.424a1.248 1.248 0 0 0-.749-.3c-2.674-.117-4.543 1.689-5.834 5.721a30.7 30.7 0 0 1-.935 3.949c-1.036 5.6-1.623 13.426-1.131 16.487a3.764 3.764 0 0 0 .288.9s.041.1.1.233a3.559 3.559 0 0 0 .608 1.022 3.307 3.307 0 0 0 1.308.829c6.5 1.128 14.312-1.607 14.312-1.607.537-.256 2.994-1.018 1.873-2.535z" fill="#145f7f" opacity=".17" style="mix-blend-mode:multiply;isolation:isolate"/><path data-name="Path 6083" d="M55.367 157.644c2.758 0 5.632 2.145 5.632 2.145 6.128 3.385 5.382 11.407 4.239 11.947 0 0-9.909 4.554-12.512 5.613-4.115 1.664-11.429 3.423-15.557 2.97-5.461-.6-7.418-1.132-10.521-3.591-2.285-1.8-2.24-5.69-1.8-9.22.519-4.146 5.291-9.5 5.291-9.5s24.772-.364 25.228-.364z" fill="#024063"/><path data-name="Path 6084" d="M47.006 147.82c-.62 7.658 3.15 12.09 3.987 17.231a19.2 19.2 0 0 1-7.761 3.471c-11.261 1.812-15.538-1.624-17.766-3.276 1.125-3.383 2.58-13.913 2.58-16.351-.44-5.173-2.383-18.264-1.887-25.279.171-2.426 3.232-3.026 3.245-3 4.678-.219 13.563 2.905 14.615 3.286 1.815.661 2.97 1.155 4.179 4.732.867 2.561 1.551 4.967 1.985 6.331 1.543 4.842.749 5.657-1.247 8.1a8.468 8.468 0 0 0-1.93 4.755z" fill="#145f7f"/><path data-name="Path 6085" d="M28.046 148.895c0 2.438-1.455 12.968-2.58 16.351 2.228 1.652 6.505 5.088 17.766 3.276a15.005 15.005 0 0 0 3.959-1.249c-1.131-6.691-3.074-17.866-3.074-18.381 0-1.979.5-6.684.742-9.49.277-3.14 1.318-7.133.452-9.694-1.21-3.575-.947-3.81-2.679-4.664-3.1-1.528-10.669-3.3-15.472-3.362a3.491 3.491 0 0 0-.356.362l-.014.014a3.049 3.049 0 0 0-.291.424.715.715 0 0 0-.027.056 2.6 2.6 0 0 0-.173.4c-.013.043-.028.086-.04.131a2.6 2.6 0 0 0-.1.54c-.496 7.022 1.447 20.113 1.887 25.286z" fill="#145f7f" opacity=".17" style="mix-blend-mode:multiply;isolation:isolate"/><g data-name="Group 3328"><path data-name="Path 6086" d="M50.444 135.111c-1.726-8.091-4.634-10.432-7.022-10.28-2.324.147-2.817 4.437-1.05 10.284.709 2.34 2.238 9.347 4.308 16.005l7.028-.383c-1.281-5.425-2.825-13.573-3.264-15.626z" fill="#145f7f"/></g><path data-name="Path 6087" d="M42.59 123.414a10.75 10.75 0 0 0-.784-2.125c-.66-.826-6.565-3-8.045-2.766-1.032.165-.4.759-.7 1.445a2.335 2.335 0 0 1-.557.866s7.073 1.589 10.086 2.58z" fill="#f0fcff"/><path data-name="Path 6088" d="M46.354 110.783a20.146 20.146 0 0 0 2.185-6.9 10.171 10.171 0 0 0-.627-4.419 12.475 12.475 0 0 0-2.985-3.71c-2.955-2.254-11.769-5.161-17.165 2.971a7.122 7.122 0 0 0-1.2 4.724c.12 4.666 2.607 5.669 2.642 5.8.331 1.213-2.784 3.577 1.563 5.723 3.075 1.517 9.43.026 12.125-3.442.153 1.174.383 2.869.6 4.138a17.618 17.618 0 0 0 3.735 8.5s-3.937-6.665-.873-13.385z" fill="#c98f43"/></g><g data-name="Group 3330"><path data-name="Path 6089" d="M63.162 137.848s3.143-4.227 4.079-4.473a17.993 17.993 0 0 1 3.032-.772c1.016-.121 1.542.131 1.581.356s-.316.414-1.157.526-.885.342-.885.342a9.429 9.429 0 0 1 2.677.191c.72.278.485.688.519.751.162.311.817.391 1.043 1.05.154.459-.086.613-.115.8-.033.205.466.655-.632.823a8.473 8.473 0 0 0-3.361 1.4c-1.315.922-2.182 2.085-4.034 2.607a11.583 11.583 0 0 0-3.184 1.345l-1.267-3.348z" fill="#efcab1"/><path data-name="Path 6090" d="M49.588 145.648c-.665.366-2.6 1.183-3.809 1.742 0 0 .767 5.372 2.386 5.827 1.07.3 4.756-.868 5.543-1.341 4.456-2.685 11.469-9.8 11.469-9.8a8.4 8.4 0 0 0-1.2-3c-.921-1.227-1.156-1.257-1.465-1.313-.004-.007-5.619 3.865-12.924 7.885z" fill="#145f7f"/><path data-name="Path 6091" d="M64.221 139.399c-2.912 3.118-6.05 5.933-12.809 9.573-.373.2-1.121.842-1.555.564-.463-.3-.527-.789-.645-1.34-1.4-6.533-2.649-13.837-3.785-18.124-.743-2.811-2.912-4.744-3.595-4.029a5.679 5.679 0 0 0-.467 1.777 18.66 18.66 0 0 0 1.007 7.295c.619 2.039 2.514 9.65 4.362 15.981-.018.008.288.719.45 1.152a2.469 2.469 0 0 0 1.027.981c1.385.269 4.658-.847 5.5-1.353 4.456-2.685 11.469-9.8 11.469-9.8a7.4 7.4 0 0 0-.959-2.677z" fill="#145f7f" opacity=".17" style="mix-blend-mode:multiply;isolation:isolate"/></g></g><path data-name="Path 6092" d="M3.648 147.983c-.012-.023-.022-.046-.032-.068s-.007-.029-.012-.043-.011-.049-.016-.074 0-.03 0-.047a.62.62 0 0 1 0-.09v-.041a1.022 1.022 0 0 1 .02-.143l.006-.019a.91.91 0 0 1 .037-.131c0-.014.013-.031.019-.047l.026-.07a.176.176 0 0 0 .013-.024 1.792 1.792 0 0 1 .106-.2 1.929 1.929 0 0 1 .118-.157c.007-.006.01-.013.014-.016l.023-.023a.959.959 0 0 1 .092-.092l.037-.033a.827.827 0 0 1 .131-.092.468.468 0 0 1 .462-.045q13.934 8.1 27.867 16.194a.463.463 0 0 0-.463.044 1.252 1.252 0 0 0-.13.095.273.273 0 0 0-.037.032.966.966 0 0 0-.091.091l-.038.038c-.04.049-.08.1-.119.158a1.913 1.913 0 0 0-.107.2l-.037.09a.22.22 0 0 0-.02.049 1.398 1.398 0 0 0-.036.129l-.006.02a1.011 1.011 0 0 0-.021.141v.042a.613.613 0 0 0 0 .09v.047c0 .015.01.051.016.076a.316.316 0 0 1 .011.041.606.606 0 0 0 .032.067l.016.031a.487.487 0 0 0 .068.075c2.219 1.769 4.751 6.364 6.3 11.432 1.781 5.824 2.031 11.316.683 15.061-.869 2.416-.989 3.976-.365 4.779a2.116 2.116 0 0 0 .607.546l-27.867-16.193a2.1 2.1 0 0 1-.607-.547c-.622-.8-.505-2.363.366-4.781 1.348-3.743 1.1-9.232-.684-15.059-1.55-5.068-4.082-9.66-6.3-11.431a.351.351 0 0 1-.067-.078l-.015-.024z" fill="#474747"/><g data-name="Group 3332"><path data-name="Path 6093" d="M32.093 162.77a1.286 1.286 0 0 0-.415.414c-.274.422-.309.913-.08 1.1 2.219 1.769 4.751 6.364 6.3 11.432 1.781 5.824 2.031 11.316.683 15.061-.869 2.416-.989 3.976-.365 4.779 1.223 1.568 3.26.878 9.092-2.49 1.9-1.093 4.2-2.475 7-4.15a830.313 830.313 0 0 1 11.61-6.858c.558-.325 2.226-1.156 2.45.732.042.354.323.468.644.28a1.429 1.429 0 0 0 .643-1.21c-.307-2.576-2.373-2.087-3.586-1.388-.06.035-.119.072-.175.109a852.679 852.679 0 0 0-11.613 6.857c-2.658 1.588-4.878 2.921-6.731 3.99-5.021 2.9-7.334 3.862-8.232 2.707-.363-.463-.228-1.552.411-3.327 3.421-9.5-2.612-24.441-7.138-28.053a.438.438 0 0 0-.498.015z" fill="#292d2d"/></g><g data-name="Group 3337"><g data-name="Group 3336"><g data-name="Group 3333"><path data-name="Path 6094" d="M36.744 229.256l-2.417-1.4v1.306l2.416 1.4z" fill="#a1a1a1"/></g><path data-name="Path 6095" d="M53.054 216.949a5.908 5.908 0 0 0 2.073-4.173l-.061-23.757c-.009-4.162-1.486-7.092-3.86-8.472l2.416 1.4c2.377 1.38 3.849 4.31 3.86 8.471.066 22.89.083 23.886.015 24.351a5.926 5.926 0 0 1-2.594 3.982l-18.159 10.5-2.417-1.4c15.101-8.718 18.32-10.562 18.727-10.902z" fill="#d1d1d1"/><g data-name="Group 3334"><path data-name="Path 6096" d="M36.627 185.958v1.3l7.59-4.4c7.288-4.209 13.24-.819 13.262 7.558l.062 23.759a5.833 5.833 0 0 1-2.641 4.574l-18.159 10.5v1.3l18.16-10.5a8.329 8.329 0 0 0 3.77-6.534l-.062-23.756c-.024-9.1-6.485-12.779-14.4-8.209z" fill="#707070"/></g><g data-name="Group 3335"><path data-name="Path 6097" d="M36.627 185.958l-2.416-1.4v1.306l2.415 1.4z" fill="#a1a1a1"/></g><path data-name="Path 6098" d="M41.801 180.154c3.981-2.3 7.6-2.509 10.208-.991l2.416 1.4c-2.612-1.517-6.225-1.306-10.21.993l-7.588 4.4-2.416-1.4z" fill="#b4b4b4"/></g><path data-name="Path 6099" d="M41.801 180.154c3.981-2.3 7.6-2.509 10.208-.991l2.416 1.4c-2.612-1.517-6.225-1.306-10.21.993l-7.588 4.4-2.416-1.4z" fill="#444"/></g></g><path data-name="Path 6100" d="M37.342 110.198a4.036 4.036 0 0 1-4.152 4.067c-2.329 0-4.364-1.46-4.364-3.788a3.3 3.3 0 0 1 .36-1.583c.067-.164.673-1.478 1.458-1.671-.512-.055-1.738 1.159-1.671 1.049a5.8 5.8 0 0 1 4.217-2.441 4.294 4.294 0 0 1 4.152 4.367z" fill="#ad793b"/><path data-name="Path 6101" d="M36.41 107.461s3.068 4.32.513 6.974c-1.8 1.869-3.346 2.643-2.527 3.648s2.7.672 2.7.672a6.254 6.254 0 0 1-2.946-.162c-1.25-.575-.83-2.148 1.4-3.72a4.056 4.056 0 0 0 1.489-3.092 7.234 7.234 0 0 0-.4-2.281z" fill="#ad793b"/><path data-name="Path 6102" d="M208.662 271.416a8.919 8.919 0 0 0-9.176-.286l-48.575 27.2c-3.214 1.855-3.233 4.868-.037 6.723l25.787 15.1a12.78 12.78 0 0 0 11.609 0l45.835-26.633a3.283 3.283 0 0 0 .132-5.6z" fill="#231f20" opacity=".1" style="mix-blend-mode:multiply;isolation:isolate"/><g data-name="Group 3339"><path data-name="Path 6103" d="M207.136 280.546c-.137-2.248 1.674-21.695 2.123-32.044a18.663 18.663 0 0 0-.449-6.665c-.647-1.714-7.245-1.007-8.254-1.072-2.4-.159-.2 3.868-.668 3.336-.513 2.072-2.036 9.121-.852 15.747 1.124 6.3 3.734 19.894 3.3 20.415-1.946 2.345 1.543 6.358 1.543 6.358s1.224 4.767 3.41 6.336c.834.6 4.122.227 2.833-1.837a27.277 27.277 0 0 1-2.986-10.574z" fill="#9a784f"/></g><g data-name="Group 3340"><path data-name="Path 6104" d="M203.051 251.717a21.955 21.955 0 0 1 1.595-6.379 4.137 4.137 0 0 1-.843.059c-2.4-.157-3.453-.764-3.92-1.3-.513 2.072-2.036 9.121-.852 15.747 1.124 6.3 3.734 19.894 3.3 20.415-1.946 2.345 1.543 6.358 1.543 6.358s1.224 4.767 3.41 6.336a12.666 12.666 0 0 0 2.885.852c-1.1-4.026-3.758-7.588-4.443-11.923-.904-5.694-4.024-17.682-2.675-30.165z" fill="#ddb19e" opacity=".35" style="mix-blend-mode:multiply;isolation:isolate"/></g><path data-name="Path 6105" d="M202.196 280.263s-1.9 1.243-.634 4.874c.251.713.688.618.709.785a3.293 3.293 0 0 1 .718 1.35c.657 1.978 1.163 3.817 1.666 4.963a4.132 4.132 0 0 0 3.564 2.355 18.9 18.9 0 0 0 4.026.1c.528-.084.446-.8-.062-1.308-.676-.674-1.791-1.884-1.791-1.884a3.722 3.722 0 0 1-1.351-.393c-1.633-1.013-2.369-4.073-4.332-8.493a3.916 3.916 0 0 0-2.513-2.349z" fill="#323b42"/><path data-name="Path 6106" d="M202.263 284.947c.581.1.686.39 1.011 1.082 1.082 2.3 2.529 5 3.542 6.774a3.347 3.347 0 0 0 2.1 1.76 31.6 31.6 0 0 1-.814-.078 4.131 4.131 0 0 1-3.564-2.356c-.5-1.144-1.007-2.984-1.666-4.962a3.264 3.264 0 0 0-.718-1.35 2.258 2.258 0 0 0-.021-.59c-.042-.073-.197-.352.13-.28z" fill="#6e777c"/><path data-name="Path 6107" d="M202.036 294.695s.013.18.308.155c.253-.021.274-.128.274-.128l.063-12.188-.844.3z" fill="#323b42"/><g data-name="Group 3341"><path data-name="Path 6108" d="M215.09 283.89c-.137-2.246.446-23.2.9-33.552.04-.934.184-1.626.239-3.146.1-2.981-2.884-4.233-3.89-4.3-2.4-.157-6.394 0-7.589 0-.515 2.072 1.059 13.675 2.241 20.3 1.126 6.3 3.736 19.894 3.3 20.415-1.946 2.346 1.541 6.358 1.541 6.358s1.226 4.767 3.411 6.337c.833.6 4.123.227 2.832-1.838a27.281 27.281 0 0 1-2.985-10.574z" fill="#9a784f"/></g><g data-name="Group 3342"><path data-name="Path 6109" d="M211.008 255.061a22.028 22.028 0 0 1 1.595-6.379 3.972 3.972 0 0 1-.841.059c-2.4-.157-3.453-.764-3.92-1.295-.515 2.071-2.036 9.12-.854 15.746 1.126 6.3 3.736 19.894 3.3 20.415-1.946 2.346 1.541 6.358 1.541 6.358s1.226 4.767 3.411 6.337a12.714 12.714 0 0 0 2.886.852c-1.1-4.027-3.761-7.588-4.445-11.923-.902-5.698-4.02-17.686-2.673-30.17z" fill="#9a784f" opacity=".35" style="mix-blend-mode:multiply;isolation:isolate"/></g><path data-name="Path 6110" d="M210.153 283.607s-1.9 1.243-.632 4.874c.251.714.688.618.709.785a3.287 3.287 0 0 1 .715 1.35c.66 1.978 1.166 3.818 1.667 4.964a4.136 4.136 0 0 0 3.563 2.354 18.9 18.9 0 0 0 4.029.1c.528-.084.446-.8-.062-1.308a85.022 85.022 0 0 1-1.794-1.883 3.687 3.687 0 0 1-1.35-.393c-1.631-1.014-2.367-4.074-4.33-8.493a3.921 3.921 0 0 0-2.515-2.35z" fill="#323b42"/><path data-name="Path 6111" d="M209.926 288.268a1.986 1.986 0 0 1 1.421 1.21c1.08 2.3 2.531 5 3.544 6.776a3.342 3.342 0 0 0 2.1 1.76 25.12 25.12 0 0 1-.815-.08 4.136 4.136 0 0 1-3.563-2.354c-.5-1.146-1.007-2.986-1.667-4.964a3.287 3.287 0 0 0-.715-1.35 2.446 2.446 0 0 0-.021-.59c-.047-.073-.608-.477-.284-.408z" fill="#6e777c"/><path data-name="Path 6112" d="M210 298.039s.012.18.308.155c.251-.021.272-.128.272-.128l.065-12.188-.844.295z" fill="#323b42"/><g data-name="Group 3347"><g data-name="Group 3346"><g data-name="Group 3343"><path data-name="Path 6113" d="M155.794 300.099l-2.47-1.436v1.333l2.469 1.436z" fill="#a1a1a1"/></g><path data-name="Path 6114" d="M172.467 287.518a6.069 6.069 0 0 0 2.118-4.267l-.063-24.283c-.012-4.252-1.519-7.247-3.946-8.66.824.48 1.646.956 2.469 1.436 2.427 1.411 3.934 4.4 3.947 8.66.066 23.4.084 24.413.015 24.886a6.053 6.053 0 0 1-2.652 4.072l-18.561 10.737-2.47-1.436c15.435-8.911 18.724-10.799 19.143-11.145z" fill="#d1d1d1"/><g data-name="Group 3344"><path data-name="Path 6115" d="M155.675 255.842v1.331l7.755-4.494c7.451-4.3 13.533-.839 13.558 7.725l.063 24.283a5.962 5.962 0 0 1-2.7 4.675l-18.561 10.737v1.333l18.563-10.737a8.508 8.508 0 0 0 3.855-6.675l-.062-24.286c-.028-9.3-6.631-13.061-14.72-8.389z" fill="#707070"/></g><g data-name="Group 3345"><path data-name="Path 6116" d="M155.675 255.842l-2.47-1.436v1.333l2.469 1.434z" fill="#a1a1a1"/></g><path data-name="Path 6117" d="M160.963 249.908c4.069-2.35 7.764-2.564 10.433-1.013l2.471 1.436c-2.671-1.55-6.366-1.337-10.435 1.014l-7.757 4.5-2.47-1.436z" fill="#b4b4b4"/></g><path data-name="Path 6118" d="M160.963 249.908c4.069-2.35 7.764-2.564 10.433-1.013l2.471 1.436c-2.671-1.55-6.366-1.337-10.435 1.014l-7.757 4.5-2.47-1.436z" fill="#444"/></g><g data-name="Group 3350"><g data-name="Group 3349" clip-path="url(#f)" transform="translate(-3241.264 -6246.017)" style="isolation:isolate"><g data-name="Group 3348"><path data-name="Path 6119" d="M3459.074 6515.222l-28.485-16.555a1.349 1.349 0 0 1 .565 1.092.421.421 0 0 0 .186.335l28.484 16.552a.427.427 0 0 1-.189-.334 1.331 1.331 0 0 0-.561-1.09z" fill="#4d5454" style="isolation:isolate"/></g></g></g><path data-name="Path 6121" d="M168.611 262.574c1.893-1.094 4.164-2.457 6.879-4.083 3.514-2.1 7.493-4.481 11.87-7.009.056-.035.115-.073.177-.109a2.937 2.937 0 0 1 2.736-.353q14.242 8.281 28.483 16.554a2.927 2.927 0 0 0-2.734.352 2.59 2.59 0 0 0-.179.111 801.029 801.029 0 0 0-11.87 7.009c-2.717 1.623-4.986 2.986-6.882 4.078-4.585 2.648-6.96 3.715-8.07 3.071l-28.483-16.553c1.111.641 3.484-.422 8.073-3.068z" fill="#565656"/><path data-name="Path 6122" d="M195.266 278.076c1.9-1.095 4.167-2.459 6.882-4.081 3.513-2.1 7.494-4.481 11.872-7.009.054-.038.116-.071.178-.111a3.047 3.047 0 0 1 2.734-.352c.267.164.807.461 1.824 1.051a2.927 2.927 0 0 0-2.734.352 2.59 2.59 0 0 0-.179.111 801.029 801.029 0 0 0-11.87 7.009c-2.717 1.623-4.986 2.986-6.882 4.078-4.585 2.648-6.96 3.715-8.07 3.071l-1.751-1.02c1.136.565 3.505-.508 7.996-3.099z" fill="#474747"/><path data-name="Path 6123" d="M184.281 193.421l6.688-1.76-.835 3.124-4.092 3.081h-2.334z" fill="#dda058"/><path data-name="Path 6124" d="M177.898 206.021a31.738 31.738 0 0 0 1.237-8.063c-.034-3.356 0-4.5 0-4.5l7.951 3.451s-.564 6.8-.564 8.884c0 .45.955 1.245.189 3.122-.565 1.38-4.014 4.754-8.813-2.894z" fill="#f2c4ac"/><path data-name="Path 6125" d="M185.797 196.348c-.465 3.853-1.2 9.964-1.7 14.488-1.551.164-3.69-.82-6.2-4.815a31.738 31.738 0 0 0 1.237-8.063c-.027-2.75-.008-4.014 0-4.381a.814.814 0 0 1 .037-.1z" fill="#b79484" opacity=".29" style="mix-blend-mode:multiply;isolation:isolate"/><path data-name="Path 6126" d="M181.058 178.365c-5.83-.722-7.407 3.646-8.248 7.734-.307 1.5.71 2.992.63 3.583a6.437 6.437 0 0 0-.379 3.311 34.381 34.381 0 0 0 1.662 6.1c.49 1.383 1.021 2.321 1.783 2.549 1.76.53 4.454.069 8.095-3.035 3.227-2.762 4.39-7.893 4.517-8.376l-1.349-7.7s-3.605-3.783-6.711-4.166z" fill="#9a784f"/><path data-name="Path 6127" d="M182.636 178.365c-5.833-.722-8.292 2.959-9.508 6.952-.149.484 1.114 3.922 1.034 4.512a6.34 6.34 0 0 0-.275 2.8c.042.591.484 2.446.76 3.563.35 1.428 1.005 5.2 1.767 5.425 1.76.528 6.126.088 9.766-3.016 3.226-2.762 4.389-7.893 4.517-8.376l-1.35-7.7s-3.611-3.777-6.711-4.16z" fill="#b79484" opacity=".29" style="mix-blend-mode:multiply;isolation:isolate"/><g data-name="Group 3351"><path data-name="Path 6128" d="M183.37 179.359a.477.477 0 0 1-.139-.078c-.081-.092-.003-.063.139.078z" fill="#f2c4ac" opacity=".34" style="mix-blend-mode:multiply;isolation:isolate"/><path data-name="Path 6129" d="M184.545 198.437c-2.466 2.1-4.584 3.028-6.291 3.2a8.742 8.742 0 0 1-1.049-.013 7.191 7.191 0 0 0 4.144-2.53 18.7 18.7 0 0 0 3.635-5.691c.881-2.816.274-3.982-.82-4.518-.777-.381-5.573-1.232-7.782-3.563a5.783 5.783 0 0 1-1.6-4.571 5.065 5.065 0 0 1 1.3-1.579c1.49.294 5.992.9 9.838 1.558a21.427 21.427 0 0 1 1.8 1.624l1.35 7.7c-.134.491-1.298 5.62-4.525 8.383z" fill="#d8b09e" opacity=".37" style="mix-blend-mode:multiply;isolation:isolate"/></g><g data-name="Group 3352" fill="#dff2f7"><path data-name="Path 6130" d="M185.727 225.028s-7.842 2.407-12.293 2.658c-.691.037-.99.081-1.179-.14-.248-.287-.753.063-.857.136-.035.025-4.67 1.6-4.665 1.63.417 3.73 2.982 3.714 2.982 3.714 7.258 1.224 16.535-4.034 16.535-4.034.49-.358 2.822-1.569 1.419-2.893a5.31 5.31 0 0 0-1.942-1.071z"/><path data-name="Path 6131" d="M172.796 229.283c0-.109-.255-.419-.249-.534.188-3.861 2.153-11.57 3.369-15.072 1.49-4.3 1.344-10.439-1.036-10.542-2.733-.116-4.644 1.727-5.96 5.85-1.607 5.029-2.754 16.906-2.114 20.888.015.094.036.191.054.287l5.532-.335c-.072-.168.397-.342.404-.542z"/></g><path data-name="Path 6132" d="M185.702 228.695c-.03-.042-.065-.076-.1-.115-3.424.9-14.809 4.069-16.247 2.571a.245.245 0 0 1-.077-.111h1.972c.095-.069.067-.123-.174-.123-1.519 0-1.976-.359-2.167-.7-.091-.167 1.041-.14 1.041-.619 0-.174-1.218-.5-1.218-.7.027-4.38 2.191-14.311 3.051-19.9.486-3.146 2-4.887 3.859-5.544a1.271 1.271 0 0 0-.766-.306c-2.733-.116-4.644 1.727-5.96 5.85a31.981 31.981 0 0 1-.957 4.035c-1.061 5.726-1.661 13.725-1.157 16.853a3.961 3.961 0 0 0 .293.921l.1.237v.005a3.7 3.7 0 0 0 .622 1.044 3.4 3.4 0 0 0 1.338.847c6.64 1.154 14.628-1.642 14.628-1.642.553-.275 3.064-1.053 1.919-2.603z" fill="#acc6cc" opacity=".35" style="mix-blend-mode:multiply;isolation:isolate"/><path data-name="Path 6133" d="M201.082 240.761c2.819 0 5.755 2.193 5.755 2.193 6.264 3.459 5.5 11.659 4.335 12.212 0 0-10.13 4.654-12.792 5.736-4.206 1.7-11.682 3.5-15.9 3.036-5.581-.615-7.582-1.157-10.755-3.67-2.333-1.837-2.289-5.816-1.84-9.424.53-4.238 5.411-9.706 5.411-9.706s25.319-.377 25.786-.377z" fill="#024063"/><path data-name="Path 6134" d="M192.536 230.721c-.634 7.825 3.221 12.357 4.077 17.612a19.627 19.627 0 0 1-7.932 3.547c-11.513 1.853-15.882-1.659-18.16-3.349 1.15-3.457 2.638-14.221 2.638-16.713-.453-5.285-2.436-18.669-1.93-25.839.174-2.478 3.3-3.091 3.317-3.063 4.78-.227 13.863 2.967 14.937 3.358 1.856.674 3.036 1.181 4.274 4.836.885 2.619 1.584 5.079 2.027 6.472 1.576 4.95.766 5.782-1.274 8.277a8.677 8.677 0 0 0-1.974 4.862z" fill="#e1f4f9"/><path data-name="Path 6135" d="M173.156 231.818c0 2.492-1.488 13.256-2.638 16.713 2.278 1.69 6.647 5.2 18.16 3.349a15.3 15.3 0 0 0 4.045-1.276c-1.157-6.84-3.14-18.263-3.14-18.788 0-2.024.5-6.832.757-9.7.284-3.211 1.345-7.289.46-9.907-1.236-3.657-.966-3.9-2.737-4.77-3.162-1.561-10.906-3.374-15.815-3.435a3.635 3.635 0 0 0-.365.368c0 .006-.008.01-.012.015a3.03 3.03 0 0 0-.3.433c-.011.019-.019.04-.03.059a2.685 2.685 0 0 0-.174.414c-.014.044-.031.088-.044.132a2.738 2.738 0 0 0-.1.552c-.503 7.172 1.48 20.556 1.933 25.841z" fill="#acc6cc" opacity=".19" style="mix-blend-mode:multiply;isolation:isolate"/><g data-name="Group 3353"><path data-name="Path 6136" d="M196.049 217.729c-1.766-8.27-4.736-10.663-7.176-10.507-2.377.151-2.882 4.536-1.074 10.511.725 2.393 2.286 9.553 4.4 16.361l7.185-.392c-1.31-5.547-2.887-13.873-3.335-15.973z" fill="#dff2f7"/></g><path data-name="Path 6137" d="M188.021 205.772a10.979 10.979 0 0 0-.8-2.173c-.674-.843-6.712-3.068-8.224-2.824-1.055.169-.411.774-.716 1.475a2.387 2.387 0 0 1-.569.887s7.231 1.624 10.309 2.635z" fill="#f0fcff"/><path data-name="Path 6138" d="M192.778 181.008l-.038.018a4.819 4.819 0 0 0-.186-.349c-5.205-8.511-15.816-3.721-16.941-3.008-2.912 1.849-6.115 5.053-1.846 11.017a12.407 12.407 0 0 1 2.478 7.674c.146 9.557-2.631 12.472-2.362 12.484 2.3.113 8.584-.152 12.258-1.967 4.443-2.193 4.893-3.769 5.23-5.006.038-.136 1.036-5.6 1.461-8.89a80.977 80.977 0 0 1-.954 9.453s1.349-3.15 1.921-12.331c.417-6.682-1.021-9.095-1.021-9.095z" fill="#231f20" opacity=".1" style="mix-blend-mode:multiply;isolation:isolate"/><path data-name="Path 6139" d="M172.814 206.538s3.665-5.954 1.406-12.175c-3.459-9.532-2.109-13.075-2.109-13.075l5.312 10.942s-.417 3.438-.79 5.623a18.014 18.014 0 0 1-3.819 8.685z" fill="#231f20" opacity=".1" style="mix-blend-mode:multiply;isolation:isolate"/><path data-name="Path 6140" d="M177.848 179.095c-2.911 1.848-4.73 5.349-2.193 12.231.234.633.562 1.422.88 2.339.034-.205.109-.085.246.53.054.253-.536-5.99-.536-5.99a45.88 45.88 0 0 1 1.883 12.316c0 4.355-.984 6.411-1.616 7.284-.113.386-.226.723-.337 1.038 2.913-.107 7.185-.593 9.966-1.966 4.443-2.193 4.893-3.769 5.23-5.006.038-.136 1.036-5.6 1.461-8.89a80.977 80.977 0 0 1-.954 9.453s1.349-3.15 1.921-12.331a23.382 23.382 0 0 0-.582-7.961c-5.311-7.327-14.287-3.733-15.369-3.047z" fill="#412b00" opacity=".36" style="mix-blend-mode:multiply;isolation:isolate"/><g data-name="Group 3354"><path data-name="Path 6141" d="M209.05 220.528s3.21-4.321 4.166-4.572a18.5 18.5 0 0 1 3.1-.791c1.038-.121 1.576.136 1.613.366s-.322.423-1.182.538c-.843.113-.9.35-.9.35a9.556 9.556 0 0 1 2.738.194c.734.284.493.7.529.768.168.318.837.4 1.065 1.074.16.468-.088.625-.117.814-.034.207.477.669-.647.841a8.649 8.649 0 0 0-3.434 1.428c-1.344.939-2.229 2.127-4.125 2.664a11.783 11.783 0 0 0-3.252 1.372l-1.3-3.419z" fill="#9a784f"/><path data-name="Path 6142" d="M195.174 228.5c-.68.375-2.66 1.21-3.893 1.781 0 0 .783 5.49 2.436 5.955 1.1.308 4.863-.887 5.668-1.371 4.554-2.743 11.722-10.021 11.722-10.021a8.588 8.588 0 0 0-1.228-3.07c-.945-1.252-1.183-1.283-1.5-1.342.001 0-5.737 3.96-13.205 8.068z" fill="#dff2f7"/><path data-name="Path 6143" d="M210.136 222.113c-2.977 3.185-6.187 6.065-13.093 9.785-.383.205-1.147.86-1.589.575-.474-.3-.539-.806-.66-1.368-1.433-6.678-2.709-14.145-3.871-18.527-.76-2.871-2.973-4.849-3.672-4.118a5.625 5.625 0 0 0-.477 1.818 18.98 18.98 0 0 0 1.029 7.455c.63 2.086 2.568 9.865 4.458 16.335-.019.008.292.735.461 1.178a2.522 2.522 0 0 0 1.048 1c1.414.274 4.761-.866 5.619-1.384 4.554-2.743 11.722-10.021 11.722-10.021a7.516 7.516 0 0 0-.975-2.728z" fill="#acc6cc" opacity=".19" style="mix-blend-mode:multiply;isolation:isolate"/></g><path data-name="Path 6144" d="M152.217 234.719q-.018-.034-.033-.069c0-.013-.007-.029-.013-.044l-.015-.075v-.049a.7.7 0 0 1 0-.091v-.043a1.274 1.274 0 0 1 .021-.146l.006-.019a.842.842 0 0 1 .038-.133c0-.016.013-.032.019-.049s.016-.046.027-.071c0-.008.009-.015.012-.026a1.7 1.7 0 0 1 .109-.2 1.951 1.951 0 0 1 .121-.161c.007-.006.009-.013.014-.017s.016-.014.023-.023c.033-.033.062-.066.095-.094.014-.011.026-.023.038-.034a1.227 1.227 0 0 1 .132-.094.478.478 0 0 1 .473-.046q14.243 8.279 28.483 16.552a.476.476 0 0 0-.473.046 1.439 1.439 0 0 0-.131.1.279.279 0 0 0-.038.034.729.729 0 0 0-.094.092.7.7 0 0 1-.038.039c-.041.051-.081.1-.122.162a1.665 1.665 0 0 0-.108.2l-.04.092a.35.35 0 0 0-.019.051 1.727 1.727 0 0 0-.037.131l-.007.021a1.249 1.249 0 0 0-.021.144v.134a.347.347 0 0 0 0 .049.626.626 0 0 0 .017.077l.011.042a.53.53 0 0 0 .033.069l.017.031a.386.386 0 0 0 .069.078c2.266 1.808 4.856 6.5 6.44 11.684 1.82 5.954 2.076 11.567.7 15.394-.89 2.471-1.011 4.065-.375 4.886a2.188 2.188 0 0 0 .621.558l-28.483-16.552a2.161 2.161 0 0 1-.621-.558c-.636-.819-.517-2.416.375-4.887 1.377-3.826 1.121-9.437-.7-15.393-1.587-5.179-4.174-9.874-6.44-11.684a.359.359 0 0 1-.069-.079c-.006-.01-.013-.02-.017-.029z" fill="#474747"/><g data-name="Group 3355"><path data-name="Path 6145" d="M181.29 249.835a1.338 1.338 0 0 0-.423.423c-.279.431-.316.934-.081 1.122 2.266 1.808 4.856 6.5 6.44 11.684 1.82 5.954 2.076 11.567.7 15.394-.89 2.471-1.011 4.065-.375 4.886 1.252 1.6 3.332.9 9.295-2.545 1.937-1.118 4.29-2.531 7.155-4.243 3.513-2.1 7.492-4.482 11.866-7.009.571-.332 2.277-1.182 2.505.748.044.362.331.479.659.287a1.462 1.462 0 0 0 .657-1.237c-.314-2.634-2.425-2.133-3.665-1.419a2.59 2.59 0 0 0-.179.111 801.029 801.029 0 0 0-11.87 7.009c-2.717 1.623-4.986 2.986-6.882 4.078-5.13 2.964-7.494 3.947-8.413 2.767-.37-.473-.233-1.587.421-3.4 3.494-9.71-2.67-24.982-7.3-28.673a.45.45 0 0 0-.51.017z" fill="#292d2d"/></g><g data-name="Group 3360"><g data-name="Group 3359"><g data-name="Group 3356"><path data-name="Path 6146" d="M186.046 317.793l-2.47-1.436v1.335l2.469 1.434z" fill="#a1a1a1"/></g><path data-name="Path 6147" d="M202.717 305.213a6.049 6.049 0 0 0 2.118-4.265l-.061-24.283c-.011-4.255-1.519-7.249-3.947-8.66.824.478 1.647.954 2.47 1.435 2.429 1.412 3.934 4.406 3.946 8.658.067 23.4.084 24.416.016 24.89a6.067 6.067 0 0 1-2.652 4.071l-18.561 10.734-2.47-1.435c15.434-8.911 18.725-10.797 19.141-11.145z" fill="#d1d1d1"/><g data-name="Group 3357"><path data-name="Path 6148" d="M185.926 273.537v1.333l7.758-4.5c7.451-4.3 13.534-.837 13.557 7.724l.063 24.286a5.965 5.965 0 0 1-2.7 4.675l-18.561 10.734v1.333l18.561-10.734a8.517 8.517 0 0 0 3.855-6.677l-.064-24.284c-.026-9.3-6.629-13.061-14.72-8.39z" fill="#707070"/></g><g data-name="Group 3358"><path data-name="Path 6149" d="M185.926 273.537l-2.47-1.437v1.335l2.468 1.434z" fill="#a1a1a1"/></g><path data-name="Path 6150" d="M191.215 267.603c4.068-2.348 7.764-2.564 10.433-1.013l2.471 1.436c-2.671-1.55-6.364-1.336-10.437 1.015l-7.756 4.5-2.47-1.436z" fill="#b4b4b4"/></g><path data-name="Path 6151" d="M191.215 267.603c4.068-2.348 7.764-2.564 10.433-1.013l2.471 1.436c-2.671-1.55-6.364-1.336-10.437 1.015l-7.756 4.5-2.47-1.436z" fill="#444"/></g><g data-name="Group 3361"><path data-name="Path 6152" d="M181.426 65.244s18.851-11.946 19.272-12.777a4.519 4.519 0 0 1 2.06.913c1.383 1.1.446 5.985.3 6.21-2.231 3.577-16.133 8.268-18.1 9.419-1.362-.105-3.532-3.765-3.532-3.765z" fill="#e1f4f9"/></g><path data-name="Path 6153" d="M173.583 69.801c1.239-1.824 7.968-4.408 8.858-4.785 1.127.983 2.18 1.421 3.129 2.185-.181.123-.294.864-.3.915-.252 1.855-.456 1.949-4.424 5.027l-3.158 3.161s-.791.893-.886-.3c-.036-.428.915-1.669 1.293-2.562 0 0-3.36 3.283-3.963 3.461-1.065.317-1.136-.524-1.388-.539-.55-.03-.841-.065-.833-.622.014-1.032 1.259-3.239 1.123-3.149-.311.2-1.267 1.755-1.764 2.238-.322.311-.718.038-.669-.156.316-1.239 2.1-3.564 2.982-4.874z" fill="#d3a07d"/><path data-name="Path 6154" d="M316.263 154.336c1.239-1.824 7.97-4.408 8.858-4.785 3.643.086 2.836 3.049 2.83 3.1-.252 1.855-.457 1.949-4.422 5.026l-3.16 3.162s-.79.892-.886-.3c-.035-.428.915-1.669 1.293-2.561 0 0-3.36 3.282-3.963 3.46-1.065.317-1.135-.525-1.389-.539-.549-.03-.84-.065-.833-.622.014-1.032 1.259-3.239 1.124-3.149-.309.205-1.268 1.755-1.763 2.238-.323.311-.718.039-.67-.156.316-1.24 2.099-3.563 2.981-4.874z" fill="#d59f55"/><g data-name="Group 3363"><path data-name="Path 6155" d="M269.536 103.453c1.594-.326 10.7-5.2 11.447-6.312a37.666 37.666 0 0 0 5.153-9.828 98.3 98.3 0 0 0 3.027-11.368c.837-5.018-3.1-9.711-7.4-6.419-4.032 3.088-5.112 13.5-5.8 15.647-1.165 3.614-1.959 6.077-3.342 7.469-2.178 2.189-5.929 3.86-6.326 4.543-1.978 3.4 5.566-.831 5.912-.049 2.229 5.078-4.991 6.188-2.671 6.317z" fill="#575f63"/><path data-name="Path 6156" d="M247.536 108.649c1.169-1.722 7.521-4.161 8.361-4.516 1.064.927 2.058 1.341 2.953 2.062-.171.116-.277.815-.283.864-.238 1.75-.431 1.84-4.176 4.744l-2.981 2.984s-.746.842-.836-.282c-.034-.4.863-1.575 1.221-2.418a33.03 33.03 0 0 1-3.741 3.266c-1.005.3-1.072-.5-1.31-.508-.519-.029-.794-.062-.787-.588.014-.974 1.189-3.057 1.061-2.972-.294.193-1.2 1.656-1.666 2.112-.3.294-.677.037-.631-.147.301-1.167 1.985-3.367 2.815-4.601z" fill="#dbb397"/><g data-name="Group 3362"><path data-name="Path 6157" d="M255.13 104.36s18.85-11.945 19.271-12.777a4.517 4.517 0 0 1 2.06.914c1.384 1.1.447 5.985.3 6.21-2.232 3.577-16.134 8.267-18.1 9.418-1.362-.104-3.531-3.765-3.531-3.765z" fill="#575f63"/></g></g><g data-name="Group 3366" fill-rule="evenodd"><path data-name="Path 6158" d="M183.608 134.223c3.541 0 6.411 1.663 6.411 3.714s-2.87 3.714-6.411 3.714-6.41-1.663-6.41-3.714 2.87-3.714 6.41-3.714z" fill="#77749a"/><g data-name="Group 3364"><path data-name="Path 6159" d="M190.906 126.323c-.311 0-13.393-.044-14.593-.04 0 .27.041.558.065.827a26.279 26.279 0 0 0 .558 3.6l.007.027a15.3 15.3 0 0 0 3.033 6.363 9.306 9.306 0 0 0 1.744 1.7 4.029 4.029 0 0 0 3.658.037 2.063 2.063 0 0 0 .352-.244 13.279 13.279 0 0 0 2.07-2.274 15.908 15.908 0 0 0 2.489-5.723 29.993 29.993 0 0 0 .617-4.273z" fill="#1099a3"/><path data-name="Path 6160" d="M183.608 122.189c3.865 0 7 1.768 7 3.948s-3.134 3.948-7 3.948-7-1.767-7-3.948 3.135-3.948 7-3.948z" fill="#0b828a"/><path data-name="Path 6161" d="M183.608 123.268c3.751 0 6.793 1.716 6.793 3.832 0 1.033-2.459 2.85-6.813 3.05s-6.632-2.137-6.773-3.05c0-2.117 3.041-3.832 6.793-3.832z" fill="#000e12"/><path data-name="Path 6162" d="M183.608 122.01c-4.033 0-7.3 1.894-7.3 4.23s3.269 4.229 7.3 4.229 7.3-1.893 7.3-4.229-3.27-4.23-7.3-4.23zm6.793 4.127c0 2.117-3.042 3.833-6.793 3.833s-6.793-1.716-6.793-3.833 3.041-3.832 6.793-3.832 6.793 1.716 6.793 3.832z" fill="#1abac6"/></g><path data-name="Path 6163" d="M184.516 126.407c-.023.279-.421.5-.908.5s-.885-.222-.908-.5v-15.163c.014-.1.146-.5.909-.52.353-.007.88.182.909.52v15.163z" fill="#301a1a"/><g data-name="Group 3365"><path data-name="Path 6164" d="M183.608 96.326a13.327 13.327 0 1 1-13.327 13.327 13.327 13.327 0 0 1 13.327-13.327z" fill="#066e3e"/><path data-name="Path 6165" d="M196.605 112.611a13.328 13.328 0 1 1-22.121-12.67 13.327 13.327 0 0 0 22.121 12.67z" fill="#03542e"/><path data-name="Path 6166" d="M183.436 102.799c6.136.829 11.565 2.162 12.463 8.88 1.565-10.38-7.149-14.816-12.292-14.716-3.114.061-4.627 1.01-4.894 2.1-.751 3.072 2.735 3.468 4.723 3.736z" fill="#088048"/></g></g></g></svg>