<svg xmlns="http://www.w3.org/2000/svg" width="182.946" height="182.101" viewBox="0 0 182.946 182.101"><g data-name="Group 10012"><g data-name="Group 3279"><path data-name="Path 5885" d="M87.355 67.87c-1.085.344-2.539-.818-4.015-2.777-1.594-2.113-3.238-8.8-3.632-9.5-1.186-2.115 1.336-2.679 1.336-2.679s-3.028-10.091-.416-11.087c2.387-.915 4.78 7.312 4.96 9.946.14 2.025 2.491 10.6 3.491 10.421 2.862-.508 3.698 3.966-1.724 5.676z" fill="#dcf3f9"/><g data-name="Group 3274"><path data-name="Path 5886" d="M96.241 57.588s-5.267 4.174-7.214 4.8a4.273 4.273 0 0 0-2.431 4.718c.149.522.476.776.793.727 3.088-.495 9.217-7.362 9.865-8.1l-.994-2.193a.4.4 0 0 0-.019.048z" fill="#dcf3f9"/><path data-name="Path 5887" d="M106.125 56.891c-.38-.188-1.54.323-3.087.563a4.361 4.361 0 0 1-2.755-.439s-.872-.375 1.42-1.934c.889-.606.124-1.118.124-1.118s-.553.286-1.609.8a15.8 15.8 0 0 0-2.653 1.353 3.427 3.427 0 0 0-1.3 1.426l.994 2.193.061-.066a18.365 18.365 0 0 0 4.369.972c1.939.1 3.331-1.437 4.208-2.5.312-.384.608-1.055.228-1.25z" fill="#d3a07d"/></g><path data-name="Path 5888" d="M97.258 59.732l-.994-2.193a5.241 5.241 0 0 1-.123 1.037 36.323 36.323 0 0 1-7.69 7.119 11.693 11.693 0 0 1-1.9-2.047c-1.592-2.113.588-5.34.372-6.109a48.738 48.738 0 0 1-1.668-7.641c-.267-1.771-1.191-5.168-2.476-6.719-.675-1.036-1.416-1.634-2.156-1.35-2.612 1 .416 11.087.416 11.087s-2.522.564-1.336 2.679c.394.7 2.038 7.385 3.632 9.5 1.476 1.959 2.93 3.121 4.015 2.777.075-.025.139-.052.211-.075 3.142-.713 9.06-7.342 9.697-8.065z" fill="#acc6cc" opacity=".35" style="mix-blend-mode:multiply;isolation:isolate"/><g data-name="Group 3278"><path data-name="Path 5889" d="M82.818 39.026a7.97 7.97 0 0 0 .433 1.588 5.61 5.61 0 0 0 1.809 2.314 17.374 17.374 0 0 1-1.881-9.394c.487-5.669 1.483-8.9-.686-12.864-2.131-3.9-7.327-3.694-7.327-3.694s-6.953 3.883-7.127 4.489c-1.609 5.607.322 14.192 1.991 16.823 2.475 1.051 2.623 3.188 6.429 3.629 1.274.148 5.135 1.585 7.082 1.445a21.091 21.091 0 0 1-.723-4.336z" fill="#b27a38"/><path data-name="Path 5890" d="M90.652 155.449c-3.338 1.543-3.772 3.779-2.226 4 3.756.541 3.527 1.422 2.979 2.661-.893 2.012-12.222 6.142-22.483 5.379-12.223-.909-12.96-6.327-11.585-8.772 1.537-2.727 12.115-8.529 24.445-9.448 7.416-.552 12.858.248 13.61 1.227 1.249 1.62 1.288 2.17-4.74 4.953z" fill="#231f20" opacity=".1" style="mix-blend-mode:multiply;isolation:isolate"/><path data-name="Path 5891" d="M73.86 78.637s-3.9-1.519-1.35 13.541c.9 5.327 3.953 22.542 3.953 22.542s-2.071 7.26-.867 14.01c.965 5.4 3.2 17.045 2.826 17.492-1.669 2.008 1.32 5.446 1.32 5.446s1.049 4.084 2.921 5.43c.715.512 3.534.193 2.425-1.575a23.494 23.494 0 0 1-2.554-9.06c-.115-1.925.2-20.143.58-29.009.063-1.458.672-1.5.775-5.108.471-16.515 1.316-35.152 1.316-35.152z" fill="#ddb19e"/><path data-name="Path 5892" d="M78.307 146.222s-1.625 1.064-.54 4.175c.214.61.456 5.531.456 5.531h.4a49.917 49.917 0 0 1-.086-5.14 2.25 2.25 0 0 1 .4.886c.543 1.7 1.313 3.828 1.741 4.81a3.328 3.328 0 0 0 2.2 1.978 14.941 14.941 0 0 0 3.855.579c.6-.151.646-.472 0-1.4a30.56 30.56 0 0 0-2-2.6s.741.883-.515 1.145c-1.334.279-2.027-.329-3.681-4.124a50.963 50.963 0 0 1-2.23-5.84z" fill="#323b42"/><path data-name="Path 5893" d="M79.967 146.688c-.771-4.882-3.214-14.134-2.314-26.342.274-3.721 3.6-7.327 3.213-9.638-.708-4.25 1.542-9.262 1.542-9.262s-4.67-.905-8.484-1.583c1.173 6.157 2.539 14.857 2.539 14.857s-2.071 7.26-.867 14.01c.965 5.4 3.2 17.045 2.826 17.492-1.669 2.008 1.32 5.446 1.32 5.446s1.049 4.084 2.921 5.43a1.825 1.825 0 0 0 .994.217c-.948-3.449-3.104-6.914-3.69-10.627z" fill="#ddb19e" opacity=".35" style="mix-blend-mode:multiply;isolation:isolate"/><path data-name="Path 5894" d="M83.908 111.716c.386-13.267 1-28.4 1.221-32.911q-.162-.768-.343-1.558l-10.926 1.39s-3.9-1.519-1.35 13.541c.9 5.327 3.151 20.841 3.151 20.841a6.655 6.655 0 0 1 .386 1.544 18.455 18.455 0 0 0 7.861-2.847z" fill="#ddb19e" opacity=".35" style="mix-blend-mode:multiply;isolation:isolate"/><path data-name="Path 5895" d="M69.291 151.882s-1.317.369-.721 3.192c.721 3.4 1.048 6.989 1.1 7.292a6.452 6.452 0 0 0 3.191 3.142 1.931 1.931 0 0 0 1.509-.07c.793-.471.677-2.565.408-3.507-1.185-4.119-2.554-8.529-2.554-8.529s-1.696-2.653-2.933-1.52z" fill="#323b42"/><path data-name="Path 5896" d="M65.477 84.706a45.666 45.666 0 0 0 .582 12.015c1.635 9.67 3.029 16.881 1.635 20.926s-1.929 9.217-.773 16.673c.908 5.849 1.592 10.656 2.026 13.3a16.217 16.217 0 0 1 .046 4.865s.749 4.992 1.159 6.941c.771 3.662 4.449 3.014 4.047.914-.385-2.022-1.108-7.323-1.205-9.347-.1-2.122.772-17.349 1.832-28.431.122-1.281 1.316-2.6 1.7-5.109.8-5.183 2.282-38.754 2.282-38.754s-9.498-3.427-13.331 6.007z" fill="#f2c4ac"/><path data-name="Path 5897" d="M76.786 114.981c.791-8.307 2.024-36.281 2.024-36.281s-9.5-3.428-13.333 6.006a45.666 45.666 0 0 0 .582 12.015c1.226 7.253 2.317 13.915 2.2 17.593a9.889 9.889 0 0 0 6.889 1.34 3.574 3.574 0 0 0 1.638-.673z" fill="#ddb19e" opacity=".35" style="mix-blend-mode:multiply;isolation:isolate"/><path data-name="Path 5898" d="M82.6 67.839a119.944 119.944 0 0 1 2.924 11.925c1.413 8.8-1.189 30.461-1.189 30.461a20.164 20.164 0 0 1-9.028 3.952c-5.107.868-8-1.638-8-1.638s0-6.62-.288-7.711c-2.41-9.156-3.791-16.749-2.346-21.759a80.217 80.217 0 0 1 5.013-12.145z" fill="#232f38"/><path data-name="Path 5899" d="M64.673 83.069c-1.445 5.01-.064 12.6 2.346 21.759.288 1.091.288 7.711.288 7.711a9.683 9.683 0 0 0 6.521 1.8c-.42-3.041-1.253-10.351-2.794-19.029-2.6-14.648 1.959-20.467 1.959-20.467l-3.155-3.953-.152.037a80.217 80.217 0 0 0-5.013 12.142z" fill="#232f38" opacity=".25" style="mix-blend-mode:multiply;isolation:isolate"/><path data-name="Path 5900" d="M62.826 76.849s3.258 1.653 3.664 1.349c1.159-.877 2.751-2.6 3.325-2.6.77 0 2.939.193 2.939.193s1.349 1.111.577 1.4a23.527 23.527 0 0 0-4.577 3.373c-1.447 1.351-2.362 1.449-3.133.484-.286-.358-4.749-2.63-4.722-2.987.048-.612 1.927-1.212 1.927-1.212z" fill="#f2c4ac"/><path data-name="Path 5901" d="M69.589 65.527a14.543 14.543 0 0 1-.867 7.2 11.208 11.208 0 0 0 9.926 2.056 15.628 15.628 0 0 0 5.27-2.307c-.131-.834-.933-7.5-.933-8.488a5.827 5.827 0 0 1 1.446-3.953c1.749-2.136 2.6-3.275 1.252-7.516-.379-1.2-1.051-4.061-1.445-5.976-.77-3.759-2.441-5.156-3.855-5.2-5.975-.209-10.6.858-16.479 4.94-4.4 3.05.094 8.359.094 8.359s4.674 7.414 5.591 10.885z" fill="#dcf3f9"/><path data-name="Path 5902" d="M69.654 43.849a27.193 27.193 0 0 0 1.059-6.909c-.028-2.874 0-3.856 0-3.856l6.811 2.958s-.484 5.825-.484 7.612c0 .386.818 1.066.163 2.674-.482 1.176-3.437 4.067-7.549-2.479z" fill="#f2c4ac"/><path data-name="Path 5903" d="M70.713 36.935v.168a9.95 9.95 0 0 0 .79 1.023 10.211 10.211 0 0 0 5.62 3.526c.136-2.389.4-5.615.4-5.615l-6.811-2.958s-.027.982.001 3.856z" fill="#b79484" opacity=".29" style="mix-blend-mode:multiply;isolation:isolate"/><path data-name="Path 5904" d="M63.998 54.636s4.674 7.42 5.591 10.891a14.543 14.543 0 0 1-.867 7.2 13.146 13.146 0 0 0 4.271 2.116 17.9 17.9 0 0 0 .642-2.084c.869-3.568-.577-8.771.869-9.06a6.375 6.375 0 0 0 3.856-2.6s-6.554 2.314-8.289-2.215c-3.3-8.622-4.262-6.478-4.627-6.941-.146 2.347-.432-1-.481-.963-4.394 3.042-.965 3.656-.965 3.656z" fill="#acc6cc" opacity=".35" style="mix-blend-mode:multiply;isolation:isolate"/><path data-name="Path 5905" d="M58.023 70.349c-.481-.643-1.094-.879-.187-1.256.411-.168.058-.6.241-.915 2-3.385 6.729-10.874 10.259-15.465 1.634-2.123-.938-7.8-2.987-7.036-1.712.638-2.9 1.416-6.167 7.327a124.61 124.61 0 0 0-7.037 15.676s-.643 1.8 1.445 4.274c3.037 3.594 10.056 7.518 10.056 7.518a2.457 2.457 0 0 0 2.056-1.189c.6-1.048.449-1.542.449-1.542a37.7 37.7 0 0 1-8.128-7.392z" fill="#dcf3f9"/><path data-name="Path 5906" d="M64.168 46.118c-1.024.652-1.807 1.338-4.986 6.882a105.316 105.316 0 0 0-7.037 15.676s-.643 1.8 1.445 4.274c3.037 3.594 10.056 7.518 10.056 7.518a2.5 2.5 0 0 0 1.831-.882c-2.011-1.257-8.916-6.247-10.6-8.978-.537-.869 1.8-.959 1.061-1.3-.887-.411-1.591-.938-1.025-1.208.2-.092 1.875.489 1.674.365a1.782 1.782 0 0 1-.874-2.263c1.254-2.979 6.373-13.677 7.229-15.034 1.414-2.238 1.917-3.253 2.76-3.47a47.329 47.329 0 0 1 4.208-3.226c1.047-.616-1.007-1.092-1.1-1.048a37.914 37.914 0 0 0-4.642 2.694z" fill="#acc6cc" opacity=".35" style="mix-blend-mode:multiply;isolation:isolate"/><path data-name="Path 5907" d="M75.87 47.649c-.1.183.085.386.324.689l2.247 2.517c.224.18.439.1.413-.516l-.02-4.961a16.48 16.48 0 0 0-.906-3.084.815.815 0 0 0-.663-.6 15.089 15.089 0 0 1-.114 1.638 18.132 18.132 0 0 1-1.281 4.317z" fill="#acc6cc" opacity=".35" style="mix-blend-mode:multiply;isolation:isolate"/><path data-name="Path 5908" d="M69.918 41.491a3.654 3.654 0 0 0 .544 2.242c1.289 1.921 5.383 3.893 5.383 3.893.3.164.413.239.353.827l-.678 3.627c-.074.283-.3.352-.517.142 0 0-5.066-4.736-5.832-5.651-.885-1.049-1.2-1.854-1-2.666a15.7 15.7 0 0 1 1.747-2.414z" fill="#acc6cc" opacity=".35" style="mix-blend-mode:multiply;isolation:isolate"/><path data-name="Path 5909" d="M75.868 47.076c-.09.181.083.385.306.689l2.118 2.527c.212.179.413.1.387-.518l-.039-4.956a17.44 17.44 0 0 0-.862-3.088.788.788 0 0 0-.626-.607s-.04.917-.131 1.631a18.807 18.807 0 0 1-1.153 4.322z" fill="#fff"/><path data-name="Path 5910" d="M69.874 40.916a3.728 3.728 0 0 0 .535 2.242c1.265 1.922 5.278 3.9 5.278 3.9.288.164.4.237.344.828l-.658 3.627c-.071.281-.289.35-.506.142 0 0-5.089-4.782-5.843-5.7-.864-1.051-1.086-1.6-.886-2.41a19.414 19.414 0 0 1 1.736-2.629z" fill="#fff"/><path data-name="Path 5911" d="M77.241 20.04c5.035.048 4.68 4.424 5.036 7.749a19.74 19.74 0 0 1-.26 2.27 4.682 4.682 0 0 1 .24 3.037 35.734 35.734 0 0 1-2.215 6.024c-.415.984-.624 1.175-1.292 1.307-1.7.34-4.42-.356-7.162-3.4-2.428-2.712-3.227-7.229-3.278-7.653l-.83-9.275s7.086-.086 9.761-.059z" fill="#ffd7c2"/><path data-name="Path 5912" d="M77.241 20.04c-1.141-.01-2.25-.26-4.1-.247-.107 1.722-.694 5.508 3.382 6.586 3.831 1.012 5.024 1.538 5.684 2.377a3.932 3.932 0 0 0 .068-.967c-.349-3.325.006-7.701-5.034-7.749z" fill="#c18e6b" opacity=".36" style="mix-blend-mode:multiply;isolation:isolate"/><g data-name="Group 3275"><path data-name="Path 5913" d="M74.358 20.922a.52.52 0 0 0 .127-.047c.078-.071.01-.056-.127.047z" fill="#f2c4ac" opacity=".34" style="mix-blend-mode:multiply;isolation:isolate"/><path data-name="Path 5914" d="M74.652 36.532c-1.7-3.207-1.759-4.558-1.771-5.022-.035-1.338.618-2.808.4-3.36-.074-.181-.4-2.169-.4-2.169-.071-1.59 2.2-2.276 2.35-2.458-.625.19-4.373-1.914-7.564-1.391l.648 7.238c.051.424.85 4.941 3.278 7.653a9.618 9.618 0 0 0 5.616 3.429c-.606-.379-1.581-2.078-2.557-3.92z" fill="#c18e6b" opacity=".21" style="mix-blend-mode:multiply;isolation:isolate"/></g><path data-name="Path 5915" d="M70.841 154.271c.385-4.755-2.282-16.442-2.441-24.674-.13-6.682.77-7.839 2.055-11.95a36.665 36.665 0 0 0 1.414-8.611s-1.832-.354-4.133-.785c.621 4.04.794 6.965-.043 9.4-1.395 4.042-1.929 9.217-.773 16.673.908 5.849 1.592 10.656 2.026 13.3a16.217 16.217 0 0 1 .046 4.865s.749 4.992 1.159 6.941a3.426 3.426 0 0 0 1.352 2.251 30.492 30.492 0 0 1-.662-7.41z" fill="#ddb19e" opacity=".35" style="mix-blend-mode:multiply;isolation:isolate"/><path data-name="Path 5916" d="M77.024 19.111c-.8-.954-3.652-1.531-5.417-1.254-.458.073-8.012.782-7.516 12.158.226 5.179 2.03 11.627 2.8 12.739l.081.073a8.556 8.556 0 0 1-.325-1.317 5.744 5.744 0 0 0 .788 1.661 9.4 9.4 0 0 0 2.424 1.164c.754.237 1.593.479 2.231.656a11.639 11.639 0 0 1-.789-2.038 15.984 15.984 0 0 1-.6-4.386 18.215 18.215 0 0 0 .53 2.965 11.431 11.431 0 0 0 1.716 3.69c.1.028.163.042.163.042-.988-.866-1.773-7.96-1.854-13.681-.074-5.059 1.034-7.832 5.117-8.388 1.692-.231 3.226-1.002.651-4.084z" fill="#c98f43"/><path data-name="Path 5917" d="M77.024 19.111c-.8-.954-3.652-1.531-5.417-1.254-.458.073-8.012.782-7.516 12.158.226 5.179 2.03 11.627 2.8 12.739l.081.073a8.556 8.556 0 0 1-.325-1.317 5.744 5.744 0 0 0 .788 1.661 9.4 9.4 0 0 0 2.424 1.164c.754.237 1.593.479 2.231.656a11.639 11.639 0 0 1-.789-2.038 15.984 15.984 0 0 1-.6-4.386 18.215 18.215 0 0 0 .53 2.965 11.431 11.431 0 0 0 1.716 3.69c.1.028.163.042.163.042-.988-.866-1.773-7.96-1.854-13.681-.074-5.059 1.034-7.832 5.117-8.388 1.692-.231 3.226-1.002.651-4.084z" fill="#c98f43"/><g data-name="Group 3276" opacity=".24" style="mix-blend-mode:multiply;isolation:isolate" fill="#c98f43"><path data-name="Path 5918" d="M69.575 44.23c-2.006-2.869-4.3-9.3-4.608-14.047-.642-9.811 7.565-11.032 8.817-8.913 1.019-.458 5.166.145 3.24-2.159-.8-.954-3.652-1.531-5.417-1.254-.458.073-8.012.782-7.516 12.158.226 5.179 2.03 11.627 2.8 12.739l.081.073a8.556 8.556 0 0 1-.325-1.317 5.744 5.744 0 0 0 .788 1.661 9.426 9.426 0 0 0 2.14 1.059z"/><path data-name="Path 5919" d="M69.926 44.306a.325.325 0 0 0 .01.048h.008a.24.24 0 0 0-.018-.048z"/></g><path data-name="Path 5920" d="M70.402 18.415a7.778 7.778 0 0 0 5.261 6.807c5.026 1.692 6.413 1.951 7.264 4.373a6.715 6.715 0 0 1 .4 2.419s1.557-6.314-.021-9.934a8.865 8.865 0 0 0-8.445-5.289c-3.642.103-4.459 1.624-4.459 1.624z" fill="#c98f43"/><g data-name="Group 3277" fill="#fff"><path data-name="Path 5921" d="M78.941 22.912c-.968-.314-1.209-.749-.414-.556 1.278.336 3.243.615 4.333 2.178-.206-.376-.213-1.408-5.44-3.359-5.56-2.076-2.146-4.046-2.146-4.046-1.517-.216-3.9 2.433.652 5.3 3.343 2.1 4.6.963 7.059 3.469-.28-.756-1.544-2.17-4.044-2.986z" opacity=".16"/><path data-name="Path 5922" d="M73.579 18.23c.005-.071.01-.138.013-.2l-.013.2z" opacity=".16"/><path data-name="Path 5923" d="M73.592 18.025v-.065c.003.019.001.042 0 .065z" opacity=".16"/></g><path data-name="Path 5924" d="M83.036 27.749c-1.4-1.59-5.107-2.643-4.989-2.624 5.47.868 5.374 2.167 5.374 2.119 0-.881-1.4-1.926-6.312-3.18-6.039-1.54-6.36-3.879-5.831-5.154.348-.839 2.072-1.978 4.193-2.117a6.962 6.962 0 0 0-.613 0c-3.639.1-4.456 1.624-4.456 1.624a7.778 7.778 0 0 0 5.261 6.807c5.026 1.692 6.413 1.951 7.264 4.373a6.715 6.715 0 0 1 .4 2.419s.745-3.518-.291-4.267z" fill="#c98f43" opacity=".32" style="mix-blend-mode:multiply;isolation:isolate"/></g></g><g data-name="Group 3281"><path data-name="Path 5925" d="M41.832 167.309c-3.514 2.141-4.056 3.609-2.5 4.3 2.044.9 3.879.705 3.367 2.225-.836 2.476-11.326 8.349-22.547 8.27-13.372-.091-15.134-6.946-12.477-10.692 2.139-3.008 9.031-8.689 22.391-10.787 8.036-1.262 14.338-.414 15.224.693 1.466 1.831 1.851 2.763-3.458 5.991z" opacity=".14"/><path data-name="Path 5926" d="M29.672 165.655l-2.658.17-.739-2.007 1.568-.041z" fill="#303030"/><path data-name="Path 5927" d="M38.973 130.373s-8.937 25.822-8.716 27.671 3.847 5.066 3.847 5.066a12.05 12.05 0 0 1-1.7 1.921c-.369.149-7.359-3.1-7.359-3.1s-3.215-.866-.629-4.584c1.184-1.7 3.513-12.2 3.513-12.2z" fill="#d1a180"/><g data-name="Group 3280"><path data-name="Path 5928" d="M27.184 160.949a3.969 3.969 0 0 1 1.552-1.852c1.195-.66 2.916-.571 2.942.07.073 1.736 5.24 4.175 8.488 6.805.946.767.519 2.037.471 2.538a6.6 6.6 0 0 1-2.482.7 11.146 11.146 0 0 1-4.138-.5 20.1 20.1 0 0 1-6.494-3.871s-.368-.233-.428.144c-.027.175-.106.736-.111.881l-3.716-1.459a.628.628 0 0 1-.328-.56c-.029-.57-.02-1.735 0-2.119.137-2.668.787-3.307.787-3.307a1.735 1.735 0 0 0 .807 1.494c.407.224 2.65 1.036 2.65 1.036z" fill="#383736"/></g><path data-name="Path 5929" d="M35.52 90.535s6.7 35.574 4.143 42.6c-1.184 3.254-1.633 2.9-2.171 4.241a117.856 117.856 0 0 0-5.323 16.27c-.316 2.752-6.705 1.381-7 .2 0 0 .716-14.026 3.92-20.927.254-.548.246-2.12.444-2.763.237-.772.748-.4.839-1.061.072-.526-.5-.5-.518-.738-.044-.705.7-1.528.444-2.293-4.142-12.2-10.451-34.34-10.451-34.34z" fill="#636363"/><path data-name="Path 5930" d="M38.155 169.21a6.6 6.6 0 0 0 2.482-.7c.021-.218.11-.591.13-1a10.277 10.277 0 0 1-5.934.453 28.283 28.283 0 0 1-7.026-3.273c-.843-.587-2.133-.684-3.11-1.1a4.952 4.952 0 0 1-1.774-1.108c0 .471 0 1.021.017 1.362a.628.628 0 0 0 .328.56l3.716 1.459c.005-.145.084-.706.111-.881.06-.377.428-.144.428-.144a20.1 20.1 0 0 0 6.494 3.871 11.146 11.146 0 0 0 4.138.501z" fill="#515151"/><path data-name="Path 5931" d="M34.978 127.66a144.4 144.4 0 0 0-5.373-15.728c-2.2-5.457-4.905-15.348-6.252-20.48l-3.442.262-.048.064c.409 1.249 6.413 22.44 10.432 34.28.258.765-.488 1.588-.444 2.293.016.241.59.581.518 1.11-.091.655-.6-.083-.839.689-.2.643-.19 2.215-.444 2.763-3.2 6.9-3.92 20.927-3.92 20.927.124.488 1.285 1.009 2.629 1.259 1.132-4.011 3.764-13.147 5.8-18.762.393-1.083.5-1.6-.346-2.219-.543-.392-.346-.442 1.626-.837s.888-1.083-.049-2.17c-.192-.225.792-.987.152-3.451z" fill="#636363" opacity=".24" style="mix-blend-mode:multiply;isolation:isolate"/><path data-name="Path 5932" d="M16.981 166.077s.034 5.561.2 8.516c.122 2.181 3.237 4.354 6.244 4.262a11.029 11.029 0 0 0 1.991-.321c1.109-.469 1.079-1.358.332-4.162-.429-1.609-1.408-4.714-1.91-6.385-.273-.906-.62-2.518-.672-2.54 0 0-.137-.285-1.079-.423a2.8 2.8 0 0 0-2.334.47c-.9.713-1.124 2.023-1.423 2.355-.211.234-.993-4.848-1.023-4.772-.043.109-.326 3-.326 3z" fill="#515151"/><path data-name="Path 5933" d="M22.21 129.089l.493 37.768-4.575 1.355s-3.414-18.8-1.442-35.165c.616-5.116 5.524-3.958 5.524-3.958z" fill="#d1a180"/><path data-name="Path 5934" d="M28.371 88.858c-.294 9.763-3.089 29.461-3.7 42.007-.123 2.577-.931 3.829-1.084 5.425a151.877 151.877 0 0 0 .1 22.777c.071 1.23-1.428 1.72-2.364 1.8-4.385.386-5.659-1.028-5.674-1.457.087-1.185-2.072-19.821-1.923-23.814.015-.448.591-3.746.3-4.045-.234-.231-.636-.62-.64-.963s.407-1.188.4-1.545c-.222-7.863-.426-17.235-.77-19.048a78.8 78.8 0 0 1-1.265-12.741c-.131-4.7 5.533-8.989 5.533-8.989z" fill="#636363"/><path data-name="Path 5935" d="M13.781 129.049c.011.357-.4 1.195-.4 1.545s.406.732.64.963a.3.3 0 0 1 .051.127.067.067 0 0 1 .005.025 28.13 28.13 0 0 1-.352 3.893c-.149 3.993 2.01 22.629 1.923 23.814.013.345.843 1.324 3.445 1.5.072 0 .147 0 .215.007.152-5.732-.4-20.86-1.047-23.047-.494-1.679 2.073-1 2.17-1.679.084-.6-.691-.2-1.678-1.774s-.3-3.3-.492-4.438c-.592-3.451-.444-10.751-1.43-19.23a87.818 87.818 0 0 1-.345-16.465l-4.391.716a7.7 7.7 0 0 0-.267 1.067c0 .037-.01.074-.016.113a5.013 5.013 0 0 0-.047.411c0 .047-.01.092-.012.141-.011.172-.017.347-.011.525a78.8 78.8 0 0 0 1.265 12.741c.348 1.806.552 11.178.774 19.045z" fill="#636363" opacity=".24" style="mix-blend-mode:multiply;isolation:isolate"/><path data-name="Path 5936" d="M24.231 88.119l-6.952.148s-5.16.705-5.029 5.4c.05 1.854-.479 5.778-.3 7.839a11.957 11.957 0 0 0 6.436 2.81c2.862.615 4.186 5.9 6.663 6.675-.514-4.218-.6-14.488-.818-22.872z" fill="#383736" opacity=".26" style="mix-blend-mode:multiply;isolation:isolate"/><path data-name="Path 5937" d="M22.235 165.587l.368-3.992s.592 3.955.592 5.028-.96.443-.96.443z" fill="#383736"/><path data-name="Path 5938" d="M50.264 94.849s-6.68-8.611-8.024-10.654c-.83-1.262-1.941-2.89-2.993-4.413a33.744 33.744 0 0 1-.237-6.014l-7.206 5.958a14.935 14.935 0 0 0 .487 3.732c2.3 4.6 13.86 15.022 13.86 15.022z" fill="#086b68"/><path data-name="Path 5939" d="M39.17 78.604c-.79-3.5 1.034-18.685.986-21.615-.1-6.161-4.042-10.383-8.53-10.582-2.078-.089-3.529.955-3.637 4.656-.108 3.722 2.519 22.285 2.9 27.766.491 7.22 8.689 1.583 8.281-.225z" fill="#086b68"/><path data-name="Path 5940" d="M50.264 94.849s-6.68-8.611-8.024-10.654c-.83-1.262-1.941-2.89-2.993-4.413a33.744 33.744 0 0 1-.237-6.014l-7.206 5.958a14.935 14.935 0 0 0 .487 3.732c2.3 4.6 13.86 15.022 13.86 15.022z" fill="#383736" opacity=".18" style="mix-blend-mode:multiply;isolation:isolate"/><path data-name="Path 5941" d="M40.156 57.767c-.132-8.237-4.009-10.381-8.53-10.582" fill="#383736" opacity=".18" style="mix-blend-mode:multiply;isolation:isolate"/><path data-name="Path 5942" d="M48.199 94.849c1.706.014 3.323 1.28 5.179 4.44a9.981 9.981 0 0 1 1.654 4.687c-.007.247-.878.862-1.268-.753a7.021 7.021 0 0 0-.772-1.622 19.371 19.371 0 0 1 .811 2.929c.059.694-.045.781-.277.95-.3.219-.792-.2-1.049-.909-.036-.1.337 1.128-.516 1.069-.269-.018-.475-.3-.93-1.525a6.709 6.709 0 0 0-.831-1.524c-.013.137.851 1.7.5 2.413-.227.455-.962.178-1.147-.632a7.659 7.659 0 0 0-.875-2.02c-.424-.743-1.335-1.979-1.886-2.737a6.125 6.125 0 0 1-.636-1.135 2.893 2.893 0 0 1 1.121-3.414 3.2 3.2 0 0 1 .922-.217z" fill="#d1a180"/><path data-name="Path 5943" d="M31.735 46.482c-1.272.055-8.933.193-13.868 3.319.035-.031.067-.061.1-.089-1.754 1.195-6.463 5.663-8.307 7.421-2.072 1.97-3.979 4.076-3.746 6.012.223 1.881 7.192 18.9 6.433 26.7-.738 7.617-.986 6.6-.986 6.6s3.944 1.973 11.439 1.284c.529-.106 2.816-.468 3.3-.642a35 35 0 0 0 8.333-4.587 2.881 2.881 0 0 0 1.182-2.464s.444-12.849 1.874-29.186c1.236-14.072-5.754-14.368-5.754-14.368z" fill="#fff"/><path data-name="Path 5944" d="M19.804 56.841c-1.424-2.465-2.656-4.5-2.876-6.329-2.143 1.751-5.716 5.143-7.267 6.621-2.072 1.97-3.979 4.076-3.746 6.012.051.435 2.8 8.574 3.771 11.81 1.184 4.142.193 7.2.1 9.645-.049 1.274.1 1.059.69 2.169.085 1.155-.4.651-.494 1.578-.738 7.618.864 11.9.864 11.9s-.222 2.733 7.47 3.255c4.77 1.366 4.549 4.767 7.026 5.545 1.6-11.434-2.959-17.461-.917-37.352.269-2.646-1.884-10.121-4.621-14.854z" fill="#086b68"/><path data-name="Path 5945" d="M25.674 47.592s4.979 3.218 6.243 12.793c.131.992.481 4.86.523 5.991.087 2.364.225 5.809.147 13.2-.121 11.6-.961 26.291-.961 26.291a7.271 7.271 0 0 0 3.644-2.424c.409-.583 1.9-2.376 1.783-3.563-.069-.7.008-3.036.008-3.036s-1.479-14.05-.887-20.632 1.923-22.114 0-25.739a7.8 7.8 0 0 0-5.177-4.142z" fill="#383736" opacity=".26" style="mix-blend-mode:multiply;isolation:isolate"/><path data-name="Path 5946" d="M27.583 52.522v-2.973l-.177-7.143s-7.935-1.248-9.283-.25v.987a6.25 6.25 0 0 0 .446 1.739 2.208 2.208 0 0 0 .926.888c.2.783.3 1.043.495 1.711.326 1.134.629 1.363 2.058 2.292a21.721 21.721 0 0 0 3.609 1.989 12.271 12.271 0 0 1 .122 2.682 5.8 5.8 0 0 0 1.804-1.922z" fill="#dbb397" opacity=".36" style="mix-blend-mode:multiply;isolation:isolate"/><path data-name="Path 5947" d="M17.941 49.587s-.445-.48-.889.446a11.544 11.544 0 0 1-1.627 2.031l.62 9.833s3.254-3.141 3.77-2.4a46.35 46.35 0 0 1 3.339 5.551s-5.19-13.799-5.213-15.461z" fill="#383736" opacity=".26" style="mix-blend-mode:multiply;isolation:isolate"/><path data-name="Path 5948" d="M26.153 46.594s3.587.96 5.14 2.883 4.77 6.841 4.77 6.841-2.44-1.518-2.624-.777-.852 4.956-.852 4.956-1.81-6.878-3.772-8.985a8.306 8.306 0 0 0-5.251-2.626z" fill="#383736" opacity=".26" style="mix-blend-mode:multiply;isolation:isolate"/><path data-name="Path 5949" d="M26.302 47.592s4.979 3.218 6.245 12.793c.13.992.48 4.86.522 5.991.087 2.364.226 5.809.146 13.2-.12 11.6-.775 25.255-.775 25.255s1.379-.245 3.1-2.665c1.48-2.068 1.335-3.152 1.85-3.62a5.491 5.491 0 0 0 1.439-1.994s-1.021-13.729-.651-20.236c.376-6.6.542-22.218-1.38-25.843a7.8 7.8 0 0 0-5.177-4.142z" fill="#086b68"/><path data-name="Path 5950" d="M26.041 46.112s3.587.962 5.14 2.886 4.772 6.84 4.772 6.84-2.441-1.517-2.627-.778-.849 4.957-.849 4.957-1.812-6.878-3.772-8.987a8.307 8.307 0 0 0-5.25-2.623z" fill="#086b68"/><path data-name="Path 5951" d="M18.117 40.22a43.471 43.471 0 0 1 .038 10.576 4.819 4.819 0 0 0 4.3 4.34 5.081 5.081 0 0 0 5.128-2.614V42.364s-9.731-4.196-9.466-2.144z" fill="#efbe9e"/><path data-name="Path 5952" d="M22.295 54.937s-.037-1.971-.037-3.155c0-1.134 3.846-.641 4.241-1.183l1.084-8.235s-9.731-4.2-9.466-2.144a43.471 43.471 0 0 1 .038 10.576 4.815 4.815 0 0 0 4.157 4.309 2.32 2.32 0 0 1-.017-.168z" fill="#461600" opacity=".18" style="mix-blend-mode:multiply;isolation:isolate"/><path data-name="Path 5953" d="M31.641 32.568l-1.91-1.886-11.843 2.867 1.816 10.878c.2.783.265 1.814.457 2.482.328 1.134.754 1.371 1.757 1.923a29.5 29.5 0 0 0 4.634 1.964c1.093.389 3.419-.425 3.734-1.256.554-1.457.812-2.3 1.3-7.28.091-.91-.2-1.625-.059-2.2a10.507 10.507 0 0 0 .594-2.436c-.196-1.958-.48-5.056-.48-5.056z" fill="#efbe9e"/><path data-name="Path 5954" d="M31.641 32.568l-1.91-1.886c-6.557-.176-5.119-.225-7.21.108 0 0-1.777 1.386-2.33 1.7-.517.3-.912 1.677-.763 1.6a3.977 3.977 0 0 1 2.478-.185c2.4.776 6.239 2.75 7.949 1.959.641-.295 1.751-1.035 1.85-1.774a9.419 9.419 0 0 0-.064-1.522z" fill="#6d4827" opacity=".25" style="mix-blend-mode:multiply;isolation:isolate"/><path data-name="Path 5955" d="M21.296 31.641l-3.412 1.908L19.7 44.427c.2.783.265 1.814.457 2.482.328 1.134.754 1.371 1.757 1.923a25.538 25.538 0 0 0 3.55 1.571c-.4-.346-.431-1.872-.531-2.677a34.408 34.408 0 0 0-1.246-4.754 17.587 17.587 0 0 1 .238-2.91c.073-.813-.832-1.721-.78-4.155a5.874 5.874 0 0 1 2.5-4.875c.044-.015-4.377.664-4.349.609z" fill="#461600" opacity=".13" style="mix-blend-mode:multiply;isolation:isolate"/><path data-name="Path 5956" d="M29.113 33.465a4.372 4.372 0 0 1-1.628 2.959 9.048 9.048 0 0 1-3.366 1.109s3.44-.11 5.029-1.4a3.094 3.094 0 0 0 1.442-2.515z" fill="#6d4827" opacity=".17" style="mix-blend-mode:multiply;isolation:isolate"/><path data-name="Path 5957" d="M31.367 31.839a10.266 10.266 0 0 1 1.069-2.136c-.2-.106-.408-.221-.617-.34a1.925 1.925 0 0 0-.859.665 6.9 6.9 0 0 1 .295-1c-.013 0-.656-.343-1.617-.735a1.523 1.523 0 0 0-.545.5s.055-.277.17-.646a13.052 13.052 0 0 0-5.049-1.048 14.279 14.279 0 0 0-8.831 4.009 6.37 6.37 0 0 1 .182.749 1.412 1.412 0 0 0-.458-.46 6.4 6.4 0 0 0-1.019 1.355 10.043 10.043 0 0 1 .862 1.9 3.841 3.841 0 0 0-.953-.839 31.447 31.447 0 0 1 2.616 6.976 48.984 48.984 0 0 1 1.85 6.412l.1-4.536c-.093-.138 2.022-.977 2.021-1.051l-.318-5.827a1.691 1.691 0 0 1 1.861-1.874c1.332.222 3.054 1.059 4.795 1.43a5.186 5.186 0 0 0 4.783-1.393 4.014 4.014 0 0 1 1.738-3.549.035.035 0 0 0 .015-.039 5.68 5.68 0 0 0-2.091 1.477z" fill="#383736"/><path data-name="Path 5958" d="M28.779 33.171a4.36 4.36 0 0 1-1.627 2.957 9.091 9.091 0 0 1-3.365 1.111s3.438-.114 5.028-1.406a3.09 3.09 0 0 0 1.442-2.514z" fill="#383736"/><path data-name="Path 5959" d="M25.562 33.443l-.889-.2-.937-1.184s-.1 1.085-.343 1.036-.642-1.577-.642-1.577l-1.478-.346.049 1.332-.64-1.577-.2 1.181-.79-1.231a13.167 13.167 0 0 0-1.824-.048l-.643 1.479-.542-1.331-.345 2.317-.689-.889s.146.939-.147 1.184c-.145.118-.685-.519-1.2-1.205a3.846 3.846 0 0 0-.217.362 10.043 10.043 0 0 1 .862 1.9 3.841 3.841 0 0 0-.953-.839 31.447 31.447 0 0 1 2.616 6.976 48.984 48.984 0 0 1 1.85 6.412l.1-4.536c-.093-.138 2.022-.977 2.021-1.051l-.318-5.827a1.691 1.691 0 0 1 1.861-1.874c1.332.222 3.054 1.059 4.795 1.43a5.789 5.789 0 0 0 1.493.092l-.04-.018a8.547 8.547 0 0 1-2.81-1.968z" fill="#6d4827" opacity=".25" style="mix-blend-mode:multiply;isolation:isolate"/><path data-name="Path 5960" d="M18.018 39.087c.788-.346 2.958 2.931 3.255 3.623.224 1.7-.938 2.318-2.071 1.922a3.279 3.279 0 0 1-1.677-1.872c-.839-1.727-.509-3.235.493-3.673z" fill="#efbe9e"/><path data-name="Path 5961" d="M18.056 39.087c.788-.346 2.92 2.931 3.217 3.623.224 1.7-.938 2.318-2.071 1.922a3.279 3.279 0 0 1-1.677-1.872c-.839-1.727-.474-3.235.531-3.673z" fill="#461600" opacity=".13" style="mix-blend-mode:multiply;isolation:isolate"/><path data-name="Path 5962" d="M18.103 91.267c.058-.237.891-.357 1.069-1.19.046-.212-.488-.29-.831-1.424-.126-.408.712-1.663.179-2.97-.987-2.414-.246-5.257-.749-7.128a121.987 121.987 0 0 0-7-18.638l-3.014-.823c-1.182 1.365-2 2.747-1.842 4.051.051.435 2.8 8.574 3.771 11.81 1.184 4.142.193 7.2.1 9.645-.049 1.274.1 1.059.69 2.169.085 1.155-.4.651-.494 1.578-.738 7.618.864 11.9.864 11.9s1.238 2.72 8.246 3.439c-.235-3.422.379-9.866-.037-11.172-.173-.534-1.026-.946-.952-1.247z" fill="#383736" opacity=".18" style="mix-blend-mode:multiply;isolation:isolate"/><path data-name="Path 5963" d="M15.405 101.678a14.092 14.092 0 0 1 2.761 2.415 3.086 3.086 0 0 0 1.036.889l-4.415 3.388s-2.537-2.255-2.636-4.03C12.127 103.895-.717 90.535.91 84.323c.1-.378 6.366-.289 6.458.1.373 1.552 8.037 17.255 8.037 17.255z" fill="#efbe9e"/><path data-name="Path 5964" d="M14.223 103.895c-.025-.438-12.584-13.513-11.281-19.806a4.889 4.889 0 0 0-2.032.234c-1.627 6.212 11.217 19.572 11.241 20.017.1 1.775 2.636 4.03 2.636 4.03l1.418-1.086c-.764-.8-1.916-2.2-1.982-3.389z" fill="#461600" opacity=".13" style="mix-blend-mode:multiply;isolation:isolate"/><path data-name="Path 5965" d="M7.886 83.484c1.11-1.644 4.246-8.937 8.137-13.246 1.665-1.839-3.2-12.531-6.354-12.236-2.752.258-4.158 4.092-5.752 9.557-1.38 4.732-3.1 12.908-2.885 16.838.149 2.661 5.13 1.645 6.854-.913z" fill="#086b68"/><path data-name="Path 5966" d="M9.441 79.289l3.365 11.047 3.4 11.145s-3.418 4.123-4.289 3.352-9.664-9.737-10.4-15.091a34.993 34.993 0 0 1-.013-10.85z" fill="#086b68"/><path data-name="Path 5967" d="M6.041 67.21c1.545-6.713 3.445-9.148 3.4-9.146a3.674 3.674 0 0 0-2.209 1.447 15.8 15.8 0 0 0-2.16 4.387 71.008 71.008 0 0 0-1.153 3.657c-1.38 4.732-3.1 12.908-2.885 16.838a1.452 1.452 0 0 0 .482 1 5.761 5.761 0 0 0 1.974.711c.043 0 .082 0 .124.007a7.872 7.872 0 0 1-.237-.615c-.079-.243 3.2-2.193 2.86-2.193s-2.409-.42-2.391-.666c.037-.507 2.68.067 2.809-.565.1-.483-3.441.108-2.77-1.4 2.156-4.85.666-6.974 2.156-13.462z" fill="#383736" opacity=".15" style="mix-blend-mode:multiply;isolation:isolate"/><path data-name="Path 5968" d="M1.059 82.373a5.72 5.72 0 0 0 3.278 1.014 6.686 6.686 0 0 0 3.7-1.036s.475.334.074 1.257c-.492 1.135.05 1.678.05 1.678s.518.712-1.529 1.379a11.829 11.829 0 0 1-4.561.492s-2.957.173-1.8-2.243c.443-.924-.742-2.242.788-2.541z" fill="#086b68"/><path data-name="Path 5969" d="M2.414 86.139c.024-.222.757-.423 1.276-.569.283-.083-.3-.224-.647-.408-.615-.326.406-.371 1.713-.544s-1.176-.617-2.361-1.083a1.977 1.977 0 0 1-1.058-.973 2.935 2.935 0 0 1-.278-.189c-1.53.3-.345 1.617-.79 2.541-1.158 2.416 1.8 2.243 1.8 2.243a11.829 11.829 0 0 0 4.561-.492c.082-.028.153-.053.227-.081-1.687.218-4.476-.152-4.443-.445z" fill="#383736" opacity=".26" style="mix-blend-mode:multiply;isolation:isolate"/><path data-name="Path 5970" d="M13.802 108.235s1.526-1 3-2.071a27.37 27.37 0 0 1 2.292-1.553l1.368 1.479a23.072 23.072 0 0 1-5.657 3.511c-.338.148-1.003-1.366-1.003-1.366z" fill="#636363"/><path data-name="Path 5971" d="M16.883 164.971s.031 5.561.2 8.517c.123 2.178 3.233 4.354 6.241 4.263a11.071 11.071 0 0 0 1.994-.321c1.108-.47 1.077-1.359.33-4.163-.428-1.612-1.406-4.713-1.911-6.387-.27-.905-.619-2.516-.673-2.538 0 0-.137-.285-1.078-.423a2.785 2.785 0 0 0-2.332.47c-.9.711-1.124 2.023-1.423 2.355-.212.234-1-5.142-1.025-5.064-.021.05-.1-.042-.223.726a19.6 19.6 0 0 0-.1 2.565z" fill="#383736"/><path data-name="Path 5972" d="M18.4 48.022s-.566-.507-1.01.417c-.355.74-2 3.034-2 3.034l.834 8.878s3.253-3.144 3.771-2.4a25.261 25.261 0 0 1 3.124 7.058S18.417 49.687 18.4 48.022z" fill="#086b68"/><path data-name="Path 5973" d="M31.181 48.998c-.077-.1-.163-.187-.249-.277a2.913 2.913 0 0 1-.745 1.125q-.393.3-.787.608c-.317.147-.61.267-.9.373.068.068.137.131.2.2 1.96 2.108 3.772 8.986 3.772 8.986s.666-4.218.849-4.957 2.627.778 2.627.778-3.207-4.915-4.767-6.836z" fill="#383736" opacity=".18" style="mix-blend-mode:multiply;isolation:isolate"/><path data-name="Path 5974" d="M18.4 48.022s-.566-.507-1.01.417c-.355.74-2 3.034-2 3.034l.834 8.878s3.253-3.144 3.771-2.4a25.261 25.261 0 0 1 3.124 7.058S18.417 49.687 18.4 48.022z" fill="#383736" opacity=".18" style="mix-blend-mode:multiply;isolation:isolate"/></g><g data-name="Group 3287"><g data-name="Group 3284"><g data-name="Group 3283"><path data-name="Path 5975" d="M155.391 136.128l2.422.725 1.109-1.694-1.438-.375z" fill="#141011"/><g data-name="Group 3282"><path data-name="Path 5976" d="M155.765 127.884s-.448 1.425-.876 2.492c-.28.7-5.985 4.118-9.692 5.522-.328.127-.411.927-.411 1.774a5.579 5.579 0 0 0 2.254.827 12.845 12.845 0 0 0 3.781.014 20.269 20.269 0 0 0 6.6-2.689s.374-.177.387.187c0 .167.009.706 0 .841l3.9-1.52a12.714 12.714 0 0 0 .4-1.892 32.4 32.4 0 0 0-.3-5.871z" fill="#172833"/></g><path data-name="Path 5977" d="M155.153 62.608s-.124 26.756-.03 37.792c.069 8.4-.447 29.241-.514 29.554-.6 2.773 6.689.936 8 0 0 0 1.153-12.589 1.613-21.508.068-1.3.433-6.246.492-7.154.656-10.291 3.807-41.253 3.807-41.253s-5.546-.646-7.916-.744c-4.754-.194-5.452 3.313-5.452 3.313z" fill="#6b5d46"/><path data-name="Path 5978" d="M164.219 108.449c-.46 8.919-1.613 21.508-1.613 21.508a10.648 10.648 0 0 1-3.092 1.1c.081-.578.144-1 .166-1.1.067-.313.583-21.154.514-29.554-.095-11.036 1.888-37.433 1.888-37.433s-.2.31 2.589-.432c2.087.194 3.147-2.576 3.71-2.511.021 0 .046 0 .061.006s.019 0 .025 0h.051s-3.151 30.962-3.807 41.253c-.059.914-.424 5.863-.492 7.163z" fill="#545556" opacity=".18" style="mix-blend-mode:multiply;isolation:isolate"/><path data-name="Path 5979" d="M174.393 131.217s.654 6.316.749 9.12c.067 2.07-2.339 4.43-5.19 4.6a13.464 13.464 0 0 1-1.547-.034c-1.028 0-1.5-1.295-1.028-4.009.414-2.4 1.615-10.313 1.753-10.382z" fill="#515151"/><path data-name="Path 5980" d="M174.393 130.249s.654 6.316.749 9.12c.067 2.07-2.339 4.43-5.19 4.6a13.34 13.34 0 0 1-1.547-.034c-1.028 0-1.5-1.295-1.028-4.009.414-2.4 1.615-10.313 1.753-10.382z" fill="#172833"/><path data-name="Path 5981" d="M162.232 61.121c.654 5.893 3.6 36.287 4.443 45.363.907 9.772.7 27.889.7 27.889-.071 1.193 2.806 2.784 2.806 2.784 4.173-.161 5.691-2.2 5.706-2.619 0 0 .037-1.482.467-13.562.258-7.205-.577-16.81-.56-17.3.281-8.419.733-28.542.7-30.489a27.576 27.576 0 0 0-1.543-9.682c-1.4-4.956-6.072-5.15-8.285-4.638a22.28 22.28 0 0 0-4.434 2.254z" fill="#494a4b"/><path data-name="Path 5982" d="M160.571 59.299c.189 1.692-.138 8.3.324 12.946.1 1 2.567.976 2.674 2.057a7324.378 7324.378 0 0 1 3.106 32.182c.907 9.772.7 27.889.7 27.889-.071 1.193 2.806 2.784 2.806 2.784 4.173-.161 5.691-2.2 5.706-2.619 0 0 .037-1.482.467-13.562.258-7.205-.577-16.81-.56-17.3.281-8.419.733-28.542.7-30.489-.092-5.893-.571-7.767-1.2-9.645-1.511-4.532-6.418-5.187-8.631-4.675a52.161 52.161 0 0 1-6.092.432z" fill="#6b5d46"/><path data-name="Path 5983" d="M175.835 134.708a1.347 1.347 0 0 1-.09.162l-.016.025a2.391 2.391 0 0 1-.186.243l-.01.01a3.516 3.516 0 0 1-.263.271l-.012.011a5.142 5.142 0 0 1-.817.6l-.011.009a6.983 6.983 0 0 1-1.2.559.065.065 0 0 0-.017.007c-.314-9.115.571-21.424-.723-28.9-.172-.989-1.2-5.136-1.223-6.33-.222-9.574.951-25.4.5-35.89a14.175 14.175 0 0 0-1.979-6.694 6.975 6.975 0 0 1 5.5 5.04c.538 1.905 1.1 3.464 1.2 9.357.032 1.947-.42 22.07-.7 30.489-.017.49.818 10.095.56 17.3-.43 12.08-.467 13.562-.467 13.562a.437.437 0 0 1-.036.128c.003.012-.004.026-.01.041z" fill="#373737" opacity=".33" style="mix-blend-mode:multiply;isolation:isolate"/></g><path data-name="Path 5984" d="M144.786 137.672a4.672 4.672 0 0 1 .025-.489c.405.391 2.239.79 4.024.892 2.859.161 7.129-1.681 8.033-2.243.674-.418 1.013-.175 1.013-.175l4.138-1.6c-.118.607-.3 1.271-.311 1.28l-3.9 1.52c.009-.135 0-.674 0-.841-.013-.364-.387-.187-.387-.187a20.269 20.269 0 0 1-6.6 2.689 12.845 12.845 0 0 1-3.781-.014 5.579 5.579 0 0 1-2.254-.832z" fill="#515151"/></g><g data-name="Group 3286"><path data-name="Path 5985" d="M145.741 38.913c.52-2.793 3.551-10.957 5.145-14.568 1.8-4.074 3.975-5.7 6.8-5.765 1.972-.049 4.681.8 4.784 4.312.1 3.53-2.606 10.01-3.965 15.04-2.88 10.696-13.884 7.017-12.764.981z" fill="#bbdbea"/><path data-name="Path 5986" d="M180.141 27.236s-1.487-2.164-9.566-6.563c-2.507-1.365-12.345-2.093-12.345-2.093-3.719.2-5.323 5.2-5.207 13.931a262.772 262.772 0 0 0 1.623 26.713 2.017 2.017 0 0 0 .676 2.435 42.884 42.884 0 0 0 8.94 4.9c4.9 1.748 12.083-.3 12.971-1.516.523-.716-.811-7.169-.811-10.753 0-4.466 5.189-16.859 6.29-22.317.343-1.691-2.571-4.737-2.571-4.737z" fill="#cee8f6"/><path data-name="Path 5987" d="M160.615 64.828a11.237 11.237 0 0 1-.433-1.892 101.5 101.5 0 0 1 1.075-17.083l-.071-.57.247-.123a114.324 114.324 0 0 0-1.025 17.9 9.12 9.12 0 0 0 .387 1.863z" fill="#141413" opacity=".22"/><path data-name="Path 5988" d="M157.67 42.843a20.739 20.739 0 0 1 2.717 1.208c.032.411.064.821.1 1.239v.007a3.375 3.375 0 0 1 .352-1c4.572 2.518 8.466 6.3 8.758 5.844 3.51-5.474 7.579-16.839 7.579-16.839 1.047-1.6 3.1 1.184 4.823.813-1.042 4.174-1.789 4.1-3.947 12.825a30.313 30.313 0 0 0-1.625 7.345 64.772 64.772 0 0 0 .644 6.8c.1 1.04.193 2.078.285 3.084a1.759 1.759 0 0 1-.118.865c-.661.907-4.809 2.268-8.905 2.187.992-.429 1.341-.412 1.331-1.172-.042-2.84-1.439-6.846-1.449-9.462 0-.4-6.147-3.555-10.543-8a29.129 29.129 0 0 0-3.808-.1 209.74 209.74 0 0 1-.484-6.446 14.618 14.618 0 0 1 4.29.802z" fill="#383736" opacity=".21" style="mix-blend-mode:multiply;isolation:isolate"/><path data-name="Path 5989" d="M163.095 30.473l-.112-3.293 1.573-1.266.806.157.609 1.9-1.659 2.177a2.416 2.416 0 0 0-.422.959 101.512 101.512 0 0 0-2.257 23.374 32.323 32.323 0 0 1-2.026 4.5 49.517 49.517 0 0 1-1.1-5.729c1.472-17.186 4.65-22.412 4.588-22.779z" fill="#bf4c4c"/><path data-name="Path 5990" d="M172.086 12.43c0 1.076-.244 10.349-.244 10.349s-.769 2.888-4.683 3.525c-3.3.536-4.578-2.682-4.578-2.682l.281-8.982s9.224-4.172 9.224-2.21z" fill="#965738"/><path data-name="Path 5991" d="M165.035 25.918c.142.175-.089.414-.349.736l-2.562 2.21c-.245.194-.449.417-.422-.244l.523-5.755c.236-2.5 1.325-2.687 1.325-2.687a11.659 11.659 0 0 0-.042 1.374 8.419 8.419 0 0 0 1.527 4.366z" fill="#fff"/><path data-name="Path 5992" d="M162.908 21.936l-.046-7.3s9.224-4.172 9.224-2.21c0 1.076-.244 10.349-.244 10.349a5.1 5.1 0 0 1-2.942 3.021l.088-2.741s.3-1.885-1.168-1.217a5.607 5.607 0 0 1-4.912.098z" fill="#dbb397" opacity=".36" style="mix-blend-mode:multiply;isolation:isolate"/><path data-name="Path 5993" d="M161.77 3.181l1.846.28 8.511 2.307-1.455 10.281c-.174.742-.185 1.432-.351 2.066-.283 1.073-.677 1.308-1.611 1.85a36.162 36.162 0 0 1-4.852 1.949c-1.323.383-3.423-.542-3.619-1.6-.332-1.8-1.2-4.041-1.2-6.777 0-.89.629-1.052.647-1.618a9.407 9.407 0 0 0-.79-1.529c-.48-.956.268-3.353.338-5.373.048-1.179 2.536-1.836 2.536-1.836z" fill="#965738"/><path data-name="Path 5994" d="M172.075 6.149l-1.4 9.9c-.174.742-.185 1.432-.351 2.066-.283 1.073-.677 1.308-1.611 1.85a40.383 40.383 0 0 1-4.366 1.791 3.225 3.225 0 0 0 .93-1.838 24.822 24.822 0 0 1 .89-2.983c.083-.442 1.511-1.439 1.727-3.31a3.84 3.84 0 0 0-.288-2.085c-.1-.243 1.693-4.219.432-4.963-1.3-.765-4.854 1.295-5.97 1.295a2.978 2.978 0 0 1-2.8-1.812l11.446-.676z" fill="#6d4827" opacity=".17" style="mix-blend-mode:multiply;isolation:isolate"/><path data-name="Path 5995" d="M171.933 19.364a3.7 3.7 0 0 1-.607 2.393c-1.45 2.05-6.08 4.144-6.08 4.144-.332.175-.332.28-.262.912l.364 3.419c.034.817.461.76.805.445 0 0 3.43-2.627 4.4-3.519 2.286-2.1 2.316-3.4 2.222-4.286a29.227 29.227 0 0 0-.842-3.508z" fill="#fff"/><path data-name="Path 5996" d="M165.387 41.44c-4.138-1.6-11.078-2.955-15.224-3.719a9.773 9.773 0 0 0-3.929-.14s-2.385 4.7-.28 6.384c3.1 2.482 18.4 3.6 18.4 3.6a5.263 5.263 0 0 0 1.777-2.758c.31-1.027-.137-3.134-.744-3.367z" fill="#cee8f6"/><path data-name="Path 5997" d="M159.727 41.673a36.7 36.7 0 0 0-4.442-4.677c-1.081-.9-4.631.14-4.631.14s-1.006.257-.656.609a7.2 7.2 0 0 1 1.745.806c.844.657 1.531 2.28 3.12 2.7.376.1 2.573 1.964 2.854 2.011 1.33.223 2.01-1.589 2.01-1.589z" fill="#965738"/><path data-name="Path 5998" d="M165.527 42.281a35.237 35.237 0 0 1 5.683.211c1.542.351.912 1.262.912 1.262l-2.315 3.3-5.121-2.033a2.272 2.272 0 0 1 .841-2.74z" fill="#965738"/><path data-name="Path 5999" d="M158.324 39.334s6.313 4.491 10.5 6.246c.7.292 1.332.491 1.893-1.053 2.229-6.13 6.054-16.543 9.058-16.419 2.619.107 3.966 4.635 2.447 9.194a71.97 71.97 0 0 1-6.313 14.193c-3.009 4.739-6.021 3.812-7.3 3.134a45.651 45.651 0 0 1-13.658-11.692c-.287-.334.942-3.93 3.373-3.603z" fill="#dcf0f9"/><path data-name="Path 6000" d="M166.159 52.524c1.275.679 4.287 1.6 7.3-3.132 2.2-3.463 4.194-9.328 5.878-14.378.889-2.667 1.42-4.666 2.1-4.735 1.15.339 2.306 2.481.794 7.023a71.97 71.97 0 0 1-6.313 14.193c-3.009 4.739-6.021 3.812-7.3 3.134a40.391 40.391 0 0 1-8.417-6.038 38.852 38.852 0 0 0 5.958 3.933z" fill="#383736" opacity=".19" style="mix-blend-mode:multiply;isolation:isolate"/><path data-name="Path 6001" d="M160.195 2.837c-1.56 1.588-1.171 2.557-.538 3.363 2.049 2.607 4.971.324 5.5.089 1.295-.575 3.38-.791 4.171.216.505.642.279 1.877-.5 3.6a2.478 2.478 0 0 0 .872 3.408c.74.052.977-.076 1.186-.593 0 0 .316-.331.569-.118a1.814 1.814 0 0 1 .315 2.141l.168 3.494a37.087 37.087 0 0 0 3.367-8.683c.731-3.874-1.6-11.072-9.82-9.54a12.2 12.2 0 0 0-5.29 2.623z" fill="#190e03"/><g data-name="Group 3285"><path data-name="Path 6002" d="M172.303 11.318c-1.634-.524-2.062 1.42-2.8 2.43-.581 3.267.8 2.96 1.612 2.227a12.718 12.718 0 0 0 2-1.728 2.083 2.083 0 0 0-.812-2.929z" fill="#965738"/><path data-name="Path 6003" d="M172.816 12.323s-.9-1.313-1.565-.3c-.522.8-1.154 1.647-1.154 1.647s.591.373.358.6-.446.529-.181.669c.62.327 1.188-.354 1.252-.606.179-.719-.512-.559-.632-.824-.158-.348.405-.671.6-1.345.135-.449 1.13.022 1.322.159z" fill="#6d4224" opacity=".36" style="mix-blend-mode:multiply;isolation:isolate"/></g></g></g></g></svg>