<svg xmlns="http://www.w3.org/2000/svg" width="193.829" height="217.347" viewBox="0 0 193.829 217.347"><defs><clipPath id="a"><path data-name="Path 7295" d="M305.722 6230.022a8.039 8.039 0 0 1 3.644-6.3 8.039 8.039 0 0 0-3.644 6.3z" fill="none"/></clipPath><clipPath id="b"><path data-name="Path 7304" d="M287.342 6230.45a1.223 1.223 0 0 1-.326.26 1.223 1.223 0 0 0 .326-.26z" fill="none"/></clipPath><clipPath id="c"><path data-name="Path 7306" d="M287.016 6230.71c-.313.186-.608.149-.743-.128.135.277.427.318.743.128z" fill="none"/></clipPath><clipPath id="d"><path data-name="Path 7309" d="M328.689 6202.873a1.8 1.8 0 0 1-.792 1.211 1.8 1.8 0 0 0 .792-1.211z" fill="none"/></clipPath><clipPath id="e"><path data-name="Path 7311" d="M327.9 6204.084a1.136 1.136 0 0 1-.158.072 1.136 1.136 0 0 0 .158-.072z" fill="none"/></clipPath></defs><g data-name="Group 10012"><g data-name="Group 4067" fill-rule="evenodd"><path data-name="Path 7094" d="M173.119 117.3c-6.251 0-11.319 2.936-11.319 6.557s5.068 6.556 11.319 6.556 11.319-2.935 11.319-6.556-5.068-6.557-11.319-6.557z" fill="#77749a"/><g data-name="Group 4065"><path data-name="Path 7095" d="M160.132 103.351c.55-.008 23.648-.077 25.766-.071-.005.477-.072.986-.115 1.462a46.442 46.442 0 0 1-.985 6.346l-.012.048a27.021 27.021 0 0 1-5.355 11.235 16.437 16.437 0 0 1-3.079 3 7.12 7.12 0 0 1-6.46.064 3.762 3.762 0 0 1-.621-.43 23.555 23.555 0 0 1-3.654-4.016 28.044 28.044 0 0 1-4.4-10.1 53.164 53.164 0 0 1-1.085-7.538z" fill="#cfe0e8"/><path data-name="Path 7096" d="M173.018 96.053c-6.825 0-12.357 3.121-12.357 6.971s5.532 6.971 12.357 6.971 12.357-3.121 12.357-6.971-5.533-6.971-12.357-6.971z" fill="#c4d9e3"/><path data-name="Path 7097" d="M173.018 97.958c-6.624 0-11.994 3.029-11.994 6.766 0 1.824 4.343 5.031 12.029 5.385s11.71-3.774 11.958-5.385c-.003-3.742-5.369-6.766-11.993-6.766z" fill="#000e12"/><path data-name="Path 7098" d="M173.018 95.737c-7.12 0-12.892 3.343-12.892 7.467s5.772 7.468 12.892 7.468 12.892-3.343 12.892-7.468-5.772-7.467-12.892-7.467zm0 .52c6.624 0 11.993 3.03 11.993 6.767s-5.369 6.766-11.993 6.766-11.994-3.029-11.994-6.766 5.37-6.767 11.994-6.767z" fill="#fafeff"/></g><path data-name="Path 7099" d="M171.714 105.287c.033.4.6.719 1.3.719s1.271-.318 1.3-.719V83.513c-.02-.138-.21-.723-1.306-.746-.506-.011-1.264.26-1.306.746v21.737z" fill="#301a1a"/><g data-name="Group 4066"><path data-name="Path 7100" d="M173.018 57.715a20.811 20.811 0 1 0 20.811 20.81 20.811 20.811 0 0 0-20.811-20.81z" fill="#066e3e"/><path data-name="Path 7101" d="M152.723 83.145a20.812 20.812 0 1 0 34.544-19.785 20.812 20.812 0 0 1-34.544 19.785z" fill="#03542e"/><path data-name="Path 7102" d="M173.294 67.823c-9.583 1.3-18.061 3.375-19.463 13.866-2.444-16.209 11.163-23.137 19.2-22.98 4.861.095 7.224 1.577 7.64 3.282 1.165 4.791-4.28 5.414-7.377 5.832z" fill="#088048"/></g></g><g data-name="Group 4451"><g data-name="Group 4097"><path data-name="Path 7146" d="M60.152 212.558a2.266 2.266 0 0 0-.009 3.892 6.333 6.333 0 0 0 6.51-.007l84.15-50.841a1.912 1.912 0 0 0-.092-3.324 6.007 6.007 0 0 0-5.88.136z" fill="#414042" opacity=".2" style="mix-blend-mode:multiply;isolation:isolate"/></g><g data-name="Group 4104"><g data-name="Group 4103" style="isolation:isolate"><g data-name="Group 4100"><g data-name="Group 4099"><g data-name="Group 4098"><path data-name="Path 7147" d="M77.736 209.063l-.012 1.993a3.752 3.752 0 0 1-2.182 3.058 11.74 11.74 0 0 1-10.619 0 3.767 3.767 0 0 1-2.217-3.1l.009-1.992a3.762 3.762 0 0 0 2.217 3.1 11.734 11.734 0 0 0 10.622 0 3.727 3.727 0 0 0 2.182-3.051z" fill="#98a6a8"/></g></g></g><g data-name="Group 4102"><g data-name="Group 4101"><path data-name="Path 7148" d="M75.516 205.967c2.944 1.7 2.96 4.449.038 6.147a11.734 11.734 0 0 1-10.622 0c-2.943-1.7-2.956-4.452-.035-6.147a11.668 11.668 0 0 1 10.619 0z" fill="#d7e1e2"/></g></g></g></g><g data-name="Group 4111"><g data-name="Group 4110" style="isolation:isolate"><g data-name="Group 4107"><g data-name="Group 4106"><g data-name="Group 4105"><path data-name="Path 7149" d="M148.057 167.243l-.011 1.991a3.733 3.733 0 0 1-2.18 3.054 11.7 11.7 0 0 1-10.62 0 3.746 3.746 0 0 1-2.22-3.1l.011-1.986a3.763 3.763 0 0 0 2.219 3.1 11.725 11.725 0 0 0 10.615 0 3.738 3.738 0 0 0 2.186-3.059z" fill="#98a6a8"/></g></g></g><g data-name="Group 4109"><g data-name="Group 4108"><path data-name="Path 7150" d="M145.838 164.145c2.946 1.7 2.96 4.453.033 6.157a11.725 11.725 0 0 1-10.615 0c-2.946-1.7-2.958-4.456-.035-6.157a11.675 11.675 0 0 1 10.617 0z" fill="#d7e1e2"/></g></g></g></g><g data-name="Group 4118"><g data-name="Group 4117" style="isolation:isolate"><g data-name="Group 4114"><g data-name="Group 4113"><g data-name="Group 4112" style="isolation:isolate"><path data-name="Path 7151" d="M73.008 134.931l-.067 73.206a1.375 1.375 0 0 1-.8 1.126 4.3 4.3 0 0 1-3.886 0 1.387 1.387 0 0 1-.814-1.137l.067-73.208a1.375 1.375 0 0 0 .816 1.133 4.279 4.279 0 0 0 3.883 0 1.357 1.357 0 0 0 .8-1.12z" fill="#98a6a8"/></g></g></g><g data-name="Group 4116"><g data-name="Group 4115"><path data-name="Path 7152" d="M72.2 156.769a1.194 1.194 0 0 1 .006 2.258 4.315 4.315 0 0 1-3.883 0 1.194 1.194 0 0 1-.02-2.258 4.284 4.284 0 0 1 3.897 0z" fill="#273545"/></g></g></g></g><g data-name="Group 4125"><g data-name="Group 4124" style="isolation:isolate"><g data-name="Group 4121"><g data-name="Group 4120"><g data-name="Group 4119" style="isolation:isolate"><path data-name="Path 7153" d="M143.275 93.366l-.067 73.216a1.37 1.37 0 0 1-.8 1.124 4.276 4.276 0 0 1-3.883 0 1.374 1.374 0 0 1-.811-1.138l.067-73.208a1.387 1.387 0 0 0 .81 1.141 4.308 4.308 0 0 0 3.887 0 1.378 1.378 0 0 0 .8-1.13z" fill="#98a6a8"/></g></g></g><g data-name="Group 4123"><g data-name="Group 4122"><path data-name="Path 7154" d="M142.466 115.209a1.192 1.192 0 0 1 .008 2.254 4.281 4.281 0 0 1-3.887 0 1.191 1.191 0 0 1-.014-2.254 4.306 4.306 0 0 1 3.893 0z" fill="#273545"/></g></g></g></g><g data-name="Group 4136" style="isolation:isolate"><g data-name="Group 4128"><g data-name="Group 4127" style="isolation:isolate"><g data-name="Group 4126" style="isolation:isolate"><path data-name="Path 7155" d="M157.159 109.089l-2.929-1.7a1.293 1.293 0 0 1 1.3-.134l2.926 1.708a1.288 1.288 0 0 0-1.3.122z" fill="#d7e1e2"/></g></g></g><g data-name="Group 4130"><g data-name="Group 4129"><path data-name="Path 7156" d="M56.072 167.453l-2.929-1.7 101.086-58.358 2.93 1.7z" fill="#d7e1e2"/></g></g><g data-name="Group 4133"><g data-name="Group 4132" style="isolation:isolate"><g data-name="Group 4131" style="isolation:isolate"><path data-name="Path 7157" d="M54.787 171.773l-2.934-1.7a1.292 1.292 0 0 1-.527-1.177 3.986 3.986 0 0 1 1.818-3.147l2.928 1.7a4.019 4.019 0 0 0-1.817 3.147 1.27 1.27 0 0 0 .532 1.173z" fill="#d7e1e2"/></g></g></g><g data-name="Group 4135"><g data-name="Group 4134"><path data-name="Path 7158" d="M157.159 109.089c1.01-.578 1.826-.113 1.834 1.044a4.025 4.025 0 0 1-1.82 3.155L56.086 171.645c-1.009.587-1.826.124-1.831-1.045a4.019 4.019 0 0 1 1.817-3.147z" fill="#a6bbbf"/></g></g></g><g data-name="Group 4142"><g data-name="Group 4141" style="isolation:isolate"><g data-name="Group 4138"><g data-name="Group 4137"><path data-name="Path 7159" d="M56.087 165.682l-1.465-.851-.2-106.5 1.465.848z" fill="#b2b2b2"/></g></g><g data-name="Group 4140"><g data-name="Group 4139"><path data-name="Path 7160" d="M55.886 59.182l-1.465-.848 97.524-56.309 1.466.852z" fill="#d1b738"/></g></g></g></g><g data-name="Group 4143"><path data-name="Path 7161" d="M55.886 59.182l97.524-56.3.2 106.5-97.525 56.3z" fill="#f2f2f0"/></g><g data-name="Group 4146"><g data-name="Group 4145" style="isolation:isolate"><g data-name="Group 4144" style="isolation:isolate"><path data-name="Path 7162" d="M155.657 1.952l-2.929-1.7a1.278 1.278 0 0 1 1.3-.129l2.932 1.7a1.289 1.289 0 0 0-1.3.128z" fill="#d7e1e2"/></g></g></g><g data-name="Group 4148"><g data-name="Group 4147"><path data-name="Path 7163" d="M54.573 60.313l-2.933-1.7L152.728.252l2.93 1.7z" fill="#d7e1e2"/></g></g><g data-name="Group 4151"><g data-name="Group 4150" style="isolation:isolate"><g data-name="Group 4149" style="isolation:isolate"><path data-name="Path 7164" d="M53.283 64.632l-2.928-1.695a1.284 1.284 0 0 1-.533-1.173 4 4 0 0 1 1.818-3.151l2.933 1.7a4 4 0 0 0-1.822 3.151 1.269 1.269 0 0 0 .532 1.169z" fill="#d7e1e2"/></g></g></g><g data-name="Group 4153"><g data-name="Group 4152"><path data-name="Path 7165" d="M155.657 1.952c1.009-.584 1.829-.118 1.829 1.041a4 4 0 0 1-1.817 3.152L54.581 64.514c-1.009.573-1.826.108-1.83-1.051a4 4 0 0 1 1.822-3.151z" fill="#a6bbbf"/></g></g><g data-name="Group 4155"><g data-name="Group 4154"><path data-name="Path 7166" d="M73.072 59.956l.041 14.608-13.832 7.981-.04-14.6z" fill="#c49a6c"/></g></g><g data-name="Group 4191"><g data-name="Group 4189"><g data-name="Group 4157"><g data-name="Group 4156"><path data-name="Path 7167" d="M71.129 64.746a3.455 3.455 0 0 1 .149-1.822c.193-.343.435-.079.542.59a3.459 3.459 0 0 1-.148 1.825c-.189.343-.433.078-.543-.593z" fill="#9a6233"/></g></g><g data-name="Group 4159"><g data-name="Group 4158"><path data-name="Path 7168" d="M71.129 64.746a3.455 3.455 0 0 1 .149-1.822c.193-.343.435-.079.542.59a3.459 3.459 0 0 1-.148 1.825c-.189.343-.433.078-.543-.593z" fill="#9a6233"/></g></g><g data-name="Group 4161"><g data-name="Group 4160" opacity=".2" style="mix-blend-mode:multiply;isolation:isolate"><path data-name="Path 7169" d="M65.675 64.645a1.2 1.2 0 0 1 .053-.639c.065-.122.152-.025.187.205a1.214 1.214 0 0 1-.051.642c-.065.118-.151.029-.189-.208z" fill="#414042"/></g></g><g data-name="Group 4162"><path data-name="Path 7170" d="M67.85 64.73a4.212 4.212 0 0 1-1.02-.034 9.49 9.49 0 0 1-1.033-.19 7.559 7.559 0 0 1 1-.322 4.482 4.482 0 0 1 1.01-.168.365.365 0 0 1 .366.352.359.359 0 0 1-.323.362z" fill="#414042"/></g><g data-name="Group 4187" style="isolation:isolate"><g data-name="Group 4165"><g data-name="Group 4164" style="isolation:isolate"><g data-name="Group 4163" style="isolation:isolate"><path data-name="Path 7171" d="M68.188 65.945l.456-.009c.075 0 .154-.06.229-.19a4.5 4.5 0 0 0 .191-2.38c-.1-.61-.285-.966-.476-.957h-.453c.191 0 .377.35.477.965a4.484 4.484 0 0 1-.2 2.376c-.07.133-.148.193-.228.193z" fill="#cc8244"/></g></g></g><g data-name="Group 4168"><g data-name="Group 4167" style="isolation:isolate"><g data-name="Group 4166" style="isolation:isolate"><path data-name="Path 7172" d="M68.724 65.916l1.408-.829a.249.249 0 0 0 .078-.091 2.428 2.428 0 0 0 .108-1.277c-.048-.279-.128-.46-.213-.5l-1.431-.788c.158.087.307.418.39.939a4.5 4.5 0 0 1-.191 2.38.459.459 0 0 1-.149.17z" fill="#cc8244"/></g></g></g><g data-name="Group 4170"><g data-name="Group 4169"><path data-name="Path 7173" d="M67.713 64.982a4.519 4.519 0 0 1 .194-2.375c.248-.446.562-.1.705.769a4.484 4.484 0 0 1-.2 2.376c-.24.444-.559.098-.699-.77z" fill="#9a6233"/></g></g><g data-name="Group 4171"><path data-name="Path 7174" d="M69.831 64.582a4.279 4.279 0 0 1-.03-.293 2.841 2.841 0 0 1 .05-.736.9.9 0 0 1 .085-.249c.052-.1.111-.123.169-.091l-1.431-.788c-.1-.057-.214-.007-.313.169a1.61 1.61 0 0 0-.16.464 5.144 5.144 0 0 0-.091 1.369 5.319 5.319 0 0 0 .057.548c.117.7.343 1.067.557.939l1.408-.829c-.114.07-.237-.126-.301-.503z" fill="#ed974f"/></g><g data-name="Group 4174"><g data-name="Group 4173" style="isolation:isolate"><g data-name="Group 4172" style="isolation:isolate"><path data-name="Path 7175" d="M70.088 65.099l.813-.012c.043 0 .085-.035.127-.1a2.443 2.443 0 0 0 .1-1.279c-.054-.331-.154-.519-.255-.519l-.813.012c.1 0 .2.193.258.519a2.428 2.428 0 0 1-.108 1.277c-.038.064-.08.1-.122.1z" fill="#cc8244"/></g></g></g><g data-name="Group 4177"><g data-name="Group 4176" style="isolation:isolate"><g data-name="Group 4175" style="isolation:isolate"><path data-name="Path 7176" d="M67.713 64.982h.454c.1.614.287.964.477.959l-.456.009c-.185 0-.376-.346-.475-.963z" fill="#cc8244"/></g></g></g><g data-name="Group 4178"><path data-name="Path 7177" d="M70.646 64.574a2.4 2.4 0 0 1 .107-1.279c.036-.07.079-.107.12-.107l-.813.012a.17.17 0 0 0-.124.106 2.444 2.444 0 0 0-.105 1.278c.056.325.156.521.257.515l.813-.012c-.102-.005-.2-.186-.255-.513z" fill="#ba773e"/></g><g data-name="Group 4181"><g data-name="Group 4180" style="isolation:isolate"><g data-name="Group 4179" style="isolation:isolate"><path data-name="Path 7178" d="M68.135 62.411h.453c-.078 0-.157.058-.227.187a4.471 4.471 0 0 0-.194 2.381h-.454a4.519 4.519 0 0 1 .194-2.375c.073-.134.151-.2.228-.2z" fill="#cc8244"/></g></g></g><g data-name="Group 4183"><g data-name="Group 4182"><path data-name="Path 7179" d="M70.646 64.574c.075.462.245.649.382.412a2.443 2.443 0 0 0 .1-1.279c-.075-.468-.245-.65-.375-.412a2.4 2.4 0 0 0-.107 1.279z" fill="#9a6233"/></g></g><g data-name="Group 4185"><g data-name="Group 4184"><path data-name="Path 7180" d="M71.129 64.746a3.455 3.455 0 0 1 .149-1.822c.193-.343.435-.079.542.59a3.459 3.459 0 0 1-.148 1.825c-.189.343-.433.078-.543-.593z" fill="#9a6233"/></g></g><g data-name="Group 4186"><path data-name="Path 7181" d="M71.129 64.746a3.455 3.455 0 0 1 .149-1.822c.058-.1.116-.153.177-.153l-.541.009c-.062 0-.125.05-.178.147a3.443 3.443 0 0 0-.152 1.83c.077.473.222.741.368.741l.544-.008c-.145 0-.288-.267-.367-.744z" fill="#cc8244"/></g></g><g data-name="Group 4188"><path data-name="Path 7182" d="M68.201 63.06l1.65.5a2.841 2.841 0 0 0-.05.736l-1.691.138a5.144 5.144 0 0 1 .091-1.369z" fill="#ffcca1"/></g></g><g data-name="Group 4190"><path data-name="Path 7183" d="M67.56 64.368c0 .031-.182.061-.4.061s-.407-.03-.407-.061.184-.066.407-.066.4.031.4.066z" fill="#fff" opacity=".2" style="mix-blend-mode:hard-light;isolation:isolate"/></g></g><g data-name="Group 4193"><g data-name="Group 4192"><path data-name="Path 7184" d="M86.721 81.188l.041 14.611-13.829 7.982-.043-14.6z" fill="#39b54a"/></g></g><g data-name="Group 4229"><g data-name="Group 4227"><g data-name="Group 4195"><g data-name="Group 4194"><path data-name="Path 7185" d="M84.782 85.982a3.465 3.465 0 0 1 .15-1.827c.189-.337.431-.07.542.6a3.507 3.507 0 0 1-.151 1.828c-.189.334-.431.066-.541-.601z" fill="#9a6233"/></g></g><g data-name="Group 4197"><g data-name="Group 4196"><path data-name="Path 7186" d="M84.782 85.982a3.465 3.465 0 0 1 .15-1.827c.189-.337.431-.07.542.6a3.507 3.507 0 0 1-.151 1.828c-.189.334-.431.066-.541-.601z" fill="#9a6233"/></g></g><g data-name="Group 4199"><g data-name="Group 4198" opacity=".2" style="mix-blend-mode:multiply;isolation:isolate"><path data-name="Path 7187" d="M79.326 85.882a1.206 1.206 0 0 1 .05-.638c.069-.12.155-.033.193.21a1.186 1.186 0 0 1-.055.637c-.065.118-.149.021-.188-.209z" fill="#414042"/></g></g><g data-name="Group 4200"><path data-name="Path 7188" d="M81.502 85.965a4.242 4.242 0 0 1-1.021-.037 7.758 7.758 0 0 1-1.035-.194 8.051 8.051 0 0 1 1-.317 4.4 4.4 0 0 1 1.011-.169.36.36 0 0 1 .045.717z" fill="#414042"/></g><g data-name="Group 4225" style="isolation:isolate"><g data-name="Group 4203"><g data-name="Group 4202" style="isolation:isolate"><g data-name="Group 4201" style="isolation:isolate"><path data-name="Path 7189" d="M81.839 87.182l.454-.01c.081 0 .156-.062.231-.187a4.529 4.529 0 0 0 .191-2.382c-.1-.615-.287-.965-.473-.96l-.454.006c.189 0 .375.351.475.964a4.476 4.476 0 0 1-.194 2.377c-.071.124-.152.192-.23.192z" fill="#cc8244"/></g></g></g><g data-name="Group 4206"><g data-name="Group 4205" style="isolation:isolate"><g data-name="Group 4204" style="isolation:isolate"><path data-name="Path 7190" d="M82.379 87.145l1.406-.821a.234.234 0 0 0 .076-.094 2.409 2.409 0 0 0 .106-1.276c-.047-.282-.126-.458-.211-.506l-1.429-.787c.158.089.3.42.388.94a4.529 4.529 0 0 1-.191 2.382.412.412 0 0 1-.145.162z" fill="#cc8244"/></g></g></g><g data-name="Group 4208"><g data-name="Group 4207"><path data-name="Path 7191" d="M81.367 86.215a4.484 4.484 0 0 1 .191-2.378c.248-.442.564-.1.705.774a4.476 4.476 0 0 1-.194 2.377c-.247.442-.561.094-.702-.773z" fill="#9a6233"/></g></g><g data-name="Group 4209"><path data-name="Path 7192" d="M83.485 85.816a2.83 2.83 0 0 1-.031-.295 2.751 2.751 0 0 1 .049-.738.829.829 0 0 1 .087-.242c.051-.1.108-.122.166-.093l-1.429-.787c-.107-.054-.216 0-.314.174a1.551 1.551 0 0 0-.161.459 5.139 5.139 0 0 0-.092 1.369 4.422 4.422 0 0 0 .06.546c.115.708.343 1.062.559.936l1.406-.821c-.115.066-.24-.13-.3-.508z" fill="#ed974f"/></g><g data-name="Group 4212"><g data-name="Group 4211" style="isolation:isolate"><g data-name="Group 4210" style="isolation:isolate"><path data-name="Path 7193" d="M83.739 86.334l.813-.01c.043 0 .086-.037.125-.109a2.447 2.447 0 0 0 .1-1.271c-.054-.333-.157-.521-.256-.521l-.814.011c.1 0 .2.188.255.52a2.409 2.409 0 0 1-.106 1.276c-.039.072-.08.1-.122.1z" fill="#cc8244"/></g></g></g><g data-name="Group 4215"><g data-name="Group 4214" style="isolation:isolate"><g data-name="Group 4213" style="isolation:isolate"><path data-name="Path 7194" d="M81.367 86.215l.453-.006c.1.613.284.967.473.961l-.454.01c-.185.006-.376-.353-.472-.965z" fill="#cc8244"/></g></g></g><g data-name="Group 4216"><path data-name="Path 7195" d="M84.299 85.806a2.4 2.4 0 0 1 .1-1.277c.042-.072.083-.1.126-.106l-.814.011c-.042 0-.086.033-.122.107a2.406 2.406 0 0 0-.105 1.275c.052.327.151.521.254.518l.813-.01c-.1 0-.2-.19-.252-.518z" fill="#ba773e"/></g><g data-name="Group 4219"><g data-name="Group 4218" style="isolation:isolate"><g data-name="Group 4217" style="isolation:isolate"><path data-name="Path 7196" d="M81.788 83.647l.454-.006c-.079 0-.159.061-.229.194a4.4 4.4 0 0 0-.193 2.374l-.453.006a4.484 4.484 0 0 1 .191-2.378c.071-.13.15-.19.23-.19z" fill="#cc8244"/></g></g></g><g data-name="Group 4221"><g data-name="Group 4220"><path data-name="Path 7197" d="M84.299 85.806c.073.467.244.65.378.409a2.447 2.447 0 0 0 .1-1.271c-.076-.471-.248-.654-.382-.415a2.4 2.4 0 0 0-.1 1.277z" fill="#9a6233"/></g></g><g data-name="Group 4223"><g data-name="Group 4222"><path data-name="Path 7198" d="M84.782 85.982a3.465 3.465 0 0 1 .15-1.827c.189-.337.431-.07.542.6a3.507 3.507 0 0 1-.151 1.828c-.189.334-.431.066-.541-.601z" fill="#9a6233"/></g></g><g data-name="Group 4224"><path data-name="Path 7199" d="M84.782 85.982a3.465 3.465 0 0 1 .15-1.827c.053-.1.115-.141.175-.141l-.546.005c-.06 0-.119.045-.177.146a3.45 3.45 0 0 0-.147 1.829c.077.471.221.739.365.739l.544-.008c-.144 0-.286-.277-.364-.743z" fill="#cc8244"/></g></g><g data-name="Group 4226"><path data-name="Path 7200" d="M81.852 84.294l1.651.489a2.751 2.751 0 0 0-.049.738l-1.694.142a5.139 5.139 0 0 1 .092-1.369z" fill="#ffcca1"/></g></g><g data-name="Group 4228"><path data-name="Path 7201" d="M81.208 85.601c0 .031-.182.062-.4.062s-.4-.031-.4-.062.181-.066.4-.066.4.031.4.066z" fill="#fff" opacity=".2" style="mix-blend-mode:hard-light;isolation:isolate"/></g></g><g data-name="Group 4231"><g data-name="Group 4230"><path data-name="Path 7202" d="M72.691 89.42l.042 14.605-13.834 7.987-.041-14.608z" fill="#00aeef"/></g></g><g data-name="Group 4267"><g data-name="Group 4265"><g data-name="Group 4233"><g data-name="Group 4232"><path data-name="Path 7203" d="M70.753 94.207a3.487 3.487 0 0 1 .145-1.827c.191-.337.435-.072.542.6a3.461 3.461 0 0 1-.147 1.825c-.192.34-.433.077-.54-.598z" fill="#9a6233"/></g></g><g data-name="Group 4235"><g data-name="Group 4234"><path data-name="Path 7204" d="M70.753 94.207a3.487 3.487 0 0 1 .145-1.827c.191-.337.435-.072.542.6a3.461 3.461 0 0 1-.147 1.825c-.192.34-.433.077-.54-.598z" fill="#9a6233"/></g></g><g data-name="Group 4237"><g data-name="Group 4236" opacity=".2" style="mix-blend-mode:multiply;isolation:isolate"><path data-name="Path 7205" d="M65.295 94.107a1.2 1.2 0 0 1 .051-.638c.066-.126.154-.027.189.2a1.188 1.188 0 0 1-.051.645c-.065.12-.15.027-.189-.207z" fill="#414042"/></g></g><g data-name="Group 4238"><path data-name="Path 7206" d="M67.471 94.194a4.6 4.6 0 0 1-1.021-.037 8.539 8.539 0 0 1-1.035-.188 7.058 7.058 0 0 1 1-.324 4.508 4.508 0 0 1 1.008-.166.359.359 0 0 1 .047.715z" fill="#414042"/></g><g data-name="Group 4263" style="isolation:isolate"><g data-name="Group 4241"><g data-name="Group 4240" style="isolation:isolate"><g data-name="Group 4239" style="isolation:isolate"><path data-name="Path 7207" d="M67.808 95.411l.454-.007c.077 0 .157-.067.231-.2a4.483 4.483 0 0 0 .191-2.373c-.1-.613-.287-.966-.473-.966l-.452.012c.187-.008.373.345.472.965a4.465 4.465 0 0 1-.192 2.372c-.073.13-.152.2-.231.2z" fill="#cc8244"/></g></g></g><g data-name="Group 4244"><g data-name="Group 4243" style="isolation:isolate"><g data-name="Group 4242" style="isolation:isolate"><path data-name="Path 7208" d="M68.346 95.382l1.409-.832a.323.323 0 0 0 .076-.087 2.416 2.416 0 0 0 .105-1.277c-.048-.281-.126-.461-.211-.506l-1.432-.786c.161.089.307.418.391.94a4.483 4.483 0 0 1-.191 2.373.51.51 0 0 1-.147.175z" fill="#cc8244"/></g></g></g><g data-name="Group 4246"><g data-name="Group 4245"><path data-name="Path 7209" d="M67.332 94.446a4.518 4.518 0 0 1 .195-2.378c.248-.444.564-.1.7.773a4.465 4.465 0 0 1-.192 2.372c-.245.447-.559.097-.703-.767z" fill="#9a6233"/></g></g><g data-name="Group 4247"><path data-name="Path 7210" d="M69.453 94.045a2.571 2.571 0 0 1-.03-.3 2.771 2.771 0 0 1 .047-.734.937.937 0 0 1 .089-.247c.051-.1.111-.122.166-.091l-1.432-.786c-.1-.055-.213-.006-.313.168a1.731 1.731 0 0 0-.158.465 5.35 5.35 0 0 0-.033 1.915c.114.707.343 1.062.557.94l1.409-.832c-.119.075-.241-.12-.302-.498z" fill="#ed974f"/></g><g data-name="Group 4250"><g data-name="Group 4249" style="isolation:isolate"><g data-name="Group 4248" style="isolation:isolate"><path data-name="Path 7211" d="M69.708 94.562l.815-.012c.042 0 .085-.032.124-.1a2.456 2.456 0 0 0 .107-1.273c-.057-.332-.16-.522-.259-.522l-.813.015c.1 0 .2.185.255.516a2.416 2.416 0 0 1-.105 1.277c-.039.066-.081.1-.124.1z" fill="#cc8244"/></g></g></g><g data-name="Group 4253"><g data-name="Group 4252" style="isolation:isolate"><g data-name="Group 4251" style="isolation:isolate"><path data-name="Path 7212" d="M67.332 94.446l.457-.008c.1.614.284.966.473.966l-.454.007c-.187 0-.373-.355-.476-.965z" fill="#cc8244"/></g></g></g><g data-name="Group 4254"><path data-name="Path 7213" d="M70.268 94.029a2.379 2.379 0 0 1 .1-1.271c.042-.072.083-.107.125-.107l-.813.015c-.045 0-.087.032-.122.1a2.41 2.41 0 0 0-.106 1.278c.054.327.154.519.254.517l.815-.012c-.1.001-.201-.188-.253-.52z" fill="#ba773e"/></g><g data-name="Group 4257"><g data-name="Group 4256" style="isolation:isolate"><g data-name="Group 4255" style="isolation:isolate"><path data-name="Path 7214" d="M67.759 91.876l.452-.012c-.079 0-.159.066-.231.194a4.494 4.494 0 0 0-.191 2.38l-.457.008a4.518 4.518 0 0 1 .195-2.378c.072-.13.152-.192.232-.192z" fill="#cc8244"/></g></g></g><g data-name="Group 4259"><g data-name="Group 4258"><path data-name="Path 7215" d="M70.268 94.029c.073.469.244.655.378.417a2.456 2.456 0 0 0 .107-1.273c-.08-.465-.251-.656-.384-.415a2.379 2.379 0 0 0-.1 1.271z" fill="#9a6233"/></g></g><g data-name="Group 4261"><g data-name="Group 4260"><path data-name="Path 7216" d="M70.753 94.207a3.487 3.487 0 0 1 .145-1.827c.191-.337.435-.072.542.6a3.461 3.461 0 0 1-.147 1.825c-.192.34-.433.077-.54-.598z" fill="#9a6233"/></g></g><g data-name="Group 4262"><path data-name="Path 7217" d="M70.753 94.207a3.487 3.487 0 0 1 .145-1.827c.056-.1.118-.141.178-.141h-.546c-.06 0-.119.048-.175.148a3.407 3.407 0 0 0-.149 1.826c.076.471.221.741.366.741l.543-.008c-.146.008-.289-.264-.362-.739z" fill="#cc8244"/></g></g><g data-name="Group 4264"><path data-name="Path 7218" d="M67.822 92.523l1.648.491a2.771 2.771 0 0 0-.047.734l-1.7.145a5.22 5.22 0 0 1 .094-1.37z" fill="#ffcca1"/></g></g><g data-name="Group 4266"><path data-name="Path 7219" d="M67.18 93.826c0 .04-.18.067-.407.067s-.4-.027-.4-.067.181-.062.4-.062.407.029.407.062z" fill="#fff" opacity=".2" style="mix-blend-mode:hard-light;isolation:isolate"/></g></g><g data-name="Group 4269"><g data-name="Group 4268"><path data-name="Path 7220" d="M106.584 107.137l.041 14.607-13.835 7.987-.042-14.605z" fill="#39b54a"/></g></g><g data-name="Group 4305"><g data-name="Group 4303"><g data-name="Group 4271"><g data-name="Group 4270"><path data-name="Path 7221" d="M104.643 111.928a3.442 3.442 0 0 1 .148-1.825c.188-.342.433-.076.54.595a3.438 3.438 0 0 1-.146 1.821c-.193.345-.435.078-.542-.591z" fill="#9a6233"/></g></g><g data-name="Group 4273"><g data-name="Group 4272"><path data-name="Path 7222" d="M104.643 111.928a3.442 3.442 0 0 1 .148-1.825c.188-.342.433-.076.54.595a3.438 3.438 0 0 1-.146 1.821c-.193.345-.435.078-.542-.591z" fill="#9a6233"/></g></g><g data-name="Group 4275"><g data-name="Group 4274" opacity=".2" style="mix-blend-mode:multiply;isolation:isolate"><path data-name="Path 7223" d="M99.186 111.831a1.193 1.193 0 0 1 .052-.645c.068-.117.151-.026.189.211a1.149 1.149 0 0 1-.052.638c-.067.124-.151.025-.189-.204z" fill="#414042"/></g></g><g data-name="Group 4276"><path data-name="Path 7224" d="M101.363 111.913a4.013 4.013 0 0 1-1.024-.037 8.22 8.22 0 0 1-1.033-.19 8.035 8.035 0 0 1 1-.32 4.355 4.355 0 0 1 1.012-.167.358.358 0 0 1 .044.714z" fill="#414042"/></g><g data-name="Group 4301" style="isolation:isolate"><g data-name="Group 4279"><g data-name="Group 4278" style="isolation:isolate"><g data-name="Group 4277" style="isolation:isolate"><path data-name="Path 7225" d="M101.698 113.13l.456-.006c.078 0 .154-.062.228-.2a4.509 4.509 0 0 0 .2-2.374c-.1-.618-.288-.973-.476-.967l-.453.006c.188-.006.376.347.474.965a4.5 4.5 0 0 1-.191 2.376c-.074.13-.154.2-.233.2z" fill="#cc8244"/></g></g></g><g data-name="Group 4282"><g data-name="Group 4281" style="isolation:isolate"><g data-name="Group 4280" style="isolation:isolate"><path data-name="Path 7226" d="M102.237 113.097l1.408-.828a.25.25 0 0 0 .078-.091 2.387 2.387 0 0 0 .1-1.279.8.8 0 0 0-.21-.506l-1.429-.785c.156.086.3.425.39.946a4.509 4.509 0 0 1-.2 2.374.466.466 0 0 1-.145.169z" fill="#cc8244"/></g></g></g><g data-name="Group 4284"><g data-name="Group 4283"><path data-name="Path 7227" d="M101.225 112.161a4.52 4.52 0 0 1 .192-2.375c.249-.441.564-.1.705.772a4.5 4.5 0 0 1-.191 2.376c-.248.448-.564.099-.706-.773z" fill="#9a6233"/></g></g><g data-name="Group 4285"><path data-name="Path 7228" d="M103.344 111.763a3.36 3.36 0 0 1-.032-.289 2.872 2.872 0 0 1 .052-.736.883.883 0 0 1 .084-.252c.053-.093.112-.124.168-.093l-1.429-.785c-.107-.058-.215 0-.315.175a1.8 1.8 0 0 0-.16.457 5.308 5.308 0 0 0-.093 1.37 5.439 5.439 0 0 0 .059.549c.115.705.346 1.065.559.938l1.408-.828c-.117.07-.237-.13-.301-.506z" fill="#ed974f"/></g><g data-name="Group 4288"><g data-name="Group 4287" style="isolation:isolate"><g data-name="Group 4286" style="isolation:isolate"><path data-name="Path 7229" d="M103.597 112.282l.814-.016c.042 0 .086-.037.125-.1a2.446 2.446 0 0 0 .1-1.28c-.054-.331-.156-.519-.257-.515l-.811.009c.1 0 .2.19.254.516a2.387 2.387 0 0 1-.1 1.279c-.038.072-.081.1-.126.107z" fill="#cc8244"/></g></g></g><g data-name="Group 4291"><g data-name="Group 4290" style="isolation:isolate"><g data-name="Group 4289" style="isolation:isolate"><path data-name="Path 7230" d="M101.225 112.161h.453c.1.614.288.971.476.965l-.456.006c-.186 0-.373-.349-.473-.969z" fill="#cc8244"/></g></g></g><g data-name="Group 4292"><path data-name="Path 7231" d="M104.158 111.752a2.394 2.394 0 0 1 .1-1.275c.04-.07.081-.1.122-.1l-.811.009c-.044 0-.083.039-.124.1a2.437 2.437 0 0 0-.1 1.277c.051.333.154.522.253.522l.814-.016c-.104 0-.204-.187-.254-.517z" fill="#ba773e"/></g><g data-name="Group 4295"><g data-name="Group 4294" style="isolation:isolate"><g data-name="Group 4293" style="isolation:isolate"><path data-name="Path 7232" d="M101.648 109.593l.453-.006c-.077 0-.158.068-.229.2a4.506 4.506 0 0 0-.194 2.376h-.453a4.52 4.52 0 0 1 .192-2.375c.074-.127.153-.193.231-.193z" fill="#cc8244"/></g></g></g><g data-name="Group 4297"><g data-name="Group 4296"><path data-name="Path 7233" d="M104.158 111.752c.077.465.245.649.378.417a2.446 2.446 0 0 0 .1-1.28c-.077-.465-.244-.653-.379-.412a2.394 2.394 0 0 0-.1 1.275z" fill="#9a6233"/></g></g><g data-name="Group 4299"><g data-name="Group 4298"><path data-name="Path 7234" d="M104.643 111.928a3.442 3.442 0 0 1 .148-1.825c.188-.342.433-.076.54.595a3.438 3.438 0 0 1-.146 1.821c-.193.345-.435.078-.542-.591z" fill="#9a6233"/></g></g><g data-name="Group 4300"><path data-name="Path 7235" d="M104.643 111.928a3.442 3.442 0 0 1 .148-1.825c.055-.1.114-.146.177-.146h-.548c-.057 0-.119.048-.176.145a3.511 3.511 0 0 0-.148 1.832c.078.471.221.74.366.74l.543-.006c-.144.004-.285-.267-.362-.74z" fill="#cc8244"/></g></g><g data-name="Group 4302"><path data-name="Path 7236" d="M101.708 110.24l1.652.5a2.872 2.872 0 0 0-.052.736l-1.693.136a5.308 5.308 0 0 1 .093-1.37z" fill="#ffcca1"/></g></g><g data-name="Group 4304"><path data-name="Path 7237" d="M101.07 111.548c0 .035-.179.062-.4.062s-.4-.027-.4-.062.181-.064.4-.064.4.029.4.064z" fill="#fff" opacity=".2" style="mix-blend-mode:hard-light;isolation:isolate"/></g></g><g data-name="Group 4307"><g data-name="Group 4306"><path data-name="Path 7238" d="M90.1 116.411l.038 14.6-13.833 7.986-.041-14.606z" fill="#af4553"/></g></g><g data-name="Group 4343"><g data-name="Group 4341"><g data-name="Group 4309"><g data-name="Group 4308"><path data-name="Path 7239" d="M88.157 121.205a3.456 3.456 0 0 1 .149-1.829c.188-.343.435-.076.542.595a3.433 3.433 0 0 1-.151 1.823c-.189.338-.431.08-.54-.589z" fill="#9a6233"/></g></g><g data-name="Group 4311"><g data-name="Group 4310"><path data-name="Path 7240" d="M88.157 121.205a3.456 3.456 0 0 1 .149-1.829c.188-.343.435-.076.542.595a3.433 3.433 0 0 1-.151 1.823c-.189.338-.431.08-.54-.589z" fill="#9a6233"/></g></g><g data-name="Group 4313"><g data-name="Group 4312" opacity=".2" style="mix-blend-mode:multiply;isolation:isolate"><path data-name="Path 7241" d="M82.702 121.101a1.212 1.212 0 0 1 .05-.644c.066-.118.152-.027.191.207a1.276 1.276 0 0 1-.051.648c-.069.114-.154.025-.19-.211z" fill="#414042"/></g></g><g data-name="Group 4314"><path data-name="Path 7242" d="M84.878 121.188a4.629 4.629 0 0 1-1.024-.037 8.022 8.022 0 0 1-1.035-.194 7.474 7.474 0 0 1 1-.316 4.025 4.025 0 0 1 1.012-.169.359.359 0 0 1 .364.352.364.364 0 0 1-.317.364z" fill="#414042"/></g><g data-name="Group 4339" style="isolation:isolate"><g data-name="Group 4317"><g data-name="Group 4316" style="isolation:isolate"><g data-name="Group 4315" style="isolation:isolate"><path data-name="Path 7243" d="M85.217 122.401l.451-.008c.078 0 .157-.062.23-.2a4.493 4.493 0 0 0 .194-2.375c-.1-.612-.288-.965-.476-.965l-.453.01c.19 0 .374.349.477.967a4.521 4.521 0 0 1-.195 2.376c-.074.126-.154.188-.228.19z" fill="#cc8244"/></g></g></g><g data-name="Group 4320"><g data-name="Group 4319" style="isolation:isolate"><g data-name="Group 4318" style="isolation:isolate"><path data-name="Path 7244" d="M85.751 122.368l1.408-.83a.224.224 0 0 0 .079-.088 2.419 2.419 0 0 0 .1-1.272c-.048-.281-.128-.461-.212-.507l-1.431-.786c.159.088.308.417.392.938a4.493 4.493 0 0 1-.194 2.375.382.382 0 0 1-.147.17z" fill="#cc8244"/></g></g></g><g data-name="Group 4322"><g data-name="Group 4321"><path data-name="Path 7245" d="M84.741 121.44a4.437 4.437 0 0 1 .193-2.378c.249-.446.562-.1.706.773a4.521 4.521 0 0 1-.195 2.376c-.249.438-.565.095-.704-.771z" fill="#9a6233"/></g></g><g data-name="Group 4323"><path data-name="Path 7246" d="M86.861 121.041a2.23 2.23 0 0 1-.033-.3 2.926 2.926 0 0 1 .048-.734.967.967 0 0 1 .086-.248c.055-.095.112-.121.169-.091l-1.431-.786c-.1-.062-.218-.009-.314.167a1.65 1.65 0 0 0-.158.458 5.225 5.225 0 0 0-.092 1.377 5.173 5.173 0 0 0 .056.539c.115.706.345 1.068.559.942l1.408-.83c-.116.073-.241-.117-.298-.494z" fill="#ed974f"/></g><g data-name="Group 4326"><g data-name="Group 4325" style="isolation:isolate"><g data-name="Group 4324" style="isolation:isolate"><path data-name="Path 7247" d="M87.115 121.558l.811-.02c.045 0 .086-.034.124-.1a2.456 2.456 0 0 0 .105-1.281c-.054-.324-.154-.514-.255-.514l-.815.012c.1 0 .205.188.258.521a2.419 2.419 0 0 1-.1 1.272c-.038.071-.083.108-.123.108z" fill="#cc8244"/></g></g></g><g data-name="Group 4329"><g data-name="Group 4328" style="isolation:isolate"><g data-name="Group 4327" style="isolation:isolate"><path data-name="Path 7248" d="M84.741 121.44l.451-.014c.1.62.287.973.476.967l-.451.008c-.191 0-.378-.351-.476-.961z" fill="#cc8244"/></g></g></g><g data-name="Group 4330"><path data-name="Path 7249" d="M87.671 121.023a2.449 2.449 0 0 1 .1-1.277c.041-.066.082-.1.126-.1l-.815.012c-.042.006-.081.035-.123.1a2.416 2.416 0 0 0-.1 1.279c.052.325.153.517.254.517l.811-.02c-.098.01-.197-.18-.253-.511z" fill="#ba773e"/></g><g data-name="Group 4333"><g data-name="Group 4332" style="isolation:isolate"><g data-name="Group 4331" style="isolation:isolate"><path data-name="Path 7250" d="M85.163 118.868l.453-.01c-.079.006-.158.066-.23.194a4.485 4.485 0 0 0-.194 2.374l-.451.014a4.437 4.437 0 0 1 .193-2.378c.073-.13.152-.194.229-.194z" fill="#cc8244"/></g></g></g><g data-name="Group 4335"><g data-name="Group 4334"><path data-name="Path 7251" d="M87.671 121.023c.078.465.247.655.379.417a2.456 2.456 0 0 0 .105-1.281c-.077-.463-.245-.649-.381-.413a2.449 2.449 0 0 0-.1 1.277z" fill="#9a6233"/></g></g><g data-name="Group 4337"><g data-name="Group 4336"><path data-name="Path 7252" d="M88.157 121.205a3.456 3.456 0 0 1 .149-1.829c.188-.343.435-.076.542.595a3.433 3.433 0 0 1-.151 1.823c-.189.338-.431.08-.54-.589z" fill="#9a6233"/></g></g><g data-name="Group 4338"><path data-name="Path 7253" d="M88.157 121.205a3.456 3.456 0 0 1 .149-1.829c.057-.1.116-.152.176-.152l-.547.014c-.06 0-.12.043-.175.142a3.463 3.463 0 0 0-.149 1.829c.075.473.221.742.365.742l.546-.005c-.144.004-.288-.264-.365-.741z" fill="#cc8244"/></g></g><g data-name="Group 4340"><path data-name="Path 7254" d="M85.228 119.51l1.648.5a2.926 2.926 0 0 0-.048.734l-1.692.143a5.225 5.225 0 0 1 .092-1.377z" fill="#ffcca1"/></g></g><g data-name="Group 4342"><path data-name="Path 7255" d="M84.586 120.82c0 .036-.182.067-.4.067s-.4-.031-.4-.067.18-.061.4-.061.4.023.4.061z" fill="#fff" opacity=".2" style="mix-blend-mode:hard-light;isolation:isolate"/></g></g><g data-name="Group 4345"><g data-name="Group 4344"><path data-name="Path 7256" d="M73.267 125.548l.039 14.6-13.831 7.992-.041-14.614z" fill="#8dc63f"/></g></g><g data-name="Group 4381"><g data-name="Group 4379"><g data-name="Group 4347"><g data-name="Group 4346"><path data-name="Path 7257" d="M71.324 130.332a3.436 3.436 0 0 1 .152-1.82c.189-.34.431-.076.539.592a3.433 3.433 0 0 1-.146 1.827c-.192.345-.435.078-.545-.599z" fill="#9a6233"/></g></g><g data-name="Group 4349"><g data-name="Group 4348"><path data-name="Path 7258" d="M71.324 130.332a3.436 3.436 0 0 1 .152-1.82c.189-.34.431-.076.539.592a3.433 3.433 0 0 1-.146 1.827c-.192.345-.435.078-.545-.599z" fill="#9a6233"/></g></g><g data-name="Group 4351"><g data-name="Group 4350" opacity=".2" style="mix-blend-mode:multiply;isolation:isolate"><path data-name="Path 7259" d="M65.87 130.239a1.212 1.212 0 0 1 .054-.645c.066-.119.152-.025.188.207a1.23 1.23 0 0 1-.051.64c-.068.122-.153.033-.191-.202z" fill="#414042"/></g></g><g data-name="Group 4352"><path data-name="Path 7260" d="M68.049 130.327a4.648 4.648 0 0 1-1.024-.041 8.394 8.394 0 0 1-1.035-.192 7.721 7.721 0 0 1 1-.32 4.129 4.129 0 0 1 1.012-.163.353.353 0 0 1 .362.349.365.365 0 0 1-.315.367z" fill="#414042"/></g><g data-name="Group 4377" style="isolation:isolate"><g data-name="Group 4355"><g data-name="Group 4354" style="isolation:isolate"><g data-name="Group 4353" style="isolation:isolate"><path data-name="Path 7261" d="M68.385 131.534h.45c.083 0 .16-.07.232-.2a4.475 4.475 0 0 0 .191-2.376c-.1-.611-.285-.962-.474-.962h-.453c.19 0 .377.35.476.962a4.423 4.423 0 0 1-.2 2.376c-.071.134-.15.194-.227.194z" fill="#cc8244"/></g></g></g><g data-name="Group 4358"><g data-name="Group 4357" style="isolation:isolate"><g data-name="Group 4356" style="isolation:isolate"><path data-name="Path 7262" d="M68.92 131.505l1.408-.828a.227.227 0 0 0 .08-.091 2.4 2.4 0 0 0 .1-1.273c-.047-.283-.122-.462-.208-.511l-1.431-.781c.157.087.306.419.387.939a4.475 4.475 0 0 1-.191 2.376.42.42 0 0 1-.147.169z" fill="#cc8244"/></g></g></g><g data-name="Group 4360"><g data-name="Group 4359"><path data-name="Path 7263" d="M67.908 130.569a4.472 4.472 0 0 1 .193-2.374c.247-.437.564-.1.705.769a4.423 4.423 0 0 1-.2 2.376c-.241.442-.556.103-.698-.771z" fill="#9a6233"/></g></g><g data-name="Group 4361"><path data-name="Path 7264" d="M70.029 130.17a3.197 3.197 0 0 1-.032-.291 2.857 2.857 0 0 1 .048-.735 1.066 1.066 0 0 1 .087-.249c.053-.093.113-.122.17-.093l-1.431-.781c-.105-.056-.217-.009-.315.169a1.756 1.756 0 0 0-.163.461 5.415 5.415 0 0 0-.09 1.367c.011.19.032.374.059.545.115.713.346 1.07.558.942l1.408-.828c-.12.068-.24-.122-.299-.507z" fill="#ed974f"/></g><g data-name="Group 4364"><g data-name="Group 4363" style="isolation:isolate"><g data-name="Group 4362" style="isolation:isolate"><path data-name="Path 7265" d="M70.282 130.693l.816-.016c.04 0 .083-.035.122-.1a2.436 2.436 0 0 0 .1-1.275c-.052-.333-.155-.518-.256-.514l-.814.012c.1 0 .2.184.256.518a2.4 2.4 0 0 1-.1 1.273c-.041.07-.082.107-.126.107z" fill="#cc8244"/></g></g></g><g data-name="Group 4367"><g data-name="Group 4366" style="isolation:isolate"><g data-name="Group 4365" style="isolation:isolate"><path data-name="Path 7266" d="M67.908 130.569l.453-.006c.1.622.286.971.473.969h-.45c-.189.006-.375-.345-.476-.965z" fill="#cc8244"/></g></g></g><g data-name="Group 4368"><path data-name="Path 7267" d="M70.843 130.162a2.425 2.425 0 0 1 .1-1.279c.042-.071.084-.1.124-.1l-.814.012c-.041 0-.083.034-.122.1a2.428 2.428 0 0 0-.1 1.275c.053.333.153.523.253.523l.816-.016c-.103.005-.203-.189-.257-.515z" fill="#ba773e"/></g><g data-name="Group 4371"><g data-name="Group 4370" style="isolation:isolate"><g data-name="Group 4369" style="isolation:isolate"><path data-name="Path 7268" d="M68.331 128.002h.453c-.076 0-.155.06-.228.192a4.459 4.459 0 0 0-.194 2.373l-.453.006a4.472 4.472 0 0 1 .193-2.374c.072-.127.152-.187.229-.193z" fill="#cc8244"/></g></g></g><g data-name="Group 4373"><g data-name="Group 4372"><path data-name="Path 7269" d="M70.843 130.162c.076.465.244.655.377.41a2.436 2.436 0 0 0 .1-1.275c-.076-.464-.248-.646-.38-.414a2.425 2.425 0 0 0-.1 1.279z" fill="#9a6233"/></g></g><g data-name="Group 4375"><g data-name="Group 4374"><path data-name="Path 7270" d="M71.324 130.332a3.436 3.436 0 0 1 .152-1.82c.189-.34.431-.076.539.592a3.433 3.433 0 0 1-.146 1.827c-.192.345-.435.078-.545-.599z" fill="#9a6233"/></g></g><g data-name="Group 4376"><path data-name="Path 7271" d="M71.324 130.332a3.436 3.436 0 0 1 .152-1.82c.053-.1.115-.148.173-.148l-.545.006c-.06 0-.118.05-.176.153a3.4 3.4 0 0 0-.147 1.821c.076.477.219.748.364.74h.548c-.145-.002-.291-.275-.369-.752z" fill="#cc8244"/></g></g><g data-name="Group 4378"><path data-name="Path 7272" d="M68.393 128.651l1.652.493a2.857 2.857 0 0 0-.048.735l-1.694.139a5.415 5.415 0 0 1 .09-1.367z" fill="#ffcca1"/></g></g><g data-name="Group 4380"><path data-name="Path 7273" d="M67.753 129.958c0 .033-.18.06-.4.06s-.406-.027-.406-.06.181-.067.406-.067.4.031.4.067z" fill="#fff" opacity=".2" style="mix-blend-mode:hard-light;isolation:isolate"/></g></g><g data-name="Group 4382"><path data-name="Path 7274" d="M86.801 69.855l.013 4.894-27 15.587-.012-4.889z" fill="#c5c5c5"/></g><g data-name="Group 4384"><g data-name="Group 4383"><path data-name="Path 7275" d="M148.046 70.518l.017 4.893L122.491 90.2l-.017-4.893z" fill="#c5c5c5"/></g></g><g data-name="Group 4386"><g data-name="Group 4385"><path data-name="Path 7276" d="M145.776 79.782l.006 1.7-22.447 12.959v-1.7z" fill="#c5c5c5"/></g></g><g data-name="Group 4388"><g data-name="Group 4387"><path data-name="Path 7277" d="M145.776 82.924l.006 1.7-22.448 12.958v-1.7z" fill="#c5c5c5"/></g></g><g data-name="Group 4390"><g data-name="Group 4389"><path data-name="Path 7278" d="M145.776 86.082l.006 1.7-22.447 12.96v-1.691z" fill="#c5c5c5"/></g></g><g data-name="Group 4392"><g data-name="Group 4391"><path data-name="Path 7279" d="M145.776 89.231l.006 1.7-22.447 12.958v-1.7z" fill="#c5c5c5"/></g></g><g data-name="Group 4394"><g data-name="Group 4393"><path data-name="Path 7280" d="M145.774 96.882l.012 5.227-22.446 12.957-.016-5.225z" fill="#c5c5c5"/></g></g><g data-name="Group 4396"><g data-name="Group 4395"><path data-name="Path 7281" d="M145.774 103.491l.012 5.224-22.445 12.967-.016-5.231z" fill="#c5c5c5"/></g></g><g data-name="Group 4397"><path data-name="Path 7282" d="M114.899 82.327v.859L95.868 94.17v-.854z" fill="#c5c5c5"/></g><g data-name="Group 4398"><path data-name="Path 7283" d="M114.899 85.469v.858L95.868 97.314v-.856z" fill="#c5c5c5"/></g><g data-name="Group 4399"><path data-name="Path 7284" d="M114.899 88.61v.858l-19.031 10.989v-.86z" fill="#c5c5c5"/></g><g data-name="Group 4400"><path data-name="Path 7285" d="M114.899 91.756v.854l-19.031 10.985v-.851z" fill="#c5c5c5"/></g><g data-name="Group 4401"><path data-name="Path 7286" d="M114.899 94.899v.851l-19.031 10.987v-.853z" fill="#c5c5c5"/></g><g data-name="Group 4402"><path data-name="Path 7287" d="M114.899 98.042v.856l-19.03 10.984v-.859z" fill="#c5c5c5"/></g><g data-name="Group 4403"><path data-name="Path 7288" d="M86.808 99.611v1.376l-27 15.588-.007-1.38z" fill="#c5c5c5"/></g><g data-name="Group 4404"><path data-name="Path 7289" d="M86.808 103.892v1.38l-27 15.588v-1.378z" fill="#c5c5c5"/></g><g data-name="Group 4405"><path data-name="Path 7290" d="M86.808 108.897v1.382l-27 15.587v-1.384z" fill="#c5c5c5"/></g><g data-name="Group 4406"><path data-name="Path 7291" d="M86.808 113.903v1.38l-27 15.588-.007-1.382z" fill="#c5c5c5"/></g><g data-name="Group 4415" style="isolation:isolate"><g data-name="Group 4412"><g data-name="Group 4411" clip-path="url(#a)" transform="translate(-187.492 -6154.518)" style="isolation:isolate"><g data-name="Group 4410" style="isolation:isolate"><g data-name="Group 4407"><path data-name="Path 7292" d="M305.722 6230.022a7.42 7.42 0 0 1 1.075-3.6 7.42 7.42 0 0 0-1.075 3.6" fill="red"/></g><g data-name="Group 4408"><path data-name="Path 7293" d="M306.8 6226.425a7.943 7.943 0 0 1 1.752-2.124 7.943 7.943 0 0 0-1.752 2.124" fill="#f99"/></g><g data-name="Group 4409"><path data-name="Path 7294" d="M308.549 6224.3a5.641 5.641 0 0 1 .817-.582 5.641 5.641 0 0 0-.817.582" fill="red"/></g></g></g></g><g data-name="Group 4414"><g data-name="Group 4413"><path data-name="Path 7296" d="M121.874 69.201c2.02-1.166 3.663-.224 3.67 2.093a8.033 8.033 0 0 1-3.644 6.315c-2.021 1.168-3.663.228-3.67-2.092a8.043 8.043 0 0 1 3.644-6.316z" fill="#55b7ce"/></g></g></g><g data-name="Group 4417"><g data-name="Group 4416"><path data-name="Path 7297" d="M119.989 62.677c.374-.22.708-.113.791.277l1.062 4.98a1.7 1.7 0 0 1-.62 1.459.891.891 0 0 1-.171.119c-.372.214-.71.114-.8-.278l-1.056-4.973a1.7 1.7 0 0 1 .616-1.466 1.3 1.3 0 0 1 .178-.118z" fill="#c5c5c5"/></g></g><g data-name="Group 4424" style="isolation:isolate"><g data-name="Group 4419"><g data-name="Group 4418"><path data-name="Path 7298" d="M118.576 47.956c3.727-2.15 6.758-.423 6.771 3.862a14.827 14.827 0 0 1-6.73 11.657c-3.726 2.149-6.759.424-6.772-3.863a14.83 14.83 0 0 1 6.731-11.656z" fill="red"/></g></g><g data-name="Group 4421"><g data-name="Group 4420"><path data-name="Path 7299" d="M112.648 44.295c.3-.174.585-.143.727.107l2.408 4.275a1.449 1.449 0 0 1-.369 1.456 1.556 1.556 0 0 1-.354.3c-.3.17-.59.144-.73-.106l-2.407-4.276a1.452 1.452 0 0 1 .37-1.46 1.421 1.421 0 0 1 .355-.296z" fill="#c5c5c5"/></g></g><g data-name="Group 4423"><g data-name="Group 4422"><path data-name="Path 7300" d="M110.791 36.098c2.022-1.166 3.663-.226 3.67 2.092a8.042 8.042 0 0 1-3.645 6.315c-2.02 1.164-3.664.229-3.67-2.088a8.035 8.035 0 0 1 3.645-6.319z" fill="#39b54a"/></g></g></g><g data-name="Group 4426"><g data-name="Group 4425"><path data-name="Path 7301" d="M145.047 42.87c2.021-1.164 3.665-.224 3.671 2.094a8.027 8.027 0 0 1-3.647 6.313c-2.019 1.165-3.662.231-3.671-2.089a8.055 8.055 0 0 1 3.647-6.318z" fill="#ffc255"/></g></g><g data-name="Group 4428"><g data-name="Group 4427"><path data-name="Path 7302" d="M93.857 76.151c2.019-1.169 3.661-.229 3.668 2.089a8.036 8.036 0 0 1-3.644 6.32c-2.02 1.167-3.664.23-3.671-2.1a8.043 8.043 0 0 1 3.647-6.309z" fill="#73d2ef"/></g></g><g data-name="Group 4439" style="isolation:isolate"><g data-name="Group 4432"><g data-name="Group 4431" clip-path="url(#b)" transform="translate(-187.492 -6154.518)" style="isolation:isolate"><g data-name="Group 4430"><g data-name="Group 4429" style="isolation:isolate"><path data-name="Path 7303" d="M287.342 6230.45a1.223 1.223 0 0 1-.326.26 1.223 1.223 0 0 0 .326-.26" fill="red"/></g></g></g></g><g data-name="Group 4436"><g data-name="Group 4435" clip-path="url(#c)" transform="translate(-187.492 -6154.518)" style="isolation:isolate"><g data-name="Group 4434"><g data-name="Group 4433" style="isolation:isolate"><path data-name="Path 7305" d="M287.016 6230.71c-.313.186-.608.149-.743-.128.135.277.43.314.743.128" fill="red"/></g></g></g></g><g data-name="Group 4438"><g data-name="Group 4437"><path data-name="Path 7307" d="M110.621 62.336c.312-.179.611-.138.745.131a1.5 1.5 0 0 1-.416 1.464l-11.1 12a1.223 1.223 0 0 1-.326.26c-.313.186-.608.149-.743-.128a1.49 1.49 0 0 1 .415-1.46l11.1-12a1.474 1.474 0 0 1 .325-.267z" fill="#c5c5c5"/></g></g></g><g data-name="Group 4450" style="isolation:isolate"><g data-name="Group 4443"><g data-name="Group 4442" clip-path="url(#d)" transform="translate(-187.492 -6154.518)" style="isolation:isolate"><g data-name="Group 4441"><g data-name="Group 4440" style="isolation:isolate"><path data-name="Path 7308" d="M328.689 6202.873a1.8 1.8 0 0 1-.792 1.211 1.8 1.8 0 0 0 .792-1.211" fill="red"/></g></g></g></g><g data-name="Group 4447"><g data-name="Group 4446" clip-path="url(#e)" transform="translate(-187.492 -6154.518)" style="isolation:isolate"><g data-name="Group 4445"><g data-name="Group 4444" style="isolation:isolate"><path data-name="Path 7310" d="M327.9 6204.084a1.136 1.136 0 0 1-.158.072 1.136 1.136 0 0 0 .158-.072" fill="red"/></g></g></g></g><g data-name="Group 4449"><g data-name="Group 4448"><path data-name="Path 7312" d="M126.683 52.492a1.085 1.085 0 0 1 .161-.075l13.715-4.785c.435-.15.725.172.638.723a1.8 1.8 0 0 1-.792 1.211 1.136 1.136 0 0 1-.158.072l-13.716 4.785c-.436.155-.72-.175-.638-.731a1.783 1.783 0 0 1 .79-1.2z" fill="#c5c5c5"/></g></g></g></g><g data-name="Group 4757" fill-rule="evenodd"><path data-name="Path 7988" d="M20.908 203.938c-6.251 0-11.319 2.936-11.319 6.557s5.068 6.556 11.319 6.556 11.319-2.935 11.319-6.556-5.064-6.557-11.319-6.557z" fill="#77749a"/><g data-name="Group 4755"><path data-name="Path 7989" d="M7.925 189.989c.55-.008 23.648-.077 25.766-.071-.005.477-.072.986-.115 1.462a46.461 46.461 0 0 1-.985 6.346l-.012.048a27.019 27.019 0 0 1-5.355 11.235 16.438 16.438 0 0 1-3.079 3 7.116 7.116 0 0 1-6.46.064 3.761 3.761 0 0 1-.621-.43 23.574 23.574 0 0 1-3.654-4.016 28.043 28.043 0 0 1-4.395-10.1 53.178 53.178 0 0 1-1.09-7.538z" fill="#cfe0e8"/><path data-name="Path 7990" d="M20.808 182.691c-6.825 0-12.357 3.121-12.357 6.971s5.532 6.971 12.357 6.971 12.357-3.121 12.357-6.971-5.53-6.971-12.357-6.971z" fill="#c4d9e3"/><path data-name="Path 7991" d="M20.808 184.596c-6.624 0-11.994 3.029-11.994 6.766 0 1.824 4.343 5.031 12.029 5.385s11.71-3.774 11.958-5.385c.007-3.737-5.366-6.766-11.993-6.766z" fill="#000e12"/><path data-name="Path 7992" d="M20.808 182.375c-7.12 0-12.892 3.343-12.892 7.467s5.772 7.468 12.892 7.468 12.892-3.343 12.892-7.468-5.772-7.467-12.892-7.467zm0 .52c6.624 0 11.993 3.03 11.993 6.767s-5.369 6.766-11.993 6.766-11.994-3.029-11.994-6.766 5.373-6.767 11.994-6.767z" fill="#fafeff"/></g><path data-name="Path 7993" d="M19.508 191.925c.033.4.6.72 1.3.72s1.271-.319 1.3-.72V170.151c-.02-.138-.21-.723-1.306-.746-.506-.011-1.264.26-1.306.746v21.737z" fill="#301a1a"/><g data-name="Group 4756"><path data-name="Path 7994" d="M20.808 144.353a20.811 20.811 0 1 0 20.81 20.81 20.811 20.811 0 0 0-20.81-20.81z" fill="#066e3e"/><path data-name="Path 7995" d="M.516 169.782a20.812 20.812 0 1 0 34.544-19.785A20.812 20.812 0 0 1 .516 169.782z" fill="#03542e"/><path data-name="Path 7996" d="M21.087 154.461c-9.583 1.295-18.061 3.375-19.463 13.866-2.444-16.209 11.163-23.137 19.2-22.98 4.861.095 7.224 1.577 7.64 3.282 1.165 4.795-4.28 5.414-7.377 5.832z" fill="#088048"/></g></g></g></svg>