<svg xmlns="http://www.w3.org/2000/svg" width="146.069" height="328.34" viewBox="0 0 146.069 328.34"><g data-name="Group 5348"><path data-name="Path 10120" d="M140.832 305.973l-55.377-27.211c-6.037-2.38-14.677-4.275-20.827-1.513-5.6 2.517-14.837 7.667-18.918 9.675-3.1 1.526-13.864 7.089-7.16 10.235 19.72 9.252 39.236 19.657 59.261 29.056 3.787 1.777 9.327 2.42 15.143 2a44.874 44.874 0 0 0 16.4-4.215q4.992-2.5 9.82-4.931c4.344-2.182 6.647-4.763 6.875-7.148.224-2.328-1.512-4.488-5.217-5.948z" fill="#231f20" fill-rule="evenodd" opacity=".1" style="mix-blend-mode:multiply;isolation:isolate"/><g data-name="Group 5330" fill-rule="evenodd"><path data-name="Path 10121" d="M35.724 97.371c-1.986.481-3.84-.188-5.617-.392-5.542-.633-9.75-.092-13.246 1.92-.847.487 2.4 9.376 6.264 12.191.185.134.433-.085.619-.157l3.609-1.145 9.766-3.268z" fill="#db9669"/><path data-name="Path 10122" d="M32.486 97.389c-3.545-.607-5.939-2.176-7.942-2.225-2.054-.051-5.009 1.607-8.731 1.984.682 3.711 5.555 1.288 7.329 1.628 1.632.312 1.725 2.295 3.248 2.337 2.398.066 5.855-1.091 6.096-3.724z" fill="#db9669"/><path data-name="Path 10123" d="M72.554 104.547c-15.742 2.729-23.554 1.93-39.465 3.472 1.749-6.059-1.5-11.481-3.936-12.065 13.453-2.8 29.768-7.281 43.662-7.228z" fill="#12a8b3"/><path data-name="Path 10124" d="M75.562 104.974c-15.742 2.729-24.285 1.814-40.2 3.356 2.242-6.448-1.176-12.9-3.991-13.458 13.453-2.8 29.768-7.282 43.662-7.228z" fill="#d2eefc"/><path data-name="Path 10125" d="M75.562 104.974c-15.742 2.729-24.285 1.814-40.2 3.356a13.279 13.279 0 0 0 .314-7.611c9.674-.568 26.593-4.093 39.083-6.227z" fill="#c3e6f7"/></g><g data-name="Group 5332" fill-rule="evenodd"><g data-name="Group 5331"><path data-name="Path 10126" d="M76.918 270.522c-1.135 3.985-1.42 6.042-3.075 8.362-3.3 4.625-8.169 7.928-15.255 12.952-3.371 2.39-4.083 4.655-.669 6.739 2.688 1.64 9.265.337 13.373-.63 7.708-1.813 10.825-6.452 13.461-7.658l2 .452c1.634.029 8.058-2.564 9.311-4.242a45.887 45.887 0 0 0 1.005-5.974c.238-6.525-.785-5.861-2.53-10.964-5.934.427-11.677.763-17.621.963z" fill="#111214"/><path data-name="Path 10127" d="M55.685 295.586c-.034 1.031.662 2.028 2.234 2.987 2.688 1.64 9.265.337 13.373-.63 7.708-1.813 10.825-6.452 13.461-7.658l2 .452c1.634.029 8.058-2.564 9.311-4.242a45.887 45.887 0 0 0 1.005-5.974c.238-6.525-.785-5.861-2.53-10.964-2.625.19-5.213.361-7.8.51-.468 4.295.159 11.7-3.376 14.461-3.952 3.083-7.036 3.9-9.678 5.51-8.415 5.115-13.974 9.272-18 5.548z"/><path data-name="Path 10128" d="M75.048 277.845c.84 1.242 2.494 1.942 5.227 2.622-4.409 4.97-5.029 4.5-10.952 7.833-2.982 3.409-3.4 4.055-5.3 5.156-2.273 1.312-5.483 2.662-6.832 1.692-.581-.417.2-1.584 2.7-3.4 2.84-2.058 5.73-4.143 8.345-6.318a30.815 30.815 0 0 0 6.812-7.585z" fill="#20232e"/></g><path data-name="Path 10129" d="M98.988 161.522a95.24 95.24 0 0 0 .842-15.226c-4.8-1.921-9.854-3.738-14.724-5.869l.348-.294c-5.162-2.422-9.611-6.185-15.564-9.6-2.49 7.842-3.413 11.354-3.224 17.734a195.91 195.91 0 0 0 2.789 25.221c.869 12.921 2.031 26.4 2.868 35.226 2.137 22.508 1.875 44.713 3.222 67.183 2.789 4.577 16.245 4.858 20.841-1.576.688-17.776 1.8-31.811 1.3-41.537-.419-8.1-.8-12.761-3.422-19.957 1.742-11.981 4.089-34.023 4.724-51.305z" fill="#001624"/><path data-name="Path 10130" d="M121.431 294.142c.985 2.879 1.886 5.11 1.794 6.921-.095 1.875-.607 3.7-.583 6.07.021 2.034.125 3.763.36 6.064.241 2.355-.005 3.469-1.038 4.41-1.678 1.528-6.68 3.893-9.05 4.7a9.519 9.519 0 0 1-4.149.558 18.463 18.463 0 0 1-5.561-1.014c-.511-.192-1.036-2.178-1.073-3.9-.078-3.6.25-3.3 1.741-9.014.51-1.952.922-3.814 1.623-6.094.873-2.839 1.959-5.338 2.071-8.132l10.557-.412z" fill="#111214"/><path data-name="Path 10131" d="M121.431 294.142c.985 2.879 1.886 5.11 1.794 6.921-.095 1.875-.607 3.7-.583 6.07.021 2.034.125 3.763.36 6.064.241 2.355-.005 3.469-1.038 4.41-1.678 1.528-6.68 3.893-9.05 4.7a9.519 9.519 0 0 1-4.149.558 18.463 18.463 0 0 1-5.561-1.014c-.463-.174-.937-1.818-1.049-3.4h.028c3.227 1.1 6.358 1.54 9.457.026 6.544-3.2 5.692-5.851 5.077-13.394-4.257-.749-5.93-1.508-8.09-3.839 3.629 1.067 7.531 1.257 9.461-.96l.6-6z"/><path data-name="Path 10132" d="M83.307 212.753c4.412 20.854 5.53 35.568 2.712 66.439 4.061-.3 8.2-1.842 10.367-4.876.688-17.776 1.8-31.811 1.3-41.537-.419-8.1-.8-12.761-3.422-19.957 2.244-15.4 5.483-47.437 4.8-64.612l-9.216-3.687c-2.799 25.412-4.562 38.516-6.541 68.23z" fill="#00101a"/><path data-name="Path 10133" d="M92.848 170.669c1.7 17.318 5.034 41.389 6.969 53.68 3.517 22.335 4.066 48.522 6.041 70.946 3.052 4.773 14.548 5.756 18.95-.182.192-17.788 1.806-37.7 1.031-47.411a61.328 61.328 0 0 0-4.808-20.1c.442-13.862 7.676-70.813-1.879-81.987a8.374 8.374 0 0 0-1.8-2.53l-13.92-1.087-16.512-1.922a47.863 47.863 0 0 0 .119 19.608 3.118 3.118 0 0 0 .372.809c.158 1.169.366 2.346.632 3.525.246 1.077 2.89 4.104 4.805 6.651z" fill="#001e30"/><path data-name="Path 10134" d="M107.962 159.232c1.9 4.389 3.36 11.75 3.447 19.11.239 10.542 1.022 35.464 2.023 47.327 1.962 23.256 6.393 42.639 2.884 73.522 3.321-.221 6.58-1.494 8.495-4.078.192-17.788 1.806-37.7 1.031-47.411a61.328 61.328 0 0 0-4.808-20.1c.451-14.137 7.968-73.093-2.464-82.6l-15.9-1.088c2.043 5.898 2.692 9.298 5.292 15.318z" fill="#001624"/><path data-name="Path 10135" d="M107.017 301.815c3.055 2.409 1.985 3.463 6.444 4.045-1.1 4.409-1.241 4.623-3.475 8.691-.18 1.68-.315 3.885-3.588 3.906-6.109.039-1.87-5-1.849-5.194a50.5 50.5 0 0 1 2.468-11.448z" fill="#20232e"/><path data-name="Path 10136" d="M70.487 135.513a43.115 43.115 0 0 0 11.506 8.081c.017 7.884.012 22.485-.283 37.078-.031 8.631-.171 17.422-.544 24.739-.013.355-.024.711-.035 1.067.734 6.074 3.581 9.5 3.938 18.629.4 10.173-.921 27.214-2.723 38.344.058 4.885.09 9.754.05 14.608a9.573 9.573 0 0 1-6.469-2.673l-.361-55.277c-.348-8.809-1.7-22-2.793-35.558-2.311-16.199-4.549-34.992-2.286-49.038z" fill="#001e30"/><path data-name="Path 10137" d="M102.094 148.014l.04.012a256.689 256.689 0 0 0 7.453 25.433c2.03 17.585 1.513 36.772 1.757 50.329 1.83 24.8 3.9 49.657 5.141 74.491-2.258-.2-7.263-1.2-8.463-2.292-1.354-20.223-1.114-48.741-3.634-67.747-.514-3.881-4.26-36.841-8.776-55.518-1.513-6.257-5.841-6.14-6.717-9.738-1.9-7.806-1.94-11.37-1.159-19.848 4.747 1.786 9.478 3.486 14.358 4.878z" fill="#00263d"/></g><path data-name="Path 10138" d="M69.745 131.098a2.525 2.525 0 0 0 .454 1.1c5.1 7.114 37.131 17.836 43.832 17.28-5.317-46.246 43.114-85.614-8.778-100.859l-14.929 8.219-5.343-.959-.684-6.575c-7.225 7.185-10.566 16.7-11.852 29.94-1.683 17.316 1.953 32.852-2.7 51.854z" fill="#12a8b3" fill-rule="evenodd"/><path data-name="Path 10139" d="M80.872 37.408c-5.557-.352-8.055.809-10.983 5.174-5.118 7.628-5.917 23.869-5.556 38.505.2 8.291 1.517 15.581 1.62 25.884.062 6.28-.878 14.988-1.737 23.748-.83 8.464-1.587 66.473-1.291 72.893 1.122 2.416 9.045 6.475 10.089 6.271-.566-7.258-.906-65.4-1.007-74.733-.08-7.422-.011-15.279.213-23.216.492-17.4 1.71-35.2 4.961-48.416 4.768-19.387 12.987-21.486 12.142-24.1-.17-.527-8.133-1.99-8.451-2.01z" fill="#d2eefc" fill-rule="evenodd"/><path data-name="Path 10140" d="M103.462 114.807a87.73 87.73 0 0 0-.233 8.265c7.991-7.28 15.5-16.593 22.5-26.676 3.588-10.094 6.836-20.22 6.768-27.4z" fill="#11101a" fill-rule="evenodd"/><path data-name="Path 10141" d="M84.534 45.169c-8.712 6.919-14.3 32.464-14.145 49.684.143 15.548.1 27.06.4 39.479.182 7.475.491 64.774 1.041 73.987a21.336 21.336 0 0 1-8-5.089c.291-6.917.869-63.313 1.453-70.2 1.168-13.774 2.367-27.491 1.355-41.16-1.292-17.459-2.4-41.32 7.752-51.3 6.504-3.5 8.606 2.984 10.144 4.599z" fill="#e0f5ff" fill-rule="evenodd"/><g data-name="Group 5335" fill-rule="evenodd"><g data-name="Group 5333"><path data-name="Path 10142" d="M69.053 118.189c-2.066-2.254-2.639-2.818-4.548-3.461l-1.433 18.631c.959 1.514 4.117 2.769 5.078 2.382z" fill="#d2eefc"/><path data-name="Path 10143" d="M69.053 118.189c-2.066-2.254-2.639-2.818-4.548-3.461-.2 5.291-.325 5.123 1.241 6.983 2.8 3.323 1.727 3.547 1.816 14.17a1.966 1.966 0 0 0 .588-.14z" fill="#c3e6f7"/><path data-name="Path 10144" d="M64.344 120.987l2.5 3.974-.225 10.244a5.346 5.346 0 0 1-3.056-2.244z" fill="#e0f5ff"/></g><g data-name="Group 5334"><path data-name="Path 10145" d="M69.81 113.765c-2.311-1.018-3.258-1.944-5-2.551l-.807 7.151c.42 1.177 3.34 3.394 5.092 1.8z" fill="#d2eefc"/><path data-name="Path 10146" d="M69.81 113.765c-2.311-1.018-3.258-1.944-5-2.551 1.344 2.556 4.309 2.977 3.7 9.333a2.128 2.128 0 0 0 .586-.381z" fill="#c3e6f7"/><path data-name="Path 10147" d="M64.898 112.222a15.857 15.857 0 0 1 2.969 7.76c-1.61-.112-2.117-.522-3.473-1.958.059-1.916.279-3.702.504-5.802z" fill="#e0f5ff"/></g></g><path data-name="Path 10148" d="M93.324 144.367c8.879 3.157 17.569 5.37 20.707 5.109-5.317-46.246 43.114-85.614-8.778-100.859l-14.929 8.219-5.343-.959-.684-6.575a34.932 34.932 0 0 0-7.437 10.957l.428.47c3.9-1.234 5.943-2.813 7.952-1.925 1.656.732 3.551 3.338 4.135 7.473 2.354-.589 6.844-2.278 9.177-2.945-8.649 12.9-16.716 40.617-10.663 69.562.753 3.597 3.814 7.758 5.435 11.473z" fill="#06929c" fill-rule="evenodd"/><path data-name="Path 10149" d="M121.554 54.679c-2.789-1.547-8.473-5.029-14.6-8.452 5.161 6.184-7.3 21.051-13.089 39.59-3.652 11.7-4.923 33.353-2.04 46.243 2.176 9.729 7.642 9.615 14.34 16.583 3.123 3.248 4.159 7.308 5.759 11.374 3.767 9.578-1.853 52.927-.888 61.179 1.983-.455 14-5.546 16-9.83-1.047-16.914.166-53.511-3.075-62.655-3.008-8.488-6.414-12.6-6.807-21.362-.518-11.551 15.786-42.351 15.635-58.295-.067-7.078-6.027-11.485-11.235-14.375z" fill="#d2eefc" fill-rule="evenodd"/><path data-name="Path 10150" d="M121.554 54.679l-14.2-7.874c2.118 3.4 7.768 7.043 13.86 12.186a27.837 27.837 0 0 0-7.87 13.9c-3.208 12.679-8.111 29.365-8.953 40.959-1.517 20.891 5.336 28.914 9.98 38.49 2.239 4.618 1.142 59.972 1.17 66.928 3.8-.54 10.594-5.948 11.537-7.89-.614-14.926 2.219-51.221-4.272-65.567-2.657-5.87-5.085-10.14-5.655-18.459-.791-11.535 15.786-42.351 15.635-58.295-.064-7.081-6.024-11.488-11.232-14.378z" fill="#c3e6f7" fill-rule="evenodd"/><path data-name="Path 10151" d="M84.969 41.259c-5.189 2.42-6.9 3.383-10.506 8.953l3.151 2.192-4.383 1.849c-1.579 16.085-3.236 33.978-1.3 50.283a202.209 202.209 0 0 1 7.52-45.6c1.524-5.126 3.63-7.327 6.988-12.36.55-.831-.495-5.772-1.47-5.317z" fill="#ebf9ff" fill-rule="evenodd"/><g data-name="Group 5336" fill-rule="evenodd"><path data-name="Path 10152" d="M118.15 128.793c-6.7 1.974-8.52 2.569-13.908 5.5l7.9 14.956c4.23.339 9.353-1.839 13.362-5.308z" fill="#d2eefc"/><path data-name="Path 10153" d="M118.15 128.793c-6.7 1.974-8.52 2.569-13.908 5.5 2.393 4.447 1.985 4.532 7.143 3.154 9.216-2.464 6.764-.537 12.891 7.49.27.353.829-.651 1.228-1z" fill="#c3e6f7"/><path data-name="Path 10154" d="M116.995 126.937c-6.731 2.01-9.873 2.482-14.822 4.1l3.369 5.879c1.98.318 11.189-1.578 14.488-4.731z" fill="#d2eefc"/><path data-name="Path 10155" d="M116.995 126.937c-6.731 2.01-9.873 2.482-14.822 4.1 5.409.187 13.37-3 16.639 2.1a8.545 8.545 0 0 0 1.218-.949z" fill="#c3e6f7"/><path data-name="Path 10156" d="M107.289 139.408l8.787-1.423 6.126 7.173a30.281 30.281 0 0 1-9.083 3.593z" fill="#e0f5ff"/><path data-name="Path 10157" d="M103.162 131.637c4.287-.1 10.3-.269 13.561 1.869a30.967 30.967 0 0 1-10.438 2.724 24.447 24.447 0 0 1-3.123-4.593z" fill="#e0f5ff"/></g><path data-name="Path 10158" d="M85.518 64.231c.429 1.914.7 3.538.973 5.479-5.35 15.517-8.205 28.646-11.344 46.983-.381-18.76.551-33 4.618-52.53a12.491 12.491 0 0 1 3.678-1.295 5.926 5.926 0 0 1 1.25-.007z" fill="#041e2e" fill-rule="evenodd"/><path data-name="Path 10159" d="M110.015 52.616l6.815 5.582c-7.176 11.812-15.9 34.909-16.169 57.324-.128 10.81.72 20.559 6.65 30.408-19.692-7.118-16.581-35.954-10.761-57.961 3.958-14.965 10.762-25.798 13.465-35.353z" fill="#e0f5ff" fill-rule="evenodd"/><path data-name="Path 10160" d="M106.924 44.235a28.806 28.806 0 0 1 3.648 5.748c2.035 4.947 1.776 12.69-.671 21.255l-4.98-1.848 2.4 5.425c-10.009 13.078-15.61 32.559-16.385 52.564-6.499-52.009 17.826-64.947 15.988-83.144z" fill="#ebf9ff" fill-rule="evenodd"/><path data-name="Path 10161" d="M89.845 58.345c-.873 3.647-1.006 3.591-4.4 6.163l-2.194-1.164c-1.028-4.209-.52-6.932.323-7.431 2.94-.108 4.165.24 6.271 2.432z" fill="#041e2e" fill-rule="evenodd"/><g data-name="Group 5337" fill-rule="evenodd"><path data-name="Path 10162" d="M2.999 63.509l37.637 20.6 29.042 56.708-38.736-23.062z" fill="#380303"/><path data-name="Path 10163" d="M2.999 63.509l-3 .79 27.283 52.452 3.659 1z" fill="#380303"/><path data-name="Path 10164" d="M3.468 64.788l36.633 20.093 27.656 54.14-2.17 1.11L.912 65.389z" fill="#e6e6e6"/><path data-name="Path 10165" d="M3.171 64.222L40.1 84.877l-5.736 3.4L.616 64.827z" fill="#f5f5f5"/><path data-name="Path 10166" d="M.012 64.285l37.883 21.251 28.8 56.054-38.737-23.062z" fill="#380303"/><path data-name="Path 10167" d="M21.095 99.215c-4.033-.74-4.029-1.717-4.269-.35-.35 2 2.434 9.41 6.3 12.225a19.125 19.125 0 0 0 4.06.664c1.148-.041 1.077-.655.456-2.266l-2.755-7.146c-.915-2.135-1.31-2.671-3.792-3.127z" fill="#db9669"/></g><path data-name="Path 10168" d="M97.862 164.212c-.65 1.581-.149 9.734 7.005 6.122 5.7-2.879 8.132-3.376 10.073-6.479 1.427-2.28 1.1-4.673 3.644-7.106l-6.778-6.2c-2.2 3.463-3.828 1.879-6.823 3.551-3.302 1.842-4.776 4.413-7.121 10.112z" fill="#f1b287" fill-rule="evenodd"/><g data-name="Group 5338" fill-rule="evenodd"><path data-name="Path 10169" d="M103.283 148.487c.492 6.8 1.959 15.082 6.2 20.206l.465 9.208c-5.378.7-9.214-5.934-10.982-6.547-1.563-.543-5.818-11.012-4.6-16.966.9-4.4 3.193-4.954 6.036-6.4a16.772 16.772 0 0 0 2.881.499z" fill="#00263d"/><path data-name="Path 10170" d="M104.327 148.179c.491 6.8 2.92 14.9 7.161 20.023l-2.032 1.1c-5.832-5.507-7.457-15.476-6.722-21.421.387.107 1.219.205 1.593.298z" fill="#001624"/></g><path data-name="Path 10171" d="M85.239 56.122c-.367-.936-.555-2.867-.951-4.548a19.758 19.758 0 0 0-1.255-3.538c-2.053.261-2.951 6.462-4.7 10.124 2.705-1.876 3.878-2.038 6.906-2.038z" fill="#1abac6" fill-rule="evenodd"/><path data-name="Path 10172" d="M84.687 55.643c-1.261-3.374-2.068-4.011-2.475-3.829-.392.174-1.405.14-3.322 5.541a7.914 7.914 0 0 1 5.797-1.712z" fill="#1bd3e0" fill-rule="evenodd"/><path data-name="Path 10173" d="M104.38 43.222c.412 6.632-12.179 11.242-19.207 12.914 1.764 2.128 4.042 4.8 3.951 6.93 5.067-1.386 13.661-3.77 17.143-10.249 2.381-4.434.422-7.835-1.887-9.595z" fill="#1abac6" fill-rule="evenodd"/><path data-name="Path 10174" d="M93.249 54.274a75.617 75.617 0 0 1-7.1 2.072c1.5 1.815 3.447 4.1 3.37 5.91a26.353 26.353 0 0 0 6.552-2.736c3.237-1.886 2.051-6.934-2.822-5.246z" fill="#1bd3e0" fill-rule="evenodd"/><g data-name="Group 5339" fill-rule="evenodd"><path data-name="Path 10175" d="M116.578 162.122c-4.35-2.591-5.941-5.836-7.349-9.766a15.314 15.314 0 0 0 2.88-2.552l7.413 8.665a15.123 15.123 0 0 0-2.944 3.653z" fill="#12a8b3"/><path data-name="Path 10176" d="M116.578 162.122a15.747 15.747 0 0 1-3.3-2.574c.552-.506.642-.655 1.182-1.176-1.1-1.114-4.441-6.474-3.693-7.243l8.758 7.34a15.123 15.123 0 0 0-2.947 3.653z" fill="#06929c"/><path data-name="Path 10177" d="M129.301 61.276a33.348 33.348 0 0 1 2.3 3.784c5.669 10.986 11.614 33.074 12.938 46.61.328 3.356 1.087 5.142.805 7.336-.573 4.471-11.5-1.072-15.763 1.849-4.106-8.954-6.307-18.082-17.079-37.25-3.851-6.854 4.817-27.733 16.799-22.329z" fill="#d2eefc"/><path data-name="Path 10178" d="M129.301 61.276a33.348 33.348 0 0 1 2.3 3.784c5.669 10.986 11.614 33.074 12.938 46.61.328 3.356 1.087 5.142.805 7.336-.321 2.507-3.9 1.865-7.733 1.333.771-1.953.542-2.289-.25-5.9-4.013-18.31-10.19-35.118-16.218-52.948 1.692-1.112 3.333-2.662 5.611-2.115a7.823 7.823 0 0 1 2.547 1.9z" fill="#c3e6f7"/><path data-name="Path 10179" d="M141.962 110.445c1.905 3.468 3.962 5.174 3.252 9.435-.3 1.825-1.539 3.676-2.456 5.955-4.009 9.962-13.173 23.678-23.278 33.361-3.463.017-8.439-6.113-9.189-9.433 4.585-10.955 11.691-18.792 17.528-28.845a49.734 49.734 0 0 1 3.141-5.258z" fill="#d2eefc"/><path data-name="Path 10180" d="M141.962 110.445c1.905 3.468 3.962 5.174 3.252 9.435-.3 1.825-1.539 3.675-2.456 5.955-4.009 9.962-13.173 23.678-23.278 33.36-1.534.008-3.363-1.19-4.992-2.815 7.175-11.536 14.419-22.408 22.137-33.684 1.847-4.407 1.77-3.551.739-8.259q-.18-.822-.366-1.639z" fill="#c3e6f7"/><path data-name="Path 10181" d="M112.209 153.651a12.185 12.185 0 0 1-1.921-3.888c4.585-10.955 11.691-18.792 17.528-28.845.393-.676.709-1.253 1-1.783-3.656-8.441-6.229-17.586-16.313-35.53-2.476-4.407.223-14.608 5.65-19.9 5.818 17.7 10.173 33.672 15.4 51.312 1.468 4.958 1.181 4.269-3.13 11.077-5.546 9.028-12.897 19.706-18.214 27.557z" fill="#e0f5ff"/></g><g data-name="Group 5347"><g data-name="Group 5340" fill-rule="evenodd"><path data-name="Path 10182" d="M85.546 55.759c-.51-.449-1.047-.873-1.6-1.348-1.58-1.356-3.617-4.953-6.933-8.341l11.911-15.651 2.373-3.67c2.093 6.612 9.054 13.2 13.084 16.469 3.351 5.604-17.266 13.922-18.835 12.541z" fill="#e8a476"/><path data-name="Path 10183" d="M100.712 44.229c-6.84 1.173-9.905 6.174-18.409 8.327a66.042 66.042 0 0 0-5.291-6.486l11.911-15.651 2.373-3.67c2.093 6.611 4.783 9.748 8.813 13.019a6.227 6.227 0 0 1 .603 4.461z" fill="#db9669"/></g><g data-name="Group 5346"><g data-name="Group 5344" fill-rule="evenodd"><path data-name="Path 10184" d="M82.239 50.467c1.609-1.991 5.917-7.309 7.233-9.376 2.79-4.381-.3-8.144 2.377-13.907 2.885-3.854 2.6-6.176 2.172-8.675A17.4 17.4 0 0 0 83.297 5.326a15.816 15.816 0 0 0-13.9 1.479c-8.443 4.869-10.568 13.411-8.284 21.262.115.394-.143.932-.043 1.33a5.638 5.638 0 0 0 .822 1.966c1.042 1.494.81.833 1.287 1.981.58 1.394.17 2.868.921 4.606 1.278 2.956 2.609 4.482 4.478 7.607.671 1.122 1.617 2.354 2.193 3.532 1.02 2.084 1.652 2.907 2.132 3.116a7.3 7.3 0 0 0 2.7.449 10.9 10.9 0 0 0 4.391-.667 9.02 9.02 0 0 0 2.245-1.52z" fill="#f1b287"/><path data-name="Path 10185" d="M62.511 22.169c-.965.584-2.35.614-2.029 3.084-1.263-3.636-.546-4.439 1.322-5.89z" fill="#d5a550"/><path data-name="Path 10186" d="M77.327 19.704c5.9-4.125 10.385-12.4 10.434-16.132 7.077 4.74 11.24 14.121 9.02 22.448a20.325 20.325 0 0 0 .447 11.078 24.164 24.164 0 0 1-4.606-5.243l-4.33-5.937-.484-.237c.056.949.192 3.307.289 4.265-.393.219-1.351 0-2.094-.017-2.123-6.387-4.411-9.79-8.676-10.225z" fill="#d5a550"/><path data-name="Path 10187" d="M77.062 19.771c-4.556 2.045-11.306 3.869-16.593 3.124-.336-.047-.616-.354-.8-.819-.961-5.764 3.972-13.6 6.18-15.939a17.774 17.774 0 0 1 5.781-4.189c5.746-2.537 13.2-3.034 16.112 1.58 1.046 2.836-4.931 13.662-10.68 16.243z" fill="#d5a550"/><g data-name="Group 5341"><path data-name="Path 10188" d="M76.752 19.652c-6.894 3.094-17.219 4.917-23.3 1.766 6.464-2.428 8.259-15.095 18.169-19.47 5.746-2.537 13.2-3.034 16.112 1.58-.466 3.344-5.232 13.543-10.981 16.124z" fill="#fec25c"/><path data-name="Path 10189" d="M77.178 19.785c-6.893 3.094-17.645 4.784-23.722 1.633.021-.007.041-.017.063-.025 7.563-.237 12.4-2.978 16.874-6.7a6.95 6.95 0 0 1-2.924.149c5.1-2.5 8.642-4.163 11.452-9.205a9.68 9.68 0 0 1-3.319 2.1c2.2-2.022 3.469-5.417 7.514-7.332a7.08 7.08 0 0 1 4.809 3.25c-.075 3.633-4.999 13.549-10.747 16.13z" fill="#d5a550"/><path data-name="Path 10190" d="M88.228 4.091c1.154.874 4.132 3.362 5.058 5.843-1.31-1.154-2.405-2.237-4.333-2.656 2.524 1.393 4.2 3.906 5.045 7.567-1.565-2.7-2.713-4.093-5.532-4.524 2.943 1.9 5.187 7.165 5.573 9.772-1.971-2.944-4.569-7.014-7.694-6.44 2.928 1.648 3.472 3.152 3.943 6.153-1.812-2.614-3.5-3.7-5.968-3.695 1.352 2.542 3.175 7.636 1.915 11.189-.346-1.1-2.8-8.449-4.637-8.654A5.457 5.457 0 0 1 83.18 21.9a6.49 6.49 0 0 0-4.868-2.357c5.205-3.121 10.178-12.239 9.916-15.452z" fill="#fec25c"/><path data-name="Path 10191" d="M81.774.131c-3.836-.6-9.129.964-12.416 3.006-2.788 1.734-4.91 4.463-7.157 6.477a7.963 7.963 0 0 0 2.087-1.087c-3.839 3.817-5.366 9.991-10.753 12.835a11.669 11.669 0 0 0 6.058-3.694 15.783 15.783 0 0 1-1.69 2.427c5.276-2.435 7.081-7.04 10.765-11.2a6.481 6.481 0 0 1-1.82 3.242C71.267 8.493 73.616 2.022 81.774.131z" fill="#fec25c"/></g><g data-name="Group 5343"><path data-name="Path 10192" d="M89.051 22.637c3.076-2.771 4.883 1.378 5.406 4.139.359 1.9-1.127 2.382-1.058 3.972a3.556 3.556 0 0 1-1.953 3.63c-2.218.88-2.258-2.958-2.552-4.363-1.163-2.01-1.795-5.62.157-7.378z" fill="#e8a476"/><g data-name="Group 5342" fill="#db9669"><path data-name="Path 10193" d="M93.204 25.601c-.97-2.445-1.464-2.474-2.392-2.312-1.142.2-1.6 3.12-1.347 3.889.424-.44 1.152-1.027 1.779-.624a1.6 1.6 0 0 0-1.017.626c-.253.277-.325.737-.8.9a2.539 2.539 0 0 1-.347-1.306c-.083-1.61.272-3.674 1.748-3.9.753-.107 1.82.188 2.376 2.727z"/><path data-name="Path 10194" d="M90.729 29.734c-.027-.456-.5-.958-.008-1.689a1.3 1.3 0 0 0-.908 1.238c0 .6.2.986.327 1.02.091.025.636.237.589-.569z"/></g></g></g><g data-name="Group 5345"><path data-name="Path 10195" d="M70.217 31.586a1.059 1.059 0 0 0-.807 1.556l2.191 3.924a1.05 1.05 0 0 0 1.02.524 32.706 32.706 0 0 0 6.712-1.411 1.063 1.063 0 0 0 .631-1.522l-2.258-4.045a1.052 1.052 0 0 0-1.253-.473 34.788 34.788 0 0 1-6.236 1.447zm-9.471-1.558l3.3 5.907.048-.026a5.561 5.561 0 0 0 3.306 1.472 1.066 1.066 0 0 0 1.124-1.554l-2.019-3.615a1.045 1.045 0 0 0-.816-.524c-2.026-.2-4.063-.643-4.893-1.687z" fill="#e9f5f5" fill-rule="evenodd" opacity=".5"/><path data-name="Path 10196" d="M70.248 31.855a.791.791 0 0 0-.691.866.759.759 0 0 0 .094.286l2.191 3.925a.768.768 0 0 0 .316.3.813.813 0 0 0 .442.084 27.687 27.687 0 0 0 3.193-.489 37.532 37.532 0 0 0 3.461-.911.814.814 0 0 0 .507-.46.775.775 0 0 0 .027-.517.8.8 0 0 0-.065-.152l-2.258-4.045a.759.759 0 0 0-.4-.339.806.806 0 0 0-.535-.011c-1.112.36-2.2.662-3.242.9a30.811 30.811 0 0 1-3.045.555zm2.929-1.082a39.034 39.034 0 0 0 3.194-.891 1.355 1.355 0 0 1 .9.018 1.286 1.286 0 0 1 .674.577l2.258 4.045a1.295 1.295 0 0 1 .062 1.137 1.369 1.369 0 0 1-.593.667 1.491 1.491 0 0 1-.261.112c-1.2.375-2.38.684-3.515.923a28.408 28.408 0 0 1-3.256.5 1.358 1.358 0 0 1-.744-.143 1.29 1.29 0 0 1-.538-.517l-2.191-3.925a1.289 1.289 0 0 1-.156-.486 1.311 1.311 0 0 1 .143-.755 1.343 1.343 0 0 1 1.031-.719 29.941 29.941 0 0 0 2.99-.543zm-11.588.2l2.428 4.35a2.2 2.2 0 0 0 .292.42 3.082 3.082 0 0 0 1.239.846 9.3 9.3 0 0 0 1.9.529.757.757 0 0 0 .513-.084.812.812 0 0 0 .4-.547.755.755 0 0 0-.084-.521l-2.019-3.616a.753.753 0 0 0-.25-.266.793.793 0 0 0-.356-.122 15.3 15.3 0 0 1-2.949-.537 6.306 6.306 0 0 1-1.118-.452zm4.128.45a1.341 1.341 0 0 1 .6.205 1.3 1.3 0 0 1 .429.453l2.018 3.615a1.267 1.267 0 0 1 .138.888 1.357 1.357 0 0 1-.235.533 1.371 1.371 0 0 1-.437.39 1.314 1.314 0 0 1-.884.144 9.773 9.773 0 0 1-2.019-.563 4.091 4.091 0 0 1-1.155-.7 2.57 2.57 0 0 1-.437-.589l-3.365-5.877.5-.268.143.182a3.789 3.789 0 0 0 1.866 1.071 14.913 14.913 0 0 0 2.838.515z" fill="#292424" fill-rule="evenodd"/><path data-name="Path 10197" d="M69.626 33.547a3.958 3.958 0 0 1-1.112.29 2.708 2.708 0 0 1-.986-.075l-.143.522a3.249 3.249 0 0 0 1.183.091 4.547 4.547 0 0 0 1.263-.327z" fill="#292424" fill-rule="evenodd"/><path data-name="Rectangle 54" d="M78.727 32.359l5.841-6.571.404.358-5.842 6.572z"/></g></g></g></g></svg>