<svg xmlns="http://www.w3.org/2000/svg" width="156.437" height="337.977" viewBox="0 0 156.437 337.977"><g data-name="Group 10012"><path data-name="Path 10198" d="M5.514 310.683l58.3-33.207c6.356-2.9 15.453-5.215 21.929-1.845 5.9 3.071 15.62 9.356 19.918 11.806 3.264 1.862 14.6 8.651 7.538 12.489-20.762 11.29-41.31 23.988-62.393 35.457-3.988 2.169-9.821 2.953-15.945 2.444a42.2 42.2 0 0 1-17.267-5.143q-5.256-3.056-10.34-6.018c-4.573-2.662-7-5.811-7.238-8.722-.231-2.845 1.597-5.48 5.498-7.261z" fill="#231f20" fill-rule="evenodd" opacity=".1" style="mix-blend-mode:multiply;isolation:isolate"/><g data-name="Group 5367"><g data-name="Group 5352" fill-rule="evenodd"><g data-name="Group 5350"><g data-name="Group 5349"><path data-name="Path 10199" d="M146.824 43.354c2.063 2.068-1.794 3.746-2.98 4-1.868.549-4.743.007-5.216 1.39-.531 1.551-9.93.013-9.848-.093a12.662 12.662 0 0 1 7.116-3.8c2.428-.221 6.192.421 8.065-.224.818-.277 1.576-.713 2.863-1.273z" fill="#f1b287"/><path data-name="Path 10200" d="M147.23 43.882c1.017 1.838-2.721 3.365-3.8 3.6-2.748.508-2.524.217-4.127 1.179-.694.416-3.8-.05-2.8-1.365.245-.324 3.552-.384 4.309-.646 1.718-.464 4.454-.329 6.418-2.768z" fill="#e8a476"/></g><path data-name="Path 10201" d="M126.46 49.724c.068-.047.231-.189.3-.226 1.136-.581 2.914.247 4.162 1.892 1.495 1.964 2.291 4.927.773 6.013-1.965 1.411-7.275-4.15-5.235-7.679z" fill="#124f6b"/><path data-name="Path 10202" d="M122.93 55.073c1.734-2 3.738-4.786 5.653-6.407 3.092-2.619 4.854-2.955 12.938-.773 1.984.536 1.47.565 3.38-.226l7.418-3.392c1.87-.532 3.18-.375 3.626.171.495.607.772 4.659.045 6.46-.306.756-.288.11-1.1.32l-10.853 5.127a2.512 2.512 0 0 1-2.247.236c-5.471-1.607-9.011-3.059-13.956.665-.855.645-1.86 1.614-3.206 2.521z" fill="#f1b287"/><path data-name="Path 10203" d="M123.643 58.902a67.525 67.525 0 0 0 3.078-2.224c4.427-3.333 5.289-3.984 15.831-1.022l9.343-4.983c1.87-.532 3.461-.862 3.908-.316.7.864-.584 2.074-3.32 2.784l-9.7 5.361-.478-.135c-9.724-2.756-10.382-2.26-13.976.448-.856.643-1.86 1.4-3.2 2.306z" fill="#e8a476"/></g><g data-name="Group 5351"><path data-name="Path 10204" d="M101.256 89.185c-1.31 1.653-2.28 2.414-3.556 2.686-2.287.487-5.1-1.013-7.338-2.174-6.942-3.6-18.751-18.733-30.713-42.116 1.255-.224 9.954-4.7 10.956-5 3.611-1.076 5.751 1.49 7.557 3.8 2.346 3 3.92 7.488 6.393 12.352 2.219 4.367 8.328 9.032 11.629 14.664z" fill="#12a8b3"/><path data-name="Path 10205" d="M126.777 49.477c-1.391 2.332.922 7.764 4.85 7.989-9.33 13.43-18.361 24.6-31.716 33.486a5.3 5.3 0 0 1-3.917.971c-2.219-.319-4.167-2.7-6.069-4.66l5.954-13.411c4.677-6.19 20.183-16.854 30.898-24.375z" fill="#12a8b3"/><path data-name="Path 10206" d="M128.38 55.88a4.94 4.94 0 0 0 3.247 1.586c-9.33 13.43-18.361 24.6-31.716 33.486a5.3 5.3 0 0 1-3.917.971 3.71 3.71 0 0 1-.325-.061 20.13 20.13 0 0 1-5.307-2.165c-6.942-3.6-18.751-18.733-30.713-42.116 1.255-.224 9.505-5.208 10.537-5.377 4.924-.805 7.928 4.263 9.877 11.95 1.38 5.444 12.271 9.825 8.031 25.639 4.27 4.77 7.673 7.061 8.542 6.985 1.6-.143 5.4-4.686 10.41-9.346 7.64-7.102 15-13.645 21.334-21.552z" fill="#06929c"/><path data-name="Path 10207" d="M126.766 49.477c-.507.846-.575 3.142.712 5.2-10.247 6.251-30.721 19.8-31.564 30.679-.859-4.232-.537-10.774.606-12.079 6.087-7.407 20.65-17.063 30.246-23.8z" fill="#1abac6"/></g></g><g data-name="Group 5353" fill-rule="evenodd"><path data-name="Path 10208" d="M58.35 293.62a1.967 1.967 0 0 0 .748 1.652c5.53 4.5 5.831.77 10.33 4.171 3.179 2.4 2.9 3.646 5.2 5.2a19.1 19.1 0 0 0 8.889 2.876c2.16.215 11.009.425 11.471-2.469l.058-.541a3.963 3.963 0 0 0-.508-3.142c-2.236-3.175-9.706-5.09-10.789-5.649-3.414-1.727-20.574-11.31-24.873-6.37-.754.866-.562 3.154-.526 4.272z" fill="#b4dcf0"/><path data-name="Path 10209" d="M61.35 274.598a20.327 20.327 0 0 1 .219 3.788c-.111 1.168-1.3 3.216-1.9 5.369-1.2 4.305-1.1 6.717.262 8.438.986 1.239 4.527 2.83 7.517 4.286a12.61 12.61 0 0 1 3.767 2.452c1.916 1.984 2.924 3.356 5.542 4.52a31.4 31.4 0 0 0 11.428 2.23c3.228.044 5.42-.873 6.229-1.723a1.345 1.345 0 0 0 .492-1.088c-1.574-8.675-18.668-10.533-18.324-23.743-4.722 2.366-12.642-.226-15.232-4.529z" fill="#d2eefc"/><path data-name="Path 10210" d="M61.359 274.687a19.534 19.534 0 0 1 .21 3.7c-.111 1.168-1.3 3.216-1.9 5.369-1.2 4.305-1.1 6.717.262 8.438.986 1.239 4.527 2.83 7.517 4.286a12.61 12.61 0 0 1 3.767 2.452c1.916 1.984 2.924 3.356 5.542 4.52a31.4 31.4 0 0 0 11.428 2.23 10.122 10.122 0 0 0 5.834-1.382 4.968 4.968 0 0 0 .533-.453c.665-.7.192-1.767.039-2.05-3.077 2.29-6.32 1.934-10.426.374-4.142-1.574-6.349-5.287-10.721-7.805s-7.635-3.409-9.137-6.151-.77-5.835-.845-11.243a10.325 10.325 0 0 1-2.103-2.285z" fill="#c3e6f7"/><path data-name="Path 10211" d="M78.813 287.761a16.043 16.043 0 0 1-10.553 1.984c8.738 3.385 12.629 10.737 18.867 12.457 4.268 1.175 6.976-.352 6.9-.638-1.036-4.006-11.755-8.944-15.214-13.803z" fill="#e0f5ff"/></g><g data-name="Group 5354" fill-rule="evenodd"><path data-name="Path 10212" d="M51.413 313.145a8.757 8.757 0 0 0 .43 3.921c.766 2.344 1.973 4.111 2.077 6.743.2 5.15-1.71 9.389-6.592 10.107-2.826.416-7.536-.429-9.658-4.836-2.349-4.875-.584-9.713 2.709-15.449 1.189-2.073.064-6.719 2.091-5.567z" fill="#b4dcf0"/><path data-name="Path 10213" d="M53.467 304.379a34.84 34.84 0 0 1 .024 5.376l-.366 4.135a28.214 28.214 0 0 0-.114 4.019c.169 3.113.923 5.792.329 7.634-1.4 4.357-3.584 5.42-6.552 5.656-2.6.205-6.731-.457-8.665-4.276-2.142-4.23-.7-7.749.782-13.342a23.6 23.6 0 0 0 .39-6.288l-.066-6.03.124.046c.078-1.443.249-2.583.415-4.04 4.369 3.9 11.133 3.173 13.192.412a57.731 57.731 0 0 1 .583 6.638l-.076.06z" fill="#d2eefc"/><path data-name="Path 10214" d="M50.986 329.635a6.688 6.688 0 0 1-4.2 1.564c-2.6.205-6.731-.457-8.665-4.276-2.142-4.23-.7-7.749.782-13.342a23.6 23.6 0 0 0 .39-6.288l-.066-6.03c.071-2 .307-3.166.624-3.063s2.231 1.288 3.154 1.707c.19.7.375 7.887.354 8.86-.265 11.229-5.689 21.147 7.627 20.868z" fill="#c3e6f7"/><path data-name="Path 10215" d="M44.921 307.277a17.759 17.759 0 0 0 7.585-1.3 78.053 78.053 0 0 0-.449 13.226c.439 6.184-.251 8.53-3.707 9.046-2.659.4-5.555-2.068-5.043-7.484.43-4.551 1.923-8.651 1.614-13.488z" fill="#e0f5ff"/></g><path data-name="Path 10216" d="M60.714 132.131c-2.059 7.894-9.34 8.139-6.526 21.288 2.807 13.113 9.667 38.829 8.719 50.937-.641 8.216-2.917 9.3-4.211 20.013-1.57 12.993 1.112 42.535.6 56.855.585 3.478 8.642 11.382 19.1 5.553 1.039-12.558 1.679-62.371 5.048-75.783 2.487-7.426 1.787-11.038 2.377-18.438 1.337-16.739.389-32.967.164-48.051-.564-5.837-.13-13.019-.967-18.108z" fill="#12a8b3" fill-rule="evenodd"/><path data-name="Path 10217" d="M60.714 132.131c-2.059 7.894-9.34 8.139-6.526 21.288 2.807 13.113 9.667 38.829 8.719 50.937-.641 8.216-2.917 9.3-4.211 20.013-1.57 12.993 1.112 42.535.6 56.855.428 2.55 4.879 7.483 11.347 7.631-1.625-24.785-4.5-55.423 2.846-75.607a24.789 24.789 0 0 0 1.211-9.943c-.573-9.361-1.508-15.6-2.483-23.787 8.5-5.13 12.644-10.705 14.237-13.724-.057-2.318-.435-19.021-.469-21.289-.564-5.837-.13-13.019-.967-18.108z" fill="#06929c" fill-rule="evenodd"/><path data-name="Path 10218" d="M58.524 172.532c2.576 11.681 4.968 24.347 4.383 31.824-.641 8.216-2.917 9.3-4.211 20.013-.965 8-.322 22.268.2 35.4 1.091-11.832 2.362-23.737 4.314-33.158 1.537-7.426 4.6-13.374 5.251-19.649.8-7.746-.4-15.187-1.384-28.038 7.26-4.87 18.948-13.452 19.309-16.687z" fill="#05818a" fill-rule="evenodd"/><path data-name="Path 10219" d="M44.73 123.993c-2.124 6.614-8.817 10.447-11.907 22.293-1.948 7.473-2.222 15.689 1.669 31.113 1.786 7.073 3.983 18.278 4.969 24.609 2.925 18.76-.713 17.316-3.921 32.631-2.969 14.179-.094 52.975 1.655 69.808 1.178 5.278 14.26 7.441 17.763 2.259 1.206-16.7-.083-46.5 1.941-63.428 1.3-10.856.994-11.407 4.648-22.152a32.474 32.474 0 0 0 1.892-14.091l-1.341-48.711c7.982-8.238 16.81-16.694 23.393-26.784l-.476-5.143z" fill="#12a8b3" fill-rule="evenodd"/><path data-name="Path 10220" d="M44.73 123.993c-2.124 6.614-8.817 10.447-11.907 22.293-1.948 7.473-2.222 15.689 1.669 31.113 1.786 7.073 3.983 18.278 4.969 24.609 2.925 18.76-.713 17.316-3.921 32.631-2.969 14.179-.094 52.975 1.655 69.808.679 3.043 5.315 5.051 9.789 5.212-.417-7.986-1.061-21.32-1.21-23.3-1.927-25.45-2.544-41.321 4.062-61.746.978-3.758 1.911-5.718 1.531-9.6-.911-9.285-2.324-18.418-4.055-27.6-.072-.375 7.141-.656 15.4-6.824l-.617-22.259c7.982-8.238 16.81-16.694 23.393-26.784l-.476-5.143z" fill="#06929c" fill-rule="evenodd"/><path data-name="Path 10221" d="M44.73 123.993c-2.124 6.614-8.817 10.447-11.907 22.293-1.948 7.473-2.222 15.689 1.669 31.113.49 1.941 1.01 4.192 1.53 6.567 1.37 6.286 2.724 13.448 3.439 18.042 2.925 18.76-.713 17.316-3.921 32.631-1.028 4.91-1.355 12.773-1.271 21.652 3.408-20.351 8.593-27.351 10.209-32.345.978-3.76 1.911-5.719 1.531-9.6-.91-9.287-1.319-19.816-3.051-29-.071-.375 11.453-.7 19.714-6.875l-.574-20.143c7.982-8.238 16.81-16.694 23.393-26.784l-.476-5.143z" fill="#05818a" fill-rule="evenodd"/><path data-name="Path 10222" d="M50.377 190.422c.609 3.1 1.227 6.3 1.8 9.36 1.241 6.616 2.042 13.08 2.931 13.955 1.436 1.411 5.351 3.465 7.075-1.785.957-2.915-.313-17.578-.355-18.6-.1-2.6-.211-5.337-.317-8.014-2.781 2.023-6.881 4.798-11.134 5.084z" fill="#1abac6" fill-rule="evenodd"/><path data-name="Path 10223" d="M60.225 221.882c-3.632 1.644-4.252 2.268-8.216 2.77-8.908 20.4-4.646 55.295-3.751 83.234 2.684-.149 4.319-1.059 5.448-2.524.059-19.069.326-45.8 1.942-64.48.882-10.23 1.093-10.336 4.577-19z" fill="#1abac6" fill-rule="evenodd"/><path data-name="Path 10224" d="M74.959 181.45c1.145 10.786 2.258 22.006 2.765 22.508 1.435 1.411 4.55 2.257 6.272-2.99.379-1.158 1.11-16.089 1.313-29.068-2.221 3.46-6.609 7.865-10.35 9.55z" fill="#1abac6" fill-rule="evenodd"/><path data-name="Path 10225" d="M83.266 209.849a19.779 19.779 0 0 1-7.769 4.442c-6.9 21.514-4.936 45.651-3.372 73.367a10.243 10.243 0 0 0 5.616-1.8c.037-12.1 1.244-36.594 1.692-47.587.528-12.912-.19-18.787 3.833-28.422z" fill="#1abac6" fill-rule="evenodd"/><path data-name="Path 10226" d="M40.162 103.823c3.79 7.523 4.268 15.974 2.964 20.038-1.188 3.7-10.261 11.2-12.174 24.756a244.038 244.038 0 0 0-.048 24.589 12.911 12.911 0 0 0 4.165 5.231c.516-5.591.26-12.223.464-16.787 1.108 6.473 1.97 12.627 3.134 18.78a21.36 21.36 0 0 0 12.806 1.316c2.961-.525 31.314-11.35 35.567-20.67.282-6.792-.862-30.932-1.227-33.943-.969-8.01-3.068-10.783-4.094-15.918-1.29-6.461.514-11.9-.194-19.374-.188-2-.384-4.025-.586-6.045-.683-6.831-1.435-13.645-2.206-19.616-1-7.7-1.918-14.259-2.914-17.352a9.306 9.306 0 0 0-1.5-3.068c-2.037-2.913-5.7-4.387-12.065-1.714-8.828 3.7-22.034 9.35-29.463 17.248-3.407 2.072-5.893 4.541-6.2 9.006-.686 10.041 9.189 24.831 13.571 33.523z" fill="#12a8b3" fill-rule="evenodd"/><path data-name="Path 10227" d="M50.673 181.875c.266-.039.532-.083.8-.129 2.961-.525 31.314-11.35 35.567-20.67.282-6.792-.862-30.932-1.227-33.943-.969-8.01-3.068-10.783-4.094-15.918-1.25-6.259.4-11.556-.133-18.672-1.885 1.134-3.779 2.809-5.886 3.831-4.023 1.954-3.925 6.426-11.795 9.37-2.487.929-5.412 1.8-6.475 2.971a8.535 8.535 0 0 0-2.494 6.507c.365 6.933 1.647 12.183-1.253 20.49-1.607 4.6-3.656 9.429-5.16 14.764-2.693 9.564-.785 18.255 2.15 31.399z" fill="#1abac6" fill-rule="evenodd"/><path data-name="Path 10228" d="M40.162 103.823c3.79 7.523 4.268 15.974 2.964 20.038-1.188 3.7-10.261 11.2-12.174 24.756a244.038 244.038 0 0 0-.048 24.589 12.911 12.911 0 0 0 4.165 5.231c.516-5.591.26-12.223.464-16.787 1.108 6.473 1.97 12.627 3.134 18.78a19.718 19.718 0 0 0 8.007 1.726c-3.3-14.916-4.4-24.2-1.5-34.492 1.5-5.335 3.553-10.163 5.16-14.766 2.9-8.305 1.618-13.556 1.253-20.49a8.532 8.532 0 0 1 2.494-6.508c1.065-1.166 3.988-2.039 6.475-2.97 7.869-2.942 9.649-7.416 13.67-9.369 2.533-1.229 4.761-3.4 7.033-4.445a29.5 29.5 0 0 0-.617-5.893c-1.182-6.02-3.573-11.636-5.478-17.306l-32 12.308a32.988 32.988 0 0 0-9.242-17.587c-2.091 1.174 13.4-8.235 28.366-16.607l-.032.015c-8.828 3.7-22.034 9.35-29.463 17.248-3.407 2.072-5.893 4.541-6.2 9.006-.688 10.041 9.187 24.831 13.569 33.523z" fill="#06929c" fill-rule="evenodd"/><path data-name="Path 10229" d="M71.352 88.584c-3.035 1.543-6 6.067-10.8 8.691a11.857 11.857 0 0 1-14.746-2.882 27.533 27.533 0 0 1-1.657-7.612c-.437-9.756-1.79-15-7.326-22.845 3.467-1.9 7-3.91 8.921-5.987l21.917-11.948 6.986 1.845c2.286 6.583 3.673 10.021 8.019 16.372a15.254 15.254 0 0 1 2.457 12.372c-1.608 6.916-8.253 9.189-13.771 11.994z" fill="#12a8b3" fill-rule="evenodd"/><path data-name="Path 10230" d="M42.046 73.872c-2.432 1.223-8.41 14.042-10.678 10.867-5.142-7.193-7.824-16.168-.347-22.753 8-7.045 20.985-13.649 31.3-17.976 4.8-2.012 8.058-1.671 10.245-.137l-3.843 1.552-22.709 10.246c-3.394 2.813-5.452 5.517-8.853 8.416a25.536 25.536 0 0 1 4.885 9.785z" fill="#06929c" fill-rule="evenodd"/><path data-name="Path 10231" d="M71.03 86.054c-4.088 1.776-4.936 5.33-9.41 7.781-2.971 1.626-8.784 3.319-13.268-2.023a25.813 25.813 0 0 1-1.546-7.107c-.409-9.109-.834-12.161-6-19.489 1.4-.768 4.91-2.645 6.21-3.449 7.656 3.678 14.868 4.774 19.619.7 1.953-1.674 2.316-8 .371-11.994l6.524-4.389a66.075 66.075 0 0 0 9.162 18.351c2.336 3.412 3.351 6.571 2.379 10.75-1.513 6.462-8.741 8.568-14.041 10.869z" fill="#1abac6" fill-rule="evenodd"/><g data-name="Group 5357" fill-rule="evenodd"><path data-name="Path 10232" d="M25.146 71.607c-3.853 10.46-6.423 26.425-7.767 37.221-.213 1.7-.929 4.89-.816 6.261.353 4.217 10.242 9.152 12.986-2.331 1.616-6.756 4.447-12.875 8.2-25.477 3.81-12.78 1.273-22.092-4.19-23.682-3.844-1.121-6.935 3.999-8.413 8.008z" fill="#12a8b3"/><path data-name="Path 10233" d="M25.949 113.177c.784-1.081 3.43-2.153 4.251-2.894 1.674-5.885 4.257-11.95 7.551-23 3.245-10.882 1.887-19.249-1.96-22.476-2.841 13.189-7.372 34.029-9.842 48.37z" fill="#1abac6"/><path data-name="Path 10234" d="M25.146 71.607c-3.853 10.46-6.423 26.425-7.767 37.221-.213 1.7-.929 4.89-.816 6.261.308 3.671 7.846 7.886 11.6 1.332-2.708-.946-4.516-1.711-4.876-2.175-1.012-1.3-.577-2.373-.052-4.758a1292.5 1292.5 0 0 1 10.9-45.69 6.016 6.016 0 0 0-.571-.2c-3.849-1.12-6.94 4-8.418 8.009z" fill="#06929c"/><g data-name="Group 5355"><path data-name="Path 10235" d="M37.387 74.471l2.914-1.639v59.448l-2.914 1.639z" fill="#1a0101"/><path data-name="Path 10236" d="M40.301 72.832l32.654 18.565v59.447l-32.654-18.566z" fill="#001e30"/><path data-name="Path 10237" d="M40.33 73.797l31.38 17.777-.174 58.116-2.809 1.589-28.4-20.673-2.75-55.238z" fill="#e6e6e6"/><path data-name="Path 10238" d="M37.387 74.471l32.654 18.566v59.446l-32.654-18.564z" fill="#00263d"/></g><path data-name="Path 10239" d="M55.199 129.368l-5.363-1.914.871-6.028c2.928-1.763 5.136-2.351 6.379-1.848.1.041.533.176.62.231 1.888 1.196-.151 10.151-2.507 9.559z" fill="#9eb0ba"/><g data-name="Group 5356"><path data-name="Path 10240" d="M65.679 134.306a30.432 30.432 0 0 0 7.813-2.679c1.314-.617 1.723-9.9 1.566-9.926-1.653.286-6.339 2.367-8.108 2.588-2.146-.678-10.266-3.282-12.412-3.959l-2.03 4.265-.97 3.807a13.085 13.085 0 0 1 3.414.688c3.078 1.337 8.3 5.172 10.727 5.216z" fill="#e8a476"/><path data-name="Path 10241" d="M66.55 125.837c3.077-.533 6-2.867 8.122-3.861.262-.122.377-.21.388-.268.044-.241-1.589-.253-2.208-.05-1.193.393-4.6 2.039-6.371 2.261-2.146-.677-8.174-3.054-10.266-3.892l-1.766.141c2.993 1.422 8.569 4.491 12.101 5.669z" fill="#f1b287"/><path data-name="Path 10242" d="M69.007 122.349c.359 2.551-3.538 1.337-4.509.887-.847-.067-8.216-2.019-7.037-2.389a12.043 12.043 0 0 1 6.048-.432c1.286.343 1.331.826 2.732 1.28a14.213 14.213 0 0 0 2.766.654z" fill="#f1b287"/></g><path data-name="Path 10243" d="M16.937 116.926a7.5 7.5 0 0 0 2.778 3.711c1.408 1.066 3.481 1.533 5.607 2.516 8.233 3.8 17.117 4.465 29.922 6.23-1.711-2.683-.473-9.056 2.469-9.572-10.22-4.18-17.5-7.006-27.5-9.324-1.405.641-4.3 3.292-4.706 3.2-2.489-.548-10.816-3.241-8.57 3.239z" fill="#12a8b3"/><path data-name="Path 10244" d="M53.987 122.531c.385-1.081 1.071-2.871 2.264-3.317-9.037-3.68-15.877-6.276-24.76-8.423-1.135-.018-3.278 1.722-4.464 2.668z" fill="#1abac6"/><path data-name="Path 10245" d="M16.937 116.926a7.5 7.5 0 0 0 2.778 3.711c1.408 1.066 3.481 1.533 5.607 2.516 8.233 3.8 17.117 4.465 29.922 6.23a7.531 7.531 0 0 1-.629-5.013c-13.207-3.79-30.137-8.591-31.328-10.124-.971-1.245-.61-2.284-.118-4.469-3.939 1.137-8.039 1.937-6.232 7.149z" fill="#06929c"/></g><g data-name="Group 5358" fill-rule="evenodd"><path data-name="Path 10246" d="M62.821 41.214c11.2 4.087 11.444 20.353 11.276 38.515-2.567-10.351-4.944-21.188-13.479-25.079-4.697-2.136 1.283-10.21 2.203-13.436z" fill="#361d07"/><path data-name="Path 10247" d="M74.097 79.734c-2.567-10.351-4.944-21.188-13.479-25.079-3.053-1.392-1.6-5.291.052-8.732 12.013 9.674 13.005 30.978 13.427 33.811z" fill="#241304"/></g><g data-name="Group 5366"><g data-name="Group 5359" fill-rule="evenodd"><path data-name="Path 10248" d="M46.085 52.063c-1.018 8.9 16.255 12.113 19.026 6.425.3-6.176.7-10.631 4.166-17.352l-16.5-6.51-4.181-1.824c2.134 8.729.486 11.768-2.511 19.261z" fill="#e8a476"/><path data-name="Path 10249" d="M46.083 51.894a1.214 1.214 0 0 0-.022.3c7.64-8.251 15.018-5.323 20.86-7.273a20.173 20.173 0 0 1 .8-1.945c.516-1.459.733-1.221 1.421-3.1l-16.5-6.51-4.179-1.824c2.127 8.732.618 12.858-2.38 20.352z" fill="#db9669"/></g><g data-name="Group 5365"><g data-name="Group 5361" fill-rule="evenodd"><path data-name="Path 10250" d="M69.752 28.084l-7.9-2.747V12.476L65.47 2.43c10.626 3.723 9.915 23.46 4.282 25.654z" fill="#241304"/><g data-name="Group 5360"><path data-name="Path 10251" d="M43.739 7.576a15.544 15.544 0 0 1 12.348-6.021c8.465-.308 13.323 3.45 16.212 9.482a4.421 4.421 0 0 0 .214 1.41 30.927 30.927 0 0 1 1.015 4.717 4.051 4.051 0 0 0 .13.544c0 1.371-.135 2.938-.191 3.8-.186 2.869 1.456 1.846 1.966 4.621a47.711 47.711 0 0 1-.27 10.717c-.357 2.907.128 5.705-1.155 6.453-1.3.759-4.054 1.707-8.429.924-9.583-1.713-13.153-5.508-17.223-14-4.414-1.705-6.544-3.478-7.494-5.781-2.25-5.469-.594-12.41 2.877-16.866z" fill="#f1b287"/><path data-name="Path 10252" d="M65.58 44.223c-9.606-1.713-13.154-5.508-17.224-14-4.414-1.705-6.544-3.478-7.493-5.781-2.251-5.467-.6-12.408 2.876-16.864a15.543 15.543 0 0 1 12.348-6.021 17.864 17.864 0 0 1 14.836 7c-.88 5.857-7.727 13.1-10.685 15.3a5.533 5.533 0 0 0-2.418 4.688c.027 3.374 3.828 2.771 4.229 4.287.411 1.552-3.475 2.606-1.719 6.656.492 1.134 4.2 3.753 5.843 4.842-.197-.027-.391-.071-.593-.107z" fill="#e8a476"/></g></g><g data-name="Group 5364"><g data-name="Group 5363"><path data-name="Path 10255" d="M49.075 38.899c-9.818-2.661-14.166-9.583-14.065-17.928a31.788 31.788 0 0 1 2.725-11.979c2.329-4.884 7.159-8.3 15.12-8.486 2.38-.053-4.429 2.03-1.352 3.313l-2.177 21.266.5 9.334z" fill="#361d07" fill-rule="evenodd"/><path data-name="Path 10256" d="M71.069 7.036c-7.153 18.417-22.692 21.944-22.531 25.89.125 3.056-6.179-1.838-7.8-4.494A19.538 19.538 0 0 1 43.76 4.757C51.721-3.01 66.364-.564 71.069 7.036z" fill="#361d07" fill-rule="evenodd"/><path data-name="Path 10257" d="M49.452 38.565c-9.175-4.491-14.322-12.339-13.974-20.8.032.18.066.361.1.542.592-2.758 1.516-6.634 4.1-8.287-1.672 2.59-3.27 8.067-2.344 12.14.209-4.244 1.356-6.2 3.769-10.257a31.042 31.042 0 0 0-1.675 10.507c.61-3.141 2.995-8.047 4.771-9.293a15.018 15.018 0 0 0-1.967 12.141c.117-3.992 2.339-9.585 5.107-11.221-1.266 1.829-2.83 6.123-2.386 8.626 1.4-3.35 1.357-4.016 4.313-7.369a20.655 20.655 0 0 0-2.011 7.576c1.221-2.287 2.151-4.379 3.809-6.948-.6 1.726-2.058 7.45-1.715 9.169.462-1.081 5.191-5.783 7.259-7.628-1.894 3.556-4.064 7.365-6.187 9.151-.25.61 8.556-4.068 17.946-14.95-4.412 8.863-12.03 12.611-18.6 18.783l.3 3.6a11.723 11.723 0 0 1-.615 4.518z" fill="#241304" fill-rule="evenodd"/><g data-name="Group 5362"><path data-name="Path 10258" d="M46.311 24.425c-3.966-.9-3.529 3.522-2.654 6.141.6 1.8 2.107 1.5 2.811 2.9a3.5 3.5 0 0 0 3.413 2.179c2.325-.307.521-3.621.1-4.967.035-2.28-1.151-5.678-3.67-6.253z" fill="#e8a476" fill-rule="evenodd"/></g><path data-name="Path 10259" d="M70.386 7.766C69.258 2.729 61.06-.864 52.202.533c-4.141.295-10.011 2.05-12.526 5.9a24.055 24.055 0 0 1 12.19-4.956c-2.817.752-8.9 3.329-11.117 7.969a18.667 18.667 0 0 1 11.587-6.831c-4.42 1.87-5.4 3.23-7.838 6.5 2.967-2.5 6.032-4.771 9.612-5.794-3.193 1.851-4.37 3.2-6.128 6.731 3.575-3.438 3.7-4.653 8.574-6.028-1.561 1.3-5.008 4.459-6.565 7.3a59.3 59.3 0 0 1 8.942-6.1 35.722 35.722 0 0 0-5.459 6.7c2.54-2.145 4.577-4.131 8.508-5.96-3.341 3.091-5.665 5.4-7.972 9.31a69.639 69.639 0 0 1 9.344-8c-2.064 3.023-3.527 4.777-5.627 7.8a66.333 66.333 0 0 0 9.143-8.305c-1.8 2.652-7.233 10.181-9.51 12.727 2.718-2.08 9.2-9.246 11.052-11.723-.66 2.847-2.72 5.931-5.126 8.475 3.026-2.055 5.233-5.179 7.1-8.482z" fill="#4a2b12" fill-rule="evenodd"/></g><path data-name="Path 10260" d="M35.14 19.576c-1.2 5.482.832 21.073 12.191 29.319.743-.937 2.79-7.722 2.713-13.32-.684.294-2.009 1.538-2.467 1.218-9.374-6.512-6.46-4.1-12.437-17.217z" fill="#241304" fill-rule="evenodd"/></g></g></g></g></g></svg>