<svg xmlns="http://www.w3.org/2000/svg" width="340.472" height="411.508" viewBox="0 0 340.472 411.508"><g data-name="Group 5244"><g data-name="Group 5197" fill-rule="evenodd"><g data-name="Group 5195"><g data-name="Group 5192"><path data-name="Path 9561" d="M30.07 249.081l-.094 18.727 4.932 1.588.094-18.728z" fill="#b6ccd6"/><path data-name="Path 9562" d="M24.771 263.585c5.849 3.377 10.566 11.554 10.548 18.275s-4.77 9.443-10.616 6.067S14.13 276.36 14.15 269.638s4.77-9.43 10.621-6.053z" fill="#17667a"/><path data-name="Path 9563" d="M24.24 259.285c3.823-.493 8 2.826 10.279 5.477 3.368 3.909 5.8 9.376 5.778 14.205-.007 3.341-1.189 5.695-3.092 6.8l-4.981 2.894a5.181 5.181 0 0 1-1.665.613c6.441-3.947.048-23.593-9.175-24.876-3.6-.5-5.456.421-6.818 2.119.902-3.057 6.397-6.811 9.674-7.232z" fill="#248ca6"/><path data-name="Path 9564" d="M25.943 287.62l1.35-.762-.256-20.239 7.257-4.095-.009 1.971c.08.09.158.178.234.267q.519.6 1.006 1.251l.074-26.14-12.868 4.633z" fill="#cfe0e8"/><path data-name="Path 9565" d="M15.621 238.871l.194 19.65c-6.927 5.553-3.648 24.944 10.142 29.1l-.294-8.624.093-33.569z" fill="#b6ccd6"/></g><g data-name="Group 5193"><path data-name="Path 9566" d="M305.416 333.678l-.094 18.728 4.932 1.588.094-18.728z" fill="#b6ccd6"/><path data-name="Path 9567" d="M300.117 348.184c5.849 3.376 10.566 11.553 10.547 18.275s-4.77 9.443-10.615 6.065-10.574-11.567-10.554-18.288 4.771-9.43 10.622-6.052z" fill="#17667a"/><path data-name="Path 9568" d="M299.586 343.883c3.823-.493 8 2.825 10.279 5.477 3.368 3.909 5.8 9.376 5.778 14.205-.008 3.342-1.189 5.7-3.092 6.8l-4.982 2.894a5.223 5.223 0 0 1-1.666.613c6.442-3.946.048-23.593-9.174-24.876-3.6-.5-5.456.421-6.819 2.119.903-3.057 6.399-6.811 9.676-7.232z" fill="#248ca6"/><path data-name="Path 9569" d="M301.288 372.218l1.35-.762-.255-20.239 7.256-4.095-.008 1.971.234.267q.517.6 1.006 1.251l.074-26.14-12.869 4.633z" fill="#cfe0e8"/><path data-name="Path 9570" d="M290.967 323.469l.194 19.65c-6.927 5.554-3.648 24.944 10.141 29.1l-.294-8.624.1-33.569z" fill="#b6ccd6"/></g><g data-name="Group 5194"><path data-name="Path 9571" d="M240.833 371.212l-.094 18.728 4.934 1.588.094-18.728z" fill="#b6ccd6"/><path data-name="Path 9572" d="M235.533 385.717c5.849 3.377 10.566 11.555 10.547 18.276s-4.77 9.443-10.615 6.065-10.574-11.566-10.555-18.288 4.772-9.43 10.623-6.053z" fill="#17667a"/><path data-name="Path 9573" d="M235.001 381.417c3.824-.493 8 2.826 10.28 5.477 3.367 3.91 5.8 9.377 5.777 14.2-.006 3.342-1.189 5.7-3.091 6.8-1.489.864-5.295 3.318-6.645 3.5 6.442-3.948.048-23.593-9.174-24.876-3.6-.5-5.456.42-6.819 2.119.904-3.044 6.396-6.798 9.672-7.22z" fill="#248ca6"/><path data-name="Path 9574" d="M236.704 409.752l1.35-.762-.256-20.238 7.257-4.1-.008 1.971q.12.133.234.266c.345.4.682.819 1 1.25l.075-26.139-12.87 4.633z" fill="#cfe0e8"/><path data-name="Path 9575" d="M226.382 361.003l.194 19.65c-6.926 5.554-3.648 24.945 10.142 29.1l-.294-8.624.094-33.568z" fill="#b6ccd6"/></g></g><g data-name="Group 5196"><path data-name="Path 9576" d="M9.433 229.329c-.009-3.025.054-8.338 2.691-10.247 63.921 37.147 161.5 94.014 225.455 131.177a1.618 1.618 0 0 0-.271.2 2.437 2.437 0 0 0-.26.278l-.006.007a3.847 3.847 0 0 0-.243.34l-.009.014c-.079.124-.157.26-.231.406l-.02.037a8.468 8.468 0 0 0-.214.455l-.016.036q-.1.246-.2.516l-.007.021c-.066.182-.129.37-.19.567-.005.016-.011.03-.015.046-.056.182-.11.373-.162.568l-.042.163c-.042.16-.082.325-.12.493l-.037.159c-.049.223-.1.451-.14.684-.009.054-.017.109-.027.162-.034.188-.068.377-.1.571l-.049.345c-.02.145-.041.289-.06.436s-.031.282-.046.423-.031.269-.043.4c-.015.169-.028.341-.04.514-.009.119-.019.238-.026.359a23.51 23.51 0 0 0-.031.662c0 .081-.009.161-.012.244q-.012.445-.012.894c-64.017-37.196-161.23-93.572-225.517-130.93z" fill="#cfe0e8"/><path data-name="Path 9577" d="M81.999 178.831a.478.478 0 0 0-.069-.005h-.054a.839.839 0 0 0-.333.1l.012-.007h-.006.009c.069-.039.153-.081.218-.117l.079-.035a.811.811 0 0 1 .061-.027l.09-.041c.063-.027.148-.058.216-.082l-.046.016.055-.02h.008l.025-.009h.011l.175-.058.219-.055s.063-.015.149-.031l.068-.014a.623.623 0 0 1 .066-.01H83.004l.1-.016.215-.023.215-.014h.15-.057.122c.064 0 .15 0 .215.006l.214.014c.065 0 .149.016.215.025h-.025H84.44l.073.012.039.006.055.008.219.046.217.057c.035.01.074.024.114.037h.009l.078.025h-.007l.034.012.221.084c.1.043.147.064.225.1l.022.008c.068.038.16.087.229.124a.876.876 0 0 0-.328-.106h-.012a.1.1 0 0 0-.031 0 .121.121 0 0 0-.03 0 .144.144 0 0 0-.032 0H85.483a.887.887 0 0 0-.242.038.313.313 0 0 0-.032.012 1.1 1.1 0 0 0-.147.065 2.907 2.907 0 0 0-2.633 0 1.026 1.026 0 0 0-.169-.074.788.788 0 0 0-.261-.051z" fill="#ede8e8"/><path data-name="Path 9578" d="M82.951 178.43h.009l-.059.008z" fill="#8d8a89"/><path data-name="Path 9580" d="M85.239 178.604h.007l-.066-.021z" fill="#8d8a89"/><path data-name="Path 9581" d="M7.81 229.165a2.984 2.984 0 0 0 1.632 2.281c0 1.42.265 6.082 1.771 6.957-.1-.063-.172-.108-.235-.151l-.036-.024c-2.536-1.765-3.079-6.12-3.129-9v-.012l-.003-.051z" fill="#b6ccd6"/><path data-name="Path 9582" d="M11.177 217.779l3.219-1.858c20.389-11.771 46.757-25.222 67.148-36.989l.008-.006c.034-.018.067-.035.1-.05s.06-.023.091-.032h.014a.684.684 0 0 1 .074-.017.5.5 0 0 1 .085-.009.44.44 0 0 1 .051 0h.032a.723.723 0 0 1 .091.009.832.832 0 0 1 .092.021h.011c.009 0 .016.006.024.008.032.011.064.02.1.034s.08.039.119.062L12.07 217.8a.85.85 0 0 0-.893-.021z" fill="#b6ccd6"/><path data-name="Path 9583" d="M7.81 226.486l.03-.726c.014-.229.041-.534.06-.763a17.283 17.283 0 0 1 .581-3.1l.01-.031a8.894 8.894 0 0 1 1.355-2.875l.05-.07a4.344 4.344 0 0 1 1.211-1.106.839.839 0 0 1 .962-.013 1.5 1.5 0 0 0-.238.167c-.476.416-.249.83.387 1.2-1.558.9-2.307 4.864-2.486 6.113 0 .016 0 .032-.009.048a28.821 28.821 0 0 0-.287 4c-.033-.02-.055-.042-.087-.062l.012.017a4.3 4.3 0 0 1-.365-.268 2.648 2.648 0 0 1-1.142-1.565c0-.014-.009-.028-.012-.043v.007l-.006-.025a5.27 5.27 0 0 1-.026-.905z" fill="#b6ccd6"/><path data-name="Path 9584" d="M7.809 226.557v.373-.186c-.003-.056-.001-.131 0-.187z" fill="#9d9a97"/><path data-name="Path 9585" d="M85.068 178.955a.864.864 0 0 1 .907-.016l5.159 3 210.041 121.944 10.316 6a.856.856 0 0 0-.9.031z" fill="#e8f3f7"/><path data-name="Path 9586" d="M12.069 217.798a.806.806 0 0 0 0 1.525c63.786 37.068 161.75 93.878 225.517 130.935a2.889 2.889 0 0 0 2.625 0c21.462-12.391 48.9-26.456 70.368-38.847a.8.8 0 0 0 .009-1.521c-63.786-37.068-161.75-93.879-225.516-130.936a2.907 2.907 0 0 0-2.633 0c-21.465 12.388-48.906 26.454-70.37 38.844z" fill="#dceaf0"/><path data-name="Path 9587" d="M310.575 311.412a.8.8 0 0 0 .009-1.521.238.238 0 0 1 .033-.014.875.875 0 0 1 .877 0 3.7 3.7 0 0 1 .348.231l.064.046c.1.081.2.162.295.247.017.015.036.029.053.045l.035.033.231.235.021.027a9.542 9.542 0 0 1 1.822 3.805c1.411 5.178.241 12.44-1.429 14.641a4.461 4.461 0 0 1-1.411 1.31c1.65-2.087 1.495-17.199-.948-19.085z" fill="#c4d9e3"/><path data-name="Path 9588" d="M234.957 362.382c0 1.592.259 6.072 1.77 6.955l-10.315-6c-56.86-33.043-147.962-86.01-204.885-118.945l-10.315-6c-1.515-.886-1.761-5.389-1.77-6.9v-.058z" fill="#b6ccd6"/><path data-name="Path 9589" d="M242.845 363.712c.02-.427.03-.872.03-1.33l70.367-38.847a14.314 14.314 0 0 1-1.024 6.142 1.99 1.99 0 0 1-.7.817l-6.439 3.718c-10.731 6.195-27.443 14.065-38.173 20.261l-6.439 3.718-6.439 3.717-6.438 3.718-6.439 3.716c.889-.511 1.55-2.644 1.694-5.63z" fill="#cfe0e8"/><path data-name="Path 9590" d="M234.951 360.264l.006 2.118L8.589 231.107c-.423-.245-.646-1.1-.74-1.572a1.662 1.662 0 0 1-.037-.321v-2.167a1.917 1.917 0 0 0 .1.576c.006.02.01.041.019.062a2.344 2.344 0 0 0 .266.522l.062.092a3.416 3.416 0 0 0 .985.822z" fill="#b6ccd6"/><path data-name="Path 9591" d="M242.869 360.264l.006 2.118 70.368-38.847-.007-2.118z" fill="#cfe0e8"/><path data-name="Path 9592" d="M234.957 362.44v-.059a8.862 8.862 0 0 0 7.918 0c.01 3.671-.708 6.374-1.722 6.96l-.013.007h-.009a4.566 4.566 0 0 1-4.174.107c-.069-.037-.161-.085-.229-.124-1.431-.833-1.761-4.842-1.771-6.891z" fill="#dfebf0"/><path data-name="Path 9593" d="M234.957 362.382l-.006-2.118a8.777 8.777 0 0 0 7.917 0l.109 1-.1 1.116a8.752 8.752 0 0 1-7.92.002z" fill="#dfebf0"/><path data-name="Path 9594" d="M242.805 358.471a27.911 27.911 0 0 0-.159-1.663l-.02-.145a22.365 22.365 0 0 0-.163-1.059c-.036-.2-.072-.4-.112-.6l-.056-.267a18.664 18.664 0 0 0-.237-.988c-.02-.078-.043-.152-.065-.227-.046-.158-.091-.315-.139-.464-.036-.115-.075-.226-.113-.335-.025-.072-.049-.147-.076-.217a10.475 10.475 0 0 0-.192-.481l-.023-.053a8.027 8.027 0 0 0-.2-.429l-.017-.034a5.402 5.402 0 0 0-.236-.412l-.009-.013a3.674 3.674 0 0 0-.234-.331c-.008-.009-.015-.02-.024-.029a2.328 2.328 0 0 0-.207-.221 1.782 1.782 0 0 0-.314-.248l.363-.209.835-.482.5-.29 2.521-1.455h.009l5.665-3.272c.126-.072.253-.144.379-.219l1.35-.779 1.6-.925 2.617-1.511 1.751-1.011c15.6-9.006 37.164-19.7 52.771-28.689 2.067 1.207 2.657 7.772 2.66 10.005l-70.367 38.847c0-.592-.022-1.18-.06-1.759a.211.211 0 0 0 .002-.035z" fill="#dfebf0"/><path data-name="Path 9595" d="M234.951 360.264c0-3.212.55-8.479 2.541-9.946a.242.242 0 0 1 .042-.026c.016-.012.034-.022.05-.032a2.923 2.923 0 0 0 2.625 0c2.581 1.414 2.9 9.16 2.661 10a8.756 8.756 0 0 1-7.919.004z" fill="#e8f3f7"/></g></g><g data-name="Group 5217" fill-rule="evenodd"><g data-name="Group 5216"><g data-name="Group 5200"><g data-name="Group 5198"><path data-name="Path 9596" d="M128.884 226.992l18.894 12.967 3.529-2.048-.006-2.268-22.73-10.956-20.944 9.815v2.254l3.531 2.066z" fill="#17667a"/><path data-name="Path 9597" d="M128.456 228.861l19.4 11.132v-4.1l-15.859-9.077 17.159-9.9v-2.282l-2.062-.447-18.631 10.577-18.709-10.583-1.658.448v2.4l16.827 9.774-13.731 7.91-.006 1.52.006 2.571z" fill="#17667a"/><path data-name="Path 9598" d="M128.562 226.526l19.3 11.217c1.1-.678 2.27-1.393 3.438-2.1l-19.2-11.158 17.057-9.848-3.532-2.051-17.059 9.848-16.956-9.854-3.231 1.88-.3.17 16.944 9.847-17.412 10.053 3.568 2.032z" fill="#1c768c"/></g><g data-name="Group 5199"><path data-name="Path 9599" d="M131.101 40.067l.014 184.241h-.015a1.209 1.209 0 0 1-.723 1.041 3.84 3.84 0 0 1-3.481 0 1.308 1.308 0 0 1-.695-.839l-.017-184.43z" fill="#17667a"/><path data-name="Path 9600" d="M126.795 41.004a1.23 1.23 0 0 0 .1.074 3.17 3.17 0 0 0 .817.309v184.276a3.013 3.013 0 0 1-.817-.314 1.899 1.899 0 0 1-.1-.062z" fill="#1b9ebf"/><path data-name="Path 9601" d="M128.973 41.479a3.274 3.274 0 0 0 1.469-.44v184.272l-.065.038a3.388 3.388 0 0 1-1.4.4z" fill="#1e7e96"/><path data-name="Path 9602" d="M126.913 39.069a3.82 3.82 0 0 1 3.472 0 1.061 1.061 0 0 1-.008 2.009 3.84 3.84 0 0 1-3.481 0 1.061 1.061 0 0 1 .017-2.009z" fill="#666"/></g></g><g data-name="Group 5215"><g data-name="Group 5204"><path data-name="Path 9603" d="M141.021 3.779c-.7.4-1.375.786-2.055 1.171-1.694.961-3.387 1.922-5.043 2.933-2 1.218-2.806 2.578-2.832 3.792a2.845 2.845 0 0 0 .486 1.644 3.694 3.694 0 0 0 1.27 1.158 5.442 5.442 0 0 0 5.227-.069 315.568 315.568 0 0 0 4.969-2.755c1.386-.787 2.708-1.562 3.591-2.136 1.156-.749.429-1.824-.824-1.021-.846.542-2.1 1.275-3.412 2.022a316.624 316.624 0 0 1-4.949 2.744 4.122 4.122 0 0 1-3.957.08 2.384 2.384 0 0 1-.826-.745 1.552 1.552 0 0 1-.269-.9c.017-.8.645-1.75 2.206-2.7 1.651-1.007 3.33-1.959 5.007-2.912.685-.389 1.37-.778 2.037-1.16 1.199-.688.519-1.805-.626-1.146z" fill="#1e7e96"/><g data-name="Group 5202"><path data-name="Path 9604" d="M143.791 26.772l.01 3.439h-.01a.8.8 0 0 1-.477.686 2.531 2.531 0 0 1-2.295 0 .867.867 0 0 1-.458-.553l-.01-3.564z" fill="#9cd0e6"/><g data-name="Group 5201"><path data-name="Path 9605" d="M148.251 23.998a2.34 2.34 0 0 1-1.08 1.578 2.494 2.494 0 0 1-.812 1.706 3.849 3.849 0 0 0 1.892-3.284z" fill="#69b9db"/><path data-name="Path 9606" d="M133.655 31.012l-.517-.3a1.18 1.18 0 0 1-.677-1.015 3.179 3.179 0 0 0 .032.444c0 .024.006.048.009.064l.008.063.014.071c.007.04.016.08.025.112l.009.047.009.032a2.222 2.222 0 0 0 .075.245.146.146 0 0 0 .01.032.188.188 0 0 0 .015.04l.042.1.05.119c.016.032.026.048.039.071l.006.016c.014.024.026.056.041.079l.026.049a2.529 2.529 0 0 0 .267.388l.01.008.164.182a1.985 1.985 0 0 0 .3.254c.011.008.022.024.033.032.062.04.146.087.207.127l.516.3a1.7 1.7 0 0 1-.713-1.56z" fill="#73c0e1"/><path data-name="Path 9607" d="M138.161 30.386a2.469 2.469 0 0 1-.828 2.11q4.506-2.615 9.027-5.212a1.384 1.384 0 0 0 .216-.166 2.425 2.425 0 0 0 .639-1.821z" fill="#70bfe0"/><path data-name="Path 9608" d="M138.158 30.774a.372.372 0 0 1-.035.032 6.205 6.205 0 0 1-1.068.381l-.2.047c-.139.032-.277.064-.416.088a.394.394 0 0 0-.093.016c-.032 0-.064.008-.1.008a5.928 5.928 0 0 1-.5.056h-.124c-.094.007-.185 0-.275 0h-.17c-.05-.009-.1-.009-.149-.016h-.011l-.238-.024c-.037-.008-.075-.008-.112-.016s-.064-.008-.1-.016-.045-.008-.067-.015a2.75 2.75 0 0 1-.264-.065.03.03 0 0 0-.023-.007.078.078 0 0 0-.044-.009.09.09 0 0 0-.039-.015c-.013-.008-.027-.008-.04-.016s-.025-.008-.036-.008-.014-.008-.02-.008a1.939 1.939 0 0 1-.382-.175 1.7 1.7 0 0 0 .715 1.563l.1.056.222.1.076.024.063.023c.093.032.188.065.269.088h.026c.049.016.092.016.139.032l.074.008c.011 0 .022.008.032.008a3.713 3.713 0 0 0 .371.024l.058-.009h.011l.172-.008h.078l.068-.015a.542.542 0 0 0 .109-.016l.061-.008c.019-.008.042-.008.064-.016a.3.3 0 0 1 .084-.016c.065-.023.131-.04.186-.056a2.184 2.184 0 0 0 .414-.158.3.3 0 0 0 .087-.04c.061-.032.142-.071.2-.1a1.31 1.31 0 0 0 .151-.11v-.009c.007 0 .012-.008.019-.015a.192.192 0 0 1 .029-.024.206.206 0 0 1 .022-.024l.013-.009c0-.007.007-.007.011-.015s.012-.008.018-.016l.021-.024c0-.007.009-.007.012-.016s.023-.031.036-.047l.041-.048c.009-.016.018-.024.027-.04 0-.008 0-.008.007-.015l.017-.024.009-.008v-.008l.014-.024.01-.024a.146.146 0 0 0 .024-.039.16.16 0 0 1 .018-.032c.006-.008.011-.024.016-.032a.184.184 0 0 0 .018-.04s.006-.007.008-.015v.008-.008c.01-.024.018-.04.026-.064a.362.362 0 0 0 .033-.071v-.032s0-.008.008-.016l.015-.047c.006-.016.01-.032.017-.048l.027-.087a.271.271 0 0 0 .01-.04c.009-.031.017-.071.026-.1l.009-.032.026-.127c0-.016.007-.032.009-.047 0-.024.007-.056.011-.088s.011-.055.014-.087v-.11.007-.023a.087.087 0 0 1 .009-.033c.042-.011.043-.019.046-.019z" fill="#73c0e1"/><path data-name="Path 9609" d="M146.8 14.431l.033 11.367a2.5 2.5 0 0 0 1.419-1.769q0-4.968-.022-9.938l-.646.14z" fill="#69b9db"/><path data-name="Path 9610" d="M138.154 30.798c0-4.61-.027-9.241-.044-13.866l-4.49 2.181.035 11.9a4.7 4.7 0 0 0 4.499-.215z" fill="#73c0e1"/><path data-name="Path 9611" d="M132.433 19.69l.028 10.006c0 .721.649 1.071 1.194 1.316l-.035-11.9z" fill="#73c0e1"/><path data-name="Path 9612" d="M147.184 14.331l.032 11.329-9.062 5.239-.04-13.968.992-.481z" fill="#70bfe0"/></g><path data-name="Path 9613" d="M142.795 11.684c-2.751 1.6-5.506 3.194-8.267 4.772-.153.088-.186.112-.317.2a4.07 4.07 0 0 0-1.778 3.2c0 .484.658 1.012 1.193 1.325a5.127 5.127 0 0 0 4.5-.213c.983-.56 7.55-4.09 9.023-5.215a3.079 3.079 0 0 0 1.058-1.363 2.8 2.8 0 0 0-.1-1.074 3.1 3.1 0 0 0-.8-1.393 4.307 4.307 0 0 0-1.963-.941 2.987 2.987 0 0 0-1.3.094 4.99 4.99 0 0 0-1.249.608z" fill="#7ac4e3"/></g><g data-name="Group 5203"><path data-name="Path 9614" d="M148.191 3.247a2.944 2.944 0 0 1-1.418 1.8l.058 20.469c0 .468-.118 1.494-.472 1.768a3.851 3.851 0 0 0 1.891-3.254V24c.001-6.917-.04-13.836-.059-20.753z" fill="#cee6f0" opacity=".5"/><path data-name="Path 9615" d="M145.718.121c-.01 0-.02-.008-.031-.008l.165.047z" fill="#979493" opacity=".5"/><path data-name="Path 9617" d="M144.533.026a.021.021 0 0 1-.019.008c.015 0 .032-.008.044-.008z" fill="#979493" opacity=".5"/><path data-name="Path 9618" d="M146.814.665a3.078 3.078 0 0 0-3.5-.218 1.962 1.962 0 0 1 1.741.38 2.03 2.03 0 0 1 1.759-.162z" fill="#f0fbff" opacity=".5"/><path data-name="Path 9619" d="M146.747.632a1.724 1.724 0 0 0-1.687.195c1.243.72 2 2.9 2.053 4.018a3.076 3.076 0 0 0 1.063-1.368 3.02 3.02 0 0 0-1.429-2.845z" fill="#ebf9ff" opacity=".5"/><path data-name="Path 9620" d="M147.115 4.809c-.134-1.735-1.035-3.528-2.055-3.982l-9.028 5.22c1.182.665 1.936 2.483 2.06 4 .278-.148 3.035-1.745 5.448-3.118a32.632 32.632 0 0 0 3.575-2.12z" fill="#ebf9ff" opacity=".5"/><path data-name="Path 9621" d="M132.401 8.943q.033 10.375.06 20.753v.054-.017a3.223 3.223 0 0 0 2.873 3.176c.011 0 .022.008.032.008a3.239 3.239 0 0 0 1.967-.421 2.256 2.256 0 0 0 .82-1.788c0-6.871-.06-13.791-.06-20.663-.749.701-4.982 1.253-5.692-1.102z" fill="#e2f4fc" opacity=".5"/><path data-name="Path 9622" d="M138.095 10.054c.055-1-.814-3.472-2.063-4.007a4.894 4.894 0 0 0-2.437 4.221 5.126 5.126 0 0 0 4.5-.214z" fill="#ebf9ff" opacity=".5"/><path data-name="Path 9623" d="M136.033 6.047a1.655 1.655 0 0 0-1.655-.428 3.875 3.875 0 0 0-1.976 3.324c0 .484.659 1.012 1.194 1.325a5.405 5.405 0 0 1 2.437-4.221z" fill="#f0fbff" opacity=".5"/><path data-name="Path 9624" d="M143.319.447c-3 1.744-6.012 3.489-9.027 5.211a2.227 2.227 0 0 1 1.74.389l9.028-5.22a1.841 1.841 0 0 0-1.741-.38z" fill="#f0fbff" opacity=".5"/><path data-name="Path 9625" d="M138.153 30.689l-.059-20.636.019-.011 8.805-5.089c-.048.034-.1.065-.145.094l.058 20.467v.279l-.011.006a2.465 2.465 0 0 1-.462 1.485l.018-.01-.017.01q-4.523 2.586-9.027 5.212a2.229 2.229 0 0 0 .819-1.783z" fill="#dcf1fa" opacity=".5"/></g><path data-name="Path 9626" d="M132.402 9.042a3.85 3.85 0 0 0-1.311 2.633 2.845 2.845 0 0 0 .486 1.644 3.694 3.694 0 0 0 1.27 1.158 5.442 5.442 0 0 0 5.227-.069 315.568 315.568 0 0 0 4.969-2.755c1.386-.787 2.708-1.562 3.591-2.136 1.156-.749.429-1.824-.824-1.021-.846.542-2.1 1.275-3.412 2.022a316.624 316.624 0 0 1-4.949 2.744 4.122 4.122 0 0 1-3.957.08 2.384 2.384 0 0 1-.826-.745 1.552 1.552 0 0 1-.269-.9 1.378 1.378 0 0 1 .013-.171z" fill="#1e7e96"/></g><g data-name="Group 5205"><path data-name="Path 9627" d="M127.146 30.289c.006-.006.164-.088.187-.1a2.881 2.881 0 0 1 1.688-.157 2.636 2.636 0 0 1 .656.255.3.3 0 0 0-.29.011 2.149 2.149 0 0 0-1.956 0 .312.312 0 0 0-.285-.009z" fill="#e2f4fc"/><path data-name="Path 9628" d="M127.49 30.127l-.013.005z" fill="#27323a"/><path data-name="Path 9629" d="M138.367 35.521l-8.98-5.221a.252.252 0 0 1 .29-.011q4.488 2.621 8.993 5.223a.356.356 0 0 0-.303.009z" fill="#e2f4fc"/><path data-name="Path 9630" d="M138.922 38.32v-.27a1.09 1.09 0 0 0 .642-.9v.27c0 .082 0 .157-.012.232a1.861 1.861 0 0 1-.562 1.184 2.092 2.092 0 0 1-.335.243c.161-.088.268-.37.267-.759z" fill="#dceaf0"/><path data-name="Path 9631" d="M138.361 36.655a.6.6 0 0 0 .006-1.134.266.266 0 0 1 .244-.035.385.385 0 0 1 .106.057 1.782 1.782 0 0 1 .517.5 2.03 2.03 0 0 1 .329 1.115 1.09 1.09 0 0 1-.642.9 2.093 2.093 0 0 0-.56-1.403z" fill="#dceaf0"/><path data-name="Path 9632" d="M114.865 37.376q6.146-3.531 12.281-7.087a.258.258 0 0 1 .285.011l-12.263 7.08a.316.316 0 0 0-.303-.004z" fill="#e2f4fc"/><path data-name="Path 9633" d="M113.972 39.029c0 .383.357.691.632.881 0 .267-.015.868.273 1.032a1.916 1.916 0 0 1-.905-1.913z" fill="#dcf1fa"/><path data-name="Path 9634" d="M114.21 38.05a1.973 1.973 0 0 1 .655-.676.267.267 0 0 1 .3.006.617.617 0 0 0-.007 1.135 1.1 1.1 0 0 0-.393.546 2.432 2.432 0 0 0-.164.849.665.665 0 0 1-.158-.1 1.073 1.073 0 0 1-.444-.574 1.851 1.851 0 0 1 .211-1.186z" fill="#dcf1fa"/><path data-name="Path 9635" d="M123.586 45.13c0 .245-.019.89.273 1.033-2.991-1.747-5.99-3.476-8.982-5.221-.288-.141-.3-.767-.273-1.032z" fill="#b6ccd6"/><path data-name="Path 9636" d="M126.659 45.398v-.3l12.263-7.047v.27c0 .389-.106.671-.268.762l-12.263 7.081a.876.876 0 0 0 .268-.766z" fill="#dceaf0"/><path data-name="Path 9637" d="M123.586 45.13l-8.982-5.22c0-.447.115-1.185.554-1.4.218.031 8.2 4.767 8.985 5.221-.389.221-.561.991-.557 1.399z" fill="#b6ccd6"/><path data-name="Path 9638" d="M123.586 45.13a3.39 3.39 0 0 0 3.072 0v.271a.876.876 0 0 1-.268.762 2.508 2.508 0 0 1-1.259.312 2.561 2.561 0 0 1-1.282-.312c-.305-.199-.272-.732-.263-1.033z" fill="#cfe0e8"/><path data-name="Path 9639" d="M123.586 45.13c0-.435.15-1.2.557-1.394a2.177 2.177 0 0 0 1.955 0c.525.228.557 1.037.56 1.394a3.04 3.04 0 0 1-1.529.384 3.324 3.324 0 0 1-1.543-.384z" fill="#cfe0e8"/><path data-name="Path 9640" d="M126.098 43.736l12.263-7.081c.432.214.558 1.045.56 1.4l-12.263 7.08c-.002-.369-.181-1.227-.56-1.399z" fill="#dceaf0"/><path data-name="Path 9641" d="M115.168 37.38a.6.6 0 0 0-.007 1.135l8.982 5.221a2.177 2.177 0 0 0 1.955 0q6.132-3.543 12.263-7.081a.6.6 0 0 0 .006-1.134l-8.98-5.221a2.149 2.149 0 0 0-1.956 0l-12.263 7.08z" fill="#ebf9ff"/></g><g data-name="Group 5206"><path data-name="Path 9642" d="M127.21 21.533a5.14 5.14 0 0 1 .265-.139 4.092 4.092 0 0 1 2.4-.222 3.762 3.762 0 0 1 .929.361.429.429 0 0 0-.411.015 3.052 3.052 0 0 0-2.775 0 .444.444 0 0 0-.408-.015z" fill="#e2f4fc"/><path data-name="Path 9643" d="M127.698 21.298l-.018.007z" fill="#27323a"/><path data-name="Path 9644" d="M143.133 28.956l-12.744-7.408a.358.358 0 0 1 .411-.015q6.371 3.72 12.763 7.411a.5.5 0 0 0-.43.012z" fill="#e8f3f7"/><path data-name="Path 9645" d="M143.921 32.928v-.383a1.547 1.547 0 0 0 .909-1.273v.384a3.138 3.138 0 0 1-.018.33 2.642 2.642 0 0 1-.8 1.679 3.124 3.124 0 0 1-.475.345 1.246 1.246 0 0 0 .384-1.082z" fill="#e8f3f7"/><path data-name="Path 9646" d="M143.124 30.566a.851.851 0 0 0 .01-1.61.379.379 0 0 1 .345-.049.538.538 0 0 1 .15.08 2.537 2.537 0 0 1 .733.7 2.866 2.866 0 0 1 .467 1.582 1.547 1.547 0 0 1-.909 1.273 2.976 2.976 0 0 0-.796-1.976z" fill="#e8f3f7"/><path data-name="Path 9647" d="M109.784 31.588q8.722-5.01 17.426-10.055a.37.37 0 0 1 .405.015l-17.4 10.046a.452.452 0 0 0-.431-.006z" fill="#e2f4fc"/><path data-name="Path 9648" d="M108.518 33.933a1.739 1.739 0 0 0 .9 1.251c0 .38-.022 1.232.388 1.465a2.718 2.718 0 0 1-1.288-2.716z" fill="#e2f4fc"/><path data-name="Path 9649" d="M108.855 32.545a2.817 2.817 0 0 1 .929-.96.382.382 0 0 1 .43.009.876.876 0 0 0-.008 1.611 1.577 1.577 0 0 0-.56.775 3.474 3.474 0 0 0-.232 1.2 1.012 1.012 0 0 1-.224-.146 1.528 1.528 0 0 1-.629-.816 2.622 2.622 0 0 1 .294-1.673z" fill="#e2f4fc"/><path data-name="Path 9650" d="M122.159 42.592c0 .346-.027 1.261.388 1.464-4.244-2.477-8.5-4.931-12.745-7.407-.409-.2-.427-1.088-.388-1.465z" fill="#cfe0e8"/><path data-name="Path 9651" d="M126.52 42.976v-.384l17.4-10.047v.383a1.246 1.246 0 0 1-.381 1.082l-17.4 10.046c.231-.129.382-.529.381-1.08z" fill="#e8f3f7"/><path data-name="Path 9652" d="M122.159 42.592l-12.745-7.408c0-.634.164-1.681.787-1.979.309.043 11.64 6.764 12.749 7.408-.551.307-.796 1.401-.791 1.979z" fill="#cfe0e8"/><path data-name="Path 9653" d="M122.159 42.592a4.814 4.814 0 0 0 4.36 0v.384c0 .551-.15.951-.381 1.08a3.559 3.559 0 0 1-1.786.444 3.642 3.642 0 0 1-1.819-.444c-.432-.281-.387-1.038-.374-1.464z" fill="#dceaf0"/><path data-name="Path 9654" d="M122.159 42.592c0-.618.213-1.7.791-1.979a3.1 3.1 0 0 0 2.775 0c.744.323.788 1.472.794 1.979a4.319 4.319 0 0 1-2.17.544 4.714 4.714 0 0 1-2.19-.544z" fill="#dceaf0"/><path data-name="Path 9655" d="M125.725 40.613l17.4-10.047c.612.3.793 1.482.8 1.979l-17.4 10.047c-.009-.518-.263-1.734-.8-1.979z" fill="#e8f3f7"/><path data-name="Path 9656" d="M110.214 31.598a.852.852 0 0 0-.008 1.611q6.371 3.7 12.744 7.408a3.1 3.1 0 0 0 2.775 0q8.7-5.027 17.4-10.047a.851.851 0 0 0 .01-1.61l-12.744-7.408a3.052 3.052 0 0 0-2.775 0l-17.402 10.046z" fill="#f4fafc"/></g><g data-name="Group 5207"><path data-name="Path 9657" d="M121.896 18.663l.057 15.459a.48.48 0 0 1-.284.4 1.588 1.588 0 0 1-.8.164.846.846 0 0 1-.843-.546v-.009l-.057-15.459z" fill="#17667a"/><path data-name="Path 9658" d="M120.208 19.031l.039.029a1.207 1.207 0 0 0 .191.084c.023 0 .048.015.072.02l.058.017v15.453a.75.75 0 0 1-.358-.195z" fill="#1b9ebf"/><path data-name="Path 9659" d="M121.062 19.217h.063c.053-.01.1-.015.156-.03.009 0 .018-.005.026-.005a1.238 1.238 0 0 0 .135-.04c.007 0 .016 0 .023-.01a1.106 1.106 0 0 0 .147-.069l.026-.016v15.492a1.376 1.376 0 0 1-.576.146z" fill="#1e7e96"/><path data-name="Path 9660" d="M120.254 18.272a1.5 1.5 0 0 1 1.362 0 .416.416 0 0 1 0 .788 1.507 1.507 0 0 1-1.365 0 .416.416 0 0 1 .003-.788z" fill="#666"/></g><g data-name="Group 5208"><path data-name="Path 9661" d="M133.562 11.898l.057 15.458a.481.481 0 0 1-.284.4 1.581 1.581 0 0 1-.8.164.847.847 0 0 1-.844-.546v-.009l-.057-15.459z" fill="#17667a"/><path data-name="Path 9662" d="M131.873 12.261a.3.3 0 0 0 .04.029.994.994 0 0 0 .191.085c.023 0 .048.015.072.02l.058.017v15.452a.749.749 0 0 1-.359-.194z" fill="#1b9ebf"/><path data-name="Path 9663" d="M132.727 12.448h.064c.053-.011.1-.015.155-.03.009 0 .019-.005.027-.005a1.306 1.306 0 0 0 .135-.04c.007 0 .016 0 .023-.01a.949.949 0 0 0 .147-.07l.026-.014V27.77a1.381 1.381 0 0 1-.577.146z" fill="#1e7e96"/><path data-name="Path 9664" d="M131.919 11.498a1.505 1.505 0 0 1 1.362 0 .416.416 0 0 1 0 .788 1.507 1.507 0 0 1-1.365 0 .416.416 0 0 1 .003-.788z" fill="#666"/></g><g data-name="Group 5209"><path data-name="Path 9665" d="M128.426 8.96c.007-.006.16-.086.182-.1a2.789 2.789 0 0 1 1.639-.152 2.585 2.585 0 0 1 .637.247.292.292 0 0 0-.282.011 2.085 2.085 0 0 0-1.9 0 .3.3 0 0 0-.276-.006z" fill="#dceaf0"/><path data-name="Path 9666" d="M128.76 8.798l-.012.005z" fill="#27323a"/><path data-name="Path 9667" d="M135.88 12.166l-5.278-3.2a.243.243 0 0 1 .282-.011c2.906 1.7 2.377 1.512 5.29 3.2a.337.337 0 0 0-.294.011z" fill="#dceaf0"/><path data-name="Path 9668" d="M136.418 16.531v-.263a1.055 1.055 0 0 0 .622-.871v.262a2.246 2.246 0 0 1-.013.227 1.806 1.806 0 0 1-.545 1.148 2.106 2.106 0 0 1-.325.237.856.856 0 0 0 .261-.74z" fill="#cfe0e8"/><path data-name="Path 9669" d="M135.873 13.268a.583.583 0 0 0 .007-1.1.258.258 0 0 1 .236-.034.414.414 0 0 1 .1.054 1.752 1.752 0 0 1 .5.482 11.639 11.639 0 0 1 .318 2.729 1.055 1.055 0 0 1-.622.871c.003-.404-.193-2.715-.539-3.002z" fill="#dceaf0"/><path data-name="Path 9670" d="M116.502 15.84q5.969-3.428 11.924-6.88a.251.251 0 0 1 .278.011l-11.907 6.874a.31.31 0 0 0-.295-.005z" fill="#dceaf0"/><path data-name="Path 9671" d="M115.633 19.092a1.187 1.187 0 0 0 .613.855c0 .26-.015.844.265 1a1.857 1.857 0 0 1-.878-1.855z" fill="#e2f4fc"/><path data-name="Path 9672" d="M115.866 16.498a1.92 1.92 0 0 1 .637-.657.262.262 0 0 1 .294.007.6.6 0 0 0-.006 1.1 13.674 13.674 0 0 0-.383 2.178 2.356 2.356 0 0 0-.159.823.658.658 0 0 1-.154-.1 1.05 1.05 0 0 1-.431-.559 10.114 10.114 0 0 1 .202-2.792z" fill="#dceaf0"/><path data-name="Path 9673" d="M121.528 23.142c0 .238-.019.864.264 1-2.9-1.7-2.373-1.5-5.278-3.2-.28-.137-.291-.745-.265-1z" fill="#cfe0e8"/><path data-name="Path 9674" d="M124.511 23.405v-.263l11.906-6.874v.263a.856.856 0 0 1-.26.74l-11.907 6.874a.849.849 0 0 0 .261-.74z" fill="#dceaf0"/><path data-name="Path 9675" d="M121.528 23.142l-5.279-3.2c0-.433.112-2.8.538-3 .212.03 4.523 2.756 5.282 3.2-.378.209-.544 2.605-.541 3z" fill="#cfe0e8"/><path data-name="Path 9676" d="M121.528 23.142a3.3 3.3 0 0 0 2.983 0v.263a.849.849 0 0 1-.26.74 2.435 2.435 0 0 1-1.223.3 2.483 2.483 0 0 1-1.244-.3c-.297-.192-.266-.711-.256-1.003z" fill="#cfe0e8"/><path data-name="Path 9677" d="M121.528 23.142c0-.422.146-2.807.541-3a2.121 2.121 0 0 0 1.9 0c.509.221.54 2.654.544 3a2.931 2.931 0 0 1-1.485.373 3.226 3.226 0 0 1-1.5-.373z" fill="#dceaf0"/><path data-name="Path 9678" d="M123.967 20.142l11.906-6.874c.419.207.543 2.66.544 3l-11.906 6.874c-.002-.353-.178-2.833-.544-3z" fill="#e8f3f7"/><path data-name="Path 9679" d="M116.797 15.845a.582.582 0 0 0-.006 1.1c2.906 1.69 2.371 1.506 5.278 3.2a2.121 2.121 0 0 0 1.9 0q5.952-3.44 11.906-6.874a.583.583 0 0 0 .007-1.1c-2.907-1.69-2.372-1.506-5.278-3.2a2.085 2.085 0 0 0-1.9 0l-11.907 6.874z" fill="#f4fafc"/></g><g data-name="Group 5214"><path data-name="Path 9680" d="M110.804 29.813c2.553-1.4 7.665-4.21 9.053-5.271l.013-.01a5.934 5.934 0 0 0 .93-.93 2.622 2.622 0 0 0 .51-1 2.511 2.511 0 0 0 .025-.728 5.257 5.257 0 0 0-.14-.8 4.24 4.24 0 0 0-.425-1.031 3.927 3.927 0 0 0-.671-.866 4.76 4.76 0 0 0-1.195-.789 5.409 5.409 0 0 0-1.406-.467 3.961 3.961 0 0 0-.851-.035 4.168 4.168 0 0 0-.915.163 5.286 5.286 0 0 0-1.368.631l-.209.123q-2.353 1.365-4.709 2.728c-1.3.751-2.663 1.536-4.139 2.382-1.568.9-.811 2 .674 1.144 1.288-.737 2.68-1.539 4.13-2.378q2.358-1.36 4.709-2.728l.22-.129a4.266 4.266 0 0 1 1.061-.5 2.822 2.822 0 0 1 .629-.111 2.611 2.611 0 0 1 .571.025 3.974 3.974 0 0 1 1.031.347 3.318 3.318 0 0 1 .842.545 2.607 2.607 0 0 1 .438.576 2.927 2.927 0 0 1 .29.7 3.884 3.884 0 0 1 .1.589 1.377 1.377 0 0 1 0 .328 1.339 1.339 0 0 1-.26.474 4.523 4.523 0 0 1-.7.7c-1.31 1-6.361 3.774-8.884 5.16-2 1.097-1.412 2.289.646 1.158z" fill="#1e7e96"/><g data-name="Group 5213"><path data-name="Path 9681" d="M115.563 42.698l.01 3.439h-.01a.8.8 0 0 1-.477.686 2.528 2.528 0 0 1-2.295 0 .872.872 0 0 1-.459-.553l-.009-3.564z" fill="#9cd0e6"/><g data-name="Group 5212"><g data-name="Group 5210"><path data-name="Path 9682" d="M120.023 39.924a2.338 2.338 0 0 1-1.08 1.578 2.5 2.5 0 0 1-.812 1.707 3.854 3.854 0 0 0 1.892-3.285z" fill="#69b9db"/><path data-name="Path 9683" d="M105.426 46.938l-.517-.3a1.18 1.18 0 0 1-.677-1.014 3.36 3.36 0 0 0 .032.444c0 .023.007.047.01.063l.008.064.014.072c.007.039.016.078.024.11l.01.047.009.033a2.415 2.415 0 0 0 .075.246.172.172 0 0 0 .01.031.261.261 0 0 0 .015.04l.042.1.05.12c.015.031.026.047.039.071l.006.016c.014.024.026.056.041.08s.017.031.026.047a2.5 2.5 0 0 0 .267.389l.01.008.164.182a2.036 2.036 0 0 0 .3.254c.01.008.022.024.033.032.062.039.145.087.206.127l.517.3a1.7 1.7 0 0 1-.714-1.562z" fill="#73c0e1"/><path data-name="Path 9684" d="M109.933 46.311a2.468 2.468 0 0 1-.829 2.11q4.507-2.615 9.028-5.212a1.406 1.406 0 0 0 .216-.167 2.428 2.428 0 0 0 .639-1.82z" fill="#70bfe0"/><path data-name="Path 9685" d="M109.933 46.698c-.01.007-.025.023-.036.031a6.222 6.222 0 0 1-1.069.38l-.2.049c-.138.031-.276.063-.415.087a.342.342 0 0 0-.093.016c-.032 0-.064.007-.1.007-.168.024-.336.048-.5.056h-.125c-.094.008-.183 0-.275 0h-.169c-.051-.008-.1-.008-.149-.016h-.011l-.238-.024c-.037-.008-.075-.008-.112-.016s-.064-.007-.1-.016-.045-.007-.067-.015c-.092-.016-.178-.04-.265-.063a.026.026 0 0 0-.022-.008.083.083 0 0 0-.043-.008.09.09 0 0 0-.041-.017c-.013-.007-.026-.007-.039-.015s-.025-.008-.037-.008-.013-.009-.019-.009a1.985 1.985 0 0 1-.382-.173 1.7 1.7 0 0 0 .716 1.562l.1.056.221.1.077.024.063.024c.093.031.188.063.269.086h.024c.05.016.094.016.141.032l.074.008c.01 0 .021.008.032.008a3.325 3.325 0 0 0 .37.024l.059-.008h.011l.171-.008h.079l.068-.016a.52.52 0 0 0 .108-.016l.062-.008c.018-.007.042-.007.064-.016a.284.284 0 0 1 .084-.015c.065-.024.131-.04.186-.056a2.251 2.251 0 0 0 .414-.158.322.322 0 0 0 .086-.04l.2-.1a1.528 1.528 0 0 0 .152-.111V48.3c.007 0 .012-.008.019-.016l.028-.024.022-.024.013-.008c0-.007.008-.007.013-.015s.011-.009.016-.016l.022-.024c0-.008.009-.008.012-.016l.035-.048.042-.047c.009-.016.019-.024.027-.04 0-.008 0-.008.007-.015l.016-.024.009-.009v-.008l.014-.023.01-.024a.154.154 0 0 0 .025-.04.161.161 0 0 1 .018-.031c.006-.008.011-.024.016-.032a.174.174 0 0 0 .018-.039l.008-.016v.007-.007c.009-.025.018-.041.026-.064a.436.436 0 0 0 .033-.071v-.032s0-.008.007-.016l.016-.048.016-.047c.009-.032.019-.056.028-.088 0-.007.006-.023.01-.039l.025-.1.01-.031.027-.127c0-.016.006-.032.008-.048 0-.024.007-.055.011-.087s.011-.055.014-.088l.005-.039V46.765v.008-.024a.075.075 0 0 1 .008-.032z" fill="#73c0e1"/><path data-name="Path 9686" d="M118.572 30.355l.032 11.362a2.5 2.5 0 0 0 1.419-1.769q0-4.968-.022-9.937l-.646.14z" fill="#69b9db"/><path data-name="Path 9687" d="M109.926 46.723c0-4.61-.027-9.242-.045-13.867l-4.489 2.183.034 11.9a4.708 4.708 0 0 0 4.5-.216z" fill="#73c0e1"/><path data-name="Path 9688" d="M104.205 35.615l.027 10.006c0 .721.649 1.072 1.194 1.317l-.034-11.9z" fill="#73c0e1"/><path data-name="Path 9689" d="M118.956 30.255l.032 11.329-9.062 5.238-.04-13.967.992-.482z" fill="#70bfe0"/></g><path data-name="Path 9690" d="M114.567 27.609q-4.126 2.394-8.267 4.772c-.154.087-.186.111-.318.2a4.077 4.077 0 0 0-1.778 3.2c0 .485.659 1.013 1.194 1.325a5.128 5.128 0 0 0 4.5-.213c.984-.559 7.551-4.089 9.024-5.214a3.06 3.06 0 0 0 1.057-1.364 2.788 2.788 0 0 0-.1-1.073 3.082 3.082 0 0 0-.8-1.393 4.305 4.305 0 0 0-1.962-.942 3 3 0 0 0-1.3.094 4.984 4.984 0 0 0-1.25.608z" fill="#7ac4e3"/><g data-name="Group 5211"><path data-name="Path 9691" d="M119.962 19.172a2.955 2.955 0 0 1-1.417 1.8l.058 20.468c0 .467-.118 1.494-.472 1.768a3.853 3.853 0 0 0 1.891-3.254v-.031c.001-6.916-.041-13.834-.06-20.751z" fill="#cee6f0" opacity=".5"/><path data-name="Path 9692" d="M117.49 16.047c-.01 0-.02-.009-.031-.009.058.016.116.032.165.048z" fill="#979493" opacity=".5"/><path data-name="Path 9694" d="M116.302 15.951a.021.021 0 0 1-.019.008c.015 0 .031-.008.044-.008z" fill="#979493" opacity=".5"/><path data-name="Path 9695" d="M118.586 16.589a3.081 3.081 0 0 0-3.5-.218 1.96 1.96 0 0 1 1.742.381 2.038 2.038 0 0 1 1.758-.163z" fill="#f0fbff" opacity=".5"/><path data-name="Path 9696" d="M118.518 16.556a1.721 1.721 0 0 0-1.686.2c1.243.72 2 2.9 2.053 4.017a3.091 3.091 0 0 0 1.063-1.368 2.836 2.836 0 0 0-.1-1.074 2.8 2.8 0 0 0-1.33-1.775z" fill="#ebf9ff" opacity=".5"/><path data-name="Path 9697" d="M118.887 20.734c-.135-1.735-1.035-3.529-2.055-3.982l-9.028 5.22c1.181.664 1.936 2.483 2.06 4 .279-.148 3.035-1.744 5.448-3.118a32.512 32.512 0 0 0 3.575-2.12z" fill="#ebf9ff" opacity=".5"/><path data-name="Path 9698" d="M104.173 24.867q.033 10.375.059 20.754v.037a3.225 3.225 0 0 0 2.874 3.175c.01 0 .021.008.032.008a3.227 3.227 0 0 0 1.966-.42 2.253 2.253 0 0 0 .821-1.788c0-6.872-.059-13.791-.059-20.663-.751.7-4.983 1.247-5.693-1.103z" fill="#e2f4fc" opacity=".5"/><path data-name="Path 9699" d="M109.867 25.979c.055-1-.814-3.471-2.063-4.007a4.888 4.888 0 0 0-2.437 4.22 5.13 5.13 0 0 0 4.5-.213z" fill="#ebf9ff" opacity=".5"/><path data-name="Path 9700" d="M107.804 21.972a1.652 1.652 0 0 0-1.655-.429 3.876 3.876 0 0 0-1.976 3.324c0 .485.659 1.013 1.194 1.325a5.4 5.4 0 0 1 2.437-4.22z" fill="#f0fbff" opacity=".5"/><path data-name="Path 9701" d="M115.091 16.371q-4.506 2.615-9.027 5.212a2.223 2.223 0 0 1 1.74.389l9.028-5.22c-.435-.276-1.116-.691-1.741-.381z" fill="#f0fbff" opacity=".5"/><path data-name="Path 9702" d="M109.925 46.613l-.058-20.636.017-.011 8.806-5.087c-.049.033-.1.063-.145.094l.058 20.465v.279l-.011.006a2.479 2.479 0 0 1-.462 1.486l.018-.011-.017.011q-4.523 2.585-9.028 5.212a2.228 2.228 0 0 0 .819-1.783z" fill="#dcf1fa" opacity=".5"/></g></g></g><path data-name="Path 9703" d="M110.809 29.798c2.553-1.4 7.665-4.21 9.053-5.271l.014-.01a6.077 6.077 0 0 0 .93-.931 2.615 2.615 0 0 0 .509-1 2.516 2.516 0 0 0 .024-.728 5.1 5.1 0 0 0-.14-.8 4.172 4.172 0 0 0-.424-1.03 3.94 3.94 0 0 0-.67-.865 2.924 2.924 0 0 0-.267-.228c.052.411.1.837.123 1.276v1.415a3.085 3.085 0 0 1 .05.354 1.356 1.356 0 0 1 0 .327 1.316 1.316 0 0 1-.26.474 4.646 4.646 0 0 1-.7.7c-1.31 1-6.361 3.773-8.883 5.159-2.004 1.091-1.417 2.284.641 1.158z" fill="#1e7e96"/></g></g></g><path data-name="Path 9704" d="M114.476 46.953l.012 1.355c.08 9.191.323 37.04 1.133 50.888.572 9.79 1.523 15.8 3.373 20.062 1.833 4.219 4.573 6.738 8.73 9.552 2.856 1.933 5.874 3.856 8.824 5.735 7.926 5.051 15.362 9.79 17.05 13.012a2.146 2.146 0 0 1-1 3.291 2.544 2.544 0 0 1-1.877.1 34.42 34.42 0 0 1-5.525-1.882c-3.988-1.613-8.515-4.686-12.252-7.222-1.511-1.026-2.891-1.963-4.053-2.678l.394-.638c1.166.719 2.557 1.663 4.078 2.7 3.7 2.514 8.191 5.559 12.115 7.146a33.684 33.684 0 0 0 5.39 1.841c.882.176 1.173.083 1.384-.027a1.486 1.486 0 0 0 .686-2.28c-1.6-3.046-8.951-7.732-16.79-12.728-2.988-1.9-6.045-3.852-8.84-5.744-4.273-2.891-7.093-5.489-9-9.878-1.889-4.349-2.857-10.436-3.434-20.317-.809-13.842-1.053-41.722-1.133-50.923l-.012-1.355z" fill="#abdaef"/></g><path data-name="Path 9705" d="M3.424 201.245a.842.842 0 0 0 .355.4 5.355 5.355 0 0 1-.26-.167l-.04-.027c-2.8-1.949-3.409-6.752-3.467-9.946v-.064a26.228 26.228 0 0 1 .743-8.058c0-.012.007-.024.01-.035.921-3.544 3.089-4.591 6.545-6.587 22.6-13.047 51.824-27.954 74.424-41 .016-.01.032-.018.049-.027a5.064 5.064 0 0 1 4.838.021l.015.009.009.006 5.718 3.321 232.8 135.157 11.433 6.645a.941.941 0 0 0-.272-.107 1.04 1.04 0 0 1 .272.107 4.531 4.531 0 0 1 .385.256l.071.051c.116.09.221.181.328.273.017.018.037.033.057.052l.04.034.254.262.024.03a10.58 10.58 0 0 1 2.02 4.218c1.563 5.738.267 13.787-1.585 16.226a4.907 4.907 0 0 1-1.48 1.4.866.866 0 0 1-.079.05c-25.5 14.722-52.209 28.171-77.992 43.057a.036.036 0 0 1-.014.007h-.01a5.056 5.056 0 0 1-4.626.119l-.254-.137-11.432-6.644c-63.021-36.624-163.995-95.33-227.086-131.834l-11.433-6.645q-.189-.217-.36-.423z" fill="#17667a" fill-rule="evenodd"/><g data-name="Group 5218" fill-rule="evenodd"><path data-name="Path 9706" d="M133.099 127.42c.592-.338 1.4-.832 2.068-.437-4.025-2.615-9.993-3.528-13.54-1.163l-.6.345c3.591-1.411 7.829.049 12.072 1.255z" fill="#248ca6"/><path data-name="Path 9707" d="M125.733 142.987a4.814 4.814 0 0 1-2.787-2.53 6.96 6.96 0 0 1 2.339-8.679c-3.449 1.149-5.451 5.542-4.639 8.736.622 2.454 2.71 5.084 5.087 2.473z" fill="#1c768c"/><path data-name="Path 9708" d="M128.198 139.598c-1.964 1.428-2.069 2.061-3.254 3.8a1.69 1.69 0 0 1-1.153.091 4.125 4.125 0 0 1-2.323-1.864c-1.155-1.828-.806-4.013.134-5.986 1.122-2.358 2.829-3.9 5.179-4.125a7.522 7.522 0 0 1 6.357 2.753 6.586 6.586 0 0 1 1.16 2.57c.236 1.091 0 .866-.942.985a9.227 9.227 0 0 0-5.158 1.779zm2.12-9.326a3.423 3.423 0 0 0-1.306-.653c-6.733-2.833-12.252.465-13.636 7.322-1.009 4.457 1.878 9.642 5.084 11.5 1.974 1.154 4.369 1.244 5.5-.394 1.39-2 2.782-4.1 7.3-4.452 5.11-.104 3.889-9.161-2.942-13.322z" fill="#1c768c"/><path data-name="Path 9709" d="M211.285 193.22a6.488 6.488 0 0 1-2.061-2.3 28.5 28.5 0 0 1-1.771-3.792 39.017 39.017 0 0 0-4.838-9.1c-1.752-2.466-3.028-3.533-3.968-6.186-.593-2.02.5-1.458-1.451-.687-1.862 1.061 3 8.006 6.17 12.778 1.379 2.073 3.437 8.968 4.83 9.79 1.303.836 2.801.696 3.089-.503z" fill="#1b9ebf"/><path data-name="Path 9710" d="M210.675 193.785c-.006.053-.017.1-.026.143-1.3.407-2.839-1.39-3.4-2.36-.061-.1-1.91-4.441-1.91-4.725a40.058 40.058 0 0 0-.8-1.823 41.363 41.363 0 0 0-4.606-7.473 22.708 22.708 0 0 1-2.249-3.133c-.554-1.068-.985-2.425-.39-3.078 5.242 1.871 11.028 11.141 12.889 18.234a29.026 29.026 0 0 1 .494 4.215zm1.39-.223c-1.342-8.486-6.976-18.292-13.675-23.316a4.137 4.137 0 0 0-1.3-.872c-6.5-3.429-7.735 4.239-2.679 10.219 4.494 5.628 5.407 8.952 6.788 12.577a13.725 13.725 0 0 0 5.345 6.624 4.929 4.929 0 0 0 4.147.6c1.316-.623 1.93-2.655 1.374-5.832z" fill="#1c768c"/><path data-name="Path 9711" d="M133.099 127.42c-3.433-2.013-8.208-3.506-12.07-1.3-4.371 2.717-5.607 7.1-5.789 12.083a2.58 2.58 0 0 0 1.525 1.975c.02-8.758 6.307-12.29 13.927-7.822.006-1.675.966-4.108 2.407-4.936z" fill="#248ca6"/><path data-name="Path 9712" d="M217.588 194.055a1.466 1.466 0 0 1-.819 1.214l-.93.379.257 20.676.6-.344c.01 0 .019-.011.03-.022.608-.31.79-1.287.79-1.928.028-8.332.053-11.646.072-19.975z" fill="#1c768c"/><path data-name="Path 9713" d="M201.303 165.71q-33.071-19.358-66.136-38.727a1.3 1.3 0 0 0-1.468.095l-.6.342 66.136 38.727c.637-.364 1.442-.749 2.068-.437z" fill="#1b9ebf"/><path data-name="Path 9714" d="M216.17 195.613c-1.521.857-4.053.406-5.5-.444l-.063 17.153c.579 1.391 2.9 4.644 5.49 4z" fill="#17667a"/><path data-name="Path 9715" d="M199.233 166.147l-2.562-2.134-61.491-36.079-2.083-.514c-1.573.917-2.4 3.354-2.407 4.939l66.143 38.727c0-1.657.9-4.088 2.4-4.939z" fill="#1b9ebf"/><path data-name="Path 9716" d="M216.17 195.613c.4-10.345-8.315-27.1-16.935-29.466-1.479.847-2.407 3.234-2.407 4.939 7.627 4.459 13.872 15.33 13.842 24.083a5.341 5.341 0 0 0 5.5.444z" fill="#1c768c"/><path data-name="Path 9717" d="M206.807 198.598a13.073 13.073 0 0 1-5.146-6.492 37.612 37.612 0 0 0-6.854-12.51c-3.639-4.305-4.226-9.485-1.843-10.768l-58.507-34.26c2.4 4.068 1.879 8.561-1.793 8.638-4.517.354-5.512 2.45-6.9 4.45-1.13 1.639-3.194 1.613-5.168.458a11.246 11.246 0 0 1-3.839-3.98l.011-3.949c-1-1.268-1.524-1.566-1.524-1.975-.02 8.328-.047 11.644-.069 19.972l98.805 57.856c-1.215-.7-2.908-2.778-2.9-4.294.011-4.268.064-5.865.083-12.731a4.97 4.97 0 0 1-4.356-.415z" fill="#1c768c"/><path data-name="Path 9718" d="M216.992 195.155a1.477 1.477 0 0 0 .585-.929 1.554 1.554 0 0 0 .009-.286 32.155 32.155 0 0 0-3.226-13.173 34.95 34.95 0 0 0-12.907-14.973 1.375 1.375 0 0 0-1.618.011l-.6.342c9.209 5.409 16.663 19.011 16.637 29.9.236-.137.929-.749 1.12-.892z" fill="#1c768c"/></g><g data-name="Group 5219" fill-rule="evenodd"><path data-name="Path 9719" d="M1.809 191.589c-.009-3.352.061-9.242 2.983-11.357 70.848 41.172 179.006 104.2 249.885 145.392a1.737 1.737 0 0 0-.3.221 2.727 2.727 0 0 0-.288.309l-.007.006a4.442 4.442 0 0 0-.269.379l-.01.014c-.087.139-.174.29-.256.45l-.022.042a9.745 9.745 0 0 0-.238.5l-.017.039c-.077.182-.153.372-.226.572a.131.131 0 0 1-.009.023 14.034 14.034 0 0 0-.227.679c-.062.2-.121.414-.179.629l-.047.182c-.046.177-.09.361-.132.546l-.042.177c-.054.247-.106.5-.154.758-.011.06-.02.121-.032.18a26.072 26.072 0 0 0-.226 1.498c-.02.164-.034.312-.053.469s-.033.3-.046.448c-.018.187-.031.378-.045.569-.01.132-.022.264-.029.4-.015.242-.025.487-.035.732 0 .09-.009.18-.012.272-.01.328-.014.659-.014.991-70.953-41.23-178.703-103.711-249.953-145.12z" fill="#1c768c"/><path data-name="Path 9720" d="M82.233 135.619a.656.656 0 0 0-.076 0h-.06a.95.95 0 0 0-.369.117l.013-.007h.009-.007.012c.075-.043.168-.09.241-.13l.087-.039.067-.031.1-.045c.071-.029.165-.064.239-.09l-.05.017.06-.021h.01l.027-.009h.012l.2-.064c.072-.02.169-.043.242-.061 0 0 .07-.016.165-.035l.076-.015a.574.574 0 0 1 .074-.012h.013c.016 0 .029 0 .045-.006l.107-.018.239-.026c.071-.006.167-.011.238-.015h.165-.062.133c.072 0 .168 0 .24.006l.237.015c.072.007.165.019.238.028h-.027.081l.08.013.044.007.061.01c.072.013.17.035.244.051l.24.062.125.041h.008l.09.029h-.008l.037.013.244.094c.111.047.163.07.251.115l.023.01c.076.042.178.1.255.138a.947.947 0 0 0-.365-.119h-.012a.209.209 0 0 0-.035 0h-.067a.273.273 0 0 0-.029 0h-.03a.9.9 0 0 0-.268.043l-.035.014a1.226 1.226 0 0 0-.163.072 3.23 3.23 0 0 0-2.918 0 1.082 1.082 0 0 0-.188-.082.9.9 0 0 0-.303-.07z" fill="#ede8e8"/><path data-name="Path 9721" d="M83.291 135.175h.01l-.066.009z" fill="#8d8a89"/><path data-name="Path 9723" d="M85.826 135.368h.007l-.072-.025z" fill="#8d8a89"/><path data-name="Path 9724" d="M.009 191.408a3.311 3.311 0 0 0 1.807 2.528c0 1.573.294 6.74 1.963 7.71a6.389 6.389 0 0 1-.26-.166l-.04-.028c-2.811-1.954-3.413-6.783-3.468-9.976v-.014z" fill="#17667a"/><path data-name="Path 9725" d="M3.74 178.788l3.567-2.06c22.6-13.047 51.824-27.954 74.424-41l.009-.006a1.138 1.138 0 0 1 .113-.055.959.959 0 0 1 .1-.036h.019a.807.807 0 0 1 .079-.019c.032 0 .062-.009.093-.01s.037 0 .057 0h.036a.7.7 0 0 1 .1.01.822.822 0 0 1 .1.023h.013a.134.134 0 0 0 .025.01 1.143 1.143 0 0 1 .108.038c.044.02.087.042.132.068L4.723 178.808a.942.942 0 0 0-.983-.02z" fill="#1c768c"/><path data-name="Path 9726" d="M.009 188.437l.033-.8c.014-.254.044-.592.065-.846a19.066 19.066 0 0 1 .645-3.438c0-.012.007-.024.01-.035a9.922 9.922 0 0 1 1.5-3.186l.055-.078a4.838 4.838 0 0 1 1.343-1.226.93.93 0 0 1 1.065-.015 1.717 1.717 0 0 0-.263.186c-.528.461-.276.92.428 1.328-1.725 1-2.556 5.392-2.755 6.776l-.009.052a32 32 0 0 0-.319 4.438c-.037-.022-.06-.048-.1-.069l.013.018c-.154-.093-.271-.2-.405-.3a2.941 2.941 0 0 1-1.265-1.734c0-.016-.009-.032-.013-.047v.007-.027a5.428 5.428 0 0 1-.028-1.004z" fill="#1c768c"/><path data-name="Path 9727" d="M.006 188.517v.413-.205a4.808 4.808 0 0 1 0-.208z" fill="#9d9a97"/><path data-name="Path 9728" d="M85.633 135.757a.957.957 0 0 1 1-.017l5.718 3.321 232.8 135.157 11.433 6.645a.95.95 0 0 0-1 .035z" fill="#1c768c"/><path data-name="Path 9729" d="M4.727 178.81a.894.894 0 0 0 0 1.69c70.7 41.085 179.277 104.05 249.953 145.124a3.212 3.212 0 0 0 2.911 0c23.786-13.734 54.2-29.324 77.991-43.058a.891.891 0 0 0 .01-1.686c-70.7-41.084-179.276-104.05-249.952-145.123a3.227 3.227 0 0 0-2.918 0c-23.789 13.729-54.207 29.32-77.995 43.053z" fill="#1b9ebf"/><path data-name="Path 9730" d="M335.579 282.566a.891.891 0 0 0 .01-1.686c.012-.007.024-.009.037-.015a.97.97 0 0 1 .973 0 4.379 4.379 0 0 1 .385.256l.071.051c.116.09.221.181.328.273.017.018.037.033.057.052l.04.034.254.262a.228.228 0 0 1 .024.03 10.58 10.58 0 0 1 2.02 4.218c1.563 5.738.267 13.787-1.585 16.226a4.944 4.944 0 0 1-1.562 1.452c1.829-2.312 1.658-19.058-1.052-21.153z" fill="#1c768c"/><path data-name="Path 9731" d="M251.768 339.06c0 1.763.287 6.73 1.963 7.709l-11.434-6.645C179.276 303.5 78.302 244.794 15.211 208.29l-11.434-6.645c-1.678-.982-1.95-5.973-1.961-7.644v-.065z" fill="#17667a"/><path data-name="Path 9732" d="M260.51 340.533c.024-.473.034-.965.034-1.473l77.989-43.062a15.867 15.867 0 0 1-1.134 6.808 2.211 2.211 0 0 1-.774.906l-7.136 4.12c-11.893 6.867-30.417 15.591-42.311 22.458l-7.135 4.12-7.138 4.12-7.135 4.12-7.137 4.12c.986-.563 1.718-2.929 1.877-6.237z" fill="#1e7e96"/><path data-name="Path 9733" d="M251.761 336.712l.007 2.348-250.9-145.5c-.47-.272-.717-1.217-.822-1.742a2.2 2.2 0 0 1-.041-.357v-.053l-.007-2.209v-.14a2.117 2.117 0 0 0 .107.64c.007.022.011.045.019.067a2.589 2.589 0 0 0 .3.579c.023.034.045.068.07.1a3.762 3.762 0 0 0 1.091.912z" fill="#17667a"/><path data-name="Path 9734" d="M260.533 336.713l.007 2.347 77.993-43.062-.007-2.347z" fill="#1e7e96"/><path data-name="Path 9735" d="M251.768 339.124v-.065a9.829 9.829 0 0 0 8.776 0c.01 4.068-.785 7.064-1.909 7.714a.036.036 0 0 1-.014.007h-.01a5.056 5.056 0 0 1-4.626.119l-.254-.137c-1.587-.919-1.952-5.364-1.963-7.638z" fill="#1c768c"/><path data-name="Path 9736" d="M251.768 339.06l-.007-2.348a9.727 9.727 0 0 0 8.776 0l.12 1.111-.113 1.237a9.706 9.706 0 0 1-8.776 0z" fill="#1c768c"/><path data-name="Path 9737" d="M260.467 334.725c-.042-.628-.1-1.245-.177-1.843-.006-.055-.015-.107-.023-.161a21.92 21.92 0 0 0-.124-.849l-.055-.324c-.04-.224-.08-.445-.124-.661l-.062-.3a23.087 23.087 0 0 0-.264-1.1c-.022-.086-.048-.167-.071-.252-.051-.175-.1-.349-.155-.514-.04-.127-.083-.249-.125-.371-.028-.079-.055-.162-.084-.24-.07-.184-.14-.364-.213-.533-.008-.021-.017-.039-.026-.059a8.894 8.894 0 0 0-.223-.476.213.213 0 0 1-.019-.038q-.127-.245-.261-.456l-.011-.015a4.017 4.017 0 0 0-.261-.366.236.236 0 0 0-.025-.032 2.534 2.534 0 0 0-.229-.245 1.878 1.878 0 0 0-.347-.274l.4-.233.924-.534.558-.321 2.793-1.613h.009l6.28-3.627c.139-.079.28-.16.42-.242l1.5-.864 1.778-1.027 2.9-1.673c.638-.37 1.282-.742 1.941-1.122 17.285-9.979 41.191-21.837 58.488-31.8 2.292 1.339 2.945 8.615 2.949 11.089l-77.991 43.057c0-.655-.026-1.307-.067-1.948l-.003-.033z" fill="#248ca6"/><path data-name="Path 9738" d="M251.761 336.712c0-3.561.61-9.4 2.817-11.024l.048-.029a.7.7 0 0 1 .056-.034 3.255 3.255 0 0 0 2.911 0c2.859 1.566 3.217 10.151 2.949 11.088a9.708 9.708 0 0 1-8.781-.001z" fill="#1e7e96"/></g><g data-name="Group 5228" fill-rule="evenodd"><g data-name="Group 5221"><path data-name="Path 9739" d="M98.158 112.109a15.859 15.859 0 0 0-9.048-5.652 18.1 18.1 0 0 0-11.182 1.446 1.454 1.454 0 0 1 .182-.071 1.328 1.328 0 0 0-.271.117q-28.34 16.479-56.688 32.94c-.278.168-.513.32-.738.479a10.782 10.782 0 0 0-3.611 4.063 11.93 11.93 0 0 0 1.072 13.137c.219.317.5.677.784 1.02.245.3.492.591.752.876q21.628 23.73 43.306 47.419c.464.507.911.989 1.4 1.477a19.436 19.436 0 0 0 10.843 5.035c2.167.228 6.591-.276 8.781-1.828a1.4 1.4 0 0 1-.144.1q28.35-16.46 56.688-32.944c1.544-.886 4.134-3.154 4.612-5.05 2.684-5.119.693-10.432-2.711-14.35h.01l-.167-.183q-21.932-24.015-43.87-48.031z" fill="#e8f3f7"/><g data-name="Group 5220"><path data-name="Path 9740" d="M98.157 112.109a15.857 15.857 0 0 0-9.047-5.652 18.05 18.05 0 0 0-11.271 1.492c.866-.509 2.115.206 2.672.869 5.229-1.888 12.4.059 16.1 3.46a.2.2 0 0 1 .042.041c.025.026.058.05.084.077a3.425 3.425 0 0 1 1.42-.287z" fill="#cfe0e8"/><path data-name="Path 9741" d="M142.194 160.328l-.167-.182q-21.931-24.021-43.87-48.037a1.425 1.425 0 0 0-1.416.287l44.028 48.218a2.386 2.386 0 0 1 1.425-.286z" fill="#dceaf0"/><path data-name="Path 9742" d="M141.147 178.543a2.606 2.606 0 0 1-.864 1.181c1.55-.89 4.152-3.17 4.617-5.069a30.156 30.156 0 0 1-3.753 3.888z" fill="#1e7e96"/><path data-name="Path 9743" d="M142.182 160.321a1.434 1.434 0 0 0-1.413.293c3.121 3.393 4.038 8.3 1.043 11.638a7.459 7.459 0 0 1-1.746 1.775c.949 1 1.747 3.133 1.081 4.516a9.527 9.527 0 0 0 3.574-3.546c2.942-5.218.938-10.675-2.539-14.676z" fill="#dceaf0"/><path data-name="Path 9744" d="M23.824 141.761l56.687-32.943a2.28 2.28 0 0 0-2.672-.869q-28.34 16.479-56.688 32.94a2.326 2.326 0 0 1 2.673.872z" fill="#cfe0e8"/><path data-name="Path 9745" d="M19.668 158.698c-3.9-4.273-4.827-9.41-2.866-13.264a11.93 11.93 0 0 0 1.072 13.137c.378.545.946 1.224 1.374 1.718-.315-.333.231-1.229.42-1.591z" fill="#b6ccd6"/><path data-name="Path 9746" d="M23.622 141.898a.522.522 0 0 0 .134-.084c.025-.017.041-.033.068-.051a2.186 2.186 0 0 0-2.673-.872c-.278.168-.513.32-.738.479a10.774 10.774 0 0 0-3.611 4.063c-1.961 3.854-1.039 8.991 2.866 13.264a10.586 10.586 0 0 1 3.451-3.52c-4.224-4.617-3.971-10.509.503-13.279z" fill="#cfe0e8"/><path data-name="Path 9747" d="M84.45 211.489a2.526 2.526 0 0 1-.855 1.179q28.35-16.46 56.688-32.944a2.53 2.53 0 0 0 .864-1.181z" fill="#1e7e96"/><path data-name="Path 9748" d="M140.066 174.027l-56.688 32.944c.957 1.064 1.8 3.14 1.072 4.518l56.7-32.946c.707-1.296-.126-3.558-1.084-4.516z" fill="#dceaf0"/><path data-name="Path 9749" d="M63.705 206.912l-44.037-48.217c-.189.365-.735 1.261-.42 1.591q21.993 24.133 44.037 48.218c-.314-.331.231-1.227.42-1.592z" fill="#b6ccd6"/><path data-name="Path 9750" d="M67.156 203.398l-44.037-48.22a7.252 7.252 0 0 0-3.451 3.52l44.037 48.217a10.11 10.11 0 0 1 3.451-3.517z" fill="#cfe0e8"/><path data-name="Path 9751" d="M84.45 211.489a14.506 14.506 0 0 1-9.381 1.472 19.13 19.13 0 0 1-11.364-6.049c-.381.331-.734 1.261-.42 1.592.009.008.017.026.025.033.271.264.535.553.805.823a19.436 19.436 0 0 0 10.843 5.035c2.209.231 6.763-.3 8.9-1.918a1.374 1.374 0 0 0 .592-.988z" fill="#b6ccd6"/><path data-name="Path 9752" d="M83.378 206.971c-4.667 2.724-11.941 1.114-16.222-3.576a10.373 10.373 0 0 0-3.451 3.517 19.738 19.738 0 0 0 8.523 5.536 15.343 15.343 0 0 0 12.222-.959 4.162 4.162 0 0 0-1.072-4.518z" fill="#cfe0e8"/><path data-name="Path 9753" d="M140.769 160.614q-22.019-24.106-44.028-48.218c-4.29-4.691-11.555-6.295-16.23-3.578q-28.338 16.471-56.687 32.943c-4.676 2.715-5 8.731-.705 13.414q22.018 24.12 44.037 48.22c4.281 4.69 11.555 6.3 16.222 3.576q28.338-16.464 56.688-32.944c4.675-2.714 4.994-8.722.703-13.413z" fill="#e8f3f7"/></g></g><g data-name="Group 5223"><path data-name="Path 9754" d="M153.303 255.449q28.336-16.49 56.7-32.944c3.338-2.163 5.245-4.227 5.245-8.806a7.363 7.363 0 0 0-.27-2.116 10.532 10.532 0 0 0-4.891-5.931c-.053-.033-.124-.079-.191-.115h.011a.116.116 0 0 1-.03-.009l-.028-.012c-1.658-.77-42.954-24.608-48.367-27.93l-.01-.007a20.36 20.36 0 0 0-8.753-2.4 21.716 21.716 0 0 0-9.413 1.554 16.187 16.187 0 0 0-1.869.923l-56.413 32.783c-.146.084-.291.168-.434.256-2.839 1.761-5.086 4.355-5.086 7.948a8.841 8.841 0 0 0 3.251 7.448 12.194 12.194 0 0 0 1.776 1.274c.087.058.169.109.243.154h.005l.017.011q24.1 13.909 48.2 27.827c2.619 1.972 8.492 2.623 11.3 2.527a20.141 20.141 0 0 0 9.007-2.435z" fill="#e8f3f7"/><g data-name="Group 5222"><path data-name="Path 9755" d="M161.479 177.586a20.351 20.351 0 0 0-8.766-2.407 21.7 21.7 0 0 0-9.413 1.554 16.339 16.339 0 0 0-1.869.922 2.619 2.619 0 0 1 1.583.142c4.675-2.715 12.3-2.722 17-.007a4.016 4.016 0 0 1 1.465-.204z" fill="#dceaf0"/><path data-name="Path 9756" d="M209.904 205.536c0 .2-42.948-24.586-48.435-27.957a1.753 1.753 0 0 0-1.454.211l48.342 27.908c.182-.055 1.547-.16 1.547-.162z" fill="#dceaf0"/><path data-name="Path 9757" d="M143.033 177.79a1.576 1.576 0 0 0-1.6-.135q-28.344 16.473-56.688 32.943a1.621 1.621 0 0 1 1.6.135z" fill="#cfe0e8"/><path data-name="Path 9758" d="M210.788 219.949c-.009.843.045 2.024-.788 2.556 3.338-2.163 5.245-4.227 5.245-8.806-.137 2.773-2.251 4.883-4.457 6.25z" fill="#1c768c"/><path data-name="Path 9759" d="M214.975 211.583a10.532 10.532 0 0 0-4.891-5.931 1.49 1.49 0 0 0-.284-.155 1.653 1.653 0 0 0-1.443.2c.295.176.572.351.831.528.26.193.512.385.73.578 3.074 2.7 2.578 6.358-1.5 8.731a5.659 5.659 0 0 1 2.37 4.414 12.257 12.257 0 0 0 2.578-1.941 6.387 6.387 0 0 0 1.609-6.424z" fill="#dceaf0"/><path data-name="Path 9760" d="M84.8 227.54a1.955 1.955 0 0 1-.77-1.8v-.763c-2.314-1.333-4.532-3.484-4.532-6.333a8.841 8.841 0 0 0 3.251 7.448 12.194 12.194 0 0 0 1.776 1.274c.1.066.192.124.275.174z" fill="#b6ccd6"/><path data-name="Path 9761" d="M86.401 220.569c-4.708-2.713-4.733-7.122-.058-9.836a1.654 1.654 0 0 0-1.6-.135c-2.913 1.763-5.245 4.386-5.245 8.045-.008 2.3 1.5 4.59 4.532 6.333a5.713 5.713 0 0 1 2.371-4.407z" fill="#cfe0e8"/><path data-name="Path 9762" d="M154.091 252.898c0 .873.081 2.022-.788 2.555q28.337-16.49 56.7-32.944c.872-.585.779-1.639.788-2.556z" fill="#1e7e96"/><path data-name="Path 9763" d="M132.375 252.898L84.03 224.98c-.137.943-.092 2.065.77 2.564q24.176 13.951 48.345 27.909c-.864-.505-.78-1.692-.77-2.555z" fill="#b6ccd6"/><path data-name="Path 9764" d="M154.091 252.898l56.7-32.945c.138-1.51-1.043-3.886-2.37-4.414l-56.69 32.952a5.505 5.505 0 0 1 2.36 4.407z" fill="#dceaf0"/><path data-name="Path 9765" d="M134.746 248.487s-.075-.042-.2-.117c-5.426-3.133-11.616-7.619-17.214-10.792-10.615-6.018-20.811-11.413-30.929-17.009a5.588 5.588 0 0 0-2.371 4.407l48.345 27.918a5.566 5.566 0 0 1 2.369-4.407z" fill="#cfe0e8"/><path data-name="Path 9766" d="M208.357 205.698l-48.342-27.908c-4.7-2.715-12.308-2.715-16.983 0q-28.341 16.473-56.689 32.943c-4.675 2.714-4.65 7.123.058 9.836q24.17 13.964 48.345 27.918c4.7 2.714 12.308 2.714 16.982 0q28.341-16.476 56.69-32.952c4.673-2.717 4.649-7.122-.061-9.837z" fill="#e8f3f7"/><path data-name="Path 9767" d="M154.091 252.898c0-1.483-1.048-3.808-2.363-4.407a13.935 13.935 0 0 1-1.625.778c-4.674 1.823-10.965 1.733-15.357-.778a5.546 5.546 0 0 0-2.371 4.407c6.151 3.581 15.958 3.328 21.716 0z" fill="#cfe0e8"/><path data-name="Path 9768" d="M154.091 252.898c-6.2 3.6-16.1 3.267-21.716 0-.075.892-.208 1.838.6 2.455 2.607 1.986 8.506 2.641 11.327 2.545a20.141 20.141 0 0 0 9-2.445c.878-.555.789-1.676.789-2.555z" fill="#b6ccd6"/></g></g><g data-name="Group 5225"><path data-name="Path 9769" d="M221.99 294.698q28.336-16.493 56.7-32.945c3.336-2.163 5.245-4.227 5.245-8.806a7.417 7.417 0 0 0-.271-2.116 10.533 10.533 0 0 0-4.89-5.931c-.053-.033-.124-.079-.192-.114h.011s-.011 0-.031-.009l-.026-.012c-1.658-.769-42.955-24.607-48.369-27.931l-.009-.006a20.381 20.381 0 0 0-8.753-2.4 21.72 21.72 0 0 0-9.414 1.554 16.253 16.253 0 0 0-1.868.923l-56.414 32.783c-.145.084-.29.168-.434.257-2.838 1.761-5.086 4.354-5.086 7.947a8.844 8.844 0 0 0 3.252 7.449 11.976 11.976 0 0 0 1.775 1.272c.088.059.169.11.243.156l.018.01q24.1 13.909 48.2 27.827c2.617 1.971 8.491 2.623 11.3 2.528a20.17 20.17 0 0 0 9.013-2.436z" fill="#e8f3f7"/><g data-name="Group 5224"><path data-name="Path 9770" d="M230.165 216.834a20.371 20.371 0 0 0-8.765-2.406 21.713 21.713 0 0 0-9.413 1.554 16.189 16.189 0 0 0-1.869.923 2.613 2.613 0 0 1 1.583.141c4.675-2.715 12.3-2.722 17-.007a4.042 4.042 0 0 1 1.464-.205z" fill="#dceaf0"/><path data-name="Path 9771" d="M278.59 244.786c0 .2-42.948-24.587-48.435-27.958a1.754 1.754 0 0 0-1.453.211l48.342 27.909c.181-.056 1.546-.16 1.546-.162z" fill="#dceaf0"/><path data-name="Path 9772" d="M211.719 217.039a1.574 1.574 0 0 0-1.6-.134l-56.689 32.943a1.618 1.618 0 0 1 1.6.134z" fill="#cfe0e8"/><path data-name="Path 9773" d="M279.475 259.198c-.01.841.044 2.024-.788 2.555 3.336-2.163 5.245-4.227 5.245-8.806-.138 2.775-2.251 4.884-4.457 6.251z" fill="#1c768c"/><path data-name="Path 9774" d="M283.661 250.832a10.533 10.533 0 0 0-4.89-5.931 1.762 1.762 0 0 0-.285-.156 1.665 1.665 0 0 0-1.442.2c.294.175.572.35.83.527.26.193.512.386.73.578 3.074 2.7 2.579 6.359-1.5 8.731a5.656 5.656 0 0 1 2.372 4.415 12.335 12.335 0 0 0 2.577-1.941 6.386 6.386 0 0 0 1.608-6.423z" fill="#dceaf0"/><path data-name="Path 9775" d="M153.487 266.789a1.952 1.952 0 0 1-.771-1.8v-.762c-2.313-1.334-4.532-3.484-4.532-6.333a8.843 8.843 0 0 0 3.252 7.448 11.976 11.976 0 0 0 1.775 1.272c.1.066.193.125.276.175z" fill="#b6ccd6"/><path data-name="Path 9776" d="M155.088 259.818c-4.708-2.713-4.733-7.122-.059-9.836a1.649 1.649 0 0 0-1.6-.134c-2.914 1.762-5.245 4.385-5.245 8.045-.007 2.295 1.5 4.59 4.532 6.333a5.716 5.716 0 0 1 2.372-4.408z" fill="#cfe0e8"/><path data-name="Path 9777" d="M222.778 292.144c0 .872.081 2.021-.788 2.555q28.336-16.493 56.7-32.945c.872-.585.778-1.638.788-2.555z" fill="#1e7e96"/><path data-name="Path 9778" d="M201.062 292.144l-48.346-27.918c-.137.943-.091 2.064.771 2.563q24.174 13.951 48.345 27.91c-.865-.501-.782-1.688-.77-2.555z" fill="#b6ccd6"/><path data-name="Path 9779" d="M222.778 292.144l56.7-32.945c.137-1.51-1.044-3.887-2.372-4.415l-56.688 32.953a5.5 5.5 0 0 1 2.36 4.407z" fill="#dceaf0"/><path data-name="Path 9780" d="M203.433 287.737l-.2-.118c-5.426-3.133-11.617-7.619-17.213-10.792-10.616-6.018-20.811-11.413-30.929-17.009a5.59 5.59 0 0 0-2.372 4.408l48.346 27.918a5.561 5.561 0 0 1 2.368-4.407z" fill="#cfe0e8"/><path data-name="Path 9781" d="M277.044 244.948q-24.168-13.951-48.342-27.909c-4.7-2.715-12.309-2.715-16.983 0q-28.343 16.474-56.69 32.943c-4.674 2.714-4.649 7.123.059 9.836q24.168 13.964 48.345 27.919c4.7 2.713 12.307 2.713 16.982 0q28.341-16.477 56.688-32.953c4.675-2.715 4.65-7.123-.059-9.836z" fill="#e8f3f7"/><path data-name="Path 9782" d="M222.778 292.144c0-1.484-1.049-3.809-2.363-4.407a13.946 13.946 0 0 1-1.626.777c-4.675 1.823-10.965 1.733-15.356-.777a5.542 5.542 0 0 0-2.371 4.407c6.15 3.584 15.955 3.332 21.716 0z" fill="#cfe0e8"/><path data-name="Path 9783" d="M222.778 292.144c-6.2 3.6-16.1 3.267-21.716 0-.076.891-.208 1.837.6 2.454 2.607 1.986 8.507 2.641 11.328 2.546a20.144 20.144 0 0 0 9-2.445c.876-.548.788-1.673.788-2.555z" fill="#b6ccd6"/></g></g><g data-name="Group 5227"><path data-name="Path 9784" d="M268.933 321.086q28.337-16.491 56.7-32.944c3.338-2.164 5.245-4.228 5.245-8.807a7.326 7.326 0 0 0-.27-2.115 10.531 10.531 0 0 0-4.89-5.931c-.054-.034-.124-.08-.192-.115h.011s-.01 0-.03-.009l-.028-.012c-1.657-.769-21.208-11.745-26.621-15.068l-.01-.006a20.357 20.357 0 0 0-8.752-2.4 21.706 21.706 0 0 0-9.413 1.554 16.267 16.267 0 0 0-1.869.923l-56.413 32.783c-.146.084-.292.168-.435.257-2.838 1.761-5.085 4.355-5.085 7.948a8.839 8.839 0 0 0 3.251 7.448 12.063 12.063 0 0 0 1.776 1.273c.087.058.168.11.242.155h.005l.018.01 26.453 14.965c2.619 1.972 8.492 2.623 11.305 2.528a20.147 20.147 0 0 0 9.002-2.437z" fill="#dceaf0"/><g data-name="Group 5226"><path data-name="Path 9785" d="M298.851 256.084a20.359 20.359 0 0 0-8.765-2.407 21.706 21.706 0 0 0-9.413 1.554 16.267 16.267 0 0 0-1.869.923 2.616 2.616 0 0 1 1.584.142c4.674-2.715 12.3-2.723 17-.008a4.01 4.01 0 0 1 1.463-.204z" fill="#dceaf0"/><path data-name="Path 9786" d="M325.663 271.57c0 .2-21.335-12.122-26.822-15.492a1.75 1.75 0 0 0-1.453.21l26.728 15.445c.182-.055 1.547-.16 1.547-.163z" fill="#dceaf0"/><path data-name="Path 9787" d="M280.404 256.288a1.576 1.576 0 0 0-1.6-.134q-28.344 16.473-56.689 32.943a1.62 1.62 0 0 1 1.6.134z" fill="#cfe0e8"/><path data-name="Path 9788" d="M326.547 285.984c-.008.842.045 2.024-.788 2.555 3.337-2.163 5.245-4.227 5.245-8.805-.137 2.773-2.251 4.883-4.457 6.25z" fill="#cfe0e8"/><path data-name="Path 9789" d="M330.733 277.618a10.525 10.525 0 0 0-4.889-5.931 1.446 1.446 0 0 0-1.728.046q.442.262.83.528c.261.192.513.385.73.577 3.074 2.7 2.58 6.358-1.5 8.731a5.657 5.657 0 0 1 2.371 4.415 12.324 12.324 0 0 0 2.578-1.941 6.386 6.386 0 0 0 1.608-6.425z" fill="#dceaf0"/><path data-name="Path 9790" d="M222.174 306.038a1.948 1.948 0 0 1-.771-1.8v-.762c-2.315-1.334-4.533-3.484-4.533-6.333a8.842 8.842 0 0 0 3.252 7.448 12.063 12.063 0 0 0 1.776 1.273c.099.067.192.124.276.174z" fill="#b6ccd6"/><path data-name="Path 9791" d="M223.773 299.068c-4.707-2.714-4.732-7.123-.057-9.837a1.653 1.653 0 0 0-1.6-.134c-2.913 1.762-5.245 4.385-5.245 8.045-.008 2.3 1.5 4.589 4.533 6.333a5.715 5.715 0 0 1 2.369-4.407z" fill="#cfe0e8"/><path data-name="Path 9792" d="M269.851 318.929c0 .873.08 2.021-.789 2.555q28.338-16.493 56.7-32.945c.872-.584.779-1.639.788-2.555z" fill="#cfe0e8"/><path data-name="Path 9793" d="M248.133 318.929l-26.731-15.454c-.137.943-.093 2.064.771 2.563 16.115 9.3 10.615 6.143 26.731 15.446-.864-.502-.78-1.686-.771-2.555z" fill="#b6ccd6"/><path data-name="Path 9794" d="M269.851 318.929l56.7-32.945c.138-1.511-1.043-3.886-2.371-4.415l-56.689 32.952a5.505 5.505 0 0 1 2.36 4.408z" fill="#dceaf0"/><path data-name="Path 9795" d="M250.505 314.521s-.075-.041-.2-.117c-5.427-3.133-11.617-7.619-17.214-10.792-10.616-6.018.8 1.052-9.316-4.544a5.59 5.59 0 0 0-2.37 4.407l26.731 15.454a5.568 5.568 0 0 1 2.369-4.408z" fill="#cfe0e8"/><path data-name="Path 9796" d="M324.116 271.733c-16.111-9.3-10.609-6.146-26.728-15.445-4.7-2.715-12.309-2.715-16.984 0q-28.341 16.474-56.688 32.943c-4.675 2.714-4.65 7.123.057 9.837 16.114 9.308 10.611 6.145 26.732 15.453 4.7 2.714 12.307 2.714 16.982 0q28.343-16.477 56.689-32.952c4.675-2.716 4.649-7.123-.06-9.836z" fill="#e8f3f7"/><path data-name="Path 9797" d="M269.851 318.929c0-1.484-1.049-3.809-2.364-4.408a13.651 13.651 0 0 1-1.626.779c-4.673 1.822-10.964 1.733-15.356-.779a5.545 5.545 0 0 0-2.371 4.408c6.151 3.585 15.956 3.331 21.717 0z" fill="#cfe0e8"/><path data-name="Path 9798" d="M269.851 318.929c-6.2 3.6-16.1 3.267-21.717 0-.075.891-.208 1.837.6 2.455 2.607 1.985 8.507 2.641 11.328 2.545a20.138 20.138 0 0 0 9-2.445c.877-.547.789-1.673.789-2.555z" fill="#b6ccd6"/></g></g></g><g data-name="Group 5239" fill-rule="evenodd"><g data-name="Group 5229"><path data-name="Path 9799" d="M112.304 151.851c-2.314 5.771 5.828 10.578 10.809 14.188 7.456 5.4 13.711 11.47 22.525 13.8 2.965 2.942 4.656 5.093 7.773 7.007 6.358 3.905 12.142 5.6 19.936 8.626 3.013 1.172 5.8 2.66 8.878 3.774 2.3.833 5.1 1.7 7.958 2.467a66.712 66.712 0 0 1 7.876 2.981c2.919 1.146 5.3 2.169 8.106 3.492 1.566.739 3.957 1.624 6.286-2.7.2-2.278-3.749-4.108-5.616-5.151l-6.932-3.868c3.687.164 3.709-2.184 2.683-3.513-.687-.892-2.391-1.28-3.743-2a48.249 48.249 0 0 1-4.189-2.58c-3.166-1.816-3.233-1.639-4.552-1.4-1.8.323-2.966 1.5-4.717 1.778-1.53.243-3.128-.026-5.756-1.213-8.3-3.751-9.9-10.212-22.7-14.827-7.815-7.6-11.657-15.53-19.623-20.75-7.629-9.227-23.173-4.664-25.002-.111z" fill="#f1b287"/><path data-name="Path 9800" d="M135.051 154.633c1.121 2.873-.52 6.506 1.42 8.717 2.69 3.069 10.535 6.225 15.595 10.552 2.965 2.941 5.036 5.933 8.153 7.847 12.027 7.387 11.063 6.792 23.572 11.325 2.3.832 5.96 2.381 6.655 2.27 3-.475-.477-3.063-.089-5.1 2.422-.278 6.884 2.615 9.525 3.4 1.333.4 2.4-.024 1.88-1.359-.825-.474-1.96-.817-2.919-1.326a47.983 47.983 0 0 1-4.189-2.58c-3.166-1.816-3.233-1.639-4.552-1.4-1.8.323-2.966 1.5-4.717 1.778-1.53.243-3.128-.026-5.756-1.213-8.3-3.751-9.9-10.212-22.7-14.827l-9.562-10.8-10.061-9.951z" fill="#fcc19a"/><path data-name="Path 9801" d="M123.113 166.039c6.848 6.156 13.711 11.47 22.525 13.8 2.965 2.942 4.656 5.093 7.773 7.007 6.358 3.905 12.142 5.6 19.936 8.626 3.013 1.172 5.8 2.66 8.878 3.774 2.3.833 5.1 1.7 7.958 2.467 4.731 1.272 12.256 6.9 16.779 9.037 3.314.147 3.044-1 5.489-5.262.2-2.278-3.749-4.108-5.616-5.151l-6.932-3.868c3.687.164 3.709-2.184 2.683-3.513.409 2.294-.276 2.9-2.091 2.671a26.754 26.754 0 0 1-6.5-2.269 19.278 19.278 0 0 0-2.188-1.344c4.211 2.946 8.523 6.164 11.292 7.73 3.073 1.739.488 5.63-3.841 4.567-2.492-.612-10.983-5.693-16.033-7.344-1.472-.482-5.956-2.6-8.585-3.783-8.007-3.616-21.76-8.067-25.651-16.429-6.157-5.987-16.327-6.274-18.3-11.69-.532-1.458 2.429-6.17 2.748-8.011-3.835 2.47-25.004-4.208-10.324 8.985z" fill="#e8a476"/></g><path data-name="Path 9802" d="M152.293 166.866l-5.767 4.442-27.581-2.918c-6.862-25.3 3.967-26.339 16.685-19 6.288 3.633 11.66 11.263 16.663 17.476z" fill="#d2eefc"/><path data-name="Path 9803" d="M71.874 202.785a219.129 219.129 0 0 0 26.863 21.03c33.857 23.013 84.836 51.633 118.022 71.039 18.694 10.932 31.677 22.5 36.738 20.058 6.968-3.368 62.96-32.479 71.87-40.3l-143.384-83.626-79.287-21.013c-2.919 3.827-5.016 7.776-5.543 11.531-1.228 6.63-12.974 17.494-25.279 21.281z" fill="#248ca6"/><g data-name="Group 5232"><g data-name="Group 5230" fill="#e8a476"><path data-name="Path 9804" d="M288.621 259.336c-2.438 6.859-5.1 10.455-8.765 11.561-2.469.746-5.462.243-9.309-1.431l-2.034 10.016c3.851 2.542 6.867 4.379 8.526 5.642 3.519 2.682 6.358 5.862 9.467 6.1a7.082 7.082 0 0 0 5.467-1.968c.565-1.174-1.661-3.046-1.242-5.253l2.334-20.787z"/><path data-name="Path 9805" d="M292.741 252.235c-5.6 1.026-3.635 7.769-4.384 10.076l-3.765 17.811a29.618 29.618 0 0 0-.572 6.967c.551 6.043 8.376 4.126 10.21-.378a8.643 8.643 0 0 0 .289-4.4 11.8 11.8 0 0 1 1.837-9.579c3.525-5.69 6.037-10.008 4.765-16.55.128-1.379 1-3.67.1-5.275-.854-1.538-4.813.159-8.48 1.328z"/></g><path data-name="Path 9806" d="M133.458 215.686c1.967 7.067 9.945 12.554 13.933 15.8 7.611 6.194 19.543 10.239 32.647 13.6 6.7 1.719 13.72 7.167 19.319 10.293l25.305-25c-3.1-3.217-6.566-5.989-9.171-8.844-11.556-12.668-20.174-20.493-38.038-27.017-4.837-1.766-5.518-3.438-10.815-6.241-4.33-2.291-6.151-4.714-8.106-6.623-4.6-4.492-9.205-10.668-14.571-16.462-.4-4.468-6.874-8-12.661-10.672-2.813-1.3-3.2-3.587-6.382-5.22-3.295-2.453-11.158-2.754-16.977.952-5.122 4.879-3.68 5.578-6.576 7.224-5.884 3.343-10.485 2.792-16.525 4.846-6.737 2.29-10.776 8.675-10.036 13.9 1.383 9.778 13.6 15.316 23.7 18.229 12.691 3.662 18.843 5.721 28.041 13.372 2.888 2.397 4.027 3.617 6.913 7.863z" fill="#f1b287"/><path data-name="Path 9807" d="M168.486 188.172c1.943 1.373 5.559 4.416 7.188 4.685 23.291 3.846 38.658 24.815 51.1 38 4.636 2.971 5.28 5.156 7.23 10 12.837 13.234 33.179 19.954 46.393 30.344l-8.435 9.326a16.4 16.4 0 0 0-6.477-4.146c-19.616-5.715-30.234-4.215-39.342-12.461-3.569-3.23-5.876-8.509-10.966-13.382-11.766-7.272-25.026-10.952-36.3-18.941-7.23-.319-12.614-1.5-16.766-4.384-4.392-3.056-12.68-20.074-15.468-26.049z" fill="#f1b287"/><path data-name="Path 9808" d="M178.688 193.461c21.617 5.066 36.189 24.788 48.089 37.4 4.259 2.73 5.149 4.8 6.777 8.865-3.759 1.374-8.53-.49-9.042-3.913a9.143 9.143 0 0 0 1.414-3.389c-2.694 2.526-2.591 2.815-5.883.011-7.2-6.13-20.881-24.949-39-30.737l-2.352-8.232zm57.062 49.1c12.876 12.119 32.019 18.7 44.65 28.63l-1.153 1.275-2.41-.437c-17.853-6.85-31.381-9.92-42.777-23.5a16.218 16.218 0 0 0 1.69-5.963z" fill="#fcc19a"/><path data-name="Path 9809" d="M275.387 278.09l-3.422 4.063c-1.488-.924-6.2-3.863-8.29-4.544-19.614-6.387-28.421-5.47-37.529-14.028-3.568-3.353-5.876-8.711-10.966-13.757-9.834-6.415-20.711-10.356-30.6-16.368-10.892-1.513-15.4-2.778-22.465-8.775-4.147-3.516-15.089-16.083-17.878-22.154l4.3-4.016c1.834 2.173 24.672 13.76 26.727 8.305.751-1.991 1.42-6.262-2.452-13.158 5.336 3.116 5.414 10.1 6.4 10.511 7.42 3.059 22.685 14.253 37.477 31.585 5.18 5.146 14.989 7.823 17.038 5.095.736 2.756-3.462 5.6-6.158 6.531 19.112 21.87 26.951 17.909 47.818 30.71z" fill="#e8a476"/><g data-name="Group 5231"><path data-name="Path 9810" d="M277.927 268.975c-2.439 6.86-5.1 10.455-8.765 11.562-2.47.746-5.463.244-9.31-1.432l-2.033 10.017c3.85 2.542 6.867 4.379 8.525 5.642 3.519 2.682 6.359 5.863 9.468 6.1a7.084 7.084 0 0 0 5.466-1.968c.566-1.173-1.66-3.047-1.242-5.254l2.335-20.786z" fill="#e8a476"/><path data-name="Path 9811" d="M289.34 258.083a13.556 13.556 0 0 0-2.811 1.106c-1.723.685-3.26 1.2-4.254 2.678-1.887.416-2.96 1.969-3 4.3-2.067 1.48-1.265 4.7-1.616 5.78l-3.766 17.811a29.642 29.642 0 0 0-.572 6.966c.552 6.044 8.377 4.127 10.211-.377a8.643 8.643 0 0 0 .289-4.4 11.792 11.792 0 0 1 1.837-9.579c2.352-3.8 5.328-8.424 5.915-10.97a14.017 14.017 0 0 0-.282-6.039c.128-1.378 1.012-3.293.755-5.265-.206-1.606-1.033-2.251-2.706-2.011z" fill="#f1b287"/></g><path data-name="Path 9812" d="M155.08 193.477c1.491.822 9.681 10.658 11.33 10.94 27.083 4.623 33.827 22.167 49.372 37.862 4.636 3.13 6.333 3.981 8.284 8.888 6.508 8.284 15.825 13.658 24.819 18.363 7.572 3.962 15.906 8.983 20.761 10.838-2.286.88-5.633 8.73-3.028 14.856-1.356-1.631-8.98-6.774-11.071-7.456-19.616-6.387-30.234-5.25-39.342-13.807-3.569-3.352-5.876-8.71-10.967-13.757-9.833-6.414-20.71-10.355-30.6-16.367-10.893-1.513-15.394-2.778-22.465-8.775-4.148-3.517-15.089-16.084-17.879-22.154z" fill="#f1b287"/><path data-name="Path 9813" d="M158.092 216.673c1.792-8.817 15.217-7.868 19.654-9.192 18.073 7.007 24.924 21.56 38.036 34.8 4.636 3.13 6.333 3.981 8.284 8.888 6.508 8.284 15.825 13.658 24.819 18.363 7.572 3.962 15.906 8.983 20.761 10.838a5.732 5.732 0 0 0-2.358 2.838c-14.365-6.086-40.869-11.658-47.461-23.905a30.78 30.78 0 0 0 2.817-7.482c-8.99 2.974-11.11-1.33-16.2-6.376-3.73-2.435-29.948-9.388-48.352-28.772z" fill="#fcc19a"/><path data-name="Path 9814" d="M265.747 288.546a13.141 13.141 0 0 0 .871 6.6c-3.168-2.3-10.2-6.928-13.183-7.863-18.657-5.852-28.358-4.99-37.23-13.325-3.569-3.352-5.876-8.71-10.967-13.757-9.833-6.414-20.71-10.355-30.6-16.367-10.893-1.513-15.394-2.778-22.465-8.775-4.148-3.517-10.646-6.9-13.435-12.966l1.115-5.135 6.1-16.223 22.158-12.634 1.248.623c-6.577 6.3-20.435 17.293-21.393 26.636 2.266 2.528 4.681 5.15 6.016 6.45 5.423 4.3 42.477 19.285 57.439 34.413.811.929 7.757-.8 9.806-3.528-1.221 2.868-3.611 6.84-6.307 7.773 19.113 21.874 29.96 15.277 50.827 28.078z" fill="#e8a476"/></g><path data-name="Path 9815" d="M91.022 162.551l11.272-2.091 10.719-4.16a34.63 34.63 0 0 1-6.841-4.236 21.145 21.145 0 0 1-7.921-11.579l-20.937 1.581-4.82-.678 1.582 5.5c5.676 3.742 14.93 8.511 16.665 13.748a5.3 5.3 0 0 1 .281 1.915z" fill="#e8a476"/><path data-name="Path 9816" d="M103.113 149.482a21.734 21.734 0 0 1-4.862-9l-20.937 1.581-4.82-.678 1.582 5.5c3.856 2.542 8.534 3.976 13.57 6.839 7.145 3.628 16.72-1.744 15.467-4.242z" fill="#db9669"/><path data-name="Path 9817" d="M80.063 147.225l3.051-5.31c4.054-.913 16.716-5.542 19.528-2.013 1.82 2.283-.549 4.775-1.676 6.89-7.583 2.153-9.717 4.981-12.958 4.662-1.752-.174-4.088-1.694-7.945-4.229z" fill="#e8a476"/><path data-name="Path 9818" d="M94.804 129.998c.472.62.765 1.821 1.437 3.021.636 1.13 4.631 4.644 5.713 5.925.772.911 1.3 1.8.027 2.379a36.029 36.029 0 0 0-4.154 2.385c-3.328 2.085-7.3 5.275-9.053 5.849-1.372.449-2.043.011-3.591-.752-7.728-1.777-15-6.178-11.971-15.786 1.87-5.932 7.169-8.659 12.914-8.022a11.526 11.526 0 0 1 2.284.491 15.6 15.6 0 0 1 6.394 4.51z" fill="#f1b287"/><path data-name="Path 9819" d="M88.725 125.628c-2.387-.929-9.271 1.026-11.677 5.347-.666 1.2-.959 2.619.359 3.457.864.55 1.709.592 1.966 1.178a4.579 4.579 0 0 1 .092 2.276c-.281 2.425.559 4.564 3.724 5.76l-.866 2.147a27.915 27.915 0 0 0-4.33-.791c-1.352 3.7 4.007 4.427 4.819 7.493l-4.781-1.657c-6.943-1.305-15.45-10.466-8.271-20.75 4.325-6.19 11.266-9.869 18.965-4.46z" fill="#361d07"/><path data-name="Path 9820" d="M88.725 125.628c-2.387-.929-9.271 1.026-11.677 5.347-1.87 1.646-8.195 1.216-10.557 5.437a14.055 14.055 0 0 1 5.333-10.908c4.486-3.834 10.765-5.029 16.901.124z" fill="#4a2b12"/><path data-name="Path 9821" d="M76.171 144.668c-2.352 1.978-.326 4.618 2.012 4.815 1.506.126 1.651-.05 2.8.618 2.207 1.285 5.487-.678.732-3.84-1.915-1.272-3.413-3.384-5.544-1.593z" fill="#f1b287"/><g data-name="Group 5233"><path data-name="Path 9822" d="M72.033 175.478c-1.561 6.23 2.73 13.307 7.469 17.542 7.091 6.337 12.88 13.229 21.69 16.551 2.737 3.335 4.248 5.723 7.249 8.018 6.122 4.683 14.1 7.969 21.789 11.9a49.7 49.7 0 0 1 5.1 3.146c8.289 6.176 8.951 5.779 12.111 5.77 3.554.537 6.839.037 8.72.322 1.452.22 12.654 7.113 14 5.489l3.278-5.4c.345-.781.14-.92-.864-1.425-3.3-1.657-9.914-7.229-14.854-10.5-9.08-1.181-11.979-.719-17.459-3.414a47.21 47.21 0 0 1-2.741-1.477c-8.137-4.729-11.312-12.474-23.978-18.564-7.23-8.633-10.341-17.186-17.975-23.389-3.427-9.126-8.591-12.749-13.959-12.523a10.354 10.354 0 0 0-9.576 7.954z" fill="#f1b287"/><path data-name="Path 9823" d="M158.883 227.683q-.593-.412-1.159-.787c-9.08-1.181-11.979-.719-17.459-3.414a47.21 47.21 0 0 1-2.741-1.477c-7.831-4.551-11.068-11.9-22.589-17.87-1.343 1.593-2.716 2.542-4.154 4.4-1.051 1.361.318 3.291 2.876 5.387 6.571 5.388 17.659 9.4 25.1 14.682 6.732 4.784 10.148 2.1 18.1 5.056a18.141 18.141 0 0 0 2.033-5.981zm-46.626-25.834c-5.993-7.641-9.164-15.109-15.544-20.821-2.44 1.909-4 5.422-5.4 8.423-.728 1.564-1.151 2.811.331 4.563 6.843 8.085 12.778 9.408 20.608 7.835zm-17.049-22.725c-2.6 1.728-5.161 4.051-7.222 4.326-3.323.442-7.578-1.61-9.048-6.556a13.325 13.325 0 0 1 .884-9.123 9.948 9.948 0 0 1 1.79-.242c5.181-.218 10.173 3.15 13.596 11.595z" fill="#fcc19a"/><path data-name="Path 9824" d="M72.033 175.478c-1.561 6.23 2.73 13.307 7.469 17.542 7.091 6.337 12.88 13.229 21.69 16.551 2.737 3.335 4.248 5.723 7.249 8.018 6.122 4.683 14.1 7.969 21.789 11.9 1.23.686 4.114 2.007 5.1 3.146 1.792 2.08 2.521 3.222 3.177 4.054 2.359 2.992 6.342 3.635 9.92 3.047 3-.493 5.683-1.589 7.734-1.009 1.452.22 12.654 7.113 14 5.489l3.278-5.4c.194-.44.215-.676.016-.888-.923 1.343-3.186 4.123-4.28 4.138-2.781.037-8.589-4.124-11.9-6.314-9.078-1.181-10.918.187-16.4-2.508-1.718-.845-5.848-4.574-8.6-6.172-7.222-4.2-20.51-9.375-25.192-17.333-.4-.688 4.524-4.767 4.143-5.422-.437-.749-6.463 1.33-8.07.584-7.138-3.318-14.465-6.884-15.783-12.092-.393-1.554 3.146-6.083 3.667-7.942-12.776 6.506-17.412-4.1-15.02-15.384a10.412 10.412 0 0 0-3.987 5.995z" fill="#e8a476"/></g><g data-name="Group 5234"><path data-name="Path 9825" d="M164.787 185.775a50.367 50.367 0 0 1-8.085-6.97c-3.994-4.05-5.855-10.855-10.4-15.761-.443-7.375-12.3-13.85-18.93-16.042-3.52-2.379-12.533-1.664-19.557 3.134-.723.69-1.315 1.3-1.806 1.837a3.282 3.282 0 0 1 .936 5.389c-2.754 2.652-10.373 3.767-16.151 3.414a46.362 46.362 0 0 0-6.024 1.507c-6.737 2.29-10.775 8.674-10.035 13.906 1.382 9.776 13.6 15.314 23.7 18.228 12.692 3.662 19.26 5.247 28.041 13.372 1.863 1.724 10.145 11.1 13.093 15.667-.077-11.518 12.734-25.926 29.205-35.111z" fill="#d2eefc"/><path data-name="Path 9826" d="M164.787 185.775a50.367 50.367 0 0 1-8.085-6.97c-2.164-2.195-3.7-5.2-5.381-8.272-3.421 3.1-4.582 3.978-9.816 6.325-2.493 1.99-2.125 8.692-8.533 14.636 3.916 5 7.938 9.388 11.831 14.438 7.37-8.52 13.012-13.286 23.225-18.068l-3.241-2.089zm-19.151-25.443a8.27 8.27 0 0 1-.422 1.311c-2.519 6-8.562 7.9-14.358 4.6-6.943-3.957-11.673-8-20.622-8 5.928 2.661 16.169 6.611 20.268 11.59.945 1.147 1.689 1.287 1.259 2.963-1.5 5.835-8.191 10.4-14.074 10.727-6.832.382-13.078-4.015-19.944-12.349-2.755-3.344-4.622-4.745-10.781-6.83a13.288 13.288 0 0 1 4.6-2.218c8.013 1.3 24.614-4.163 17.262-12.638 6.854-4.205 15.193-4.746 18.547-2.481 5.803 1.914 15.61 7.113 18.262 13.325z" fill="#e0f5ff"/><path data-name="Path 9827" d="M133.39 215.654a46.4 46.4 0 0 0 5.339 9.487c1.438-5.232 1.763-10.036 5.149-14.776-5.1-6.386-10.172-13.29-14.509-18.423 2.512-2.756 7.7-13.668 8.956-15.168a6.511 6.511 0 0 1 2.238-1.959 33.8 33.8 0 0 0 9.3-6.659 23.306 23.306 0 0 0-3.523-5.108c-4.289 6.147-9.179 5.9-11.7 8.71-6.087 11.159-14.072 17.921-26.548 11.674-9.173-4.594-27.183-25.311-32.5-12.85a10.584 10.584 0 0 0-.854 5.607c1.382 9.776 13.6 15.314 23.7 18.228 12.692 3.662 18.843 5.721 28.041 13.372 2.882 2.399 4.025 3.619 6.911 7.865z" fill="#c3e6f7"/></g><g data-name="Group 5235"><path data-name="Path 9828" d="M216.148 217.838c-3.857-3.935-7.98-7.931-12.254-11.584-9.616-8.658-26.646-16.923-33.547-20.039-6.421-2.9-13.489-10.338-18.541-16.094-3.045-3.469-3.272-6.5-5.624-9.969a43.363 43.363 0 0 0-12.151-11.071c-23.01 7.492-35.563 23.058-36.878 32.42-.813 4.394-6.245 10.647-13.4 15.467 5.351 5.075 10.441 9.965 17.438 12.6 2.737 3.335 4.248 5.723 7.249 8.018 6.122 4.683 14.1 7.969 21.789 11.9a49.7 49.7 0 0 1 5.1 3.146c8.289 6.176 8.951 5.779 12.111 5.77 3.554.537 6.839.037 8.72.322 1.452.22 12.654 7.113 14 5.489l.584-.962c1.2.2 2.494.387 3.889.58 9.89 6.012 20.768 9.953 30.6 16.367 5.091 5.047 7.4 10.405 10.967 13.757 9.108 8.557 19.726 7.42 39.342 13.807a14.609 14.609 0 0 1 2.311 1.159l-.039.2c3.149 2.078 5.739 3.685 7.485 4.893a10.506 10.506 0 0 1 1.314 1.209c-.051-.12-.1-.24-.146-.361 3.461 2.661 6.269 5.767 9.34 6a7.124 7.124 0 0 0 4.1-.935 7 7 0 0 0 3.623-3.576 8.643 8.643 0 0 0 .289-4.4c-.1-.607-.18-1.18-.232-1.732a6.9 6.9 0 0 0 2.913 1.006 7.132 7.132 0 0 0 4.1-.934 7 7 0 0 0 3.623-3.577 8.643 8.643 0 0 0 .289-4.4 11.8 11.8 0 0 1 1.837-9.579c3.525-5.69 6.037-10.008 4.765-16.55.128-1.379 1-3.67.1-5.275-.5-.893-2.047-.692-3.977-.138.084-.033.166-.067.244-.1-31.429-.785-52.048-17.08-81.333-32.834z" fill="#248ca6"/><path data-name="Path 9829" d="M292.741 252.235c-3.454.633-4.03 3.437-4.14 6.036-.623.224-1.228.582-2.072.918-1.723.685-3.26 1.2-4.254 2.678-1.887.416-2.96 1.969-3 4.3-2.067 1.48-1.265 4.7-1.616 5.78l-3.766 17.811c-.072.445-.142.91-.209 1.383-3.013-1.1-8.885-3.17-9.2-3.355-20.052-11.788-30.848-5.892-49.573-27.319 2.7-.933 5.086-4.9 6.307-7.773-2.049 2.728-9 4.457-9.806 3.528-14.962-15.128-52.016-30.108-57.439-34.413-1.335-1.3-3.75-3.922-6.016-6.45-6.566-6.372-12.279-16-18.524-23.39 2.511-2.756 7.695-13.667 8.955-15.167a6.525 6.525 0 0 1 2.238-1.96 33.825 33.825 0 0 0 9.3-6.659 23.286 23.286 0 0 0-3.524-5.107c-4.29 6.147-9.178 5.9-11.7 8.71-6.088 11.159-14.073 17.921-26.548 11.672-2.631-1.317-5.99-3.961-9.568-6.768a18.224 18.224 0 0 0-1.431 4.745c6.515 6.058 9.677 14 16.383 22 12.666 6.09 15.841 13.835 23.978 18.564a45.671 45.671 0 0 0 2.741 1.477c5.48 2.695 8.379 2.233 17.459 3.414 4.94 3.272 11.557 8.844 14.854 10.5 1 .5 1.209.644.864 1.425l-2.694 4.435-.31.511c-.28.195-.679.434-1.134.694-3-.156-11.863-5.538-13.143-5.732-1.881-.285-5.166.215-8.72-.322-3.16.009-3.822.406-12.111-5.77a49.7 49.7 0 0 0-5.1-3.146c-7.689-3.934-15.667-7.22-21.789-11.9-3-2.295-4.512-4.683-7.249-8.018-7-2.638-12.087-7.528-17.438-12.6a51.88 51.88 0 0 1-2.928 1.836c11.6 10.715 30.867 29.187 44.282 35.792 18.928 9.322 48.167 22.824 75.21 38.425 24.3 14.017 43.721 32.178 62.568 35.469 3.683.643 18.285-7.578 24.829-11.134a93.373 93.373 0 0 0 8.473-5.115c1.453-1.558-.857-4.968-1.672-9.933a11.8 11.8 0 0 1 1.837-9.579c3.525-5.69 6.037-10.008 4.765-16.55.128-1.379 1-3.67.1-5.275-.843-1.534-4.802.163-8.469 1.332z" fill="#1c768c"/><path data-name="Path 9830" d="M146.391 160.685a35.763 35.763 0 0 0-12.778-11.759 60.691 60.691 0 0 0-31.329 21.593 43.335 43.335 0 0 0 12.881 7.066c16.376 5.5 8.738-2.038 19.316-9.107 4.649-3.106 6.625-3.3 11.91-7.793zm5.171 9.878c6.27 6.033 9.639 9.832 14.1 13.091 7.582 5.538 13.6 6.253 28.121 15.263 7.75 4.808 13.229 12.16 20.9 17.122 31.753 20.534 48.66 32.219 78.358 34.68-8.116 4.51-11.09 7.092-14.546 10.7-3.271 3.412-15.476.9-31.051-6.08-23.064-10.341-53.688-25.606-60.5-29.252-16.965-9.088-30.3-17.988-50.506-36.225 2.416-3.049 4.069-8.679 6.192-11.194 2.35-2.78 6.931-3.913 8.932-8.105z" fill="#1b9ebf"/></g><g data-name="Group 5238"><path data-name="Path 9831" d="M90.761 205.284c3.173 4.806 12.223-7.668 13.541-10.26.711-1.4 1.486-4.284.36-5.565-8.25-9.384-17.437 11.939-13.901 15.825z" fill="#aad2e6"/><g data-name="Group 5236"><path data-name="Path 9832" d="M162.348 230.884c-3.865-2.524-16.467-4.108-20.343-5.692-11.045-4.512-22.222-19.794-28.756-21.116-7.795-1.576-12.916-22.443-18.1-22.076-1.444-3.97-4.593-12.349-11.831-14.338-2.534-.743-4.646-.452-7.4 1.633a10.4 10.4 0 0 0-4.273 6.183c-1.56 6.23 2.731 13.307 7.469 17.542 7.092 6.337 12.88 13.229 21.69 16.551 2.737 3.335 4.248 5.723 7.249 8.018 6.122 4.683 14.1 7.969 21.789 11.9a49.7 49.7 0 0 1 5.1 3.146c8.289 6.176 8.951 5.779 12.11 5.77 3.554.537 6.84.037 8.721.322 1.451.22 12.655 7.113 14 5.489l.584-.962 2.762-4.922-.182-.537z" fill="#f1b287"/><path data-name="Path 9833" d="M93.196 183.741c.849 3.071-1.22 6.631.54 9.107 2.441 3.436 9.374 6.179 14.117 11.159 2.736 3.334 4.549 6.627 7.55 8.922 11.579 8.857 20.027 13.326 32.4 19.3.865.418 3.58-.274 10.638 1.439 1.985.482 4.153 2.145 6.084 4.241 2.056.151 2.929-1.695 3.268-3.122-.8-.574-2.154-1.472-3.058-2.134-2.121-1.555-4.086-3.138-4.3-3.291-3.063-2.2-4.125-2.838-5.506-2.734a28.821 28.821 0 0 1-16.853-3.771c-8.138-4.729-12.439-13.468-25.1-19.559-7.231-8.632-9.546-15.859-17.18-22.063-3.427-9.126-9.387-14.075-14.755-13.849-4.06.173-6.317 17.654 12.155 16.355z" fill="#fcc19a"/><path data-name="Path 9834" d="M71.638 175.478c-1.56 6.23 2.731 13.307 7.469 17.542 7.092 6.337 12.88 13.229 21.69 16.551 2.737 3.335 4.248 5.723 7.249 8.018 6.122 4.683 14.1 7.969 21.789 11.9 1.23.686 4.114 2.007 5.1 3.146 1.792 2.08 2.521 3.222 3.177 4.054 2.36 2.992 6.342 3.635 9.919 3.047 3-.493 5.684-1.589 7.735-1.009 1.451.22 12.655 7.113 14 5.489l3.278-5.4c.195-.44.215-.676.016-.888-.922 1.343-3.186 4.123-4.28 4.138-2.78.037-8.588-4.124-11.9-6.314-9.08-1.181-10.919.187-16.4-2.508-1.718-.845-5.848-4.574-8.6-6.172-7.223-4.2-20.511-9.375-25.193-17.333-.4-.688 4.525-4.767 4.143-5.422-.437-.749-6.463 1.33-8.069.584-7.138-3.318-14.466-6.884-15.783-12.092-.393-1.554 3.146-6.083 3.667-7.942-12.777 6.506-17.414-4.1-15.02-15.384a10.411 10.411 0 0 0-3.987 5.995z" fill="#e8a476"/></g><g data-name="Group 5237"><path data-name="Path 9835" d="M102.341 190.679c-2.551-4.728-4.867-8.844-7.195-8.679-1.444-3.97-4.593-12.349-11.831-14.338-2.534-.743-4.646-.452-7.4 1.633a10.4 10.4 0 0 0-4.273 6.183c-1.56 6.23 2.731 13.307 7.469 17.542 4.137 3.7 7.83 7.581 11.939 10.837a20.146 20.146 0 0 1 11.291-13.178z" fill="#d2eefc"/><path data-name="Path 9836" d="M93.196 183.741c.849 3.071-1.22 6.631.54 9.107a11.632 11.632 0 0 0 2.266 2.258 18.12 18.12 0 0 1 7.638-4.888l1.053-.736c-4.284-5.237-8.51-10.553-12.4-15.809-3.47-4.688-7.4-6.448-11.255-6.286-4.057.172-6.314 17.653 12.158 16.354z" fill="#e0f5ff"/><path data-name="Path 9837" d="M71.638 175.478c-1.56 6.23 2.731 13.307 7.469 17.542 3.975 3.551 7.624 8.235 11.614 12.252a19.909 19.909 0 0 1 2.017-5.674c-2.91-1.964-5.089-4.167-5.751-6.783-.393-1.554 3.146-6.083 3.667-7.942-12.777 6.506-17.414-4.1-15.02-15.384a10.411 10.411 0 0 0-3.996 5.989z" fill="#c3e6f7"/></g></g></g><g data-name="Group 5240" fill-rule="evenodd"><path data-name="Path 9838" d="M66.005 185.763c.591-.337 1.4-.832 2.067-.437-4.025-2.614-9.993-3.526-13.539-1.161l-.6.343c3.59-1.41 7.829.049 12.072 1.255z" fill="#248ca6"/><path data-name="Path 9839" d="M58.633 201.33a4.809 4.809 0 0 1-2.787-2.529 6.958 6.958 0 0 1 2.339-8.68c-3.449 1.15-5.452 5.542-4.638 8.736.626 2.455 2.713 5.085 5.086 2.473z" fill="#1c768c"/><path data-name="Path 9840" d="M61.103 197.944c-1.963 1.426-2.069 2.059-3.253 3.8a1.7 1.7 0 0 1-1.154.09 4.118 4.118 0 0 1-2.323-1.864c-1.155-1.828-.805-4.013.134-5.986 1.122-2.357 2.829-3.9 5.179-4.124a7.513 7.513 0 0 1 6.356 2.752 6.556 6.556 0 0 1 1.161 2.571c.236 1.091 0 .866-.941.984a9.224 9.224 0 0 0-5.159 1.781zm2.12-9.327a3.4 3.4 0 0 0-1.306-.653c-6.733-2.835-12.251.464-13.635 7.321-1.009 4.458 1.877 9.643 5.083 11.5 1.974 1.154 4.369 1.245 5.5-.394 1.39-2 2.783-4.1 7.3-4.452 5.111-.105 3.889-9.162-2.942-13.322z" fill="#1c768c"/><path data-name="Path 9841" d="M144.19 251.563a6.491 6.491 0 0 1-2.061-2.3 28.479 28.479 0 0 1-1.771-3.792 39.01 39.01 0 0 0-4.838-9.1c-1.752-2.466-3.028-3.533-3.967-6.186-.594-2.021.5-1.459-1.452-.687-1.862 1.06 3 8.006 6.171 12.777 1.378 2.072 3.435 8.969 4.828 9.79 1.304.833 2.803.699 3.09-.502z" fill="#1b9ebf"/><path data-name="Path 9842" d="M143.58 252.128c-.006.053-.016.1-.026.143-1.3.408-2.84-1.39-3.4-2.361-.06-.1-1.91-4.441-1.91-4.724a37.916 37.916 0 0 0-.8-1.822 41.34 41.34 0 0 0-4.606-7.474 22.752 22.752 0 0 1-2.25-3.133c-.553-1.067-.984-2.425-.389-3.078 5.241 1.872 11.027 11.142 12.889 18.234a28.949 28.949 0 0 1 .494 4.215zm1.39-.222c-1.342-8.486-6.976-18.293-13.675-23.317a4.128 4.128 0 0 0-1.3-.871c-6.5-3.43-7.737 4.238-2.679 10.218 4.493 5.629 5.406 8.953 6.787 12.578a13.729 13.729 0 0 0 5.345 6.624 4.936 4.936 0 0 0 4.147.6c1.318-.624 1.93-2.656 1.375-5.832z" fill="#1c768c"/><path data-name="Path 9843" d="M66.005 185.763c-3.434-2.013-8.208-3.506-12.072-1.3-4.37 2.717-5.607 7.1-5.787 12.083a2.577 2.577 0 0 0 1.524 1.975c.019-8.758 6.307-12.29 13.927-7.821.007-1.676.967-4.109 2.408-4.937z" fill="#248ca6"/><path data-name="Path 9844" d="M150.493 252.398a1.459 1.459 0 0 1-.82 1.212l-.929.381.258 20.677.6-.346c.011 0 .02-.01.031-.022.608-.31.79-1.287.79-1.928.026-8.328.052-11.645.07-19.974z" fill="#1c768c"/><path data-name="Path 9845" d="M134.208 224.054q-33.07-19.359-66.136-38.728a1.3 1.3 0 0 0-1.469.1l-.6.342 66.136 38.727c.637-.368 1.444-.754 2.069-.441z" fill="#1b9ebf"/><path data-name="Path 9846" d="M149.075 253.956c-1.521.857-4.054.407-5.5-.444l-.063 17.153c.579 1.392 2.9 4.644 5.49 4z" fill="#17667a"/><path data-name="Path 9847" d="M132.141 224.49l-2.564-2.133-61.49-36.081-2.082-.513c-1.574.917-2.4 3.355-2.408 4.94l66.136 38.726c0-1.656.906-4.086 2.408-4.939z" fill="#1b9ebf"/><path data-name="Path 9848" d="M149.075 253.956c.4-10.345-8.316-27.1-16.934-29.466-1.48.848-2.408 3.235-2.408 4.939 7.627 4.46 13.872 15.331 13.842 24.083a5.341 5.341 0 0 0 5.5.444z" fill="#1c768c"/><path data-name="Path 9849" d="M139.713 256.937a13.058 13.058 0 0 1-5.146-6.492 37.6 37.6 0 0 0-6.854-12.51c-3.641-4.3-4.227-9.484-1.845-10.768l-58.506-34.26c2.4 4.068 1.878 8.562-1.793 8.638-4.517.354-5.512 2.451-6.9 4.45-1.131 1.639-3.195 1.613-5.169.459a11.237 11.237 0 0 1-3.839-3.981l.011-3.949c-1-1.267-1.524-1.566-1.524-1.975-.02 8.328-.048 11.645-.07 19.972l98.8 57.856c-1.214-.7-2.907-2.778-2.9-4.293.011-4.268.063-5.866.084-12.731a4.969 4.969 0 0 1-4.349-.416z" fill="#1c768c"/><path data-name="Path 9850" d="M149.898 253.498a1.474 1.474 0 0 0 .583-.928 1.525 1.525 0 0 0 .011-.287 32.205 32.205 0 0 0-3.226-13.173 34.962 34.962 0 0 0-12.907-14.972 1.376 1.376 0 0 0-1.62.011l-.6.341c9.208 5.409 16.662 19.011 16.636 29.9.237-.136.932-.744 1.123-.892z" fill="#1c768c"/></g><g data-name="Group 5241" fill-rule="evenodd"><path data-name="Path 9851" d="M178.453 186.805a2.588 2.588 0 0 1-2.61.6c-4.539-.9-12.211-8.841-16.1-11.48-1.509-1.025-2.89-1.962-4.052-2.678l.393-.637c1.167.719 2.558 1.662 4.08 2.7 3.784 2.568 11.416 10.483 15.825 11.362a1.807 1.807 0 0 0 1.834-.321c.282-.232.8.135.63.454z" fill="#abdaef"/><path data-name="Path 9852" d="M154.35 172.83l1.532-1.367a.693.693 0 0 1 .974.056l.565.633a.692.692 0 0 1-.055.973l-1.533 1.368a5.5 5.5 0 0 1-1.483-1.663z" fill="#f4fafc"/></g></g></svg>