<svg xmlns="http://www.w3.org/2000/svg" width="117.875" height="249.971" viewBox="0 0 117.875 249.971"><g data-name="Group 5406"><g data-name="Group 5405"><g data-name="Group 5390" fill-rule="evenodd"><g data-name="Group 5388"><g data-name="Group 5387"><path data-name="Path 10359" d="M6.994 31.552c-1.5 1.5 1.306 2.726 2.169 2.911 1.36.4 3.452.005 3.8 1.011.386 1.129 7.226.009 7.167-.067a9.219 9.219 0 0 0-5.179-2.763c-1.767-.161-4.506.306-5.87-.163-.597-.209-1.148-.519-2.087-.929z" fill="#f1b287"/><path data-name="Path 10360" d="M6.7 31.936c-.74 1.338 1.981 2.449 2.769 2.618 2 .37 1.837.158 3 .858.505.3 2.765-.036 2.036-.993-.178-.236-2.585-.28-3.136-.47-1.249-.336-3.239-.238-4.669-2.013z" fill="#e8a476"/></g><path data-name="Path 10361" d="M21.816 36.187c-.049-.033-.168-.137-.22-.164-.826-.423-2.12.18-3.028 1.377-1.089 1.429-1.668 3.585-.563 4.376 1.432 1.026 5.296-3.021 3.811-5.589z" fill="#124f6b"/><path data-name="Path 10362" d="M24.383 40.08a46.166 46.166 0 0 0-4.114-4.663c-2.25-1.9-3.532-2.15-9.416-.562-1.444.39-1.07.411-2.46-.165l-5.4-2.468c-1.361-.387-2.315-.273-2.639.124a8.251 8.251 0 0 0-.033 4.7c.223.55.21.08.8.232l7.9 3.732a1.831 1.831 0 0 0 1.635.172c3.983-1.17 6.558-2.227 10.157.483.623.47 1.354 1.175 2.333 1.835z" fill="#f1b287"/><path data-name="Path 10363" d="M23.867 42.872a48.334 48.334 0 0 1-2.241-1.619c-3.221-2.426-3.849-2.9-11.521-.744l-6.8-3.626c-1.361-.387-2.518-.627-2.843-.23-.512.629.424 1.51 2.416 2.026l7.055 3.9.348-.1c7.077-2 7.556-1.644 10.172.326a49.4 49.4 0 0 0 2.332 1.678z" fill="#e8a476"/></g><g data-name="Group 5389"><path data-name="Path 10364" d="M40.159 64.905a4.51 4.51 0 0 0 2.587 1.955c1.665.355 3.716-.737 5.341-1.582 5.052-2.624 13.646-13.633 22.351-30.65-.913-.163-7.243-3.422-7.972-3.639-2.628-.783-4.186 1.084-5.5 2.767-1.707 2.185-2.852 5.45-4.652 8.989-1.615 3.179-6.061 6.573-8.463 10.672z" fill="#12a8b3"/><path data-name="Path 10365" d="M21.586 36.008c1.011 1.7-.672 5.65-3.53 5.814 6.79 9.774 13.362 17.906 23.082 24.37a3.854 3.854 0 0 0 2.85.706c1.615-.232 3.033-1.965 4.417-3.391l-4.333-9.76c-3.404-4.505-14.689-12.266-22.486-17.739z" fill="#12a8b3"/><path data-name="Path 10366" d="M20.419 40.667a3.6 3.6 0 0 1-2.363 1.155c6.79 9.774 13.362 17.906 23.082 24.37a3.854 3.854 0 0 0 2.85.706 2.371 2.371 0 0 0 .237-.044 14.62 14.62 0 0 0 3.862-1.576c5.052-2.624 13.646-13.633 22.351-30.65-.913-.163-6.917-3.79-7.668-3.913-3.583-.586-5.769 3.1-7.187 8.7-1.005 3.963-8.931 7.151-5.846 18.66-3.107 3.471-5.583 5.138-6.216 5.083-1.163-.1-3.928-3.41-7.576-6.8-5.56-5.174-10.917-9.936-15.526-15.691z" fill="#06929c"/><path data-name="Path 10367" d="M21.594 36.008a4.2 4.2 0 0 1-.518 3.785c7.458 4.549 22.358 14.408 22.972 22.327.625-3.08.39-7.841-.442-8.791-4.43-5.391-15.029-12.42-22.012-17.321z" fill="#1abac6"/></g></g><g data-name="Group 5391" fill-rule="evenodd"><path data-name="Path 10368" d="M71.384 213.686a1.43 1.43 0 0 1-.544 1.2c-4.025 3.272-4.244.56-7.518 3.035-2.313 1.748-2.111 2.654-3.783 3.786a13.915 13.915 0 0 1-6.469 2.093c-1.572.156-8.012.309-8.349-1.8l-.042-.394a2.887 2.887 0 0 1 .37-2.287c1.627-2.31 7.064-3.7 7.852-4.111 2.485-1.256 14.973-8.231 18.1-4.635.549.635.409 2.299.383 3.113z" fill="#b4dcf0"/><path data-name="Path 10369" d="M69.201 199.842a14.856 14.856 0 0 0-.16 2.757c.081.85.949 2.34 1.383 3.907.872 3.134.8 4.889-.191 6.142-.717.9-3.294 2.059-5.47 3.119a9.149 9.149 0 0 0-2.741 1.784c-1.395 1.443-2.129 2.442-4.034 3.29a22.864 22.864 0 0 1-8.316 1.622c-2.35.032-3.945-.635-4.534-1.254a.976.976 0 0 1-.358-.791c1.145-6.314 13.586-7.666 13.336-17.28 3.436 1.722 9.2-.166 11.085-3.296z" fill="#d2eefc"/><path data-name="Path 10370" d="M69.194 199.907a14.3 14.3 0 0 0-.153 2.692c.081.85.949 2.34 1.383 3.907.872 3.134.8 4.889-.191 6.142-.717.9-3.294 2.059-5.47 3.119a9.149 9.149 0 0 0-2.741 1.784c-1.395 1.443-2.129 2.442-4.034 3.29a22.864 22.864 0 0 1-8.316 1.622 7.373 7.373 0 0 1-4.247-1 3.8 3.8 0 0 1-.387-.33c-.484-.509-.14-1.286-.029-1.492 2.239 1.666 4.6 1.408 7.588.272 3.014-1.145 4.621-3.848 7.8-5.68s5.557-2.481 6.65-4.476.56-4.247.615-8.183a7.487 7.487 0 0 0 1.532-1.667z" fill="#c3e6f7"/><path data-name="Path 10371" d="M56.494 209.422a11.676 11.676 0 0 0 7.68 1.444c-6.359 2.463-9.191 7.814-13.731 9.065-3.106.855-5.076-.256-5.022-.464.752-2.915 8.554-6.509 11.073-10.045z" fill="#e0f5ff"/></g><g data-name="Group 5392" fill-rule="evenodd"><path data-name="Path 10372" d="M76.433 227.895a6.368 6.368 0 0 1-.314 2.854c-.557 1.706-1.435 2.991-1.511 4.907-.145 3.748 1.245 6.833 4.8 7.355a6.69 6.69 0 0 0 7.029-3.518c1.71-3.549.425-7.07-1.971-11.244-.865-1.509-.047-4.89-1.522-4.051z" fill="#b4dcf0"/><path data-name="Path 10373" d="M74.938 221.516a25.425 25.425 0 0 0-.018 3.912l.267 3.01a20.491 20.491 0 0 1 .082 2.925c-.122 2.265-.671 4.214-.239 5.555 1.022 3.171 2.608 3.945 4.769 4.117 1.889.149 4.9-.333 6.3-3.113 1.56-3.078.51-5.639-.569-9.709a17.155 17.155 0 0 1-.283-4.576l.048-4.389-.09.034c-.057-1.051-.182-1.88-.3-2.941-3.18 2.838-8.1 2.309-9.6.3a41.876 41.876 0 0 0-.425 4.831z" fill="#d2eefc"/><path data-name="Path 10374" d="M76.743 239.896a4.872 4.872 0 0 0 3.056 1.139c1.889.149 4.9-.333 6.3-3.113 1.56-3.078.51-5.639-.569-9.709a17.155 17.155 0 0 1-.283-4.576l.048-4.389c-.052-1.454-.224-2.3-.454-2.229s-1.624.938-2.3 1.242c-.138.507-.273 5.74-.257 6.448.203 8.172 4.15 15.391-5.541 15.187z" fill="#c3e6f7"/><path data-name="Path 10375" d="M81.157 223.625a12.916 12.916 0 0 1-5.52-.944 56.741 56.741 0 0 1 .327 9.625c-.319 4.5.183 6.208 2.7 6.584 1.935.289 4.043-1.5 3.67-5.447-.315-3.316-1.403-6.302-1.177-9.818z" fill="#e0f5ff"/></g><path data-name="Path 10376" d="M69.664 96.16c1.5 5.745 6.8 5.923 4.749 15.493-2.043 9.543-7.035 28.258-6.345 37.069.466 5.98 2.122 6.772 3.064 14.566 1.143 9.455-.809 30.955-.437 41.376-.426 2.532-6.289 8.284-13.9 4.042-.757-9.14-1.222-45.392-3.674-55.153-1.81-5.4-1.3-8.032-1.73-13.418-.973-12.182-.283-23.992-.119-34.97.41-4.247.094-9.474.7-13.178z" fill="#12a8b3" fill-rule="evenodd"/><path data-name="Path 10377" d="M69.664 96.16c1.5 5.745 6.8 5.923 4.749 15.493-2.043 9.543-7.035 28.258-6.345 37.069.466 5.98 2.122 6.772 3.064 14.566 1.143 9.455-.809 30.955-.437 41.376-.312 1.856-3.551 5.446-8.258 5.554 1.182-18.037 3.278-40.335-2.071-55.024a18.054 18.054 0 0 1-.882-7.236c.417-6.813 1.1-11.353 1.808-17.311-6.184-3.734-9.2-7.791-10.362-9.988.042-1.687.317-13.843.342-15.494.41-4.247.094-9.474.7-13.178z" fill="#06929c" fill-rule="evenodd"/><path data-name="Path 10378" d="M71.258 125.563c-1.875 8.5-3.616 17.718-3.19 23.159.466 5.98 2.122 6.772 3.064 14.566.7 5.82.234 16.205-.144 25.759a232.332 232.332 0 0 0-3.14-24.132c-1.118-5.4-3.348-9.732-3.821-14.3-.583-5.637.293-11.053 1.008-20.405-5.284-3.544-13.79-9.79-14.053-12.145z" fill="#05818a" fill-rule="evenodd"/><path data-name="Path 10379" d="M81.294 90.238c1.546 4.813 6.417 7.6 8.666 16.224 1.417 5.439 1.617 11.418-1.215 22.643-1.3 5.147-2.9 13.3-3.616 17.909-2.129 13.653.519 12.6 2.854 23.748 2.16 10.319.068 38.553-1.205 50.8-.857 3.841-10.378 5.416-12.927 1.644-.878-12.152.06-33.839-1.413-46.16-.944-7.9-.723-8.3-3.383-16.121a23.639 23.639 0 0 1-1.376-10.256l.975-35.449c-5.808-6-12.233-12.15-17.024-19.493l.347-3.743z" fill="#12a8b3" fill-rule="evenodd"/><path data-name="Path 10380" d="M81.294 90.238c1.546 4.813 6.417 7.6 8.666 16.224 1.417 5.439 1.617 11.418-1.215 22.643-1.3 5.147-2.9 13.3-3.616 17.909-2.129 13.653.519 12.6 2.854 23.748 2.16 10.319.068 38.553-1.205 50.8-.494 2.215-3.868 3.676-7.124 3.793.3-5.811.772-15.515.881-16.955 1.4-18.521 1.851-30.072-2.957-44.937-.711-2.735-1.39-4.16-1.114-6.989.663-6.757 1.691-13.4 2.952-20.089.051-.273-5.2-.477-11.211-4.966l.449-16.2c-5.808-6-12.233-12.15-17.024-19.493l.347-3.743z" fill="#06929c" fill-rule="evenodd"/><path data-name="Path 10381" d="M81.294 90.238c1.546 4.813 6.417 7.6 8.666 16.224 1.417 5.439 1.617 11.418-1.215 22.643-.356 1.412-.735 3.05-1.113 4.779-1 4.574-1.983 9.787-2.5 13.13-2.129 13.653.519 12.6 2.854 23.748.748 3.573.985 9.295.925 15.757-2.48-14.81-6.254-19.9-7.43-23.539-.712-2.737-1.391-4.162-1.114-6.989.662-6.759.96-14.421 2.22-21.106.052-.273-8.335-.512-14.348-5l.418-14.659c-5.808-6-12.233-12.15-17.024-19.493l.347-3.743z" fill="#05818a" fill-rule="evenodd"/><path data-name="Path 10382" d="M77.187 138.582a755.647 755.647 0 0 0-1.31 6.812c-.9 4.815-1.486 9.519-2.133 10.156-1.045 1.027-3.894 2.521-5.149-1.3-.7-2.122.228-12.792.259-13.534.076-1.889.153-3.884.23-5.832 2.026 1.47 5.004 3.488 8.103 3.698z" fill="#1abac6" fill-rule="evenodd"/><path data-name="Path 10383" d="M70.02 161.478c2.643 1.2 3.094 1.65 5.979 2.016 6.483 14.844 3.381 40.241 2.73 60.574a4.933 4.933 0 0 1-3.965-1.837c-.043-13.878-.237-33.332-1.413-46.926-.646-7.445-.796-7.522-3.331-13.827z" fill="#1abac6" fill-rule="evenodd"/><path data-name="Path 10384" d="M59.294 132.053c-.833 7.849-1.643 16.015-2.013 16.38-1.044 1.027-3.311 1.643-4.564-2.176-.276-.842-.808-11.709-.955-21.154 1.619 2.518 4.812 5.724 7.532 6.95z" fill="#1abac6" fill-rule="evenodd"/><path data-name="Path 10385" d="M53.251 152.72a14.4 14.4 0 0 0 5.654 3.233c5.021 15.657 3.593 33.223 2.454 53.394a7.457 7.457 0 0 1-4.087-1.308c-.027-8.806-.9-26.631-1.231-34.632-.384-9.399.138-13.675-2.79-20.687z" fill="#1abac6" fill-rule="evenodd"/><path data-name="Path 10386" d="M84.621 75.558c-2.759 5.475-3.107 11.626-2.157 14.583.864 2.692 7.467 8.152 8.859 18.017a177.733 177.733 0 0 1 .036 17.9 9.4 9.4 0 0 1-3.032 3.807c-.375-4.069-.189-8.9-.338-12.217-.806 4.711-1.433 9.19-2.28 13.667a15.537 15.537 0 0 1-9.32.958c-2.155-.382-22.789-8.26-25.884-15.043-.206-4.943.627-22.511.892-24.7.706-5.829 2.234-7.848 2.98-11.584.939-4.7-.374-8.662.141-14.1.137-1.457.28-2.929.427-4.4.5-4.972 1.044-9.931 1.6-14.277.726-5.6 1.4-10.377 2.121-12.628a6.791 6.791 0 0 1 1.089-2.233c1.483-2.119 4.145-3.192 8.781-1.247 6.424 2.695 16.035 6.8 21.442 12.553 2.479 1.507 4.289 3.3 4.513 6.554.503 7.304-6.682 18.065-9.87 24.39z" fill="#12a8b3" fill-rule="evenodd"/><path data-name="Path 10387" d="M76.971 132.362c-.193-.028-.387-.061-.582-.094-2.155-.382-22.789-8.26-25.884-15.043-.206-4.943.627-22.511.892-24.7.706-5.829 2.234-7.848 2.98-11.584.909-4.555-.292-8.411.1-13.59 1.371.826 2.75 2.044 4.283 2.788 2.928 1.422 2.857 4.677 8.584 6.82 1.811.676 3.939 1.311 4.712 2.162a6.207 6.207 0 0 1 1.815 4.736c-.265 5.045-1.2 8.866.913 14.911 1.169 3.348 2.66 6.862 3.755 10.745 1.955 6.959.568 13.283-1.568 22.849z" fill="#1abac6" fill-rule="evenodd"/><path data-name="Path 10388" d="M84.621 75.558c-2.759 5.475-3.107 11.626-2.157 14.583.864 2.692 7.467 8.152 8.859 18.017a177.733 177.733 0 0 1 .036 17.9 9.4 9.4 0 0 1-3.032 3.807c-.375-4.069-.189-8.9-.338-12.217-.806 4.711-1.433 9.19-2.28 13.667a14.354 14.354 0 0 1-5.827 1.257c2.4-10.856 3.2-17.611 1.091-25.1-1.094-3.882-2.586-7.4-3.755-10.746-2.11-6.044-1.178-9.866-.912-14.911a6.211 6.211 0 0 0-1.815-4.737c-.775-.848-2.9-1.484-4.712-2.161-5.727-2.142-7.023-5.4-9.949-6.819-1.843-.894-3.465-2.475-5.118-3.235a21.429 21.429 0 0 1 .449-4.288c.86-4.381 2.6-8.468 3.986-12.595l23.288 8.958a24.005 24.005 0 0 1 6.726-12.8c1.522.853-9.749-5.994-20.644-12.087l.024.011c6.424 2.695 16.035 6.8 21.442 12.553 2.479 1.507 4.289 3.3 4.513 6.554.498 7.303-6.687 18.064-9.875 24.389z" fill="#06929c" fill-rule="evenodd"/><path data-name="Path 10389" d="M61.922 64.472c2.208 1.123 4.369 4.416 7.857 6.325a8.628 8.628 0 0 0 10.731-2.1 20.039 20.039 0 0 0 1.206-5.54c.318-7.1 1.3-10.913 5.332-16.625-2.523-1.38-5.094-2.846-6.492-4.358l-15.951-8.695-5.084 1.343a41.525 41.525 0 0 1-5.836 11.914 11.1 11.1 0 0 0-1.788 9c1.173 5.036 6.009 6.691 10.025 8.736z" fill="#12a8b3" fill-rule="evenodd"/><path data-name="Path 10390" d="M83.249 53.761c1.77.89 6.121 10.219 7.772 7.909 3.741-5.235 5.693-11.766.252-16.559-5.822-5.127-15.272-9.933-22.779-13.082-3.492-1.465-5.864-1.216-7.455-.1l2.8 1.13 16.527 7.457c2.47 2.047 3.968 4.014 6.442 6.125a18.583 18.583 0 0 0-3.559 7.12z" fill="#06929c" fill-rule="evenodd"/><path data-name="Path 10391" d="M62.159 62.627c2.975 1.292 3.593 3.879 6.848 5.663 2.163 1.183 6.393 2.415 9.656-1.472a18.742 18.742 0 0 0 1.125-5.173c.3-6.629.607-8.85 4.37-14.183-1.022-.559-3.574-1.925-4.519-2.51-5.572 2.677-10.821 3.474-14.279.512-1.421-1.218-1.685-5.825-.27-8.728l-4.748-3.195a48.059 48.059 0 0 1-6.668 13.356c-1.7 2.483-2.438 4.781-1.731 7.823 1.096 4.7 6.356 6.232 10.216 7.907z" fill="#1abac6" fill-rule="evenodd"/><g data-name="Group 5395" fill-rule="evenodd"><path data-name="Path 10392" d="M95.549 52.113c2.8 7.612 4.674 19.231 5.652 27.088a34.165 34.165 0 0 1 .594 4.557c-.256 3.068-7.453 6.66-9.451-1.7-1.176-4.918-3.236-9.371-5.969-18.542-2.773-9.3-.926-16.077 3.049-17.235 2.8-.809 5.049 2.915 6.125 5.832z" fill="#12a8b3"/><path data-name="Path 10393" d="M94.964 82.366c-.57-.787-2.5-1.567-3.093-2.106-1.219-4.283-3.1-8.7-5.5-16.74-2.362-7.919-1.373-14.009 1.427-16.357 2.071 9.6 5.369 24.766 7.166 35.203z" fill="#1abac6"/><path data-name="Path 10394" d="M95.549 52.113c2.8 7.612 4.674 19.231 5.652 27.088a34.165 34.165 0 0 1 .594 4.557c-.224 2.671-5.71 5.739-8.442.969a12.014 12.014 0 0 0 3.549-1.583c.736-.945.419-1.727.037-3.463a943.265 943.265 0 0 0-7.93-33.251 4.3 4.3 0 0 1 .415-.145c2.8-.813 5.049 2.911 6.125 5.828z" fill="#06929c"/><g data-name="Group 5393"><path data-name="Path 10395" d="M86.64 54.197l-2.12-1.193v43.268l2.12 1.192z" fill="#1a0101"/><path data-name="Path 10396" d="M84.52 53.004L60.755 66.515v43.264L84.52 96.267z" fill="#001e30"/><path data-name="Path 10397" d="M84.494 53.707L61.657 66.644l.127 42.294 2.044 1.157L84.494 95.05l2-40.2z" fill="#e6e6e6"/><path data-name="Path 10398" d="M86.64 54.197L62.875 67.709v43.263l23.765-13.51z" fill="#00263d"/></g><path data-name="Path 10399" d="M73.677 94.149l3.9-1.392-.634-4.387c-2.131-1.284-3.738-1.711-4.642-1.345-.074.029-.388.128-.451.168-1.371.87.113 7.387 1.827 6.956z" fill="#9eb0ba"/><g data-name="Group 5394"><path data-name="Path 10400" d="M66.05 97.743a22.156 22.156 0 0 1-5.686-1.95c-.956-.448-1.254-7.206-1.139-7.224 1.2.208 4.613 1.723 5.9 1.884 1.562-.493 7.472-2.388 9.033-2.881l1.477 3.1.707 2.771a9.524 9.524 0 0 0-2.485.5c-2.243.977-6.041 3.768-7.807 3.8z" fill="#e8a476"/><path data-name="Path 10401" d="M65.416 91.58c-2.239-.388-4.368-2.087-5.911-2.81-.19-.089-.274-.153-.282-.2-.032-.175 1.157-.183 1.607-.036a31.313 31.313 0 0 0 4.637 1.646c1.561-.493 5.949-2.223 7.471-2.832l1.285.1a96.374 96.374 0 0 1-8.807 4.132z" fill="#f1b287"/><path data-name="Path 10402" d="M63.628 89.041c-.261 1.857 2.575.973 3.282.646.617-.049 5.979-1.47 5.121-1.739a8.756 8.756 0 0 0-4.4-.314c-.937.249-.969.6-1.988.931a10.368 10.368 0 0 1-2.015.476z" fill="#f1b287"/></g><path data-name="Path 10403" d="M101.523 85.094a5.464 5.464 0 0 1-2.022 2.7c-1.024.775-2.533 1.115-4.081 1.83-5.991 2.769-12.457 3.25-21.775 4.535 1.245-1.954.344-6.592-1.8-6.967 7.438-3.042 12.738-5.1 20.017-6.786 1.022.467 3.129 2.4 3.425 2.331 1.807-.398 7.87-2.358 6.236 2.357z" fill="#12a8b3"/><path data-name="Path 10404" d="M74.559 89.172c-.28-.787-.779-2.09-1.647-2.415a118.457 118.457 0 0 1 18.019-6.129c.826-.014 2.386 1.253 3.249 1.941z" fill="#1abac6"/><path data-name="Path 10405" d="M101.523 85.094a5.464 5.464 0 0 1-2.022 2.7c-1.024.775-2.533 1.115-4.081 1.83-5.991 2.769-12.457 3.25-21.775 4.535a5.484 5.484 0 0 0 .457-3.649c9.612-2.758 21.933-6.252 22.8-7.368.707-.906.444-1.662.085-3.252 2.87.829 5.85 1.411 4.536 5.204z" fill="#06929c"/></g><g data-name="Group 5396" fill-rule="evenodd"><path data-name="Path 10406" d="M68.13 29.998c-8.153 2.974-8.328 14.812-8.206 28.03 1.869-7.533 3.6-15.42 9.81-18.252 3.418-1.559-.934-7.434-1.604-9.778z" fill="#361d07"/><path data-name="Path 10407" d="M59.924 58.028c1.869-7.533 3.6-15.42 9.81-18.252 2.221-1.013 1.16-3.85-.038-6.355-8.743 7.041-9.465 22.545-9.772 24.607z" fill="#241304"/></g><g data-name="Group 5404"><g data-name="Group 5397" fill-rule="evenodd"><path data-name="Path 10408" d="M80.31 37.89c.741 6.474-11.83 8.815-13.846 4.676-.219-4.495-.508-7.737-3.032-12.629l12.007-4.738 3.042-1.327c-1.552 6.353-.352 8.565 1.829 14.018z" fill="#e8a476"/><path data-name="Path 10409" d="M80.311 37.772a.88.88 0 0 1 .017.219c-5.561-6-10.93-3.874-15.182-5.293a14.632 14.632 0 0 0-.578-1.416c-.375-1.062-.533-.888-1.034-2.256l12.008-4.738 3.042-1.327c-1.552 6.349-.454 9.351 1.727 14.811z" fill="#db9669"/></g><g data-name="Group 5403"><g data-name="Group 5399" fill-rule="evenodd"><path data-name="Path 10410" d="M63.086 20.439l5.752-2V9.078l-2.633-7.31c-7.736 2.71-7.219 17.074-3.119 18.671z" fill="#241304"/><g data-name="Group 5398"><path data-name="Path 10411" d="M82.018 5.514a11.313 11.313 0 0 0-8.987-4.382c-6.161-.225-9.7 2.511-11.8 6.9a3.219 3.219 0 0 1-.156 1.025 22.549 22.549 0 0 0-.739 3.433 3.1 3.1 0 0 1-.094.4c0 1 .1 2.139.139 2.766.135 2.088-1.06 1.343-1.431 3.363a34.73 34.73 0 0 0 .2 7.8c.26 2.115-.093 4.151.841 4.7a9.013 9.013 0 0 0 6.134.673c6.974-1.247 9.572-4.009 12.535-10.19 3.212-1.241 4.762-2.531 5.453-4.208 1.636-3.986.43-9.038-2.095-12.28z" fill="#f1b287"/><path data-name="Path 10412" d="M66.123 32.184c6.99-1.247 9.572-4.009 12.535-10.19 3.212-1.241 4.762-2.531 5.453-4.207 1.638-3.979.432-9.031-2.093-12.273a11.313 11.313 0 0 0-8.987-4.382 13 13 0 0 0-10.8 5.091c.64 4.263 5.624 9.531 7.776 11.133a4.025 4.025 0 0 1 1.76 3.411c-.02 2.456-2.786 2.017-3.078 3.121-.3 1.129 2.529 1.9 1.251 4.843-.358.826-3.053 2.731-4.252 3.524.146-.012.287-.045.435-.071z" fill="#e8a476"/></g></g><g data-name="Group 5402"><g data-name="Group 5401"><path data-name="Path 10415" d="M78.134 28.31c7.145-1.937 10.31-6.975 10.236-13.048a23.133 23.133 0 0 0-1.983-8.718c-1.7-3.554-5.21-6.043-11-6.175-1.732-.039 3.223 1.477.984 2.41l1.584 15.477-.366 6.793z" fill="#361d07" fill-rule="evenodd"/><path data-name="Path 10416" d="M62.128 5.12c5.206 13.4 16.514 15.971 16.4 18.843-.091 2.224 4.5-1.338 5.679-3.271a14.222 14.222 0 0 0-2.2-17.23C76.209-2.19 65.552-.41 62.128 5.12z" fill="#361d07" fill-rule="evenodd"/><path data-name="Path 10417" d="M77.86 28.066c6.677-3.268 10.423-8.98 10.17-15.136-.024.13-.048.262-.077.394-.431-2.007-1.1-4.828-2.985-6.031a13.438 13.438 0 0 1 1.706 8.835c-.153-3.089-.987-4.51-2.743-7.465a22.6 22.6 0 0 1 1.219 7.647c-.444-2.286-2.18-5.856-3.473-6.763a10.929 10.929 0 0 1 1.432 8.836c-.085-2.906-1.7-6.976-3.716-8.166.921 1.331 2.059 4.455 1.736 6.277-1.018-2.438-.988-2.923-3.139-5.363a15.037 15.037 0 0 1 1.463 5.514c-.888-1.665-1.565-3.187-2.772-5.057.441 1.256 1.5 5.422 1.249 6.673-.337-.787-3.778-4.208-5.283-5.552 1.378 2.588 2.957 5.36 4.5 6.661.182.444-6.226-2.961-13.06-10.88 3.211 6.45 8.755 9.177 13.535 13.669l-.22 2.62a8.528 8.528 0 0 0 .458 3.287z" fill="#241304" fill-rule="evenodd"/><g data-name="Group 5400"><path data-name="Path 10418" d="M80.146 17.772c2.886-.657 2.568 2.563 1.931 4.469-.437 1.31-1.533 1.094-2.045 2.111a2.544 2.544 0 0 1-2.484 1.586c-1.693-.224-.38-2.635-.073-3.615-.026-1.656.839-4.129 2.671-4.551z" fill="#e8a476" fill-rule="evenodd"/></g><path data-name="Path 10419" d="M62.624 5.652c.822-3.666 6.788-6.281 13.234-5.264 3.014.215 7.286 1.492 9.116 4.29a17.509 17.509 0 0 0-8.871-3.607c2.05.548 6.473 2.423 8.091 5.8a13.594 13.594 0 0 0-8.433-4.972c3.216 1.361 3.931 2.351 5.7 4.729a19.52 19.52 0 0 0-6.995-4.216 9.452 9.452 0 0 1 4.459 4.9c-2.6-2.5-2.692-3.386-6.239-4.387a22.634 22.634 0 0 1 4.777 5.313 43.02 43.02 0 0 0-6.507-4.436 25.984 25.984 0 0 1 3.973 4.874 24.814 24.814 0 0 0-6.192-4.337 27.8 27.8 0 0 1 5.8 6.775 50.553 50.553 0 0 0-6.8-5.824c1.5 2.2 2.567 3.476 4.095 5.678a48.376 48.376 0 0 1-6.654-6.044c1.312 1.93 5.264 7.409 6.922 9.261a69.9 69.9 0 0 1-8.043-8.531 14.607 14.607 0 0 0 3.73 6.168 17.739 17.739 0 0 1-5.163-6.17z" fill="#4a2b12" fill-rule="evenodd"/></g><path data-name="Path 10420" d="M88.275 14.247c.872 3.99-.605 15.336-8.872 21.337-.541-.682-2.03-5.62-1.974-9.694.5.214 1.462 1.12 1.795.887 6.822-4.74 4.702-2.984 9.051-12.53z" fill="#241304" fill-rule="evenodd"/></g></g></g></g><path data-name="Path 10421" d="M113.594 228.791L68.35 203.023c-4.933-2.253-11.992-4.047-17.017-1.432-4.579 2.383-12.122 7.26-15.457 9.162-2.533 1.445-11.326 6.713-5.85 9.691 16.112 8.761 32.058 18.615 48.418 27.514 3.094 1.684 7.621 2.292 12.373 1.9a32.759 32.759 0 0 0 13.4-3.991q4.078-2.372 8.023-4.67c3.549-2.066 5.431-4.509 5.617-6.769.185-2.21-1.233-4.256-4.263-5.637z" fill="#231f20" fill-rule="evenodd" opacity=".1" style="mix-blend-mode:multiply;isolation:isolate"/></g></svg>