<svg xmlns="http://www.w3.org/2000/svg" width="138.792" height="336.706" viewBox="0 0 138.792 336.706"><g data-name="Group 5267"><path data-name="Path 9862" d="M133.494 310.482l-56.019-31.905c-6.107-2.79-14.847-5.011-21.069-1.773-5.669 2.95-15.008 8.989-19.137 11.343-3.137 1.789-14.024 8.312-7.243 12 19.948 10.847 39.691 23.047 59.948 34.067 3.831 2.084 9.435 2.837 15.319 2.348a40.559 40.559 0 0 0 16.591-4.941q5.049-2.937 9.934-5.783c4.394-2.558 6.724-5.583 6.955-8.38.226-2.733-1.531-5.265-5.279-6.976z" fill="#231f20" fill-rule="evenodd" opacity=".1" style="mix-blend-mode:multiply;isolation:isolate"/><g data-name="Group 5251" fill-rule="evenodd"><g data-name="Group 5250"><path data-name="Path 9863" d="M62.407 273.697c-1.137 4-1.424 6.058-3.084 8.383-3.308 4.638-8.188 7.95-15.292 12.986-3.381 2.4-4.1 4.668-.672 6.756 2.7 1.645 9.289.338 13.407-.631 7.729-1.817 10.853-6.469 13.5-7.678l2 .453c1.639.029 8.079-2.571 9.336-4.253a46.263 46.263 0 0 0 1.007-5.99c.239-6.541-.787-5.875-2.537-10.991-5.952.43-11.708.763-17.665.965z" fill="#111214"/><path data-name="Path 9864" d="M41.12 298.828c-.033 1.033.665 2.033 2.241 2.994 2.7 1.645 9.289.338 13.408-.631 7.728-1.817 10.852-6.469 13.5-7.678l2 .453c1.639.029 8.079-2.571 9.336-4.253a46.263 46.263 0 0 0 1.007-5.99c.239-6.541-.787-5.875-2.537-10.991-2.631.19-5.226.362-7.818.511-.469 4.306.16 11.734-3.384 14.5-3.963 3.09-7.055 3.914-9.7 5.523-8.444 5.128-14.017 9.296-18.053 5.562z"/><path data-name="Path 9865" d="M60.532 281.042c.843 1.244 2.5 1.946 5.241 2.628-4.42 4.983-5.043 4.517-10.98 7.853-2.991 3.418-3.407 4.066-5.316 5.169-2.279 1.317-5.5 2.669-6.851 1.7-.581-.418.2-1.588 2.712-3.408 2.847-2.063 5.745-4.154 8.368-6.335a30.855 30.855 0 0 0 6.826-7.607z" fill="#20232e"/></g><path data-name="Path 9866" d="M84.535 164.409a95.49 95.49 0 0 0 .843-15.265c-4.816-1.927-9.879-3.748-14.761-5.884l.348-.295c-5.175-2.428-9.635-6.2-15.6-9.626-2.5 7.863-3.422 11.383-3.232 17.779a196.6 196.6 0 0 0 2.787 25.291c.873 12.954 2.037 26.471 2.876 35.317 2.142 22.567 1.88 44.829 3.231 67.357 2.8 4.589 16.287 4.871 20.895-1.58.689-17.822 1.8-31.893 1.3-41.645-.42-8.117-.806-12.793-3.432-20.008 1.755-12.007 4.108-34.106 4.745-51.441z" fill="#001624"/><path data-name="Path 9867" d="M107.036 297.381c.988 2.886 1.891 5.123 1.8 6.938-.095 1.88-.608 3.708-.585 6.085.021 2.04.126 3.774.362 6.081.241 2.361-.006 3.478-1.041 4.421-1.683 1.532-6.7 3.9-9.074 4.708a9.546 9.546 0 0 1-4.159.56 18.523 18.523 0 0 1-5.576-1.017c-.512-.193-1.038-2.183-1.075-3.91-.079-3.613.249-3.308 1.745-9.037.511-1.957.925-3.823 1.627-6.109.876-2.846 1.964-5.352 2.076-8.154l10.585-.412z" fill="#111214"/><path data-name="Path 9868" d="M107.036 297.381c.988 2.886 1.891 5.123 1.8 6.938-.095 1.88-.608 3.708-.585 6.085.021 2.04.126 3.774.362 6.081.241 2.361-.006 3.478-1.041 4.421-1.683 1.532-6.7 3.9-9.074 4.708a9.546 9.546 0 0 1-4.159.56 18.523 18.523 0 0 1-5.576-1.017c-.464-.174-.939-1.823-1.052-3.414h.028c3.235 1.1 6.375 1.543 9.482.025 6.561-3.2 5.707-5.866 5.089-13.428-4.267-.751-5.945-1.512-8.109-3.85 3.638 1.07 7.549 1.261 9.484-.961l.6-6.018z"/><path data-name="Path 9869" d="M68.812 215.781c4.424 20.908 5.544 35.66 2.719 66.61 4.072-.3 8.221-1.846 10.395-4.888.689-17.822 1.805-31.893 1.3-41.645-.42-8.117-.806-12.793-3.432-20.008 2.251-15.438 5.5-47.56 4.812-64.78l-9.24-3.7c-2.802 25.482-4.569 38.62-6.554 68.411z" fill="#00101a"/><path data-name="Path 9870" d="M78.378 173.588c1.706 17.362 5.047 41.5 6.987 53.819 3.526 22.392 4.077 48.647 6.057 71.129 3.059 4.786 14.585 5.771 19-.182.191-17.834 1.81-37.8 1.033-47.534a61.5 61.5 0 0 0-4.821-20.156c.444-13.9 7.7-71-1.883-82.2a8.449 8.449 0 0 0-1.8-2.536l-13.956-1.09-16.555-1.926a47.966 47.966 0 0 0 .12 19.659 3.077 3.077 0 0 0 .372.81 40.83 40.83 0 0 0 .634 3.535c.242 1.083 2.892 4.115 4.812 6.672z" fill="#001e30"/><path data-name="Path 9871" d="M93.528 162.121c1.9 4.4 3.369 11.781 3.456 19.159.239 10.569 1.025 35.556 2.028 47.45 1.968 23.317 6.41 42.75 2.892 73.712 3.33-.222 6.6-1.5 8.517-4.088.192-17.834 1.811-37.8 1.034-47.534a61.49 61.49 0 0 0-4.821-20.156c.452-14.175 7.989-73.283-2.47-82.817l-15.942-1.091c2.053 5.92 2.698 9.33 5.306 15.365z" fill="#001624"/><path data-name="Path 9872" d="M92.584 305.073c3.063 2.416 1.99 3.472 6.461 4.055-1.106 4.422-1.245 4.636-3.484 8.714-.181 1.684-.316 3.9-3.6 3.916-6.125.039-1.876-5.017-1.855-5.207a50.748 50.748 0 0 1 2.478-11.478z" fill="#20232e"/><path data-name="Path 9873" d="M55.96 138.341a43.255 43.255 0 0 0 11.535 8.1c.017 7.9.012 22.542-.284 37.174-.031 8.653-.171 17.467-.545 24.8-.013.357-.025.713-.035 1.07.736 6.09 3.59 9.527 3.949 18.678.4 10.2-.924 27.284-2.732 38.443.06 4.9.092 9.779.051 14.647a9.6 9.6 0 0 1-6.485-2.682l-.362-55.419c-.349-8.831-1.709-22.052-2.8-35.65-2.316-16.237-4.562-35.08-2.292-49.161z" fill="#001e30"/><path data-name="Path 9874" d="M87.649 150.054l.04.012a273.138 273.138 0 0 0 7.471 26.32c2.035 17.63 1.517 36.866 1.762 50.459 1.835 24.867 3.913 49.784 5.154 74.683-2.263-.2-7.282-1.207-8.484-2.3-1.358-20.276-1.118-48.868-3.644-67.923-.515-3.89-4.27-36.936-8.8-55.661-1.516-6.273-5.855-6.157-6.734-9.764-1.9-7.826-1.945-12.219-1.161-20.719 4.759 1.789 9.503 3.497 14.396 4.893z" fill="#00263d"/></g><g data-name="Group 5252" fill-rule="evenodd"><path data-name="Path 9875" d="M31.575 111.133l-.825-2.639-.79-5.463c-2.653-1.6-4.653-2.132-5.78-1.675a2.934 2.934 0 0 0-.286.1c-3.605 1.992 4.218 13.078 7.681 9.677z" fill="#8f9ba6"/><path data-name="Path 9876" d="M9.633 104.403c-1.74 3.1 3.333 3.965 4.806 3.872 2.03.5 2.967.129 3.979 1.594 1.136 1.645 5.041-6.991 4.912-7.086-.881-.265-5.177.976-6.1 1.337-1.715.669-1.788.954-3.819.837-1.051-.062-2.083-.318-3.778-.554z" fill="#f1b287"/><path data-name="Path 9877" d="M9.328 105.157c-.586 2.492 3.765 3.2 5.111 3.118 2.03.5 2.967.129 3.979 1.594.7 1.01 4.285-3.3-.643-3.585-2.174.025-5.336 1.087-8.447-1.127z" fill="#e8a476"/><path data-name="Path 9878" d="M38.073 106.956c-2.38.978-4.031 1.519-5.32 2.143-3.406 1.648-1.9 5.573-8.261 8.555l-7.283 3.414c-.952.446-8.275-1.188-10.321-2.384-1.453-.85-7.53-5.285-6.832-5.664.522-.283 3.721-.021 6.683-.222l6.6-1.669c6.255-2.192 5.109-5.793 7.325-7.234 2.886-1.877 5.875-1.455 10.5-5.74l5.539 1.972-.152 6.222z" fill="#f1b287"/><path data-name="Path 9879" d="M38.073 106.956c-2.38.978-4.031 1.519-5.32 2.143-3.406 1.648-1.9 5.573-8.261 8.555l-7.283 3.414c-.952.446-8.275-1.188-10.321-2.384-.251-.147-.641-.4-1.11-.723 2.127-1.61 7.813 1.238 10.065.793a9.5 9.5 0 0 0 5.278-2.572c2.53-2.409 2.931-4.158 4.517-6.059 1.121-1.343 2.987-2.611 5.948-4.912l-1.367-6.508q.46-.259.95-.548l5.539 1.972-.152 6.222z" fill="#e8a476"/><path data-name="Path 9880" d="M63.059 94.8c-11.932 7.623-19.228 9.8-31.705 16.511-.376-6.038-5.38-10.143-7.873-9.633 10.038-6.9 21.839-16.148 33.214-20.864z" fill="#d2eefc"/><path data-name="Path 9881" d="M63.059 94.8c-11.932 7.623-19.228 9.8-31.705 16.511a11.778 11.778 0 0 0-2.349-6.328c5.847-2.864 13.5-7.919 21.476-13.123 1.338-1.088-.425-5.572-.586-7.777z" fill="#c3e6f7"/></g><g data-name="Group 5254" fill-rule="evenodd"><path data-name="Path 9882" d="M92.809 51.858c.494 5.795-15.374 13.383-21.42 10.417-.637-.312-.971-1.652-1.364-2.191.368-1.485-.134-2.119-.267-3.629a18.546 18.546 0 0 0-.884-4.841c-.721-1.961-.336-6.027-1.584-10.618l18.094-7.887 3.875-2.055c-1.857 9.033.191 13.234 3.55 20.804z" fill="#e8a476"/><path data-name="Path 9883" d="M92.809 51.858a2.614 2.614 0 0 1-.08.974c-8.576-5.4-13.917-.876-23.976-3.564a65.985 65.985 0 0 0-1.463-8.272l18.094-7.887 3.875-2.055c-1.857 9.033.191 13.234 3.55 20.804z" fill="#db9669"/><g data-name="Group 5253"><path data-name="Path 9884" d="M53.64 132.93a2.528 2.528 0 0 0 .456 1.1c5.118 7.132 37.227 17.882 43.945 17.324-5.332-46.365 43.226-85.836-8.8-101.12l-14.968 8.24-5.356-.961-.686-6.593c-7.244 7.2-10.593 16.747-11.883 30.018-1.687 17.365 1.957 32.94-2.708 51.992z" fill="#12a8b3"/><path data-name="Path 9885" d="M77.28 146.233c8.9 3.165 17.615 5.383 20.761 5.122-5.332-46.365 43.226-85.836-8.8-101.12l-14.968 8.24-5.356-.961-.686-6.593a35 35 0 0 0-7.456 10.987l.429.471c3.906-1.237 5.958-2.821 7.973-1.93 1.66.733 3.559 3.346 4.145 7.492 2.36-.591 6.861-2.284 9.2-2.953-8.67 12.931-16.758 40.722-10.689 69.743.752 3.606 3.821 7.778 5.447 11.502z" fill="#06929c"/><path data-name="Path 9886" d="M73.792 59.988c-.865 3.613-1.006 3.6-4.295 6.091.406 1.837.668 3.422.932 5.3-5.364 15.557-8.225 28.72-11.373 47.1-.382-18.808.553-33.085 4.63-52.666a11.506 11.506 0 0 1 3.4-1.227c-.9-3.988-.4-6.561.42-7.044 2.946-.101 4.174.249 6.286 2.446z" fill="#041e2e"/><path data-name="Path 9887" d="M73.792 59.988c-.865 3.613-1.006 3.6-4.295 6.091.406 1.837.668 3.422.932 5.3-5.364 15.557-8.225 28.72-11.373 47.1 1.669-22.419 4.615-31.485 9.348-46.8a40.515 40.515 0 0 1-.418-6.52c2.107-1.868 3.013-2.053 3.552-3.336.478-1.137-1.875-4.014-1.491-4.241 1.473.434 1.633.209 3.745 2.406z" fill="#020d14"/><path data-name="Path 9888" d="M70.588 57.765c-.367-.939-.556-2.875-.953-4.561a19.755 19.755 0 0 0-1.258-3.546c-2.058.261-2.959 6.478-4.707 10.149 2.707-1.885 3.882-2.05 6.918-2.042z" fill="#1abac6"/><path data-name="Path 9889" d="M89.779 44.821c.413 6.651-12.21 11.272-19.256 12.949 1.768 2.133 4.051 4.816 3.961 6.947 5.08-1.389 13.7-3.779 17.187-10.275 2.387-4.441.423-7.851-1.892-9.621z" fill="#1abac6"/></g></g><g data-name="Group 5259" fill-rule="evenodd"><path data-name="Path 9890" d="M65.911 40.032c-5.238-.255-7.682.965-10.533 5.214-5.131 7.648-5.932 23.931-5.57 38.6.205 8.313 1.522 15.622 1.624 25.951.083 8.327-1.593 20.91-2.513 32.241-.448 5.517-.72 59.121-.522 63.41 1.124 2.423 9.068 6.492 10.116 6.288-.483-6.183-.914-61.831-1.192-69.674-.878-24.834-.243-55.461 5.04-75.831 1.321-5.1 2.062-10.918 4.922-15.4.483-.732.951-1.441 1.39-2.123a59.249 59.249 0 0 0-1.383-7.722l1.343-.586a23.473 23.473 0 0 0-2.722-.368z" fill="#d2eefc"/><path data-name="Path 9891" d="M106.632 56.992c-2.859-1.586-8.688-5.156-14.972-8.667 5.292 6.34-7.489 21.585-13.42 40.593-2.016 6.462-3.326 15.883-3.641 25.263-.305 9.052 2.573 100.608 4.625 107.934 5.987 4.135 11.907 4.429 18.2 1.838a60.3 60.3 0 0 0 15.261-9.653c-2.4-17.055 1.763-51.65-4.271-65.207-2.926-6.574-5.989-9.328-6.292-17.592-.433-11.847 16.186-43.424 16.031-59.771-.07-7.257-6.178-11.775-11.521-14.738z" fill="#d2eefc"/><path data-name="Path 9892" d="M106.632 56.992l-14.557-8.073c2.173 3.483 7.966 7.22 14.213 12.494a28.546 28.546 0 0 0-8.071 14.249c-3.288 13-8.316 30.108-9.179 42-1.374 18.918 3.153 27.439 7.052 35.874 2.644 5.719 5 59.783 5.036 68.642a61.329 61.329 0 0 0 11.488-7.873c-.543-5.134-.288-32.875-1.331-50.251-.383-6.371-1.724-13.1-4.719-18.824-2.051-3.922-3.979-6.954-4.443-13.725-.811-11.827 16.186-43.424 16.031-59.771-.069-7.261-6.177-11.779-11.52-14.742z" fill="#c3e6f7"/><path data-name="Path 9893" d="M89.038 117.658a88.588 88.588 0 0 0-.234 8.286c8.013-7.3 15.538-16.635 22.562-26.744 3.6-10.12 6.854-20.273 6.786-27.47z" fill="#b2d9ed"/><path data-name="Path 9894" d="M67.764 45.491a18.923 18.923 0 0 0-9.935 7.954l2.808 2.177-3.651 1.825a252.754 252.754 0 0 0 .317 52.174c.742-14.52.979-32.69 6.764-47.066.91-2.263 3.971-12.731 4.675-13.724-.556-2.304-.283-.946-.978-3.34z" fill="#ebf9ff"/><path data-name="Path 9895" d="M94.802 54.876l8.883 6.5c-7.358 12.113-17.218 34.857-17.489 57.84-.131 11.081 8.277 56.66 11.731 101.387-6.565 3.967-14.164 2.243-17.637-.93-3.5-22.531-4.026-110.649.706-128.543 4.057-15.349 11.033-26.457 13.806-36.254z" fill="#e0f5ff"/><g data-name="Group 5255"><path data-name="Path 9896" d="M95.955 131.699c-7.152-.244-9.12-.255-15.311.857l2.851 17.106c4.007 1.7 9.7 1.235 14.718-.844z" fill="#d2eefc"/><path data-name="Path 9897" d="M95.955 131.699c-7.152-.244-9.12-.255-15.311.857.89 5.1.467 5.051 5.931 5.378 9.763.583 6.754 1.665 10.121 11.456.148.431 1.017-.365 1.517-.572z" fill="#c3e6f7"/><path data-name="Path 9898" d="M95.432 129.52c-7.2-.221-10.409-.778-15.749-.8l1.377 6.809c1.823.95 11.4 2.083 15.627.081z" fill="#d2eefc"/><path data-name="Path 9899" d="M95.432 129.52c-7.2-.221-10.409-.778-15.749-.8 5.2 1.93 13.979 1.4 15.512 7.421a8.758 8.758 0 0 0 1.492-.531z" fill="#c3e6f7"/><path data-name="Path 9900" d="M81.955 138.516l9.011 1.456 3.641 8.96a31.06 31.06 0 0 1-10 .56z" fill="#e0f5ff"/><path data-name="Path 9901" d="M80.458 129.623c4.205 1.283 10.111 3.069 12.59 6.2a31.8 31.8 0 0 1-11.037-.725 25.089 25.089 0 0 1-1.553-5.475z" fill="#e0f5ff"/></g><g data-name="Group 5258"><g data-name="Group 5256"><path data-name="Path 9902" d="M54.565 123.116c-2.118-2.311-2.706-2.889-4.663-3.548l-1.47 19.1c.984 1.554 4.221 2.841 5.206 2.444z" fill="#d2eefc"/><path data-name="Path 9903" d="M54.565 123.116c-2.118-2.311-2.706-2.889-4.663-3.548-.211 5.424-.333 5.252 1.272 7.16 2.867 3.407 1.771 3.636 1.861 14.528a2.028 2.028 0 0 0 .6-.143z" fill="#c3e6f7"/><path data-name="Path 9904" d="M49.737 125.985l2.56 4.075-.23 10.5a5.482 5.482 0 0 1-3.134-2.3z" fill="#e0f5ff"/></g><g data-name="Group 5257"><path data-name="Path 9905" d="M55.341 118.58c-2.371-1.044-3.34-1.993-5.126-2.615l-.828 7.332c.431 1.207 3.426 3.479 5.221 1.846z" fill="#d2eefc"/><path data-name="Path 9906" d="M55.341 118.58c-2.371-1.044-3.34-1.993-5.126-2.615 1.378 2.62 4.419 3.053 3.794 9.568a2.139 2.139 0 0 0 .6-.39z" fill="#c3e6f7"/><path data-name="Path 9907" d="M50.304 117.001a16.268 16.268 0 0 1 3.045 7.957c-1.651-.114-2.171-.536-3.561-2.008.06-1.968.286-3.801.516-5.949z" fill="#e0f5ff"/></g></g><path data-name="Path 9908" d="M96.605 50.992c2.085 5.071.588 14.2-1.921 22.977l-5.106-1.894 2.462 5.562c-10.262 13.409-16 33.384-16.8 53.9-5.552-44.419 10.5-62.57 14.917-78.125.594-2.09 1.982-5.39 1.049-7.247a12.568 12.568 0 0 1 5.399 4.827z" fill="#ebf9ff"/></g><g data-name="Group 5260" fill-rule="evenodd"><path data-name="Path 9909" d="M72.004 47.79c2.381-.956 7.831-1.946 9.991-2.941 4.73-2.177 5.086-7.015 7.509-12.8 4.407-1.962 6.145-3.878 6.993-6.273 2.012-5.685-.032-12.672-3.8-17.031a15.848 15.848 0 0 0-12.889-5.5c-10.253.142-15.813 6.742-18.067 15.124a5.826 5.826 0 0 0-.156 2.165c.182 1.817.762 2.724.905 3.962.339 2.913-.922 2.386-1.209 5.249-.465 4.644.3 9.027 1.054 14.142.221 1.5.527 2.208 1.4 2.776a20.413 20.413 0 0 0 3.111 1.328c1.06.447 2.123.623 5.158-.201z" fill="#f1b287"/><path data-name="Path 9910" d="M72.004 47.79c2.381-.956 7.831-1.946 9.991-2.941 4.73-2.177 5.086-7.015 7.509-12.8 4.407-1.962 6.145-3.878 6.993-6.273 2.012-5.685-.032-12.672-3.8-17.031a15.848 15.848 0 0 0-12.889-5.5c-8.907.124-14.272 5.121-17 11.926.364.944 8.69 5.312 16.24 5.361.566 3.408-1.207 6.208-1.289 7.921-.078 1.642-.07 3.044-.22 3.964-.222 1.365-1.623 2.419-1.835 4.374-.688 6.363-4.2 10.432-7.048 11.576a13.156 13.156 0 0 0 3.348-.577z" fill="#e8a476"/><path data-name="Path 9911" d="M66.283 13.325c-1.131.041-2.49-.611-3.416 1.708.671-3.8 1.824-4.151 4.167-4.508z" fill="#f7941d"/><path data-name="Path 9912" d="M80.451 18.409c7.182-.726 15.146-5.78 17.011-9.018 3.878 7.6 2.938 17.846-3.074 24.048-1.73 3.284-3.425 6.515-5.046 9.855a69.644 69.644 0 0 1-2.332-14.091l-.308-.444c-.414.859-1.447 2.988-1.83 3.874-.452 0-1.185-.657-1.825-1.039 1.263-6.627.924-10.722-2.596-13.185z" fill="#d5a550"/><path data-name="Path 9913" d="M79.973 18.08c-7.543-.66-17.468-4.11-21.247-9.835 6.842 1.032 14.6-9.173 25.411-8.161 6.267.587 13.036 3.8 13.326 9.254-2.043 2.697-11.198 9.293-17.49 8.742z" fill="#fec25c"/><path data-name="Path 9914" d="M80.281 18.409c-7.543-.66-17.776-4.435-21.555-10.16l.066.008c6.735 3.488 12.305 3.452 18.038 2.384a6.958 6.958 0 0 1-2.63-1.3c5.683.308 9.6.58 14.518-2.459a9.7 9.7 0 0 1-3.931.215c2.918-.691 5.683-3.044 10.157-2.743a7.1 7.1 0 0 1 2.622 5.192c-1.841 3.138-10.994 9.409-17.285 8.863z" fill="#d5a550"/><path data-name="Path 9915" d="M89.278 26.701c4.044-.922 3.6 3.592 2.708 6.264-.614 1.835-2.15 1.534-2.867 2.958a3.565 3.565 0 0 1-3.482 2.223c-2.371-.314-.531-3.693-.1-5.065-.038-2.326 1.173-5.794 3.741-6.38z" fill="#e8a476"/><path data-name="Path 9916" d="M97.62 10.072c.583 1.328 1.973 4.959 1.572 7.583-.583-1.649-1.012-3.132-2.494-4.441 1.527 2.452 1.768 5.472.717 9.087-.05-3.129-.374-4.907-2.63-6.661 1.645 3.1 1.038 8.8.1 11.272-.286-3.539-.571-8.369-3.587-9.394 1.758 2.873 1.5 4.455.444 7.311-.308-3.172-1.254-4.952-3.416-6.149-.06 2.885-.952 8.232-3.791 10.726.234-1.13 1.681-8.759.171-9.838a5.474 5.474 0 0 1-.205 3.621 6.51 6.51 0 0 0-3.109-4.441c6.078-.185 14.885-5.739 16.228-8.676z" fill="#fec25c"/><path data-name="Path 9917" d="M93.905 3.452c-3.062-2.4-8.459-3.616-12.333-3.434-3.287.154-6.477 1.506-9.427 2.171a8 8 0 0 0 2.357.068c-5.224 1.464-9.577 6.121-15.68 5.978a11.683 11.683 0 0 0 7.106-.274 15.729 15.729 0 0 1-2.665 1.3c5.807.446 9.636-2.7 14.894-4.544a6.494 6.494 0 0 1-3.177 1.947c5.646-1.028 10.864-5.545 18.925-3.212z" fill="#fec25c"/></g><g data-name="Group 5261"><path data-name="Path 9918" d="M68.82 27.24a1.01 1.01 0 0 0-1.4.92v4.289a1 1 0 0 0 .6.911 31.126 31.126 0 0 0 6.249 1.946 1.014 1.014 0 0 0 1.234-.974v-4.42a1 1 0 0 0-.825-.977 33.282 33.282 0 0 1-5.867-1.695zm-7.166-5.7v6.456h.053a5.3 5.3 0 0 0 2.069 2.764 1.016 1.016 0 0 0 1.658-.772v-3.95a1 1 0 0 0-.436-.816c-1.6-1.107-3.086-2.426-3.291-3.682z" fill="#e9f5f5" fill-rule="evenodd" opacity=".5"/><path data-name="Path 9919" d="M68.72 27.478a.755.755 0 0 0-.978.4.726.726 0 0 0-.055.282v4.289a.72.72 0 0 0 .121.4.763.763 0 0 0 .33.276 26.148 26.148 0 0 0 2.887 1.078c1.032.321 2.14.607 3.307.851a.813.813 0 0 0 .161.017.772.772 0 0 0 .475-.165.733.733 0 0 0 .264-.418.763.763 0 0 0 .016-.156v-4.42a.725.725 0 0 0-.171-.467.774.774 0 0 0-.441-.258 37.878 37.878 0 0 1-3.121-.754 29.485 29.485 0 0 1-2.795-.955zm2.944.461c.975.282 2 .531 3.075.743a1.311 1.311 0 0 1 .743.435 1.225 1.225 0 0 1 .293.795v4.42a1.214 1.214 0 0 1-.029.263 1.241 1.241 0 0 1-.448.712 1.3 1.3 0 0 1-.8.28 1.32 1.32 0 0 1-.269-.028 36.397 36.397 0 0 1-3.357-.866 26.9 26.9 0 0 1-2.946-1.1 1.286 1.286 0 0 1-.553-.465 1.222 1.222 0 0 1-.208-.681v-4.289a1.225 1.225 0 0 1 .1-.477 1.249 1.249 0 0 1 .47-.563 1.29 1.29 0 0 1 1.193-.119 28.411 28.411 0 0 0 2.744.938zm-9.746-5.226v4.753a2.072 2.072 0 0 0 .048.486 2.932 2.932 0 0 0 .639 1.281 8.891 8.891 0 0 0 1.34 1.326.725.725 0 0 0 .466.169.775.775 0 0 0 .587-.27.72.72 0 0 0 .173-.474v-3.95a.724.724 0 0 0-.084-.339.751.751 0 0 0-.24-.267 14.644 14.644 0 0 1-2.208-1.819 6.172 6.172 0 0 1-.721-.9zm3.231 2.295a1.279 1.279 0 0 1 .4.449 1.23 1.23 0 0 1 .146.577v3.95a1.218 1.218 0 0 1-.3.8 1.314 1.314 0 0 1-.445.334 1.3 1.3 0 0 1-.545.121 1.253 1.253 0 0 1-.8-.291 9.3 9.3 0 0 1-1.42-1.408 3.884 3.884 0 0 1-.637-1.12 2.5 2.5 0 0 1-.09-.7l-.07-6.46.54.008.035.218a3.608 3.608 0 0 0 1.056 1.76 14.262 14.262 0 0 0 2.133 1.763z" fill="#292424" fill-rule="evenodd"/><path data-name="Path 9920" d="M67.42 28.599a3.825 3.825 0 0 1-1.061-.276 2.592 2.592 0 0 1-.787-.521l-.362.368a3.112 3.112 0 0 0 .944.626 4.326 4.326 0 0 0 1.2.315z" fill="#292424" fill-rule="evenodd"/><path data-name="Rectangle 47" d="M75.552 31.842l7.928-2.759.169.487-7.928 2.758z"/></g><g data-name="Group 5266" fill-rule="evenodd"><g data-name="Group 5262"><path data-name="Path 9921" d="M116.658 66.091c5.512 9.287 9.214 29.383 10.888 42.809.852 6.829 1.031 12.219-4.071 14.77-4.837 2.419-10.267-1.966-12.3-7.116-2.408-6.1-4.662-13.746-8.932-26.747-3.4-10.357-.01-20.808 5.055-24.866 2.934-2.351 6.657-3.405 9.36 1.15z" fill="#d2eefc"/><path data-name="Path 9922" d="M116.658 66.091c5.512 9.287 9.214 29.383 10.888 42.809.852 6.829 1.031 12.219-4.072 14.77-3.4 1.7-7.082.044-9.681-2.874a59.667 59.667 0 0 0 5.873-2.252c1.684-.756 2.744-.829 1.9-4.81-3.766-17.711-7.122-32.878-13.129-49.608 2.712-1.717 5.857-2.017 8.221 1.965z" fill="#c3e6f7"/></g><g data-name="Group 5263"><path data-name="Path 9923" d="M101.12 81.045l-2.929-1.648v59.743l2.929 1.648z" fill="#1a0101"/><path data-name="Path 9924" d="M98.194 79.397L65.377 98.055v59.743l32.817-18.658z" fill="#240101"/><path data-name="Path 9925" d="M98.161 80.368L66.625 98.233l.175 58.406 2.821 1.6 28.539-20.776 2.764-55.512z" fill="#e6e6e6"/><path data-name="Path 9926" d="M101.12 81.045L68.302 99.703v59.744l32.818-18.658z" fill="#380303"/></g><g data-name="Group 5265"><path data-name="Path 9927" d="M84.42 132.479l1.575-3.412-.885-6.128c-2.977-1.793-5.22-2.391-6.484-1.879a3.151 3.151 0 0 0-.32.11c-4.047 2.239.528 13.697 6.114 11.309z" fill="#8f9ba6"/><g data-name="Group 5264"><path data-name="Path 9928" d="M72.367 138.468a28.468 28.468 0 0 1-8.174-2.4c-1.568-.735-2.056-11.815-1.87-11.845 1.973.343 6.316 1.426 8.426 1.691 2.56-.808 10.652-3.616 13.212-4.425l2.423 5.089.11 5.293c-.765-.174-2.719.805-2.926.9-3.677 1.593-6.809 4.445-11.201 5.697z" fill="#e8a476"/><path data-name="Path 9929" d="M70.877 127.064a28.469 28.469 0 0 1-8.174-2.4c-1.568-.736 1.9-1.158 2.853-.991 1.973.343 3.594.784 5.7 1.048 2.561-.807 8.206-2.595 10.7-3.595l2.106.17a132.21 132.21 0 0 1-13.185 5.768z" fill="#f1b287"/><path data-name="Path 9930" d="M68.296 123.6c-.428 3.044 4.222 1.6 5.378 1.06 1.012-.081 8.207-2.111 6.8-2.551-1.225-.453-3.1-1.49-5.617-.816-1.536.411-1.588.987-3.259 1.529a17.313 17.313 0 0 1-3.302.778z" fill="#f1b287"/></g><path data-name="Path 9931" d="M127.144 119.344a7.617 7.617 0 0 1-2.824 3.771c-1.431 1.083-3.537 1.558-5.7 2.557-8.367 3.867-21.653 5.22-34.667 7.015.547-6.985-1.732-10.995-5.659-11.519 10.8-4.387 23.906-6.543 34.717-9.733a22 22 0 0 1 4.082-.793c4.406 1.595 12.173 2.576 10.051 8.702z" fill="#d2eefc"/><path data-name="Path 9932" d="M127.144 119.344a7.617 7.617 0 0 1-2.824 3.771c-1.431 1.083-3.537 1.558-5.7 2.557-8.367 3.867-21.653 5.22-34.667 7.015a22.1 22.1 0 0 0-.035-4.159c11.34-3.968 24.531-4.944 35.747-9.984 1.684-.756 2.744-.829 1.9-4.81l-.385-1.807c3.82 1.228 7.508 2.962 5.964 7.417z" fill="#c3e6f7"/><path data-name="Path 9933" d="M109.749 74.677c2.638 13.238 9.071 26.335 9.5 41.206-12.015 4.139-22.5 6.828-34.844 9.828a7.763 7.763 0 0 0-4.3-4.335l32.63-8.4-3.052-14.169z" fill="#e0f5ff"/></g></g></g></svg>