<svg xmlns="http://www.w3.org/2000/svg" width="108.535" height="338.207" viewBox="0 0 108.535 338.207"><g data-name="Group 10014"><path data-name="Path 9934" d="M79.306 311.634l-42.049-23.948c-4.584-2.095-11.145-3.762-15.816-1.332-4.255 2.215-11.265 6.748-14.365 8.515-2.354 1.343-10.527 6.239-5.437 9.007 14.975 8.143 29.794 17.3 45 25.572 2.875 1.565 7.082 2.13 11.5 1.763a30.443 30.443 0 0 0 12.454-3.709q3.79-2.2 7.456-4.34c3.3-1.921 5.048-4.192 5.221-6.291.168-2.056-1.15-3.956-3.964-5.237z" fill="#231f20" fill-rule="evenodd" opacity=".1" style="mix-blend-mode:multiply;isolation:isolate"/><g data-name="Group 5282"><g data-name="Group 5268" fill-rule="evenodd"><path data-name="Path 9935" d="M25.578 296.49c1.677-.225 2.948-3.488 9.34-2.675 8.2 1.042 16.855-4.057 22.32-.956 2.683 1.523 3.764 4.632 1.5 8.891a11.251 11.251 0 0 1-5.212 5.259 100.31 100.31 0 0 1-10.071 3.964c-1.908.642-4.972.372-7.274 1.324-1.785.739-1.818 1.142-3.166 2.008-2.4 1.543-6.491 3.535-9.614.587-2.45-2.311-3.117-3.094-3.594-6.932-.385-3.1-1.1-6.869 1.031-11.106z" fill="#d2eefc"/><path data-name="Path 9936" d="M56.413 292.46a6.773 6.773 0 0 1 .829.4c2.683 1.523 3.764 4.632 1.5 8.891a11.251 11.251 0 0 1-5.212 5.259 100.31 100.31 0 0 1-10.071 3.964c-1.908.642-4.972.372-7.274 1.324-1.785.739-1.818 1.142-3.166 2.008-2.4 1.543-6.491 3.535-9.614.587-2.063-1.946-2.861-2.808-3.348-5.324 3.7 1.431 7.968.852 13.792-2.7 1.429-.872 3.24-1.044 5.207-1.4a32.08 32.08 0 0 0 11.131-3.705c4.639-2.77 6.324-6.324 6.226-9.304z" fill="#c3e6f7"/><path data-name="Path 9937" d="M57.319 292.904c2.626 1.537 3.666 4.628 1.419 8.846a11.251 11.251 0 0 1-5.212 5.259 100.31 100.31 0 0 1-10.071 3.964c-1.908.642-4.972.372-7.274 1.324-1.785.739-1.818 1.142-3.166 2.008-2.4 1.543-6.491 3.535-9.614.587a38.265 38.265 0 0 1-1.165-1.132c3.691 1.415 7.952.828 13.757-2.71 1.43-.873 3.24-1.045 5.208-1.4a32.043 32.043 0 0 0 11.131-3.705c6.868-4.097 7.269-9.916 4.987-13.041z" fill="#b4dcf0"/><path data-name="Path 9938" d="M39.934 302.615c.3-2.327 1.546-5.946-.092-7.859 8-1.64 13.242-2.837 14.659-2 1.152.677-.266 4-2.57 5.647-2.753 1.969-6.6 2.887-11.997 4.212z" fill="#e0f5ff"/></g><g data-name="Group 5269" fill-rule="evenodd"><path data-name="Path 9939" d="M38.878 303.471c1.678-.225 2.949-3.488 9.341-2.675 8.2 1.042 16.855-4.057 22.32-.956 2.683 1.523 3.764 4.632 1.5 8.891a11.261 11.261 0 0 1-5.212 5.26 100.52 100.52 0 0 1-10.071 3.963c-1.908.642-4.972.372-7.274 1.324-1.786.74-1.819 1.142-3.166 2.008-2.4 1.543-6.491 3.535-9.614.587-2.45-2.311-3.117-3.094-3.594-6.932-.385-3.1-1.1-6.869 1.031-11.106z" fill="#d2eefc"/><path data-name="Path 9940" d="M69.71 299.441a7.224 7.224 0 0 1 .829.4c2.683 1.523 3.764 4.632 1.5 8.891a11.261 11.261 0 0 1-5.212 5.26 100.52 100.52 0 0 1-10.071 3.963c-1.908.642-4.972.372-7.274 1.324-1.786.74-1.819 1.142-3.166 2.008-2.4 1.543-6.491 3.535-9.614.587-2.063-1.946-2.861-2.808-3.348-5.324 3.7 1.431 7.968.852 13.792-2.7 1.429-.872 3.24-1.044 5.207-1.4a32.08 32.08 0 0 0 11.131-3.705c4.639-2.769 6.324-6.324 6.226-9.304z" fill="#c3e6f7"/><path data-name="Path 9941" d="M70.616 299.885c2.626 1.537 3.666 4.628 1.419 8.846a11.261 11.261 0 0 1-5.212 5.26 100.52 100.52 0 0 1-10.071 3.963c-1.908.642-4.972.372-7.274 1.324-1.786.74-1.819 1.142-3.166 2.008-2.4 1.543-6.491 3.535-9.614.587a38.265 38.265 0 0 1-1.165-1.132c3.691 1.415 7.952.829 13.757-2.71 1.43-.873 3.24-1.044 5.208-1.4a32.082 32.082 0 0 0 11.131-3.7c6.868-4.102 7.269-9.916 4.987-13.046z" fill="#b4dcf0"/><path data-name="Path 9942" d="M53.231 309.599c.3-2.327 1.546-5.946-.092-7.859 8-1.64 13.241-2.837 14.659-2 1.152.677-.266 4-2.57 5.647-2.757 1.966-6.601 2.884-11.997 4.212z" fill="#e0f5ff"/></g><g data-name="Group 5281"><g data-name="Group 5270" fill-rule="evenodd"><path data-name="Path 9943" d="M47.11 154.696c-1.542-13.524-6.72-14.295-11.444-25.549l-11.78 1.61c-6.83 13.095-11.706 34.8-5.784 48.423 1.562 14.551 5.287 29.636 3.8 44.175-1.871 18.314-5.562 23.247-5.674 33.783-.1 9.176 3.647 23.717 5.009 33.766a49.92 49.92 0 0 1 .535 7.795 66.937 66.937 0 0 0 12.422 5.428 64.533 64.533 0 0 1-.1-16.279c.695-5.93 1.916-14.921 3.195-23.428 1.483-9.848 1.238-26.019 1.59-31.042.447-6.381 1.723-5.29 2.468-8.935.705-3.453 1.789-7.521 2.4-9.953 5.506-21.939 5.504-41.05 3.363-59.794z" fill="#ad7c5b"/><path data-name="Path 9944" d="M20.436 301.479c-1.363-10.05-4.3-35.165-4.205-44.341.112-10.536 3.267-15.469 5.137-33.784 1.487-14.538-2.419-29.981-3.98-44.532l.026-3.472c-4.912-14.466.662-33.676 6.472-44.593l11.78-1.61c4.724 11.254 9.9 12.025 11.445 25.549 2.14 18.744 2.142 37.855-3.363 59.794-.609 2.432-1.693 6.5-2.4 9.953-.745 3.645-2.021 2.554-2.468 8.935-.352 5.023-.109 21.194-1.59 31.042-1.279 8.507-1.821 32.143-1.946 38.111-.282 6.63-10.617 3.956-14.908-1.052z" fill="#16242e"/><path data-name="Path 9945" d="M17.584 180.558c-.069-.58-.493-4.732-.555-5.31-6.457-14.52.741-33 6.857-44.491l11.78-1.61c4.724 11.254 9.9 12.025 11.445 25.549 2.14 18.744 4.108 36.962-1.4 58.9-1.792 7.145-5.079 17.881-6.122 25.119-1.015 7.05-1.175 18.233-2.3 25.7-1.279 8.507-1.821 32.143-1.946 38.111-.176 4.131-4.254 4.65-8.341 3.243-.131-19.928-1.2-47.136-.075-58.977 1-10.6 2.744-11.239 4.645-21.685 2.6-14.29 4.04-20.021 4.165-35.028-3.837-.996-12.659-5.248-18.153-9.521z" fill="#0b141a"/><path data-name="Path 9947" d="M19.058 184.031c5.025 4.878 8.646 6.391 14.293 7.236-1.624 13.683-1.5 24.137-4.295 35.077-7.546 29.488-5.733 43.238-3.923 75.828l-3.217-1.965c-4.2-35.756-4.228-47.185 1.3-73.285 2.912-13.757-.503-23.219-4.158-42.891z" fill="#263745"/></g><g data-name="Group 5272"><path data-name="Path 9949" d="M57.958 234.289c-.82-14.669-7.308-29.657-11.818-43.593-19.424-11.789-16.455-31.067-8.273-44.447l20.658-6.92c6.393 10.186 11.762 9.887 15.392 22.95 5.031 18.1 8.093 36.436 6.131 59.219-.217 2.526-.643 6.763-.793 10.315-3.12 17.216-20.292 13.663-21.297 2.476z" fill="#16242e" fill-rule="evenodd"/><path data-name="Path 9950" d="M32.233 304.115c2.017-9.889 8.305-41.146 11.432-49.787 3.444-9.52 10.018-13.654 14.062-24.125q.469-.99.959-2.04c3.57-7.143 20.636-6.739 20.694.677.052 6.644-1.838 9.763-6.256 16.774-2 4.644-7.791 18.38-11.932 27.516a236.039 236.039 0 0 0-11.778 33.294c-3.436 6.991-16.236 4.217-17.181-2.309z" fill="#16242e" fill-rule="evenodd"/><path data-name="Path 9951" d="M44.838 189.87c-17.978-11.851-14.965-30.55-6.971-43.621l20.658-6.92c6.393 10.186 11.762 9.887 15.392 22.95 5.031 18.1 8.093 36.436 6.131 59.219-.173 2.012-.478 5.113-.671 8.086a25.792 25.792 0 0 1-.12 2.158v.071l-.01.048c-.5 4.753-2.43 7.894-6.121 13.754-2 4.644-7.791 18.38-11.932 27.516a236.039 236.039 0 0 0-11.778 33.294c-1.8 3.662-6.167 4.644-10.055 3.814 3.786-19.758 8.654-37.27 16.332-54.13 3.247-7.127 6.358-11.268 10.942-19.19 2.812-4.859 2.721-3.925 2.382-9.563-.78-12.923-2.239-21.911-4.563-35.714-7.582.914-12.329.662-19.616-1.772z" fill="#0b141a" fill-rule="evenodd"/><path data-name="Path 9952" d="M62.889 193.784c-5.112 1.805-11.063.6-14.866-.714 4.445 12.544 8.538 23.373 11.7 37.591-1.213 5.786-9.41 13.826-12.068 19.486-6.366 13.555-7.447 24.564-14.137 53.148 1.013 2.533 1.917 2.643 4.018 3.7 6.864-25.465 8.766-37.219 16.246-52.489a130.928 130.928 0 0 1 13.621-22.6c-1.492-12.765-2.768-25.382-4.514-38.122z" fill="#263745" fill-rule="evenodd"/></g><g data-name="Group 5273" fill-rule="evenodd"><path data-name="Path 9953" d="M20.531 55.537c6.849.771 8.944 18.318 13.835 37.257l18.838 37.21c1.584 4.455-5.735 10.353-10 7.767l-20.526-36.717c-2.646-7.633-5.569-16.244-7.858-24.014a39.4 39.4 0 0 1-1.852-13.6c.302-4.508 2.685-8.455 7.563-7.903z" fill="#001e30"/><path data-name="Path 9954" d="M21.224 55.677c6.3 1.848 8.42 18.833 13.142 37.117l18.838 37.21c1.42 3.992-4.311 9.143-8.584 8.307-2.1-14.762-8.768-22.95-16.876-36.109-6.852-16.363-5.881-29.855-6.52-46.525z" fill="#001624"/></g><path data-name="Path 9955" d="M23.002 132.129c-6.289 10-10.17 30.675-8.41 42.31 5.377 6 39.576 26.041 60.457 3.023a53.449 53.449 0 0 1-.038-.692c-.609-7.723-.061-21.587-2.755-29.073-2.173-6.032-5.16-9.894-7.134-16.036.016-.021.03-.042.044-.063a47.724 47.724 0 0 1-1.87-11.978c-.054-6.056 3.178-11.755 3.69-17.749 5.866-8.58 7.528-15.5 5.736-19.578-5.133-11.7-37.359-26.054-49.824-27.463-14.059-1.591-14.055 22.643-8.127 33.03 5.835 10.227 9.7 19.511 10.265 30.61.333 6.486.217 7.96-2.034 13.659z" fill="#1c2933" fill-rule="evenodd"/><path data-name="Path 9956" d="M59.109 187.184c5.674-1.441 14.55-6.057 19.333-11.329-2.237-8.628-3.458-20.577-6.186-28.158-2.173-6.032-5.16-9.894-7.134-16.036.016-.021.03-.042.044-.063a47.724 47.724 0 0 1-1.87-11.978c-.054-6.056 3.178-11.755 3.69-17.749 5.866-8.58 7.528-15.5 5.736-19.578-5.133-11.7-37.359-26.054-49.824-27.463a8.85 8.85 0 0 0-6.407 1.518c10.076-.972 28.373 9.451 40.819 16.833-13.082 19.336-6.326 44.618-1.93 65.8 3.678 17.734 5.867 30.967 3.729 48.203z" fill="#111c24" fill-rule="evenodd"/><path data-name="Path 9957" d="M68.978 139.761c-1.052-2.386-2.1-4.768-3.009-7.2-.068-.184-10.912-1.864-12.335-1.86.591 2.813 1.19 5.581 1.751 8.282q.488 2.343.935 4.59c4.042.842 13.849-1.019 12.658-3.812z" fill="#001624" fill-rule="evenodd"/><path data-name="Path 9958" d="M26.978 58.585l13 7.64 10.028-.267 1.342 5.932s-6.662 4.834-7.541 4.993-20.01-.2-20.01-.2l-4.22-12.313 4.322-5.228z" fill="#1c2933" fill-rule="evenodd"/><path data-name="Path 9959" d="M29.878 55.334c.477 4.324 13.147 6.988 20.186 4.988l.158-.846c1.052.578 4.042 4.6 4.368 6.668-6.2 5.971-25.593 3.184-27.971-3.811-.566-1.674 1.781-4.8 3.259-6.999z" fill="#e4ebf0" fill-rule="evenodd"/><path data-name="Path 9960" d="M23.514 63.83c5.445 5.894 13.13 7.239 21.946 8.374 10.466 1.35 4.694 5.471 2.671 13.142-3.543 13.44-2.815 25.774-.425 38.125 5.136 26.542 7.022 31.9 7.8 60.516a47.693 47.693 0 0 1-39.666-11.793c2.128-30.133 12.136-42.918 11.357-52.349-1.884-22.85-14.335-31.017-13.164-50.287.514-8.443 3.805-11.868 9.481-5.728z" fill="#2a3c4a" fill-rule="evenodd"/><g data-name="Group 5277" fill-rule="evenodd"><g data-name="Group 5274"><path data-name="Path 9961" d="M73.199 84.54c.818 8.667-2.48 30.211-5.779 44.784-.976 5.381-17.329 7.7-15.293-3.722s4.419-39.767 6.95-43.978a9.066 9.066 0 0 1 8.267-4.111c3.813.363 5.526 3.554 5.855 7.027z" fill="#1c2933"/><path data-name="Path 9962" d="M52.127 125.602c2.04-11.43 4.419-39.767 6.95-43.978a9.044 9.044 0 0 1 6.453-4.071c1.018 3.155-2.652 32.009-5.952 39.871-2.835 1.391-5.466 4.65-7.451 8.178z" fill="#2a3c4a"/><path data-name="Path 9963" d="M73.199 84.54c.551 5.839-.767 17.525-2.693 28.982-.04.283-3.973 1.672-6.478 2.766 5.036-17.732 6.216-36.177 3.316-38.775 3.813.363 5.526 3.554 5.855 7.027z" fill="#111c24"/></g><g data-name="Group 5276"><path data-name="Path 9964" d="M96.546 99.865c.029-1.375.368-4.621.927-5.456.761-1.138 2.673-1.484 7.534-.248 1.471 1.215-2.183 5.4-2.8 6.29z" fill="#9e6d4c"/><g data-name="Group 5275"><path data-name="Path 9965" d="M103.271 69.349l-2.656-1.5v54.21l2.656 1.5z" fill="#240101"/><path data-name="Path 9966" d="M100.615 67.854L70.837 84.785v54.211l29.778-16.931z" fill="#240101"/><path data-name="Path 9967" d="M100.585 68.735L71.97 84.946l.159 53 2.56 1.448 25.9-18.851 2.507-50.372z" fill="#e6e6e6"/><path data-name="Path 9968" d="M103.271 69.349L73.493 86.28v54.211l29.778-16.931z" fill="#380303"/></g><path data-name="Path 9969" d="M93.798 115.168a12.7 12.7 0 0 1 4.494-1.178c1.861-.3 2.727.112 4.232-.991 3.1-2.269 5.624-3.992 5.835-5.6a17.584 17.584 0 0 0-3.162-13.04c-.379-.506-2.7 2.962-4.538 3.673-1.656.64-3.523.532-5.126 1.349-1.844.941-2.86 3.4-5.476 5.642z" fill="#9e6d4c"/><path data-name="Path 9970" d="M105.004 94.159c-1.165 1.473-2.338 3.1-4.345 3.877-1.656.64-3.523.532-5.126 1.349-1.844.941-2.86 3.4-5.476 5.642l1.158 2.73.355-.383c2.643-2.163 3.352-3.078 4.708-3.6 3.2-1.236 4.13-.7 5.794-1.793a16.266 16.266 0 0 0 4.386-4.645 9.957 9.957 0 0 0-1.454-3.177z" fill="#ad7c5b"/><path data-name="Path 9971" d="M58.495 119.215l30.6-15.583c5.075-1.428 8.813 8.741 5.929 12.706l-28.456 18.11c-14.733 7.787-19.69-10.712-8.073-15.233z" fill="#1c2933"/><path data-name="Path 9972" d="M58.495 119.215l30.6-15.583c1.833-.515 3.492.482 4.726 2.154-8.588 6.757-29.106 17.9-38.425 22.481-.346-3.783 1.629-6.927 3.099-9.052z" fill="#2a3c4a"/><path data-name="Path 9973" d="M95.062 108.1c1.159 2.834 1.357 6.287-.033 8.238l-28.456 18.11c-7.094 3.747-11.924 1.406-13.728-2.537 6.647 2.914 36.289-17.011 42.217-23.811z" fill="#111c24"/></g></g><g data-name="Group 5280" fill-rule="evenodd"><g data-name="Group 5278"><path data-name="Path 9974" d="M29.067 58.924c-1.479 6.23 13.411 12.526 19.248 7.168 1.076-7.348 2.078-13.829 5.524-20.83l-16.336-6.264-4.237-1.977c1.329 9.372-.22 13.88-4.199 21.903z" fill="#9e6d4c"/><path data-name="Path 9975" d="M61.578 50.164c-.559.814-6.423-.254-8.9 0-1.1 4.345-2.63 8.747-4.218 14.933-1.126-6.55-1.862-11.922-15.313-16.582a9.606 9.606 0 0 0-.915-4.243c-1.941-3.137-5.93-6.635-7.342-11.392 1.971-4.724 14.3-3.721 25.989 4.307 4.12 2.828 6.637 9.468 10.699 12.977z" fill="#8f6142"/></g><path data-name="Path 9976" d="M61.934 50.324c-1 .452-5.887-.84-9.05-1.433-.975-.184-1.367-1.787-1.722-2.422-.154-.276-1.5-7.874-1.581-7.874-7.674.077-15.917 7.994-17.35 5.677-1.941-3.137-5.93-6.635-7.342-11.392-2.258-7.6-1.437-16.051 5.653-21.679 8.321-6.609 19.691-5.274 26.715.064 3.384 2.571 5.6 8.51 7.039 12.181 1.406 2.257-2.021 2.995-1.473 7.04.066.487 1.42 2.353 1.863 3.479 1.043 2.644-1.245 4.592-1.287 8.7-.034 3.55.495 6.769-1.465 7.659z" fill="#ad7c5b"/><path data-name="Path 9977" d="M61.665 50.393c-1.415.206-5.839-.952-8.781-1.5-.975-.184-1.367-1.787-1.722-2.422-.154-.276-1.5-7.874-1.581-7.874-7.674.077-15.917 7.994-17.35 5.677-1.941-3.137-5.93-6.635-7.342-11.392-2.258-7.6-1.437-16.051 5.653-21.679 8.321-6.609 19.691-5.274 26.715.064a16.831 16.831 0 0 1 4.874 6.5l1.406 3.912c.355 1.368-.068 2.826-1.24 5.135-2.2 4.332-5.052 5.892-1.171 7.591 1.807.792 1.405 1.95.034 2.984-1.418 1.071-.167 1.977-.646 5.956-.216 1.789-3.151 4.114-2.285 5.185a8.286 8.286 0 0 0 3.436 1.863z" fill="#9e6d4c"/><g data-name="Group 5279"><path data-name="Path 9978" d="M53.037 39.901c.7-1.924.11-2.624-.736-2.416-.93.228-2.25 1.565-2.936 3.557-1.109 3.213.48 7.274 3.583 5.689.865-1.083-.189-3.827.089-6.83z" fill="#9e6d4c"/><path data-name="Path 9979" d="M53.037 39.901c.7-1.924.11-2.624-.736-2.416-.93.228-2.25 1.565-2.936 3.557-1.109 3.213.48 7.274 3.583 5.689-2.669.154-2.419-3.066-1.619-5.051.542-1.347 1.386-2.303 1.708-1.779z" fill="#ad7c5b"/><path data-name="Path 9980" d="M51.81 40.771c.747 1.39 1.006 2.216.765 2.694-.167.332-.681.711-1.523-.1a4.79 4.79 0 0 1 .758-2.594z" fill="#8f6142"/></g><path data-name="Path 9981" d="M22.498 7.315c-2.785.169-2.421 2.774-3.274 3.39-.832.6-3.886.988-4.166 3.465a1.786 1.786 0 0 1-.586 1.222c-1.07.974-1.947 1.145-2.529 2.553-.677 1.642-.038 2.408-.217 3.071-.225.842-1.345 1.519-1.573 2.446-.489 2 .5 3.177.235 3.748-.466 1-1.829 1.821-2.24 3.224-.527 1.8.963 2.243 1.286 3.621a1.921 1.921 0 0 1 .037.59 4.027 4.027 0 0 0-.978 1.477c-.49 2 1.065 3.285.8 3.855-.465 1-1.458 1.91-1.234 3.093.348 1.846 1.4 2 1.727 3.38.168.718-.478.918-.273 1.622a9.938 9.938 0 0 0 .747 1.432c.282.815-.541 1.141-.66 1.673-.493 2.2.819 2.573 1.006 3.608.2 1.126-.388 1.5.068 3.4.506 2.125 1.019 1.295 1.69 2.606.66 1.288-.427 1.93.591 3.066 1.187 1.322 1.509.468 2.379 1.2.668.558.535 1.325 1.272 1.932 1.589 1.306 2.742.263 3.14.749.7.853 1.06 2.157 2.223 2.469 1.815.485 1.136-.619 3.13.139.691.262 1.714 1.27 2.438 1.39.9.148 1.452-.392 2.08-.925a8.123 8.123 0 0 1 1.619-.457c.521.034.55.584 1.808.726.808.09.872-.466 1.337-.669.074-.019.142-.038.207-.061a1.257 1.257 0 0 1 .328 0c.361.039.417.182.9.518a2.634 2.634 0 0 0 2.29.4c.948-.328 1.577-1.356 2.288-1.976a.81.81 0 0 0 .406.059c1.759-.159 1.976.626 3.7.3.6-.112 1.035-.939 1.513-1.659.775.483 1.575 1.245 2.224 1.145 2.2-.335 2.115-1.7 3.4-1.532a7.2 7.2 0 0 0 2.7.665 2.4 2.4 0 0 0 1.828-1.182c.292-.474.286-.622.586-.789.841-.47 1.818.027 2.672-.453.723-.406.452-1.634 1.572-2.078 1.073-.424 2.658-1.782 1.755-2.946-.268-.349-.743-.506-.606-.957a2.579 2.579 0 0 0-.3-2.5c-.857-1.028-2.046-1.555-1.29-2.579a2.618 2.618 0 0 0 .329-3.234 4.86 4.86 0 0 0-1.261-1.2c-.631-.442-.955-1.029.057-2.567.506-.768.178-1.268.231-2.149.2-3.233-2.457-2.38-2.093-4.3.15-.8 1.473-1.5 1.536-2.382.054-.787-.781-1.337-.8-2.126-.057-2.011 1.74-.9 1.065-3.192-.155-.529-1.355-.7-1.361-1.663-.006-1.537 1.786-1.2 1.742-2.932-.022-.9-1.744-1.409-1.437-2.455.279-.95 1.513-.965 1.655-1.468.607-2.157-1.014-1.173-.574-3.2.191-.891 1.128-1.912 1.027-2.51-.189-1.137-1.285-.97-1.323-2.108-.055-1.747.918-1.128 1.452-3.67.361-1.713-1.776-2.226-1.542-4.175a3.316 3.316 0 0 0 .3-1.658 2.708 2.708 0 0 0-2.227-2.342c-1.116-.159-1.11-2-1.78-2.433-.531-.342-1.336-.374-2.956.057-.5-.181-.384-1.02-1.632-1.583s-1.59.191-2.455-.02-1-.633-1.413-.906a2.655 2.655 0 0 0-2.518-.013c-1.762.861-1.7.144-2.793-.3-2.457-.991-3.712 1.153-5.4 1.671-1.458.447-2-.967-4.389 1.2-1.8 1.639-3.8-.235-5.148 2.3-.727 1.367-1.147 1.184-1.53 1.425-.484.287-.864.342-2.818.462z" fill="#1a0e0e"/><path data-name="Path 9982" d="M9.137 28.794a4.431 4.431 0 0 0-.989 1.637c-.527 1.8.963 2.243 1.286 3.621a1.921 1.921 0 0 1 .037.59 4.027 4.027 0 0 0-.978 1.477c-.49 2 1.065 3.285.8 3.853-.465 1-1.458 1.912-1.234 3.095.348 1.846 1.4 2 1.727 3.38.168.718-.478.918-.273 1.622a9.938 9.938 0 0 0 .747 1.432c.284.815-.541 1.141-.66 1.673-.493 2.2.819 2.573 1.006 3.608.2 1.126-.388 1.5.068 3.4.506 2.125 1.019 1.295 1.69 2.606.66 1.288-.427 1.93.591 3.066 1.187 1.322 1.509.468 2.379 1.2.668.558.535 1.325 1.272 1.932 1.589 1.306 2.742.263 3.14.749.7.853 1.06 2.157 2.223 2.469 1.815.485 1.136-.619 3.13.139.691.262 1.714 1.27 2.438 1.39.9.148 1.452-.392 2.08-.925a8.123 8.123 0 0 1 1.619-.457c.521.034.55.584 1.808.726.808.09.872-.466 1.337-.669.074-.019.142-.038.207-.061a1.257 1.257 0 0 1 .328 0c.361.039.417.182.9.518a2.634 2.634 0 0 0 2.29.4c.948-.328 1.577-1.356 2.288-1.976a.813.813 0 0 0 .406.059c1.759-.159 1.976.626 3.7.3.6-.112 1.035-.939 1.513-1.659.775.483 1.575 1.245 2.224 1.145 2.2-.335 2.115-1.7 3.4-1.532a7.2 7.2 0 0 0 2.7.665 2.4 2.4 0 0 0 1.828-1.182c.292-.474.286-.622.586-.789.841-.47 1.818.027 2.672-.453.723-.406.452-1.634 1.572-2.078 1.073-.424 2.658-1.782 1.755-2.946-.268-.349-.743-.506-.606-.957a2.576 2.576 0 0 0-.3-2.5c-.857-1.029-2.046-1.556-1.29-2.58a2.618 2.618 0 0 0 .329-3.234 4.86 4.86 0 0 0-1.261-1.2c-.51-.357-.819-.809-.385-1.784-1.081-.271-1.869-1.415-2.821-1.539-.794-.1-.968.915-1.636 1.446-1.3 1.032-3.219-.358-4.317-.336s-2.54 2.156-3.49 2.306c-1.8.281-2.77-1.881-3.69-1.76-1.619.213-2 1.691-3.608 1.79-1.255.076-1.966-2.4-3.394-2.3-1.329.093-1.949 1.012-2.43.935-2.259-.364-1.926-2.017-2.827-2.349-1.982-.731-2.695.4-3.524.275-2.369-.364-1.257-2-3.41-2.644-2.051-.615-3.727 1.251-4.254-.825-.975-3.847-3.923-.8-4.588-3.058-.449-1.532.016-3.765-1.579-3.835-2.519-.114-.66-1.813-1.607-3.115-1.123-1.539-2.715 0-3.013-3.5z"/><path data-name="Path 9983" d="M58.296 7.331c-1.337-1.285-2.341-.607-3.147-1.173-1.047-.736-.262-1.014-1.213-1.767-.531-.417-1.358-.161-2.233-.284a6.438 6.438 0 0 1-2.274-.834c-.821-.569-1.287-.84-2.623-1.721-2.36-1.557-2.708 1.268-4.489.706-2.179-.686-2.563 1.115-4 1.424-1.249.269-2.128-.341-3.548-.184a3.881 3.881 0 0 0-2.434 1.214c-.705.911-1.76.2-3.074.413-2.3.379-2.41 2.126-3.207 2.866-.865.806-2.038.078-3.443 1.538-.33.343-1.584 1.687-1.573 2.771a1.852 1.852 0 0 1-.446 1.327c-.972 1.136-1.854 1.42-2.271 2.941-.487 1.768.267 2.473.167 3.177-.123.878-1.492 1.1-1.177 2.588.3 1.435.519.891 1.418 1.528 1.217.863.934 2.208 1.276 3.662.5 2.144 3.139-.144 3.848 3.5.385 1.968 2.319-.089 4.2.591 1.978.715.793 3.267 2.984 3.731.769.161 1.553-1.945 3.367-1.158.824.358.325 2.212 2.414 2.671.445.1 1.175-1.058 2.421-1.075 1.336-.018 1.928 2.831 3.1 2.825 1.508-.008 1.885-1.873 3.407-1.987.866-.064 1.531 2.749 3.228 2.58.9-.089 2.478-2.752 3.5-2.716s2.748 1.435 4.013.54c.757-.534 1.907-1.928.01-3.4-1.44-1.116-.361-1.318.113-1.86.381-.436 1.027-.528 1.337-1.918.316-1.42-.491-2.239-.467-3.458.019-.976 1.031-1.572.969-2.279-.051-.61-.415-1.782-.383-2.269.087-1.354 1.68-1.6.777-2.861-.8-1.126-1.67-1.226-1.774-2.65-.068-.931 1.907-2.194 2.044-3.136.284-1.961-1.708-2.36-1.845-3.046-.19-.989 1.293-1.652 1.028-2.817z" fill="#241414"/></g></g></g></g></svg>