<svg xmlns="http://www.w3.org/2000/svg" width="176.751" height="300.628" viewBox="0 0 176.751 300.628"><g data-name="Group 10015"><g data-name="Group 5171"><g data-name="Group 5149" fill-rule="evenodd"><path data-name="Path 9426" d="M19.755 69.39l1.148-1.49 2.738-2.573c-.144-2.1-.628-3.425-1.322-3.876-.056-.035-.189-.149-.246-.176-2.52-1.232-5.565 7.512-2.318 8.115z" fill="#a6cde0"/><path data-name="Path 9427" d="M24.18 62.352c-3.443-1.314-4.313-1.367-7.771-.75l-2.419 7.106 2.172 2.117c2.4-2.2 3.454-2.168 6.672-.869l3.073-.6 1.138-3.72z" fill="#8f6142"/><g data-name="Group 5148"><path data-name="Path 9428" d="M41.145 80.564c-8.906-3.675-12.966-6.892-21.576-11.229 3.219-2.565 3.554-6.956 2.3-8.147 7.762 2.9 17.523 5.871 24.59 10.371z" fill="#2a3c4a"/><path data-name="Path 9429" d="M41.145 80.564c-8.906-3.675-12.966-6.892-21.576-11.229a8.008 8.008 0 0 0 2.611-3.779 161 161 0 0 0 15.7 6.849c1.128.322 7.424-.034 8.591-.984z" fill="#111c24"/></g><path data-name="Path 9430" d="M13.831 73.313a12.779 12.779 0 0 1-1.995 2.542 4.534 4.534 0 0 1-.842 2.9c-.407 2.121-.929 3.45-2.586 3.419a25.115 25.115 0 0 0 .453-3.356 22.49 22.49 0 0 0 .746-2.826l1.175-2.969a4.792 4.792 0 0 1-1.666 1.458 11.25 11.25 0 0 1-1.855 2.529c-1.178 2.2-1.556 4.15-3.594 2.579l1.2-2.68a15.683 15.683 0 0 1 1.506-2.51 15.956 15.956 0 0 1 1.4-2.285c.658-.662 1.7-2.258 2.29-2.832a20.566 20.566 0 0 1-2.883.888 13.625 13.625 0 0 1-2.652 3.078c-1.4 1.679-2.648 3.675-4.227 1.867a51.01 51.01 0 0 0 2.426-3.319 23.294 23.294 0 0 0 1.9-2.455c.714-.995.479-1.075 1.72-1.889 1.056-.7 2.088-1.4 3.135-2.124a5.164 5.164 0 0 0-2.1-.188 5.347 5.347 0 0 1-2.357 1c-1.7 1.846-2.658 3.061-5.027 1.725a10.238 10.238 0 0 0 2.808-2.96 89.146 89.146 0 0 0 3.619-2.534l1.6-.407c1-.051 1.954-.118 2.926-.207a4.992 4.992 0 0 0 2.135-.593c1.057-.514 1.746-.195 2.924-.047 1.036-1.053 1.64-1.4 2.047-2.264a5.613 5.613 0 0 0 .39-1.276l.428-1.02 1.65-3.146a1.371 1.371 0 0 1 1.158.719c.559.945.36 2.53-.028 3.8a2.094 2.094 0 0 1-.6 1.148 19.934 19.934 0 0 1-1.375 2.908c-.378.806.232 2.361-.226 4.007-.474 1.7-1.066 1.668-1.175 2.489-.295 2.211-.611 2.282-2.9 3.5a3.351 3.351 0 0 0-1.548 1.331z" fill="#ad7c5b"/><path data-name="Path 9431" d="M10.778 73.029c.67-1.055 1.183-1.567.95-2.725a13.619 13.619 0 0 1-3.166 3.08c-1 2.336-.151 1.5-2.4 3.126-.379 1.7-.717 2.608-2.136 3.327 1.73 1.077 2.131-.77 3.236-2.83a11.25 11.25 0 0 0 1.855-2.529 4.792 4.792 0 0 0 1.666-1.458v.009zm-.74-3.741a20.2 20.2 0 0 1-2.86.879 13.625 13.625 0 0 1-2.652 3.078c-1.271 1.525-2.419 3.313-3.8 2.269a6.3 6.3 0 0 0 2.45-2.835c1.76-1.074 2.056-1.9 3.226-3.546a7.687 7.687 0 0 0 4.631-1.759 2.125 2.125 0 0 1-.942 1.868l-.051.046zm.524-5.107c-1.295-.092-2.637-.049-3.446-.543-1.474 1.115-1.872.567-3.154 1.9a7.392 7.392 0 0 1-3.933 2.344c2.347 1.31 3.3.1 5-1.74a5.347 5.347 0 0 0 2.357-1 5.156 5.156 0 0 1 2.089.185c.634-.2 1.149-.569 1.087-1.146z" fill="#9e6d4c"/><path data-name="Path 9432" d="M13.831 73.313a12.779 12.779 0 0 1-1.995 2.542 4.534 4.534 0 0 1-.842 2.9c-.369 1.927-.834 3.2-2.157 3.393 1.194-1.266 1.062-1.708 1.45-3.567a5.152 5.152 0 0 0 .757-3.171c1.8-1.367 1.861-2.416 2.784-3.274a12.324 12.324 0 0 1 2.825-1.761 2.337 2.337 0 0 0-3.191-3.263 3.73 3.73 0 0 1 3.551-.223c2.393-.965 1.154-2.95 1.853-5.064a20.251 20.251 0 0 1 1.019-2.089l-.191-.906c1.514-1.014 1.255-3.552 1.04-5.4a1.436 1.436 0 0 1 .946.7c.559.945.36 2.53-.028 3.8a2.094 2.094 0 0 1-.6 1.148 19.934 19.934 0 0 1-1.375 2.908c-.378.806.232 2.361-.226 4.007a5.133 5.133 0 0 1-.475 1.192l-.039.064-.006.012-.035.057-.012.017-.034.053v.007l-.037.056c-.021.033-.045.064-.066.1l-.037.052v.005l-.019.025-.013.019-.022.031-.027.035-.025.036-.006.008-.013.017-.015.023v.006c-.037.052-.071.1-.1.156v.007a1.354 1.354 0 0 0-.155.41c-.005.031-.011.064-.015.1-.038.283-.076.532-.119.751v.015l-.01.05-.006.031-.007.032-.007.033-.007.028-.007.034-.009.039v.009l-.012.05v.017l-.013.046v.007c-.01.037-.019.074-.031.11v.006l-.014.049-.017.053a2.564 2.564 0 0 1-.1.25c-.014.03-.027.059-.043.087v.009l-.018.036v.008l-.019.033-.007.012-.02.033-.023.034-.006.01-.023.035c-.019.026-.036.052-.056.078l-.029.038-.093.107-.013.014-.023.023-.007.007-.027.027-.009.009-.03.029-.031.028-.012.011-.026.023-.012.01-.029.024-.011.009-.031.026-.009.007-.034.026-.007.007-.029.021-.019.013-.135.1h-.009l-.04.028-.017.01-.032.019-.02.015-.036.023h-.011l-.038.025-.022.012-.036.022-.016.01-.043.026-.012.007-.044.026-.021.012-.039.024-.015.009-.039.021-.036.02-.059.033c-.3.17-.666.359-1.1.588a3.351 3.351 0 0 0-1.594 1.358z" fill="#9e6d4c"/></g><g data-name="Group 5151" fill-rule="evenodd"><path data-name="Path 9433" d="M59.721 111.305c1.925 6.018.077 16.009-1.54 26.451-.889 5.742-2.321 11.663-3.012 16.726-.111.809-.213 1.576-.308 2.306a50.424 50.424 0 0 0-.622 9.757c.518 6.616 3.3 8.013 4.344 16.635 1.264 10.462-4.237 22.456-3.827 33.986a7.244 7.244 0 0 0 1.379 2.831c4.62 5.68-.141 4.93.3 12.43.039.661-2.513 12.106-2.513 12.106s-6.856 1.907-7.374 1.834-4.772-1.555-4.772-1.555c.334-.625.753-2.14 1.023-2.714 3.089-6.551 3.5-14.578 3.507-21.971.007-10.111-2.782-33.922-5.386-43.642a126.407 126.407 0 0 1-2.083-17.185c-1.067-16.8-1.609-28.917.47-46.7z" fill="#ad7c5b"/><path data-name="Path 9434" d="M76.018 144.199c-1.664 16.3-4.284 22.674-3.6 29.4.45 4.436 4.4 10.873 5.238 15.121 1.854 9.44-2.277 24.762-3.687 38.316-.14 1.347.481 2.708.639 4.051a47.039 47.039 0 0 1 .44 7.168 63.742 63.742 0 0 1-1.6 12.887c-.411 1.792-1.21 2.561-1.748 5.017l-10.57 1.725c1.039-4 2.569-12.083 3.552-18.876.533-3.685 1.336-6.988 1.382-9.055.286-13.086-2.344-18.1-3.974-31.73-.672-5.632.243-8.781-1.855-13.212a67.188 67.188 0 0 1-2.687-6.937 28.37 28.37 0 0 1-1.354-9.6c.232-5.293.881-13.094 2.346-23.627l17.258-2.157z" fill="#ad7c5b"/><path data-name="Path 9435" d="M74.51 230.381c.611 2.122 1.309 3.254 1.4 6.149s-1.244 7.419-1.133 11l.178 5.688c.1 3.312-.739 5.612-4.5 8.35-3.41 2.482-6.734 3.5-8.542 2.618-1.331-.65-2.393-2.994-.353-9.181 1.7-5.154 2.137-10.189 3.135-15.78a56.177 56.177 0 0 1-1.809 12.713c-.37 1.5-.589 4.021 1.2 4.277 7.385 1.055 7.758-.93 8.366-3.21 1.621-6.084 2.813-16.916 2.058-22.624z" fill="#2a3c4a"/><path data-name="Path 9436" d="M43.707 240.011c-.737 1.353-1.533 3.294-2.21 4.758a29.821 29.821 0 0 0-1.731 4.608 2.166 2.166 0 0 0 .157 1.852c1.656 2.222 9.951-1.831 12.733-4.287 1.8-1.586 1.831-3.463 2.253-5.752.634-3.44.741-3.826 1.566-7.361l.933 9.593 1.119.513a110.428 110.428 0 0 1 .858-12.45c.24-1.331.651-2.848.709-3.586a7.609 7.609 0 0 0-3.783-7.7c.726 2.641-1.189 6.937-2.061 12.347-.91 5.659-4.046 11.849-6.509 12.372-1.038.222-3.334-1.074-4.582-1.786-.474-.272.065-1.894.548-3.121z" fill="#2a3c4a"/><path data-name="Path 9437" d="M42.261 251.837c3.166-.336 8.318-3.062 10.4-4.9 1.8-1.586 1.831-3.463 2.253-5.752.634-3.44.741-3.826 1.566-7.361l.933 9.593 1.119.513a110.428 110.428 0 0 1 .858-12.45c.24-1.331.651-2.848.709-3.586a7.609 7.609 0 0 0-3.783-7.7c.726 2.641-1.189 6.937-2.061 12.347-.749 4.658-3.006 9.673-5.153 11.6a38.857 38.857 0 0 1-6.841 7.696z" fill="#111c24"/><path data-name="Path 9438" d="M74.51 230.381c.611 2.122 1.309 3.254 1.4 6.149s-1.244 7.419-1.133 11l.178 5.688c.1 3.312-.739 5.612-4.5 8.35-2.623 1.91-5.195 2.951-7.065 2.93 1.986-1.659 3.414-4.479 4.461-8 3.781-.072 4.115-1.693 4.6-3.5 1.622-6.077 2.814-16.909 2.059-22.617z" fill="#111c24"/><g data-name="Group 5150"><path data-name="Path 9439" d="M58.036 108.913c1.659 6.357 6.982 6.554 4.717 17.143-2.26 10.556-8.683 30.9-7.92 40.651.517 6.616 2.708 7.853 3.75 16.473 1.264 10.462-1.433 25.584-1.022 37.113.336 1.724-3.858 9.705-12.007 7.17-1.289-10.112-3.107-44.251-5.819-55.051-2-5.978-1.438-8.887-1.913-14.846a303.882 303.882 0 0 1 .173-45.025 44.5 44.5 0 0 1 .472-8.244z" fill="#1c2933"/><path data-name="Path 9440" d="M62.753 126.056c-2.26 10.556-8.683 30.9-7.92 40.651.517 6.616 2.708 7.853 3.75 16.473 1.264 10.462-1.433 25.584-1.022 37.113.262 1.342-2.218 6.467-7.168 7.485 1.3-20.094 3.356-37.08-2.642-53.552a19.924 19.924 0 0 1-.975-8 417.419 417.419 0 0 1 5.689-46.374z" fill="#111c24"/><path data-name="Path 9441" d="M77.763 188.722c-1.1-5.6-4.805-10.677-4.732-16.487a51.817 51.817 0 0 1 1.036-9.607c.991-5.063 2.772-10.983 4-16.727 2.236-10.44 3.543-19.752 1.973-25.769-2.488-9.541-7.427-12.444-9.136-17.768l-.282.017a7.293 7.293 0 0 0 .147-1.2c-5.965 1.528-12.063.338-19.153-3.123-.1.278-.2.558-.292.84-.224.665-.458 1.324-.69 1.983 2.448-.693 5.622 1.2 4.687 4.365-1.456 4.927-3.139 9.781-4.743 14.66.2.546.4 1.093.608 1.638a3.1 3.1 0 0 1-.035 2.539q1.967 2.034 3.945 4.046.913.933 1.824 1.87l-1.079 36.673c-.337 5.286.463 8.262 1.046 9.7.135.55.292 1.1.476 1.644a62.537 62.537 0 0 0 2.876 6.989c2.1 4.432 1.183 7.581 1.855 13.213 1.63 13.633 1.131 27.165.844 40.25 5.517 4.442 14.163-1.7 12.864-5.5 1.41-13.551 3.815-34.806 1.961-44.246z" fill="#1c2933"/><path data-name="Path 9442" d="M60.049 181.358l5.717 2.05c5.554 17.322 3.74 33.018 2.48 55.333-1.353-.119-3.208.135-4.207-.864-.03-9.741.176-18.325-.186-27.176-.186-4.575-.683-9.22-1.107-14.133-.713-8.239.469-6.345-2.697-15.21z" fill="#2a3c4a"/><path data-name="Path 9443" d="M39.878 171.489l5.717 2.05c5.555 17.322 5.412 31.453 4.152 53.768-1.136.152-2.938.191-3.936-.593-.03-9.743-1.226-16.924-1.589-25.775-.186-4.573-.683-9.219-1.107-14.133-.713-8.239-.071-6.454-3.237-15.317z" fill="#2a3c4a"/><path data-name="Path 9444" d="M79.973 120.43c1.57 6.018.263 15.332-1.972 25.772-.046.219-.1.439-.146.66-1.215 5.439-2.856 10.985-3.792 15.766a51.817 51.817 0 0 0-1.036 9.607c-.073 5.81 3.634 10.887 4.732 16.487 1.854 9.44-.551 30.7-1.961 44.249.828 2.424-2.389 5.8-6.258 6.777 1.9-23.928 3.128-40.738-2.751-58.916-.756-2.906-1.478-4.475-1.264-7.362-.943-14.633 3.926-37.275 4.138-43.181.279-7.768-5.681-7.474-14.011-11.278-7.826-3.576-10.419-9.826-3.8-7.725 8.184 2.6 13.447.482 13.013-3.581-.211-1.989-.5-3.924-.532-5.558l-.233-.358a21.072 21.072 0 0 0 6.665-.6 8.7 8.7 0 0 0 .288 1.369 25.875 25.875 0 0 0 3.7 6.817 33.414 33.414 0 0 1 5.22 11.055z" fill="#111c24"/></g></g><g data-name="Group 5152" fill-rule="evenodd"><path data-name="Path 9445" d="M74.567 86.512c-2.735 5.43-4.2 11.458-3.712 15.008-6.554 4.526-21.089-1.8-29.216-8.193.064-.279.127-.567.186-.863 1.039-5.2-1.132-9.582-.563-15.6.152-1.613.31-3.24.473-4.867.549-5.5 1.155-10.986 1.776-15.794.565-4.367 1.22-8.648 1.882-11.807.561-2.677.928-5.193 3.536-6.556 6.333-3.309 19.476 7.976 26.08 11.507 5.216 2.79 10.088 4.431 10.483 10.174.554 8.078-7.397 19.992-10.925 26.991z" fill="#07acb8"/><path data-name="Path 9446" d="M46.673 80.477c2.952 1.433 4.257 4.714 10.029 6.874 1.825.683 3.971 1.323 4.751 2.18 3.349 3.673 1.116 7.161.932 11.87-.02.5-.027 8.294-.024 8.769-6.888-.956-18.431-1.573-23.9-5.873.064-.28 3.3-11.537 3.358-11.833.98-4.9-.893-9.076-.635-14.578 1.733.913 3.71 1.725 5.489 2.591z" fill="#08c8d6"/><path data-name="Path 9447" d="M74.567 86.512c-2.735 5.43-4.2 11.458-3.712 15.008a10.517 10.517 0 0 1-6.448 1.52c-.007-.585 0-1.185.025-1.8.2-5.167 2.653-8.994-1.022-13.025-.856-.94-3.211-1.643-5.214-2.392-6.334-2.37-7.768-5.971-11.006-7.544-2.05-1-3.944-1.872-5.782-2.717 0-6.647 2.932-13.3 5.028-19.542l25.763 9.912a26.848 26.848 0 0 1 4.739-11.021 11.339 11.339 0 0 1 .679-1.1c-8.376-7.145-16.07-9.805-25.994-14.284l-3.1-1.249c1.763-1.236 4.386-1.511 8.251.109 8.306 3.484 18.76 8.8 25.2 14.475 4.406 3.881 4.43 8.793 2.5 13.419-2.181 7.055-7.275 15.01-9.907 20.231z" fill="#03868f"/><path data-name="Path 9448" d="M49.504 74.27c2.445 1.244 4.835 4.887 8.694 7 6.073 3.325 11.989.015 13.038-6.786a15.453 15.453 0 0 0 .169-1.664c.351-7.854 1.44-12.075 5.9-18.393-2.79-1.525-5.634-3.15-7.181-4.821l-17.647-9.621-5.626 1.486a45.929 45.929 0 0 1-6.457 13.181 12.3 12.3 0 0 0-1.978 9.964c1.295 5.566 6.645 7.396 11.088 9.654z" fill="#07acb8"/><path data-name="Path 9449" d="M49.553 72.799c2.357 1.2 4.664 4.714 8.388 6.753 5.52 3.022 10.783.613 12-5.543a15.418 15.418 0 0 0 .292-2.342c.341-7.577 1.39-11.649 5.691-17.747-2.692-1.472-5.436-3.039-6.929-4.651l-19.1-9.686c-2.922-.871-3.031 1.793-4.614 6.2a33.814 33.814 0 0 1-4.841 8.9c-1.944 2.838-2.854 5.6-2.044 9.074 1.257 5.365 6.87 6.86 11.157 9.042z" fill="#08c8d6"/></g><path data-name="Path 9450" d="M52.932 140.308c4.76.808 9.42 2.147 14.17 3.015 3.972.726 8.7 1.49 12.689.176.627-3.549 1.139-7.036 1.406-10.317.348-4.287.388-8.981-.9-13.126-1.692-5.717-5.028-10.416-7.269-13.674-1.794-2.6-2.531-3.5-2.5-6.368.037-3.6 1.445-8.72 3.8-13.4 3.528-7 11.479-18.908 10.924-26.991-.247-3.6-2.249-5.584-4.993-7.253a39.26 39.26 0 0 0-8.3-6.426 3.877 3.877 0 0 1 .121 3.4 2.486 2.486 0 0 1-.991 1.254c-1.475 2.655-3.888 6-5.114 7.725-4.062 4.857-11.062 14.292-12.38 20.464-3.479 16.298-2.707 39.418-.663 61.521z" fill="#1c2933"/><path data-name="Path 9451" d="M39.389 140.268a2.83 2.83 0 0 1 .348.015c.209-23.164 1.907-47.762 5.715-67.772q.751-3.947 1.614-7.643a69.516 69.516 0 0 1 4.114-17.9c1.6-3.531 4.1-5.086 6.848-5.468a21.8 21.8 0 0 1 3.441-.9 30.253 30.253 0 0 0-4.707-2.341c-5.128-2.151-8.344-1.053-9.985 1.29a7.491 7.491 0 0 0-1.2 2.47c-.8 2.493-1.5 8.089-2.3 14.287-.623 4.808-1.226 10.294-1.777 15.8-.163 1.625-.32 3.253-.473 4.865-.568 6.017 1.6 10.4.564 15.6-.826 4.133-2.516 6.366-3.746 12.906-1.362 7.249-1.293 17.969-1.411 25.548-.05 3.21-.087 6.409-.11 9.614a22.907 22.907 0 0 1 3.065-.371z" fill="#1c2933"/><path data-name="Path 9452" d="M67.479 170.265a3.681 3.681 0 0 1-1.4.748 17.527 17.527 0 0 0 6.154-.59c-1.587-.049-3.171-.105-4.754-.158z" fill="#1c2933"/><path data-name="Path 9453" d="M41.61 70.957l-.115 1.148q-.166 1.657-.324 3.313v.249c1.142.524 2.257 1.025 3.435 1.573 1-5.905 2.592-14.658 4.1-20.266l-2.508-.849c-1.602 4.762-3.689 9.774-4.588 14.832z" fill="#111c24"/><path data-name="Path 9454" d="M70.347 124.632a34.879 34.879 0 0 1 2.343 12.687c-.172 1.726-.368 3.759-.589 5.979a33.026 33.026 0 0 0 8.376-3.465c.287-2.225.541-4.45.72-6.651a52.37 52.37 0 0 0 .177-6.307c-.037-12.045-8.777-21.9-9.837-25.2-1.051-3.272.411-9 3.465-15.054 3.526-7 11.41-19.112 10.856-27.2-.3-4.391-3.828-6.181-7.518-8.124v1.705a26.5 26.5 0 0 0-6.38 13.031l-9.522-3.663c-2.739 2.774-8.023 12.583-8.843 16.419a83.659 83.659 0 0 0-.8 4.325 19.419 19.419 0 0 0 5.162 2.81c2 .75 4.356 1.452 5.212 2.392 3.676 4.03 1.226 7.859 1.022 13.026-.366 9.332 3.363 16.357 6.156 23.29z" fill="#111c24"/><path data-name="Path 9455" d="M53.732 78.168c2.081-9.295 12.537-18.049 16.927-27.206 1.61 1.517 3.86 2.179 6.4 3.568-4.458 6.32-5.547 10.54-5.9 18.393a22.183 22.183 0 0 1-1.335 6.13 9.545 9.545 0 0 1-11.872 2.321 20.984 20.984 0 0 1-4.226-3.206zm-1.5-38.078l-5.626 1.486a45.967 45.967 0 0 1-6.457 13.181 12.283 12.283 0 0 0-1.979 9.962c.945 4.055 3.964 6.1 7.278 7.8 1.438-7.559 3.046-15.776 5.9-22.954.937-2.357 3.772-6.977 6.668-8.106z" fill="#1c2933" fill-rule="evenodd"/><path data-name="Path 9456" d="M73.627 53.299l1.551 1.538c-1.765 2.5-4.158 6.293-4.321 10.632A31.665 31.665 0 0 1 68.69 76.63c-1.894 4.125-5.222 4.866-9.387 3.739a9.836 9.836 0 0 1-5.274-3.474c1.844-7.629 13.879-18.232 19.598-23.596z" fill="#1c2933" fill-rule="evenodd"/><path data-name="Path 9457" d="M73.001 61.828c1.958.986 6.631 12.008 8.459 9.452 4.138-5.791 7.15-12.991 1.155-18.319a76.034 76.034 0 0 0-10.669-7.292l.212 4.472c1.6 1.559 3.069 3.146 4.905 4.713-1.749 2.481-3.04 4.005-4.062 6.974z" fill="#1c2933" fill-rule="evenodd"/><path data-name="Path 9458" d="M54.956 140.155a56.977 56.977 0 0 0 14.663 3.635c1.165-7.6 1.508-12.481-.217-17.072-1.907-5.079-4.857-9.555-5.925-13.557a46.08 46.08 0 0 1-.7-14.894c.563-6.032 2.085-6.671-3.811-9.887a47.5 47.5 0 0 1-6.392-3.758c-2.247 15.64-1.451 35.878.34 55.362a3.223 3.223 0 0 1 2.042.171z" fill="#2a3c4a" fill-rule="evenodd"/><path data-name="Path 9459" d="M37.29 140.853a3.491 3.491 0 0 1 2.456-1.01c.2-20.772 1.6-42.662 4.649-61.346-.976-.405-1.883-.806-2.908-1.257-.026 7.651 1.31 11.938.55 15.822-.85 4.354-2.056 7.629-3.02 11.952-2.147 9.614-2.046 23.563-1.9 36z" fill="#2a3c4a" fill-rule="evenodd"/><path data-name="Path 9460" d="M47.251 45.83l2.482 2.05-3.129 1.024c-.936 7.407-2.108 13.028-1.173 23.687 1.773-8.181 3.714-17.737 7.661-25.691a10.484 10.484 0 0 1 8.294-6.289l-3.307-1.487c-5.192-.952-8.694 2.223-10.828 6.706z" fill="#2a3c4a" fill-rule="evenodd"/><path data-name="Path 9461" d="M74.352 49.063c1.022 3.517-.828 6.919-3.81 11.451l-3.708-1.024 1.246 3.733c-8.282 4.031-8.6 7.09-13.845 13.363 3.93-15.295 14.2-19.485 16.337-27.264a6.686 6.686 0 0 0 .259-2.913c-.08-.453-1.124-1.412-1.3-1.743A7.824 7.824 0 0 1 69 43.375c-.005-.027 4.373 2.316 5.352 5.688z" fill="#2a3c4a" fill-rule="evenodd"/><path data-name="Path 9462" d="M43.431 21.443a3.366 3.366 0 0 1-.7-2.089c-.079-1.345 1.483-1.331 1.518-1.852.047-.66-.589-1.422-.522-2.146.145-1.553 1.984-1.941 1.934-2.414-.086-.832-.573-1.732-.119-2.526.709-1.238 1.251-.988 1.825-1.9.325-.514.09-1.425.475-2.205a3.522 3.522 0 0 1 1.563-1.227c.968-.483.722-1.5 1.628-2.075 1.042-.66 1.3.231 2.138-.689.345-.381.537-.888 1.026-1.056.745-.253 2.269.329 2.531.061a3.128 3.128 0 0 1 2.114-.842c.291-.03.777.542 1.235.616.766.12.624-.411 1.682-.626.98-.2 1.128.428 2.013.57 1.247.2 1.691-.445 3.081-.258 17.195 2.322 5.834 50.363-11.942 49.736-.336-.012-.754-.457-1.252-.4s-1.215.718-1.771.744c-.887.043-.458-.257-1.711-.279-.745-.013-.758.68-1.545.706-1.362.047-1.448-.6-1.9-.682-1.354-.244-1.62.493-2.174-.392-.669-1.066.488-2.031.326-2.678-.156-.631-1.394-.721-1.161-1.8.116-.544.708-.993.642-1.458a1.247 1.247 0 0 0-.729-1.037c-1.224-.562-.339-1.825-.147-2.6.157-.641-.634-1.636-.915-2.3-.6-1.44.4-2.589.138-2.985-.468-.692-1.322-1.257-1.3-2.171.041-1.427.815-1.669.892-2.741.041-.559-.343-1.069-.274-1.622a4.014 4.014 0 0 1 .969-2.285c.624-.884-.413-1.9-.214-2.952.168-.885 1.002-1.49.646-2.146z" fill="#0c0606" fill-rule="evenodd"/><g data-name="Group 5156" fill-rule="evenodd"><g data-name="Group 5153"><path data-name="Path 9463" d="M69.749 45.415c.592 4.259-10.561 10.617-15.584 8.561-.5-.2-.831-1.1-1.192-1.465-.081-1.733 1.328-5.072 1.2-6.567a25.424 25.424 0 0 0-2.981-10.2l13.284-5.242 3.367-1.468c-1.722 7.023-.507 10.346 1.906 16.381z" fill="#9e6d4c"/><path data-name="Path 9464" d="M69.76 44.399c.015.067.127.185.121.242-6.152-6.643-12.632-4.335-17.337-5.906-.54-1.238-1.349-2.878-1.783-4.062l13.825-5.191 3.365-1.469c-1.717 7.032-.604 10.355 1.809 16.386z" fill="#8f6142"/></g><g data-name="Group 5154"><path data-name="Path 9465" d="M68.712 41.599c.623 3.837-9.156 7.333-15.029 12.759 2.294-.7 3.363 1.259 4.42 3.456 3.715-1.684 10.728-6.5 12.238-9.566 1.745-3.549.261-4.949-1.629-6.649z" fill="#07acb8"/><path data-name="Path 9466" d="M60.561 50.037a26.722 26.722 0 0 0-5.767 3.8c1.487-.154 3.013 1.493 3.538 3.084a29.1 29.1 0 0 0 4.944-3.169c1.986-2.269-.01-5.286-2.715-3.715z" fill="#08c8d6"/></g><g data-name="Group 5155"><path data-name="Path 9467" d="M53.789 54.348c-.057-.144.347-.2.3-.407-.355-1.46.148-4.571.139-6.984 0-.824-.293-2.848-.352-3.243-1.642.055-3.378 6.493-4.6 10.166 1.629-.908 3.036.246 4.513.468z" fill="#07acb8"/><path data-name="Path 9468" d="M53.652 53.261c-.027-.864.033-2.261.115-3.916.1-1.987-1.662-2.95-2.574-.441-.506 1.453-.979 3.035-1.383 4.244a4.454 4.454 0 0 1 3.842.113z" fill="#08c8d6"/></g></g><g data-name="Group 5159" fill-rule="evenodd"><g data-name="Group 5157"><path data-name="Path 9469" d="M52.609 37.673c3.572-1.183 8.885-2.71 10.989-3.739 1.917-.939 1.341-3.338 1.854-3.843a12.193 12.193 0 0 0 1.633-3.193c3.337-1.288 4.945-2.63 5.664-4.37 1.7-4.133.449-9.381-2.174-12.748a11.75 11.75 0 0 0-9.335-4.551c-5.391-.2-8.74.538-11.012 4.16-.694 1.108-1.333 3.346-2.078 5.014-.25.561-.228.178-.508.729-.225.411.326 2.316.474 3.529.061.51-.292 1.256-.267 1.651.142 2.168-1.148 1.271-1.55 3.365-.359 1.869.181 4.172.268 8.165a13.771 13.771 0 0 0 .232 3.483c.288.833 2.114 1.927 2.919 2.248a4.008 4.008 0 0 0 2.891.1z" fill="#ad7c5b"/><path data-name="Path 9470" d="M52.609 37.673c3.572-1.183 8.887-2.71 10.989-3.739 1.917-.939 1.341-3.338 1.854-3.843a12.193 12.193 0 0 0 1.633-3.193c3.337-1.288 4.945-2.63 5.664-4.37 1.7-4.133.449-9.381-2.174-12.748a11.75 11.75 0 0 0-9.335-4.551c-3.735-.136-10.776.718-11.644 5.4.84-1.267 2.879-1.948 3 .4 1.812-.932 2.994 1.065 4.062 3.749.71 1.784 2.111 3.847 1.334 6.233-.225.688 1.438 3.046 1.436 3.48-.021 2.55-2.388 2.347-2.691 3.493-.311 1.174 2.626 1.97 1.3 5.031-.372.858-3.172 3.407-7.075 4.8-.03.021-.065.042-.1.063a4.011 4.011 0 0 0 1.747-.205z" fill="#9e6d4c"/></g><g data-name="Group 5158"><path data-name="Path 9471" d="M68.63 22.516c3-.683 2.668 2.662 2.006 4.642-.454 1.361-1.593 1.136-2.124 2.192a2.642 2.642 0 0 1-2.581 1.648c-1.757-.233-.393-2.737-.074-3.754-.027-1.724.87-4.294 2.773-4.728z" fill="#9e6d4c"/><path data-name="Path 9472" d="M66.973 26.341a5.143 5.143 0 0 1 1.648-2.482c.38-.234 1.664-.637 1.667 1.137-.2-1.462-1.2-1.054-1.579-.768a8.7 8.7 0 0 0-1.736 2.113z" fill="#8f6142"/></g></g><g data-name="Group 5162" fill-rule="evenodd"><g data-name="Group 5160"><path data-name="Path 9473" d="M53.447 9.523c.236-3.9-4.066.075-4.885 3.264l1.417-6.328 3.139-2.988 3.7-1.012 4.91-.507a15.509 15.509 0 0 1 1.4-.96c.227.033 1.574.112 1.846.388.429.433-.237 1.145-.157 1.332.152.354-1.367 3.038-1.772 3.342s-7.189 1.721-7.189 1.721z"/><path data-name="Path 9474" d="M64.073 1.111a7.477 7.477 0 0 0-2.149 1.231 1.356 1.356 0 0 1-1.144.117c-1.289-.412-1.708-.1-2.9.187a7.73 7.73 0 0 1-1.467.04c-1.159.044-1.459.407-1.66 1.478-.171.908-.091 1.85-.216 2.115-.217.465-.841.2-.91 2.381-.086-2.824-1.924-2.868-3.279-.685-.538.868-1.811.72-1.683 3.71.024.576-2.08 2.265-2.19 3.19s.316 1.552-.1 2.126l-2.025 2.784c-.643-.963.833-1.454.658-2.329-.1-.5-.507-1.063-.556-1.518a1.537 1.537 0 0 1 .454-1.417c2.862-2.226.149-3.029.925-3.938.362-.425 1.911-1.619 1.911-1.885 0-.7.378-2.377 1-2.811.507-.354.884-.252 1.429-.67s.5-1.474.875-1.824 1.482-.1 1.911-.315.86-1 1.341-1.216c.946-.427 1.825.013 2.229-.1s.97-.652 1.544-.759c.62-.116 1.644.488 1.746.493 1.334.06 1.906-.815 2.418-.721z" fill="#241414"/></g><g data-name="Group 5161"><path data-name="Path 9475" d="M59.453 20.81c-.469-1.921 1.665-2.193.577-3.865-.2-.311-.793-.294-1.2-.813a3.224 3.224 0 0 1-.409-1.75c.027-.726-1.171-.384-1.435-1.41a3.826 3.826 0 0 1 0-1.867c.457-1.61-1.689-2.831-3.913-1.245.674-.64.39-.807.783-2.02.323-1 .823-.8 1.014-1.243.292-.671-.27-1.4.225-2.468.872-1.883 2.528-.661 3.173-1.2 1.29-1.075 2.31.246 3.33-.118.883-.314 1.2-1.036 2.144-1.487a2.853 2.853 0 0 1 1.989-.183c.792.3 1.175-.558 2.079-.93 1.583-.653 2.329.4 3.112.551.851.167 1.3-.741 2.745-.372a3.8 3.8 0 0 1 2.054 1.122 1.356 1.356 0 0 0 .791.657c1.047.333 1.707.17 2.555.957.989.916.79 1.648 1.124 2.05.423.508 1.411.619 1.862 1.187.972 1.222.663 2.349 1.028 2.657.638.541 1.84.676 2.569 1.513.936 1.077.047 1.851.262 2.9a1.478 1.478 0 0 0 .162.419 3.029 3.029 0 0 1 1.143.707c.972 1.224.309 2.6.674 2.911.637.54 1.612.854 1.834 1.741.346 1.384-.332 1.826-.118 2.879.112.551.62.482.7 1.033a7.278 7.278 0 0 1-.061 1.224c.064.652.735.615.987.944 1.04 1.363.252 2.036.451 2.808.217.841.743.909 1.035 2.369.325 1.626-.93 1.287-.976 2.4-.048 1.1.82 1.171.478 2.276-.4 1.288-.992 1.072-1.361 1.851-.282.6.053 1.083-.262 1.736-.681 1.4-1.808 1.05-1.928 1.513-.211.808-.046 1.823-.749 2.408-1.1.911-.98-.065-2.115 1.09-.392.4-.778 1.42-1.24 1.733-.9.612-1.771-.236-2.84-.123s-1.2 1.152-2.251 1.373c-1.208.252-1.139-.673-2.244-.1a3.117 3.117 0 0 1-1.484.424 12.886 12.886 0 0 1-2.2-.739c-.533-.041-.478.66-1.067 1.575-.278.432-1.022.05-1.5.467-.564.492-.889 1.763-1.507 1.906-1.209.279-1.386-.289-2.629-.13a.54.54 0 0 1-.289-.035c-.485.471-.9 1.24-1.56 1.5a1.832 1.832 0 0 1-1.635-.237c-.352-.234-.4-.337-.654-.357-.73-.057-.561.64-1.3.581-.9-.073-.937-.475-1.307-.486-.627-.02-1.557 1.043-2.282-.143-.311-.51.768-1.234.543-1.729-.179-.391-.792-.5-1.12-1.563-.282-.912.434-1.563.561-2.458a1.12 1.12 0 0 0-.2-.822c-1.1-1.677.515-2.471.691-3.153.165-.635-.7-1.464.346-2.406.6-.538.974-.3 1.035-1 .043-.489-.494-1.3-.236-2.076.127-.384.76-.432.859-.639a1.4 1.4 0 0 0-.373-1.584c-.485-.3-1.119-.382-1.176-1.084-.123-1.544.665-1.427.691-2.391.027-.918-1.185-1.314.008-2.581.676-.722 1.626-1.064 1.139-1.562-1.2-1.231-.973-1.862-.457-2.685.73-1.148-.491-1.661-.675-2.408z" fill="#1a0e0e"/><path data-name="Path 9476" d="M86.055 13.812l.023.046a3.029 3.029 0 0 1 1.143.707c.972 1.224.309 2.6.674 2.911.637.54 1.612.854 1.834 1.741.346 1.384-.332 1.826-.118 2.879.112.551.62.482.7 1.033a7.278 7.278 0 0 1-.061 1.224c.064.652.735.615.987.944 1.04 1.363.252 2.036.451 2.808.217.841.743.909 1.035 2.369.325 1.626-.93 1.287-.976 2.4-.048 1.1.82 1.171.478 2.276-.4 1.288-.992 1.072-1.361 1.851-.282.6.053 1.083-.262 1.736-.681 1.4-1.808 1.05-1.928 1.513-.211.808-.046 1.823-.749 2.408-1.1.911-.98-.065-2.115 1.09-.392.4-.778 1.42-1.24 1.733-.9.612-1.771-.236-2.84-.123s-1.2 1.152-2.251 1.373c-1.208.252-1.139-.673-2.244-.1a3.117 3.117 0 0 1-1.484.424 12.886 12.886 0 0 1-2.2-.739c-.533-.041-.478.66-1.067 1.575-.278.432-1.022.05-1.5.467-.564.492-.889 1.763-1.507 1.906-1.209.279-1.386-.289-2.629-.13a.54.54 0 0 1-.289-.035c-.485.471-.9 1.24-1.56 1.5a1.832 1.832 0 0 1-1.635-.237c-.352-.234-.4-.337-.654-.357-.73-.057-.561.64-1.3.581-.9-.073-.937-.475-1.307-.486-.627-.02-1.557 1.043-2.282-.143-.311-.51.768-1.234.543-1.729-.179-.391-.792-.5-1.12-1.563-.282-.912.434-1.563.561-2.458a1.12 1.12 0 0 0-.2-.822c-1.1-1.677.515-2.471.691-3.153.165-.635-.7-1.464.346-2.406.6-.538.974-.3 1.035-1 .043-.489-.494-1.3-.236-2.076.127-.384.76-.432.859-.639a1.4 1.4 0 0 0-.373-1.584c-.485-.3-1.119-.382-1.176-1.084-.123-1.544.665-1.427.691-2.391.027-.918-1.185-1.314.008-2.581.676-.722 1.626-1.064 1.139-1.562-.729-.745-.932-1.271-.864-1.752.516.925 2.261 1.473 1.09 2.806-.349.4-.93.861-.636 1.314a2.3 2.3 0 0 1 .494 1.3 6.215 6.215 0 0 1-.015 1.756c0 .967.552 1.339 1.686 2.193 2.207 1.665-.557 3.807-.455 4.477s1.357 1.155 1 1.967c-.222.5-1.743 2.23-1.218 1.853 1.373-.98 1.8-.8 2.291-1.259.62-.58.581-1.659 1.113-2.145.419-.384.935.138 1.538.175 1.173.072 1.725-1.516 2.371-1.949s2.729.652 3.342.352c1.161-.568.466-2.646 1.051-2.95 1.027-.535 2.015.517 2.988-.08.76-.465 0-2.538.873-3.059.81-.486 1.742-.033 1.99-.273 1.164-1.13.1-2.126.489-2.684.857-1.231 2.2-.186 2.632-.6 1.228-1.174-.553-2.347.434-3.6.943-1.19 3.012-.636 2.474-2.058-1-2.629 1.617-2.207 1.084-3.79-.359-1.072-1.079-1.828-.638-2.87a4.811 4.811 0 0 0 .352-1.221z"/><path data-name="Path 9477" d="M57.435 12.575c-.024-1.089.324-2.1-.292-2.927a2.507 2.507 0 0 0-3.5-.417c.651-.619.377-.1.757-1.266.312-.963 1.1-.448 1.282-.871.282-.648-.438-1.174.04-2.205.842-1.818 2.439-.638 3.063-1.158 1.244-1.036 2.228.238 3.212-.113.853-.3 1.154-1 2.068-1.434a2.753 2.753 0 0 1 1.92-.178c.766.287 1.135-.538 2.006-.9 1.529-.631 2.248.383 3 .532.822.161 1.257-.715 2.649-.359a3.668 3.668 0 0 1 1.983 1.083 1.313 1.313 0 0 0 .763.634c1.01.32 1.648.164 2.466.924.954.885.762 1.59 1.085 1.977.4.482 1.31.107 1.675 1.121.352.977.02.731-.285 1.448-.411.975.262 1.682.6 2.684.5 1.48-1.945 1.085-1.014 3.544.5 1.328-1.432.812-2.312 1.925-.925 1.168.741 2.264-.406 3.361-.4.385-1.662-.593-2.461.558-.364.522.63 1.454-.459 2.51-.232.225-1.1-.2-1.859.256-.814.487-.107 2.425-.816 2.86-.912.559-1.836-.426-2.8.075-.545.283.1 2.227-.982 2.76-.574.278-2.521-.735-3.126-.33s-1.121 1.889-2.217 1.822c-.564-.034-.65-.651-1.107-.923-.612-.363-2.286 0-1.619-1.786.45-1.208.931-1.264 1.139-1.733.336-.759-.837-1.214-.933-1.84-.1-.685 1.094-1.651.867-2.1-.2-.389-.228-.75-.363-.831-2.428-1.5.014-1.4-.5-4.355-.115-.652-1.23-1.246-1.6-1.812-.276-.423.176-.811 0-1.276-.243-.665-1.029-.657-1.924-1.26z" fill="#241414"/></g></g><g data-name="Group 5170" fill-rule="evenodd"><g data-name="Group 5164"><g data-name="Group 5163"><path data-name="Path 9478" d="M86.147 58.171c2.539 6.949 2.844 20.325 2.278 29.577-.289 4.706-.849 8.357-4.606 9.432-3.562 1.018-6.666-2.621-7.385-6.345-.851-4.413 1.616-6.012-.864-20.366-1.271-7.361.123-14.332 4.584-16.018a6.194 6.194 0 0 1 .688-.216c2.215-.556 4.178.849 5.305 3.936z" fill="#2a3c4a"/><path data-name="Path 9479" d="M86.125 57.721c3.091 6.723 2.866 20.775 2.3 30.027-.289 4.706-.849 8.357-4.608 9.432-2.5.715-4.773-.864-6.156-3.158a40.578 40.578 0 0 0 4.24-.775c1.23-.3-5.71-1.581-5.616-4.367 1.9-1.94 6.337-2.143 7.379-2.223.314-10.582.544-23.146-2.819-32.49 1.912-.721 3.913.583 5.28 3.554z" fill="#111c24"/></g><path data-name="Path 9480" d="M79.554 54.957c-8.415 6.1-1.59 15.412-2.61 30.542 1.948.083 3.6-.368 5.223-.365-.559-11.588-.033-17.153-2.613-30.177z" fill="#2a3c4a"/></g><g data-name="Group 5169"><g data-name="Group 5166"><g data-name="Group 5165"><path data-name="Path 9481" d="M76.243 88.956c2.066-1.118 9.215-1.822 11.249 3.707.429 3.388-6.733 9.121-15.437 16.011-2.288-2.4-4.29-3.836-7.416-4.247 3.434-5.16 7.334-10.089 11.604-15.471z" fill="#1c2933"/><path data-name="Path 9482" d="M80.557 89.865c-4.946 6.164-8.026 9.411-9.818 11.764a12.637 12.637 0 0 0-4.863.977c2.9-4.195 6.115-8.29 9.581-12.661.26-.328 3.926-.928 5.1-.08z" fill="#2a3c4a"/><path data-name="Path 9483" d="M72.063 103.853c1.281-.691 10.917-12.146 11.449-15.046a6.311 6.311 0 0 1 3.98 3.856c.429 3.388-6.733 9.121-15.437 16.011-2.288-2.4-4.29-3.836-7.416-4.247a2.782 2.782 0 0 1 .362-.424c1.464-1.404 4.548-1.397 7.062-.15z" fill="#111c24"/></g><path data-name="Path 9484" d="M64.504 104.48c-1.049 2.121 4.476 6.372 7.379 4.433 1-.669-1.3-3.08-1.884-3.545-.973-.769-4.862-2.164-5.495-.888z" fill="#a6cde0"/></g><g data-name="Group 5168"><g data-name="Group 5167"><path data-name="Path 9485" d="M64.52 105.134c1.861-1.739 2.755-2.534 4.351-2.83a7.009 7.009 0 0 1 2.729 0 5.643 5.643 0 0 0 2.759.027c1.765-.446 2.78-.149 2.927.8.238 1.537-1.282 2.286-2.8 2.7-.749.205-1.5.33-2.04.429-.572 1.515-.721 3.23-1.467 4.36a8.625 8.625 0 0 1-1.2 1.363c-1.426 1.391-2.723 3.152-4.545 2.671-2.075.738-3.81 1.355-4.988-.035-2.137-.181-2.245-.14-3.1-1.719-1.129-.31-1.245-.8-1.822-1.988-.252-.519-.78-1.382-1.175-2.061-.423-.727-.355-.977-.205-1.344a1.04 1.04 0 0 1 1.349-1.214 2.8 2.8 0 0 1 1.719 1.923 2.994 2.994 0 0 1 2.326 1.179c2.124-1.679 2.497-3.883 5.182-4.261z" fill="#ad7c5b"/><path data-name="Path 9486" d="M77.179 102.785a1.182 1.182 0 0 1 .107.345c.238 1.537-1.282 2.286-2.8 2.7-.749.205-1.5.33-2.04.429-.572 1.515-.721 3.23-1.467 4.36a8.625 8.625 0 0 1-1.2 1.363c-1.426 1.391-2.723 3.152-4.545 2.671-2.075.738-3.81 1.355-4.988-.035-2.137-.181-2.245-.14-3.1-1.719-1.129-.31-1.245-.8-1.822-1.988-.252-.519-.78-1.382-1.175-2.061-.423-.727-.355-.977-.205-1.344a1.04 1.04 0 0 1 1.349-1.214 2.8 2.8 0 0 1 1.719 1.923 2.961 2.961 0 0 1 2.279 1.129 7.774 7.774 0 0 0 .944.978c1.565-1.039 3.2-.556 4.614.586a21.3 21.3 0 0 1 1.857 1.233c1.327-.663 2.329-2.5 2.785-3.987a12.229 12.229 0 0 0 .384-3.63c.491.346.837.9 2.037.405 1.325.396 4.392-.376 5.267-2.144z" fill="#9e6d4c"/></g><path data-name="Path 9487" d="M72.438 106.269a6.793 6.793 0 0 1-2.505-1.6c.5 1.261 1.218 1.459 2.039 2.04-.9 3.361-.528 3.1-2.761 5.407-1.3 1.34-2.72 2.793-4.318 1.765a19.908 19.908 0 0 1-4.786-4l-.522-.269a31.229 31.229 0 0 0 5.289 5.177l.353-.124c1.822.481 3.119-1.28 4.545-2.671a8.625 8.625 0 0 0 1.2-1.363c.745-1.129.9-2.841 1.464-4.354zm-12.292 8.346c-.187-.015-.358-.03-.514-.044-.977-1.2-3.252-3.5-3.806-4.837-.279-.674-.109-1.438 1.05-1.838.033.074.064.151.094.231-.847.348-1.027.877-.83 1.523.443 1.461 2.685 3.024 4.006 4.965zm-5.556-5.681c-.311-.608-.522-1.158-.394-1.374.517-.874 1.582-.566 2.455-.1a2.388 2.388 0 0 0-1.367-1.161 1.04 1.04 0 0 0-1.349 1.214c-.15.367-.218.617.205 1.344.4.679.923 1.542 1.175 2.061.551 1.131.681 1.63 1.675 1.946-.786-1.282-1.717-2.583-2.4-3.93z" fill="#8f6142"/></g></g></g></g><g data-name="Group 5189"><path data-name="Path 9488" d="M172.473 279.433l-45.276-25.787c-4.936-2.255-12-4.049-17.029-1.433-4.581 2.385-12.13 7.266-15.467 9.168-2.535 1.447-11.335 6.718-5.854 9.7 16.123 8.767 32.08 18.627 48.452 27.534 3.1 1.684 7.626 2.293 12.381 1.9a32.8 32.8 0 0 0 13.409-3.994q4.081-2.373 8.029-4.673c3.552-2.068 5.435-4.513 5.621-6.774.179-2.212-1.241-4.258-4.266-5.641z" fill="#231f20" fill-rule="evenodd" opacity=".1" style="mix-blend-mode:multiply;isolation:isolate"/><g data-name="Group 5173" fill-rule="evenodd"><g data-name="Group 5172"><path data-name="Path 9489" d="M115.014 249.699c-.919 3.23-1.15 4.9-2.492 6.776-2.674 3.748-6.618 6.425-12.36 10.5-2.732 1.937-3.309 3.773-.543 5.461 2.178 1.33 7.508.273 10.836-.51 6.247-1.469 8.772-5.228 10.908-6.206l1.618.367c1.324.023 6.529-2.078 7.545-3.438a37.263 37.263 0 0 0 .814-4.841c.193-5.287-.636-4.748-2.05-8.884-4.805.346-9.461.615-14.276.775z" fill="#111214"/><path data-name="Path 9490" d="M97.809 270.014c-.028.835.537 1.643 1.81 2.42 2.179 1.33 7.508.273 10.837-.51 6.246-1.469 8.771-5.228 10.907-6.206l1.618.367c1.324.023 6.529-2.078 7.545-3.438a37.263 37.263 0 0 0 .814-4.841c.193-5.287-.636-4.748-2.05-8.884-2.127.154-4.224.293-6.319.413-.379 3.481.129 9.484-2.735 11.719-3.2 2.5-5.7 3.163-7.842 4.464-6.821 4.145-11.321 7.514-14.585 4.496z"/><path data-name="Path 9491" d="M113.499 255.638c.681 1.007 2.021 1.574 4.236 2.125-3.573 4.028-4.076 3.651-8.874 6.347-2.418 2.762-2.754 3.286-4.3 4.178-1.842 1.064-4.443 2.157-5.537 1.371-.47-.338.162-1.283 2.192-2.754 2.3-1.668 4.643-3.358 6.763-5.12a24.975 24.975 0 0 0 5.52-6.147z" fill="#20232e"/></g><path data-name="Path 9492" d="M132.899 161.376a77.105 77.105 0 0 0 .681-12.338c-3.892-1.557-7.984-3.029-11.93-4.755l.281-.238c-4.183-1.963-7.787-5.013-12.611-7.78-2.018 6.354-2.766 9.2-2.613 14.369a158.849 158.849 0 0 0 2.26 20.438c.705 10.47 1.645 21.394 2.324 28.544 1.731 18.239 1.52 36.232 2.611 54.44 2.26 3.708 13.164 3.936 16.888-1.278.557-14.4 1.459-25.776 1.051-33.658-.34-6.56-.651-10.34-2.774-16.171 1.415-9.704 3.317-27.565 3.832-41.573z" fill="#001624"/><path data-name="Path 9493" d="M151.085 268.844c.8 2.333 1.528 4.141 1.453 5.608-.077 1.52-.491 3-.473 4.918.018 1.649.1 3.05.292 4.915.195 1.908 0 2.811-.841 3.573-1.36 1.238-5.412 3.154-7.334 3.805a7.7 7.7 0 0 1-3.361.453 14.974 14.974 0 0 1-4.506-.822c-.415-.156-.839-1.764-.87-3.16-.063-2.921.2-2.674 1.411-7.3.413-1.582.747-3.09 1.315-4.938.708-2.3 1.588-4.325 1.678-6.59l8.555-.333z" fill="#111214"/><path data-name="Path 9494" d="M151.085 268.844c.8 2.333 1.528 4.141 1.453 5.608-.077 1.52-.491 3-.473 4.918.018 1.649.1 3.05.292 4.915.195 1.908 0 2.811-.841 3.573-1.36 1.238-5.412 3.154-7.334 3.805a7.7 7.7 0 0 1-3.361.453 14.974 14.974 0 0 1-4.506-.822c-.375-.141-.759-1.473-.851-2.76h.023c2.615.89 5.152 1.247 7.664.02 5.3-2.59 4.612-4.741 4.113-10.853-3.449-.607-4.8-1.222-6.555-3.111 2.941.864 6.1 1.019 7.666-.777l.487-4.864z"/><path data-name="Path 9495" d="M120.191 202.893c3.576 16.9 4.481 28.821 2.2 53.836 3.29-.243 6.644-1.492 8.4-3.951.557-14.4 1.459-25.776 1.051-33.658-.34-6.56-.651-10.34-2.774-16.171 1.82-12.477 4.444-38.439 3.889-52.357l-7.468-2.987c-2.265 20.594-3.694 31.21-5.298 55.288z" fill="#00101a"/><path data-name="Path 9496" d="M127.922 168.791c1.38 14.033 4.08 33.539 5.648 43.5 2.849 18.1 3.295 39.318 4.9 57.488 2.473 3.868 11.788 4.665 15.356-.147.155-14.414 1.463-30.551.835-38.418a49.7 49.7 0 0 0-3.9-16.291c.359-11.233 6.22-57.381-1.522-66.437a6.81 6.81 0 0 0-1.457-2.05l-11.28-.881-13.38-1.557a38.771 38.771 0 0 0 .1 15.889 2.486 2.486 0 0 0 .3.655c.127.947.3 1.9.512 2.857.195.876 2.339 3.326 3.888 5.392z" fill="#001e30"/><path data-name="Path 9497" d="M140.167 159.524c1.536 3.556 2.723 9.521 2.794 15.485.193 8.542.828 28.737 1.639 38.35 1.59 18.845 5.181 34.551 2.337 59.576a9.171 9.171 0 0 0 6.884-3.3c.155-14.414 1.463-30.551.835-38.418a49.691 49.691 0 0 0-3.9-16.291c.366-11.456 6.457-59.229-2-66.935l-12.884-.882c1.666 4.781 2.19 7.537 4.295 12.415z" fill="#001624"/><path data-name="Path 9498" d="M139.405 275.062c2.475 1.952 1.608 2.806 5.221 3.277a20.26 20.26 0 0 1-2.816 7.042c-.146 1.362-.255 3.149-2.907 3.165-4.95.032-1.516-4.054-1.5-4.208a40.965 40.965 0 0 1 2.002-9.276z" fill="#20232e"/><path data-name="Path 9499" d="M109.804 140.304a34.982 34.982 0 0 0 9.323 6.549c.014 6.387.01 18.218-.23 30.044-.025 6.994-.138 14.117-.44 20.046q-.016.432-.028.865c.594 4.922 2.9 7.7 3.191 15.095a187.884 187.884 0 0 1-2.208 31.072c.048 3.958.074 7.9.041 11.837a7.751 7.751 0 0 1-5.241-2.167l-.293-44.791c-.282-7.138-1.381-17.823-2.263-28.813-1.872-13.127-3.683-28.356-1.852-39.737z" fill="#001e30"/><path data-name="Path 9500" d="M135.415 149.771l.033.009a220.661 220.661 0 0 0 6.039 21.273c1.644 14.249 1.226 29.8 1.424 40.782 1.483 20.1 3.162 40.237 4.165 60.361-1.829-.159-5.885-.976-6.857-1.857-1.1-16.387-.9-39.5-2.945-54.9-.417-3.144-3.451-29.853-7.111-44.987-1.226-5.07-4.733-4.976-5.443-7.891-1.54-6.326-1.573-9.876-.939-16.746 3.846 1.447 7.68 2.827 11.634 3.956z" fill="#00263d"/></g><g data-name="Group 5174" fill-rule="evenodd"><path data-name="Path 9501" d="M90.096 118.314l-.668-2.133-.638-4.415c-2.144-1.292-3.761-1.724-4.672-1.354a2.084 2.084 0 0 0-.23.079c-2.915 1.608 3.409 10.571 6.208 7.823z" fill="#8f9ba6"/><path data-name="Path 9502" d="M72.361 112.874c-1.406 2.51 2.694 3.205 3.884 3.13 1.641.4 2.4.1 3.217 1.289.918 1.329 4.074-5.651 3.969-5.728-.712-.214-4.184.789-4.928 1.08-1.386.542-1.446.772-3.087.677-.851-.05-1.685-.257-3.055-.448z" fill="#f1b287"/><path data-name="Path 9503" d="M72.115 113.484c-.474 2.014 3.042 2.588 4.13 2.52 1.641.4 2.4.1 3.217 1.289.564.816 3.462-2.668-.521-2.9-1.756.023-4.312.88-6.826-.909z" fill="#e8a476"/><path data-name="Path 9504" d="M95.347 114.938c-1.924.791-3.258 1.227-4.3 1.732-2.753 1.332-1.535 4.5-6.676 6.914l-5.887 2.759c-.769.361-6.688-.96-8.342-1.927-1.174-.686-6.085-4.271-5.521-4.577.422-.229 3.007-.017 5.4-.179l5.334-1.349c5.056-1.772 4.13-4.682 5.921-5.847 2.332-1.517 4.748-1.176 8.49-4.64l4.477 1.595-.123 5.028z" fill="#f1b287"/><path data-name="Path 9505" d="M95.347 114.938c-1.924.791-3.258 1.227-4.3 1.732-2.753 1.332-1.535 4.5-6.676 6.914l-5.887 2.759c-.769.361-6.688-.96-8.342-1.927-.2-.118-.518-.324-.9-.584 1.72-1.3 6.315 1 8.135.641a7.671 7.671 0 0 0 4.266-2.079c2.045-1.947 2.369-3.36 3.651-4.9a35.656 35.656 0 0 1 4.807-3.971l-1.1-5.26q.374-.21.768-.443l4.477 1.595-.123 5.028z" fill="#e8a476"/><path data-name="Path 9506" d="M115.542 105.113c-9.644 6.161-15.541 7.922-25.625 13.345-.3-4.88-4.349-8.2-6.363-7.786 8.112-5.575 17.65-13.051 26.844-16.863z" fill="#d2eefc"/><path data-name="Path 9507" d="M115.542 105.113c-9.644 6.161-15.541 7.922-25.625 13.345a9.529 9.529 0 0 0-1.9-5.115c4.726-2.315 10.907-6.4 17.357-10.606 1.082-.88-.343-4.5-.473-6.286z" fill="#c3e6f7"/></g><g data-name="Group 5176" fill-rule="evenodd"><path data-name="Path 9508" d="M139.586 70.406c.4 4.684-12.426 10.817-17.312 8.42-.515-.253-.785-1.336-1.1-1.772.3-1.2-.108-1.712-.216-2.933a14.944 14.944 0 0 0-.714-3.912c-.583-1.585-.271-4.871-1.28-8.582l14.624-6.374 3.132-1.661c-1.504 7.301.153 10.695 2.866 16.814z" fill="#e8a476"/><path data-name="Path 9509" d="M139.586 70.406a2.13 2.13 0 0 1-.064.788c-6.932-4.365-11.249-.709-19.379-2.881a53.274 53.274 0 0 0-1.182-6.686l14.624-6.374 3.132-1.661c-1.501 7.301.156 10.695 2.869 16.814z" fill="#db9669"/><g data-name="Group 5175"><path data-name="Path 9510" d="M107.929 135.93a2.035 2.035 0 0 0 .368.89c4.137 5.765 30.088 14.453 35.518 14-4.31-37.474 34.936-69.374-7.113-81.727l-12.1 6.659-4.329-.777-.554-5.328c-5.855 5.822-8.562 13.535-9.6 24.261-1.365 14.036 1.58 26.624-2.19 42.022z" fill="#12a8b3"/><path data-name="Path 9511" d="M127.036 146.683c7.194 2.558 14.236 4.35 16.779 4.139-4.31-37.474 34.936-69.374-7.113-81.727l-12.1 6.659-4.329-.777-.554-5.328a28.28 28.28 0 0 0-6.026 8.879l.346.381c3.158-1 4.816-2.279 6.444-1.56 1.342.593 2.877 2.705 3.35 6.056 1.908-.477 5.546-1.846 7.436-2.387-7.007 10.452-13.544 32.913-8.639 56.368.611 2.913 3.091 6.286 4.406 9.297z" fill="#06929c"/><path data-name="Path 9512" d="M124.216 76.977c-.7 2.92-.813 2.911-3.471 4.923.328 1.484.54 2.766.753 4.287-4.335 12.574-6.648 23.212-9.192 38.071-.309-15.2.447-26.741 3.742-42.567a9.336 9.336 0 0 1 2.746-.992c-.728-3.223-.322-5.3.339-5.692 2.384-.088 3.376.192 5.083 1.97z" fill="#041e2e"/><path data-name="Path 9513" d="M124.216 76.977c-.7 2.92-.813 2.911-3.471 4.923.328 1.484.54 2.766.753 4.287-4.335 12.574-6.648 23.212-9.192 38.071 1.349-18.12 3.73-25.447 7.556-37.825a32.723 32.723 0 0 1-.339-5.269c1.7-1.51 2.436-1.66 2.871-2.7.387-.919-1.515-3.244-1.2-3.427 1.185.347 1.315.162 3.022 1.94z" fill="#020d14"/><path data-name="Path 9514" d="M121.627 75.18c-.3-.758-.45-2.324-.771-3.686a16.061 16.061 0 0 0-1.016-2.866c-1.664.211-2.392 5.236-3.805 8.2a7.631 7.631 0 0 1 5.592-1.648z" fill="#1abac6"/><path data-name="Path 9515" d="M137.137 64.719c.334 5.375-9.868 9.11-15.563 10.465 1.429 1.725 3.274 3.893 3.2 5.615 4.106-1.123 11.07-3.054 13.891-8.3a5.762 5.762 0 0 0-1.528-7.78z" fill="#1abac6"/></g></g><g data-name="Group 5181" fill-rule="evenodd"><path data-name="Path 9516" d="M117.847 60.848c-4.234-.206-6.209.78-8.513 4.214-4.147 6.181-4.8 19.341-4.5 31.2.166 6.718 1.23 12.626 1.313 20.974.067 6.73-1.287 16.9-2.031 26.058-.362 4.459-.582 47.783-.422 51.25.909 1.958 7.329 5.247 8.176 5.082-.39-5-.738-49.974-.963-56.312-.71-20.072-.2-44.825 4.073-61.289 1.068-4.119 1.666-8.824 3.978-12.442.391-.593.769-1.165 1.124-1.717a47.912 47.912 0 0 0-1.118-6.241l1.086-.473a19.077 19.077 0 0 0-2.203-.304z" fill="#d2eefc"/><path data-name="Path 9517" d="M150.759 74.555c-2.312-1.281-7.022-4.167-12.1-7 4.277 5.124-6.053 17.445-10.847 32.808-1.629 5.222-2.688 12.837-2.943 20.418-.246 7.317 2.08 81.315 3.738 87.236 4.839 3.341 9.624 3.579 14.709 1.485a48.768 48.768 0 0 0 12.335-7.8c-1.94-13.785 1.424-41.746-3.453-52.7-2.364-5.313-4.84-7.539-5.085-14.218-.35-9.575 13.082-35.1 12.957-48.308-.057-5.877-4.997-9.526-9.311-11.921z" fill="#d2eefc"/><path data-name="Path 9518" d="M150.759 74.555l-11.766-6.525c1.756 2.816 6.438 5.836 11.487 10.1a23.077 23.077 0 0 0-6.523 11.517c-2.657 10.507-6.721 24.335-7.418 33.942-1.111 15.291 2.547 22.177 5.7 29 2.137 4.622 4.042 48.318 4.07 55.478a49.533 49.533 0 0 0 9.285-6.363c-.439-4.149-.233-26.57-1.076-40.614a38.1 38.1 0 0 0-3.814-15.215c-1.658-3.169-3.216-5.62-3.591-11.092-.655-9.559 13.082-35.1 12.957-48.308-.057-5.876-4.997-9.525-9.311-11.92z" fill="#c3e6f7"/><path data-name="Path 9519" d="M136.539 123.587a71.248 71.248 0 0 0-.189 6.7c6.475-5.9 12.558-13.446 18.234-21.616 2.908-8.179 5.54-16.385 5.485-22.2z" fill="#b2d9ed"/><path data-name="Path 9520" d="M119.344 65.26a15.3 15.3 0 0 0-8.03 6.429l2.27 1.759-2.951 1.475a204.311 204.311 0 0 0 .256 42.169c.6-11.736.792-26.421 5.467-38.04.736-1.829 3.21-10.289 3.779-11.093-.45-1.86-.229-.76-.791-2.699z" fill="#ebf9ff"/><path data-name="Path 9521" d="M141.197 72.846l7.179 5.249c-5.947 9.79-13.915 28.172-14.135 46.748-.106 8.956 6.69 45.794 9.482 81.943-5.306 3.206-11.448 1.813-14.255-.751-2.83-18.211-3.254-89.43.571-103.892 3.278-12.401 8.917-21.38 11.158-29.297z" fill="#e0f5ff"/><g data-name="Group 5177"><path data-name="Path 9522" d="M142.129 134.936c-5.781-.2-7.371-.207-12.375.693l2.3 13.825c3.239 1.372 7.837 1 11.9-.683z" fill="#d2eefc"/><path data-name="Path 9523" d="M142.129 134.936c-5.781-.2-7.371-.207-12.375.693.719 4.122.377 4.082 4.794 4.346 7.89.471 5.459 1.346 8.18 9.259.12.349.822-.295 1.226-.463z" fill="#c3e6f7"/><path data-name="Path 9524" d="M141.706 133.175c-5.819-.179-8.413-.629-12.729-.645l1.113 5.5c1.474.767 9.212 1.683 12.63.065z" fill="#d2eefc"/><path data-name="Path 9525" d="M141.706 133.175c-5.819-.179-8.413-.629-12.729-.645 4.205 1.56 11.3 1.133 12.538 6a7 7 0 0 0 1.205-.429z" fill="#c3e6f7"/><path data-name="Path 9526" d="M130.814 140.445l7.282 1.177 2.943 7.242a25.1 25.1 0 0 1-8.082.452z" fill="#e0f5ff"/><path data-name="Path 9527" d="M129.604 133.258c3.4 1.037 8.172 2.48 10.175 5.013a25.7 25.7 0 0 1-8.92-.586 20.3 20.3 0 0 1-1.255-4.427z" fill="#e0f5ff"/></g><g data-name="Group 5180"><g data-name="Group 5178"><path data-name="Path 9528" d="M108.673 127.999c-1.712-1.868-2.187-2.335-3.769-2.868l-1.188 15.439c.8 1.255 3.412 2.3 4.208 1.974z" fill="#d2eefc"/><path data-name="Path 9529" d="M108.673 127.999c-1.712-1.868-2.187-2.335-3.769-2.868-.17 4.384-.269 4.245 1.028 5.787 2.318 2.753 1.432 2.939 1.505 11.742a1.607 1.607 0 0 0 .487-.116z" fill="#c3e6f7"/><path data-name="Path 9530" d="M104.773 130.318l2.069 3.293-.186 8.489a4.434 4.434 0 0 1-2.532-1.86z" fill="#e0f5ff"/></g><g data-name="Group 5179"><path data-name="Path 9531" d="M109.304 124.332c-1.917-.843-2.7-1.61-4.143-2.113l-.669 5.926c.348.975 2.768 2.812 4.219 1.492z" fill="#d2eefc"/><path data-name="Path 9532" d="M109.304 124.332c-1.917-.843-2.7-1.61-4.143-2.113 1.113 2.118 3.571 2.467 3.066 7.733a1.753 1.753 0 0 0 .484-.315z" fill="#c3e6f7"/><path data-name="Path 9533" d="M105.233 123.057a13.141 13.141 0 0 1 2.46 6.431c-1.334-.093-1.754-.433-2.878-1.623.049-1.591.231-3.072.418-4.808z" fill="#e0f5ff"/></g></g><path data-name="Path 9534" d="M142.654 69.706c1.685 4.1.475 11.474-1.552 18.571l-4.128-1.531 1.991 4.5c-8.294 10.837-12.935 26.981-13.578 43.559-4.487-35.9 8.484-50.571 12.057-63.143.48-1.689 1.6-4.356.847-5.857a10.159 10.159 0 0 1 4.363 3.901z" fill="#ebf9ff"/></g><g data-name="Group 5182" fill-rule="evenodd"><path data-name="Path 9535" d="M122.773 67.119c1.925-.773 6.329-1.573 8.075-2.378 3.823-1.759 4.111-5.669 6.069-10.346 3.562-1.587 4.967-3.135 5.652-5.071 1.626-4.6-.026-10.241-3.069-13.765a12.809 12.809 0 0 0-10.417-4.444c-8.287.116-12.781 5.45-14.6 12.224a4.7 4.7 0 0 0-.125 1.75c.146 1.468.615 2.2.731 3.2.274 2.354-.745 1.928-.977 4.242-.376 3.753.246 7.3.852 11.43.178 1.216.425 1.784 1.13 2.244a16.661 16.661 0 0 0 2.515 1.073c.85.364 1.709.506 4.164-.159z" fill="#f1b287"/><path data-name="Path 9536" d="M122.773 67.119c1.925-.773 6.329-1.573 8.075-2.378 3.823-1.759 4.111-5.669 6.069-10.346 3.562-1.587 4.967-3.135 5.652-5.071 1.626-4.6-.026-10.241-3.069-13.765a12.809 12.809 0 0 0-10.417-4.444c-7.2.1-11.535 4.139-13.744 9.639.294.764 7.024 4.294 13.126 4.333.457 2.755-.976 5.018-1.042 6.4-.064 1.327-.057 2.46-.178 3.2-.179 1.1-1.312 1.955-1.484 3.534-.555 5.143-3.39 8.432-5.7 9.357a10.7 10.7 0 0 0 2.712-.459z" fill="#e8a476"/><path data-name="Path 9537" d="M118.147 39.263c-.914.033-2.012-.494-2.761 1.381.543-3.071 1.474-3.356 3.368-3.644z" fill="#f7941d"/><path data-name="Path 9538" d="M129.598 43.371c5.8-.587 12.242-4.671 13.749-7.289 3.134 6.146 2.374 14.424-2.485 19.436-1.4 2.655-2.768 5.266-4.078 7.966a56.3 56.3 0 0 1-1.885-11.389l-.249-.359c-.334.694-1.169 2.415-1.479 3.131-.365 0-.957-.531-1.475-.839 1.021-5.356.747-8.666-2.098-10.657z" fill="#d5a550"/><path data-name="Path 9539" d="M129.212 43.106c-6.1-.533-14.119-3.322-17.172-7.949 5.529.834 11.8-7.414 20.538-6.6 5.065.474 10.535 3.068 10.77 7.479-1.653 2.185-9.051 7.515-14.136 7.07z" fill="#fec25c"/><path data-name="Path 9540" d="M129.461 43.368c-6.1-.533-14.368-3.584-17.421-8.211l.053.007a20.92 20.92 0 0 0 14.579 1.926 5.622 5.622 0 0 1-2.126-1.05c4.593.25 7.756.469 11.734-1.987a7.85 7.85 0 0 1-3.177.174c2.358-.559 4.593-2.46 8.209-2.218a5.736 5.736 0 0 1 2.119 4.2c-1.488 2.536-8.886 7.604-13.97 7.159z" fill="#d5a550"/><path data-name="Path 9541" d="M136.732 50.074c3.269-.745 2.909 2.9 2.189 5.062-.5 1.483-1.738 1.24-2.318 2.391a2.881 2.881 0 0 1-2.814 1.8c-1.916-.254-.428-2.985-.081-4.094-.035-1.883.949-4.686 3.024-5.159z" fill="#e8a476"/><path data-name="Path 9542" d="M143.473 36.633c.471 1.074 1.594 4.009 1.27 6.13a7.5 7.5 0 0 0-2.015-3.59c1.234 1.982 1.429 4.422.579 7.344-.04-2.528-.3-3.965-2.126-5.384 1.33 2.508.84 7.115.083 9.111-.231-2.86-.462-6.764-2.9-7.592 1.421 2.321 1.211 3.6.359 5.908-.249-2.563-1.013-4-2.761-4.969-.048 2.331-.77 6.653-3.064 8.669.189-.913 1.358-7.08.138-7.951a4.423 4.423 0 0 1-.166 2.926 5.258 5.258 0 0 0-2.512-3.589c4.915-.147 12.031-4.637 13.115-7.013z" fill="#fec25c"/><path data-name="Path 9543" d="M140.473 31.284c-2.474-1.942-6.837-2.923-9.968-2.776-2.656.124-5.234 1.217-7.619 1.754a6.439 6.439 0 0 0 1.9.055c-4.222 1.184-7.74 4.947-12.673 4.832a9.441 9.441 0 0 0 5.743-.222 12.727 12.727 0 0 1-2.153 1.05c4.693.361 7.787-2.182 12.037-3.672a5.26 5.26 0 0 1-2.568 1.574c4.567-.83 8.785-4.48 15.301-2.595z" fill="#fec25c"/></g><g data-name="Group 5183"><path data-name="Path 9544" d="M120.2 50.509a.816.816 0 0 0-1.128.744v3.466a.81.81 0 0 0 .489.737 25.281 25.281 0 0 0 5.05 1.573.82.82 0 0 0 1-.788v-3.573a.812.812 0 0 0-.666-.789 26.782 26.782 0 0 1-4.742-1.37zm-5.792-4.61v5.218h.043a4.284 4.284 0 0 0 1.672 2.234.822.822 0 0 0 1.341-.624v-3.193a.806.806 0 0 0-.353-.659c-1.29-.9-2.494-1.961-2.66-2.976z" fill="#e9f5f5" fill-rule="evenodd" opacity=".5"/><path data-name="Path 9545" d="M120.119 50.699a.594.594 0 0 0-.23-.045.607.607 0 0 0-.56.368.584.584 0 0 0-.045.228v3.466a.588.588 0 0 0 .1.324.628.628 0 0 0 .267.223 21.46 21.46 0 0 0 2.333.871c.834.259 1.729.49 2.673.688a.644.644 0 0 0 .13.013.619.619 0 0 0 .384-.133.589.589 0 0 0 .213-.338.574.574 0 0 0 .013-.126v-3.573a.58.58 0 0 0-.138-.376.616.616 0 0 0-.356-.209c-.884-.176-1.727-.38-2.523-.61s-1.557-.49-2.259-.771zm2.379.372c.789.228 1.62.43 2.486.6a1.056 1.056 0 0 1 .6.352.991.991 0 0 1 .236.641v3.573a1 1 0 0 1-.386.788 1.04 1.04 0 0 1-.65.227 1.094 1.094 0 0 1-.218-.023c-.95-.2-1.859-.434-2.713-.7a21.639 21.639 0 0 1-2.38-.888 1.033 1.033 0 0 1-.447-.375.988.988 0 0 1-.169-.551v-3.466a.978.978 0 0 1 .079-.386 1.007 1.007 0 0 1 .38-.455 1.045 1.045 0 0 1 .572-.172 1.066 1.066 0 0 1 .392.076 23.318 23.318 0 0 0 2.217.758zm-7.876-4.224v3.842a1.635 1.635 0 0 0 .039.393 2.372 2.372 0 0 0 .516 1.035 7.291 7.291 0 0 0 1.083 1.072.584.584 0 0 0 .377.136.623.623 0 0 0 .474-.218.579.579 0 0 0 .14-.383v-3.193a.579.579 0 0 0-.068-.273.614.614 0 0 0-.194-.216 11.791 11.791 0 0 1-1.784-1.47 4.922 4.922 0 0 1-.583-.725zm2.611 1.855a1.033 1.033 0 0 1 .326.363.991.991 0 0 1 .118.466v3.193a.975.975 0 0 1-.241.65 1.038 1.038 0 0 1-.359.271 1.057 1.057 0 0 1-.44.1 1.008 1.008 0 0 1-.649-.235 7.454 7.454 0 0 1-1.148-1.138 3.13 3.13 0 0 1-.515-.905 1.986 1.986 0 0 1-.073-.561l-.056-5.222.436.007.029.176a2.916 2.916 0 0 0 .853 1.423 11.5 11.5 0 0 0 1.719 1.415z" fill="#292424" fill-rule="evenodd"/><path data-name="Path 9546" d="M119.065 51.608a3.087 3.087 0 0 1-.858-.223 2.084 2.084 0 0 1-.636-.422l-.292.3a2.524 2.524 0 0 0 .762.506 3.483 3.483 0 0 0 .974.254z" fill="#292424" fill-rule="evenodd"/><path data-name="Rectangle 44" d="M125.639 54.228l6.407-2.23.137.393-6.407 2.23z"/></g><g data-name="Group 5188" fill-rule="evenodd"><g data-name="Group 5184"><path data-name="Path 9547" d="M158.862 81.91c4.454 7.506 7.447 23.748 8.8 34.6.688 5.519.833 9.876-3.291 11.938-3.909 1.955-8.3-1.589-9.941-5.752-1.946-4.931-3.768-11.11-7.219-21.618-2.749-8.37-.008-16.817 4.086-20.1 2.376-1.898 5.376-2.75 7.565.932z" fill="#d2eefc"/><path data-name="Path 9548" d="M158.862 81.91c4.454 7.506 7.447 23.748 8.8 34.6.688 5.519.833 9.876-3.292 11.938-2.743 1.372-5.723.035-7.824-2.323a48.368 48.368 0 0 0 4.747-1.82c1.361-.612 2.218-.67 1.533-3.888-3.043-14.314-5.755-26.573-10.611-40.094 2.194-1.385 4.736-1.634 6.647 1.587z" fill="#c3e6f7"/></g><g data-name="Group 5185"><path data-name="Path 9549" d="M146.304 93.999l-2.367-1.332v48.286l2.367 1.332z" fill="#1a0101"/><path data-name="Path 9550" d="M143.938 92.665l-26.523 15.079v48.286l26.523-15.08z" fill="#240101"/><path data-name="Path 9551" d="M143.911 93.449l-25.488 14.438.142 47.206 2.28 1.291 23.066-16.792 2.234-44.866z" fill="#e6e6e6"/><path data-name="Path 9552" d="M146.304 93.999l-26.524 15.08v48.287l26.524-15.08z" fill="#380303"/></g><g data-name="Group 5187"><path data-name="Path 9553" d="M132.805 135.566l1.272-2.758-.715-4.952c-2.406-1.449-4.219-1.933-5.241-1.519-.083.034-.183.048-.258.089-3.27 1.808.428 11.073 4.942 9.14z" fill="#8f9ba6"/><g data-name="Group 5186"><path data-name="Path 9554" d="M123.064 140.407a23.037 23.037 0 0 1-6.606-1.938c-1.268-.6-1.662-9.549-1.512-9.574 1.595.277 5.1 1.153 6.811 1.367 2.069-.654 8.609-2.923 10.678-3.576l1.959 4.112.088 4.278a6.066 6.066 0 0 0-2.365.724c-2.971 1.29-5.503 3.599-9.053 4.607z" fill="#e8a476"/><path data-name="Path 9555" d="M121.86 131.19a23.007 23.007 0 0 1-6.606-1.938c-1.267-.595 1.531-.935 2.3-.8 1.6.278 2.905.634 4.61.848 2.069-.653 6.632-2.1 8.65-2.906l1.7.137a106.961 106.961 0 0 1-10.654 4.659z" fill="#f1b287"/><path data-name="Path 9556" d="M119.773 128.39c-.346 2.46 3.412 1.29 4.347.857.818-.066 6.633-1.707 5.5-2.062a6.737 6.737 0 0 0-4.54-.66c-1.241.332-1.283.8-2.634 1.236a13.951 13.951 0 0 1-2.673.629z" fill="#f1b287"/></g><path data-name="Path 9557" d="M167.337 124.95a6.162 6.162 0 0 1-2.283 3.048c-1.156.875-2.858 1.259-4.606 2.067-6.762 3.125-17.5 4.219-28.019 5.669.442-5.645-1.4-8.886-4.573-9.309 8.731-3.546 19.321-5.289 28.059-7.867a17.815 17.815 0 0 1 3.3-.641c3.558 1.289 9.837 2.082 8.122 7.033z" fill="#d2eefc"/><path data-name="Path 9558" d="M167.337 124.95a6.162 6.162 0 0 1-2.283 3.048c-1.156.875-2.858 1.259-4.606 2.067-6.762 3.125-17.5 4.219-28.019 5.669a17.843 17.843 0 0 0-.028-3.361c9.165-3.207 19.827-4 28.892-8.069 1.361-.612 2.218-.67 1.533-3.888l-.31-1.46c3.088.992 6.068 2.393 4.821 5.994z" fill="#c3e6f7"/><path data-name="Path 9559" d="M153.278 88.849c2.132 10.7 7.331 21.285 7.676 33.3-9.711 3.346-18.183 5.518-28.162 7.943a6.271 6.271 0 0 0-3.479-3.5l26.372-6.792-2.467-11.452z" fill="#e0f5ff"/></g></g></g></g></svg>