<svg xmlns="http://www.w3.org/2000/svg" xmlns:xlink="http://www.w3.org/1999/xlink" width="362.681" height="362.681" viewBox="0 0 362.681 362.681">
  <defs>
    <clipPath id="clip-path">
      <circle id="Ellipse_216" data-name="Ellipse 216" cx="181.341" cy="181.341" r="181.341" transform="translate(3223.21 4440.563)" fill="none"/>
    </clipPath>
  </defs>
  <g id="Group_10013" data-name="Group 10013" transform="translate(-3222.21 -4440.563)">
    <g id="Group_5325" data-name="Group 5325" transform="translate(-1)">
      <g id="Group_5324" data-name="Group 5324" clip-path="url(#clip-path)">
        <g id="Group_5323" data-name="Group 5323">
          <g id="Group_5286" data-name="Group 5286">
            <g id="Group_5285" data-name="Group 5285">
              <path id="Path_9988" data-name="Path 9988" d="M3493.554,4841.765" fill="#f1b287" fill-rule="evenodd"/>
            </g>
          </g>
          <path id="Path_9989" data-name="Path 9989" d="M3396.758,4767.357l-204.17,117.779,394.369,222.825c260.914-151.625-46.9,28.135,214.025-123.5C3665.913,4906.492,3596.388,4882.651,3396.758,4767.357Z" fill="#064161" fill-rule="evenodd"/>
          <path id="Path_9990" data-name="Path 9990" d="M3395.231,4893.7l154.343,89.614L3322.889,5113.58c-156.927-91.2-3.335-1.852-160.27-93.058C3243.859,4973.629,3275.161,4963.045,3395.231,4893.7Z" fill="#064161" fill-rule="evenodd"/>
          <g id="Group_5287" data-name="Group 5287">
            <path id="Path_9991" data-name="Path 9991" d="M3237.987,4708.736l20.628-.063c0,.438-.043,177.816-.13,178.209-1.65,7.516-18.379,7.611-20.316.262C3238.048,4886.691,3237.987,4709.246,3237.987,4708.736Z" fill="#1e7e96" fill-rule="evenodd"/>
            <path id="Path_9992" data-name="Path 9992" d="M3249.713,4708.7l8.9-.028c0,.438-.043,177.816-.13,178.209-.754,3.441-4.667,5.325-8.876,5.654C3249.676,4865.049,3249.712,4721.1,3249.713,4708.7Z" fill="#17667a" fill-rule="evenodd"/>
            <path id="Path_9993" data-name="Path 9993" d="M3240.579,4709.682l4.333-.8c0,.132,0,182.264-.022,182.385-1.077-.1-3.926-1.394-4.656-2.763C3240.2,4888.363,3240.579,4709.836,3240.579,4709.682Z" fill="#1b9ebf" fill-rule="evenodd"/>
            <path id="Path_9994" data-name="Path 9994" d="M3256.477,4708.8l-2.827.568c0,18.153,0,180.378.02,180.49a4.227,4.227,0,0,0,3.149-2.237Z" fill="#1e7e96" fill-rule="evenodd"/>
          </g>
          <g id="Group_5303" data-name="Group 5303">
            <g id="Group_5292" data-name="Group 5292">
              <g id="Group_5289" data-name="Group 5289">
                <g id="Group_5288" data-name="Group 5288">
                  <path id="Path_9995" data-name="Path 9995" d="M3416.9,4964.081c-2.346,2.23-5.079,3.326-10.509,6.569v4.785c-5.625,9.847-11.049,14.324-18.166,12.223-9.927-2.93-12.933-5.371-13.051-12.471-1.133-12.094-1.383-14.359,1.872-23.265,9.845-6.429,14.489-7.824,21.509-10.062,5.764-1.836,14.451-6.869,22.824-9.08,4.876-1.288,7.831,2.817,8.018,5.981C3429.841,4946.325,3423.17,4957.425,3416.9,4964.081Z" fill="#111214" fill-rule="evenodd"/>
                  <path id="Path_9996" data-name="Path 9996" d="M3416.9,4964.081c-2.346,2.23-5.079,3.326-10.509,6.569v4.785c-5.625,9.847-11.049,14.324-18.166,12.223-9.927-2.93-12.933-5.371-13.051-12.471-.625-6.685-.982-10.366-.625-13.826,13.2,6.747,24.41,6.129,36.721-6.581,3.693-3.813,14.531-13.675,15.464-21.026a7.113,7.113,0,0,1,2.663,5.007C3429.841,4946.325,3423.17,4957.425,3416.9,4964.081Z" fill-rule="evenodd"/>
                </g>
                <path id="Path_9997" data-name="Path 9997" d="M3431.834,4861.541c-8.738,32.042-16.359,56.989-26.277,88.714a20.607,20.607,0,0,1-9.839,12.211c-8.405,4.513-20.028,4.924-22.311-1.6,1.963-32.24,3.017-49.871,5.762-67.289,2.284-14.5,3.529-28.313,10.925-40.014C3398.611,4824.86,3440.772,4828.762,3431.834,4861.541Z" fill="#001624" fill-rule="evenodd"/>
                <path id="Path_9998" data-name="Path 9998" d="M3419.247,4905.654c-4.271,14.331-8.688,28.6-13.69,44.6a20.607,20.607,0,0,1-9.839,12.211,28.327,28.327,0,0,1-12.162,3.341c1.51-10.03,5.162-24.805,7.55-34.717-5.371,3.259-12.314,5.8-16.32,6.333.317-4.924.547-7.031.862-11.255Z" fill="#00101a" fill-rule="evenodd"/>
              </g>
              <g id="Group_5291" data-name="Group 5291">
                <g id="Group_5290" data-name="Group 5290">
                  <path id="Path_9999" data-name="Path 9999" d="M3434.849,4978.284c2.771-.745,9.927-11.644,19.952-9.5,12.039,2.573,26.02-4.248,36.884-4.379,1.934-.024,4.38-.509,5.557.369,5.169,3.858,5.8,7.854,1.348,12.924a77.711,77.711,0,0,1-14.332,11.841c-5.413,3.517-9.652,6.462-16.206,9.183-4.876,2.026-8.162,1.747-12.578,3.317l-.278,3.839c-3.529,2.976-7.485,4.856-9.911,5.071-6.212.545-13.495-3.433-18.728-9.014-.6-6.348-2.865-12.668.4-22Z" fill="#111214" fill-rule="evenodd"/>
                  <path id="Path_10000" data-name="Path 10000" d="M3500.364,4967.855c2.029,2.947,1.51,6.1-1.774,9.84a77.711,77.711,0,0,1-14.332,11.841c-5.413,3.517-9.652,6.462-16.206,9.183-4.876,2.026-8.162,1.747-12.578,3.317l-.278,3.839c-3.529,2.976-7.485,4.856-9.911,5.071-6.212.545-13.495-3.433-18.728-9.014-.461-4.844-1.887-9.672-1.085-15.836,13.394,10.254,21.641,3.315,26.793,3.051,7.639-.388,18.682.278,35.685-11.935C3491.885,4974.385,3496.134,4971.263,3500.364,4967.855Z" fill-rule="evenodd"/>
                  <path id="Path_10001" data-name="Path 10001" d="M3462.135,4981.746c3.109-5.427,3.119-8.987,2.081-11.134l21.4-4.227c10.488-2.175,12.619-.2,9.837,2.271C3486.107,4976.975,3473.8,4979.053,3462.135,4981.746Z" fill="#20232e" fill-rule="evenodd"/>
                </g>
                <path id="Path_10002" data-name="Path 10002" d="M3464.5,4836.972c-.812,33.094-1.856,105.2-4.741,138.893-2.074,10.819-27.62,21.052-37.353,10.293-1.822-32.19-5.529-58.89-4.044-76.572,1.232-14.717,1.622-58.627,7.025-71.593C3429.526,4821.654,3465.206,4808.114,3464.5,4836.972Z" fill="#001e30" fill-rule="evenodd"/>
                <path id="Path_10003" data-name="Path 10003" d="M3465.435,4841.241c-.81,33.1-2.792,100.93-5.677,134.624-.951,4.964-6.848,9.8-13.888,12.551,1.824-24.345,3.074-49.633,6.046-73.643,1.339-10.809,2.76-20.455,3.771-28.849,1.443-11.986,2.939-52.3-1.907-63.713a22.914,22.914,0,0,0-7.2-9.63,21.9,21.9,0,0,1,11.808,6.911,28.692,28.692,0,0,1,6.628,16.108A26.079,26.079,0,0,1,3465.435,4841.241Z" fill="#001624" fill-rule="evenodd"/>
                <path id="Path_10004" data-name="Path 10004" d="M3440.973,4987.379c-7.587,2.244-14.286.369-17.4-2.809-1.948-60.526-4.182-70.026,8.652-93.195,4.493-8.112,10.42-16.5,19.833-32.449C3445.861,4905.131,3446.747,4936.246,3440.973,4987.379Z" fill="#00263d" fill-rule="evenodd"/>
              </g>
            </g>
            <g id="Group_5296" data-name="Group 5296">
              <g id="Group_5293" data-name="Group 5293">
                <path id="Path_10005" data-name="Path 10005" d="M3255.777,5025.945l92.317-.281a54.25,54.25,0,0,1-.586,8.1c-7.382,33.63-82.242,34.055-90.913,1.167A48.985,48.985,0,0,1,3255.777,5025.945Z" fill="#cfe0e8" fill-rule="evenodd"/>
                <path id="Path_10006" data-name="Path 10006" d="M3257.591,5025.939l90.5-.275a54.25,54.25,0,0,1-.586,8.1c-6.771,30.851-70.322,33.752-87.475,8.632,12.482,12.938,28.812,17.247,47.287,15.883a61.577,61.577,0,0,0,15.544-3.049c2.53-.889,3.133-2.944-.135-2.119C3303.133,5058.049,3260.417,5058.45,3257.591,5025.939Z" fill="#b6ccd6" fill-rule="evenodd"/>
                <path id="Path_10007" data-name="Path 10007" d="M3269.348,5007.557c18.115-10.769,47.4-10.769,65.377-.01,18.009,10.763,17.912,28.216-.213,38.983-18.095,10.755-47.378,10.755-65.378-.012S3251.238,5018.31,3269.348,5007.557Z" fill="#dceaf0" fill-rule="evenodd"/>
                <path id="Path_10008" data-name="Path 10008" d="M3276.177,5008.554c14.312-8.266,37.446-8.266,51.648-.008,14.226,8.262,14.152,21.662-.168,29.928-14.293,8.256-37.429,8.256-51.65-.01S3261.87,5016.808,3276.177,5008.554Z" fill="#f5fcff" fill-rule="evenodd"/>
                <path id="Path_10009" data-name="Path 10009" d="M3318.221,5056.213a78.366,78.366,0,0,1-28.492.749c-12.735-2.087-25.072-7.988-31.5-19.077,5.9,8.541,17.168,15.243,31.618,17.545,8.5,1.353,18.138.894,28.341-.836C3319.93,5054.3,3319.561,5055.911,3318.221,5056.213Z" fill="#f5fcff" fill-rule="evenodd"/>
              </g>
              <g id="Group_5294" data-name="Group 5294">
                <path id="Path_10010" data-name="Path 10010" d="M3289.635,4835.3l24.6-.077c0,.522-.052,188.44-.156,188.911-1.967,8.961-21.917,9.075-24.227.311C3289.711,5023.908,3289.635,4835.909,3289.635,4835.3Z" fill="#dceaf0" fill-rule="evenodd"/>
                <path id="Path_10011" data-name="Path 10011" d="M3303.62,4835.258l10.616-.033c0,.522-.052,188.44-.156,188.911-.9,4.1-5.566,6.348-10.584,6.739C3303.573,4998.1,3303.618,4850.045,3303.62,4835.258Z" fill="#cfe0e8" fill-rule="evenodd"/>
                <path id="Path_10012" data-name="Path 10012" d="M3292.727,4836.429l6.961-.023c0,.159-.014,191.678-.044,191.821-1.539.27-6.4-1.563-7.347-4.231C3292.258,5023.832,3292.727,4836.613,3292.727,4836.429Z" fill="#f5fcff" fill-rule="evenodd"/>
                <path id="Path_10013" data-name="Path 10013" d="M3289.635,4900.693l24.6-.075c0,.52-.052,49.118-.156,49.587-1.965,8.962-21.917,9.077-24.227.313C3289.711,4949.979,3289.635,4901.3,3289.635,4900.693Z" fill="#b6ccd6" fill-rule="evenodd"/>
              </g>
              <g id="Group_5295" data-name="Group 5295">
                <path id="Path_10014" data-name="Path 10014" d="M3219.4,4881.034l165.07-.5c.008,3.491-.357,17.965-1.048,21.122-13.2,60.132-147.051,60.892-162.558,2.088C3219.909,4900.117,3219.4,4885.113,3219.4,4881.034Z" fill="#1e7e96" fill-rule="evenodd"/>
                <path id="Path_10015" data-name="Path 10015" d="M3222.647,4881.024l161.823-.494c.008,3.491-.355,17.965-1.048,21.122-12.108,55.163-125.743,60.353-156.411,15.434,22.318,23.135,51.428,29.434,84.467,26.994a110.532,110.532,0,0,0,27.877-5.454c4.525-1.586,5.7-9.489-.153-8.059C3301.615,4939.753,3227.7,4939.154,3222.647,4881.024Z" fill="#17667a" fill-rule="evenodd"/>
                <path id="Path_10016" data-name="Path 10016" d="M3243.669,4848.154c32.39-19.255,84.75-19.255,116.894-.019,32.2,19.246,32.03,50.454-.379,69.705-32.352,19.23-84.712,19.23-116.9-.022C3211.116,4898.589,3211.287,4867.381,3243.669,4848.154Z" fill="#248ca6" fill-rule="evenodd"/>
                <path id="Path_10017" data-name="Path 10017" d="M3246.871,4847.849c31.367,51.388,140.134,38.609,110.063,63.969-30.562,17.651-80.023,17.651-110.426-.022C3216.12,4894.146,3216.281,4865.5,3246.871,4847.849Z" fill="#1b9ebf" fill-rule="evenodd"/>
                <path id="Path_10018" data-name="Path 10018" d="M3330.97,4939.166c-8.485,2.61-28.961,3.492-37.088,3.208-18.264-.638-69.122-9.712-72.032-42.532,11.115,29.052,60.595,43.566,108.615,34.4C3336.381,4933.113,3335.216,4937.858,3330.97,4939.166Z" fill="#1b9ebf" fill-rule="evenodd"/>
              </g>
            </g>
            <g id="Group_5302" data-name="Group 5302">
              <g id="Group_5299" data-name="Group 5299">
                <g id="Group_5297" data-name="Group 5297">
                  <path id="Path_10019" data-name="Path 10019" d="M3414.721,4842.52c11.38-6.417,33.907-23.129,23.527-33.067-10.588-25.186-45.986-14.207-59.458-10.249-20.445,6.007-73.053,19.252-93.141,40.683l-35.17-35.378c-3.979,18.178-11.292,43.151-7.35,63.476,2.42,12.467,3.966,16.254,14.741,22.586,7.1,4.172,15.928,8.013,20.808,8.976a41.521,41.521,0,0,0,26.4-3.435C3330.039,4884.145,3400.039,4850.8,3414.721,4842.52Z" fill="#001624" fill-rule="evenodd"/>
                  <path id="Path_10020" data-name="Path 10020" d="M3364.048,4845.331c8.12-4.58,53.328-14.241,58.279-23.4,1.142-2.116-1-6-2.146-8.008-21.472.034-68.893,12.262-97.787,23.695Z" fill="#00101a" fill-rule="evenodd"/>
                </g>
                <g id="Group_5298" data-name="Group 5298">
                  <path id="Path_10021" data-name="Path 10021" d="M3454.418,4851.314c11.38-6.418,11.294-23.072,2.091-34.107-5.385-6.458-15.845-9.474-29.282-7.127-21.28,3.711-91.368,32.151-111.453,46.508l-42.039-42.87c-3.98,18.176-5.05,50.644-1.106,70.966,2.42,12.469,4.589,16.255,15.365,22.586,7.1,4.173,15.927,8.016,20.806,8.979a41.56,41.56,0,0,0,26.4-3.437C3360.161,4900.845,3439.736,4859.592,3454.418,4851.314Z" fill="#001e30" fill-rule="evenodd"/>
                  <path id="Path_10022" data-name="Path 10022" d="M3341.929,4841.506a193.558,193.558,0,0,0-26.155,15.082l-42.039-42.87c-3.98,18.176-5.05,50.644-1.106,70.966,2.42,12.469,4.589,16.255,15.365,22.586,7.1,4.173,15.927,8.016,20.806,8.979a41.56,41.56,0,0,0,26.4-3.437c13.478-6.462,77.19-38.223,95.828-49,8.309-7.265,17.01-26.745,15.815-26.316-29.52,23.414-74.022,37.166-90.831,45.848C3354.742,4878.607,3355.073,4850.545,3341.929,4841.506Z" fill="#001624" fill-rule="evenodd"/>
                  <path id="Path_10023" data-name="Path 10023" d="M3442.517,4809.852c18.3,2.623,30.114,26.492,14.762,40.705a82.445,82.445,0,0,0-1.281-19.3A35.549,35.549,0,0,0,3442.517,4809.852Z" fill="#001624" fill-rule="evenodd"/>
                  <path id="Path_10024" data-name="Path 10024" d="M3441.388,4832.94c10.945-5.083,5.561-17.564-1.342-19.256-14.759-3.616-69.41,19.268-89.684,27.855,6.674,5.4,9.8,17.844,11.134,26.482C3377.2,4861.447,3425,4840.547,3441.388,4832.94Z" fill="#00263d" fill-rule="evenodd"/>
                </g>
              </g>
              <g id="Group_5301" data-name="Group 5301">
                <path id="Path_10025" data-name="Path 10025" d="M3322.274,4834.289c17.934-5.828,35.153-12.631,53.068-18.522-4.407-7.491-11.457-9.576-19.02-10.051-24.144,7.291-56.038,18.557-70.673,34.171C3281.184,4835.394,3308.756,4850.562,3322.274,4834.289Z" fill="#e0f5ff" fill-rule="evenodd"/>
                <g id="Group_5300" data-name="Group 5300">
                  <path id="Path_10026" data-name="Path 10026" d="M3337.186,4844.513c-9.07,4.473-16.649,8.669-21.412,12.075l-42.039-42.87c-3.98,18.176-5.05,50.644-1.106,70.966,2.42,12.469,4.589,16.255,15.365,22.586,7.1,4.173,15.927,8.016,20.806,8.979a41.56,41.56,0,0,0,26.4-3.437c16.12-7.729,55.008-27.667,84.5-43.054.3-16.127-3.343-31.292-16.052-43.377-21.738,7.177-47.629,14.212-64.3,20.81Q3338.271,4845.778,3337.186,4844.513Z" fill="#d2eefc" fill-rule="evenodd"/>
                  <path id="Path_10027" data-name="Path 10027" d="M3340.974,4842.416c-8.056,4.161-19.532,10.121-25.2,14.172l-42.039-42.87c-3.98,18.176-5.05,50.644-1.106,70.966,2.42,12.469,4.589,16.255,15.365,22.586,7.1,4.173,15.927,8.016,20.806,8.979a41.56,41.56,0,0,0,26.4-3.437c11.422-5.475,58.922-29.122,84.49-42.766a78.622,78.622,0,0,0-.959-14.669c-24.671,13.009-50.736,21.779-62.719,27.968-1.2-4.471-8.109-28.34-12.251-37.09C3342.93,4845.148,3341.825,4843.384,3340.974,4842.416Z" fill="#c3e6f7" fill-rule="evenodd"/>
                  <path id="Path_10028" data-name="Path 10028" d="M3351.669,4842.734c5.782,5.879,8.579,17.235,9.827,25.287,10.281-4.305,34.314-14.746,54.288-23.581a48.875,48.875,0,0,0-12.14-18.059C3386.734,4831.964,3367.314,4837.461,3351.669,4842.734Z" fill="#e0f5ff" fill-rule="evenodd"/>
                </g>
              </g>
            </g>
          </g>
          <g id="Group_5304" data-name="Group 5304">
            <path id="Path_10029" data-name="Path 10029" d="M3735.378,4811.515l20.63-.065c0,.437-.043,177.816-.13,178.211-1.65,7.514-18.379,7.609-20.316.261C3735.441,4989.469,3735.378,4812.024,3735.378,4811.515Z" fill="#1e7e96" fill-rule="evenodd"/>
            <path id="Path_10030" data-name="Path 10030" d="M3747.106,4811.479l8.9-.029c0,.437-.043,177.816-.13,178.211-.756,3.438-4.67,5.323-8.878,5.652C3747.067,4967.829,3747.1,4823.878,3747.106,4811.479Z" fill="#17667a" fill-rule="evenodd"/>
            <path id="Path_10031" data-name="Path 10031" d="M3737.972,4812.459l4.331-.8c0,.132,0,182.263-.021,182.384-1.076-.1-3.925-1.392-4.655-2.761C3737.593,4991.141,3737.972,4812.615,3737.972,4812.459Z" fill="#1b9ebf" fill-rule="evenodd"/>
            <path id="Path_10032" data-name="Path 10032" d="M3753.869,4811.577l-2.827.567c0,18.153,0,180.376.02,180.488a4.224,4.224,0,0,0,3.15-2.237Z" fill="#1e7e96" fill-rule="evenodd"/>
          </g>
          <g id="Group_5305" data-name="Group 5305">
            <path id="Path_10033" data-name="Path 10033" d="M3577.489,4902.525l20.63-.064c0,.437-.045,177.815-.131,178.21-1.648,7.515-18.379,7.609-20.316.261C3577.552,5080.478,3577.489,4903.034,3577.489,4902.525Z" fill="#1e7e96" fill-rule="evenodd"/>
            <path id="Path_10034" data-name="Path 10034" d="M3589.217,4902.488l8.9-.027c0,.437-.045,177.815-.131,178.21-.753,3.438-4.668,5.323-8.875,5.652C3589.179,5058.837,3589.215,4914.887,3589.217,4902.488Z" fill="#17667a" fill-rule="evenodd"/>
            <path id="Path_10035" data-name="Path 10035" d="M3580.082,4903.469l4.332-.8c0,.133,0,182.264-.021,182.384-1.077-.1-3.926-1.391-4.656-2.762C3579.7,5082.151,3580.082,4903.625,3580.082,4903.469Z" fill="#1b9ebf" fill-rule="evenodd"/>
            <path id="Path_10036" data-name="Path 10036" d="M3595.979,4902.585l-2.827.567c0,18.154,0,180.378.02,180.49a4.234,4.234,0,0,0,3.152-2.237Z" fill="#1e7e96" fill-rule="evenodd"/>
          </g>
          <g id="Group_5306" data-name="Group 5306">
            <path id="Path_10037" data-name="Path 10037" d="M3411.734,4594.791l-25.508,14.688c-68.776,39.928-50.034,27.787-118.807,67.724l-12.8,7.425c-2.706,1.586-11.577,6.777-15.228,9.874-2.685,2.28-3.627,6.276-3.627,9.659v3.326c-.026,5.409,2.5,10.066,6.083,12.148,86.037,49.622,256.36,148.254,342.473,197.941,85.775-49.81,84.077-47.474,169.8-97.376a9.168,9.168,0,0,0,1.287-.882c.125-.11.253-.259.4-.369,2.546-2.4,2.919-3.885,4.013-7.057,0-.036.026-.053.026-.09a32.956,32.956,0,0,0,.4-7.052c-.363-5.931-2.777-10.239-7.681-13.075l-23.594-13.619c-75.486-43.6-234.2-137.756-309.689-181.346C3416.876,4595.318,3413.372,4593.624,3411.734,4594.791Z" fill="#b6ccd6" fill-rule="evenodd"/>
            <path id="Path_10038" data-name="Path 10038" d="M3758.176,4796.9l-28.847,10.913-144.989,88.811v7.978c-.024.385-.024.788-.024,1.175L3760.2,4804.864A15.557,15.557,0,0,0,3758.176,4796.9Z" fill="#dceaf0" fill-rule="evenodd"/>
            <path id="Path_10039" data-name="Path 10039" d="M3238.133,4695.79a15.612,15.612,0,0,0-2.424,8.483l348.607,201.508c.024-1.526.024-3.106.024-4.667v-5.2l-333.988-195.7Z" fill="#c5d7e0" fill-rule="evenodd"/>
            <path id="Path_10040" data-name="Path 10040" d="M3584.34,4893.174v-6.745l-299.788-177.772-38.417-17.7a9.235,9.235,0,0,0-8,4.837l346.207,200.122v-2.738Z" fill="#dceaf0" fill-rule="evenodd"/>
            <path id="Path_10041" data-name="Path 10041" d="M3584.34,4894.884v1.744l173.836-99.724c-1.638-2.983-4.786-5.357-8.279-5.357h-.026l-28.887,12.119-136.644,82.763v8.455Z" fill="#e8f3f7" fill-rule="evenodd"/>
            <path id="Path_10042" data-name="Path 10042" d="M3413.761,4595.214c-82.619,48.01-85.009,47.736-167.626,95.739,165.666,95.642,172.538,99.84,338.205,195.476,82.593-48,82.912-46.874,165.531-94.882C3584.2,4695.908,3579.4,4690.853,3413.761,4595.214Z" fill="#f4fafc" fill-rule="evenodd"/>
          </g>
          <g id="Group_5313" data-name="Group 5313">
            <g id="Group_5307" data-name="Group 5307">
              <path id="Path_10043" data-name="Path 10043" d="M3467.755,4664.045l-10.264,5.911c-27.676,16.067,7.369-4.694-20.306,11.377l-5.149,2.989a58.109,58.109,0,0,0-6.129,3.973,5.14,5.14,0,0,0-1.459,3.886v1.337a5.583,5.583,0,0,0,2.448,4.89c34.622,19.968,49.944,28.577,84.6,48.571,34.515-20.042,6.332-3.227,40.825-23.309a3.681,3.681,0,0,0,.517-.354,1.978,1.978,0,0,1,.163-.148,5.527,5.527,0,0,0,1.616-2.84c0-.016.01-.022.01-.038a13.351,13.351,0,0,0,.162-2.836,6.039,6.039,0,0,0-3.092-5.262l-9.493-5.479c-30.376-17.548-41.026-24.354-71.405-41.9C3469.824,4664.257,3468.414,4663.576,3467.755,4664.045Z" fill="#b6ccd6" fill-rule="evenodd"/>
              <path id="Path_10044" data-name="Path 10044" d="M3553.949,4714.3l-11.609,4.39-30.84,19.862v3.21c-.01.156-.01.318-.01.473l43.271-24.734A6.233,6.233,0,0,0,3553.949,4714.3Z" fill="#dceaf0" fill-rule="evenodd"/>
              <path id="Path_10045" data-name="Path 10045" d="M3425.4,4688.812a6.289,6.289,0,0,0-.975,3.415l87.065,50.006c.01-.614.01-1.249.01-1.879v-2.091l-81.184-47.67Z" fill="#c5d7e0" fill-rule="evenodd"/>
              <path id="Path_10046" data-name="Path 10046" d="M3511.5,4737.161v-2.715l-67.42-40.455-15.46-7.125a3.719,3.719,0,0,0-3.22,1.946l86.1,49.451v-1.1Z" fill="#dceaf0" fill-rule="evenodd"/>
              <path id="Path_10047" data-name="Path 10047" d="M3511.5,4737.848v.7l42.449-24.252a3.979,3.979,0,0,0-3.332-2.158h-.01l-11.625,4.876-27.482,17.43v3.4Z" fill="#e8f3f7" fill-rule="evenodd"/>
              <path id="Path_10048" data-name="Path 10048" d="M3468.572,4664.215c-33.248,19.321-6.705,3.335-39.952,22.651,66.665,38.487,16.214,9.1,82.88,47.58,33.236-19.316,5.861-2.986,39.107-22.306C3483.943,4673.654,3535.226,4702.7,3468.572,4664.215Z" fill="#f4fafc" fill-rule="evenodd"/>
            </g>
            <g id="Group_5312" data-name="Group 5312">
              <g id="Group_5310" data-name="Group 5310">
                <g id="Group_5308" data-name="Group 5308">
                  <path id="Path_10049" data-name="Path 10049" d="M3484.057,4707.547l-1.852-1.084a8.208,8.208,0,0,1-2.247-1.876,9.386,9.386,0,0,1-2.049-4.545,69.012,69.012,0,0,1-.323-11.713,15.386,15.386,0,0,1,2.145-7.061c2.52-3.944,7.576-8.211,10.478-10.759q6.2-5.446,12.481-10.811l40.4-33.685a.447.447,0,0,0-.087.044c4.278-2.789,8.51-6.366,12.412-8.233,3.873-1.852,7.8-2.488,11.659-.441l1.86,1.083a8.6,8.6,0,0,1,4.166,7.553l0-.029c-.057,2.579.029,4-2.195,6.161l-.108.1c-2.251,2.135-4.975,4.18-7.332,6.153-17.831,14.917-39.1,35.556-52.679,53.25-.126,3.818-.181,5.326-.187,5.348v0l0,.026-.006.014h-.01a.049.049,0,0,0,.016,0v.014a2.1,2.1,0,0,1-1.178.732v-.008c-5.569,3.237-11.086,6.4-16.67,9.622A8.459,8.459,0,0,1,3484.057,4707.547Z" fill="#e8f3f7" fill-rule="evenodd"/>
                  <path id="Path_10050" data-name="Path 10050" d="M3495.654,4704.287l13.765-8.036.038.03.092-3.593a3.6,3.6,0,0,1,.028-.7.644.644,0,0,1,.12-.176c7.171-9.913,30.253-35.2,53.182-54.217,1.612-1.335,4.054-3.356,5.985-5.1,2.282-2.063,3.96-3.923,4.234-6.5-.057,2.579.029,4-2.195,6.161l-.108.1c-2.251,2.135-4.975,4.18-7.332,6.153-17.831,14.917-39.1,35.556-52.679,53.25-.126,3.818-.181,5.326-.187,5.348v0l0,.026-.006.014h-.01a.049.049,0,0,0,.016,0v.014a2.1,2.1,0,0,1-1.178.732v-.008c-5.66,3.292-11.268,6.5-16.946,9.78A8.517,8.517,0,0,0,3495.654,4704.287Z" fill="#b6ccd6" fill-rule="evenodd"/>
                  <path id="Path_10051" data-name="Path 10051" d="M3495.654,4704.287c-.172-2.5-.408-6.855.271-9.724.825-4.239,5.057-7.936,17.5-18.675,14.94-12.828,29.621-25.13,43.773-36.841.464-.383,14-12.431,14.1-18.238a7.508,7.508,0,0,1,1.511,7.106,8.468,8.468,0,0,1-2.69,3.677c-2.044,1.89-5.417,4.562-6.159,5.177-23.39,19.2-47.211,45.273-54.371,55.235l-.09,4.36C3506.367,4698.178,3498.888,4702.408,3495.654,4704.287Z" fill="#cfe0e8" fill-rule="evenodd"/>
                  <path id="Path_10052" data-name="Path 10052" d="M3543,4626.057c4.278-2.789,8.51-6.366,12.412-8.233,3.873-1.852,7.8-2.488,11.659-.441l1.86,1.083a8.431,8.431,0,0,1,3.846,5.073c-1.063,2.006-3.924,5.635-16.245,16.057-13.822,11.695-28.4,23.665-43.108,36.292-12.441,10.739-16.671,14.436-17.5,18.675-.679,2.869-.441,7.223-.271,9.724a8.739,8.739,0,0,1-2.686,2.973,8.439,8.439,0,0,1-8.911.287l-1.852-1.084a8.208,8.208,0,0,1-2.247-1.876,9.386,9.386,0,0,1-2.049-4.545,69.012,69.012,0,0,1-.323-11.713,15.386,15.386,0,0,1,2.145-7.061c2.52-3.944,7.576-8.211,10.478-10.759q6.2-5.446,12.481-10.811l40.418-33.7C3543.072,4626.013,3543.033,4626.035,3543,4626.057Z" fill="#e8f3f7" fill-rule="evenodd"/>
                  <path id="Path_10053" data-name="Path 10053" d="M3543,4626.057c4.278-2.789,8.51-6.366,12.412-8.233,3.873-1.852,7.8-2.488,11.659-.441l1.86,1.083a8.431,8.431,0,0,1,3.846,5.073c-1.063,2.006-3.924,5.635-16.245,16.057-13.822,11.695-28.4,23.665-43.108,36.292-12.441,10.739-16.671,14.436-17.5,18.675-.679,2.869-.441,7.223-.271,9.724a8.739,8.739,0,0,1-2.686,2.973,8.439,8.439,0,0,1-8.911.287l-1.852-1.084a8.208,8.208,0,0,1-2.247-1.876,9.386,9.386,0,0,1-2.049-4.545c-.436-2.777.933-8.8,1.163-11.564.994,6.255,7.159,7.144,9.76,7.038,2.1-.085,2.937-1.561,3.229-3.107.872-4.6,7.132-9.844,10.033-12.393q6.205-5.445,12.482-10.81l36.945-31.3c2.533-2.851-4.238-10.175-10.2-10.422l1.784-1.488C3543.072,4626.013,3543.033,4626.035,3543,4626.057Z" fill="#dceaf0" fill-rule="evenodd"/>
                  <path id="Path_10054" data-name="Path 10054" d="M3543,4626.057c4.278-2.789,8.51-6.366,12.412-8.233a15.086,15.086,0,0,1,7.025-1.7c-8.752,2.949-16.479,9.9-28.21,19.871-9.738,8.282-40.152,31.256-50.955,45.076a18.431,18.431,0,0,0-3.39,8.265c-.378,7.184.776,16.017,15.593,10.83.016,1.544.1,3.016.18,4.123a8.739,8.739,0,0,1-2.686,2.973,8.439,8.439,0,0,1-8.911.287l-1.852-1.084a8.208,8.208,0,0,1-2.247-1.876,9.386,9.386,0,0,1-2.049-4.545,69.012,69.012,0,0,1-.323-11.713,15.386,15.386,0,0,1,2.145-7.061c2.52-3.944,7.576-8.211,10.478-10.759q6.2-5.446,12.481-10.811l40.418-33.7C3543.072,4626.013,3543.033,4626.035,3543,4626.057Z" fill="#cfe0e8" fill-rule="evenodd"/>
                  <path id="Path_10055" data-name="Path 10055" d="M3543,4626.057c4.28-2.789,8.512-6.366,12.414-8.233-6.6,4.868-15.811,12.042-20.114,15.7-4.413,3.751-13.861,11.643-23.683,19.659-11.853,9.672-24.338,19.851-30.245,27.408-2.2,2.823-2.582,7-2.795,8.74-.309,5.831-.285,9.285,1.121,12.027a10.069,10.069,0,0,0,10.676,5.4,11.575,11.575,0,0,0,5.283-2.47,8.739,8.739,0,0,1-2.686,2.973,8.439,8.439,0,0,1-8.911.287l-1.854-1.084a8.231,8.231,0,0,1-2.245-1.876,9.386,9.386,0,0,1-2.049-4.545,68.811,68.811,0,0,1-.323-11.713,15.386,15.386,0,0,1,2.145-7.061c2.52-3.944,7.575-8.211,10.478-10.759q6.2-5.446,12.481-10.811l40.418-33.7C3543.07,4626.013,3543.033,4626.035,3543,4626.057Z" fill="#b6ccd6" fill-rule="evenodd"/>
                  <path id="Path_10056" data-name="Path 10056" d="M3492.471,4687.437a5.875,5.875,0,0,1-.847,3.029c-.928,1.937-2.351,2.2-4.559,1.52a20.671,20.671,0,0,1-4.317-1.744c-2.211-1.718-.688-7.4,1.957-7.809a9.332,9.332,0,0,1,4.616,1.082C3491.51,4684.476,3492.579,4685.655,3492.471,4687.437Z" fill="#f4fafc" fill-rule="evenodd"/>
                </g>
                <g id="Group_5309" data-name="Group 5309">
                  <path id="Path_10057" data-name="Path 10057" d="M3497.353,4612.743c-.005.022.016.054.072.109,1.937,1.778,17.044,9.822,17.963,10.169,11.454-7.388,25.2-13.96,37.1-20.481,14.237-7.532,18.678-8.547,17.577,4.343.682.485,1.742-.062,1.736.01.054-.7.128-1.636.184-2.338.007-.1.007-.186.011-.286a32.982,32.982,0,0,0-.259-7.17,15.65,15.65,0,0,0-3.581-7.687,23.486,23.486,0,0,0-8.507-5.667c-8.166-3.1-15.119.937-22.277,4.915C3523.642,4596.293,3510.988,4603.954,3497.353,4612.743Z" fill="#dceaf0" fill-rule="evenodd"/>
                  <path id="Path_10058" data-name="Path 10058" d="M3498.494,4613.64c2.4,1.595,7.733,4.555,11.775,6.726,13.212-8.752,29.016-17.291,43.321-24.386,3.133-1.554,7.368-3.324,9.5-2.759-2.106-4.936-12.239-9.628-18.879-6.121C3539.828,4589.416,3502.457,4610.967,3498.494,4613.64Z" fill="#e8f3f7" fill-rule="evenodd"/>
                  <path id="Path_10059" data-name="Path 10059" d="M3543.24,4585.479a34.542,34.542,0,0,1,6.647-2.4,16.786,16.786,0,0,1,11.815,1.58c.128.062.255.128.379.2l1.757,1.021a17.676,17.676,0,0,1,4.322,3.527,15.65,15.65,0,0,1,3.581,7.687c.56,3.294.325,22.81.221,26.094-5.662,7.264-17.59,10.169-22.708.736-.233-4.9-.475-11.462-.652-11.591-11.128,4.115-26.2,13-36.607,18.264a8.759,8.759,0,0,0,3.446-3.322l-.053-4.259c6.217-4.012,21.214-13.349,32.224-19.705,1.984-1.1,3.9-2.232,5.585-3.152,5.973-3.161,10.228-4.9,13.075-4.9C3564.53,4584.588,3551.822,4582.689,3543.24,4585.479Z" fill="#cfe0e8" fill-rule="evenodd"/>
                  <path id="Path_10060" data-name="Path 10060" d="M3497.353,4612.753a45.257,45.257,0,0,0,4.168,2.621l1.852,1.081c3.94,2.28,7.95,4.513,12.015,6.56.022,1.5.06,2.753.06,4.263a8.3,8.3,0,0,1-3.159,3.169,8.8,8.8,0,0,1-8.71.053l-1.868-1.083a8.64,8.64,0,0,1-4.231-7.108C3497.48,4619.123,3497.353,4615.939,3497.353,4612.753Z" fill="#e8f3f7" fill-rule="evenodd"/>
                </g>
              </g>
              <g id="Group_5311" data-name="Group 5311">
                <path id="Path_10061" data-name="Path 10061" d="M3441.017,4615.367,3545.81,4687.6l-9.256,4.437-57.519-35.672L3431.76,4619.8l2.728-2.47Z" fill="#2d394a" fill-rule="evenodd"/>
                <path id="Path_10062" data-name="Path 10062" d="M3438.439,4537.625l9.388-4.389-6.811,82.13-9.257,4.435-.583-9.308Z" fill="#283240" fill-rule="evenodd"/>
                <path id="Path_10063" data-name="Path 10063" d="M3434.37,4528.819l9.273-4.433c.018-.01.036-.018.056-.028,2.184-1.065,4.841-.02,6.691,1.239l-3.913,2.6-5.344,1.84C3438.79,4529.328,3436.515,4528.1,3434.37,4528.819Z" fill="#dceaf0" fill-rule="evenodd"/>
                <path id="Path_10064" data-name="Path 10064" d="M3543.968,4694.98l5.693-3.31,3.607-1.122c-.243,3.012-1.47,5.047-3.273,5.908l-9.273,4.434C3542.523,4700.028,3542.972,4696.607,3543.968,4694.98Z" fill="#cfe0e8" fill-rule="evenodd"/>
                <path id="Path_10065" data-name="Path 10065" d="M3542.282,4599.761l5.1-3.626,4.17-.807c5.179,3.591,8.652,11.466,8.191,17.237l-4.008,3.944-5.27.489C3549.861,4611.079,3546.87,4603.755,3542.282,4599.761Z" fill="#dceaf0" fill-rule="evenodd"/>
                <path id="Path_10066" data-name="Path 10066" d="M3440.429,4536.767l104.794,72.239-6.81,82.132-104.8-72.24Z" fill="#000002" fill-rule="evenodd"/>
                <path id="Path_10067" data-name="Path 10067" d="M3450.39,4525.6l101.168,69.731-9.275,4.433-14.805-8.609-86.344-61.118Z" fill="#e8f3f7" fill-rule="evenodd"/>
                <path id="Path_10068" data-name="Path 10068" d="M3550.438,4617l9.309-4.431-6.48,77.983-9.258,4.435-.447-20.741Z" fill="#cfe0e8" fill-rule="evenodd"/>
                <path id="Path_10069" data-name="Path 10069" d="M3536.554,4692.04l6.81-82.132-104.793-72.239-6.811,82.132,104.794,72.239ZM3431.1,4534.714c.5-6.053,4.984-8.154,10.035-4.68l101.149,69.727c5.031,3.467,8.692,11.182,8.188,17.237l-6.46,77.985c-.505,6.053-4.988,8.167-10.019,4.7l-101.151-69.731c-5.045-3.47-8.709-11.2-8.2-17.254Z" fill="#212934" fill-rule="evenodd"/>
                <path id="Path_10070" data-name="Path 10070" d="M3440.429,4536.767c32.044,57.783,59.759,100.47,97.985,154.371l-104.8-72.239Z" fill="#566e94" fill-rule="evenodd" opacity="0.5"/>
              </g>
            </g>
          </g>
          <g id="Group_5316" data-name="Group 5316">
            <g id="Group_5314" data-name="Group 5314">
              <path id="Path_10071" data-name="Path 10071" d="M3250.249,4746.688l75.4-19.11c8.469-.01,11.262,18.226,5.464,21.343l-73.858,33.109c-9.493,1.48-16.429-.307-19.627-4.179-3.807-4.611-2.728-12.034-.074-18.321C3239.986,4753.773,3243.649,4750.182,3250.249,4746.688Z" fill="#d2eefc" fill-rule="evenodd"/>
              <path id="Path_10072" data-name="Path 10072" d="M3333.628,4736.615c1.179,5.072.473,10.7-2.516,12.306l-73.858,33.109c-9.493,1.48-15.925-.778-19.627-4.179Z" fill="#b2d9ed" fill-rule="evenodd"/>
            </g>
            <path id="Path_10073" data-name="Path 10073" d="M3254.275,4655.007c25.06,15.431,2.879,99.961,17.881,122.274-11.405,3.449-32.036,5.689-36.194-.112-2.12-2.955-3.069-4.5-3.393-9.217-1.744-25.409-5.864-50.673-5.359-68.522C3227.778,4679.454,3233.3,4658.358,3254.275,4655.007Z" fill="#c3e6f7" fill-rule="evenodd"/>
            <path id="Path_10074" data-name="Path 10074" d="M3254.275,4655.007c25.06,15.431,2.879,99.961,17.881,122.274-2.546.77-16.83,3.439-23.659,3.4-1.847-.012-3.972.1-4.681-.291-4.48-24.348-17.771-64.237-16.261-86.734C3228.629,4677.634,3235.064,4658.579,3254.275,4655.007Z" fill="#b2d9ed" fill-rule="evenodd"/>
            <path id="Path_10075" data-name="Path 10075" d="M3250.636,4655.945c-10.542,4.363-16.493,11.925-18.8,22.634-6.63,30.73,14.576,72.989,16.483,106.979,1.027,18.286-8.383,48.8-7.244,80.081,1.223,33.62,63.947,66.453,94.705,46.664,3.084-1.982,12.077-46.223,12.034-46.353-5.357-16.644-15.127-38.692-14.776-54.748.9-41.229,20.044-75.429,15.766-96.181-1.8-8.717-7.367-16.118-13.89-21.356C3318.44,4680.431,3269.392,4648.179,3250.636,4655.945Z" fill="#d2eefc" fill-rule="evenodd"/>
            <path id="Path_10076" data-name="Path 10076" d="M3327.513,4915.964c11.593-2.911,14.672-10.649,18-21.536,4.365-14.275,5.353-32.374-.315-44.68-.495-1.077-1.143-2.661-1.873-4.622-3.5-9.423-8.91-27.6-8.625-40.582.9-41.229,18.273-68.769,14-89.523-1.8-8.717-7.367-16.118-13.89-21.356-6.608-5.312-18.861-13.027-32.322-19.892l.351,4.372c10.572,6.573,14.539,10.22,23.1,19.262-26.713,25.351-11.827,88.075-8.074,116.807C3319.09,4823.637,3325.205,4873.525,3327.513,4915.964Z" fill="#c3e6f7" fill-rule="evenodd"/>
            <g id="Group_5315" data-name="Group 5315">
              <path id="Path_10077" data-name="Path 10077" d="M3325.039,4657.486c-3.013,1.492-18.312-.675-17.865.692.273,8.467,3.327,12.816,3.114,28.022-17.872,12.747-42.754-1.983-40.968-11.142-.14-6.238,2.978-23.6-.164-28.679-3.561-5.759-10.881-12.177-13.473-20.908-4.145-13.955-2.636-29.457,10.373-39.791,23.763-18.869,54.149-5.442,61.848,22.155,1.5,5.39-2.747,8.309-2.6,12.916.03.9,1.223,1.843,2.191,3.844C3328.836,4627.362,3328.732,4655.656,3325.039,4657.486Z" fill="#e8a476" fill-rule="evenodd"/>
              <path id="Path_10078" data-name="Path 10078" d="M3324.882,4657.33c-3.013,1.491-18.155-.519-17.708.848.273,8.467,3.327,12.816,3.114,28.022-10.586-15.464-15.049-23.972-39.736-32.523-.07-3.122-.45-5.769-1.4-7.3-3.561-5.759-10.881-12.177-13.473-20.908-4.145-13.955-2.636-29.457,10.373-39.791,23.763-18.869,54.149-5.442,61.848,22.155,1.5,5.39-2.747,8.309-2.6,12.916.03.9,1.223,1.843,2.191,3.844C3328.836,4627.362,3328.575,4655.5,3324.882,4657.33Z" fill="#db9669" fill-rule="evenodd"/>
              <path id="Path_10079" data-name="Path 10079" d="M3324.413,4657.486c-1.6.858-8.2.293-13.122-1.595-3.1-1.191-5.346-3.85-5.827-4.045-2.039-.824-6.564-7.247.447-17.477,6.838-9.973-34.564,15.552-36.755,12.01-3.561-5.759-10.881-12.177-13.473-20.908-4.145-13.955-2.636-29.457,10.373-39.791,23.763-18.869,54.149-5.442,61.848,22.155,1.5,5.39-2.747,8.309-2.6,12.916.03.9,1.223,1.843,2.191,3.844C3328.836,4627.362,3328.044,4655.536,3324.413,4657.486Z" fill="#e8a476" fill-rule="evenodd"/>
              <path id="Path_10080" data-name="Path 10080" d="M3325.117,4657.368c-.646.387-4.362.238-6.207-.381-2.1-2.247-4.271-7.02-4.195-9.389.287-9.091,4.875-16.461,4.852-20.142-.048-7.778-2.634-3.9.333-12.311,2.278-6.45-.712-7.428-2.025-12.964a8.77,8.77,0,0,0,5.352-5.377,46.023,46.023,0,0,1,4.677,11.031c1.5,5.39-2.747,8.309-2.6,12.916.03.9,1.223,1.843,2.191,3.844C3328.836,4627.362,3328.651,4655.251,3325.117,4657.368Z" fill="#f1b287" fill-rule="evenodd"/>
              <path id="Path_10081" data-name="Path 10081" d="M3307.387,4634.668c-8.513-7.934-16.731,17.309-3.031,17.044C3299.01,4646.052,3303.071,4637.092,3307.387,4634.668Z" fill="#db9669" fill-rule="evenodd"/>
              <path id="Path_10082" data-name="Path 10082" d="M3307.344,4638.357c1.28-3.531.2-4.816-1.351-4.433-1.706.419-4.13,2.869-5.39,6.526-2.034,5.9.882,13.353,6.579,10.442-4.9.283-4.443-5.624-2.973-9.268C3305.206,4639.149,3306.751,4637.4,3307.344,4638.357Z" fill="#f1b287" fill-rule="evenodd"/>
              <path id="Path_10083" data-name="Path 10083" d="M3305.093,4639.952c1.369,2.554,1.845,4.069,1.4,4.947-.306.61-1.252,1.3-2.8-.192A8.8,8.8,0,0,1,3305.093,4639.952Z" fill="#db9669" fill-rule="evenodd"/>
              <path id="Path_10084" data-name="Path 10084" d="M3269.9,4649.842c-3.954-8.3-10.965-13.418-14.217-24.371-4.145-13.953-2.636-29.457,10.373-39.791,18.675-14.829,41.439-9.71,54.068,6.557.679,1.048-6.475,4.41-4.106,9.653,3.385,8.885,3.317,12.868,1.949,14.819-5.295,7.553-5.391,8.63-5.1,20.128l-2.989,2.418c-1.239-9.025-5.251-8.314-9.15-5.3-6.807,5.259-9.428,17.214-20.759,19.559A9.938,9.938,0,0,1,3269.9,4649.842Z" fill="#d5a550" fill-rule="evenodd"/>
              <path id="Path_10085" data-name="Path 10085" d="M3273.443,4616.531c.126,6.952.678,9.522,3.023,15.841.617-4,1.169-8.065,1.936-12.038q.388-2,.881-3.95c.936,5.927,1.618,11.922,2.36,17.881,1.343-6.336,2.819-12.718,3.9-19.093,2.373,3.643,3.045,11.231,3.945,15.907a129.426,129.426,0,0,0,2.871-17.565c2.547,2.582,3.263,9.436,3.968,13.2a136.6,136.6,0,0,0,2.519-14.654c1.6,2.342,2.087,7.891,2.552,10.791.932-3.457,2.44-7.954,2.454-11.429,2.568,4.471,2.643,9.637,3.134,14.632.99-5.2,2.5-11.109,2.057-16.357,1.128,1.763,2.389,6.972,3.06,9.209.266-3.987.627-8.03.588-12.023a20.758,20.758,0,0,1,4.636,10.187c1.881-3.991.985-11.867-1.423-17.211l-.281-.626-.685.045q-6.051.387-12.1.766-3.988.246-7.976.489c-1.295.076-2.741.216-4.016.218-.533-.02-1.193-.134-1.729-.2-1.293-.166-2.586-.345-3.877-.524q-5.613-.773-11.214-1.577c-5.656-.806-11.021-2.2-16.673-3.011-7.888,13.863-2,27.375,1.15,34.14-.276-4.384-.948-9.062-.293-13.369.332,3.775,2.489,8.754,3.828,12.446.011-4.4-.16-8.2.885-12.554-.208,6.115.824,9.72,3.865,15.063-.3-5.566-.88-9.955.673-15.713.2,7,1.5,11.26,3.59,17.684C3271.5,4627.622,3271.76,4621.81,3273.443,4616.531Z" fill="#fec25c" fill-rule="evenodd"/>
              <path id="Path_10086" data-name="Path 10086" d="M3255.426,4616.471c4.22-3.08,13.834-6.166,31.911-7.443,12.509-.884,21.208-3.763,28.808-7.816,11.438-6.1,9.64-18.718,4.808-23-9.333-8.28-33.456-7.418-49.512.85C3259.711,4585.1,3253.23,4597.074,3255.426,4616.471Z" fill="#d5a550" fill-rule="evenodd"/>
              <path id="Path_10087" data-name="Path 10087" d="M3255.426,4616.471c4.22-3.08,13.834-6.166,31.911-7.443,12.509-.884,21.208-3.763,28.808-7.816,11.438-6.1,9.64-18.718,4.808-23a16.661,16.661,0,0,0-3.022-2.1c-2.915,21.755-13.734,15.9-35.175,23.435,3.129-3.013,1.624-2.439,4.447-4.214-6.829,2.458-12.036,2.027-19.743,7.022,2.436-2.241,3.056-3.59,4.6-4.76A24.18,24.18,0,0,0,3256.986,4608l-.624-10.257C3255.175,4604.144,3255.48,4609.966,3255.426,4616.471Z" fill="#d5a550" fill-rule="evenodd"/>
              <path id="Path_10088" data-name="Path 10088" d="M3322.154,4595.875c-3.527,4.419-18.67-5.8-39.867-1.9,4.539-14,7.163-16.972,13.529-21.07,8.3-5.34,22.271-3.161,26.657,4.2C3326.672,4584.159,3324.991,4592.319,3322.154,4595.875Z" fill="#fec25c" fill-rule="evenodd"/>
              <path id="Path_10089" data-name="Path 10089" d="M3292.428,4591.853c6.482-6.406,16.28-5.256,25.05-2.887-5.068-4.8-15.518-3-20.563-.391,6.811-6.33,11.332-6.083,19.9-4.994-6.306-3.23-14.421-2.292-18.925,1.287,6.14-7.248,8.732-6.7,17.716-6.165-6.258-3.348-15.643-2.169-19.47,1.425,4.613-5.4,8.2-6.58,16.739-6.576-7.34-2.233-13.02-2.009-19.081,4.255,4.746-8.378,14.821-8.417,21.435-5.807a16.116,16.116,0,0,1,9.731,13.925c.144,5.046-1.941,8.213-3.387,8.535C3314.709,4596,3311.255,4590.392,3292.428,4591.853Z" fill="#d5a550" fill-rule="evenodd"/>
            </g>
            <path id="Path_10090" data-name="Path 10090" d="M3253.856,4660.474c-1.646,25.327,17.909,43.242,63.68,36.212-17.469,28.769-11.322,74.166-5.873,116.124,3.712,28.567,12.165,57.515,11.91,83.032-31.608,21.289-68.444-6.889-75.752-26.012-2.406-23.054,3.216-48.765,5.626-67.943,1.839-14.633.254-21.553-3.427-35.019C3236.355,4716.89,3218.623,4671.561,3253.856,4660.474Z" fill="#e0f5ff" fill-rule="evenodd"/>
            <path id="Path_10091" data-name="Path 10091" d="M3270.16,4656.939c-2.049-.291-3.8-1.06-5.968-1.548-4.89,1.732-5.743,13.62-3.9,17.867,3.932,9.07,14.887,16.249,30.661,19.122,17.956,3.271,39.648-.51,45.041,2.169.946.469-15.549-12.4-17.493-12.772C3300.7,4678.424,3266.989,4671.293,3270.16,4656.939Z" fill="#ebf9ff" fill-rule="evenodd"/>
            <path id="Path_10092" data-name="Path 10092" d="M3271.016,4656.594c-.471,9.249,24.381,15.944,38.8,10.637,3.831,1.95,7.563,10.529,7.643,14.58-17.329,4.132-43.838,2.039-50.464-11.515C3265.547,4667.329,3267.72,4660.285,3271.016,4656.594Z" fill="#1abac6" fill-rule="evenodd"/>
          </g>
          <g id="Group_5317" data-name="Group 5317">
            <path id="Path_10093" data-name="Path 10093" d="M3407.506,4780.446c4.266-4.853,11.384-7.447,16.9-10.55,4.962-2.793,13.211-7.8,10.9-14.867a9.137,9.137,0,0,0-4.281-4.664,14.888,14.888,0,0,0-10.023-2.224c-4.547.795-8.263,4.1-12.314,6.09-4.271,2.1-8.833,4.325-12.492,7.425-4.734,4.01,2.051,2.392-.482,12.159Z" fill="#e8a476" fill-rule="evenodd"/>
          </g>
          <g id="Group_5318" data-name="Group 5318">
            <path id="Path_10094" data-name="Path 10094" d="M3333.876,4734.111c4.266-4.853,11.384-7.446,16.9-10.55,4.962-2.792,13.21-7.8,10.9-14.867a9.148,9.148,0,0,0-4.282-4.664,14.891,14.891,0,0,0-10.023-2.224c-4.547.795-8.262,4.1-12.313,6.09-4.272,2.1-8.833,4.325-12.493,7.426-4.733,4.009,2.052,2.391-.481,12.158Z" fill="#e8a476" fill-rule="evenodd"/>
          </g>
          <path id="Path_10095" data-name="Path 10095" d="M3352.692,4717.581c4.9,21.969,2.514,58.578,2.834,83.818.131,10.053-5.234,22.36-15.224,26.179-12.03,4.6-18.271-4.356-19.456-15.109-1.967-17.828-4.377-41.206-5.1-55.674-.5-9.953-1.3-25.238,1.475-37.7,3.056-13.72,10.519-20.569,17.861-20.272C3341.989,4699.1,3349.754,4704.429,3352.692,4717.581Z" fill="#d2eefc" fill-rule="evenodd"/>
          <path id="Path_10096" data-name="Path 10096" d="M3333.217,4792.477l61.988-34.337c13.907-4.446,21.078,15.369,15,22.523l-62.9,44.977c-8.991,3.388-16.144,3.059-20.066-.076-4.671-3.735-5.132-11.222-3.819-17.919C3324.62,4801.512,3327.471,4797.247,3333.217,4792.477Z" fill="#d2eefc" fill-rule="evenodd"/>
          <path id="Path_10097" data-name="Path 10097" d="M3350.075,4795.724c2.831-4.357,5.1-10.777,5.171-15.448l39.959-22.136a11.291,11.291,0,0,1,10.9,1.835Z" fill="#e0f5ff" fill-rule="evenodd"/>
          <path id="Path_10098" data-name="Path 10098" d="M3410.848,4766.419c2.145,5.039,2.141,10.967-.642,14.244l-62.9,44.977c-9.114,4.575-15.831,4.184-19.753,1.048,7.406-1.826,22.314-15.762,32-22.778Z" fill="#c3e6f7" fill-rule="evenodd"/>
          <path id="Path_10099" data-name="Path 10099" d="M3352.692,4717.581c3.688,16.526,3.25,40.086,2.943,62.111-.476,3.258-5.307,11.209-9.1,13.718-.94-34.51-7.024-80.678-11.456-94.585C3341.989,4699.1,3349.754,4704.429,3352.692,4717.581Z" fill="#c3e6f7" fill-rule="evenodd"/>
          <path id="Path_10100" data-name="Path 10100" d="M3320.846,4812.469c-1.967-17.828-4.377-41.206-5.1-55.674-.5-9.953-1.3-25.238,1.475-37.7,2.292-10.286,7.058-16.709,12.4-19.155a605.907,605.907,0,0,1,6.8,83.872c.358,17.875.709,29.73-2.117,35C3331.32,4824.375,3324.916,4824.09,3320.846,4812.469Z" fill="#e0f5ff" fill-rule="evenodd"/>
          <g id="Group_5322" data-name="Group 5322">
            <g id="Group_5319" data-name="Group 5319">
              <path id="Path_10101" data-name="Path 10101" d="M3284.059,4871.821l7.39-.024c0,.156-.015,56.6-.048,56.74-.589,2.693-6.582,2.725-7.276.094C3284.083,4928.469,3284.059,4872,3284.059,4871.821Z" fill="#dceaf0" fill-rule="evenodd"/>
              <path id="Path_10102" data-name="Path 10102" d="M3288.259,4871.807l3.19-.01c0,.156-.015,56.6-.048,56.74-.27,1.232-1.672,1.907-3.178,2.025C3288.246,4920.718,3288.259,4876.248,3288.259,4871.807Z" fill="#cfe0e8" fill-rule="evenodd"/>
              <path id="Path_10103" data-name="Path 10103" d="M3284.989,4872.16l2.089-.009c0,.048,0,57.573-.012,57.616a2.684,2.684,0,0,1-2.207-1.271C3284.847,4928.447,3284.989,4872.213,3284.989,4872.16Z" fill="#f5fcff" fill-rule="evenodd"/>
            </g>
            <g id="Group_5320" data-name="Group 5320">
              <path id="Path_10104" data-name="Path 10104" d="M3222.564,4837.95l7.391-.022c0,.157-.017,56.6-.048,56.739-.59,2.692-6.582,2.727-7.276.094C3222.588,4894.6,3222.564,4838.133,3222.564,4837.95Z" fill="#dceaf0" fill-rule="evenodd"/>
              <path id="Path_10105" data-name="Path 10105" d="M3226.765,4837.938l3.19-.01c0,.157-.017,56.6-.048,56.739-.271,1.233-1.673,1.906-3.18,2.025C3226.751,4886.847,3226.765,4842.38,3226.765,4837.938Z" fill="#cfe0e8" fill-rule="evenodd"/>
              <path id="Path_10106" data-name="Path 10106" d="M3223.493,4838.289l2.091-.008c0,.048,0,57.573-.012,57.615a2.678,2.678,0,0,1-2.208-1.269C3223.352,4894.577,3223.493,4838.345,3223.493,4838.289Z" fill="#f5fcff" fill-rule="evenodd"/>
            </g>
            <g id="Group_5321" data-name="Group 5321">
              <path id="Path_10107" data-name="Path 10107" d="M3218.777,4812.983c4.928-16.331,13.826-24.273,27.893-31.07l.008,0-1.716,25.1c-11.3,6.03-16.357,23.992-9.524,34.392,4.654,7.081,18.751,12.132,28.726,15.364,3.6,1.165,46,10.071,82.648-.932,1.2,3.039,1.336,19.424,1.4,23.9-44.689,19.124-116.84,7.612-127.974-34.613C3219.284,4841.506,3218.777,4817.063,3218.777,4812.983Z" fill="#248ca6" fill-rule="evenodd"/>
              <path id="Path_10108" data-name="Path 10108" d="M3218.777,4812.983c4.928-16.331,14.43-27.567,27.873-31.088l.028.02c-9.872,20.187-26.606,36.1-11.24,59.49Z" fill="#17667a" fill-rule="evenodd"/>
              <path id="Path_10109" data-name="Path 10109" d="M3222.023,4812.973c2.015,16.356,8.285,29.563,36.571,40.873,21.433,8.571,60.381,6.724,90.121,1.355v24.31c-39.526,17.2-100.994,10.21-122.327-21.036,21.068,19.856,51.428,28.5,84.466,26.057a104.308,104.308,0,0,0,27.72-6.39c4.49-1.68,5.231-14.209-.622-12.78-31.632,7.732-103.959,3.581-117.621-38.738-1.354-4.19-1.472-8.99-.843-10.885C3220.3,4813.3,3222.138,4814.284,3222.023,4812.973Z" fill="#17667a" fill-rule="evenodd"/>
              <path id="Path_10110" data-name="Path 10110" d="M3243.045,4780.1c-32.382,19.227-32.553,50.437-.385,69.664,28.81,17.233,73.778,19.038,106.1,5.44l-3.919-4.417c-29.83,12.872-71.736,11.315-98.5-4.7-29.639-17.716-29.491-46.462.345-64.178l-3.155-2.089C3243.364,4779.918,3243.2,4780.009,3243.045,4780.1Z" fill="#248ca6" fill-rule="evenodd"/>
              <path id="Path_10111" data-name="Path 10111" d="M3243.749,4783.544c-30.588,18.17-30.751,47.661-.363,65.833,28.194,16.871,72.773,18.094,103.474,3.693l-2.022-2.28c-29.83,12.872-71.736,11.315-98.5-4.7-28.663-17.134-29.457-44.589-2.491-62.4C3243.811,4783.64,3243.779,4783.594,3243.749,4783.544Z" fill="#1b9ebf" fill-rule="evenodd"/>
              <path id="Path_10112" data-name="Path 10112" d="M3330.189,4878.213c-16.23,4.992-41.741,4.872-58.529.476-20.032-5.242-43.077-15.189-49.887-34.613l-.7-10.531c12.05,27.647,60.127,45.906,108.144,37.054C3335.138,4869.506,3334.434,4876.907,3330.189,4878.213Z" fill="#1b9ebf" fill-rule="evenodd"/>
            </g>
          </g>
          <path id="Path_10113" data-name="Path 10113" d="M3328.282,4611.373l6.335.549-.366,10.9-8.322-.735" fill="none" stroke="#292424" stroke-miterlimit="10" stroke-width="1.222" fill-rule="evenodd"/>
          <line id="Line_14" data-name="Line 14" x1="25.92" y2="21.202" transform="translate(3308.697 4611.922)" fill="none" stroke="#292424" stroke-miterlimit="10" stroke-width="1.222"/>
        </g>
      </g>
    </g>
    <g id="Group_5326" data-name="Group 5326">
      <path id="Path_10114" data-name="Path 10114" d="M3477.031,4619.872l13.278-.421-12.713-18.865Z" fill="#fff"/>
      <path id="Path_10115" data-name="Path 10115" d="M3504.123,4601.569l-14.137-10.032-1.785-1.266-24.587-17.449c-1.205-.855-2.224-.135-2.275,1.612l-.872,29.8-.006.176-.525,17.947a6.138,6.138,0,0,0,2.09,4.71l24.587,17.448,1.785,1.268,14.137,10.031c1.205.855,2.221.131,2.272-1.614l.526-17.946,0-.177.872-29.8A6.13,6.13,0,0,0,3504.123,4601.569Zm-36.685,17.475c-.044,1.485-.368,1.795-1.391,1.07l-2.562-1.819a2.93,2.93,0,0,1-1.271-2.959l.058-1.973c.043-1.484.366-1.8,1.388-1.072l2.563,1.818a2.937,2.937,0,0,1,1.273,2.96Zm.283-9.677c-.043,1.483-.368,1.8-1.391,1.07l-2.562-1.818a2.935,2.935,0,0,1-1.271-2.959l.058-1.974c.044-1.482.366-1.8,1.389-1.072l2.562,1.819a2.938,2.938,0,0,1,1.273,2.961Zm.285-9.715c-.044,1.483-.369,1.793-1.391,1.068l-2.563-1.819a2.93,2.93,0,0,1-1.27-2.956l.057-1.977c.044-1.482.367-1.8,1.389-1.071l2.563,1.818a2.937,2.937,0,0,1,1.272,2.961Zm.282-9.64c-.044,1.485-.368,1.8-1.391,1.07l-2.562-1.818a2.932,2.932,0,0,1-1.271-2.959l.057-1.974c.044-1.483.367-1.8,1.389-1.072l2.563,1.819a2.935,2.935,0,0,1,1.272,2.96Zm27.425,49.1c-.043,1.486-.366,1.8-1.391,1.07l-23.461-16.649a2.933,2.933,0,0,1-1.273-2.961l.908-31c.043-1.482.366-1.8,1.391-1.07l23.461,16.65a2.935,2.935,0,0,1,1.273,2.96Zm7.314,5.191c-.043,1.485-.366,1.8-1.391,1.07l-2.562-1.818a2.933,2.933,0,0,1-1.271-2.959l.058-1.975c.043-1.482.366-1.8,1.389-1.071l2.562,1.818a2.937,2.937,0,0,1,1.273,2.961Zm.283-9.677c-.043,1.483-.366,1.8-1.39,1.071l-2.563-1.819a2.936,2.936,0,0,1-1.271-2.958l.058-1.975c.044-1.482.366-1.8,1.389-1.071l2.562,1.818a2.937,2.937,0,0,1,1.274,2.961Zm.285-9.714c-.043,1.482-.366,1.794-1.391,1.067l-2.562-1.818a2.93,2.93,0,0,1-1.271-2.957l.058-1.976c.043-1.483.366-1.8,1.388-1.072l2.563,1.819a2.937,2.937,0,0,1,1.273,2.96Zm.282-9.641c-.043,1.486-.366,1.8-1.391,1.071l-2.562-1.819a2.933,2.933,0,0,1-1.271-2.959l.058-1.974c.043-1.482.366-1.8,1.389-1.072l2.562,1.819a2.937,2.937,0,0,1,1.273,2.961Z" fill="#fff"/>
    </g>
  </g>
</svg>
