<svg xmlns="http://www.w3.org/2000/svg" width="123" height="22" viewBox="0 0 123 22"><g><g><path fill="#231f20" d="M41.042 16.524h.597l1.577 5.333h-.508l-.434-1.554h-1.867l-.433 1.554h-.508zM42.17 19.9l-.822-3.003h-.015l-.821 3.003z"/></g><g><path fill="#231f20" d="M44.672 16.524h.478v3.832c0 .799.344 1.188 1.046 1.188.702 0 1.046-.389 1.046-1.188v-3.832h.478v3.84c0 1.12-.545 1.583-1.524 1.583s-1.524-.463-1.524-1.583z"/></g><g><path fill="#231f20" d="M51.94 17.891c0-.658-.306-1.054-.956-1.054-.65 0-1.009.426-1.009.956 0 1.591 2.585.717 2.585 2.593 0 1.03-.642 1.561-1.614 1.561-1 0-1.553-.537-1.553-1.583v-.158h.478v.202c0 .68.358 1.135 1.06 1.135.673 0 1.151-.336 1.151-1.083 0-1.584-2.585-.679-2.585-2.614 0-.837.546-1.412 1.472-1.412.993 0 1.45.508 1.45 1.457z"/></g><g><path fill="#231f20" d="M55.309 16.927h-1.375v-.403h3.228v.403h-1.375v4.93h-.478z"/></g><g><path fill="#231f20" d="M58.745 16.524h1.591c.89 0 1.382.508 1.382 1.337 0 .642-.254 1.218-.964 1.351v.016c.665.06.89.44.912 1.263l.015.582c.007.292.037.575.224.784h-.56c-.112-.187-.135-.463-.142-.746l-.015-.448c-.03-.942-.202-1.24-1.06-1.24h-.905v2.434h-.478zm.478 2.495h.822c.754 0 1.195-.344 1.195-1.046 0-.65-.276-1.046-1.143-1.046h-.874z"/></g><g><path fill="#231f20" d="M64.751 16.524h.597l1.577 5.333h-.508l-.434-1.554h-1.867l-.434 1.554h-.507zM65.88 19.9l-.822-3.003h-.015L64.22 19.9z"/></g><g><path fill="#231f20" d="M68.456 16.524h.478v4.93h2.21v.403h-2.688z"/></g><g><path fill="#231f20" d="M72.788 16.524h.478v5.333h-.478z"/></g><g><path fill="#231f20" d="M76.404 16.524h.598l1.576 5.333h-.508l-.433-1.554h-1.868l-.433 1.554h-.508zm1.128 3.376l-.822-3.003h-.015l-.821 3.003z"/></g><g><path fill="#231f20" d="M6.098.233a7.17 7.17 0 0 1 1.494.145c.45.097.836.255 1.157.474.322.22.571.512.748.876.176.365.265.815.265 1.35 0 .579-.13 1.06-.394 1.446-.262.386-.65.703-1.165.949.707.204 1.235.56 1.583 1.069.348.509.522 1.122.522 1.84 0 .578-.112 1.079-.337 1.503a2.933 2.933 0 0 1-.908 1.036 4.049 4.049 0 0 1-1.302.595 5.888 5.888 0 0 1-1.503.192H.699V.233zm-.321 4.645c.45 0 .82-.107 1.109-.321.29-.214.434-.563.434-1.045 0-.268-.048-.488-.144-.66a1.08 1.08 0 0 0-.386-.401 1.628 1.628 0 0 0-.555-.2 3.63 3.63 0 0 0-.65-.057H3.222v2.684zm.144 4.87c.246 0 .482-.024.707-.072.225-.05.423-.13.595-.241.171-.114.308-.266.41-.458.101-.194.152-.44.152-.74 0-.59-.166-1.01-.498-1.261-.332-.252-.77-.378-1.318-.378H3.221v3.15z"/></g><g><path fill="#231f20" d="M15.532 10.213c.46 0 .857-.115 1.189-.346.332-.23.536-.473.61-.73h2.01c-.322.996-.814 1.708-1.48 2.137-.663.428-1.467.642-2.41.642-.653 0-1.242-.104-1.767-.313a3.671 3.671 0 0 1-1.334-.892 4.03 4.03 0 0 1-.844-1.382 5.064 5.064 0 0 1-.297-1.767c0-.622.102-1.2.305-1.737.204-.535.493-.999.868-1.389a4.085 4.085 0 0 1 1.342-.925 4.306 4.306 0 0 1 1.728-.337c.707 0 1.323.137 1.848.41.525.273.956.64 1.294 1.101.337.461.58.985.73 1.575.15.59.204 1.205.162 1.848H13.49c.032.74.22 1.275.563 1.607.342.332.835.498 1.478.498zm-.145-5.319c-.364 0-.666.061-.908.184a1.742 1.742 0 0 0-.578.458 1.66 1.66 0 0 0-.305.58 2.636 2.636 0 0 0-.105.545h3.713c-.108-.578-.298-1.017-.571-1.317-.273-.3-.688-.45-1.246-.45z"/></g><g><path fill="#231f20" d="M22.956.233v4.323h.048c.29-.482.66-.833 1.11-1.052.45-.219.888-.33 1.317-.33.61 0 1.111.083 1.503.249.39.166.7.397.924.692.225.294.382.653.474 1.076.091.424.136.893.136 1.406v5.111h-2.282V7.015c0-.685-.107-1.197-.32-1.535-.216-.337-.596-.506-1.142-.506-.622 0-1.072.185-1.35.555-.279.369-.418.977-.418 1.824v4.355h-2.282V.233z"/></g><g><path fill="#231f20" d="M29.947 5.955c.032-.537.166-.98.401-1.334.236-.354.536-.638.901-.852a3.891 3.891 0 0 1 1.23-.458 6.99 6.99 0 0 1 1.373-.137c.418 0 .841.03 1.27.088.428.06.82.175 1.173.346.353.172.642.41.867.716.225.304.338.71.338 1.213V9.86c0 .375.021.733.064 1.076.043.344.118.601.225.771h-2.314a3.457 3.457 0 0 1-.161-.803 2.976 2.976 0 0 1-1.285.788 5.197 5.197 0 0 1-1.51.224c-.397 0-.767-.047-1.11-.144a2.54 2.54 0 0 1-.9-.45 2.088 2.088 0 0 1-.603-.772c-.144-.31-.217-.679-.217-1.108 0-.472.083-.86.25-1.165.165-.306.38-.549.643-.732.262-.18.562-.318.9-.41a9.762 9.762 0 0 1 1.02-.217c.343-.053.68-.095 1.012-.128.332-.032.627-.08.884-.145.257-.064.461-.157.611-.28.15-.123.22-.303.21-.539 0-.247-.04-.442-.122-.586a.872.872 0 0 0-.32-.338 1.274 1.274 0 0 0-.467-.16 3.79 3.79 0 0 0-.57-.04c-.45 0-.804.095-1.06.288-.258.193-.409.514-.45.965zm5.271 1.687a1.01 1.01 0 0 1-.362.2c-.144.05-.3.09-.466.121-.166.033-.34.06-.522.08a11.4 11.4 0 0 0-.546.08 4.377 4.377 0 0 0-.507.13 1.508 1.508 0 0 0-.434.216 1.046 1.046 0 0 0-.297.346 1.11 1.11 0 0 0-.112.53c0 .204.037.375.112.515a.871.871 0 0 0 .305.33 1.3 1.3 0 0 0 .45.168c.172.032.348.048.531.048.45 0 .798-.075 1.044-.225.247-.15.43-.329.547-.538.118-.209.19-.42.217-.635.026-.215.04-.386.04-.514z"/></g><g><path fill="#231f20" d="M41.164 11.708l-2.844-8.31h2.394l1.752 5.674h.032l1.752-5.673h2.266l-2.813 8.309z"/></g><g><path fill="#231f20" d="M47.368 2.114h2.282V.233h-2.282zm2.282 1.285h-2.282v8.309h2.282z"/></g><g><path fill="#231f20" d="M52.205 4.372c.374-.38.825-.675 1.35-.884.524-.21 1.114-.313 1.767-.313.654 0 1.246.104 1.776.313.531.209.983.504 1.358.884.375.38.664.84.868 1.382a5.11 5.11 0 0 1 .305 1.808 5.05 5.05 0 0 1-.305 1.8 3.923 3.923 0 0 1-.868 1.374c-.375.38-.827.672-1.358.876a4.931 4.931 0 0 1-1.776.305c-.653 0-1.243-.102-1.767-.305a3.798 3.798 0 0 1-1.35-.876 3.895 3.895 0 0 1-.868-1.374c-.204-.536-.305-1.136-.305-1.8 0-.665.101-1.267.305-1.808a3.866 3.866 0 0 1 .868-1.382zm1.534 5.014c.156.252.362.453.62.602.256.15.578.226.963.226.386 0 .71-.076.973-.226.262-.15.471-.35.626-.602.156-.251.266-.536.33-.852a5.002 5.002 0 0 0 0-1.952 2.497 2.497 0 0 0-.33-.853 1.834 1.834 0 0 0-.626-.602c-.263-.156-.587-.233-.973-.233-.385 0-.707.077-.964.233a1.867 1.867 0 0 0-.619.602 2.517 2.517 0 0 0-.329.853 5.002 5.002 0 0 0 0 1.952c.064.316.174.6.33.852z"/></g><g><path fill="#231f20" d="M66.572 11.708V10.55h-.048c-.29.482-.665.83-1.125 1.045a3.324 3.324 0 0 1-1.414.32c-.61 0-1.112-.08-1.503-.24a2.16 2.16 0 0 1-.924-.683 2.672 2.672 0 0 1-.474-1.077 6.633 6.633 0 0 1-.137-1.406V3.399h2.282v4.694c0 .685.107 1.197.322 1.534.214.338.594.507 1.141.507.621 0 1.071-.186 1.35-.555.278-.37.417-.977.417-1.824V3.399h2.282v8.309z"/></g><g><path fill="#231f20" d="M72.486 3.399v1.543h.032c.107-.257.252-.495.434-.715a3 3 0 0 1 1.382-.924 2.72 2.72 0 0 1 .836-.129c.15 0 .316.027.498.08v2.122a4.532 4.532 0 0 0-.82-.081c-.417 0-.771.071-1.06.209-.29.14-.522.33-.7.571a2.281 2.281 0 0 0-.377.844 4.585 4.585 0 0 0-.112 1.044v3.745h-2.282V3.399z"/></g><g><path fill="#231f20" d="M85.069 11.708l-1.944-7.811h-.033l-1.912 7.81h-2.555L75.587.234h2.524l1.815 7.81h.033l1.992-7.81h2.363l1.961 7.908h.032l1.88-7.908h2.475l-3.086 11.475z"/></g><g><path fill="#231f20" d="M91.418 4.372c.373-.38.823-.675 1.35-.884.523-.21 1.113-.313 1.766-.313.654 0 1.246.104 1.776.313.531.209.983.504 1.358.884.375.38.664.84.868 1.382a5.11 5.11 0 0 1 .305 1.808 5.05 5.05 0 0 1-.304 1.8 3.923 3.923 0 0 1-.869 1.374c-.375.38-.827.672-1.358.876a4.931 4.931 0 0 1-1.776.305c-.653 0-1.243-.102-1.767-.305a3.79 3.79 0 0 1-1.35-.876 3.895 3.895 0 0 1-.867-1.374c-.204-.536-.306-1.136-.306-1.8 0-.665.102-1.267.306-1.808a3.866 3.866 0 0 1 .868-1.382zm1.533 5.014c.157.252.363.453.62.602.256.15.578.226.963.226.386 0 .71-.076.973-.226.262-.15.471-.35.626-.602.157-.251.267-.536.33-.852a5.002 5.002 0 0 0 0-1.952 2.497 2.497 0 0 0-.33-.853 1.834 1.834 0 0 0-.625-.602c-.264-.156-.588-.233-.974-.233-.385 0-.707.077-.964.233a1.867 1.867 0 0 0-.618.602 2.517 2.517 0 0 0-.33.853 5.002 5.002 0 0 0 0 1.952c.065.316.175.6.33.852z"/></g><g><path fill="#231f20" d="M102.329 3.399v1.543h.032c.107-.257.252-.495.434-.715a3 3 0 0 1 1.382-.924 2.72 2.72 0 0 1 .836-.129c.15 0 .316.027.498.08v2.122a4.532 4.532 0 0 0-.819-.081c-.418 0-.772.071-1.061.209-.289.14-.522.33-.699.571a2.281 2.281 0 0 0-.378.844 4.585 4.585 0 0 0-.112 1.044v3.745h-2.282V3.399z"/></g><g><path fill="#231f20" d="M108.741.233v6.155l2.877-2.989h2.7l-3.134 3.054 3.487 5.255h-2.764l-2.282-3.712-.884.851v2.861h-2.282V.233z"/></g><g><path fill="#231f20" d="M117.234 9.643c.103.177.234.321.395.434.16.112.344.195.553.25.21.052.427.08.652.08.16 0 .328-.02.505-.057.178-.038.339-.097.483-.177.144-.08.265-.187.361-.32a.85.85 0 0 0 .145-.508c0-.343-.228-.599-.683-.77-.456-.172-1.09-.344-1.905-.515a10.845 10.845 0 0 1-.972-.266 3.31 3.31 0 0 1-.844-.4 1.968 1.968 0 0 1-.595-.628c-.148-.252-.223-.56-.223-.924 0-.536.103-.975.312-1.318.21-.343.485-.613.828-.812a3.637 3.637 0 0 1 1.158-.418c.427-.08.867-.12 1.317-.12.45 0 .886.043 1.31.13.422.084.8.23 1.132.433.332.203.608.473.828.811.22.338.351.764.394 1.278h-2.17c-.032-.44-.198-.737-.498-.892-.3-.155-.654-.233-1.06-.233-.129 0-.268.007-.419.024-.15.016-.286.051-.409.105a.823.823 0 0 0-.314.233.616.616 0 0 0-.128.41c0 .203.075.37.225.497.15.13.345.234.586.314.241.081.517.153.828.216.311.065.627.135.948.21.332.075.656.166.972.273.316.107.598.25.844.426s.445.396.595.66c.15.262.225.586.225.971 0 .546-.11 1.004-.33 1.374a2.63 2.63 0 0 1-.859.892 3.532 3.532 0 0 1-1.214.474 7.075 7.075 0 0 1-2.804-.008 3.726 3.726 0 0 1-1.23-.483 2.747 2.747 0 0 1-.884-.89c-.23-.37-.356-.834-.377-1.39h2.17c0 .245.05.457.152.634z"/></g></g></svg>