<svg xmlns="http://www.w3.org/2000/svg" width="114" height="39" viewBox="0 0 114 39"><g><g><path fill="#02477f" d="M16.176 16.261L9.964 27.8l-2.88-11.538H.698l5.586 22.427h4.891L23.19 16.261z"/></g><g><path fill="#02477f" d="M57.015 22.431c0 .562-.101 1.566-.302 3.008L54.85 38.3h-7.23l1.905-12.989c.087-.635.13-1.146.13-1.537 0-1.515-.534-2.273-1.601-2.273-1.068 0-2.482.781-4.243 2.34l-2.057 14.458h-7.208l1.819-12.359c.187-1.343.282-2.195.282-2.555 0-.62-.113-1.09-.336-1.408-.224-.316-.625-.476-1.202-.476-.62 0-1.267.232-1.938.693-.67.463-1.503 1.176-2.5 2.143L28.68 38.298h-7.231l3.247-22.036h7.188l-.412 2.575c.736-.735 1.689-1.414 2.857-2.034a7.797 7.797 0 0 1 3.703-.932c2.496 0 4.27 1.076 5.325 3.225a14.188 14.188 0 0 1 1.774-1.492c.664-.477 1.435-.883 2.316-1.224.88-.339 1.84-.509 2.88-.509 2.539 0 4.289.7 5.249 2.091.96 1.392 1.439 2.882 1.439 4.47z"/></g><g><path fill="#02477f" d="M69.388 11.218c0-.577-.15-1.125-.455-1.644A3.37 3.37 0 0 0 67.7 8.338a3.218 3.218 0 0 0-1.645-.454c-.908 0-1.692.33-2.348.985-.657.656-.985 1.44-.985 2.35 0 .894.328 1.67.985 2.326.656.656 1.44.986 2.348.986.925 0 1.711-.326 2.36-.976a3.18 3.18 0 0 0 .974-2.337zm-7.728 5.044l-3.139 22.035h7.318l3.138-22.035z"/></g><g><path fill="#02477f" d="M83.925 31.328c-.908.591-1.654 1.007-2.239 1.243-.585.24-1.108.36-1.57.36-.938 0-1.659-.35-2.164-1.052-.505-.699-.758-1.548-.758-2.543 0-1.458.303-2.814.91-4.07.606-1.256 1.445-2.25 2.521-2.987a6.174 6.174 0 0 1 3.561-1.104h1.342zm9.396-14.763a90.021 90.021 0 0 0-3.723-.54c-.866-.104-1.977-.152-3.334-.152-3.218 0-5.924.421-8.118 1.265-2.193.844-3.892 1.948-5.098 3.313-1.206 1.363-2.04 2.791-2.51 4.285-.468 1.494-.703 2.956-.703 4.384 0 1.717.324 3.304.974 4.761.648 1.458 1.572 2.625 2.77 3.497 1.198.874 2.575 1.31 4.134 1.31 1.227 0 2.233-.214 3.02-.64.786-.424 1.598-1.006 2.435-1.74l-.346 1.99h7.165z"/></g><g><path fill="#28a0d9" d="M109.33.795l-9.363 11.54 13.88-5.311z"/></g><g><path fill="#9dc765" d="M99.246 27.676l.357-14.86 7.121 13.05z"/></g><g><path fill="#02477f" d="M89.05 1.37l10.137 10.87-14.213-4.347z"/></g></g></svg>