<?xml version="1.0" encoding="UTF-8"?>
<svg width="379px" height="57px" viewBox="0 0 379 57" version="1.1" xmlns="http://www.w3.org/2000/svg" xmlns:xlink="http://www.w3.org/1999/xlink">
    <title>Group 226</title>
    <g id="Page-1" stroke="none" stroke-width="1" fill="none" fill-rule="evenodd">
        <g id="Group-226">
            <path d="M25.7676,7.4804 L4.0266,7.4784 L4.0266,7.7194 L4.0266,18.7494 C4.0266,20.5984 4.2966,22.4444 4.8196,24.2354 L4.8166,24.2424 L4.8596,24.3834 L4.9686,24.7424 C4.9686,24.7424 4.9776,24.7354 4.9826,24.7304 C5.3216,25.7794 5.7426,26.7974 6.2466,27.7594 L6.2406,27.7674 L6.3286,27.9314 L6.4706,28.1954 L6.4776,28.1874 C8.4266,31.6694 11.3716,34.2904 14.8146,35.5624 L14.8966,35.5924 L14.9766,35.5624 C18.4246,34.2894 21.3716,31.6694 23.3146,28.1874 L23.3226,28.1954 L23.4666,27.9314 L23.5526,27.7674 L23.5466,27.7594 C24.0516,26.8014 24.4736,25.7814 24.8116,24.7274 C24.8176,24.7354 24.8266,24.7424 24.8266,24.7424 L24.9336,24.3834 L24.9766,24.2424 L24.9726,24.2354 C25.4956,22.4314 25.7676,20.5874 25.7676,18.7494 L25.7676,7.4804 Z" id="Fill-4" fill="#000000"></path>
            <path d="M27.748,29.9559 L28.19,27.1579 L26.909,25.9959 C27.041,25.6349 27.168,25.2699 27.286,24.8859 C27.666,25.2349 28.959,26.4089 29.142,26.5769 C28.764,27.7719 28.244,28.9509 27.748,29.9559 L27.748,29.9559 Z M25.875,30.8049 C23.502,34.6299 20.149,37.4269 16.185,38.8959 C16.185,38.8959 15.04,39.3169 14.896,39.3709 C14.754,39.3169 13.61,38.8949 13.61,38.8949 C9.647,37.4289 6.294,34.6299 3.917,30.8009 C3.238,29.7019 2.658,28.5109 2.171,27.2809 C2.376,27.0939 3.616,25.9659 3.981,25.6349 C4.477,27.0489 5.09,28.3809 5.841,29.5839 C7.94,32.9759 10.895,35.4529 14.39,36.7459 C14.391,36.7459 14.896,36.9299 14.896,36.9299 L15.403,36.7459 C18.895,35.4549 21.853,32.9759 23.954,29.5839 C24.705,28.3759 25.318,27.0419 25.811,25.6349 C26.177,25.9659 27.417,27.0939 27.623,27.2809 C27.128,28.5279 26.549,29.7179 25.875,30.8049 L25.875,30.8049 Z M27.123,30.8899 C26.997,30.7739 26.82,30.6139 26.623,30.4319 C26.623,30.4299 26.625,30.4259 26.627,30.4229 C26.914,29.9209 27.188,29.4099 27.442,28.8769 L27.123,30.8899 Z M2.668,30.8899 L2.35,28.8699 C2.603,29.4039 2.881,29.9209 3.173,30.4299 C2.977,30.6059 2.792,30.7759 2.668,30.8899 L2.668,30.8899 Z M0.649,26.5769 C0.834,26.4089 2.127,25.2339 2.508,24.8859 C2.625,25.2699 2.756,25.6329 2.887,25.9919 L1.603,27.1579 L2.043,29.9509 C1.546,28.9399 1.026,27.7599 0.649,26.5769 L0.649,26.5769 Z M27.063,24.0429 L26.959,24.4069 C26.834,24.8399 26.693,25.2599 26.549,25.6659 L25.608,24.8129 L25.495,25.1559 C24.998,26.6539 24.347,28.0599 23.555,29.3319 C21.509,32.6329 18.635,35.0449 15.243,36.2999 C15.243,36.2999 15.001,36.3879 14.896,36.4239 C14.792,36.3879 14.548,36.2999 14.548,36.2999 C11.158,35.0429 8.282,32.6329 6.237,29.3299 C5.45,28.0659 4.796,26.6589 4.298,25.1559 L4.184,24.8129 L3.917,25.0549 L3.25,25.6589 C3.104,25.2549 2.96,24.8429 2.834,24.4069 L2.731,24.0439 L2.452,24.2989 L0.106,26.4329 L0.152,26.5779 C0.71,28.3869 1.626,30.2399 2.298,31.4719 L2.439,31.7369 L3.409,30.8529 C3.446,30.9189 3.478,30.9879 3.518,31.0519 C5.952,34.9719 9.386,37.8369 13.449,39.3409 L14.896,39.8769 L16.345,39.3409 C20.408,37.8349 23.843,34.9719 26.274,31.0549 C26.313,30.9909 26.347,30.9189 26.386,30.8559 L27.349,31.7369 L27.491,31.4719 C28.161,30.2509 29.077,28.4099 29.641,26.5769 L29.685,26.4329 L27.063,24.0429 Z" id="Fill-6" fill="#000000"></path>
            <path d="M4.2231,29.0624 L4.7481,28.9584 L4.7491,28.9604 L4.3861,29.3574 L4.2231,29.0624 Z M4.6741,29.5414 L5.0531,29.1214 L5.0221,28.9964 C4.9541,28.9234 4.8841,28.8544 4.8161,28.7764 C4.4191,28.8464 3.8111,28.9494 3.5291,28.9604 L3.4551,28.8734 L3.3771,28.9174 C3.4161,28.9824 3.4541,29.0444 3.4901,29.1104 C3.5331,29.1864 3.5721,29.2674 3.6121,29.3444 L3.6891,29.2994 L3.6531,29.1874 L4.0601,29.0934 L4.2731,29.4814 C4.1981,29.5774 4.0661,29.7104 3.9831,29.7864 L3.9061,29.6974 L3.8291,29.7364 C3.8831,29.8354 3.9391,29.9274 3.9921,30.0264 C4.0411,30.1144 4.0891,30.2094 4.1381,30.3014 L4.2141,30.2554 L4.1801,30.1464 C4.2521,30.0394 4.4921,29.7484 4.6741,29.5414 L4.6741,29.5414 Z" id="Fill-8" fill="#000000"></path>
            <path d="M6.5239,31.5126 L6.5959,31.4576 C6.5469,31.3936 6.4969,31.3316 6.4489,31.2666 C6.4009,31.2006 6.3569,31.1306 6.3129,31.0636 L6.2399,31.1156 L6.2949,31.2336 C6.1089,31.3886 5.6089,31.7606 5.6089,31.7606 L5.6079,31.7576 C5.7319,31.4066 5.8819,31.0046 6.0149,30.6446 C5.9679,30.5836 5.9219,30.5256 5.8789,30.4646 C5.8349,30.4036 5.7959,30.3406 5.7519,30.2806 L5.6789,30.3286 L5.7349,30.4476 C5.6459,30.5226 5.5559,30.5986 5.4379,30.6846 L5.1189,30.9166 C5.0009,31.0016 4.9029,31.0676 4.7999,31.1286 L4.7089,31.0366 L4.6359,31.0896 C4.6859,31.1566 4.7359,31.2216 4.7839,31.2866 C4.8309,31.3536 4.8749,31.4186 4.9209,31.4866 L4.9919,31.4336 L4.9379,31.3196 C5.1219,31.1626 5.3989,30.9566 5.6199,30.7936 L5.6239,30.7936 C5.4839,31.1606 5.3559,31.5376 5.2119,31.9246 C5.2449,31.9676 5.2779,32.0096 5.3089,32.0526 C5.3399,32.0946 5.3689,32.1436 5.3899,32.1766 C5.4949,32.0906 5.6299,31.9866 5.7959,31.8666 L6.1139,31.6326 C6.2319,31.5476 6.3279,31.4826 6.4309,31.4216 L6.5239,31.5126 Z" id="Fill-10" fill="#000000"></path>
            <path d="M6.6133,32.6073 C6.2983,32.9013 6.3313,33.3363 6.5803,33.6093 C6.7503,33.7973 6.9443,33.9113 7.2623,33.9373 L7.2843,33.7723 C7.1023,33.7473 6.9713,33.6743 6.8843,33.5763 C6.6893,33.3673 6.6773,33.0653 6.9163,32.8443 C7.1573,32.6193 7.4093,32.6933 7.5593,32.8583 C7.6333,32.9373 7.6933,33.0653 7.7143,33.1713 L7.6423,33.2583 L7.7073,33.3363 C7.7823,33.2663 7.9023,33.1953 8.0003,33.1613 C7.9303,32.9953 7.8473,32.8683 7.7293,32.7363 C7.4003,32.3773 6.9373,32.3053 6.6133,32.6073" id="Fill-12" fill="#000000"></path>
            <path d="M9.1494,35.0497 C8.9574,35.2787 8.6924,35.3477 8.4924,35.1807 C8.2934,35.0107 8.3114,34.7357 8.5044,34.5017 C8.6954,34.2727 8.9614,34.2037 9.1604,34.3727 C9.3624,34.5387 9.3404,34.8167 9.1494,35.0497 M9.2844,34.2237 C8.8994,33.8997 8.4674,33.9507 8.2144,34.2597 C7.9214,34.6147 7.9894,35.0107 8.3694,35.3297 C8.7524,35.6537 9.1854,35.5997 9.4384,35.2907 C9.7324,34.9377 9.6634,34.5397 9.2844,34.2237" id="Fill-14" fill="#000000"></path>
            <path d="M11.1504,36.0546 C11.0654,36.1906 10.9304,36.1876 10.7634,36.0806 C10.7264,36.0596 10.6914,36.0326 10.6664,36.0076 L10.7244,35.9106 C10.7854,35.8126 10.8424,35.7276 10.8814,35.6766 C10.9334,35.6996 10.9714,35.7196 11.0464,35.7676 C11.1854,35.8546 11.2134,35.9506 11.1504,36.0546 M11.2504,35.6786 C11.1674,35.6266 11.0824,35.5786 11.0004,35.5286 C10.9174,35.4786 10.8334,35.4306 10.7564,35.3796 C10.6874,35.3366 10.6184,35.2896 10.5514,35.2446 L10.5044,35.3226 L10.5974,35.4076 C10.5464,35.5166 10.4894,35.6176 10.4114,35.7416 L10.2034,36.0796 C10.1264,36.2016 10.0604,36.2996 9.9874,36.3956 L9.8694,36.3466 L9.8214,36.4236 C9.9164,36.4796 10.0064,36.5336 10.0974,36.5906 C10.1844,36.6436 10.2744,36.7056 10.3634,36.7656 L10.4094,36.6906 L10.3174,36.6026 C10.3684,36.4976 10.4264,36.3946 10.5024,36.2676 L10.5694,36.1596 L10.6584,36.2176 C10.6794,36.4266 10.7004,36.7726 10.7164,37.0206 C10.8394,37.0796 10.9674,37.1446 11.0864,37.2236 L11.1354,37.1466 L11.0954,37.0936 C11.0734,36.9976 11.0084,36.5016 10.9884,36.3666 C11.1754,36.4466 11.3724,36.4136 11.4774,36.2446 C11.5744,36.0866 11.5784,35.8876 11.2504,35.6786" id="Fill-16" fill="#000000"></path>
            <path d="M12.8799,37.3622 L12.5749,37.2232 L12.9339,36.8222 L12.9379,36.8222 L12.8799,37.3622 Z M13.2759,36.7692 L13.1759,36.6862 C13.0809,36.6702 12.9859,36.6592 12.8819,36.6332 C12.6059,36.9332 12.1749,37.3802 11.9579,37.5572 L11.8479,37.5332 L11.8109,37.6132 C11.8779,37.6452 11.9469,37.6732 12.0139,37.7032 C12.0929,37.7382 12.1729,37.7792 12.2509,37.8172 L12.2879,37.7352 L12.1909,37.6652 L12.4619,37.3472 L12.8629,37.5292 C12.8589,37.6492 12.8299,37.8362 12.8109,37.9502 L12.6929,37.9212 L12.6569,38.0002 C12.7559,38.0482 12.8589,38.0882 12.9559,38.1342 C13.0499,38.1772 13.1439,38.2222 13.2359,38.2692 L13.2729,38.1872 L13.1779,38.1192 C13.1739,37.9882 13.1959,37.6102 13.2229,37.3372 L13.2759,36.7692 Z" id="Fill-18" fill="#000000"></path>
            <path d="M17.2168,37.8436 C17.1588,37.7396 17.1058,37.6346 17.0468,37.4996 L16.8878,37.1366 C16.8298,37.0006 16.7888,36.8946 16.7528,36.7796 L16.8568,36.7056 L16.8218,36.6246 C16.7238,36.6696 16.6278,36.7186 16.5328,36.7606 C16.4348,36.8026 16.3358,36.8426 16.2368,36.8866 L16.2728,36.9686 L16.3968,36.9396 C16.4548,37.0416 16.5078,37.1446 16.5658,37.2836 L16.7238,37.6446 C16.7808,37.7796 16.8228,37.8876 16.8608,37.9996 L16.7558,38.0756 L16.7908,38.1566 C16.8888,38.1106 16.9838,38.0646 17.0828,38.0206 C17.1768,37.9766 17.2768,37.9376 17.3768,37.8956 L17.3398,37.8146 L17.2168,37.8436 Z" id="Fill-20" fill="#000000"></path>
            <path d="M19.689,36.4823 C19.62,36.3883 19.555,36.2873 19.481,36.1633 L19.277,35.8213 C19.203,35.6973 19.149,35.5923 19.099,35.4843 L19.195,35.3993 L19.149,35.3223 C19.07,35.3733 18.992,35.4243 18.91,35.4743 C18.829,35.5213 18.745,35.5713 18.662,35.6173 C18.71,35.7953 18.845,36.4853 18.873,36.6293 C18.722,36.5243 18.225,36.0913 18.086,35.9653 C18.009,36.0153 17.929,36.0673 17.85,36.1153 C17.771,36.1643 17.688,36.2093 17.607,36.2553 L17.652,36.3353 L17.762,36.2953 L17.858,36.4583 C17.953,36.6163 18.261,37.1503 18.334,37.3023 L18.238,37.3893 L18.285,37.4633 C18.352,37.4213 18.418,37.3783 18.488,37.3363 C18.557,37.2933 18.627,37.2553 18.699,37.2143 L18.654,37.1363 L18.535,37.1833 C18.464,37.0863 18.399,36.9913 18.325,36.8643 L18.207,36.6653 C18.106,36.4983 18.04,36.3783 18.006,36.3143 L18.01,36.3123 C18.518,36.7373 18.786,36.9613 18.919,37.0803 L19.105,36.9703 L18.869,35.7933 L18.871,35.7923 C18.91,35.8493 18.982,35.9673 19.083,36.1363 L19.199,36.3353 C19.272,36.4613 19.328,36.5623 19.379,36.6693 L19.283,36.7563 L19.329,36.8353 C19.417,36.7763 19.506,36.7203 19.598,36.6623 C19.689,36.6063 19.784,36.5543 19.877,36.5013 L19.833,36.4243 L19.689,36.4823 Z" id="Fill-22" fill="#000000"></path>
            <path d="M21.0244,35.4823 C20.9414,35.3943 20.8644,35.3083 20.7724,35.1943 L20.5934,34.9693 C20.5184,34.8753 20.4184,34.7523 20.3504,34.6503 C20.3744,34.6133 20.4134,34.5663 20.4634,34.5243 C20.6034,34.4113 20.7364,34.4253 20.8264,34.5403 C20.9184,34.6543 20.9424,34.7913 20.8054,34.9023 C20.7774,34.9263 20.7474,34.9463 20.7204,34.9613 L20.7854,35.1333 C20.8424,35.1023 20.9034,35.0603 20.9604,35.0143 C21.2514,34.7763 21.2594,34.4713 21.0984,34.2743 C20.9454,34.0863 20.7314,34.0693 20.4914,34.2683 C20.4324,34.3163 20.3654,34.3743 20.2814,34.4463 C20.1954,34.5203 20.1164,34.5873 20.0544,34.6393 C19.9934,34.6893 19.9154,34.7483 19.8304,34.8163 L19.8864,34.8853 L19.9994,34.8243 C20.0824,34.9073 20.1584,34.9963 20.2514,35.1113 L20.4984,35.4193 C20.5894,35.5353 20.6584,35.6273 20.7234,35.7273 L20.6414,35.8263 L20.6964,35.8963 C20.7784,35.8243 20.8594,35.7553 20.9414,35.6853 C21.0224,35.6203 21.1074,35.5563 21.2344,35.4553 L21.1774,35.3843 L21.0244,35.4823 Z" id="Fill-24" fill="#000000"></path>
            <path d="M22.1748,33.6874 L21.9238,33.2104 L21.9248,33.2074 L22.4068,33.4464 L22.1748,33.6874 Z M23.2148,33.4184 C23.0928,33.3804 22.7478,33.2294 22.5008,33.1114 L21.9908,32.8664 L21.8808,32.9354 C21.8348,33.0204 21.7898,33.1044 21.7308,33.1964 C21.9148,33.5604 22.1848,34.1214 22.2768,34.3884 L22.2158,34.4844 L22.2798,34.5454 C22.3298,34.4934 22.3778,34.4354 22.4288,34.3834 C22.4898,34.3234 22.5558,34.2614 22.6168,34.1984 L22.5548,34.1354 L22.4548,34.2054 L22.2498,33.8384 L22.5588,33.5174 C22.6678,33.5634 22.8328,33.6544 22.9308,33.7104 L22.8648,33.8144 L22.9278,33.8764 C23.0028,33.7974 23.0768,33.7134 23.1528,33.6344 C23.2248,33.5604 23.2998,33.4884 23.3738,33.4164 L23.3088,33.3524 L23.2148,33.4184 Z" id="Fill-26" fill="#000000"></path>
            <path d="M23.7163,31.7372 C23.6913,31.7682 23.6613,31.8002 23.6333,31.8252 L23.5433,31.7572 C23.4533,31.6872 23.3773,31.6222 23.3283,31.5792 C23.3563,31.5272 23.3813,31.4922 23.4333,31.4202 C23.5323,31.2902 23.6303,31.2702 23.7253,31.3422 C23.8543,31.4402 23.8353,31.5782 23.7163,31.7372 L23.7163,31.7372 Z M24.7453,31.4962 C24.6493,31.5072 24.1533,31.5272 24.0183,31.5352 C24.1123,31.3542 24.0993,31.1552 23.9443,31.0332 C23.7973,30.9192 23.6013,30.8982 23.3663,31.2112 C23.3083,31.2882 23.2513,31.3662 23.1943,31.4432 C23.1373,31.5232 23.0833,31.6012 23.0263,31.6762 C22.9773,31.7422 22.9243,31.8062 22.8723,31.8692 L22.9433,31.9232 L23.0373,31.8372 C23.1393,31.8992 23.2323,31.9672 23.3493,32.0572 L23.6633,32.2982 C23.7763,32.3852 23.8653,32.4642 23.9523,32.5442 L23.8943,32.6592 L23.9643,32.7132 C24.0283,32.6262 24.0903,32.5392 24.1533,32.4532 C24.2193,32.3682 24.2853,32.2862 24.3533,32.1992 L24.2833,32.1452 L24.1883,32.2322 C24.0873,32.1712 23.9923,32.1042 23.8773,32.0152 L23.7763,31.9362 L23.8403,31.8532 C24.0463,31.8492 24.3913,31.8612 24.6373,31.8692 C24.7063,31.7532 24.7833,31.6292 24.8723,31.5152 L24.8013,31.4612 L24.7453,31.4962 Z" id="Fill-28" fill="#000000"></path>
            <path d="M25.624,30.0009 C25.491,30.2299 25.218,30.2549 24.962,30.1019 C24.703,29.9479 24.593,29.6949 24.726,29.4669 C24.857,29.2379 25.132,29.2149 25.389,29.3679 C25.645,29.5219 25.757,29.7749 25.624,30.0009 M25.579,29.0389 C25.186,28.8039 24.811,28.9379 24.559,29.3679 C24.305,29.8019 24.428,30.2269 24.77,30.4289 C25.164,30.6629 25.54,30.5309 25.791,30.1019 C26.045,29.6639 25.921,29.2409 25.579,29.0389" id="Fill-30" fill="#000000"></path>
            <path d="M14.8965,37.6698 C14.7275,37.6698 14.5935,37.8098 14.5935,37.9768 C14.5935,38.1498 14.7275,38.2928 14.8965,38.2928 C15.0655,38.2928 15.2055,38.1498 15.2055,37.9768 C15.2055,37.8098 15.0655,37.6698 14.8965,37.6698" id="Fill-32" fill="#000000"></path>
            <path d="M3.6035,27.911 C3.7725,27.911 3.9105,27.772 3.9105,27.6 C3.9105,27.431 3.7725,27.288 3.6035,27.288 C3.4345,27.288 3.2945,27.431 3.2945,27.6 C3.2945,27.772 3.4345,27.911 3.6035,27.911" id="Fill-34" fill="#000000"></path>
            <path d="M26.2466,27.911 C26.4176,27.911 26.5546,27.772 26.5546,27.6 C26.5546,27.431 26.4176,27.288 26.2466,27.288 C26.0766,27.288 25.9366,27.431 25.9366,27.6 C25.9366,27.772 26.0766,27.911 26.2466,27.911" id="Fill-36" fill="#000000"></path>
            <path d="M19.1616,26.9882 L18.5006,26.9802 L18.1766,27.5602 L17.8546,26.9802 L17.1946,26.9882 L17.5336,26.4162 L17.1946,25.8382 L17.8546,25.8512 L18.1766,25.2692 L18.5006,25.8512 L19.1616,25.8382 L18.8216,26.4162 L19.1616,26.9882 Z M16.7916,29.3802 L16.2126,29.0842 L15.6346,29.3802 L15.7386,28.7272 L15.2786,28.2672 L15.9196,28.1642 L16.2126,27.5812 L16.5106,28.1642 L17.1486,28.2672 L16.6916,28.7272 L16.7916,29.3802 Z M13.8196,23.2282 L14.5576,23.3842 L14.8966,22.7042 L15.2366,23.3842 L15.9736,23.2282 L15.6596,23.9202 L16.2416,24.4082 L15.5076,24.5882 L15.4936,25.3512 L14.8966,24.8872 L14.2986,25.3512 L14.2876,24.5882 L13.5516,24.4082 L14.1376,23.9202 L13.8196,23.2282 Z M15.9946,33.4092 L15.2456,33.1212 L14.9156,33.8642 L14.5866,33.1212 L13.8386,33.4092 L14.1166,32.6452 L13.3896,32.3032 L14.1166,31.9702 L13.8386,31.2082 L14.5866,31.4882 L14.9156,30.7502 L15.2456,31.4882 L15.9946,31.2082 L15.7156,31.9702 L16.4376,32.3052 L15.7156,32.6452 L15.9946,33.4092 Z M11.8896,28.0602 L11.8756,28.8192 L11.2786,28.3532 L10.6806,28.8192 L10.6656,28.0602 L9.9356,27.8742 L10.5176,27.3912 L10.2016,26.6972 L10.9396,26.8512 L11.2786,26.1742 L11.6176,26.8512 L12.3556,26.6972 L12.0396,27.3912 L12.6216,27.8742 L11.8896,28.0602 Z" id="Fill-38" fill="#FFFFFF"></path>
            <path d="M5.3608,9.8095 L5.7988,9.8095 L5.7728,9.9215 C5.7688,9.9335 5.7688,9.9485 5.7688,9.9595 L5.7688,15.2745 C6.2828,15.2745 8.8928,15.2675 9.0358,15.2675 C9.0938,15.3675 9.1598,15.3825 9.3048,15.3825 C9.4518,15.3825 9.5218,15.3675 9.5818,15.2675 C9.7348,15.2675 12.5758,15.2745 12.8388,15.2745 L12.8388,9.9595 C12.8388,9.9485 12.8368,9.9335 12.8348,9.9245 L12.8078,9.8095 L13.1298,9.8095 L13.2508,9.8095 L13.2508,15.6835 L9.7438,15.6835 C9.6698,15.8295 9.5208,15.9415 9.3048,15.9415 C9.0898,15.9415 8.9398,15.8295 8.8648,15.6835 L5.3608,15.6835 L5.3608,9.8095 Z" id="Fill-40" fill="#FFFFFF"></path>
            <path d="M8.8877,10.3436 C8.7627,10.2966 8.6037,10.2576 8.3937,10.2486 C8.0837,10.2396 7.7497,10.3276 7.3957,10.4146 C7.0867,10.4966 6.7667,10.5746 6.4417,10.6006 L6.4417,10.3536 C6.7417,10.3316 7.0427,10.2526 7.3367,10.1766 C7.7077,10.0826 8.0557,9.9936 8.4027,10.0046 C8.5857,10.0116 8.7447,10.0376 8.8877,10.0826 L8.8877,10.3436 Z M8.8877,10.9436 C8.7617,10.8946 8.6037,10.8556 8.3937,10.8496 C8.0837,10.8406 7.7497,10.9246 7.3967,11.0146 C7.0867,11.0956 6.7667,11.1786 6.4417,11.2006 L6.4417,10.9526 C6.7417,10.9316 7.0427,10.8556 7.3367,10.7796 C7.7077,10.6826 8.0557,10.5916 8.4017,10.6026 C8.5857,10.6096 8.7437,10.6346 8.8877,10.6826 L8.8877,10.9436 Z M8.8877,11.5376 C8.7627,11.4896 8.6037,11.4536 8.3937,11.4466 C8.0847,11.4356 7.7527,11.5196 7.4017,11.6136 C7.0907,11.6946 6.7687,11.7756 6.4417,11.7976 L6.4417,11.5496 C6.7427,11.5276 7.0457,11.4496 7.3417,11.3726 C7.7097,11.2776 8.0567,11.1896 8.4027,11.2006 C8.5857,11.2076 8.7447,11.2346 8.8877,11.2776 L8.8877,11.5376 Z M8.8877,12.1396 C8.7627,12.0916 8.6037,12.0556 8.3937,12.0466 C8.0837,12.0356 7.7507,12.1196 7.3967,12.2116 C7.0867,12.2926 6.7687,12.3716 6.4417,12.3946 L6.4417,12.1496 C6.7417,12.1276 7.0437,12.0516 7.3377,11.9736 C7.7077,11.8776 8.0557,11.7866 8.4027,11.8006 C8.5857,11.8066 8.7447,11.8316 8.8877,11.8786 L8.8877,12.1396 Z M8.8877,12.7326 C8.7627,12.6846 8.6037,12.6496 8.3937,12.6456 C8.0847,12.6356 7.7537,12.7196 7.4017,12.8096 C7.0907,12.8926 6.7687,12.9746 6.4417,12.9946 L6.4417,12.7486 C6.7437,12.7246 7.0467,12.6496 7.3417,12.5736 C7.7097,12.4796 8.0587,12.3866 8.3997,12.4006 C8.5847,12.4046 8.7437,12.4296 8.8877,12.4766 L8.8877,12.7326 Z M8.8877,13.3346 C8.7627,13.2816 8.6037,13.2466 8.3937,13.2406 C8.0837,13.2306 7.7507,13.3186 7.3977,13.4086 C7.0867,13.4896 6.7687,13.5696 6.4417,13.5906 L6.4417,13.3466 C6.7417,13.3226 7.0437,13.2426 7.3377,13.1696 C7.7077,13.0736 8.0557,12.9846 8.4017,12.9946 C8.5857,13.0036 8.7437,13.0286 8.8877,13.0736 L8.8877,13.3346 Z M8.8877,13.9326 C8.7617,13.8846 8.6037,13.8476 8.3937,13.8436 C8.0837,13.8306 7.7507,13.9166 7.3987,14.0076 C7.0887,14.0866 6.7687,14.1666 6.4417,14.1916 L6.4417,13.9446 C6.7417,13.9226 7.0457,13.8476 7.3377,13.7716 C7.7077,13.6736 8.0557,13.5836 8.4007,13.5966 C8.5847,13.6006 8.7437,13.6246 8.8877,13.6726 L8.8877,13.9326 Z M8.3937,9.3566 C8.0817,9.3426 7.7457,9.4316 7.3917,9.5236 C6.9837,9.6266 6.5627,9.7326 6.1287,9.7046 L6.1287,9.8096 L6.1287,14.8646 C6.5307,14.8916 6.9377,14.7936 7.3327,14.6916 C7.7047,14.5936 8.0557,14.5026 8.4007,14.5166 C8.7197,14.5266 8.9677,14.6016 9.1847,14.7406 L9.1847,9.8096 L9.1847,9.6266 C9.0317,9.4966 8.8117,9.3686 8.3937,9.3566 L8.3937,9.3566 Z" id="Fill-42" fill="#FFFFFF"></path>
            <path d="M9.7246,10.0829 C9.8676,10.0379 10.0266,10.0109 10.2106,10.0049 C10.5566,9.9939 10.9056,10.0829 11.2756,10.1779 C11.5706,10.2529 11.8706,10.3319 12.1706,10.3529 L12.1706,10.6009 C11.8456,10.5749 11.5256,10.4969 11.2166,10.4149 C10.8626,10.3279 10.5286,10.2389 10.2186,10.2489 C10.0086,10.2579 9.8496,10.2969 9.7246,10.3439 L9.7246,10.0829 Z M9.7246,10.6819 C9.8686,10.6349 10.0266,10.6089 10.2116,10.6029 C10.5566,10.5929 10.9056,10.6819 11.2756,10.7789 C11.5706,10.8539 11.8706,10.9329 12.1706,10.9529 L12.1706,11.2009 C11.8456,11.1789 11.5256,11.0959 11.2156,11.0149 C10.8626,10.9249 10.5286,10.8399 10.2186,10.8499 C10.0096,10.8559 9.8506,10.8949 9.7246,10.9429 L9.7246,10.6819 Z M9.7246,11.2769 C9.8676,11.2339 10.0266,11.2079 10.2106,11.2009 C10.5556,11.1889 10.9026,11.2769 11.2706,11.3729 C11.5676,11.4499 11.8686,11.5259 12.1706,11.5499 L12.1706,11.7979 C11.8436,11.7749 11.5226,11.6939 11.2106,11.6139 C10.8596,11.5199 10.5286,11.4349 10.2186,11.4459 C10.0086,11.4539 9.8496,11.4889 9.7246,11.5389 L9.7246,11.2769 Z M9.7246,11.8799 C9.8676,11.8309 10.0266,11.8069 10.2106,11.8009 C10.5566,11.7869 10.9056,11.8779 11.2746,11.9739 C11.5696,12.0519 11.8706,12.1279 12.1706,12.1489 L12.1706,12.3949 C11.8436,12.3719 11.5256,12.2919 11.2156,12.2119 C10.8606,12.1189 10.5286,12.0359 10.2186,12.0469 C10.0086,12.0549 9.8496,12.0919 9.7246,12.1399 L9.7246,11.8799 Z M9.7246,12.4759 C9.8686,12.4299 10.0276,12.4039 10.2126,12.3999 C10.5536,12.3869 10.9026,12.4789 11.2706,12.5739 C11.5666,12.6479 11.8676,12.7249 12.1706,12.7489 L12.1706,12.9949 C11.8436,12.9749 11.5226,12.8929 11.2106,12.8099 C10.8596,12.7199 10.5286,12.6349 10.2186,12.6459 C10.0086,12.6479 9.8496,12.6849 9.7246,12.7319 L9.7246,12.4759 Z M9.7246,13.0739 C9.8686,13.0279 10.0266,13.0029 10.2116,12.9949 C10.5566,12.9839 10.9056,13.0739 11.2746,13.1709 C11.5696,13.2439 11.8696,13.3219 12.1706,13.3459 L12.1706,13.5909 C11.8436,13.5689 11.5256,13.4899 11.2136,13.4089 C10.8606,13.3179 10.5286,13.2299 10.2186,13.2399 C10.0086,13.2469 9.8496,13.2819 9.7246,13.3339 L9.7246,13.0739 Z M9.7246,13.6729 C9.8686,13.6249 10.0276,13.6009 10.2116,13.5969 C10.5566,13.5829 10.9056,13.6739 11.2746,13.7709 C11.5686,13.8469 11.8696,13.9229 12.1706,13.9439 L12.1706,14.1909 C11.8436,14.1669 11.5246,14.0869 11.2136,14.0069 C10.8606,13.9169 10.5286,13.8309 10.2186,13.8439 C10.0096,13.8469 9.8506,13.8849 9.7246,13.9329 L9.7246,13.6729 Z M9.4276,9.6259 L9.4276,9.8099 L9.4276,14.7409 C9.6446,14.6019 9.8926,14.5259 10.2116,14.5169 C10.5566,14.5029 10.9076,14.5939 11.2806,14.6899 C11.6746,14.7939 12.0806,14.8919 12.4836,14.8629 L12.4836,9.8099 L12.4836,9.7049 C12.0496,9.7319 11.6296,9.6259 11.2206,9.5229 C10.8656,9.4319 10.5316,9.3439 10.2196,9.3559 C9.7996,9.3689 9.5806,9.4959 9.4276,9.6259 L9.4276,9.6259 Z" id="Fill-44" fill="#FFFFFF"></path>
            <path d="M23.9468,12.4345 C23.9468,12.5915 23.9108,12.7395 23.8418,12.8715 C23.8008,12.9555 23.7418,13.0255 23.6768,13.0885 C23.5838,13.1315 23.4978,13.1845 23.4208,13.2495 C23.4158,13.2125 23.4098,13.1735 23.4098,13.1405 C23.4098,12.9845 23.4438,12.8335 23.5128,12.7015 C23.6018,12.5285 23.7508,12.3975 23.9298,12.3015 C23.9358,12.3435 23.9468,12.3895 23.9468,12.4345" id="Fill-46" fill="#FFFFFF"></path>
            <path d="M22.1733,15.411 L22.1733,15.411 C22.3633,15.383 22.5523,15.423 22.7343,15.511 C22.5873,15.651 22.4183,15.754 22.2283,15.783 C22.0393,15.81 21.8453,15.769 21.6653,15.682 C21.8133,15.542 21.9833,15.438 22.1733,15.411" id="Fill-48" fill="#FFFFFF"></path>
            <path d="M21.2383,15.7069 C21.2373,15.6919 21.2343,15.6769 21.2343,15.6609 C21.2343,15.4809 21.2823,15.3109 21.3733,15.1649 L21.3743,15.1639 C21.4723,15.0019 21.6263,14.8899 21.8053,14.8129 C21.8053,14.8289 21.8093,14.8459 21.8093,14.8629 C21.8093,15.0409 21.7643,15.2089 21.6743,15.3529 C21.5733,15.5169 21.4213,15.6289 21.2383,15.7069" id="Fill-50" fill="#FFFFFF"></path>
            <path d="M21.9614,14.6893 C22.0274,14.5713 22.1204,14.4723 22.2314,14.3833 C22.2534,14.4723 22.2844,14.5603 22.2844,14.6493 C22.2844,14.7473 22.2674,14.8423 22.2384,14.9353 C22.1964,15.0653 22.1164,15.1803 22.0134,15.2793 C21.9734,15.2913 21.9344,15.3043 21.8954,15.3203 C21.8934,15.3123 21.8914,15.3033 21.8874,15.2933 C21.9654,15.1103 21.9914,14.9023 21.9614,14.6893" id="Fill-52" fill="#FFFFFF"></path>
            <path d="M22.3657,14.2206 C22.4027,14.0926 22.4707,13.9706 22.5627,13.8576 C22.6437,14.0066 22.6967,14.1616 22.6967,14.3216 C22.6967,14.3456 22.6957,14.3696 22.6937,14.3936 C22.6827,14.5316 22.6327,14.6626 22.5567,14.7826 C22.5167,14.8046 22.4787,14.8276 22.4437,14.8546 C22.4397,14.8466 22.4347,14.8396 22.4317,14.8326 C22.4657,14.6346 22.4447,14.4246 22.3657,14.2206" id="Fill-54" fill="#FFFFFF"></path>
            <path d="M22.6494,13.661 C22.6534,13.528 22.6924,13.396 22.7564,13.265 C22.8884,13.415 22.9844,13.578 23.0124,13.763 C23.0174,13.803 23.0214,13.846 23.0214,13.887 C23.0214,13.983 22.9994,14.076 22.9674,14.171 C22.9344,14.201 22.9044,14.232 22.8774,14.266 C22.8694,14.259 22.8624,14.251 22.8564,14.244 C22.8424,14.043 22.7744,13.846 22.6494,13.661" id="Fill-56" fill="#FFFFFF"></path>
            <path d="M22.7979,13.0565 C22.7859,12.9955 22.7779,12.9335 22.7779,12.8695 C22.7779,12.7975 22.7979,12.7275 22.8129,12.6585 C22.9759,12.7655 23.1069,12.9045 23.1739,13.0725 C23.2159,13.1785 23.2369,13.2945 23.2369,13.4145 C23.2369,13.4335 23.2319,13.4525 23.2299,13.4715 C23.2029,13.5095 23.1799,13.5505 23.1579,13.5905 C23.1519,13.5875 23.1439,13.5805 23.1349,13.5765 C23.0759,13.3835 22.9629,13.2055 22.7979,13.0565" id="Fill-58" fill="#FFFFFF"></path>
            <path d="M22.8071,12.4481 C22.7491,12.3211 22.7191,12.1851 22.7161,12.0371 C22.9041,12.1091 23.0671,12.2131 23.1711,12.3641 C23.2491,12.4731 23.2961,12.5991 23.3201,12.7331 C23.3031,12.7791 23.2881,12.8261 23.2781,12.8761 C23.2691,12.8711 23.2611,12.8671 23.2521,12.8631 C23.1511,12.6921 22.9981,12.5481 22.8071,12.4481" id="Fill-60" fill="#FFFFFF"></path>
            <path d="M23.228,12.1434 C23.218,12.1414 23.207,12.1404 23.197,12.1384 C23.061,11.9974 22.883,11.8944 22.675,11.8354 C22.596,11.7314 22.54,11.6054 22.502,11.4674 C22.695,11.4924 22.873,11.5504 23.007,11.6714 C23.109,11.7634 23.183,11.8804 23.237,12.0174 C23.231,12.0594 23.228,12.1004 23.228,12.1434" id="Fill-62" fill="#FFFFFF"></path>
            <path d="M22.9951,11.4559 C22.8271,11.3479 22.6281,11.2889 22.4071,11.2819 C22.3031,11.1959 22.2161,11.0809 22.1461,10.9519 C22.3391,10.9319 22.5261,10.9589 22.6911,11.0449 C22.8121,11.1049 22.9111,11.2049 22.9911,11.3199 C22.9961,11.3649 23.0041,11.4089 23.0151,11.4539 C23.0081,11.4549 23.0001,11.4549 22.9951,11.4559" id="Fill-64" fill="#FFFFFF"></path>
            <path d="M22.6104,15.2802 C22.5164,15.2542 22.4204,15.2372 22.3224,15.2372 C22.4314,15.0762 22.5674,14.9442 22.7364,14.8752 L22.7374,14.8752 C22.9144,14.8012 23.1104,14.8002 23.3044,14.8412 C23.1954,15.0092 23.0544,15.1472 22.8784,15.2182 C22.7924,15.2562 22.7024,15.2732 22.6104,15.2802" id="Fill-66" fill="#FFFFFF"></path>
            <path d="M23.1421,14.6444 C23.0401,14.6394 22.9411,14.6464 22.8431,14.6674 C22.9131,14.4834 23.0161,14.3244 23.1641,14.2194 L23.1651,14.2194 C23.3181,14.1044 23.5071,14.0474 23.7121,14.0424 C23.6421,14.2434 23.5381,14.4104 23.3831,14.5214 C23.3091,14.5744 23.2271,14.6154 23.1421,14.6444" id="Fill-68" fill="#FFFFFF"></path>
            <path d="M23.7056,13.7245 C23.6456,13.7965 23.5736,13.8545 23.4926,13.9005 C23.3966,13.9195 23.3046,13.9505 23.2206,13.9925 C23.2446,13.8005 23.3056,13.6215 23.4246,13.4785 C23.5486,13.3335 23.7226,13.2405 23.9186,13.1885 C23.8956,13.3955 23.8316,13.5805 23.7056,13.7245" id="Fill-70" fill="#FFFFFF"></path>
            <path d="M23.8032,11.7977 C23.8032,11.8697 23.7962,11.9427 23.7792,12.0137 C23.7562,12.1037 23.7192,12.1857 23.6682,12.2627 C23.5882,12.3257 23.5172,12.3987 23.4562,12.4817 C23.4172,12.3667 23.3902,12.2537 23.3902,12.1437 C23.3902,12.0687 23.3992,11.9947 23.4172,11.9227 C23.4642,11.7347 23.5782,11.5717 23.7302,11.4317 C23.7732,11.5527 23.8032,11.6767 23.8032,11.7977" id="Fill-72" fill="#FFFFFF"></path>
            <path d="M23.145,11.1854 C23.145,10.9974 23.22,10.8144 23.334,10.6404 C23.445,10.8104 23.516,10.9934 23.516,11.1904 L23.516,11.1934 C23.515,11.2844 23.497,11.3724 23.467,11.4574 C23.405,11.5384 23.354,11.6224 23.314,11.7124 C23.211,11.5484 23.145,11.3744 23.145,11.1954 L23.145,11.1854 Z" id="Fill-74" fill="#FFFFFF"></path>
            <path d="M22.7651,9.9569 C22.9171,10.0979 23.0291,10.2619 23.0731,10.4489 C23.0881,10.5159 23.0951,10.5839 23.0951,10.6539 C23.0951,10.6729 23.0941,10.6929 23.0921,10.7139 C23.0461,10.8099 23.0131,10.9079 22.9961,11.0059 C22.8561,10.8749 22.7531,10.7199 22.7091,10.5379 C22.6951,10.4699 22.6871,10.3999 22.6871,10.3319 C22.6871,10.2059 22.7181,10.0799 22.7651,9.9569" id="Fill-76" fill="#FFFFFF"></path>
            <path d="M22.644,10.8261 C22.636,10.8311 22.627,10.8341 22.619,10.8361 C22.429,10.7691 22.22,10.7581 22.008,10.8001 C21.888,10.7411 21.78,10.6531 21.685,10.5421 C21.872,10.4751 22.062,10.4601 22.237,10.5021 C22.368,10.5361 22.485,10.6061 22.59,10.7001 C22.607,10.7461 22.624,10.7861 22.644,10.8261" id="Fill-78" fill="#FFFFFF"></path>
            <path d="M22.0605,9.4354 C22.2375,9.5334 22.3855,9.6644 22.4705,9.8394 C22.5095,9.9184 22.5365,10.0034 22.5505,10.0894 C22.5295,10.1914 22.5185,10.2974 22.5255,10.4004 C22.3575,10.3004 22.2185,10.1714 22.1355,10.0084 C22.0735,9.8784 22.0415,9.7334 22.0415,9.5854 C22.0415,9.5354 22.0535,9.4854 22.0605,9.4354" id="Fill-80" fill="#FFFFFF"></path>
            <path d="M21.8511,9.8095 C21.8721,9.8245 21.8921,9.8445 21.9111,9.8625 C21.9291,9.9385 21.9531,10.0115 21.9871,10.0805 L21.9881,10.0825 C22.0241,10.1555 22.0701,10.2195 22.1221,10.2845 C21.9431,10.2735 21.7761,10.2165 21.6371,10.1175 C21.4781,10.0015 21.3711,9.8325 21.3011,9.6365 C21.5051,9.6415 21.6931,9.6985 21.8511,9.8095" id="Fill-82" fill="#FFFFFF"></path>
            <path d="M18.5137,15.2938 C18.5127,15.3038 18.5097,15.3128 18.5077,15.3198 C18.4687,15.3048 18.4297,15.2908 18.3887,15.2788 C18.2867,15.1788 18.2047,15.0648 18.1637,14.9348 C18.1327,14.8428 18.1177,14.7468 18.1177,14.6488 C18.1177,14.5608 18.1457,14.4728 18.1717,14.3838 C18.2817,14.4718 18.3757,14.5708 18.4407,14.6898 C18.4107,14.9018 18.4377,15.1098 18.5137,15.2938" id="Fill-84" fill="#FFFFFF"></path>
            <path d="M17.9941,11.2811 C17.7751,11.2881 17.5751,11.3461 17.4091,11.4551 C17.4011,11.4541 17.3941,11.4541 17.3881,11.4531 C17.3981,11.4101 17.4071,11.3661 17.4131,11.3201 C17.4911,11.2041 17.5891,11.1061 17.7111,11.0431 C17.8761,10.9601 18.0611,10.9311 18.2561,10.9501 C18.1861,11.0811 18.1001,11.1961 17.9941,11.2811" id="Fill-86" fill="#FFFFFF"></path>
            <path d="M17.9707,14.8319 C17.9677,14.8399 17.9617,14.8479 17.9577,14.8539 C17.9227,14.8279 17.8857,14.8049 17.8467,14.7819 C17.7707,14.6629 17.7207,14.5309 17.7077,14.3939 C17.7067,14.3699 17.7057,14.3459 17.7057,14.3209 C17.7057,14.1609 17.7587,14.0069 17.8387,13.8559 C17.9297,13.9709 17.9997,14.0919 18.0357,14.2209 C17.9567,14.4249 17.9357,14.6339 17.9707,14.8319" id="Fill-88" fill="#FFFFFF"></path>
            <path d="M17.3911,13.7626 C17.4191,13.5786 17.5141,13.4136 17.6461,13.2656 C17.7081,13.3976 17.7481,13.5296 17.7531,13.6606 C17.6291,13.8456 17.5591,14.0426 17.5441,14.2426 C17.5371,14.2516 17.5311,14.2586 17.5251,14.2676 C17.4971,14.2326 17.4681,14.2006 17.4351,14.1696 C17.4031,14.0756 17.3831,13.9816 17.3831,13.8866 C17.3831,13.8456 17.3861,13.8036 17.3911,13.7626" id="Fill-90" fill="#FFFFFF"></path>
            <path d="M17.2661,13.5761 C17.2601,13.5811 17.2521,13.5881 17.2441,13.5921 C17.2241,13.5511 17.1991,13.5091 17.1721,13.4701 C17.1691,13.4511 17.1661,13.4331 17.1661,13.4141 C17.1661,13.2941 17.1861,13.1791 17.2301,13.0711 C17.2951,12.9041 17.4281,12.7641 17.5891,12.6571 C17.6041,12.7261 17.6251,12.7981 17.6251,12.8691 C17.6251,12.9341 17.6171,12.9951 17.6041,13.0561 C17.4401,13.2061 17.3271,13.3841 17.2661,13.5761" id="Fill-92" fill="#FFFFFF"></path>
            <path d="M17.3955,11.6718 C17.5295,11.5508 17.7065,11.4898 17.9005,11.4668 C17.8625,11.6068 17.8055,11.7308 17.7275,11.8348 C17.5185,11.8948 17.3425,11.9958 17.2065,12.1388 C17.1955,12.1398 17.1855,12.1428 17.1745,12.1448 C17.1745,12.1018 17.1705,12.0588 17.1665,12.0178 C17.2185,11.8808 17.2925,11.7648 17.3955,11.6718" id="Fill-94" fill="#FFFFFF"></path>
            <path d="M17.2305,12.3651 C17.3345,12.2131 17.4965,12.1091 17.6855,12.0371 C17.6835,12.1831 17.6525,12.3211 17.5945,12.4461 C17.4055,12.5481 17.2525,12.6901 17.1505,12.8621 C17.1415,12.8681 17.1335,12.8711 17.1245,12.8761 C17.1125,12.8271 17.0995,12.7791 17.0815,12.7341 C17.1055,12.5991 17.1545,12.4731 17.2305,12.3651" id="Fill-96" fill="#FFFFFF"></path>
            <path d="M17.1836,13.9921 C17.0966,13.9501 17.0056,13.9201 16.9106,13.9001 C16.8296,13.8541 16.7576,13.7971 16.6966,13.7241 C16.5716,13.5801 16.5066,13.3951 16.4826,13.1881 C16.6796,13.2401 16.8526,13.3321 16.9766,13.4791 C17.0966,13.6221 17.1596,13.8011 17.1836,13.9921" id="Fill-98" fill="#FFFFFF"></path>
            <path d="M17.2378,14.2196 L17.2378,14.2196 C17.3878,14.3236 17.4878,14.4816 17.5608,14.6676 C17.4618,14.6466 17.3628,14.6396 17.2618,14.6446 C17.1758,14.6156 17.0928,14.5736 17.0188,14.5206 C16.8648,14.4106 16.7588,14.2416 16.6888,14.0426 C16.8958,14.0476 17.0828,14.1046 17.2378,14.2196" id="Fill-100" fill="#FFFFFF"></path>
            <path d="M17.666,14.8749 L17.666,14.8749 C17.835,14.9439 17.971,15.0769 18.079,15.2369 C17.982,15.2369 17.887,15.2529 17.791,15.2789 C17.7,15.2729 17.61,15.2549 17.523,15.2179 C17.348,15.1469 17.208,15.0089 17.097,14.8409 C17.293,14.7979 17.488,14.8019 17.666,14.8749" id="Fill-102" fill="#FFFFFF"></path>
            <path d="M18.2295,15.411 L18.2305,15.411 C18.4195,15.438 18.5895,15.542 18.7375,15.682 C18.5545,15.769 18.3625,15.81 18.1725,15.783 C17.9835,15.754 17.8155,15.651 17.6675,15.511 C17.8495,15.423 18.0405,15.383 18.2295,15.411" id="Fill-104" fill="#FFFFFF"></path>
            <path d="M18.728,15.3524 C18.639,15.2084 18.593,15.0404 18.593,14.8634 C18.593,14.8454 18.595,14.8284 18.597,14.8124 C18.776,14.8884 18.931,15.0014 19.029,15.1644 L19.029,15.1654 C19.121,15.3104 19.169,15.4814 19.169,15.6614 C19.169,15.6764 19.167,15.6924 19.165,15.7064 C18.981,15.6284 18.828,15.5174 18.728,15.3524" id="Fill-106" fill="#FFFFFF"></path>
            <path d="M18.4155,10.0809 C18.4485,10.0109 18.4735,9.9379 18.4915,9.8619 C18.5115,9.8449 18.5295,9.8239 18.5525,9.8099 C18.7085,9.6959 18.8965,9.6419 19.1025,9.6369 C19.0305,9.8339 18.9235,10.0019 18.7645,10.1159 C18.6255,10.2149 18.4595,10.2719 18.2805,10.2849 C18.3315,10.2199 18.3775,10.1549 18.4145,10.0829 L18.4155,10.0809 Z" id="Fill-108" fill="#FFFFFF"></path>
            <path d="M17.9302,9.8407 C18.0172,9.6627 18.1642,9.5327 18.3432,9.4357 C18.3482,9.4857 18.3612,9.5347 18.3612,9.5857 C18.3612,9.7347 18.3282,9.8787 18.2672,10.0087 C18.1822,10.1717 18.0442,10.3017 17.8772,10.3997 C17.8822,10.2977 17.8732,10.1917 17.8512,10.0887 C17.8662,10.0037 17.8922,9.9197 17.9302,9.8407" id="Fill-110" fill="#FFFFFF"></path>
            <path d="M17.811,10.7011 C17.916,10.6061 18.034,10.5351 18.165,10.5021 C18.342,10.4591 18.53,10.4761 18.718,10.5421 C18.623,10.6521 18.514,10.7421 18.392,10.7981 C18.181,10.7571 17.974,10.7691 17.784,10.8361 C17.774,10.8341 17.766,10.8311 17.758,10.8261 C17.778,10.7861 17.796,10.7461 17.811,10.7011" id="Fill-112" fill="#FFFFFF"></path>
            <path d="M17.3296,10.4491 C17.3736,10.2621 17.4856,10.0971 17.6376,9.9571 C17.6836,10.0801 17.7146,10.2061 17.7146,10.3321 C17.7146,10.4001 17.7066,10.4701 17.6916,10.5381 C17.6496,10.7201 17.5456,10.8731 17.4066,11.0061 C17.3896,10.9081 17.3556,10.8081 17.3106,10.7141 C17.3086,10.6931 17.3066,10.6711 17.3066,10.6541 C17.3066,10.5841 17.3136,10.5151 17.3296,10.4491" id="Fill-114" fill="#FFFFFF"></path>
            <path d="M16.8862,11.1903 C16.8862,10.9933 16.9582,10.8103 17.0682,10.6403 C17.1842,10.8143 17.2572,10.9953 17.2572,11.1853 L17.2572,11.1953 C17.2572,11.3753 17.1922,11.5493 17.0882,11.7123 C17.0482,11.6243 16.9982,11.5383 16.9372,11.4583 C16.9052,11.3723 16.8862,11.2853 16.8862,11.1933 L16.8862,11.1903 Z" id="Fill-116" fill="#FFFFFF"></path>
            <path d="M16.6719,11.4315 C16.8229,11.5715 16.9399,11.7345 16.9849,11.9225 C17.0029,11.9935 17.0109,12.0695 17.0109,12.1435 C17.0109,12.2535 16.9849,12.3665 16.9449,12.4805 C16.8849,12.3985 16.8139,12.3255 16.7349,12.2625 C16.6839,12.1855 16.6459,12.1035 16.6229,12.0145 C16.6069,11.9425 16.5969,11.8695 16.5969,11.7965 C16.5969,11.6765 16.6269,11.5535 16.6719,11.4315" id="Fill-118" fill="#FFFFFF"></path>
            <path d="M16.4722,12.3007 C16.6512,12.3957 16.8002,12.5297 16.8892,12.7007 C16.9592,12.8347 16.9932,12.9847 16.9932,13.1417 C16.9932,13.1747 16.9862,13.2127 16.9822,13.2477 C16.9052,13.1847 16.8182,13.1307 16.7242,13.0887 C16.6582,13.0247 16.6032,12.9557 16.5612,12.8727 C16.4912,12.7387 16.4552,12.5877 16.4552,12.4337 C16.4552,12.3897 16.4652,12.3447 16.4722,12.3007" id="Fill-120" fill="#FFFFFF"></path>
            <path d="M20.4268,14.1766 L20.1988,14.1766 L20.1988,9.2586 C20.3888,9.7526 20.4268,10.2456 20.4268,10.6706 L20.4268,14.1766 Z M21.3468,15.8016 L21.3248,15.8156 C21.0748,15.9556 20.8008,16.0436 20.4378,16.1016 C20.5398,15.9116 20.6068,15.6056 20.6068,15.2586 C20.6068,14.9836 20.5668,14.7346 20.4978,14.5466 L20.9708,14.5466 C21.2418,14.5466 21.3558,14.3876 21.3558,14.2386 C21.3558,14.1186 21.2618,14.0116 21.1398,14.0116 C21.0198,14.0116 20.9228,14.1106 20.9228,14.2316 C20.9228,14.2656 20.9348,14.2986 20.9458,14.3176 C20.9648,14.3566 20.9778,14.4006 20.8968,14.4006 L20.6108,14.4006 L20.6108,10.6706 C20.6108,10.1636 20.5718,9.5616 20.2818,8.9626 L20.1998,8.7926 L20.1168,8.9626 C19.8288,9.5576 19.7908,10.1586 19.7908,10.6706 L19.7908,14.4006 L19.5008,14.4006 C19.4228,14.4006 19.4338,14.3566 19.4528,14.3176 C19.4648,14.2986 19.4748,14.2656 19.4748,14.2316 C19.4748,14.1106 19.3828,14.0116 19.2598,14.0116 C19.1408,14.0116 19.0428,14.1186 19.0428,14.2386 C19.0428,14.3856 19.1588,14.5466 19.4268,14.5466 L19.9038,14.5466 C19.8338,14.7346 19.7928,14.9836 19.7928,15.2586 C19.7928,15.6076 19.8598,15.9156 19.9638,16.1036 C19.5978,16.0486 19.3188,15.9586 19.0598,15.8156 L19.0368,15.8016 L18.9688,15.9616 L18.9868,15.9716 C19.2138,16.0986 19.4368,16.1536 19.6978,16.2166 C19.7038,16.2186 19.9058,16.2556 20.0488,16.2836 C20.0128,16.3196 19.9908,16.3716 19.9908,16.4306 C19.9908,16.5356 20.0808,16.6236 20.1898,16.6236 C20.3018,16.6236 20.3888,16.5356 20.3888,16.4306 C20.3888,16.3716 20.3668,16.3196 20.3308,16.2836 C20.4748,16.2556 20.6728,16.2196 20.6728,16.2196 C20.9418,16.1536 21.1698,16.0986 21.3938,15.9716 L21.4138,15.9616 L21.3468,15.8016 Z" id="Fill-122" fill="#FFFFFF"></path>
            <path d="M46.7026,24.3798 L46.7026,32.9188 C46.7026,36.4298 45.2766,38.0648 42.2156,38.0648 C38.6686,38.0648 37.9246,35.2678 37.9246,32.9188 L37.9246,24.3798 L36.8906,24.3798 L36.8906,32.9188 C36.8906,36.9478 38.6816,38.9928 42.2156,38.9928 C45.8796,38.9928 47.7366,36.9478 47.7366,32.9188 L47.7366,24.3798 L47.6506,24.3798 L46.7026,24.3798 Z" id="Fill-124" fill="#000000"></path>
            <path d="M54.4326,28.0878 C52.8446,28.0878 51.4686,28.9498 50.8836,30.2568 L50.8836,28.3258 L49.9676,28.3258 L49.9676,38.6568 L50.8836,38.6568 L50.8836,33.0738 C50.8836,30.5488 52.2676,28.9178 54.4116,28.9178 C57.1786,28.9178 57.1786,31.3488 57.1786,32.1498 L57.1786,38.6568 L58.0946,38.6568 L58.0946,32.2858 C58.0946,31.1388 58.0946,28.0878 54.4326,28.0878" id="Fill-126" fill="#000000"></path>
            <polygon id="Fill-128" fill="#000000" points="60.3638 28.3261 60.3638 38.6571 61.2808 38.6571 61.2808 28.3261 61.1948 28.3261"></polygon>
            <polygon id="Fill-130" fill="#000000" points="60.3638 25.1659 60.3638 26.5589 61.2808 26.5589 61.2808 25.1659 61.1948 25.1659"></polygon>
            <path d="M70.3784,28.3261 C70.3784,28.3261 67.1324,37.1871 67.0164,37.5051 C66.8944,37.1901 63.4234,28.3261 63.4234,28.3261 L62.3754,28.3261 L66.4904,38.6571 L67.5284,38.6571 L71.3854,28.3261 L71.2594,28.3261 L70.3784,28.3261 Z" id="Fill-132" fill="#000000"></path>
            <path d="M76.3794,28.9179 C78.6514,28.9179 79.8864,30.8809 79.9594,32.8499 L72.7874,32.8499 C72.9754,30.8799 74.2524,28.9179 76.3794,28.9179 M76.3794,28.0889 C75.1924,28.0889 74.1514,28.5119 73.3724,29.3109 C72.3854,30.3239 71.8334,31.9129 71.8564,33.6699 C71.8354,35.2909 72.3294,36.7059 73.2534,37.6509 C74.0444,38.4639 75.1254,38.8929 76.3794,38.8929 C78.8344,38.8929 80.4064,37.5619 80.8034,35.1459 L80.8214,35.0419 L79.9044,35.0419 L79.8924,35.1139 C79.5454,36.9629 78.2314,38.0639 76.3794,38.0639 C75.4134,38.0639 74.6024,37.7359 73.9734,37.0889 C73.2084,36.3029 72.7724,35.0709 72.7724,33.6989 C72.7724,33.6929 72.7734,33.6869 72.7734,33.6789 L80.8794,33.6789 L80.8844,33.5949 C80.8914,33.4639 80.8934,33.3339 80.8934,33.2059 C80.8934,31.6259 80.4294,30.2669 79.5684,29.3559 C78.7744,28.5169 77.7014,28.0889 76.3794,28.0889" id="Fill-134" fill="#000000"></path>
            <path d="M83.4438,30.3768 L83.4438,28.3258 L82.5278,28.3258 L82.5278,38.6568 L83.4438,38.6568 L83.4438,33.0158 C83.5248,31.4698 83.8518,30.8838 84.5538,30.1538 C85.6358,29.0848 86.8968,29.1468 87.2568,29.1908 L87.3548,29.2038 L87.3548,28.2728 L87.2708,28.2688 C85.5958,28.1928 83.9878,29.1058 83.4438,30.3768" id="Fill-136" fill="#000000"></path>
            <path d="M92.1885,32.9305 C92.1905,32.9315 91.8785,32.8645 91.8785,32.8645 C90.3555,32.5355 88.9175,32.2295 88.9175,30.7845 C88.9175,29.4075 90.3665,28.9175 91.7225,28.9175 C92.7905,28.9175 94.5845,29.2405 94.6075,31.4175 L94.6075,31.5045 L95.5225,31.5045 L95.5225,31.4175 C95.5225,29.2715 94.1725,28.0885 91.7225,28.0885 C90.8495,28.0885 88.0015,28.2845 88.0015,30.7845 C88.0015,33.0335 90.0395,33.4505 91.5285,33.7545 L91.7935,33.8095 C93.3905,34.1335 94.8995,34.4415 94.8995,35.9995 C94.8995,37.8645 92.7325,38.0635 91.8015,38.0635 C89.9435,38.0635 88.6745,36.9335 88.5655,35.1845 L88.5605,35.1015 L87.6465,35.1015 L87.6475,35.1915 C87.7055,37.4745 89.2965,38.8925 91.8015,38.8925 C92.7435,38.8925 95.8165,38.6835 95.8165,35.9995 C95.8165,33.7905 94.1725,33.3035 92.1885,32.9305" id="Fill-138" fill="#000000"></path>
            <polygon id="Fill-140" fill="#000000" points="97.6948 28.3261 97.6948 38.6571 98.6118 38.6571 98.6118 28.3261 98.5248 28.3261"></polygon>
            <path d="M102.5586,28.3261 L102.5586,25.1661 L102.4726,25.1661 L101.6416,25.1661 L101.6416,28.3261 L99.7866,28.3261 L99.7866,29.1541 L101.6416,29.1541 L101.6416,36.1561 C101.6396,36.2171 101.6386,36.2751 101.6386,36.3341 C101.6386,37.1291 101.8316,37.7061 102.2286,38.0941 C102.8366,38.6911 103.8396,38.7081 104.6466,38.6571 L104.7276,38.6501 L104.7276,37.8261 L104.6386,37.8281 C103.8086,37.8511 103.2636,37.8021 102.9346,37.4781 C102.6786,37.2261 102.5586,36.8061 102.5586,36.1561 L102.5586,29.1541 L105.1086,29.1541 C106.1136,31.5661 108.9826,38.4601 109.0046,38.5121 C108.5526,39.8051 108.2806,40.5551 108.0006,40.8371 C107.5266,41.3171 107.0516,41.4631 105.9706,41.4631 L105.8826,41.4631 L105.8826,42.2901 L105.9706,42.2901 C107.0886,42.2901 107.8076,42.2591 108.3696,41.8191 C108.8016,41.4801 109.1256,40.7561 109.5696,39.6881 C109.5706,39.6861 113.9146,28.3261 113.9146,28.3261 L113.7886,28.3261 L112.8876,28.3261 C112.8876,28.3261 109.6536,37.0351 109.5046,37.4361 C109.3456,37.0391 105.8326,28.3261 105.8326,28.3261 L102.5586,28.3261 Z" id="Fill-142" fill="#000000"></path>
            <polygon id="Fill-144" fill="#000000" points="97.6934 25.1659 97.6934 26.5589 98.6114 26.5589 98.6114 25.1659 98.5254 25.1659"></polygon>
            <path d="M60.2344,8.1796 C57.1374,8.1796 54.9774,10.4866 54.9774,14.3556 C54.9774,18.9896 57.7024,21.0806 60.2764,21.0806 C63.3744,21.0806 65.4284,18.6736 65.4284,14.8646 C65.4704,10.7816 63.3744,8.1796 60.2344,8.1796 M60.0884,22.0556 C56.0274,21.9716 52.6134,18.8196 52.7174,14.4616 C52.8224,11.0346 55.5474,7.1416 60.5074,7.2906 C63.9594,7.3556 67.8364,9.9786 67.7314,14.7996 C67.6264,19.6226 63.5834,22.1616 60.0884,22.0556" id="Fill-146" fill="#000000"></path>
            <path d="M119.7734,7.6815 L119.7734,7.4785 L115.7134,7.4785 L115.7134,7.6815 C116.5174,7.7365 116.7394,7.8955 116.7394,9.0485 L116.7394,14.0555 L109.4554,14.0555 L109.4554,9.0485 C109.4554,7.8955 109.6774,7.7365 110.4804,7.6815 L110.4804,7.4785 L106.4204,7.4785 L106.4204,7.6815 C107.2244,7.7365 107.4464,7.8955 107.4464,9.0485 L107.4464,20.2905 C107.4464,21.4475 107.2244,21.6075 106.4204,21.6605 L106.4204,21.8625 L110.4804,21.8625 L110.4804,21.6605 C109.6774,21.6075 109.4554,21.4475 109.4554,20.2905 L109.4554,14.9225 L116.7394,14.9225 L116.7394,20.2905 C116.7394,21.4475 116.5174,21.6075 115.7134,21.6605 L115.7134,21.8625 L119.7734,21.8625 L119.7734,21.6605 C118.9704,21.6075 118.7484,21.4475 118.7484,20.2905 L118.7484,9.0485 C118.7484,7.8955 118.9704,7.7365 119.7734,7.6815" id="Fill-148" fill="#000000"></path>
            <path d="M68.8062,7.4784 L68.8062,7.6824 C69.5882,7.7244 69.8102,7.8104 69.8102,8.6424 L69.8102,20.2914 C69.8102,21.4464 69.5892,21.6084 68.7852,21.6614 L68.7852,21.8624 L71.8492,21.8624 L71.8492,21.6614 C71.0462,21.6084 70.8222,21.4464 70.8222,20.2914 L70.8222,9.8264 C70.8222,10.0164 78.7482,19.7634 80.4582,21.8624 L80.7852,21.8624 L80.7852,8.6424 C80.7852,7.8104 81.0072,7.7244 81.7892,7.6824 L81.7892,7.4784 L78.7762,7.4784 L78.7762,7.6824 C79.5582,7.7244 79.7822,7.8104 79.7822,8.6424 L79.7822,17.7824 L71.5142,7.4784 L68.8062,7.4784 Z" id="Fill-150" fill="#000000"></path>
            <path d="M85.7231,16.6805 C86.6441,14.3955 88.0671,10.7575 88.0671,10.7575 C88.0671,10.7575 89.3441,14.0145 90.4321,16.6805 L85.7231,16.6805 Z M88.7741,7.4785 L88.4911,7.4785 C87.7691,9.2065 84.4411,17.1725 83.2811,19.9255 C83.0801,20.3965 82.7571,21.1595 82.5171,21.4255 C82.3261,21.6275 82.1461,21.6515 81.9771,21.6605 L81.9771,21.8625 L84.6831,21.8625 L84.6831,21.6605 C84.4681,21.6605 84.0041,21.6575 83.9711,21.2525 C83.9691,21.1245 83.9941,20.9855 84.0481,20.8275 C84.1321,20.5715 84.6771,19.1765 85.3681,17.5905 L90.7871,17.5905 C91.3201,18.9295 91.8081,20.0735 92.0351,20.5805 C92.0981,20.7305 92.2361,21.0815 92.2361,21.2525 C92.2361,21.6515 91.8881,21.6605 91.4951,21.6605 L91.4951,21.8625 L95.2781,21.8625 L95.2781,21.6605 C94.8131,21.6275 94.6651,21.5105 94.3271,20.7335 L88.7741,7.4785 Z" id="Fill-152" fill="#000000"></path>
            <path d="M36.1553,7.4784 L36.1553,7.6824 C36.5933,7.7074 36.8503,7.7494 36.9983,7.9224 C37.0413,7.9904 37.0823,8.0614 37.1093,8.1354 L37.1093,8.1374 C37.1343,8.2114 37.1443,8.2904 37.1493,8.3694 C37.1563,8.4504 37.1603,8.5404 37.1603,8.6424 L37.1603,20.2914 C37.1603,21.4464 36.9383,21.6084 36.1343,21.6614 L36.1343,21.8624 L39.1693,21.8624 L39.1693,21.6614 C38.3653,21.6084 38.1433,21.4464 38.1433,20.2914 L38.1433,10.3134 C38.1433,10.1234 38.1013,9.7634 38.1013,9.7634 L38.2903,10.3134 L43.2053,21.8094 L43.5043,21.8094 L48.5243,9.9754 L48.6703,9.4884 C48.6703,9.4884 48.6283,9.7214 48.6283,9.9324 L48.6283,20.2914 C48.6283,21.4464 48.4073,21.6084 47.6043,21.6614 L47.6043,21.8624 L51.6643,21.8624 L51.6643,21.6614 C50.8603,21.6084 50.6383,21.4464 50.6383,20.2914 L50.6383,8.6424 C50.6383,7.8104 50.8603,7.7244 51.6423,7.6824 L51.6423,7.4784 L48.4833,7.4784 L43.9423,18.3314 L39.3373,7.4784 L36.1553,7.4784 Z" id="Fill-154" fill="#000000"></path>
            <path d="M95.9917,20.8954 C96.9467,21.4764 98.3627,22.0834 99.8617,22.0804111 C99.8907,22.0804111 99.9197,22.0784 99.9477,22.0784 C102.1687,22.0454 104.5097,20.3834 104.5097,17.7664 C104.5097,14.9304 102.5417,14.2764 100.5537,13.2384 C98.5457,12.2454 97.7067,11.7364 97.7067,10.4044 C97.7067,9.4944 98.2527,8.1634 100.0307,8.1634 C100.5967,8.1634 101.0947,8.3084 101.5257,8.5374 C102.9657,9.3444 103.0357,10.4894 103.2227,11.2144 L103.4317,11.2144 L103.3107,8.0124 C102.3947,7.6254 101.6667,7.4514 101.1567,7.3744 C100.8497,7.3344 100.5637,7.3164 100.3237,7.3164 C98.3357,7.3164 95.9917,8.5234 95.9917,11.0594 C95.9917,12.7944 97.0167,13.8744 99.0477,14.8884 C101.0557,15.9244 102.5837,16.3294 102.5837,18.3584 C102.5837,19.3964 101.9977,21.1914 99.7387,21.1914 C98.8357,21.1914 98.1167,20.8754 97.5487,20.3964 C96.2097,19.1174 96.2397,18.1024 96.1377,17.7244 L95.9287,17.7244 L95.9917,20.8954" id="Fill-156" fill="#000000"></path>
            <line x1="135.1772" y1="0.1122" x2="135.1772" y2="56.6272" id="Fill-158" fill="#000000"></line>
            <polygon id="Fill-160" fill="#000000" points="135.085 56.628 135.268 56.628 135.268 0.113 135.085 0.113"></polygon>
            <line x1="226.6143" y1="0.1122" x2="226.6143" y2="56.6272" id="Fill-162" fill="#000000"></line>
            <polygon id="Fill-163" fill="#000000" points="226.523 56.628 226.706 56.628 226.706 0.113 226.523 0.113"></polygon>
            <polygon id="Fill-164" fill="#3E89BB" points="151.1831 7.0643 152.4641 7.0643 154.4491 14.4593 154.4721 14.4593 156.4561 7.0643 157.6681 7.0643 157.6681 15.3913 156.9301 15.3913 156.9301 7.7643 156.9061 7.7643 154.7711 15.3913 154.0791 15.3913 151.9451 7.7643 151.9221 7.7643 151.9221 15.3913 151.1831 15.3913"></polygon>
            <path d="M161.5913,14.9022 C162.7683,14.9022 163.4843,13.9232 163.4843,11.2282 C163.4843,8.5342 162.7683,7.5532 161.5913,7.5532 C160.4143,7.5532 159.6983,8.5342 159.6983,11.2282 C159.6983,13.9232 160.4143,14.9022 161.5913,14.9022 M161.5913,6.9242 C163.2763,6.9242 164.2223,8.2422 164.2223,11.2282 C164.2223,14.2142 163.2763,15.5322 161.5913,15.5322 C159.9063,15.5322 158.9603,14.2142 158.9603,11.2282 C158.9603,8.2422 159.9063,6.9242 161.5913,6.9242" id="Fill-165" fill="#3E89BB"></path>
            <polygon id="Fill-166" fill="#3E89BB" points="165.4458 7.0643 166.4378 7.0643 169.5888 14.3193 169.6118 14.3193 169.6118 7.0643 170.3498 7.0643 170.3498 15.3913 169.3568 15.3913 166.2068 8.1373 166.1838 8.1373 166.1838 15.3913 165.4458 15.3913"></polygon>
            <path d="M175.1616,12.3368 L173.8916,7.6488 L173.8686,7.6488 L172.5996,12.3368 L175.1616,12.3368 Z M173.4186,7.0648 L174.3416,7.0648 L176.7776,15.3918 L175.9926,15.3918 L175.3236,12.9658 L172.4386,12.9658 L171.7686,15.3918 L170.9836,15.3918 L173.4186,7.0648 Z" id="Fill-167" fill="#3E89BB"></path>
            <path d="M181.0234,9.1991 C181.0234,8.1731 180.5504,7.5531 179.5464,7.5531 C178.5424,7.5531 177.9884,8.2201 177.9884,9.0481 C177.9884,11.5311 181.9804,10.1671 181.9804,13.0951 C181.9804,14.7041 180.9884,15.5321 179.4884,15.5321 C177.9424,15.5321 177.0884,14.6921 177.0884,13.0591 L177.0884,12.8141 L177.8274,12.8141 L177.8274,13.1291 C177.8274,14.1901 178.3804,14.9021 179.4654,14.9021 C180.5044,14.9021 181.2434,14.3781 181.2434,13.2111 C181.2434,10.7381 177.2494,12.1501 177.2494,9.1301 C177.2494,7.8231 178.0924,6.9251 179.5234,6.9251 C181.0574,6.9251 181.7624,7.7181 181.7624,9.1991 L181.0234,9.1991 Z" id="Fill-168" fill="#3E89BB"></path>
            <polygon id="Fill-169" fill="#3E89BB" points="186.9082 11.2401 183.6892 11.2401 183.6892 15.3911 182.9502 15.3911 182.9502 7.0641 183.6892 7.0641 183.6892 10.6101 186.9082 10.6101 186.9082 7.0641 187.6472 7.0641 187.6472 15.3911 186.9082 15.3911"></polygon>
            <path d="M154.7256,20.8622 C154.7256,19.8362 154.2526,19.2172 153.2486,19.2172 C152.2446,19.2172 151.6906,19.8822 151.6906,20.7112 C151.6906,23.1942 155.6836,21.8302 155.6836,24.7582 C155.6836,26.3672 154.6906,27.1952 153.1906,27.1952 C151.6446,27.1952 150.7906,26.3552 150.7906,24.7212 L150.7906,24.4772 L151.5296,24.4772 L151.5296,24.7922 C151.5296,25.8542 152.0826,26.5652 153.1676,26.5652 C154.2066,26.5652 154.9456,26.0402 154.9456,24.8742 C154.9456,22.4002 150.9516,23.8122 150.9516,20.7922 C150.9516,19.4852 151.7946,18.5882 153.2256,18.5882 C154.7606,18.5882 155.4646,19.3802 155.4646,20.8622 L154.7256,20.8622 Z" id="Fill-170" fill="#000000"></path>
            <path d="M156.5376,18.7274 L157.2756,18.7274 L157.2756,24.7104 C157.2756,25.9584 157.8066,26.5654 158.8916,26.5654 C159.9766,26.5654 160.5076,25.9584 160.5076,24.7104 L160.5076,18.7274 L161.2456,18.7274 L161.2456,24.7224 C161.2456,26.4724 160.4026,27.1954 158.8916,27.1954 C157.3796,27.1954 156.5376,26.4724 156.5376,24.7224 L156.5376,18.7274 Z" id="Fill-171" fill="#000000"></path>
            <path d="M166.0342,20.8622 C166.0342,19.8362 165.5612,19.2172 164.5572,19.2172 C163.5532,19.2172 162.9992,19.8822 162.9992,20.7112 C162.9992,23.1942 166.9912,21.8302 166.9912,24.7582 C166.9912,26.3672 165.9992,27.1952 164.4992,27.1952 C162.9532,27.1952 162.0992,26.3552 162.0992,24.7212 L162.0992,24.4772 L162.8382,24.4772 L162.8382,24.7922 C162.8382,25.8542 163.3912,26.5652 164.4762,26.5652 C165.5152,26.5652 166.2542,26.0402 166.2542,24.8742 C166.2542,22.4002 162.2602,23.8122 162.2602,20.7922 C162.2602,19.4852 163.1032,18.5882 164.5342,18.5882 C166.0682,18.5882 166.7732,19.3802 166.7732,20.8622 L166.0342,20.8622 Z" id="Fill-172" fill="#000000"></path>
            <polygon id="Fill-173" fill="#000000" points="169.5073 19.3573 167.3843 19.3573 167.3843 18.7283 172.3693 18.7283 172.3693 19.3573 170.2463 19.3573 170.2463 27.0543 169.5073 27.0543"></polygon>
            <path d="M175.9702,23.9989 L174.7002,19.3119 L174.6772,19.3119 L173.4082,23.9989 L175.9702,23.9989 Z M174.2272,18.7279 L175.1502,18.7279 L177.5862,27.0549 L176.8012,27.0549 L176.1312,24.6289 L173.2472,24.6289 L172.5772,27.0549 L171.7922,27.0549 L174.2272,18.7279 Z" id="Fill-174" fill="#000000"></path>
            <polygon id="Fill-175" fill="#000000" points="178.266 27.054 179.004 27.054 179.004 18.727 178.266 18.727"></polygon>
            <polygon id="Fill-176" fill="#000000" points="180.3433 18.7274 181.3353 18.7274 184.4863 25.9824 184.5093 25.9824 184.5093 18.7274 185.2473 18.7274 185.2473 27.0544 184.2553 27.0544 181.1053 19.8004 181.0813 19.8004 181.0813 27.0544 180.3433 27.0544"></polygon>
            <path d="M190.0591,23.9989 L188.7901,19.3119 L188.7671,19.3119 L187.4971,23.9989 L190.0591,23.9989 Z M188.3161,18.7279 L189.2401,18.7279 L191.6751,27.0549 L190.8901,27.0549 L190.2211,24.6289 L187.3361,24.6289 L186.6671,27.0549 L185.8811,27.0549 L188.3161,18.7279 Z" id="Fill-177" fill="#000000"></path>
            <path d="M193.0479,26.4247 L194.4209,26.4247 C195.7019,26.4247 196.3249,25.8417 196.3249,24.7227 C196.3249,23.6027 195.7019,23.0207 194.4209,23.0207 L193.0479,23.0207 L193.0479,26.4247 Z M193.0479,22.3897 L194.2129,22.3897 C195.4829,22.3897 196.0599,21.8417 196.0599,20.8737 C196.0599,19.7657 195.4939,19.3577 194.3399,19.3577 L193.0479,19.3577 L193.0479,22.3897 Z M192.3089,18.7277 L194.5829,18.7277 C196.1749,18.7277 196.7979,19.5797 196.7979,20.8157 C196.7979,21.6317 196.3599,22.4137 195.5289,22.6227 L195.5289,22.6467 C196.5449,22.8447 197.0639,23.6387 197.0639,24.7227 C197.0639,26.1797 196.1289,27.0547 194.5709,27.0547 L192.3089,27.0547 L192.3089,18.7277 Z" id="Fill-178" fill="#000000"></path>
            <polygon id="Fill-179" fill="#000000" points="198.0791 18.7274 198.8171 18.7274 198.8171 26.4254 202.2331 26.4254 202.2331 27.0544 198.0791 27.0544"></polygon>
            <polygon id="Fill-180" fill="#000000" points="202.9946 18.7274 207.0796 18.7274 207.0796 19.3574 203.7326 19.3574 203.7326 22.3894 206.8596 22.3894 206.8596 23.0204 203.7326 23.0204 203.7326 26.4254 207.1826 26.4254 207.1826 27.0544 202.9946 27.0544"></polygon>
            <path d="M151.8525,38.0878 L153.0525,38.0878 C154.6675,38.0878 155.3495,37.2728 155.3495,34.5658 C155.3495,31.8368 154.6675,31.0208 153.0525,31.0208 L151.8525,31.0208 L151.8525,38.0878 Z M151.1135,30.3908 L153.0985,30.3908 C155.4985,30.3908 156.0875,31.8368 156.0875,34.5538 C156.0875,37.2728 155.4985,38.7178 153.0985,38.7178 L151.1135,38.7178 L151.1135,30.3908 Z" id="Fill-181" fill="#000000"></path>
            <polygon id="Fill-182" fill="#000000" points="157.3101 30.3905 161.3951 30.3905 161.3951 31.0195 158.0491 31.0195 158.0491 34.0515 161.1761 34.0515 161.1761 34.6835 158.0491 34.6835 158.0491 38.0875 161.4981 38.0875 161.4981 38.7185 157.3101 38.7185"></polygon>
            <polygon id="Fill-183" fill="#000000" points="161.8218 30.3905 162.6068 30.3905 164.4418 37.9245 164.4648 37.9245 166.2998 30.3905 167.0838 30.3905 164.9148 38.7185 163.9918 38.7185"></polygon>
            <polygon id="Fill-184" fill="#000000" points="167.7646 30.3905 171.8496 30.3905 171.8496 31.0195 168.5036 31.0195 168.5036 34.0515 171.6306 34.0515 171.6306 34.6835 168.5036 34.6835 168.5036 38.0875 171.9526 38.0875 171.9526 38.7185 167.7646 38.7185"></polygon>
            <polygon id="Fill-185" fill="#000000" points="172.8877 30.3905 173.6267 30.3905 173.6267 38.0875 177.0417 38.0875 177.0417 38.7185 172.8877 38.7185"></polygon>
            <path d="M180.3652,38.2284 C181.5422,38.2284 182.2582,37.2494 182.2582,34.5534 C182.2582,31.8604 181.5422,30.8804 180.3652,30.8804 C179.1882,30.8804 178.4722,31.8604 178.4722,34.5534 C178.4722,37.2494 179.1882,38.2284 180.3652,38.2284 M180.3652,30.2504 C182.0502,30.2504 182.9962,31.5694 182.9962,34.5534 C182.9962,37.5404 182.0502,38.8574 180.3652,38.8574 C178.6802,38.8574 177.7342,37.5404 177.7342,34.5534 C177.7342,31.5694 178.6802,30.2504 180.3652,30.2504" id="Fill-186" fill="#000000"></path>
            <path d="M184.958,34.4725 L186.215,34.4725 C187.197,34.4725 187.97,34.0295 187.97,32.7465 C187.97,31.4975 187.346,31.0205 186.215,31.0205 L184.958,31.0205 L184.958,34.4725 Z M184.219,30.3905 L186.447,30.3905 C188.039,30.3905 188.708,31.3355 188.708,32.7465 C188.708,34.0295 188.073,35.1025 186.193,35.1025 L184.958,35.1025 L184.958,38.7185 L184.219,38.7185 L184.219,30.3905 Z" id="Fill-187" fill="#000000"></path>
            <polygon id="Fill-188" fill="#000000" points="189.8276 30.3905 191.1086 30.3905 193.0926 37.7855 193.1166 37.7855 195.1006 30.3905 196.3126 30.3905 196.3126 38.7185 195.5736 38.7185 195.5736 31.0905 195.5506 31.0905 193.4156 38.7185 192.7236 38.7185 190.5886 31.0905 190.5656 31.0905 190.5656 38.7185 189.8276 38.7185"></polygon>
            <polygon id="Fill-189" fill="#000000" points="197.6738 30.3905 201.7588 30.3905 201.7588 31.0195 198.4128 31.0195 198.4128 34.0515 201.5398 34.0515 201.5398 34.6835 198.4128 34.6835 198.4128 38.0875 201.8618 38.0875 201.8618 38.7185 197.6738 38.7185"></polygon>
            <polygon id="Fill-190" fill="#000000" points="202.7969 30.3905 203.7899 30.3905 206.9399 37.6455 206.9629 37.6455 206.9629 30.3905 207.7019 30.3905 207.7019 38.7185 206.7099 38.7185 203.5589 31.4645 203.5359 31.4645 203.5359 38.7185 202.7969 38.7185"></polygon>
            <polygon id="Fill-191" fill="#000000" points="210.54 31.0204 208.417 31.0204 208.417 30.3904 213.401 30.3904 213.401 31.0204 211.278 31.0204 211.278 38.7184 210.54 38.7184"></polygon>
            <polygon id="Fill-192" fill="#000000" points="151.161 50.381 151.899 50.381 151.899 42.054 151.161 42.054"></polygon>
            <polygon id="Fill-193" fill="#000000" points="153.2368 42.0536 154.2298 42.0536 157.3798 49.3086 157.4028 49.3086 157.4028 42.0536 158.1418 42.0536 158.1418 50.3816 157.1488 50.3816 153.9978 43.1276 153.9758 43.1276 153.9758 50.3816 153.2368 50.3816"></polygon>
            <path d="M163.0454,44.1884 C163.0454,43.1624 162.5724,42.5424 161.5684,42.5424 C160.5644,42.5424 160.0104,43.2094 160.0104,44.0364 C160.0104,46.5204 164.0024,45.1554 164.0024,48.0834 C164.0024,49.6934 163.0104,50.5214 161.5104,50.5214 C159.9644,50.5214 159.1104,49.6814 159.1104,48.0484 L159.1104,47.8044 L159.8494,47.8044 L159.8494,48.1184 C159.8494,49.1794 160.4024,49.8904 161.4874,49.8904 C162.5264,49.8904 163.2644,49.3664 163.2644,48.2004 C163.2644,45.7274 159.2714,47.1384 159.2714,44.1184 C159.2714,42.8114 160.1144,41.9144 161.5454,41.9144 C163.0794,41.9144 163.7834,42.7074 163.7834,44.1884 L163.0454,44.1884 Z" id="Fill-194" fill="#000000"></path>
            <polygon id="Fill-195" fill="#000000" points="166.5186 42.6835 164.3956 42.6835 164.3956 42.0535 169.3796 42.0535 169.3796 42.6835 167.2566 42.6835 167.2566 50.3815 166.5186 50.3815"></polygon>
            <polygon id="Fill-196" fill="#000000" points="170.142 50.381 170.881 50.381 170.881 42.054 170.142 42.054"></polygon>
            <polygon id="Fill-197" fill="#000000" points="173.7646 42.6835 171.6416 42.6835 171.6416 42.0535 176.6266 42.0535 176.6266 42.6835 174.5036 42.6835 174.5036 50.3815 173.7646 50.3815"></polygon>
            <path d="M177.2266,42.0536 L177.9646,42.0536 L177.9646,48.0356 C177.9646,49.2846 178.4956,49.8916 179.5806,49.8916 C180.6656,49.8916 181.1966,49.2846 181.1966,48.0356 L181.1966,42.0536 L181.9346,42.0536 L181.9346,48.0486 C181.9346,49.7986 181.0916,50.5216 179.5806,50.5216 C178.0696,50.5216 177.2266,49.7986 177.2266,48.0486 L177.2266,42.0536 Z" id="Fill-198" fill="#000000"></path>
            <polygon id="Fill-199" fill="#000000" points="184.6577 42.6835 182.5347 42.6835 182.5347 42.0535 187.5187 42.0535 187.5187 42.6835 185.3957 42.6835 185.3957 50.3815 184.6577 50.3815"></polygon>
            <polygon id="Fill-200" fill="#000000" points="188.2349 42.0536 192.3199 42.0536 192.3199 42.6826 188.9729 42.6826 188.9729 45.7156 192.0999 45.7156 192.0999 46.3456 188.9729 46.3456 188.9729 49.7506 192.4229 49.7506 192.4229 50.3816 188.2349 50.3816"></polygon>
            <path d="M14.8975,15.7069 C14.8805,15.7229 14.8335,15.7669 14.7645,15.8269 C14.7405,15.8499 14.7065,15.8779 14.6755,15.9119 C13.4235,17.0479 4.9685,24.7299 4.9685,24.7299 C4.9685,24.7299 4.9785,24.7219 4.9825,24.7169 C5.3225,25.7659 5.7435,26.7859 6.2475,27.7459 L6.2405,27.7549 L13.0905,21.5319 C14.1425,20.5769 14.8975,19.8939 14.8975,19.8939 L23.5535,27.7549 L23.5465,27.7459 C24.0515,26.7889 24.4735,25.7679 24.8125019,24.7149 C24.8175,24.7219 15.1795,15.9649 14.8975,15.7069" id="Fill-201" fill="#FFFFFF"></path>
            <path d="M4.0264,7.4794 L4.0264,7.7194 L4.0264,18.7494 C4.0264,20.5994 4.2974,22.4444 4.8194,24.2364 L4.8174,24.2424 L4.8594,24.3834 L4.9684,24.7424 C4.9684,24.7424 4.9784,24.7354 4.9824,24.7304 C5.3214,25.7794 5.7414,26.7984 6.2474,27.7594 L6.2404,27.7674 L6.3284,27.9314 L6.4704,28.1954 L6.4774,28.1884 C8.4264,31.6704 11.3714,34.2904 14.8154,35.5624 L14.8974,35.5924 L14.9774,35.5624 C18.4244,34.2894 21.3714,31.6704 23.3144,28.1884 L23.3224,28.1954 L23.4664,27.9314 L23.5524,27.7674 L23.5454,27.7594 C24.0514,26.8024 24.4734,25.7814 24.8124,24.7274 C24.8174,24.7354 24.8264,24.7424 24.8264,24.7424 L24.9324,24.3834 L24.9764,24.2424 L24.9724,24.2364 C25.4954,22.4314 25.7674,20.5874 25.7674,18.7494 L25.7674,7.4804 L4.0264,7.4794 Z M4.5754,8.0344 L25.2174,8.0354 L25.2174,18.7494 C25.2174,20.4924 24.9654,22.2584 24.4684,24.0004 L24.2894,24.5554 C23.9534,25.6014 23.5404,26.5914 23.0614,27.4994 L22.9944,27.6334 L22.8364,27.9164 C20.9754,31.2504 18.1634,33.7584 14.8964,35.0004 C11.6414,33.7674 8.8244,31.2544 6.9564,27.9164 L6.8984,27.8154 L6.7324,27.4994 C6.2554,26.5924 5.8424,25.6024 5.5044,24.5574 L5.3914,24.2344 L5.3464,24.0794 C4.8354,22.3254 4.5754,20.5314 4.5754,18.7494 L4.5754,8.0344 L4.5754,8.0344 Z" id="Fill-202" fill="#000000"></path>
            <path d="M289.4717,40.869 L288.5637,37.516 L288.5477,37.516 L287.6397,40.869 L289.4717,40.869 Z M288.2257,37.099 L288.8857,37.099 L290.6267,43.053 L290.0647,43.053 L289.5867,41.319 L287.5247,41.319 L287.0457,43.053 L286.4857,43.053 L288.2257,37.099 Z" id="Fill-203" fill="#000000"></path>
            <path d="M292.2349,37.0995 L292.7629,37.0995 L292.7629,41.3765 C292.7629,42.2695 293.1419,42.7025 293.9169,42.7025 C294.6929,42.7025 295.0719,42.2695 295.0719,41.3765 L295.0719,37.0995 L295.5999,37.0995 L295.5999,41.3855 C295.5999,42.6355 294.9979,43.1525 293.9169,43.1525 C292.8369,43.1525 292.2349,42.6355 292.2349,41.3855 L292.2349,37.0995 Z" id="Fill-204" fill="#000000"></path>
            <path d="M300.2603,38.6259 C300.2603,37.8919 299.9223,37.4499 299.2043,37.4499 C298.4873,37.4499 298.0903,37.9249 298.0903,38.5179 C298.0903,40.2939 300.9453,39.3179 300.9453,41.4109 C300.9453,42.5619 300.2353,43.1529 299.1633,43.1529 C298.0573,43.1529 297.4473,42.5529 297.4473,41.3859 L297.4473,41.2109 L297.9753,41.2109 L297.9753,41.4359 C297.9753,42.1939 298.3713,42.7019 299.1463,42.7019 C299.8883,42.7019 300.4163,42.3279 300.4163,41.4939 C300.4163,39.7269 297.5623,40.7339 297.5623,38.5749 C297.5623,37.6429 298.1653,37.0009 299.1883,37.0009 C300.2853,37.0009 300.7883,37.5669 300.7883,38.6259 L300.2603,38.6259 Z" id="Fill-205" fill="#000000"></path>
            <polygon id="Fill-206" fill="#000000" points="303.98 37.5497 302.462 37.5497 302.462 37.0997 306.025 37.0997 306.025 37.5497 304.508 37.5497 304.508 43.0537 303.98 43.0537"></polygon>
            <path d="M308.3018,39.8856 L309.2098,39.8856 C310.0428,39.8856 310.5298,39.5016 310.5298,38.7176 C310.5298,37.9916 310.2228,37.5506 309.2668,37.5506 L308.3018,37.5506 L308.3018,39.8856 Z M307.7738,37.1006 L309.5308,37.1006 C310.5128,37.1006 311.0568,37.6676 311.0568,38.5926 C311.0568,39.3096 310.7768,39.9516 309.9928,40.1016 L309.9928,40.1176 C310.7268,40.1856 310.9738,40.6116 310.9998,41.5276 L311.0158,42.1776 C311.0238,42.5026 311.0568,42.8206 311.2628,43.0526 L310.6438,43.0526 C310.5208,42.8446 310.4958,42.5356 310.4878,42.2196 L310.4718,41.7196 C310.4388,40.6676 310.2488,40.3346 309.3008,40.3346 L308.3018,40.3346 L308.3018,43.0526 L307.7738,43.0526 L307.7738,37.1006 Z" id="Fill-207" fill="#000000"></path>
            <path d="M315.6514,40.869 L314.7434,37.516 L314.7274,37.516 L313.8194,40.869 L315.6514,40.869 Z M314.4054,37.099 L315.0664,37.099 L316.8054,43.053 L316.2454,43.053 L315.7664,41.319 L313.7044,41.319 L313.2264,43.053 L312.6644,43.053 L314.4054,37.099 Z" id="Fill-208" fill="#000000"></path>
            <polygon id="Fill-209" fill="#000000" points="318.4966 37.0995 319.0246 37.0995 319.0246 42.6035 321.4666 42.6035 321.4666 43.0535 318.4966 43.0535"></polygon>
            <polygon id="Fill-210" fill="#000000" points="323.281 43.053 323.809 43.053 323.809 37.099 323.281 37.099"></polygon>
            <path d="M328.5181,40.869 L327.6101,37.516 L327.5941,37.516 L326.6871,40.869 L328.5181,40.869 Z M327.2721,37.099 L327.9331,37.099 L329.6731,43.053 L329.1121,43.053 L328.6331,41.319 L326.5711,41.319 L326.0931,43.053 L325.5321,43.053 L327.2721,37.099 Z" id="Fill-211" fill="#000000"></path>
            <path d="M249.4463,29.537 C249.7173,29.537 249.9783,29.511 250.2273,29.456 C250.4753,29.403 250.6943,29.313 250.8833,29.187 C251.0723,29.062 251.2233,28.891 251.3363,28.677 C251.4483,28.461 251.5043,28.187 251.5043,27.851 C251.5043,27.194 251.3213,26.724 250.9543,26.444 C250.5883,26.162 250.1023,26.022 249.4993,26.022 L246.4653,26.022 L246.4653,29.537 L249.4463,29.537 Z M249.2863,24.102 C249.7833,24.102 250.1923,23.983 250.5113,23.745 C250.8303,23.505 250.9893,23.116 250.9893,22.579 C250.9893,22.28 250.9363,22.034 250.8303,21.843 C250.7233,21.651 250.5813,21.503 250.4043,21.395 C250.2273,21.287 250.0233,21.213 249.7923,21.171 C249.5613,21.129 249.3213,21.107 249.0733,21.107 L246.4653,21.107 L246.4653,24.102 L249.2863,24.102 Z M249.6413,18.919 C250.2453,18.919 250.7943,18.974 251.2923,19.081 C251.7883,19.188 252.2143,19.365 252.5693,19.61 C252.9243,19.855 253.1993,20.182 253.3943,20.587 C253.5893,20.994 253.6873,21.496 253.6873,22.094 C253.6873,22.739 253.5423,23.277 253.2523,23.708 C252.9623,24.14 252.5333,24.491 251.9663,24.766 C252.7463,24.994 253.3293,25.391 253.7143,25.959 C254.0973,26.527 254.2903,27.212 254.2903,28.013 C254.2903,28.658 254.1663,29.218 253.9183,29.69 C253.6693,30.162 253.3353,30.548 252.9153,30.847 C252.4953,31.145 252.0163,31.367 251.4783,31.511 C250.9393,31.654 250.3863,31.725 249.8183,31.725 L243.6783,31.725 L243.6783,18.919 L249.6413,18.919 Z" id="Fill-212" fill="#000000"></path>
            <path d="M261.2734,24.6229 C260.9724,24.2889 260.5134,24.1209 259.8984,24.1209 C259.4964,24.1209 259.1624,24.1889 258.8964,24.3269 C258.6294,24.4649 258.4164,24.6359 258.2564,24.8379 C258.0974,25.0419 257.9844,25.2569 257.9194,25.4829 C257.8544,25.7109 257.8154,25.9149 257.8044,26.0939 L261.9034,26.0939 C261.7854,25.4479 261.5744,24.9579 261.2734,24.6229 M258.4254,29.5019 C258.8044,29.8719 259.3484,30.0589 260.0584,30.0589 C260.5664,30.0589 261.0044,29.9289 261.3704,29.6729 C261.7374,29.4149 261.9624,29.1439 262.0454,28.8549 L264.2634,28.8549 C263.9084,29.9679 263.3644,30.7639 262.6304,31.2409 C261.8974,31.7209 261.0094,31.9589 259.9694,31.9589 C259.2474,31.9589 258.5964,31.8419 258.0174,31.6089 C257.4374,31.3769 256.9464,31.0439 256.5444,30.6129 C256.1424,30.1829 255.8314,29.6689 255.6124,29.0709 C255.3934,28.4739 255.2844,27.8159 255.2844,27.0989 C255.2844,26.4049 255.3964,25.7599 255.6214,25.1609 C255.8464,24.5629 256.1654,24.0459 256.5794,23.6099 C256.9944,23.1739 257.4874,22.8289 258.0614,22.5789 C258.6344,22.3279 259.2714,22.2009 259.9694,22.2009 C260.7504,22.2009 261.4304,22.3539 262.0104,22.6589 C262.5894,22.9639 263.0654,23.3729 263.4384,23.8879 C263.8114,24.4009 264.0804,24.9869 264.2454,25.6449 C264.4114,26.3039 264.4704,26.9899 264.4224,27.7089 L257.8044,27.7089 C257.8394,28.5329 258.0464,29.1309 258.4254,29.5019" id="Fill-213" fill="#000000"></path>
            <path d="M268.2559,18.9198 L268.2559,23.7448 L268.3089,23.7448 C268.6289,23.2068 269.0369,22.8148 269.5329,22.5698 C270.0309,22.3238 270.5159,22.2008 270.9889,22.2008 C271.6629,22.2008 272.2159,22.2948 272.6479,22.4808 C273.0799,22.6658 273.4199,22.9218 273.6689,23.2508 C273.9169,23.5798 274.0919,23.9808 274.1919,24.4528 C274.2919,24.9248 274.3429,25.4488 274.3429,26.0228 L274.3429,31.7258 L271.8229,31.7258 L271.8229,26.4878 C271.8229,25.7238 271.7039,25.1508 271.4679,24.7748 C271.2309,24.3988 270.8119,24.2098 270.2079,24.2098 C269.5219,24.2098 269.0249,24.4168 268.7169,24.8298 C268.4099,25.2408 268.2559,25.9208 268.2559,26.8638 L268.2559,31.7258 L265.7359,31.7258 L265.7359,18.9198 L268.2559,18.9198 Z" id="Fill-214" fill="#000000"></path>
            <path d="M281.7959,27.1874 C281.6899,27.2834 281.5559,27.3584 281.3959,27.4114 C281.2359,27.4654 281.0659,27.5104 280.8819,27.5464 C280.6979,27.5834 280.5059,27.6124 280.3049,27.6354 C280.1039,27.6614 279.9029,27.6904 279.7019,27.7264 C279.5129,27.7614 279.3259,27.8094 279.1429,27.8694 C278.9599,27.9284 278.7989,28.0094 278.6629,28.1114 C278.5269,28.2134 278.4179,28.3424 278.3349,28.4974 C278.2519,28.6524 278.2109,28.8494 278.2109,29.0884 C278.2109,29.3164 278.2519,29.5074 278.3349,29.6644 C278.4179,29.8194 278.5299,29.9414 278.6719,30.0314 C278.8149,30.1214 278.9799,30.1824 279.1689,30.2194 C279.3589,30.2544 279.5539,30.2734 279.7539,30.2734 C280.2519,30.2734 280.6359,30.1894 280.9089,30.0214 C281.1799,29.8544 281.3809,29.6534 281.5109,29.4204 C281.6419,29.1874 281.7219,28.9514 281.7509,28.7124 C281.7799,28.4734 281.7959,28.2814 281.7959,28.1384 L281.7959,27.1874 Z M275.9749,25.3044 C276.0099,24.7074 276.1579,24.2104 276.4189,23.8154 C276.6789,23.4204 277.0099,23.1044 277.4129,22.8654 C277.8139,22.6254 278.2669,22.4564 278.7709,22.3544 C279.2729,22.2524 279.7789,22.2024 280.2869,22.2024 C280.7489,22.2024 281.2149,22.2354 281.6899,22.3004 C282.1619,22.3664 282.5939,22.4954 282.9849,22.6864 C283.3759,22.8764 283.6949,23.1434 283.9429,23.4844 C284.1919,23.8244 284.3159,24.2764 284.3159,24.8384 L284.3159,29.6644 C284.3159,30.0824 284.3389,30.4824 284.3859,30.8654 C284.4329,31.2484 284.5159,31.5344 284.6349,31.7244 L282.0789,31.7244 C282.0319,31.5824 281.9939,31.4354 281.9639,31.2874 C281.9339,31.1364 281.9139,30.9854 281.9019,30.8284 C281.4999,31.2484 281.0259,31.5404 280.4829,31.7084 C279.9379,31.8744 279.3819,31.9584 278.8149,31.9584 C278.3769,31.9584 277.9689,31.9044 277.5899,31.7964 C277.2119,31.6894 276.8799,31.5234 276.5959,31.2954 C276.3129,31.0684 276.0899,30.7814 275.9299,30.4334 C275.7709,30.0874 275.6909,29.6744 275.6909,29.1964 C275.6909,28.6704 275.7829,28.2374 275.9659,27.8964 C276.1499,27.5554 276.3859,27.2834 276.6759,27.0814 C276.9659,26.8764 277.2969,26.7244 277.6699,26.6234 C278.0429,26.5214 278.4179,26.4414 278.7959,26.3804 C279.1749,26.3214 279.5469,26.2734 279.9149,26.2374 C280.2809,26.2014 280.6069,26.1464 280.8909,26.0764 C281.1749,26.0034 281.3989,25.8994 281.5649,25.7624 C281.7299,25.6244 281.8069,25.4244 281.7959,25.1614 C281.7959,24.8864 281.7509,24.6674 281.6629,24.5064 C281.5729,24.3444 281.4559,24.2194 281.3079,24.1294 C281.1599,24.0404 280.9879,23.9814 280.7929,23.9504 C280.5969,23.9194 280.3879,23.9054 280.1629,23.9054 C279.6669,23.9054 279.2759,24.0134 278.9919,24.2284 C278.7089,24.4434 278.5419,24.8014 278.4949,25.3044 L275.9749,25.3044 Z" id="Fill-215" fill="#000000"></path>
            <polygon id="Fill-216" fill="#000000" points="288.3613 31.7255 285.2203 22.4535 287.8643 22.4535 289.7983 28.7855 289.8343 28.7855 291.7693 22.4535 294.2703 22.4535 291.1653 31.7255"></polygon>
            <path d="M295.21,31.725 L297.73,31.725 L297.73,22.453 L295.21,22.453 L295.21,31.725 Z M295.211,21.019 L297.731,21.019 L297.731,18.92 L295.211,18.92 L295.211,21.019 Z" id="Fill-217" fill="#000000"></path>
            <path d="M301.8828,28.1835 C301.9538,28.5365 302.0758,28.8525 302.2468,29.1345 C302.4178,29.4135 302.6458,29.6395 302.9298,29.8065 C303.2138,29.9745 303.5688,30.0585 303.9938,30.0585 C304.4208,30.0585 304.7788,29.9745 305.0688,29.8065 C305.3578,29.6395 305.5888,29.4135 305.7598,29.1345 C305.9318,28.8525 306.0528,28.5365 306.1248,28.1835 C306.1948,27.8305 306.2308,27.4695 306.2308,27.0985 C306.2308,26.7275 306.1948,26.3635 306.1248,26.0045 C306.0528,25.6455 305.9318,25.3285 305.7598,25.0535 C305.5888,24.7795 305.3578,24.5545 305.0688,24.3805 C304.7788,24.2075 304.4208,24.1215 303.9938,24.1215 C303.5688,24.1215 303.2138,24.2075 302.9298,24.3805 C302.6458,24.5545 302.4178,24.7795 302.2468,25.0535 C302.0758,25.3285 301.9538,25.6455 301.8828,26.0045 C301.8118,26.3635 301.7768,26.7275 301.7768,27.0985 C301.7768,27.4695 301.8118,27.8305 301.8828,28.1835 M299.5928,25.0795 C299.8188,24.4775 300.1378,23.9625 300.5518,23.5375 C300.9658,23.1145 301.4628,22.7855 302.0418,22.5515 C302.6228,22.3185 303.2728,22.2015 303.9938,22.2015 C304.7158,22.2015 305.3698,22.3185 305.9558,22.5515 C306.5408,22.7855 307.0408,23.1145 307.4548,23.5375 C307.8688,23.9625 308.1878,24.4775 308.4128,25.0795 C308.6378,25.6845 308.7508,26.3565 308.7508,27.0985 C308.7508,27.8395 308.6378,28.5085 308.4128,29.1075 C308.1878,29.7045 307.8688,30.2165 307.4548,30.6395 C307.0408,31.0655 306.5408,31.3915 305.9558,31.6175 C305.3698,31.8445 304.7158,31.9585 303.9938,31.9585 C303.2728,31.9585 302.6228,31.8445 302.0418,31.6175 C301.4628,31.3915 300.9658,31.0655 300.5518,30.6395 C300.1378,30.2165 299.8188,29.7045 299.5928,29.1075 C299.3688,28.5085 299.2568,27.8395 299.2568,27.0985 C299.2568,26.3565 299.3688,25.6845 299.5928,25.0795" id="Fill-218" fill="#000000"></path>
            <path d="M316.4165,31.7255 L316.4165,30.4345 L316.3635,30.4345 C316.0435,30.9725 315.6295,31.3615 315.1215,31.5995 C314.6115,31.8385 314.0915,31.9585 313.5595,31.9585 C312.8845,31.9585 312.3315,31.8695 311.9005,31.6895 C311.4685,31.5105 311.1285,31.2555 310.8795,30.9275 C310.6315,30.5985 310.4575,30.1985 310.3555,29.7255 C310.2565,29.2525 310.2055,28.7305 310.2055,28.1565 L310.2055,22.4535 L312.7255,22.4535 L312.7255,27.6915 C312.7255,28.4555 312.8435,29.0255 313.0815,29.4035 C313.3165,29.7795 313.7365,29.9675 314.3405,29.9675 C315.0265,29.9675 315.5235,29.7625 315.8315,29.3495 C316.1385,28.9365 316.2925,28.2585 316.2925,27.3125 L316.2925,22.4535 L318.8125,22.4535 L318.8125,31.7255 L316.4165,31.7255 Z" id="Fill-219" fill="#000000"></path>
            <path d="M322.9463,22.452 L322.9463,24.175 L322.9823,24.175 C323.1003,23.888 323.2593,23.622 323.4613,23.376 C323.6623,23.132 323.8923,22.923 324.1543,22.749 C324.4133,22.575 324.6913,22.44 324.9883,22.346 C325.2823,22.249 325.5903,22.202 325.9093,22.202 C326.0763,22.202 326.2593,22.231 326.4603,22.291 L326.4603,24.659 C326.3413,24.635 326.1993,24.614 326.0343,24.596 C325.8683,24.578 325.7093,24.569 325.5553,24.569 C325.0933,24.569 324.7033,24.647 324.3833,24.802 C324.0643,24.958 323.8073,25.17 323.6123,25.439 C323.4173,25.708 323.2773,26.022 323.1953,26.381 C323.1123,26.739 323.0703,27.129 323.0703,27.547 L323.0703,31.724 L320.5503,31.724 L320.5503,22.452 L322.9463,22.452 Z" id="Fill-220" fill="#000000"></path>
            <polygon id="Fill-221" fill="#149BD6" points="336.8413 31.7255 334.6943 23.0085 334.6583 23.0085 332.5463 31.7255 329.7253 31.7255 326.3713 18.9195 329.1563 18.9195 331.1633 27.6365 331.1973 27.6365 333.3983 18.9195 336.0073 18.9195 338.1713 27.7445 338.2073 27.7445 340.2833 18.9195 343.0163 18.9195 339.6093 31.7255"></polygon>
            <path d="M345.1812,28.1835 C345.2522,28.5365 345.3732,28.8525 345.5462,29.1345 C345.7172,29.4135 345.9442,29.6395 346.2282,29.8065 C346.5122,29.9745 346.8672,30.0585 347.2922,30.0585 C347.7192,30.0585 348.0772,29.9745 348.3672,29.8065 C348.6562,29.6395 348.8872,29.4135 349.0582,29.1345 C349.2302,28.8525 349.3512,28.5365 349.4232,28.1835 C349.4932,27.8305 349.5292,27.4695 349.5292,27.0985 C349.5292,26.7275 349.4932,26.3635 349.4232,26.0045 C349.3512,25.6455 349.2302,25.3285 349.0582,25.0535 C348.8872,24.7795 348.6562,24.5545 348.3672,24.3805 C348.0772,24.2075 347.7192,24.1215 347.2922,24.1215 C346.8672,24.1215 346.5122,24.2075 346.2282,24.3805 C345.9442,24.5545 345.7172,24.7795 345.5462,25.0535 C345.3732,25.3285 345.2522,25.6455 345.1812,26.0045 C345.1102,26.3635 345.0752,26.7275 345.0752,27.0985 C345.0752,27.4695 345.1102,27.8305 345.1812,28.1835 M342.8922,25.0795 C343.1172,24.4775 343.4362,23.9625 343.8512,23.5375 C344.2642,23.1145 344.7612,22.7855 345.3402,22.5515 C345.9212,22.3185 346.5712,22.2015 347.2922,22.2015 C348.0142,22.2015 348.6682,22.3185 349.2542,22.5515 C349.8392,22.7855 350.3392,23.1145 350.7532,23.5375 C351.1672,23.9625 351.4872,24.4775 351.7112,25.0795 C351.9362,25.6845 352.0492,26.3565 352.0492,27.0985 C352.0492,27.8395 351.9362,28.5085 351.7112,29.1075 C351.4872,29.7045 351.1672,30.2165 350.7532,30.6395 C350.3392,31.0655 349.8392,31.3915 349.2542,31.6175 C348.6682,31.8445 348.0142,31.9585 347.2922,31.9585 C346.5712,31.9585 345.9212,31.8445 345.3402,31.6175 C344.7612,31.3915 344.2642,31.0655 343.8512,30.6395 C343.4362,30.2165 343.1172,29.7045 342.8922,29.1075 C342.6672,28.5085 342.5562,27.8395 342.5562,27.0985 C342.5562,26.3565 342.6672,25.6845 342.8922,25.0795" id="Fill-222" fill="#149BD6"></path>
            <path d="M355.8994,22.452 L355.8994,24.175 L355.9354,24.175 C356.0534,23.888 356.2124,23.622 356.4144,23.376 C356.6144,23.132 356.8464,22.923 357.1064,22.749 C357.3654,22.575 357.6454,22.44 357.9414,22.346 C358.2354,22.249 358.5434,22.202 358.8624,22.202 C359.0284,22.202 359.2124,22.231 359.4134,22.291 L359.4134,24.659 C359.2954,24.635 359.1524,24.614 358.9864,24.596 C358.8214,24.578 358.6624,24.569 358.5084,24.569 C358.0464,24.569 357.6564,24.647 357.3364,24.802 C357.0174,24.958 356.7604,25.17 356.5654,25.439 C356.3704,25.708 356.2304,26.022 356.1484,26.381 C356.0654,26.739 356.0244,27.129 356.0244,27.547 L356.0244,31.724 L353.5034,31.724 L353.5034,22.452 L355.8994,22.452 Z" id="Fill-223" fill="#149BD6"></path>
            <polygon id="Fill-224" fill="#149BD6" points="362.98 18.9198 362.98 25.7888 366.156 22.4528 369.138 22.4528 365.677 25.8598 369.528 31.7258 366.476 31.7258 363.956 27.5818 362.98 28.5328 362.98 31.7258 360.46 31.7258 360.46 18.9198"></polygon>
            <path d="M372.3584,29.4208 C372.4704,29.6178 372.6154,29.7798 372.7924,29.9048 C372.9694,30.0308 373.1744,30.1228 373.4054,30.1828 C373.6354,30.2428 373.8754,30.2738 374.1244,30.2738 C374.3014,30.2738 374.4874,30.2518 374.6824,30.2098 C374.8784,30.1688 375.0564,30.1028 375.2154,30.0118 C375.3754,29.9228 375.5074,29.8038 375.6144,29.6538 C375.7204,29.5048 375.7744,29.3168 375.7744,29.0888 C375.7744,28.7058 375.5234,28.4188 375.0204,28.2288 C374.5174,28.0368 373.8164,27.8468 372.9174,27.6538 C372.5504,27.5698 372.1924,27.4718 371.8434,27.3578 C371.4944,27.2438 371.1844,27.0958 370.9114,26.9098 C370.6404,26.7248 370.4204,26.4908 370.2544,26.2108 C370.0894,25.9298 370.0064,25.5858 370.0064,25.1798 C370.0064,24.5808 370.1224,24.0908 370.3534,23.7078 C370.5844,23.3248 370.8884,23.0238 371.2674,22.8028 C371.6454,22.5818 372.0714,22.4268 372.5444,22.3358 C373.0174,22.2458 373.5024,22.2018 374.0004,22.2018 C374.4964,22.2018 374.9784,22.2488 375.4454,22.3458 C375.9134,22.4408 376.3294,22.6028 376.6964,22.8288 C377.0644,23.0568 377.3684,23.3588 377.6104,23.7348 C377.8534,24.1118 377.9984,24.5878 378.0454,25.1598 L375.6504,25.1598 C375.6144,24.6698 375.4314,24.3398 375.1004,24.1658 C374.7684,23.9918 374.3784,23.9048 373.9284,23.9048 C373.7864,23.9048 373.6324,23.9148 373.4674,23.9328 C373.3014,23.9498 373.1504,23.9888 373.0144,24.0498 C372.8794,24.1088 372.7624,24.1948 372.6684,24.3098 C372.5744,24.4228 372.5264,24.5758 372.5264,24.7668 C372.5264,24.9938 372.6094,25.1798 372.7754,25.3218 C372.9404,25.4658 373.1564,25.5818 373.4234,25.6718 C373.6894,25.7628 373.9934,25.8428 374.3374,25.9148 C374.6804,25.9868 375.0284,26.0648 375.3834,26.1468 C375.7504,26.2318 376.1084,26.3328 376.4574,26.4518 C376.8064,26.5718 377.1174,26.7308 377.3894,26.9278 C377.6614,27.1248 377.8794,27.3698 378.0454,27.6628 C378.2114,27.9558 378.2934,28.3178 378.2934,28.7478 C378.2934,29.3588 378.1734,29.8688 377.9304,30.2808 C377.6874,30.6938 377.3714,31.0258 376.9814,31.2758 C376.5904,31.5268 376.1434,31.7048 375.6404,31.8058 C375.1374,31.9078 374.6264,31.9588 374.1064,31.9588 C373.5734,31.9588 373.0524,31.9038 372.5444,31.7968 C372.0364,31.6898 371.5834,31.5108 371.1874,31.2588 C370.7904,31.0078 370.4654,30.6768 370.2114,30.2638 C369.9564,29.8528 369.8174,29.3338 369.7944,28.7128 L372.1904,28.7128 C372.1904,28.9868 372.2454,29.2238 372.3584,29.4208" id="Fill-225" fill="#149BD6"></path>
        </g>
    </g>
</svg>