<svg xmlns="http://www.w3.org/2000/svg" width="97" height="54" viewBox="0 0 97 54"><g><g><path fill="#d3d725" d="M.089 53.149h96.68V.433H.089z"/></g><g><path d="M66.23 30.277h-3.675c.055-1.02.768-1.868 1.76-1.868 1.045 0 1.742.758 1.916 1.868zm3.246 5.516h2.963v-2.997h-2.963zM60.938 8.374h-2.963v2.998h2.963zm5.293 23.573c-.051 1.25-.767 2.078-2.02 2.078-.715 0-1.411-.335-1.69-1.003h-2.768c.539 2.111 2.472 3.027 4.492 3.027 2.944 0 4.944-1.796 4.944-4.86 0-2.797-2.208-4.802-4.874-4.802-3.24 0-4.86 2.463-4.718 5.56zm-13.543-.986c0-1.126.417-2.289 1.722-2.289 1.326 0 1.779 1.144 1.779 2.308 0 1.142-.54 2.13-1.793 2.13-1.22 0-1.708-1.075-1.708-2.149zm.817 5.898c-.276-.14-.434-.387-.503-.793h-2.96c.349 2.448 2.335 2.922 4.442 2.922 4.232 0 4.509-2.816 4.509-4.313V26.65h-2.84v1.144h-.033c-.523-.933-1.34-1.406-2.421-1.406-2.56 0-3.968 2.041-3.968 4.47 0 2.57 1.234 4.54 3.968 4.54.957 0 1.862-.494 2.404-1.337h.034v.863c0 1.126-.14 2.13-1.551 2.13-.452 0-.818-.054-1.081-.194zm-7.224-1.074h2.958v-5.863c0-1.318-.24-3.535-3.255-3.535-1.08 0-2.296.58-2.837 1.512h-.035v-1.25h-2.875v9.136H43.2v-4.98c0-1.005.488-1.955 1.602-1.955 1.619 0 1.479 1.266 1.479 2.518zm-12.938-2.624c0-.72.557-1.002 1.217-1.16.646-.177 1.414-.229 1.83-.494.069 1.883-.4 2.694-1.81 2.694-.663 0-1.237-.3-1.237-1.04zm-1.185-6.14c-.8.473-1.36 1.247-1.411 2.445h2.769c.142-.775.66-1.145 1.483-1.145.608 0 1.426.266 1.426.95 0 .564-.277.741-.784.845-2.056.424-5.258.194-5.258 3.17 0 1.883 1.357 2.763 3.08 2.763 1.08 0 2.212-.318 2.98-1.126.035.298.07.58.173.862h2.978c-.35-.722-.35-1.566-.35-2.34v-3.998c0-2.587-2.071-3.06-4.213-3.06-1.026 0-2.071.175-2.873.633zM26.9 35.784h2.962v-5.863c0-1.318-.244-3.535-3.258-3.535-1.08 0-2.297.58-2.753 1.512h-.033v-4.68H20.86v12.566h2.958v-4.98c0-1.005.489-1.955 1.602-1.955 1.617 0 1.48 1.266 1.48 2.518zm-9.925-8.079h3.24c-.088-3.028-2.995-4.753-5.68-4.753-3.761 0-6.197 2.904-6.197 6.547 0 3.644 2.436 6.55 6.198 6.55 3.152 0 5.502-1.903 5.679-5.142h-3.24c-.121 1.445-.993 2.324-2.508 2.324-2.09 0-2.891-1.864-2.891-3.732 0-1.865.802-3.73 2.89-3.73 1.359 0 2.334.668 2.509 1.936zM84.777 13.8h-.036v-1.6h-2.875v9.133h2.96v-4.522c0-1.145.768-2.166 2.23-2.166.399 0 .748.071 1.133.175v-2.726a3.077 3.077 0 0 0-.696-.072c-1.272 0-2.283.618-2.716 1.778zm-7.003 3.291c0 1.621-.975 2.043-1.616 2.043-.942 0-1.466-.422-1.466-1.637V12.2h-2.958v5.491c0 2.394.747 3.907 3.34 3.907 1.048 0 2.195-.58 2.754-1.513h.035v1.25h2.874v-9.135h-2.963zm-9.578-.318c0 1.163-.432 2.537-1.81 2.537-1.375 0-1.791-1.374-1.791-2.537 0-1.159.416-2.549 1.792-2.549 1.377 0 1.809 1.39 1.809 2.55zm2.964 0c0-2.745-1.972-4.838-4.773-4.838-2.804 0-4.754 2.093-4.754 4.838 0 2.748 1.95 4.824 4.754 4.824 2.8 0 4.773-2.076 4.773-4.824zM60.936 12.2h-2.96v9.135h2.96zm-6.08 9.134l3.032-9.134h-3.012l-1.671 6.035h-.035L51.516 12.2h-3.081l3.01 9.134zm-12.274-2.62c0-.725.559-1.004 1.22-1.164.643-.175 1.409-.23 1.829-.493.069 1.882-.401 2.694-1.81 2.694-.662 0-1.24-.3-1.24-1.038zm-2.96.121c0 1.883 1.36 2.763 3.08 2.763 1.082 0 2.213-.317 2.98-1.126.037.3.07.581.173.862h2.98c-.348-.722-.348-1.566-.348-2.339v-3.997c0-2.587-2.073-3.062-4.215-3.062-1.03 0-2.074.174-2.873.632-.802.476-1.358 1.251-1.411 2.448h2.77c.139-.775.66-1.145 1.48-1.145.607 0 1.429.265 1.429.95 0 .564-.28.742-.785.846-2.054.421-5.26.194-5.26 3.168zm-6.567-2.48c0-1.004.489-1.956 1.604-1.956 1.62 0 1.482 1.268 1.482 2.517v4.418H39.1v-5.86c0-1.32-.243-3.538-3.257-3.538-1.08 0-2.3.581-2.75 1.513h-.038v-5.08h-2.956v12.965h2.956zm-6.44-.53h-3.673c.17-1.108.869-1.865 1.914-1.865.993 0 1.706.844 1.76 1.865zm2.804 2.745h-2.77c-.278.67-.975 1.003-1.688 1.003-1.252 0-1.967-.827-2.02-2.075h6.636c.138-3.099-1.482-5.562-4.721-5.562-2.665 0-4.876 2.005-4.876 4.804 0 3.064 2.003 4.858 4.946 4.858 2.02 0 3.954-.915 4.493-3.028zm-17.403.052v-2.98h2.596c.974 0 1.74.381 1.74 1.527 0 1.07-.711 1.453-1.74 1.453zm0-7.65h2.508c.68 0 1.325.308 1.325 1.254 0 .927-.766 1.235-1.325 1.235h-2.508zm5.435 3.252c.975-.51 1.637-1.453 1.637-2.617 0-2.708-2.353-3.289-4.494-3.232H8.778v12.954h5.972c2.664 0 4.842-.945 4.842-4.035 0-1.47-.817-2.67-2.141-3.07z"/></g><g><path d="M8.778 39.817h4.582v1.212h-1.597v4.19h-1.388v-4.19H8.778zm26.037 4.722c.607 0 .812-.348.78-1.157-.178.112-.506.135-.785.212-.284.066-.526.189-.526.499 0 .317.248.446.53.446zm2.009-.325c0 .333 0 .696.149 1.005h-1.281a1.49 1.49 0 0 1-.074-.37c-.331.348-.816.483-1.28.483-.742 0-1.325-.377-1.325-1.186 0-1.28 1.377-1.182 2.26-1.363.217-.044.337-.121.337-.363 0-.295-.35-.408-.611-.408-.353 0-.578.158-.637.49H33.17c.023-.513.26-.845.606-1.051.344-.196.794-.271 1.236-.271.918 0 1.812.203 1.812 1.316zm2.893-3.034c1.297 0 1.398.953 1.398 1.52v2.519h-1.271v-1.897c0-.54.06-1.084-.634-1.084-.481 0-.692.409-.692.84v2.14h-1.271v-3.925h1.236v.535h.015c.23-.397.754-.648 1.219-.648zm-23.532 0c1.297 0 1.402.953 1.402 1.52v2.519H16.31v-1.897c0-.54.062-1.084-.632-1.084-.481 0-.691.409-.691.84v2.14h-1.271v-5.401h1.27v2.01h.016c.195-.396.718-.647 1.182-.647zm66.764 0c1.297 0 1.398.953 1.398 1.52v2.519h-1.273v-1.897c0-.54.062-1.084-.633-1.084-.478 0-.69.409-.69.84v2.14h-1.272v-3.925h1.237v.535h.01c.237-.397.759-.648 1.223-.648zm-4.901 3.359c.608 0 .81-.348.779-1.157-.178.112-.508.135-.786.212-.284.066-.525.189-.525.499 0 .317.247.446.532.446zm2.006-.325c0 .333 0 .696.15 1.005H78.92c-.042-.12-.056-.242-.071-.37-.331.348-.815.483-1.28.483-.742 0-1.323-.377-1.323-1.186 0-1.28 1.375-1.182 2.26-1.363.214-.044.334-.121.334-.363 0-.295-.35-.408-.612-.408-.353 0-.576.158-.635.49H76.4c.026-.513.263-.845.607-1.051.344-.196.793-.271 1.233-.271.923 0 1.813.203 1.813 1.316zm-16.743.136c.589 0 .776-.59.776-1.091 0-.5-.187-1.096-.776-1.096-.595 0-.774.596-.774 1.096 0 .5.179 1.09.774 1.09zm0-3.17c1.203 0 2.05.9 2.05 2.079 0 1.182-.847 2.073-2.05 2.073-1.207 0-2.046-.891-2.046-2.073 0-1.18.839-2.08 2.046-2.08zm10.805 3.17c.565 0 .762-.597.762-1.135 0-.5-.197-1.052-.758-1.052-.342 0-.776.24-.776 1.052 0 .689.194 1.135.772 1.135zm.299-3.17c1.22 0 1.735 1.058 1.735 2.163 0 1.02-.538 1.989-1.64 1.989-.48 0-.846-.18-1.107-.535h-.017v1.739h-1.27v-5.243h1.21v.452h.018a1.243 1.243 0 0 1 1.07-.565zm-4.096 0c1.237 0 1.369.945 1.369 1.694v2.345h-1.274V42.91c0-.421-.201-.673-.528-.673-.548 0-.6.424-.6 1.059v1.922h-1.272v-2.23c0-.463-.133-.751-.48-.751-.46 0-.65.264-.65 1.065v1.916H65.61v-3.926h1.235v.535h.014a1.296 1.296 0 0 1 1.115-.648c.488 0 .922.157 1.132.636.306-.418.687-.636 1.212-.636zm-43.245.786c.773.219 1.55.582 1.55 1.56 0 1.369-1.151 1.806-2.327 1.806-1.23 0-2.315-.544-2.321-1.93h1.39c.033.639.42.842 1.012.842.419 0 .856-.151.856-.553 0-.476-.765-.568-1.535-.787-.765-.218-1.567-.567-1.567-1.56 0-1.18 1.174-1.641 2.178-1.641 1.065 0 2.134.523 2.143 1.742H27.06c.02-.493-.434-.652-.86-.652-.3 0-.676.106-.676.462 0 .417.773.49 1.55.71zm31.49-1.052c-.898 0-1.242.802-1.242 1.604 0 .804.344 1.603 1.242 1.603.65 0 1.027-.377 1.076-.998h1.396c-.076 1.392-1.087 2.209-2.442 2.209-1.62 0-2.666-1.248-2.666-2.814s1.047-2.815 2.666-2.815c1.152 0 2.402.743 2.442 2.042H59.64c-.074-.544-.492-.831-1.076-.831zm-27.22.266c1.298 0 1.402.953 1.402 1.52v2.519h-1.271v-1.897c0-.54.059-1.084-.637-1.084-.477 0-.688.409-.688.84v2.14h-1.273v-5.401h1.273v2.01h.013c.198-.396.717-.647 1.182-.647zm-10.638 1.67c-.025-.437-.332-.801-.757-.801-.45 0-.75.325-.824.802zm-.757-1.67c1.393 0 2.088 1.058 2.027 2.39h-2.851c.023.537.329.892.869.892.307 0 .607-.143.725-.43h1.194c-.235.908-1.066 1.3-1.933 1.3-1.264 0-2.128-.771-2.128-2.087 0-1.204.953-2.065 2.097-2.065zm27.758 3.17c.589 0 .777-.59.777-1.091 0-.5-.188-1.096-.777-1.096-.592 0-.771.596-.771 1.096 0 .5.179 1.09.77 1.09zm0-3.17c1.203 0 2.05.9 2.05 2.079 0 1.182-.847 2.073-2.05 2.073-1.206 0-2.045-.891-2.045-2.073 0-1.18.839-2.08 2.045-2.08zm4.769 0c1.297 0 1.403.953 1.403 1.52v2.519h-1.273v-1.897c0-.54.059-1.084-.637-1.084-.477 0-.687.409-.687.84v2.14h-1.273v-3.925h1.233v.535h.017c.233-.397.757-.648 1.217-.648zm34.63.113h1.304l-1.535 4.275c-.307.862-.764.968-1.624.968h-.597v-1.044h.44c.29 0 .507-.166.507-.438 0-.213-.248-.817-.32-1.03l-1.003-2.731h1.349l.732 2.557h.015zm-43.095-.113c1.296 0 1.399.953 1.399 1.52v2.519h-1.271v-1.897c0-.54.059-1.084-.636-1.084-.48 0-.69.409-.69.84v2.14h-1.272v-3.925h1.236v.535h.01c.236-.397.76-.648 1.224-.648z"/></g></g></svg>