<svg xmlns="http://www.w3.org/2000/svg" width="130.368" height="338.645" viewBox="0 0 130.368 338.645">
  <g id="Group_4916" data-name="Group 4916" transform="translate(-2584.733 -5333.659)">
    <path id="Path_8637" data-name="Path 8637" d="M2589.527,5405.669c1.14.023,3.281,2.693,6.684,5.19a11.761,11.761,0,0,0,7.137,2.384s2.555.189-.99-6.4c-1.368-2.558,1.092-2.827,1.092-2.827s.974,1.379,2.859,3.908c2.125,2.839,3.118,3.637,4.67,6.543a9,9,0,0,1,1.334,5.028c-.125.864.3,5.622-5.381,4.394-.549-.118-2.386-1.082-3.426-1.265a30.229,30.229,0,0,1-8.027-2.462c-4.764-2.189-6.186-7.589-6.959-11.227C2588.244,5407.634,2588.37,5405.664,2589.527,5405.669Z" fill="#ad7c5b"/>
    <path id="Path_8638" data-name="Path 8638" d="M2633.5,5450.075c-12.527-9.666-17.172-15.905-28.945-26.489,5.593-2.778,7.376-8.781,6.174-10.948,11.048,7.947,25.237,16.861,34.5,27.039Z" fill="#06a7e0" fill-rule="evenodd"/>
    <g id="Group_4903" data-name="Group 4903">
      <g id="Group_4902" data-name="Group 4902">
        <path id="Path_8639" data-name="Path 8639" d="M2673.3,5480.314" fill="#f1b287" fill-rule="evenodd"/>
      </g>
    </g>
    <path id="Path_8640" data-name="Path 8640" d="M2708.877,5645.718l-65.823-32.345c-7.176-2.829-17.446-5.081-24.757-1.8-6.661,2.991-17.635,9.113-22.487,11.5-3.685,1.814-16.478,8.427-8.51,12.165,23.44,11,46.637,23.366,70.44,34.538,4.5,2.112,11.087,2.876,18,2.38a53.345,53.345,0,0,0,19.5-5.009q5.934-2.977,11.673-5.862c5.163-2.594,7.9-5.661,8.171-8.5C2715.344,5650.02,2713.281,5647.453,2708.877,5645.718Z" fill="#231f20" fill-rule="evenodd" opacity="0.1" style="mix-blend-mode: multiply;isolation: isolate"/>
    <g id="Group_4905" data-name="Group 4905">
      <g id="Group_4904" data-name="Group 4904">
        <path id="Path_8641" data-name="Path 8641" d="M2638.574,5605.436c-1.138,4-1.424,6.059-3.084,8.385-3.31,4.638-8.191,7.951-15.3,12.989-3.38,2.4-4.1,4.668-.671,6.757,2.7,1.645,9.291.338,13.41-.631,7.73-1.818,10.855-6.47,13.5-7.68l2,.453c1.639.029,8.081-2.57,9.337-4.253a45.946,45.946,0,0,0,1.008-5.991c.239-6.543-.787-5.877-2.537-10.995C2650.293,5604.9,2644.532,5605.234,2638.574,5605.436Z" fill="#111214" fill-rule="evenodd"/>
        <path id="Path_8642" data-name="Path 8642" d="M2617.282,5630.572c-.034,1.034.664,2.034,2.24,3,2.7,1.646,9.291.338,13.41-.631,7.73-1.818,10.855-6.47,13.5-7.68l2,.454c1.639.028,8.081-2.571,9.337-4.254a45.946,45.946,0,0,0,1.008-5.991c.239-6.543-.787-5.877-2.537-10.995-2.632.191-5.228.363-7.82.512-.469,4.307.16,11.737-3.385,14.5-3.963,3.091-7.056,3.914-9.7,5.525C2626.894,5630.138,2621.319,5634.307,2617.282,5630.572Z" fill-rule="evenodd"/>
        <path id="Path_8643" data-name="Path 8643" d="M2636.7,5612.782c.843,1.245,2.5,1.947,5.242,2.629-4.422,4.984-5.044,4.518-10.983,7.855-2.991,3.418-3.407,4.067-5.317,5.17-2.279,1.316-5.5,2.669-6.851,1.7-.582-.418.2-1.589,2.712-3.408,2.847-2.064,5.746-4.155,8.368-6.336A30.919,30.919,0,0,0,2636.7,5612.782Z" fill="#20232e" fill-rule="evenodd"/>
      </g>
      <path id="Path_8644" data-name="Path 8644" d="M2660.706,5496.13a95.533,95.533,0,0,0,.844-15.268c-4.817-1.927-9.881-3.749-14.765-5.886l.349-.294c-5.176-2.429-9.638-6.2-15.607-9.629-2.5,7.865-3.424,11.386-3.233,17.783a196.459,196.459,0,0,0,2.8,25.292c.872,12.957,2.037,26.477,2.876,35.324,2.143,22.572,1.881,44.838,3.232,67.372,2.8,4.589,16.289,4.871,20.9-1.582.69-17.825,1.806-31.9,1.3-41.652-.42-8.119-.806-12.8-3.432-20.013C2657.715,5535.568,2660.069,5513.465,2660.706,5496.13Z" fill="#001624" fill-rule="evenodd"/>
      <path id="Path_8645" data-name="Path 8645" d="M2683.212,5629.125c.988,2.887,1.891,5.124,1.8,6.94-.1,1.88-.609,3.708-.585,6.087.02,2.039.125,3.773.361,6.081.241,2.361-.005,3.478-1.041,4.421-1.683,1.533-6.7,3.9-9.076,4.71a9.521,9.521,0,0,1-4.16.559,18.522,18.522,0,0,1-5.576-1.016c-.513-.193-1.039-2.184-1.076-3.911-.078-3.614.25-3.309,1.746-9.039.511-1.957.924-3.824,1.627-6.11.875-2.847,1.964-5.353,2.077-8.155l10.587-.413Z" fill="#111214" fill-rule="evenodd"/>
      <path id="Path_8646" data-name="Path 8646" d="M2683.212,5629.125c.988,2.887,1.891,5.124,1.8,6.94-.1,1.88-.609,3.708-.585,6.087.02,2.039.125,3.773.361,6.081.241,2.361-.005,3.478-1.041,4.421-1.683,1.533-6.7,3.9-9.076,4.71a9.521,9.521,0,0,1-4.16.559,18.522,18.522,0,0,1-5.576-1.016c-.465-.175-.94-1.823-1.053-3.415l.029,0c3.235,1.1,6.375,1.545,9.483.026,6.562-3.205,5.708-5.867,5.091-13.431-4.269-.751-5.947-1.512-8.112-3.85,3.639,1.07,7.551,1.261,9.487-.962l.6-6.019Z" fill-rule="evenodd"/>
      <path id="Path_8647" data-name="Path 8647" d="M2644.98,5547.508c4.426,20.912,5.546,35.668,2.72,66.624,4.072-.3,8.223-1.846,10.4-4.89.69-17.825,1.806-31.9,1.3-41.652-.42-8.119-.806-12.8-3.432-20.013,2.251-15.44,5.5-47.569,4.812-64.793l-9.242-3.7C2648.733,5504.57,2646.966,5517.711,2644.98,5547.508Z" fill="#00101a" fill-rule="evenodd"/>
      <path id="Path_8648" data-name="Path 8648" d="M2649.979,5505.559c1.707,17.367,11.067,102.488,13.047,124.974,3.06,4.786,14.589,5.772,19-.182.192-17.838,1.811-37.809,1.034-47.544a61.489,61.489,0,0,0-4.822-20.16c.444-13.9,7.7-71.011-1.884-82.217a8.4,8.4,0,0,0-1.8-2.537l-13.959-1.09-16.558-1.927a48.021,48.021,0,0,0,.119,19.663,3.145,3.145,0,0,0,.373.811c.159,1.172.368,2.352.634,3.535C2645.408,5499.97,2648.059,5503,2649.979,5505.559Z" fill="#001e30" fill-rule="evenodd"/>
      <path id="Path_8649" data-name="Path 8649" d="M2668.757,5636.819c3.063,2.416,1.991,3.472,6.462,4.055-1.106,4.423-1.244,4.637-3.485,8.716-.18,1.685-.315,3.9-3.6,3.917-6.127.039-1.876-5.018-1.855-5.208A50.645,50.645,0,0,1,2668.757,5636.819Z" fill="#20232e" fill-rule="evenodd"/>
      <path id="Path_8650" data-name="Path 8650" d="M2632.125,5470.052a43.228,43.228,0,0,0,11.538,8.1c.017,7.906.012,22.547-.284,37.182-.031,8.655-.171,17.47-.545,24.807q-.019.534-.035,1.07c.736,6.091,3.591,9.529,3.949,18.682.4,10.2-.923,27.29-2.731,38.451.059,4.9.091,9.78.05,14.649a9.6,9.6,0,0,1-6.486-2.681l-.363-55.432c-.348-8.833-1.708-22.055-2.8-35.657C2632.1,5502.983,2629.856,5484.137,2632.125,5470.052Z" fill="#001e30" fill-rule="evenodd"/>
      <path id="Path_8651" data-name="Path 8651" d="M2663.821,5482.589l.04.011a257.286,257.286,0,0,0,7.473,25.5c2.036,17.633,1.517,36.873,1.762,50.469,1.836,24.873,3.914,49.795,5.155,74.7-2.263-.2-7.283-1.207-8.486-2.3-1.358-20.28-1.117-48.878-3.644-67.937-.516-3.892-4.272-36.944-8.8-55.673-1.517-6.275-5.857-6.157-6.735-9.765-1.906-7.828-1.946-11.4-1.162-19.9C2654.182,5479.484,2658.927,5481.192,2663.821,5482.589Z" fill="#00263d" fill-rule="evenodd"/>
    </g>
    <path id="Path_8652" data-name="Path 8652" d="M2631.381,5465.625c.059.386-2.376,7.372-2.249,7.779,4.071,13.039,40.5,7.584,47.225,7.026-5.332-46.375,42.668-82.229-9.368-97.516l-14.972,8.241-5.357-.961-.687-6.593c-7.244,7.2-10.595,16.749-11.884,30.023C2632.4,5430.991,2636.047,5446.57,2631.381,5465.625Z" fill="#78bfea" fill-rule="evenodd"/>
    <path id="Path_8653" data-name="Path 8653" d="M2650.322,5382.613c-.161-.5-7.729-1.888-8.031-1.907-5.282-.335-7.656.769-10.439,4.917-4.864,7.25-5.624,22.686-5.281,36.6.194,7.881,3.858,13.051,3.955,22.843.047,4.73-1.965,27.738-1.394,28.342,1.438,1.518,1.585.356,3.362,1.472-.01-5.611,1.408-17.479,1.573-23.339.468-16.537,1.625-33.456,4.715-46.016C2643.314,5387.1,2651.126,5385.1,2650.322,5382.613Z" fill="#78bfea" fill-rule="evenodd"/>
    <path id="Path_8654" data-name="Path 8654" d="M2655.893,5482.011c7.968.589,17.318-1.32,20.464-1.581-5.332-46.375,42.668-82.229-9.368-97.516l-14.972,8.241-5.357-.961-.687-6.593a35.026,35.026,0,0,0-7.457,10.988l.429.471c3.907-1.238,5.96-2.821,7.974-1.931,1.661.734,3.561,3.348,4.147,7.494,2.361-.591,6.862-2.285,9.2-2.953-8.673,12.933-16.763,40.73-10.693,69.756C2650.331,5471.033,2654.267,5478.285,2655.893,5482.011Z" fill="#06a7e0" fill-rule="evenodd"/>
    <g id="Group_4906" data-name="Group 4906">
      <path id="Path_8655" data-name="Path 8655" d="M2676.615,5479.765" fill="#e0f5ff" fill-rule="evenodd"/>
      <path id="Path_8656" data-name="Path 8656" d="M2664.9,5466.166" fill="#e0f5ff" fill-rule="evenodd"/>
      <path id="Path_8657" data-name="Path 8657" d="M2678.5,5468.04" fill="#e0f5ff" fill-rule="evenodd"/>
    </g>
    <path id="Path_8658" data-name="Path 8658" d="M2647.2,5398.572c.43,1.918.7,3.547.975,5.494-4.31,12.5-5.1,51.481-7.863,70.466-.4,2.744-2.787,4.214-4.34,2.768-1.072-1-1.454-5.268-1.706-3.793-.382-18.812,3.087-55.419,7.165-75a12.543,12.543,0,0,1,3.688-1.3,5.881,5.881,0,0,1,1.254-.006Z" fill="#041e2e" fill-rule="evenodd"/>
    <path id="Path_8659" data-name="Path 8659" d="M2651.537,5392.669c-.875,3.657-1.008,3.6-4.414,6.18l-2.2-1.167c-1.03-4.221-.521-6.952.325-7.452C2648.2,5390.122,2649.425,5390.471,2651.537,5392.669Z" fill="#041e2e" fill-rule="evenodd"/>
    <path id="Path_8660" data-name="Path 8660" d="M2666.113,5377.5c.413,6.651-12.213,11.274-19.26,12.951,1.768,2.134,4.052,4.817,3.961,6.949,5.082-1.39,13.7-3.78,17.191-10.277C2670.392,5382.679,2668.428,5379.268,2666.113,5377.5Z" fill="#06a7e0" fill-rule="evenodd"/>
    <path id="Path_8661" data-name="Path 8661" d="M2654.951,5388.586c-2.561.888-5.085,1.6-7.118,2.078,1.508,1.821,3.456,4.108,3.379,5.926a26.363,26.363,0,0,0,6.571-2.743C2661.026,5391.956,2659.837,5386.893,2654.951,5388.586Z" fill="#06a7e0" fill-rule="evenodd"/>
    <g id="Group_4907" data-name="Group 4907">
      <path id="Path_8662" data-name="Path 8662" d="M2645.55,5384.545c-.227-.642-.491-1.276-.743-1.963-.721-1.959-.746-6.1-1.993-10.691l18.08-7.881,3.872-2.054c-1.4,6.812-.578,10.873,1.352,15.707.2,6.544-12.2,11.1-19.2,12.772C2646.289,5388.85,2646.248,5386.522,2645.55,5384.545Z" fill="#ad7c5b" fill-rule="evenodd"/>
      <path id="Path_8663" data-name="Path 8663" d="M2664.464,5381.864c-6.561-2.317-11.69.563-20.188-1.708a66.054,66.054,0,0,0-1.462-8.265l18.08-7.881,3.872-2.054c-1.4,6.812-.578,10.873,1.352,15.707A6.249,6.249,0,0,1,2664.464,5381.864Z" fill="#8f6142" fill-rule="evenodd"/>
    </g>
    <path id="Path_8664" data-name="Path 8664" d="M2690.239,5430.772c-.473-11.815-2.487-23.557-2.61-35.382-9.056-.389-18.243,13.217-16.561,19.562,5.648,21.314,5.494,30.728,7.234,40.452,3.318-1.2,8.657,2.185,12.254,3.137C2691.207,5449.323,2690.609,5440.015,2690.239,5430.772Z" fill="#06a7e0" fill-rule="evenodd"/>
    <g id="Group_4909" data-name="Group 4909">
      <g id="Group_4908" data-name="Group 4908">
        <path id="Path_8665" data-name="Path 8665" d="M2667.987,5464.164" fill="#f1b287" fill-rule="evenodd"/>
      </g>
    </g>
    <g id="Group_4911" data-name="Group 4911">
      <g id="Group_4910" data-name="Group 4910">
        <path id="Path_8666" data-name="Path 8666" d="M2651.628,5380.876a50.677,50.677,0,0,1,9.5-4.392c2.738-.839,2.267-4.149,4.871-9.713,4.372-1.947,6.1-3.847,6.937-6.223,2-5.641-.032-12.573-3.767-16.9a15.726,15.726,0,0,0-12.787-5.455c-5.293.074-9.947,1.529-12.913,4.419-2.371,2.311-5.508,9.319-5.167,12.734.18,1.8.756,2.7.9,3.933.335,2.889-.919,2.37-1.289,4.543-.569,3.338.813,8.735,1.387,13.236a3.91,3.91,0,0,0,1.344,2.9c2.584,2.3,5.228,4.181,7.623,2.69C2649.766,5381.72,2650.736,5381.4,2651.628,5380.876Z" fill="#ad7c5b" fill-rule="evenodd"/>
        <path id="Path_8667" data-name="Path 8667" d="M2651.628,5380.876a50.677,50.677,0,0,1,9.5-4.392c2.738-.839,2.267-4.149,4.871-9.713,4.372-1.947,6.1-3.847,6.937-6.223,2-5.641-.032-12.573-3.767-16.9a15.726,15.726,0,0,0-12.787-5.455c-5.293.074-9.947,1.529-12.913,4.419a15.639,15.639,0,0,0-2.559,3.74c3.121,5.567,6.942,6.726,13.982,6.944,2.178.068,3.089,2.05,2.372,4.079-.733,2.072-3,3.968-3.055,5.03-.078,1.629,2.587,3.02,1.908,5.35-.385,1.316-4.8,2.577-5.009,4.516-.406,3.747-.117,4.265-.929,6.946-.459,1.516-3.372,3.609-5.177,3.523l-.288.068a3.711,3.711,0,0,0,3.552-.157C2649.766,5381.72,2650.736,5381.4,2651.628,5380.876Z" fill="#9e6d4c" fill-rule="evenodd"/>
        <path id="Path_8668" data-name="Path 8668" d="M2642.035,5344.022c1.956,4.017,9.64,6.6,15.934,6.241,2.533-.144,3.654,1.971,3.542,4.4-.117,2.528-1.214,3.814-1.547,6.013-.268,1.774.184,4.336.319,7.11l1.841.081c2.88-3.907,3.549.04,3.841,2.2,1.934-1,3.1-1.489,3.841-2.241s-.008-1.971,1.081-2.281c2.77-.787,1.68-2.591,2.441-3.521.489-.6,1.664-1.053,2.081-1.841.906-1.721-.346-3.772-.241-5.2a11.881,11.881,0,0,1,.881-2.8c.28-.8.814-1.278.8-2-.018-.864-1.5-3.014-2-3.841-.326-.538-.316-3.646-1.041-4.709-.957-1.4-1.968-1.663-3.04-2.494-1.22-.946-1.9-2.461-4-3.442-.953-.445-2.341-.1-3.321-.4s-1.754-1.093-2.681-1.44c-1.866-.7-4.06.643-5.4.8-1.267.148-3.191-.6-5.563-.08a33.786,33.786,0,0,0-3.681,1.442c-1.25.422-2.356-.325-3.361,2.48C2642.5,5339.22,2642.27,5342.711,2642.035,5344.022Z" fill="#22242b" fill-rule="evenodd"/>
        <path id="Path_8669" data-name="Path 8669" d="M2642.035,5344.022c1.956,4.017,9.64,6.6,15.934,6.241,2.533-.144,3.654,1.971,3.542,4.4-.117,2.528-1.214,3.814-1.547,6.013-.268,1.774.184,4.336.319,7.11l1.841.081c2.88-3.907,3.549.04,3.841,2.2,1.934-1,3.1-1.489,3.841-2.241s-.008-1.971,1.081-2.281c2.77-.787,1.68-2.591,2.441-3.521.489-.6,1.664-1.053,2.081-1.841.906-1.721-.346-3.772-.241-5.2a11.881,11.881,0,0,1,.881-2.8c.28-.8.814-1.278.8-2-.018-.864-1.5-3.014-2-3.841-.24-.4-.3-2.178-.6-3.516-.491,1.183-1.277.342-2.024,1.273s-2.14-.2-2.722.039-1.321,1.174-1.88,1.161c-1.756-.041-1.808-.247-2.209-.095a7.331,7.331,0,0,0-2.309,1.4,1.586,1.586,0,0,1-1.585-.1c-.807-.931-1.1-1.5-2.411-1.429a4.042,4.042,0,0,1-2.544-.409c-1.133-.8-1.32-2.2-2.668-2.364-1.119-.137-2.684.569-3.521.16-1.247-.609-1.433-1.275-2.241-1.921-.681-.545-1.727-.241-2.32-.68a7.2,7.2,0,0,1-1.216-1.585c-.275-.353-1.661-.182-1.257-1.012a5.715,5.715,0,0,0-.586,1.238C2642.5,5339.22,2642.27,5342.711,2642.035,5344.022Z" fill="#121212" fill-rule="evenodd"/>
        <path id="Path_8670" data-name="Path 8670" d="M2666.165,5360.538c4.342-.99,3.863,3.855,2.907,6.722-.659,1.97-2.307,1.646-3.078,3.176a3.826,3.826,0,0,1-3.737,2.385c-2.544-.337-.568-3.962-.107-5.437C2662.111,5364.888,2663.41,5361.167,2666.165,5360.538Z" fill="#9e6d4c" fill-rule="evenodd"/>
      </g>
      <path id="Path_8671" data-name="Path 8671" d="M2651.3,5334.945c-2.556-.136-2.863.964-3.562,1.314s-3.231.35-2.19,1.664,2.99,1.041,3.435,1.391c2.278,1.791,3.022,1.377,4.721,1.117,1.109-.169,1.725.207,2.927.942a6.5,6.5,0,0,0,2.97.506c2.159-.287,2.651-1.161,6.388-.835,1.363.118,3.993-.427,3.44-1.385-.36-.622-1.461-1.249-1.546-1.5a3.725,3.725,0,0,0-1.664-1.829c-1-.382-2.439.4-3.217.147-2.465-.811-1.6-1.589-3.028-1.722-1.779-.169-2.518.659-3.5.762C2652.99,5335.883,2653.852,5335.083,2651.3,5334.945Z" fill="#2b2e36" fill-rule="evenodd"/>
    </g>
    <g id="Group_4912" data-name="Group 4912">
      <path id="Path_8672" data-name="Path 8672" d="M2654.45,5382.6a1.381,1.381,0,0,0,.754,1.808l8.624,4.852a1.379,1.379,0,0,0,1.814-.745L2676,5364.036a1.4,1.4,0,0,0-.759-1.81l-8.716-5.113a1.384,1.384,0,0,0-1.813.752Z" fill="#566872"/>
      <path id="Path_8673" data-name="Path 8673" d="M2669.629,5405.129s-2.972-7.683-2.815-9.874c.394-5.538,4.332-13.192,3.635-17.116-.572-3.175-8.577-10.5-9.886-11.179-.517-.261-1.029.632-.391,1.439,1.373,1.739,3.269,4.336,3.269,4.336s-3.532-1.9-5.589-2.118a1.094,1.094,0,0,0-.909,1.837c.1.117-1.151,1.209-.422,2.065a15.407,15.407,0,0,1,2.514,3.3c-3.295-1.6-4.367.04-3.831.551,2.725,2.638,4.208,2.277,3.323,6.729a22.076,22.076,0,0,0-.712,6.4,8.313,8.313,0,0,0,1.73,3.393c-.1-.141,2.488,15.431,2.488,15.431Z" fill="#ad7c5b"/>
      <path id="Path_8674" data-name="Path 8674" d="M2667.03,5396.838c10.385,23.578,8.25,20.267,20.147,39.892,3.032,5,4.864,18.152-3.438,20.534-3.249.929-4.2-1.181-6.359-3.511a30.274,30.274,0,0,1-5.377-7.77c-8.408-17.72-12.542-52.457-12.542-52.457Z" fill="#ad7c5b"/>
      <path id="Path_8675" data-name="Path 8675" d="M2683.739,5457.264c-3.249.929-4.2-1.181-6.359-3.511a30.274,30.274,0,0,1-5.377-7.77c-7.059-14.885-11.1-41.752-12.225-49.984,1.44,5.354,9.712,35.92,13.292,44.344,2.369,5.594,4.116,10.041,6,12.765,1.554,2.258,3.195,3.616,5.1,1.077.5-.661,3.291.408,5.513-4.691C2688.45,5455,2686.1,5456.588,2683.739,5457.264Z" fill="#461600" opacity="0.13" style="mix-blend-mode: multiply;isolation: isolate"/>
    </g>
    <path id="Path_8676" data-name="Path 8676" d="M2689.565,5459.687c-4.594-.47-7.6.374-11.218-3.135-1.551-1.5-2.508-3.916-4.089-6.309-6.909-10.457-14-28.356-16.6-44.483,1.01-1.478,3.374-2.441,6.015-2.926,6.32,14.542,11.956,28.71,17.666,43.6,3.007,4.7,2.236,4.056,7.442,6.188q.907.371,1.816.735Z" fill="#78bfea" fill-rule="evenodd"/>
    <g id="Group_4913" data-name="Group 4913">
      <path id="Path_8677" data-name="Path 8677" d="M2636.245,5400.735c-1.873-.868-2.409-3.692-1.2-6.308s3.713-4.032,5.586-3.164,2.409,3.691,1.2,6.307S2638.118,5401.6,2636.245,5400.735Z" fill="#736f6f" fill-rule="evenodd"/>
      <path id="Path_8678" data-name="Path 8678" d="M2636.4,5400.408c-1.744-.808-2.243-3.437-1.115-5.872,1.111-2.4,3.386-3.714,5.12-2.982-1.688-.47-3.768.829-4.814,3.088-1.128,2.435-.629,5.065,1.115,5.873l.08.035A2.492,2.492,0,0,1,2636.4,5400.408Z" fill="#b8b6b6" fill-rule="evenodd"/>
      <path id="Path_8679" data-name="Path 8679" d="M2636.974,5399.163c-1.252-.58-1.61-2.467-.8-4.214s2.48-2.694,3.732-2.115,1.609,2.467.8,4.215S2638.226,5399.743,2636.974,5399.163Z" fill="#4a4848" fill-rule="evenodd"/>
      <path id="Path_8680" data-name="Path 8680" d="M2637.124,5398.837c-1.121-.521-1.443-2.213-.716-3.78s2.224-2.416,3.346-1.9,1.444,2.212.717,3.779S2638.247,5399.356,2637.124,5398.837Z" fill="#736f6f" fill-rule="evenodd"/>
      <path id="Path_8681" data-name="Path 8681" d="M2637.764,5397.458a1.439,1.439,0,0,1-.37-1.943c.374-.807,1.144-1.244,1.722-.976a1.439,1.439,0,0,1,.368,1.944C2639.111,5397.289,2638.34,5397.726,2637.764,5397.458Z" fill="#454242" fill-rule="evenodd"/>
      <path id="Path_8682" data-name="Path 8682" d="M2637.219,5398.632c-1.041-.483-1.339-2.053-.665-3.507.665-1.436,2.029-2.222,3.066-1.777a2.812,2.812,0,0,0-2.739,1.875c-.673,1.455-.375,3.026.666,3.508l.039.017A1.509,1.509,0,0,1,2637.219,5398.632Z" fill="#b8b6b6" fill-rule="evenodd"/>
    </g>
    <g id="Group_4915" data-name="Group 4915">
      <path id="Path_8683" data-name="Path 8683" d="M2670.1,5383.015c7.892,6.4,2.389,13.867-7.047,26.661l-.647.878-1.026-.752.647-.879c8.981-12.178,14.22-19.281,7.27-24.921Z" fill="#403e3e" fill-rule="evenodd"/>
      <path id="Path_8684" data-name="Path 8684" d="M2649.063,5420.375q1.1-1.75,2.109-3.169a28.1,28.1,0,0,1,6.431-6.878c1.99-1.359,3.623-1.575,4.743-.874v0c.037.023.078.051.124.083,1.19.848,1.686,2.707.924,5.925a46.864,46.864,0,0,1-4.454,10.616l-1.122-.6a45.675,45.675,0,0,0,4.335-10.306c.621-2.627.351-4.048-.422-4.6l-.058-.04v0c-.682-.427-1.826-.193-3.353.849a26.879,26.879,0,0,0-6.111,6.564q-1.018,1.43-2.07,3.1Z" fill="#403e3e" fill-rule="evenodd"/>
      <g id="Group_4914" data-name="Group 4914">
        <path id="Path_8685" data-name="Path 8685" d="M2650.2,5419.518h0a1.326,1.326,0,0,1,.511,1.8l-.794,1.373a1.328,1.328,0,0,1-1.8.511h0a1.326,1.326,0,0,1-.51-1.8l.794-1.374A1.325,1.325,0,0,1,2650.2,5419.518Z" fill="#141414" fill-rule="evenodd"/>
        <path id="Path_8686" data-name="Path 8686" d="M2659.093,5424.5h0a1.327,1.327,0,0,1,.511,1.8l-.794,1.374a1.328,1.328,0,0,1-1.8.511h0a1.326,1.326,0,0,1-.51-1.8l.794-1.374A1.326,1.326,0,0,1,2659.093,5424.5Z" fill="#141414" fill-rule="evenodd"/>
      </g>
    </g>
    <path id="Path_8687" data-name="Path 8687" d="M2656.768,5401.032c5.373-2.459,9.545-1.834,14.253-.58a17.9,17.9,0,0,0,.541,4.459l-13.239,1.372A17.629,17.629,0,0,0,2656.768,5401.032Z" fill="#78bfea" fill-rule="evenodd"/>
    <path id="Path_8688" data-name="Path 8688" d="M2656.768,5401.032a18.3,18.3,0,0,1,4.663-1.464c.119.865.2,1.05.345,1.915,1.8-.321,9.163.029,9.405,1.257l-12.858,3.543A17.629,17.629,0,0,0,2656.768,5401.032Z" fill="#06a7e0" fill-rule="evenodd"/>
    <path id="Path_8689" data-name="Path 8689" d="M2692.653,5454.717a5.24,5.24,0,0,1-5.93,5.415c-2.968-.385-5.872-1.159-8.012-3.228-1.57-1.516-2.546-3.946-4.149-6.356-7.008-10.538-14.231-28.553-16.915-44.77,2.284-3.345,11.543-4.022,15.264-2.519,7.588,11.758,10.474,23.852,16.354,36.21a58.755,58.755,0,0,1,3.017,6.547Z" fill="#78bfea" fill-rule="evenodd"/>
    <path id="Path_8690" data-name="Path 8690" d="M2646.511,5388.764l-.538-5.163a35.032,35.032,0,0,0-7.457,10.987l.429.472c3.163-1,6.212-4.651,7.908-4.61C2647.155,5389.09,2646.3,5390.142,2646.511,5388.764Z" fill="#06a7e0" fill-rule="evenodd"/>
  </g>
</svg>
