<svg xmlns="http://www.w3.org/2000/svg" width="126.908" height="343.339" viewBox="0 0 126.908 343.339"><g data-name="Group 4842"><path data-name="Path 8371" d="M6.06 317.453l64.075-31.486c6.986-2.754 16.983-4.946 24.1-1.75 6.484 2.911 17.167 8.871 21.89 11.194 3.587 1.766 16.041 8.2 8.284 11.843-22.818 10.705-45.4 22.745-68.57 33.62-4.382 2.057-10.792 2.8-17.522 2.318a51.969 51.969 0 0 1-18.977-4.876q-5.777-2.9-11.363-5.707c-5.026-2.525-7.691-5.51-7.955-8.271-.258-2.692 1.75-5.191 6.038-6.885z" fill="#231f20" fill-rule="evenodd" opacity=".1" style="mix-blend-mode:multiply;isolation:isolate"/><g data-name="Group 4834" fill-rule="evenodd"><path data-name="Path 8372" d="M93.459 135.34c3.843 7.808 4.518 6.248 6.042 10.9.653 1.995.545 7.141-.151 10.55-.44 2.142-.035 4.758-2.01 4.892-1.69.115-2.822-2-3.688-3.359-1.847-2.882-2.3-7.245-3.624-10.859-1.066-2.914-4.4-6.933-3.085-11.8z" fill="#e8a476"/><path data-name="Path 8373" d="M99.501 146.239c.653 1.995.545 7.141-.151 10.55-.233 1.133-.23 2.4-.466 3.358-2.111.894-3.354-2.626-3.963-5.813-.616-3.223-.942-6.926-1.01-7.107.856-.596 4.854-1.658 5.59-.988z" fill="#f1b287"/><path data-name="Path 8374" d="M93.459 135.34c.358.731.691 1.379 1 1.959-2.477-.33-4.272.768-4.813 1.9-.773 1.614 2.025 4.754 2.9 7.423.654 1.994 1.165 7.515 2.3 11.1.45 1.426 1.856 3.934 3.758 3.187a1.45 1.45 0 0 1-1.259.776c-1.743.119-3.263-2.518-4.054-3.98-1.548-2.864-2.028-6.875-3.258-10.238-1.066-2.914-4.4-6.933-3.085-11.8z" fill="#db9669"/><path data-name="Path 8375" d="M94.508 137.053c-2.372-10.174-4.8-19.535-7.757-29.536q-.888.893-1.77 1.771a45.306 45.306 0 0 1-8.774 6.391l10.265 23.571c2.319-3.091 6.405-3.597 8.036-2.197z" fill="#d2eefc"/><path data-name="Path 8376" d="M94.508 137.053c-2.372-10.174-4.8-19.535-7.757-29.536q-.888.893-1.77 1.771c.03 9.572 5.489 23.065 7.151 27.025a3.665 3.665 0 0 1 2.376.74z" fill="#e0f5ff"/><path data-name="Path 8377" d="M74.792 116.578l11.561 23.066a7.629 7.629 0 0 1 3.948-3.062c-2.433-5.832-6.219-15.6-7.294-22.04a12.923 12.923 0 0 1-.2-3.3 88.916 88.916 0 0 1-8.015 5.336z" fill="#c3e6f7"/></g><path data-name="Path 8378" d="M63.809 139.698c-2.44 7.629-.1 20.3 1.954 33.532 1.128 7.281 2.941 14.788 3.817 21.206.978 7.155 1.455 11.755 1.18 15.293-.657 8.389-4.186 10.16-5.508 21.089-1.6 13.265 5.372 28.47 4.853 43.086a9.143 9.143 0 0 1-1.75 3.589c-5.855 7.2.18 6.25-.382 15.76-.049.837 3.186 15.347 3.186 15.347s8.692 2.419 9.349 2.324 6.05-1.969 6.05-1.969c-.425-.792-.955-2.714-1.3-3.44-3.914-8.307-4.438-18.482-4.446-27.854-.008-12.821 3.528-43.008 6.829-55.331 3.315-7.553 4.478-8.292 4.008-21.376-.769-21.331.671-37.071-1.963-59.608z" fill="#f1b287" fill-rule="evenodd"/><path data-name="Path 8379" d="M70.596 202.924a41.4 41.4 0 0 1 .164 6.8c-.657 8.389-4.186 10.16-5.508 21.089-1.6 13.265 5.372 28.47 4.853 43.086a9.143 9.143 0 0 1-1.75 3.589c-5.855 7.2.18 6.25-.382 15.76-.049.837 3.186 15.347 3.186 15.347s5.3 1.475 7.935 2.075a28.215 28.215 0 0 1-6.091-15.612c-.539-6.323 1.6-16 1.631-19.7.109-11.272-.327-36.245.141-40.673.772-7.285 3.312-13.093 6.1-23.42.784-2.906-.179-4.728-7.091-5.45z" fill="#e8a476" fill-rule="evenodd"/><path data-name="Path 8380" d="M84.111 302.867c.935 1.715 1.944 4.176 2.8 6.032a37.493 37.493 0 0 1 2.194 5.841 2.738 2.738 0 0 1-.2 2.348c-2.1 2.818-12.617-2.32-16.142-5.434-2.279-2.011-2.321-4.388-2.856-7.293-.8-4.361-.941-4.851-1.984-9.331l-1.185 12.162-1 .608a135.311 135.311 0 0 0-1.5-15.742c-.3-1.688-.825-3.611-.9-4.546-.435-5.507 2.291-8.216 4.795-9.766-.92 3.348 1.508 8.8 2.613 15.653 1.154 7.177 5.13 15.023 8.252 15.687 1.317.279 4.227-1.362 5.809-2.265.6-.343-.082-2.399-.696-3.954z" fill="#00263d" fill-rule="evenodd"/><path data-name="Path 8381" d="M85.944 317.86c-4.014-.427-10.545-3.88-13.177-6.206-2.279-2.011-2.321-4.388-2.856-7.293-.8-4.361-.941-4.851-1.984-9.331l-1.185 12.162-1.034.693-.923-.951c-.179-4.689.133-11.1-.549-14.876-.3-1.688-.825-3.611-.9-4.546-.435-5.507 2.291-8.216 4.795-9.766-.92 3.348 1.508 8.8 2.613 15.653.951 5.9 3.811 12.263 6.535 14.7a49.188 49.188 0 0 0 8.665 9.761z" fill="#001624" fill-rule="evenodd"/><g data-name="Group 4835" fill-rule="evenodd"><path data-name="Path 8382" d="M54.929 225.132c-2.3 3.629-4.939 7.31-6.09 10.295-4.382 11.38-2.584 31.42-3.794 48.652-.12 1.713-1.194 3.277-1.684 4.919a59.483 59.483 0 0 0-2.123 8.854 80.979 80.979 0 0 0-.831 16.44c.119 2.33.949 3.464 1.083 6.649l12.82 4.471c-.221-2.757-.5-6.97-.542-11.608-.042-4.148.121-8.634.245-12.742.141-4.716-.136-9.019.26-11.61 2.511-16.4 6.892-22.082 11.916-38.747 2.074-6.887 2.132-9.823 5.211-16.092 1.349-3.208 2.116-8.739 1.367-14.461-.705-5.375-10.116-.41-17.838 4.98z" fill="#f1b287"/><path data-name="Path 8383" d="M41.327 184.504c6.2 19.825 11.07 27.08 11.927 35.606.28 2.781-.379 6.381-1.112 9.975l19.133 1.115a85.919 85.919 0 0 0 1.578-9.3 35.94 35.94 0 0 0-.753-12.271c-1.631-6.518-4.414-16.043-8.9-28.754l-21.983 1.7z" fill="#f1b287"/><path data-name="Path 8384" d="M59.776 210.725a33.481 33.481 0 0 1-1.124 7.1c-1.535 5.443-7.882 12.613-9.855 17.736-4.383 11.379-2.583 31.418-3.794 48.652-.122 1.712-1.2 3.277-1.685 4.919a59.669 59.669 0 0 0-2.122 8.853 80.851 80.851 0 0 0-.831 16.441c.12 2.328.949 3.463 1.082 6.648l4.785 1.668c-1.055-8.454.076-19.65 1.384-30.166 2.241-18.008 6.223-38.49 11.283-52.3 1.73-4.718 3.357-8.181 6.99-10.545-4.431-.778.864-4.827 3.807-11.41z" fill="#e8a476"/><path data-name="Path 8385" d="M43.711 288.013c-1.185 2.535-2.284 3.814-2.972 7.421s.091 9.536-.759 14l-1.348 7.086c-.786 4.129-.185 7.175 3.985 11.349 3.781 3.783 7.741 5.714 10.18 4.968 1.794-.55 3.589-3.277 2.259-11.426-1.109-6.791-.873-13.184-1.018-20.382-.648 6.952-.889 9.32-.294 16.321.167 1.958.2 5.11-2.086 5.075-9.456-.14-9.529-2.7-9.841-5.674-.835-7.942-.182-21.739 1.894-28.738z" fill="#00263d"/></g><path data-name="Path 8386" d="M43.711 288.013c-1.185 2.535-2.284 3.814-2.972 7.421s.091 9.536-.759 14l-1.348 7.086c-.786 4.129-.185 7.175 3.985 11.349a20.871 20.871 0 0 0 6.05 4.394c.473.207-3.288-6.559-2.6-10.39-3.919-.928-4.017-2.91-4.249-5.122-.836-7.942-.183-21.739 1.893-28.738z" fill="#001624" fill-rule="evenodd"/><g data-name="Group 4836" fill-rule="evenodd"><path data-name="Path 8387" d="M49.67 126.795a9.789 9.789 0 0 1-.312 1.429c-1.012 3.27-2.834 5.89-4.689 8.641-3.231 4.8-5.124 8.284-6.619 14.022-1.991 7.628-.335 19.434 2.5 32.672 1.559 7.28 3.816 14.787 5.072 21.206 1.156 5.9 5.335 14.273 3.088 20.326 2.954 2.7 3.922 4.189 8.8 4.309 13.1.319 30.831-9.634 33.954-14.764 1.12-9.314.808-15.649.932-20.254.407-15.311-.424-29.69-.656-45.085-.415-4.319-.726-8.931-.955-13.357q-.064-1.618-.239-3.081c-.119-1.08-.3-2.149-.51-3.214-1.114-5.545-3.544-9.79-4.417-14.159-4.568-3.457-27.168 5.242-35.949 11.309z" fill="#001e30"/><path data-name="Path 8388" d="M38.051 150.887c-1.991 7.628-.335 19.434 2.5 32.672 1.559 7.28 3.816 14.787 5.072 21.206a153.345 153.345 0 0 1 2.794 20.532c1.49 2.462 6.065 4.286 9.164 4.073 3.923-22.783-3.716-47.815-4.409-67.1-.352-9.846 5.151-8.362 15.712-13.185 9.925-4.533 13.209-12.46 4.818-9.795-10.375 3.294-17.048.613-16.5-4.541.27-2.52.629-4.971.675-7.044l.3-.453a26.707 26.707 0 0 1-8.451-.766 10.759 10.759 0 0 1-.365 1.736c-1.012 3.27-2.834 5.89-4.689 8.641a42.372 42.372 0 0 0-6.621 14.024z" fill="#001624"/><path data-name="Path 8389" d="M58.219 169.911c1.377 12.8 2.39 24.314 3.8 37.314.677 6.231.94 13.522-.6 19.694 10.249-.949 23.085-6.906 28.83-13.539 1.8-14.58.585-52.7.248-67.959-.215-9.8-.458-15.914-3.868-24.509-6.407 5.018-12.96 7.977-23.5 10.341 3.769 5.522 6.193 7.189 9.744 6.241 2.942-.786 6.42-1.293 8.215-.291 2.063 1.15 2.04 4.13-1.286 8.22-2.179 2.683-11.848 9.008-19.186 11.67-4.901 1.779-2.934 7.828-2.397 12.818z" fill="#00263d"/></g><path data-name="Path 8390" d="M44.965 107.77c3.47 6.883 5.319 14.526 4.705 19.025 3.637 4.7 27.864 1.564 35.949-11.309-1.317-6.6 1.606-13.087.886-20.716a1033.92 1033.92 0 0 0-.6-6.169c-.7-6.975-.78-13.16-1.569-19.255-1.016-7.859-1.959-14.555-2.975-17.714a9.51 9.51 0 0 0-1.526-3.132c-2.081-2.971-5.816-4.477-12.315-1.75-5.84 2.45-13.555 5.733-20.326 9.933-2.945 1.826-12.258 8.767-14.267 11.581a10 10 0 0 0-1.812 5.288c-.701 10.247 9.379 25.345 13.85 34.218z" fill="#06929c" fill-rule="evenodd"/><path data-name="Path 8391" d="M76.739 92.253c-3.1 1.578-6.128 6.2-11.02 8.874a12.1 12.1 0 0 1-15.052-2.943 28.169 28.169 0 0 1-1.692-7.77c-.446-9.957-1.825-15.308-7.477-23.318 3.538-1.936 7.144-3.994 9.1-6.111l22.372-12.2 7.132 1.884c2.333 6.719 3.464 10.228 7.9 16.71a15.472 15.472 0 0 1 2.563 12.573c-1.637 7.059-8.194 9.434-13.826 12.301z" fill="#12a8b3" fill-rule="evenodd"/><path data-name="Path 8392" d="M44.964 107.817c-4.474-8.874-14.554-23.971-13.85-34.218.312-4.558 2.851-7.078 6.329-9.194a49.86 49.86 0 0 1 10.523-8.148 4.926 4.926 0 0 0-.154 4.313 3.137 3.137 0 0 0 1.258 1.588c1.869 3.367 4.929 7.6 6.483 9.795 5.626 6.722 13.924 12.374 19.643 23.775 8.629 17.206 7.315 86.325 3.405 108.815-3.428 3.426-17.257 9.388-20.3 9.928a21.625 21.625 0 0 1-13.837-1.672c-2-13.315-7.013-31.251-8.207-45.949-.441-5.435-.492-11.387 1.141-16.64 2.145-7.249 6.375-13.207 9.217-17.335 2.273-3.3 3.208-4.444 3.171-8.073-.046-4.562-1.832-11.056-4.82-16.985zm48.079 87.412c.232-10.567.131-20.785-.032-31.113-.151-9.611-.063-23.2-1.79-32.391-1.558-8.289-3.7-11.122-4.749-16.363-1.317-6.6 1.436-12.147.715-19.777-.194-2.043-.394-4.106-.6-6.168-.7-6.975-1.463-13.93-2.252-20.026-1.016-7.857-1.9-14.952-2.918-18.111a9.472 9.472 0 0 0-1.526-3.132c-2.079-2.971-6.157-4.362-12.657-1.636a38.629 38.629 0 0 0-5.969 2.967 27.671 27.671 0 0 1 4.363 1.144c3.482.486 6.656 2.457 8.681 6.932 6.7 17.157 5.829 35.321 6.993 53.347 3.052 22.3 5.1 68.3 2.976 90.774a72.583 72.583 0 0 0 8.765-6.447z" fill="#d2eefc" fill-rule="evenodd"/><path data-name="Path 8393" d="M37.396 150.21c-1.633 5.253-1.584 11.205-1.141 16.64 1.194 14.7 6.208 32.634 8.207 45.949a19.871 19.871 0 0 0 9.741 2.087c-2.611-12.473-6.106-32.158-7.162-42.792a44.086 44.086 0 0 1 3.038-16.257z" fill="#c3e6f7" fill-rule="evenodd"/><path data-name="Path 8394" d="M44.964 107.817c-4.474-8.874-14.554-23.971-13.85-34.218.381-5.567 4.085-8.094 8.763-10.557v2.163a33.576 33.576 0 0 1 8.087 16.518l12.073-4.643c5.558 5.632 11.979 11.858 16.709 22.338-2.637 2.269-4.967 5.256-11.029 7.524-2.539.95-5.524 1.841-6.609 3.031-4.66 5.11-1.554 9.964-1.295 16.515.734 18.63-11.427 30.023-11.514 45.094-4.816-1.279-8.436-4.266-9.988-8.446-2.359-17.183 11.577-30.292 13.046-34.865 1.331-4.15-.523-12.776-4.393-20.454zm31.866-37.2l3.8-1.46c2.027 6.039 4.673 12.387 5.812 18.8l.146 1.455q.212 2.1.411 4.2v.316c-2.076.952-4.081 1.847-6.357 2.941a126.4 126.4 0 0 0-3.812-26.25z" fill="#c3e6f7" fill-rule="evenodd"/><path data-name="Path 8395" d="M74.271 94.082c-8.782-14.965-19.159-20-24.657-31.467-2.041 1.92-4.894 2.76-8.118 4.525 5.65 8.009 7.031 13.36 7.477 23.317a28.15 28.15 0 0 0 1.692 7.77 12.1 12.1 0 0 0 15.052 2.943c3.6-1.974 6.2-5 8.554-7.088zm-1.3-45.252l7.133 1.883c2.334 6.72 3.749 10.229 8.186 16.711a15.579 15.579 0 0 1 2.507 12.632c-1.326 5.694-5.879 8.265-10.592 10.564a98.786 98.786 0 0 0-6.63-29.781c-1.189-2.989-4.269-8.844-7.943-10.276z" fill="#d2eefc" fill-rule="evenodd"/><path data-name="Path 8396" d="M81.809 55.415a53.8 53.8 0 0 0 6.482 12.009 16.013 16.013 0 0 1 2.507 12.632c-.78 3.779-3.965 5.394-8.677 7.693.472-9.943.789-18.171-.956-28.072z" fill="#e0f5ff" fill-rule="evenodd"/><path data-name="Path 8397" d="M45.851 65.577l-1.966 1.946c2.238 3.173 5.272 7.979 5.479 13.482.212 5.63 1.237 10.858 2.747 14.148 2.4 5.23 6.619 6.168 11.9 4.74a12.814 12.814 0 0 0 8.509-7.429c-3.94-7.111-22.96-23.411-26.669-26.887z" fill="#e0f5ff" fill-rule="evenodd"/><path data-name="Path 8398" d="M46.76 77.301c-2.483 1.249-8.521 14.312-10.839 11.071-5.246-7.342-7.953-16.468-.354-23.225a80.632 80.632 0 0 1 12.287-8.9l-.14 5.328c-2.023 1.976-3.548 3.416-5.877 5.4a18.462 18.462 0 0 1 4.923 10.326z" fill="#c3e6f7" fill-rule="evenodd"/><path data-name="Path 8399" d="M59.613 122.584c.793 8.506.059 15.317-.893 18.885-1.354 5.072-5.094 10.748-7.513 17.188-4.008 10.668.77 22.456 4.688 54.765 7.592-2.063 14.79-5.81 20.873-9.255 2.712-15.041 2.232-33.65 3.257-50.077.8-12.873 1.365-34.851-3.859-52.036-4.013 4.277-8.319 6.142-11.721 8-7.474 4.073-5.546 4.884-4.832 12.53z" fill="#e0f5ff" fill-rule="evenodd"/><path data-name="Path 8400" d="M86.598 95.928c-1.715.754-3.174 1.4-4.914 2.094.337 7.409.644 14.288 1.593 20.915.9 6.31 1.538 10.937 1.956 15.341 1.927 20.338 1.8 46.325.5 65.469a37.194 37.194 0 0 0 6.332-5.271c-.312-18.255 1.484-46.218-2.337-63.337-1.223-5.478-2.751-9.633-3.83-15.151-.961-4.926.732-10.361.7-20.06z" fill="#e0f5ff" fill-rule="evenodd"/><path data-name="Path 8401" d="M79.29 56.107l-3.146 2.6 3.966 1.3c1.187 9.392 1.316 17.145.131 30.661-1.179-11.87-3.351-23.117-8.356-33.2a13.29 13.29 0 0 0-10.514-7.973l4.192-1.886c6.581-1.21 11.021 2.816 13.727 8.498z" fill="#ebf9ff" fill-rule="evenodd"/><g data-name="Group 4837" fill-rule="evenodd"><path data-name="Path 8402" d="M50.841 55.163c-.428 5.257 10.069 7.764 16.477 6.928a4.743 4.743 0 0 0 1.787-.579 2.442 2.442 0 0 0 .729-.624 15.046 15.046 0 0 0 .931-4.166 33.75 33.75 0 0 1 3.921-12.94l-16.843-6.647-4.268-1.862c2.176 8.911.325 12.241-2.734 19.89z" fill="#e8a476"/><path data-name="Path 8403" d="M51.01 54.762a1.206 1.206 0 0 0-.022.308c6.088-5.431 14.388-1.714 20.352-2.168.187-.428 1.59-7.07 1.752-7.24.528-1.492.748-1.247 1.451-3.165L57.7 35.852l-4.268-1.862c2.18 8.91.637 13.123-2.422 20.772z" fill="#db9669"/></g><path data-name="Path 8404" d="M44.933 60.205c-1.3 4.461 1.048 8.774 4.83 14.519l4.7-1.3-1.579 4.731c10.5 5.11 14.836 8.3 21.483 16.257-8.572-17.339-21.935-24.019-24.642-33.881a8.457 8.457 0 0 1-.328-3.691c.1-.577 1.424-1.793 1.643-2.212a10 10 0 0 0 .674-1.635c.01-.033-5.54 2.937-6.781 7.212z" fill="#ebf9ff" fill-rule="evenodd"/><path data-name="Path 8405" d="M69.551 48.169c-9.783-1.749-13.427-5.623-17.582-14.293-4.506-1.739-6.68-3.55-7.649-5.9-2.3-5.58-.606-12.666 2.936-17.214a15.863 15.863 0 0 1 12.6-6.144c10.256-.375 15.335 5.086 18.009 13.35.517 1.595.4 5.268.287 7.017-.19 2.927.932 1.881 1.452 4.714a48.828 48.828 0 0 1-.276 10.941c-.365 2.967.128 5.823-1.179 6.587-1.324.774-4.135 1.743-8.598.942z" fill="#f1b287" fill-rule="evenodd"/><path data-name="Path 8406" d="M69.551 48.169c-9.8-1.749-13.427-5.623-17.582-14.293-4.506-1.739-6.68-3.55-7.649-5.9-2.3-5.58-.606-12.666 2.936-17.214a15.863 15.863 0 0 1 12.6-6.144 18.225 18.225 0 0 1 15.143 7.138c-.9 5.98-7.887 13.369-10.906 15.617-1.906 1.417-2.481 1.947-2.469 3.588.028 3.444 3.907 2.827 4.318 4.375.419 1.586-3.548 2.662-1.755 6.794.5 1.159 4.282 5.029 5.965 6.14-.201-.017-.401-.062-.601-.101z" fill="#e8a476" fill-rule="evenodd"/><g data-name="Group 4838" fill-rule="evenodd"><path data-name="Path 8407" d="M49.879 27.961c-4.048-.922-3.6 3.594-2.709 6.267.613 1.838 2.15 1.535 2.868 2.962a3.569 3.569 0 0 0 3.485 2.224c2.373-.314.531-3.694.1-5.07.038-2.328-1.172-5.798-3.744-6.383z" fill="#e8a476"/><path data-name="Path 8408" d="M52.129 33.124c-1.03-1.765-1.65-4.108-4.274-3.546 2.342-.056 3.076 1.992 4.274 3.546z" fill="#db9669"/></g><path data-name="Path 8409" d="M46.783 91.284c12.845.948 36.744.41 40.306-.244 4.342-.8 3.789-9.032.65-13.091-.049-.064-20.184-6.912-37.025-8.445-2.737-.251-4.268-1.759-6.226-2.111-9.371-1.679-11.878 2.1-12.528 3.28a13.432 13.432 0 0 0-.793 11.644c2.918 7.236 8.794 8.464 15.616 8.967z" fill="#d2eefc" fill-rule="evenodd"/><path data-name="Path 8410" d="M66.68 80.273a17.581 17.581 0 0 1-3.9-8.909c-4.178-1.013-8.9-1.537-13.207-2.613-2.189-.548-4.266-1.848-6.108-2.178-7.166-1.283-13.243.976-12.968 7.992 4.313 1.763 24.928 5.796 36.183 5.708z" fill="#e0f5ff" fill-rule="evenodd"/><path data-name="Path 8411" d="M46.783 91.284c12.845.948 36.744.41 40.306-.244 2.222-.409 3.161-2.763 3.131-5.506-7.981 4.678-46.635-2.78-59.977-7.113a13.224 13.224 0 0 0 .924 3.9c2.918 7.232 8.794 8.46 15.616 8.963z" fill="#c3e6f7" fill-rule="evenodd"/><path data-name="Path 8412" d="M56.975 4.087c-13.719-8.095-21.126 5.15-13.793 11.131 1.132.922 2.186.174 3.928.963 0 0 11.319-1.835 11.4-2.524s-1.535-9.57-1.535-9.57z" fill="#241304" fill-rule="evenodd"/><path data-name="Path 8413" d="M42.929 12.809c-5.987-1.447-1.934-12.014 3.766-6.223-5.166-1.599-7.462 3.344-3.766 6.223z" fill="#361d07" fill-rule="evenodd"/><path data-name="Path 8414" d="M44.11 12.611c-5.283-1.119-1.844-8.311 2.779-4.552-3.938-.866-6.038 2.38-2.779 4.552z" fill="#361d07" fill-rule="evenodd"/><path data-name="Path 8415" d="M43.028 14.512c-7.086-4.56-.6-16.043 5.224-11.469-5.695-1.721-10.767 5.995-5.224 11.469z" fill="#361d07" fill-rule="evenodd"/><path data-name="Path 8416" d="M47.693 8.04c-5.871-6.374 5.311-12.589 7.87-3.374-4.345-4.788-10.112-2.494-7.87 3.374z" fill="#361d07" fill-rule="evenodd"/><path data-name="Path 8417" d="M48.959 8.653c-4.3-4.665 3.89-9.215 5.761-2.468-3.181-3.506-7.401-1.826-5.761 2.468z" fill="#361d07" fill-rule="evenodd"/><path data-name="Path 8418" d="M76.211 14.584c-4.073-1.29-18.59 7.431-22.169 17.879-.6 1.744-1.6 1.328-1.445 3.934.172 2.871-4.887-5.492-6.113-8.151-3.359-7.284-1.849-13.614 4.752-18.69 8.295-6.377 21.05-2.697 24.975 5.028z" fill="#361d07" fill-rule="evenodd"/><path data-name="Path 8419" d="M69.775 15.953c1.831-.893 5.392-1.1 6.791-.135.413-2.377-4.189-9.057-12.574-11.241-7.1-1.849-15.632-1.231-20.247 6.388-3.471 5.733-4 15.309 2.153 20.185 2.8 2.217 6.184 3.941 8.014 3.936.444-1.3 3.349-2.449 4.289-3.425.779-.8.468-1.764 1.475-3.062.567-.734 2.294-2.092 3.076-3.514 1.107-2.004-.585-8.001 7.023-9.132z" fill="#361d07" fill-rule="evenodd"/><path data-name="Path 8420" d="M41.122 21.879a12.788 12.788 0 0 0 4.776 9.273c2.826 2.184 6.184 3.941 8.014 3.936.444-1.3 3.349-2.449 4.289-3.425.779-.8.468-1.764 1.475-3.062.567-.734 2.294-2.092 3.076-3.514-9.595 4.681-18.113 1.996-21.63-3.208z" fill="#241304" fill-rule="evenodd"/><path data-name="Path 8421" d="M51.599 4.802c-3.18 2.386 4.141 1.755 5.807 1.595 4.712-.451 10.345.744 9.939 7.693-.091 1.577-.564 2.707-.385 2.633a12.432 12.432 0 0 1 2.93-.8c2.172-1.212 5.682-.244 6.165-.569A8.054 8.054 0 0 0 74.04 4.942C69.022.733 62.499 2.359 56.847 3.968c-1.873.537-5.98 2.343-5.248.834z" fill="#4f2b0c" fill-rule="evenodd"/><path data-name="Path 8422" d="M62.76 19.482c-10.632.106-24-3.511-14.847-13.426-13.21 11.81 5.202 16.997 14.847 13.426z" fill="#4f2b0c" fill-rule="evenodd"/><path data-name="Path 8423" d="M64.351 15.753c-1.717-9.574-7.551-5.572-13.417-7.589-1.489-.511-2.505-2.079.368-3.358-2.118 1.537-.632 2.1.168 2.235 3.755.626 7.354-.451 10.36.4a5.664 5.664 0 0 1 4.279 5.294c.151 1.887-.159 4.525-.882 4.884-.325.156-.627-.461-.876-1.866z" fill="#4f2b0c" fill-rule="evenodd"/><path data-name="Path 8424" d="M65.251 17.684c-9.662-3.492-24.534-3.667-15.3-12.369-4.217 4.655-1.547 5.416 3.287 6.772 3.393.951 7.913 2.266 12.013 5.597z" fill="#4f2b0c" fill-rule="evenodd"/><path data-name="Path 8425" d="M51.292 5.099c-.223.6.882.705 2.364.3 4.381-1.188 7.353-2.127 10.465-2.461 6.548-.7 11.245 2.02 10.519 9.41C74.06 6.385 71.658.9 58.231 4.559c10.454-1.658 13.235-.813 13.893 8.127-1.524-8.685-4.883-9.243-15.078-7.428 8.932-1.072 12.085-.406 12.5 8.55-1.629-7.983-3.109-9.679-15.727-7.7-1.437.235-3.44.05-2.527-1.009z" fill="#361d07" fill-rule="evenodd"/><path data-name="Path 8426" d="M62.64 21.141c-5.4 4.65-28.765.85-18.064-10.887C30.965 23.293 57.238 27.709 62.64 21.141z" fill="#4f2b0c" fill-rule="evenodd"/><g data-name="Group 4839"><path data-name="Path 8427" d="M71.181 26.553a36.533 36.533 0 0 1-6.329 2.241 1.1 1.1 0 0 0-.842 1.125l.287 4.852a1.115 1.115 0 0 0 1.417.99 34.4 34.4 0 0 0 6.733-2.54 1.105 1.105 0 0 0 .606-1.04l-.278-4.707a1.113 1.113 0 0 0-1.594-.921zm7.438-6.72c-.143 1.39-1.693 2.934-3.373 4.253a1.089 1.089 0 0 0-.426.925l.256 4.335a1.116 1.116 0 0 0 1.87.738 5.811 5.811 0 0 0 2.092-3.166h.058l-.419-7.086z" fill="#e9f5f5" fill-rule="evenodd" opacity=".5"/><path data-name="Path 8428" d="M71.307 26.812c-.931.438-1.936.851-3.006 1.229s-2.191.72-3.377 1.03a.841.841 0 0 0-.467.313.79.79 0 0 0-.157.521l.287 4.853a.875.875 0 0 0 .027.17.813.813 0 0 0 .317.442.848.848 0 0 0 .532.149.808.808 0 0 0 .176-.028 39.542 39.542 0 0 0 3.575-1.149 28.994 28.994 0 0 0 3.1-1.37.86.86 0 0 0 .345-.324.79.79 0 0 0 .106-.448l-.278-4.707a.806.806 0 0 0-.079-.305.817.817 0 0 0-.324-.346.838.838 0 0 0-.775-.03zm-3.2.7a31.887 31.887 0 0 0 2.95-1.207 1.412 1.412 0 0 1 1.319.052 1.386 1.386 0 0 1 .552.588 1.363 1.363 0 0 1 .135.519l.279 4.707a1.34 1.34 0 0 1-.183.761 1.44 1.44 0 0 1-.578.547 29.825 29.825 0 0 1-3.16 1.394c-1.14.431-2.355.822-3.629 1.169a1.558 1.558 0 0 1-.294.049 1.441 1.441 0 0 1-.9-.255 1.375 1.375 0 0 1-.538-.753 1.266 1.266 0 0 1-.048-.287l-.286-4.851a1.337 1.337 0 0 1 .268-.893 1.418 1.418 0 0 1 .788-.524c1.161-.3 2.275-.643 3.327-1.016zm10.358-6.368a6.605 6.605 0 0 1-.734 1.031 16.121 16.121 0 0 1-2.3 2.139.818.818 0 0 0-.247.31.8.8 0 0 0-.069.376l.254 4.335a.8.8 0 0 0 .221.51.836.836 0 0 0 .3.2.9.9 0 0 0 .359.057.8.8 0 0 0 .5-.216 9.853 9.853 0 0 0 1.386-1.542 3.237 3.237 0 0 0 .618-1.447 2.222 2.222 0 0 0 .021-.538l-.308-5.216zm-1.177.669a3.987 3.987 0 0 0 1.046-2l.024-.243.592-.043.342 7.1a2.837 2.837 0 0 1-.052.767 4.334 4.334 0 0 1-.627 1.272 10.388 10.388 0 0 1-1.469 1.638 1.382 1.382 0 0 1-.862.37 1.428 1.428 0 0 1-.608-.1 1.47 1.47 0 0 1-.509-.337 1.34 1.34 0 0 1-.378-.865l-.256-4.336a1.351 1.351 0 0 1 .123-.642 1.446 1.446 0 0 1 .413-.52 15.6 15.6 0 0 0 2.22-2.065z" fill="#292424" fill-rule="evenodd"/><path data-name="Path 8429" d="M72.812 27.953a4.183 4.183 0 0 0 1.148-.372 2.85 2.85 0 0 0 .83-.623l.42.381a3.455 3.455 0 0 1-1 .748 4.785 4.785 0 0 1-1.3.424z" fill="#292424" fill-rule="evenodd"/><path data-name="Rectangle 32" d="M55.061 30.074l.154-.545 8.88 2.515-.154.545z"/></g><g data-name="Group 4841" fill-rule="evenodd"><g data-name="Group 4840"><path data-name="Path 8430" d="M50.84 31.477l15.132 6.027a1.948 1.948 0 0 1 .978 2.274l-.944 6.465a4.161 4.161 0 0 1-1.873 2.011c-.248.072-14.1-6.333-15.529-6.976-.877-.394-.947-1.311-.978-2.273l-.177-5.788c-.016-.511 1.576-1.615 2.055-1.773a1.99 1.99 0 0 1 1.336.033z"/><path data-name="Path 8431" d="M49.6 32.526l15.131 6.029a1.944 1.944 0 0 1 .977 2.274l-.94 6.551c-.137.953-1.378 1.333-2.273.977l-15.131-6.028a1.948 1.948 0 0 1-.979-2.274l.942-6.55c.137-.952 1.378-1.335 2.273-.979z" fill="#232226"/><path data-name="Path 8432" d="M58.111 56.077c3.815 10.675 4.588 19.9 9.642 27.735a16.042 16.042 0 0 0 4.942 5.022c5.142 3.591 11.782 3.484 12.578 1.507a9.774 9.774 0 0 0 .824-5.223 24.4 24.4 0 0 0-1.827-6.428c-7.65-14.87-21.71-22.828-24.365-39.913.5-1.763 2.612-2.869 3.161-4.5.266-.792-10.7-4.286-11.533-3.046-1.34 2-2.184 2.485-3.2 5.53.38 2.992 2.179 7.9 3.989 11.594.545 1.113 2.5 2.154 3.735 3.4 1.125 1.13 1.522 2.827 2.054 4.322z" fill="#e8a476"/><path data-name="Path 8433" d="M50.527 32.573c.316-.419.658-.864 1.039-1.432.828-1.24 11.977 2.446 11.5 3.132l-1.34 1.929z" fill="#f1b287"/><path data-name="Path 8434" d="M85.303 90.445a10.173 10.173 0 0 0 .794-5.327 24.4 24.4 0 0 0-1.827-6.428c-6.126-11.907-14.767-21.288-18.951-27.676a7.543 7.543 0 0 1-.75-1.646c-.222-1.04.039-1.915-.343-3.438-.942-3.74-3.1-4.985-3.127-6.519.5-1.763 1.541-1.9 1.809-2.451.365-.752.683-3.5-.474-2.557-1.4 1.138-2.5 1.289-3.523 4.333a35.73 35.73 0 0 0 2.751 8.245 113.748 113.748 0 0 0 3.491 6.79c5.436 9.689 13.411 20.039 20.15 36.674z" fill="#f1b287"/></g><path data-name="Path 8435" d="M67.751 83.812a16.042 16.042 0 0 0 4.942 5.022c3.789 2.646 8.39 3.285 10.868 2.645a2.738 2.738 0 0 0 2.283-2.191c1.1-3.577.234-7.336-1.472-10.652-6.126-11.906-14.7-21.606-18.881-27.994-2.077 2.347-7.329 3.507-8.805 2.943 4.351 9.686 4.996 20.813 11.065 30.227z" fill="#d2eefc"/><path data-name="Path 8436" d="M85.851 89.288c1.1-3.577.234-7.336-1.472-10.652-6.126-11.906-14.7-21.606-18.881-27.994a8.019 8.019 0 0 1-2.594 1.8c5.994 12.717 15.676 33.611 22.947 36.846z" fill="#e0f5ff"/><path data-name="Path 8437" d="M67.751 83.812a16.042 16.042 0 0 0 4.942 5.022c3.789 2.646 8.39 3.285 10.868 2.645-8.65-4.1-17.359-22.9-22.56-38.315a8.414 8.414 0 0 1-4.315.421c4.351 9.686 4.996 20.813 11.065 30.227z" fill="#c3e6f7"/></g></g></svg>