<?xml version="1.0" encoding="UTF-8"?>
<svg width="362px" height="364px" viewBox="0 0 362 364" version="1.1" xmlns="http://www.w3.org/2000/svg" xmlns:xlink="http://www.w3.org/1999/xlink">
    <title>Group 226</title>
    <defs>
        <path d="M0.008,181.852 C0.008,281.758 80.997,362.746 180.902,362.746 L180.902,362.746 C280.804,362.746 361.794,281.758 361.794,181.852 L361.794,181.852 C361.794,81.949 280.804,0.961 180.902,0.961 L180.902,0.961 C80.997,0.961 0.008,81.949 0.008,181.852" id="path-1"></path>
        <path d="M0.008,181.852 C0.008,281.758 80.997,362.746 180.902,362.746 L180.902,362.746 C280.804,362.746 361.794,281.758 361.794,181.852 L361.794,181.852 C361.794,81.949 280.804,0.961 180.902,0.961 L180.902,0.961 C80.997,0.961 0.008,81.949 0.008,181.852" id="path-3"></path>
        <path d="M0.008,181.852 C0.008,281.758 80.997,362.746 180.902,362.746 L180.902,362.746 C280.804,362.746 361.794,281.758 361.794,181.852 L361.794,181.852 C361.794,81.949 280.804,0.961 180.902,0.961 L180.902,0.961 C80.997,0.961 0.008,81.949 0.008,181.852" id="path-5"></path>
        <path d="M0.008,181.852 C0.008,281.758 80.997,362.746 180.902,362.746 L180.902,362.746 C280.804,362.746 361.794,281.758 361.794,181.852 L361.794,181.852 C361.794,81.949 280.804,0.961 180.902,0.961 L180.902,0.961 C80.997,0.961 0.008,81.949 0.008,181.852 L0.008,181.852 Z" id="path-7"></path>
        <path d="M0.008,181.852 C0.008,281.758 80.997,362.746 180.902,362.746 L180.902,362.746 C280.804,362.746 361.794,281.758 361.794,181.852 L361.794,181.852 C361.794,81.949 280.804,0.961 180.902,0.961 L180.902,0.961 C80.997,0.961 0.008,81.949 0.008,181.852" id="path-9"></path>
        <path d="M0.008,181.852 C0.008,281.758 80.997,362.746 180.902,362.746 L180.902,362.746 C280.804,362.746 361.794,281.758 361.794,181.852 L361.794,181.852 C361.794,81.949 280.804,0.961 180.902,0.961 L180.902,0.961 C80.997,0.961 0.008,81.949 0.008,181.852 L0.008,181.852 Z" id="path-11"></path>
        <path d="M0.008,181.852 C0.008,281.758 80.997,362.746 180.902,362.746 L180.902,362.746 C280.804,362.746 361.794,281.758 361.794,181.852 L361.794,181.852 C361.794,81.949 280.804,0.961 180.902,0.961 L180.902,0.961 C80.997,0.961 0.008,81.949 0.008,181.852 L0.008,181.852 Z" id="path-13"></path>
        <path d="M0.008,181.852 C0.008,281.758 80.997,362.746 180.902,362.746 L180.902,362.746 C280.804,362.746 361.794,281.758 361.794,181.852 L361.794,181.852 C361.794,81.949 280.804,0.961 180.902,0.961 L180.902,0.961 C80.997,0.961 0.008,81.949 0.008,181.852" id="path-15"></path>
        <path d="M0.008,181.852 C0.008,281.758 80.997,362.746 180.902,362.746 L180.902,362.746 C280.804,362.746 361.794,281.758 361.794,181.852 L361.794,181.852 C361.794,81.949 280.804,0.961 180.902,0.961 L180.902,0.961 C80.997,0.961 0.008,81.949 0.008,181.852" id="path-17"></path>
        <path d="M0.008,181.852 C0.008,281.758 80.997,362.746 180.902,362.746 L180.902,362.746 C280.804,362.746 361.794,281.758 361.794,181.852 L361.794,181.852 C361.794,81.949 280.804,0.961 180.902,0.961 L180.902,0.961 C80.997,0.961 0.008,81.949 0.008,181.852" id="path-19"></path>
        <path d="M0.008,181.852 C0.008,281.758 80.997,362.746 180.902,362.746 L180.902,362.746 C280.804,362.746 361.794,281.758 361.794,181.852 L361.794,181.852 C361.794,81.949 280.804,0.961 180.902,0.961 L180.902,0.961 C80.997,0.961 0.008,81.949 0.008,181.852 L0.008,181.852 Z" id="path-21"></path>
        <path d="M0.008,181.852 C0.008,281.758 80.997,362.746 180.902,362.746 L180.902,362.746 C280.804,362.746 361.794,281.758 361.794,181.852 L361.794,181.852 C361.794,81.949 280.804,0.961 180.902,0.961 L180.902,0.961 C80.997,0.961 0.008,81.949 0.008,181.852 L0.008,181.852 Z" id="path-23"></path>
        <path d="M0.008,181.852 C0.008,281.758 80.997,362.746 180.902,362.746 L180.902,362.746 C280.804,362.746 361.794,281.758 361.794,181.852 L361.794,181.852 C361.794,81.949 280.804,0.961 180.902,0.961 L180.902,0.961 C80.997,0.961 0.008,81.949 0.008,181.852 L0.008,181.852 Z" id="path-25"></path>
        <path d="M0.008,181.852 C0.008,281.758 80.997,362.746 180.902,362.746 L180.902,362.746 C280.804,362.746 361.794,281.758 361.794,181.852 L361.794,181.852 C361.794,81.949 280.804,0.961 180.902,0.961 L180.902,0.961 C80.997,0.961 0.008,81.949 0.008,181.852" id="path-27"></path>
        <path d="M0.008,181.852 C0.008,281.758 80.997,362.746 180.902,362.746 L180.902,362.746 C280.804,362.746 361.794,281.758 361.794,181.852 L361.794,181.852 C361.794,81.949 280.804,0.961 180.902,0.961 L180.902,0.961 C80.997,0.961 0.008,81.949 0.008,181.852" id="path-29"></path>
        <path d="M0.008,181.852 C0.008,281.758 80.997,362.746 180.902,362.746 L180.902,362.746 C280.804,362.746 361.794,281.758 361.794,181.852 L361.794,181.852 C361.794,81.949 280.804,0.961 180.902,0.961 L180.902,0.961 C80.997,0.961 0.008,81.949 0.008,181.852" id="path-31"></path>
        <path d="M0.008,181.852 C0.008,281.758 80.997,362.746 180.902,362.746 L180.902,362.746 C280.804,362.746 361.794,281.758 361.794,181.852 L361.794,181.852 C361.794,81.949 280.804,0.961 180.902,0.961 L180.902,0.961 C80.997,0.961 0.008,81.949 0.008,181.852" id="path-33"></path>
        <path d="M0.008,181.852 C0.008,281.758 80.997,362.746 180.902,362.746 L180.902,362.746 C280.804,362.746 361.794,281.758 361.794,181.852 L361.794,181.852 C361.794,81.949 280.804,0.961 180.902,0.961 L180.902,0.961 C80.997,0.961 0.008,81.949 0.008,181.852" id="path-35"></path>
        <path d="M0.008,181.852 C0.008,281.758 80.997,362.746 180.902,362.746 L180.902,362.746 C280.804,362.746 361.794,281.758 361.794,181.852 L361.794,181.852 C361.794,81.949 280.804,0.961 180.902,0.961 L180.902,0.961 C80.997,0.961 0.008,81.949 0.008,181.852" id="path-37"></path>
        <path d="M0.008,181.852 C0.008,281.758 80.997,362.746 180.902,362.746 L180.902,362.746 C280.804,362.746 361.794,281.758 361.794,181.852 L361.794,181.852 C361.794,81.949 280.804,0.961 180.902,0.961 L180.902,0.961 C80.997,0.961 0.008,81.949 0.008,181.852" id="path-39"></path>
        <path d="M0.008,181.852 C0.008,281.758 80.997,362.746 180.902,362.746 L180.902,362.746 C280.804,362.746 361.794,281.758 361.794,181.852 L361.794,181.852 C361.794,81.949 280.804,0.961 180.902,0.961 L180.902,0.961 C80.997,0.961 0.008,81.949 0.008,181.852" id="path-41"></path>
        <path d="M0.008,181.852 C0.008,281.758 80.997,362.746 180.902,362.746 L180.902,362.746 C280.804,362.746 361.794,281.758 361.794,181.852 L361.794,181.852 C361.794,81.949 280.804,0.961 180.902,0.961 L180.902,0.961 C80.997,0.961 0.008,81.949 0.008,181.852" id="path-43"></path>
        <path d="M0.008,181.852 C0.008,281.758 80.997,362.746 180.902,362.746 L180.902,362.746 C280.804,362.746 361.794,281.758 361.794,181.852 L361.794,181.852 C361.794,81.949 280.804,0.961 180.902,0.961 L180.902,0.961 C80.997,0.961 0.008,81.949 0.008,181.852" id="path-45"></path>
        <path d="M0.008,181.852 C0.008,281.758 80.997,362.746 180.902,362.746 L180.902,362.746 C280.804,362.746 361.794,281.758 361.794,181.852 L361.794,181.852 C361.794,81.949 280.804,0.961 180.902,0.961 L180.902,0.961 C80.997,0.961 0.008,81.949 0.008,181.852" id="path-47"></path>
        <path d="M0.008,181.852 C0.008,281.758 80.997,362.746 180.902,362.746 L180.902,362.746 C280.804,362.746 361.794,281.758 361.794,181.852 L361.794,181.852 C361.794,81.949 280.804,0.961 180.902,0.961 L180.902,0.961 C80.997,0.961 0.008,81.949 0.008,181.852" id="path-49"></path>
        <path d="M0.008,181.852 C0.008,281.758 80.997,362.746 180.902,362.746 L180.902,362.746 C280.804,362.746 361.794,281.758 361.794,181.852 L361.794,181.852 C361.794,81.949 280.804,0.961 180.902,0.961 L180.902,0.961 C80.997,0.961 0.008,81.949 0.008,181.852" id="path-51"></path>
        <path d="M0.008,181.852 C0.008,281.758 80.997,362.746 180.902,362.746 L180.902,362.746 C280.804,362.746 361.794,281.758 361.794,181.852 L361.794,181.852 C361.794,81.949 280.804,0.961 180.902,0.961 L180.902,0.961 C80.997,0.961 0.008,81.949 0.008,181.852 L0.008,181.852 Z" id="path-53"></path>
        <path d="M0.008,181.852 C0.008,281.758 80.997,362.746 180.902,362.746 L180.902,362.746 C280.804,362.746 361.794,281.758 361.794,181.852 L361.794,181.852 C361.794,81.949 280.804,0.961 180.902,0.961 L180.902,0.961 C80.997,0.961 0.008,81.949 0.008,181.852 L0.008,181.852 Z" id="path-55"></path>
        <path d="M0.008,181.852 C0.008,281.758 80.997,362.746 180.902,362.746 L180.902,362.746 C280.804,362.746 361.794,281.758 361.794,181.852 L361.794,181.852 C361.794,81.949 280.804,0.961 180.902,0.961 L180.902,0.961 C80.997,0.961 0.008,81.949 0.008,181.852" id="path-57"></path>
        <path d="M0.008,181.852 C0.008,281.758 80.997,362.746 180.902,362.746 L180.902,362.746 C280.804,362.746 361.794,281.758 361.794,181.852 L361.794,181.852 C361.794,81.949 280.804,0.961 180.902,0.961 L180.902,0.961 C80.997,0.961 0.008,81.949 0.008,181.852" id="path-59"></path>
        <path d="M0.008,181.852 C0.008,281.758 80.997,362.746 180.902,362.746 L180.902,362.746 C280.804,362.746 361.794,281.758 361.794,181.852 L361.794,181.852 C361.794,81.949 280.804,0.961 180.902,0.961 L180.902,0.961 C80.997,0.961 0.008,81.949 0.008,181.852" id="path-61"></path>
        <path d="M0.008,181.852 C0.008,281.758 80.997,362.746 180.902,362.746 L180.902,362.746 C280.804,362.746 361.794,281.758 361.794,181.852 L361.794,181.852 C361.794,81.949 280.804,0.961 180.902,0.961 L180.902,0.961 C80.997,0.961 0.008,81.949 0.008,181.852 L0.008,181.852 Z" id="path-63"></path>
        <path d="M0.008,181.852 C0.008,281.758 80.997,362.746 180.902,362.746 L180.902,362.746 C280.804,362.746 361.794,281.758 361.794,181.852 L361.794,181.852 C361.794,81.949 280.804,0.961 180.902,0.961 L180.902,0.961 C80.997,0.961 0.008,81.949 0.008,181.852 L0.008,181.852 Z" id="path-65"></path>
        <path d="M0.008,181.852 C0.008,281.758 80.997,362.746 180.902,362.746 L180.902,362.746 C280.804,362.746 361.794,281.758 361.794,181.852 L361.794,181.852 C361.794,81.949 280.804,0.961 180.902,0.961 L180.902,0.961 C80.997,0.961 0.008,81.949 0.008,181.852 L0.008,181.852 Z" id="path-67"></path>
        <path d="M0.008,181.852 C0.008,281.758 80.997,362.746 180.902,362.746 L180.902,362.746 C280.804,362.746 361.794,281.758 361.794,181.852 L361.794,181.852 C361.794,81.949 280.804,0.961 180.902,0.961 L180.902,0.961 C80.997,0.961 0.008,81.949 0.008,181.852 L0.008,181.852 Z" id="path-69"></path>
        <polygon id="path-71" points="0.526 0.883 106.7758 0.883 106.7758 157.4 0.526 157.4"></polygon>
        <path d="M0.008,181.852 C0.008,281.758 80.997,362.746 180.902,362.746 L180.902,362.746 C280.804,362.746 361.794,281.758 361.794,181.852 L361.794,181.852 C361.794,81.949 280.804,0.961 180.902,0.961 L180.902,0.961 C80.997,0.961 0.008,81.949 0.008,181.852" id="path-73"></path>
        <path d="M0.008,181.852 C0.008,281.758 80.997,362.746 180.902,362.746 L180.902,362.746 C280.804,362.746 361.794,281.758 361.794,181.852 L361.794,181.852 C361.794,81.949 280.804,0.961 180.902,0.961 L180.902,0.961 C80.997,0.961 0.008,81.949 0.008,181.852" id="path-75"></path>
        <path d="M0.008,181.852 C0.008,281.758 80.997,362.746 180.902,362.746 L180.902,362.746 C280.804,362.746 361.794,281.758 361.794,181.852 L361.794,181.852 C361.794,81.949 280.804,0.961 180.902,0.961 L180.902,0.961 C80.997,0.961 0.008,81.949 0.008,181.852" id="path-77"></path>
        <path d="M0.008,181.852 C0.008,281.758 80.997,362.746 180.902,362.746 L180.902,362.746 C280.804,362.746 361.794,281.758 361.794,181.852 L361.794,181.852 C361.794,81.949 280.804,0.961 180.902,0.961 L180.902,0.961 C80.997,0.961 0.008,81.949 0.008,181.852" id="path-79"></path>
        <path d="M0.008,181.852 C0.008,281.758 80.997,362.746 180.902,362.746 L180.902,362.746 C280.804,362.746 361.794,281.758 361.794,181.852 L361.794,181.852 C361.794,81.949 280.804,0.961 180.902,0.961 L180.902,0.961 C80.997,0.961 0.008,81.949 0.008,181.852" id="path-81"></path>
        <path d="M0.008,181.852 C0.008,281.758 80.997,362.746 180.902,362.746 L180.902,362.746 C280.804,362.746 361.794,281.758 361.794,181.852 L361.794,181.852 C361.794,81.949 280.804,0.961 180.902,0.961 L180.902,0.961 C80.997,0.961 0.008,81.949 0.008,181.852" id="path-83"></path>
        <path d="M0.008,181.852 C0.008,281.758 80.997,362.746 180.902,362.746 L180.902,362.746 C280.804,362.746 361.794,281.758 361.794,181.852 L361.794,181.852 C361.794,81.949 280.804,0.961 180.902,0.961 L180.902,0.961 C80.997,0.961 0.008,81.949 0.008,181.852" id="path-85"></path>
        <path d="M0.008,181.852 C0.008,281.758 80.997,362.746 180.902,362.746 L180.902,362.746 C280.804,362.746 361.794,281.758 361.794,181.852 L361.794,181.852 C361.794,81.949 280.804,0.961 180.902,0.961 L180.902,0.961 C80.997,0.961 0.008,81.949 0.008,181.852" id="path-87"></path>
        <path d="M0.008,181.852 C0.008,281.758 80.997,362.746 180.902,362.746 L180.902,362.746 C280.804,362.746 361.794,281.758 361.794,181.852 L361.794,181.852 C361.794,81.949 280.804,0.961 180.902,0.961 L180.902,0.961 C80.997,0.961 0.008,81.949 0.008,181.852" id="path-89"></path>
        <path d="M0.008,181.852 C0.008,281.758 80.997,362.746 180.902,362.746 L180.902,362.746 C280.804,362.746 361.794,281.758 361.794,181.852 L361.794,181.852 C361.794,81.949 280.804,0.961 180.902,0.961 L180.902,0.961 C80.997,0.961 0.008,81.949 0.008,181.852" id="path-91"></path>
        <path d="M0.008,181.852 C0.008,281.758 80.997,362.746 180.902,362.746 L180.902,362.746 C280.804,362.746 361.794,281.758 361.794,181.852 L361.794,181.852 C361.794,81.949 280.804,0.961 180.902,0.961 L180.902,0.961 C80.997,0.961 0.008,81.949 0.008,181.852" id="path-93"></path>
        <path d="M0.008,181.852 C0.008,281.758 80.997,362.746 180.902,362.746 L180.902,362.746 C280.804,362.746 361.794,281.758 361.794,181.852 L361.794,181.852 C361.794,81.949 280.804,0.961 180.902,0.961 L180.902,0.961 C80.997,0.961 0.008,81.949 0.008,181.852" id="path-95"></path>
        <path d="M0.008,181.852 C0.008,281.758 80.997,362.746 180.902,362.746 L180.902,362.746 C280.804,362.746 361.794,281.758 361.794,181.852 L361.794,181.852 C361.794,81.949 280.804,0.961 180.902,0.961 L180.902,0.961 C80.997,0.961 0.008,81.949 0.008,181.852" id="path-97"></path>
        <path d="M0.008,181.852 C0.008,281.758 80.997,362.746 180.902,362.746 L180.902,362.746 C280.804,362.746 361.794,281.758 361.794,181.852 L361.794,181.852 C361.794,81.949 280.804,0.961 180.902,0.961 L180.902,0.961 C80.997,0.961 0.008,81.949 0.008,181.852" id="path-99"></path>
        <path d="M0.008,181.852 C0.008,281.758 80.997,362.746 180.902,362.746 L180.902,362.746 C280.804,362.746 361.794,281.758 361.794,181.852 L361.794,181.852 C361.794,81.949 280.804,0.961 180.902,0.961 L180.902,0.961 C80.997,0.961 0.008,81.949 0.008,181.852" id="path-101"></path>
        <path d="M0.008,181.852 C0.008,281.758 80.997,362.746 180.902,362.746 L180.902,362.746 C280.804,362.746 361.794,281.758 361.794,181.852 L361.794,181.852 C361.794,81.949 280.804,0.961 180.902,0.961 L180.902,0.961 C80.997,0.961 0.008,81.949 0.008,181.852" id="path-103"></path>
        <path d="M0.008,181.852 C0.008,281.758 80.997,362.746 180.902,362.746 L180.902,362.746 C280.804,362.746 361.794,281.758 361.794,181.852 L361.794,181.852 C361.794,81.949 280.804,0.961 180.902,0.961 L180.902,0.961 C80.997,0.961 0.008,81.949 0.008,181.852 L0.008,181.852 Z" id="path-105"></path>
        <path d="M0.008,181.852 C0.008,281.758 80.997,362.746 180.902,362.746 L180.902,362.746 C280.804,362.746 361.794,281.758 361.794,181.852 L361.794,181.852 C361.794,81.949 280.804,0.961 180.902,0.961 L180.902,0.961 C80.997,0.961 0.008,81.949 0.008,181.852" id="path-107"></path>
        <path d="M0.008,181.852 C0.008,281.758 80.997,362.746 180.902,362.746 L180.902,362.746 C280.804,362.746 361.794,281.758 361.794,181.852 L361.794,181.852 C361.794,81.949 280.804,0.961 180.902,0.961 L180.902,0.961 C80.997,0.961 0.008,81.949 0.008,181.852" id="path-109"></path>
        <path d="M0.008,181.852 C0.008,281.758 80.997,362.746 180.902,362.746 L180.902,362.746 C280.804,362.746 361.794,281.758 361.794,181.852 L361.794,181.852 C361.794,81.949 280.804,0.961 180.902,0.961 L180.902,0.961 C80.997,0.961 0.008,81.949 0.008,181.852 L0.008,181.852 Z" id="path-111"></path>
        <path d="M0.008,181.852 C0.008,281.758 80.997,362.746 180.902,362.746 L180.902,362.746 C280.804,362.746 361.794,281.758 361.794,181.852 L361.794,181.852 C361.794,81.949 280.804,0.961 180.902,0.961 L180.902,0.961 C80.997,0.961 0.008,81.949 0.008,181.852" id="path-113"></path>
        <path d="M0.008,181.852 C0.008,281.758 80.997,362.746 180.902,362.746 L180.902,362.746 C280.804,362.746 361.794,281.758 361.794,181.852 L361.794,181.852 C361.794,81.949 280.804,0.961 180.902,0.961 L180.902,0.961 C80.997,0.961 0.008,81.949 0.008,181.852" id="path-115"></path>
        <path d="M0.008,181.852 C0.008,281.758 80.997,362.746 180.902,362.746 L180.902,362.746 C280.804,362.746 361.794,281.758 361.794,181.852 L361.794,181.852 C361.794,81.949 280.804,0.961 180.902,0.961 L180.902,0.961 C80.997,0.961 0.008,81.949 0.008,181.852" id="path-117"></path>
        <path d="M0.008,181.852 C0.008,281.758 80.997,362.746 180.902,362.746 L180.902,362.746 C280.804,362.746 361.794,281.758 361.794,181.852 L361.794,181.852 C361.794,81.949 280.804,0.961 180.902,0.961 L180.902,0.961 C80.997,0.961 0.008,81.949 0.008,181.852 L0.008,181.852 Z" id="path-119"></path>
        <path d="M0.008,181.852 C0.008,281.758 80.997,362.746 180.902,362.746 L180.902,362.746 C280.804,362.746 361.794,281.758 361.794,181.852 L361.794,181.852 C361.794,81.949 280.804,0.961 180.902,0.961 L180.902,0.961 C80.997,0.961 0.008,81.949 0.008,181.852" id="path-121"></path>
        <path d="M0.008,181.852 C0.008,281.758 80.997,362.746 180.902,362.746 L180.902,362.746 C280.804,362.746 361.794,281.758 361.794,181.852 L361.794,181.852 C361.794,81.949 280.804,0.961 180.902,0.961 L180.902,0.961 C80.997,0.961 0.008,81.949 0.008,181.852" id="path-123"></path>
        <path d="M0.008,181.852 C0.008,281.758 80.997,362.746 180.902,362.746 L180.902,362.746 C280.804,362.746 361.794,281.758 361.794,181.852 L361.794,181.852 C361.794,81.949 280.804,0.961 180.902,0.961 L180.902,0.961 C80.997,0.961 0.008,81.949 0.008,181.852 L0.008,181.852 Z" id="path-125"></path>
        <path d="M0.008,181.852 C0.008,281.758 80.997,362.746 180.902,362.746 L180.902,362.746 C280.804,362.746 361.794,281.758 361.794,181.852 L361.794,181.852 C361.794,81.949 280.804,0.961 180.902,0.961 L180.902,0.961 C80.997,0.961 0.008,81.949 0.008,181.852" id="path-127"></path>
        <path d="M0.008,181.852 C0.008,281.758 80.997,362.746 180.902,362.746 L180.902,362.746 C280.804,362.746 361.794,281.758 361.794,181.852 L361.794,181.852 C361.794,81.949 280.804,0.961 180.902,0.961 L180.902,0.961 C80.997,0.961 0.008,81.949 0.008,181.852" id="path-129"></path>
        <path d="M0.008,181.852 C0.008,281.758 80.997,362.746 180.902,362.746 L180.902,362.746 C280.804,362.746 361.794,281.758 361.794,181.852 L361.794,181.852 C361.794,81.949 280.804,0.961 180.902,0.961 L180.902,0.961 C80.997,0.961 0.008,81.949 0.008,181.852 L0.008,181.852 Z" id="path-131"></path>
        <path d="M0.008,181.852 C0.008,281.758 80.997,362.746 180.902,362.746 L180.902,362.746 C280.804,362.746 361.794,281.758 361.794,181.852 L361.794,181.852 C361.794,81.949 280.804,0.961 180.902,0.961 L180.902,0.961 C80.997,0.961 0.008,81.949 0.008,181.852 L0.008,181.852 Z" id="path-133"></path>
        <path d="M0.008,181.852 C0.008,281.758 80.997,362.746 180.902,362.746 L180.902,362.746 C280.804,362.746 361.794,281.758 361.794,181.852 L361.794,181.852 C361.794,81.949 280.804,0.961 180.902,0.961 L180.902,0.961 C80.997,0.961 0.008,81.949 0.008,181.852" id="path-135"></path>
        <path d="M0.008,181.852 C0.008,281.758 80.997,362.746 180.902,362.746 L180.902,362.746 C280.804,362.746 361.794,281.758 361.794,181.852 L361.794,181.852 C361.794,81.949 280.804,0.961 180.902,0.961 L180.902,0.961 C80.997,0.961 0.008,81.949 0.008,181.852 L0.008,181.852 Z" id="path-137"></path>
        <path d="M0.008,181.852 C0.008,281.758 80.997,362.746 180.902,362.746 L180.902,362.746 C280.804,362.746 361.794,281.758 361.794,181.852 L361.794,181.852 C361.794,81.949 280.804,0.961 180.902,0.961 L180.902,0.961 C80.997,0.961 0.008,81.949 0.008,181.852 L0.008,181.852 Z" id="path-139"></path>
        <path d="M0.008,181.852 C0.008,281.758 80.997,362.746 180.902,362.746 L180.902,362.746 C280.804,362.746 361.794,281.758 361.794,181.852 L361.794,181.852 C361.794,81.949 280.804,0.961 180.902,0.961 L180.902,0.961 C80.997,0.961 0.008,81.949 0.008,181.852 L0.008,181.852 Z" id="path-141"></path>
        <path d="M0.008,181.852 C0.008,281.758 80.997,362.746 180.902,362.746 L180.902,362.746 C280.804,362.746 361.794,281.758 361.794,181.852 L361.794,181.852 C361.794,81.949 280.804,0.961 180.902,0.961 L180.902,0.961 C80.997,0.961 0.008,81.949 0.008,181.852" id="path-143"></path>
        <path d="M0.008,181.852 C0.008,281.758 80.997,362.746 180.902,362.746 L180.902,362.746 C280.804,362.746 361.794,281.758 361.794,181.852 L361.794,181.852 C361.794,81.949 280.804,0.961 180.902,0.961 L180.902,0.961 C80.997,0.961 0.008,81.949 0.008,181.852" id="path-145"></path>
        <path d="M0.008,181.852 C0.008,281.758 80.997,362.746 180.902,362.746 L180.902,362.746 C280.804,362.746 361.794,281.758 361.794,181.852 L361.794,181.852 C361.794,81.949 280.804,0.961 180.902,0.961 L180.902,0.961 C80.997,0.961 0.008,81.949 0.008,181.852" id="path-147"></path>
        <path d="M0.008,181.852 C0.008,281.758 80.997,362.746 180.902,362.746 L180.902,362.746 C280.804,362.746 361.794,281.758 361.794,181.852 L361.794,181.852 C361.794,81.949 280.804,0.961 180.902,0.961 L180.902,0.961 C80.997,0.961 0.008,81.949 0.008,181.852 L0.008,181.852 Z" id="path-149"></path>
    </defs>
    <g id="Page-1" stroke="none" stroke-width="1" fill="none" fill-rule="evenodd">
        <g id="Group-226">
            <g id="Group-3" transform="translate(0.000000, 0.040000)">
                <mask id="mask-2" fill="white">
                    <use xlink:href="#path-1"></use>
                </mask>
                <g id="Clip-2"></g>
                <path d="M16.171,278.2433 L37.0861352,278.1793 C37.089,278.6233 37.042,458.4683 36.954,458.8663 C35.281,466.4863 18.319,466.5823 16.356,459.1323 C16.233,458.6723 16.171,278.7603 16.171,278.2433" id="Fill-1" fill="#1E7E96" mask="url(#mask-2)"></path>
            </g>
            <g id="Group-6" transform="translate(0.000000, 0.040000)">
                <mask id="mask-4" fill="white">
                    <use xlink:href="#path-3"></use>
                </mask>
                <g id="Clip-5"></g>
                <path d="M28.0607,278.2081 L37.0857,278.1791 C37.0897,278.6231 37.0417,458.4681 36.9547,458.8661 C36.1897,462.3541 32.2227,464.2651 27.9557,464.5981 C28.0227,436.7291 28.0597,290.7781 28.0607,278.2081" id="Fill-4" fill="#17667A" mask="url(#mask-4)"></path>
            </g>
            <g id="Group-9" transform="translate(0.000000, 0.040000)">
                <mask id="mask-6" fill="white">
                    <use xlink:href="#path-5"></use>
                </mask>
                <g id="Clip-8"></g>
                <path d="M18.799,279.2022 L23.193038,278.3872 C23.193038,278.5192 23.195,463.1832 23.17,463.3062 C22.078,463.2062 19.19,461.8932 18.449,460.5062 C18.415,460.3672 18.799,279.3582 18.799,279.2022" id="Fill-7" fill="#1B9EBF" mask="url(#mask-6)"></path>
            </g>
            <g id="Group-12" transform="translate(0.000000, 0.040000)">
                <mask id="mask-8" fill="white">
                    <use xlink:href="#path-7"></use>
                </mask>
                <g id="Clip-11"></g>
                <path d="M34.9181,278.3048 L32.0521,278.8808 C32.0501,297.2848 32.0501,461.7668 32.0711,461.8798 C33.1651,461.7788 34.5251,460.9998 35.2661,459.6128 L34.9181,278.3048 Z" id="Fill-10" fill="#1E7E96" mask="url(#mask-8)"></path>
            </g>
            <g id="Group-15" transform="translate(0.000000, 0.040000)">
                <mask id="mask-10" fill="white">
                    <use xlink:href="#path-9"></use>
                </mask>
                <g id="Clip-14"></g>
                <path d="M192.3341,162.713 L166.4721,177.606 C96.7391,218.089 115.7421,205.778 46.0131,246.272 L33.0381,253.799 C30.2931,255.407 21.2991,260.671 17.5981,263.811 C14.8761,266.122 13.9209037,270.174 13.9209037,273.604 L13.9209037,276.977 C13.8951,282.46 16.4541,287.183 20.0881,289.293 C107.3221,339.606 280.0131,439.609 367.3221,489.985 C454.2901,439.484 452.5681,441.853 539.4801,391.257 C539.9391,390.997 540.3751,390.698 540.7861,390.361 C540.9121,390.251 541.0421,390.1 541.1951,389.987 C543.7751,387.551 544.1541,386.049 545.2641,382.833 C545.2641,382.796 545.2901,382.778 545.2901,382.741 C545.7991,380.163 545.6991,378.275 545.6991,375.592 C545.3311,369.578 542.8831,365.21 537.9111,362.335 L513.9881,348.525 C437.4541,304.316 276.5341,208.856 199.9941,164.658 C197.5481,163.247 193.9951,161.53 192.3341,162.713" id="Fill-13" fill="#B6CCD6" mask="url(#mask-10)"></path>
            </g>
            <g id="Group-18" transform="translate(0.000000, 0.040000)">
                <mask id="mask-12" fill="white">
                    <use xlink:href="#path-11"></use>
                </mask>
                <g id="Clip-17"></g>
                <path d="M16.3185,265.1163 C14.6675,267.6313 13.8605,270.7263 13.8605,273.7173 L367.3155,478.0273 C367.3395,476.4803 367.3395,474.8783 367.3395,473.2953 L367.3395,470.1453 L367.3395,468.0213 L28.7085,269.5993 L16.3185,265.1163 Z" id="Fill-16" fill="#C5D7E0" mask="url(#mask-12)"></path>
            </g>
            <g id="Group-21" transform="translate(0.000000, 0.040000)">
                <mask id="mask-14" fill="white">
                    <use xlink:href="#path-13"></use>
                </mask>
                <g id="Clip-20"></g>
                <path d="M367.34,465.2452 L367.34,464.2572 L367.34,463.4362 L367.34,462.7492 L367.34,462.1502 L367.34,461.5942 L367.34,461.1092 L367.34,460.6252 L367.34,460.1412 L367.34,459.6372 L367.34,458.4062 L63.383,278.1632 L24.433,260.21183 C20.844,260.1492 17.975,262.3352 16.319,265.1162 L367.34,468.0202 L367.34,466.4562 L367.34,465.2452 Z" id="Fill-19" fill="#DCEAF0" mask="url(#mask-14)"></path>
            </g>
            <g id="Group-24" transform="translate(0.000000, 0.040000)">
                <mask id="mask-16" fill="white">
                    <use xlink:href="#path-15"></use>
                </mask>
                <g id="Clip-23"></g>
                <path d="M194.3888,163.1417 C110.6198,211.8197 108.1988,211.5407 24.4328,260.2127 C192.4018,357.1837 199.3688,361.4407 367.3408,458.4067 C451.0818,409.7387 451.4048,410.8807 535.1728,362.2037 C367.2008,265.2367 362.3318,260.1117 194.3888,163.1417" id="Fill-22" fill="#F4FAFC" mask="url(#mask-16)"></path>
            </g>
            <g id="Group-27" transform="translate(0.000000, 0.040000)">
                <mask id="mask-18" fill="white">
                    <use xlink:href="#path-17"></use>
                </mask>
                <g id="Clip-26"></g>
                <path d="M249.1339,232.9308 L238.7279,238.9238 C210.6659,255.2138 246.1979,234.1628 218.1389,250.4588 L212.9189,253.4898 C211.8139,254.1348 208.1949,256.2528 206.7029,257.5178 C205.6109,258.4468 205.224813,260.0768 205.224813,261.4568 L205.224813,262.8138 C205.2139,265.0218 206.2459,266.9208 207.7069,267.7718 C242.8099,288.0168 258.3449,296.7438 293.4789,317.0168 C328.4739,296.6968 299.8989,313.7448 334.8709,293.3848 C335.0569,293.2798 335.2319,293.1598 335.3959,293.0258 C335.4469,292.9808 335.5009,292.9188 335.5609,292.8738 C336.5999,291.8928 336.7529,291.2888 337.1989,289.9948 C337.1989,289.9808 337.2099,289.9738 337.2099,289.9568 C337.4119,288.9218 337.3739,288.1598 337.3739,287.0798 C337.2249,284.6608 336.2409,282.9038 334.2379,281.7458 L324.6129,276.1918 C293.8159,258.3998 283.0179,251.4978 252.2159,233.7128 C251.2319,233.1458 249.8019,232.4538 249.1339,232.9308" id="Fill-25" fill="#B6CCD6" mask="url(#mask-18)"></path>
            </g>
            <g id="Group-30" transform="translate(0.000000, 0.040000)">
                <mask id="mask-20" fill="white">
                    <use xlink:href="#path-19"></use>
                </mask>
                <g id="Clip-29"></g>
                <path d="M336.5265,283.8819 L324.7555,288.3339 L293.4865,308.4709 L293.4865,308.8769 L293.4865,309.3049 L293.4865,309.7619 L293.4865,310.2339 L293.4865,310.7219 L293.4865,311.2239 L293.4865,311.7259 C293.4765,311.8839 293.4765,312.0489 293.4765,312.2049 L337.3495,287.1279 C337.4235,285.9859 337.0365,284.8779 336.5265,283.8819" id="Fill-28" fill="#DCEAF0" mask="url(#mask-20)"></path>
            </g>
            <g id="Group-33" transform="translate(0.000000, 0.040000)">
                <mask id="mask-22" fill="white">
                    <use xlink:href="#path-21"></use>
                </mask>
                <g id="Clip-32"></g>
                <path d="M206.1896,258.0411 C205.5246,259.0541 205.2026,260.3011 205.2026,261.5041 L293.4766,312.2051 C293.4866,311.5831 293.4866,310.9381 293.4866,310.3011 L293.4866,309.0341 L293.4866,308.1811 L211.1746,259.8481 L206.1896,258.0411 Z" id="Fill-31" fill="#C5D7E0" mask="url(#mask-22)"></path>
            </g>
            <g id="Group-36" transform="translate(0.000000, 0.040000)">
                <mask id="mask-24" fill="white">
                    <use xlink:href="#path-23"></use>
                </mask>
                <g id="Clip-35"></g>
                <path d="M293.4865,307.0626 L293.4865,306.6636 L293.4865,306.3336 L293.4865,306.0586 L293.4865,305.8176 L293.4865,305.5926 L293.4865,305.3976 L293.4865,305.2026 L293.4865,305.0066 L293.4865,304.8056 L293.4865,304.3096 L225.1305,263.2916 L209.4555,256.0686 C208.0115,256.0426 206.8565,256.9196 206.1895,258.0416 L293.4865,308.1806 L293.4865,307.5496 L293.4865,307.0626 Z" id="Fill-34" fill="#DCEAF0" mask="url(#mask-24)"></path>
            </g>
            <g id="Group-39" transform="translate(0.000000, 0.040000)">
                <mask id="mask-26" fill="white">
                    <use xlink:href="#path-25"></use>
                </mask>
                <g id="Clip-38"></g>
                <path d="M293.4865,307.7589 L293.4865,308.0979 L293.4865,308.4709 L336.5265,283.8819 C335.8585,282.6639 334.5745,281.6949 333.1475,281.6949 L333.1375,281.6949 L321.3515,286.6379 L293.4865,304.3099 L293.4865,304.3259 L293.4865,304.3789 L293.4865,304.4239 L293.4865,304.4829 L293.4865,304.5359 L293.4865,304.6029 L293.4865,304.6709 L293.4865,304.7379 L293.4865,304.8139 L293.4865,304.8869 L293.4865,304.9699 L293.4865,305.0539 L293.4865,305.1559 L293.4865,305.2779 L293.4865,305.5479 L293.4865,305.7419 L293.4865,305.9969 L293.4865,306.1859 L293.4865,306.3639 L293.4865,306.5519 L293.4865,306.7379 L293.4865,306.9569 L293.4865,307.1919 L293.4865,307.4609 L293.4865,307.7589 Z" id="Fill-37" fill="#E8F3F7" mask="url(#mask-26)"></path>
            </g>
            <g id="Group-42" transform="translate(0.000000, 0.040000)">
                <mask id="mask-28" fill="white">
                    <use xlink:href="#path-27"></use>
                </mask>
                <g id="Clip-41"></g>
                <path d="M249.962,233.1026 C216.253,252.6926 243.164,236.4836 209.455,256.0686 C277.047,295.0906 225.895,265.2906 293.486,304.3096 C327.186,284.7256 299.429,301.2836 333.138,281.6946 C265.547,242.6726 317.544,272.1236 249.962,233.1026" id="Fill-40" fill="#F4FAFC" mask="url(#mask-28)"></path>
            </g>
            <g id="Group-45" transform="translate(0.000000, 0.040000)">
                <mask id="mask-30" fill="white">
                    <use xlink:href="#path-29"></use>
                </mask>
                <g id="Clip-44"></g>
                <path d="M265.6632,277.0372 L263.7852,275.9372 C262.9322,275.4662 262.1322,274.7812 261.5062,274.0362 C259.6892,271.8902 259.4292,269.4082 259.4292,269.4282 C258.9872,266.6122 258.8692,260.3502 259.1012,257.5522 C259.3092,255.0282 259.9202,252.5152 261.2752,250.3912 C263.8312,246.3922 268.9582,242.0672 271.9002,239.4842 C276.0942,235.8032 280.3132,232.1492 284.5552,228.5222 L325.5132,194.3692 C325.4822,194.3832 325.4522,194.3932 325.4252,194.4142 C329.7612,191.5862 334.0532,187.9592 338.0092,186.0672 C341.9342,184.1872 345.9202,183.5442 349.8302,185.6192 L351.7162,186.7172 C354.4152,188.2742 355.9842,191.3062 355.9392,194.3752 L355.9412,194.3472 C355.8842,196.9612 355.9712,198.4002 353.7162,200.5932 C353.6802,200.6262 353.6422,200.6612 353.6072,200.6932 C351.3242,202.8582 348.5612,204.9322 346.1732,206.9332 C328.0942,222.0572 306.5312,242.9822 292.7612,260.9232 C292.6342,264.7932 292.5782,266.3222 292.5722,266.3442 L292.5722,266.3472 L292.5702,266.3732 L292.5632,266.3882 L292.5542,266.3882 C292.5632,266.3912 292.5702,266.3912 292.5702,266.3912 L292.5702,266.3892 L292.5702,266.4052 C292.4712,266.6762 291.7272,267.0932 291.3752,267.1472 L291.3752,267.1392 C285.7282,270.4222 280.1352,273.6242 274.4742,276.8932 C271.8572,278.5582 268.4092,278.6202 265.6632,277.0372" id="Fill-43" fill="#E8F3F7" mask="url(#mask-30)"></path>
            </g>
            <g id="Group-48" transform="translate(0.000000, 0.040000)">
                <mask id="mask-32" fill="white">
                    <use xlink:href="#path-31"></use>
                </mask>
                <g id="Clip-47"></g>
                <path d="M277.421,273.7315 L291.377,265.5845 L291.416,265.6145 L291.509,261.9715 C291.521,261.7385 291.481,261.4555 291.538,261.2615 C291.555,261.1955 291.613,261.1465 291.66,261.0835 C298.929,251.0325 322.333,225.3895 345.581,206.1125 C347.215,204.7575 349.691,202.7105 351.649,200.9415 C353.962,198.8495 355.664,196.9625 355.942,194.3465 C355.884,196.9605 355.971,198.4005 353.716,200.5925 C353.68,200.6265 353.644,200.6615 353.607,200.6935 C351.324,202.8585 348.563,204.9315 346.173,206.9325 C328.094,222.0565 306.531,242.9825 292.761,260.9215 C292.634,264.7935 292.578,266.3225 292.571,266.3435 L292.571,266.3465 L292.569,266.3735 L292.564,266.3875 L292.554,266.3875 C292.564,266.3905 292.569,266.3905 292.569,266.3905 L292.569,266.3885 L292.569,266.4055 C292.471,266.6755 291.729,267.0925 291.375,267.1475 L291.375,267.1385 C285.637,270.4775 279.949,273.7295 274.193,277.0555 C275.507,276.2935 276.71,275.0855 277.421,273.7315" id="Fill-46" fill="#B6CCD6" mask="url(#mask-32)"></path>
            </g>
            <g id="Group-51" transform="translate(0.000000, 0.040000)">
                <mask id="mask-34" fill="white">
                    <use xlink:href="#path-33"></use>
                </mask>
                <g id="Clip-50"></g>
                <path d="M277.421,273.7315 C277.247,271.1965 277.007,266.7815 277.695,263.8725 C278.531,259.5755 282.822,255.8275 295.437,244.9375 C310.585,231.9315 325.47,219.4595 339.817,207.5855 C340.289,207.1965 354.018,194.9805 354.11,189.0935 C356.166,191.2015 356.192,194.3085 355.643,196.2975 C355.233,197.7925 354.033,198.9925 352.916,200.0265 C350.842,201.9425 347.423,204.6515 346.671,205.2755 C322.955,224.7425 298.803,251.1775 291.544,261.2785 L291.451,265.6985 C288.283,267.5375 280.699,271.8275 277.421,273.7315" id="Fill-49" fill="#CFE0E8" mask="url(#mask-34)"></path>
            </g>
            <g id="Group-54" transform="translate(0.000000, 0.040000)">
                <mask id="mask-36" fill="white">
                    <use xlink:href="#path-35"></use>
                </mask>
                <g id="Clip-53"></g>
                <path d="M325.4249,194.4142 C329.7609,191.5862 334.0529,187.9592 338.0089,186.0662 C341.9359,184.1872 345.9209,183.5442 349.8299,185.6192 L351.7169,186.7172 C353.6649,187.8442 355.0259,189.7382 355.6139,191.8612 C354.5369,193.8932 351.6359,197.5752 339.1449,208.1412 C325.1309,219.9992 310.3479,232.1362 295.4369,244.9362 C282.8219,255.8272 278.5329,259.5752 277.6959,263.8722 C277.0069,266.7812 277.2489,271.1962 277.4209,273.7302 C276.8029,274.8972 275.7789,276.0042 274.6969,276.7472 C272.0549,278.5562 268.4879,278.6682 265.6619,277.0372 L263.7849,275.9362 C262.9319,275.4662 262.1329,274.7812 261.5069,274.0362 C259.6909,271.8902 259.4289,269.4082 259.4289,269.4282 C258.9869,266.6122 258.8689,260.3522 259.1019,257.5522 C259.3109,255.0282 259.9209,252.5152 261.2769,250.3932 C263.8299,246.3932 268.9579,242.0662 271.8999,239.4842 C276.0939,235.8032 280.3139,232.1482 284.5549,228.5212 L325.5349,194.3512 C325.4989,194.3692 325.4589,194.3922 325.4249,194.4142" id="Fill-52" fill="#E8F3F7" mask="url(#mask-36)"></path>
            </g>
            <g id="Group-57" transform="translate(0.000000, 0.040000)">
                <mask id="mask-38" fill="white">
                    <use xlink:href="#path-37"></use>
                </mask>
                <g id="Clip-56"></g>
                <path d="M325.4249,194.4142 C329.7609,191.5862 334.0529,187.9592 338.0089,186.0662 C341.9359,184.1872 345.9209,183.5442 349.8299,185.6192 L351.7169,186.7172 C353.6649,187.8442 355.0259,189.7382 355.6139,191.8612 C354.5369,193.8932 351.6359,197.5752 339.1449,208.1412 C325.1309,219.9992 310.3479,232.1362 295.4369,244.9362 C282.8219,255.8272 278.5329,259.5752 277.6959,263.8722 C277.0069,266.7812 277.2489,271.1962 277.4209,273.7302 C276.8029,274.8972 275.7789,276.0042 274.6969,276.7472 C272.0549,278.5562 268.4879,278.6682 265.6619,277.0372 L263.7849,275.9362 C262.9319,275.4662 262.1329,274.7812 261.5069,274.0362 C259.6909,271.8902 259.4289,269.4082 259.4289,269.4282 C258.9869,266.6122 260.3749,260.5022 260.6079,257.7022 C261.6149,264.0452 267.8659,264.9462 270.5039,264.8392 C272.6299,264.7532 273.4819,263.2562 273.7789,261.6872 C274.6619,257.0272 281.0089,251.7082 283.9509,249.1242 C288.1449,245.4412 292.3619,241.7892 296.6059,238.1632 L334.0649,206.4262 C336.6329,203.5352 329.7679,196.1092 323.7259,195.8572 L325.5349,194.3512 C325.4989,194.3692 325.4589,194.3922 325.4249,194.4142" id="Fill-55" fill="#DCEAF0" mask="url(#mask-38)"></path>
            </g>
            <g id="Group-60" transform="translate(0.000000, 0.040000)">
                <mask id="mask-40" fill="white">
                    <use xlink:href="#path-39"></use>
                </mask>
                <g id="Clip-59"></g>
                <path d="M325.4249,194.4142 C329.7609,191.5862 334.0529,187.9592 338.0089,186.0662 C340.3709,184.9352 342.7559,184.2532 345.1319,184.3412 C336.2579,187.3312 328.4239,194.3752 316.5289,204.4882 C306.6549,212.8862 275.8199,236.1792 264.8649,250.1902 C262.6259,253.0562 261.6439,256.8102 261.4289,258.5702 C261.0449,265.8532 262.2159,274.8102 277.2369,269.5522 C277.2549,271.1172 277.3439,272.6092 277.4209,273.7302 C276.8029,274.8972 275.7789,276.0042 274.6969,276.7472 C272.0549,278.5562 268.4879,278.6682 265.6619,277.0372 L263.7849,275.9362 C262.9319,275.4662 262.1329,274.7812 261.5069,274.0362 C259.6909,271.8902 259.4289,269.4082 259.4289,269.4282 C258.9869,266.6122 258.8689,260.3522 259.1019,257.5522 C259.3109,255.0282 259.9209,252.5152 261.2769,250.3932 C263.8299,246.3932 268.9579,242.0662 271.8999,239.4842 C276.0939,235.8032 280.3139,232.1482 284.5549,228.5212 L325.5349,194.3512 C325.4989,194.3692 325.4589,194.3922 325.4249,194.4142" id="Fill-58" fill="#CFE0E8" mask="url(#mask-40)"></path>
            </g>
            <g id="Group-63" transform="translate(0.000000, 0.040000)">
                <mask id="mask-42" fill="white">
                    <use xlink:href="#path-41"></use>
                </mask>
                <g id="Clip-62"></g>
                <path d="M325.422,194.4142 C329.762,191.5862 334.052,187.9592 338.008,186.0662 C331.315,191.0032 321.978,198.2762 317.614,201.9882 C313.142,205.7912 303.562,213.7932 293.604,221.9202 C281.584,231.7272 268.926,242.0482 262.938,249.7092 C260.701,252.5712 260.318,256.8102 260.105,258.5702 C259.79,264.4812 259.815,267.9852 261.239,270.7662 C263.688,275.5332 268.497,276.8252 272.066,276.2362 C274.521,275.8312 276.06,274.7282 277.421,273.7302 C276.803,274.8972 275.779,276.0042 274.697,276.7472 C272.055,278.5562 268.489,278.6682 265.663,277.0372 L263.782,275.9362 C262.932,275.4662 262.132,274.7812 261.506,274.0362 C259.691,271.8902 259.428,269.4082 259.428,269.4282 C258.986,266.6122 258.867,260.3522 259.102,257.5522 C259.311,255.0282 259.92,252.5152 261.276,250.3932 C263.831,246.3932 268.956,242.0662 271.901,239.4842 C276.093,235.8032 280.313,232.1482 284.555,228.5212 L325.534,194.3512 C325.496,194.3692 325.459,194.3922 325.422,194.4142" id="Fill-61" fill="#B6CCD6" mask="url(#mask-42)"></path>
            </g>
            <g id="Group-66" transform="translate(0.000000, 0.040000)">
                <mask id="mask-44" fill="white">
                    <use xlink:href="#path-43"></use>
                </mask>
                <g id="Clip-65"></g>
                <path d="M274.1935,256.6485 C274.1115,257.9895 274.0645,258.1995 273.3365,259.7185 C272.3945,261.6825 270.9515,261.9505 268.7135,261.2595 C266.8405,260.6825 264.8455,259.8855 264.3365,259.4915 C262.0935,257.7495 263.6375,251.9905 266.3195,251.5745 C267.4995,251.3885 269.1735,251.8705 271.0005,252.6695 C273.2195,253.6455 274.3025,254.8395 274.1935,256.6485" id="Fill-64" fill="#F4FAFC" mask="url(#mask-44)"></path>
            </g>
            <g id="Group-69" transform="translate(0.000000, 0.040000)">
                <mask id="mask-46" fill="white">
                    <use xlink:href="#path-45"></use>
                </mask>
                <g id="Clip-68"></g>
                <path d="M279.142242,180.9151 C279.1387,180.9371 279.1607,180.9701 279.2157,181.0251 C281.1797,182.8281 296.4967,190.9841 297.4287,191.3361 C309.0417,183.8451 322.9787,177.1821 335.0487,170.5701 C349.4847,162.9341 353.9867,161.9041 352.8717,174.9741 C353.5617,175.4651 354.6367,174.9101 354.6307,174.9831 C354.6857,174.2711 354.7607,173.3251 354.8187,172.6131 C354.8257,172.5111 354.8257,172.4251 354.8297,172.3231 C354.9657,170.1851 354.9637,167.3951 354.5667,165.0531 C354.0637,162.1001 352.8227,159.4401 350.9347,157.2591 C348.9527,154.9641 345.2937,152.6481 342.3097,151.5141 C334.0307,148.3661 326.9797,152.4641 319.7227,156.4971 C305.7977,164.2361 292.9687,172.0041 279.142242,180.9151" id="Fill-67" fill="#DCEAF0" mask="url(#mask-46)"></path>
            </g>
            <g id="Group-72" transform="translate(0.000000, 0.040000)">
                <mask id="mask-48" fill="white">
                    <use xlink:href="#path-47"></use>
                </mask>
                <g id="Clip-71"></g>
                <path d="M280.2999,181.8243 C282.7379,183.4413 288.1409,186.4423 292.2379,188.6443 C305.6349,179.7703 321.6569,171.1133 336.1619,163.9193 C339.3389,162.3443 343.6329,160.5493 345.7929,161.1223 C343.6569,156.1163 333.3839,151.3593 326.6509,154.9153 C322.2099,157.2633 284.3189,179.1143 280.2999,181.8243" id="Fill-70" fill="#E8F3F7" mask="url(#mask-48)"></path>
            </g>
            <g id="Group-75" transform="translate(0.000000, 0.040000)">
                <mask id="mask-50" fill="white">
                    <use xlink:href="#path-49"></use>
                </mask>
                <g id="Clip-74"></g>
                <path d="M325.6691,153.2726 C329.8551,151.3766 332.2711,150.8736 332.4081,150.8436 C336.1801,150.0126 340.1131,150.2356 344.3881,152.4456 C344.5181,152.5086 344.6461,152.5756 344.7721,152.6486 L346.5531,153.6836 C348.1181,154.5136 349.9781,156.1536 350.9351,157.2586 C352.8221,159.4406 354.0641,162.0996 354.5651,165.0526 C355.1341,168.3926 354.8961,188.1806 354.7901,191.5106 C349.0491,198.8766 336.9561,201.8216 331.7661,192.2556 C331.5291,187.2856 331.2841,180.6346 331.1051,180.5046 C319.8221,184.6766 304.5461,193.6816 293.9881,199.0216 C295.3991,198.2696 296.6181,197.1306 297.4821,195.6536 L297.4291,191.3356 C303.7321,187.2676 318.9381,177.8006 330.1011,171.3576 C332.1131,170.2396 334.0591,169.0946 335.7641,168.1616 C341.8191,164.9566 346.1341,163.1956 349.0211,163.1936 C347.2541,152.3686 334.3701,150.4436 325.6691,153.2726" id="Fill-73" fill="#CFE0E8" mask="url(#mask-50)"></path>
            </g>
            <g id="Group-78" transform="translate(0.000000, 0.040000)">
                <mask id="mask-52" fill="white">
                    <use xlink:href="#path-51"></use>
                </mask>
                <g id="Clip-77"></g>
                <path d="M279.1427,180.9259 C279.1427,181.1289 283.2247,183.5009 283.3697,183.5829 L285.2467,184.6789 C289.2427,186.9889 293.3077,189.2549 297.4287,191.3299 C297.4517,192.8529 297.4907,194.1199 297.4907,195.6519 C296.6377,197.1139 295.6897,198.0269 294.2887,198.8639 C291.6487,200.4589 288.1217,200.4439 285.4557,198.9189 L283.5617,197.8219 C280.9697,196.2869 279.4437,193.6539 279.2717,190.6139 C279.2717,187.3839 279.1427,184.1549 279.1427,180.9259" id="Fill-76" fill="#E8F3F7" mask="url(#mask-52)"></path>
            </g>
            <g id="Group-81" transform="translate(0.000000, 0.040000)">
                <mask id="mask-54" fill="white">
                    <use xlink:href="#path-53"></use>
                </mask>
                <g id="Clip-80"></g>
                <polygon id="Fill-79" fill="#2D394A" mask="url(#mask-54)" points="222.0236 183.5753 328.2736 256.8163 318.8896 261.3143 260.5706 225.1463 212.6376 188.0713 215.4026 185.5673"></polygon>
            </g>
            <g id="Group-84" transform="translate(0.000000, 0.040000)">
                <mask id="mask-56" fill="white">
                    <use xlink:href="#path-55"></use>
                </mask>
                <g id="Clip-83"></g>
                <polygon id="Fill-82" fill="#283240" mask="url(#mask-56)" points="219.4103 104.7521 228.9293 100.3031 222.0233 183.5751 212.6383 188.0701 212.0473 178.6351"></polygon>
            </g>
            <g id="Group-87" transform="translate(0.000000, 0.040000)">
                <mask id="mask-58" fill="white">
                    <use xlink:href="#path-57"></use>
                </mask>
                <g id="Clip-86"></g>
                <path d="M215.2853,95.8243 L224.6873,91.3303 C224.7053,91.3193 224.7233,91.3113 224.7433,91.3013 C226.9583,90.2213 229.6513,91.2813 231.5273,92.5573 L227.5593,95.1903 L222.1403,97.0563 C219.7643,96.3403 217.4603,95.0973 215.2853,95.8243" id="Fill-85" fill="#DCEAF0" mask="url(#mask-58)"></path>
            </g>
            <g id="Group-90" transform="translate(0.000000, 0.040000)">
                <mask id="mask-60" fill="white">
                    <use xlink:href="#path-59"></use>
                </mask>
                <g id="Clip-89"></g>
                <path d="M326.4064,264.295 L332.1774,260.94 L335.8364,259.803 C335.5904,262.856 334.3454,264.919 332.5164,265.792 L323.1154,270.288 C324.9414,269.413 325.3964,265.944 326.4064,264.295" id="Fill-88" fill="#CFE0E8" mask="url(#mask-60)"></path>
            </g>
            <g id="Group-93" transform="translate(0.000000, 0.040000)">
                <mask id="mask-62" fill="white">
                    <use xlink:href="#path-61"></use>
                </mask>
                <g id="Clip-92"></g>
                <path d="M324.6974,167.753 L329.8734,164.076 L334.1014,163.258 C339.3514,166.899 342.8734,174.884 342.4054,180.734 L338.3424,184.732 L332.9994,185.23 C332.3814,179.229 329.3474,171.802 324.6974,167.753" id="Fill-91" fill="#DCEAF0" mask="url(#mask-62)"></path>
            </g>
            <g id="Group-96" transform="translate(0.000000, 0.040000)">
                <mask id="mask-64" fill="white">
                    <use xlink:href="#path-63"></use>
                </mask>
                <g id="Clip-95"></g>
                <polygon id="Fill-94" fill="#000002" mask="url(#mask-64)" points="221.4288 103.8829 327.6798 177.1269 320.7758 260.4009 214.5228 187.1549"></polygon>
            </g>
            <g id="Group-99" transform="translate(0.000000, 0.040000)">
                <mask id="mask-66" fill="white">
                    <use xlink:href="#path-65"></use>
                </mask>
                <g id="Clip-98"></g>
                <polygon id="Fill-97" fill="#E8F3F7" mask="url(#mask-66)" points="231.5275 92.5577 334.1015 163.2577 324.6975 167.7527 309.6865 159.0247 222.1405 97.0567"></polygon>
            </g>
            <g id="Group-102" transform="translate(0.000000, 0.040000)">
                <mask id="mask-68" fill="white">
                    <use xlink:href="#path-67"></use>
                </mask>
                <g id="Clip-101"></g>
                <polygon id="Fill-100" fill="#CFE0E8" mask="url(#mask-68)" points="332.9669 185.2267 342.4049 180.7347 335.8359 259.8027 326.4479 264.2987 325.9959 243.2697"></polygon>
            </g>
            <g id="Group-105" transform="translate(0.000000, 0.040000)">
                <mask id="mask-70" fill="white">
                    <use xlink:href="#path-69"></use>
                </mask>
                <g id="Clip-104"></g>
                <path d="M211.9679,101.8009 C212.4759,95.6639 217.0209,93.5329 222.1419,97.0569 L324.6969,167.7529 C329.7979,171.2679 333.5099,179.0899 332.9999,185.2299 L326.4479,264.2989 C325.9379,270.4369 321.3919,272.5779 316.2909,269.0669 L213.7339,198.3639 C208.6169,194.8469 204.9039,187.0079 205.4159,180.8709 L211.9679,101.8009 Z M318.8899,261.3149 L325.7949,178.0409 L219.5439,104.7969 L212.6379,188.0709 L318.8899,261.3149 Z" id="Fill-103" fill="#212934" mask="url(#mask-70)"></path>
            </g>
            <g id="Group-108" transform="translate(214.000000, 103.040000)">
                <mask id="mask-72" fill="white">
                    <use xlink:href="#path-71"></use>
                </mask>
                <g id="Clip-107"></g>
                <path d="M7.4288,0.8829 C39.9178,59.4689 68.0178,102.7489 106.7758,157.4009 L0.5228,84.1549 L7.4288,0.8829 Z" id="Fill-106" fill="#566E94" mask="url(#mask-72)"></path>
            </g>
            <g id="Group-111" transform="translate(0.000000, 0.040000)">
                <mask id="mask-74" fill="white">
                    <use xlink:href="#path-73"></use>
                </mask>
                <g id="Clip-110"></g>
                <path d="M33.007,250.2872 C9.046,247.5772 9.051,288.8832 19.156,306.5882 C31.445,328.1282 38.609,347.2122 36.37,372.7182 C51.027,390.2772 87.798,406.9462 105.055,381.1412 C104.102,378.8682 101.934,368.3152 101.867,360.7232 C101.777,350.4022 107.282,340.6872 108.155,330.4692 C118.153,315.8452 120.985,304.0582 117.933,297.1012 C109.184,277.1522 54.253,252.6892 33.007,250.2872" id="Fill-109" fill="#D2EEFC" mask="url(#mask-74)"></path>
            </g>
            <g id="Group-114" transform="translate(0.000000, 0.040000)">
                <mask id="mask-76" fill="white">
                    <use xlink:href="#path-75"></use>
                </mask>
                <g id="Clip-113"></g>
                <path d="M33.007,250.2872 C9.046,247.5772 9.051,288.8832 19.156,306.5882 C31.445,328.1282 38.609,347.2122 36.37,372.7182 C40.098,377.1832 45.255,381.5912 51.155,385.2542 C46.926,363.0672 45.242,335.5392 42.086,325.7692 C34.614,302.6312 26.568,276.7902 33.47,266.1242 C45.449,272.7412 69.414,283.4472 94.093,274.9442 C73.853,262.3442 46.57,251.8192 33.007,250.2872" id="Fill-112" fill="#C3E6F7" mask="url(#mask-76)"></path>
            </g>
            <g id="Group-117" transform="translate(0.000000, 0.040000)">
                <mask id="mask-78" fill="white">
                    <use xlink:href="#path-77"></use>
                </mask>
                <g id="Clip-116"></g>
                <path d="M40.2814,265.4317 C38.5014,277.1367 69.1334,283.8477 79.0824,273.0887 C79.9534,259.3787 78.5844,249.9207 83.8774,236.4907 L52.8134,227.4177 L44.7044,224.4177 C48.5744,241.4917 46.3994,250.0367 40.2814,265.4317" id="Fill-115" fill="#E8A476" mask="url(#mask-78)"></path>
            </g>
            <g id="Group-120" transform="translate(0.000000, 0.040000)">
                <mask id="mask-80" fill="white">
                    <use xlink:href="#path-79"></use>
                </mask>
                <g id="Clip-119"></g>
                <path d="M98.8878,244.3575 C97.9808,245.9415 86.0628,245.5575 81.4878,243.8365 C76.2338,252.0135 51.4838,253.3385 45.1608,251.7155 C45.5098,248.7315 46.6498,245.1435 46.6328,243.3585 C46.5958,239.4005 44.6378,238.9445 43.8948,237.9385 C39.8428,232.4495 31.9588,226.6105 28.6358,218.0505 C32.5828,205.8675 68.1168,221.9085 98.8878,244.3575" id="Fill-118" fill="#DB9669" mask="url(#mask-80)"></path>
            </g>
            <g id="Group-123" transform="translate(0.000000, 0.040000)">
                <mask id="mask-82" fill="white">
                    <use xlink:href="#path-81"></use>
                </mask>
                <g id="Clip-122"></g>
                <path d="M98.7306,244.5001 C96.2416,246.2811 79.6146,238.6211 78.1476,238.7571 C64.0176,240.0801 46.8876,241.9941 43.8946,237.9381 C39.8426,232.4491 31.9596,226.6101 28.6366,218.0521 C23.3206,204.3781 23.5566,188.6841 35.7716,177.2311 C57.0156,157.3161 92.2376,169.6941 98.1306,190.9391 C100.5466,199.6571 97.5276,202.0171 98.1996,207.8961 C98.3036,208.7971 100.3726,213.2271 101.5106,215.1541 C102.3156,216.5191 100.8906,222.6471 100.7776,230.2891 C100.6836,236.8551 100.3786,243.3141 98.7306,244.5001" id="Fill-121" fill="#E8A476" mask="url(#mask-82)"></path>
            </g>
            <g id="Group-126" transform="translate(0.000000, 0.040000)">
                <mask id="mask-84" fill="white">
                    <use xlink:href="#path-83"></use>
                </mask>
                <g id="Clip-125"></g>
                <path d="M28.6359,218.0518 C23.3239,204.3778 23.5559,188.6838 35.7719,177.2318 C42.9859,170.4708 52.4649,167.1478 61.7739,166.5448 C68.6769,166.0988 83.2769,168.7948 88.5749,174.1368 C88.7939,174.3338 83.8409,180.7948 86.0039,184.4838 C89.3579,190.1908 88.0529,198.3478 87.6359,199.8698 C84.3249,211.9558 86.1429,218.5728 82.0979,225.0288 C78.6779,230.9898 76.8579,234.9928 73.7979,237.1698 C68.5759,240.8858 52.2969,245.1558 46.6939,242.5698 C41.7569,240.2848 30.2099,222.1058 28.6359,218.0518" id="Fill-124" fill="#361D07" mask="url(#mask-84)"></path>
            </g>
            <g id="Group-129" transform="translate(0.000000, 0.040000)">
                <mask id="mask-86" fill="white">
                    <use xlink:href="#path-85"></use>
                </mask>
                <g id="Clip-128"></g>
                <path d="M81.588,226.7286 C82.58,223.0786 81.394,221.8746 79.863,222.3896 C78.187,222.9546 75.955,225.6116 74.987,229.3906 C73.433,235.4826 76.977,242.7266 82.457,239.3326 C83.886,237.2076 81.526,232.3106 81.588,226.7286" id="Fill-127" fill="#E8A476" mask="url(#mask-86)"></path>
            </g>
            <g id="Group-132" transform="translate(0.000000, 0.040000)">
                <mask id="mask-88" fill="white">
                    <use xlink:href="#path-87"></use>
                </mask>
                <g id="Clip-131"></g>
                <path d="M81.588,226.7286 C82.58,223.0786 81.394,221.8746 79.863,222.3896 C78.187,222.9546 75.955,225.6116 74.987,229.3906 C73.433,235.4826 76.977,242.7266 82.457,239.3326 C77.559,240.0256 77.533,234.0526 78.707,230.2696 C79.505,227.7036 80.912,225.8146 81.588,226.7286" id="Fill-130" fill="#F1B287" mask="url(#mask-88)"></path>
            </g>
            <g id="Group-135" transform="translate(0.000000, 0.040000)">
                <mask id="mask-90" fill="white">
                    <use xlink:href="#path-89"></use>
                </mask>
                <g id="Clip-134"></g>
                <path d="M79.4572,228.5206 C81.0442,230.9706 81.6452,232.4526 81.2762,233.3716 C81.0192,234.0076 80.1262,234.7846 78.4512,233.4096 C78.2602,231.6346 78.7492,229.9366 79.4572,228.5206" id="Fill-133" fill="#DB9669" mask="url(#mask-90)"></path>
            </g>
            <g id="Group-138" transform="translate(0.000000, 0.040000)">
                <mask id="mask-92" fill="white">
                    <use xlink:href="#path-91"></use>
                </mask>
                <g id="Clip-137"></g>
                <path d="M87.6173,173.5645 C69.9893,165.3455 44.8913,168.4075 40.3793,177.4485 C51.6593,187.2215 48.3523,213.6075 63.8463,224.8025 C91.9433,245.1005 111.2813,178.0035 87.6173,173.5645" id="Fill-136" fill="#361D07" mask="url(#mask-92)"></path>
            </g>
            <g id="Group-141" transform="translate(0.000000, 0.040000)">
                <mask id="mask-94" fill="white">
                    <use xlink:href="#path-93"></use>
                </mask>
                <g id="Clip-140"></g>
                <path d="M87.6173,173.5645 C105.0823,182.2045 92.2613,216.7805 80.5543,222.6975 C71.3813,227.3345 65.2873,223.1375 60.6343,215.7295 C52.4483,202.7115 48.6813,179.7855 40.3793,177.4485 C49.8343,185.6405 50.3253,205.9715 58.9383,218.7785 C63.8623,226.1025 71.1073,231.4225 80.3123,227.3115 C98.2413,219.3005 106.2273,177.0565 87.6173,173.5645" id="Fill-139" fill="#4A2B12" mask="url(#mask-94)"></path>
            </g>
            <g id="Group-144" transform="translate(0.000000, 0.040000)">
                <mask id="mask-96" fill="white">
                    <use xlink:href="#path-95"></use>
                </mask>
                <g id="Clip-143"></g>
                <path d="M91.2872,176.3556 C95.3252,188.2516 93.1872,212.7516 74.7682,214.7796 C52.9182,217.1816 54.2042,180.2316 41.4952,177.3546 C48.3622,181.5126 49.5552,189.6716 51.7992,196.0426 C55.6082,206.8586 63.2002,224.9546 80.7242,216.4666 C96.1342,209.0016 96.2992,188.4276 91.2872,176.3556" id="Fill-142" fill="#4A2B12" mask="url(#mask-96)"></path>
            </g>
            <g id="Group-147" transform="translate(0.000000, 0.040000)">
                <mask id="mask-98" fill="white">
                    <use xlink:href="#path-97"></use>
                </mask>
                <g id="Clip-146"></g>
                <path d="M89.8156,175.0968 C92.6776,186.3498 88.9986,208.3128 71.3476,207.8088 C54.3396,207.3208 55.5436,181.0668 43.7946,178.8218 C55.8146,184.7468 52.1906,210.1978 71.0496,210.7528 C90.2006,211.3168 94.9276,186.0298 89.8156,175.0968" id="Fill-145" fill="#4A2B12" mask="url(#mask-98)"></path>
            </g>
            <g id="Group-150" transform="translate(0.000000, 0.040000)">
                <mask id="mask-100" fill="white">
                    <use xlink:href="#path-99"></use>
                </mask>
                <g id="Clip-149"></g>
                <path d="M54.1652,211.7208 C55.0942,196.8758 49.9192,181.3058 42.2682,176.6198 C36.8352,173.2968 31.1312,174.7218 27.1962,176.2258 C17.3252,180.0018 15.0562,196.2758 21.7212,211.0968 C26.8872,222.5938 39.1352,237.9688 46.5562,237.5408 C51.7852,237.2378 53.2282,226.7268 54.1652,211.7208" id="Fill-148" fill="#361D07" mask="url(#mask-100)"></path>
            </g>
            <g id="Group-153" transform="translate(0.000000, 0.040000)">
                <mask id="mask-102" fill="white">
                    <use xlink:href="#path-101"></use>
                </mask>
                <g id="Clip-152"></g>
                <path d="M54.1652,211.7208 C54.3362,208.9788 54.3022,206.2148 54.0792,203.4988 C40.3782,211.8878 25.1862,207.3778 17.9402,195.3058 C18.1022,200.3318 19.3412,205.8068 21.7212,211.0968 C26.8872,222.5938 39.1042,241.6158 46.5222,241.1888 C51.7542,240.8858 53.2282,226.7268 54.1652,211.7208" id="Fill-151" fill="#241304" mask="url(#mask-102)"></path>
            </g>
            <g id="Group-156" transform="translate(0.000000, 0.040000)">
                <mask id="mask-104" fill="white">
                    <use xlink:href="#path-103"></use>
                </mask>
                <g id="Clip-155"></g>
                <path d="M88.7296,174.0909 C90.5246,182.7049 89.1176,189.5929 86.2756,194.3859 C76.3436,211.1609 63.2026,201.9559 55.1666,188.8289 C52.2196,184.0109 48.6496,179.3389 42.2526,177.1659 C48.7886,178.9839 52.9926,183.1449 56.4746,187.4649 C64.0486,196.8699 74.1966,208.1929 84.5946,193.1989 C87.7726,188.6209 89.7776,181.9069 88.7296,174.0909" id="Fill-154" fill="#4A2B12" mask="url(#mask-104)"></path>
            </g>
            <g id="Group-159" transform="translate(0.000000, 0.040000)">
                <mask id="mask-106" fill="white">
                    <use xlink:href="#path-105"></use>
                </mask>
                <g id="Clip-158"></g>
                <path d="M39.9523,256.6915 L62.1103,269.7125 L79.2043,269.2555 L81.3123,278.5645 C49.0943,285.5785 34.9083,265.4315 34.9113,265.6975 C31.8863,265.6445 27.6823,274.3615 27.6823,274.3615 L27.3433,266.5505 L34.7073,257.6365 L39.9523,256.6915 Z" id="Fill-157" fill="#C3E6F7" mask="url(#mask-106)"></path>
            </g>
            <g id="Group-162" transform="translate(0.000000, 0.040000)">
                <mask id="mask-108" fill="white">
                    <use xlink:href="#path-107"></use>
                </mask>
                <g id="Clip-161"></g>
                <path d="M40.3204,274.5763 C55.6494,284.5443 69.7214,283.5253 94.3974,275.0173 C92.1134,273.5973 87.6584,270.7083 84.5914,269.6893 C67.0534,263.8673 41.5374,264.9723 44.9704,252.8843 C43.4464,252.4433 41.9794,252.0503 40.5804,251.7063 C33.1794,249.9013 30.6314,268.0473 40.3204,274.5763" id="Fill-160" fill="#EBF9FF" mask="url(#mask-108)"></path>
            </g>
            <g id="Group-165" transform="translate(0.000000, 0.040000)">
                <mask id="mask-110" fill="white">
                    <use xlink:href="#path-109"></use>
                </mask>
                <g id="Clip-164"></g>
                <path d="M44.9093,251.1505 C45.7213,258.5185 67.3193,263.0615 79.3173,259.6475 L79.5823,258.2095 C81.3783,259.1945 86.4723,266.0505 87.0283,269.5735 C76.4703,279.7525 43.4083,275.0035 39.3543,263.0785 C38.3843,260.2255 42.3883,254.8975 44.9093,251.1505" id="Fill-163" fill="#1ABAC6" mask="url(#mask-110)"></path>
            </g>
            <g id="Group-168" transform="translate(0.000000, 0.040000)">
                <mask id="mask-112" fill="white">
                    <use xlink:href="#path-111"></use>
                </mask>
                <g id="Clip-167"></g>
                <path d="M175.4493,338.7696 C188.5123,330.4196 186.3513,332.9356 193.5333,325.9046 C197.8853,321.6396 211.0093,309.1356 203.5273,303.8776 C201.6683,302.5696 201.7003,302.7666 195.7963,305.1466 C189.8923,307.5246 183.0053,308.6226 177.3303,313.1666 C173.0173,316.6236 168.3063,323.6266 165.8123,332.2666 L175.4493,338.7696 Z" id="Fill-166" fill="#F1B287" mask="url(#mask-112)"></path>
            </g>
            <g id="Group-171" transform="translate(0.000000, 0.040000)">
                <mask id="mask-114" fill="white">
                    <use xlink:href="#path-113"></use>
                </mask>
                <g id="Clip-170"></g>
                <path d="M118.2882,298.1329 C122.9402,312.2349 118.8342,338.9139 118.8812,364.3959 L97.8272,378.8949 C94.6032,376.7609 94.0942,374.6189 93.5652,365.7219 C92.4992,347.7439 90.8242,307.4149 93.6992,298.6469 C95.4942,293.1729 100.9152,289.3199 105.8892,288.6699 C112.3642,287.8259 116.4272,292.4859 118.2882,298.1329" id="Fill-169" fill="#D2EEFC" mask="url(#mask-114)"></path>
            </g>
            <g id="Group-174" transform="translate(0.000000, 0.040000)">
                <mask id="mask-116" fill="white">
                    <use xlink:href="#path-115"></use>
                </mask>
                <g id="Clip-173"></g>
                <path d="M103.2081,356.2833 L167.0781,323.2533 C174.2691,322.4473 179.6581,335.7713 175.9461,340.4603 L115.4341,379.3953 C107.2401,382.4823 101.5331,382.1833 97.9611,379.3273 C89.6351,372.6703 96.9361,361.4893 103.2081,356.2833" id="Fill-172" fill="#D2EEFC" mask="url(#mask-116)"></path>
            </g>
            <g id="Group-177" transform="translate(0.000000, 0.040000)">
                <mask id="mask-118" fill="white">
                    <use xlink:href="#path-117"></use>
                </mask>
                <g id="Clip-176"></g>
                <path d="M110.7384,381.0538 C104.7694,382.5608 99.8014,381.0018 97.8274,378.8948 C94.6044,376.7608 94.2854,374.6068 93.5664,365.7218 C92.7414,355.4928 90.1354,336.1158 90.0714,320.0058 C90.0354,311.3118 90.0224,303.9408 93.0924,298.6468 C96.6094,292.5768 102.2184,288.0688 107.3214,287.8618 C107.6124,287.8488 107.9004,287.8518 108.1884,287.8708 C107.5724,310.9758 103.3514,346.9978 106.0754,370.2388 C106.3064,372.1818 106.4314,378.9458 110.7384,381.0538" id="Fill-175" fill="#C3E6F7" mask="url(#mask-118)"></path>
            </g>
            <g id="Group-180" transform="translate(0.000000, 0.040000)">
                <mask id="mask-120" fill="white">
                    <use xlink:href="#path-119"></use>
                </mask>
                <g id="Clip-179"></g>
                <path d="M113.5616,358.7208 C115.3486,353.6428 116.0646,352.4948 119.1136,348.0588 L167.0786,323.2528 C169.7556,322.9498 172.1846,324.6118 173.9856,327.0548 L113.5616,358.7208 Z" id="Fill-178" fill="#C3E6F7" mask="url(#mask-120)"></path>
            </g>
            <g id="Group-183" transform="translate(0.000000, 0.040000)">
                <mask id="mask-122" fill="white">
                    <use xlink:href="#path-121"></use>
                </mask>
                <g id="Clip-182"></g>
                <path d="M-2.2059,298.4825 C4.5351,302.1735 12.3351,306.7265 20.6901,311.5835 C21.9151,310.8805 23.1241,310.7785 24.4331,311.0985 C24.3681,311.0655 24.1231,310.9255 23.8321,310.7575 C21.5101,309.4075 19.1761,308.0695 16.8371,306.7435 C13.5081,304.8555 10.1671,302.9725 6.8021,301.1435 C4.8851,300.0985 2.9511,299.0465 1.0121,298.0095 C-4.3949,295.1265 -9.9459,292.2425 -15.5079,289.6805 C-18.3099,288.3905 -20.1839,287.6645 -21.4919,287.2895 C-22.4139,287.0825 -23.0829,286.7645 -24.0759,287.0555 C-24.6709,287.2265 -25.4239,287.5795 -25.6699,287.8675 C-24.4639,287.1875 -19.7109,289.5055 -16.7299,290.9845 C-11.7679,293.4475 -7.0199,295.7895 -2.2059,298.4825" id="Fill-181" fill="#08C8D6" mask="url(#mask-122)"></path>
            </g>
            <g id="Group-186" transform="translate(0.000000, 0.040000)">
                <mask id="mask-124" fill="white">
                    <use xlink:href="#path-123"></use>
                </mask>
                <g id="Clip-185"></g>
                <path d="M41.4982,429.1358 C41.8082,397.9208 28.5932,359.6238 20.4842,336.1338 C18.5442,330.4888 16.8642,325.6148 15.7672,321.9628 C14.6292,318.2078 18.0682,313.0338 20.7292,311.4498 C19.9672,311.0108 19.2042,310.5648 18.4482,310.1278 C8.5742,304.4208 -1.9328,298.3848 -12.2268,293.1128 C-15.7308,291.3848 -18.8868,289.6008 -22.5438,288.0968 C-23.8508,287.5598 -24.6128,287.3758 -25.2988,287.6568 C-26.2128,288.0288 -27.1998,289.4068 -27.6898,290.6898 C-28.3858,292.5068 -27.7728,293.9428 -27.1968,295.6608 C-24.9138,302.9288 -22.2708,310.1698 -19.8208,317.4038 C-15.7598,329.4628 -10.8158,344.9918 -7.2088,360.5868 C-5.9018,366.5948 -4.7798,372.2068 -3.8738,378.2628 C-2.0058,390.7598 -0.9868,403.9328 -3.6478,416.0538 C-5.1088,422.6998 -7.3908,430.0958 -10.1728,435.8658 C-12.0648,440.3168 -14.1718,446.1788 -11.6388,450.2228 C-9.5038,453.6288 -3.5778,457.3918 -1.1048,459.1048 C8.8682,466.0058 20.0912,472.7488 30.5182,478.8788 C31.6552,479.5458 33.1562,480.4208 34.2952,481.0878 C31.4412,479.4228 30.6772,475.9148 30.8032,472.8628 C30.9062,469.3028 32.3642,465.9978 33.7422,462.7748 C38.3102,452.0958 41.3852,440.7818 41.4982,429.1358" id="Fill-184" fill="#07ACB8" mask="url(#mask-124)"></path>
            </g>
            <g id="Group-189" transform="translate(0.000000, 0.040000)">
                <mask id="mask-126" fill="white">
                    <use xlink:href="#path-125"></use>
                </mask>
                <g id="Clip-188"></g>
                <path d="M15.6798,319.003 C16.2788,315.877 18.7268,312.645 20.7298,311.451 C19.9678,311.011 19.2028,310.565 18.4478,310.128 C8.5738,304.421 -1.9312,298.385 -12.2262,293.111 C-15.7302,291.385 -18.8872,289.601 -22.5452,288.097 C-23.8502,287.56 -24.6122,287.376 -25.2992,287.657 C-26.2142,288.027 -27.2002,289.406 -27.6902,290.69 C-28.1422,291.87 -28.0402,292.893 -27.7562,293.934 L-14.1882,301.761 L1.6018,310.871 L15.6798,319.003 Z" id="Fill-187" fill="#07B7C4" mask="url(#mask-126)"></path>
            </g>
            <g id="Group-192" transform="translate(0.000000, 0.040000)">
                <mask id="mask-128" fill="white">
                    <use xlink:href="#path-127"></use>
                </mask>
                <g id="Clip-191"></g>
                <path d="M36.0587,317.8595 L24.4167,311.0945 C23.6237,310.6655 22.5437,310.4385 20.7297,311.4515 L32.1727,318.1015 C33.3047,317.4665 34.9147,317.3295 36.0587,317.8595" id="Fill-190" fill="#08C8D6" mask="url(#mask-128)"></path>
            </g>
            <g id="Group-195" transform="translate(0.000000, 0.040000)">
                <mask id="mask-130" fill="white">
                    <use xlink:href="#path-129"></use>
                </mask>
                <g id="Clip-194"></g>
                <path d="M34.0704,343.089 C31.5554,335.808 27.5094,327.161 32.1734,318.102 L20.7294,311.451 C17.4484,313.245 10.3544,318.088 11.5034,321.654 C12.5984,325.313 13.9764,330.487 15.9164,336.134 C31.2244,380.481 47.2474,412.602 27.8494,457.285 C24.9464,463.974 27.7114,477.244 34.2954,481.088 L45.7364,487.737 C40.7214,484.817 44.1244,478.256 46.1024,472.711 C64.0144,422.514 53.0254,397.983 34.0704,343.089" id="Fill-193" fill="#07ACB8" mask="url(#mask-130)"></path>
            </g>
            <g id="Group-198" transform="translate(0.000000, 0.040000)">
                <mask id="mask-132" fill="white">
                    <use xlink:href="#path-131"></use>
                </mask>
                <g id="Clip-197"></g>
                <path d="M27.4073,325.7745 C27.4553,325.0145 27.6633,324.2095 28.0893,323.2545 C29.0693,321.0735 30.5083,319.0895 32.1733,318.1015 L20.7303,311.4515 C13.9783,311.6125 3.8013,312.6215 15.6133,318.9635 L17.3943,319.9935 L27.4073,325.7745 Z" id="Fill-196" fill="#07B7C4" mask="url(#mask-132)"></path>
            </g>
            <g id="Group-201" transform="translate(0.000000, 0.040000)">
                <mask id="mask-134" fill="white">
                    <use xlink:href="#path-133"></use>
                </mask>
                <g id="Clip-200"></g>
                <path d="M80.8136,348.0323 C80.7436,347.8123 80.7526,347.8043 80.6536,347.5833 C79.7756,345.6203 74.3446,341.9283 72.4406,340.5673 C70.9846,339.5683 69.5306,338.5713 68.0626,337.5853 C57.6056,330.6473 46.8576,324.1353 35.9656,317.8103 C34.6256,317.1413 33.4996,317.3513 32.1726,318.1013 C34.1656,319.2643 36.1506,320.4313 38.1416,321.5953 C38.2576,321.6613 38.3626,321.7213 38.4746,321.7913 C43.3436,324.7463 48.2756,327.5883 53.1266,330.5793 C58.1006,333.6923 76.3936,345.0213 77.9146,347.5183 C78.7966,347.0073 80.3906,346.8453 80.7526,348.0673 L80.8136,348.0323 Z" id="Fill-199" fill="#08C8D6" mask="url(#mask-134)"></path>
            </g>
            <g id="Group-204" transform="translate(0.000000, 0.040000)">
                <mask id="mask-136" fill="white">
                    <use xlink:href="#path-135"></use>
                </mask>
                <g id="Clip-203"></g>
                <path d="M106.7257,462.3028 C106.8227,460.3728 106.8817,458.1088 106.8517,455.5128 C106.8517,455.1618 106.8457,454.8148 106.8357,454.4648 L106.8357,454.3848 L106.8357,454.1568 C106.7877,451.4928 106.6487,448.7818 106.4317,446.0348 C104.7667,424.3238 98.2897,401.1868 92.8487,384.0518 C92.8487,384.0338 92.8427,384.0188 92.8427,384.0018 L92.8097,383.9208 C92.4987,382.9458 92.1937,381.9788 91.8927,381.0468 C89.2047,372.4698 86.1327,363.2998 82.6837,353.4548 C82.5917,353.1968 82.5057,352.9448 82.4147,352.6928 C82.1227,351.8728 81.8297,351.0458 81.5367,350.2088 L80.8137,348.0318 L80.6887,347.9678 C80.7067,347.9918 80.7557,348.2018 80.7667,348.2258 C81.7167,351.3848 83.1297,355.5908 84.8107,360.4248 C87.0037,367.0608 89.0917,373.4578 91.0477,379.6408 C98.2137,402.4068 103.5217,421.8798 105.6987,439.4238 C106.0507,442.3568 106.3257,445.2738 106.5127,448.1618 C106.5287,448.4148 106.5407,448.6748 106.5507,448.9268 C106.5777,449.2038 106.5827,449.4888 106.6007,449.7638 C106.6837,451.4608 106.7397,453.1258 106.7717,454.7558 C106.8197,459.5738 106.5667,464.2678 105.9857,468.8608 C105.8327,470.0848 105.6597,471.2678 105.4197,472.4788 C103.7427,480.9398 100.5927,490.7328 98.0167,496.0318 L98.0397,496.0588 C98.1717,495.7958 98.2897,495.5218 98.4077,495.3008 L98.7057,494.6178 C101.9927,487.6378 104.3047,480.3348 105.5917,472.3168 C105.7637,471.2558 105.9197,470.1858 106.0667,469.1168 C106.0967,468.8888 106.1317,468.6458 106.1697,468.3938 C106.3337,467.2178 106.4567,466.0608 106.5667,464.8798 C106.5937,464.4728 106.6237,464.0318 106.6487,463.5788 C106.7007,462.8708 106.6867,463.0698 106.7257,462.3028" id="Fill-202" fill="#03868F" mask="url(#mask-136)"></path>
            </g>
            <g id="Group-207" transform="translate(0.000000, 0.040000)">
                <mask id="mask-138" fill="white">
                    <use xlink:href="#path-137"></use>
                </mask>
                <g id="Clip-206"></g>
                <path d="M106.3312,509.005 C106.3312,509.005 106.3262,509.011 106.3182,509.011 C106.3262,509.005 106.3312,508.994 106.3312,508.979 L106.3422,508.979 L106.3312,508.979 L106.3422,508.979 C91.3612,517.487 91.3852,505.072 97.1722,491.308 C116.7112,444.819 74.9282,348.912 77.9772,347.365 C77.9772,346.783 67.7042,339.561 66.5462,338.785 C55.7462,331.535 36.1952,320.44 32.1732,318.102 C28.4162,320.175 26.1212,324.983 27.3582,329.074 C28.4482,332.674 30.0712,337.375 31.9362,342.783 C40.2242,366.814 53.8622,406.341 52.8992,437.927 C52.6532,446.062 50.7802,454.219 48.0362,461.873 C47.2382,464.388 45.7792,466.937 44.5612,469.868 C42.1092,475.782 40.2892,482.314 44.4142,486.701 C44.8112,487.109 45.2482,487.457 45.7372,487.737 C49.0082,489.63 52.2872,491.499 55.5722,493.366 C64.1792,498.225 75.5382,504.615 84.5872,508.888 C88.1572,510.567 91.6652,511.966 94.2172,512.324 C96.0072,512.577 98.0182,512.393 99.9752,511.868 C101.9502,511.339 103.8712,510.459 105.4552,509.522 C105.7332,509.375 106.0022,509.231 106.2832,509.074 C106.2922,509.067 106.2832,509.06 106.2922,509.06 L106.3182,509.044 C106.3102,509.044 106.2992,509.053 106.2992,509.053 L106.2992,509.036 L106.3312,509.026 C106.3182,509.026 106.3102,509.036 106.2992,509.036 C106.3102,509.026 106.3182,509.021 106.3182,509.011 L106.3312,509.005 Z" id="Fill-205" fill="#07ACB8" mask="url(#mask-138)"></path>
            </g>
            <g id="Group-210" transform="translate(0.000000, 0.040000)">
                <mask id="mask-140" fill="white">
                    <use xlink:href="#path-139"></use>
                </mask>
                <g id="Clip-209"></g>
                <path d="M76.048,353.8546 C75.78,352.9756 75.514,352.0956 75.25,351.2126 C75.186,349.6256 76.319,348.2036 77.979,347.3666 C77.979,346.7846 67.703,339.5606 66.546,338.7856 C55.746,331.5356 36.195,320.4396 32.173,318.1016 C29.45,319.6026 27.497,322.5386 27.097,325.5966 L33.201,329.1206 L49.005,338.2506 L64.845,347.3856 L76.048,353.8546 Z" id="Fill-208" fill="#07B7C4" mask="url(#mask-140)"></path>
            </g>
            <g id="Group-213" transform="translate(0.000000, 0.040000)">
                <mask id="mask-142" fill="white">
                    <use xlink:href="#path-141"></use>
                </mask>
                <g id="Clip-212"></g>
                <path d="M111.6691,498.9903 C110.2411,499.8863 108.7931,500.7943 107.3241,501.7193 C107.0231,501.9133 106.7161,502.1073 106.2921,502.3693 C100.3301,505.8363 97.3341,505.1693 96.4401,503.6913 C95.6131,501.9943 96.4631,499.1093 97.8431,496.3823 C101.2741,489.5433 105.8031,474.3793 106.5031,464.9603 C109.0801,430.8473 94.2811,387.8703 85.3871,362.0813 C83.4371,356.5193 81.8431,351.6563 80.7781,348.1223 C80.3951,346.8323 78.6901,346.5003 77.4451,347.2153 C75.2141,348.3863 74.6231,351.2493 75.2181,353.2053 C76.2971,356.8203 78.0041,361.6603 79.9131,367.3033 C88.5941,392.4643 103.2141,434.7613 100.7721,467.6573 C100.1371,475.9893 96.6761,488.0583 92.9361,494.8363 C89.7931,501.1853 89.5221,506.4213 91.2411,509.5483 C93.3211,513.3653 98.7391,513.3413 106.3411,508.9783 C106.7551,508.7103 107.1781,508.4513 107.5921,508.1923 C110.0431,506.6503 112.4331,505.1463 114.7741,503.6773 L111.6691,498.9903 Z" id="Fill-211" fill="#03868F" mask="url(#mask-142)"></path>
            </g>
            <g id="Group-216" transform="translate(0.000000, 0.040000)">
                <mask id="mask-144" fill="white">
                    <use xlink:href="#path-143"></use>
                </mask>
                <g id="Clip-215"></g>
                <path d="M250.5538,158.046 C252.8198,159.758 254.7308,158.234 254.8248,154.646 C254.9188,151.057 253.1598,146.759 250.8948,145.047 C248.6308,143.335 246.7188,144.858 246.6248,148.446 C246.5308,152.036 248.2888,156.334 250.5538,158.046" id="Fill-214" fill="#FFFFFF" mask="url(#mask-144)"></path>
            </g>
            <g id="Group-219" transform="translate(0.000000, 0.040000)">
                <mask id="mask-146" fill="white">
                    <use xlink:href="#path-145"></use>
                </mask>
                <g id="Clip-218"></g>
                <path d="M264.3253,172.461 C264.3693,170.773 263.5393,168.746 262.4763,167.942 L254.3883,161.829 L252.8293,160.65 L251.5113,159.652 C251.5313,159.739 251.5253,159.828 251.4873,159.903 L250.4793,161.863 C250.4003,162.019 250.2793,161.927 250.2123,161.66 L249.3453,158.283 C249.3113,158.154 249.3103,158.061 249.3363,158.009 L246.6733,155.995 C245.6093,155.191 244.7073,155.909 244.6623,157.596 L244.2623,172.891 C244.2173,174.576 245.0473,176.604 246.1093,177.408 L246.1003,177.771 L246.0903,178.173 L245.6983,193.065 C245.6533,194.752 246.4833,196.776 247.5483,197.581 C248.6103,198.386 249.5123,197.668 249.5563,195.982 C249.5123,197.668 250.3433,199.693 251.4053,200.499 C252.4703,201.303 253.3703,200.585 253.4143,198.898 L253.8053,184.006 L253.8163,183.604 L254.2283,167.946 L262.3153,174.06 C263.3803,174.864 264.2813,174.148 264.3253,172.461" id="Fill-217" fill="#FFFFFF" mask="url(#mask-146)"></path>
            </g>
            <g id="Group-222" transform="translate(0.000000, 0.040000)">
                <mask id="mask-148" fill="white">
                    <use xlink:href="#path-147"></use>
                </mask>
                <g id="Clip-221"></g>
                <path d="M283.9572,171.2452 L274.8032,164.3242 C274.8402,164.1832 274.8662,164.0302 274.8702,163.8502 C274.8962,162.8792 274.4152,161.7042 273.8032,161.2402 L270.4592,158.7132 C269.8472,158.2502 269.3242,158.6672 269.2992,159.6392 C269.2942,159.8182 269.3112,160.0062 269.3402,160.1952 L260.1852,153.2742 C259.5712,152.8102 259.0492,153.2262 259.0242,154.1982 C258.9992,155.1712 259.4782,156.3442 260.0922,156.8072 L282.7502,173.9352 L281.9602,203.9812 L259.3032,186.8522 C258.6882,186.3902 258.1662,186.8082 258.1422,187.7782 C258.1162,188.7512 258.5972,189.9242 259.2082,190.3882 L282.9812,208.3582 C283.5962,208.8222 284.1172,208.4062 284.1432,207.4332 L285.0252,173.8532 C285.0522,172.8822 284.5702,171.7082 283.9572,171.2452" id="Fill-220" fill="#FFFFFF" mask="url(#mask-148)"></path>
            </g>
            <g id="Group-225" transform="translate(0.000000, 0.040000)">
                <mask id="mask-150" fill="white">
                    <use xlink:href="#path-149"></use>
                </mask>
                <g id="Clip-224"></g>
                <path d="M271.7404,202.8087 C271.7114,202.7057 271.6774,202.6087 271.6364,202.5097 C271.4754,202.1177 271.2574,201.8207 271.0354,201.6587 C270.8144,201.4867 270.5904,201.4477 270.4144,201.5857 C270.3704,201.6217 270.3324,201.6637 270.2994,201.7187 L263.3864,207.2227 C263.0444,207.4957 263.0214,208.3487 263.3374,209.1197 C263.6524,209.8887 264.1894,210.2947 264.5324,210.0227 L270.9494,204.9117 L276.8544,219.3377 C277.1704,220.1067 277.7074,220.5137 278.0504,220.2417 C278.3914,219.9677 278.4144,219.1157 278.0994,218.3447 L271.7404,202.8087 Z" id="Fill-223" fill="#FFFFFF" mask="url(#mask-150)"></path>
            </g>
        </g>
    </g>
</svg>