<svg xmlns="http://www.w3.org/2000/svg" width="132.405" height="291.801" viewBox="0 0 132.405 291.801"><g data-name="Group 4775"><path data-name="Path 8001" d="M5.862 262.784l61.984-35.3c6.758-3.088 16.428-5.545 23.313-1.962 6.273 3.264 16.607 9.945 21.176 12.551 3.47 1.979 15.517 9.2 8.014 13.277-22.074 12-43.918 25.5-66.332 37.695-4.24 2.306-10.441 3.139-16.951 2.6a44.871 44.871 0 0 1-18.358-5.467q-5.588-3.249-10.992-6.4c-4.862-2.831-7.44-6.178-7.695-9.273-.249-3.025 1.694-5.827 5.841-7.721z" fill="#231f20" fill-rule="evenodd" opacity=".1" style="mix-blend-mode:multiply;isolation:isolate"/><g data-name="Group 4760" fill-rule="evenodd"><path data-name="Path 8002" d="M101.537 84.569c1.716.416 3.318-.162 4.854-.338 4.789-.548 8.425-.08 11.445 1.659.732.42-2.073 8.1-5.413 10.534-.159.116-.374-.074-.534-.136l-3.119-.989-8.438-2.824z" fill="#db9669"/><path data-name="Path 8003" d="M104.335 84.585c3.063-.525 5.132-1.88 6.862-1.923 1.776-.043 4.328 1.389 7.545 1.715-.59 3.206-4.8 1.112-6.333 1.406-1.411.27-1.491 1.983-2.807 2.02-2.072.059-5.058-.946-5.267-3.218z" fill="#db9669"/><path data-name="Path 8004" d="M69.713 90.77c13.6 2.358 20.353 1.668 34.1 3-1.511-5.236 1.3-9.921 3.4-10.425-11.625-2.421-25.722-6.292-37.727-6.246z" fill="#12a8b3"/><path data-name="Path 8005" d="M67.112 91.139c13.6 2.358 20.984 1.568 34.732 2.9-1.937-5.571 1.016-11.148 3.449-11.628-11.625-2.421-25.723-6.292-37.728-6.246z" fill="#d2eefc"/><path data-name="Path 8006" d="M67.112 91.139c13.6 2.358 20.984 1.568 34.732 2.9a11.482 11.482 0 0 1-.272-6.576c-8.359-.491-22.978-3.537-33.77-5.38z" fill="#c3e6f7"/></g><g data-name="Group 4762" fill-rule="evenodd"><g data-name="Group 4761"><path data-name="Path 8007" d="M65.942 234.183c.981 3.444 1.228 5.221 2.658 7.225 2.852 4 7.058 6.851 13.18 11.192 2.913 2.065 3.529 4.023.579 5.823-2.323 1.418-8.006.291-11.555-.544-6.661-1.566-9.354-5.575-11.632-6.618l-1.724.391c-1.412.025-6.963-2.215-8.046-3.665a39.777 39.777 0 0 1-.868-5.162c-.206-5.638.678-5.064 2.186-9.474 5.124.371 10.088.658 15.222.832z" fill="#111214"/><path data-name="Path 8008" d="M84.289 255.842c.03.891-.572 1.753-1.93 2.581-2.323 1.418-8.006.291-11.555-.544-6.661-1.566-9.354-5.575-11.632-6.618l-1.724.391c-1.412.025-6.963-2.215-8.046-3.665a39.777 39.777 0 0 1-.868-5.162c-.206-5.638.678-5.064 2.186-9.474 2.268.164 4.5.312 6.738.441.4 3.711-.137 10.113 2.917 12.5 3.415 2.664 6.08 3.374 8.362 4.761 7.27 4.415 12.073 8.009 15.552 4.789z"/><path data-name="Path 8009" d="M67.562 240.513c-.726 1.073-2.155 1.677-4.517 2.266 3.81 4.294 4.346 3.892 9.464 6.767 2.577 2.946 2.935 3.5 4.581 4.456 1.964 1.134 4.738 2.3 5.9 1.462.5-.361-.173-1.369-2.337-2.937-2.454-1.778-4.951-3.58-7.211-5.46a26.616 26.616 0 0 1-5.88-6.554z" fill="#20232e"/></g><path data-name="Path 8010" d="M46.872 139.997a82.228 82.228 0 0 1-.727-13.156c4.151-1.661 8.514-3.23 12.722-5.071l-.3-.254c4.46-2.093 8.3-5.344 13.448-8.3 2.152 6.776 2.949 9.81 2.786 15.323a169.515 169.515 0 0 1-2.41 21.793 1189.745 1189.745 0 0 1-2.478 30.438c-1.847 19.449-1.62 38.635-2.785 58.051-2.409 3.955-14.036 4.2-18.008-1.362-.594-15.359-1.555-27.487-1.121-35.891.363-7 .695-11.027 2.958-17.244-1.508-10.344-3.536-29.39-4.085-44.327z" fill="#001624"/><path data-name="Path 8011" d="M27.479 254.595c-.851 2.487-1.629 4.415-1.55 5.98.083 1.62.525 3.2.5 5.245-.018 1.757-.108 3.251-.311 5.24-.208 2.035 0 3 .9 3.81 1.45 1.32 5.772 3.364 7.82 4.058a8.248 8.248 0 0 0 3.585.482 16.005 16.005 0 0 0 4.805-.876c.442-.166.9-1.882.927-3.37.067-3.114-.215-2.852-1.5-7.788-.441-1.687-.8-3.3-1.4-5.265-.755-2.454-1.693-4.613-1.79-7.027l-9.122-.356z" fill="#111214"/><path data-name="Path 8012" d="M27.479 254.595c-.851 2.487-1.629 4.415-1.55 5.98.083 1.62.525 3.2.5 5.245-.018 1.757-.108 3.251-.311 5.24-.208 2.035 0 3 .9 3.81 1.45 1.32 5.772 3.364 7.82 4.058a8.248 8.248 0 0 0 3.585.482 16.005 16.005 0 0 0 4.805-.876c.4-.151.809-1.571.907-2.943h-.025c-2.788.95-5.493 1.331-8.172.023-5.653-2.762-4.918-5.056-4.386-11.574 3.678-.647 5.124-1.3 6.99-3.317-3.136.921-6.507 1.086-8.175-.829l-.518-5.187z"/><path data-name="Path 8013" d="M60.422 184.269c-3.813 18.019-4.778 30.733-2.344 57.407-3.508-.26-7.084-1.591-8.958-4.213-.594-15.359-1.555-27.487-1.121-35.891.363-7 .695-11.027 2.958-17.244-1.939-13.3-4.738-40.989-4.147-55.83l7.964-3.186c2.415 21.958 3.937 33.281 5.648 58.957z" fill="#00101a"/><path data-name="Path 8014" d="M52.178 147.904c-1.471 14.965-4.35 35.764-6.022 46.384-3.039 19.3-3.514 41.927-5.22 61.3-2.637 4.124-12.571 4.973-16.375-.157-.165-15.37-1.56-32.579-.891-40.967a53.019 53.019 0 0 1 4.155-17.372c-.382-11.978-6.632-61.188 1.624-70.844a7.246 7.246 0 0 1 1.554-2.186l12.028-.939 14.267-1.661a41.346 41.346 0 0 1-.1 16.944 2.659 2.659 0 0 1-.321.7 35.118 35.118 0 0 1-.546 3.046c-.214.936-2.499 3.549-4.153 5.752z" fill="#001e30"/><path data-name="Path 8015" d="M39.12 138.022c-1.637 3.792-2.9 10.153-2.978 16.512-.206 9.109-.883 30.644-1.748 40.894-1.695 20.1-5.524 36.844-2.492 63.529a9.782 9.782 0 0 1-7.341-3.523c-.165-15.37-1.56-32.579-.891-40.967a53.019 53.019 0 0 1 4.155-17.372c-.39-12.216-6.884-63.158 2.13-71.376l13.738-.94c-1.768 5.103-2.331 8.041-4.573 13.243z" fill="#001624"/><path data-name="Path 8016" d="M39.935 261.225c-2.64 2.081-1.716 2.992-5.569 3.494a21.615 21.615 0 0 0 3 7.51c.155 1.452.272 3.357 3.1 3.375 5.279.034 1.616-4.323 1.6-4.487a43.707 43.707 0 0 0-2.131-9.892z" fill="#20232e"/><path data-name="Path 8017" d="M71.499 117.527a37.281 37.281 0 0 1-9.942 6.983c-.015 6.812-.01 19.428.245 32.038.027 7.458.147 15.054.47 21.376q.017.461.03.922c-.634 5.249-3.094 8.211-3.4 16.1-.344 8.79.8 23.515 2.353 33.132a625.54 625.54 0 0 0-.043 12.623 8.273 8.273 0 0 0 5.589-2.31l.312-47.764c.3-7.611 1.473-19 2.414-30.724 1.992-14.001 3.927-30.241 1.972-42.376z" fill="#001e30"/><path data-name="Path 8018" d="M44.188 128.329l-.035.01a221.475 221.475 0 0 1-6.439 21.977c-1.754 15.194-1.307 31.773-1.519 43.488-1.581 21.431-3.372 42.907-4.442 64.365 1.951-.169 6.277-1.04 7.313-1.98 1.17-17.475.963-42.117 3.14-58.539.444-3.353 3.681-31.833 7.583-47.972 1.308-5.406 5.047-5.305 5.8-8.414 1.642-6.745 1.677-9.824 1-17.15-4.096 1.54-8.184 3.012-12.401 4.215z" fill="#00263d"/></g><path data-name="Path 8019" d="M72.14 113.712a2.189 2.189 0 0 1-.392.949c-4.411 6.147-32.084 15.412-37.874 14.931 4.594-39.96-37.254-73.977 7.584-87.15l12.9 7.1 4.616-.829.592-5.681c6.242 6.208 9.129 14.432 10.24 25.87 1.456 14.967-1.686 28.39 2.334 44.81z" fill="#78bfea" fill-rule="evenodd"/><path data-name="Path 8020" d="M62.525 32.757c4.8-.3 6.961.7 9.491 4.47 4.422 6.591 5.113 20.625 4.8 33.271-.177 7.165-1.311 13.464-1.4 22.366-.054 5.427.759 12.952 1.5 20.52.717 7.314 1.371 57.438 1.115 62.985-.969 2.089-7.815 5.6-8.718 5.42.49-6.272.783-56.511.871-64.576.069-6.413.009-13.2-.184-20.06-.425-15.035-1.478-30.417-4.287-41.836-4.12-16.751-11.222-18.565-10.491-20.826.148-.453 7.029-1.717 7.303-1.734z" fill="#d2eefc" fill-rule="evenodd"/><path data-name="Path 8021" d="M43.007 99.635c.188 2.6.247 4.964.2 7.142-6.9-6.291-13.391-14.338-19.445-23.05-3.1-8.722-5.907-17.471-5.848-23.675z" fill="#11101a" fill-rule="evenodd"/><path data-name="Path 8022" d="M59.362 39.462c7.528 5.978 12.359 28.052 12.223 42.931-.124 13.434-.086 23.381-.347 34.112-.157 6.459-.424 55.97-.9 63.931a18.435 18.435 0 0 0 6.916-4.4c-.251-5.976-.751-54.706-1.256-60.656-1.009-11.9-2.045-23.754-1.17-35.565 1.116-15.086 2.075-35.7-6.7-44.327-5.621-3.026-7.438 2.574-8.766 3.974z" fill="#e0f5ff" fill-rule="evenodd"/><g data-name="Group 4765" fill-rule="evenodd"><g data-name="Group 4763"><path data-name="Path 8023" d="M72.738 102.562c1.785-1.948 2.28-2.435 3.93-2.991l1.238 16.1c-.829 1.309-3.557 2.393-4.387 2.059z" fill="#d2eefc"/><path data-name="Path 8024" d="M72.738 102.562c1.785-1.948 2.28-2.435 3.93-2.991.178 4.572.281 4.427-1.072 6.034-2.417 2.871-1.492 3.065-1.569 12.244a1.7 1.7 0 0 1-.508-.121z" fill="#c3e6f7"/><path data-name="Path 8025" d="M76.807 104.975l-2.158 3.434.194 8.852a4.625 4.625 0 0 0 2.641-1.939z" fill="#e0f5ff"/></g><g data-name="Group 4764"><path data-name="Path 8026" d="M72.084 98.735c2-.88 2.815-1.68 4.32-2.2l.7 6.179c-.363 1.017-2.886 2.932-4.4 1.556z" fill="#d2eefc"/><path data-name="Path 8027" d="M72.084 98.735c2-.88 2.815-1.68 4.32-2.2-1.161 2.208-3.724 2.572-3.2 8.064a1.845 1.845 0 0 1-.506-.329z" fill="#c3e6f7"/><path data-name="Path 8028" d="M76.329 97.404a13.7 13.7 0 0 0-2.566 6.706c1.391-.1 1.83-.452 3-1.692-.05-1.656-.24-3.203-.434-5.014z" fill="#e0f5ff"/></g></g><path data-name="Path 8029" d="M51.762 125.177c-7.672 2.728-15.181 4.64-17.892 4.415 4.594-39.96-37.254-73.977 7.584-87.15l12.9 7.1 4.616-.829.592-5.681a30.2 30.2 0 0 1 6.425 9.468l-.37.406c-3.366-1.066-5.135-2.431-6.871-1.664-1.431.633-3.068 2.885-3.573 6.458-2.034-.509-5.913-1.969-7.929-2.545 7.473 11.145 14.444 35.1 9.213 60.107-.645 3.11-3.295 6.7-4.695 9.915z" fill="#06a7e0" fill-rule="evenodd"/><path data-name="Path 8030" d="M27.373 47.68c2.41-1.336 7.322-4.345 12.618-7.3-4.46 5.343 6.312 18.19 11.31 34.209 3.155 10.112 4.253 28.819 1.762 39.957-1.88 8.407-6.6 8.308-12.391 14.329-2.7 2.807-3.594 6.315-4.976 9.828-3.255 8.277 1.6 45.733.767 52.864-1.713-.394-12.1-4.793-13.827-8.5.9-14.614-.143-46.237 2.657-54.138 2.6-7.334 5.543-10.886 5.882-18.458.447-9.981-13.64-36.6-13.51-50.372.058-6.113 5.206-9.922 9.708-12.419z" fill="#d2eefc" fill-rule="evenodd"/><path data-name="Path 8031" d="M27.373 47.68l12.268-6.8c-1.831 2.936-6.713 6.085-11.977 10.529a24.048 24.048 0 0 1 6.8 12.008c2.771 10.956 7.008 25.374 7.736 35.392 1.311 18.051-4.611 24.984-8.624 33.259-1.935 3.989-.987 51.82-1.01 57.83-3.283-.467-9.155-5.139-9.97-6.817.531-12.9-1.917-44.259 3.692-56.656 2.295-5.072 4.393-8.761 4.886-15.949.683-9.968-13.64-36.6-13.51-50.372.059-6.118 5.207-9.927 9.709-12.424z" fill="#c3e6f7" fill-rule="evenodd"/><path data-name="Path 8032" d="M58.985 36.084c4.484 2.092 5.962 2.924 9.078 7.737l-2.722 1.893 3.787 1.6c1.364 13.9 2.8 29.359 1.126 43.449a174.714 174.714 0 0 0-6.5-39.405c-1.317-4.429-3.136-6.332-6.038-10.68-.476-.716.427-4.987 1.269-4.594z" fill="#ebf9ff" fill-rule="evenodd"/><g data-name="Group 4766" fill-rule="evenodd"><path data-name="Path 8033" d="M30.315 111.72c5.785 1.706 7.362 2.22 12.017 4.754l-6.826 12.923c-3.655.294-8.082-1.589-11.546-4.586z" fill="#d2eefc"/><path data-name="Path 8034" d="M30.315 111.72c5.785 1.706 7.362 2.22 12.017 4.754-2.067 3.843-1.715 3.916-6.172 2.725-7.963-2.128-5.845-.463-11.139 6.473-.233.305-.716-.563-1.061-.861z" fill="#c3e6f7"/><path data-name="Path 8035" d="M31.313 110.117c5.816 1.736 8.531 2.144 12.807 3.547l-2.911 5.079c-1.711.275-9.668-1.363-12.519-4.088z" fill="#d2eefc"/><path data-name="Path 8036" d="M31.313 110.117c5.816 1.736 8.531 2.144 12.807 3.547-4.674.161-11.552-2.594-14.378 1.812a7.373 7.373 0 0 1-1.052-.821z" fill="#c3e6f7"/><path data-name="Path 8037" d="M39.7 120.893l-7.593-1.23-5.294 6.2a26.16 26.16 0 0 0 7.849 3.1z" fill="#e0f5ff"/><path data-name="Path 8038" d="M43.262 114.178c-3.7-.091-8.9-.232-11.718 1.615a26.782 26.782 0 0 0 9.019 2.353 21.1 21.1 0 0 0 2.699-3.968z" fill="#e0f5ff"/></g><path data-name="Path 8039" d="M58.511 55.934c-.37 1.653-.6 3.057-.84 4.734 4.622 13.408 7.089 24.753 9.8 40.6.329-16.21-.477-28.514-3.991-45.39a10.827 10.827 0 0 0-3.178-1.119 5.117 5.117 0 0 0-1.08-.006z" fill="#041e2e" fill-rule="evenodd"/><path data-name="Path 8040" d="M37.344 45.897l-5.889 4.823c6.2 10.208 13.741 30.165 13.971 49.534.111 9.339-.622 17.764-5.745 26.274 17.015-6.151 14.326-31.067 9.3-50.082-3.419-12.932-9.302-22.292-11.637-30.549z" fill="#e0f5ff" fill-rule="evenodd"/><path data-name="Path 8041" d="M40.015 38.656a24.876 24.876 0 0 0-3.152 4.967c-1.759 4.274-1.535 10.965.579 18.365l4.3-1.6-2.075 4.687c8.648 11.3 13.488 28.134 14.158 45.42 5.62-44.933-15.395-56.116-13.81-71.839z" fill="#ebf9ff" fill-rule="evenodd"/><path data-name="Path 8042" d="M54.772 50.848c.754 3.151.869 3.1 3.8 5.326l1.9-1.006c.888-3.638.449-5.991-.279-6.421-2.542-.094-3.601.207-5.421 2.101z" fill="#041e2e" fill-rule="evenodd"/><g data-name="Group 4767" fill-rule="evenodd"><path data-name="Path 8043" d="M129.814 55.31l-32.521 17.8-25.095 49 33.471-19.927z" fill="#380303"/><path data-name="Path 8044" d="M129.814 55.31l2.591.682-23.574 45.322-3.162.865z" fill="#380303"/><path data-name="Path 8045" d="M129.409 56.415L97.756 73.777l-23.894 46.785 1.875.959 55.884-64.583z" fill="#e6e6e6"/><path data-name="Path 8046" d="M129.662 55.929l-31.91 17.848 4.957 2.934 29.161-20.263z" fill="#f5f5f5"/><path data-name="Path 8047" d="M132.395 55.981L99.662 74.344 74.78 122.778l33.471-19.927z" fill="#380303"/><path data-name="Path 8048" d="M114.178 86.162c3.485-.64 3.481-1.484 3.688-.3.3 1.728-2.1 8.132-5.443 10.564a16.419 16.419 0 0 1-3.507.573c-.992-.035-.931-.566-.4-1.958l2.381-6.174c.794-1.848 1.136-2.305 3.281-2.705z" fill="#ad7c5b"/></g><path data-name="Path 8049" d="M47.842 142.325c.561 1.366.129 8.411-6.053 5.29-4.928-2.488-7.027-2.917-8.7-5.6-1.233-1.971-.948-4.038-3.149-6.141l5.857-5.359c1.9 2.992 3.308 1.623 5.9 3.068 2.848 1.596 4.122 3.818 6.145 8.742z" fill="#ad7c5b" fill-rule="evenodd"/><g data-name="Group 4768" fill-rule="evenodd"><path data-name="Path 8050" d="M43.162 128.737c-.425 5.872-1.693 13.033-5.357 17.46l-.4 7.956c4.647.6 7.961-5.127 9.489-5.657 1.351-.469 5.027-9.515 3.976-14.659-.776-3.8-2.759-4.281-5.216-5.531a14.351 14.351 0 0 1-2.492.431z" fill="#00263d"/><path data-name="Path 8051" d="M42.262 128.472c-.425 5.872-2.524 12.873-6.187 17.3l1.755.955c5.039-4.759 6.444-13.373 5.808-18.51-.337.089-1.056.174-1.376.255z" fill="#001624"/></g><path data-name="Path 8052" d="M42.213 37.777c-.356 5.73 10.524 9.714 16.6 11.159-1.524 1.839-3.492 4.15-3.414 5.987-4.378-1.2-11.8-3.257-14.813-8.855a6.146 6.146 0 0 1 1.627-8.291z" fill="#06a7e0" fill-rule="evenodd"/><path data-name="Path 8053" d="M51.831 47.33a65.585 65.585 0 0 0 6.133 1.791c-1.3 1.568-2.978 3.539-2.911 5.106a22.711 22.711 0 0 1-5.662-2.364c-2.795-1.629-1.771-5.992 2.44-4.533z" fill="#06a7e0" fill-rule="evenodd"/><g data-name="Group 4769" fill-rule="evenodd"><path data-name="Path 8054" d="M59.932 43.848c.195-.554.422-1.1.64-1.692.621-1.688.642-5.259 1.717-9.212L46.71 26.153l-3.337-1.769a20.9 20.9 0 0 1-1.164 13.534c-.17 5.639 10.515 9.562 16.547 11 .539-1.356.574-3.367 1.176-5.07z" fill="#ad7c5b"/><path data-name="Path 8055" d="M43.633 41.538c5.654-2 10.073.485 17.4-1.472a57.017 57.017 0 0 1 1.26-7.122l-15.579-6.791-3.337-1.769a20.9 20.9 0 0 1-1.164 13.534 5.381 5.381 0 0 0 1.42 3.62z" fill="#8f6142"/></g><g data-name="Group 4770" fill-rule="evenodd"><path data-name="Path 8056" d="M31.673 140.522c3.759-2.238 5.134-5.042 6.35-8.438a13.171 13.171 0 0 1-2.488-2.206l-6.406 7.488a13.017 13.017 0 0 1 2.544 3.156z" fill="#78bfea"/><path data-name="Path 8057" d="M31.673 140.522a13.536 13.536 0 0 0 2.854-2.224c-.477-.437-.555-.566-1.022-1.016.954-.962 3.838-5.594 3.192-6.258l-7.568 6.342a13.017 13.017 0 0 1 2.544 3.156z" fill="#06a7e0"/><path data-name="Path 8058" d="M20.679 53.38a28.939 28.939 0 0 0-1.987 3.27c-4.9 9.493-10.035 28.579-11.179 40.275-.284 2.9-.94 4.443-.7 6.339.5 3.863 9.94-.927 13.62 1.6 3.548-7.738 5.45-15.625 14.758-32.188 3.332-5.924-4.158-23.965-14.512-19.296z" fill="#d2eefc"/><path data-name="Path 8059" d="M20.679 53.38a28.939 28.939 0 0 0-1.987 3.27c-4.9 9.493-10.035 28.579-11.179 40.275-.284 2.9-.94 4.443-.7 6.339.277 2.166 3.37 1.611 6.682 1.151-.666-1.687-.468-1.978.216-5.1 3.468-15.82 8.805-30.344 14.014-45.75-1.462-.961-2.881-2.3-4.849-1.828a6.769 6.769 0 0 0-2.197 1.643z" fill="#c3e6f7"/><path data-name="Path 8060" d="M9.742 95.862c-1.647 3-3.424 4.471-2.81 8.153.263 1.577 1.33 3.176 2.122 5.145 3.464 8.609 11.383 20.46 20.114 28.826 2.992.016 7.292-5.281 7.94-8.15-3.961-9.466-10.1-16.238-15.146-24.925a42.988 42.988 0 0 0-2.713-4.543z" fill="#d2eefc"/><path data-name="Path 8061" d="M9.742 95.867c-1.647 3-3.424 4.47-2.81 8.152.263 1.577 1.33 3.176 2.122 5.145 3.464 8.609 11.383 20.46 20.114 28.826 1.325.007 2.906-1.028 4.313-2.433-6.2-9.968-12.459-19.361-19.128-29.1-1.6-3.808-1.529-3.069-.638-7.137q.156-.71.316-1.415z" fill="#c3e6f7"/><path data-name="Path 8062" d="M35.448 133.2a10.525 10.525 0 0 0 1.66-3.36c-3.961-9.466-10.1-16.238-15.146-24.925a62.573 62.573 0 0 1-.863-1.54c3.159-7.294 5.383-15.195 14.1-30.7 2.139-3.807-.193-12.622-4.882-17.193-5.027 15.289-8.79 29.1-13.3 44.337-1.268 4.285-1.02 3.69 2.705 9.571 4.78 7.802 11.131 17.026 15.726 23.81z" fill="#e0f5ff"/></g><g data-name="Group 4774" fill-rule="evenodd"><g data-name="Group 4773"><path data-name="Path 8064" d="M54.694 40.686a43.593 43.593 0 0 0-8.186-3.784c-2.359-.723-1.954-3.575-4.2-8.369-3.767-1.678-5.253-3.315-5.978-5.363-1.72-4.86.028-10.834 3.246-14.56a13.555 13.555 0 0 1 11.019-4.7c4.561.064 8.57 1.318 11.126 3.808 2.044 1.991 4.747 8.03 4.452 10.973-.154 1.553-.651 2.329-.774 3.389-.289 2.489.792 2.042 1.111 3.914.49 2.876-.7 7.527-1.2 11.406a3.371 3.371 0 0 1-1.159 2.5c-2.226 1.982-4.5 3.6-6.568 2.319-1.285-.806-2.121-1.079-2.889-1.533z" fill="#ad7c5b"/><path data-name="Path 8065" d="M54.694 40.686a43.593 43.593 0 0 0-8.186-3.784c-2.359-.723-1.954-3.575-4.2-8.369-3.767-1.678-5.253-3.315-5.978-5.363-1.72-4.86.028-10.834 3.246-14.56a13.555 13.555 0 0 1 11.019-4.7c4.561.064 8.57 1.318 11.126 3.808a13.463 13.463 0 0 1 2.206 3.223c-2.69 4.8-5.982 5.8-12.049 5.984-1.876.058-2.661 1.765-2.044 3.514.632 1.785 2.589 3.419 2.633 4.334.067 1.4-2.229 2.6-1.644 4.61.331 1.134 4.135 2.22 4.316 3.891.35 3.229.1 3.675.8 5.986a5.744 5.744 0 0 0 4.46 3.035l.248.059a3.2 3.2 0 0 1-3.06-.135c-1.289-.806-2.125-1.079-2.893-1.533z" fill="#9e6d4c"/><path data-name="Path 8066" d="M62.962 8.931c-1.686 3.461-8.307 5.687-13.73 5.377-2.182-.124-3.149 1.7-3.052 3.8.1 2.178 1.046 3.286 1.333 5.181.231 1.528-.158 3.736-.274 6.127l-1.587.069c-2.481-3.366-3.058.034-3.309 1.9a14.117 14.117 0 0 1-3.311-1.931c-.636-.647.008-1.7-.931-1.964-2.386-.679-1.447-2.233-2.1-3.035-.422-.516-1.434-.907-1.793-1.586-.781-1.483.3-3.25.207-4.483a10.224 10.224 0 0 0-.759-2.413c-.241-.69-.7-1.1-.689-1.725.015-.744 1.29-2.6 1.724-3.309.281-.463.273-3.141.9-4.057.825-1.209 1.7-1.434 2.62-2.15 1.05-.815 1.638-2.12 3.448-2.965.821-.384 2.017-.089 2.862-.345S46.032.48 46.831.181c1.608-.6 3.5.555 4.654.689 1.092.128 2.75-.517 4.794-.069a29.074 29.074 0 0 1 3.172 1.242c1.077.364 2.03-.28 2.9 2.138.211.612.411 3.62.611 4.75z" fill="#22242b"/><path data-name="Path 8067" d="M62.962 8.931c-1.686 3.461-8.307 5.687-13.73 5.377-2.182-.124-3.149 1.7-3.052 3.8.1 2.178 1.046 3.286 1.333 5.181.231 1.528-.158 3.736-.274 6.127l-1.587.069c-2.481-3.366-3.058.034-3.309 1.9a14.117 14.117 0 0 1-3.311-1.931c-.636-.647.008-1.7-.931-1.964-2.386-.679-1.447-2.233-2.1-3.035-.422-.516-1.434-.907-1.793-1.586-.781-1.483.3-3.25.207-4.483a10.224 10.224 0 0 0-.759-2.413c-.241-.69-.7-1.1-.689-1.725.015-.744 1.29-2.6 1.724-3.309.207-.341.257-1.876.516-3.03.424 1.02 1.1.295 1.744 1.1s1.844-.174 2.345.034 1.139 1.012 1.621 1c1.513-.035 1.557-.212 1.9-.082a6.349 6.349 0 0 1 1.99 1.2 1.363 1.363 0 0 0 1.365-.086c.7-.8.951-1.3 2.078-1.231a3.483 3.483 0 0 0 2.192-.353c.976-.691 1.138-1.9 2.3-2.036.964-.118 2.313.49 3.034.137 1.075-.524 1.235-1.1 1.931-1.655.586-.469 1.488-.208 2-.586a6.228 6.228 0 0 0 1.047-1.365c.238-.305 1.432-.157 1.084-.872a4.923 4.923 0 0 1 .5 1.067c.224.612.424 3.62.624 4.75z" fill="#121212"/><path data-name="Path 8068" d="M42.168 23.162c-3.741-.853-3.328 3.321-2.5 5.792.568 1.7 1.988 1.418 2.652 2.736a3.3 3.3 0 0 0 3.22 2.055c2.192-.29.49-3.414.093-4.684.029-2.151-1.091-5.358-3.465-5.899z" fill="#9e6d4c"/></g><path data-name="Path 8069" d="M54.979 1.109c2.2-.118 2.467.83 3.07 1.132s2.784.3 1.887 1.434-2.577.9-2.96 1.2c-1.963 1.542-2.6 1.186-4.068.962a3.37 3.37 0 0 0-2.522.812 5.626 5.626 0 0 1-2.559.436c-1.861-.248-2.285-1-5.5-.72-1.175.1-3.441-.367-2.965-1.193.31-.536 1.259-1.076 1.332-1.292a3.212 3.212 0 0 1 1.434-1.576c.86-.329 2.1.349 2.772.127 2.124-.7 1.383-1.369 2.609-1.484 1.533-.146 2.17.568 3.017.657 2.994.313 2.252-.376 4.453-.495z" fill="#2b2e36"/></g></g></svg>