<svg xmlns="http://www.w3.org/2000/svg" width="329.634" height="398.411" viewBox="0 0 329.634 398.411"><g data-name="Group 4781" fill-rule="evenodd"><g data-name="Group 4779"><g data-name="Group 4776"><path data-name="Path 8070" d="M300.522 241.152l.091 18.131-4.775 1.537-.091-18.132z" fill="#b6ccd6"/><path data-name="Path 8071" d="M305.652 255.195c-5.662 3.27-10.229 11.186-10.211 17.694s4.618 9.142 10.277 5.873 10.237-11.2 10.218-17.707-4.619-9.13-10.284-5.86z" fill="#17667a"/><path data-name="Path 8072" d="M306.167 251.032c-3.7-.478-7.741 2.735-9.952 5.3-3.261 3.784-5.617 9.077-5.594 13.752.007 3.235 1.151 5.514 2.993 6.587l4.823 2.8a5.03 5.03 0 0 0 1.612.593c-6.236-3.821-.046-22.842 8.883-24.084 3.487-.485 5.282.408 6.6 2.052-.872-2.958-6.193-6.592-9.365-7z" fill="#248ca6"/><path data-name="Path 8073" d="M304.518 278.467l-1.307-.738.247-19.595-7.026-3.964.009 1.908a22.473 22.473 0 0 0-1.2 1.469l-.072-25.307 12.459 4.485z" fill="#cfe0e8"/><path data-name="Path 8074" d="M314.511 231.267l-.187 19.025c6.706 5.377 3.532 24.15-9.819 28.173l.284-8.35-.09-32.5z" fill="#b6ccd6"/></g><g data-name="Group 4777"><path data-name="Path 8075" d="M33.94 323.057l.091 18.132-4.776 1.538-.091-18.132z" fill="#b6ccd6"/><path data-name="Path 8076" d="M39.073 337.101c-5.663 3.269-10.23 11.186-10.212 17.693s4.618 9.142 10.278 5.872 10.237-11.2 10.218-17.706-4.621-9.13-10.284-5.859z" fill="#17667a"/><path data-name="Path 8077" d="M39.585 332.937c-3.7-.477-7.741 2.736-9.952 5.3-3.261 3.785-5.617 9.079-5.594 13.754.007 3.235 1.151 5.514 2.994 6.586l4.823 2.8a5.064 5.064 0 0 0 1.613.594c-6.237-3.821-.047-22.842 8.882-24.085 3.488-.485 5.282.408 6.6 2.052-.873-2.959-6.194-6.593-9.366-7.001z" fill="#248ca6"/><path data-name="Path 8078" d="M37.937 360.367l-1.307-.738.247-19.594-7.026-3.965.009 1.908-.227.258c-.334.389-.66.793-.973 1.212l-.072-25.308 12.458 4.486z" fill="#cfe0e8"/><path data-name="Path 8079" d="M47.93 313.173l-.188 19.024c6.707 5.377 3.532 24.15-9.819 28.173l.285-8.35-.091-32.5z" fill="#b6ccd6"/></g><g data-name="Group 4778"><path data-name="Path 8080" d="M96.473 359.396l.091 18.131-4.777 1.538-.09-18.132z" fill="#b6ccd6"/><path data-name="Path 8081" d="M101.599 373.439c-5.662 3.27-10.23 11.187-10.211 17.7s4.618 9.142 10.277 5.872 10.237-11.2 10.219-17.706-4.62-9.138-10.285-5.866z" fill="#17667a"/><path data-name="Path 8082" d="M102.114 369.276c-3.7-.477-7.741 2.736-9.952 5.3-3.261 3.785-5.617 9.078-5.594 13.753.006 3.236 1.152 5.515 2.993 6.587 1.441.837 5.127 3.213 6.433 3.393-6.236-3.822-.046-22.842 8.883-24.085 3.487-.485 5.282.407 6.6 2.052-.87-2.957-6.191-6.591-9.363-7z" fill="#248ca6"/><path data-name="Path 8083" d="M100.465 396.71l-1.307-.738.248-19.594-7.026-3.965.008 1.908a23.187 23.187 0 0 0-1.2 1.469l-.072-25.308 12.46 4.485z" fill="#cfe0e8"/><path data-name="Path 8084" d="M110.459 349.512l-.188 19.025c6.706 5.377 3.531 24.151-9.819 28.173l.284-8.35-.091-32.5z" fill="#b6ccd6"/></g></g><g data-name="Group 4780"><path data-name="Path 8085" d="M320.5 222.029c.008-2.928-.053-8.073-2.6-9.921-61.887 35.965-156.365 91.022-218.279 127a1.483 1.483 0 0 1 .261.195 2.37 2.37 0 0 1 .252.269l.005.006a3.8 3.8 0 0 1 .235.33l.009.013a4.458 4.458 0 0 1 .224.393l.019.036c.07.139.14.286.207.441l.016.035c.067.158.133.325.2.5l.007.02c.064.176.125.359.184.549l.015.045c.054.176.107.361.157.55.013.051.027.1.04.158.041.154.079.315.116.477l.037.154c.046.216.091.437.134.662.01.052.017.106.027.157a18.198 18.198 0 0 1 .141.887c.02.14.04.279.058.422s.03.273.045.41.029.26.041.391c.015.163.027.33.04.5.008.115.018.23.025.348.013.211.022.425.03.64 0 .079.008.157.011.237q.012.431.012.865c61.972-36.019 156.093-90.6 218.331-126.769z" fill="#cfe0e8"/><path data-name="Path 8086" d="M250.246 173.139a.393.393 0 0 1 .067 0 .466.466 0 0 1 .052 0 .805.805 0 0 1 .322.1l-.011-.006h-.005.006-.009c-.067-.038-.148-.079-.211-.113l-.076-.034c-.021-.01-.039-.019-.059-.027l-.087-.039a3.232 3.232 0 0 0-.209-.08l.044.015-.053-.018h-.008l-.024-.008h-.011l-.17-.056-.211-.054s-.061-.014-.144-.03l-.066-.013-.064-.01h-.012l-.039-.006-.093-.015-.209-.022-.208-.014h-.208c-.061 0-.145 0-.208.005l-.207.014c-.063 0-.145.016-.208.024h.023-.07l-.07.011-.038.006-.053.008-.213.045-.209.055a2.8 2.8 0 0 0-.111.036h-.009l-.076.025h.007l-.033.012-.213.082c-.1.041-.143.062-.219.1l-.02.009-.222.12a.846.846 0 0 1 .318-.1h.011a.151.151 0 0 1 .03 0 .146.146 0 0 1 .029 0 .162.162 0 0 1 .031 0h.05a.894.894 0 0 1 .234.037c.01 0 .02.008.03.012a.983.983 0 0 1 .143.063 2.816 2.816 0 0 1 2.549 0 1.018 1.018 0 0 1 .164-.071.767.767 0 0 1 .256-.063z" fill="#ede8e8"/><path data-name="Path 8087" d="M249.325 172.751h-.009l.057.008z" fill="#8d8a89"/><path data-name="Path 8089" d="M247.109 172.919h-.006l.064-.021z" fill="#8d8a89"/><path data-name="Path 8090" d="M322.073 221.867a2.89 2.89 0 0 1-1.579 2.209c0 1.374-.257 5.888-1.715 6.735.1-.06.166-.1.228-.145l.034-.024c2.456-1.708 2.981-5.925 3.03-8.715v-.011c.002-.013.002-.03.002-.049z" fill="#b6ccd6"/><path data-name="Path 8091" d="M318.814 210.847l-3.116-1.8c-19.741-11.4-45.269-24.419-65.012-35.812l-.007-.005c-.033-.018-.065-.034-.1-.049s-.059-.022-.089-.03H250.476a.795.795 0 0 0-.072-.016.5.5 0 0 0-.081-.009.424.424 0 0 0-.05 0h-.031a.6.6 0 0 0-.088.009.687.687 0 0 0-.089.02h-.011l-.023.008a.975.975 0 0 0-.093.033 1.406 1.406 0 0 0-.116.059l68.126 37.612a.822.822 0 0 1 .866-.02z" fill="#b6ccd6"/><path data-name="Path 8092" d="M322.073 219.276l-.029-.7c-.013-.222-.039-.517-.057-.739a16.747 16.747 0 0 0-.563-3l-.01-.03a8.6 8.6 0 0 0-1.311-2.783l-.049-.069a4.2 4.2 0 0 0-1.173-1.07.812.812 0 0 0-.931-.013 1.445 1.445 0 0 1 .231.162c.461.4.241.8-.375 1.159 1.509.87 2.234 4.71 2.407 5.92a.408.408 0 0 1 .008.045 27.828 27.828 0 0 1 .279 3.876c.032-.019.052-.04.084-.06l-.011.016a4.229 4.229 0 0 0 .353-.259 2.565 2.565 0 0 0 1.1-1.515c0-.014.009-.027.012-.041v.006-.024a5 5 0 0 0 .035-.881z" fill="#b6ccd6"/><path data-name="Path 8093" d="M322.073 219.346v.361-.18-.181z" fill="#9d9a97"/><path data-name="Path 8094" d="M247.273 173.259a.834.834 0 0 0-.878-.015l-5 2.9L38.046 294.207l-9.987 5.8a.83.83 0 0 1 .873.031z" fill="#e8f3f7"/><path data-name="Path 8095" d="M317.95 210.867a.78.78 0 0 1 0 1.476c-61.756 35.889-156.6 90.891-218.338 126.768a2.8 2.8 0 0 1-2.542 0c-20.779-12-47.349-25.614-68.128-37.61a.778.778 0 0 1-.009-1.473c61.756-35.888 156.6-90.891 218.338-126.768a2.816 2.816 0 0 1 2.549 0c20.781 11.992 47.353 25.607 68.13 37.607z" fill="#dceaf0"/><path data-name="Path 8096" d="M28.946 301.5a.778.778 0 0 1-.009-1.473.3.3 0 0 0-.032-.014.845.845 0 0 0-.849 0 3.6 3.6 0 0 0-.337.224l-.062.045c-.1.078-.194.157-.286.238l-.051.044a.598.598 0 0 0-.034.032l-.223.228-.021.026a9.231 9.231 0 0 0-1.764 3.684c-1.366 5.013-.233 12.044 1.384 14.175a4.317 4.317 0 0 0 1.365 1.268c-1.597-2.02-1.447-16.648.919-18.477z" fill="#c4d9e3"/><path data-name="Path 8097" d="M102.156 350.847c0 1.541-.25 5.879-1.713 6.734l9.986-5.8c55.051-31.992 143.253-83.272 198.364-115.159l9.987-5.805c1.466-.857 1.7-5.217 1.714-6.678v-.056z" fill="#b6ccd6"/><path data-name="Path 8098" d="M94.52 352.135c-.02-.414-.03-.844-.029-1.288l-68.128-37.611a13.87 13.87 0 0 0 .992 5.947 1.933 1.933 0 0 0 .675.791l6.235 3.6c10.389 6 26.569 13.617 36.958 19.616l6.233 3.6 6.235 3.6 6.233 3.6 6.234 3.6c-.859-.499-1.498-2.566-1.638-5.455z" fill="#cfe0e8"/><path data-name="Path 8099" d="M102.163 348.797l-.007 2.05 219.163-127.1c.41-.238.626-1.064.717-1.522a1.688 1.688 0 0 0 .036-.311v-2.099a1.829 1.829 0 0 1-.093.559c-.006.018-.009.039-.017.059a2.287 2.287 0 0 1-.258.506l-.061.089a3.277 3.277 0 0 1-.953.8z" fill="#b6ccd6"/><path data-name="Path 8100" d="M94.497 348.797l-.006 2.05-68.128-37.61.007-2.05z" fill="#cfe0e8"/><path data-name="Path 8101" d="M102.156 350.904v-.058a8.577 8.577 0 0 1-7.665 0c-.01 3.554.686 6.171 1.667 6.739l.012.006h.009a4.416 4.416 0 0 0 4.041.1c.067-.036.156-.083.222-.12 1.386-.804 1.705-4.683 1.714-6.667z" fill="#dfebf0"/><path data-name="Path 8102" d="M102.156 350.847l.007-2.05a8.506 8.506 0 0 1-7.666 0l-.1.97.1 1.08a8.47 8.47 0 0 0 7.659 0z" fill="#dfebf0"/><path data-name="Path 8103" d="M94.558 347.061c.036-.548.089-1.087.154-1.61l.02-.141c.033-.25.069-.5.109-.741.015-.1.032-.189.049-.284a19.688 19.688 0 0 1 .162-.835c.071-.332.147-.654.23-.958.019-.075.042-.146.062-.219l.135-.45c.035-.111.073-.218.109-.324l.074-.21c.061-.161.122-.317.186-.465l.022-.051c.065-.146.13-.286.2-.416l.016-.033c.075-.143.151-.275.229-.4l.008-.013a4.14 4.14 0 0 1 .227-.32l.024-.028a2.427 2.427 0 0 1 .2-.214 1.772 1.772 0 0 1 .3-.24l-.352-.2-.808-.467-.486-.281-2.44-1.408h-.009l-5.486-3.168c-.121-.069-.244-.14-.366-.212l-1.307-.754-1.554-.9-2.534-1.463-1.695-.979c-15.1-8.719-35.981-19.075-51.091-27.775-2 1.168-2.572 7.524-2.575 9.686l68.126 37.611c0-.573.022-1.143.058-1.7 0-.016.002-.027.003-.038z" fill="#dfebf0"/><path data-name="Path 8104" d="M102.163 348.797c0-3.11-.533-8.21-2.461-9.63l-.041-.025-.048-.031a2.837 2.837 0 0 1-2.542 0c-2.5 1.369-2.811 8.868-2.577 9.687a8.485 8.485 0 0 0 7.669-.001z" fill="#e8f3f7"/></g></g><g data-name="Group 4801" fill-rule="evenodd"><g data-name="Group 4800"><g data-name="Group 4784"><g data-name="Group 4782"><path data-name="Path 8105" d="M204.853 219.767l-18.292 12.555-3.416-1.983.005-2.2 22.006-10.607 20.277 9.5v2.183l-3.419 2z" fill="#17667a"/><path data-name="Path 8106" d="M205.273 221.576l-18.78 10.778v-3.969l15.354-8.788-16.613-9.583v-2.209l2-.433 18.038 10.24 18.101-10.245 1.6.434v2.328l-16.292 9.463 13.294 7.658.006 1.471-.006 2.49z" fill="#17667a"/><path data-name="Path 8107" d="M205.166 219.316l-18.686 10.859c-1.069-.656-2.2-1.348-3.329-2.033l18.589-10.8-16.514-9.534 3.42-1.986 16.515 9.535 16.417-9.54 3.128 1.819c.1.056.191.111.288.165l-16.406 9.534 16.858 9.733-3.454 1.967z" fill="#1c768c"/></g><g data-name="Group 4783"><path data-name="Path 8108" d="M202.707 38.792l-.014 178.376h.015a1.17 1.17 0 0 0 .7 1.008 3.719 3.719 0 0 0 3.37 0 1.279 1.279 0 0 0 .674-.812l.015-178.56z" fill="#17667a"/><path data-name="Path 8109" d="M206.873 39.699a1.083 1.083 0 0 1-.1.071 3.007 3.007 0 0 1-.791.3v178.411a2.861 2.861 0 0 0 .791-.3l.1-.06z" fill="#1b9ebf"/><path data-name="Path 8110" d="M204.767 40.159a3.182 3.182 0 0 1-1.422-.426v178.406l.063.037a3.269 3.269 0 0 0 1.359.391z" fill="#1e7e96"/><path data-name="Path 8111" d="M206.762 37.825a3.7 3.7 0 0 0-3.362 0 1.027 1.027 0 0 0 .008 1.945 3.713 3.713 0 0 0 3.37 0 1.027 1.027 0 0 0-.016-1.945z" fill="#666"/></g></g><g data-name="Group 4799"><g data-name="Group 4788"><path data-name="Path 8112" d="M193.103 3.658c.673.387 1.331.761 1.99 1.135 1.639.93 3.278 1.86 4.882 2.839 1.934 1.179 2.717 2.5 2.741 3.671a2.754 2.754 0 0 1-.469 1.592 3.594 3.594 0 0 1-1.23 1.121 5.271 5.271 0 0 1-5.061-.066 307.288 307.288 0 0 1-4.811-2.668c-1.342-.762-2.622-1.513-3.477-2.068-1.119-.725-.415-1.766.8-.988.819.525 2.031 1.233 3.3 1.957a299.394 299.394 0 0 0 4.791 2.657 3.993 3.993 0 0 0 3.831.077 2.313 2.313 0 0 0 .8-.721 1.514 1.514 0 0 0 .261-.869c-.017-.772-.625-1.694-2.137-2.615-1.6-.975-3.223-1.9-4.847-2.82-.663-.376-1.327-.753-1.972-1.123-1.159-.667-.5-1.748.608-1.111z" fill="#1e7e96"/><g data-name="Group 4786"><path data-name="Path 8113" d="M190.421 25.919l-.01 3.33h.01a.772.772 0 0 0 .461.664 2.452 2.452 0 0 0 2.222 0 .836.836 0 0 0 .444-.536l.01-3.449z" fill="#9cd0e6"/><g data-name="Group 4785"><path data-name="Path 8114" d="M186.103 23.236a2.264 2.264 0 0 0 1.046 1.527 2.416 2.416 0 0 0 .786 1.653 3.73 3.73 0 0 1-1.832-3.18z" fill="#69b9db"/><path data-name="Path 8115" d="M200.235 30.025l.5-.292a1.142 1.142 0 0 0 .655-.982 2.982 2.982 0 0 1-.031.429c0 .024 0 .047-.008.062l-.008.062-.014.068a.835.835 0 0 1-.024.108l-.009.046-.008.031a2.229 2.229 0 0 1-.073.238.131.131 0 0 1-.01.03.16.16 0 0 1-.014.039l-.041.1-.049.115a.659.659 0 0 1-.037.069v.016c-.014.023-.026.053-.04.076l-.025.047a2.492 2.492 0 0 1-.259.376l-.01.007-.159.177a1.9 1.9 0 0 1-.291.246c-.01.007-.022.022-.032.031-.06.038-.141.084-.2.122l-.5.292a1.643 1.643 0 0 0 .687-1.513z" fill="#73c0e1"/><path data-name="Path 8116" d="M195.873 29.419a2.387 2.387 0 0 0 .8 2.043q-4.363-2.532-8.74-5.046a1.441 1.441 0 0 1-.209-.161 2.35 2.35 0 0 1-.619-1.763z" fill="#70bfe0"/><path data-name="Path 8117" d="M195.873 29.795a.374.374 0 0 0 .035.03 6.01 6.01 0 0 0 1.035.369l.19.046c.133.031.268.062.4.085a.349.349 0 0 1 .09.016c.031 0 .062.007.093.007.163.023.326.046.487.054h.12c.091.007.179 0 .266 0h.165c.048-.008.1-.008.144-.016h.011l.23-.023c.036-.007.073-.007.109-.015s.062-.007.092-.015.044-.008.065-.015c.089-.016.172-.039.256-.063a.027.027 0 0 1 .022-.007.083.083 0 0 1 .042-.008.085.085 0 0 1 .039-.015c.012-.008.026-.008.039-.015s.023-.008.035-.008.013-.008.019-.008a1.888 1.888 0 0 0 .37-.169 1.643 1.643 0 0 1-.693 1.513l-.093.055-.215.1-.074.023-.06.023c-.091.03-.182.062-.261.085h-.025c-.047.015-.089.015-.134.031l-.072.007c-.01 0-.022.008-.031.008a3.343 3.343 0 0 1-.359.023l-.057-.008h-.01l-.166-.008h-.076l-.066-.015a.491.491 0 0 1-.1-.015l-.059-.008c-.019-.007-.042-.007-.062-.015a.285.285 0 0 0-.082-.016c-.063-.022-.126-.039-.18-.054a2.179 2.179 0 0 1-.4-.153.281.281 0 0 1-.084-.039c-.059-.031-.138-.069-.2-.1a1.467 1.467 0 0 1-.147-.107v-.008c-.006 0-.012-.009-.018-.015l-.028-.024a.234.234 0 0 0-.021-.023l-.012-.008c0-.008-.008-.008-.012-.015s-.011-.008-.017-.016l-.021-.022c0-.008-.008-.008-.011-.016s-.022-.031-.034-.046-.027-.03-.04-.047-.018-.022-.027-.038c0-.007-.006-.007-.007-.015l-.016-.023-.01-.008v-.007l-.014-.023-.01-.023a.18.18 0 0 1-.023-.038.113.113 0 0 0-.018-.031c-.005-.008-.01-.024-.015-.031a.293.293 0 0 1-.017-.039s-.006-.007-.008-.015v.008-.008l-.026-.061a.436.436 0 0 1-.031-.07v-.007l-.005-.016v-.007s-.006-.008-.008-.016c-.006-.015-.009-.03-.015-.046l-.016-.045-.027-.085c0-.008-.006-.023-.01-.039l-.024-.1-.009-.031-.026-.123c0-.015-.006-.031-.009-.046-.005-.023-.007-.054-.011-.085s-.011-.054-.014-.084v-.107.007-.022a.066.066 0 0 0-.008-.032z" fill="#73c0e1"/><path data-name="Path 8118" d="M187.508 13.967l-.031 11a2.417 2.417 0 0 1-1.374-1.713q0-4.811.021-9.621l.626.135z" fill="#69b9db"/><path data-name="Path 8119" d="M195.879 29.818c0-4.464.025-8.947.043-13.425l4.346 2.112-.033 11.52a4.555 4.555 0 0 1-4.356-.207z" fill="#73c0e1"/><path data-name="Path 8120" d="M201.417 19.067l-.027 9.688c0 .7-.628 1.037-1.155 1.274l.033-11.52z" fill="#73c0e1"/><path data-name="Path 8121" d="M187.136 13.874l-.031 10.968 8.774 5.072.039-13.523-.961-.466z" fill="#70bfe0"/></g><path data-name="Path 8122" d="M191.385 11.311q4 2.321 8 4.621c.149.085.18.108.307.192a3.941 3.941 0 0 1 1.722 3.1c0 .469-.637.98-1.156 1.283a4.964 4.964 0 0 1-4.356-.206c-.952-.542-7.31-3.959-8.736-5.048a2.987 2.987 0 0 1-1.024-1.32 2.687 2.687 0 0 1 .094-1.04 2.978 2.978 0 0 1 .773-1.348 4.162 4.162 0 0 1 1.9-.912 2.9 2.9 0 0 1 1.259.091 4.832 4.832 0 0 1 1.217.587z" fill="#7ac4e3"/></g><g data-name="Group 4787"><path data-name="Path 8123" d="M186.161 3.143a2.855 2.855 0 0 0 1.372 1.744l-.055 19.817c0 .452.114 1.446.457 1.712a3.728 3.728 0 0 1-1.831-3.151v-.029c-.001-6.697.039-13.396.057-20.093z" fill="#cee6f0" opacity=".5"/><path data-name="Path 8124" d="M188.555.117c.01 0 .019-.008.03-.008-.056.016-.111.031-.159.046z" fill="#979493" opacity=".5"/><path data-name="Path 8126" d="M189.706.025a.019.019 0 0 0 .018.008c-.015 0-.031-.008-.043-.008z" fill="#979493" opacity=".5"/><path data-name="Path 8127" d="M187.494.644a2.98 2.98 0 0 1 3.384-.212 1.9 1.9 0 0 0-1.686.369 1.96 1.96 0 0 0-1.698-.157z" fill="#f0fbff" opacity=".5"/><path data-name="Path 8128" d="M187.559.612a1.664 1.664 0 0 1 1.633.189c-1.2.7-1.934 2.809-1.988 3.889a2.987 2.987 0 0 1-1.031-1.323 2.918 2.918 0 0 1 1.383-2.754z" fill="#ebf9ff" opacity=".5"/><path data-name="Path 8129" d="M187.202 4.656c.131-1.68 1-3.416 1.99-3.855l8.741 5.054a5.142 5.142 0 0 0-2 3.87c-.269-.143-2.938-1.689-5.274-3.019a31.669 31.669 0 0 1-3.457-2.05z" fill="#ebf9ff" opacity=".5"/><path data-name="Path 8130" d="M201.448 8.658q-.031 10.045-.058 20.093v.036a3.122 3.122 0 0 1-2.782 3.074c-.01 0-.022.008-.031.008a3.133 3.133 0 0 1-1.9-.407 2.183 2.183 0 0 1-.794-1.732c0-6.652.057-13.352.057-20 .723.674 4.821 1.203 5.508-1.072z" fill="#e2f4fc" opacity=".5"/><path data-name="Path 8131" d="M195.935 9.733c-.052-.97.789-3.36 2-3.878a4.735 4.735 0 0 1 2.359 4.086 4.966 4.966 0 0 1-4.359-.208z" fill="#ebf9ff" opacity=".5"/><path data-name="Path 8132" d="M197.933 5.855a1.6 1.6 0 0 1 1.6-.415 3.748 3.748 0 0 1 1.913 3.218c0 .469-.638.98-1.156 1.283a5.229 5.229 0 0 0-2.357-4.086z" fill="#f0fbff" opacity=".5"/><path data-name="Path 8133" d="M190.873.432q4.362 2.533 8.74 5.046a2.153 2.153 0 0 0-1.685.377L189.187.801c.425-.267 1.086-.669 1.686-.369z" fill="#f0fbff" opacity=".5"/><path data-name="Path 8134" d="M195.879 29.712l.057-19.979-.018-.011-8.525-4.927c.047.033.1.063.14.092l-.055 19.814v.271l.011.006a2.389 2.389 0 0 0 .447 1.438l-.018-.011.017.011q4.38 2.5 8.74 5.046a2.16 2.16 0 0 1-.793-1.727z" fill="#dcf1fa" opacity=".5"/></g><path data-name="Path 8135" d="M201.447 8.754a3.721 3.721 0 0 1 1.269 2.549 2.754 2.754 0 0 1-.469 1.592 3.594 3.594 0 0 1-1.23 1.121 5.271 5.271 0 0 1-5.061-.066 307.288 307.288 0 0 1-4.811-2.668c-1.342-.762-2.622-1.513-3.477-2.068-1.119-.725-.415-1.766.8-.988.819.525 2.031 1.233 3.3 1.957a299.394 299.394 0 0 0 4.791 2.657 3.993 3.993 0 0 0 3.831.077 2.313 2.313 0 0 0 .8-.721 1.514 1.514 0 0 0 .261-.869 1.481 1.481 0 0 0-.013-.165z" fill="#1e7e96"/></g><g data-name="Group 4789"><path data-name="Path 8136" d="M206.537 29.325c-.007-.006-.159-.085-.182-.1a2.791 2.791 0 0 0-1.634-.152 2.559 2.559 0 0 0-.635.247.29.29 0 0 1 .281.011 2.078 2.078 0 0 1 1.893 0 .3.3 0 0 1 .277-.006z" fill="#e2f4fc"/><path data-name="Path 8137" d="M206.204 29.167h.013z" fill="#27323a"/><path data-name="Path 8138" d="M195.673 34.39l8.7-5.054a.243.243 0 0 0-.281-.011q-4.345 2.538-8.707 5.057a.339.339 0 0 1 .288.008z" fill="#e2f4fc"/><path data-name="Path 8139" d="M195.135 37.1v-.261a1.053 1.053 0 0 1-.621-.869v.262c0 .079 0 .151.012.225a1.8 1.8 0 0 0 .545 1.145 2.063 2.063 0 0 0 .323.236.852.852 0 0 1-.259-.738z" fill="#dceaf0"/><path data-name="Path 8140" d="M195.678 35.488a.581.581 0 0 1-.006-1.1.258.258 0 0 0-.236-.034.407.407 0 0 0-.1.055 1.758 1.758 0 0 0-.5.479 1.967 1.967 0 0 0-.318 1.08 1.053 1.053 0 0 0 .621.869 2.028 2.028 0 0 1 .539-1.349z" fill="#dceaf0"/><path data-name="Path 8141" d="M218.427 36.186q-5.952-3.418-11.89-6.861a.249.249 0 0 0-.277.011l11.873 6.854a.308.308 0 0 1 .294-.004z" fill="#e2f4fc"/><path data-name="Path 8142" d="M219.291 37.786c0 .371-.346.67-.612.853 0 .259.015.841-.265 1a1.854 1.854 0 0 0 .877-1.853z" fill="#dcf1fa"/><path data-name="Path 8143" d="M219.061 36.839a1.916 1.916 0 0 0-.634-.655.26.26 0 0 0-.294.006.6.6 0 0 1 .007 1.1 1.083 1.083 0 0 1 .381.53 2.36 2.36 0 0 1 .158.821.648.648 0 0 0 .153-.1 1.041 1.041 0 0 0 .429-.556 1.785 1.785 0 0 0-.2-1.146z" fill="#dcf1fa"/><path data-name="Path 8144" d="M209.983 43.694c0 .236.018.861-.264 1 2.9-1.691 5.8-3.365 8.695-5.055.28-.136.291-.742.265-1z" fill="#b6ccd6"/><path data-name="Path 8145" d="M207.008 43.956v-.294l-11.873-6.823v.261a.852.852 0 0 0 .259.738l11.873 6.855c-.157-.089-.26-.361-.259-.737z" fill="#dceaf0"/><path data-name="Path 8146" d="M209.983 43.694l8.7-5.055c0-.433-.112-1.147-.536-1.351-.212.031-7.944 4.616-8.7 5.056.373.209.539.955.536 1.35z" fill="#b6ccd6"/><path data-name="Path 8147" d="M209.983 43.694a3.288 3.288 0 0 1-2.974 0v.262c0 .376.1.648.259.737a2.427 2.427 0 0 0 1.219.3 2.485 2.485 0 0 0 1.241-.3c.295-.192.264-.708.255-.999z" fill="#cfe0e8"/><path data-name="Path 8148" d="M209.983 43.694c0-.422-.146-1.159-.539-1.35a2.116 2.116 0 0 1-1.893 0c-.509.22-.539 1-.542 1.35a2.943 2.943 0 0 0 1.48.371 3.23 3.23 0 0 0 1.494-.371z" fill="#cfe0e8"/><path data-name="Path 8149" d="M207.551 42.344l-11.873-6.856c-.418.207-.54 1.012-.542 1.351l11.873 6.855c.001-.353.175-1.183.542-1.35z" fill="#dceaf0"/><path data-name="Path 8150" d="M218.133 36.19a.58.58 0 0 1 .007 1.1l-8.7 5.056a2.116 2.116 0 0 1-1.893 0q-5.937-3.431-11.873-6.856a.581.581 0 0 1-.006-1.1l8.7-5.054a2.078 2.078 0 0 1 1.893 0q5.936 3.431 11.872 6.854z" fill="#ebf9ff"/></g><g data-name="Group 4790"><path data-name="Path 8151" d="M206.473 20.847a6.45 6.45 0 0 0-.258-.134 3.958 3.958 0 0 0-2.32-.215 3.681 3.681 0 0 0-.9.349.418.418 0 0 1 .4.015 2.951 2.951 0 0 1 2.686 0 .431.431 0 0 1 .392-.015z" fill="#e2f4fc"/><path data-name="Path 8152" d="M206.001 20.625l.017.006z" fill="#27323a"/><path data-name="Path 8153" d="M191.057 28.034l12.339-7.172a.35.35 0 0 0-.4-.015q-6.168 3.6-12.356 7.176a.488.488 0 0 1 .417.011z" fill="#e8f3f7"/><path data-name="Path 8154" d="M190.295 31.88v-.371a1.5 1.5 0 0 1-.88-1.232v.371c0 .111.007.215.017.319a2.562 2.562 0 0 0 .772 1.627 3 3 0 0 0 .46.333 1.2 1.2 0 0 1-.369-1.047z" fill="#e8f3f7"/><path data-name="Path 8155" d="M191.066 29.593a.824.824 0 0 1-.009-1.559.371.371 0 0 0-.334-.048.544.544 0 0 0-.145.078 2.48 2.48 0 0 0-.71.681 2.775 2.775 0 0 0-.452 1.532 1.5 1.5 0 0 0 .88 1.232 2.885 2.885 0 0 1 .77-1.916z" fill="#e8f3f7"/><path data-name="Path 8156" d="M223.346 30.582q-8.446-4.849-16.871-9.735a.358.358 0 0 0-.393.015l16.847 9.726a.438.438 0 0 1 .417-.006z" fill="#e2f4fc"/><path data-name="Path 8157" d="M224.573 32.853c0 .527-.489.95-.867 1.211 0 .368.021 1.193-.376 1.418a2.633 2.633 0 0 0 1.243-2.629z" fill="#e2f4fc"/><path data-name="Path 8158" d="M224.245 31.509a2.729 2.729 0 0 0-.9-.929.37.37 0 0 0-.416.008.848.848 0 0 1 .008 1.56 1.529 1.529 0 0 1 .542.75 3.355 3.355 0 0 1 .225 1.166.923.923 0 0 0 .217-.142 1.487 1.487 0 0 0 .609-.789 2.547 2.547 0 0 0-.285-1.624z" fill="#e2f4fc"/><path data-name="Path 8159" d="M211.364 41.236c0 .335.026 1.221-.375 1.418 4.108-2.4 8.23-4.774 12.339-7.172.4-.194.413-1.053.376-1.418z" fill="#cfe0e8"/><path data-name="Path 8160" d="M207.143 41.607v-.371l-16.847-9.727v.371a1.2 1.2 0 0 0 .369 1.047l16.847 9.727c-.224-.126-.371-.512-.369-1.047z" fill="#e8f3f7"/><path data-name="Path 8161" d="M211.364 41.236l12.34-7.172c0-.614-.159-1.627-.762-1.916-.3.041-11.27 6.549-12.343 7.172.533.297.774 1.356.765 1.916z" fill="#cfe0e8"/><path data-name="Path 8162" d="M211.364 41.236a4.66 4.66 0 0 1-4.221 0v.371c0 .535.145.921.368 1.047a3.455 3.455 0 0 0 1.729.429 3.529 3.529 0 0 0 1.762-.429c.419-.272.371-1.006.362-1.418z" fill="#dceaf0"/><path data-name="Path 8163" d="M211.364 41.236c0-.6-.206-1.643-.765-1.916a3 3 0 0 1-2.687 0c-.72.313-.763 1.425-.769 1.916a4.175 4.175 0 0 0 2.1.527 4.563 4.563 0 0 0 2.121-.527z" fill="#dceaf0"/><path data-name="Path 8164" d="M207.912 39.32l-16.846-9.727c-.592.294-.767 1.435-.77 1.916l16.847 9.727c.003-.501.249-1.679.769-1.916z" fill="#e8f3f7"/><path data-name="Path 8165" d="M222.929 30.588a.825.825 0 0 1 .008 1.56l-12.338 7.172a3 3 0 0 1-2.687 0q-8.423-4.866-16.846-9.727a.824.824 0 0 1-.009-1.559l12.339-7.172a2.951 2.951 0 0 1 2.686 0q8.424 4.868 16.847 9.726z" fill="#f4fafc"/></g><g data-name="Group 4791"><path data-name="Path 8166" d="M211.619 18.067l-.055 14.967a.463.463 0 0 0 .275.383 1.537 1.537 0 0 0 .775.159.823.823 0 0 0 .817-.528v-.01l.055-14.966z" fill="#17667a"/><path data-name="Path 8167" d="M213.254 18.425l-.039.028a1.1 1.1 0 0 1-.184.082c-.023 0-.047.014-.07.018a.551.551 0 0 1-.057.017v14.961a.734.734 0 0 0 .348-.188z" fill="#1b9ebf"/><path data-name="Path 8168" d="M212.426 18.605h-.061c-.051-.01-.1-.015-.15-.029h-.026a1.327 1.327 0 0 1-.131-.038c-.006 0-.015 0-.022-.01a1.092 1.092 0 0 1-.142-.067l-.025-.015v15a1.33 1.33 0 0 0 .557.142z" fill="#1e7e96"/><path data-name="Path 8169" d="M213.209 17.691a1.442 1.442 0 0 0-1.318 0 .4.4 0 0 0 0 .762 1.457 1.457 0 0 0 1.321 0 .4.4 0 0 0-.003-.762z" fill="#666"/></g><g data-name="Group 4792"><path data-name="Path 8170" d="M200.324 11.516l-.055 14.966a.468.468 0 0 0 .275.384 1.534 1.534 0 0 0 .775.158.819.819 0 0 0 .817-.528v-.009l.055-14.967z" fill="#17667a"/><path data-name="Path 8171" d="M201.959 11.867a.335.335 0 0 1-.038.028 1.094 1.094 0 0 1-.185.082c-.023 0-.046.015-.07.019l-.056.017v14.96a.716.716 0 0 0 .347-.188z" fill="#1b9ebf"/><path data-name="Path 8172" d="M201.133 12.051h-.062a1.516 1.516 0 0 1-.15-.029h-.027c-.044-.01-.088-.025-.131-.039-.006 0-.015 0-.022-.009a1.031 1.031 0 0 1-.142-.068l-.024-.014v15a1.318 1.318 0 0 0 .558.141z" fill="#1e7e96"/><path data-name="Path 8173" d="M201.915 11.136a1.459 1.459 0 0 0-1.319 0 .4.4 0 0 0 0 .763 1.46 1.46 0 0 0 1.322 0 .4.4 0 0 0-.003-.763z" fill="#666"/></g><g data-name="Group 4793"><path data-name="Path 8174" d="M205.297 8.674a3.85 3.85 0 0 0-.176-.092 2.715 2.715 0 0 0-1.588-.147 2.517 2.517 0 0 0-.616.239.287.287 0 0 1 .274.011 2.017 2.017 0 0 1 1.837 0 .3.3 0 0 1 .269-.011z" fill="#dceaf0"/><path data-name="Path 8175" d="M204.973 8.522l.012.005z" fill="#27323a"/><path data-name="Path 8176" d="M198.08 11.778l5.111-3.093a.24.24 0 0 0-.274-.011c-2.813 1.643-2.3 1.465-5.121 3.1a.33.33 0 0 1 .284.004z" fill="#dceaf0"/><path data-name="Path 8177" d="M197.559 16.004v-.254a1.021 1.021 0 0 1-.6-.843v.254c0 .077.006.147.012.219a1.758 1.758 0 0 0 .528 1.112 2.029 2.029 0 0 0 .315.229.828.828 0 0 1-.255-.717z" fill="#cfe0e8"/><path data-name="Path 8178" d="M198.087 12.845a.564.564 0 0 1-.007-1.067.251.251 0 0 0-.228-.033.448.448 0 0 0-.1.053 1.721 1.721 0 0 0-.486.466 11.291 11.291 0 0 0-.308 2.643 1.021 1.021 0 0 0 .6.843c.004-.389.194-2.627.529-2.905z" fill="#dceaf0"/><path data-name="Path 8179" d="M216.841 15.336q-5.777-3.32-11.544-6.662a.243.243 0 0 0-.269.011l11.528 6.655a.3.3 0 0 1 .285-.004z" fill="#dceaf0"/><path data-name="Path 8180" d="M217.68 18.484a1.149 1.149 0 0 1-.593.828c0 .252.014.817-.258.971a1.8 1.8 0 0 0 .851-1.799z" fill="#e2f4fc"/><path data-name="Path 8181" d="M217.457 15.967a1.852 1.852 0 0 0-.616-.636.253.253 0 0 0-.285.006.58.58 0 0 1 .006 1.067 13.3 13.3 0 0 1 .371 2.108 2.313 2.313 0 0 1 .154.8.641.641 0 0 0 .148-.1 1.008 1.008 0 0 0 .417-.541 9.733 9.733 0 0 0-.195-2.704z" fill="#dceaf0"/><path data-name="Path 8182" d="M211.973 22.405c0 .231.017.837-.257.971 2.811-1.641 2.3-1.453 5.11-3.093.271-.133.283-.721.258-.971z" fill="#cfe0e8"/><path data-name="Path 8183" d="M209.087 22.66v-.255L197.56 15.75v.254a.828.828 0 0 0 .252.717l11.528 6.655a.823.823 0 0 1-.253-.716z" fill="#dceaf0"/><path data-name="Path 8184" d="M211.973 22.405l5.111-3.093c0-.419-.109-2.708-.522-2.9-.205.028-4.379 2.667-5.113 3.093.368.198.53 2.518.524 2.9z" fill="#cfe0e8"/><path data-name="Path 8185" d="M211.973 22.405a3.187 3.187 0 0 1-2.889 0v.255a.823.823 0 0 0 .252.716 2.368 2.368 0 0 0 1.184.294 2.414 2.414 0 0 0 1.205-.294c.29-.186.26-.688.248-.971z" fill="#cfe0e8"/><path data-name="Path 8186" d="M211.973 22.405c0-.408-.142-2.718-.524-2.905a2.05 2.05 0 0 1-1.838 0c-.493.215-.523 2.57-.527 2.905a2.858 2.858 0 0 0 1.438.362 3.117 3.117 0 0 0 1.451-.362z" fill="#dceaf0"/><path data-name="Path 8187" d="M209.614 19.5l-11.527-6.655c-.406.2-.526 2.576-.527 2.9l11.527 6.655c.003-.333.171-2.733.527-2.9z" fill="#e8f3f7"/><path data-name="Path 8188" d="M216.556 15.34a.564.564 0 0 1 .006 1.067c-2.814 1.635-2.3 1.458-5.11 3.093a2.05 2.05 0 0 1-1.838 0q-5.763-3.33-11.527-6.655a.564.564 0 0 1-.007-1.067c2.814-1.636 2.3-1.458 5.111-3.093a2.017 2.017 0 0 1 1.837 0q5.766 3.33 11.528 6.655z" fill="#f4fafc"/></g><g data-name="Group 4798"><path data-name="Path 8189" d="M222.358 28.867c-2.471-1.357-7.421-4.076-8.764-5.1l-.013-.01a5.737 5.737 0 0 1-.9-.9 2.525 2.525 0 0 1-.493-.966 2.427 2.427 0 0 1-.024-.705 5.085 5.085 0 0 1 .136-.777 4.087 4.087 0 0 1 .411-1 3.816 3.816 0 0 1 .65-.838 4.573 4.573 0 0 1 1.157-.763 5.169 5.169 0 0 1 1.361-.452 3.841 3.841 0 0 1 .824-.035 4.041 4.041 0 0 1 .886.159 5.091 5.091 0 0 1 1.324.61l.2.119q2.277 1.321 4.559 2.642c1.258.727 2.578 1.487 4.007 2.3 1.518.869.785 1.932-.653 1.108-1.247-.714-2.594-1.49-4-2.3q-2.283-1.317-4.559-2.642l-.213-.124a4.1 4.1 0 0 0-1.027-.484 2.791 2.791 0 0 0-.609-.108 2.667 2.667 0 0 0-.553.024 3.86 3.86 0 0 0-1 .337 3.277 3.277 0 0 0-.816.527 2.478 2.478 0 0 0-.423.558 2.8 2.8 0 0 0-.281.677 3.8 3.8 0 0 0-.1.571 1.35 1.35 0 0 0 0 .318 1.3 1.3 0 0 0 .252.458 4.434 4.434 0 0 0 .679.677c1.269.968 6.159 3.654 8.6 5 1.944 1.057 1.375 2.211-.618 1.119z" fill="#1e7e96"/><g data-name="Group 4797"><path data-name="Path 8190" d="M217.751 41.337l-.01 3.329h.01a.771.771 0 0 0 .461.665 2.452 2.452 0 0 0 2.222 0 .84.84 0 0 0 .444-.536l.01-3.45z" fill="#9cd0e6"/><g data-name="Group 4796"><g data-name="Group 4794"><path data-name="Path 8191" d="M213.433 38.653a2.262 2.262 0 0 0 1.045 1.528 2.421 2.421 0 0 0 .786 1.652 3.728 3.728 0 0 1-1.831-3.18z" fill="#69b9db"/><path data-name="Path 8192" d="M227.564 45.443l.5-.292a1.144 1.144 0 0 0 .656-.983 3.294 3.294 0 0 1-.031.43c0 .023-.007.046-.01.061l-.007.062-.014.07a1.227 1.227 0 0 1-.024.107l-.009.045-.009.032a2.653 2.653 0 0 1-.072.238.164.164 0 0 1-.01.031.2.2 0 0 1-.015.038l-.04.1-.049.116c-.015.03-.025.046-.038.068v.016c-.013.023-.026.054-.04.077s-.016.031-.025.046a2.351 2.351 0 0 1-.259.377l-.009.007-.159.177a2.076 2.076 0 0 1-.291.246c-.01.008-.022.023-.032.03-.061.039-.141.085-.2.124l-.5.291a1.642 1.642 0 0 0 .687-1.514z" fill="#73c0e1"/><path data-name="Path 8193" d="M223.201 44.836a2.39 2.39 0 0 0 .8 2.043c-2.909-1.687-5.821-3.377-8.741-5.046a1.315 1.315 0 0 1-.209-.161 2.349 2.349 0 0 1-.619-1.762z" fill="#70bfe0"/><path data-name="Path 8194" d="M223.203 45.213c.01.007.024.023.035.031a6.016 6.016 0 0 0 1.035.368l.189.046c.134.031.268.061.4.085a.346.346 0 0 1 .09.015c.03 0 .062.008.093.008.163.022.326.045.487.054h.12c.091.007.178 0 .267 0h.163c.05-.009.1-.009.145-.016h.01l.23-.023c.037-.008.073-.008.109-.015s.062-.008.093-.016.044-.007.065-.015c.089-.016.172-.039.256-.061a.025.025 0 0 1 .022-.008.082.082 0 0 1 .042-.008.093.093 0 0 1 .039-.015.386.386 0 0 1 .038-.015c.012 0 .024-.008.035-.008s.014-.008.02-.008a1.931 1.931 0 0 0 .369-.169 1.642 1.642 0 0 1-.692 1.513l-.093.054-.215.1-.074.023-.06.023a6.888 6.888 0 0 1-.261.084h-.024c-.048.016-.091.016-.136.031l-.072.008c-.009 0-.02.007-.03.007a3.386 3.386 0 0 1-.359.024l-.057-.009h-.01l-.167-.007h-.076l-.066-.015a.494.494 0 0 1-.1-.016l-.06-.007c-.018-.008-.041-.008-.062-.016a.28.28 0 0 0-.081-.015c-.063-.023-.127-.038-.18-.054a2.179 2.179 0 0 1-.4-.153.323.323 0 0 1-.084-.039l-.2-.1a1.317 1.317 0 0 1-.147-.107v-.008c-.006 0-.012-.007-.019-.015l-.026-.023-.022-.023-.012-.009c0-.006-.008-.006-.013-.014s-.011-.009-.016-.015l-.02-.024c-.005-.007-.009-.007-.012-.015s-.022-.031-.035-.046l-.04-.046c-.009-.015-.018-.023-.026-.039 0-.007 0-.007-.006-.015l-.017-.023-.008-.008v-.008l-.013-.023-.01-.023a.122.122 0 0 1-.024-.038.132.132 0 0 0-.018-.031c0-.007-.01-.022-.015-.03a.186.186 0 0 1-.018-.038l-.008-.016v.007-.007c-.008-.024-.016-.039-.025-.062a.381.381 0 0 1-.031-.069l-.005-.007v-.023s0-.008-.007-.016c-.006-.015-.01-.031-.015-.046l-.016-.046-.027-.084c0-.008-.006-.023-.01-.039l-.024-.1-.01-.031c-.01-.038-.018-.084-.026-.122 0-.016-.006-.032-.009-.047 0-.023-.006-.053-.01-.084s-.011-.053-.014-.085v-.122a.127.127 0 0 0-.008-.031z" fill="#73c0e1"/><path data-name="Path 8195" d="M214.837 29.389l-.031 11a2.412 2.412 0 0 1-1.373-1.713q0-4.809.02-9.62l.626.135z" fill="#69b9db"/><path data-name="Path 8196" d="M223.208 45.235c0-4.463.027-8.947.043-13.425l4.347 2.113-.034 11.52a4.554 4.554 0 0 1-4.356-.208z" fill="#73c0e1"/><path data-name="Path 8197" d="M228.747 34.481l-.026 9.687c0 .7-.628 1.038-1.157 1.275l.034-11.52z" fill="#73c0e1"/><path data-name="Path 8198" d="M214.466 29.292l-.032 10.968 8.774 5.072.039-13.523-.96-.467z" fill="#70bfe0"/></g><path data-name="Path 8199" d="M218.715 26.73q4 2.318 8 4.62c.148.085.18.108.307.191a3.945 3.945 0 0 1 1.721 3.1c0 .469-.637.98-1.155 1.283a4.968 4.968 0 0 1-4.356-.207c-.952-.541-7.31-3.958-8.736-5.048a2.964 2.964 0 0 1-1.024-1.32 2.713 2.713 0 0 1 .093-1.04 2.979 2.979 0 0 1 .775-1.348 4.162 4.162 0 0 1 1.9-.911 2.892 2.892 0 0 1 1.259.091 4.781 4.781 0 0 1 1.216.589z" fill="#7ac4e3"/><g data-name="Group 4795"><path data-name="Path 8200" d="M213.491 18.561a2.859 2.859 0 0 0 1.372 1.744l-.056 19.816c0 .453.114 1.447.457 1.712a3.727 3.727 0 0 1-1.83-3.15v-.03c-.001-6.697.039-13.394.057-20.092z" fill="#cee6f0" opacity=".5"/><path data-name="Path 8201" d="M215.885 15.536c.01 0 .019-.008.03-.008-.056.015-.112.03-.16.045z" fill="#979493" opacity=".5"/><path data-name="Path 8203" d="M217.035 15.443a.021.021 0 0 0 .018.007c-.014 0-.03-.007-.042-.007z" fill="#979493" opacity=".5"/><path data-name="Path 8204" d="M214.823 16.061a2.984 2.984 0 0 1 3.385-.211 1.892 1.892 0 0 0-1.686.369 1.968 1.968 0 0 0-1.699-.158z" fill="#f0fbff" opacity=".5"/><path data-name="Path 8205" d="M214.889 16.029a1.665 1.665 0 0 1 1.633.19c-1.2.7-1.934 2.809-1.988 3.889a3.006 3.006 0 0 1-1.029-1.325 2.742 2.742 0 0 1 .094-1.039 2.712 2.712 0 0 1 1.29-1.715z" fill="#ebf9ff" opacity=".5"/><path data-name="Path 8206" d="M214.532 20.074c.131-1.68 1-3.417 1.99-3.855l8.74 5.053a5.148 5.148 0 0 0-1.994 3.87c-.27-.143-2.938-1.689-5.274-3.018a31.688 31.688 0 0 1-3.462-2.05z" fill="#ebf9ff" opacity=".5"/><path data-name="Path 8207" d="M228.773 24.075q-.031 10.047-.057 20.093v.037a3.124 3.124 0 0 1-2.783 3.074c-.009 0-.02.007-.03.007a3.126 3.126 0 0 1-1.9-.407 2.18 2.18 0 0 1-.795-1.73c0-6.654.058-13.353.058-20.006.727.678 4.824 1.208 5.507-1.068z" fill="#e2f4fc" opacity=".5"/><path data-name="Path 8208" d="M223.265 25.152c-.053-.971.789-3.361 2-3.88a4.736 4.736 0 0 1 2.36 4.086 4.966 4.966 0 0 1-4.36-.206z" fill="#ebf9ff" opacity=".5"/><path data-name="Path 8209" d="M225.262 21.267a1.6 1.6 0 0 1 1.6-.414 3.749 3.749 0 0 1 1.913 3.217c0 .469-.638.981-1.156 1.283a5.234 5.234 0 0 0-2.357-4.086z" fill="#f0fbff" opacity=".5"/><path data-name="Path 8210" d="M218.208 15.85c2.908 1.688 5.82 3.378 8.739 5.046a2.161 2.161 0 0 0-1.685.376l-8.74-5.053a1.782 1.782 0 0 1 1.686-.369z" fill="#f0fbff" opacity=".5"/><path data-name="Path 8211" d="M223.209 45.129l.057-19.979-.018-.011-8.525-4.925c.047.032.094.061.14.091l-.056 19.814v.27l.011.006a2.394 2.394 0 0 0 .447 1.438l-.017-.01.016.01c2.92 1.669 5.832 3.359 8.741 5.046a2.155 2.155 0 0 1-.793-1.726z" fill="#dcf1fa" opacity=".5"/></g></g></g><path data-name="Path 8212" d="M222.353 28.844c-2.472-1.358-7.421-4.076-8.765-5.1l-.013-.01a5.756 5.756 0 0 1-.9-.9 2.519 2.519 0 0 1-.492-.967 2.392 2.392 0 0 1-.024-.705 4.93 4.93 0 0 1 .136-.777 4.083 4.083 0 0 1 .41-1 3.832 3.832 0 0 1 .648-.837 3.1 3.1 0 0 1 .258-.221c-.05.4-.092.811-.119 1.236v1.37a3.2 3.2 0 0 0-.049.342 1.25 1.25 0 0 0 0 .318 1.259 1.259 0 0 0 .251.458 4.492 4.492 0 0 0 .679.678c1.269.967 6.159 3.653 8.6 5 1.941 1.055 1.372 2.21-.62 1.115z" fill="#1e7e96"/></g></g></g><path data-name="Path 8213" d="M218.803 45.458l-.012 1.312c-.077 8.9-.312 35.861-1.1 49.268-.554 9.479-1.475 15.3-3.266 19.424-1.775 4.085-4.427 6.523-8.453 9.248-2.765 1.871-5.687 3.733-8.542 5.552-7.674 4.891-14.874 9.479-16.508 12.6a2.078 2.078 0 0 0 .971 3.186 2.462 2.462 0 0 0 1.818.1 33.247 33.247 0 0 0 5.349-1.822c3.86-1.561 8.243-4.537 11.862-6.993 1.462-.992 2.8-1.9 3.924-2.592l-.382-.617c-1.129.7-2.475 1.609-3.948 2.61-3.586 2.433-7.93 5.381-11.729 6.918a32.654 32.654 0 0 1-5.219 1.783c-.854.17-1.136.08-1.34-.026a1.438 1.438 0 0 1-.663-2.208c1.544-2.949 8.665-7.486 16.254-12.323 2.893-1.843 5.853-3.729 8.56-5.561 4.136-2.8 6.866-5.315 8.711-9.563 1.829-4.211 2.767-10.1 3.326-19.671.783-13.4 1.019-40.394 1.1-49.3l.011-1.312z" fill="#abdaef"/></g><path data-name="Path 8214" d="M326.32 194.839a.807.807 0 0 1-.344.388c.109-.066.184-.114.252-.161l.039-.026c2.713-1.887 3.3-6.538 3.357-9.629v-.047a25.39 25.39 0 0 0-.72-7.8.284.284 0 0 0-.01-.034c-.891-3.431-2.99-4.445-6.336-6.378-21.88-12.631-50.175-27.064-72.055-39.691a.517.517 0 0 0-.048-.027 4.9 4.9 0 0 0-4.684.021l-.015.008-.008.006-5.536 3.216L14.823 265.489l-11.069 6.434a.891.891 0 0 1 .263-.1.954.954 0 0 0-.263.1 4.117 4.117 0 0 0-.373.248l-.068.049a7.184 7.184 0 0 0-.318.264c-.017.018-.036.033-.056.05l-.038.034-.246.253-.023.029a10.233 10.233 0 0 0-1.956 4.084c-1.513 5.556-.258 13.348 1.534 15.71a4.752 4.752 0 0 0 1.434 1.355.59.59 0 0 0 .076.048c24.691 14.253 50.547 27.274 75.509 41.686l.014.007h.009a4.9 4.9 0 0 0 4.479.115l.247-.133 11.069-6.433c61.015-35.459 158.774-92.3 219.858-127.638l11.068-6.433c.122-.117.236-.251.347-.379z" fill="#17667a" fill-rule="evenodd"/><g data-name="Group 4802" fill-rule="evenodd"><path data-name="Path 8215" d="M200.773 123.367c-.573-.327-1.351-.805-2-.423 3.9-2.532 9.674-3.415 13.108-1.126l.58.334c-3.477-1.369-7.581.044-11.688 1.215z" fill="#248ca6"/><path data-name="Path 8216" d="M207.907 138.435a4.657 4.657 0 0 0 2.7-2.449 6.738 6.738 0 0 0-2.266-8.4c3.34 1.113 5.279 5.366 4.492 8.458-.605 2.374-2.627 4.923-4.926 2.391z" fill="#1c768c"/><path data-name="Path 8217" d="M205.518 135.156a8.934 8.934 0 0 0-5-1.723c-.915-.115-1.14.1-.911-.954a6.374 6.374 0 0 1 1.123-2.488 7.279 7.279 0 0 1 6.154-2.665c2.276.223 3.928 1.711 5.015 3.993.91 1.91 1.247 4.026.13 5.8a3.993 3.993 0 0 1-2.249 1.8 1.634 1.634 0 0 1-1.117-.087c-1.147-1.681-1.249-2.294-3.15-3.676zm-4.9 3.87c4.374.342 5.722 2.374 7.068 4.31 1.095 1.587 3.414 1.5 5.325.382 3.1-1.8 5.9-6.82 4.922-11.135-1.34-6.638-6.683-9.832-13.2-7.089a3.315 3.315 0 0 0-1.264.632c-6.618 4.028-7.796 12.797-2.853 12.9z" fill="#1c768c"/><path data-name="Path 8218" d="M125.073 187.067a6.288 6.288 0 0 0 2-2.228 27.559 27.559 0 0 0 1.714-3.672 37.751 37.751 0 0 1 4.685-8.815c1.695-2.387 2.931-3.42 3.841-5.989.574-1.955-.484-1.411 1.4-.665 1.8 1.028-2.9 7.752-5.974 12.371-1.335 2.007-3.327 8.683-4.676 9.479-1.258.819-2.709.683-2.99-.481z" fill="#1b9ebf"/><path data-name="Path 8219" d="M125.666 187.616a28.2 28.2 0 0 1 .478-4.08c1.8-6.867 7.4-15.843 12.479-17.654.576.632.159 1.946-.378 2.98a21.943 21.943 0 0 1-2.177 3.034 40.108 40.108 0 0 0-4.46 7.234 37.445 37.445 0 0 0-.776 1.765c0 .275-1.79 4.474-1.85 4.575-.542.939-2.029 2.679-3.291 2.285-.009-.045-.019-.087-.025-.139zm-.013 5.429a4.773 4.773 0 0 0 4.014-.579 13.28 13.28 0 0 0 5.175-6.412c1.337-3.51 2.221-6.729 6.572-12.178 4.9-5.789 3.7-13.213-2.594-9.894a4.034 4.034 0 0 0-1.26.844c-6.486 4.865-11.94 14.359-13.24 22.575-.538 3.076.053 5.043 1.333 5.644z" fill="#1c768c"/><path data-name="Path 8220" d="M200.773 123.367c3.325-1.949 7.947-3.394 11.687-1.256 4.231 2.631 5.428 6.873 5.6 11.7a2.5 2.5 0 0 1-1.476 1.913c-.02-8.48-6.106-11.9-13.484-7.574-.003-1.628-.933-3.983-2.327-4.783z" fill="#248ca6"/><path data-name="Path 8221" d="M118.973 187.878a1.418 1.418 0 0 0 .793 1.175l.9.367-.249 20.019-.582-.334c-.009 0-.018-.01-.029-.021-.588-.3-.764-1.246-.764-1.867-.026-8.064-.051-11.275-.069-19.339z" fill="#1c768c"/><path data-name="Path 8222" d="M134.74 160.435q32.017-18.74 64.031-37.494a1.257 1.257 0 0 1 1.421.092l.58.331-64.031 37.494c-.616-.352-1.395-.725-2.001-.423z" fill="#1b9ebf"/><path data-name="Path 8223" d="M120.345 189.386c1.473.83 3.925.394 5.325-.43l.062 16.608c-.561 1.346-2.807 4.5-5.316 3.875z" fill="#17667a"/><path data-name="Path 8224" d="M136.741 160.858l2.482-2.065 59.533-34.932 2.016-.5c1.524.888 2.323 3.247 2.331 4.781l-64.031 37.5c.001-1.606-.876-3.959-2.331-4.784z" fill="#1b9ebf"/><path data-name="Path 8225" d="M120.345 189.386c-.385-10.015 8.051-26.238 16.4-28.528 1.433.82 2.331 3.132 2.331 4.782-7.384 4.317-13.431 14.843-13.4 23.316a5.166 5.166 0 0 1-5.331.43z" fill="#1c768c"/><path data-name="Path 8226" d="M129.41 192.267a12.651 12.651 0 0 0 4.983-6.285 36.414 36.414 0 0 1 6.636-12.112c3.523-4.167 4.091-9.182 1.784-10.425l56.645-33.169c-2.326 3.938-1.819 8.288 1.736 8.363 4.373.342 5.336 2.372 6.683 4.308 1.094 1.587 3.093 1.561 5 .443a10.864 10.864 0 0 0 3.716-3.853l-.01-3.823c.969-1.228 1.475-1.516 1.475-1.913.02 8.063.046 11.274.068 19.337l-95.661 56.015c1.177-.682 2.816-2.69 2.812-4.158-.012-4.132-.062-5.678-.081-12.326a4.81 4.81 0 0 0 4.214-.402z" fill="#1c768c"/><path data-name="Path 8227" d="M119.55 188.943a1.43 1.43 0 0 1-.566-.9 1.458 1.458 0 0 1-.009-.277 31.124 31.124 0 0 1 3.123-12.754 33.856 33.856 0 0 1 12.5-14.5 1.331 1.331 0 0 1 1.567.011l.58.331c-8.915 5.237-16.132 18.406-16.107 28.947-.232-.127-.903-.716-1.088-.858z" fill="#1c768c"/></g><g data-name="Group 4803" fill-rule="evenodd"><path data-name="Path 8228" d="M327.883 185.49c.01-3.245-.058-8.947-2.887-11-68.594 39.861-173.308 100.884-241.931 140.764a1.72 1.72 0 0 1 .29.214 2.489 2.489 0 0 1 .28.3l.006.005a4.3 4.3 0 0 1 .261.367l.01.014c.084.134.168.28.248.435l.02.041c.079.153.157.316.231.489l.017.038c.074.176.147.36.219.554a.119.119 0 0 0 .008.022c.07.194.139.4.2.608a.477.477 0 0 0 .016.049c.06.2.117.4.173.61l.046.175c.045.172.087.35.127.529l.041.171c.052.24.1.484.149.734.011.058.019.117.031.175a19.294 19.294 0 0 1 .152.981c.022.156.045.31.065.469s.032.3.05.454.032.287.045.434c.017.181.03.366.044.551.009.127.02.255.028.385.014.235.024.471.033.709 0 .087.009.174.012.263.01.317.013.638.013.959 68.702-39.915 173.021-100.41 242.003-140.499z" fill="#1c768c"/><path data-name="Path 8229" d="M250.017 131.302c.026 0 .049-.006.074 0s.039 0 .058 0a.89.89 0 0 1 .358.113l-.013-.008h-.009.007-.011c-.073-.042-.163-.088-.234-.126l-.084-.038-.065-.029-.1-.044a6.995 6.995 0 0 0-.232-.088l.049.017-.059-.021h-.009l-.026-.009h-.013l-.188-.061c-.07-.02-.164-.042-.234-.06l-.16-.034-.074-.014a.615.615 0 0 0-.071-.012h-.013c-.015 0-.028 0-.044-.006l-.1-.017-.231-.025a5.962 5.962 0 0 0-.231-.014h-.16.061-.13c-.07 0-.162 0-.232.007l-.229.014c-.07.006-.16.018-.231.027h.026H247.389l-.078.013-.042.006-.059.01c-.07.012-.165.033-.236.049l-.232.061-.122.039h-.008l-.087.028h.009l-.037.012-.236.092a3.03 3.03 0 0 0-.242.111l-.023.009c-.073.041-.173.094-.247.134a.926.926 0 0 1 .353-.115h.012a.191.191 0 0 1 .034 0h.093a.256.256 0 0 1 .029 0 .877.877 0 0 1 .259.041.348.348 0 0 1 .034.014 1.058 1.058 0 0 1 .158.07 3.123 3.123 0 0 1 2.825 0 1.1 1.1 0 0 1 .182-.08.853.853 0 0 1 .289-.066z" fill="#ede8e8"/><path data-name="Path 8230" d="M248.996 130.872h-.01l.064.009z" fill="#8d8a89"/><path data-name="Path 8232" d="M246.54 131.059h-.007l.07-.025z" fill="#8d8a89"/><path data-name="Path 8233" d="M329.627 185.315a3.205 3.205 0 0 1-1.75 2.448c0 1.522-.285 6.526-1.9 7.464.109-.066.184-.114.252-.16l.039-.027c2.721-1.893 3.3-6.567 3.358-9.659v-.066z" fill="#17667a"/><path data-name="Path 8234" d="M326.015 173.097l-3.454-2c-21.88-12.631-50.175-27.064-72.055-39.691l-.009-.007a1.207 1.207 0 0 0-.109-.053.845.845 0 0 0-.1-.034h-.017a.717.717 0 0 0-.078-.017.745.745 0 0 0-.144-.011h-.036a.84.84 0 0 0-.1.01 1.071 1.071 0 0 0-.1.022h-.013l-.023.009a1.075 1.075 0 0 0-.1.037 1.419 1.419 0 0 0-.128.066l75.509 41.686a.916.916 0 0 1 .957-.017z" fill="#1c768c"/><path data-name="Path 8235" d="M329.627 182.439l-.032-.777c-.014-.246-.043-.574-.063-.82a18.491 18.491 0 0 0-.625-3.328c0-.012-.007-.024-.009-.034a9.619 9.619 0 0 0-1.455-3.085l-.053-.075a4.673 4.673 0 0 0-1.3-1.187.9.9 0 0 0-1.032-.015 1.774 1.774 0 0 1 .255.18c.511.447.267.891-.414 1.286 1.67.963 2.475 5.22 2.667 6.56l.009.05a31.027 31.027 0 0 1 .308 4.3c.036-.021.059-.046.094-.067l-.013.018a4.732 4.732 0 0 0 .392-.288 2.846 2.846 0 0 0 1.225-1.679c0-.015.008-.03.012-.045v.007l.006-.026a5.476 5.476 0 0 0 .028-.975z" fill="#1c768c"/><path data-name="Path 8236" d="M329.629 182.516v.4-.2a4.445 4.445 0 0 0 0-.2z" fill="#9d9a97"/><path data-name="Path 8237" d="M246.724 131.436a.928.928 0 0 0-.973-.017l-5.536 3.216L14.823 265.489l-11.069 6.434a.92.92 0 0 1 .968.034z" fill="#1c768c"/><path data-name="Path 8238" d="M325.058 173.118a.865.865 0 0 1 0 1.636c-68.447 39.777-173.57 100.739-242 140.5a3.113 3.113 0 0 1-2.819 0c-23.029-13.3-52.478-28.39-75.509-41.687a.863.863 0 0 1-.009-1.633c68.446-39.775 173.57-100.738 242-140.5a3.12 3.12 0 0 1 2.825 0c23.032 13.293 52.482 28.388 75.512 41.684z" fill="#1b9ebf"/><path data-name="Path 8239" d="M4.737 273.572a.863.863 0 0 1-.009-1.633c-.012-.006-.023-.008-.036-.014a.938.938 0 0 0-.942 0 3.984 3.984 0 0 0-.373.248l-.068.049a7.184 7.184 0 0 0-.318.264c-.017.018-.036.033-.056.05l-.038.034-.246.253a.3.3 0 0 0-.023.029 10.233 10.233 0 0 0-1.956 4.084c-1.513 5.556-.258 13.348 1.534 15.71a4.819 4.819 0 0 0 1.513 1.406c-1.771-2.239-1.605-18.452 1.018-20.48z" fill="#1c768c"/><path data-name="Path 8240" d="M85.881 328.267c0 1.708-.278 6.516-1.9 7.464l11.07-6.433c61.015-35.459 158.774-92.3 219.858-127.638l11.069-6.433c1.625-.951 1.889-5.783 1.9-7.4v-.063z" fill="#17667a"/><path data-name="Path 8241" d="M77.417 329.694a27.428 27.428 0 0 1-.032-1.427L1.873 286.58a15.363 15.363 0 0 0 1.1 6.592 2.158 2.158 0 0 0 .749.877l6.91 3.989c11.514 6.648 29.448 15.094 40.964 21.743l6.908 3.989 6.91 3.988 6.909 3.989 6.909 3.989c-.952-.549-1.659-2.839-1.815-6.042z" fill="#1e7e96"/><path data-name="Path 8242" d="M85.887 325.995l-.006 2.272 242.91-140.868c.455-.263.694-1.178.795-1.687a1.914 1.914 0 0 0 .04-.345v-.052l.006-2.138v-.136a2.071 2.071 0 0 1-.1.619c-.007.022-.011.044-.019.066a2.516 2.516 0 0 1-.287.56c-.022.033-.042.066-.067.1a3.636 3.636 0 0 1-1.056.882z" fill="#17667a"/><path data-name="Path 8243" d="M77.391 325.995l-.006 2.272L1.873 286.58l.007-2.272z" fill="#1e7e96"/><path data-name="Path 8244" d="M85.881 328.329v-.064a9.511 9.511 0 0 1-8.5 0c-.011 3.939.76 6.84 1.847 7.469l.014.007h.009a4.9 4.9 0 0 0 4.479.115l.247-.133c1.539-.889 1.896-5.194 1.904-7.394z" fill="#1c768c"/><path data-name="Path 8245" d="M85.881 328.267l.006-2.272a9.423 9.423 0 0 1-8.5 0l-.116 1.075.11 1.2a9.392 9.392 0 0 0 8.5-.003z" fill="#1c768c"/><path data-name="Path 8246" d="M77.459 324.067c.041-.609.1-1.205.171-1.785.006-.053.015-.1.022-.156q.054-.417.12-.822l.054-.314c.038-.216.077-.43.12-.639l.06-.287c.079-.368.164-.724.255-1.061.022-.083.046-.162.07-.244a11.61 11.61 0 0 1 .271-.859c.026-.076.052-.156.081-.232.067-.179.135-.352.206-.517l.024-.057c.072-.161.144-.316.217-.46a.365.365 0 0 0 .019-.036q.123-.238.252-.442l.01-.015a4.33 4.33 0 0 1 .253-.355l.024-.03a2.432 2.432 0 0 1 .222-.237 1.77 1.77 0 0 1 .336-.266l-.389-.225-.9-.518c-.165-.094-.346-.2-.54-.31l-2.7-1.562h-.009l-6.08-3.511a35.093 35.093 0 0 1-.407-.235l-1.449-.836-1.721-.994-2.809-1.621c-.618-.357-1.241-.718-1.879-1.085-16.735-9.662-39.88-21.142-56.627-30.785-2.219 1.3-2.851 8.34-2.854 10.736l75.508 41.687c0-.635.025-1.266.065-1.887l.004-.04z" fill="#248ca6"/><path data-name="Path 8247" d="M85.887 325.995c0-3.448-.59-9.1-2.726-10.674l-.046-.028c-.018-.013-.036-.023-.053-.033a3.15 3.15 0 0 1-2.819 0c-2.768 1.516-3.114 9.828-2.855 10.736a9.4 9.4 0 0 0 8.499-.001z" fill="#1e7e96"/></g><g data-name="Group 4812" fill-rule="evenodd"><g data-name="Group 4805"><path data-name="Path 8248" d="M234.602 108.54a15.353 15.353 0 0 1 8.76-5.472 17.527 17.527 0 0 1 10.826 1.4 1.212 1.212 0 0 0-.177-.069 1.208 1.208 0 0 1 .262.113q27.438 15.954 54.885 31.892c.268.162.5.309.714.463a10.426 10.426 0 0 1 3.5 3.934 11.55 11.55 0 0 1-1.037 12.719c-.212.306-.486.655-.759.988-.237.289-.476.571-.728.847q-20.941 22.976-41.927 45.91c-.449.49-.883.957-1.355 1.43a18.821 18.821 0 0 1-10.5 4.875c-2.1.22-6.381-.268-8.5-1.77a1.412 1.412 0 0 0 .139.1q-27.449-15.936-54.884-31.9c-1.495-.859-4-3.055-4.465-4.89-2.6-4.956-.671-10.1 2.625-13.893h-.01l.162-.176q21.23-23.25 42.469-46.501z" fill="#e8f3f7"/><g data-name="Group 4804"><path data-name="Path 8249" d="M234.602 108.54a15.356 15.356 0 0 1 8.76-5.472 17.475 17.475 0 0 1 10.911 1.445c-.838-.493-2.047.2-2.587.841-5.062-1.828-12 .057-15.59 3.35a.146.146 0 0 0-.041.04c-.024.025-.057.048-.082.075a3.311 3.311 0 0 0-1.371-.279z" fill="#cfe0e8"/><path data-name="Path 8250" d="M191.967 155.225l.162-.176q21.234-23.258 42.473-46.509a1.378 1.378 0 0 1 1.371.279l-42.626 46.682a2.314 2.314 0 0 0-1.38-.276z" fill="#dceaf0"/><path data-name="Path 8251" d="M192.981 172.86a2.519 2.519 0 0 0 .836 1.144c-1.5-.862-4.02-3.07-4.47-4.909a29.26 29.26 0 0 0 3.634 3.765z" fill="#1e7e96"/><path data-name="Path 8252" d="M191.979 155.218a1.389 1.389 0 0 1 1.368.283c-3.022 3.286-3.91 8.034-1.01 11.268a7.222 7.222 0 0 0 1.69 1.718c-.918.974-1.691 3.033-1.046 4.373a9.225 9.225 0 0 1-3.46-3.433c-2.848-5.052-.909-10.335 2.458-14.209z" fill="#dceaf0"/><path data-name="Path 8253" d="M306.573 137.249l-54.883-31.9a2.207 2.207 0 0 1 2.587-.841q27.438 15.954 54.885 31.892a2.25 2.25 0 0 0-2.589.849z" fill="#cfe0e8"/><path data-name="Path 8254" d="M310.593 153.644c3.78-4.138 4.674-9.111 2.775-12.842a11.554 11.554 0 0 1-1.038 12.719c-.366.528-.916 1.184-1.33 1.663.304-.317-.227-1.187-.407-1.54z" fill="#b6ccd6"/><path data-name="Path 8255" d="M306.765 137.38a.524.524 0 0 1-.13-.082c-.024-.017-.04-.032-.066-.049a2.116 2.116 0 0 1 2.589-.844c.268.162.5.309.714.463a10.429 10.429 0 0 1 3.5 3.934c1.9 3.731 1 8.7-2.775 12.842a10.232 10.232 0 0 0-3.341-3.408c4.085-4.469 3.841-10.169-.491-12.856z" fill="#cfe0e8"/><path data-name="Path 8256" d="M247.873 204.757a2.455 2.455 0 0 0 .828 1.142q-27.449-15.936-54.884-31.9a2.463 2.463 0 0 1-.836-1.144z" fill="#1e7e96"/><path data-name="Path 8257" d="M194.027 168.487l54.884 31.9c-.926 1.03-1.74 3.04-1.038 4.374l-54.892-31.9c-.687-1.256.119-3.446 1.046-4.374z" fill="#dceaf0"/><path data-name="Path 8258" d="M267.958 200.326l42.635-46.682c.183.353.711 1.22.407 1.54q-21.292 23.363-42.635 46.684c.303-.322-.224-1.189-.407-1.542z" fill="#b6ccd6"/><path data-name="Path 8259" d="M264.617 196.92l42.635-46.684a7.018 7.018 0 0 1 3.341 3.408l-42.635 46.682a9.8 9.8 0 0 0-3.341-3.406z" fill="#cfe0e8"/><path data-name="Path 8260" d="M247.873 204.757a14.054 14.054 0 0 0 9.083 1.426 18.531 18.531 0 0 0 11-5.857c.368.32.71 1.22.407 1.542-.01.007-.017.024-.024.031-.263.256-.519.536-.78.8a18.821 18.821 0 0 1-10.5 4.875c-2.138.224-6.547-.286-8.622-1.857a1.335 1.335 0 0 1-.564-.96z" fill="#b6ccd6"/><path data-name="Path 8261" d="M248.911 200.383c4.519 2.637 11.561 1.079 15.706-3.463a10.05 10.05 0 0 1 3.341 3.406 19.1 19.1 0 0 1-8.252 5.359 14.853 14.853 0 0 1-11.833-.928 4.031 4.031 0 0 1 1.038-4.374z" fill="#cfe0e8"/><path data-name="Path 8262" d="M193.347 155.501q21.316-23.338 42.626-46.682c4.154-4.543 11.188-6.1 15.713-3.465l54.883 31.9c4.528 2.628 4.836 8.453.683 12.987q-21.316 23.352-42.635 46.684c-4.145 4.542-11.187 6.1-15.706 3.463q-27.437-15.94-54.884-31.9c-4.526-2.628-4.835-8.445-.68-12.987z" fill="#e8f3f7"/></g></g><g data-name="Group 4807"><path data-name="Path 8263" d="M181.211 247.318q-27.434-15.966-54.892-31.9c-3.231-2.094-5.078-4.092-5.078-8.525a7.135 7.135 0 0 1 .262-2.048 10.2 10.2 0 0 1 4.735-5.743c.051-.032.12-.076.185-.111h-.01a.086.086 0 0 0 .029-.008l.026-.012c1.6-.745 41.587-23.824 46.828-27.041l.009-.006a19.707 19.707 0 0 1 8.475-2.323 21 21 0 0 1 9.113 1.505 15.715 15.715 0 0 1 1.81.893l54.617 31.739c.141.082.282.163.421.249 2.748 1.705 4.924 4.216 4.924 7.694a8.559 8.559 0 0 1-3.148 7.211 11.666 11.666 0 0 1-1.719 1.233q-.128.086-.235.15h-.005l-.017.01q-23.334 13.467-46.665 26.941c-2.536 1.91-8.222 2.54-10.945 2.447a19.506 19.506 0 0 1-8.72-2.355z" fill="#e8f3f7"/><g data-name="Group 4806"><path data-name="Path 8264" d="M173.296 171.933a19.69 19.69 0 0 1 8.487-2.33 21 21 0 0 1 9.113 1.5 16.039 16.039 0 0 1 1.81.893 2.541 2.541 0 0 0-1.533.138c-4.526-2.629-11.909-2.636-16.46-.007a3.887 3.887 0 0 0-1.417-.194z" fill="#dceaf0"/><path data-name="Path 8265" d="M126.413 198.994c0 .194 41.58-23.8 46.892-27.067a1.7 1.7 0 0 1 1.408.2l-46.8 27.02c-.179-.049-1.5-.151-1.5-.153z" fill="#dceaf0"/><path data-name="Path 8266" d="M191.156 172.131a1.528 1.528 0 0 1 1.55-.131l54.884 31.9a1.568 1.568 0 0 0-1.55.131z" fill="#cfe0e8"/><path data-name="Path 8267" d="M125.557 212.948c.008.816-.044 1.959.762 2.475-3.231-2.1-5.078-4.093-5.078-8.526.132 2.685 2.179 4.728 4.316 6.051z" fill="#1c768c"/><path data-name="Path 8268" d="M121.503 204.849a10.2 10.2 0 0 1 4.735-5.743 1.521 1.521 0 0 1 .275-.151 1.6 1.6 0 0 1 1.4.2c-.286.169-.553.339-.8.511s-.5.372-.707.559c-2.977 2.613-2.5 6.156 1.452 8.453a5.477 5.477 0 0 0-2.294 4.274 11.868 11.868 0 0 1-2.5-1.879 6.183 6.183 0 0 1-1.561-6.224z" fill="#dceaf0"/><path data-name="Path 8269" d="M247.534 220.297a1.886 1.886 0 0 0 .745-1.743v-.739c2.241-1.291 4.389-3.373 4.389-6.132a8.559 8.559 0 0 1-3.148 7.211 11.666 11.666 0 0 1-1.719 1.233c-.097.066-.187.121-.267.17z" fill="#b6ccd6"/><path data-name="Path 8270" d="M245.984 213.549c4.558-2.628 4.582-6.9.056-9.523a1.6 1.6 0 0 1 1.55-.131c2.82 1.706 5.078 4.246 5.078 7.788.008 2.223-1.451 4.444-4.389 6.132a5.525 5.525 0 0 0-2.295-4.266z" fill="#cfe0e8"/><path data-name="Path 8271" d="M180.448 244.844c0 .846-.078 1.958.763 2.474q-27.435-15.966-54.892-31.9c-.844-.567-.754-1.587-.762-2.475z" fill="#1e7e96"/><path data-name="Path 8272" d="M201.473 244.844l46.806-27.029a2.323 2.323 0 0 1-.745 2.482q-23.4 13.507-46.806 27.021c.837-.485.756-1.634.745-2.474z" fill="#b6ccd6"/><path data-name="Path 8273" d="M180.448 244.844l-54.891-31.9c-.134-1.462 1.009-3.762 2.294-4.274l54.885 31.9a5.333 5.333 0 0 0-2.288 4.274z" fill="#dceaf0"/><path data-name="Path 8274" d="M199.178 240.577s.073-.04.2-.113c5.253-3.033 11.246-7.376 16.665-10.448 10.278-5.826 20.149-11.05 29.945-16.467a5.4 5.4 0 0 1 2.295 4.266l-46.806 27.029a5.391 5.391 0 0 0-2.299-4.267z" fill="#cfe0e8"/><path data-name="Path 8275" d="M127.91 199.151l46.8-27.02c4.551-2.629 11.916-2.629 16.443 0l54.884 31.9c4.526 2.627 4.5 6.9-.056 9.523q-23.4 13.518-46.806 27.028c-4.55 2.628-11.916 2.628-16.442 0q-27.438-15.951-54.885-31.9c-4.522-2.638-4.498-6.903.062-9.531z" fill="#e8f3f7"/><path data-name="Path 8276" d="M180.448 244.844c0-1.436 1.015-3.687 2.288-4.267a13.339 13.339 0 0 0 1.574.754c4.525 1.764 10.616 1.678 14.868-.754a5.371 5.371 0 0 1 2.295 4.267c-5.955 3.471-15.448 3.223-21.025 0z" fill="#cfe0e8"/><path data-name="Path 8277" d="M180.448 244.844c6 3.489 15.591 3.163 21.025 0 .074.864.2 1.779-.583 2.377-2.525 1.922-8.236 2.557-10.967 2.464a19.5 19.5 0 0 1-8.712-2.367c-.849-.529-.763-1.619-.763-2.474z" fill="#b6ccd6"/></g></g><g data-name="Group 4809"><path data-name="Path 8278" d="M114.711 285.319q-27.435-15.968-54.892-31.9c-3.23-2.1-5.078-4.094-5.078-8.526a7.18 7.18 0 0 1 .262-2.049 10.194 10.194 0 0 1 4.734-5.742c.052-.032.12-.077.187-.111h-.012s.011 0 .03-.008l.026-.012c1.6-.744 41.588-23.824 46.829-27.042l.009-.006a19.723 19.723 0 0 1 8.474-2.322 21.01 21.01 0 0 1 9.115 1.5 15.7 15.7 0 0 1 1.808.894l54.618 31.739c.141.082.282.163.421.25 2.748 1.7 4.923 4.215 4.923 7.693a8.558 8.558 0 0 1-3.147 7.212 11.711 11.711 0 0 1-1.719 1.232q-.128.084-.236.151l-.018.01q-23.334 13.467-46.666 26.941c-2.534 1.909-8.221 2.54-10.945 2.447a19.526 19.526 0 0 1-8.723-2.351z" fill="#e8f3f7"/><g data-name="Group 4808"><path data-name="Path 8279" d="M106.796 209.932a19.71 19.71 0 0 1 8.486-2.329 21 21 0 0 1 9.114 1.5 15.63 15.63 0 0 1 1.809.894 2.541 2.541 0 0 0-1.533.136c-4.526-2.629-11.908-2.635-16.459-.006a3.9 3.9 0 0 0-1.417-.195z" fill="#dceaf0"/><path data-name="Path 8280" d="M59.912 236.994c0 .194 41.581-23.8 46.894-27.068a1.7 1.7 0 0 1 1.407.205l-46.8 27.02c-.179-.054-1.501-.154-1.501-.157z" fill="#dceaf0"/><path data-name="Path 8281" d="M124.655 210.131a1.521 1.521 0 0 1 1.55-.13l54.885 31.894a1.568 1.568 0 0 0-1.549.13z" fill="#cfe0e8"/><path data-name="Path 8282" d="M59.056 250.948c.009.815-.043 1.96.763 2.475-3.23-2.1-5.078-4.094-5.078-8.526.132 2.685 2.179 4.727 4.315 6.051z" fill="#1c768c"/><path data-name="Path 8283" d="M55.003 242.848a10.194 10.194 0 0 1 4.734-5.742 1.7 1.7 0 0 1 .277-.151 1.6 1.6 0 0 1 1.4.2 14.1 14.1 0 0 0-.8.51 9.98 9.98 0 0 0-.707.56c-2.976 2.613-2.5 6.156 1.453 8.453a5.475 5.475 0 0 0-2.3 4.274 11.944 11.944 0 0 1-2.5-1.879 6.183 6.183 0 0 1-1.557-6.225z" fill="#dceaf0"/><path data-name="Path 8284" d="M181.033 258.297a1.886 1.886 0 0 0 .747-1.744v-.738c2.24-1.291 4.387-3.373 4.387-6.131a8.558 8.558 0 0 1-3.147 7.211 11.711 11.711 0 0 1-1.719 1.232 6.778 6.778 0 0 1-.268.17z" fill="#b6ccd6"/><path data-name="Path 8285" d="M179.484 251.548c4.558-2.627 4.582-6.9.057-9.523a1.6 1.6 0 0 1 1.549-.13c2.821 1.706 5.077 4.246 5.077 7.789.008 2.222-1.45 4.444-4.387 6.131a5.53 5.53 0 0 0-2.296-4.267z" fill="#cfe0e8"/><path data-name="Path 8286" d="M113.949 282.845c0 .845-.079 1.956.762 2.474q-27.435-15.968-54.892-31.9c-.844-.567-.754-1.587-.763-2.475z" fill="#1e7e96"/><path data-name="Path 8287" d="M134.973 282.845l46.807-27.03a2.324 2.324 0 0 1-.747 2.482q-23.4 13.507-46.806 27.022c.837-.486.757-1.635.746-2.474z" fill="#b6ccd6"/><path data-name="Path 8288" d="M113.949 282.845l-54.893-31.9c-.133-1.462 1.011-3.762 2.3-4.274l54.884 31.9a5.331 5.331 0 0 0-2.291 4.274z" fill="#dceaf0"/><path data-name="Path 8289" d="M132.678 278.578l.2-.114c5.254-3.033 11.247-7.376 16.665-10.448 10.278-5.827 20.149-11.05 29.945-16.468a5.41 5.41 0 0 1 2.3 4.267l-46.807 27.03a5.387 5.387 0 0 0-2.303-4.267z" fill="#cfe0e8"/><path data-name="Path 8290" d="M61.409 237.151q23.4-13.508 46.8-27.02c4.551-2.629 11.917-2.629 16.442 0q27.441 15.949 54.886 31.894c4.525 2.628 4.5 6.9-.057 9.523q-23.4 13.519-46.806 27.03c-4.55 2.627-11.916 2.627-16.442 0q-27.438-15.952-54.884-31.9c-4.522-2.633-4.498-6.9.061-9.527z" fill="#e8f3f7"/><path data-name="Path 8291" d="M113.949 282.845c0-1.437 1.014-3.688 2.287-4.267a13.605 13.605 0 0 0 1.574.753c4.526 1.764 10.616 1.678 14.868-.753a5.369 5.369 0 0 1 2.295 4.267c-5.955 3.47-15.447 3.222-21.024 0z" fill="#cfe0e8"/><path data-name="Path 8292" d="M113.949 282.845c6 3.487 15.59 3.163 21.024 0 .073.862.2 1.778-.583 2.376-2.524 1.922-8.236 2.557-10.968 2.465a19.509 19.509 0 0 1-8.711-2.367c-.848-.531-.762-1.62-.762-2.474z" fill="#b6ccd6"/></g></g><g data-name="Group 4811"><path data-name="Path 8293" d="M69.265 310.867q-27.435-15.968-54.891-31.9c-3.232-2.1-5.079-4.093-5.079-8.526a7.125 7.125 0 0 1 .262-2.048 10.2 10.2 0 0 1 4.734-5.742c.052-.033.12-.077.186-.111h-.01s.009 0 .029-.008l.027-.012c1.6-.744 20.532-11.371 25.773-14.589h.01a19.7 19.7 0 0 1 8.474-2.323 21 21 0 0 1 9.113 1.5 15.9 15.9 0 0 1 1.809.893q27.309 15.872 54.618 31.74c.141.081.282.163.421.249 2.748 1.705 4.923 4.216 4.923 7.695a8.558 8.558 0 0 1-3.147 7.211 11.719 11.719 0 0 1-1.72 1.232 5.132 5.132 0 0 1-.235.15h-.005l-.017.01-25.611 14.488c-2.536 1.91-8.222 2.54-10.945 2.448a19.52 19.52 0 0 1-8.719-2.357z" fill="#dceaf0"/><g data-name="Group 4810"><path data-name="Path 8294" d="M40.296 247.932a19.72 19.72 0 0 1 8.487-2.329 21 21 0 0 1 9.113 1.5 15.9 15.9 0 0 1 1.809.893 2.541 2.541 0 0 0-1.533.138c-4.525-2.629-11.908-2.637-16.459-.008a3.887 3.887 0 0 0-1.417-.194z" fill="#dceaf0"/><path data-name="Path 8295" d="M14.338 262.926c0 .195 20.655-11.737 25.968-15a1.7 1.7 0 0 1 1.407.2l-25.878 14.953c-.175-.049-1.497-.15-1.497-.153z" fill="#dceaf0"/><path data-name="Path 8296" d="M58.156 248.13a1.528 1.528 0 0 1 1.549-.13l54.885 31.9a1.568 1.568 0 0 0-1.55.13z" fill="#cfe0e8"/><path data-name="Path 8297" d="M13.482 276.881c.008.815-.043 1.96.763 2.474-3.231-2.095-5.078-4.093-5.078-8.525.133 2.684 2.179 4.727 4.315 6.051z" fill="#cfe0e8"/><path data-name="Path 8298" d="M9.429 268.781a10.19 10.19 0 0 1 4.734-5.742 1.567 1.567 0 0 1 .276-.151 1.6 1.6 0 0 1 1.4.195q-.428.256-.8.511c-.252.186-.5.373-.707.56-2.976 2.612-2.5 6.155 1.453 8.452a5.476 5.476 0 0 0-2.3 4.275 11.941 11.941 0 0 1-2.5-1.879 6.182 6.182 0 0 1-1.556-6.221z" fill="#dceaf0"/><path data-name="Path 8299" d="M114.533 296.297a1.884 1.884 0 0 0 .746-1.744v-.738c2.241-1.292 4.389-3.373 4.389-6.131a8.561 8.561 0 0 1-3.148 7.211 11.719 11.719 0 0 1-1.72 1.232 4.347 4.347 0 0 1-.267.17z" fill="#b6ccd6"/><path data-name="Path 8300" d="M112.985 289.549c4.557-2.628 4.581-6.9.055-9.524a1.6 1.6 0 0 1 1.55-.13c2.82 1.706 5.078 4.245 5.078 7.789.008 2.222-1.451 4.443-4.389 6.131a5.53 5.53 0 0 0-2.294-4.266z" fill="#cfe0e8"/><path data-name="Path 8301" d="M68.373 308.777c0 .845-.078 1.957.763 2.474q-27.435-15.968-54.892-31.9c-.844-.566-.754-1.587-.763-2.474z" fill="#cfe0e8"/><path data-name="Path 8302" d="M89.4 308.777l25.879-14.962a2.323 2.323 0 0 1-.746 2.482c-15.6 9-10.277 5.948-25.88 14.954.837-.484.756-1.635.747-2.474z" fill="#b6ccd6"/><path data-name="Path 8303" d="M68.373 308.777l-54.892-31.9c-.133-1.463 1.01-3.763 2.3-4.275l54.884 31.9a5.331 5.331 0 0 0-2.292 4.275z" fill="#dceaf0"/><path data-name="Path 8304" d="M87.104 304.51s.072-.04.195-.114c5.254-3.033 11.247-7.376 16.666-10.448 10.278-5.827-.777 1.018 9.02-4.4a5.409 5.409 0 0 1 2.294 4.266L89.4 308.776a5.388 5.388 0 0 0-2.296-4.266z" fill="#cfe0e8"/><path data-name="Path 8305" d="M15.835 263.083c15.6-9 10.272-5.95 25.878-14.953 4.551-2.629 11.917-2.629 16.443 0q27.439 15.951 54.884 31.9c4.526 2.628 4.5 6.9-.055 9.524-15.6 9.011-10.273 5.949-25.881 14.961-4.55 2.627-11.916 2.627-16.442 0q-27.439-15.953-54.884-31.9c-4.526-2.638-4.505-6.905.057-9.532z" fill="#e8f3f7"/><path data-name="Path 8306" d="M68.373 308.777c0-1.437 1.015-3.687 2.288-4.267a13.447 13.447 0 0 0 1.574.754c4.525 1.764 10.615 1.678 14.868-.754a5.364 5.364 0 0 1 2.3 4.267c-5.959 3.471-15.452 3.226-21.03 0z" fill="#cfe0e8"/><path data-name="Path 8307" d="M68.373 308.777c6 3.488 15.591 3.163 21.026 0 .072.863.2 1.779-.585 2.377-2.524 1.922-8.235 2.557-10.967 2.464a19.506 19.506 0 0 1-8.711-2.367c-.848-.53-.763-1.62-.763-2.474z" fill="#b6ccd6"/></g></g></g><g data-name="Group 4823" fill-rule="evenodd"><g data-name="Group 4813"><path data-name="Path 8308" d="M220.905 147.018c2.241 5.586-5.642 10.241-10.464 13.736-7.219 5.231-13.275 11.1-21.808 13.36-2.871 2.848-4.508 4.93-7.526 6.784-6.156 3.78-11.755 5.418-19.3 8.351-2.918 1.135-5.618 2.575-8.6 3.654-2.225.806-4.943 1.644-7.706 2.388a64.7 64.7 0 0 0-7.625 2.887 120.606 120.606 0 0 0-7.848 3.381c-1.515.715-3.831 1.572-6.085-2.613-.2-2.205 3.629-3.977 5.437-4.987l6.711-3.744c-3.57.158-3.591-2.115-2.6-3.4.666-.864 2.315-1.239 3.624-1.933a46.866 46.866 0 0 0 4.056-2.5c3.065-1.758 3.13-1.587 4.407-1.358 1.745.314 2.872 1.453 4.567 1.722 1.481.235 3.028-.025 5.573-1.175 8.039-3.631 9.586-9.887 21.978-14.354 7.567-7.358 11.286-15.036 19-20.09 7.39-8.936 22.439-4.522 24.209-.109z" fill="#f1b287"/><path data-name="Path 8309" d="M198.882 149.711c-1.085 2.782.5 6.3-1.374 8.44-2.6 2.97-10.2 6.026-15.1 10.215-2.871 2.848-4.876 5.745-7.894 7.6-11.644 7.151-10.711 6.576-22.822 10.965-2.223.805-5.77 2.3-6.443 2.2-2.906-.46.462-2.965.086-4.941-2.345-.27-6.665 2.531-9.222 3.295-1.29.385-2.32-.024-1.819-1.317.8-.458 1.9-.791 2.825-1.283a46.6 46.6 0 0 0 4.056-2.5c3.065-1.758 3.13-1.587 4.407-1.358 1.745.314 2.872 1.453 4.567 1.722 1.481.235 3.028-.025 5.573-1.175 8.039-3.631 9.586-9.887 21.978-14.354l9.258-10.456 9.74-9.634z" fill="#fcc19a"/><path data-name="Path 8310" d="M210.441 160.754c-6.63 5.96-13.275 11.1-21.808 13.36-2.871 2.848-4.508 4.93-7.526 6.784-6.156 3.78-11.755 5.418-19.3 8.351-2.918 1.135-5.618 2.575-8.6 3.654-2.225.806-4.943 1.644-7.706 2.388-4.58 1.231-11.865 6.684-16.244 8.75-3.209.142-2.947-.966-5.314-5.095-.2-2.205 3.629-3.977 5.437-4.987l6.711-3.744c-3.57.158-3.591-2.115-2.6-3.4-.4 2.221.268 2.809 2.025 2.586a25.9 25.9 0 0 0 6.3-2.2 18.543 18.543 0 0 1 2.118-1.3c-4.077 2.852-8.252 5.968-10.932 7.484-2.975 1.683-.473 5.451 3.718 4.422 2.413-.593 10.634-5.512 15.523-7.111 1.425-.466 5.767-2.513 8.312-3.662 7.752-3.5 21.067-7.81 24.834-15.906 5.962-5.8 15.807-6.075 17.721-11.318.515-1.412-2.351-5.973-2.66-7.757 3.709 2.393 24.2-4.072 9.991 8.701z" fill="#e8a476"/></g><path data-name="Path 8311" d="M182.189 161.554l5.584 4.3 26.7-2.825c6.644-24.5-3.84-25.5-16.154-18.392-6.085 3.515-11.286 10.902-16.13 16.917z" fill="#d2eefc"/><path data-name="Path 8312" d="M260.049 196.33a212.079 212.079 0 0 1-26.008 20.361c-32.78 22.281-82.136 49.989-114.265 68.778-18.1 10.584-30.669 21.788-35.569 19.419-6.746-3.261-60.956-31.445-69.583-39.02l138.82-80.964 76.764-20.344c2.826 3.705 4.856 7.528 5.366 11.163 1.189 6.423 12.561 16.944 24.475 20.607z" fill="#248ca6"/><g data-name="Group 4816"><g data-name="Group 4814" fill="#e8a476"><path data-name="Path 8313" d="M50.201 251.081c2.36 6.641 4.938 10.122 8.486 11.193 2.39.723 5.288.236 9.013-1.386l1.969 9.7c-3.728 2.461-6.649 4.239-8.255 5.462-3.407 2.6-6.156 5.676-9.166 5.9a6.856 6.856 0 0 1-5.292-1.9c-.548-1.136 1.607-2.949 1.2-5.086l-2.26-20.125z"/><path data-name="Path 8314" d="M46.212 244.206c5.424.994 3.52 7.521 4.244 9.755l3.646 17.245a28.719 28.719 0 0 1 .554 6.744c-.534 5.851-8.11 4-9.886-.366a8.366 8.366 0 0 1-.28-4.262 11.419 11.419 0 0 0-1.778-9.274c-3.413-5.509-5.844-9.69-4.613-16.023-.125-1.335-.968-3.553-.1-5.107.829-1.487 4.662.157 8.213 1.288z"/></g><path data-name="Path 8315" d="M200.425 208.82c-1.9 6.843-9.628 12.155-13.489 15.3-7.369 6-18.921 9.913-31.608 13.165-6.488 1.664-13.284 6.939-18.7 9.965l-24.5-24.208c3-3.115 6.358-5.8 8.879-8.563 11.189-12.264 19.532-19.84 36.828-26.156 4.683-1.711 5.342-3.329 10.471-6.043 4.191-2.218 5.955-4.564 7.847-6.412 4.452-4.349 8.913-10.329 14.107-15.938.391-4.325 6.656-7.745 12.258-10.332 2.724-1.258 3.1-3.473 6.179-5.054 3.19-2.375 10.8-2.667 16.437.921 4.959 4.724 3.562 5.4 6.367 6.995 5.7 3.236 10.151 2.7 16 4.692 6.523 2.216 10.433 8.4 9.716 13.462-1.339 9.466-13.17 14.828-22.945 17.649-12.287 3.545-18.243 5.539-27.148 12.946-2.799 2.319-3.905 3.5-6.699 7.611z" fill="#f1b287"/><path data-name="Path 8316" d="M166.512 182.182c-1.881 1.33-5.382 4.276-6.959 4.536-22.55 3.724-37.428 24.025-49.477 36.79-4.488 2.877-5.112 4.992-7 9.677-12.429 12.813-32.124 19.32-44.917 29.379l8.166 9.029a15.89 15.89 0 0 1 6.272-4.015c18.991-5.533 29.271-4.08 38.09-12.064 3.454-3.127 5.688-8.238 10.617-12.955 11.391-7.041 24.228-10.6 35.145-18.339 7-.309 12.212-1.447 16.233-4.244 4.252-2.959 12.275-19.435 14.975-25.22z" fill="#f1b287"/><path data-name="Path 8317" d="M156.635 187.302l-2.277 7.971c-17.546 5.6-30.793 23.824-37.762 29.758-3.187 2.715-3.087 2.435-5.7-.01a8.847 8.847 0 0 0 1.369 3.281c-.5 3.314-5.115 5.119-8.754 3.789 1.577-3.94 2.438-5.941 6.561-8.583 11.522-12.206 25.63-31.3 46.559-36.206zm-53.61 53.324c-11.033 13.145-24.13 16.117-41.415 22.749l-2.334.423-1.116-1.234c12.229-9.615 30.762-15.986 43.229-27.72a15.715 15.715 0 0 0 1.636 5.782z" fill="#fcc19a"/><path data-name="Path 8318" d="M63.014 269.238l3.312 3.934c1.442-.894 6-3.74 8.026-4.4 18.991-6.183 27.517-5.295 36.336-13.581 3.454-3.246 5.688-8.434 10.617-13.319 9.521-6.211 20.051-10.026 29.627-15.847 10.545-1.465 14.9-2.689 21.751-8.5 4.014-3.4 14.608-15.572 17.308-21.449l-4.159-3.889c-1.776 2.1-23.887 13.322-25.877 8.04-.726-1.927-1.375-6.062 2.374-12.738-5.166 3.017-5.241 9.781-6.2 10.176-7.184 2.962-21.963 13.8-36.285 30.58-5.015 4.982-14.512 7.574-16.5 4.933-.713 2.667 3.351 5.419 5.961 6.323-18.499 21.178-26.089 17.344-46.291 29.737z" fill="#e8a476"/><g data-name="Group 4815"><path data-name="Path 8319" d="M60.555 260.414c2.361 6.641 4.938 10.122 8.486 11.193 2.391.723 5.288.236 9.013-1.386l1.969 9.7c-3.728 2.461-6.649 4.24-8.254 5.463-3.408 2.6-6.156 5.675-9.167 5.9a6.856 6.856 0 0 1-5.292-1.9c-.548-1.136 1.607-2.95 1.2-5.087l-2.26-20.124z" fill="#e8a476"/><path data-name="Path 8320" d="M49.505 249.867a13.2 13.2 0 0 1 2.721 1.07c1.669.664 3.156 1.161 4.119 2.594 1.827.4 2.866 1.906 2.9 4.167 2 1.432 1.224 4.549 1.564 5.595l3.646 17.245a28.719 28.719 0 0 1 .554 6.744c-.534 5.851-8.11 4-9.886-.365a8.37 8.37 0 0 1-.28-4.263 11.416 11.416 0 0 0-1.778-9.274c-2.278-3.677-5.159-8.156-5.727-10.621a13.55 13.55 0 0 1 .273-5.846c-.124-1.335-.98-3.188-.731-5.1.204-1.553 1.005-2.177 2.625-1.946z" fill="#f1b287"/></g><path data-name="Path 8321" d="M179.491 187.318c-1.444.8-9.372 10.32-10.969 10.592-26.221 4.476-32.75 21.461-47.8 36.657-4.489 3.03-6.132 3.854-8.021 8.6-6.3 8.02-15.322 13.223-24.029 17.778-7.331 3.836-15.4 8.7-20.1 10.494 2.213.852 5.453 8.452 2.932 14.383 1.312-1.58 8.693-6.559 10.718-7.219 18.992-6.184 29.271-5.082 38.09-13.367 3.455-3.246 5.689-8.433 10.618-13.319 9.52-6.211 20.051-10.026 29.627-15.846 10.546-1.466 14.9-2.69 21.75-8.5 4.016-3.4 14.609-15.572 17.309-21.449z" fill="#f1b287"/><path data-name="Path 8322" d="M176.573 209.776c-1.734-8.537-14.732-7.617-19.028-8.9-17.5 6.784-24.131 20.873-36.825 33.69-4.489 3.03-6.132 3.854-8.021 8.6-6.3 8.02-15.322 13.223-24.029 17.778-7.331 3.836-15.4 8.7-20.1 10.494a5.539 5.539 0 0 1 2.283 2.747c13.908-5.892 39.568-11.286 45.95-23.143a29.8 29.8 0 0 1-2.727-7.244c8.7 2.878 10.757-1.288 15.685-6.174 3.612-2.349 28.996-9.081 46.812-27.848z" fill="#fcc19a"/><path data-name="Path 8323" d="M72.347 279.361a12.738 12.738 0 0 1-.843 6.393c3.067-2.228 9.876-6.707 12.763-7.612 18.063-5.666 27.456-4.831 36.045-12.9 3.455-3.246 5.689-8.433 10.618-13.319 9.52-6.211 20.051-10.026 29.627-15.846 10.546-1.466 14.9-2.69 21.75-8.5 4.016-3.4 10.307-6.677 13.007-12.554l-1.08-4.971-5.9-15.707-21.452-12.232-1.208.6c6.368 6.1 19.785 16.743 20.712 25.789-2.194 2.447-4.532 4.986-5.825 6.244-5.25 4.168-41.124 18.672-55.61 33.318-.785.9-7.511-.774-9.494-3.416 1.182 2.778 3.5 6.623 6.106 7.526-18.507 21.18-29.014 14.793-49.216 27.187z" fill="#e8a476"/></g><path data-name="Path 8324" d="M241.511 157.377l-10.914-2.024-10.377-4.028a33.538 33.538 0 0 0 6.622-4.1 20.463 20.463 0 0 0 7.669-11.21l20.271 1.531 4.666-.656-1.531 5.323c-5.5 3.622-14.455 8.24-16.134 13.309a5.1 5.1 0 0 0-.272 1.855z" fill="#e8a476"/><path data-name="Path 8325" d="M229.804 144.724a21.032 21.032 0 0 0 4.707-8.711l20.271 1.531 4.666-.656-1.531 5.323c-3.733 2.46-8.262 3.849-13.138 6.621-6.918 3.511-16.188-1.69-14.975-4.108z" fill="#db9669"/><path data-name="Path 8326" d="M252.12 142.539l-2.953-5.141c-3.925-.885-16.184-5.366-18.907-1.95-1.762 2.211.532 4.623 1.623 6.672 7.341 2.084 9.407 4.822 12.546 4.513 1.695-.166 3.957-1.64 7.691-4.094z" fill="#e8a476"/><path data-name="Path 8327" d="M237.849 125.867c-.457.6-.741 1.763-1.392 2.924-.615 1.094-4.483 4.5-5.531 5.737-.747.882-1.259 1.747-.026 2.3a34.657 34.657 0 0 1 4.022 2.309c3.222 2.018 7.064 5.106 8.765 5.663 1.329.434 1.977.01 3.476-.729 7.483-1.72 14.524-5.982 11.59-15.284-1.81-5.743-6.941-8.382-12.5-7.766a11.155 11.155 0 0 0-2.212.476 15.078 15.078 0 0 0-6.192 4.37z" fill="#f1b287"/><path data-name="Path 8328" d="M243.735 121.629c2.31-.9 8.975.994 11.305 5.177.644 1.157.928 2.535-.348 3.347-.836.532-1.655.573-1.9 1.14a4.451 4.451 0 0 0-.089 2.2c.273 2.348-.541 4.419-3.6 5.576l.839 2.079a26.979 26.979 0 0 1 4.192-.765c1.309 3.584-3.88 4.285-4.666 7.254l4.629-1.6c6.722-1.264 14.958-10.133 8.008-20.089-4.196-5.998-10.917-9.556-18.37-4.319z" fill="#361d07"/><path data-name="Path 8329" d="M243.735 121.629c2.31-.9 8.975.994 11.305 5.177 1.81 1.593 7.934 1.177 10.22 5.264a13.612 13.612 0 0 0-5.163-10.561c-4.343-3.712-10.424-4.869-16.362.12z" fill="#4a2b12"/><path data-name="Path 8330" d="M255.888 140.067c2.278 1.915.316 4.471-1.947 4.662-1.458.122-1.6-.049-2.71.6-2.136 1.244-5.312-.656-.708-3.718 1.85-1.237 3.303-3.282 5.365-1.544z" fill="#f1b287"/><g data-name="Group 4817"><path data-name="Path 8331" d="M259.892 169.892c1.511 6.032-2.643 12.884-7.231 16.984-6.866 6.135-12.47 12.808-21 16.024-2.65 3.229-4.113 5.541-7.018 7.763-5.927 4.534-13.651 7.715-21.1 11.524a47.767 47.767 0 0 0-4.934 3.046c-8.025 5.979-8.666 5.595-11.725 5.587-3.441.519-6.622.035-8.443.311-1.406.213-12.252 6.887-13.557 5.315l-3.175-5.226c-.334-.756-.135-.89.837-1.379 3.192-1.6 9.6-7 14.381-10.168 8.791-1.143 11.6-.7 16.9-3.3a47 47 0 0 0 2.654-1.43c7.878-4.579 10.951-12.078 23.214-17.974 7-8.358 10.012-16.638 17.4-22.644 3.318-8.836 8.318-12.344 13.514-12.125a10.026 10.026 0 0 1 9.283 7.692z" fill="#f1b287"/><path data-name="Path 8332" d="M175.81 220.436a17.53 17.53 0 0 0 1.968 5.79c7.694-2.859 11-.263 17.519-4.894 7.2-5.117 17.937-9 24.3-14.215 2.476-2.03 3.8-3.9 2.784-5.216-1.392-1.8-2.721-2.722-4.022-4.263-11.154 5.784-14.287 12.894-21.869 17.3-.833.483-1.8 1.01-2.654 1.43-5.306 2.609-8.113 2.161-16.9 3.3-.365.242-.739.5-1.121.763zm45.141-25.012c7.581 1.523 13.327.242 19.952-7.586 1.435-1.7 1.026-2.9.321-4.417-1.352-2.906-2.862-6.307-5.224-8.155-6.176 5.53-9.246 12.76-15.049 20.158zm29.669-33.228a9.814 9.814 0 0 1 1.734.234 12.9 12.9 0 0 1 .855 8.834c-1.422 4.788-5.542 6.774-8.759 6.347-2-.266-4.476-2.515-6.992-4.189 3.315-8.175 8.146-11.437 13.162-11.226z" fill="#fcc19a"/><path data-name="Path 8333" d="M259.892 169.892c1.511 6.032-2.643 12.884-7.231 16.984-6.866 6.135-12.47 12.808-21 16.024-2.65 3.229-4.113 5.541-7.018 7.763-5.927 4.534-13.651 7.715-21.1 11.524-1.191.664-3.983 1.943-4.934 3.046-1.735 2.014-2.441 3.12-3.076 3.925-2.284 2.9-6.14 3.52-9.6 2.95-2.906-.477-5.5-1.539-7.487-.977-1.406.213-12.252 6.887-13.557 5.315l-3.175-5.226c-.187-.426-.207-.655-.014-.859.893 1.3 3.084 3.991 4.143 4.006 2.692.036 8.315-3.993 11.518-6.114 8.79-1.143 10.571.182 15.875-2.427 1.663-.818 5.662-4.429 8.325-5.976 6.992-4.064 19.857-9.076 24.39-16.782.391-.666-4.38-4.615-4.011-5.249.423-.725 6.257 1.288 7.813.565 6.911-3.212 14-6.664 15.28-11.707.381-1.5-3.046-5.889-3.55-7.689 12.37 6.3 16.858-3.973 14.542-14.894a10.079 10.079 0 0 1 3.867 5.798z" fill="#e8a476"/></g><g data-name="Group 4818"><path data-name="Path 8334" d="M170.094 179.861a48.648 48.648 0 0 0 7.827-6.748c3.867-3.921 5.669-10.509 10.068-15.259.429-7.14 11.91-13.409 18.328-15.532 3.408-2.3 12.133-1.61 18.934 3.035.7.668 1.273 1.256 1.748 1.778a3.178 3.178 0 0 0-.906 5.218c2.666 2.567 10.043 3.647 15.637 3.305a44.874 44.874 0 0 1 5.832 1.459c6.522 2.217 10.432 8.4 9.716 13.463-1.339 9.466-13.17 14.828-22.945 17.649-12.287 3.545-18.646 5.079-27.148 12.946-1.8 1.669-9.823 10.747-12.676 15.168.074-11.152-12.329-25.1-28.276-33.993z" fill="#d2eefc"/><path data-name="Path 8335" d="M170.094 179.861l-3.138 2.023c9.887 4.629 15.35 9.244 22.485 17.493 3.769-4.89 7.664-9.137 11.454-13.979-6.2-5.754-5.847-12.243-8.261-14.169-5.067-2.273-6.191-3.119-9.5-6.125-1.625 2.975-3.114 5.884-5.21 8.009a48.648 48.648 0 0 1-7.827 6.748zm36.223-37.539c3.246-2.192 11.32-1.669 17.956 2.4-7.118 8.205 8.955 13.5 16.713 12.235a12.883 12.883 0 0 1 4.455 2.147c-5.963 2.02-7.771 3.376-10.438 6.613-6.647 8.069-12.695 12.326-19.309 11.956-5.695-.317-12.174-4.736-13.626-10.386-.416-1.622.3-1.757 1.219-2.868 3.969-4.82 13.883-8.645 19.623-11.221-8.664 0-13.243 3.919-19.965 7.75-5.612 3.2-11.463 1.36-13.9-4.454a7.962 7.962 0 0 1-.408-1.268c2.569-6.012 12.063-11.045 17.68-12.904z" fill="#e0f5ff"/><path data-name="Path 8336" d="M200.491 208.79a44.963 44.963 0 0 1-5.169 9.185c-1.393-5.066-1.707-9.717-4.985-14.306 4.938-6.183 9.848-12.867 14.047-17.837-2.432-2.668-7.451-13.233-8.671-14.685a6.328 6.328 0 0 0-2.166-1.9 32.707 32.707 0 0 1-9.007-6.447 22.584 22.584 0 0 1 3.411-4.945c4.153 5.952 8.887 5.716 11.328 8.433 5.894 10.8 13.625 17.35 25.7 11.3 8.882-4.448 26.318-24.5 31.469-12.441a10.248 10.248 0 0 1 .827 5.428c-1.339 9.466-13.17 14.828-22.945 17.649-12.287 3.545-18.243 5.538-27.148 12.946-2.791 2.328-3.897 3.509-6.691 7.62z" fill="#c3e6f7"/></g><g data-name="Group 4819"><path data-name="Path 8337" d="M120.373 210.904c3.733-3.81 7.725-7.678 11.863-11.215 9.31-8.382 25.8-16.384 32.479-19.4 6.217-2.809 13.06-10.009 17.951-15.582 2.949-3.359 3.168-6.3 5.445-9.652a41.98 41.98 0 0 1 11.762-10.719c22.278 7.253 34.432 22.324 35.7 31.387.788 4.255 6.046 10.308 12.97 14.975-5.18 4.913-10.109 9.648-16.883 12.2-2.65 3.229-4.113 5.541-7.018 7.763-5.927 4.534-13.651 7.715-21.1 11.524a47.767 47.767 0 0 0-4.934 3.046c-8.025 5.979-8.666 5.595-11.725 5.587-3.441.519-6.622.035-8.443.311-1.406.213-12.252 6.887-13.557 5.315l-.566-.932c-1.165.19-2.414.374-3.765.562-9.575 5.82-20.107 9.635-29.627 15.846-4.929 4.886-7.163 10.073-10.618 13.319-8.819 8.285-19.1 7.183-38.09 13.367a14.105 14.105 0 0 0-2.237 1.123l.038.188c-3.049 2.012-5.556 3.567-7.247 4.737a10.107 10.107 0 0 0-1.272 1.171c.049-.116.1-.233.141-.35-3.351 2.576-6.069 5.583-9.043 5.808a6.906 6.906 0 0 1-3.97-.9 6.782 6.782 0 0 1-3.508-3.463 8.37 8.37 0 0 1-.28-4.263c.1-.588.175-1.143.225-1.677a6.666 6.666 0 0 1-2.821.974 6.906 6.906 0 0 1-3.97-.9 6.78 6.78 0 0 1-3.508-3.464 8.366 8.366 0 0 1-.28-4.262 11.419 11.419 0 0 0-1.778-9.274c-3.413-5.509-5.844-9.69-4.613-16.023-.125-1.335-.968-3.553-.1-5.107.483-.865 1.982-.671 3.851-.134a3.987 3.987 0 0 1-.236-.1c30.443-.758 50.405-16.534 78.764-31.786z" fill="#248ca6"/><path data-name="Path 8338" d="M46.212 244.206c3.344.613 3.9 3.328 4.008 5.844.6.217 1.19.564 2.007.888 1.668.664 3.155 1.161 4.118 2.594 1.827.4 2.866 1.906 2.9 4.167 2 1.432 1.224 4.548 1.564 5.595l3.646 17.245c.07.431.138.88.2 1.339 2.916-1.069 8.6-3.07 8.906-3.249 19.414-11.413 29.866-5.7 48-26.449-2.61-.9-4.924-4.748-6.106-7.526 1.983 2.642 8.709 4.315 9.494 3.416 14.486-14.646 50.36-29.15 55.61-33.318 1.293-1.258 3.631-3.8 5.825-6.244 6.357-6.169 11.888-15.489 17.934-22.646-2.431-2.668-7.45-13.232-8.669-14.684a6.326 6.326 0 0 0-2.167-1.9 32.719 32.719 0 0 1-9.007-6.448 22.517 22.517 0 0 1 3.412-4.944c4.152 5.951 8.885 5.714 11.327 8.432 5.894 10.8 13.625 17.351 25.7 11.3 2.548-1.276 5.8-3.836 9.263-6.554a17.6 17.6 0 0 1 1.385 4.594c-6.307 5.866-9.369 13.552-15.861 21.3-12.263 5.9-15.336 13.4-23.214 17.974-.86.5-1.759.989-2.654 1.43-5.306 2.609-8.113 2.161-16.9 3.3-4.783 3.168-11.189 8.563-14.381 10.168-.972.489-1.171.623-.837 1.379l2.609 4.294.3.494c.272.19.657.421 1.1.672 2.907-.151 11.485-5.361 12.725-5.549 1.821-.276 5 .208 8.443-.311 3.059.008 3.7.392 11.725-5.587a47.767 47.767 0 0 1 4.934-3.046c7.445-3.809 15.169-6.99 21.1-11.524 2.9-2.222 4.368-4.534 7.018-7.763 6.774-2.554 11.7-7.289 16.883-12.2a49.516 49.516 0 0 0 2.835 1.777c-11.233 10.375-29.885 28.259-42.872 34.654-18.326 9.025-46.635 22.1-72.816 37.2-23.524 13.571-42.33 31.155-60.577 34.341-3.566.622-17.7-7.337-24.039-10.78a90.553 90.553 0 0 1-8.2-4.952c-1.407-1.508.829-4.81 1.618-9.617a11.419 11.419 0 0 0-1.778-9.274c-3.413-5.509-5.844-9.69-4.613-16.023-.125-1.335-.968-3.553-.1-5.107.818-1.477 4.651.167 8.202 1.298z" fill="#1c768c"/><path data-name="Path 8339" d="M187.904 155.567c5.117 4.349 7.029 4.538 11.53 7.545 10.242 6.844 2.847 14.14 18.7 8.817a41.953 41.953 0 0 0 12.471-6.841 58.766 58.766 0 0 0-30.332-20.906 34.639 34.639 0 0 0-12.371 11.385zm3.634 17.406c2.055 2.435 3.655 7.886 5.994 10.838-19.566 17.656-32.473 26.273-48.9 35.071-6.591 3.531-36.24 18.31-58.57 28.322-15.08 6.761-26.9 9.189-30.063 5.886-3.346-3.489-6.226-5.988-14.083-10.354 28.752-2.383 45.121-13.7 75.863-33.577 7.431-4.8 12.735-11.921 20.238-16.577 14.062-8.723 19.885-9.415 27.226-14.777 4.32-3.155 7.582-6.833 13.652-12.674 1.94 4.061 6.378 5.158 8.643 7.845z" fill="#1b9ebf"/></g><g data-name="Group 4822"><path data-name="Path 8340" d="M241.763 198.75c-3.072 4.653-11.834-7.424-13.11-9.934-.688-1.353-1.439-4.148-.348-5.388 7.987-9.085 16.882 11.561 13.458 15.322z" fill="#aad2e6"/><g data-name="Group 4820"><path data-name="Path 8341" d="M172.455 223.535c3.741-2.444 15.943-3.978 19.695-5.511 10.694-4.368 21.515-19.164 27.841-20.444 7.547-1.526 12.5-21.729 17.527-21.373 1.4-3.844 4.446-11.956 11.454-13.882 2.454-.72 4.5-.437 7.168 1.581a10.07 10.07 0 0 1 4.137 5.986c1.511 6.032-2.643 12.884-7.231 16.984-6.866 6.135-12.47 12.808-21 16.024-2.649 3.229-4.113 5.541-7.018 7.763-5.927 4.534-13.651 7.715-21.095 11.524a47.841 47.841 0 0 0-4.935 3.046c-8.025 5.979-8.666 5.595-11.725 5.587-3.44.519-6.622.035-8.443.311-1.405.213-12.252 6.887-13.557 5.315l-.566-.932-2.674-4.766q.089-.259.176-.519z" fill="#f1b287"/><path data-name="Path 8342" d="M239.406 177.893c-.822 2.972 1.18 6.419-.523 8.816-2.363 3.327-9.075 5.983-13.668 10.8-2.649 3.229-4.4 6.416-7.31 8.638-11.21 8.576-19.389 12.9-31.369 18.687-.838.4-3.466-.265-10.3 1.393-1.921.467-4.021 2.076-5.89 4.106-1.99.147-2.836-1.641-3.164-3.022.772-.556 2.086-1.426 2.96-2.067 2.055-1.5 3.957-3.038 4.161-3.185 2.966-2.13 3.995-2.748 5.332-2.648a27.89 27.89 0 0 0 16.316-3.651c7.88-4.578 12.043-13.039 24.306-18.936 7-8.358 9.242-15.355 16.634-21.361 3.317-8.836 9.088-13.627 14.285-13.408 3.929.17 6.114 17.095-11.77 15.838z" fill="#fcc19a"/><path data-name="Path 8343" d="M260.273 169.892c1.511 6.032-2.643 12.884-7.231 16.984-6.866 6.135-12.47 12.808-21 16.024-2.649 3.229-4.113 5.541-7.018 7.763-5.927 4.534-13.651 7.715-21.095 11.524-1.191.664-3.984 1.943-4.935 3.046-1.735 2.014-2.441 3.12-3.076 3.925-2.284 2.9-6.14 3.52-9.6 2.95-2.907-.477-5.5-1.539-7.488-.977-1.405.213-12.252 6.887-13.557 5.315l-3.174-5.226c-.188-.426-.208-.655-.015-.859.893 1.3 3.085 3.991 4.143 4.006 2.692.036 8.315-3.993 11.518-6.114 8.791-1.143 10.571.182 15.875-2.427 1.663-.818 5.662-4.429 8.324-5.976 6.993-4.064 19.859-9.076 24.392-16.782.39-.666-4.382-4.615-4.012-5.249.423-.725 6.258 1.288 7.813.565 6.91-3.212 14-6.664 15.28-11.707.38-1.5-3.046-5.889-3.55-7.689 12.37 6.3 16.859-3.973 14.542-14.894a10.076 10.076 0 0 1 3.864 5.798z" fill="#e8a476"/></g><g data-name="Group 4821"><path data-name="Path 8344" d="M230.552 184.609c2.47-4.577 4.711-8.562 6.966-8.4 1.4-3.844 4.446-11.956 11.454-13.882 2.454-.72 4.5-.437 7.168 1.581a10.07 10.07 0 0 1 4.137 5.986c1.511 6.032-2.643 12.884-7.231 16.984-4 3.579-7.581 7.339-11.559 10.492a19.5 19.5 0 0 0-10.935-12.761z" fill="#d2eefc"/><path data-name="Path 8345" d="M239.406 177.893c-.822 2.972 1.18 6.419-.523 8.816a11.2 11.2 0 0 1-2.194 2.186 17.546 17.546 0 0 0-7.4-4.732l-1.02-.712c4.149-5.071 8.239-10.218 12-15.306 3.36-4.539 7.166-6.243 10.9-6.086 3.936.166 6.121 17.091-11.763 15.834z" fill="#e0f5ff"/><path data-name="Path 8346" d="M260.273 169.892c1.511 6.032-2.643 12.884-7.231 16.984-3.848 3.438-7.381 7.973-11.244 11.862a19.285 19.285 0 0 0-1.953-5.494c2.818-1.9 4.927-4.034 5.568-6.567.38-1.5-3.046-5.889-3.55-7.689 12.37 6.3 16.859-3.973 14.542-14.894a10.076 10.076 0 0 1 3.868 5.798z" fill="#c3e6f7"/></g></g></g><g data-name="Group 4824" fill-rule="evenodd"><path data-name="Path 8347" d="M265.731 179.85c-.572-.327-1.351-.8-2-.423 3.9-2.531 9.675-3.414 13.108-1.125l.58.333c-3.476-1.368-7.58.048-11.688 1.215z" fill="#248ca6"/><path data-name="Path 8348" d="M272.867 194.922a4.663 4.663 0 0 0 2.7-2.449 6.737 6.737 0 0 0-2.265-8.4c3.34 1.114 5.278 5.366 4.491 8.459-.607 2.372-2.627 4.919-4.926 2.39z" fill="#1c768c"/><path data-name="Path 8349" d="M270.473 191.643a8.925 8.925 0 0 0-5-1.724c-.915-.115-1.139.1-.911-.953a6.371 6.371 0 0 1 1.124-2.489 7.276 7.276 0 0 1 6.154-2.664c2.275.222 3.928 1.711 5.014 3.992.91 1.911 1.248 4.026.13 5.8a3.993 3.993 0 0 1-2.249 1.805 1.641 1.641 0 0 1-1.117-.088c-1.147-1.682-1.249-2.294-3.15-3.675zm-4.9 3.869c4.372.342 5.721 2.374 7.067 4.31 1.1 1.587 3.415 1.5 5.326.382 3.1-1.8 5.9-6.819 4.921-11.135-1.34-6.639-6.682-9.832-13.2-7.088a3.292 3.292 0 0 0-1.265.632c-6.611 4.028-7.794 12.796-2.849 12.899z" fill="#1c768c"/><path data-name="Path 8350" d="M190.035 243.555a6.278 6.278 0 0 0 2-2.228 27.766 27.766 0 0 0 1.715-3.672 37.741 37.741 0 0 1 4.684-8.814c1.7-2.388 2.932-3.42 3.841-5.989.575-1.957-.485-1.412 1.406-.665 1.8 1.027-2.9 7.751-5.975 12.37-1.334 2.007-3.326 8.684-4.675 9.479-1.268.817-2.718.682-2.996-.481z" fill="#1b9ebf"/><path data-name="Path 8351" d="M190.626 244.103a27.8 27.8 0 0 1 .478-4.081c1.8-6.867 7.4-15.842 12.478-17.654.577.632.159 1.947-.377 2.98a22.008 22.008 0 0 1-2.178 3.034 40.028 40.028 0 0 0-4.459 7.236c-.274.578-.534 1.17-.776 1.763 0 .275-1.791 4.474-1.85 4.575-.542.939-2.03 2.68-3.292 2.285-.009-.045-.018-.087-.024-.138zm-.014 5.429a4.777 4.777 0 0 0 4.014-.579 13.29 13.29 0 0 0 5.176-6.413c1.337-3.51 2.221-6.728 6.571-12.177 4.9-5.79 3.7-13.214-2.594-9.893a3.993 3.993 0 0 0-1.26.843c-6.485 4.864-11.94 14.359-13.24 22.574-.537 3.08.056 5.043 1.333 5.645z" fill="#1c768c"/><path data-name="Path 8352" d="M265.731 179.85c3.324-1.949 7.947-3.4 11.687-1.255 4.232 2.63 5.429 6.871 5.6 11.7a2.5 2.5 0 0 1-1.476 1.912c-.019-8.479-6.106-11.9-13.484-7.573-.002-1.627-.932-3.982-2.327-4.784z" fill="#248ca6"/><path data-name="Path 8353" d="M183.933 244.367a1.413 1.413 0 0 0 .793 1.174l.9.368-.25 20.019-.581-.335c-.01 0-.019-.01-.029-.021-.588-.3-.765-1.246-.765-1.867-.028-8.065-.051-11.277-.068-19.338z" fill="#1c768c"/><path data-name="Path 8354" d="M199.699 216.922q32.019-18.743 64.031-37.5a1.259 1.259 0 0 1 1.422.092l.579.331-64.031 37.5c-.615-.352-1.396-.726-2.001-.423z" fill="#1b9ebf"/><path data-name="Path 8355" d="M185.305 245.867c1.473.83 3.925.394 5.325-.429l.061 16.607c-.561 1.347-2.807 4.5-5.315 3.876z" fill="#17667a"/><path data-name="Path 8356" d="M201.7 217.345l2.482-2.066 59.534-34.932 2.015-.5c1.524.888 2.323 3.248 2.331 4.782l-64.03 37.494c0-1.6-.878-3.956-2.332-4.778z" fill="#1b9ebf"/><path data-name="Path 8357" d="M185.305 245.867c-.385-10.015 8.051-26.238 16.4-28.527 1.433.82 2.332 3.131 2.332 4.781-7.385 4.318-13.431 14.843-13.4 23.317a5.17 5.17 0 0 1-5.332.429z" fill="#1c768c"/><path data-name="Path 8358" d="M194.373 248.759a12.652 12.652 0 0 0 4.983-6.286 36.407 36.407 0 0 1 6.636-12.112c3.524-4.167 4.092-9.181 1.785-10.424l56.644-33.17c-2.325 3.938-1.818 8.289 1.736 8.363 4.374.342 5.337 2.373 6.682 4.308 1.1 1.587 3.094 1.561 5 .444a10.9 10.9 0 0 0 3.717-3.854l-.011-3.823c.969-1.227 1.476-1.516 1.476-1.912.019 8.062.046 11.274.067 19.336l-95.66 56.015c1.176-.682 2.815-2.69 2.811-4.157-.011-4.132-.061-5.679-.081-12.326a4.812 4.812 0 0 0 4.215-.402z" fill="#1c768c"/><path data-name="Path 8359" d="M184.509 245.429a1.433 1.433 0 0 1-.566-.9 1.651 1.651 0 0 1-.01-.278 31.158 31.158 0 0 1 3.124-12.753 33.847 33.847 0 0 1 12.5-14.5 1.331 1.331 0 0 1 1.568.011l.579.331c-8.915 5.236-16.132 18.406-16.107 28.947-.231-.126-.904-.715-1.088-.858z" fill="#1c768c"/></g><g data-name="Group 4825" fill-rule="evenodd"><path data-name="Path 8360" d="M156.863 180.859a2.506 2.506 0 0 0 2.527.577c4.394-.876 11.822-8.56 15.585-11.115 1.462-.992 2.8-1.9 3.923-2.592l-.38-.617c-1.13.695-2.477 1.609-3.95 2.61-3.663 2.486-11.053 10.149-15.321 11a1.747 1.747 0 0 1-1.775-.31c-.273-.218-.774.138-.609.447z" fill="#abdaef"/><path data-name="Path 8361" d="M180.198 167.329l-1.483-1.324a.67.67 0 0 0-.943.054l-.548.613a.67.67 0 0 0 .054.942l1.484 1.324a5.309 5.309 0 0 0 1.436-1.609z" fill="#f4fafc"/></g></svg>