<svg xmlns="http://www.w3.org/2000/svg" width="361.786" height="361.786" viewBox="0 0 361.786 361.786"><defs><clipPath id="a"><circle data-name="Ellipse 136" cx="180.893" cy="180.893" r="180.893" transform="translate(3855.201 5278.566)" fill="none"/></clipPath></defs><g data-name="Group 4895"><g data-name="Group 4894" clip-path="url(#a)" transform="translate(-3855.201 -5278.566)"><g data-name="Group 4863" fill-rule="evenodd"><path data-name="Path 8500" d="M3871.364 5555.848l20.915-.063c0 .443-.044 180.288-.132 180.686-1.673 7.621-18.635 7.716-20.6.266-.121-.459-.183-180.371-.183-180.889z" fill="#1e7e96"/><path data-name="Path 8501" d="M3883.253 5555.813l9.026-.028c0 .443-.044 180.288-.132 180.686-.764 3.489-4.732 5.4-9 5.732.068-27.868.105-173.819.106-186.39z" fill="#17667a"/><path data-name="Path 8502" d="M3873.992 5556.807l4.393-.815c0 .134 0 184.8-.022 184.921-1.092-.1-3.981-1.413-4.721-2.8-.034-.14.35-181.149.35-181.306z" fill="#1b9ebf"/><path data-name="Path 8503" d="M3890.111 5555.91l-2.867.576c0 18.406 0 182.886.021 183a4.284 4.284 0 0 0 3.193-2.268z" fill="#1e7e96"/></g><g data-name="Group 4864" fill-rule="evenodd"><path data-name="Path 8504" d="M4047.526 5440.319l-25.862 14.892c-69.732 40.483-50.729 28.174-120.458 68.666l-12.975 7.528c-2.745 1.608-11.739 6.871-15.44 10.011-2.722 2.312-3.678 6.363-3.678 9.793v3.373c-.026 5.484 2.534 10.206 6.168 12.317 87.233 50.312 259.924 150.315 347.234 200.693 86.968-50.5 85.246-48.134 172.158-98.73a9.227 9.227 0 0 0 1.305-.894c.127-.112.257-.263.409-.374 2.582-2.438 2.96-3.939 4.07-7.156 0-.036.026-.053.026-.091a33.394 33.394 0 0 0 .408-7.15c-.367-6.013-2.815-10.382-7.787-13.257l-23.923-13.808c-76.535-44.211-237.454-139.671-313.994-183.868-2.446-1.411-6-3.129-7.661-1.945z" fill="#b6ccd6"/><path data-name="Path 8505" d="M4398.786 5645.242l-29.249 11.065-147 90.046v8.089c-.024.389-.024.8-.024 1.191l178.323-102.32a15.763 15.763 0 0 0-2.05-8.071z" fill="#dceaf0"/><path data-name="Path 8506" d="M3871.511 5542.722a15.845 15.845 0 0 0-2.457 8.6l353.455 204.31c.024-1.547.024-3.15.024-4.732v-5.274l-338.633-198.42z" fill="#c5d7e0"/><path data-name="Path 8507" d="M4222.533 5742.85v-6.838l-303.957-180.244-38.951-17.95a9.367 9.367 0 0 0-8.114 4.9l351.022 202.9v-2.777z" fill="#dceaf0"/><path data-name="Path 8508" d="M4222.533 5744.585v1.768l176.253-101.111c-1.661-3.025-4.853-5.431-8.394-5.431h-.027l-29.289 12.287-138.543 83.914v8.573z" fill="#e8f3f7"/><path data-name="Path 8509" d="M4049.582 5440.747c-83.768 48.678-86.191 48.4-169.957 97.071 167.969 96.971 174.937 101.228 342.908 198.194 83.741-48.669 84.064-47.526 167.832-96.2-167.971-96.97-172.839-102.095-340.783-199.065z" fill="#f4fafc"/></g><g data-name="Group 4871" fill-rule="evenodd"><g data-name="Group 4865"><path data-name="Path 8510" d="M4104.327 5510.536l-10.407 5.993c-28.061 16.29 7.471-4.759-20.588 11.536l-5.221 3.029a58.758 58.758 0 0 0-6.214 4.029 5.211 5.211 0 0 0-1.48 3.94v1.356a5.664 5.664 0 0 0 2.482 4.958c35.1 20.245 50.639 28.974 85.772 49.246 35-20.321 6.42-3.272 41.394-23.633a3.9 3.9 0 0 0 .524-.359c.051-.045.1-.106.165-.15a5.609 5.609 0 0 0 1.638-2.879c0-.017.01-.023.01-.039a13.514 13.514 0 0 0 .165-2.876 6.123 6.123 0 0 0-3.135-5.335l-9.626-5.555c-30.8-17.792-41.6-24.693-72.4-42.479-.982-.567-2.406-1.258-3.079-.782z" fill="#b6ccd6"/><path data-name="Path 8511" d="M4191.719 5561.487l-11.77 4.452-31.27 20.137v3.255c-.01.159-.01.323-.01.48l43.873-25.078a6.311 6.311 0 0 0-.823-3.246z" fill="#dceaf0"/><path data-name="Path 8512" d="M4061.383 5535.647a6.378 6.378 0 0 0-.989 3.463l88.275 50.7c.01-.622.01-1.266.01-1.905v-2.12l-82.311-48.333z" fill="#c5d7e0"/><path data-name="Path 8513" d="M4148.679 5584.668v-2.753l-68.356-41.017-15.676-7.224a3.769 3.769 0 0 0-3.264 1.973l87.3 50.139v-1.118z" fill="#dceaf0"/><path data-name="Path 8514" d="M4148.679 5585.365v.711l43.04-24.589a4.034 4.034 0 0 0-3.379-2.187h-.01l-11.786 4.943-27.865 17.672v3.45z" fill="#e8f3f7"/><path data-name="Path 8515" d="M4105.155 5510.708c-33.71 19.59-6.8 3.381-40.508 22.966 67.593 39.022 16.44 9.223 84.032 48.241 33.7-19.584 5.943-3.027 39.651-22.615-67.59-39.021-15.594-9.571-83.175-48.592z" fill="#f4fafc"/></g><g data-name="Group 4870"><g data-name="Group 4868"><g data-name="Group 4866"><path data-name="Path 8516" d="M4120.856 5554.642l-1.879-1.1a8.348 8.348 0 0 1-2.278-1.9 9.52 9.52 0 0 1-2.078-4.608 70.135 70.135 0 0 1-.327-11.877 15.589 15.589 0 0 1 2.175-7.159c2.555-4 7.682-8.325 10.623-10.908q6.292-5.522 12.656-10.962l40.957-34.153a.448.448 0 0 0-.088.044c4.337-2.827 8.628-6.454 12.584-8.346 3.927-1.879 7.912-2.524 11.821-.448l1.887 1.1a8.723 8.723 0 0 1 4.224 7.658v-.029c-.059 2.614.029 4.054-2.226 6.247l-.109.1c-2.283 2.164-5.045 4.238-7.435 6.239-18.078 15.124-39.641 36.05-53.411 53.99-.128 3.871-.183 5.4-.189 5.422v.026l-.006.015h-.01a.062.062 0 0 0 .016 0v.015a2.141 2.141 0 0 1-1.2.742v-.009c-5.645 3.283-11.239 6.486-16.9 9.756a8.57 8.57 0 0 1-8.807.145z" fill="#e8f3f7"/><path data-name="Path 8517" d="M4132.614 5551.337l13.956-8.148.038.031.093-3.643a3.584 3.584 0 0 1 .03-.71.611.611 0 0 1 .121-.178c7.27-10.052 30.674-35.694 53.921-54.971 1.635-1.354 4.111-3.4 6.068-5.172 2.314-2.091 4.016-3.977 4.294-6.594-.059 2.614.029 4.054-2.226 6.247l-.109.1c-2.283 2.164-5.045 4.238-7.435 6.239-18.078 15.124-39.641 36.05-53.411 53.99-.128 3.871-.183 5.4-.189 5.422v.026l-.006.015h-.01a.062.062 0 0 0 .016 0v.015a2.141 2.141 0 0 1-1.2.742v-.009c-5.738 3.339-11.424 6.59-17.181 9.917a8.635 8.635 0 0 0 3.23-3.319z" fill="#b6ccd6"/><path data-name="Path 8518" d="M4132.614 5551.337c-.175-2.535-.414-6.95.274-9.859.836-4.3 5.128-8.046 17.742-18.935 15.147-13.006 30.033-25.479 44.381-37.353.471-.389 14.2-12.6 14.293-18.491a7.615 7.615 0 0 1 1.532 7.2 8.6 8.6 0 0 1-2.728 3.728c-2.073 1.916-5.493 4.625-6.245 5.248-23.715 19.467-47.867 45.9-55.127 56l-.091 4.42c-3.17 1.848-10.753 6.137-14.031 8.042z" fill="#cfe0e8"/><path data-name="Path 8519" d="M4180.617 5472.019c4.337-2.827 8.628-6.454 12.584-8.346 3.927-1.879 7.912-2.524 11.821-.448l1.887 1.1a8.554 8.554 0 0 1 3.9 5.143c-1.078 2.034-3.979 5.714-16.471 16.28-14.014 11.859-28.8 24-43.707 36.8-12.614 10.889-16.9 14.637-17.742 18.935-.688 2.909-.447 7.324-.274 9.859a8.871 8.871 0 0 1-2.724 3.015 8.553 8.553 0 0 1-9.034.29l-1.879-1.1a8.348 8.348 0 0 1-2.278-1.9 9.52 9.52 0 0 1-2.078-4.608 70.135 70.135 0 0 1-.327-11.877 15.589 15.589 0 0 1 2.175-7.159c2.555-4 7.682-8.325 10.623-10.908q6.292-5.522 12.656-10.962l40.98-34.172c-.038.014-.077.039-.112.058z" fill="#e8f3f7"/><path data-name="Path 8520" d="M4180.617 5472.019c4.337-2.827 8.628-6.454 12.584-8.346 3.927-1.879 7.912-2.524 11.821-.448l1.887 1.1a8.554 8.554 0 0 1 3.9 5.143c-1.078 2.034-3.979 5.714-16.471 16.28-14.014 11.859-28.8 24-43.707 36.8-12.614 10.889-16.9 14.637-17.742 18.935-.688 2.909-.447 7.324-.274 9.859a8.871 8.871 0 0 1-2.724 3.015 8.553 8.553 0 0 1-9.034.29l-1.879-1.1a8.348 8.348 0 0 1-2.278-1.9 9.52 9.52 0 0 1-2.078-4.608c-.441-2.816.947-8.927 1.179-11.726 1.009 6.342 7.259 7.243 9.9 7.136 2.126-.086 2.978-1.582 3.275-3.15.884-4.661 7.231-9.981 10.172-12.565q6.291-5.522 12.655-10.961l37.46-31.737c2.567-2.89-4.3-10.317-10.339-10.567l1.809-1.508c-.042.014-.081.039-.116.058z" fill="#dceaf0"/><path data-name="Path 8521" d="M4180.617 5472.019c4.337-2.827 8.628-6.454 12.584-8.346a15.287 15.287 0 0 1 7.123-1.727c-8.873 2.991-16.708 10.035-28.6 20.148-9.874 8.4-40.71 31.69-51.663 45.7a18.654 18.654 0 0 0-3.437 8.379c-.385 7.284.786 16.24 15.809 10.981.016 1.566.106 3.058.183 4.18a8.871 8.871 0 0 1-2.724 3.015 8.553 8.553 0 0 1-9.034.29l-1.879-1.1a8.348 8.348 0 0 1-2.278-1.9 9.52 9.52 0 0 1-2.078-4.608 70.135 70.135 0 0 1-.327-11.877 15.589 15.589 0 0 1 2.175-7.159c2.555-4 7.682-8.325 10.623-10.908q6.292-5.522 12.656-10.962l40.98-34.172c-.039.022-.078.047-.113.066z" fill="#cfe0e8"/><path data-name="Path 8522" d="M4180.615 5472.019c4.339-2.827 8.63-6.454 12.586-8.346-6.7 4.935-16.031 12.209-20.393 15.92-4.474 3.8-14.054 11.805-24.012 19.933-12.019 9.806-24.677 20.127-30.666 27.788-2.236 2.863-2.618 7.1-2.833 8.862-.314 5.912-.29 9.415 1.135 12.2a10.208 10.208 0 0 0 10.826 5.47 11.725 11.725 0 0 0 5.356-2.5 8.871 8.871 0 0 1-2.724 3.015 8.553 8.553 0 0 1-9.034.29l-1.881-1.1a8.368 8.368 0 0 1-2.276-1.9 9.52 9.52 0 0 1-2.078-4.608 69.933 69.933 0 0 1-.327-11.877 15.589 15.589 0 0 1 2.175-7.159c2.555-4 7.68-8.325 10.623-10.908q6.292-5.522 12.656-10.962l40.98-34.172c-.039.01-.076.035-.113.054z" fill="#b6ccd6"/><path data-name="Path 8523" d="M4129.386 5534.253a5.954 5.954 0 0 1-.858 3.071c-.941 1.964-2.385 2.232-4.623 1.541a20.934 20.934 0 0 1-4.377-1.768c-2.241-1.742-.7-7.5 1.984-7.918a9.471 9.471 0 0 1 4.68 1.1c2.22.972 3.308 2.167 3.194 3.974z" fill="#f4fafc"/></g><g data-name="Group 4867"><path data-name="Path 8524" d="M4134.336 5458.521c0 .022.016.055.073.11 1.964 1.8 17.281 9.959 18.213 10.31 11.613-7.491 25.55-14.154 37.62-20.765 14.435-7.637 18.937-8.666 17.822 4.4.691.492 1.766-.063 1.76.01.054-.712.13-1.659.186-2.37.007-.1.007-.189.011-.291a33.424 33.424 0 0 0-.262-7.269 15.869 15.869 0 0 0-3.631-7.794 23.817 23.817 0 0 0-8.625-5.746c-8.281-3.148-15.33.95-22.588 4.983-13.924 7.742-26.754 15.51-40.579 24.422z" fill="#dceaf0"/><path data-name="Path 8525" d="M4135.493 5459.43c2.437 1.617 7.84 4.618 11.938 6.82 13.4-8.874 29.42-17.532 43.924-24.726 3.176-1.575 7.471-3.37 9.63-2.8-2.135-5-12.409-9.762-19.141-6.206-4.444 2.351-42.333 24.201-46.351 26.912z" fill="#e8f3f7"/><path data-name="Path 8526" d="M4180.861 5430.878a35.032 35.032 0 0 1 6.739-2.429 17.024 17.024 0 0 1 11.98 1.6c.13.063.259.13.384.2l1.782 1.035a17.939 17.939 0 0 1 4.382 3.576 15.869 15.869 0 0 1 3.631 7.794c.567 3.339.329 23.127.224 26.457-5.741 7.365-17.835 10.31-23.025.746-.235-4.972-.481-11.621-.661-11.752-11.282 4.172-26.558 13.177-37.116 18.517a8.869 8.869 0 0 0 3.495-3.368l-.054-4.318c6.3-4.068 21.509-13.535 32.672-19.979 2.011-1.118 3.957-2.262 5.663-3.2 6.056-3.205 10.37-4.966 13.256-4.968-1.766-10.815-14.65-12.74-23.352-9.911z" fill="#cfe0e8"/><path data-name="Path 8527" d="M4134.336 5458.531a46.176 46.176 0 0 0 4.226 2.657l1.878 1.1c4 2.311 8.061 4.576 12.182 6.651.022 1.523.061 2.791.061 4.322a8.426 8.426 0 0 1-3.2 3.214 8.923 8.923 0 0 1-8.831.053l-1.894-1.1a8.765 8.765 0 0 1-4.291-7.207c-.003-3.231-.131-6.46-.131-9.69z" fill="#e8f3f7"/></g></g><g data-name="Group 4869"><path data-name="Path 8528" d="M4077.217 5461.181l106.251 73.241-9.385 4.5-58.318-36.168-47.933-37.075 2.765-2.5z" fill="#2d394a"/><path data-name="Path 8529" d="M4074.6 5382.358l9.519-4.45-6.905 83.272-9.386 4.5-.591-9.437z" fill="#283240"/><path data-name="Path 8530" d="M4070.478 5373.429l9.4-4.494.056-.028c2.214-1.08 4.908-.021 6.784 1.256l-3.967 2.633-5.419 1.866c-2.374-.717-4.68-1.962-6.854-1.233z" fill="#dceaf0"/><path data-name="Path 8531" d="M4181.6 5541.9l5.772-3.356 3.658-1.137c-.247 3.053-1.491 5.116-3.319 5.989l-9.4 4.5c1.823-.877 2.279-4.345 3.289-5.996z" fill="#cfe0e8"/><path data-name="Path 8532" d="M4179.89 5445.358l5.176-3.677 4.228-.818c5.251 3.642 8.772 11.626 8.3 17.477l-4.063 4-5.343.5c-.614-6.006-3.647-13.432-8.298-17.482z" fill="#dceaf0"/><path data-name="Path 8533" d="M4076.621 5381.488l106.251 73.244-6.9 83.274-106.253-73.244z" fill="#000002"/><path data-name="Path 8534" d="M4086.72 5370.163l102.574 70.7-9.4 4.5-15.011-8.729-87.545-61.968z" fill="#e8f3f7"/><path data-name="Path 8535" d="M4188.16 5462.833l9.438-4.492-6.57 79.067-9.386 4.5-.453-21.029z" fill="#cfe0e8"/><path data-name="Path 8536" d="M4174.082 5538.92l6.9-83.274-106.25-73.244-6.906 83.275 106.251 73.243zm-106.922-159.514c.508-6.137 5.053-8.267 10.174-4.744l102.556 70.7c5.1 3.515 8.813 11.337 8.3 17.476l-6.55 79.07c-.512 6.137-5.058 8.28-10.158 4.768l-102.557-70.7c-5.116-3.518-8.831-11.357-8.319-17.493z" fill="#212934"/><path data-name="Path 8537" d="M4076.621 5381.488c32.489 58.587 60.589 101.867 99.347 156.518l-106.253-73.244z" fill="#566e94" opacity=".5"/></g></g></g><g data-name="Group 4872" fill="#fff"><path data-name="Path 8538" d="M4113.731 5465.748l13.463-.427-12.89-19.128z"/><path data-name="Path 8539" d="M4141.2 5447.191l-14.333-10.171-1.81-1.284-24.929-17.692c-1.222-.867-2.255-.137-2.307 1.635l-.884 30.211v.178l-.533 18.2a6.22 6.22 0 0 0 2.119 4.775l24.929 17.692 1.81 1.284 14.333 10.171c1.222.868 2.252.133 2.3-1.636l.533-18.2.005-.179.885-30.211a6.216 6.216 0 0 0-2.118-4.773zm-37.2 17.718c-.044 1.5-.373 1.82-1.41 1.085l-2.6-1.844a2.974 2.974 0 0 1-1.289-3l.059-2c.044-1.5.371-1.823 1.408-1.087l2.6 1.844a2.976 2.976 0 0 1 1.291 3zm.287-9.811c-.044 1.5-.373 1.821-1.41 1.085l-2.6-1.844a2.977 2.977 0 0 1-1.289-3l.059-2c.044-1.5.371-1.822 1.408-1.086l2.6 1.844a2.976 2.976 0 0 1 1.291 3zm.289-9.85c-.044 1.5-.374 1.818-1.411 1.082l-2.6-1.844a2.972 2.972 0 0 1-1.288-3l.058-2c.045-1.5.372-1.823 1.408-1.087l2.6 1.844a2.976 2.976 0 0 1 1.29 3zm.286-9.774c-.044 1.5-.373 1.82-1.41 1.084l-2.6-1.843a2.973 2.973 0 0 1-1.289-3l.059-2c.043-1.5.371-1.822 1.408-1.086l2.6 1.843a2.977 2.977 0 0 1 1.29 3zm27.807 49.779c-.044 1.506-.372 1.823-1.411 1.085l-23.787-16.881a2.975 2.975 0 0 1-1.291-3l.921-31.436c.043-1.5.371-1.822 1.41-1.085l23.788 16.881a2.98 2.98 0 0 1 1.29 3zm7.415 5.263c-.044 1.506-.371 1.823-1.41 1.085l-2.6-1.844a2.971 2.971 0 0 1-1.288-3l.058-2c.044-1.5.372-1.823 1.408-1.087l2.6 1.844a2.976 2.976 0 0 1 1.291 3zm.287-9.811c-.043 1.5-.371 1.822-1.41 1.085l-2.6-1.844a2.974 2.974 0 0 1-1.288-3l.058-2c.045-1.5.372-1.822 1.408-1.086l2.6 1.843a2.976 2.976 0 0 1 1.291 3zm.289-9.85c-.044 1.5-.371 1.82-1.41 1.082l-2.6-1.843a2.973 2.973 0 0 1-1.289-3l.059-2c.044-1.5.371-1.822 1.408-1.087l2.6 1.845a2.977 2.977 0 0 1 1.291 3zm.286-9.774c-.044 1.506-.371 1.822-1.41 1.085l-2.6-1.844a2.971 2.971 0 0 1-1.288-3l.058-2c.044-1.5.371-1.821 1.408-1.086l2.6 1.844a2.977 2.977 0 0 1 1.291 3z"/></g><g data-name="Group 4893" fill-rule="evenodd"><g data-name="Group 4884"><g data-name="Group 4875"><g data-name="Group 4873"><path data-name="Path 8540" d="M4051.176 5832.613c-.549-2.947-10.543-1.85-13.886-1.688-1.776.084-6.671-.346-7.89-1.863-2.24-2.787-5.9 4.443-8.48 4.3 3.466 1.054 11.594.216 14.458.8s4.485.8 6.662.348z" fill="#1e1e1f"/><path data-name="Path 8541" d="M4031.425 5830.255c1.675 2.719 7.132.812 10.689 2.141 7.876 2.939-11.172 13.606-17.095 13.867-12.684.57-3.511-16.661-18.917-28.475-7.078-5.429-16.807-12.7-7.347-25.65 5.073-6.948 5.519-12.043 5.566-20.809.09-17.2-6.015-42.712-3.657-58.2 1.344-8.824 9.932-61.432 10.772-62.2 9.6-1.005 16.681 1.858 21.941 7.21 7.493 7.618 7.4 20.25 7.14 34.34-.506 27.686-5.225 38.742-10.547 64.174-5.426 25.905-8.65 57.219 1.455 73.602z" fill="#f1b287"/><path data-name="Path 8542" d="M4004.6 5816.626c-6.832-5.305-14.647-12.431-5.843-24.488 5.073-6.948 5.519-12.043 5.566-20.809.09-17.2-6.015-42.712-3.657-58.2.852-5.6 4.622-28.837 7.481-45.266 10.223 8.475 20.208 16.8 27.036 21.973-13.4 15.469-19.3 23.71-21.384 46.511-1.941 21.172 1.374 35.56-4.075 52.309a103.466 103.466 0 0 0-5.124 27.97z" fill="#e8a476"/><path data-name="Path 8543" d="M3999.092 5791.158c-8.778 6.664-11.317 15.756-7.117 25.592 2.007 12.606 3.981 22.371 3.622 36.565l2.828 1.216 2.445-1.181 1.323-27.954c4.927 6.531 3.8 14.756 6.845 18.051 1.341 1.449 12.095 8.164 12.923 8.12 2.039.083 7.579-1.782 10.282-3.067 4.853-2.308 21.161-12.354 18.7-16.285-.722-1.148-2.2-1.141-3.683-1.306-3.609-.4-8.3.747-9.693.336a2.671 2.671 0 0 1 1.678 1.578c1.011 2.3-9.774 6.1-11.094 4.872-12.634-11.93-11.584-46.256-29.059-46.537z" fill="#1e1e1f"/><path data-name="Path 8544" d="M3999.092 5791.158c-8.778 6.664-11.317 15.756-7.117 25.592 2.007 12.606 3.981 22.371 3.622 36.565l2.828 1.216 2.445-1.181 1.323-27.954a19.445 19.445 0 0 1 2.764 5.241 102.016 102.016 0 0 1 2.861-35.456 11.824 11.824 0 0 0-8.726-4.023z"/><path data-name="Path 8545" d="M4002.193 5825.4c4.927 6.531 3.8 14.756 6.845 18.051 1.341 1.449 12.095 8.164 12.923 8.12-4.19-16.039-9.316-28.717-19.768-26.171z" fill="#111112"/></g><g data-name="Group 4874"><path data-name="Path 8546" d="M4079.7 5847.841c-.55-2.948-10.544-1.849-13.887-1.69-1.773.087-6.67-.347-7.89-1.863-2.237-2.785-5.9 4.443-8.481 4.3 3.47 1.054 11.595.217 14.459.805s4.485.8 6.662.346z" fill="#1e1e1f"/><path data-name="Path 8547" d="M4059.952 5845.485c1.674 2.719 7.132.811 10.689 2.136 7.875 2.942-11.171 13.606-17.1 13.871-12.684.569-3.511-16.661-18.917-28.479-7.078-5.424-16.808-12.69-7.347-25.646 5.074-6.949 5.52-12.044 5.566-20.81.089-17.2-6.012-42.712-3.658-58.2 1.345-8.823 9.933-61.436 10.774-62.2 9.6-1.005 16.68 1.859 21.941 7.211 7.491 7.617 7.4 20.249 7.143 34.34-.508 27.687-5.229 38.741-10.551 64.174-5.42 25.905-8.645 57.218 1.46 73.603z" fill="#f1b287"/><path data-name="Path 8548" d="M4033.125 5831.856c-6.831-5.305-14.647-12.433-5.843-24.489 5.074-6.949 5.52-12.044 5.566-20.81.089-17.2-6.016-42.712-3.658-58.2.854-5.6 4.623-28.838 7.482-45.267 10.223 8.476 20.208 16.8 27.037 21.975-13.4 15.464-19.3 23.709-21.385 46.507-1.941 21.175 1.374 35.562-4.072 52.311a103.362 103.362 0 0 0-5.127 27.973z" fill="#e8a476"/><path data-name="Path 8549" d="M4027.618 5806.388c-8.778 6.659-11.315 15.755-7.116 25.591 2.009 12.6 3.981 22.371 3.621 36.561l2.832 1.219 2.442-1.18 1.323-27.955c4.927 6.532 3.8 14.754 6.845 18.048 1.342 1.452 12.095 8.167 12.923 8.123 2.039.083 7.579-1.785 10.282-3.069 4.853-2.3 21.162-12.351 18.7-16.283-.72-1.147-2.2-1.144-3.68-1.306-3.611-.4-8.3.744-9.7.337a2.672 2.672 0 0 1 1.677 1.574c1.013 2.3-9.773 6.1-11.09 4.876-12.633-11.934-11.577-46.255-29.059-46.536z" fill="#1e1e1f"/><path data-name="Path 8550" d="M4027.618 5806.388c-8.778 6.659-11.315 15.755-7.116 25.591 2.009 12.6 3.981 22.371 3.621 36.561l2.832 1.219 2.442-1.18 1.323-27.955a19.457 19.457 0 0 1 2.764 5.242 101.98 101.98 0 0 1 2.862-35.457 11.822 11.822 0 0 0-8.728-4.021z"/><path data-name="Path 8551" d="M4030.72 5840.624c4.927 6.532 3.8 14.754 6.845 18.048 1.342 1.452 12.095 8.167 12.923 8.123-4.188-16.037-9.316-28.712-19.768-26.171z" fill="#111112"/></g></g><g data-name="Group 4881"><g data-name="Group 4878"><g data-name="Group 4876"><path data-name="Path 8552" d="M3948.847 5798.09l-4.582-2.657a24.491 24.491 0 0 1-1.976 9.088c-2.2 5.31-6.26 10.694-11 13.387l4.582 2.664a24.032 24.032 0 0 0 7.036-6.247 32.9 32.9 0 0 0 4.27-7.379c.888-2.246 1.945-6.184 1.67-8.856z" fill="#a8a5a3"/><path data-name="Path 8553" d="M3931.287 5817.908l-73.594 42.608 4.5 2.6 73.68-42.54z" fill="#c9c7c5"/><path data-name="Path 8554" d="M3947.673 5701.48l-4.582-2.665 1.173 96.617 4.582 2.658z" fill="#a8a5a3"/><path data-name="Path 8555" d="M3948.421 5695.825a58.723 58.723 0 0 0-.778-6.664 47.25 47.25 0 0 0-9.6-22.2 34.064 34.064 0 0 0-9.751-8.529l-4.582-2.655c10.095 5.865 16.455 16.389 18.663 30.872a53.709 53.709 0 0 1 .7 6.514c.042 1.387.016 5.438.016 5.652l4.582 2.664a55.158 55.158 0 0 0 .75-5.654z" fill="#918e8c"/><path data-name="Path 8556" d="M3929.945 5655.642c-11.054-6.43-17.8-8.878-30.978-7.931-14.127 1.016-28.359 6.738-40 13.492q-3.409 1.96-6.822 4.207l4.582 2.665q3.409-2.243 6.822-4.217a126.213 126.213 0 0 1 13.757-6.838 87.1 87.1 0 0 1 23.218-6.253 55.985 55.985 0 0 1 15.953.264 40.089 40.089 0 0 1 11.963 3.8c.503.259 1.016.517 1.505.811z" fill="#a8a5a3"/><path data-name="Path 8557" d="M3949.982 5701.863c.006-.328.086-6.491-.027-8.563-.106-1.9-.569-4.9-.976-7.226-2.809-16.082-10.735-27.257-23.211-32.521-16.309-6.887-39.155-3-62.218 10.3q-3.416 1.974-6.822 4.217l.167 2.541a135.953 135.953 0 0 1 6.667-4.116c22.523-13 44.81-16.787 60.7-10.072 12.435 5.254 20.209 16.56 22.7 32.886a55.655 55.655 0 0 1 .7 6.511c.039 1.391.016 5.442.016 5.655l1.174 96.61a23.987 23.987 0 0 1-1.908 8.951c-2.283 5.6-6.389 10.828-11.07 13.531l-73.68 42.54.009 2.648 73.677-42.541c8.448-4.881 15.3-16.754 15.277-26.461z" fill="#534b48"/><path data-name="Path 8558" d="M3856.728 5668.075l-4.582-2.665.171 2.55 4.579 2.656z" fill="#918e8c"/></g><g data-name="Group 4877"><path data-name="Path 8559" d="M3929.776 5659.845l-9.042-4.832a35.685 35.685 0 0 1 14.927 17.323l8.584 5c-3.297-7.722-7.945-13.698-14.469-17.491z" fill="#03868f"/><path data-name="Path 8560" d="M3878.568 5649.125l-.527 2.741 6.11 3.276-.391 2.137 2.652 1.144 1.09-4.381z" fill="#03868f"/><path data-name="Path 8561" d="M3916.66 5651.533c5.222.7 10.533 1.562 15.112 4.258-.013-.01-.01-.006 0 0-5.485-3.191-10.742-6.7-16.852-8.532a46.985 46.985 0 0 0-13.922-1.93 70.167 70.167 0 0 0-19.451 2.909c-.984.275-1.973.569-2.979.887l8.591 5c9.167-2.609 19.963-3.93 29.501-2.592z" fill="#07acb8"/><path data-name="Path 8562" d="M3887.159 5654.12l-.747 4.3c27.428-8.748 49.046-1.681 57.833 18.908l3.208-3.308c-9.201-21.568-31.747-29.02-60.294-19.9z" fill="#079da8"/></g></g><g data-name="Group 4879"><path data-name="Path 8563" d="M3854.7 5867.484c-2.858 1.648-4.281 3.817-4.274 5.984v2.651c0-2.172 1.422-4.338 4.281-5.988l.206-1.649z" fill="#665c59"/><path data-name="Path 8564" d="M3899.552 5841.592l-44.85 25.892.007 2.647 44.848-25.893z" fill="#534b48"/><path data-name="Path 8565" d="M3849.789 5884.533c.081.054.161.1.252.152l-.01-2.645a14.857 14.857 0 0 1-3.653-3.023 7.807 7.807 0 0 1-1.649-2.225 5.466 5.466 0 0 0-.123-.268 7.6 7.6 0 0 1-.673-3.04 24.869 24.869 0 0 0 .049 3.341 8.42 8.42 0 0 0 1.868 4.367 14.73 14.73 0 0 0 3.939 3.341z" fill="#665c59"/><path data-name="Path 8566" d="M3922.738 5924.043l-72.706-42 .01 2.646 72.7 42z" fill="#918e8c"/><path data-name="Path 8567" d="M3997.317 5898.158l-44.839 25.893.01 2.647 44.838-25.892z" fill="#534b48"/><path data-name="Path 8568" d="M3952.488 5926.7l-.01-2.647a26.507 26.507 0 0 1-7.845 2.844 35.548 35.548 0 0 1-13.088.189 27 27 0 0 1-8.807-3.04l.007 2.645a27.894 27.894 0 0 0 8.926 3.081 36.428 36.428 0 0 0 13.276-.278 26.566 26.566 0 0 0 7.541-2.794z" fill="#665c59"/><path data-name="Path 8569" d="M3992.738 5895.5l-44.842 25.882c-5.674 3.281-14.892 3.281-20.553-.008l-72.7-42.006c-5.651-3.278-5.618-8.617.059-11.888l44.849-25.892-4.582-2.665-44.848 25.892c-8.219 4.743-8.262 12.467-.091 17.221l72.707 42c8.177 4.749 21.52 4.749 29.74.007l44.839-25.892z" fill="#c9c7c5"/></g><g data-name="Group 4880"><path data-name="Path 8570" d="M4056.392 5726.347c-1.484-2.43-6.05-5.276-7.352-6.226-16.219-11.86-47.74-29.52-66.788-39.905-7.294-3.832-14.319-7.812-21.856-11.207-.214-.1-.427-.19-.641-.288-5.415-2.431-6.259-3.321-11.358-1.06-1.975.86-4.044 1.949-5.991 2.913-15.394 7.621-33.985 18.5-48.745 27.644l-34.128 21.136 101.483 60.029.453.647c3.7-2.315 8.293-5.248 11.744-7.408 20.783-12.961 36.451-22.286 48.226-28.992 1.372-.763 2.753-1.536 4.143-2.3 4.694-2.525 9.664-5.166 15.129-8.05q3.849-1.984 7.863-4.012c6.111-2.535 6.537.765 5.011 4.138a4.033 4.033 0 0 0 1.1-.634 5.961 5.961 0 0 0 1.577-1.929 4.653 4.653 0 0 0 .13-4.496z" fill="#079da8"/><path data-name="Path 8571" d="M3861.075 5718.4c-1.741 1-15.59 4.158-17.827 3.819 28.557 26.807 86.3 46.442 103.979 61.066 1.484 1.269 4.487-1.083 6.47-.827 2.39.378 6.046-1.475 7.788-2.483.02-.291-.846-1.08-1.027-1.271-23.597-24.944-79.158-48.79-99.383-60.304z" fill="#037a82"/><path data-name="Path 8572" d="M4056.392 5726.347c-1.484-2.43-6.05-5.276-7.352-6.226-19.256-14.081-45.606-28.356-66.788-39.905-7.294-3.832-14.319-7.812-21.856-11.207-.214-.1-.427-.19-.641-.288-4.895-2.2-6.053-3.133-9.994-1.626 21.965 12.464 87.891 47.377 106.693 63.343a4.475 4.475 0 0 0-.062-4.091z" fill="#03868f"/><path data-name="Path 8573" d="M3959.3 5787.767a21.274 21.274 0 0 1-6.265 2.072c-.058.01-.107.016-.162.026a7.7 7.7 0 0 1-3.925-.436c-3.118-1.562-3.573-5.891-3.056-9.4l-19.878-11.475q-41.655-24.045-83.321-48.069c-.515 2.638-.454 5.238.866 7.347 2.133 3.4 8.06 7.168 10.534 8.881 21.889 15.148 61.743 38.486 85.691 49.783a38.391 38.391 0 0 0 9.63 3.437 14.756 14.756 0 0 0 5.758-.456 22.069 22.069 0 0 0 4.223-1.652z" fill="#03868f"/><path data-name="Path 8574" d="M4054.031 5726.548c-15.234 7.546-28.262 14.5-40.965 21.832-15.9 9.178-31.424 18.939-50.548 30.945-.3.193-.608.387-1.033.65-5.962 3.467-8.958 2.8-9.851 1.322-.827-1.7.022-4.582 1.4-7.31l-4.908-1.546c-3.142 6.35-3.414 11.585-1.694 14.712 2.08 3.818 7.5 3.793 15.1-.569.414-.268.837-.527 1.252-.786 19.011-11.958 34.434-21.631 50.264-30.774 12.623-7.285 25.414-14.236 40.794-21.744a6.39 6.39 0 0 0 2.862-4.724c.112-1.885-1.082-2.787-2.673-2.008z" fill="#03868f"/></g></g><path data-name="Path 8575" d="M4031.561 5691.063c11.1-6.263 11.018-22.51 2.039-33.276-5.254-6.3-15.461-9.245-28.569-6.956-20.761 3.621-71.481 25.074-91.078 39.085l-24.566-31.269c-7.023 16.285-17.172 40.8-14.747 60.552.98 7.969 3.7 15.161 12.212 20.167 6.925 4.069 15.536 7.817 20.3 8.758a40.513 40.513 0 0 0 25.756-3.354c24.354-11.67 84.326-45.631 98.653-53.707z" fill="#e8a476"/><path data-name="Path 8576" d="M4060.139 5707.356c11.1-6.26 11.02-22.511 2.04-33.277-4.342-5.205-12.066-8.371-22.012-7.938a53.793 53.793 0 0 0-6.557.983c-20.76 3.624-70.67 25.077-90.267 39.083l-41.013-41.825c-3.884 17.734-4.928 49.41-1.08 69.24 2.359 12.164 4.478 15.856 14.992 22.035 6.926 4.07 15.536 7.821 20.3 8.759a40.512 40.512 0 0 0 25.756-3.353c24.355-11.675 83.514-45.628 97.841-53.707z" fill="#f1b287"/><g data-name="Group 4882"><path data-name="Path 8577" d="M4031.561 5691.063c8.325-4.695 10.362-15.01 7.07-24.415-8.907-6.433-20.844-13.612-30.286-16.291a52.844 52.844 0 0 0-3.314.474c-20.761 3.621-71.481 25.074-91.078 39.085l-24.566-27.617c-3.224 14.713-17.554 38.147-15.122 57.077.98 7.638 3.863 14.861 12.587 19.99 6.925 4.069 15.536 7.817 20.3 8.758a40.513 40.513 0 0 0 25.756-3.354c24.354-11.67 84.326-45.631 98.653-53.707z" fill="#001624"/><path data-name="Path 8578" d="M4060.139 5707.356l.074-.046c1.7-14.744-3.013-25.374-13.783-34.586-2.153-1.843-4.9-3.99-8-6.221q-2.337.189-4.82.621c-20.76 3.624-70.67 25.077-90.267 39.083l-41.013-41.825c-3.884 17.734-4.928 49.41-1.08 69.24 2.359 12.164 4.478 15.856 14.992 22.035 6.926 4.07 15.536 7.821 20.3 8.759a40.512 40.512 0 0 0 25.756-3.353c24.355-11.675 83.514-45.628 97.841-53.707z" fill="#001e30"/></g><path data-name="Path 8579" d="M3891.832 5648.342c-.205 3.859-1.96 7.531-3.451 11.309-8.357 13.283-15.028 29.072-15.787 45.9-1.045 23.108 6.245 36.588 24.1 50.138 25.908 19.658 51.034 16.729 80.739-3.279-1.653-9.564.125-21.045-.411-30.486-1.038-13.166-.1-22.979-4.695-35.741-3.783-10.507-9.014-17.146-12.373-28.016-19.973 21.402-42.309 4.533-68.122-9.825z" fill="#001e30"/><g data-name="Group 4883"><path data-name="Path 8580" d="M3979.145 5657.889c-23.279 8.433-48.715 19.62-65.192 26.846l-24.566-22.436c-3.884 17.736-7.486 20-3.518 39.8 3.359 16.764 35.013-.871 55.282-10.5 18.288-8.339 32.945-15.56 54.213-21.929-4.802-5.812-11.294-10.682-16.219-11.781z" fill="#c3e6f7"/><path data-name="Path 8581" d="M3945.82 5704.506a98.2 98.2 0 0 0-2.477 1.7l-41.013-41.825c-3.884 17.734-4.928 49.41-1.08 69.24 4.992 25.737 35.456 38.052 58.46 29.119 16.58-6.443 46.436-19.691 68.814-30.227 2.011-25.812-3.808-43.369-18.238-52.186-23.05 8.442-36.615 13.328-63.958 25.583z" fill="#d2eefc"/></g><path data-name="Path 8582" d="M3891.832 5648.342c-.205 3.859-1.96 7.531-3.451 11.309-8.357 13.283-15.94 29.072-16.7 45.9-1.044 23.108 5.031 36.891 22.889 50.442 25.905 19.658 53.316 19.166 83.02-2.671-1.649-9.561-.026-21.957-.562-31.4-1.038-13.166-.1-22.979-4.695-35.741-3.783-10.507-9.014-17.146-12.373-28.016-19.979 21.404-42.315 4.535-68.128-9.823z" fill="#d2eefc"/></g><path data-name="Path 8583" d="M3888.2 5527.893c-23.962-2.711-23.956 38.595-13.851 56.3 12.289 21.541 19.451 40.624 17.214 66.131 14.656 17.559 51.428 34.227 68.684 8.423-.953-2.274-3.121-12.827-3.187-20.419-.092-10.32 5.415-20.034 6.288-30.253 10-14.625 12.829-26.41 9.777-33.367-8.749-19.95-63.679-44.413-84.925-46.815z" fill="#d2eefc"/><path data-name="Path 8584" d="M3888.2 5527.893c-23.962-2.711-23.956 38.595-13.851 56.3 12.289 21.541 19.451 40.624 17.214 66.131a62.379 62.379 0 0 0 14.785 12.535c-4.229-22.187-5.913-49.714-9.069-59.483-7.472-23.14-15.52-48.981-8.616-59.647 11.979 6.618 35.944 17.324 60.623 8.821-20.241-12.601-47.522-23.125-61.086-24.657z" fill="#c3e6f7"/><g data-name="Group 4885"><path data-name="Path 8585" d="M3895.475 5543.037c-1.782 11.705 28.851 18.416 38.8 7.657.872-13.71-.5-23.167 4.794-36.6l-31.062-9.072-8.109-3c3.87 17.078 1.694 25.621-4.423 41.015z" fill="#e8a476"/><path data-name="Path 8586" d="M3954.081 5521.963c-.908 1.584-12.826 1.2-17.4-.52-5.254 8.176-30 9.5-36.326 7.879.349-2.985 1.488-6.573 1.472-8.358-.037-3.958-1.995-4.414-2.739-5.42-4.051-5.489-11.935-11.328-15.258-19.887 3.946-12.184 39.48 3.857 70.251 26.306z" fill="#db9669"/></g><path data-name="Path 8587" d="M3953.923 5522.106c-2.489 1.781-19.115-5.88-20.583-5.744-14.13 1.323-31.26 3.238-34.253-.818-4.051-5.489-11.935-11.328-15.258-19.887-5.316-13.674-5.08-29.368 7.135-40.82 21.244-19.915 56.466-7.537 62.361 13.709 2.415 8.717-.6 11.076.067 16.956a40.548 40.548 0 0 0 3.312 7.257c.8 1.365-.621 7.5-.734 15.135-.094 6.568-.398 13.027-2.047 14.212z" fill="#e8a476"/><path data-name="Path 8588" d="M3883.829 5495.657c-5.312-13.674-5.08-29.368 7.135-40.82 7.214-6.761 16.693-10.084 26-10.687 6.9-.446 21.5 2.25 26.8 7.593.219.2-4.734 6.657-2.571 10.346 3.353 5.706 2.049 13.865 1.633 15.387-3.312 12.086-1.494 18.7-5.539 25.158-3.421 5.962-5.241 9.965-8.3 12.141-5.221 3.716-21.5 7.986-27.1 5.4-4.937-2.283-16.487-20.464-18.058-24.518z" fill="#361d07"/><g data-name="Group 4886"><path data-name="Path 8589" d="M3936.78 5504.334c.993-3.65-.194-4.852-1.724-4.339-1.677.564-3.908 3.222-4.875 7-1.555 6.091 1.989 13.336 7.468 9.942 1.43-2.122-.93-7.021-.869-12.603z" fill="#e8a476"/><path data-name="Path 8590" d="M3936.78 5504.334c.993-3.65-.194-4.852-1.724-4.339-1.677.564-3.908 3.222-4.875 7-1.555 6.091 1.989 13.336 7.468 9.942-4.9.693-4.924-5.28-3.75-9.063.801-2.565 2.201-4.455 2.881-3.54z" fill="#f1b287"/><path data-name="Path 8591" d="M3934.65 5506.126c1.587 2.45 2.188 3.932 1.82 4.85-.259.637-1.151 1.413-2.827.039a8.888 8.888 0 0 1 1.007-4.889z" fill="#db9669"/></g><path data-name="Path 8592" d="M3942.81 5451.17c-17.628-8.219-42.725-5.157-47.239 3.884 11.281 9.773 7.975 36.159 23.468 47.354 28.097 20.298 47.435-46.799 23.771-51.238z" fill="#361d07"/><path data-name="Path 8593" d="M3942.81 5451.17c17.466 8.64 4.643 43.216-7.064 49.133-9.173 4.637-15.266.44-19.92-6.968-8.185-13.017-11.951-35.944-20.255-38.281 9.456 8.192 9.947 28.523 18.56 41.33 4.924 7.324 12.17 12.645 21.375 8.533 17.928-8.01 25.915-50.255 7.304-53.747z" fill="#4a2b12"/><path data-name="Path 8594" d="M3946.48 5453.961c4.037 11.9 1.9 36.4-16.518 38.424-21.851 2.4-20.565-34.548-33.275-37.425 6.868 4.158 8.061 12.318 10.3 18.688 3.81 10.816 11.4 28.911 28.925 20.424 15.415-7.466 15.58-28.038 10.568-40.111z" fill="#4a2b12"/><path data-name="Path 8595" d="M3945.009 5452.7c2.862 11.253-.818 33.216-18.468 32.712-17.008-.488-15.8-26.742-27.555-28.987 12.021 5.926 8.4 31.376 27.257 31.932 19.15.565 23.877-24.722 18.766-35.657z" fill="#4a2b12"/><path data-name="Path 8596" d="M3909.358 5489.326c.929-14.844-4.245-30.415-11.9-35.1-5.431-3.323-11.136-1.9-15.071-.394-9.871 3.776-12.141 20.05-5.476 34.871 5.166 11.5 17.414 26.872 24.835 26.444 5.233-.304 6.675-10.815 7.612-25.821z" fill="#361d07"/><path data-name="Path 8597" d="M3909.358 5489.326a57.231 57.231 0 0 0-.086-8.222c-13.7 8.389-28.894 3.88-36.139-8.193a42.268 42.268 0 0 0 3.78 15.791c5.166 11.5 17.384 30.518 24.8 30.092 5.234-.303 6.708-14.462 7.645-29.468z" fill="#241304"/><path data-name="Path 8598" d="M3943.922 5451.7c1.795 8.614.389 15.5-2.454 20.3-9.932 16.775-23.072 7.569-31.107-5.557-2.948-4.818-6.519-9.49-12.914-11.663 6.534 1.817 10.738 5.978 14.22 10.3 7.576 9.405 17.722 20.728 28.12 5.735a27.172 27.172 0 0 0 4.135-19.115z" fill="#4a2b12"/><path data-name="Path 8599" d="M3895.145 5534.3l22.158 13.021 17.095-.455 2.107 9.307c-32.219 7.014-46.4-13.133-46.4-12.867-3.026-.053-7.229 8.664-7.229 8.664l-.339-7.811 7.365-8.914z" fill="#c3e6f7"/><path data-name="Path 8600" d="M3895.513 5552.181c15.329 9.969 29.4 8.95 54.078.443-2.284-1.42-6.74-4.31-9.808-5.329-17.537-5.823-43.054-4.716-39.619-16.806-1.524-.44-2.992-.834-4.392-1.177-7.4-1.805-9.949 16.34-.259 22.869z" fill="#ebf9ff"/><path data-name="Path 8601" d="M3900.1 5528.756c.811 7.368 22.41 11.911 34.408 8.5l.265-1.439c1.8.986 6.89 7.844 7.447 11.364-10.56 10.18-43.621 5.43-47.675-6.494-.968-2.856 3.035-8.187 5.555-11.931z" fill="#1abac6"/><g data-name="Group 4887"><path data-name="Path 8602" d="M4030.642 5616.374c13.063-8.348 10.9-5.833 18.084-12.864 4.351-4.265 17.476-16.768 9.994-22.026-1.86-1.309-1.827-1.112-7.731 1.268s-12.791 3.475-18.466 8.022c-4.312 3.456-9.023 10.459-11.517 19.1z" fill="#f1b287"/><path data-name="Path 8603" d="M3973.481 5575.739c4.652 14.1.546 40.78.592 66.262l-21.053 14.5c-3.223-2.134-3.734-4.275-4.261-13.173-1.066-17.977-2.742-58.306.133-67.075a15.46 15.46 0 0 1 12.189-9.977c6.477-.845 10.538 3.814 12.4 9.463z" fill="#d2eefc"/><path data-name="Path 8604" d="M3958.4 5633.889l63.87-33.031c7.19-.8 12.58 12.519 8.869 17.208L3970.626 5657c-8.193 3.087-13.9 2.789-17.472-.069-8.326-6.656-1.026-17.831 5.246-23.042z" fill="#d2eefc"/><path data-name="Path 8605" d="M3965.931 5658.659c-5.969 1.506-10.935-.052-12.911-2.159-3.223-2.134-3.542-4.288-4.261-13.173-.825-10.227-3.43-29.6-3.5-45.716-.035-8.694-.049-16.065 3.02-21.359 3.518-6.068 9.128-10.578 14.229-10.785a7.915 7.915 0 0 1 .868.009c-.615 23.1-4.837 59.127-2.112 82.367.236 1.944.36 8.708 4.667 10.816z" fill="#c3e6f7"/><path data-name="Path 8606" d="M3968.754 5636.326c1.787-5.078 2.5-6.224 5.552-10.662l47.965-24.806c2.677-.3 5.106 1.358 6.907 3.8z" fill="#c3e6f7"/></g><g data-name="Group 4892"><g data-name="Group 4888"><path data-name="Path 8607" d="M3852.986 5576.088c6.741 3.692 14.541 8.244 22.9 13.1a4.821 4.821 0 0 1 3.742-.485 19.413 19.413 0 0 1-.6-.34q-3.484-2.026-6.995-4.016a663.544 663.544 0 0 0-10.035-5.6c-1.917-1.045-3.852-2.1-5.791-3.134-5.407-2.883-10.958-5.768-16.52-8.329a44.963 44.963 0 0 0-5.984-2.392 4.557 4.557 0 0 0-2.583-.233 4.048 4.048 0 0 0-1.594.812c1.206-.68 5.958 1.64 8.94 3.116 4.96 2.466 9.706 4.807 14.52 7.501z" fill="#08c8d6"/><path data-name="Path 8608" d="M3896.69 5706.741c.311-31.214-12.9-69.512-21.012-93-1.941-5.645-3.621-10.518-4.718-14.171-1.138-3.754 2.3-8.927 4.963-10.511-.763-.441-1.526-.887-2.282-1.323-9.874-5.707-20.38-11.743-30.674-17.016-3.505-1.728-6.662-3.512-10.318-5.015-1.306-.538-2.069-.721-2.755-.44a5.664 5.664 0 0 0-2.392 3.032c-.7 1.817-.081 3.253.494 4.973 2.283 7.266 4.927 14.508 7.375 21.74 4.061 12.06 9.006 27.59 12.613 43.184 1.306 6.008 2.429 11.62 3.335 17.677 1.868 12.5 2.887 25.669.225 37.79a95.091 95.091 0 0 1-6.524 19.814c-1.892 4.448-4 10.311-1.465 14.356 2.133 3.4 8.06 7.168 10.534 8.881 9.971 6.9 21.194 13.645 31.622 19.775l3.776 2.208c-2.853-1.665-3.618-5.173-3.492-8.225.1-3.56 1.561-6.864 2.939-10.088 4.566-10.682 7.644-21.995 7.756-33.641z" fill="#07acb8"/><path data-name="Path 8609" d="M3842.689 5720.482c-.515 2.638-.454 5.238.866 7.347 2.133 3.4 8.06 7.168 10.534 8.881 9.971 6.9 21.194 13.645 31.622 19.775l3.776 2.208c-2.853-1.665-3.618-5.173-3.492-8.225a17.4 17.4 0 0 1 .795-4.543q-22.053-12.725-44.101-25.443z" fill="#079da8"/><path data-name="Path 8610" d="M3870.872 5596.609a12.632 12.632 0 0 1 5.051-7.552c-.763-.441-1.526-.887-2.282-1.323-9.874-5.707-20.38-11.743-30.674-17.016-3.505-1.728-6.662-3.512-10.318-5.015-1.306-.538-2.069-.721-2.755-.44a5.664 5.664 0 0 0-2.392 3.032 4.914 4.914 0 0 0-.065 3.244l13.567 7.827 15.791 9.111z" fill="#07b7c4"/><path data-name="Path 8611" d="M3891.252 5595.465l-11.643-6.764c-.792-.43-1.872-.657-3.686.356l11.443 6.65a4.566 4.566 0 0 1 3.886-.242z" fill="#08c8d6"/><path data-name="Path 8612" d="M3889.264 5620.694c-2.515-7.281-6.561-15.927-1.9-24.987l-11.443-6.65c-3.282 1.794-10.375 6.637-9.228 10.2 1.1 3.657 2.474 8.833 4.413 14.478 15.31 44.347 31.331 76.468 11.935 121.152-2.9 6.688-.139 19.958 6.444 23.8l11.442 6.651c-5.014-2.922-1.613-9.483.366-15.028 17.914-50.191 6.925-74.722-12.029-129.616z" fill="#07acb8"/><path data-name="Path 8613" d="M3878.921 5741.412c-1.553 5.108-.531 11.087 10.566 17.281l11.442 6.651c-4.123-2.4-3.995-7.879-2.721-12.835z" fill="#079da8"/><path data-name="Path 8614" d="M3882.6 5603.38a7.235 7.235 0 0 1 .682-2.519 11.477 11.477 0 0 1 4.084-5.154l-11.443-6.65c-6.752.161-16.929 1.17-5.118 7.513l1.782 1.029z" fill="#07b7c4"/><path data-name="Path 8615" d="M3936.007 5625.637a2.92 2.92 0 0 0-.161-.449c-.877-1.962-6.309-5.655-8.212-7.015q-2.184-1.5-4.379-2.982c-10.457-6.938-21.2-13.451-32.1-19.775a3.672 3.672 0 0 0-3.792.291q2.988 1.746 5.969 3.5c.116.065.22.126.333.194 4.869 2.956 9.8 5.8 14.652 8.788 4.974 3.114 23.267 14.443 24.787 16.94.883-.512 2.477-.673 2.839.549z" fill="#08c8d6"/><path data-name="Path 8616" d="M3961.918 5739.908c.1-1.93.156-4.194.127-6.79 0-.349-.007-.7-.016-1.047v-.308a134.56 134.56 0 0 0-.405-8.121c-1.665-21.712-8.141-44.85-13.583-61.985 0-.016-.006-.033-.006-.049l-.032-.082c-.31-.976-.617-1.942-.918-2.874-2.688-8.577-5.76-17.747-9.209-27.592-.091-.258-.178-.51-.268-.763q-.438-1.227-.879-2.483l-.722-2.177-.126-.064c.019.026.068.236.078.258.95 3.159 2.364 7.365 4.044 12.2q3.29 9.954 6.238 19.216c7.165 22.765 12.473 42.24 14.65 59.783q.528 4.4.814 8.74c.016.252.03.511.039.763.026.279.033.562.049.838q.126 2.544.171 4.991a103.824 103.824 0 0 1-.786 14.1 50.27 50.27 0 0 1-.566 3.618c-1.677 8.46-4.826 18.254-7.4 23.554l.025.026c.13-.262.249-.537.366-.758l.3-.682a82.364 82.364 0 0 0 6.884-22.3c.172-1.061.329-2.131.475-3.2.03-.229.065-.472.1-.724.164-1.176.287-2.333.4-3.514.027-.407.058-.848.081-1.3.05-.704.037-.507.075-1.274z" fill="#03868f"/><path data-name="Path 8617" d="M3961.524 5786.61a.02.02 0 0 1-.013.006.041.041 0 0 0 .013-.032h.01c-14.98 8.51-14.957-3.906-9.169-17.671 19.539-46.487-22.245-142.4-19.194-143.942 0-.581-10.275-7.805-11.432-8.58-10.8-7.25-30.351-18.346-34.373-20.684-3.757 2.073-6.052 6.881-4.815 10.974 1.089 3.6 2.713 8.3 4.579 13.709 8.287 24.029 21.924 63.557 20.962 95.142a78.692 78.692 0 0 1-4.864 23.946c-.8 2.515-2.257 5.064-3.473 8-2.453 5.914-4.273 12.445-.148 16.832a6.131 6.131 0 0 0 1.322 1.038q4.908 2.837 9.836 5.629c8.607 4.857 19.966 11.249 29.015 15.52a38.391 38.391 0 0 0 9.63 3.437 14.756 14.756 0 0 0 5.758-.456 22.469 22.469 0 0 0 5.48-2.348c.278-.145.546-.29.827-.446.01-.006 0-.015.01-.015l.026-.016a.036.036 0 0 0-.019.009v-.016l.032-.01c-.013 0-.022.01-.032.01.01-.01.019-.016.019-.026z" fill="#07acb8"/><path data-name="Path 8618" d="M3959.3 5787.767a21.274 21.274 0 0 1-6.265 2.072c-.058.01-.107.016-.162.026a7.7 7.7 0 0 1-3.925-.436c-3.118-1.562-3.573-5.891-3.056-9.4l-19.878-11.475-28.014-16.165c-1.245 4.4-1.391 8.726 1.61 11.917a6.131 6.131 0 0 0 1.322 1.038q4.908 2.837 9.836 5.629c8.607 4.857 19.966 11.249 29.015 15.52a38.391 38.391 0 0 0 9.63 3.437 14.756 14.756 0 0 0 5.758-.456 22.069 22.069 0 0 0 4.223-1.652z" fill="#079da8"/><path data-name="Path 8619" d="M3931.241 5631.46l-.8-2.641a4.362 4.362 0 0 1 2.728-3.848c0-.581-10.275-7.805-11.432-8.58-10.8-7.25-30.351-18.346-34.373-20.684a10.291 10.291 0 0 0-5.076 7.5l6.1 3.524 15.8 9.131 15.84 9.134z" fill="#07b7c4"/><path data-name="Path 8620" d="M3966.862 5776.6q-2.142 1.343-4.344 2.729c-.3.193-.608.387-1.033.65-5.962 3.467-8.958 2.8-9.851 1.322-.827-1.7.022-4.582 1.4-7.31 3.432-6.838 7.96-22 8.66-31.421 2.577-34.112-12.222-77.091-21.116-102.88-1.951-5.561-3.544-10.424-4.609-13.958-.384-1.29-2.088-1.623-3.333-.908-2.23 1.173-2.822 4.034-2.227 5.99 1.079 3.615 2.786 8.456 4.7 14.1 8.681 25.158 23.3 67.456 20.857 100.351-.634 8.333-4.093 20.4-7.835 27.179-3.142 6.35-3.414 11.585-1.694 14.712 2.08 3.818 7.5 3.793 15.1-.569.414-.268.837-.527 1.252-.786q3.675-2.313 7.181-4.514z" fill="#03868f"/></g><g data-name="Group 4891"><g data-name="Group 4889"><path data-name="Path 8621" d="M4045.318 5855.349l-4.582-2.658a24.519 24.519 0 0 1-1.976 9.089c-2.2 5.309-6.259 10.691-11 13.386l4.582 2.664a24 24 0 0 0 7.036-6.25 32.733 32.733 0 0 0 4.268-7.375c.889-2.254 1.946-6.186 1.672-8.856z" fill="#a8a5a3"/><path data-name="Path 8622" d="M4027.758 5875.166l-73.6 42.608 4.5 2.6 73.68-42.541z" fill="#c9c7c5"/><path data-name="Path 8623" d="M4044.144 5758.739l-4.582-2.665 1.174 96.617 4.582 2.658z" fill="#a8a5a3"/><path data-name="Path 8624" d="M4044.888 5753.083a58.469 58.469 0 0 0-.772-6.663 47.263 47.263 0 0 0-9.6-22.2 34.043 34.043 0 0 0-9.754-8.53l-4.579-2.654c10.095 5.865 16.455 16.389 18.663 30.871a54.171 54.171 0 0 1 .7 6.516c.042 1.386.016 5.438.016 5.651l4.582 2.665a54.324 54.324 0 0 0 .744-5.656z" fill="#918e8c"/><path data-name="Path 8625" d="M4026.413 5712.9c-11.052-6.431-17.792-8.879-30.975-7.931-14.126 1.015-28.359 6.737-40 13.492q-3.414 1.959-6.821 4.206l4.577 2.664q3.414-2.24 6.825-4.215a125.674 125.674 0 0 1 13.758-6.839 87.162 87.162 0 0 1 23.218-6.254 55.945 55.945 0 0 1 15.953.266 40.036 40.036 0 0 1 11.964 3.8c.501.256 1.016.517 1.501.811z" fill="#a8a5a3"/><path data-name="Path 8626" d="M4046.449 5759.119c.011-.326.091-6.492-.022-8.561-.107-1.9-.57-4.9-.977-7.226-2.81-16.082-10.734-27.256-23.212-32.52-16.309-6.887-39.154-3.007-62.218 10.305q-3.412 1.972-6.825 4.215l.172 2.542a136.068 136.068 0 0 1 6.667-4.116c22.523-13 44.81-16.787 60.7-10.072 12.435 5.254 20.207 16.561 22.7 32.886a55.765 55.765 0 0 1 .7 6.511c.039 1.391.016 5.442.016 5.656l1.174 96.61a24 24 0 0 1-1.911 8.949c-2.282 5.6-6.387 10.829-11.068 13.532l-73.68 42.54.008 2.648 73.68-42.544c8.447-4.878 15.3-16.754 15.276-26.458z" fill="#534b48"/><path data-name="Path 8627" d="M3953.2 5725.332l-4.577-2.664.167 2.551 4.582 2.654z" fill="#918e8c"/></g><g data-name="Group 4890"><path data-name="Path 8628" d="M4026.245 5717.1l-9.04-4.834a35.722 35.722 0 0 1 14.927 17.322l8.585 5c-3.298-7.716-7.94-13.688-14.472-17.488z" fill="#03868f"/><path data-name="Path 8629" d="M3975.035 5706.382l-.523 2.742 6.112 3.276-.391 2.136 2.651 1.145 1.089-4.381z" fill="#03868f"/><path data-name="Path 8630" d="M4013.13 5708.79c5.219.7 10.534 1.562 15.112 4.259-.012-.009-.009-.006 0 0-5.486-3.191-10.739-6.7-16.855-8.532a46.852 46.852 0 0 0-13.919-1.93 70.145 70.145 0 0 0-19.451 2.909c-.983.276-1.975.569-2.982.886l8.595 5c9.17-2.608 19.962-3.929 29.5-2.592z" fill="#07acb8"/><path data-name="Path 8631" d="M3983.63 5711.378l-.747 4.3c27.425-8.75 49.046-1.681 57.834 18.909l3.207-3.309c-9.202-21.57-31.748-29.015-60.294-19.9z" fill="#079da8"/></g></g></g></g></g></g></svg>