<svg xmlns="http://www.w3.org/2000/svg" width="132.339" height="343.767" viewBox="0 0 132.339 343.767">
  <g id="Group_4855" data-name="Group 4855" transform="translate(-5572.42 -5348.041)">
    <path id="Path_8438" data-name="Path 8438" d="M5698.441,5664.818l-66.818-32.834c-7.285-2.872-17.71-5.158-25.131-1.825-6.762,3.036-17.9,9.251-22.827,11.674-3.741,1.841-16.728,8.554-8.639,12.349,23.795,11.164,47.343,23.719,71.5,35.06,4.57,2.145,11.255,2.92,18.272,2.417a54.184,54.184,0,0,0,19.79-5.085q6.024-3.023,11.849-5.951c5.241-2.633,8.02-5.746,8.295-8.625C5705.007,5669.185,5702.912,5666.579,5698.441,5664.818Z" fill="#231f20" fill-rule="evenodd" opacity="0.1" style="mix-blend-mode: multiply;isolation: isolate"/>
    <path id="Path_8439" data-name="Path 8439" d="M5620.555,5507.464c.427-1.092-1.264-4.176-2.294-8.39a12.083,12.083,0,0,1,.549-7.715s.827-2.5,5.683,3.461c1.89,2.306,3.115.076,3.115.076s-.926-1.467-2.585-4.253c-1.858-3.136-2.224-4.394-4.371-7.012a9.274,9.274,0,0,0-4.248-3.247c-.87-.221-5.218-2.5-6.291,3.377-.1.569.088,2.692-.149,3.751a31.092,31.092,0,0,0-.825,8.591c.2,5.384,4.768,8.862,7.917,11.03C5618.184,5507.908,5620.1,5508.564,5620.555,5507.464Z" fill="#ad7c5b"/>
    <path id="Path_8440" data-name="Path 8440" d="M5613.716,5444.783c-3.619,15.856-3.227,23.841-5.648,39.932,6.253-1.452,11.591,2.144,12.053,4.649,3.57-13.525,9-29.87,9.692-44Z" fill="#06a7e0" fill-rule="evenodd"/>
    <path id="Path_8441" data-name="Path 8441" d="M5613.443,5441.7c-3.619,15.856-3.148,24.589-5.569,40.68,6.675-1.933,13.053,1.887,13.467,4.78,3.57-13.526,9-29.871,9.691-44Z" fill="#06a7e0" fill-rule="evenodd"/>
    <path id="Path_8442" data-name="Path 8442" d="M5614.327,5432.918c-3.62,15.856-4.032,33.372-6.453,49.463a13.523,13.523,0,0,1,7.754.089c1.1-9.8,5.588-26.813,8.427-39.4Z" fill="#06a7e0" fill-rule="evenodd"/>
    <g id="Group_4844" data-name="Group 4844">
      <g id="Group_4843" data-name="Group 4843">
        <path id="Path_8443" data-name="Path 8443" d="M5627.075,5623.928c-1.155,4.057-1.445,6.15-3.13,8.511-3.36,4.709-8.315,8.071-15.528,13.185-3.432,2.433-4.158,4.739-.682,6.86,2.737,1.67,9.431.343,13.613-.641,7.847-1.845,11.02-6.568,13.7-7.8l2.031.46c1.664.03,8.2-2.609,9.479-4.318a46.784,46.784,0,0,0,1.023-6.081c.242-6.642-.8-5.966-2.576-11.161C5638.972,5623.384,5633.124,5623.723,5627.075,5623.928Z" fill="#111214" fill-rule="evenodd"/>
        <path id="Path_8444" data-name="Path 8444" d="M5605.461,5649.444c-.035,1.049.674,2.064,2.274,3.04,2.737,1.67,9.431.343,13.613-.641,7.847-1.845,11.02-6.568,13.7-7.8l2.031.461c1.664.029,8.2-2.61,9.479-4.319a46.784,46.784,0,0,0,1.023-6.081c.242-6.642-.8-5.966-2.576-11.161-2.671.194-5.306.368-7.937.52-.477,4.372.161,11.914-3.437,14.72-4.023,3.139-7.162,3.974-9.851,5.609C5615.218,5649,5609.56,5653.235,5605.461,5649.444Z" fill-rule="evenodd"/>
        <path id="Path_8445" data-name="Path 8445" d="M5625.172,5631.384c.855,1.264,2.538,1.977,5.321,2.67-4.488,5.059-5.12,4.586-11.148,7.973-3.037,3.47-3.459,4.128-5.4,5.248-2.314,1.336-5.581,2.71-6.955,1.723-.591-.425.2-1.613,2.753-3.46,2.891-2.1,5.833-4.218,8.5-6.432A31.366,31.366,0,0,0,5625.172,5631.384Z" fill="#20232e" fill-rule="evenodd"/>
      </g>
      <path id="Path_8446" data-name="Path 8446" d="M5649.542,5512.969a97.079,97.079,0,0,0,.857-15.5c-4.891-1.956-10.031-3.805-14.989-5.974l.355-.3c-5.255-2.466-9.784-6.3-15.844-9.774-2.535,7.983-3.475,11.558-3.282,18.052a199.536,199.536,0,0,0,2.839,25.674c.885,13.153,2.067,26.877,2.92,35.859,2.175,22.912,1.909,45.515,3.28,68.389,2.839,4.659,16.536,4.945,21.215-1.6.7-18.094,1.832-32.381,1.32-42.282-.426-8.242-.818-12.99-3.484-20.316C5646.506,5553,5648.9,5530.565,5649.542,5512.969Z" fill="#001624" fill-rule="evenodd"/>
      <path id="Path_8447" data-name="Path 8447" d="M5672.388,5647.974c1,2.931,1.92,5.2,1.826,7.045-.1,1.909-.618,3.765-.593,6.179.02,2.07.127,3.83.366,6.173.245,2.4,0,3.531-1.057,4.489-1.708,1.555-6.8,3.963-9.213,4.78a9.66,9.66,0,0,1-4.223.568,18.763,18.763,0,0,1-5.66-1.032c-.521-.195-1.055-2.216-1.093-3.969-.079-3.669.254-3.36,1.773-9.176.519-1.987.938-3.882,1.651-6.2.889-2.89,2-5.434,2.109-8.278l10.747-.419Z" fill="#111214" fill-rule="evenodd"/>
      <path id="Path_8448" data-name="Path 8448" d="M5672.388,5647.974c1,2.931,1.92,5.2,1.826,7.045-.1,1.909-.618,3.765-.593,6.179.02,2.07.127,3.83.366,6.173.245,2.4,0,3.531-1.057,4.489-1.708,1.555-6.8,3.963-9.213,4.78a9.66,9.66,0,0,1-4.223.568,18.763,18.763,0,0,1-5.66-1.032c-.472-.177-.954-1.85-1.069-3.466l.029,0c3.285,1.119,6.472,1.568,9.627.027,6.661-3.254,5.794-5.956,5.168-13.635-4.334-.763-6.037-1.535-8.235-3.908,3.694,1.086,7.666,1.28,9.63-.977l.611-6.11Z" fill-rule="evenodd"/>
      <path id="Path_8449" data-name="Path 8449" d="M5633.579,5565.124c4.492,21.228,5.629,36.206,2.761,67.631,4.133-.306,8.346-1.874,10.553-4.964.7-18.094,1.833-32.381,1.32-42.282-.426-8.242-.818-12.99-3.484-20.315,2.285-15.674,5.582-48.289,4.885-65.773l-9.381-3.752C5637.388,5521.536,5635.594,5534.876,5633.579,5565.124Z" fill="#00101a" fill-rule="evenodd"/>
      <path id="Path_8450" data-name="Path 8450" d="M5638.653,5522.54c1.733,17.63,11.234,104.038,13.244,126.864,3.107,4.858,14.809,5.86,19.291-.185.194-18.107,1.837-38.38,1.049-48.262a62.418,62.418,0,0,0-4.9-20.466c.451-14.111,7.814-72.084-1.912-83.46a8.545,8.545,0,0,0-1.831-2.575l-14.17-1.106-16.808-1.957a48.746,48.746,0,0,0,.121,19.961,3.155,3.155,0,0,0,.379.823c.16,1.189.372,2.388.643,3.588C5634.012,5516.867,5636.7,5519.944,5638.653,5522.54Z" fill="#001e30" fill-rule="evenodd"/>
      <path id="Path_8451" data-name="Path 8451" d="M5657.714,5655.785c3.11,2.452,2.022,3.525,6.561,4.117-1.123,4.489-1.264,4.706-3.538,8.847-.183,1.71-.32,3.955-3.652,3.976-6.219.04-1.9-5.094-1.883-5.287A51.488,51.488,0,0,1,5657.714,5655.785Z" fill="#20232e" fill-rule="evenodd"/>
      <path id="Path_8452" data-name="Path 8452" d="M5620.529,5486.5c3.756,3.73,6.94,5.695,11.713,8.226.017,8.025.011,22.888-.289,37.744-.031,8.786-.173,17.734-.554,25.182q-.019.543-.035,1.086c.747,6.184,3.645,9.674,4.009,18.965.406,10.355-.937,27.7-2.773,39.032.06,4.973.093,9.929.051,14.871a9.746,9.746,0,0,1-6.584-2.722l-.368-56.27c-.354-8.966-1.734-22.389-2.843-36.2C5620.5,5519.925,5618.225,5500.794,5620.529,5486.5Z" fill="#001e30" fill-rule="evenodd"/>
      <path id="Path_8453" data-name="Path 8453" d="M5652.7,5499.223l.041.012a261.2,261.2,0,0,0,7.586,25.889c2.066,17.9,1.54,37.432,1.789,51.233,1.863,25.249,3.973,50.548,5.233,75.828-2.3-.2-7.394-1.226-8.615-2.333-1.379-20.586-1.134-49.617-3.7-68.964-.524-3.95-4.336-37.5-8.934-56.514-1.54-6.37-5.946-6.251-6.838-9.914-1.934-7.945-1.975-11.573-1.179-20.2C5642.92,5496.071,5647.736,5497.805,5652.7,5499.223Z" fill="#00263d" fill-rule="evenodd"/>
    </g>
    <path id="Path_8454" data-name="Path 8454" d="M5619.774,5482c.06.392-2.412,7.484-2.283,7.9,4.132,13.236,41.117,7.7,47.939,7.132-5.413-47.076,43.313-83.472-9.51-98.99l-15.2,8.366-5.438-.977-.7-6.692c-7.354,7.313-10.756,17-12.065,30.477C5620.81,5446.844,5624.51,5462.659,5619.774,5482Z" fill="#78bfea" fill-rule="evenodd"/>
    <path id="Path_8455" data-name="Path 8455" d="M5639,5397.735c-.163-.5-7.846-1.917-8.153-1.936-5.361-.339-7.771.781-10.6,4.992-4.937,7.359-5.709,23.028-5.36,37.149.2,8,3.916,13.249,4.015,23.189.047,4.8-2,28.157-1.415,28.77,1.46,1.541,1.609.361,3.412,1.494-.01-5.7,1.429-17.743,1.6-23.691.475-16.788,1.65-33.963,4.786-46.712C5631.887,5402.285,5639.817,5400.261,5639,5397.735Z" fill="#78bfea" fill-rule="evenodd"/>
    <path id="Path_8456" data-name="Path 8456" d="M5644.657,5498.636c8.088.6,17.579-1.34,20.773-1.605-5.413-47.076,43.313-83.472-9.51-98.99l-15.2,8.366-5.438-.977-.7-6.692a35.555,35.555,0,0,0-7.571,11.154l.436.478c3.966-1.256,6.05-2.863,8.095-1.96,1.686.745,3.615,3.4,4.209,7.607,2.4-.6,6.966-2.319,9.342-3-8.8,13.13-17.016,41.347-10.854,70.812C5639.01,5487.493,5643.006,5494.854,5644.657,5498.636Z" fill="#06a7e0" fill-rule="evenodd"/>
    <g id="Group_4845" data-name="Group 4845">
      <path id="Path_8457" data-name="Path 8457" d="M5665.692,5496.356" fill="#e0f5ff" fill-rule="evenodd"/>
      <path id="Path_8458" data-name="Path 8458" d="M5653.8,5482.552" fill="#e0f5ff" fill-rule="evenodd"/>
      <path id="Path_8459" data-name="Path 8459" d="M5667.6,5484.454" fill="#e0f5ff" fill-rule="evenodd"/>
    </g>
    <path id="Path_8460" data-name="Path 8460" d="M5635.83,5413.935c.436,1.948.713,3.6.99,5.578-4.376,12.693-5.175,52.259-7.983,71.531-.406,2.786-2.828,4.278-4.4,2.81-1.088-1.014-1.476-5.348-1.732-3.85-.388-19.1,3.134-56.258,7.274-76.139a12.724,12.724,0,0,1,3.743-1.318,5.964,5.964,0,0,1,1.273-.006Z" fill="#041e2e" fill-rule="evenodd"/>
    <path id="Path_8461" data-name="Path 8461" d="M5640.234,5407.943c-.888,3.712-1.023,3.655-4.48,6.274l-2.234-1.185c-1.046-4.285-.529-7.057.329-7.564C5636.843,5405.357,5638.09,5405.712,5640.234,5407.943Z" fill="#041e2e" fill-rule="evenodd"/>
    <path id="Path_8462" data-name="Path 8462" d="M5655.03,5392.544c.42,6.752-12.4,11.445-19.551,13.146,1.795,2.167,4.114,4.89,4.022,7.054,5.158-1.41,13.906-3.837,17.451-10.432C5659.375,5397.8,5657.381,5394.34,5655.03,5392.544Z" fill="#06a7e0" fill-rule="evenodd"/>
    <path id="Path_8463" data-name="Path 8463" d="M5643.7,5403.8c-2.6.9-5.162,1.618-7.226,2.109,1.531,1.848,3.509,4.17,3.43,6.016a26.8,26.8,0,0,0,6.67-2.785C5649.867,5407.219,5648.66,5402.08,5643.7,5403.8Z" fill="#06a7e0" fill-rule="evenodd"/>
    <g id="Group_4846" data-name="Group 4846">
      <path id="Path_8464" data-name="Path 8464" d="M5634.157,5399.7c-.231-.652-.5-1.295-.755-1.992-.731-1.989-.757-6.2-2.023-10.853l18.354-8,3.93-2.084c-1.421,6.915-.586,11.038,1.373,15.945.2,6.642-12.388,11.264-19.5,12.964C5634.907,5404.066,5634.865,5401.7,5634.157,5399.7Z" fill="#ad7c5b" fill-rule="evenodd"/>
      <path id="Path_8465" data-name="Path 8465" d="M5653.357,5396.975c-6.66-2.352-11.867.572-20.494-1.734a66.956,66.956,0,0,0-1.484-8.39l18.354-8,3.93-2.084c-1.421,6.915-.586,11.038,1.373,15.945A6.345,6.345,0,0,1,5653.357,5396.975Z" fill="#8f6142" fill-rule="evenodd"/>
    </g>
    <path id="Path_8466" data-name="Path 8466" d="M5679.522,5446.622c-.481-11.993-2.525-23.913-2.65-35.916-9.193-.4-18.519,13.416-16.812,19.858,5.734,21.635,5.578,31.192,7.344,41.063,3.368-1.223,8.788,2.217,12.439,3.184C5680.5,5465.454,5679.9,5456,5679.522,5446.622Z" fill="#06a7e0" fill-rule="evenodd"/>
    <g id="Group_4848" data-name="Group 4848">
      <g id="Group_4847" data-name="Group 4847">
        <path id="Path_8467" data-name="Path 8467" d="M5682.349,5494.473" fill="#f1b287" fill-rule="evenodd"/>
      </g>
    </g>
    <g id="Group_4850" data-name="Group 4850">
      <g id="Group_4849" data-name="Group 4849">
        <path id="Path_8468" data-name="Path 8468" d="M5640.327,5395.972a51.447,51.447,0,0,1,9.643-4.459c2.779-.851,2.3-4.211,4.945-9.859,4.438-1.977,6.188-3.9,7.042-6.318,2.027-5.725-.032-12.763-3.824-17.153a15.961,15.961,0,0,0-12.98-5.537c-5.374.075-10.1,1.552-13.108,4.485-2.408,2.346-5.592,9.461-5.245,12.927.182,1.83.767,2.744.912,3.993.34,2.932-.933,2.405-1.309,4.611-.577,3.389.825,8.868,1.408,13.437a3.969,3.969,0,0,0,1.365,2.946c2.622,2.335,5.307,4.244,7.738,2.731C5638.437,5396.829,5639.421,5396.507,5640.327,5395.972Z" fill="#ad7c5b" fill-rule="evenodd"/>
        <path id="Path_8469" data-name="Path 8469" d="M5640.327,5395.972a51.447,51.447,0,0,1,9.643-4.459c2.779-.851,2.3-4.211,4.945-9.859,4.438-1.977,6.188-3.9,7.042-6.318,2.027-5.725-.032-12.763-3.824-17.153a15.961,15.961,0,0,0-12.98-5.537c-5.374.075-10.1,1.552-13.108,4.485a15.876,15.876,0,0,0-2.6,3.8c3.169,5.651,7.048,6.828,14.194,7.049,2.211.069,3.135,2.081,2.408,4.141-.744,2.1-3.049,4.028-3.1,5.106-.078,1.653,2.627,3.065,1.937,5.43-.39,1.337-4.871,2.616-5.084,4.585-.413,3.8-.119,4.329-.943,7.051-.466,1.538-3.423,3.664-5.255,3.576l-.292.069a3.766,3.766,0,0,0,3.6-.159C5638.437,5396.829,5639.421,5396.507,5640.327,5395.972Z" fill="#9e6d4c" fill-rule="evenodd"/>
        <path id="Path_8470" data-name="Path 8470" d="M5630.589,5358.561c1.986,4.077,9.786,6.7,16.175,6.335,2.57-.146,3.709,2,3.595,4.472-.119,2.566-1.232,3.871-1.57,6.1-.273,1.8.186,4.4.323,7.217l1.869.082c2.924-3.966,3.6.041,3.9,2.234,1.963-1.015,3.15-1.511,3.9-2.275s-.009-2,1.1-2.314c2.812-.8,1.705-2.631,2.478-3.575.5-.609,1.689-1.069,2.112-1.869.92-1.747-.351-3.829-.244-5.281a12.055,12.055,0,0,1,.894-2.843c.284-.813.827-1.3.812-2.032-.018-.876-1.52-3.058-2.031-3.9-.332-.546-.321-3.7-1.057-4.78-.972-1.424-2-1.689-3.086-2.532-1.238-.96-1.931-2.5-4.062-3.494-.968-.452-2.377-.1-3.372-.406s-1.78-1.11-2.722-1.462c-1.894-.71-4.121.653-5.483.811-1.286.151-3.239-.609-5.647-.081a34.434,34.434,0,0,0-3.737,1.463c-1.269.429-2.392-.329-3.412,2.519C5631.059,5353.686,5630.827,5357.23,5630.589,5358.561Z" fill="#22242b" fill-rule="evenodd"/>
        <path id="Path_8471" data-name="Path 8471" d="M5630.589,5358.561c1.986,4.077,9.786,6.7,16.175,6.335,2.57-.146,3.709,2,3.595,4.472-.119,2.566-1.232,3.871-1.57,6.1-.273,1.8.186,4.4.323,7.217l1.869.082c2.924-3.966,3.6.041,3.9,2.234,1.963-1.015,3.15-1.511,3.9-2.275s-.009-2,1.1-2.314c2.812-.8,1.705-2.631,2.478-3.575.5-.609,1.689-1.069,2.112-1.869.92-1.747-.351-3.829-.244-5.281a12.055,12.055,0,0,1,.894-2.843c.284-.813.827-1.3.812-2.032-.018-.876-1.52-3.058-2.031-3.9-.244-.4-.3-2.211-.608-3.57-.5,1.2-1.3.348-2.055,1.293s-2.172-.205-2.763.04-1.341,1.192-1.908,1.178c-1.783-.042-1.835-.25-2.243-.1a7.449,7.449,0,0,0-2.344,1.417,1.608,1.608,0,0,1-1.608-.1c-.82-.945-1.12-1.527-2.449-1.45a4.1,4.1,0,0,1-2.582-.416c-1.15-.814-1.34-2.233-2.708-2.4-1.136-.139-2.725.577-3.574.162-1.266-.618-1.455-1.294-2.275-1.95-.691-.553-1.753-.245-2.356-.691a7.353,7.353,0,0,1-1.233-1.608c-.28-.359-1.687-.185-1.276-1.027a5.775,5.775,0,0,0-.6,1.257C5631.059,5353.686,5630.827,5357.23,5630.589,5358.561Z" fill="#121212" fill-rule="evenodd"/>
        <path id="Path_8472" data-name="Path 8472" d="M5655.084,5375.327c4.407-1.005,3.921,3.912,2.95,6.823-.668,2-2.342,1.671-3.124,3.224a3.883,3.883,0,0,1-3.793,2.421c-2.583-.342-.577-4.022-.11-5.519C5650.968,5379.742,5652.287,5375.965,5655.084,5375.327Z" fill="#9e6d4c" fill-rule="evenodd"/>
      </g>
      <path id="Path_8473" data-name="Path 8473" d="M5639.991,5349.347c-2.6-.139-2.907.978-3.616,1.334s-3.28.355-2.223,1.688,3.035,1.058,3.487,1.413c2.312,1.817,3.068,1.4,4.792,1.134,1.126-.173,1.751.209,2.971.955a6.6,6.6,0,0,0,3.015.514c2.192-.291,2.692-1.178,6.484-.847,1.384.119,4.054-.433,3.493-1.406-.365-.631-1.484-1.268-1.57-1.522a3.778,3.778,0,0,0-1.689-1.856c-1.013-.388-2.476.41-3.266.149-2.5-.823-1.629-1.613-3.073-1.749-1.806-.171-2.556.67-3.555.774C5641.71,5350.3,5642.584,5349.487,5639.991,5349.347Z" fill="#2b2e36" fill-rule="evenodd"/>
    </g>
    <g id="Group_4851" data-name="Group 4851">
      <path id="Path_8474" data-name="Path 8474" d="M5643.192,5397.719a1.4,1.4,0,0,0,.765,1.835l8.755,4.926a1.4,1.4,0,0,0,1.841-.757l10.509-24.846a1.416,1.416,0,0,0-.77-1.837l-8.849-5.19a1.4,1.4,0,0,0-1.839.763Z" fill="#566872"/>
      <path id="Path_8475" data-name="Path 8475" d="M5658.6,5420.592s-3.017-7.8-2.858-10.023c.4-5.623,4.4-13.392,3.69-17.375-.58-3.223-8.706-10.658-10.035-11.348-.525-.265-1.045.642-.4,1.46,1.394,1.765,3.319,4.4,3.319,4.4s-3.587-1.926-5.674-2.15a1.11,1.11,0,0,0-.923,1.865c.1.119-1.168,1.227-.429,2.1a15.746,15.746,0,0,1,2.553,3.354c-3.345-1.629-4.434.04-3.889.559,2.766,2.678,4.271,2.312,3.373,6.831a22.4,22.4,0,0,0-.723,6.5,8.437,8.437,0,0,0,1.757,3.444c-.1-.144,2.526,15.664,2.526,15.664Z" fill="#ad7c5b"/>
      <path id="Path_8476" data-name="Path 8476" d="M5655.962,5412.175c10.542,23.935,8.374,20.574,20.451,40.5,3.078,5.076,4.938,18.427-3.49,20.845-3.3.943-4.264-1.2-6.455-3.564a30.787,30.787,0,0,1-5.459-7.888c-8.534-17.988-12.731-53.25-12.731-53.25Z" fill="#ad7c5b"/>
      <path id="Path_8477" data-name="Path 8477" d="M5672.923,5473.515c-3.3.943-4.264-1.2-6.455-3.564a30.787,30.787,0,0,1-5.459-7.888c-7.165-15.11-11.27-42.383-12.409-50.74,1.462,5.436,9.859,36.463,13.493,45.016,2.405,5.678,4.179,10.192,6.09,12.957,1.577,2.292,3.242,3.671,5.176,1.093.5-.67,3.34.414,5.6-4.762C5677.706,5471.221,5675.32,5472.829,5672.923,5473.515Z" fill="#461600" opacity="0.13" style="mix-blend-mode: multiply;isolation: isolate"/>
    </g>
    <path id="Path_8478" data-name="Path 8478" d="M5678.837,5475.975c-4.663-.478-7.711.379-11.387-3.183-1.574-1.525-2.546-3.975-4.151-6.4-7.014-10.616-14.214-28.785-16.85-45.156,1.025-1.5,3.425-2.478,6.106-2.97,6.416,14.762,12.136,29.144,17.933,44.261,3.053,4.768,2.27,4.117,7.554,6.281q.923.378,1.844.747Z" fill="#78bfea" fill-rule="evenodd"/>
    <g id="Group_4852" data-name="Group 4852">
      <path id="Path_8479" data-name="Path 8479" d="M5624.711,5416.131c-1.9-.881-2.445-3.747-1.215-6.4s3.769-4.093,5.671-3.212,2.445,3.747,1.215,6.4S5626.613,5417.012,5624.711,5416.131Z" fill="#736f6f" fill-rule="evenodd"/>
      <path id="Path_8480" data-name="Path 8480" d="M5624.865,5415.8c-1.77-.821-2.277-3.489-1.131-5.962,1.127-2.434,3.437-3.769,5.2-3.027-1.713-.477-3.825.842-4.887,3.135-1.145,2.472-.639,5.141,1.132,5.962l.081.035A2.6,2.6,0,0,1,5624.865,5415.8Z" fill="#b8b6b6" fill-rule="evenodd"/>
      <path id="Path_8481" data-name="Path 8481" d="M5625.451,5414.536c-1.27-.589-1.634-2.505-.812-4.278s2.517-2.735,3.788-2.147,1.634,2.5.812,4.278S5626.722,5415.124,5625.451,5414.536Z" fill="#4a4848" fill-rule="evenodd"/>
      <path id="Path_8482" data-name="Path 8482" d="M5625.6,5414.2c-1.138-.528-1.465-2.246-.728-3.836s2.259-2.453,3.4-1.926,1.466,2.246.728,3.837S5626.743,5414.732,5625.6,5414.2Z" fill="#736f6f" fill-rule="evenodd"/>
      <path id="Path_8483" data-name="Path 8483" d="M5626.253,5412.805a1.462,1.462,0,0,1-.375-1.973c.379-.819,1.161-1.262,1.747-.99a1.459,1.459,0,0,1,.374,1.973C5627.621,5412.633,5626.838,5413.076,5626.253,5412.805Z" fill="#454242" fill-rule="evenodd"/>
      <path id="Path_8484" data-name="Path 8484" d="M5625.7,5414c-1.057-.491-1.36-2.084-.675-3.56.675-1.459,2.06-2.257,3.112-1.805a2.856,2.856,0,0,0-2.78,1.9c-.684,1.476-.381,3.071.676,3.56l.04.018A1.5,1.5,0,0,1,5625.7,5414Z" fill="#b8b6b6" fill-rule="evenodd"/>
    </g>
    <g id="Group_4854" data-name="Group 4854">
      <path id="Path_8485" data-name="Path 8485" d="M5659.077,5398.144c8.011,6.5,2.425,14.076-7.153,27.063l-.657.892-1.042-.763.657-.893c9.117-12.363,14.434-19.573,7.38-25.3Z" fill="#403e3e" fill-rule="evenodd"/>
      <path id="Path_8486" data-name="Path 8486" d="M5637.723,5436.069q1.113-1.779,2.141-3.217a28.529,28.529,0,0,1,6.528-6.983c2.02-1.379,3.678-1.6,4.815-.887v0c.037.023.079.052.126.084,1.207.862,1.711,2.748.938,6.015a47.568,47.568,0,0,1-4.521,10.776l-1.139-.607a46.383,46.383,0,0,0,4.4-10.462c.63-2.668.356-4.11-.428-4.668l-.059-.04v0c-.693-.434-1.854-.2-3.4.861a27.273,27.273,0,0,0-6.2,6.663q-1.035,1.452-2.1,3.152Z" fill="#403e3e" fill-rule="evenodd"/>
      <g id="Group_4853" data-name="Group 4853">
        <path id="Path_8487" data-name="Path 8487" d="M5638.879,5435.2h0a1.346,1.346,0,0,1,.519,1.826l-.807,1.4a1.346,1.346,0,0,1-1.826.518h0a1.346,1.346,0,0,1-.518-1.826l.806-1.4A1.344,1.344,0,0,1,5638.879,5435.2Z" fill="#141414" fill-rule="evenodd"/>
        <path id="Path_8488" data-name="Path 8488" d="M5647.9,5440.253h0a1.346,1.346,0,0,1,.518,1.826l-.806,1.4a1.346,1.346,0,0,1-1.826.519h0a1.346,1.346,0,0,1-.518-1.826l.806-1.4A1.346,1.346,0,0,1,5647.9,5440.253Z" fill="#141414" fill-rule="evenodd"/>
      </g>
    </g>
    <path id="Path_8489" data-name="Path 8489" d="M5645.544,5416.433c5.455-2.5,9.69-1.863,14.469-.589a18.118,18.118,0,0,0,.549,4.526l-13.439,1.393A17.906,17.906,0,0,0,5645.544,5416.433Z" fill="#78bfea" fill-rule="evenodd"/>
    <path id="Path_8490" data-name="Path 8490" d="M5645.544,5416.433a18.63,18.63,0,0,1,4.733-1.486c.122.878.207,1.066.351,1.943,1.829-.326,9.3.03,9.548,1.276l-13.053,3.6A17.906,17.906,0,0,0,5645.544,5416.433Z" fill="#06a7e0" fill-rule="evenodd"/>
    <path id="Path_8491" data-name="Path 8491" d="M5681.972,5470.929a5.318,5.318,0,0,1-6.02,5.5c-3.013-.39-5.96-1.177-8.133-3.276-1.594-1.54-2.584-4.006-4.211-6.453-7.114-10.7-14.447-28.985-17.172-45.447,2.32-3.4,11.718-4.082,15.5-2.556,7.7,11.935,10.633,24.212,16.6,36.757a59.464,59.464,0,0,1,3.063,6.646Z" fill="#78bfea" fill-rule="evenodd"/>
    <path id="Path_8492" data-name="Path 8492" d="M5635.132,5403.979l-.545-5.241a35.555,35.555,0,0,0-7.571,11.154l.436.478c3.211-1.017,6.3-4.721,8.027-4.68C5635.786,5404.31,5634.919,5405.378,5635.132,5403.979Z" fill="#06a7e0" fill-rule="evenodd"/>
  </g>
</svg>
