<svg xmlns="http://www.w3.org/2000/svg" width="126.908" height="343.339" viewBox="0 0 126.908 343.339">
  <g id="Group_4842" data-name="Group 4842" transform="translate(-5336.749 -5343.047)">
    <path id="Path_8371" data-name="Path 8371" d="M5342.809,5660.5l64.075-31.486c6.986-2.754,16.983-4.946,24.1-1.75,6.484,2.911,17.167,8.871,21.89,11.194,3.587,1.766,16.041,8.2,8.284,11.843-22.818,10.705-45.4,22.745-68.57,33.62-4.382,2.057-10.792,2.8-17.522,2.318a51.969,51.969,0,0,1-18.977-4.876q-5.777-2.9-11.363-5.707c-5.026-2.525-7.691-5.51-7.955-8.271C5336.513,5664.693,5338.521,5662.194,5342.809,5660.5Z" fill="#231f20" fill-rule="evenodd" opacity="0.1" style="mix-blend-mode: multiply;isolation: isolate"/>
    <g id="Group_4834" data-name="Group 4834">
      <path id="Path_8372" data-name="Path 8372" d="M5430.208,5478.387c3.843,7.808,4.518,6.248,6.042,10.9.653,1.995.545,7.141-.151,10.55-.44,2.142-.035,4.758-2.01,4.892-1.69.115-2.822-2-3.688-3.359-1.847-2.882-2.3-7.245-3.624-10.859-1.066-2.914-4.4-6.933-3.085-11.8Z" fill="#e8a476" fill-rule="evenodd"/>
      <path id="Path_8373" data-name="Path 8373" d="M5436.25,5489.286c.653,1.995.545,7.141-.151,10.55-.233,1.133-.23,2.4-.466,3.358-2.111.894-3.354-2.626-3.963-5.813-.616-3.223-.942-6.926-1.01-7.107C5431.516,5489.678,5435.514,5488.616,5436.25,5489.286Z" fill="#f1b287" fill-rule="evenodd"/>
      <path id="Path_8374" data-name="Path 8374" d="M5430.208,5478.387c.358.731.691,1.379,1,1.959-2.477-.33-4.272.768-4.813,1.9-.773,1.614,2.025,4.754,2.9,7.423.654,1.994,1.165,7.515,2.3,11.1.45,1.426,1.856,3.934,3.758,3.187a1.45,1.45,0,0,1-1.259.776c-1.743.119-3.263-2.518-4.054-3.98-1.548-2.864-2.028-6.875-3.258-10.238-1.066-2.914-4.4-6.933-3.085-11.8Z" fill="#db9669" fill-rule="evenodd"/>
      <path id="Path_8375" data-name="Path 8375" d="M5431.257,5480.1c-2.372-10.174-4.8-19.535-7.757-29.536q-.888.893-1.77,1.771a45.306,45.306,0,0,1-8.774,6.391l10.265,23.571C5425.54,5479.206,5429.626,5478.7,5431.257,5480.1Z" fill="#d2eefc" fill-rule="evenodd"/>
      <path id="Path_8376" data-name="Path 8376" d="M5431.257,5480.1c-2.372-10.174-4.8-19.535-7.757-29.536q-.888.893-1.77,1.771c.03,9.572,5.489,23.065,7.151,27.025A3.665,3.665,0,0,1,5431.257,5480.1Z" fill="#e0f5ff" fill-rule="evenodd"/>
      <path id="Path_8377" data-name="Path 8377" d="M5411.541,5459.625l11.561,23.066a7.629,7.629,0,0,1,3.948-3.062c-2.433-5.832-6.219-15.6-7.294-22.04a12.923,12.923,0,0,1-.2-3.3A88.916,88.916,0,0,1,5411.541,5459.625Z" fill="#c3e6f7" fill-rule="evenodd"/>
    </g>
    <path id="Path_8378" data-name="Path 8378" d="M5400.558,5482.745c-2.44,7.629-.1,20.3,1.954,33.532,1.128,7.281,2.941,14.788,3.817,21.206.978,7.155,1.455,11.755,1.18,15.293-.657,8.389-4.186,10.16-5.508,21.089-1.6,13.265,5.372,28.47,4.853,43.086a9.143,9.143,0,0,1-1.75,3.589c-5.855,7.2.18,6.25-.382,15.76-.049.837,3.186,15.347,3.186,15.347s8.692,2.419,9.349,2.324,6.05-1.969,6.05-1.969c-.425-.792-.955-2.714-1.3-3.44-3.914-8.307-4.438-18.482-4.446-27.854-.008-12.821,3.528-43.008,6.829-55.331,3.315-7.553,4.478-8.292,4.008-21.376-.769-21.331.671-37.071-1.963-59.608Z" fill="#f1b287" fill-rule="evenodd"/>
    <path id="Path_8379" data-name="Path 8379" d="M5407.345,5545.971a41.4,41.4,0,0,1,.164,6.8c-.657,8.389-4.186,10.16-5.508,21.089-1.6,13.265,5.372,28.47,4.853,43.086a9.143,9.143,0,0,1-1.75,3.589c-5.855,7.2.18,6.25-.382,15.76-.049.837,3.186,15.347,3.186,15.347s5.3,1.475,7.935,2.075a28.215,28.215,0,0,1-6.091-15.612c-.539-6.323,1.6-16,1.631-19.7.109-11.272-.327-36.245.141-40.673.772-7.285,3.312-13.093,6.1-23.42.784-2.906-.179-4.728-7.091-5.45Z" fill="#e8a476" fill-rule="evenodd"/>
    <path id="Path_8380" data-name="Path 8380" d="M5420.86,5645.914c.935,1.715,1.944,4.176,2.8,6.032a37.493,37.493,0,0,1,2.194,5.841,2.738,2.738,0,0,1-.2,2.348c-2.1,2.818-12.617-2.32-16.142-5.434-2.279-2.011-2.321-4.388-2.856-7.293-.8-4.361-.941-4.851-1.984-9.331l-1.185,12.162-1,.608a135.311,135.311,0,0,0-1.5-15.742c-.3-1.688-.825-3.611-.9-4.546-.435-5.507,2.291-8.216,4.795-9.766-.92,3.348,1.508,8.8,2.613,15.653,1.154,7.177,5.13,15.023,8.252,15.687,1.317.279,4.227-1.362,5.809-2.265C5422.156,5649.525,5421.474,5647.469,5420.86,5645.914Z" fill="#00263d" fill-rule="evenodd"/>
    <path id="Path_8381" data-name="Path 8381" d="M5422.693,5660.907c-4.014-.427-10.545-3.88-13.177-6.206-2.279-2.011-2.321-4.388-2.856-7.293-.8-4.361-.941-4.851-1.984-9.331l-1.185,12.162-1.034.693-.923-.951c-.179-4.689.133-11.1-.549-14.876-.3-1.688-.825-3.611-.9-4.546-.435-5.507,2.291-8.216,4.795-9.766-.92,3.348,1.508,8.8,2.613,15.653.951,5.9,3.811,12.263,6.535,14.7A49.188,49.188,0,0,0,5422.693,5660.907Z" fill="#001624" fill-rule="evenodd"/>
    <g id="Group_4835" data-name="Group 4835">
      <path id="Path_8382" data-name="Path 8382" d="M5391.678,5568.179c-2.3,3.629-4.939,7.31-6.09,10.295-4.382,11.38-2.584,31.42-3.794,48.652-.12,1.713-1.194,3.277-1.684,4.919a59.483,59.483,0,0,0-2.123,8.854,80.979,80.979,0,0,0-.831,16.44c.119,2.33.949,3.464,1.083,6.649l12.82,4.471c-.221-2.757-.5-6.97-.542-11.608-.042-4.148.121-8.634.245-12.742.141-4.716-.136-9.019.26-11.61,2.511-16.4,6.892-22.082,11.916-38.747,2.074-6.887,2.132-9.823,5.211-16.092,1.349-3.208,2.116-8.739,1.367-14.461C5408.811,5557.824,5399.4,5562.789,5391.678,5568.179Z" fill="#f1b287" fill-rule="evenodd"/>
      <path id="Path_8383" data-name="Path 8383" d="M5378.076,5527.551c6.2,19.825,11.07,27.08,11.927,35.606.28,2.781-.379,6.381-1.112,9.975l19.133,1.115a85.919,85.919,0,0,0,1.578-9.3,35.94,35.94,0,0,0-.753-12.271c-1.631-6.518-4.414-16.043-8.9-28.754l-21.983,1.7Z" fill="#f1b287" fill-rule="evenodd"/>
      <path id="Path_8384" data-name="Path 8384" d="M5396.525,5553.772a33.481,33.481,0,0,1-1.124,7.1c-1.535,5.443-7.882,12.613-9.855,17.736-4.383,11.379-2.583,31.418-3.794,48.652-.122,1.712-1.2,3.277-1.685,4.919a59.669,59.669,0,0,0-2.122,8.853,80.851,80.851,0,0,0-.831,16.441c.12,2.328.949,3.463,1.082,6.648l4.785,1.668c-1.055-8.454.076-19.65,1.384-30.166,2.241-18.008,6.223-38.49,11.283-52.3,1.73-4.718,3.357-8.181,6.99-10.545-4.431-.778.864-4.827,3.807-11.41Z" fill="#e8a476" fill-rule="evenodd"/>
      <path id="Path_8385" data-name="Path 8385" d="M5380.46,5631.06c-1.185,2.535-2.284,3.814-2.972,7.421s.091,9.536-.759,14l-1.348,7.086c-.786,4.129-.185,7.175,3.985,11.349,3.781,3.783,7.741,5.714,10.18,4.968,1.794-.55,3.589-3.277,2.259-11.426-1.109-6.791-.873-13.184-1.018-20.382-.648,6.952-.889,9.32-.294,16.321.167,1.958.2,5.11-2.086,5.075-9.456-.14-9.529-2.7-9.841-5.674C5377.731,5651.856,5378.384,5638.059,5380.46,5631.06Z" fill="#00263d" fill-rule="evenodd"/>
    </g>
    <path id="Path_8386" data-name="Path 8386" d="M5380.46,5631.06c-1.185,2.535-2.284,3.814-2.972,7.421s.091,9.536-.759,14l-1.348,7.086c-.786,4.129-.185,7.175,3.985,11.349a20.871,20.871,0,0,0,6.05,4.394c.473.207-3.288-6.559-2.6-10.39-3.919-.928-4.017-2.91-4.249-5.122C5377.731,5651.856,5378.384,5638.059,5380.46,5631.06Z" fill="#001624" fill-rule="evenodd"/>
    <g id="Group_4836" data-name="Group 4836">
      <path id="Path_8387" data-name="Path 8387" d="M5386.419,5469.842a9.789,9.789,0,0,1-.312,1.429c-1.012,3.27-2.834,5.89-4.689,8.641-3.231,4.8-5.124,8.284-6.619,14.022-1.991,7.628-.335,19.434,2.5,32.672,1.559,7.28,3.816,14.787,5.072,21.206,1.156,5.9,5.335,14.273,3.088,20.326,2.954,2.7,3.922,4.189,8.8,4.309,13.1.319,30.831-9.634,33.954-14.764,1.12-9.314.808-15.649.932-20.254.407-15.311-.424-29.69-.656-45.085-.415-4.319-.726-8.931-.955-13.357q-.064-1.618-.239-3.081c-.119-1.08-.3-2.149-.51-3.214-1.114-5.545-3.544-9.79-4.417-14.159C5417.8,5455.076,5395.2,5463.775,5386.419,5469.842Z" fill="#001e30" fill-rule="evenodd"/>
      <path id="Path_8388" data-name="Path 8388" d="M5374.8,5493.934c-1.991,7.628-.335,19.434,2.5,32.672,1.559,7.28,3.816,14.787,5.072,21.206a153.345,153.345,0,0,1,2.794,20.532c1.49,2.462,6.065,4.286,9.164,4.073,3.923-22.783-3.716-47.815-4.409-67.1-.352-9.846,5.151-8.362,15.712-13.185,9.925-4.533,13.209-12.46,4.818-9.795-10.375,3.294-17.048.613-16.5-4.541.27-2.52.629-4.971.675-7.044l.3-.453a26.707,26.707,0,0,1-8.451-.766,10.759,10.759,0,0,1-.365,1.736c-1.012,3.27-2.834,5.89-4.689,8.641A42.372,42.372,0,0,0,5374.8,5493.934Z" fill="#001624" fill-rule="evenodd"/>
      <path id="Path_8389" data-name="Path 8389" d="M5394.968,5512.958c1.377,12.8,2.39,24.314,3.8,37.314.677,6.231.94,13.522-.6,19.694,10.249-.949,23.085-6.906,28.83-13.539,1.8-14.58.585-52.7.248-67.959-.215-9.8-.458-15.914-3.868-24.509-6.407,5.018-12.96,7.977-23.5,10.341,3.769,5.522,6.193,7.189,9.744,6.241,2.942-.786,6.42-1.293,8.215-.291,2.063,1.15,2.04,4.13-1.286,8.22-2.179,2.683-11.848,9.008-19.186,11.67C5392.464,5501.919,5394.431,5507.968,5394.968,5512.958Z" fill="#00263d" fill-rule="evenodd"/>
    </g>
    <path id="Path_8390" data-name="Path 8390" d="M5381.714,5450.817c3.47,6.883,5.319,14.526,4.705,19.025,3.637,4.7,27.864,1.564,35.949-11.309-1.317-6.6,1.606-13.087.886-20.716-.192-2.045-.394-4.108-.6-6.169-.7-6.975-.78-13.16-1.569-19.255-1.016-7.859-1.959-14.555-2.975-17.714a9.51,9.51,0,0,0-1.526-3.132c-2.081-2.971-5.816-4.477-12.315-1.75-5.84,2.45-13.555,5.733-20.326,9.933-2.945,1.826-12.258,8.767-14.267,11.581a10,10,0,0,0-1.812,5.288C5367.163,5426.846,5377.243,5441.944,5381.714,5450.817Z" fill="#06929c" fill-rule="evenodd"/>
    <path id="Path_8391" data-name="Path 8391" d="M5413.488,5435.3c-3.1,1.578-6.128,6.2-11.02,8.874a12.1,12.1,0,0,1-15.052-2.943,28.169,28.169,0,0,1-1.692-7.77c-.446-9.957-1.825-15.308-7.477-23.318,3.538-1.936,7.144-3.994,9.1-6.111l22.372-12.2,7.132,1.884c2.333,6.719,3.464,10.228,7.9,16.71a15.472,15.472,0,0,1,2.563,12.573C5425.677,5430.058,5419.12,5432.433,5413.488,5435.3Z" fill="#12a8b3" fill-rule="evenodd"/>
    <path id="Path_8392" data-name="Path 8392" d="M5381.713,5450.864c-4.474-8.874-14.554-23.971-13.85-34.218.312-4.558,2.851-7.078,6.329-9.194a49.86,49.86,0,0,1,10.523-8.148,4.926,4.926,0,0,0-.154,4.313,3.137,3.137,0,0,0,1.258,1.588c1.869,3.367,4.929,7.6,6.483,9.795,5.626,6.722,13.924,12.374,19.643,23.775,8.629,17.206,7.315,86.325,3.405,108.815-3.428,3.426-17.257,9.388-20.3,9.928a21.625,21.625,0,0,1-13.837-1.672c-2-13.315-7.013-31.251-8.207-45.949-.441-5.435-.492-11.387,1.141-16.64,2.145-7.249,6.375-13.207,9.217-17.335,2.273-3.3,3.208-4.444,3.171-8.073-.046-4.562-1.832-11.056-4.82-16.985Zm48.079,87.412c.232-10.567.131-20.785-.032-31.113-.151-9.611-.063-23.2-1.79-32.391-1.558-8.289-3.7-11.122-4.749-16.363-1.317-6.6,1.436-12.147.715-19.777-.194-2.043-.394-4.106-.6-6.168-.7-6.975-1.463-13.93-2.252-20.026-1.016-7.857-1.9-14.952-2.918-18.111a9.472,9.472,0,0,0-1.526-3.132c-2.079-2.971-6.157-4.362-12.657-1.636a38.629,38.629,0,0,0-5.969,2.967,27.671,27.671,0,0,1,4.363,1.144c3.482.486,6.656,2.457,8.681,6.932,6.7,17.157,5.829,35.321,6.993,53.347,3.052,22.3,5.1,68.3,2.976,90.774A72.583,72.583,0,0,0,5429.792,5538.276Z" fill="#d2eefc" fill-rule="evenodd"/>
    <path id="Path_8393" data-name="Path 8393" d="M5374.145,5493.257c-1.633,5.253-1.584,11.205-1.141,16.64,1.194,14.7,6.208,32.634,8.207,45.949a19.871,19.871,0,0,0,9.741,2.087c-2.611-12.473-6.106-32.158-7.162-42.792a44.086,44.086,0,0,1,3.038-16.257Z" fill="#c3e6f7" fill-rule="evenodd"/>
    <path id="Path_8394" data-name="Path 8394" d="M5381.713,5450.864c-4.474-8.874-14.554-23.971-13.85-34.218.381-5.567,4.085-8.094,8.763-10.557v2.163a33.576,33.576,0,0,1,8.087,16.518l12.073-4.643c5.558,5.632,11.979,11.858,16.709,22.338-2.637,2.269-4.967,5.256-11.029,7.524-2.539.95-5.524,1.841-6.609,3.031-4.66,5.11-1.554,9.964-1.295,16.515.734,18.63-11.427,30.023-11.514,45.094-4.816-1.279-8.436-4.266-9.988-8.446-2.359-17.183,11.577-30.292,13.046-34.865,1.331-4.15-.523-12.776-4.393-20.454Zm31.866-37.2,3.8-1.46c2.027,6.039,4.673,12.387,5.812,18.8l.146,1.455q.212,2.1.411,4.2c0,.1,0,.211,0,.316-2.076.952-4.081,1.847-6.357,2.941A126.4,126.4,0,0,0,5413.579,5413.666Z" fill="#c3e6f7" fill-rule="evenodd"/>
    <path id="Path_8395" data-name="Path 8395" d="M5411.02,5437.129c-8.782-14.965-19.159-20-24.657-31.467-2.041,1.92-4.894,2.76-8.118,4.525,5.65,8.009,7.031,13.36,7.477,23.317a28.15,28.15,0,0,0,1.692,7.77,12.1,12.1,0,0,0,15.052,2.943c3.6-1.974,6.2-5,8.554-7.088Zm-1.3-45.252,7.133,1.883c2.334,6.72,3.749,10.229,8.186,16.711a15.579,15.579,0,0,1,2.507,12.632c-1.326,5.694-5.879,8.265-10.592,10.564a98.786,98.786,0,0,0-6.63-29.781c-1.189-2.989-4.269-8.844-7.943-10.276Z" fill="#d2eefc" fill-rule="evenodd"/>
    <path id="Path_8396" data-name="Path 8396" d="M5418.558,5398.462a53.8,53.8,0,0,0,6.482,12.009,16.013,16.013,0,0,1,2.507,12.632c-.78,3.779-3.965,5.394-8.677,7.693.472-9.943.789-18.171-.956-28.072Z" fill="#e0f5ff" fill-rule="evenodd"/>
    <path id="Path_8397" data-name="Path 8397" d="M5382.6,5408.624l-1.966,1.946c2.238,3.173,5.272,7.979,5.479,13.482.212,5.63,1.237,10.858,2.747,14.148,2.4,5.23,6.619,6.168,11.9,4.74a12.814,12.814,0,0,0,8.509-7.429C5405.329,5428.4,5386.309,5412.1,5382.6,5408.624Z" fill="#e0f5ff" fill-rule="evenodd"/>
    <path id="Path_8398" data-name="Path 8398" d="M5383.509,5420.348c-2.483,1.249-8.521,14.312-10.839,11.071-5.246-7.342-7.953-16.468-.354-23.225a80.632,80.632,0,0,1,12.287-8.9l-.14,5.328c-2.023,1.976-3.548,3.416-5.877,5.4A18.462,18.462,0,0,1,5383.509,5420.348Z" fill="#c3e6f7" fill-rule="evenodd"/>
    <path id="Path_8399" data-name="Path 8399" d="M5396.362,5465.631c.793,8.506.059,15.317-.893,18.885-1.354,5.072-5.094,10.748-7.513,17.188-4.008,10.668.77,22.456,4.688,54.765,7.592-2.063,14.79-5.81,20.873-9.255,2.712-15.041,2.232-33.65,3.257-50.077.8-12.873,1.365-34.851-3.859-52.036-4.013,4.277-8.319,6.142-11.721,8C5393.72,5457.174,5395.648,5457.985,5396.362,5465.631Z" fill="#e0f5ff" fill-rule="evenodd"/>
    <path id="Path_8400" data-name="Path 8400" d="M5423.347,5438.975c-1.715.754-3.174,1.4-4.914,2.094.337,7.409.644,14.288,1.593,20.915.9,6.31,1.538,10.937,1.956,15.341,1.927,20.338,1.8,46.325.5,65.469a37.194,37.194,0,0,0,6.332-5.271c-.312-18.255,1.484-46.218-2.337-63.337-1.223-5.478-2.751-9.633-3.83-15.151C5421.686,5454.109,5423.379,5448.674,5423.347,5438.975Z" fill="#e0f5ff" fill-rule="evenodd"/>
    <path id="Path_8401" data-name="Path 8401" d="M5416.039,5399.154l-3.146,2.6,3.966,1.3c1.187,9.392,1.316,17.145.131,30.661-1.179-11.87-3.351-23.117-8.356-33.2a13.29,13.29,0,0,0-10.514-7.973l4.192-1.886C5408.893,5389.446,5413.333,5393.472,5416.039,5399.154Z" fill="#ebf9ff" fill-rule="evenodd"/>
    <g id="Group_4837" data-name="Group 4837">
      <path id="Path_8402" data-name="Path 8402" d="M5387.59,5398.21c-.428,5.257,10.069,7.764,16.477,6.928a4.743,4.743,0,0,0,1.787-.579,2.442,2.442,0,0,0,.729-.624,15.046,15.046,0,0,0,.931-4.166,33.75,33.75,0,0,1,3.921-12.94l-16.843-6.647-4.268-1.862C5392.5,5387.231,5390.649,5390.561,5387.59,5398.21Z" fill="#e8a476" fill-rule="evenodd"/>
      <path id="Path_8403" data-name="Path 8403" d="M5387.759,5397.809a1.206,1.206,0,0,0-.022.308c6.088-5.431,14.388-1.714,20.352-2.168.187-.428,1.59-7.07,1.752-7.24.528-1.492.748-1.247,1.451-3.165l-16.843-6.645-4.268-1.862C5392.361,5385.947,5390.818,5390.16,5387.759,5397.809Z" fill="#db9669" fill-rule="evenodd"/>
    </g>
    <path id="Path_8404" data-name="Path 8404" d="M5381.682,5403.252c-1.3,4.461,1.048,8.774,4.83,14.519l4.7-1.3-1.579,4.731c10.5,5.11,14.836,8.3,21.483,16.257-8.572-17.339-21.935-24.019-24.642-33.881a8.457,8.457,0,0,1-.328-3.691c.1-.577,1.424-1.793,1.643-2.212a10,10,0,0,0,.674-1.635C5388.473,5396.007,5382.923,5398.977,5381.682,5403.252Z" fill="#ebf9ff" fill-rule="evenodd"/>
    <path id="Path_8405" data-name="Path 8405" d="M5406.3,5391.216c-9.783-1.749-13.427-5.623-17.582-14.293-4.506-1.739-6.68-3.55-7.649-5.9-2.3-5.58-.606-12.666,2.936-17.214a15.863,15.863,0,0,1,12.6-6.144c10.256-.375,15.335,5.086,18.009,13.35.517,1.595.4,5.268.287,7.017-.19,2.927.932,1.881,1.452,4.714a48.828,48.828,0,0,1-.276,10.941c-.365,2.967.128,5.823-1.179,6.587C5413.574,5391.048,5410.763,5392.017,5406.3,5391.216Z" fill="#f1b287" fill-rule="evenodd"/>
    <path id="Path_8406" data-name="Path 8406" d="M5406.3,5391.216c-9.8-1.749-13.427-5.623-17.582-14.293-4.506-1.739-6.68-3.55-7.649-5.9-2.3-5.58-.606-12.666,2.936-17.214a15.863,15.863,0,0,1,12.6-6.144,18.225,18.225,0,0,1,15.143,7.138c-.9,5.98-7.887,13.369-10.906,15.617-1.906,1.417-2.481,1.947-2.469,3.588.028,3.444,3.907,2.827,4.318,4.375.419,1.586-3.548,2.662-1.755,6.794.5,1.159,4.282,5.029,5.965,6.14C5406.7,5391.3,5406.5,5391.255,5406.3,5391.216Z" fill="#e8a476" fill-rule="evenodd"/>
    <g id="Group_4838" data-name="Group 4838">
      <path id="Path_8407" data-name="Path 8407" d="M5386.628,5371.008c-4.048-.922-3.6,3.594-2.709,6.267.613,1.838,2.15,1.535,2.868,2.962a3.569,3.569,0,0,0,3.485,2.224c2.373-.314.531-3.694.1-5.07C5390.41,5375.063,5389.2,5371.593,5386.628,5371.008Z" fill="#e8a476" fill-rule="evenodd"/>
      <path id="Path_8408" data-name="Path 8408" d="M5388.878,5376.171c-1.03-1.765-1.65-4.108-4.274-3.546C5386.946,5372.569,5387.68,5374.617,5388.878,5376.171Z" fill="#db9669" fill-rule="evenodd"/>
    </g>
    <path id="Path_8409" data-name="Path 8409" d="M5383.532,5434.331c12.845.948,36.744.41,40.306-.244,4.342-.8,3.789-9.032.65-13.091-.049-.064-20.184-6.912-37.025-8.445-2.737-.251-4.268-1.759-6.226-2.111-9.371-1.679-11.878,2.1-12.528,3.28a13.432,13.432,0,0,0-.793,11.644C5370.834,5432.6,5376.71,5433.828,5383.532,5434.331Z" fill="#d2eefc" fill-rule="evenodd"/>
    <path id="Path_8410" data-name="Path 8410" d="M5403.429,5423.32a17.581,17.581,0,0,1-3.9-8.909c-4.178-1.013-8.9-1.537-13.207-2.613-2.189-.548-4.266-1.848-6.108-2.178-7.166-1.283-13.243.976-12.968,7.992C5371.559,5419.375,5392.174,5423.408,5403.429,5423.32Z" fill="#e0f5ff" fill-rule="evenodd"/>
    <path id="Path_8411" data-name="Path 8411" d="M5383.532,5434.331c12.845.948,36.744.41,40.306-.244,2.222-.409,3.161-2.763,3.131-5.506-7.981,4.678-46.635-2.78-59.977-7.113a13.224,13.224,0,0,0,.924,3.9C5370.834,5432.6,5376.71,5433.828,5383.532,5434.331Z" fill="#c3e6f7" fill-rule="evenodd"/>
    <path id="Path_8412" data-name="Path 8412" d="M5393.724,5347.134c-13.719-8.095-21.126,5.15-13.793,11.131,1.132.922,2.186.174,3.928.963,0,0,11.319-1.835,11.4-2.524S5393.724,5347.134,5393.724,5347.134Z" fill="#241304" fill-rule="evenodd"/>
    <path id="Path_8413" data-name="Path 8413" d="M5379.678,5355.856c-5.987-1.447-1.934-12.014,3.766-6.223C5378.278,5348.034,5375.982,5352.977,5379.678,5355.856Z" fill="#361d07" fill-rule="evenodd"/>
    <path id="Path_8414" data-name="Path 8414" d="M5380.859,5355.658c-5.283-1.119-1.844-8.311,2.779-4.552C5379.7,5350.24,5377.6,5353.486,5380.859,5355.658Z" fill="#361d07" fill-rule="evenodd"/>
    <path id="Path_8415" data-name="Path 8415" d="M5379.777,5357.559c-7.086-4.56-.6-16.043,5.224-11.469C5379.306,5344.369,5374.234,5352.085,5379.777,5357.559Z" fill="#361d07" fill-rule="evenodd"/>
    <path id="Path_8416" data-name="Path 8416" d="M5384.442,5351.087c-5.871-6.374,5.311-12.589,7.87-3.374C5387.967,5342.925,5382.2,5345.219,5384.442,5351.087Z" fill="#361d07" fill-rule="evenodd"/>
    <path id="Path_8417" data-name="Path 8417" d="M5385.708,5351.7c-4.3-4.665,3.89-9.215,5.761-2.468C5388.288,5345.726,5384.068,5347.406,5385.708,5351.7Z" fill="#361d07" fill-rule="evenodd"/>
    <path id="Path_8418" data-name="Path 8418" d="M5412.96,5357.631c-4.073-1.29-18.59,7.431-22.169,17.879-.6,1.744-1.6,1.328-1.445,3.934.172,2.871-4.887-5.492-6.113-8.151-3.359-7.284-1.849-13.614,4.752-18.69C5396.28,5346.226,5409.035,5349.906,5412.96,5357.631Z" fill="#361d07" fill-rule="evenodd"/>
    <path id="Path_8419" data-name="Path 8419" d="M5406.524,5359c1.831-.893,5.392-1.1,6.791-.135.413-2.377-4.189-9.057-12.574-11.241-7.1-1.849-15.632-1.231-20.247,6.388-3.471,5.733-4,15.309,2.153,20.185,2.8,2.217,6.184,3.941,8.014,3.936.444-1.3,3.349-2.449,4.289-3.425.779-.8.468-1.764,1.475-3.062.567-.734,2.294-2.092,3.076-3.514C5400.608,5366.128,5398.916,5360.131,5406.524,5359Z" fill="#361d07" fill-rule="evenodd"/>
    <path id="Path_8420" data-name="Path 8420" d="M5377.871,5364.926a12.788,12.788,0,0,0,4.776,9.273c2.826,2.184,6.184,3.941,8.014,3.936.444-1.3,3.349-2.449,4.289-3.425.779-.8.468-1.764,1.475-3.062.567-.734,2.294-2.092,3.076-3.514C5389.906,5372.815,5381.388,5370.13,5377.871,5364.926Z" fill="#241304" fill-rule="evenodd"/>
    <path id="Path_8421" data-name="Path 8421" d="M5388.348,5347.849c-3.18,2.386,4.141,1.755,5.807,1.595,4.712-.451,10.345.744,9.939,7.693-.091,1.577-.564,2.707-.385,2.633a12.432,12.432,0,0,1,2.93-.8c2.172-1.212,5.682-.244,6.165-.569a8.054,8.054,0,0,0-2.015-10.412c-5.018-4.209-11.541-2.583-17.193-.974C5391.723,5347.552,5387.616,5349.358,5388.348,5347.849Z" fill="#4f2b0c" fill-rule="evenodd"/>
    <path id="Path_8422" data-name="Path 8422" d="M5399.509,5362.529c-10.632.106-24-3.511-14.847-13.426C5371.452,5360.913,5389.864,5366.1,5399.509,5362.529Z" fill="#4f2b0c" fill-rule="evenodd"/>
    <path id="Path_8423" data-name="Path 8423" d="M5401.1,5358.8c-1.717-9.574-7.551-5.572-13.417-7.589-1.489-.511-2.505-2.079.368-3.358-2.118,1.537-.632,2.1.168,2.235,3.755.626,7.354-.451,10.36.4a5.664,5.664,0,0,1,4.279,5.294c.151,1.887-.159,4.525-.882,4.884C5401.651,5360.822,5401.349,5360.205,5401.1,5358.8Z" fill="#4f2b0c" fill-rule="evenodd"/>
    <path id="Path_8424" data-name="Path 8424" d="M5402,5360.731c-9.662-3.492-24.534-3.667-15.3-12.369-4.217,4.655-1.547,5.416,3.287,6.772C5393.38,5356.085,5397.9,5357.4,5402,5360.731Z" fill="#4f2b0c" fill-rule="evenodd"/>
    <path id="Path_8425" data-name="Path 8425" d="M5388.041,5348.146c-.223.6.882.705,2.364.3,4.381-1.188,7.353-2.127,10.465-2.461,6.548-.7,11.245,2.02,10.519,9.41-.58-5.963-2.982-11.448-16.409-7.789,10.454-1.658,13.235-.813,13.893,8.127-1.524-8.685-4.883-9.243-15.078-7.428,8.932-1.072,12.085-.406,12.5,8.55-1.629-7.983-3.109-9.679-15.727-7.7C5389.131,5349.39,5387.128,5349.205,5388.041,5348.146Z" fill="#361d07" fill-rule="evenodd"/>
    <path id="Path_8426" data-name="Path 8426" d="M5399.389,5364.188c-5.4,4.65-28.765.85-18.064-10.887C5367.714,5366.34,5393.987,5370.756,5399.389,5364.188Z" fill="#4f2b0c" fill-rule="evenodd"/>
    <g id="Group_4839" data-name="Group 4839">
      <path id="Path_8427" data-name="Path 8427" d="M5407.93,5369.6a36.533,36.533,0,0,1-6.329,2.241,1.1,1.1,0,0,0-.842,1.125l.287,4.852a1.115,1.115,0,0,0,1.417.99,34.4,34.4,0,0,0,6.733-2.54,1.105,1.105,0,0,0,.606-1.04l-.278-4.707a1.113,1.113,0,0,0-1.594-.921Zm7.438-6.72c-.143,1.39-1.693,2.934-3.373,4.253a1.089,1.089,0,0,0-.426.925l.256,4.335a1.116,1.116,0,0,0,1.87.738,5.811,5.811,0,0,0,2.092-3.166l.058,0-.419-7.086Z" fill="#e9f5f5" fill-rule="evenodd" opacity="0.5"/>
      <path id="Path_8428" data-name="Path 8428" d="M5408.056,5369.859c-.931.438-1.936.851-3.006,1.229s-2.191.72-3.377,1.03a.841.841,0,0,0-.467.313.79.79,0,0,0-.157.521l.287,4.853a.875.875,0,0,0,.027.17.813.813,0,0,0,.317.442.848.848,0,0,0,.532.149.808.808,0,0,0,.176-.028c1.266-.343,2.461-.73,3.575-1.149a28.994,28.994,0,0,0,3.1-1.37.86.86,0,0,0,.345-.324.79.79,0,0,0,.106-.448l-.278-4.707a.806.806,0,0,0-.079-.305.817.817,0,0,0-.324-.346.838.838,0,0,0-.775-.03Zm-3.2.7c1.054-.374,2.042-.778,2.95-1.207a1.412,1.412,0,0,1,1.319.052,1.386,1.386,0,0,1,.552.588,1.363,1.363,0,0,1,.135.519l.279,4.707a1.34,1.34,0,0,1-.183.761,1.44,1.44,0,0,1-.578.547,29.825,29.825,0,0,1-3.16,1.394c-1.14.431-2.355.822-3.629,1.169a1.558,1.558,0,0,1-.294.049,1.441,1.441,0,0,1-.9-.255,1.375,1.375,0,0,1-.538-.753,1.266,1.266,0,0,1-.048-.287l-.286-4.851a1.337,1.337,0,0,1,.268-.893,1.418,1.418,0,0,1,.788-.524c1.161-.3,2.275-.643,3.327-1.016Zm10.358-6.368a6.605,6.605,0,0,1-.734,1.031,16.121,16.121,0,0,1-2.3,2.139.818.818,0,0,0-.247.31.8.8,0,0,0-.069.376l.254,4.335a.8.8,0,0,0,.221.51.836.836,0,0,0,.3.2.9.9,0,0,0,.359.057.8.8,0,0,0,.5-.216,9.853,9.853,0,0,0,1.386-1.542,3.237,3.237,0,0,0,.618-1.447,2.222,2.222,0,0,0,.021-.538l-.308-5.216Zm-1.177.669a3.987,3.987,0,0,0,1.046-2l.024-.243.592-.043.342,7.1a2.837,2.837,0,0,1-.052.767,4.334,4.334,0,0,1-.627,1.272,10.388,10.388,0,0,1-1.469,1.638,1.382,1.382,0,0,1-.862.37,1.428,1.428,0,0,1-.608-.1,1.47,1.47,0,0,1-.509-.337,1.34,1.34,0,0,1-.378-.865l-.256-4.336a1.351,1.351,0,0,1,.123-.642,1.446,1.446,0,0,1,.413-.52A15.6,15.6,0,0,0,5414.036,5364.856Z" fill="#292424" fill-rule="evenodd"/>
      <path id="Path_8429" data-name="Path 8429" d="M5409.561,5371a4.183,4.183,0,0,0,1.148-.372,2.85,2.85,0,0,0,.83-.623l.42.381a3.455,3.455,0,0,1-1,.748,4.785,4.785,0,0,1-1.3.424Z" fill="#292424" fill-rule="evenodd"/>
      <rect id="Rectangle_32" data-name="Rectangle 32" width="0.566" height="9.229" transform="translate(5391.81 5373.121) rotate(-74.186)"/>
    </g>
    <g id="Group_4841" data-name="Group 4841">
      <g id="Group_4840" data-name="Group 4840">
        <path id="Path_8430" data-name="Path 8430" d="M5387.589,5374.524l15.132,6.027a1.948,1.948,0,0,1,.978,2.274l-.944,6.465a4.161,4.161,0,0,1-1.873,2.011c-.248.072-14.1-6.333-15.529-6.976-.877-.394-.947-1.311-.978-2.273l-.177-5.788c-.016-.511,1.576-1.615,2.055-1.773A1.99,1.99,0,0,1,5387.589,5374.524Z" fill-rule="evenodd"/>
        <path id="Path_8431" data-name="Path 8431" d="M5386.349,5375.573l15.131,6.029a1.944,1.944,0,0,1,.977,2.274l-.94,6.551c-.137.953-1.378,1.333-2.273.977l-15.131-6.028a1.948,1.948,0,0,1-.979-2.274l.942-6.55C5384.213,5375.6,5385.454,5375.217,5386.349,5375.573Z" fill="#232226" fill-rule="evenodd"/>
        <path id="Path_8432" data-name="Path 8432" d="M5394.86,5399.124c3.815,10.675,4.588,19.9,9.642,27.735a16.042,16.042,0,0,0,4.942,5.022c5.142,3.591,11.782,3.484,12.578,1.507a9.774,9.774,0,0,0,.824-5.223,24.4,24.4,0,0,0-1.827-6.428c-7.65-14.87-21.71-22.828-24.365-39.913.5-1.763,2.612-2.869,3.161-4.5.266-.792-10.7-4.286-11.533-3.046-1.34,2-2.184,2.485-3.2,5.53.38,2.992,2.179,7.9,3.989,11.594.545,1.113,2.5,2.154,3.735,3.4C5393.931,5395.932,5394.328,5397.629,5394.86,5399.124Z" fill="#e8a476" fill-rule="evenodd"/>
        <path id="Path_8433" data-name="Path 8433" d="M5387.276,5375.62c.316-.419.658-.864,1.039-1.432.828-1.24,11.977,2.446,11.5,3.132l-1.34,1.929Z" fill="#f1b287" fill-rule="evenodd"/>
        <path id="Path_8434" data-name="Path 8434" d="M5422.052,5433.492a10.173,10.173,0,0,0,.794-5.327,24.4,24.4,0,0,0-1.827-6.428c-6.126-11.907-14.767-21.288-18.951-27.676a7.543,7.543,0,0,1-.75-1.646c-.222-1.04.039-1.915-.343-3.438-.942-3.74-3.1-4.985-3.127-6.519.5-1.763,1.541-1.9,1.809-2.451.365-.752.683-3.5-.474-2.557-1.4,1.138-2.5,1.289-3.523,4.333a35.73,35.73,0,0,0,2.751,8.245c1.009,2.152,2.349,4.753,3.491,6.79C5407.338,5406.507,5415.313,5416.857,5422.052,5433.492Z" fill="#f1b287" fill-rule="evenodd"/>
      </g>
      <path id="Path_8435" data-name="Path 8435" d="M5404.5,5426.859a16.042,16.042,0,0,0,4.942,5.022c3.789,2.646,8.39,3.285,10.868,2.645a2.738,2.738,0,0,0,2.283-2.191c1.1-3.577.234-7.336-1.472-10.652-6.126-11.906-14.7-21.606-18.881-27.994-2.077,2.347-7.329,3.507-8.805,2.943C5397.786,5406.318,5398.431,5417.445,5404.5,5426.859Z" fill="#d2eefc" fill-rule="evenodd"/>
      <path id="Path_8436" data-name="Path 8436" d="M5422.6,5432.335c1.1-3.577.234-7.336-1.472-10.652-6.126-11.906-14.7-21.606-18.881-27.994a8.019,8.019,0,0,1-2.594,1.8C5405.647,5408.206,5415.329,5429.1,5422.6,5432.335Z" fill="#e0f5ff" fill-rule="evenodd"/>
      <path id="Path_8437" data-name="Path 8437" d="M5404.5,5426.859a16.042,16.042,0,0,0,4.942,5.022c3.789,2.646,8.39,3.285,10.868,2.645-8.65-4.1-17.359-22.9-22.56-38.315a8.414,8.414,0,0,1-4.315.421C5397.786,5406.318,5398.431,5417.445,5404.5,5426.859Z" fill="#c3e6f7" fill-rule="evenodd"/>
    </g>
  </g>
</svg>
