<svg xmlns="http://www.w3.org/2000/svg" width="229.658" height="317.688" viewBox="0 0 229.658 317.688"><defs><clipPath id="a"><path data-name="Path 14199" d="M325.707 2827.483l-97 57.495-.326 31.126 97-57.495z" fill="none"/></clipPath></defs><g data-name="Group 10014"><g data-name="Group 6935"><path data-name="Path 14055" d="M39.436 85.074l-.354 159.117-39.086-22.567L.35 62.507z" fill="#cadada"/><path data-name="Path 14056" d="M145.07 22.567l-.355 159.117-105.629 62.508.354-159.117z" fill="#e6ecec"/><path data-name="Path 14057" d="M140.743 30.126l-.326 149.011-97 57.495.326-149.011z" fill="#819ca3"/><path data-name="Path 14058" d="M140.743 93.6l-.326 85.537-97 57.495.326-85.537z" fill="#6f8b8c"/><path data-name="Path 14059" d="M143.305 179.321l-99.892 59.485v-54.75l99.892-59.485z" fill="#e6ecec"/><path data-name="Path 14060" d="M140.417 65.393l-97 57.495v-4.14l97-57.495z" fill="#e6ecec"/><path data-name="Path 14061" d="M145.07 22.567L39.436 85.074.35 62.508 105.979.001z" fill="#fff"/><g data-name="Group 6882"><g data-name="Group 6881" clip-path="url(#a)" transform="translate(-184.964 -2797.357)"><g data-name="Group 6751"><g data-name="Group 6750" style="isolation:isolate"><g data-name="Group 6745"><path data-name="Path 14062" d="M317.017 2837.734l-.071 25.1-15.546-8.934.071-25.1z" fill="#cce8ea"/></g><g data-name="Group 6746"><path data-name="Path 14063" d="M323.2 2834.415l-.071 25.1a7.431 7.431 0 0 1-1.521 1.607 8.532 8.532 0 0 1-4.667 1.712l.071-25.1z" fill="#edf3f3"/></g><g data-name="Group 6747"><path data-name="Path 14064" d="M323.2 2834.415a1.694 1.694 0 0 1-.639 1.233c-.977.747-5.549 2.086-5.549 2.086l-15.01-8.654 6.188-3.318z" fill="#fff"/></g><g data-name="Group 6748"><path data-name="Path 14065" d="M318.017 2837.553l-1 .181-15.549-8.938.489-.254z" fill="#cce8ea"/></g><g data-name="Group 6749"><path data-name="Path 14066" d="M323.205 2834.415l-.361.477-15.639-9.161.489-.254z" fill="#cce8ea"/></g></g></g><path data-name="Path 14067" d="M321.008 2836.082a3.717 3.717 0 0 0 1.336-1.483l.861-.184s0 1.153-1.881 2.122a15.49 15.49 0 0 1-4.307 1.2l.4-.52a20.984 20.984 0 0 0 3.591-1.135z" fill="#cce8ea"/><path data-name="Path 14068" d="M307.205 2826.337v-.6l.524.3z" fill="#cce8ea"/><g data-name="Group 6759"><g data-name="Group 6758" style="isolation:isolate"><g data-name="Group 6752"><path data-name="Path 14069" d="M313.086 2837.951l-.078 27.681-17.148-9.857.078-27.681z" fill="#193f42"/></g><g data-name="Group 6753"><path data-name="Path 14070" d="M316.572 2835.925l-.079 27.682a1.827 1.827 0 0 1-1.039 1.448 3.879 3.879 0 0 1-2.446.578l.078-27.682z" fill="#007787"/></g><g data-name="Group 6754"><path data-name="Path 14071" d="M316.517 2854.738l-.024 5.107a1.828 1.828 0 0 1-1.039 1.449 3.874 3.874 0 0 1-2.446.577l.025-5.473c.399.024 2.651-.371 3.484-1.66z" fill="#ec5f61"/></g><g data-name="Group 6755"><path data-name="Path 14072" d="M316.572 2835.925a1.866 1.866 0 0 1-.706 1.359 4.548 4.548 0 0 1-2.78.667l-16.555-9.543 3.486-2.026z" fill="#fff"/></g><g data-name="Group 6756"><path data-name="Path 14073" d="M314.188 2837.752l-1.1.2-17.148-9.857.539-.28z" fill="#007787"/></g><g data-name="Group 6757"><path data-name="Path 14074" d="M316.572 2835.925l-.4.526-17.247-10.1.539-.28z" fill="#007787"/></g></g></g><path data-name="Path 14075" d="M315.3 2836.969c.979-.567.323-.841.323-.841l.95-.2s.286.825-.924 1.546a3.644 3.644 0 0 1-2.562.48l.441-.573a2.847 2.847 0 0 0 1.772-.412z" fill="#007787"/><path data-name="Path 14076" d="M298.926 2827.016v-.667l.578.333z" fill="#193f42"/><g data-name="Group 6767"><g data-name="Group 6766" style="isolation:isolate"><g data-name="Group 6760"><path data-name="Path 14077" d="M309.133 2839.969l-.078 27.681-17.148-9.857.079-27.681z" fill="#193f42"/></g><g data-name="Group 6761"><path data-name="Path 14078" d="M312.619 2837.943l-.079 27.682a1.824 1.824 0 0 1-1.039 1.448 3.88 3.88 0 0 1-2.447.578l.079-27.682z" fill="#007787"/></g><g data-name="Group 6762"><path data-name="Path 14079" d="M311.131 2857.767a12.689 12.689 0 0 0 1.469-1.086l-.06 5.129a1.824 1.824 0 0 1-1.039 1.448 3.875 3.875 0 0 1-2.447.577l.064-5.552a3.684 3.684 0 0 0 2.013-.516z" fill="#edf3f3"/></g><g data-name="Group 6763"><path data-name="Path 14080" d="M312.619 2837.943a1.87 1.87 0 0 1-.7 1.36 4.556 4.556 0 0 1-2.781.666l-16.554-9.543 3.486-2.026z" fill="#fff"/></g><g data-name="Group 6764"><path data-name="Path 14081" d="M310.235 2839.77l-1.1.2-17.148-9.857.539-.28z" fill="#007787"/></g><g data-name="Group 6765"><path data-name="Path 14082" d="M312.619 2837.943l-.4.526-17.247-10.1.539-.28z" fill="#007787"/></g></g></g><path data-name="Path 14083" d="M311.346 2838.986c.979-.566.323-.841.323-.841l.95-.2s.286.825-.924 1.546a3.644 3.644 0 0 1-2.562.48l.441-.573a2.844 2.844 0 0 0 1.772-.412z" fill="#007787"/><path data-name="Path 14084" d="M294.973 2829.034v-.667l.578.334z" fill="#193f42"/><g data-name="Group 6774"><g data-name="Group 6773" style="isolation:isolate"><g data-name="Group 6768"><path data-name="Path 14085" d="M304.878 2842.212l-.078 27.681-17.148-9.857.078-27.682z" fill="#193f42"/></g><g data-name="Group 6769"><path data-name="Path 14086" d="M308.364 2840.186l-.078 27.682a1.832 1.832 0 0 1-1.039 1.449 3.875 3.875 0 0 1-2.447.577l.078-27.682z" fill="#007787"/></g><g data-name="Group 6770"><path data-name="Path 14087" d="M308.364 2840.186a1.87 1.87 0 0 1-.705 1.36 4.554 4.554 0 0 1-2.781.666l-16.555-9.543 3.487-2.026z" fill="#fff"/></g><g data-name="Group 6771"><path data-name="Path 14088" d="M305.98 2842.013l-1.1.2-17.148-9.857.539-.28z" fill="#007787"/></g><g data-name="Group 6772"><path data-name="Path 14089" d="M308.364 2840.186l-.4.527-17.247-10.1.539-.28z" fill="#007787"/></g></g></g><path data-name="Path 14090" d="M307.091 2841.23c.979-.567.323-.841.323-.841l.95-.2s.286.825-.924 1.546a3.638 3.638 0 0 1-2.562.48l.441-.573a2.847 2.847 0 0 0 1.772-.412z" fill="#007787"/><path data-name="Path 14091" d="M290.719 2831.277v-.667l.578.334z" fill="#193f42"/><g data-name="Group 6781"><g data-name="Group 6780" style="isolation:isolate"><g data-name="Group 6775"><path data-name="Path 14092" d="M298.617 2845.589l-.078 27.681-17.148-9.857.078-27.682z" fill="#ec5f61"/></g><g data-name="Group 6776"><path data-name="Path 14093" d="M303.885 2842.722l-.079 27.681a5.374 5.374 0 0 1-1.677 1.773 11.708 11.708 0 0 1-3.591 1.095l.079-27.682z" fill="#ec5f61"/></g><g data-name="Group 6777"><path data-name="Path 14094" d="M303.885 2842.722a1.871 1.871 0 0 1-.706 1.359c-1.077.825-4.562 1.508-4.562 1.508l-16.555-9.543 5.268-2.868z" fill="#fff"/></g><g data-name="Group 6778"><path data-name="Path 14095" d="M299.719 2845.39l-1.1.2-17.148-9.857.539-.28z" fill="#ec5f61"/></g><g data-name="Group 6779"><path data-name="Path 14096" d="M303.885 2842.722l-.4.527-17.247-10.1.539-.28z" fill="#ec5f61"/></g></g></g><path data-name="Path 14097" d="M302.018 2844.156c.978-.567.916-1.232.916-1.232l.951-.2s.121 1.1-1.519 1.936a13.2 13.2 0 0 1-3.749.931l.44-.573a11.229 11.229 0 0 0 2.961-.862z" fill="#ec5f61"/><path data-name="Path 14098" d="M286.239 2833.813v-.667l.578.333z" fill="#007787"/><g data-name="Group 6788"><g data-name="Group 6787" style="isolation:isolate"><g data-name="Group 6782"><path data-name="Path 14099" d="M292.217 2849.318l-.078 27.682-17.148-9.857.078-27.681z" fill="#cce8ea"/></g><g data-name="Group 6783"><path data-name="Path 14100" d="M297.485 2846.45l-.079 27.682a5.384 5.384 0 0 1-1.677 1.773 11.713 11.713 0 0 1-3.59 1.094l.078-27.681z" fill="#ffdf73"/></g><g data-name="Group 6784"><path data-name="Path 14101" d="M297.485 2846.45a1.869 1.869 0 0 1-.706 1.36c-1.077.824-4.562 1.508-4.562 1.508l-16.554-9.544 5.267-2.867z" fill="#fff"/></g><g data-name="Group 6785"><path data-name="Path 14102" d="M293.319 2849.118l-1.1.2-17.148-9.857.539-.28z" fill="#ffdf73"/></g><g data-name="Group 6786"><path data-name="Path 14103" d="M297.485 2846.45l-.4.526-17.247-10.1.539-.28z" fill="#ffdf73"/></g></g></g><path data-name="Path 14104" d="M295.618 2847.884c.979-.567.917-1.231.917-1.231l.95-.2s.122 1.106-1.519 1.937a13.232 13.232 0 0 1-3.749.931l.441-.573a11.2 11.2 0 0 0 2.96-.864z" fill="#ffdf73"/><path data-name="Path 14105" d="M279.839 2837.541v-.667l.578.333z" fill="#007787"/><g data-name="Group 6795"><g data-name="Group 6794" style="isolation:isolate"><g data-name="Group 6789"><path data-name="Path 14106" d="M288.246 2851.344l-.078 27.681-17.148-9.857.078-27.681z" fill="#cce8ea"/></g><g data-name="Group 6790"><path data-name="Path 14107" d="M291.732 2849.318l-.079 27.682a1.828 1.828 0 0 1-1.039 1.449 3.875 3.875 0 0 1-2.447.577l.079-27.681z" fill="#edf3f3"/></g><g data-name="Group 6791"><path data-name="Path 14108" d="M291.732 2849.318a1.867 1.867 0 0 1-.706 1.359 4.556 4.556 0 0 1-2.78.667l-16.555-9.544 3.486-2.026z" fill="#fff"/></g><g data-name="Group 6792"><path data-name="Path 14109" d="M289.348 2851.144l-1.1.2-17.148-9.857.539-.28z" fill="#cce8ea"/></g><g data-name="Group 6793"><path data-name="Path 14110" d="M291.732 2849.318l-.4.526-17.247-10.1.539-.28z" fill="#cce8ea"/></g></g></g><path data-name="Path 14111" d="M290.459 2850.361c.979-.567.323-.841.323-.841l.95-.2s.286.824-.925 1.546a3.641 3.641 0 0 1-2.561.48l.441-.573a2.852 2.852 0 0 0 1.772-.412z" fill="#cce8ea"/><path data-name="Path 14112" d="M274.086 2840.408v-.667l.578.334z" fill="#193f42"/><g data-name="Group 6802"><g data-name="Group 6801" style="isolation:isolate"><g data-name="Group 6796"><path data-name="Path 14113" d="M284.652 2856.168l-.078 25.328-14.961-8.553.078-25.328z" fill="#cce8ea"/></g><g data-name="Group 6797"><path data-name="Path 14114" d="M288.138 2854.142l-.079 25.328a1.829 1.829 0 0 1-1.039 1.449 3.884 3.884 0 0 1-2.447.577l.079-25.328z" fill="#edf3f3"/></g><g data-name="Group 6798"><path data-name="Path 14115" d="M288.138 2854.142a1.866 1.866 0 0 1-.706 1.359 4.549 4.549 0 0 1-2.78.667l-14.368-8.24 3.486-2.026z" fill="#fff"/></g><g data-name="Group 6799"><path data-name="Path 14116" d="M285.754 2855.969l-1.1.2-14.961-8.553.539-.28z" fill="#cce8ea"/></g><g data-name="Group 6800"><path data-name="Path 14117" d="M288.138 2854.142l-.4.527-15.06-8.8.539-.28z" fill="#cce8ea"/></g></g></g><path data-name="Path 14118" d="M286.865 2855.185c.979-.567.323-.841.323-.841l.95-.2s.286.825-.925 1.546a3.641 3.641 0 0 1-2.561.48l.441-.573a2.844 2.844 0 0 0 1.772-.412z" fill="#cce8ea"/><path data-name="Path 14119" d="M272.679 2846.537v-.667l.578.334z" fill="#ec5f61"/><g data-name="Group 6809"><g data-name="Group 6808" style="isolation:isolate"><g data-name="Group 6803"><path data-name="Path 14120" d="M278.87 2857.789l-.078 27.682-17.148-9.857.079-27.682z" fill="#193f42"/></g><g data-name="Group 6804"><path data-name="Path 14121" d="M282.356 2855.763l-.078 27.682a1.827 1.827 0 0 1-1.039 1.448 3.876 3.876 0 0 1-2.447.577l.078-27.681z" fill="#007787"/></g><g data-name="Group 6805"><path data-name="Path 14122" d="M282.356 2855.763a1.868 1.868 0 0 1-.7 1.359 4.552 4.552 0 0 1-2.781.667l-16.554-9.544 3.486-2.025z" fill="#fff"/></g><g data-name="Group 6806"><path data-name="Path 14123" d="M279.972 2857.59l-1.1.2-17.148-9.857.539-.28z" fill="#007787"/></g><g data-name="Group 6807"><path data-name="Path 14124" d="M282.356 2855.763l-.4.526-17.247-10.1.539-.28z" fill="#007787"/></g></g></g><path data-name="Path 14125" d="M281.083 2856.806c.979-.566.323-.84.323-.84l.95-.2s.286.825-.924 1.546a3.644 3.644 0 0 1-2.562.48l.441-.573a2.843 2.843 0 0 0 1.772-.413z" fill="#007787"/><path data-name="Path 14126" d="M264.711 2846.854v-.667l.578.334z" fill="#193f42"/><g data-name="Group 6816"><g data-name="Group 6815" style="isolation:isolate"><g data-name="Group 6810"><path data-name="Path 14127" d="M274.917 2859.807l-.078 27.681-17.148-9.857.078-27.681z" fill="#193f42"/></g><g data-name="Group 6811"><path data-name="Path 14128" d="M278.4 2857.781l-.078 27.682a1.827 1.827 0 0 1-1.039 1.448 3.875 3.875 0 0 1-2.447.577l.078-27.681z" fill="#007787"/></g><g data-name="Group 6812"><path data-name="Path 14129" d="M278.4 2857.781a1.867 1.867 0 0 1-.705 1.359 4.55 4.55 0 0 1-2.781.667l-16.554-9.544 3.486-2.025z" fill="#fff"/></g><g data-name="Group 6813"><path data-name="Path 14130" d="M276.019 2859.608l-1.1.2-17.148-9.857.539-.28z" fill="#007787"/></g><g data-name="Group 6814"><path data-name="Path 14131" d="M278.4 2857.781l-.4.527-17.247-10.1.539-.28z" fill="#007787"/></g></g></g><path data-name="Path 14132" d="M277.131 2858.824c.978-.566.322-.841.322-.841l.95-.2s.287.825-.924 1.546a3.644 3.644 0 0 1-2.562.48l.441-.573a2.847 2.847 0 0 0 1.773-.412z" fill="#007787"/><path data-name="Path 14133" d="M260.758 2848.872v-.667l.578.334z" fill="#193f42"/><g data-name="Group 6824"><g data-name="Group 6823" style="isolation:isolate"><g data-name="Group 6817"><path data-name="Path 14134" d="M270.662 2862.05l-.078 27.682-17.148-9.857.078-27.681z" fill="#ec5f61"/></g><g data-name="Group 6818"><path data-name="Path 14135" d="M274.148 2860.024l-.078 27.682a1.829 1.829 0 0 1-1.039 1.449 3.884 3.884 0 0 1-2.447.577l.078-27.682z" fill="#ec5f61"/></g><g data-name="Group 6819"><path data-name="Path 14136" d="M274.134 2864.28v5.282a2.029 2.029 0 0 1-1.1 1.449 3.876 3.876 0 0 1-2.447.577l.067-5.58c1.766-.122 2.465-.936 3.48-1.728z" fill="#ec5f61"/></g><g data-name="Group 6820"><path data-name="Path 14137" d="M274.148 2860.024a1.87 1.87 0 0 1-.705 1.36 4.556 4.556 0 0 1-2.781.666l-16.554-9.543 3.486-2.026z" fill="#fff"/></g><g data-name="Group 6821"><path data-name="Path 14138" d="M271.764 2861.851l-1.1.2-17.148-9.857.539-.28z" fill="#ec5f61"/></g><g data-name="Group 6822"><path data-name="Path 14139" d="M274.148 2860.024l-.4.526-17.247-10.1.539-.281z" fill="#ec5f61"/></g></g></g><path data-name="Path 14140" d="M272.876 2861.068c.978-.567.322-.841.322-.841l.95-.2s.287.825-.924 1.546a3.644 3.644 0 0 1-2.562.48l.441-.573a2.85 2.85 0 0 0 1.773-.412z" fill="#ec5f61"/><path data-name="Path 14141" d="M256.5 2851.115v-.667l.578.333z" fill="#ec5f61"/><g data-name="Group 6831"><g data-name="Group 6830" style="isolation:isolate"><g data-name="Group 6825"><path data-name="Path 14142" d="M266.175 2864.848l-.078 27.681-17.148-9.857.079-27.681z" fill="#cce8ea"/></g><g data-name="Group 6826"><path data-name="Path 14143" d="M269.661 2862.822l-.078 27.682a1.83 1.83 0 0 1-1.04 1.448 3.872 3.872 0 0 1-2.446.577l.078-27.681z" fill="#edf3f3"/></g><g data-name="Group 6827"><path data-name="Path 14144" d="M269.661 2862.822a1.87 1.87 0 0 1-.705 1.36 4.554 4.554 0 0 1-2.781.666l-16.554-9.543 3.486-2.026z" fill="#fff"/></g><g data-name="Group 6828"><path data-name="Path 14145" d="M267.277 2864.649l-1.1.2-17.148-9.857.539-.28z" fill="#cce8ea"/></g><g data-name="Group 6829"><path data-name="Path 14146" d="M269.661 2862.822l-.4.526-17.248-10.1.539-.28z" fill="#cce8ea"/></g></g></g><path data-name="Path 14147" d="M268.388 2863.865c.979-.566.323-.84.323-.84l.95-.2s.287.825-.924 1.546a3.644 3.644 0 0 1-2.562.48l.441-.573a2.844 2.844 0 0 0 1.772-.413z" fill="#cce8ea"/><path data-name="Path 14148" d="M252.015 2853.913v-.667l.578.334z" fill="#cce8ea"/><g data-name="Group 6838"><g data-name="Group 6837" style="isolation:isolate"><g data-name="Group 6832"><path data-name="Path 14149" d="M262.222 2866.866l-.078 27.681L245 2884.69l.078-27.681z" fill="#cce8ea"/></g><g data-name="Group 6833"><path data-name="Path 14150" d="M265.708 2864.84l-.078 27.682a1.827 1.827 0 0 1-1.039 1.448 3.877 3.877 0 0 1-2.447.577l.078-27.681z" fill="#edf3f3"/></g><g data-name="Group 6834"><path data-name="Path 14151" d="M265.708 2864.84a1.867 1.867 0 0 1-.708 1.36 4.552 4.552 0 0 1-2.781.667l-16.554-9.544 3.486-2.025z" fill="#fff"/></g><g data-name="Group 6835"><path data-name="Path 14152" d="M263.324 2866.667l-1.1.2-17.148-9.857.539-.28z" fill="#cce8ea"/></g><g data-name="Group 6836"><path data-name="Path 14153" d="M265.708 2864.84l-.4.526-17.247-10.1.539-.28z" fill="#cce8ea"/></g></g></g><path data-name="Path 14154" d="M264.435 2865.883c.979-.566.323-.841.323-.841l.95-.2s.286.825-.924 1.546a3.644 3.644 0 0 1-2.562.48l.441-.573a2.844 2.844 0 0 0 1.772-.412z" fill="#cce8ea"/><path data-name="Path 14155" d="M248.063 2855.931v-.667l.578.334z" fill="#ec5f61"/><g data-name="Group 6845"><g data-name="Group 6844" style="isolation:isolate"><g data-name="Group 6839"><path data-name="Path 14156" d="M257.967 2871.191l-.078 25.6-15.522-8.909.079-25.6z" fill="#193f42"/></g><g data-name="Group 6840"><path data-name="Path 14157" d="M261.453 2869.165l-.078 25.6a1.827 1.827 0 0 1-1.039 1.448 3.88 3.88 0 0 1-2.447.578l.078-25.6z" fill="#007787"/></g><g data-name="Group 6841"><path data-name="Path 14158" d="M261.453 2869.165a1.867 1.867 0 0 1-.705 1.359 4.55 4.55 0 0 1-2.781.667l-14.928-8.6 3.486-2.026z" fill="#fff"/></g><g data-name="Group 6842"><path data-name="Path 14159" d="M259.07 2870.991l-1.1.2-15.522-8.909.539-.28z" fill="#ec5f61"/></g><g data-name="Group 6843"><path data-name="Path 14160" d="M261.453 2869.165l-.4.526-15.622-9.156.539-.28z" fill="#007787"/></g></g></g><path data-name="Path 14161" d="M260.18 2870.208c.979-.567.323-.841.323-.841l.95-.2s.287.825-.924 1.546a3.643 3.643 0 0 1-2.562.48l.441-.573a2.843 2.843 0 0 0 1.772-.412z" fill="#007787"/><path data-name="Path 14162" d="M245.433 2861.2v-.667l.578.334z" fill="#193f42"/><g data-name="Group 6852"><g data-name="Group 6851" style="isolation:isolate"><g data-name="Group 6846"><path data-name="Path 14163" d="M253.656 2872.069l-.078 27.681-17.148-9.857.079-27.681z" fill="#ec5f61"/></g><g data-name="Group 6847"><path data-name="Path 14164" d="M258.923 2869.2l-.078 27.681a5.393 5.393 0 0 1-1.678 1.773 11.713 11.713 0 0 1-3.59 1.094l.078-27.681z" fill="#ec5f61"/></g><g data-name="Group 6848"><path data-name="Path 14165" d="M258.923 2869.2a1.869 1.869 0 0 1-.705 1.359c-1.077.824-4.563 1.508-4.563 1.508l-16.554-9.544 5.268-2.867z" fill="#fff"/></g><g data-name="Group 6849"><path data-name="Path 14166" d="M254.758 2871.87l-1.1.2-17.148-9.857.539-.28z" fill="#ec5f61"/></g><g data-name="Group 6850"><path data-name="Path 14167" d="M258.923 2869.2l-.4.526-17.247-10.1.539-.28z" fill="#ec5f61"/></g></g></g><path data-name="Path 14168" d="M257.056 2870.635c.979-.566.917-1.231.917-1.231l.95-.2s.122 1.1-1.518 1.936a13.243 13.243 0 0 1-3.75.931l.441-.573a11.2 11.2 0 0 0 2.96-.863z" fill="#ec5f61"/><path data-name="Path 14169" d="M241.278 2860.292v-.667l.578.333z" fill="#ec5f61"/><g data-name="Group 6859"><g data-name="Group 6858" style="isolation:isolate"><g data-name="Group 6853"><path data-name="Path 14170" d="M247.256 2875.8l-.078 27.681-17.148-9.857.078-27.681z" fill="#ffdf73"/></g><g data-name="Group 6854"><path data-name="Path 14171" d="M252.524 2872.93l-.079 27.682a5.376 5.376 0 0 1-1.677 1.772 11.708 11.708 0 0 1-3.591 1.095l.079-27.682z" fill="#ffdf73"/></g><g data-name="Group 6855"><path data-name="Path 14172" d="M252.524 2872.93a1.871 1.871 0 0 1-.706 1.359c-1.077.825-4.562 1.508-4.562 1.508l-16.555-9.543 5.268-2.867z" fill="#fff"/></g><g data-name="Group 6856"><path data-name="Path 14173" d="M248.358 2875.6l-1.1.2-17.148-9.857.539-.281z" fill="#ffdf73"/></g><g data-name="Group 6857"><path data-name="Path 14174" d="M252.524 2872.93l-.4.526-17.247-10.1.539-.28z" fill="#ffdf73"/></g></g></g><path data-name="Path 14175" d="M250.657 2874.364c.978-.567.916-1.232.916-1.232l.951-.2s.121 1.1-1.519 1.937a13.216 13.216 0 0 1-3.749.93l.441-.572a11.242 11.242 0 0 0 2.96-.863z" fill="#ffdf73"/><path data-name="Path 14176" d="M234.878 2864.021v-.667l.578.334z" fill="#ec5f61"/><g data-name="Group 6866"><g data-name="Group 6865" style="isolation:isolate"><g data-name="Group 6860"><path data-name="Path 14177" d="M241.434 2879.032l-.078 27.681-17.148-9.857.078-27.681z" fill="#ffdf73"/></g><g data-name="Group 6861"><path data-name="Path 14178" d="M246.7 2876.165l-.079 27.681a5.384 5.384 0 0 1-1.677 1.773 11.706 11.706 0 0 1-3.59 1.094l.078-27.681z" fill="#ffdf73"/></g><g data-name="Group 6862"><path data-name="Path 14179" d="M246.7 2876.165a1.867 1.867 0 0 1-.706 1.359c-1.076.824-4.562 1.508-4.562 1.508l-16.554-9.544 5.267-2.867z" fill="#fff"/></g><g data-name="Group 6863"><path data-name="Path 14180" d="M242.536 2878.833l-1.1.2-17.148-9.857.539-.28z" fill="#ffdf73"/></g><g data-name="Group 6864"><path data-name="Path 14181" d="M246.7 2876.165l-.4.527-17.248-10.1.539-.28z" fill="#ffdf73"/></g></g></g><path data-name="Path 14182" d="M244.835 2877.6c.979-.566.917-1.231.917-1.231l.95-.2s.122 1.1-1.519 1.936a13.228 13.228 0 0 1-3.749.931l.441-.573a11.192 11.192 0 0 0 2.96-.863z" fill="#ffdf73"/><path data-name="Path 14183" d="M229.056 2867.255v-.667l.578.334z" fill="#007787"/><g data-name="Group 6873"><g data-name="Group 6872" style="isolation:isolate"><g data-name="Group 6867"><path data-name="Path 14184" d="M236.463 2884.169l-.078 25.328-14.961-8.553.078-25.328z" fill="#cce8ea"/></g><g data-name="Group 6868"><path data-name="Path 14185" d="M239.949 2882.143l-.078 25.328a1.829 1.829 0 0 1-1.039 1.449 3.885 3.885 0 0 1-2.447.577l.078-25.328z" fill="#edf3f3"/></g><g data-name="Group 6869"><path data-name="Path 14186" d="M239.949 2882.143a1.867 1.867 0 0 1-.705 1.359 4.559 4.559 0 0 1-2.781.667l-14.367-8.24 3.486-2.026z" fill="#fff"/></g><g data-name="Group 6870"><path data-name="Path 14187" d="M237.565 2883.969l-1.1.2-14.961-8.553.539-.28z" fill="#cce8ea"/></g><g data-name="Group 6871"><path data-name="Path 14188" d="M239.949 2882.143l-.4.526-15.06-8.8.539-.28z" fill="#cce8ea"/></g></g></g><path data-name="Path 14189" d="M238.676 2883.186c.979-.567.323-.841.323-.841l.95-.2s.287.825-.924 1.546a3.643 3.643 0 0 1-2.562.48l.441-.573a2.851 2.851 0 0 0 1.772-.412z" fill="#cce8ea"/><path data-name="Path 14190" d="M224.491 2874.538v-.667l.578.334z" fill="#ec5f61"/><g data-name="Group 6880"><g data-name="Group 6879" style="isolation:isolate"><g data-name="Group 6874"><path data-name="Path 14191" d="M232.307 2889.015l-2.817 24.385-12.623-7.779 2.817-24.386z" fill="#ec5f61"/></g><g data-name="Group 6875"><path data-name="Path 14192" d="M235.992 2887.378l-2.817 24.386s-.067.8-1.19 1.328a3.874 3.874 0 0 1-2.495.309l2.817-24.386z" fill="#ec5f61"/></g><g data-name="Group 6876"><path data-name="Path 14193" d="M235.992 2887.378a1.871 1.871 0 0 1-.849 1.275 4.553 4.553 0 0 1-2.836.362l-11.888-7.484 3.506-1.557z" fill="#fff"/></g><g data-name="Group 6877"><path data-name="Path 14194" d="M233.425 2888.936l-1.117.079-12.624-7.78.567-.22z" fill="#ec5f61"/></g><g data-name="Group 6878"><path data-name="Path 14195" d="M235.992 2887.377l-.453.48-12.7-8.035.567-.22z" fill="#ec5f61"/></g></g></g><path data-name="Path 14196" d="M234.614 2888.277c1.034-.458.412-.8.412-.8l.966-.1s.195.85-1.086 1.436a3.644 3.644 0 0 1-2.6.2l.434-.453a3.469 3.469 0 0 0 1.874-.283z" fill="#ec5f61"/><path data-name="Path 14197" d="M223.382 2880.217l-.61.269.072-.664z" fill="#ec5f61"/><path data-name="Path 14198" d="M159.4 2906.656v-.667l.578.334z" fill="#ec5f61"/></g></g><path data-name="Path 14200" d="M105.754 134.581l-9.118 5.262-.057-20.154 9.121-5.266z" fill="#fff"/><path data-name="Path 14201" d="M96.636 139.843l-7.056-4.1-.057-21.578 7.056 4.1z" fill="#cee3e8"/><g data-name="Group 6886" style="isolation:isolate"><g data-name="Group 6883"><path data-name="Path 14202" d="M105.736 122.626l-9.121 5.266-.027-9.416 9.121-5.266z" fill="#007787"/></g><g data-name="Group 6884"><path data-name="Path 14203" d="M96.618 127.892l-7.056-4.1-.027-9.416 7.056 4.1z" fill="#193f42"/></g><g data-name="Group 6885"><path data-name="Path 14204" d="M105.712 113.21l-9.121 5.266-7.056-4.1 9.121-5.266z" fill="#193f42"/></g></g><path data-name="Path 14205" d="M101.044 118.229c1.924-1.111 3.487-.931 3.491.4s-1.553 3.3-3.477 4.413-3.493.935-3.5-.387 1.562-3.312 3.486-4.426z" fill="#cee3e8"/><path data-name="Path 14206" d="M94.778 141.006l-9.121 5.266-.057-20.154 9.121-5.266z" fill="#fff"/><path data-name="Path 14207" d="M85.656 146.272l-7.056-4.1-.057-21.578 7.056 4.1z" fill="#cee3e8"/><g data-name="Group 6890" style="isolation:isolate"><g data-name="Group 6887"><path data-name="Path 14208" d="M94.762 129.051l-9.121 5.266-.027-9.416 9.121-5.266z" fill="#007787"/></g><g data-name="Group 6888"><path data-name="Path 14209" d="M85.641 134.317l-7.056-4.1-.027-9.416 7.056 4.1z" fill="#193f42"/></g><g data-name="Group 6889"><path data-name="Path 14210" d="M94.736 119.635l-9.121 5.266-7.056-4.1 9.121-5.266z" fill="#193f42"/></g></g><path data-name="Path 14211" d="M90.068 124.654c1.924-1.11 3.486-.931 3.49.4s-1.553 3.3-3.477 4.413-3.493.935-3.5-.387 1.563-3.315 3.487-4.426z" fill="#cee3e8"/><g data-name="Group 6891"><path data-name="Path 14212" d="M75.582 153.924a.115.115 0 0 0-.116.01l-4.893-2.843a.113.113 0 0 1 .116-.01z" fill="#ec5f61"/></g><g data-name="Group 6892"><path data-name="Path 14213" d="M75.466 153.934L53.36 166.697l-4.893-2.844 22.106-12.763z" fill="#ec5f61"/></g><g data-name="Group 6893"><path data-name="Path 14214" d="M75.466 153.934c.089-.051.165-.008.165.094a.369.369 0 0 1-.164.284l-22.106 12.763a.1.1 0 0 1-.165-.094.366.366 0 0 1 .164-.284z" fill="#ec5f61"/></g><g data-name="Group 6894"><path data-name="Path 14215" d="M53.36 166.697a.366.366 0 0 0-.164.284.114.114 0 0 0 .048.1l-4.893-2.843a.117.117 0 0 1-.048-.1.366.366 0 0 1 .164-.284z" fill="#ec5f61"/></g><g data-name="Group 6895"><path data-name="Path 14216" d="M73.036 125.19l4.893 2.843a1.043 1.043 0 0 0-1.054.1l-4.893-2.844a1.044 1.044 0 0 1 1.054-.099z" fill="#ec5f61"/></g><g data-name="Group 6896"><path data-name="Path 14217" d="M50.824 167.655l-4.893-2.844a1.037 1.037 0 0 1-.433-.949l4.893 2.843a1.039 1.039 0 0 0 .433.95z" fill="#ec5f61"/></g><g data-name="Group 6897"><path data-name="Path 14218" d="M59.245 150.843c.009 3.252 2.315 4.566 5.152 2.928a11.273 11.273 0 0 0 5.113-8.855c-.009-3.26-2.315-4.574-5.146-2.94a11.281 11.281 0 0 0-5.119 8.867zm1.408-2.366l2.375-1.371-.008-2.728 2.7-1.561.008 2.728 2.361-1.363.009 3.107-2.362 1.363.008 2.714-2.7 1.561-.008-2.714-2.374 1.372z" fill="#ec5f61"/></g><g data-name="Group 6898"><path data-name="Path 14219" d="M50.33 145.167l.061 21.538c0 .939.67 1.319 1.487.848l1.482-.856 22.106-12.763 1.482-.855a3.266 3.266 0 0 0 1.477-2.559l-.062-21.537c0-.939-.669-1.319-1.486-.847l-25.07 14.473a3.263 3.263 0 0 0-1.477 2.558zm8.174 6.1a12.924 12.924 0 0 1 5.858-10.145c3.235-1.868 5.878-.362 5.889 3.363A12.919 12.919 0 0 1 64.4 154.62c-3.242 1.876-5.885.369-5.896-3.349z" fill="#ec5f61"/></g><g data-name="Group 6899"><path data-name="Path 14220" d="M63.02 144.379l2.7-1.561.008 2.729 2.362-1.364.009 3.107-2.362 1.364.008 2.714-2.7 1.561-.008-2.714-2.374 1.371-.009-3.107 2.375-1.371z" fill="#fff"/></g><g data-name="Group 6900"><path data-name="Path 14221" d="M58.504 151.271c.011 3.718 2.654 5.225 5.9 3.353a12.919 12.919 0 0 0 5.851-10.135c-.011-3.725-2.654-5.231-5.889-3.363a12.924 12.924 0 0 0-5.862 10.145zm.741-.427a11.281 11.281 0 0 1 5.119-8.867c2.831-1.634 5.137-.32 5.146 2.94a11.273 11.273 0 0 1-5.113 8.855c-2.837 1.638-5.143.324-5.152-2.929z" fill="#fff"/></g><g data-name="Group 6901"><path data-name="Path 14222" d="M50.391 166.705l-4.893-2.844-.061-21.538 4.893 2.844z" fill="#ec5f61"/></g><g data-name="Group 6902"><path data-name="Path 14223" d="M76.877 128.135l-25.07 14.474-4.893-2.844 25.07-14.474z" fill="#ec5f61"/></g><g data-name="Group 6903"><path data-name="Path 14224" d="M46.914 139.766l4.893 2.843a3.263 3.263 0 0 0-1.477 2.558l-4.893-2.843a3.26 3.26 0 0 1 1.477-2.558z" fill="#ec5f61"/></g><g data-name="Group 6904"><path data-name="Path 14225" d="M67.29 131.471a.6.6 0 0 1-.006.084l-.7-.406a.606.606 0 0 0 .006-.084z" fill="#fff"/></g><g data-name="Group 6905"><path data-name="Path 14226" d="M67.29 131.471l-.7-.406v-.619l.7.406z" fill="#fff"/></g><g data-name="Group 6906"><path data-name="Path 14227" d="M66.436 132.043a.268.268 0 0 0 .12.2l-.7-.406a.268.268 0 0 1-.12-.2.462.462 0 0 1-.007-.077l.7.407a.46.46 0 0 0 .007.076z" fill="#ec5f61"/></g><g data-name="Group 6907"><path data-name="Path 14228" d="M67.289 130.853l-.7-.406a.3.3 0 0 0-.126-.276l.7.406a.3.3 0 0 1 .126.276z" fill="#fff"/></g><g data-name="Group 6908"><path data-name="Path 14229" d="M66.429 131.969l-.7-.406v-.618l.7.406z" fill="#ec5f61"/></g><g data-name="Group 6909"><path data-name="Path 14230" d="M67.163 130.577a.3.3 0 0 0-.306.03l-.7-.407a.3.3 0 0 1 .306-.029z" fill="#ec5f61"/></g><g data-name="Group 6910"><path data-name="Path 14231" d="M66.857 130.607a.938.938 0 0 0-.43.743l-.7-.406a.94.94 0 0 1 .43-.744z" fill="#ec5f61"/></g><g data-name="Group 6911"><path data-name="Path 14232" d="M67.289 130.853v.618a.6.6 0 0 1-.006.084.972.972 0 0 1-.423.66c-.216.125-.392.043-.425-.17a.46.46 0 0 1-.007-.076v-.619a.938.938 0 0 1 .43-.743c.233-.136.43-.031.431.246z" fill="#ec5f61"/></g><g data-name="Group 6912"><path data-name="Path 14233" d="M66.094 132.243l-.7-.406-.007-2.518.7.406z" fill="#fff"/></g><g data-name="Group 6913"><path data-name="Path 14234" d="M66.087 129.725l-.7-.406a.609.609 0 0 0-.253-.56l.7.406a.614.614 0 0 1 .253.56z" fill="#fff"/></g><g data-name="Group 6914"><path data-name="Path 14235" d="M66.23 126.885l.7.406a1.7 1.7 0 0 0-1.711.166l-.7-.406a1.7 1.7 0 0 1 1.711-.166z" fill="#fff"/></g><g data-name="Group 6915"><path data-name="Path 14236" d="M58.077 136.791a.831.831 0 0 1-.006.084l-.7-.407a.587.587 0 0 0 .006-.083z" fill="#fff"/></g><g data-name="Group 6916"><path data-name="Path 14237" d="M58.077 136.791l-.7-.406v-.618l.7.406z" fill="#fff"/></g><g data-name="Group 6917"><path data-name="Path 14238" d="M57.222 137.365a.269.269 0 0 0 .121.2l-.7-.406a.27.27 0 0 1-.121-.2.457.457 0 0 1-.006-.076l.7.406a.478.478 0 0 0 .006.076z" fill="#ec5f61"/></g><g data-name="Group 6918"><path data-name="Path 14239" d="M58.075 136.172l-.7-.406a.3.3 0 0 0-.125-.278l.7.406a.3.3 0 0 1 .125.278z" fill="#fff"/></g><g data-name="Group 6919"><path data-name="Path 14240" d="M57.216 137.288l-.7-.406v-.618l.7.406z" fill="#ec5f61"/></g><g data-name="Group 6920"><path data-name="Path 14241" d="M57.951 135.894a.307.307 0 0 0-.308.032l-.7-.406a.305.305 0 0 1 .307-.032z" fill="#ec5f61"/></g><g data-name="Group 6921"><path data-name="Path 14242" d="M58.075 136.172v.619a.831.831 0 0 1-.006.084.962.962 0 0 1-.423.659c-.211.122-.391.043-.426-.169a.478.478 0 0 1-.006-.077v-.618a.947.947 0 0 1 .429-.744c.241-.139.431-.03.432.246z" fill="#ec5f61"/></g><g data-name="Group 6922"><path data-name="Path 14243" d="M57.643 135.926a.947.947 0 0 0-.429.744l-.7-.407a.947.947 0 0 1 .429-.743z" fill="#ec5f61"/></g><g data-name="Group 6923"><path data-name="Path 14244" d="M56.874 137.566l-.7-.406-.007-2.518.7.406z" fill="#fff"/></g><g data-name="Group 6924"><path data-name="Path 14245" d="M65.218 127.457l-5.952 3.437-.7-.406 5.952-3.437z" fill="#fff"/></g><g data-name="Group 6925"><path data-name="Path 14246" d="M58.566 130.487l.7.407a5.293 5.293 0 0 0-2.4 4.154l-.7-.406a5.3 5.3 0 0 1 2.4-4.155z" fill="#fff"/></g><g data-name="Group 6926"><path data-name="Path 14247" d="M59.265 130.894l5.953-3.437c1.323-.764 2.41-.152 2.414 1.376l.007 2.518-.355.2a.6.6 0 0 0 .006-.084v-.618c0-.277-.2-.382-.432-.246a.938.938 0 0 0-.43.743v.619a.46.46 0 0 0 .007.076l-.342.2-.007-2.517c0-.553-.389-.774-.864-.5l-5.953 3.437a1.894 1.894 0 0 0-.858 1.494l.007 2.517-.348.2a.831.831 0 0 0 .006-.084v-.619c0-.276-.191-.385-.432-.246a.947.947 0 0 0-.429.744v.618a.478.478 0 0 0 .006.077l-.348.2-.007-2.518a5.293 5.293 0 0 1 2.399-4.15z" fill="#fff"/></g><g data-name="Group 6927"><path data-name="Path 14248" d="M73.389 127.895a.172.172 0 0 0-.174.015l-.7-.406a.171.171 0 0 1 .175-.015z" fill="#fff"/></g><g data-name="Group 6928"><path data-name="Path 14249" d="M73.215 127.91l-2.3 1.331-.7-.406 2.305-1.331z" fill="#fff"/></g><g data-name="Group 6929"><path data-name="Path 14250" d="M73.215 127.91a.152.152 0 0 1 .248.141.544.544 0 0 1-.246.427l-2.3 1.33c-.133.077-.248.019-.248-.141a.553.553 0 0 1 .246-.426z" fill="#fff"/></g><g data-name="Group 6930"><path data-name="Path 14251" d="M70.91 129.243a.553.553 0 0 0-.246.426.17.17 0 0 0 .072.158l-.7-.406a.17.17 0 0 1-.072-.158.554.554 0 0 1 .246-.426z" fill="#fff"/></g><g data-name="Group 6931"><path data-name="Path 14252" d="M53.753 139.232a.173.173 0 0 0-.174.015l-.7-.406a.171.171 0 0 1 .174-.015z" fill="#fff"/></g><g data-name="Group 6932"><path data-name="Path 14253" d="M53.579 139.243l-2.3 1.331-.7-.406 2.3-1.331z" fill="#fff"/></g><g data-name="Group 6933"><path data-name="Path 14254" d="M53.579 139.243a.152.152 0 0 1 .247.141.544.544 0 0 1-.246.427l-2.305 1.331c-.133.076-.247.019-.248-.142a.558.558 0 0 1 .247-.426z" fill="#fff"/></g><g data-name="Group 6934"><path data-name="Path 14255" d="M51.274 140.578a.558.558 0 0 0-.247.426.173.173 0 0 0 .072.159l-.7-.407a.173.173 0 0 1-.072-.158.553.553 0 0 1 .247-.426z" fill="#fff"/></g></g><path data-name="Path 14257" d="M123.043 291.226l56.529-32.2c6.163-2.816 14.982-5.057 21.261-1.789 5.721 2.977 15.145 9.07 19.312 11.446 3.165 1.805 14.152 8.388 7.309 12.109-20.131 10.946-40.053 23.257-60.494 34.377-3.866 2.1-9.522 2.863-15.459 2.37a40.948 40.948 0 0 1-16.742-4.986q-5.1-2.964-10.024-5.835c-4.435-2.582-6.786-5.635-7.018-8.457-.228-2.753 1.544-5.308 5.326-7.035z" fill="#231f20" fill-rule="evenodd" opacity=".1" style="mix-blend-mode:multiply;isolation:isolate"/><g data-name="Group 6986" fill-rule="evenodd"><path data-name="Path 14377" d="M125.677 75.97c-.337 11.356 6 32.213 11.3 45.42 2.7 6.716 5.28 11.766 11.277 11.513 5.683-.239 8.444-7.041 7.687-12.818-.894-6.841-2.68-15.03-5.416-29.16-2.918-15.082-24.398-30.137-24.848-14.955z" fill="#06929c"/><path data-name="Path 14378" d="M188.021 136.735l-2.129-3.331.046-6.512c2.844-2.294 5.1-3.24 6.488-2.885 5.002 1.268 1.899 14.456-4.405 12.728z" fill="#037a81"/><path data-name="Path 14379" d="M139.465 124.017c1.541 3.73 1.586 6.455 5.427 8.611 1.645.923 3.908 1.115 6.305 1.848 9.272 2.833 23.312 2.34 37.13 2.347-1.571-7.2.231-11.7 4.247-12.813-11.884-3.025-25.847-3.4-37.569-5.172a22.929 22.929 0 0 0-4.368-.241z" fill="#06929c"/><path data-name="Path 14380" d="M134.423 72.383c4.336 16.442 8.937 33.87 14.314 50.005l39.062 4.526c.929-1.412 1.284-2.247 3.057-3.125l-36.939-4.209c-5.601-24.537-6.199-34.443-19.494-47.197z" fill="#037a81"/><g data-name="Group 6962"><g data-name="Group 6960"><path data-name="Path 14381" d="M121.762 137.835l-3.7-.012c0 .078.008 28.3.023 28.375.294 1.345 3.291 1.363 3.638.046.027-.081.039-28.318.039-28.409z" fill="#dceaf0"/><path data-name="Path 14382" d="M119.661 137.828l-1.594-.005c0 .078.008 28.3.023 28.375.136.616.836.952 1.589 1.012-.012-4.923-.018-27.161-.018-29.382z" fill="#cfe0e8"/><path data-name="Path 14383" d="M121.297 138.004h-1.046c0 .024 0 28.79.006 28.812a1.34 1.34 0 0 0 1.1-.636c.01-.027-.06-28.148-.06-28.176z" fill="#f5fcff"/></g><g data-name="Group 6961"><path data-name="Path 14384" d="M100.236 176.043c-14.341-7.648-4.777-17.718 5.746-22.067 13.3-5.495 32.451-5.188 45.6.487l1.118-12.747c-.161-.5-.85-1.01-.836-2.041-22.346-9.564-58.429-3.807-63.995 17.307-.366 1.39-.6 8.911-.691 13.256-1.167 9.755 6.142 16.728 13.68 19.986z" fill="#248ca6"/><path data-name="Path 14385" d="M97.656 179.712c-5.985-3.192-9.185-9.32-10.274-16.332a305.47 305.47 0 0 0-.2 6.859c-.075 4.29 3.02 13.606 10.558 16.864z" fill="#1b9ebf"/><path data-name="Path 14386" d="M100.236 176.043l-1.112 2.508.39 10.958 1.349.715z" fill="#17667a"/><path data-name="Path 14387" d="M93.104 168.675c-.666-3.371.92-6.767 5.3-10.3a33.47 33.47 0 0 1 8.49-4.811c10.719-4.285 31.99-5 44.6.883l1.172-12.7c-19.765-8.6-62.915-5.964-62.11 18.715 1.092-16.175 25.484-21.9 42.005-20.678a52.972 52.972 0 0 1 14.136 2.8c2.245.841 3.006 8.16.08 7.444-8.994-2.2-24.239-3.879-37.435.014-10.962 3.233-15.385 8.812-16.83 13.057-2.083 6.101.715 6.369.592 5.576z" fill="#17667a"/><path data-name="Path 14388" d="M100.236 176.043c-10.62-6.509-13.656-22.738-1.63-30.4 21.394-13.636 45-6.8 54.1-3.943.007-.368-.845-1.64-.841-2.023-11.492-5.042-28.652-6.011-41.812-2.073-12.988 3.887-21.793 12.132-22.494 21.394-.489 6.455 2.956 13.4 11.661 19.715z" fill="#1b9ebf"/><path data-name="Path 14389" d="M144.959 143.393c-8.117-2.937-20.875-3.18-29.269-1.439-10.017 2.078-20.448 6.816-23.855 16.346l-.352 4.23c4.622-13.029 29.132-20.307 53.145-14.575 2.961.707 2.452-3.793.331-4.562z" fill="#1b9ebf"/></g></g><g data-name="Group 6966"><g data-name="Group 6963"><path data-name="Path 14390" d="M108.761 259.495l46.166-.141a27.2 27.2 0 0 1-.293 4.05c-3.691 16.817-41.126 17.03-45.464.584a24.566 24.566 0 0 1-.409-4.493z" fill="#cfe0e8"/><path data-name="Path 14391" d="M109.67 259.492l45.257-.138a27.2 27.2 0 0 1-.293 4.05c-3.386 15.427-35.167 16.879-43.743 4.317 6.241 6.47 14.407 8.624 23.646 7.942a30.7 30.7 0 0 0 7.773-1.525c1.266-.444 1.567-1.472-.068-1.058-9.799 2.468-31.16 2.67-32.572-13.588z" fill="#b6ccd6"/><path data-name="Path 14392" d="M115.549 250.3c9.058-5.385 23.7-5.385 32.693-.006 9.005 5.383 8.957 14.111-.106 19.5s-23.693 5.377-32.694-.007-8.949-14.11.107-19.487z" fill="#dceaf0"/><path data-name="Path 14393" d="M118.964 250.798c7.156-4.133 18.725-4.133 25.828 0s7.076 10.832-.084 14.966-18.717 4.128-25.829 0-7.07-10.838.085-14.966z" fill="#f5fcff"/><path data-name="Path 14394" d="M139.989 274.63a39.191 39.191 0 0 1-14.25.377c-6.366-1.044-12.536-4-15.751-9.541 2.946 4.27 8.584 7.623 15.809 8.773a44.388 44.388 0 0 0 14.174-.417c.872-.148.688.659.018.808z" fill="#f5fcff"/></g><g data-name="Group 6964"><path data-name="Path 14395" d="M125.693 164.159l12.3-.036c0 .26-.027 94.232-.078 94.468-.985 4.48-10.961 4.539-12.116.155-.063-.27-.106-94.282-.106-94.587z" fill="#dceaf0"/><path data-name="Path 14396" d="M132.686 164.143l5.31-.016c0 .26-.027 94.232-.078 94.468-.451 2.051-2.784 3.175-5.293 3.37.04-16.393.059-90.433.061-97.822z" fill="#cfe0e8"/><path data-name="Path 14397" d="M127.236 164.724l3.482-.011c0 .079-.007 95.853-.022 95.924-.77.135-3.2-.782-3.674-2.117-.017-.077.214-93.703.214-93.796z" fill="#f5fcff"/><path data-name="Path 14398" d="M125.693 196.86l12.3-.038c0 .26-.027 24.563-.078 24.8-.985 4.481-10.961 4.538-12.116.156-.063-.272-.106-24.614-.106-24.918z" fill="#b6ccd6"/></g><g data-name="Group 6965"><path data-name="Path 14399" d="M90.57 187.028l82.548-.25a104.267 104.267 0 0 1-.525 10.563c-6.6 30.07-73.536 30.449-81.29 1.044-.477-1.813-.733-9.316-.733-11.357z" fill="#1e7e96"/><path data-name="Path 14400" d="M92.194 187.024l80.924-.246a104.267 104.267 0 0 1-.525 10.563c-6.056 27.586-62.879 30.179-78.216 7.717 11.161 11.57 25.717 14.719 42.238 13.5a55.238 55.238 0 0 0 13.942-2.726c2.262-.794 2.85-4.746-.077-4.03-18.796 4.591-55.76 4.291-58.286-24.778z" fill="#17667a"/><path data-name="Path 14401" d="M102.707 170.587c16.2-9.628 42.382-9.628 58.457-.01 16.1 9.625 16.016 25.231-.191 34.859-16.179 9.617-42.363 9.617-58.457-.012s-16.003-25.222.191-34.837z" fill="#248ca6"/><path data-name="Path 14402" d="M104.309 170.435c15.685 25.7 70.075 19.308 55.038 31.988-15.282 8.827-40.016 8.827-55.221-.011s-15.115-23.151.183-31.977z" fill="#1b9ebf"/><path data-name="Path 14403" d="M146.363 216.098c-4.242 1.306-14.483 1.747-18.547 1.606-9.131-.32-34.564-4.857-36.019-21.27 5.556 14.529 30.3 21.787 54.314 17.2 2.958-.562 2.376 1.809.252 2.464z" fill="#1b9ebf"/></g></g><g data-name="Group 6976"><g data-name="Group 6969"><g data-name="Group 6967"><path data-name="Path 14404" d="M155.368 277.251c-1.089 3.183-2.086 5.651-1.983 7.654.1 2.073.671 4.09.644 6.712-.023 2.25-.138 4.162-.4 6.708-.266 2.6.006 3.836 1.147 4.877 1.858 1.69 7.388 4.3 10.009 5.194a10.538 10.538 0 0 0 4.591.616 20.482 20.482 0 0 0 6.15-1.12c.565-.214 1.145-2.409 1.187-4.314.085-3.988-.277-3.651-1.926-9.97-.564-2.157-1.019-4.217-1.795-6.737-.966-3.141-2.168-5.905-2.29-9l-11.677-.456z" fill="#111214"/><path data-name="Path 14405" d="M155.368 277.251c-1.089 3.183-2.086 5.651-1.983 7.654.1 2.073.671 4.09.644 6.712-.023 2.25-.138 4.162-.4 6.708-.266 2.6.006 3.836 1.147 4.877 1.858 1.69 7.388 4.3 10.009 5.194a10.538 10.538 0 0 0 4.591.616 20.482 20.482 0 0 0 6.15-1.12c.512-.194 1.035-2.012 1.16-3.767h-.032c-3.567 1.217-7.031 1.7-10.46.029-7.236-3.535-6.294-6.47-5.613-14.812 4.708-.831 6.558-1.669 8.946-4.248-4.014 1.181-8.327 1.391-10.462-1.06l-.665-6.639z"/><path data-name="Path 14406" d="M171.31 285.735c-3.379 2.665-2.195 3.83-7.128 4.475 1.22 4.877 1.374 5.112 3.845 9.611.2 1.858.348 4.3 3.968 4.32 6.756.044 2.068-5.534 2.045-5.743a55.92 55.92 0 0 0-2.73-12.663z" fill="#20232e"/></g><g data-name="Group 6968"><path data-name="Path 14407" d="M197.404 258.083c1.185 4.163 1.483 6.312 3.214 8.736 3.447 4.83 8.531 8.282 15.933 13.529 3.522 2.5 4.266 4.863.7 7.039-2.81 1.714-9.678.352-13.97-.657-8.051-1.9-11.307-6.741-14.062-8l-2.083.474c-1.708.03-8-3.4-9.308-5.148-.34-1.507-1.31-3.412-1.468-5.525-.249-6.814.82-6.121 2.643-11.453 6.194.449 12.195.795 18.401 1.005z" fill="#111214"/><path data-name="Path 14408" d="M219.584 284.267c.035 1.077-.693 2.118-2.333 3.12-2.81 1.714-9.678.352-13.97-.657-8.051-1.9-11.307-6.741-14.062-8l-2.083.473c-1.708.03-8-3.336-9.726-4.909a39.916 39.916 0 0 1-1.05-5.764c-.249-6.814.82-6.121 2.643-11.453 2.741.2 5.445.378 8.145.534.489 4.486-.166 12.225 3.526 15.1 4.128 3.22 7.35 4.079 10.109 5.756 8.788 5.348 14.595 9.691 18.801 5.8z"/><path data-name="Path 14409" d="M199.359 265.737c-.879 1.295-2.606 2.026-5.462 2.737 4.606 5.192 5.254 4.707 11.44 8.181 3.116 3.562 3.55 4.238 5.538 5.387 2.375 1.372 5.73 2.78 7.138 1.767.607-.435-.209-1.653-2.824-3.549-2.966-2.149-5.986-4.329-8.718-6.6a32.23 32.23 0 0 1-7.112-7.923z" fill="#20232e"/></g><path data-name="Path 14410" d="M183.641 207.254c-16.1-14.813-40.406-15.019-52.526-22.478-8.829-5.432-13.494-6.095-7.984-17.565l29.36-11.1c0 2.779 1.724 6.482 2.6 6.818a194 194 0 0 1 41.249 21.687c2.184 1.216 5.58 4.37 5.618 7.093.052 3.724-9.422 13.994-18.317 15.545z" fill="#00263d"/><path data-name="Path 14411" d="M183.641 207.254c-16.1-14.813-40.406-15.019-52.526-22.478-8.829-5.432-13.494-6.095-7.984-17.565l10.883-4.114.011.026c1.532 3.113 5.825 6.492 8.269 8.586a41.856 41.856 0 0 0 6.81 4.731c5.966 3.371 21.537 11.261 32.25 15.75 4.319 1.81 5.2 3.652 5.454 5.817a28.6 28.6 0 0 1-.376 8.488 16.546 16.546 0 0 1-2.791.759z" fill="#001e30"/><path data-name="Path 14412" d="M201.855 201.113c-.818 20.451-1.787 40.741-3.017 61.229-2.912 4.781-16.968 5.075-21.769-1.646-.719-18.568-1.881-33.229-1.355-43.389.437-8.457 2.629-13.448 3.576-20.846 3.19-8.385 16.159-11.634 21.042-8.12 3.035 2.182 1.668 9.184 1.523 12.772z" fill="#00263d"/><path data-name="Path 14413" d="M185.456 265.461c-3.385-.665-6.559-2.206-8.387-4.765-.719-18.568-1.881-33.229-1.355-43.389.437-8.457 2.629-13.448 3.576-20.846a12.139 12.139 0 0 1 2.591-4.042c3.863 1.737 4.68 3.515 4.927 5.588.874 7.333-1.935 13.306-2.593 20.495-1.173 12.841.573 31.655 1.241 46.959z" fill="#001e30"/><path data-name="Path 14414" d="M157.711 221.543c-9.048-8.326-22.247-13.344-33.133-16.794-8.483-2.688-15.134-4.339-19.87-6.876-12.764-6.839-10.14-16.1-4.554-22.985 3.008-3.7 6.11-5.724 9.854-9.064l25.093-.732c.147 3.293 11.1 8.853 10.942 12.444a3.9 3.9 0 0 1-1.38 2.282c-1.911 1.332 1.377 3.24 2.85 4.165 6.377 4 16.54 10.763 22.894 14.923 2.125 1.514 5.61 4.519 5.679 6.886.108 3.723-9.479 14.204-18.375 15.751z" fill="#00263d"/><path data-name="Path 14415" d="M157.711 221.543c-9.048-8.326-22.247-13.344-33.133-16.794-8.483-2.688-15.134-4.339-19.87-6.876-12.764-6.839-10.14-16.1-4.554-22.985 3.008-3.7 6.11-5.724 9.854-9.064l2.809.939-4.246 10.447c11.571 7.826 30.469 18.76 44.747 28.189 4.179 2.76 6.687 4.088 7.28 7.122.411 2.1.012 4.636-.542 8.419a16.391 16.391 0 0 1-2.345.603z" fill="#001e30"/><path data-name="Path 14416" d="M176.305 207.203c-.89 23.492-1.959 49.412-3.365 72.885-2.914 4.78-16.968 5.074-21.769-1.647-.72-18.569-1.882-35.1-1.356-45.26.437-8.457 3.7-14.166 3.574-21.683 3.973-10.437 23.1-12.914 22.916-4.295z" fill="#00263d"/><path data-name="Path 14417" d="M159.562 283.206c-3.389-.663-6.562-2.2-8.391-4.765-.72-18.569-1.882-35.1-1.356-45.26.437-8.457 3.7-14.166 3.574-21.683a12.28 12.28 0 0 1 2.774-4.228c2.48 1.671 3.991 2.987 4.435 5.254.736 3.762-1.131 8.947-1.826 20.191-.965 15.601 1.064 34.628.79 50.491z" fill="#001e30"/><path data-name="Path 14418" d="M136.2 168.143l-18.858 10.8c17.175 10.246 28.23 18.852 45.5 27.514 4.027 2.02 13.411 0 7.17-5-8.414-6.735-18.257-12.162-27.645-19.355-1.939-1.484 2.907-2.3 1.973-5.354-.693-2.27-6.704-8.048-8.14-8.605z" fill="#002b45"/><path data-name="Path 14419" d="M174.272 206.633a10.851 10.851 0 0 1-7.668 3.4c-2.784 22.762-1.674 49.436-2.239 72.587 3.4-.68 4.266-.665 7.282-2.387 1.889-24.213 2.189-49.44 2.625-73.6z" fill="#002b45"/><path data-name="Path 14420" d="M151.913 161.561a67.189 67.189 0 0 1-10.026 5.848 30.064 30.064 0 0 0 8.067 6.233c12.573 6.864 25.527 14.188 38.066 18.381a9.368 9.368 0 0 0 8.032-1.324c1.533-1.13 2.726-2.809.245-4.668a145.858 145.858 0 0 0-22.362-13.931c-4.7-2.345-12.427-4.607-17.318-6.716-2.362-1.02-3.017-1.906-4.704-3.823z" fill="#002b45"/><path data-name="Path 14421" d="M200.785 192.875a13.528 13.528 0 0 1-9.13 3.759c.02 6.005-1.9 12.9-2.8 21.094-1.5 13.565-.532 31.433.176 46.576 3.921.428 6.113-.111 8.773-2.266 1.184-23.324 1.964-45.831 2.981-69.163z" fill="#002b45"/></g><g data-name="Group 6970"><path data-name="Path 14422" d="M150.073 155.618c-.061.4.347 1.286.087 1.647-5.337 7.439-39.385 18.15-46.392 17.568 5.307-46.141-35.832-88.6 7.105-105.975 2.373 6.784 11.118 7.923 16.424 8.236 2.126.124 11.38-.418 9.243-6.182-.2-.532 1.542 3.656 1.743 3.118 5.226 6.975 7.845 15.817 8.967 27.366 1.759 18.109.705 35.347 2.823 54.222z" fill="#12a8b3"/><path data-name="Path 14423" d="M128.606 168.31c-9.284 3.3-28.563 8.953-31.844 8.68 5.51-47.922-38.012-90.091 13.889-106.32 5.093-1.592 28.42 1.573 29.673 8.962-2.384-.266-5.767-1.2-7.6.037s-2.525 4.431-4.483 5.86a32.465 32.465 0 0 1-6.484-1.134 54.53 54.53 0 0 0 2.239 5.916c9.61 19.282 13.378 57.909 4.61 77.999z" fill="#06929c"/></g><g data-name="Group 6971"><path data-name="Path 14424" d="M110.091 69.199c-.569 6.675 19.445 14.462 23.737 8.569a9.246 9.246 0 0 1-.088-3.786c.157-1.78.848-3.257 1.11-4.952a77.786 77.786 0 0 1 1.828-11.148l-18.852-8.218-4.036-2.139c1.933 9.411-.2 13.787-3.699 21.674z" fill="#e8a476"/><path data-name="Path 14425" d="M110.091 69.199a2.738 2.738 0 0 0 .082 1.016c7.749-8.873 17.809-.04 24.731-2.279a93.869 93.869 0 0 1 1.774-10.054l-18.852-8.216-4.036-2.141c1.933 9.411-.2 13.787-3.699 21.674z" fill="#db9669"/></g><g data-name="Group 6972"><path data-name="Path 14426" d="M128.389 78.461c.855 3.573.995 3.56 4.248 6.02-.4 1.817-.662 3.384-.922 5.245 14.328 87.813 11.135 55.5 14.247 73.679.377-18.6-3.55-59.818-7.58-79.177a11.289 11.289 0 0 0-3.359-1.213c.891-3.944.395-6.486-.416-6.966-2.915-.106-4.13.239-6.218 2.412z" fill="#041e2e"/><path data-name="Path 14427" d="M131.558 76.262c2.637-2.711 3.291-6.549 3.435-8.671 2.035.259 1.675 7.062 3.4 10.691-2.671-1.864-3.834-2.027-6.835-2.02z" fill="#1abac6"/><path data-name="Path 14428" d="M112.584 63.465c-.409 6.575 12.071 11.144 19.038 12.8-1.748 2.109-4.005 4.763-3.916 6.869-5.023-1.374-13.542-3.737-16.993-10.159-2.359-4.389-.419-7.76 1.871-9.51z" fill="#1abac6"/></g><g data-name="Group 6975"><g data-name="Group 6973"><path data-name="Path 14429" d="M131.004 65.623c-2.229-1.379-7.542-3.326-9.544-4.705-4.38-3.018-3.894-7.951-5.323-14.2-4.092-2.746-5.508-4.978-5.944-7.537-1.033-6.075 2.247-12.75 6.8-16.482 3.977-3.26 8.634-4.279 13.934-3.283 10.3 1.934 14.742 9.549 15.547 18.38a5.91 5.91 0 0 1-.222 2.2c-.5 1.8-1.241 2.611-1.6 3.832-.85 2.873.512 2.564.3 5.5-.343 4.756-1.883 9.033-3.532 14.053-.484 1.475-.915 2.13-1.892 2.551a21.274 21.274 0 0 1-3.363.794c-1.148.264-2.248.255-5.161-1.103z" fill="#f1b287"/><path data-name="Path 14430" d="M131.006 65.623c-2.231-1.379-7.544-3.326-9.546-4.705-4.38-3.018-3.894-7.951-5.323-14.2-4.092-2.746-5.508-4.978-5.944-7.537-1.033-6.073 2.247-12.75 6.8-16.482 3.977-3.26 8.634-4.279 13.934-3.283 8.945 1.681 13.474 7.648 15.037 14.976-.532.887-9.676 3.828-17.286 2.56-1.164 3.333.131 6.46-.085 8.2-.207 1.668-.46 3.077-.47 4.03-.015 1.412 1.211 2.718 1.083 4.724-.419 6.526 2.4 11.233 5.073 12.883a13.421 13.421 0 0 1-3.273-1.166z" fill="#e8a476"/><path data-name="Path 14431" d="M142.784 31.927c1.13.238 2.613-.179 3.14 2.317-.012-3.943-1.111-4.5-3.408-5.267z" fill="#361d07"/><path data-name="Path 14432" d="M127.636 34.568c-7.1-1.983-14.238-8.463-15.55-12.049-5.231 6.979-6.073 17.454-1.1 24.747 1.168 3.608 2.31 7.155 3.359 10.8a71.286 71.286 0 0 0 4.807-13.779l.388-.392c.267.936.935 3.259 1.167 4.219.454.078 1.306-.454 2.017-.726-.122-6.89.936-10.954 4.912-12.82z" fill="#361d07"/><path data-name="Path 14433" d="M128.17 34.323c7.711.654 18.3-1.087 23.108-6.191-7.068-.154-13.1-11.784-24.155-12.652-6.411-.5-13.786 1.544-15.031 6.988 1.588 3.075 9.65 11.31 16.078 11.855z" fill="#361d07"/><path data-name="Path 14434" d="M127.804 34.597c7.709.652 18.67-1.361 23.474-6.465h-.069c-7.388 2.333-12.989 1.325-18.574-.753a7.119 7.119 0 0 0 2.875-.847c-5.775-.682-9.761-1.092-14.185-5.012a9.9 9.9 0 0 0 3.919.9c-2.816-1.2-5.189-4.057-9.746-4.536a7.257 7.257 0 0 0-3.545 4.77c1.305 3.489 9.423 11.398 15.851 11.943z" fill="#241304"/><path data-name="Path 14435" d="M117.299 41.376c-3.911-1.634-4.25 2.988-3.819 5.833.3 1.954 1.895 1.92 2.369 3.479a3.641 3.641 0 0 0 3.117 2.845c2.441.1 1.178-3.624.987-5.08.441-2.337-.171-6.039-2.654-7.077z" fill="#e8a476"/><path data-name="Path 14436" d="M111.807 23.179c-.819 1.236-2.852 4.648-2.907 7.359.875-1.558 1.567-2.976 3.287-4.033-1.965 2.2-2.735 5.2-2.308 9.022.6-3.143 1.232-4.876 3.811-6.248-2.2 2.837-2.584 8.68-2.073 11.33.908-3.511 2.038-8.324 5.251-8.829-2.27 2.585-2.285 4.222-1.723 7.281.865-3.14 2.128-4.766 4.512-5.593-.442 2.915-.478 8.454 1.944 11.46-.038-1.179-.162-9.112 1.546-9.933a5.581 5.581 0 0 0-.425 3.68 6.646 6.646 0 0 1 3.9-3.927c-6.081-1.248-13.978-8.376-14.815-11.569z" fill="#4a2b12"/><path data-name="Path 14437" d="M116.701 17.165c3.5-1.884 9.147-2.163 13.015-1.3 3.282.729 6.258 2.649 9.112 3.832a8.129 8.129 0 0 1-2.385-.343c5 2.386 8.571 7.835 14.739 8.756a11.934 11.934 0 0 1-7.105-1.516 16.2 16.2 0 0 0 2.457 1.772c-5.924-.564-9.229-4.4-14.2-7.174a6.648 6.648 0 0 0 2.859 2.516c-5.505-2.026-9.969-7.484-18.492-6.543z" fill="#4a2b12"/></g><g data-name="Group 6974"><path data-name="Path 14438" d="M137.795 45.491a1.034 1.034 0 0 1 1.247 1.17l-.749 4.317a1.024 1.024 0 0 1-.77.812 31.886 31.886 0 0 1-6.63.868 1.038 1.038 0 0 1-1.072-1.2l.772-4.449a1.028 1.028 0 0 1 1-.841 33.926 33.926 0 0 0 6.2-.681zm8.21-4.489l-1.126 6.5-.054-.01a5.41 5.41 0 0 1-2.565 2.421 1.038 1.038 0 0 1-1.535-1.066l.69-3.977a1.019 1.019 0 0 1 .583-.746c1.8-.835 3.53-1.9 3.955-3.13z" fill="#e9f5f5" opacity=".5"/><path data-name="Path 14439" d="M137.855 45.743a.787.787 0 0 1 .3-.007.778.778 0 0 1 .4.2.753.753 0 0 1 .221.382.771.771 0 0 1 .006.292l-.749 4.32a.745.745 0 0 1-.192.381.81.81 0 0 1-.379.22 26.928 26.928 0 0 1-3.1.58 36.013 36.013 0 0 1-3.477.28.757.757 0 0 1-.165-.012.8.8 0 0 1-.45-.248.75.75 0 0 1-.192-.468.8.8 0 0 1 .012-.159l.77-4.451a.743.743 0 0 1 .254-.439.782.782 0 0 1 .489-.182c1.138-.028 2.233-.1 3.273-.214s2.047-.275 2.981-.474zm-3.044-.05c-1.031.113-2.11.185-3.225.213a1.313 1.313 0 0 0-.824.306 1.256 1.256 0 0 0-.434.749l-.772 4.449a1.373 1.373 0 0 0-.017.271 1.28 1.28 0 0 0 .328.795 1.326 1.326 0 0 0 .761.423 1.479 1.479 0 0 0 .277.018 37.658 37.658 0 0 0 3.53-.285 27.638 27.638 0 0 0 3.157-.592 1.331 1.331 0 0 0 .637-.371 1.259 1.259 0 0 0 .329-.65l.748-4.317a1.238 1.238 0 0 0-.013-.5 1.275 1.275 0 0 0-.374-.649 1.32 1.32 0 0 0-.678-.338 1.28 1.28 0 0 0-.5.011c-.915.194-1.894.35-2.926.464zm10.725-3.55l-.83 4.784a2.082 2.082 0 0 1-.135.482 2.985 2.985 0 0 1-.866 1.177 9.16 9.16 0 0 1-1.581 1.1.732.732 0 0 1-.5.087.773.773 0 0 1-.312-.127.809.809 0 0 1-.232-.245.745.745 0 0 1-.091-.508l.69-3.977a.725.725 0 0 1 .144-.326.785.785 0 0 1 .288-.227 14.921 14.921 0 0 0 2.541-1.445 6.292 6.292 0 0 0 .883-.777zm-3.654 1.746a1.329 1.329 0 0 0-.484.382 1.26 1.26 0 0 0-.248.554l-.69 3.978a1.238 1.238 0 0 0 .16.862 1.318 1.318 0 0 0 .387.414 1.378 1.378 0 0 0 .528.217 1.29 1.29 0 0 0 .861-.152 9.672 9.672 0 0 0 1.675-1.17 4.044 4.044 0 0 0 .837-1.016 2.6 2.6 0 0 0 .211-.685l1.2-6.491-.545-.085-.074.212a3.7 3.7 0 0 1-1.371 1.589 14.635 14.635 0 0 1-2.447 1.387z" fill="#292424"/><path data-name="Path 14440" d="M138.974 47.105a3.923 3.923 0 0 0 1.116-.092 2.667 2.667 0 0 0 .884-.389l.3.435a3.132 3.132 0 0 1-1.059.466 4.454 4.454 0 0 1-1.267.1z" fill="#292424"/><path data-name="Path 14441" d="M129.964 49.409l-7.5-4.163.255-.459 7.5 4.161z"/></g></g></g><g data-name="Group 6977"><path data-name="Path 14442" d="M188.583 126.343c10.142 1.02 9.228-1.472 14.8-.1 2.386.587 9.741 6.789 12.7 9.6 1.856 1.766 4.708 2.984 3.617 5.031-.7 1.317-.744 1.194-4.914 1.549s-11.709-3.739-16.386-4.721c-3.556-.749-9.45.483-13.477-3.846z" fill="#f1b287"/><path data-name="Path 14443" d="M186.83 130.607c10.141 1.022 9.041.238 14.61 1.608 1.379.34 3.648 1.9 6.353 3.669 2.126 1.387 5.987 6.462 6.989 6.53-4.171.356-11.709-3.739-16.386-4.721-3.556-.749-9.45.483-13.477-3.846z" fill="#db9669"/><path data-name="Path 14444" d="M193.269 133.22c1.227.35 8.106 1.147 10.516 3.222 1.02.88 1.424 2.138.334 3.273-.437.456-1.788-.674-5.608-1.576-5.3-1.254-10.788 2.979-12.516-5.533z" fill="#db9669"/><path data-name="Path 14445" d="M193.269 133.22c1.227.35 8.106 1.147 10.516 3.222 1.02.88 1.424 2.138.334 3.273-.224.233-.691.049-1.606-.307.178-1.6.01-1.8-1.658-2.369-3.293-1.12-4.952-2.293-8.554-3.9z" fill="#f1b287"/></g><g data-name="Group 6979"><path data-name="Path 14446" d="M86.636 89.599c-1.88 11.2 1.561 32.73 5.018 46.536 1.758 7.021 3.629 12.376 9.605 12.941 5.662.536 9.323-5.827 9.36-11.652.044-6.9-.61-15.256-1.4-29.627-.837-15.343-20.069-33.177-22.583-18.198z" fill="#037a81"/><path data-name="Path 14447" d="M140.136 158.283l-1.656-3.589.931-6.445c3.131-1.886 5.491-2.516 6.822-1.976 4.778 1.937-.091 14.581-6.097 12.01z" fill="#9bc9e0"/><g data-name="Group 6978"><path data-name="Path 14448" d="M143.356 145.665c6.314 3.485 16 3.792 18.66 7.812 2.3 3.472-1.184 7.653-3.945 9.2-2.242 1.259-8.29-.982-12.327-2.185-3.579-1.065-4.76-4.93-7.364-5.5-.993-3.772 2.599-6.81 4.976-9.327z" fill="#f1b287"/><path data-name="Path 14449" d="M161.793 153.169c.079.1.155.2.223.308 2.3 3.472-1.184 7.653-3.945 9.2-2.242 1.259-8.29-.982-12.327-2.185-3.579-1.065-4.76-4.93-7.364-5.5a5.635 5.635 0 0 1 .705-4.313c3.907 1.6 5.806 4.819 8.568 6.1 3.82 1.77 7.211 2.4 9.109 1.755.591-.191 3.034-3.035 5.031-5.365z" fill="#db9669"/><path data-name="Path 14450" d="M160.773 152.304c3.123 1.369 8.237 3.324 11.379 4.629 2.212.919-.03 3.945-2.118 3.312-2.046-.621-7.379-2.439-7.394-2.448-1.978-1.022-3.471-3.277-1.867-5.493z" fill="#f1b287"/><path data-name="Path 14451" d="M172.261 159.343a1.632 1.632 0 0 1-2.227.906c-2.045-.621-7.379-2.439-7.394-2.448a4.687 4.687 0 0 1-2.441-2.772z" fill="#db9669"/></g><path data-name="Path 14452" d="M93.759 139.076c1.019 3.9.692 6.611 4.2 9.269 1.5 1.138 3.72 1.637 5.995 2.689 8.8 4.069 22.777 5.49 36.466 7.378-.577-7.346 1.821-11.564 5.95-12.115-11.361-4.614-25.144-6.883-36.516-10.237a22.94 22.94 0 0 0-4.294-.833z" fill="#037a81"/><path data-name="Path 14453" d="M95.79 87.236c2.058 16.879 4.245 34.771 7.376 51.487l38.083 9.8c1.112-1.273 1.577-2.052 3.453-2.68l-36.022-9.2c-2.209-25.069-1.454-34.963-12.89-49.407z" fill="#12a8b3"/></g><g data-name="Group 6982"><g data-name="Group 6980"><path data-name="Path 14454" d="M91.536 174.031c0 7.575.01 15.778.018 15.816.3 1.346 3.291 1.362 3.637.046.012-.043.022-8.272.027-15.862z" fill="#dceaf0"/><path data-name="Path 14455" d="M91.536 174.031c0 7.575.01 15.778.018 15.816.134.616.835.953 1.589 1.013-.007-2.6-.011-10.058-.014-16.829z" fill="#cfe0e8"/><path data-name="Path 14456" d="M93.716 174.031c0 7.805 0 16.419.005 16.431a1.344 1.344 0 0 0 1.1-.636c0-.014-.017-8.236-.035-15.8z" fill="#f5fcff"/></g><g data-name="Group 6981"><path data-name="Path 14457" d="M100.236 176.043c-4.566-2.436-6.706-5.117-7.165-7.78-2.242-4.289-2.284-11.158-2.28-17.732a21.444 21.444 0 0 0-2.917 6.451c-.366 1.39-.6 8.911-.691 13.256-1.167 9.755 6.142 16.728 13.68 19.986z" fill="#248ca6"/><path data-name="Path 14458" d="M97.656 179.712c-5.985-3.192-9.185-9.32-10.274-16.332a305.47 305.47 0 0 0-.2 6.859c-.075 4.29 3.02 13.606 10.558 16.864z" fill="#1b9ebf"/><path data-name="Path 14459" d="M100.236 176.043l-1.112 2.508.39 10.958 1.349.715z" fill="#17667a"/><path data-name="Path 14460" d="M93.104 168.675c.106.689-1.982.577-1.185-3.444a15.12 15.12 0 0 0 1.1 2.951c.022.165.05.329.081.493zm-2.185-10.689a15.746 15.746 0 0 0-.367 2.471 19.136 19.136 0 0 1 .3-4.079c.017.541.038 1.078.067 1.608z" fill="#17667a"/><path data-name="Path 14461" d="M100.236 176.043a19.667 19.667 0 0 1-9.318-18.165c-.129-2.485-.129-5.087-.127-7.637a17.817 17.817 0 0 0-3.228 8.755c-.489 6.455 2.956 13.4 11.661 19.715z" fill="#1b9ebf"/></g></g><path data-name="Path 14462" d="M120.5 34.657c-1.051 6.417 3.015 15.015 5.118 21.076.459 1.322 1.694 2.558 3.659 3.744.992.6 3.149 1.826 3.5 1.744 1.044-.246.6-3.255 4.674-5.618 1.168-.677 3.237-1.6 3.989-1.511 1.38.174 1.814.9 2.462.157.154 2.325.21 8.333-1.013 10.3-.673 1.084-2.043 1.794-4.075 2.835-1.2.617-3.023.4-5.347-.166a35.229 35.229 0 0 1-11.553-5.794c-1.241-.911-2.083-1.506-1.441-3.946a24.071 24.071 0 0 0-.117-12.029c-.827-3.053-1.853-4.715-4.506-7.673 2.584-3.131 5.637-9.145 4.651-3.123zm18.917 27.275c-.508-1.222-.275-1.346.345-1.746.715-.463.9-.259 1.389.626.692-.384 1.13-.486 1.337-.894a2.131 2.131 0 0 0 .008-1.378c-.26-1.209-1.121-2.387-2.244-1.865a10.131 10.131 0 0 0-3.04 1.871 5.243 5.243 0 0 0-.284 4.015c.181.309.059.488.587.354a5.783 5.783 0 0 0 1.902-.983z" fill="#361d07"/><path data-name="Path 14463" d="M131.196 60.567a4.814 4.814 0 0 0 1.58.654c1.044-.246.6-3.255 4.674-5.618 1.168-.677 3.237-1.6 3.989-1.511 1.38.174 1.814.9 2.462.157.154 2.325.21 8.333-1.013 10.3-.673 1.084-2.043 1.794-4.075 2.835a3.253 3.253 0 0 1-.914.3c-.587-.581-1.471-1.28-1.718-1.482a18.586 18.586 0 0 1-4.985-5.636zm8.221 1.365c-.508-1.222-.275-1.346.345-1.746.715-.463.9-.259 1.389.626.692-.384 1.13-.486 1.337-.894a2.131 2.131 0 0 0 .008-1.378c-.26-1.209-1.121-2.387-2.244-1.865a10.131 10.131 0 0 0-3.04 1.871 5.243 5.243 0 0 0-.284 4.015c.181.309.059.488.587.354a5.783 5.783 0 0 0 1.902-.983z" fill="#4f2b0c"/><g data-name="Group 6984"><path data-name="Path 14464" d="M109.362 69.768c-8.921 6.164-3.681 14.553 5.3 28.936l.616.988 1.154-.716-.617-.988c-8.551-13.692-13.539-21.677-5.684-27.1z" fill="#403e3e"/><path data-name="Path 14465" d="M128.666 111.234q-1.023-1.953-1.983-3.544a30.013 30.013 0 0 0-6.274-7.844c-2.006-1.609-3.725-1.973-4.974-1.32a3.399 3.399 0 0 0-.14.078c-1.334.8-2.015 2.74-1.469 6.226a49.981 49.981 0 0 0 3.865 11.657l1.242-.544a48.721 48.721 0 0 1-3.763-11.318c-.445-2.846-.041-4.335.826-4.857l.065-.037c.76-.4 1.958-.056 3.5 1.179a28.627 28.627 0 0 1 5.96 7.483q.968 1.6 1.948 3.472z" fill="#403e3e"/><g data-name="Group 6983" fill="#141414"><path data-name="Path 14466" d="M127.525 110.228a1.415 1.415 0 0 0-.691 1.872l.732 1.526a1.415 1.415 0 0 0 1.872.691 1.417 1.417 0 0 0 .691-1.872l-.732-1.527a1.415 1.415 0 0 0-1.872-.69z"/><path data-name="Path 14467" d="M117.659 114.794a1.415 1.415 0 0 0-.691 1.872l.732 1.527a1.414 1.414 0 0 0 1.871.691 1.414 1.414 0 0 0 .691-1.871l-.732-1.527a1.415 1.415 0 0 0-1.871-.692z"/></g></g><g data-name="Group 6985"><path data-name="Path 14468" d="M137.088 72.774c.966 2.681 6.946 17.623 7.416 19.674s.8 4.131 1.229 6.978l1.346-.2c-.431-2.865-.769-4.979-1.251-7.081s-7.2-18.2-8.192-20.957z" fill="#403e3e"/><path data-name="Path 14469" d="M147.17 97.969c-2.2.006-3.98 2.5-3.971 5.58s1.8 5.563 4 5.556 3.98-2.5 3.971-5.579-1.798-5.564-4-5.557z" fill="#736f6f"/><path data-name="Path 14470" d="M147.172 98.353c-2.051.006-3.706 2.331-3.7 5.2.008 2.82 1.627 5.108 3.633 5.172-1.845-.3-3.282-2.482-3.29-5.139-.008-2.863 1.647-5.189 3.7-5.2h.094a2.664 2.664 0 0 0-.437-.033z" fill="#b8b6b6"/><path data-name="Path 14471" d="M147.176 99.816c-1.471 0-2.66 1.674-2.653 3.729s1.2 3.717 2.675 3.713 2.658-1.674 2.653-3.729-1.203-3.716-2.675-3.713z" fill="#4a4848"/><path data-name="Path 14472" d="M147.176 100.2c-1.318.005-2.384 1.5-2.378 3.344s1.079 3.333 2.4 3.33 2.385-1.5 2.379-3.344-1.081-3.333-2.401-3.33z" fill="#736f6f"/><path data-name="Path 14473" d="M147.182 101.821c-.679 0-1.226.772-1.224 1.72s.555 1.714 1.234 1.712 1.226-.772 1.223-1.72-.555-1.714-1.233-1.712z" fill="#454242"/><path data-name="Path 14474" d="M147.177 100.443c-1.224 0-2.213 1.393-2.207 3.1 0 1.688.976 3.058 2.179 3.089a3 3 0 0 1-1.818-3.039c-.005-1.71.984-3.1 2.208-3.1h.046a1.583 1.583 0 0 0-.408-.05z" fill="#b8b6b6"/></g></g></g></svg>