<svg xmlns="http://www.w3.org/2000/svg" width="205.944" height="334.206" viewBox="0 0 205.944 334.206">
  <g id="ILLUSTRATION" transform="translate(-3324.867 -2815.257)">
    <g id="Group_10454" data-name="Group 10454">
      <path id="Path_21952" data-name="Path 21952" d="M3388.893,2910.413l33.939-15.005-10.22,16.523-21.545,6.814-2.175-8.332" fill="#bac7d1" fill-rule="evenodd"/>
      <text id="_" data-name="?" transform="translate(3473.475 2815.257)" fill="#e8f3f7" font-size="35.24" font-family="Helvetica" letter-spacing="-0.04em"><tspan x="-0.227" y="27">?</tspan></text>
      <path id="Path_21953" data-name="Path 21953" d="M3389.028,2913.791c-1.829,4.193-6.365,6.321-10.563,7.467a3.831,3.831,0,0,0-1.744.982c-.522-12.021,1.6-37.236,2.568-41.9.218-1.057,2.378-2.37,4.233-2.218a7.3,7.3,0,0,1,5.167,2.711s.262,15.532.985,29.582a20.657,20.657,0,0,0,.449,2.115A2.892,2.892,0,0,0,3389.028,2913.791Z" fill="#fcc19a"/>
      <path id="Path_21954" data-name="Path 21954" d="M3383.083,2884.759s.167,14.9.361,34.172a1.751,1.751,0,0,0,.055.39,24.7,24.7,0,0,1-5.034,1.937,3.811,3.811,0,0,0-1.8,1.036c-.188-2.684-.064-5.5.039-9.128.4-14.042,2.706-33.18,2.706-33.18a5.384,5.384,0,0,1,7-1.066c1.227.7,1.99,1.266,2.2,1.932C3386.652,2880.057,3383.083,2884.759,3383.083,2884.759Z" fill="#d8b09e" opacity="0.37" style="mix-blend-mode: multiply;isolation: isolate"/>
      <path id="Path_21955" data-name="Path 21955" d="M3364.727,2861.881c1.274.1,3.484,3.239,7.119,6.267a13.18,13.18,0,0,0,7.82,3.159s2.845.388-.667-7.225c-1.353-2.956,1.418-3.088,1.418-3.088s.994,1.61,2.928,4.569c2.181,3.323,3.238,4.284,4.774,7.642,1.417,3.121,1.261,5.174,1.145,5.717-.2.958-.05,6.31-6.323,4.545-.606-.171-2.594-1.376-3.745-1.651a33.978,33.978,0,0,1-8.811-3.309c-5.178-2.777-6.4-8.917-7.011-13.04C3363.156,2863.99,3363.433,2861.795,3364.727,2861.881Z" fill="#fcc19a"/>
      <g id="Group_10439" data-name="Group 10439">
        <path id="Path_21956" data-name="Path 21956" d="M3440.619,2909.723l-4.17,16.2-7,30.351-.99,19.474.381,9.357,4.184,8.138-.3,1.6-4.337,3.88-28.982,16.127-16.432,10.193-1.825,2.74.151,1.445.685,1.446,23.886,12.551,22.517,14.681,2.853.532,1.179.039,4.564-3.538,45.375-25.864,3.2-7,.151-2.282-4.562-7.15-.914-9.281,1.37-14.149,4.868-25.407,5.628-22.193c1.859-7.328,2.056-6.38-3.878-11.2l-7.683-4.641-22.252-12.97-10.436-5.805C3442.843,2904.093,3441.953,2904.54,3440.619,2909.723Z" fill="#53595c" fill-rule="evenodd"/>
        <g id="Group_10436" data-name="Group 10436">
          <path id="Path_21957" data-name="Path 21957" d="M3433.875,3066.718l-36.805,21.251.678.481,1.6.747,35.785-20.4,1.021-.845Z" fill="#c9c7c5" fill-rule="evenodd"/>
          <path id="Path_21958" data-name="Path 21958" d="M3399.349,3089.2l-2.28-1.227a5.269,5.269,0,0,1-4.918.184C3395.1,3090.268,3396.609,3090.814,3399.349,3089.2Z" fill="#bfbdbb" fill-rule="evenodd"/>
          <path id="Path_21959" data-name="Path 21959" d="M3391.671,3086.148l-2.452-1.463c.006,2.405.735,4.068,2.11,4.867l2.576,1.5C3392.53,3090.251,3391.678,3088.555,3391.671,3086.148Z" fill="#c9c7c5" fill-rule="evenodd"/>
          <path id="Path_21960" data-name="Path 21960" d="M3400.516,3001.538c.05-.08.081-.161.13-.243h0a68.108,68.108,0,0,1,12.227-17.422c.1-.1.218-.206.319-.309a61.453,61.453,0,0,1,12.252-9.559,55.748,55.748,0,0,1,11.563-5.456l.1-.212-2-1.111-.221.071a59.1,59.1,0,0,0-11.161,5.018c-11.716,6.738-20.459,17.054-26.127,29.165l-.5,1.1a100.151,100.151,0,0,0-7.636,29.566,69.8,69.8,0,0,0-.284,8.239l.046,44.3,2.452,1.458.38-46.859C3392.159,3025.986,3395.053,3012.676,3400.516,3001.538Z" fill="#d6d4d2" fill-rule="evenodd"/>
          <path id="Path_21961" data-name="Path 21961" d="M3408.144,2988.311a60.657,60.657,0,0,1,17.392-15.03,53.231,53.231,0,0,1,11.574-4.945l.075,1.862a58.325,58.325,0,0,0-11.139,4.97,59.21,59.21,0,0,0-16.855,14.592c-7.225,9.095-12.189,20.556-14.826,34.172a92.2,92.2,0,0,0-1.66,19.194l.118,42.357c.011,4.119,2.936,5.785,6.526,3.713l36.806-21.247v1.318l-36.806,21.25c-4.218,2.439-7.665.48-7.678-4.369-.082-14.24-.182-28.537-.256-42.793a95.093,95.093,0,0,1,1.721-19.683c2.656-13.97,7.567-25.978,15.008-35.361Z" fill="#534b48" fill-rule="evenodd"/>
          <path id="Path_21962" data-name="Path 21962" d="M3426.582,2973.362c.528-.312,1.412-.5,1.929-.77l-.057,2.322c-.5.265-.988.541-1.5.84-10.013,5.784-22.662,17.158-29.184,39.1l-1.842.184c4.667-22.909,20.012-35.537,30.652-41.677Z" fill="#53595c" fill-rule="evenodd"/>
          <path id="Path_21963" data-name="Path 21963" d="M3415.183,2982.3a65.773,65.773,0,0,0-10.305,12.651,81.418,81.418,0,0,0-8.948,20.091l-3.958-2.3a78.772,78.772,0,0,1,11-23.15,65.681,65.681,0,0,1,8.25-9.592,62.13,62.13,0,0,1,13.212-9.638,1.194,1.194,0,0,0,.124-.069l3.957,2.3a61.3,61.3,0,0,0-13.328,9.705Z" fill="#6a7378" fill-rule="evenodd"/>
        </g>
        <g id="Group_10437" data-name="Group 10437">
          <path id="Path_21964" data-name="Path 21964" d="M3488.1,3091.518a5.859,5.859,0,0,1-3.043,4.269l-.287.768.281.555.131-.073a7.877,7.877,0,0,0,1.824-1.505,4.886,4.886,0,0,0,.82-1.331c.013-.024.019-.048.032-.072s.011-.041.018-.065c.029-.076.06-.173.089-.278a4.146,4.146,0,0,0,.135-1.182Z" fill="#665c59" fill-rule="evenodd"/>
          <path id="Path_21965" data-name="Path 21965" d="M3482.708,3088.513v1.323a4.544,4.544,0,0,1,1.842,1.791,2.679,2.679,0,0,1,.3,1.206v-1.323A3.631,3.631,0,0,0,3482.708,3088.513Z" fill="#d6d4d2" fill-rule="evenodd"/>
          <path id="Path_21966" data-name="Path 21966" d="M3441.629,3067.842a10.531,10.531,0,0,1,4.972,1.225l.474-.359-.474-.964a10.53,10.53,0,0,0-4.957-1.32,10.688,10.688,0,0,0-5.3,1.32v1.323c.218-.125.443-.238.679-.345A11.034,11.034,0,0,1,3441.629,3067.842Z" fill="#a8a5a3" fill-rule="evenodd"/>
          <path id="Path_21967" data-name="Path 21967" d="M3482.708,3088.513v1.323l-36.108-20.769v-1.323Z" fill="#b5b3b1" fill-rule="evenodd"/>
          <path id="Path_21968" data-name="Path 21968" d="M3485,3087.182l-36.106-20.768a16.382,16.382,0,0,0-14.849,0l-22.165,13,2.211,1.258,22.251-12.932a11.327,11.327,0,0,1,10.262,0l36.107,20.769c2.843,1.639,2.862,4.309.044,5.948L3460.5,3107.39l2.295,1.331,22.258-12.934C3489.129,3093.415,3489.111,3089.556,3485,3087.182Z" fill="#c9c7c5" fill-rule="evenodd"/>
          <path id="Path_21969" data-name="Path 21969" d="M3462.8,3108.721v1.323l22.252-12.934.006-1.323Z" fill="#534b48" fill-rule="evenodd"/>
          <path id="Path_21970" data-name="Path 21970" d="M3441.629,3067.842l.015-1.418a10.688,10.688,0,0,0-5.3,1.32l-.266.832.266.491c.218-.125.443-.238.679-.345A11.034,11.034,0,0,1,3441.629,3067.842Z" fill="#665c59" fill-rule="evenodd"/>
          <path id="Path_21971" data-name="Path 21971" d="M3414.088,3080.676l-.006,1.323,22.258-12.932v-1.323Z" fill="#534b48" fill-rule="evenodd"/>
        </g>
        <g id="Group_10438" data-name="Group 10438">
          <path id="Path_21972" data-name="Path 21972" d="M3435.784,2995.843a19.065,19.065,0,0,1-1.643-1.069c-1.033-.759-1.649-1.432-1.643-1.815h0a1.449,1.449,0,0,1-.193.906c-.024.042.087.179.115.205a12.608,12.608,0,0,0,3.29,2.172A.728.728,0,0,0,3435.784,2995.843Z" fill="#53595c" fill-rule="evenodd"/>
          <path id="Path_21973" data-name="Path 21973" d="M3435.71,2996.243a33.276,33.276,0,0,1-3.095-2.022c-.168-.138-.313-.266-.313-.35a.39.39,0,0,0-.021.055c-.763,1.859-2.822,3.455-4.611,4.515.413-.24,1.55.164,1.923.3a20.166,20.166,0,0,1,2.251,1.105,13.627,13.627,0,0,0,2.365-1.708A5.423,5.423,0,0,0,3435.71,2996.243Z" fill="#53595c" fill-rule="evenodd"/>
          <path id="Path_21974" data-name="Path 21974" d="M3478.675,3020.768l-42.891-24.925a1.082,1.082,0,0,1-.074.4l42.891,24.926A.79.79,0,0,0,3478.675,3020.768Z" fill="#53595c" fill-rule="evenodd"/>
          <path id="Path_21975" data-name="Path 21975" d="M3478.6,3021.169l-42.891-24.926a5.971,5.971,0,0,1-1.567,1.86,12.9,12.9,0,0,1-2.3,1.746l42.892,24.926a13.514,13.514,0,0,0,2.364-1.709A4.438,4.438,0,0,0,3478.6,3021.169Z" fill="#5f676b" fill-rule="evenodd"/>
          <path id="Path_21976" data-name="Path 21976" d="M3484.12,3022.622a4.737,4.737,0,0,1-2.147-.307c-.412-.152-.8-.3-1.2-.48a21.674,21.674,0,0,1-2.1-1.067,1.766,1.766,0,0,0-.074.4c.459.277.93.54,1.4.8.216.116,1.177.652,2,1.051a11.451,11.451,0,0,0,1.884.735A1.7,1.7,0,0,0,3484.12,3022.622Z" fill="#53595c" fill-rule="evenodd"/>
          <path id="Path_21977" data-name="Path 21977" d="M3482.245,3023.11c-.423-.2-.842-.409-1.262-.627-.8-.43-1.595-.853-2.382-1.314a4.85,4.85,0,0,1-.715,1.091c-.027.033-.057.066-.088.1-.063.073-.131.148-.205.225-.037.042-.081.086-.125.129-.112.115-.23.231-.368.352a13.514,13.514,0,0,1-2.364,1.709c.914.655,4.093,2.8,4.245,3.842a15.736,15.736,0,0,0,2.737-1.973,9.84,9.84,0,0,0,1.636-1.882,5.208,5.208,0,0,0,.53-1.011A8,8,0,0,1,3482.245,3023.11Z" fill="#53595c" fill-rule="evenodd"/>
          <path id="Path_21978" data-name="Path 21978" d="M3427.726,2998.418l.018-.01a.266.266,0,0,0-.061.027c-.443.23-1.028.538-1.457.769l-1.438.754c-7.308,3.907-14.644,7.721-21.84,11.849-1.526.874-3.043,1.765-4.562,2.649-6.009,3.49-11.725,7.013-16.17,10.151a4.892,4.892,0,0,0-1.964,1.9,4.484,4.484,0,0,0-.389,1.365,2.911,2.911,0,0,0,.719,2.019,10.928,10.928,0,0,0,2.56,2.229c.11.071.26.163.368.234l.37.221c-1.631-.948-.317-4.147.961-5.4a4.7,4.7,0,0,1,.7-.582c7.668-5.089,14.168-9.1,20.539-12.775,8.069-4.662,15.929-8.786,25.766-13.969C3430.913,2999.252,3428.467,2998.072,3427.726,2998.418Z" fill="#5f676b" fill-rule="evenodd"/>
          <path id="Path_21979" data-name="Path 21979" d="M3381.419,3025.163a3.421,3.421,0,0,0-1.167,1.34,4.484,4.484,0,0,0-.389,1.365,2.911,2.911,0,0,0,.719,2.019,10.928,10.928,0,0,0,2.56,2.229c.11.071.26.163.368.234l.37.221c-1.631-.948-.317-4.147.961-5.4l.013-.013Z" fill="#53595c" fill-rule="evenodd"/>
          <path id="Path_21980" data-name="Path 21980" d="M3447.292,2906.144c-.163-.1-.327-.185-.49-.27-.433-.227-.867-.43-1.331-.627a9.662,9.662,0,0,0-1.671-.535,5.04,5.04,0,0,0-1.191-.114,2.687,2.687,0,0,0-1.242.341c.842-.264,3.117.815,4.148,1.428a2.324,2.324,0,0,1,1.344-.33,1.312,1.312,0,0,1,.427.108C3447.379,2906.189,3447.371,2906.189,3447.292,2906.144Z" fill="#5f676b" fill-rule="evenodd"/>
          <path id="Path_21981" data-name="Path 21981" d="M3445.515,2906.367c-.614-.359-3.34-1.877-4.139-1.43-1.948,1.09-2.525,6.126-3.014,8.163q-.657,2.73-1.322,5.459c-2.511,10.4-4.926,20.659-6.9,31.2-.076.395-.175.92-.244,1.316-.609,3.383-1.176,6.772-1.648,10.18-.255,1.844-.513,3.983-.688,5.827-.194,2.032-.36,4.064-.452,6.1a49.585,49.585,0,0,0-.044,5.079,23.286,23.286,0,0,0,2.352,9.929,18.57,18.57,0,0,0,1.846,3.085,10.276,10.276,0,0,0,.9,1.025,1.091,1.091,0,0,1,.337.662c0,.559,1.308,1.73,3.286,2.88a1.334,1.334,0,0,0-.111-.507c-.613-1.451-2.373-3.1-3.42-5.547a26.624,26.624,0,0,1-1.927-10.514,101.593,101.593,0,0,1,.85-11.43c.941-8.251,2.553-17.205,4.29-25.427.965-4.529,1.974-8.953,2.951-13.07,1.237-5.275,2.413-10.051,3.335-13.879.074-.313.149-.618.223-.919.411-1.731.772-3.164,1.095-4.6A5.982,5.982,0,0,1,3445.515,2906.367Z" fill="#4c5154" fill-rule="evenodd"/>
          <path id="Path_21982" data-name="Path 21982" d="M3445.515,2906.367c-.614-.359-3.34-1.877-4.139-1.43a5.056,5.056,0,0,0-1.8,2.889l3.555,1.909A5.921,5.921,0,0,1,3445.515,2906.367Z" fill="#5f676b" fill-rule="evenodd"/>
          <path id="Path_21983" data-name="Path 21983" d="M3384.865,3027.146c-1.341,1.079-2.761,4.393-.985,5.425l42.893,24.924c-1.381-.867.059-4.534.984-5.424Z" fill="#5f676b" fill-rule="evenodd"/>
          <path id="Path_21984" data-name="Path 21984" d="M3431.844,2999.849c-9.837,5.183-17.7,9.307-25.766,13.969-6.371,3.679-12.871,7.686-20.539,12.775a4.561,4.561,0,0,0-.674.553l42.892,24.925a4.385,4.385,0,0,1,.672-.551c7.671-5.09,14.169-9.1,20.541-12.776,8.071-4.661,15.928-8.788,25.766-13.969Z" fill="#6a7378" fill-rule="evenodd"/>
          <path id="Path_21985" data-name="Path 21985" d="M3435.18,3053.726c5.021-3.278,9.583-6.134,13.969-8.752,5.961-3.471,13.958-7.927,24.667-13.63l5.165-2.727a1.957,1.957,0,0,0-.527-1,15.4,15.4,0,0,0-1.662-1.5c-.6-.424-1.583-1.059-1.744-1.166-.1-.063-.205-.122-.312-.182-9.838,5.181-17.7,9.308-25.766,13.969-6.372,3.678-12.87,7.686-20.541,12.776a4.317,4.317,0,0,0-.7.58,5.655,5.655,0,0,0-1.68,3.99,1.639,1.639,0,0,0,.721,1.405c.2.118.473.266.678.375a12.6,12.6,0,0,0,2.869,1.094,5.418,5.418,0,0,0,1.357.12l.224-.026a3.04,3.04,0,0,0,.833-.265c.057-.028.125-.067.175-.1a.245.245,0,0,0,.125-.242v0a1.87,1.87,0,0,1-.579.22l-.037.007c-.536.074-.89-.252-.934-.858a2.687,2.687,0,0,1,.262-1.224A16.841,16.841,0,0,1,3435.18,3053.726Z" fill="#5f676b" fill-rule="evenodd"/>
          <path id="Path_21986" data-name="Path 21986" d="M3427.734,3052.095l0,.005a5.655,5.655,0,0,0-1.68,3.99,1.639,1.639,0,0,0,.721,1.405c.2.118.473.266.678.375a12.6,12.6,0,0,0,2.869,1.094,5.418,5.418,0,0,0,1.357.12l.224-.026a3.04,3.04,0,0,0,.833-.265c.057-.028.125-.067.175-.1a.244.244,0,0,0,.125-.242v0a1.87,1.87,0,0,1-.579.22l-.037.007c-.536.074-.89-.25-.934-.858a2.687,2.687,0,0,1,.262-1.224,8.655,8.655,0,0,1,1.418-1.348Z" fill="#53595c" fill-rule="evenodd"/>
          <path id="Path_21987" data-name="Path 21987" d="M3490.249,2931.109l-42.846-24.9a1.45,1.45,0,0,0-1.16-.142l-.054.015a2.787,2.787,0,0,0-.674.286l42.893,24.924A1.89,1.89,0,0,1,3490.249,2931.109Z" fill="#6a7378" fill-rule="evenodd"/>
          <path id="Path_21988" data-name="Path 21988" d="M3476.884,3018.272a15.576,15.576,0,0,1-1.071-1.8,24.047,24.047,0,0,1-1.78-4.609,20.087,20.087,0,0,1-.641-3.487c-.118-1.314-.174-2.709-.174-4.174a99.58,99.58,0,0,1,.734-11.392c.088-.789.188-1.591.293-2.4l-42.891-24.925q-.16,1.212-.293,2.4a99.29,99.29,0,0,0-.735,11.391c0,1.465.063,2.861.175,4.172a20.556,20.556,0,0,0,.641,3.49,23.972,23.972,0,0,0,1.78,4.607c.623,1.221,2.862,3.323,2.862,4.3l42.891,24.925C3478.732,3019.9,3477.388,3018.985,3476.884,3018.272Z" fill="#53595c" fill-rule="evenodd"/>
          <path id="Path_21989" data-name="Path 21989" d="M3435.5,2942.243c-.91,4.24-1.774,8.577-2.533,12.847-.629,3.538-1.183,7.031-1.618,10.4l42.891,24.925c.436-3.363.99-6.856,1.618-10.4.76-4.271,1.624-8.607,2.533-12.847Z" fill="#5f676b" fill-rule="evenodd"/>
          <path id="Path_21990" data-name="Path 21990" d="M3443.109,2909.666c-.026.092-.051.186-.07.278-.316,1.465-.759,3.34-1.287,5.525-.922,3.828-2.1,8.6-3.335,13.879-.967,4.065-1.961,8.426-2.912,12.9l42.891,24.925c.951-4.468,1.948-8.83,2.906-12.894,1.243-5.276,2.42-10.051,3.341-13.88.522-2.184.971-4.061,1.287-5.524.02-.094.044-.187.07-.28Z" fill="#6a7378" fill-rule="evenodd"/>
          <path id="Path_21991" data-name="Path 21991" d="M3445.515,2906.367a5.77,5.77,0,0,0-2.406,3.3L3486,2934.59a5.747,5.747,0,0,1,2.408-3.3Z" fill="#5f676b" fill-rule="evenodd"/>
          <path id="Path_21992" data-name="Path 21992" d="M3494.284,2935.389a3.376,3.376,0,0,0-.83-1.722c-.025-.032-.051-.063-.081-.095a10.767,10.767,0,0,0-2.613-2.157,3.763,3.763,0,0,0-.814-.439,1.258,1.258,0,0,0-.228-.039,2.357,2.357,0,0,0-1.31.354c.361.211.717.439,1.073.672.416.276.848.565,1.235.88a8.2,8.2,0,0,1,1.83,1.824,1.015,1.015,0,0,1,.155.439.532.532,0,0,1,.161-.053c1.054-.091,1.428.418,1.17,1.6-.3,1.355-.659,2.9-1.081,4.664-1.347,5.635-2.741,11.258-4.045,16.9-1.226,5.271-2.49,10.95-3.617,16.623-.03.166-.061.329-.1.5-.094.509-.2,1.018-.292,1.527q-1.018,5.211-1.768,10.111c-.218,1.429-.431,2.873-.61,4.309-.268,2.045-.488,4.028-.651,5.921-.846,9.8-1.593,11.851,1.725,17.989,1.441,2.667,3.466,3.474,3.049,7.165-.633,5.6-5.488,5.541-7.683,9.56-.011.08-.026.2-.1.253a20.971,20.971,0,0,0,5.142-4.121,11.315,11.315,0,0,0,.714-.96,13.281,13.281,0,0,0,1.513-2.545,10.7,10.7,0,0,0,.84-2.791,7.921,7.921,0,0,0,.06-1.766,5.923,5.923,0,0,0-1.171-3c-.988-1.535-1.762-2.786-2.363-3.905-1.9-3.541-2.061-5.743-1.867-11.31.054-1.544.147-3.068.279-4.622.127-1.467.286-2.979.472-4.526.229-1.9.5-3.794.787-5.687.364-2.369.765-4.726,1.2-7.089,1.56-8.585,3.608-17.675,5.679-26.407q1.453-6.03,2.905-12.06c.323-1.355.646-2.706.953-4.064.067-.289.115-.509.152-.672A3.58,3.58,0,0,0,3494.284,2935.389Z" fill="#5f676b" fill-rule="evenodd"/>
          <path id="Path_21993" data-name="Path 21993" d="M3492.412,2935.368c-2.737,3.59-10.355,40.659-11.44,46.79-.74,4.3-1.132,8.633-1.594,12.674-.4,3.936-.727,7.811-.72,11.2.036,1.363.054,2.781.166,4.051a19.565,19.565,0,0,0,.61,3.291,23.06,23.06,0,0,0,1.712,4.44c.347.579.672,1.223,1.026,1.719.525.746,1.439,1.418,1.749,2.12a2.372,2.372,0,0,1,.2.973,2.6,2.6,0,0,1-.236,1.129c-.775,2.02-3.1,3.825-4.9,4.866-9.832,5.185-17.678,9.3-25.725,13.942-6.341,3.662-12.837,7.7-20.447,12.722a3.15,3.15,0,0,0-1.325,2.541c.056.817.679,1.128,1.55.631a.276.276,0,0,1-.106.234h0c7.653-5.082,14.192-9.1,20.658-12.824,4.593-2.587,10.193-5.67,17.018-9.33.144-.081.293-.158.443-.237a.455.455,0,0,0,.05-.028c1.375-.725,2.775-1.465,4.213-2.222.9-.47,2-1.054,3.527-1.854a.3.3,0,0,0,.15-.267h0c3.107-2.059,5.71-4.033,7.243-7.583a10.324,10.324,0,0,0,.573-1.751,7.155,7.155,0,0,0,.192-1.657c0-2.231-.8-2.569-2.047-4.1a7.107,7.107,0,0,1-1.033-1.614,20.823,20.823,0,0,1-1.438-3.413,13.161,13.161,0,0,1-.783-3.687,33.277,33.277,0,0,1-.163-3.752,116.849,116.849,0,0,1,1.551-17.052c1.437-9.473,3.682-19.9,5.824-29.092,1.064-4.6,2.109-8.882,3.01-12.6.89-3.7,1.656-6.846,2.173-9.2.183-.87-.157-1.311-.626-1.423A.992.992,0,0,0,3492.412,2935.368Z" fill="#6a7378" fill-rule="evenodd"/>
          <path id="Path_21994" data-name="Path 21994" d="M3481.276,2982.156c.741-4.181,1.587-8.428,2.477-12.588,1.926-7.849,4.164-15.631,5.742-23.558.289-1.454,1.885-10.122,3.206-10.9,0-.39-.6-1.032-.87-1.3a18.518,18.518,0,0,0-2.63-2.038,4.461,4.461,0,0,0-.793-.472,5.647,5.647,0,0,0-2.478,3.579c-.316,1.463-.765,3.34-1.287,5.524-.921,3.829-2.1,8.6-3.341,13.88-.666,2.817-1.344,5.778-2.018,8.817-1.245,5.616-2.406,11.246-3.421,16.924-1.347,7.536-2.673,16.558-2.645,24.185,0,1.465.056,2.86.174,4.174a20.087,20.087,0,0,0,.641,3.487,24.047,24.047,0,0,0,1.78,4.609,15.576,15.576,0,0,0,1.071,1.8,25.057,25.057,0,0,1,1.68,1.989,1.334,1.334,0,0,1,.111.507q.636.372,1.265.681c.527.26,1.132.541,1.7.753.518.194,1.978.716,2.484.42a2.391,2.391,0,0,0-.171-.992,22.357,22.357,0,0,0-1.777-2.1c-.354-.5-.679-1.14-1.026-1.719a23.06,23.06,0,0,1-1.712-4.44,19.565,19.565,0,0,1-.61-3.291c-.112-1.27-.13-2.688-.166-4.051-.007-3.385.323-7.26.72-11.2C3479.84,2990.791,3480.536,2986.461,3481.276,2982.156Z" fill="#4c5154" fill-rule="evenodd"/>
          <path id="Path_21995" data-name="Path 21995" d="M3491.433,2937.679a5.563,5.563,0,0,1,1.268-2.573c0-.39-.6-1.032-.87-1.3a18.518,18.518,0,0,0-2.63-2.038,4.461,4.461,0,0,0-.793-.472,5.62,5.62,0,0,0-2.4,3.247Z" fill="#5f676b" fill-rule="evenodd"/>
          <path id="Path_21996" data-name="Path 21996" d="M3431.481,3004.5c-8.084,4.258-14.543,7.648-21.174,11.477-5.235,3.024-10.576,6.317-16.877,10.5a3.838,3.838,0,0,0-.552.453l35.244,20.481a3.747,3.747,0,0,1,.552-.453c6.3-4.181,11.642-7.475,16.878-10.5,6.632-3.832,13.089-7.222,21.173-11.479Z" fill="#778187" fill-rule="evenodd"/>
        </g>
      </g>
      <g id="Group_10442" data-name="Group 10442">
        <g id="Group_10440" data-name="Group 10440">
          <path id="Path_21997" data-name="Path 21997" d="M3409.85,3106.079c1.061,3.1,2.031,5.508,1.933,7.46-.1,2.021-.654,3.986-.628,6.542.022,2.193.134,4.057.387,6.538.26,2.537,0,3.739-1.119,4.753-1.809,1.648-7.2,4.2-9.755,5.062a10.253,10.253,0,0,1-4.473.6,19.917,19.917,0,0,1-5.993-1.091c-.551-.208-1.116-2.348-1.157-4.2-.084-3.887.269-3.559,1.877-9.717.549-2.1.993-4.111,1.749-6.567.942-3.061,2.111-5.755,2.232-8.767l11.38-.444Z" fill="#111214" fill-rule="evenodd"/>
          <path id="Path_21998" data-name="Path 21998" d="M3409.85,3106.079c1.061,3.1,2.031,5.508,1.933,7.46-.1,2.021-.654,3.986-.628,6.542.022,2.193.134,4.057.387,6.538.26,2.537,0,3.739-1.119,4.753-1.809,1.648-7.2,4.2-9.755,5.062a10.253,10.253,0,0,1-4.473.6,19.917,19.917,0,0,1-5.993-1.091c-.5-.189-1.01-1.961-1.131-3.671l.031,0c3.477,1.186,6.853,1.661,10.2.028,7.051-3.445,6.134-6.306,5.47-14.436-4.589-.81-6.391-1.627-8.72-4.14,3.912,1.151,8.117,1.356,10.2-1.034l.648-6.47Z" fill-rule="evenodd"/>
          <path id="Path_21999" data-name="Path 21999" d="M3394.312,3114.348c3.292,2.6,2.14,3.733,6.945,4.362-1.187,4.753-1.337,4.982-3.745,9.367-.194,1.811-.34,4.188-3.867,4.21-6.585.043-2.015-5.393-1.993-5.6A54.506,54.506,0,0,1,3394.312,3114.348Z" fill="#20232e" fill-rule="evenodd"/>
        </g>
        <g id="Group_10441" data-name="Group 10441">
          <path id="Path_22000" data-name="Path 22000" d="M3368.881,3087.4c-1.157,4.058-1.448,6.152-3.132,8.514-3.362,4.708-8.317,8.072-15.53,13.186-3.432,2.433-4.157,4.74-.681,6.861,2.735,1.67,9.432.342,13.613-.641,7.849-1.847,11.022-6.569,13.705-7.8l2.032.462c1.663.029,7.8-3.309,9.072-5.017.329-1.47,1.276-3.326,1.431-5.385.242-6.641-.8-5.966-2.577-11.162C3380.778,3086.856,3374.929,3087.193,3368.881,3087.4Z" fill="#111214" fill-rule="evenodd"/>
          <path id="Path_22001" data-name="Path 22001" d="M3347.264,3112.918c-.036,1.049.673,2.064,2.274,3.041,2.735,1.67,9.432.342,13.613-.641,7.849-1.847,11.022-6.569,13.705-7.8l2.032.461c1.663.029,7.8-3.252,9.479-4.784a38.976,38.976,0,0,0,1.024-5.618c.242-6.641-.8-5.966-2.577-11.162-2.671.194-5.307.368-7.938.52-.476,4.372.162,11.915-3.437,14.722-4.025,3.138-7.163,3.975-9.852,5.609C3357.022,3112.477,3351.363,3116.71,3347.264,3112.918Z" fill-rule="evenodd"/>
          <path id="Path_22002" data-name="Path 22002" d="M3366.976,3094.857c.856,1.263,2.539,1.975,5.322,2.668-4.489,5.06-5.12,4.588-11.15,7.974-3.037,3.471-3.459,4.13-5.4,5.25-2.312,1.337-5.582,2.71-6.954,1.722-.592-.424.2-1.611,2.752-3.459,2.89-2.094,5.833-4.219,8.5-6.433A31.444,31.444,0,0,0,3366.976,3094.857Z" fill="#20232e" fill-rule="evenodd"/>
        </g>
        <path id="Path_22003" data-name="Path 22003" d="M3382.294,3037.859c15.691-14.437,39.38-14.638,51.193-21.907,8.6-5.295,13.152-5.941,7.782-17.12l-28.616-10.817c0,2.708-1.679,6.318-2.531,6.644a189.1,189.1,0,0,0-40.2,21.138c-2.128,1.185-5.438,4.259-5.476,6.912C3364.392,3026.338,3373.624,3036.348,3382.294,3037.859Z" fill="#002a38" fill-rule="evenodd"/>
        <path id="Path_22004" data-name="Path 22004" d="M3382.294,3037.859c15.691-14.437,39.38-14.638,51.193-21.907,8.6-5.295,13.152-5.941,7.782-17.12l-10.607-4.01-.013.026c-1.491,3.033-5.675,6.327-8.058,8.368a40.814,40.814,0,0,1-6.636,4.611c-5.815,3.285-20.991,10.975-31.432,15.35-4.209,1.764-5.065,3.56-5.316,5.67a27.88,27.88,0,0,0,.367,8.273A16.166,16.166,0,0,0,3382.294,3037.859Z" fill="#00171f" fill-rule="evenodd"/>
        <path id="Path_22005" data-name="Path 22005" d="M3364.542,3031.874c.8,19.932,1.742,39.707,2.94,59.675,2.839,4.66,16.539,4.946,21.218-1.6.7-18.1,1.833-32.385,1.321-42.287-.427-8.243-2.563-13.107-3.486-20.317-3.109-8.173-15.749-11.338-20.509-7.914C3363.069,3021.553,3364.4,3028.377,3364.542,3031.874Z" fill="#002a38" fill-rule="evenodd"/>
        <path id="Path_22006" data-name="Path 22006" d="M3380.524,3094.589c3.3-.648,6.393-2.15,8.176-4.645.7-18.1,1.833-32.385,1.321-42.287-.427-8.243-2.563-13.107-3.486-20.317a11.842,11.842,0,0,0-2.526-3.94c-3.765,1.693-4.561,3.426-4.8,5.447-.852,7.147,1.887,12.968,2.528,19.974C3382.878,3061.338,3381.176,3079.673,3380.524,3094.589Z" fill="#00171f" fill-rule="evenodd"/>
        <path id="Path_22007" data-name="Path 22007" d="M3407.564,3051.788c8.82-8.114,21.685-13.005,32.295-16.368,8.267-2.619,14.748-4.228,19.364-6.7,12.441-6.666,9.885-15.691,4.44-22.4-2.932-3.61-5.955-5.579-9.6-8.833l-24.458-.714c-.142,3.209-10.812,8.628-10.664,12.128a3.816,3.816,0,0,0,1.346,2.224c1.862,1.3-1.342,3.158-2.778,4.059-6.215,3.9-16.122,10.49-22.314,14.544-2.069,1.476-5.467,4.4-5.534,6.712C3389.55,3040.062,3398.9,3050.277,3407.564,3051.788Z" fill="#002a38" fill-rule="evenodd"/>
        <path id="Path_22008" data-name="Path 22008" d="M3407.564,3051.788c8.82-8.114,21.685-13.005,32.295-16.368,8.267-2.619,14.748-4.228,19.364-6.7,12.441-6.666,9.885-15.691,4.44-22.4-2.932-3.61-5.955-5.579-9.6-8.833l-2.738.914,4.137,10.182c-11.275,7.628-29.694,18.284-43.61,27.474-4.075,2.69-6.517,3.984-7.1,6.941-.4,2.043-.011,4.518.528,8.2A15.9,15.9,0,0,0,3407.564,3051.788Z" fill="#00171f" fill-rule="evenodd"/>
        <path id="Path_22009" data-name="Path 22009" d="M3389.444,3037.809c.867,22.9,1.907,48.159,3.28,71.035,2.84,4.66,16.537,4.946,21.217-1.6.7-18.1,1.833-34.209,1.321-44.111-.426-8.242-3.609-13.806-3.484-21.133C3407.907,3031.823,3389.263,3029.409,3389.444,3037.809Z" fill="#002a38" fill-rule="evenodd"/>
        <path id="Path_22010" data-name="Path 22010" d="M3405.762,3111.884c3.3-.647,6.4-2.149,8.179-4.645.7-18.1,1.833-34.209,1.321-44.111-.426-8.242-3.609-13.806-3.484-21.133a11.957,11.957,0,0,0-2.7-4.12c-2.417,1.628-3.89,2.91-4.323,5.12-.718,3.667,1.1,8.72,1.78,19.679C3407.472,3077.879,3405.494,3096.419,3405.762,3111.884Z" fill="#00171f" fill-rule="evenodd"/>
        <path id="Path_22011" data-name="Path 22011" d="M3428.53,2999.739l18.381,10.527c-16.739,9.986-27.514,18.374-44.342,26.816-3.925,1.969-13.072-.005-6.989-4.874,8.2-6.564,17.793-11.854,26.944-18.863,1.889-1.447-2.833-2.247-1.925-5.219C3421.274,3005.915,3427.13,3000.283,3428.53,2999.739Z" fill="#013547" fill-rule="evenodd"/>
        <path id="Path_22012" data-name="Path 22012" d="M3391.426,3037.254a10.579,10.579,0,0,0,7.473,3.314c2.714,22.183,1.631,48.181,2.181,70.744-3.311-.662-4.158-.648-7.1-2.326C3392.143,3085.388,3391.854,3060.8,3391.426,3037.254Z" fill="#013547" fill-rule="evenodd"/>
        <path id="Path_22013" data-name="Path 22013" d="M3413.217,2993.325a65.385,65.385,0,0,0,9.772,5.7,29.3,29.3,0,0,1-7.863,6.075c-12.254,6.689-24.879,13.828-37.1,17.914a9.13,9.13,0,0,1-7.827-1.29c-1.494-1.1-2.657-2.738-.239-4.549a141.947,141.947,0,0,1,21.795-13.577c4.577-2.286,12.112-4.491,16.878-6.547C3410.935,2996.058,3411.572,2995.194,3413.217,2993.325Z" fill="#013547" fill-rule="evenodd"/>
        <path id="Path_22014" data-name="Path 22014" d="M3365.584,3023.845a13.188,13.188,0,0,0,8.9,3.663c-.021,5.853,1.85,12.571,2.731,20.559,1.46,13.221.517,30.635-.172,45.394-3.82.417-5.957-.108-8.55-2.209C3367.336,3068.521,3366.577,3046.584,3365.584,3023.845Z" fill="#013547" fill-rule="evenodd"/>
      </g>
      <path id="Path_22015" data-name="Path 22015" d="M3453.917,2904.108c21.746,21.457-27.133,22.082-33.92,58.278,1.587-21.255-15.652-53.71,10.469-59.185Z" fill="#e8a476" fill-rule="evenodd"/>
      <g id="Group_10443" data-name="Group 10443">
        <path id="Path_22016" data-name="Path 22016" d="M3453.978,2903.307c.555,6.506-18.952,14.1-23.135,8.352a10.5,10.5,0,0,0,.6-3.934,16.934,16.934,0,0,0-1.354-4.583c-.734-1.991-.758-6.2-2.026-10.864l18.374-8.01,3.934-2.085C3448.488,2891.356,3450.567,2895.621,3453.978,2903.307Z" fill="#e8a476" fill-rule="evenodd"/>
        <path id="Path_22017" data-name="Path 22017" d="M3453.978,2903.307a2.708,2.708,0,0,1-.08.991c-8.709-5.484-14.133-.89-24.347-3.62a67.435,67.435,0,0,0-1.486-8.4l18.374-8.008,3.934-2.087C3448.488,2891.356,3450.567,2895.621,3453.978,2903.307Z" fill="#db9669" fill-rule="evenodd"/>
      </g>
      <g id="Group_10445" data-name="Group 10445">
        <path id="Path_22018" data-name="Path 22018" d="M3378.749,2924.755c-.788-14.121-1.913-21.607-1.5-36.788,6.24,3.077,10.606-.846,11.521-3.623.955,11.66,2.834,25.48,2.381,37.9C3387.043,2923.234,3382.916,2924.083,3378.749,2924.755Z" fill="#aab7c2" fill-rule="evenodd"/>
        <path id="Path_22019" data-name="Path 22019" d="M3385.227,2890.944a44.911,44.911,0,0,0,3.838-3.173c.858,9.348,2.666,20.263,2.737,30.139-2.8-.7-4.324-.39-6.822-1.241C3384.835,2912.811,3383.677,2892.61,3385.227,2890.944Z" fill="#bac7d1" fill-rule="evenodd"/>
        <g id="Group_10444" data-name="Group 10444">
          <path id="Path_22020" data-name="Path 22020" d="M3375.857,2928.781c-.782-16.263.949-24.53,1.389-40.814,2.591,1.278,2.652,1.4,5.006,1.1-.486,7.471.245,16.887.874,27.825.319,1.957,5.8,2.762,8.092,3.861l-.025,2.762Z" fill="#a2afba" fill-rule="evenodd"/>
        </g>
      </g>
      <path id="Path_22021" data-name="Path 22021" d="M3415.01,2987.533a2.57,2.57,0,0,0,.463,1.12c5.2,7.248,37.838,18.175,44.667,17.608-5.172-44.97,34.922-86.35-6.924-103.286-2.313,6.612-11.07,11.374-16.252,11.374-6.636,0-10.847-3.754-8.765-9.372.193-.518-1.5,3.563-1.7,3.038-5.093,6.8-7.645,15.417-8.741,26.672C3416.047,2952.336,3419.751,2968.168,3415.01,2987.533Z" fill="#f2f9fc" fill-rule="evenodd"/>
      <path id="Path_22022" data-name="Path 22022" d="M3435.933,2999.9c9.048,3.216,21.009,6.623,24.207,6.357-5.419-47.126,44.773-86.408-8.108-101.944-3.555,6.566-7.7,13.389-10.994,19.994C3431.667,2943.1,3427.387,2980.323,3435.933,2999.9Z" fill="#e8f3f7" fill-rule="evenodd"/>
      <g id="Group_10447" data-name="Group 10447">
        <path id="Path_22023" data-name="Path 22023" d="M3467.8,2909.658c-2.84-1.577-8.634-5.125-14.88-8.613,5.259,6.3-7.444,21.451-13.337,40.344-2,6.423-3.3,15.785-3.62,25.109-.3,9,2.556,51.908,4.6,59.189,7.207,5.506,11.693,4.544,18.088,1.827a63.222,63.222,0,0,0,15.169-9.594c-2.517-20.582-9.925-21.4-10.5-34.208-.527-11.772,16.088-43.158,15.933-59.406C3479.188,2917.094,3473.116,2912.6,3467.8,2909.658Z" fill="#aab7c2" fill-rule="evenodd"/>
        <path id="Path_22024" data-name="Path 22024" d="M3467.8,2909.658l-14.466-8.024c2.157,3.463,7.915,7.176,14.124,12.417a28.365,28.365,0,0,0-8.021,14.163c-3.267,12.92-8.265,29.924-9.122,41.74-2.291,31.552,11.92,33.857,12.006,55.646a88.637,88.637,0,0,0,11.425-7.68c-2.1-19.814-9.436-19.728-10.429-34.208-.806-11.755,16.088-43.158,15.933-59.406C3479.188,2917.094,3473.116,2912.6,3467.8,2909.658Z" fill="#a2afba" fill-rule="evenodd"/>
        <path id="Path_22025" data-name="Path 22025" d="M3456.047,2907.555l7.5,6.386c-7.311,12.038-16.763,34.876-17.035,57.719-.13,11.015,6.807,44.54,12.849,54.579-4.85,3.174-16.8,3.136-17.67-1.972-3.805-22.34-4.071-62.9.632-80.685C3446.358,2928.332,3453.292,2917.293,3456.047,2907.555Z" fill="#bac7d1" fill-rule="evenodd"/>
        <g id="Group_10446" data-name="Group 10446">
          <path id="Path_22026" data-name="Path 22026" d="M3457.194,2983.909c-7.11-.242-9.064-.254-15.218.851l2.833,17c3.983,1.689,9.637,1.228,14.628-.839Z" fill="#aab7c2" fill-rule="evenodd"/>
          <path id="Path_22027" data-name="Path 22027" d="M3457.194,2983.909c-7.11-.242-9.064-.254-15.218.851.885,5.07.464,5.022,5.9,5.346,9.7.579,6.712,1.656,10.058,11.387.148.428,1.011-.364,1.507-.57Z" fill="#a2afba" fill-rule="evenodd"/>
          <path id="Path_22028" data-name="Path 22028" d="M3456.674,2981.743c-7.155-.22-10.345-.774-15.652-.793l1.368,6.767c1.812.946,11.328,2.071,15.531.081Z" fill="#aab7c2" fill-rule="evenodd"/>
          <path id="Path_22029" data-name="Path 22029" d="M3456.674,2981.743c-7.155-.22-10.345-.774-15.652-.793,5.17,1.919,13.893,1.394,15.417,7.375a8.767,8.767,0,0,0,1.482-.527Z" fill="#9da9b3" fill-rule="evenodd"/>
          <path id="Path_22030" data-name="Path 22030" d="M3443.28,2990.685l8.956,1.446,3.617,8.907a30.871,30.871,0,0,1-9.938.555Z" fill="#bac7d1" fill-rule="evenodd"/>
          <path id="Path_22031" data-name="Path 22031" d="M3441.79,2981.845c4.18,1.276,10.052,3.05,12.515,6.166a31.574,31.574,0,0,1-10.969-.722A24.881,24.881,0,0,1,3441.79,2981.845Z" fill="#bac7d1" fill-rule="evenodd"/>
        </g>
      </g>
      <g id="Group_10451" data-name="Group 10451">
        <path id="Path_22032" data-name="Path 22032" d="M3428.217,2892.856c-15.42,4.027-17.468,20.058-16.888,43.5.2,8.263,1.512,15.526,1.614,25.792.076,7.707-1.769,21.817-2.707,32.442,1.859-1.968,3.412-4.084,5.078-6.216,2.789-23.1,3.989-50.912,8.816-69.526a50.147,50.147,0,0,1,6.508-14.273c-.178-.464-.365-.932-.547-1.43a13.142,13.142,0,0,1-.54-2.464l-.014-.1-.008-.051-.007-.047-.015-.1v-.013l-.021-.151-.007-.038-.014-.1,0-.017-.012-.087-.01-.075-.019-.134,0-.029-.023-.165,0-.019-.015-.109,0-.04-.01-.07-.013-.1,0-.01-.014-.109-.007-.052-.009-.059-.014-.114h0l-.015-.113-.01-.063-.006-.049-.017-.118v-.01l-.015-.1-.01-.076-.006-.04-.016-.118,0-.024-.013-.094-.013-.089,0-.029-.018-.119,0-.037-.011-.085-.014-.1,0-.02-.018-.121-.006-.048-.011-.075-.019-.116v-.006l-.019-.124-.01-.062-.009-.063-.02-.124v-.007l-.019-.119-.011-.074-.009-.052-.02-.128,0-.017-.018-.111-.015-.087-.006-.04-.021-.129,0-.031-.018-.1-.022-.13-.023-.131-.008-.043-.015-.087-.021-.117,0-.016-.024-.13-.012-.059-.012-.076-.026-.13v0l-.01-.052-.027-.142,0-.011-.011-.063-.028-.134v-.012l-.038-.189-.007-.032-.037-.174-.005-.025-.024-.111-.008-.038-.022-.1-.03-.137-.008-.038-.023-.1-.025-.113-.007-.024-.032-.139,0-.012-.022-.1-.007-.031-.031-.128,0-.011-.035-.139,0-.013-.028-.106Z" fill="#aab7c2" fill-rule="evenodd"/>
        <path id="Path_22033" data-name="Path 22033" d="M3429.33,2902.551c-8.879,7.052-12.541,26.578-12.38,44.126.234,25.381-.6,18.525-1.381,42.058-1.236,1.416-3.145,3.084-4.9,4.908,2.75-22.137,3.76-28.56,2.214-49.452-1.316-17.792-1.491-37.07,8.856-47.241C3422.785,2898.969,3427.763,2900.905,3429.33,2902.551Z" fill="#bac7d1" fill-rule="evenodd"/>
        <g id="Group_10450" data-name="Group 10450">
          <g id="Group_10448" data-name="Group 10448">
            <path id="Path_22034" data-name="Path 22034" d="M3415.591,2972.122c-2.106-2.3-2.689-2.872-4.635-3.528l-1.46,18.986c.977,1.544,4.194,2.823,5.173,2.428Z" fill="#aab7c2" fill-rule="evenodd"/>
            <path id="Path_22035" data-name="Path 22035" d="M3415.591,2972.122c-2.106-2.3-2.689-2.872-4.635-3.528-.21,5.393-.331,5.222,1.264,7.117,2.85,3.386,1.761,3.614,1.852,14.439a1.959,1.959,0,0,0,.6-.142Z" fill="#a2afba" fill-rule="evenodd"/>
            <path id="Path_22036" data-name="Path 22036" d="M3410.791,2974.972l2.546,4.051-.23,10.439a5.459,5.459,0,0,1-3.114-2.287Z" fill="#bac7d1" fill-rule="evenodd"/>
          </g>
          <g id="Group_10449" data-name="Group 10449">
            <path id="Path_22037" data-name="Path 22037" d="M3416.362,2967.612c-2.355-1.037-3.319-1.98-5.094-2.6l-.822,7.287c.427,1.2,3.4,3.458,5.189,1.835Z" fill="#aab7c2" fill-rule="evenodd"/>
            <path id="Path_22038" data-name="Path 22038" d="M3416.362,2967.612c-2.355-1.037-3.319-1.98-5.094-2.6,1.37,2.6,4.391,3.034,3.769,9.509a2.143,2.143,0,0,0,.6-.387Z" fill="#a2afba" fill-rule="evenodd"/>
            <path id="Path_22039" data-name="Path 22039" d="M3411.357,2966.044a16.169,16.169,0,0,1,3.025,7.908c-1.641-.114-2.158-.532-3.539-1.995C3410.9,2970,3411.127,2968.179,3411.357,2966.044Z" fill="#bac7d1" fill-rule="evenodd"/>
          </g>
        </g>
      </g>
      <path id="Path_22040" data-name="Path 22040" d="M3429.236,2897.982c-3.791,1.9-5.665,2.525-9.239,8.15l3.212,2.652-4.048,1.326c-1.609,16.392-1.6,34.193-1.082,51.1,1.819-16.793,2.881-31.481,6.93-45.109,1.323-4.452,3.177-7.3,5.815-11.023A34.893,34.893,0,0,1,3429.236,2897.982Z" fill="#ced9e0" fill-rule="evenodd"/>
      <g id="Group_10452" data-name="Group 10452">
        <path id="Path_22041" data-name="Path 22041" d="M3433.373,2903.963c2.448-.939,8.029-1.861,10.255-2.843,4.866-2.146,5.307-7.082,7.878-12.954,4.532-1.932,6.338-3.861,7.243-6.294,2.148-5.773.174-12.944-3.6-17.458-3.3-3.945-7.683-5.814-13.075-5.824-10.475-.022-16.262,6.628-18.7,15.153a5.934,5.934,0,0,0-.193,2.209c.156,1.858.732,2.8.859,4.061.227,2.265-.667,2.52-1.157,3.773-.62,1.586-.019,4.9-.219,7.957a27.5,27.5,0,0,0,.171,3.665c.262,3.072,1.129,6.6,2.114,7.268a21.1,21.1,0,0,0,3.155,1.408C3429.177,2904.557,3430.259,2904.753,3433.373,2903.963Z" fill="#f1b287" fill-rule="evenodd"/>
        <path id="Path_22042" data-name="Path 22042" d="M3433.373,2903.963c2.448-.939,8.031-1.86,10.255-2.843,4.866-2.146,5.307-7.082,7.878-12.954,4.532-1.932,6.338-3.861,7.243-6.294,2.148-5.773.174-12.944-3.6-17.458-3.3-3.945-7.683-5.814-13.075-5.824-9.1-.02-14.661,5-17.564,11.9.218.591,5.039,3.556,9.81,4.857,3.049.83,5.011-.374,8.117-1.048.188,2.578-2.655,8.262-2.871,10-.054.421,1,2.488-.291,4.045-.351.425-1.237.865-1.18,1.668.6,8.38-5.323,12.3-8.153,14.479A13.5,13.5,0,0,0,3433.373,2903.963Z" fill="#e8a476" fill-rule="evenodd"/>
        <path id="Path_22043" data-name="Path 22043" d="M3436.813,2873.329c2.619-.923,6.553-5.894,10.824-7.629,4.37-1.773,9.133-3.644,12.149-.61,2.429,4.051,2.4,10.749,1.3,14.345-1.581,5.145-5.66,9.278-10.928,13.5-1.98,1.585-.781-5.841-1.128-7.475-.58,1.131-1.239,2.3-1.915,3.5l-1.314-.79c.241-1.485,2.45-16.592,1.769-17.776C3446,2869.607,3442.514,2872.149,3436.813,2873.329Z" fill="#361d07" fill-rule="evenodd"/>
        <path id="Path_22044" data-name="Path 22044" d="M3451.36,2882.7c4.148-.876,3.619,3.727,2.665,6.441-.655,1.866-2.222,1.532-2.977,2.976a3.648,3.648,0,0,1-3.593,2.214c-2.416-.36-.481-3.781-.021-5.176C3447.436,2886.78,3448.728,2883.259,3451.36,2882.7Z" fill="#e8a476" fill-rule="evenodd"/>
        <path id="Path_22045" data-name="Path 22045" d="M3459.878,2865.49a12.892,12.892,0,0,1,1.858,8.147c-.095-1.84-.243-3.6-1.993-5.167a8.89,8.89,0,0,1,.4,6.905c.056-2.27-.379-4.582-2.172-5.982a13.447,13.447,0,0,1,.12,9.912c.458-3.353-.435-7.173-2.645-9.163,1.194,2.686.325,5.5-.162,7.924-.262-3.344-.186-5.154-2.365-7.113a12.431,12.431,0,0,1-1.417,7.963,22.715,22.715,0,0,0-1.032-7.534,6.11,6.11,0,0,1-2.722,4.357,17.078,17.078,0,0,0,.277-5.51c-.1-.573-1.18-.647-2.024-.865C3451.7,2868.338,3458.261,2865.59,3459.878,2865.49Z" fill="#361d07" fill-rule="evenodd"/>
        <path id="Path_22046" data-name="Path 22046" d="M3460.026,2865.455c-5.855-4.5-13.174,5.119-21.293,7.516-3.45,1.018-4.867.539-9.405-1.441-2.85-1.244-5.351-2.791-5.6-4.172-1.414-7.758,1.638-10.229,6.528-11.374,2-.466,4.635-.241,6.87-.8C3446.132,2852.934,3457.38,2854.8,3460.026,2865.455Z" fill="#361d07" fill-rule="evenodd"/>
        <path id="Path_22047" data-name="Path 22047" d="M3458.777,2862.206a6.594,6.594,0,0,1,1.238,3.439c-6.187,3.262-8.6,2.7-14.319,4.649-5.218,1.777-10.614,4.525-15.159.989,3.163-6.238,6.72-8.3,14.327-7.729,2.843.213,4.047,1.64,9.936.822a5.987,5.987,0,0,0-2.156-.557C3455.793,2863.181,3457.894,2863.927,3458.777,2862.206Z" fill="#241304" fill-rule="evenodd"/>
        <path id="Path_22048" data-name="Path 22048" d="M3427.377,2856.838c6.331-3.081,16.543-1.95,22.527,9.108-6.356-1.721-8.922.026-11.846,4a7.4,7.4,0,0,1-4.606,2.6c-2.16.14-4.195-.886-6.9-2.281a7.678,7.678,0,0,1-3.66-3.055C3421.333,2863.989,3422.444,2859.239,3427.377,2856.838Z" fill="#4a2b12" fill-rule="evenodd"/>
        <path id="Path_22049" data-name="Path 22049" d="M3433.309,2857.647a9.815,9.815,0,0,0-8.087,3.723,9.125,9.125,0,0,1,5.9-2.009,8.933,8.933,0,0,0-4.568,3.3c3.265-1.5,5.139-2.493,9.034-2.358a10.225,10.225,0,0,0-6.482,3.374c3.734-1.52,7.437-3.383,11.876-1.868-3.455-.532-8.441,1.742-10.807,4.557a19.276,19.276,0,0,1,6.888-1.8c-1.811.26-3.6,3.175-4.1,3.752,2.9-1.353,6.046-4.659,10.673-4.012-5.559.782-9.121,9.665-13.076,7.823-2.137-1-6.684-3.205-7.5-4.6a6.649,6.649,0,0,1,2.709-9.184C3427.874,2857.134,3430.986,2857.217,3433.309,2857.647Z" fill="#361d07" fill-rule="evenodd"/>
      </g>
      <g id="Group_10453" data-name="Group 10453">
        <path id="Path_22050" data-name="Path 22050" d="M3482.235,3094.864l-36.805,21.25.678.483,1.6.745,35.785-20.4,1.021-.844Z" fill="#c9c7c5" fill-rule="evenodd"/>
        <path id="Path_22051" data-name="Path 22051" d="M3447.71,3117.342l-2.28-1.229a5.257,5.257,0,0,1-4.919.185C3443.462,3118.414,3444.967,3118.96,3447.71,3117.342Z" fill="#bfbdbb" fill-rule="evenodd"/>
        <path id="Path_22052" data-name="Path 22052" d="M3440.032,3114.294l-2.452-1.464c0,2.407.735,4.069,2.109,4.868l2.577,1.5C3440.891,3118.4,3440.039,3116.7,3440.032,3114.294Z" fill="#c9c7c5" fill-rule="evenodd"/>
        <path id="Path_22053" data-name="Path 22053" d="M3448.876,3029.683c.05-.08.081-.162.131-.242h0a68.071,68.071,0,0,1,12.227-17.423c.1-.1.217-.206.318-.31a61.492,61.492,0,0,1,12.251-9.556,55.731,55.731,0,0,1,11.564-5.458l.1-.211-2-1.112-.221.073a59,59,0,0,0-11.16,5.017c-11.717,6.738-20.459,17.055-26.128,29.166q-.252.549-.5,1.1a100.127,100.127,0,0,0-7.637,29.567,70,70,0,0,0-.284,8.236l.047,44.3,2.452,1.459.379-46.86A88.61,88.61,0,0,1,3448.876,3029.683Z" fill="#d6d4d2" fill-rule="evenodd"/>
        <path id="Path_22054" data-name="Path 22054" d="M3456.5,3016.457a60.686,60.686,0,0,1,17.392-15.03,53.2,53.2,0,0,1,11.574-4.946l.075,1.862a58.357,58.357,0,0,0-11.139,4.97,59.22,59.22,0,0,0-16.856,14.594c-7.224,9.094-12.188,20.555-14.824,34.17a92.212,92.212,0,0,0-1.661,19.2l.118,42.355c.012,4.119,2.937,5.787,6.527,3.714l36.806-21.248v1.318l-36.806,21.25c-4.219,2.439-7.665.48-7.678-4.368-.082-14.24-.183-28.538-.257-42.793a95.247,95.247,0,0,1,1.721-19.684c2.656-13.969,7.568-25.976,15.008-35.36Z" fill="#534b48" fill-rule="evenodd"/>
        <path id="Path_22055" data-name="Path 22055" d="M3474.943,3001.507c.528-.31,1.412-.494,1.929-.77l-.058,2.324c-.5.263-.988.539-1.5.839-10.012,5.784-22.664,17.157-29.184,39.1l-1.841.184c4.666-22.909,20.011-35.536,30.652-41.677Z" fill="#53595c" fill-rule="evenodd"/>
        <path id="Path_22056" data-name="Path 22056" d="M3463.543,3010.442a65.862,65.862,0,0,0-10.3,12.652,81.412,81.412,0,0,0-8.948,20.09l-3.959-2.3a78.689,78.689,0,0,1,11-23.15,65.794,65.794,0,0,1,8.25-9.592,62.161,62.161,0,0,1,13.212-9.637,1.022,1.022,0,0,0,.124-.068l3.958,2.3a61.365,61.365,0,0,0-13.329,9.7Z" fill="#6a7378" fill-rule="evenodd"/>
      </g>
      <path id="Path_22057" data-name="Path 22057" d="M3496.023,2922.546c.993,4.465,5.039,7.421,8.939,9.35a3.828,3.828,0,0,1,1.524,1.3c2.813-11.7,5.558-36.854,5.5-41.619-.012-1.08-1.88-2.782-3.731-2.987a7.3,7.3,0,0,0-5.59,1.672s-3.229,15.2-6.627,28.846a20.544,20.544,0,0,1-.846,1.99A2.889,2.889,0,0,1,3496.023,2922.546Z" fill="#fcc19a"/>
      <path id="Path_22058" data-name="Path 22058" d="M3507.414,2895.188s-3.014,14.588-6.893,33.471a1.786,1.786,0,0,1-.129.372,24.692,24.692,0,0,0,4.57,2.865,3.807,3.807,0,0,1,1.566,1.361c.7-2.6,1.115-5.385,1.708-8.968,2.295-13.859,3.693-33.084,3.693-33.084a5.383,5.383,0,0,0-6.669-2.386c-1.338.453-2.2.861-2.526,1.476C3504.811,2889.889,3507.414,2895.188,3507.414,2895.188Z" fill="#d8b09e" opacity="0.37" style="mix-blend-mode: multiply;isolation: isolate"/>
      <path id="Path_22059" data-name="Path 22059" d="M3529.809,2876.245c-1.271-.141-4.04,2.512-8.188,4.789a13.174,13.174,0,0,1-8.279,1.6s-2.867-.164,2.037-6.964c1.894-2.642-.8-3.3-.8-3.3s-1.284,1.39-3.748,3.925c-2.777,2.844-4,3.585-6.148,6.587-1.989,2.792-2.228,4.837-2.218,5.392.012.979-1.158,6.2,5.336,5.671.628-.052,2.81-.854,3.992-.905a33.9,33.9,0,0,0,9.281-1.561c5.614-1.735,7.985-7.528,9.377-11.458C3530.947,2878.616,3531.095,2876.408,3529.809,2876.245Z" fill="#fcc19a"/>
      <path id="Path_22060" data-name="Path 22060" d="M3450.5,2917.445c6.479,8.979,23.758,21.342,35.7,28.4,6.073,3.591,11.066,5.962,15.551,2.208,4.252-3.557,2.349-10.455-1.663-14.472-4.754-4.757-10.993-10.029-21.495-19.328C3467.378,2904.328,3441.838,2905.441,3450.5,2917.445Z" fill="#aab7c2" fill-rule="evenodd"/>
      <path id="Path_22061" data-name="Path 22061" d="M3450.5,2917.445c6.479,8.979,23.758,21.342,35.7,28.4,6.073,3.591,11.066,5.962,15.551,2.208,2.867-2.4,2.935-6.315,1.447-9.843q-1.2.775-2.429,1.559c-4.336,2.767-3.263,3.152-7.547.522-11.855-7.27-36.658-25.307-39.987-31.146a5.827,5.827,0,0,1-.34-.7C3448.89,2909.843,3447.178,2912.842,3450.5,2917.445Z" fill="#a2afba" fill-rule="evenodd"/>
      <path id="Path_22062" data-name="Path 22062" d="M3497.458,2949.4c3.7-1.328,6.358-1.246,8.634-4.887.975-1.559,1.267-3.751,2.091-6.051,3.187-8.9,3.355-22.587,4-36.039-7.081,1.2-11.383-.765-12.277-4.726-3.494,11.429-4.5,25.006-6.772,36.335a22.43,22.43,0,0,0-.437,4.241Z" fill="#aab7c2" fill-rule="evenodd"/>
      <path id="Path_22063" data-name="Path 22063" d="M3494.3,2949.642c3.158-.239,6.092,0,9.854-2.894,1.065-1.443,1.706-1.654,2.67-3.819,3.727-8.373,4.841-27.553,5.36-40.5-3.224.325-2.906.549-4.954.311-2.672,9.59-4.25,22.485-6.838,34.942-1.011,4.869-2.611,3.9-7.436,5.114l-.416.1Z" fill="#a2afba" fill-rule="evenodd"/>
      <path id="Path_22064" data-name="Path 22064" d="M3455.133,2909.482c13.111,10.136,29.082,20.88,42.815,30.162l6.206-37.5c-1.713-.818-5.1-2.718-4.247-4.447l-5.815,31.053C3475.2,2913.106,3472.981,2911.451,3455.133,2909.482Z" fill="#bac7d1" fill-rule="evenodd"/>
      <path id="Path_22065" data-name="Path 22065" d="M3375.857,2928.781c1.32.218,2.53.8,3.872,1.013a15.255,15.255,0,0,0,4.546-.01,39.106,39.106,0,0,0,7.67-2.2l19.942-7.213.712-8.49c-12.106,3.646-24.245,7.3-36.691,9.525q-.025,3.687-.051,7.372" fill="#a2afba" fill-rule="evenodd"/>
      <path id="Path_22066" data-name="Path 22066" d="M3457.383,2917.826c2.074,5.039,1.042,13.979-1.452,22.705l-5.075-1.882,2.447,5.527c-10.2,13.327-15.907,33.18-16.7,53.568-6.259-50.08,14.9-67.089,15.738-84.184C3454.531,2915.027,3457.033,2916.973,3457.383,2917.826Z" fill="#ced9e0" fill-rule="evenodd"/>
      <path id="Path_22067" data-name="Path 22067" d="M3431.482,3123l-56.529-32.194c-6.163-2.816-14.982-5.058-21.261-1.79-5.721,2.977-15.145,9.071-19.312,11.447-3.165,1.805-14.152,8.387-7.309,12.109,20.131,10.946,40.053,23.257,60.494,34.376,3.866,2.1,9.522,2.864,15.459,2.37a40.918,40.918,0,0,0,16.742-4.986q5.1-2.964,10.025-5.835c4.434-2.582,6.785-5.634,7.018-8.457C3437.036,3127.282,3435.264,3124.727,3431.482,3123Z" fill="#c1d5de" fill-rule="evenodd" opacity="0.7" style="mix-blend-mode: multiply;isolation: isolate"/>
    </g>
  </g>
</svg>
