<svg xmlns="http://www.w3.org/2000/svg" width="386.712" height="318.916" viewBox="0 0 386.712 318.916"><g data-name="Group 6721"><path data-name="Path 13794" d="M383.267 230.721c-79.737-46.339-164.453-95.573-243.742-141.649-8.971 5.18-103.447 59.992-136.075 78.9a6.923 6.923 0 0 0 0 11.976c24.649 14.326 49.775 28.927 75.068 43.626a6.928 6.928 0 0 1 0 11.979l-37.523 21.806a6.912 6.912 0 0 0-.043 11.926c17.217 10.189 51.492 30.522 69.252 41.033a21.78 21.78 0 0 0 22.045.088l44.359-25.779a6.946 6.946 0 0 1 6.975 0l54.994 31.959a17.156 17.156 0 0 0 17.227.012c26.028-15.084 99.5-57.706 127.466-73.917a6.916 6.916 0 0 0-.003-11.96z" fill="#231f20" fill-rule="evenodd" opacity=".1" style="mix-blend-mode:multiply;isolation:isolate"/><g data-name="Group 6705"><g data-name="Group 6702" fill-rule="evenodd"><g data-name="Group 6692"><g data-name="Group 6689"><g data-name="Group 6688"><path data-name="Path 13795" d="M174.879 226.157c-1.281 1.218-2.774 1.816-5.74 3.587v2.614c-3.071 5.378-6.034 7.823-9.922 6.676-5.42-1.6-7.062-2.935-7.126-6.812-.618-6.6-.756-7.842 1.023-12.706a39.053 39.053 0 0 1 11.746-5.5c3.148-1 7.893-3.752 12.465-4.959a3.5 3.5 0 0 1 4.379 3.266c.248 4.137-3.397 10.198-6.825 13.834z" fill="#111214"/><path data-name="Path 13796" d="M174.879 226.157c-1.281 1.218-2.774 1.816-5.74 3.587v2.614c-3.071 5.378-6.034 7.823-9.922 6.676-5.42-1.6-7.062-2.934-7.126-6.812a40.486 40.486 0 0 1-.342-7.551c7.209 3.685 13.332 3.347 20.055-3.594 2.018-2.083 7.937-7.469 8.446-11.484a3.883 3.883 0 0 1 1.454 2.735c.248 4.132-3.397 10.194-6.825 13.829z"/></g><path data-name="Path 13797" d="M183.037 170.155c-4.771 17.5-8.933 31.125-14.35 48.451a11.267 11.267 0 0 1-5.373 6.669c-4.59 2.464-10.939 2.689-12.185-.872 1.071-17.608 1.648-27.237 3.147-36.75 1.247-7.918 1.927-15.462 5.967-21.852 4.65-15.68 27.676-13.549 22.794 4.354z" fill="#001624"/><path data-name="Path 13798" d="M176.163 194.247c-2.333 7.826-4.745 15.622-7.476 24.359a11.262 11.262 0 0 1-5.373 6.668 15.469 15.469 0 0 1-6.643 1.826c.825-5.479 2.819-13.548 4.125-18.961a27.254 27.254 0 0 1-8.914 3.459c.173-2.689.3-3.841.47-6.148z" fill="#00101a"/></g><g data-name="Group 6691"><g data-name="Group 6690"><path data-name="Path 13799" d="M184.685 233.914c1.513-.407 5.421-6.361 10.9-5.19 6.576 1.405 14.212-2.32 20.143-2.392 1.058-.013 2.394-.278 3.036.2 2.823 2.106 3.169 4.29.737 7.059a42.451 42.451 0 0 1-7.828 6.466 50.405 50.405 0 0 1-8.85 5.016c-2.664 1.106-4.459.953-6.869 1.81l-.153 2.1a11.472 11.472 0 0 1-5.412 2.768c-3.393.3-7.371-1.874-10.229-4.922-.33-3.468-1.565-6.919.219-12.015z" fill="#111214"/><path data-name="Path 13800" d="M220.465 228.218c1.109 1.609.826 3.332-.968 5.375a42.451 42.451 0 0 1-7.828 6.466 50.405 50.405 0 0 1-8.85 5.016c-2.664 1.106-4.459.953-6.869 1.81l-.153 2.1a11.472 11.472 0 0 1-5.412 2.768c-3.393.3-7.371-1.874-10.229-4.922-.252-2.647-1.03-5.283-.593-8.649 7.316 5.6 11.821 1.81 14.633 1.667 4.173-.213 10.2.151 19.489-6.518 2.151-1.546 4.467-3.252 6.78-5.113z"/><path data-name="Path 13801" d="M199.587 235.804c1.7-2.964 1.7-4.908 1.136-6.081l11.687-2.308c5.728-1.188 6.892-.112 5.372 1.24-5.103 4.544-11.823 5.678-18.195 7.149z" fill="#20232e"/></g><path data-name="Path 13802" d="M200.878 156.736c-.443 18.075-1.014 57.455-2.59 75.857-1.132 5.908-15.083 11.5-20.4 5.621-1-17.58-3.019-32.163-2.21-41.819.674-8.038.887-32.019 3.837-39.1 2.263-8.924 21.75-16.319 21.363-.559z" fill="#001e30"/><path data-name="Path 13803" d="M201.39 159.067c-.443 18.076-1.526 55.124-3.1 73.526-.519 2.711-3.739 5.354-7.584 6.854 1-13.295 1.678-27.107 3.3-40.219.731-5.9 1.507-11.171 2.06-15.756.788-6.546 1.6-28.566-1.042-34.8a12.506 12.506 0 0 0-3.932-5.259 11.963 11.963 0 0 1 6.449 3.774 15.669 15.669 0 0 1 3.619 8.8 14.214 14.214 0 0 1 .23 3.08z" fill="#001624"/><path data-name="Path 13804" d="M188.029 238.885c-4.143 1.225-7.8.2-9.5-1.534-1.065-33.056-2.284-38.245 4.724-50.9 2.454-4.43 5.691-9.013 10.833-17.721-3.388 25.232-2.903 42.225-6.057 70.155z" fill="#00263d"/></g></g><g data-name="Group 6698"><g data-name="Group 6695"><g data-name="Group 6693"><path data-name="Path 13805" d="M122.744 218.897l-2.564-1.487a13.732 13.732 0 0 1-1.106 5.087 15.821 15.821 0 0 1-6.159 7.493l2.564 1.491a13.43 13.43 0 0 0 3.938-3.5 18.3 18.3 0 0 0 2.39-4.129 12.492 12.492 0 0 0 .937-4.955z" fill="#a8a5a3"/><path data-name="Path 13806" d="M112.915 229.985l-41.2 23.851 2.517 1.454 41.243-23.813z" fill="#c9c7c5"/><path data-name="Path 13807" d="M122.087 164.818l-2.564-1.491.657 54.083 2.564 1.487z" fill="#a8a5a3"/><path data-name="Path 13808" d="M122.504 161.654a32.483 32.483 0 0 0-.433-3.732 26.464 26.464 0 0 0-5.371-12.426 19.057 19.057 0 0 0-5.46-4.774l-2.564-1.486c5.651 3.283 9.211 9.174 10.447 17.281a30.321 30.321 0 0 1 .391 3.646c.022.777.009 3.046.009 3.164l2.564 1.491a30.708 30.708 0 0 0 .417-3.164z" fill="#918e8c"/><path data-name="Path 13809" d="M112.163 139.159c-6.188-3.6-9.96-4.97-17.339-4.438-7.909.568-15.875 3.772-22.39 7.552q-1.911 1.1-3.82 2.355l2.564 1.491q1.909-1.254 3.82-2.359a70.284 70.284 0 0 1 7.7-3.828 48.778 48.778 0 0 1 13-3.5 31.3 31.3 0 0 1 8.931.148 22.393 22.393 0 0 1 6.7 2.125c.275.145.561.29.834.454z" fill="#a8a5a3"/><path data-name="Path 13810" d="M123.379 165.032c0-.183.049-3.633-.014-4.792-.059-1.064-.318-2.746-.546-4.047-1.573-9-6.009-15.256-12.993-18.2-9.129-3.855-21.918-1.682-34.828 5.77q-1.909 1.1-3.82 2.359l.1 1.423a71.675 71.675 0 0 1 3.732-2.3c12.607-7.279 25.082-9.4 33.975-5.637 6.96 2.941 11.31 9.27 12.706 18.407a31.178 31.178 0 0 1 .391 3.647c.022.778.009 3.046.009 3.164l.657 54.079a13.424 13.424 0 0 1-1.069 5.011 15.812 15.812 0 0 1-6.2 7.573l-41.243 23.813v1.482l41.243-23.813c4.728-2.732 8.565-9.379 8.552-14.811z" fill="#534b48"/><path data-name="Path 13811" d="M71.178 146.119l-2.564-1.491.1 1.427 2.564 1.486z" fill="#918e8c"/></g><g data-name="Group 6694"><path data-name="Path 13812" d="M112.069 141.512l-5.061-2.705a19.99 19.99 0 0 1 8.355 9.7l4.805 2.8a19.761 19.761 0 0 0-8.099-9.795z" fill="#03868f"/><path data-name="Path 13813" d="M83.404 135.51l-.294 1.536 3.421 1.834-.219 1.2 1.483.639.61-2.452z" fill="#03868f"/><path data-name="Path 13814" d="M104.727 136.859c2.922.391 5.9.874 8.459 2.384-.007-.005 0 0 0 0-3.07-1.786-6.012-3.751-9.434-4.776a26.244 26.244 0 0 0-7.792-1.08 39.257 39.257 0 0 0-10.889 1.628c-.549.155-1.1.318-1.667.495l4.809 2.8a41.776 41.776 0 0 1 16.514-1.451z" fill="#07acb8"/><path data-name="Path 13815" d="M88.213 138.307l-.418 2.409c15.353-4.9 27.455-.941 32.373 10.584l1.8-1.85c-5.154-12.076-17.774-16.244-33.755-11.143z" fill="#079da8"/></g></g><g data-name="Group 6696"><path data-name="Path 13816" d="M70.046 257.742c-1.6.922-2.4 2.136-2.393 3.35v1.482c0-1.214.8-2.428 2.4-3.35l.115-.923z" fill="#665c59"/><path data-name="Path 13817" d="M95.152 243.248l-25.1 14.494v1.482l25.1-14.493z" fill="#534b48"/><path data-name="Path 13818" d="M67.294 267.285a1.611 1.611 0 0 0 .142.086v-1.481a8.267 8.267 0 0 1-2.045-1.693 4.3 4.3 0 0 1-.923-1.245l-.068-.15a4.252 4.252 0 0 1-.378-1.7 14.031 14.031 0 0 0 .027 1.868 4.71 4.71 0 0 0 1.046 2.446 8.238 8.238 0 0 0 2.199 1.869z" fill="#665c59"/><path data-name="Path 13819" d="M108.129 289.4l-40.7-23.511v1.482l40.7 23.512z" fill="#918e8c"/><path data-name="Path 13820" d="M149.877 274.911l-25.1 14.493.005 1.482 25.1-14.492z" fill="#534b48"/><path data-name="Path 13821" d="M124.782 290.885l-.006-1.482a14.774 14.774 0 0 1-4.39 1.593 19.9 19.9 0 0 1-7.326.106 15.125 15.125 0 0 1-4.932-1.7v1.483a15.644 15.644 0 0 0 5 1.724 20.411 20.411 0 0 0 7.433-.157 14.826 14.826 0 0 0 4.221-1.567z" fill="#665c59"/><path data-name="Path 13822" d="M147.312 273.425l-25.1 14.489a12.684 12.684 0 0 1-11.506 0l-40.693-23.513c-3.164-1.835-3.145-4.823.033-6.654l25.1-14.494-2.564-1.492-25.1 14.494c-4.6 2.655-4.624 6.978-.051 9.639l40.7 23.511c4.578 2.66 12.047 2.66 16.648 0l25.1-14.493z" fill="#c9c7c5"/></g><g data-name="Group 6697"><path data-name="Path 13823" d="M182.943 178.738c-.83-1.361-3.385-2.953-4.114-3.485-9.078-6.639-26.724-16.524-37.385-22.339-4.083-2.143-8.017-4.372-12.235-6.272a19.499 19.499 0 0 0-.359-.16c-3.032-1.363-3.5-1.859-6.358-.594-1.106.481-2.263 1.091-3.353 1.63-8.617 4.266-19.025 10.358-27.285 15.473l-19.1 11.832 56.8 33.6.254.361c2.07-1.3 4.642-2.936 6.575-4.145 11.632-7.256 20.4-12.475 27-16.23.769-.428 1.541-.86 2.318-1.287 2.628-1.414 5.411-2.892 8.47-4.506q2.154-1.11 4.4-2.246c3.42-1.419 3.659.429 2.8 2.316a2.244 2.244 0 0 0 .619-.355 3.391 3.391 0 0 0 .883-1.079 2.608 2.608 0 0 0 .07-2.514z" fill="#444044"/><path data-name="Path 13824" d="M73.614 174.285c-.976.559-8.728 2.327-9.98 2.137 15.984 15.006 48.3 26 58.2 34.184.831.709 2.511-.606 3.622-.464 1.339.212 3.384-.826 4.359-1.391.012-.161-.473-.6-.575-.711-13.205-13.955-44.307-27.306-55.626-33.755z" fill="#444044"/><path data-name="Path 13825" d="M182.943 178.738c-.83-1.361-3.385-2.953-4.114-3.485-10.778-7.883-25.529-15.873-37.385-22.339-4.083-2.143-8.017-4.372-12.235-6.272a19.499 19.499 0 0 0-.359-.16c-2.739-1.231-3.388-1.755-5.593-.912 12.294 6.978 49.2 26.521 59.722 35.458a2.509 2.509 0 0 0-.036-2.29z" fill="#03868f"/><path data-name="Path 13826" d="M128.594 213.119a11.917 11.917 0 0 1-3.509 1.16l-.09.014a4.312 4.312 0 0 1-2.2-.245c-1.746-.874-2-3.3-1.711-5.262l-11.128-6.424q-23.318-13.459-46.64-26.907a5.616 5.616 0 0 0 .485 4.112c1.194 1.907 4.512 4.013 5.9 4.971 12.253 8.479 34.561 21.543 47.967 27.868a21.427 21.427 0 0 0 5.39 1.924 8.251 8.251 0 0 0 3.224-.256 12.235 12.235 0 0 0 2.362-.925z" fill="#03868f"/><path data-name="Path 13827" d="M181.623 178.851c-8.529 4.223-15.821 8.115-22.931 12.22-8.9 5.137-17.59 10.6-28.3 17.322-.167.108-.34.217-.577.363-3.337 1.942-5.014 1.568-5.514.741-.464-.951.014-2.564.786-4.091l-2.748-.866c-1.759 3.555-1.911 6.484-.947 8.234 1.163 2.138 4.195 2.124 8.451-.317.232-.151.469-.3.7-.441 10.643-6.693 19.276-12.107 28.137-17.226 7.065-4.078 14.225-7.97 22.835-12.171a3.577 3.577 0 0 0 1.6-2.645c.067-1.055-.601-1.559-1.492-1.123z" fill="#2c282c"/></g></g><g data-name="Group 6701"><g data-name="Group 6699"><path data-name="Path 13828" d="M173.693 159.767c6.214-3.5 18.517-12.632 12.848-18.059-5.783-13.755-25.115-7.759-32.472-5.6-11.167 3.281-39.9 10.514-50.869 22.219l-19.207-19.321c-2.175 9.926-6.169 23.567-4.015 34.666 1.321 6.81 2.166 8.877 8.051 12.335 3.878 2.279 8.7 4.377 11.363 4.9a22.682 22.682 0 0 0 14.417-1.876c13.634-6.531 51.864-24.746 59.884-29.264z" fill="#001624"/><path data-name="Path 13829" d="M146.017 161.302c4.434-2.5 29.125-7.778 31.829-12.782.623-1.155-.547-3.279-1.172-4.374-11.726.019-37.625 6.7-53.406 12.941z" fill="#00101a"/></g><g data-name="Group 6700"><path data-name="Path 13830" d="M195.372 164.569c6.215-3.5 6.168-12.6 1.142-18.627-2.941-3.527-8.654-5.173-15.992-3.894-11.621 2.029-49.9 17.561-60.87 25.4l-22.959-23.414c-2.173 9.928-2.758 27.659-.6 38.759 1.321 6.81 2.507 8.877 8.392 12.335 3.877 2.279 8.7 4.378 11.363 4.9a22.675 22.675 0 0 0 14.417-1.877c13.63-6.53 57.087-29.06 65.107-33.582z" fill="#001e30"/><path data-name="Path 13831" d="M133.936 159.212a105.854 105.854 0 0 0-14.284 8.238l-22.959-23.414c-2.173 9.928-2.758 27.659-.6 38.759 1.321 6.81 2.507 8.877 8.392 12.335 3.877 2.279 8.7 4.378 11.363 4.9a22.675 22.675 0 0 0 14.417-1.877c7.361-3.528 42.158-20.874 52.336-26.761 4.539-3.967 9.29-14.606 8.637-14.371-16.12 12.787-40.425 20.3-49.606 25.039-.697-2.584-.516-17.911-7.696-22.848z" fill="#001624"/><path data-name="Path 13832" d="M188.872 141.926c10 1.432 16.447 14.468 8.063 22.231a45 45 0 0 0-.7-10.544 19.416 19.416 0 0 0-7.363-11.687z" fill="#11101a"/><path data-name="Path 13833" d="M188.252 154.534c5.977-2.775 3.037-9.592-.732-10.516-8.06-1.975-37.909 10.523-48.982 15.213 3.645 2.951 5.351 9.746 6.08 14.463 8.583-3.591 34.69-15.009 43.634-19.16z" fill="#00263d"/></g></g></g><g data-name="Group 6704"><path data-name="Path 13834" d="M123.202 155.272c9.795-3.183 19.2-6.9 28.983-10.116-2.406-4.091-6.257-5.229-10.387-5.489-13.186 3.981-30.606 10.134-38.6 18.662-2.437-2.454 12.622 5.83 20.004-3.057z" fill="#e0f5ff" fill-rule="evenodd"/><g data-name="Group 6703"><path data-name="Path 13835" d="M131.352 160.856a91.171 91.171 0 0 0-11.7 6.594l-22.959-23.414c-2.173 9.928-2.758 27.659-.6 38.759 1.321 6.81 2.507 8.877 8.392 12.335 3.877 2.279 8.7 4.378 11.363 4.9a22.675 22.675 0 0 0 14.417-1.877c8.8-4.22 30.044-15.11 46.147-23.513.164-8.808-1.825-17.09-8.766-23.69-11.872 3.919-26.011 7.761-35.119 11.365q-.586-.769-1.175-1.459z" fill="#00263d" fill-rule="evenodd"/></g></g></g><g data-name="Group 6706" fill-rule="evenodd"><path data-name="Path 13836" d="M151.966 92.511l-5.268-2.592a26.725 26.725 0 0 1-2.152 9.9c-2.4 5.779-6.815 11.642-11.979 14.573l4.987 2.9c6.293-3.707 9.871-7.786 12.572-14.607.97-2.457 2.141-7.265 1.84-10.174z" fill="#a8a5a3"/><path data-name="Path 13837" d="M145.927 26.485l.771 63.438 4.987 2.893-.358-63.155-.139-6.351a1358.02 1358.02 0 0 0-5.261 3.175z" fill="#a8a5a3"/><path data-name="Path 13838" d="M55.528 158.613l1.532 1.088 3.616 1.681c53.662-30.595 23.394-13.214 76.879-44.095l-4.988-2.9c-53.468 30.956-23.531 13.333-77.039 44.226z" fill="#c9c7c5"/><path data-name="Path 13839" d="M60.677 161.385l-5.149-2.769c-3.127 1.788-7.758 2.3-11.1.415 6.662 4.772 10.061 6.004 16.249 2.354z" fill="#bfbdbb"/><path data-name="Path 13840" d="M43.352 154.506l-5.534-3.3c.014 5.43 1.658 9.18 4.762 10.983l5.813 3.379c-3.106-1.806-5.03-5.632-5.041-11.062z" fill="#c9c7c5"/><path data-name="Path 13841" d="M37.752 89.548l.064 61.666 5.535 3.292.549-67.8a550.455 550.455 0 0 1-6.148 2.842z" fill="#d6d4d2"/><path data-name="Path 13842" d="M45.762 85.832l.185 67.173c.028 9.292 6.627 13.056 14.729 8.377 53.417-30.836 23.464-13.254 76.879-44.095 5.1-2.94 9.565-8.633 12.051-14.729a26.1 26.1 0 0 0 2.079-9.746l-.773-63.6-.069-5.692 2.5-1.5.856 69.349c.027 10.567-7.436 23.494-16.633 28.808-53.458 30.868-23.424 13.329-76.886 44.2-9.519 5.5-17.3 1.081-17.327-9.86-.129-22.344-.743-44.756-.839-67.15 1.051-.502 2.138-1.012 3.248-1.535z" fill="#534b48"/></g><g data-name="Group 6709" fill-rule="evenodd"><g data-name="Group 6707"><path data-name="Path 13843" d="M355.525 209.803l-5.27-2.591a26.737 26.737 0 0 1-2.15 9.894c-2.4 5.78-6.817 11.643-11.98 14.573l4.987 2.9c6.293-3.707 9.87-7.785 12.572-14.608.968-2.45 2.141-7.258 1.841-10.168z" fill="#a8a5a3"/><path data-name="Path 13844" d="M349.485 143.773l.77 63.439 4.988 2.893-.358-63.155-.139-6.35-5.261 3.173z" fill="#a8a5a3"/><path data-name="Path 13845" d="M259.086 275.905l1.531 1.089 3.617 1.681c53.663-30.595 23.394-13.214 76.878-44.095l-4.987-2.9c-53.467 30.955-23.531 13.333-77.039 44.225z" fill="#c9c7c5"/><path data-name="Path 13846" d="M264.234 278.675l-5.148-2.77c-3.126 1.789-7.759 2.3-11.1.416 6.666 4.775 10.061 6.007 16.248 2.354z" fill="#bfbdbb"/><path data-name="Path 13847" d="M246.907 271.798l-5.534-3.3c.014 5.43 1.659 9.182 4.762 10.985l5.813 3.378c-3.103-1.806-5.027-5.632-5.041-11.063z" fill="#c9c7c5"/><path data-name="Path 13848" d="M241.308 206.84l.065 61.666 5.534 3.292.55-67.8a527.617 527.617 0 0 1-6.149 2.842z" fill="#d6d4d2"/><path data-name="Path 13849" d="M249.319 203.124l.186 67.173c.027 9.293 6.627 13.057 14.729 8.378 53.416-30.835 23.464-13.254 76.878-44.095 5.1-2.94 9.567-8.633 12.052-14.73a26.086 26.086 0 0 0 2.079-9.745l-.773-63.605-.069-5.692q1.27-.766 2.5-1.5l.856 69.349c.026 10.567-7.436 23.5-16.633 28.809-53.458 30.866-23.425 13.328-76.886 44.2-9.521 5.5-17.3 1.081-17.327-9.861-.13-22.344-.743-44.755-.838-67.149 1.05-.498 2.137-1.008 3.246-1.532z" fill="#534b48"/></g><g data-name="Group 6708"><path data-name="Path 13850" d="M145.768 0l-7.242 4.212-7.269 4.227c-41.574 24.135-65.212 38.1-106.792 62.222a82.406 82.406 0 0 0-8.668 5.621c-1.528 1.3-2.065 3.572-2.065 5.5v1.894a7.891 7.891 0 0 0 3.463 6.915l14.353 8.279q64.835 37.554 129.779 74.93c42.11 24.308 18.073 9.757 60.183 34.066l3.463 2 14.338 8.273 7.241-4.2 14.568-8.462 7.313-4.257 7.313-4.257 7.342-4.257q22.077-12.84 44.164-25.669c14.657-8.523 11.415-6.813 26.078-15.325l7.27-4.225 7.241-4.216a5.21 5.21 0 0 0 .732-.5c.072-.063.144-.146.23-.209 1.449-1.369 1.662-2.213 2.285-4.017 0-.021.014-.031.014-.052a18.691 18.691 0 0 0 .23-4.013c.014-.221 0-.439 0-.653-.029-.225-.043-.447-.072-.665s-.072-.426-.115-.633a4.223 4.223 0 0 0-.144-.6c-.057-.189-.1-.376-.172-.559-.057-.176-.115-.349-.186-.518s-.158-.32-.231-.475-.158-.29-.229-.43-.158-.257-.23-.383-.159-.223-.23-.33c-.087-.1-.158-.193-.23-.287s-.158-.17-.23-.252a1.339 1.339 0 0 0-.2-.208 2.086 2.086 0 0 0-.188-.186 1.615 1.615 0 0 0-.187-.161 1.865 1.865 0 0 0-.186-.152c-.058-.047-.13-.094-.187-.138-.432-.3-.9-.551-1.355-.814l-13.429-7.752-14.352-8.299c-55.8-32.22-1.629-.58 22.945 13.928l-14.439-8.331-14.426-8.336q-43.372-25.008-86.72-50.065L232.1 49.845l-14.424-8.332-14.424-8.328-14.41-8.315-14.367-8.3z" fill="#534b48"/><path data-name="Path 13851" d="M145.752.756V.474a.069.069 0 0 1-.015-.051V.065l-7.241 4.212-7.27 4.227c-41.574 24.135-65.211 38.1-106.793 62.223l-7.226 4.212a2.638 2.638 0 0 1 .388-.205c.1-.048.2-.095.3-.136.071-.03.158-.058.229-.084a1.629 1.629 0 0 1 .188-.058 1.433 1.433 0 0 1 .157-.043c.043-.013.1-.025.158-.037s.072-.019.115-.028l.129-.021c.044-.007.072-.013.116-.017a1.086 1.086 0 0 1 .129-.017c.028-.005.072-.008.115-.012.028 0 .072-.006.1-.007l.115-.008h.186L145.749.81z" fill="#9d908e"/><path data-name="Path 13852" d="M203.218 33.253l-14.41-8.316-14.368-8.3L145.735.067v.39a.5.5 0 0 1 .015.153v.2l219.673 126.148a4.8 4.8 0 0 1 2.384.648c.015 0 .03.009.03.015l-14.339-8.278-14.353-8.291c-55.8-32.222-1.628-.581 22.946 13.929l-14.439-8.332-14.425-8.336q-43.374-25.01-86.721-50.066l-14.439-8.335-14.424-8.332" fill="#9d908e"/><path data-name="Path 13853" d="M13.699 83.737a7.892 7.892 0 0 0 3.463 6.915c90.181 52.014 114.128 65.213 204.315 117.276l3.463 2 14.338 8.273c0 .011.015-1.81.029-4.885L31.007 93.129z" fill="#534b48"/><path data-name="Path 13854" d="M239.307 213.314c0 1.6-.029 3.2-.029 4.8v.083c46.406-26.946 74.9-43.691 121.288-70.657l7.241-4.216c2.33-1.32 3.493-4.349 3.493-6.858v-.041c-50.022 29.072-82.062 47.848-131.993 76.889z" fill="#534b48"/><path data-name="Path 13855" d="M239.307 211.421v1.893L371.3 136.427v-1.894l-9.983 3.72z" fill="#534b48"/><path data-name="Path 13856" d="M13.699 81.844v1.893l225.607 129.577v-1.893L32.068 91.185z" fill="#534b48"/><path data-name="Path 13857" d="M370.152 130.003l-16.419 6.21-114.41 70v4.54c-.014.219-.014.45-.014.669l131.993-76.888a8.851 8.851 0 0 0-1.15-4.531z" fill="#534b48"/><path data-name="Path 13858" d="M15.078 77.015a8.9 8.9 0 0 0-1.379 4.829l225.608 129.577c.014-.868.014-1.768.014-2.657v-2.96L22.032 79.532z" fill="#534b48"/><path data-name="Path 13859" d="M239.321 204.246v-3.839L41.5 84.339 19.633 74.262a4.788 4.788 0 0 0-.992.109c-.115.025-.23.055-.344.088a2.735 2.735 0 0 0-.287.1c-.1.034-.187.071-.274.11a2.4 2.4 0 0 0-.272.126 2.932 2.932 0 0 0-.274.149 3.178 3.178 0 0 0-.272.173c-.1.069-.216.142-.316.218s-.216.176-.317.271a4.522 4.522 0 0 0-.359.341 5.688 5.688 0 0 0-.4.45 4.175 4.175 0 0 0-.446.621l224.243 128.789v-1.558z" fill="#534b48"/><path data-name="Path 13860" d="M239.321 205.219v.993l130.829-76.209a5.626 5.626 0 0 0-4.712-3.049h-.015l-16.442 6.9-109.66 66.558v4.812z" fill="#534b48"/><path data-name="Path 13861" d="M145.541.806C98.517 28.131 66.449 46.94 19.425 74.262c94.292 54.436 125.4 71.712 219.688 126.145 47.009-27.322 79.078-46.13 126.1-73.453C270.923 72.518 239.819 55.241 145.541.806z" fill="#ba6a21"/></g></g><path data-name="Path 13862" d="M120.289 99.485c3.207-1.309 8.246-2.825 9.864-5.027 3.512-4.778 7.849-11.147 10.708-11.455l10.943-1.178 8.249 10.06a7.423 7.423 0 0 1-4.929 1.182c-2.739-.321-8.217-4.255-8.786-3.552l-5.209 6.438 7.493-3.314c3.1-.513 4.66.691 4.924 1.828.235 1.008-.759 2.33-2.719 3.255a24.75 24.75 0 0 0-7.875 5.263c-2.695 2.472-5.879 2.8-11.325 3.475-.527.064-9.022 4.037-9.593 4.112z" fill="#e8a476" fill-rule="evenodd"/><path data-name="Path 13863" d="M141.936 70.185c-.393-.919-.854-1.3-2.277-.7s-.85 1.626-.457 2.545l6.28 22.267c2.47-1.108.628-1.207 2.686-.954-.083-.669-6.047-22.732-6.232-23.158z" fill="#00263d" fill-rule="evenodd"/><path data-name="Path 13864" d="M84.868 107.001l41.117-10.422c4.619 0 6.142 9.94 2.98 11.639l-40.277 18.055c-5.177.807-8.959-.167-10.7-2.278-2.076-2.515-1.488-6.563-.04-9.991 1.323-3.14 3.321-5.098 6.92-7.003z" fill="#d2eefc" fill-rule="evenodd"/><path data-name="Path 13865" d="M130.337 101.507c.643 2.766.258 5.834-1.372 6.711l-40.277 18.055c-5.177.807-8.684-.424-10.7-2.278z" fill="#b2d9ed" fill-rule="evenodd"/><path data-name="Path 13866" d="M87.063 57.004c13.667 8.415 1.571 54.512 9.751 66.68-6.219 1.881-17.47 3.1-19.737-.061a7.829 7.829 0 0 1-1.85-5.026c-.951-13.857-3.2-27.634-2.923-37.368.31-10.893 3.323-22.397 14.759-24.225z" fill="#c3e6f7" fill-rule="evenodd"/><path data-name="Path 13867" d="M87.063 57.004c13.667 8.415 1.571 54.512 9.751 66.68a72.421 72.421 0 0 1-12.9 1.852 8.644 8.644 0 0 1-2.553-.158c-2.443-13.278-9.691-35.031-8.868-47.3.585-8.734 4.094-19.126 14.57-21.074z" fill="#b2d9ed" fill-rule="evenodd"/><g data-name="Group 6716" fill-rule="evenodd"><path data-name="Path 13868" d="M86.066 57.357c13.685 8.428-2.008 41.466 6.184 53.653-6.229 1.883-18.518 3.107-20.79-.062a7.84 7.84 0 0 1-1.853-5.034c-.343-5 .635-12.42 1.077-15.994 1.426-11.516.017-30.535 15.382-32.563z" fill="#1abac6"/><path data-name="Path 13869" d="M86.066 57.357c13.685 8.428-2.008 41.466 6.184 53.653a48.772 48.772 0 0 1-15.434 1.809c-.7-6.825-3.908-21.132-4.12-23.038-.316-2.847-.682-5.646-1.261-8.435.883-10.596 2.7-22.416 14.631-23.989z" fill="#169ca6"/><path data-name="Path 13870" d="M84.078 57.869a16.238 16.238 0 0 0-10.27 12.362c-3.621 16.783 7.961 39.863 9 58.426.561 9.987-4.578 26.654-3.956 43.736.669 18.361 34.925 36.293 51.723 25.486 1.684-1.083 6.595-25.244 6.572-25.316-2.926-9.09-8.261-21.132-8.069-29.9.493-22.517 10.946-41.2 8.61-52.53a20.774 20.774 0 0 0-7.586-11.664c-8.993-7.226-35.78-24.841-46.024-20.6z" fill="#1abac6"/><path data-name="Path 13871" d="M126.063 199.878c6.332-1.59 8.014-5.816 9.831-11.762 2.385-7.8 2.925-17.681-.171-24.4a38.646 38.646 0 0 1-1.023-2.524c-1.913-5.147-4.866-15.075-4.711-22.164.494-22.517 9.98-37.558 7.644-48.893a20.769 20.769 0 0 0-7.586-11.664 113.938 113.938 0 0 0-17.652-10.863l.191 2.389c5.773 3.589 7.941 5.58 12.615 10.519-14.588 13.846-6.459 48.1-4.409 63.793.672 5.144 4.011 32.39 5.271 55.569z" fill="#169ca6"/><g data-name="Group 6710"><path data-name="Path 13872" d="M124.712 58.711c-1.646.815-10-.369-9.756.378.149 4.624 1.816 7 1.7 15.3-9.762 6.962-23.351-1.083-22.375-6.086-.077-3.406 1.625-12.888-.089-15.662-1.946-3.145-5.944-6.649-7.359-11.418-2.264-7.622-1.44-16.089 5.665-21.732 12.978-10.306 29.573-2.973 33.777 12.1.822 2.943-1.5 4.537-1.418 7.054.016.492.667 1.006 1.2 2.1.73 1.514.673 16.967-1.345 17.966z" fill="#e8a476"/><path data-name="Path 13873" d="M124.627 58.626c-1.646.815-9.916-.284-9.671.463.149 4.624 1.816 7 1.7 15.3-5.783-8.446-8.22-13.092-21.7-17.762a8.626 8.626 0 0 0-.761-3.986c-1.946-3.145-5.944-6.649-7.359-11.418-2.264-7.622-1.44-16.089 5.665-21.732 12.978-10.306 29.573-2.973 33.777 12.1.822 2.943-1.5 4.537-1.418 7.054.016.492.667 1.006 1.2 2.1.727 1.514.584 16.881-1.433 17.881z" fill="#db9669"/><path data-name="Path 13874" d="M124.371 58.711c-.873.468-4.481.161-7.167-.872a12.514 12.514 0 0 1-3.183-2.209c-1.113-.449-3.585-3.958.245-9.544 3.733-5.447-18.876 8.494-20.073 6.559-1.945-3.144-5.944-6.649-7.359-11.418-2.264-7.622-1.44-16.089 5.665-21.732 12.978-10.306 29.573-2.973 33.777 12.1.822 2.943-1.5 4.537-1.418 7.054.016.492.667 1.006 1.2 2.1.729 1.51.294 16.897-1.687 17.962z" fill="#e8a476"/><path data-name="Path 13875" d="M124.752 58.647a7.5 7.5 0 0 1-3.39-.208 9.655 9.655 0 0 1-2.292-5.129c.157-4.964 2.663-8.99 2.652-11-.028-4.248-1.44-2.132.181-6.723 1.244-3.523-.389-4.057-1.106-7.08a4.787 4.787 0 0 0 2.922-2.937 25.02 25.02 0 0 1 2.554 6.025c.822 2.943-1.5 4.537-1.418 7.054.016.492.667 1.006 1.2 2.1.732 1.51.631 16.736-1.303 17.898z" fill="#f1b287"/><path data-name="Path 13876" d="M115.072 46.25c-4.65-4.334-9.137 9.453-1.656 9.307-2.919-3.09-.702-7.984 1.656-9.307z" fill="#db9669"/><path data-name="Path 13877" d="M115.052 48.264c.7-1.928.11-2.63-.739-2.421-.932.229-2.255 1.567-2.943 3.564-1.111 3.222.481 7.293 3.593 5.7-2.677.155-2.427-3.072-1.624-5.062.542-1.348 1.385-2.306 1.713-1.781z" fill="#f1b287"/><path data-name="Path 13878" d="M113.818 49.136c.749 1.393 1.008 2.221.768 2.7-.168.334-.684.713-1.528-.1a4.816 4.816 0 0 1 .76-2.6z" fill="#db9669"/><path data-name="Path 13879" d="M94.599 54.536c-2.16-4.532-5.99-7.328-7.765-13.309-2.264-7.621-1.44-16.089 5.665-21.732 10.2-8.1 22.632-5.3 29.529 3.581.37.572-3.536 2.409-2.243 5.272 1.849 4.852 1.812 7.028 1.065 8.093-2.891 4.125-2.945 4.712-2.787 10.993l-1.634 1.32c-.675-4.929-2.867-4.541-5-2.9-3.718 2.873-5.148 9.4-11.337 10.681a5.424 5.424 0 0 1-5.493-1.999z" fill="#361d07"/><path data-name="Path 13880" d="M117.999 46.026c.494 3.077.7 5.025 2.041 6.57.508.588 1.843.785 3.17 1.039a18.689 18.689 0 0 1 .688-3.393 6.3 6.3 0 0 1 2.644-3.734 3.952 3.952 0 0 1-.123 2.005 4.9 4.9 0 0 0-1.019 2.322 10.009 10.009 0 0 0-.369 3.1c.327.032.6.089.832.122.119.018.129-.877.362-.858.108 2.551.144 5.965-.434 6.191-.739.291-5.067-.591-7.289-1.491-2.318-.939-1.636-1.448-1.852-4.184-.179-2.255-.172-4.81-.483-7.218z" fill="#361d07"/><path data-name="Path 13881" d="M119.252 51.394a5.6 5.6 0 0 0 .792 1.2c.508.588 1.843.785 3.17 1.039a18.689 18.689 0 0 1 .688-3.393 6.3 6.3 0 0 1 2.644-3.734 3.952 3.952 0 0 1-.123 2.005 4.9 4.9 0 0 0-1.019 2.322 10.009 10.009 0 0 0-.369 3.1c.327.032.6.089.832.122.119.018.129-.877.362-.858.108 2.551.144 5.965-.434 6.191-.559.22-3.168-.231-5.368-.852a16.672 16.672 0 0 1-1.35-5.226 16.982 16.982 0 0 1 .175-1.916z" fill="#4f2b0c"/><path data-name="Path 13882" d="M96.534 36.344a20.842 20.842 0 0 0 1.65 8.652c.338-2.188.639-4.406 1.058-6.575q.211-1.091.481-2.158c.511 3.238.884 6.512 1.289 9.766.734-3.46 1.54-6.945 2.129-10.427 1.3 1.988 1.663 6.133 2.155 8.687a70.78 70.78 0 0 0 1.567-9.594c1.392 1.411 1.783 5.155 2.168 7.21a74.581 74.581 0 0 0 1.375-8c.872 1.279 1.14 4.31 1.394 5.893a27.657 27.657 0 0 0 1.34-6.241c1.4 2.442 1.444 5.263 1.712 7.991.541-2.841 1.363-6.068 1.124-8.934a29.606 29.606 0 0 1 1.67 5.03c.146-2.178.343-4.386.321-6.567a11.352 11.352 0 0 1 2.533 5.564c1.027-2.18.538-6.482-.777-9.4l-.154-.342-.374.024q-3.3.211-6.611.418-2.178.135-4.356.267c-.707.042-1.5.119-2.193.119-.291-.011-.652-.073-.944-.111-.706-.091-1.413-.188-2.119-.285q-3.062-.423-6.124-.862c-3.088-.44-6.019-1.2-9.1-1.645-4.308 7.572-1.091 14.951.628 18.645a35.239 35.239 0 0 1-.16-7.3c.181 2.062 1.359 4.781 2.091 6.8a27.961 27.961 0 0 1 .482-6.857 13.539 13.539 0 0 0 2.111 8.227c-.165-3.04-.48-5.437.369-8.581a30.406 30.406 0 0 0 1.959 9.658 41.074 41.074 0 0 1 1.306-9.072z" fill="#54321e"/><path data-name="Path 13883" d="M86.693 36.311c2.3-1.682 7.557-3.368 17.429-4.065a37.436 37.436 0 0 0 15.734-4.269c6.246-3.331 5.264-10.222 2.625-12.564-5.1-4.522-18.272-4.051-27.041.466-6.406 3.298-9.946 9.838-8.747 20.432z" fill="#361d07"/><path data-name="Path 13884" d="M86.693 36.311c2.3-1.682 7.557-3.368 17.429-4.065a37.436 37.436 0 0 0 15.734-4.269c6.246-3.331 5.264-10.222 2.625-12.564a9.142 9.142 0 0 0-1.65-1.149c-1.593 11.882-7.5 8.684-19.212 12.8 1.71-1.645.888-1.332 2.43-2.3-3.73 1.343-6.573 1.107-10.783 3.836 1.33-1.224 1.669-1.96 2.513-2.6a13.218 13.218 0 0 0-8.234 5.687l-.34-5.6a56.516 56.516 0 0 0-.512 10.224z" fill="#241304"/><path data-name="Path 13885" d="M123.137 25.063c-1.926 2.413-10.2-3.166-21.774-1.037 2.48-7.646 3.913-9.269 7.39-11.506 4.531-2.917 12.163-1.726 14.558 2.293 2.294 3.851 1.375 8.307-.174 10.25z" fill="#4f2b0c"/><path data-name="Path 13886" d="M106.902 22.865c3.541-3.5 8.891-2.87 13.682-1.576-2.769-2.625-8.477-1.637-11.232-.213 3.72-3.456 6.189-3.323 10.869-2.728a10.162 10.162 0 0 0-10.336.7c3.353-3.959 4.769-3.659 9.675-3.367-3.417-1.829-8.543-1.185-10.634.778 2.52-2.949 4.478-3.593 9.143-3.591-4.009-1.22-7.111-1.1-10.421 2.323 2.592-4.574 8.094-4.6 11.706-3.17a8.8 8.8 0 0 1 5.314 7.6c.079 2.757-1.06 4.486-1.849 4.662-3.748.848-5.635-2.215-15.917-1.418z" fill="#361d07"/></g><path data-name="Path 13887" d="M94.741 58.413c-1.119-.159-2.075-.58-3.26-.846-2.67.945-3.136 7.439-2.131 9.758 2.147 4.954 8.131 8.875 16.745 10.444 9.807 1.786 21.654-.279 24.6 1.184.517.256-8.493-6.775-9.555-6.975-9.718-1.831-28.132-5.726-26.399-13.565z" fill="#169ca6"/><path data-name="Path 13888" d="M95.209 58.224c-.257 5.051 13.315 8.708 21.19 5.81 2.093 1.064 4.132 5.751 4.175 7.961-9.463 2.257-23.942 1.115-27.56-6.288-.793-1.622.394-5.467 2.195-7.483z" fill="#1abac6"/><g data-name="Group 6715"><g data-name="Group 6711"><path data-name="Path 13889" d="M69.085 94.627c3.773 2.069 8.139 4.616 12.817 7.335a2.693 2.693 0 0 1 2.094-.271c-.036-.019-.174-.1-.336-.191q-1.95-1.134-3.914-2.248a354.278 354.278 0 0 0-5.619-3.134q-1.608-.879-3.241-1.755c-3.026-1.613-6.135-3.228-9.247-4.662a25.108 25.108 0 0 0-3.351-1.339 2.561 2.561 0 0 0-1.445-.131 2.31 2.31 0 0 0-.892.455c.675-.379 3.336.918 5 1.746 2.782 1.378 5.439 2.688 8.134 4.195z" fill="#444044"/><path data-name="Path 13890" d="M93.552 167.764c.173-17.474-7.223-38.912-11.762-52.061-1.086-3.16-2.027-5.887-2.64-7.933-.639-2.1 1.287-5 2.777-5.882-.427-.246-.855-.5-1.277-.742-5.529-3.193-11.408-6.573-17.171-9.524-1.962-.967-3.727-1.966-5.775-2.807-.732-.3-1.158-.405-1.543-.247a3.178 3.178 0 0 0-1.338 1.7 3.786 3.786 0 0 0 .277 2.783c1.278 4.067 2.758 8.122 4.128 12.17 2.272 6.751 5.041 15.445 7.06 24.174.731 3.361 1.359 6.5 1.866 9.893 1.046 6.995 1.617 14.369.125 21.154a53.176 53.176 0 0 1-3.651 11.091c-1.059 2.492-2.238 5.773-.82 8.036 1.194 1.907 4.512 4.013 5.9 4.971 5.581 3.863 11.864 7.639 17.7 11.07l2.114 1.237c-1.6-.933-2.026-2.9-1.954-4.606a15.761 15.761 0 0 1 1.645-5.646 49.258 49.258 0 0 0 4.339-18.831z" fill="#2c282c"/><path data-name="Path 13891" d="M63.32 175.455a5.616 5.616 0 0 0 .485 4.112c1.194 1.907 4.512 4.013 5.9 4.971 5.581 3.863 11.864 7.639 17.7 11.07l2.114 1.237c-1.6-.933-2.026-2.9-1.954-4.606a9.744 9.744 0 0 1 .444-2.542q-12.345-7.12-24.689-14.242z" fill="#2c282c"/><path data-name="Path 13892" d="M79.097 106.116a7.066 7.066 0 0 1 2.827-4.228c-.427-.246-.855-.5-1.277-.742-5.529-3.193-11.408-6.573-17.171-9.524-1.962-.967-3.727-1.966-5.775-2.807-.732-.3-1.158-.405-1.543-.247a3.178 3.178 0 0 0-1.338 1.7 2.738 2.738 0 0 0-.037 1.815l7.595 4.383 8.839 5.1z" fill="#444044"/><path data-name="Path 13893" d="M90.505 105.475l-6.517-3.787a1.964 1.964 0 0 0-2.064.2l6.405 3.723a2.556 2.556 0 0 1 2.176-.136z" fill="#444044"/><path data-name="Path 13894" d="M89.391 119.597c-1.408-4.075-3.672-8.916-1.062-13.986l-6.405-3.723c-1.837 1-5.807 3.715-5.164 5.712.613 2.046 1.384 4.943 2.47 8.1 8.569 24.825 17.537 42.8 6.679 67.817-1.625 3.744-.078 11.172 3.607 13.325l6.405 3.723c-2.807-1.636-.9-5.308.206-8.412 10.025-28.097 3.873-41.828-6.736-72.556z" fill="#444044"/><path data-name="Path 13895" d="M83.602 187.171c-.869 2.858-.3 6.205 5.914 9.674l6.405 3.723c-2.307-1.346-2.236-4.412-1.523-7.186z" fill="#2c282c"/><path data-name="Path 13896" d="M85.661 109.905a4.069 4.069 0 0 1 .382-1.41 6.43 6.43 0 0 1 2.286-2.884l-6.405-3.723c-3.778.091-9.476.655-2.865 4.206l1 .576z" fill="#444044"/><path data-name="Path 13897" d="M115.552 122.363a1.614 1.614 0 0 0-.091-.25c-.49-1.1-3.53-3.167-4.6-3.927a251.747 251.747 0 0 0-2.451-1.669c-5.854-3.885-11.868-7.53-17.967-11.07a2.052 2.052 0 0 0-2.123.164q1.674.975 3.342 1.955l.186.109c2.725 1.654 5.486 3.245 8.2 4.919 2.784 1.744 13.026 8.085 13.875 9.482.494-.285 1.386-.376 1.589.309z" fill="#444044"/><path data-name="Path 13898" d="M130.061 186.329c.055-1.081.088-2.347.071-3.8 0-.2 0-.391-.009-.586v-.173a71.506 71.506 0 0 0-.226-4.546c-.933-12.152-4.557-25.1-7.6-34.7v-.027l-.018-.046c-.173-.546-.346-1.087-.515-1.61-1.5-4.8-3.222-9.933-5.155-15.444l-.15-.427q-.245-.688-.49-1.391l-.405-1.219-.07-.034c.01.014.038.13.043.144.531 1.768 1.322 4.123 2.264 6.828q1.841 5.571 3.491 10.756c4.01 12.744 6.983 23.646 8.2 33.465q.294 2.463.454 4.893c.009.14.018.286.023.427s.018.313.027.468q.069 1.425.1 2.8a58.191 58.191 0 0 1-.44 7.895 28.76 28.76 0 0 1-.317 2.024 62.822 62.822 0 0 1-4.144 13.186l.014.013c.072-.145.14-.3.2-.423l.168-.381a46.055 46.055 0 0 0 3.854-12.485c.095-.594.185-1.193.266-1.79a43.38 43.38 0 0 0 .281-2.373c.013-.228.031-.474.045-.728.023-.397.016-.286.038-.716z" fill="#03868f"/><path data-name="Path 13899" d="M129.841 212.47h-.008a.025.025 0 0 0 .008-.018h.005c-8.386 4.763-8.372-2.187-5.134-9.892 10.939-26.022-12.451-79.71-10.742-80.574 0-.325-5.752-4.369-6.4-4.8-6.044-4.057-16.99-10.269-19.241-11.576a5.534 5.534 0 0 0-2.694 6.143c.609 2.014 1.517 4.645 2.563 7.673 4.638 13.45 12.271 35.576 11.734 53.258a44.063 44.063 0 0 1-2.724 13.4c-.447 1.407-1.263 2.835-1.944 4.475-1.373 3.31-2.391 6.967-.083 9.423a3.506 3.506 0 0 0 .74.582q2.748 1.587 5.506 3.15c4.818 2.718 11.176 6.3 16.242 8.688a21.427 21.427 0 0 0 5.39 1.924 8.251 8.251 0 0 0 3.224-.256 12.668 12.668 0 0 0 3.068-1.313c.155-.081.305-.164.463-.25v-.009l.015-.009c-.006 0-.01 0-.015.009a.015.015 0 0 0 .005-.013h.018-.018c-.004 0 .01-.01.01-.014z" fill="#5a555a"/><path data-name="Path 13900" d="M128.594 213.119a11.917 11.917 0 0 1-3.509 1.16l-.09.014a4.312 4.312 0 0 1-2.2-.245c-1.746-.874-2-3.3-1.711-5.262l-11.128-6.424q-7.839-4.525-15.679-9.046c-.7 2.462-.779 4.884.9 6.67a3.506 3.506 0 0 0 .74.582q2.748 1.587 5.506 3.15c4.818 2.718 11.176 6.3 16.242 8.688a21.427 21.427 0 0 0 5.39 1.924 8.251 8.251 0 0 0 3.224-.256 12.235 12.235 0 0 0 2.362-.925z" fill="#2c282c"/><path data-name="Path 13901" d="M112.89 125.624q-.225-.738-.447-1.478a2.446 2.446 0 0 1 1.527-2.155c0-.325-5.752-4.369-6.4-4.8-6.044-4.057-16.99-10.269-19.241-11.576a5.759 5.759 0 0 0-2.841 4.194l3.417 1.972 8.847 5.112 8.866 5.114z" fill="#444044"/><path data-name="Path 13902" d="M132.829 206.865q-1.2.752-2.434 1.528c-.167.108-.34.217-.577.363-3.337 1.942-5.014 1.568-5.514.741-.464-.951.014-2.564.786-4.091a60.02 60.02 0 0 0 4.847-17.59c1.441-19.094-6.842-43.153-11.82-57.587-1.091-3.115-1.985-5.836-2.58-7.814a1.255 1.255 0 0 0-1.866-.509 2.914 2.914 0 0 0-1.246 3.353c.6 2.024 1.56 4.733 2.627 7.893 4.86 14.084 13.044 37.761 11.675 56.173a44.031 44.031 0 0 1-4.385 15.215c-1.759 3.555-1.911 6.484-.947 8.234 1.163 2.138 4.195 2.124 8.451-.317.232-.151.469-.3.7-.441q2.058-1.295 4.02-2.526z" fill="#2c282c"/></g><g data-name="Group 6714"><g data-name="Group 6712"><path data-name="Path 13903" d="M176.745 250.948l-2.564-1.486a13.731 13.731 0 0 1-1.106 5.086 15.822 15.822 0 0 1-6.159 7.493l2.564 1.491a13.43 13.43 0 0 0 3.937-3.5 18.278 18.278 0 0 0 2.391-4.129 12.491 12.491 0 0 0 .937-4.955z" fill="#a8a5a3"/><path data-name="Path 13904" d="M166.916 262.041l-41.2 23.851 2.515 1.453 41.244-23.813z" fill="#c9c7c5"/><path data-name="Path 13905" d="M176.088 196.869l-2.564-1.491.658 54.084 2.564 1.486z" fill="#a8a5a3"/><path data-name="Path 13906" d="M176.505 193.705a32.754 32.754 0 0 0-.433-3.732 26.476 26.476 0 0 0-5.371-12.426 19.071 19.071 0 0 0-5.46-4.774l-2.564-1.486c5.651 3.283 9.211 9.175 10.447 17.28a30.333 30.333 0 0 1 .391 3.647c.022.777.009 3.046.009 3.164l2.564 1.491a30.747 30.747 0 0 0 .417-3.164z" fill="#918e8c"/><path data-name="Path 13907" d="M166.164 171.21c-6.187-3.6-9.961-4.969-17.339-4.439-7.909.569-15.876 3.773-22.39 7.553q-1.911 1.1-3.82 2.355l2.564 1.491q1.909-1.256 3.82-2.36a70.566 70.566 0 0 1 7.7-3.828 48.776 48.776 0 0 1 13-3.5 31.3 31.3 0 0 1 8.931.148 22.36 22.36 0 0 1 6.7 2.125c.274.145.561.291.834.455z" fill="#a8a5a3"/><path data-name="Path 13908" d="M177.38 197.085c0-.181.049-3.632-.015-4.791a40.812 40.812 0 0 0-.545-4.046c-1.573-9-6.01-15.257-12.994-18.2-9.128-3.854-21.917-1.681-34.827 5.769q-1.913 1.106-3.82 2.36l.1 1.423a71.675 71.675 0 0 1 3.732-2.3c12.606-7.278 25.082-9.4 33.974-5.638 6.961 2.942 11.311 9.271 12.707 18.409a31.165 31.165 0 0 1 .39 3.646c.023.777.01 3.046.01 3.164l.657 54.079a13.4 13.4 0 0 1-1.069 5.011 15.805 15.805 0 0 1-6.2 7.573l-41.244 23.813.005 1.483 41.243-23.814c4.728-2.732 8.565-9.379 8.552-14.812z" fill="#534b48"/><path data-name="Path 13909" d="M125.179 178.17l-2.564-1.491.1 1.428 2.564 1.486z" fill="#918e8c"/></g><g data-name="Group 6713"><path data-name="Path 13910" d="M166.069 173.564l-5.06-2.706a19.992 19.992 0 0 1 8.355 9.7l4.8 2.8c-1.84-4.326-4.439-7.673-8.095-9.794z" fill="#444044"/><path data-name="Path 13911" d="M137.405 167.562l-.294 1.535 3.421 1.834-.219 1.2 1.483.64.61-2.452z" fill="#444044"/><path data-name="Path 13912" d="M158.728 168.91c2.922.391 5.9.874 8.459 2.384-3.07-1.786-6.012-3.751-9.434-4.776a26.253 26.253 0 0 0-7.792-1.08 39.249 39.249 0 0 0-10.889 1.628c-.55.155-1.1.318-1.667.5l4.809 2.8a41.772 41.772 0 0 1 16.514-1.456z" fill="#2c282c"/><path data-name="Path 13913" d="M142.214 170.357l-.418 2.41c15.353-4.9 27.454-.941 32.373 10.584l1.8-1.851c-5.155-12.075-17.775-16.243-33.755-11.143z" fill="#2c282c"/></g></g></g></g><g data-name="Group 6718" fill-rule="evenodd"><path data-name="Path 13914" d="M210.879 106.673l-16-9.7q-8.091-4.9-16.29-9.868-10.657 6.216-21.273 12.4-10.591 6.176-21.143 12.325 8.323 4.83 16.555 9.6l16.266 9.441 20.882-12.065q10.476-6.045 21.003-12.133z" fill="#fff"/><path data-name="Path 13915" d="M207.852 106.735q-7.252-4.389-14.588-8.824l-14.817-8.963-1.657.966 14.826 8.954 14.6 8.814c.536-.312 1.087-.63 1.636-.947z" fill="#ebe8e8"/><path data-name="Path 13916" d="M199.064 111.813l-14.637-8.774q-7.4-4.431-14.869-8.912 1.353-.786 2.714-1.582l14.852 8.928 14.623 8.79c-.895.522-1.795 1.037-2.683 1.55z" fill="#ebe8e8"/><path data-name="Path 13917" d="M186.786 118.82q-3.255-1.952-6.53-3.91t-6.571-3.937c-.49.283-.976.567-1.462.847l6.576 3.934 6.533 3.907z" fill="#ebe8e8"/><path data-name="Path 13918" d="M176.161 124.963q-3.268-1.939-6.557-3.885l-6.6-3.91 8.4-4.868 6.577 3.932q3.276 1.957 6.535 3.9z" fill="#ebe8e8"/><g data-name="Group 6717" fill="#ebe8e8"><path data-name="Path 13919" d="M170.089 109.543l-6.674-3.947-6.716-3.974c-.462.269-.919.537-1.377.8q3.37 1.989 6.72 3.971l6.677 3.943z"/><path data-name="Path 13920" d="M160.108 115.34l-6.7-3.921-6.741-3.949 7.885-4.6 6.722 3.969q3.348 1.977 6.679 3.941l-7.845 4.56z"/></g><path data-name="Path 13921" d="M173.629 126.519q-7.348-4.295-14.782-8.632l-15.014-8.766c.515-.3 1.035-.6 1.555-.907q7.544 4.41 15 8.775l14.773 8.64z" fill="#ebe8e8"/><path data-name="Path 13922" d="M169.473 128.922l-14.8-8.608-15.038-8.743 3.017-1.759 15.021 8.76q7.429 4.332 14.787 8.625-1.499.864-2.987 1.725z" fill="#ebe8e8"/><path data-name="Path 13923" d="M202.84 109.63q-7.266-4.374-14.616-8.793-7.383-4.44-14.846-8.934 1.061-.62 2.12-1.235 7.46 4.5 14.835 8.946l14.6 8.807-2.093 1.209z" fill="#ebe8e8"/><path data-name="Path 13924" d="M187.698 118.405l-14.637-8.774-14.868-8.912 2.714-1.581q7.467 4.486 14.852 8.928 7.347 4.414 14.622 8.789c-.896.518-1.791 1.037-2.683 1.55z" fill="#ebe8e8"/><path data-name="Path 13925" d="M191.392 116.185q-7.276-4.364-14.637-8.774l-14.868-8.913q1.353-.786 2.713-1.581l14.853 8.928 14.621 8.789q-1.342.783-2.682 1.551z" fill="#ebe8e8"/><path data-name="Path 13926" d="M195.905 113.391q-7.348-4.293-14.781-8.632l-15.014-8.766c.515-.3 1.035-.6 1.554-.906q7.545 4.41 15.005 8.775l14.773 8.64c-.514.298-1.028.593-1.537.889z" fill="#ebe8e8"/></g><g data-name="Group 6720"><path data-name="Path 13927" d="M188.659 124.071c4.268-.23 13.821-1.592 14.525-3.475l-.432-2.254c-.371-.969-4.187-2.394-8.245-3.644a65.1 65.1 0 0 0-8.381-1.889c-4.117-.827-7.1-.145-9.079 2.872-2.169 3.309-2.981 3.451-8.186 6.045l1.04 7.147c7.018 3.048 11.922 2.372 14.139-2.63.552-1.244 1.785-2.017 4.619-2.172z" fill="#e8a476" fill-rule="evenodd"/><path data-name="Path 13928" d="M138.218 121.825l32.833-5.562c7 1.492 5.179 13.774.945 15.426l-32.076 7.579c-4.769.4-9.347 1.408-11.73-4.3-1.176-2.814.309-6.24 2.383-8.876 1.899-2.407 4.09-3.587 7.645-4.267z" fill="#1abac6" fill-rule="evenodd"/><g data-name="Group 6719"><path data-name="Path 13929" d="M133.758 82.704c5.831 4.056 8.251 21.684 9.954 38.161.056.535-6.848 17.869-9.312 18.409-2.389.523-6.405.321-6.952-2.822-1.394-7.986-5.98-26.251-6.875-33.85-.986-8.382-1.661-15.351 7.05-19.281 1.361-.614 4.766-1.569 6.135-.617z" fill="#1abac6" fill-rule="evenodd"/></g><path data-name="Path 13930" d="M175.745 123.301c.075 3.667-1.374 7.585-3.749 8.388l-32.516 7.683c-4.766.493-9.809 2.358-12.049-3a5.61 5.61 0 0 1-.41-2.425c4.962 4.508 35.499-4.985 48.724-10.646z" fill="#169ca6" fill-rule="evenodd"/></g></g></svg>