<svg xmlns="http://www.w3.org/2000/svg" width="386.712" height="318.916" viewBox="0 0 386.712 318.916">
  <g id="Group_6683" data-name="Group 6683" transform="translate(-4709.497 -2813.015)">
    <path id="Path_13651" data-name="Path 13651" d="M5092.764,3043.736c-79.737-46.339-164.454-95.573-243.743-141.649-8.97,5.18-103.446,59.992-136.074,78.9a6.923,6.923,0,0,0,0,11.976l75.068,43.626a6.929,6.929,0,0,1,0,11.979l-37.523,21.806a6.912,6.912,0,0,0-.044,11.928c17.217,10.189,51.491,30.522,69.252,41.033a21.781,21.781,0,0,0,22.045.088l44.359-25.779a6.946,6.946,0,0,1,6.975,0l54.994,31.959a17.156,17.156,0,0,0,17.227.012c26.028-15.084,99.5-57.706,127.466-73.917A6.917,6.917,0,0,0,5092.764,3043.736Z" fill="#231f20" fill-rule="evenodd" opacity="0.1" style="mix-blend-mode: multiply;isolation: isolate"/>
    <g id="Group_6667" data-name="Group 6667">
      <g id="Group_6664" data-name="Group 6664">
        <g id="Group_6654" data-name="Group 6654">
          <g id="Group_6651" data-name="Group 6651">
            <g id="Group_6650" data-name="Group 6650">
              <path id="Path_13652" data-name="Path 13652" d="M4884.376,3039.172c-1.281,1.218-2.774,1.816-5.74,3.587v2.614c-3.071,5.378-6.034,7.823-9.922,6.676-5.42-1.6-7.062-2.935-7.126-6.812-.618-6.6-.756-7.842,1.023-12.706a39.044,39.044,0,0,1,11.746-5.5c3.148-1,7.893-3.752,12.465-4.959a3.5,3.5,0,0,1,4.379,3.266C4891.447,3029.475,4887.8,3035.536,4884.376,3039.172Z" fill="#111214" fill-rule="evenodd"/>
              <path id="Path_13653" data-name="Path 13653" d="M4884.376,3039.172c-1.281,1.218-2.774,1.816-5.74,3.587v2.614c-3.071,5.378-6.034,7.823-9.922,6.676-5.42-1.6-7.062-2.934-7.126-6.812a40.464,40.464,0,0,1-.342-7.551c7.209,3.685,13.332,3.347,20.055-3.594,2.017-2.083,7.937-7.469,8.446-11.484a3.889,3.889,0,0,1,1.454,2.735C4891.447,3029.475,4887.8,3035.537,4884.376,3039.172Z" fill-rule="evenodd"/>
            </g>
            <path id="Path_13654" data-name="Path 13654" d="M4892.534,2983.17c-4.771,17.5-8.933,31.125-14.35,48.451a11.266,11.266,0,0,1-5.373,6.669c-4.59,2.464-10.94,2.689-12.185-.872,1.071-17.608,1.648-27.237,3.146-36.75,1.248-7.918,1.928-15.462,5.968-21.852C4874.39,2963.136,4897.416,2965.267,4892.534,2983.17Z" fill="#001624" fill-rule="evenodd"/>
            <path id="Path_13655" data-name="Path 13655" d="M4885.66,3007.262c-2.333,7.826-4.745,15.622-7.476,24.359a11.262,11.262,0,0,1-5.373,6.668,15.469,15.469,0,0,1-6.643,1.826c.825-5.479,2.819-13.548,4.124-18.961a27.242,27.242,0,0,1-8.913,3.459c.173-2.689.3-3.841.47-6.148Z" fill="#00101a" fill-rule="evenodd"/>
          </g>
          <g id="Group_6653" data-name="Group 6653">
            <g id="Group_6652" data-name="Group 6652">
              <path id="Path_13656" data-name="Path 13656" d="M4894.182,3046.929c1.513-.407,5.421-6.361,10.9-5.19,6.576,1.405,14.212-2.32,20.143-2.392,1.058-.013,2.394-.278,3.036.2,2.823,2.106,3.169,4.29.737,7.059a42.478,42.478,0,0,1-7.828,6.466,50.405,50.405,0,0,1-8.85,5.016c-2.664,1.106-4.459.953-6.87,1.81l-.152,2.1a11.471,11.471,0,0,1-5.412,2.768c-3.394.3-7.372-1.874-10.229-4.922-.33-3.468-1.565-6.919.218-12.015Z" fill="#111214" fill-rule="evenodd"/>
              <path id="Path_13657" data-name="Path 13657" d="M4929.962,3041.233c1.109,1.609.826,3.332-.968,5.375a42.478,42.478,0,0,1-7.828,6.466,50.405,50.405,0,0,1-8.85,5.016c-2.664,1.106-4.459.953-6.87,1.81l-.152,2.1a11.471,11.471,0,0,1-5.412,2.768c-3.394.3-7.372-1.874-10.229-4.922-.252-2.647-1.03-5.283-.593-8.649,7.316,5.6,11.821,1.81,14.633,1.667,4.172-.213,10.2.151,19.489-6.518C4925.333,3044.8,4927.652,3043.094,4929.962,3041.233Z" fill-rule="evenodd"/>
              <path id="Path_13658" data-name="Path 13658" d="M4909.084,3048.819c1.7-2.964,1.7-4.908,1.136-6.081l11.687-2.308c5.728-1.188,6.892-.112,5.372,1.24C4922.176,3046.214,4915.456,3047.348,4909.084,3048.819Z" fill="#20232e" fill-rule="evenodd"/>
            </g>
            <path id="Path_13659" data-name="Path 13659" d="M4910.375,2969.751c-.443,18.075-1.014,57.455-2.59,75.857-1.132,5.908-15.083,11.5-20.4,5.621-1-17.58-3.019-32.163-2.21-41.819.674-8.038.887-32.019,3.837-39.1C4891.275,2961.386,4910.762,2953.991,4910.375,2969.751Z" fill="#001e30" fill-rule="evenodd"/>
            <path id="Path_13660" data-name="Path 13660" d="M4910.886,2972.082c-.442,18.076-1.525,55.124-3.1,73.526-.519,2.711-3.74,5.354-7.585,6.854,1-13.295,1.679-27.107,3.3-40.219.731-5.9,1.507-11.171,2.06-15.756.788-6.546,1.6-28.566-1.042-34.8a12.516,12.516,0,0,0-3.932-5.259,11.963,11.963,0,0,1,6.449,3.774,15.669,15.669,0,0,1,3.619,8.8A14.187,14.187,0,0,1,4910.886,2972.082Z" fill="#001624" fill-rule="evenodd"/>
            <path id="Path_13661" data-name="Path 13661" d="M4897.526,3051.9c-4.143,1.225-7.8.2-9.5-1.534-1.065-33.056-2.285-38.245,4.724-50.9,2.454-4.43,5.691-9.013,10.833-17.721C4900.195,3006.977,4900.679,3023.97,4897.526,3051.9Z" fill="#00263d" fill-rule="evenodd"/>
          </g>
        </g>
        <g id="Group_6660" data-name="Group 6660">
          <g id="Group_6657" data-name="Group 6657">
            <g id="Group_6655" data-name="Group 6655">
              <path id="Path_13662" data-name="Path 13662" d="M4832.241,3031.912l-2.564-1.487a13.723,13.723,0,0,1-1.106,5.087,15.821,15.821,0,0,1-6.159,7.493l2.564,1.491a13.408,13.408,0,0,0,3.937-3.5,18.276,18.276,0,0,0,2.391-4.129A12.5,12.5,0,0,0,4832.241,3031.912Z" fill="#a8a5a3" fill-rule="evenodd"/>
              <path id="Path_13663" data-name="Path 13663" d="M4822.412,3043l-41.2,23.851,2.517,1.454,41.243-23.813Z" fill="#c9c7c5" fill-rule="evenodd"/>
              <path id="Path_13664" data-name="Path 13664" d="M4831.584,2977.833l-2.564-1.491.657,54.083,2.564,1.487Z" fill="#a8a5a3" fill-rule="evenodd"/>
              <path id="Path_13665" data-name="Path 13665" d="M4832,2974.669a32.646,32.646,0,0,0-.433-3.732,26.471,26.471,0,0,0-5.371-12.426,19.047,19.047,0,0,0-5.46-4.774l-2.564-1.486c5.651,3.283,9.21,9.174,10.447,17.281a30.08,30.08,0,0,1,.39,3.646c.023.777.01,3.046.01,3.164l2.564,1.491A30.708,30.708,0,0,0,4832,2974.669Z" fill="#918e8c" fill-rule="evenodd"/>
              <path id="Path_13666" data-name="Path 13666" d="M4821.66,2952.174v0c-6.188-3.6-9.961-4.97-17.339-4.438-7.909.568-15.876,3.772-22.39,7.552q-1.911,1.1-3.82,2.355l2.564,1.491q1.91-1.254,3.82-2.359a70.255,70.255,0,0,1,7.7-3.828,48.785,48.785,0,0,1,13-3.5,31.3,31.3,0,0,1,8.931.148,22.39,22.39,0,0,1,6.7,2.125C4821.1,2951.865,4821.387,2952.01,4821.66,2952.174Z" fill="#a8a5a3" fill-rule="evenodd"/>
              <path id="Path_13667" data-name="Path 13667" d="M4832.876,2978.047c0-.183.049-3.633-.014-4.792a40.738,40.738,0,0,0-.546-4.047c-1.573-9-6.01-15.256-12.993-18.2-9.129-3.855-21.918-1.682-34.828,5.77q-1.911,1.1-3.82,2.359l.1,1.423c1.24-.818,2.492-1.587,3.732-2.3,12.607-7.279,25.082-9.4,33.975-5.637,6.96,2.941,11.31,9.27,12.706,18.407a31.548,31.548,0,0,1,.391,3.647c.022.778.009,3.046.009,3.164l.657,54.079a13.425,13.425,0,0,1-1.069,5.011,15.811,15.811,0,0,1-6.2,7.573l-41.243,23.813,0,1.482,41.243-23.813c4.728-2.732,8.565-9.379,8.552-14.811Z" fill="#534b48" fill-rule="evenodd"/>
              <path id="Path_13668" data-name="Path 13668" d="M4780.675,2959.134l-2.564-1.491.1,1.427,2.564,1.486Z" fill="#918e8c" fill-rule="evenodd"/>
            </g>
            <g id="Group_6656" data-name="Group 6656">
              <path id="Path_13669" data-name="Path 13669" d="M4821.566,2954.527l-5.061-2.705a19.987,19.987,0,0,1,8.355,9.7l4.805,2.8C4827.82,2960,4825.221,2956.651,4821.566,2954.527Z" fill="#03868f" fill-rule="evenodd"/>
              <path id="Path_13670" data-name="Path 13670" d="M4792.9,2948.525l-.294,1.536,3.421,1.834-.219,1.2,1.483.639.61-2.452Z" fill="#03868f" fill-rule="evenodd"/>
              <path id="Path_13671" data-name="Path 13671" d="M4814.224,2949.874c2.922.391,5.9.874,8.459,2.384-.007-.005,0,0,0,0-3.07-1.786-6.012-3.751-9.434-4.776a26.245,26.245,0,0,0-7.792-1.08,39.259,39.259,0,0,0-10.889,1.628c-.55.155-1.1.318-1.667.495l4.809,2.8A41.776,41.776,0,0,1,4814.224,2949.874Z" fill="#07acb8" fill-rule="evenodd"/>
              <path id="Path_13672" data-name="Path 13672" d="M4797.71,2951.322l-.418,2.409c15.353-4.9,27.455-.941,32.373,10.584l1.8-1.85C4826.311,2950.389,4813.69,2946.221,4797.71,2951.322Z" fill="#079da8" fill-rule="evenodd"/>
            </g>
          </g>
          <g id="Group_6658" data-name="Group 6658">
            <path id="Path_13673" data-name="Path 13673" d="M4779.543,3070.757c-1.6.922-2.4,2.136-2.393,3.35v1.482c0-1.214.8-2.428,2.4-3.35l.115-.923Z" fill="#665c59" fill-rule="evenodd"/>
            <path id="Path_13674" data-name="Path 13674" d="M4804.647,3056.263l-25.1,14.494,0,1.482,25.1-14.493Z" fill="#534b48" fill-rule="evenodd"/>
            <path id="Path_13675" data-name="Path 13675" d="M4776.791,3080.3a1.547,1.547,0,0,0,.142.086l0-1.481a8.265,8.265,0,0,1-2.045-1.693,4.3,4.3,0,0,1-.923-1.245l-.068-.15a4.256,4.256,0,0,1-.378-1.7,14.031,14.031,0,0,0,.027,1.868,4.712,4.712,0,0,0,1.046,2.446A8.219,8.219,0,0,0,4776.791,3080.3Z" fill="#665c59" fill-rule="evenodd"/>
            <path id="Path_13676" data-name="Path 13676" d="M4817.625,3102.415l-40.7-23.511,0,1.482,40.7,23.512Z" fill="#918e8c" fill-rule="evenodd"/>
            <path id="Path_13677" data-name="Path 13677" d="M4859.374,3087.926l-25.1,14.493,0,1.482,25.1-14.492Z" fill="#534b48" fill-rule="evenodd"/>
            <path id="Path_13678" data-name="Path 13678" d="M4834.279,3103.9l-.006-1.482a14.771,14.771,0,0,1-4.39,1.593,19.894,19.894,0,0,1-7.326.106,15.124,15.124,0,0,1-4.932-1.7l0,1.483a15.648,15.648,0,0,0,5,1.724,20.406,20.406,0,0,0,7.432-.157A14.825,14.825,0,0,0,4834.279,3103.9Z" fill="#665c59" fill-rule="evenodd"/>
            <path id="Path_13679" data-name="Path 13679" d="M4856.809,3086.44l-25.1,14.489a12.684,12.684,0,0,1-11.506,0l-40.693-23.513c-3.164-1.835-3.145-4.823.033-6.654l25.1-14.494-2.564-1.492-25.1,14.494c-4.6,2.655-4.624,6.978-.051,9.639l40.7,23.511c4.578,2.66,12.047,2.66,16.648,0l25.1-14.493Z" fill="#c9c7c5" fill-rule="evenodd"/>
          </g>
          <g id="Group_6659" data-name="Group 6659">
            <path id="Path_13680" data-name="Path 13680" d="M4892.44,2991.753c-.83-1.361-3.385-2.953-4.114-3.485-9.078-6.639-26.724-16.524-37.386-22.339-4.082-2.143-8.016-4.372-12.234-6.272-.119-.054-.239-.108-.359-.16-3.032-1.363-3.5-1.859-6.358-.594-1.106.481-2.263,1.091-3.353,1.63-8.617,4.266-19.025,10.358-27.285,15.473l-19.1,11.832h0l56.8,33.6.254.361c2.07-1.3,4.642-2.936,6.575-4.145,11.632-7.256,20.4-12.475,27-16.23.769-.428,1.541-.86,2.318-1.287,2.628-1.414,5.411-2.892,8.47-4.506q2.154-1.11,4.4-2.246c3.42-1.419,3.659.429,2.8,2.316a2.239,2.239,0,0,0,.619-.355,3.392,3.392,0,0,0,.883-1.079A2.606,2.606,0,0,0,4892.44,2991.753Z" fill="#444044" fill-rule="evenodd"/>
            <path id="Path_13681" data-name="Path 13681" d="M4783.111,2987.3c-.976.559-8.729,2.327-9.98,2.137,15.984,15.006,48.3,26,58.2,34.184.831.709,2.511-.606,3.622-.464,1.338.212,3.384-.826,4.359-1.391.012-.161-.473-.6-.575-.711C4825.532,3007.1,4794.43,2993.749,4783.111,2987.3Z" fill="#444044" fill-rule="evenodd"/>
            <path id="Path_13682" data-name="Path 13682" d="M4892.44,2991.753c-.83-1.361-3.385-2.953-4.114-3.485-10.778-7.883-25.53-15.873-37.386-22.339-4.082-2.143-8.016-4.372-12.234-6.272-.119-.054-.239-.108-.359-.16-2.739-1.231-3.388-1.755-5.593-.912,12.294,6.978,49.2,26.521,59.722,35.458A2.508,2.508,0,0,0,4892.44,2991.753Z" fill="#03868f" fill-rule="evenodd"/>
            <path id="Path_13683" data-name="Path 13683" d="M4838.091,3026.134a11.908,11.908,0,0,1-3.509,1.16l-.09.014a4.313,4.313,0,0,1-2.2-.245c-1.746-.874-2-3.3-1.711-5.262l-11.128-6.424q-23.317-13.459-46.64-26.907a5.616,5.616,0,0,0,.485,4.112c1.194,1.907,4.512,4.013,5.9,4.971,12.253,8.479,34.561,21.543,47.967,27.868a21.412,21.412,0,0,0,5.39,1.924,8.243,8.243,0,0,0,3.223-.256,12.216,12.216,0,0,0,2.363-.925Z" fill="#03868f" fill-rule="evenodd"/>
            <path id="Path_13684" data-name="Path 13684" d="M4891.12,2991.866c-8.529,4.223-15.821,8.115-22.931,12.22-8.9,5.137-17.59,10.6-28.3,17.322-.167.108-.34.217-.577.363-3.337,1.942-5.014,1.568-5.514.741-.464-.951.014-2.564.786-4.091l-2.748-.866c-1.759,3.555-1.911,6.484-.947,8.234,1.163,2.138,4.195,2.124,8.451-.317.232-.151.468-.3.7-.441,10.644-6.693,19.277-12.107,28.138-17.226,7.065-4.078,14.225-7.97,22.835-12.171a3.577,3.577,0,0,0,1.6-2.645C4892.679,2991.934,4892.011,2991.43,4891.12,2991.866Z" fill="#2c282c" fill-rule="evenodd"/>
          </g>
        </g>
        <g id="Group_6663" data-name="Group 6663">
          <g id="Group_6661" data-name="Group 6661">
            <path id="Path_13685" data-name="Path 13685" d="M4883.19,2972.782c6.214-3.5,18.517-12.632,12.848-18.059-5.783-13.755-25.115-7.759-32.472-5.6-11.167,3.281-39.9,10.514-50.869,22.219l-19.208-19.321c-2.174,9.926-6.168,23.567-4.014,34.666,1.321,6.81,2.166,8.877,8.051,12.335,3.878,2.279,8.7,4.377,11.363,4.9a22.682,22.682,0,0,0,14.417-1.876C4836.94,2995.515,4875.17,2977.3,4883.19,2972.782Z" fill="#001624" fill-rule="evenodd"/>
            <path id="Path_13686" data-name="Path 13686" d="M4855.514,2974.317c4.434-2.5,29.125-7.778,31.829-12.782.623-1.155-.547-3.279-1.172-4.374-11.726.019-37.625,6.7-53.406,12.941Z" fill="#00101a" fill-rule="evenodd"/>
          </g>
          <g id="Group_6662" data-name="Group 6662">
            <path id="Path_13687" data-name="Path 13687" d="M4904.869,2977.584c6.215-3.5,6.168-12.6,1.142-18.627-2.941-3.527-8.654-5.173-15.992-3.894-11.621,2.029-49.9,17.561-60.87,25.4l-22.959-23.414c-2.173,9.928-2.758,27.659-.6,38.759,1.321,6.81,2.506,8.877,8.392,12.335,3.877,2.279,8.7,4.378,11.363,4.9a22.675,22.675,0,0,0,14.417-1.877C4853.392,3004.636,4896.85,2982.106,4904.869,2977.584Z" fill="#001e30" fill-rule="evenodd"/>
            <path id="Path_13688" data-name="Path 13688" d="M4843.433,2972.227a105.737,105.737,0,0,0-14.284,8.238l-22.959-23.414c-2.173,9.928-2.758,27.659-.6,38.759,1.321,6.81,2.506,8.877,8.392,12.335,3.877,2.279,8.7,4.378,11.363,4.9a22.675,22.675,0,0,0,14.417-1.877c7.361-3.528,42.158-20.874,52.336-26.761,4.539-3.967,9.29-14.606,8.637-14.371-16.12,12.787-40.425,20.3-49.606,25.039C4850.432,2992.491,4850.613,2977.164,4843.433,2972.227Z" fill="#001624" fill-rule="evenodd"/>
            <path id="Path_13689" data-name="Path 13689" d="M4898.369,2954.941c9.995,1.432,16.447,14.468,8.063,22.231a45.064,45.064,0,0,0-.7-10.544A19.418,19.418,0,0,0,4898.369,2954.941Z" fill="#11101a" fill-rule="evenodd"/>
            <path id="Path_13690" data-name="Path 13690" d="M4897.753,2967.549c5.977-2.775,3.037-9.592-.732-10.516-8.061-1.975-37.909,10.523-48.982,15.213,3.645,2.951,5.351,9.746,6.08,14.463C4862.7,2983.118,4888.805,2971.7,4897.753,2967.549Z" fill="#00263d" fill-rule="evenodd"/>
          </g>
        </g>
      </g>
      <g id="Group_6666" data-name="Group 6666">
        <path id="Path_13691" data-name="Path 13691" d="M4832.7,2968.287c9.795-3.183,19.2-6.9,28.983-10.116-2.407-4.091-6.257-5.229-10.387-5.489-13.186,3.981-30.606,10.134-38.6,18.662C4810.258,2968.89,4825.317,2977.174,4832.7,2968.287Z" fill="#e0f5ff" fill-rule="evenodd"/>
        <g id="Group_6665" data-name="Group 6665">
          <path id="Path_13692" data-name="Path 13692" d="M4840.844,2973.871a91.154,91.154,0,0,0-11.7,6.594l-22.959-23.414c-2.173,9.928-2.758,27.659-.6,38.759,1.321,6.81,2.506,8.877,8.392,12.335,3.877,2.279,8.7,4.378,11.363,4.9a22.675,22.675,0,0,0,14.417-1.877c8.8-4.22,30.044-15.11,46.147-23.513.164-8.808-1.825-17.09-8.766-23.69-11.872,3.919-26.011,7.761-35.119,11.365Q4841.438,2974.561,4840.844,2973.871Z" fill="#00263d" fill-rule="evenodd"/>
        </g>
      </g>
    </g>
    <g id="Group_6668" data-name="Group 6668">
      <path id="Path_13693" data-name="Path 13693" d="M4861.463,2905.526l-5.268-2.592a26.72,26.72,0,0,1-2.152,9.9c-2.4,5.779-6.815,11.642-11.979,14.573l4.987,2.9c6.293-3.707,9.871-7.786,12.572-14.607C4860.593,2913.243,4861.764,2908.435,4861.463,2905.526Z" fill="#a8a5a3" fill-rule="evenodd"/>
      <path id="Path_13694" data-name="Path 13694" d="M4855.424,2839.5l.771,63.438,4.987,2.893-.358-63.155-.139-6.351C4858.988,2837.344,4857.229,2838.405,4855.424,2839.5Z" fill="#a8a5a3" fill-rule="evenodd"/>
      <path id="Path_13695" data-name="Path 13695" d="M4765.025,2971.628l1.532,1.088,3.616,1.681c53.662-30.595,23.394-13.214,76.879-44.095l-4.988-2.9C4788.6,2958.358,4818.533,2940.735,4765.025,2971.628Z" fill="#c9c7c5" fill-rule="evenodd"/>
      <path id="Path_13696" data-name="Path 13696" d="M4770.173,2974.4l-5.148-2.769c-3.127,1.788-7.758,2.3-11.1.415C4760.587,2976.818,4763.986,2978.05,4770.173,2974.4Z" fill="#bfbdbb" fill-rule="evenodd"/>
      <path id="Path_13697" data-name="Path 13697" d="M4752.846,2967.521l-5.534-3.3c.014,5.43,1.658,9.18,4.762,10.983l5.813,3.379C4754.784,2976.777,4752.86,2972.951,4752.846,2967.521Z" fill="#c9c7c5" fill-rule="evenodd"/>
      <path id="Path_13698" data-name="Path 13698" d="M4747.248,2902.563l.064,61.666,5.535,3.292.549-67.8C4751.217,2900.744,4749.151,2901.7,4747.248,2902.563Z" fill="#d6d4d2" fill-rule="evenodd"/>
      <path id="Path_13699" data-name="Path 13699" d="M4755.259,2898.847l.185,67.173c.028,9.292,6.627,13.056,14.729,8.377,53.417-30.836,23.464-13.254,76.879-44.095,5.1-2.94,9.565-8.633,12.051-14.729a26.1,26.1,0,0,0,2.079-9.746l-.773-63.6-.069-5.692,2.5-1.5.856,69.349c.027,10.567-7.436,23.494-16.633,28.808-53.458,30.868-23.424,13.329-76.886,44.2-9.52,5.5-17.3,1.081-17.327-9.86-.129-22.344-.743-44.756-.839-67.15C4753.062,2899.88,4754.149,2899.37,4755.259,2898.847Z" fill="#534b48" fill-rule="evenodd"/>
    </g>
    <g id="Group_6671" data-name="Group 6671">
      <g id="Group_6669" data-name="Group 6669">
        <path id="Path_13700" data-name="Path 13700" d="M5065.021,3022.818l-5.269-2.591a26.742,26.742,0,0,1-2.15,9.894c-2.4,5.78-6.817,11.643-11.98,14.573l4.987,2.9c6.293-3.707,9.87-7.785,12.572-14.608C5064.152,3030.536,5065.322,3025.728,5065.021,3022.818Z" fill="#a8a5a3" fill-rule="evenodd"/>
        <path id="Path_13701" data-name="Path 13701" d="M5058.982,2956.788l.77,63.439,4.988,2.893-.358-63.155-.139-6.35C5062.545,2954.637,5060.786,2955.7,5058.982,2956.788Z" fill="#a8a5a3" fill-rule="evenodd"/>
        <path id="Path_13702" data-name="Path 13702" d="M4968.582,3088.92l1.532,1.089,3.617,1.681c53.663-30.595,23.394-13.214,76.878-44.095l-4.987-2.9C4992.155,3075.65,5022.09,3058.028,4968.582,3088.92Z" fill="#c9c7c5" fill-rule="evenodd"/>
        <path id="Path_13703" data-name="Path 13703" d="M4973.731,3091.69l-5.149-2.77c-3.125,1.789-7.758,2.3-11.1.416C4964.144,3094.111,4967.544,3095.343,4973.731,3091.69Z" fill="#bfbdbb" fill-rule="evenodd"/>
        <path id="Path_13704" data-name="Path 13704" d="M4956.4,3084.813l-5.534-3.3c.014,5.43,1.658,9.182,4.761,10.985l5.814,3.378C4958.342,3094.07,4956.418,3090.244,4956.4,3084.813Z" fill="#c9c7c5" fill-rule="evenodd"/>
        <path id="Path_13705" data-name="Path 13705" d="M4950.805,3019.855l.065,61.666,5.534,3.292.55-67.8C4954.774,3018.036,4952.709,3018.991,4950.805,3019.855Z" fill="#d6d4d2" fill-rule="evenodd"/>
        <path id="Path_13706" data-name="Path 13706" d="M4958.816,3016.139l.186,67.173c.027,9.293,6.627,13.057,14.729,8.378,53.416-30.835,23.464-13.254,76.878-44.095,5.1-2.94,9.566-8.633,12.052-14.73a26.1,26.1,0,0,0,2.079-9.745l-.773-63.605-.069-5.692,2.5-1.5.857,69.349c.026,10.567-7.436,23.5-16.633,28.809-53.459,30.866-23.425,13.328-76.886,44.2-9.521,5.5-17.3,1.081-17.327-9.861-.13-22.344-.744-44.755-.838-67.149C4956.62,3017.173,4957.707,3016.663,4958.816,3016.139Z" fill="#534b48" fill-rule="evenodd"/>
      </g>
      <g id="Group_6670" data-name="Group 6670">
        <path id="Path_13707" data-name="Path 13707" d="M4855.265,2813.015l-7.242,4.212-7.269,4.227c-41.574,24.135-65.212,38.1-106.792,62.222a82.406,82.406,0,0,0-8.668,5.621c-1.528,1.3-2.065,3.572-2.065,5.5v1.894a7.89,7.89,0,0,0,3.463,6.915l14.353,8.279q64.835,37.554,129.779,74.93c42.11,24.308,18.073,9.757,60.183,34.066l3.463,2,14.338,8.273,7.241-4.2,14.568-8.462,7.313-4.257,7.313-4.257,7.342-4.257q22.077-12.84,44.164-25.669c14.657-8.523,11.415-6.813,26.078-15.325l7.27-4.225,7.241-4.216a5.194,5.194,0,0,0,.732-.5c.072-.063.144-.146.23-.209,1.449-1.369,1.662-2.213,2.285-4.017,0-.021.014-.031.014-.052a18.723,18.723,0,0,0,.23-4.013c.014-.221,0-.439,0-.653-.029-.225-.043-.447-.072-.665s-.072-.426-.115-.633a4.223,4.223,0,0,0-.144-.6c-.057-.189-.1-.376-.172-.559s-.115-.349-.187-.518-.157-.32-.23-.475-.158-.29-.229-.43-.158-.257-.23-.383c-.087-.112-.159-.223-.23-.33-.087-.1-.158-.193-.23-.287s-.158-.17-.23-.252a1.314,1.314,0,0,0-.2-.208,2.119,2.119,0,0,0-.188-.186,1.635,1.635,0,0,0-.187-.161,1.894,1.894,0,0,0-.186-.152c-.058-.047-.13-.094-.187-.138-.432-.3-.9-.551-1.356-.814l-13.428-7.752L5048.675,2924c-55.8-32.22-1.628-.58,22.946,13.928l-14.439-8.331-14.426-8.336q-43.373-25.008-86.72-50.065l-14.439-8.336-14.424-8.332-14.425-8.323-14.41-8.315-14.367-8.3Z" fill="#534b48" fill-rule="evenodd"/>
        <path id="Path_13708" data-name="Path 13708" d="M4855.246,2813.771v-.282a.072.072,0,0,1-.014-.051v-.358l-7.241,4.212-7.27,4.227c-41.574,24.135-65.211,38.1-106.793,62.223l-7.226,4.212a2.62,2.62,0,0,1,.388-.205c.1-.048.2-.095.3-.136.071-.03.158-.058.229-.084a1.629,1.629,0,0,1,.188-.058,1.458,1.458,0,0,1,.157-.043c.043-.013.1-.025.158-.037s.072-.019.115-.028l.129-.021c.044-.007.072-.013.116-.017a1.082,1.082,0,0,1,.129-.017c.028-.005.072-.008.115-.012.028,0,.072-.006.1-.007l.115-.008c.029,0,.071,0,.1,0h.086l126.116-73.456Z" fill="#9d908e" fill-rule="evenodd"/>
        <path id="Path_13709" data-name="Path 13709" d="M4912.715,2846.268l-14.41-8.316-14.368-8.3-28.705-16.57h0v.39a.53.53,0,0,1,.014.153v.2l219.674,126.148a4.8,4.8,0,0,1,2.384.648c.015,0,.03.009.03.015L5063,2932.354l-14.353-8.291c-55.8-32.222-1.628-.581,22.946,13.929l-14.439-8.332-14.425-8.336q-43.374-25.01-86.721-50.066l-14.439-8.335-14.424-8.332" fill="#9d908e" fill-rule="evenodd"/>
        <path id="Path_13710" data-name="Path 13710" d="M4723.2,2896.752a7.892,7.892,0,0,0,3.463,6.915c90.181,52.014,114.128,65.213,204.315,117.276l3.462,2,14.339,8.273c0,.011.015-1.81.029-4.885l-208.3-120.187Z" fill="#534b48" fill-rule="evenodd"/>
        <path id="Path_13711" data-name="Path 13711" d="M4948.8,3026.329c0,1.6-.029,3.2-.029,4.8h0v.083c46.406-26.946,74.9-43.691,121.288-70.657l7.241-4.216c2.33-1.32,3.493-4.349,3.493-6.858v-.041C5030.775,2978.512,4998.735,2997.288,4948.8,3026.329Z" fill="#534b48" fill-rule="evenodd"/>
        <path id="Path_13712" data-name="Path 13712" d="M4948.8,3024.436v1.893l131.993-76.887v-1.894l-9.983,3.72Z" fill="#534b48" fill-rule="evenodd"/>
        <path id="Path_13713" data-name="Path 13713" d="M4723.2,2894.859v1.893L4948.8,3026.329v-1.893L4741.565,2904.2Z" fill="#534b48" fill-rule="evenodd"/>
        <path id="Path_13714" data-name="Path 13714" d="M5079.646,2943.018l-16.418,6.21-114.41,70v4.54c-.014.219-.014.45-.014.669l131.993-76.888A8.842,8.842,0,0,0,5079.646,2943.018Z" fill="#534b48" fill-rule="evenodd"/>
        <path id="Path_13715" data-name="Path 13715" d="M4724.575,2890.03a8.893,8.893,0,0,0-1.379,4.829L4948.8,3024.436c.014-.868.014-1.768.014-2.657v-2.96l-217.289-126.272Z" fill="#534b48" fill-rule="evenodd"/>
        <path id="Path_13716" data-name="Path 13716" d="M4948.818,3017.261v-3.839L4751,2897.354l-21.867-10.077a4.784,4.784,0,0,0-.992.109c-.115.025-.23.055-.344.088a2.74,2.74,0,0,0-.287.1c-.1.034-.187.071-.274.11a2.384,2.384,0,0,0-.272.126,2.932,2.932,0,0,0-.274.149,3.178,3.178,0,0,0-.272.173c-.1.069-.216.142-.316.218s-.216.176-.317.271a4.487,4.487,0,0,0-.359.341c-.143.143-.273.293-.4.45a4.191,4.191,0,0,0-.446.621l224.243,128.789v-1.558Z" fill="#534b48" fill-rule="evenodd"/>
        <path id="Path_13717" data-name="Path 13717" d="M4948.818,3018.234v.993l130.828-76.209a5.623,5.623,0,0,0-4.711-3.049h-.015l-16.442,6.9-109.66,66.558v4.812Z" fill="#534b48" fill-rule="evenodd"/>
        <path id="Path_13718" data-name="Path 13718" d="M4855.038,2813.821c-47.024,27.325-79.092,46.134-126.116,73.456,94.292,54.436,125.4,71.712,219.688,126.145,47.009-27.322,79.078-46.13,126.1-73.453C4980.42,2885.533,4949.316,2868.256,4855.038,2813.821Z" fill="#ba6a21" fill-rule="evenodd"/>
      </g>
    </g>
    <path id="Path_13719" data-name="Path 13719" d="M4829.786,2912.5c3.207-1.309,8.246-2.825,9.864-5.027,3.512-4.778,7.849-11.147,10.708-11.455l10.943-1.178,8.249,10.06a7.421,7.421,0,0,1-4.929,1.182c-2.74-.321-8.217-4.255-8.786-3.552l-5.209,6.438,7.493-3.314c3.1-.513,4.66.691,4.924,1.828.235,1.008-.759,2.33-2.719,3.255a24.742,24.742,0,0,0-7.87,5.261c-2.7,2.472-5.88,2.8-11.325,3.475-.528.064-9.022,4.037-9.593,4.112Z" fill="#e8a476" fill-rule="evenodd"/>
    <path id="Path_13720" data-name="Path 13720" d="M4851.433,2883.2c-.393-.919-.854-1.3-2.277-.7s-.85,1.626-.458,2.545l6.28,22.267c2.471-1.108.629-1.207,2.687-.954C4857.582,2905.689,4851.618,2883.626,4851.433,2883.2Z" fill="#00263d" fill-rule="evenodd"/>
    <path id="Path_13721" data-name="Path 13721" d="M4794.365,2920.016l41.117-10.422c4.618,0,6.142,9.94,2.98,11.639l-40.277,18.055c-5.177.807-8.959-.167-10.7-2.278-2.076-2.515-1.488-6.563-.04-9.991C4788.768,2923.879,4790.766,2921.921,4794.365,2920.016Z" fill="#d2eefc" fill-rule="evenodd"/>
    <path id="Path_13722" data-name="Path 13722" d="M4839.834,2914.522c.643,2.766.258,5.834-1.372,6.711l-40.277,18.055c-5.177.807-8.684-.424-10.7-2.278Z" fill="#b2d9ed" fill-rule="evenodd"/>
    <path id="Path_13723" data-name="Path 13723" d="M4796.56,2870.019c13.666,8.415,1.571,54.512,9.751,66.68-6.219,1.881-17.47,3.1-19.737-.061a7.832,7.832,0,0,1-1.851-5.026c-.951-13.857-3.2-27.634-2.922-37.368C4782.111,2883.351,4785.124,2871.847,4796.56,2870.019Z" fill="#c3e6f7" fill-rule="evenodd"/>
    <path id="Path_13724" data-name="Path 13724" d="M4796.56,2870.019c13.666,8.415,1.571,54.512,9.751,66.68a72.428,72.428,0,0,1-12.9,1.852,8.642,8.642,0,0,1-2.553-.158c-2.443-13.278-9.691-35.031-8.868-47.3C4782.575,2882.359,4786.084,2871.967,4796.56,2870.019Z" fill="#b2d9ed" fill-rule="evenodd"/>
    <g id="Group_6678" data-name="Group 6678">
      <path id="Path_13725" data-name="Path 13725" d="M4795.563,2870.372c13.685,8.428-2.009,41.466,6.184,53.653-6.229,1.883-18.518,3.107-20.79-.062a7.838,7.838,0,0,1-1.853-5.034c-.343-5,.635-12.42,1.077-15.994C4781.607,2891.419,4780.2,2872.4,4795.563,2870.372Z" fill="#1abac6" fill-rule="evenodd"/>
      <path id="Path_13726" data-name="Path 13726" d="M4795.563,2870.372c13.685,8.428-2.009,41.466,6.184,53.653a48.773,48.773,0,0,1-15.434,1.809c-.7-6.825-3.908-21.132-4.12-23.038-.316-2.847-.682-5.646-1.262-8.435C4781.815,2883.765,4783.632,2871.945,4795.563,2870.372Z" fill="#169ca6" fill-rule="evenodd"/>
      <path id="Path_13727" data-name="Path 13727" d="M4793.575,2870.884a16.237,16.237,0,0,0-10.27,12.362c-3.621,16.783,7.961,39.863,9,58.426.561,9.987-4.578,26.654-3.956,43.736.669,18.361,34.924,36.293,51.723,25.486,1.684-1.083,6.595-25.244,6.572-25.316-2.926-9.09-8.261-21.132-8.07-29.9.494-22.517,10.947-41.2,8.611-52.53a20.774,20.774,0,0,0-7.586-11.664C4830.6,2884.258,4803.819,2866.643,4793.575,2870.884Z" fill="#1abac6" fill-rule="evenodd"/>
      <path id="Path_13728" data-name="Path 13728" d="M4835.56,3012.893c6.332-1.59,8.014-5.816,9.831-11.762,2.384-7.8,2.924-17.681-.171-24.4-.271-.588-.624-1.453-1.023-2.524-1.913-5.147-4.866-15.075-4.711-22.164.494-22.517,9.98-37.558,7.644-48.893a20.774,20.774,0,0,0-7.586-11.664,113.974,113.974,0,0,0-17.652-10.863l.191,2.389c5.773,3.589,7.941,5.58,12.615,10.519-14.588,13.846-6.459,48.1-4.409,63.793C4830.961,2962.468,4834.3,2989.714,4835.56,3012.893Z" fill="#169ca6" fill-rule="evenodd"/>
      <g id="Group_6672" data-name="Group 6672">
        <path id="Path_13729" data-name="Path 13729" d="M4834.209,2871.726c-1.646.815-10-.369-9.757.378.15,4.624,1.817,7,1.7,15.3-9.762,6.962-23.351-1.083-22.375-6.086-.077-3.406,1.625-12.888-.09-15.662-1.945-3.145-5.943-6.649-7.359-11.418-2.263-7.622-1.439-16.089,5.666-21.732,12.978-10.306,29.573-2.973,33.777,12.1.822,2.943-1.5,4.537-1.418,7.054.016.492.667,1.006,1.2,2.1C4836.283,2855.274,4836.227,2870.727,4834.209,2871.726Z" fill="#e8a476" fill-rule="evenodd"/>
        <path id="Path_13730" data-name="Path 13730" d="M4834.123,2871.641c-1.645.815-9.915-.284-9.671.463.15,4.624,1.817,7,1.7,15.3-5.783-8.446-8.22-13.092-21.7-17.762a8.615,8.615,0,0,0-.762-3.986c-1.945-3.145-5.943-6.649-7.359-11.418-2.263-7.622-1.439-16.089,5.666-21.732,12.978-10.306,29.573-2.973,33.777,12.1.822,2.943-1.5,4.537-1.418,7.054.016.492.667,1.006,1.2,2.1C4836.283,2855.274,4836.141,2870.641,4834.123,2871.641Z" fill="#db9669" fill-rule="evenodd"/>
        <path id="Path_13731" data-name="Path 13731" d="M4833.867,2871.726c-.872.468-4.48.161-7.166-.872a12.512,12.512,0,0,1-3.183-2.209c-1.113-.449-3.585-3.958.245-9.544,3.733-5.447-18.876,8.494-20.074,6.559-1.944-3.144-5.943-6.649-7.359-11.418-2.263-7.622-1.439-16.089,5.666-21.732,12.978-10.306,29.573-2.973,33.777,12.1.822,2.943-1.5,4.537-1.418,7.054.016.492.667,1.006,1.2,2.1C4836.283,2855.274,4835.851,2870.661,4833.867,2871.726Z" fill="#e8a476" fill-rule="evenodd"/>
        <path id="Path_13732" data-name="Path 13732" d="M4834.252,2871.662a7.5,7.5,0,0,1-3.39-.208,9.655,9.655,0,0,1-2.292-5.129c.157-4.964,2.663-8.99,2.651-11-.027-4.248-1.439-2.132.182-6.723,1.244-3.523-.389-4.057-1.106-7.08a4.788,4.788,0,0,0,2.922-2.937,25.039,25.039,0,0,1,2.554,6.025c.822,2.943-1.5,4.537-1.418,7.054.016.492.667,1.006,1.2,2.1C4836.283,2855.274,4836.182,2870.5,4834.252,2871.662Z" fill="#f1b287" fill-rule="evenodd"/>
        <path id="Path_13733" data-name="Path 13733" d="M4824.569,2859.265c-4.65-4.334-9.137,9.453-1.656,9.307C4819.994,2865.482,4822.211,2860.588,4824.569,2859.265Z" fill="#db9669" fill-rule="evenodd"/>
        <path id="Path_13734" data-name="Path 13734" d="M4824.546,2861.279c.7-1.928.11-2.63-.739-2.421-.932.229-2.255,1.567-2.943,3.564-1.111,3.222.481,7.293,3.593,5.7-2.677.155-2.427-3.072-1.624-5.062C4823.378,2861.712,4824.221,2860.754,4824.546,2861.279Z" fill="#f1b287" fill-rule="evenodd"/>
        <path id="Path_13735" data-name="Path 13735" d="M4823.315,2862.151c.749,1.393,1.008,2.221.768,2.7-.168.334-.684.713-1.528-.1A4.814,4.814,0,0,1,4823.315,2862.151Z" fill="#db9669" fill-rule="evenodd"/>
        <path id="Path_13736" data-name="Path 13736" d="M4804.1,2867.551c-2.159-4.532-5.989-7.328-7.765-13.309-2.263-7.621-1.439-16.089,5.666-21.732,10.2-8.1,22.632-5.3,29.529,3.581.37.572-3.537,2.409-2.243,5.272,1.849,4.852,1.812,7.028,1.065,8.093-2.892,4.125-2.945,4.712-2.787,10.993l-1.634,1.32c-.675-4.929-2.867-4.541-5-2.9-3.718,2.873-5.148,9.4-11.337,10.681A5.426,5.426,0,0,1,4804.1,2867.551Z" fill="#361d07" fill-rule="evenodd"/>
        <path id="Path_13737" data-name="Path 13737" d="M4827.5,2859.041c.494,3.077.705,5.025,2.041,6.57.508.588,1.843.785,3.17,1.039a18.71,18.71,0,0,1,.688-3.393,6.3,6.3,0,0,1,2.644-3.734,3.952,3.952,0,0,1-.123,2.005,4.887,4.887,0,0,0-1.019,2.322,10.024,10.024,0,0,0-.369,3.1c.327.032.6.089.832.122.119.018.129-.877.362-.858.108,2.551.144,5.965-.434,6.191-.739.291-5.067-.591-7.289-1.491-2.318-.939-1.636-1.448-1.852-4.184-.179-2.255-.172-4.81-.483-7.218Z" fill="#361d07" fill-rule="evenodd"/>
        <path id="Path_13738" data-name="Path 13738" d="M4828.744,2864.409a5.581,5.581,0,0,0,.793,1.2c.508.588,1.843.785,3.17,1.039a18.71,18.71,0,0,1,.688-3.393,6.3,6.3,0,0,1,2.644-3.734,3.952,3.952,0,0,1-.123,2.005,4.887,4.887,0,0,0-1.019,2.322,10.024,10.024,0,0,0-.369,3.1c.327.032.6.089.832.122.119.018.129-.877.362-.858.108,2.551.144,5.965-.434,6.191-.559.22-3.168-.231-5.368-.852a16.68,16.68,0,0,1-1.35-5.226A17.1,17.1,0,0,1,4828.744,2864.409Z" fill="#4f2b0c" fill-rule="evenodd"/>
        <path id="Path_13739" data-name="Path 13739" d="M4806.031,2849.359a20.831,20.831,0,0,0,1.65,8.652c.338-2.188.638-4.406,1.058-6.575q.212-1.091.481-2.158c.511,3.238.884,6.512,1.288,9.766.734-3.46,1.54-6.945,2.13-10.427,1.3,1.988,1.663,6.133,2.154,8.687a70.592,70.592,0,0,0,1.568-9.594c1.392,1.411,1.783,5.155,2.168,7.21a74.521,74.521,0,0,0,1.375-8c.872,1.279,1.14,4.31,1.394,5.893a27.711,27.711,0,0,0,1.34-6.241c1.4,2.442,1.444,5.263,1.712,7.991.541-2.841,1.363-6.068,1.124-8.934a29.628,29.628,0,0,1,1.67,5.03c.146-2.178.343-4.386.321-6.567a11.354,11.354,0,0,1,2.533,5.564c1.026-2.18.538-6.482-.777-9.4l-.154-.342-.374.024q-3.3.211-6.611.418-2.178.135-4.356.267c-.707.042-1.5.119-2.193.119-.291-.011-.652-.073-.944-.111-.707-.091-1.413-.188-2.119-.285q-3.062-.423-6.124-.862c-3.088-.44-6.019-1.2-9.1-1.645-4.308,7.572-1.091,14.951.628,18.645a35.205,35.205,0,0,1-.16-7.3c.181,2.062,1.359,4.781,2.091,6.8a28,28,0,0,1,.482-6.857,13.541,13.541,0,0,0,2.111,8.227c-.165-3.04-.48-5.437.368-8.581a30.434,30.434,0,0,0,1.96,9.658A41.045,41.045,0,0,1,4806.031,2849.359Z" fill="#54321e" fill-rule="evenodd"/>
        <path id="Path_13740" data-name="Path 13740" d="M4796.19,2849.326c2.305-1.682,7.556-3.368,17.429-4.065a37.429,37.429,0,0,0,15.733-4.269c6.247-3.331,5.264-10.222,2.625-12.564-5.1-4.522-18.271-4.051-27.04.466C4798.531,2832.192,4794.991,2838.732,4796.19,2849.326Z" fill="#361d07" fill-rule="evenodd"/>
        <path id="Path_13741" data-name="Path 13741" d="M4796.19,2849.326c2.305-1.682,7.556-3.368,17.429-4.065a37.429,37.429,0,0,0,15.733-4.269c6.247-3.331,5.264-10.222,2.625-12.564a9.08,9.08,0,0,0-1.65-1.149c-1.592,11.882-7.5,8.684-19.211,12.8,1.71-1.645.888-1.332,2.43-2.3-3.73,1.343-6.574,1.107-10.783,3.836,1.33-1.224,1.669-1.96,2.513-2.6a13.218,13.218,0,0,0-8.234,5.687l-.34-5.6A56.539,56.539,0,0,0,4796.19,2849.326Z" fill="#241304" fill-rule="evenodd"/>
        <path id="Path_13742" data-name="Path 13742" d="M4832.634,2838.078c-1.926,2.413-10.2-3.166-21.774-1.037,2.48-7.646,3.913-9.269,7.389-11.506,4.532-2.917,12.164-1.726,14.559,2.293C4835.1,2831.679,4834.183,2836.135,4832.634,2838.078Z" fill="#4f2b0c" fill-rule="evenodd"/>
        <path id="Path_13743" data-name="Path 13743" d="M4816.4,2835.88c3.541-3.5,8.891-2.87,13.682-1.576-2.769-2.625-8.477-1.637-11.232-.213,3.72-3.456,6.189-3.323,10.869-2.728a10.162,10.162,0,0,0-10.336.7c3.352-3.959,4.768-3.659,9.675-3.367-3.417-1.829-8.543-1.185-10.634.778,2.52-2.949,4.478-3.593,9.143-3.591-4.009-1.22-7.111-1.1-10.421,2.323,2.592-4.574,8.094-4.6,11.706-3.17a8.8,8.8,0,0,1,5.314,7.6c.079,2.757-1.06,4.486-1.849,4.662C4828.568,2838.146,4826.681,2835.083,4816.4,2835.88Z" fill="#361d07" fill-rule="evenodd"/>
      </g>
      <path id="Path_13744" data-name="Path 13744" d="M4804.238,2871.428c-1.119-.159-2.076-.58-3.26-.846-2.67.945-3.136,7.439-2.131,9.758,2.147,4.954,8.131,8.875,16.745,10.444,9.807,1.786,21.654-.279,24.6,1.184.517.256-8.493-6.775-9.555-6.975C4820.919,2883.162,4802.5,2879.267,4804.238,2871.428Z" fill="#169ca6" fill-rule="evenodd"/>
      <path id="Path_13745" data-name="Path 13745" d="M4804.706,2871.239c-.257,5.051,13.315,8.708,21.19,5.81,2.093,1.064,4.132,5.751,4.175,7.961-9.463,2.257-23.942,1.115-27.56-6.288C4801.718,2877.1,4802.9,2873.255,4804.706,2871.239Z" fill="#1abac6" fill-rule="evenodd"/>
      <g id="Group_6677" data-name="Group 6677">
        <g id="Group_6673" data-name="Group 6673">
          <path id="Path_13746" data-name="Path 13746" d="M4778.582,2907.642c3.773,2.069,8.139,4.616,12.817,7.335a2.693,2.693,0,0,1,2.094-.271c-.036-.019-.174-.1-.336-.191q-1.95-1.134-3.914-2.248c-1.865-1.057-3.735-2.111-5.619-3.134q-1.61-.879-3.241-1.755c-3.026-1.613-6.135-3.228-9.247-4.662a25.135,25.135,0,0,0-3.351-1.339,2.562,2.562,0,0,0-1.445-.131,2.306,2.306,0,0,0-.892.455c.675-.379,3.336.918,5,1.746C4773.23,2904.825,4775.887,2906.135,4778.582,2907.642Z" fill="#444044" fill-rule="evenodd"/>
          <path id="Path_13747" data-name="Path 13747" d="M4803.046,2980.779c.173-17.474-7.223-38.912-11.762-52.061-1.086-3.16-2.027-5.887-2.641-7.933-.638-2.1,1.288-5,2.778-5.882-.427-.246-.855-.5-1.277-.742-5.529-3.193-11.408-6.573-17.171-9.524-1.962-.967-3.727-1.966-5.775-2.807-.732-.3-1.158-.405-1.543-.247a3.177,3.177,0,0,0-1.338,1.7,3.779,3.779,0,0,0,.277,2.783c1.278,4.067,2.758,8.122,4.128,12.17,2.272,6.751,5.041,15.445,7.06,24.174.731,3.361,1.359,6.5,1.866,9.893,1.046,6.995,1.616,14.369.125,21.154a53.161,53.161,0,0,1-3.651,11.091c-1.059,2.492-2.238,5.773-.82,8.036,1.194,1.907,4.512,4.013,5.9,4.971,5.581,3.863,11.863,7.639,17.7,11.07l2.114,1.237c-1.6-.933-2.026-2.9-1.954-4.606a15.767,15.767,0,0,1,1.645-5.646A49.257,49.257,0,0,0,4803.046,2980.779Z" fill="#2c282c" fill-rule="evenodd"/>
          <path id="Path_13748" data-name="Path 13748" d="M4772.817,2988.47a5.616,5.616,0,0,0,.485,4.112c1.194,1.907,4.512,4.013,5.9,4.971,5.581,3.863,11.863,7.639,17.7,11.07l2.114,1.237c-1.6-.933-2.026-2.9-1.954-4.606a9.744,9.744,0,0,1,.444-2.542Q4785.161,2995.592,4772.817,2988.47Z" fill="#2c282c" fill-rule="evenodd"/>
          <path id="Path_13749" data-name="Path 13749" d="M4788.594,2919.131a7.065,7.065,0,0,1,2.827-4.228c-.427-.246-.855-.5-1.277-.742-5.529-3.193-11.408-6.573-17.171-9.524-1.962-.967-3.727-1.966-5.775-2.807-.732-.3-1.158-.405-1.543-.247a3.177,3.177,0,0,0-1.338,1.7,2.747,2.747,0,0,0-.038,1.815l7.6,4.383,8.839,5.1Z" fill="#444044" fill-rule="evenodd"/>
          <path id="Path_13750" data-name="Path 13750" d="M4800,2918.49l-6.517-3.787a1.964,1.964,0,0,0-2.064.2l6.405,3.723A2.555,2.555,0,0,1,4800,2918.49Z" fill="#444044" fill-rule="evenodd"/>
          <path id="Path_13751" data-name="Path 13751" d="M4798.888,2932.612c-1.408-4.075-3.672-8.916-1.062-13.986l-6.405-3.723c-1.837,1-5.807,3.715-5.165,5.712.614,2.046,1.385,4.943,2.471,8.1,8.569,24.825,17.536,42.8,6.679,67.817-1.626,3.744-.078,11.172,3.607,13.325l6.4,3.723c-2.807-1.636-.9-5.308.206-8.412C4815.65,2977.071,4809.5,2963.34,4798.888,2932.612Z" fill="#444044" fill-rule="evenodd"/>
          <path id="Path_13752" data-name="Path 13752" d="M4793.1,3000.186c-.869,2.858-.3,6.205,5.914,9.674l6.4,3.723c-2.307-1.346-2.237-4.412-1.524-7.186Z" fill="#2c282c" fill-rule="evenodd"/>
          <path id="Path_13753" data-name="Path 13753" d="M4795.158,2922.92a4.057,4.057,0,0,1,.382-1.41,6.427,6.427,0,0,1,2.286-2.884l-6.405-3.723c-3.778.091-9.476.655-2.865,4.206l1,.576Z" fill="#444044" fill-rule="evenodd"/>
          <path id="Path_13754" data-name="Path 13754" d="M4825.054,2935.378a1.616,1.616,0,0,0-.091-.25c-.49-1.1-3.53-3.167-4.6-3.927-.815-.561-1.628-1.118-2.45-1.669-5.854-3.885-11.869-7.53-17.967-11.07a2.051,2.051,0,0,0-2.123.164q1.674.975,3.342,1.955l.186.109c2.724,1.654,5.486,3.245,8.2,4.919,2.784,1.744,13.026,8.085,13.875,9.482.494-.285,1.386-.376,1.589.309Z" fill="#444044" fill-rule="evenodd"/>
          <path id="Path_13755" data-name="Path 13755" d="M4839.558,2999.344c.055-1.081.088-2.347.071-3.8,0-.2,0-.391-.009-.586v-.173c-.027-1.491-.1-3.009-.227-4.546-.932-12.152-4.556-25.1-7.6-34.7,0-.011,0-.019,0-.027l-.018-.046c-.173-.546-.346-1.087-.515-1.61-1.5-4.8-3.222-9.933-5.155-15.444-.05-.145-.1-.286-.15-.427q-.245-.688-.49-1.391l-.4-1.219-.07-.034a1.464,1.464,0,0,1,.043.144c.531,1.768,1.322,4.123,2.264,6.828q1.841,5.571,3.491,10.756c4.01,12.744,6.983,23.646,8.2,33.465q.3,2.463.455,4.893c.009.14.018.286.023.427s.018.313.027.468q.07,1.425.1,2.8a58.191,58.191,0,0,1-.44,7.895c-.086.685-.183,1.347-.317,2.024a62.837,62.837,0,0,1-4.144,13.186l.014.013c.072-.145.14-.3.2-.423l.168-.381a46.055,46.055,0,0,0,3.854-12.485c.1-.594.185-1.193.265-1.79.018-.128.037-.265.059-.405.092-.658.161-1.307.222-1.968.014-.228.032-.474.046-.728C4839.543,2999.663,4839.536,2999.774,4839.558,2999.344Z" fill="#03868f" fill-rule="evenodd"/>
          <path id="Path_13756" data-name="Path 13756" d="M4839.338,3025.485l-.009,0a.023.023,0,0,0,.009-.018h0c-8.386,4.763-8.372-2.187-5.134-9.892,10.938-26.022-12.451-79.71-10.742-80.574,0-.325-5.752-4.369-6.4-4.8-6.044-4.057-16.99-10.269-19.241-11.576a5.536,5.536,0,0,0-2.7,6.143c.61,2.014,1.518,4.645,2.564,7.673,4.638,13.45,12.271,35.576,11.733,53.258a44.033,44.033,0,0,1-2.723,13.4c-.447,1.407-1.263,2.835-1.944,4.475-1.373,3.31-2.391,6.967-.083,9.423a3.5,3.5,0,0,0,.74.582q2.748,1.587,5.506,3.15c4.818,2.718,11.176,6.3,16.242,8.688a21.412,21.412,0,0,0,5.39,1.924,8.243,8.243,0,0,0,3.223-.256,12.666,12.666,0,0,0,3.069-1.313c.155-.081.3-.164.463-.25,0,0,0-.009,0-.009l.014-.009s-.009,0-.014.009a.015.015,0,0,0,0-.013l.018,0c-.009,0-.014,0-.018,0s.009-.01.009-.014Z" fill="#5a555a" fill-rule="evenodd"/>
          <path id="Path_13757" data-name="Path 13757" d="M4838.091,3026.134a11.908,11.908,0,0,1-3.509,1.16l-.09.014a4.313,4.313,0,0,1-2.2-.245c-1.746-.874-2-3.3-1.711-5.262l-11.128-6.424q-7.839-4.525-15.679-9.046c-.7,2.462-.779,4.884.9,6.67a3.5,3.5,0,0,0,.74.582q2.748,1.587,5.506,3.15c4.818,2.718,11.176,6.3,16.242,8.688a21.412,21.412,0,0,0,5.39,1.924,8.243,8.243,0,0,0,3.223-.256,12.216,12.216,0,0,0,2.363-.925Z" fill="#2c282c" fill-rule="evenodd"/>
          <path id="Path_13758" data-name="Path 13758" d="M4822.387,2938.639q-.226-.738-.448-1.478a2.447,2.447,0,0,1,1.528-2.155c0-.325-5.752-4.369-6.4-4.8-6.044-4.057-16.99-10.269-19.241-11.576a5.76,5.76,0,0,0-2.841,4.194l3.417,1.972,8.847,5.112,8.866,5.114Z" fill="#444044" fill-rule="evenodd"/>
          <path id="Path_13759" data-name="Path 13759" d="M4842.326,3019.88q-1.2.752-2.434,1.528c-.167.108-.34.217-.577.363-3.337,1.942-5.014,1.568-5.514.741-.464-.951.014-2.564.786-4.091a60.02,60.02,0,0,0,4.847-17.59c1.441-19.094-6.842-43.153-11.821-57.587-1.091-3.115-1.984-5.836-2.579-7.814a1.255,1.255,0,0,0-1.866-.509,2.914,2.914,0,0,0-1.246,3.353c.6,2.024,1.56,4.733,2.627,7.893,4.86,14.084,13.044,37.761,11.675,56.173a44.026,44.026,0,0,1-4.385,15.215c-1.759,3.555-1.911,6.484-.947,8.234,1.163,2.138,4.195,2.124,8.451-.317.232-.151.468-.3.7-.441q2.06-1.295,4.021-2.526Z" fill="#2c282c" fill-rule="evenodd"/>
        </g>
        <g id="Group_6676" data-name="Group 6676">
          <g id="Group_6674" data-name="Group 6674">
            <path id="Path_13760" data-name="Path 13760" d="M4886.242,3063.963l-2.564-1.486a13.722,13.722,0,0,1-1.106,5.086,15.821,15.821,0,0,1-6.159,7.493l2.564,1.491a13.424,13.424,0,0,0,3.937-3.5,18.288,18.288,0,0,0,2.391-4.129A12.512,12.512,0,0,0,4886.242,3063.963Z" fill="#a8a5a3" fill-rule="evenodd"/>
            <path id="Path_13761" data-name="Path 13761" d="M4876.413,3075.056l-41.2,23.851,2.515,1.453,41.245-23.813Z" fill="#c9c7c5" fill-rule="evenodd"/>
            <path id="Path_13762" data-name="Path 13762" d="M4885.585,3009.884l-2.564-1.491.658,54.084,2.564,1.486Z" fill="#a8a5a3" fill-rule="evenodd"/>
            <path id="Path_13763" data-name="Path 13763" d="M4886,3006.72a32.475,32.475,0,0,0-.434-3.732,26.465,26.465,0,0,0-5.37-12.426,19.07,19.07,0,0,0-5.46-4.774l-2.564-1.486c5.651,3.283,9.21,9.175,10.447,17.28a30.382,30.382,0,0,1,.391,3.647c.022.777.009,3.046.009,3.164l2.564,1.491A30.747,30.747,0,0,0,4886,3006.72Z" fill="#918e8c" fill-rule="evenodd"/>
            <path id="Path_13764" data-name="Path 13764" d="M4875.66,2984.225v0c-6.186-3.6-9.96-4.969-17.339-4.439-7.908.569-15.875,3.773-22.389,7.553q-1.911,1.1-3.82,2.355l2.564,1.491q1.909-1.256,3.82-2.36a70.606,70.606,0,0,1,7.7-3.828,48.783,48.783,0,0,1,13-3.5,31.3,31.3,0,0,1,8.931.148,22.356,22.356,0,0,1,6.695,2.125C4875.1,2983.915,4875.388,2984.061,4875.66,2984.225Z" fill="#a8a5a3" fill-rule="evenodd"/>
            <path id="Path_13765" data-name="Path 13765" d="M4886.877,3010.1c0-.181.049-3.632-.015-4.791-.059-1.064-.318-2.746-.545-4.046-1.573-9-6.01-15.257-12.994-18.2-9.128-3.854-21.917-1.681-34.827,5.769q-1.912,1.106-3.82,2.36l.1,1.423c1.241-.818,2.493-1.587,3.733-2.3,12.606-7.278,25.082-9.4,33.974-5.638,6.961,2.942,11.311,9.271,12.707,18.409a31.322,31.322,0,0,1,.39,3.646c.023.777.01,3.046.01,3.164l.657,54.079a13.406,13.406,0,0,1-1.069,5.011,15.8,15.8,0,0,1-6.2,7.573l-41.244,23.813,0,1.483,41.243-23.814c4.728-2.732,8.565-9.379,8.552-14.812Z" fill="#534b48" fill-rule="evenodd"/>
            <path id="Path_13766" data-name="Path 13766" d="M4834.676,2991.185l-2.564-1.491.1,1.428,2.564,1.486Z" fill="#918e8c" fill-rule="evenodd"/>
          </g>
          <g id="Group_6675" data-name="Group 6675">
            <path id="Path_13767" data-name="Path 13767" d="M4875.566,2986.579l-5.06-2.706a19.988,19.988,0,0,1,8.355,9.7l4.805,2.8A19.756,19.756,0,0,0,4875.566,2986.579Z" fill="#444044" fill-rule="evenodd"/>
            <path id="Path_13768" data-name="Path 13768" d="M4846.9,2980.577l-.294,1.535,3.421,1.834-.219,1.2,1.483.64.609-2.452Z" fill="#444044" fill-rule="evenodd"/>
            <path id="Path_13769" data-name="Path 13769" d="M4868.225,2981.925c2.922.391,5.9.874,8.459,2.384-.007-.005,0,0,0,0-3.07-1.786-6.012-3.751-9.434-4.776a26.256,26.256,0,0,0-7.792-1.08,39.254,39.254,0,0,0-10.889,1.628c-.55.155-1.1.318-1.667.5l4.809,2.8A41.772,41.772,0,0,1,4868.225,2981.925Z" fill="#2c282c" fill-rule="evenodd"/>
            <path id="Path_13770" data-name="Path 13770" d="M4851.711,2983.372l-.418,2.41c15.353-4.9,27.454-.941,32.373,10.584l1.8-1.851C4880.311,2982.44,4867.691,2978.272,4851.711,2983.372Z" fill="#2c282c" fill-rule="evenodd"/>
          </g>
        </g>
      </g>
    </g>
    <g id="Group_6680" data-name="Group 6680">
      <path id="Path_13771" data-name="Path 13771" d="M4920.376,2919.688q-7.953-4.821-16-9.7-8.091-4.9-16.29-9.868-10.657,6.216-21.273,12.4-10.592,6.176-21.143,12.325l16.555,9.6q8.177,4.746,16.266,9.441l20.882-12.065Q4909.845,2925.776,4920.376,2919.688Z" fill="#fff" fill-rule="evenodd"/>
      <path id="Path_13772" data-name="Path 13772" d="M4917.347,2919.75q-7.251-4.389-14.587-8.824l-14.817-8.963c-.554.324-1.108.647-1.657.966l14.826,8.954q7.335,4.428,14.6,8.814C4916.252,2920.385,4916.8,2920.067,4917.347,2919.75Z" fill="#ebe8e8" fill-rule="evenodd"/>
      <path id="Path_13773" data-name="Path 13773" d="M4908.561,2924.828l-14.638-8.774q-7.393-4.431-14.868-8.912,1.353-.786,2.714-1.582,7.469,4.489,14.852,8.928,7.347,4.416,14.623,8.79C4910.348,2923.8,4909.451,2924.315,4908.561,2924.828Z" fill="#ebe8e8" fill-rule="evenodd"/>
      <path id="Path_13774" data-name="Path 13774" d="M4896.283,2931.835q-3.256-1.952-6.53-3.91t-6.571-3.937c-.49.283-.976.567-1.462.847l6.576,3.934q3.275,1.959,6.533,3.907C4895.312,2932.4,4895.795,2932.116,4896.283,2931.835Z" fill="#ebe8e8" fill-rule="evenodd"/>
      <path id="Path_13775" data-name="Path 13775" d="M4885.658,2937.978q-3.269-1.939-6.557-3.885l-6.6-3.91,8.4-4.868q3.3,1.969,6.578,3.932t6.535,3.9Z" fill="#ebe8e8" fill-rule="evenodd"/>
      <g id="Group_6679" data-name="Group 6679">
        <path id="Path_13776" data-name="Path 13776" d="M4879.586,2922.558l-6.674-3.947q-3.349-1.98-6.716-3.974c-.462.269-.919.537-1.377.8q3.371,1.989,6.72,3.971l6.677,3.943Z" fill="#ebe8e8" fill-rule="evenodd"/>
        <path id="Path_13777" data-name="Path 13777" d="M4869.6,2928.355l-6.7-3.921q-3.36-1.969-6.741-3.949l7.885-4.6,6.722,3.969q3.348,1.977,6.679,3.941Q4873.519,2926.08,4869.6,2928.355Z" fill="#ebe8e8" fill-rule="evenodd"/>
      </g>
      <path id="Path_13778" data-name="Path 13778" d="M4883.125,2939.534q-7.347-4.295-14.781-8.632-7.466-4.359-15.014-8.766c.515-.3,1.035-.6,1.554-.907q7.545,4.41,15.005,8.775,7.423,4.341,14.773,8.64Z" fill="#ebe8e8" fill-rule="evenodd"/>
      <path id="Path_13779" data-name="Path 13779" d="M4878.97,2941.937l-14.805-8.608q-7.477-4.347-15.038-8.743l3.017-1.759,15.021,8.76q7.43,4.332,14.787,8.625Q4880.458,2941.076,4878.97,2941.937Z" fill="#ebe8e8" fill-rule="evenodd"/>
      <path id="Path_13780" data-name="Path 13780" d="M4912.337,2922.645q-7.266-4.374-14.616-8.793-7.384-4.44-14.846-8.934,1.061-.62,2.12-1.235l14.835,8.946,14.6,8.807Q4913.384,2922.041,4912.337,2922.645Z" fill="#ebe8e8" fill-rule="evenodd"/>
      <path id="Path_13781" data-name="Path 13781" d="M4897.195,2931.42q-7.276-4.363-14.637-8.774-7.394-4.431-14.868-8.912l2.714-1.581q7.467,4.486,14.852,8.928,7.347,4.414,14.622,8.789C4898.982,2930.388,4898.087,2930.907,4897.195,2931.42Z" fill="#ebe8e8" fill-rule="evenodd"/>
      <path id="Path_13782" data-name="Path 13782" d="M4900.889,2929.2q-7.277-4.364-14.637-8.774-7.393-4.432-14.868-8.913,1.352-.786,2.713-1.581l14.853,8.928q7.345,4.416,14.621,8.789Z" fill="#ebe8e8" fill-rule="evenodd"/>
      <path id="Path_13783" data-name="Path 13783" d="M4905.4,2926.406q-7.348-4.293-14.781-8.632-7.466-4.358-15.014-8.766c.515-.3,1.034-.6,1.554-.906q7.545,4.41,15,8.775,7.422,4.341,14.772,8.64C4906.425,2925.815,4905.911,2926.11,4905.4,2926.406Z" fill="#ebe8e8" fill-rule="evenodd"/>
    </g>
    <g id="Group_6682" data-name="Group 6682">
      <path id="Path_13784" data-name="Path 13784" d="M4898.156,2937.086c4.268-.23,13.821-1.592,14.525-3.475l-.432-2.254c-.371-.969-4.187-2.394-8.245-3.644a65.094,65.094,0,0,0-8.381-1.889c-4.118-.827-7.1-.145-9.079,2.872-2.169,3.309-2.981,3.451-8.186,6.045l1.04,7.147c7.018,3.048,11.922,2.372,14.139-2.63C4894.089,2938.014,4895.322,2937.241,4898.156,2937.086Z" fill="#e8a476" fill-rule="evenodd"/>
      <path id="Path_13785" data-name="Path 13785" d="M4847.714,2934.84l32.834-5.562c7.005,1.492,5.179,13.774.945,15.426l-32.076,7.579c-4.769.4-9.347,1.408-11.73-4.3-1.177-2.814.309-6.24,2.383-8.876C4841.969,2936.7,4844.16,2935.52,4847.714,2934.84Z" fill="#1abac6" fill-rule="evenodd"/>
      <g id="Group_6681" data-name="Group 6681">
        <path id="Path_13786" data-name="Path 13786" d="M4843.255,2895.719c5.831,4.056,8.251,21.684,9.954,38.161.056.535-6.848,17.869-9.312,18.409-2.389.523-6.4.321-6.952-2.822-1.394-7.986-5.98-26.251-6.875-33.85-.986-8.382-1.661-15.351,7.05-19.281C4838.481,2895.722,4841.886,2894.767,4843.255,2895.719Z" fill="#1abac6" fill-rule="evenodd"/>
      </g>
      <path id="Path_13787" data-name="Path 13787" d="M4885.242,2936.316c.074,3.667-1.374,7.585-3.749,8.388l-32.516,7.683c-4.766.493-9.809,2.358-12.049-3a5.606,5.606,0,0,1-.41-2.425C4841.48,2951.47,4872.017,2941.977,4885.242,2936.316Z" fill="#169ca6" fill-rule="evenodd"/>
    </g>
  </g>
</svg>
