<svg xmlns="http://www.w3.org/2000/svg" width="133.125" height="202.532" viewBox="0 0 133.125 202.532">
  <g id="Group_10016" data-name="Group 10016" transform="translate(-4935.583 -2798.304)">
    <path id="Path_13788" data-name="Path 13788" d="M5068.708,2884.195l-16.484-16.483-50.079,50.079-50.079-50.079-16.483,16.483,50.079,50.079-50.079,50.079,16.483,16.483,50.079-50.079,50.079,50.079,16.484-16.483-50.079-50.079Z" fill="#ff0048"/>
    <path id="Path_13789" data-name="Path 13789" d="M5046.208,2840.619a3.227,3.227,0,0,0-1.633.454v-.016c-1.57.908-5.931,4.128-11.743.043a28.93,28.93,0,0,0-.645-3.9,7.822,7.822,0,0,1,5.36.095l0-.011a2.373,2.373,0,0,0,1.25.011,2.407,2.407,0,1,0-2.323-4.015l0-.011a7.823,7.823,0,0,1-4.582,2.761,28.967,28.967,0,0,0-1.539-4.208c2.991-6.442,8.377-5.834,10.191-5.833l-.008-.014a3.264,3.264,0,1,0-2.811-4.868l-.007-.013c-.907,1.571-3.074,6.542-10.154,5.908a29.252,29.252,0,0,0-6.785-6.785c-.634-7.08,4.337-9.247,5.908-10.154l-.013-.007a3.229,3.229,0,0,0,1.209-1.188,3.264,3.264,0,1,0-5.653-3.264,3.23,3.23,0,0,0-.424,1.641l-.014-.008c0,1.814.609,7.2-5.833,10.191a28.856,28.856,0,0,0-3.222-1.248c-1.25-4.4,1.58-6.7,2.469-7.6l-.011,0a2.372,2.372,0,0,0,.627-1.081,2.407,2.407,0,1,0-4.658-1.214,2.376,2.376,0,0,0,.02,1.25l-.011,0c.337,1.221,1.686,4.612-1.562,7.844a29,29,0,0,0-2.929-.429c-4.085-5.812-.865-10.173.043-11.743h-.016a3.231,3.231,0,0,0,.454-1.633,3.264,3.264,0,0,0-6.528,0,3.225,3.225,0,0,0,.453,1.633h-.015c.907,1.57,4.127,5.931.042,11.743a28.873,28.873,0,0,0-9.276,2.485c-6.443-2.991-5.835-8.377-5.834-10.191l-.013.008a3.264,3.264,0,1,0-4.869,2.811l-.013.007c1.572.907,6.543,3.074,5.908,10.154a29.252,29.252,0,0,0-6.785,6.785c-7.08.634-9.247-4.337-10.153-5.908l-.008.013a3.264,3.264,0,1,0-2.811,4.868l-.007.014c1.813,0,7.2-.609,10.19,5.833a28.862,28.862,0,0,0-1.578,4.348,7.831,7.831,0,0,1-4.581-2.761l0,.011a2.38,2.38,0,0,0-1.077-.634,2.407,2.407,0,1,0,0,4.638l0,.011a7.818,7.818,0,0,1,5.365-.094,28.955,28.955,0,0,0-.612,3.758c-5.813,4.085-10.173.865-11.744-.043v.016a3.229,3.229,0,0,0-1.633-.454,3.264,3.264,0,1,0,0,6.528,3.228,3.228,0,0,0,1.633-.453v.015c1.571-.907,5.931-4.127,11.744-.042a28.865,28.865,0,0,0,2.484,9.276c-2.991,6.443-8.377,5.835-10.19,5.834l.007.014a3.222,3.222,0,0,0-1.641.423,3.264,3.264,0,0,0,3.264,5.654,3.228,3.228,0,0,0,1.188-1.209l.008.013c.906-1.572,3.073-6.542,10.153-5.908a29.17,29.17,0,0,0,2.206,2.734c-1.307,3.91-4.654,4.417-5.824,4.727l.008.008a2.375,2.375,0,0,0-1.089.612,2.406,2.406,0,0,0,3.393,3.413,2.373,2.373,0,0,0,.619-1.086l.008.008c.316-1.168.845-4.517,4.771-5.8a29.3,29.3,0,0,0,2.693,2.167c.635,7.08-4.336,9.247-5.908,10.153l.013.008a3.228,3.228,0,0,0-1.209,1.188,3.264,3.264,0,1,0,6.078,1.623l.013.007c0-1.813-.609-7.2,5.834-10.19a28.874,28.874,0,0,0,9.276,2.485c4.085,5.812.865,10.172-.042,11.743h.015a3.227,3.227,0,0,0-.453,1.633,3.264,3.264,0,1,0,6.074-1.633h.016c-.908-1.571-4.128-5.931-.043-11.743a28.879,28.879,0,0,0,9.277-2.485c6.442,2.991,5.834,8.377,5.833,10.19l.014-.007a3.23,3.23,0,0,0,.424,1.641,3.264,3.264,0,1,0,4.444-4.452l.013-.008c-1.571-.906-6.542-3.073-5.908-10.153a29.248,29.248,0,0,0,6.785-6.785c7.08-.634,9.247,4.336,10.154,5.908l.007-.013a3.228,3.228,0,0,0,1.188,1.209,3.264,3.264,0,1,0,3.264-5.654,3.222,3.222,0,0,0-1.641-.423l.008-.014c-1.814,0-7.2.609-10.191-5.834a28.747,28.747,0,0,0,1.387-3.673,7.733,7.733,0,0,1,4.772,2.783l0-.011a2.379,2.379,0,0,0,1.077.634,2.406,2.406,0,1,0,1.245-4.649,2.369,2.369,0,0,0-1.249.011l0-.011a7.742,7.742,0,0,1-5.511.029,29.12,29.12,0,0,0,.758-4.389c5.812-4.085,10.173-.865,11.743.042v-.015a3.226,3.226,0,0,0,1.633.453,3.264,3.264,0,1,0,0-6.528Zm-45.177,6.3a1.114,1.114,0,1,1-1.114,1.114A1.114,1.114,0,0,1,5001.031,2846.916Zm-19.442-11.905a1.114,1.114,0,1,1,1.114,1.113A1.114,1.114,0,0,1,4981.589,2835.011Zm8.877,24.91a1.114,1.114,0,1,1,1.114-1.114A1.114,1.114,0,0,1,4990.466,2859.921Zm-3.325-8.737a4.439,4.439,0,1,1,4.439-4.439A4.438,4.438,0,0,1,4987.141,2851.184Zm8.992-12.353a1.114,1.114,0,1,1,1.114-1.114A1.114,1.114,0,0,1,4996.133,2838.831Zm-1.748-5.764a2.861,2.861,0,1,1,2.862-2.862A2.862,2.862,0,0,1,4994.385,2833.067Zm6.646,27.488a2.861,2.861,0,1,1,2.862-2.862A2.862,2.862,0,0,1,5001.031,2860.555Zm5.277-18.791a2.023,2.023,0,1,1,2.023-2.023A2.023,2.023,0,0,1,5006.308,2841.764Zm3.248,25.524a1.114,1.114,0,1,1,1.113-1.114A1.114,1.114,0,0,1,5009.556,2867.288Zm-1.225-34.851a4.439,4.439,0,1,1,4.439-4.439A4.439,4.439,0,0,1,5008.331,2832.437Zm5.272,29.51a2.024,2.024,0,1,1,2.023-2.023A2.023,2.023,0,0,1,5013.6,2861.947Zm1.958-13.917a2.862,2.862,0,1,1,2.862-2.862A2.861,2.861,0,0,1,5015.561,2848.03Zm3.976,9.663a1.114,1.114,0,1,1,1.114-1.114A1.114,1.114,0,0,1,5019.537,2857.693Zm0-22.682a1.114,1.114,0,1,1,1.114-1.114A1.114,1.114,0,0,1,5019.537,2835.011Zm6.148,7.592a2.024,2.024,0,1,1,2.023-2.024A2.024,2.024,0,0,1,5025.685,2842.6Z" fill="#fff"/>
  </g>
</svg>
