<svg xmlns="http://www.w3.org/2000/svg" width="386.712" height="318.916" viewBox="0 0 386.712 318.916">
  <g id="ILLUSTRATION" transform="translate(-4741.561 -2852.134)">
    <g id="Group_10431" data-name="Group 10431">
      <path id="Path_21812" data-name="Path 21812" d="M5124.829,3082.855c-79.737-46.339-164.454-95.573-243.743-141.65-8.97,5.181-103.446,59.993-136.075,78.9a6.923,6.923,0,0,0,0,11.976l75.068,43.626a6.927,6.927,0,0,1,0,11.978l-37.523,21.807a6.912,6.912,0,0,0-.044,11.928c17.217,10.188,51.492,30.522,69.253,41.033a21.777,21.777,0,0,0,22.045.087l44.359-25.778a6.946,6.946,0,0,1,6.975,0l54.993,31.958a17.156,17.156,0,0,0,17.228.013c26.027-15.084,99.5-57.706,127.465-73.917A6.917,6.917,0,0,0,5124.829,3082.855Z" fill="#c1d5de" fill-rule="evenodd" opacity="0.7" style="mix-blend-mode: multiply;isolation: isolate"/>
      <g id="Group_10415" data-name="Group 10415">
        <g id="Group_10412" data-name="Group 10412">
          <g id="Group_10402" data-name="Group 10402">
            <g id="Group_10399" data-name="Group 10399">
              <g id="Group_10398" data-name="Group 10398">
                <path id="Path_21813" data-name="Path 21813" d="M4916.441,3078.291c-1.282,1.218-2.775,1.816-5.74,3.587v2.614c-3.072,5.378-6.034,7.823-9.922,6.675-5.421-1.6-7.062-2.934-7.127-6.811-.618-6.6-.756-7.842,1.023-12.706a39.057,39.057,0,0,1,11.746-5.495c3.149-1,7.893-3.752,12.465-4.959a3.5,3.5,0,0,1,4.379,3.266C4923.511,3068.593,4919.869,3074.655,4916.441,3078.291Z" fill="#111214" fill-rule="evenodd"/>
                <path id="Path_21814" data-name="Path 21814" d="M4916.441,3078.291c-1.282,1.218-2.775,1.816-5.74,3.587v2.614c-3.072,5.378-6.034,7.823-9.922,6.675-5.421-1.6-7.062-2.933-7.127-6.811a40.6,40.6,0,0,1-.342-7.551c7.21,3.684,13.332,3.347,20.056-3.594,2.017-2.083,7.936-7.47,8.445-11.484a3.883,3.883,0,0,1,1.454,2.735C4923.511,3068.593,4919.869,3074.655,4916.441,3078.291Z" fill-rule="evenodd"/>
              </g>
              <path id="Path_21815" data-name="Path 21815" d="M4924.6,3022.288c-4.772,17.5-8.934,31.125-14.35,48.451a11.269,11.269,0,0,1-5.374,6.67c-4.59,2.464-10.939,2.689-12.185-.872,1.071-17.608,1.648-27.237,3.147-36.751,1.247-7.917,1.927-15.461,5.967-21.851C4906.455,3002.255,4929.481,3004.386,4924.6,3022.288Z" fill="#001624" fill-rule="evenodd"/>
              <path id="Path_21816" data-name="Path 21816" d="M4917.724,3046.381c-2.332,7.826-4.744,15.622-7.475,24.358a11.265,11.265,0,0,1-5.374,6.669,15.471,15.471,0,0,1-6.643,1.826c.826-5.479,2.82-13.548,4.125-18.962a27.237,27.237,0,0,1-8.914,3.46c.173-2.69.3-3.841.471-6.148Z" fill="#00101a" fill-rule="evenodd"/>
            </g>
            <g id="Group_10401" data-name="Group 10401">
              <g id="Group_10400" data-name="Group 10400">
                <path id="Path_21817" data-name="Path 21817" d="M4926.247,3086.047c1.512-.407,5.42-6.36,10.9-5.189,6.577,1.4,14.212-2.321,20.144-2.392,1.057-.013,2.393-.278,3.036.2,2.823,2.107,3.169,4.29.736,7.059a42.419,42.419,0,0,1-7.828,6.467,50.473,50.473,0,0,1-8.849,5.016c-2.664,1.1-4.459.953-6.87,1.81l-.152,2.1a11.471,11.471,0,0,1-5.413,2.768c-3.393.3-7.371-1.874-10.229-4.923-.329-3.467-1.565-6.918.219-12.014Z" fill="#111214" fill-rule="evenodd"/>
                <path id="Path_21818" data-name="Path 21818" d="M4962.027,3080.351c1.108,1.61.825,3.333-.969,5.375a42.419,42.419,0,0,1-7.828,6.467,50.473,50.473,0,0,1-8.849,5.016c-2.664,1.1-4.459.953-6.87,1.81l-.152,2.1a11.471,11.471,0,0,1-5.413,2.768c-3.393.3-7.371-1.874-10.229-4.923-.252-2.646-1.03-5.283-.592-8.648,7.315,5.6,11.82,1.81,14.633,1.667,4.172-.213,10.2.151,19.488-6.518C4957.4,3083.918,4959.716,3082.213,4962.027,3080.351Z" fill-rule="evenodd"/>
                <path id="Path_21819" data-name="Path 21819" d="M4941.148,3087.938c1.7-2.964,1.705-4.909,1.137-6.081l11.687-2.308c5.727-1.188,6.892-.112,5.372,1.24C4954.24,3085.333,4947.52,3086.467,4941.148,3087.938Z" fill="#20232e" fill-rule="evenodd"/>
              </g>
              <path id="Path_21820" data-name="Path 21820" d="M4942.44,3008.87c-.443,18.075-1.015,57.455-2.59,75.856-1.132,5.909-15.084,11.5-20.4,5.622-1-17.58-3.02-32.163-2.211-41.82.674-8.037.887-32.019,3.838-39.1C4923.339,3000.5,4942.826,2993.11,4942.44,3008.87Z" fill="#001e30" fill-rule="evenodd"/>
              <path id="Path_21821" data-name="Path 21821" d="M4942.951,3011.2c-.443,18.076-1.526,55.124-3.1,73.525-.52,2.711-3.74,5.355-7.585,6.854.995-13.3,1.679-27.106,3.3-40.219.731-5.9,1.508-11.171,2.06-15.756.789-6.545,1.6-28.565-1.042-34.8a12.511,12.511,0,0,0-3.932-5.26,11.978,11.978,0,0,1,6.45,3.775,15.669,15.669,0,0,1,3.618,8.8A14.255,14.255,0,0,1,4942.951,3011.2Z" fill="#001624" fill-rule="evenodd"/>
              <path id="Path_21822" data-name="Path 21822" d="M4929.591,3091.015c-4.144,1.225-7.8.2-9.5-1.534-1.064-33.056-2.284-38.245,4.725-50.9,2.453-4.43,5.69-9.013,10.832-17.721C4932.26,3046.1,4932.744,3063.088,4929.591,3091.015Z" fill="#00263d" fill-rule="evenodd"/>
            </g>
          </g>
          <g id="Group_10408" data-name="Group 10408">
            <g id="Group_10405" data-name="Group 10405">
              <g id="Group_10403" data-name="Group 10403">
                <path id="Path_21823" data-name="Path 21823" d="M4864.305,3071.031l-2.564-1.487a13.752,13.752,0,0,1-1.1,5.087,15.821,15.821,0,0,1-6.16,7.492l2.565,1.492a13.417,13.417,0,0,0,3.937-3.5,18.307,18.307,0,0,0,2.391-4.129A12.494,12.494,0,0,0,4864.305,3071.031Z" fill="#a8a5a3" fill-rule="evenodd"/>
                <path id="Path_21824" data-name="Path 21824" d="M4854.477,3082.124l-41.2,23.851,2.517,1.454,41.243-23.813Z" fill="#c9c7c5" fill-rule="evenodd"/>
                <path id="Path_21825" data-name="Path 21825" d="M4863.648,3016.952l-2.564-1.491.657,54.083,2.564,1.487Z" fill="#a8a5a3" fill-rule="evenodd"/>
                <path id="Path_21826" data-name="Path 21826" d="M4864.065,3013.787a32.445,32.445,0,0,0-.432-3.731,26.474,26.474,0,0,0-5.372-12.426,19.042,19.042,0,0,0-5.46-4.774l-2.564-1.486c5.651,3.282,9.211,9.174,10.447,17.28a30.214,30.214,0,0,1,.391,3.647c.023.777.009,3.046.009,3.164l2.565,1.491A30.556,30.556,0,0,0,4864.065,3013.787Z" fill="#918e8c" fill-rule="evenodd"/>
                <path id="Path_21827" data-name="Path 21827" d="M4853.724,2991.293v0c-6.187-3.6-9.96-4.97-17.339-4.439-7.908.569-15.875,3.772-22.39,7.553q-1.909,1.1-3.82,2.355l2.564,1.491q1.912-1.255,3.82-2.36a70.308,70.308,0,0,1,7.7-3.827,48.741,48.741,0,0,1,13-3.5,31.306,31.306,0,0,1,8.931.148,22.383,22.383,0,0,1,6.7,2.125C4853.165,2990.983,4853.451,2991.129,4853.724,2991.293Z" fill="#a8a5a3" fill-rule="evenodd"/>
                <path id="Path_21828" data-name="Path 21828" d="M4864.94,3017.165c0-.182.049-3.633-.013-4.791-.06-1.064-.319-2.746-.546-4.047-1.573-9-6.01-15.256-12.994-18.2-9.128-3.855-21.917-1.682-34.828,5.769q-1.909,1.1-3.82,2.36l.1,1.422c1.241-.817,2.492-1.586,3.732-2.3,12.607-7.279,25.082-9.4,33.975-5.638,6.961,2.942,11.311,9.271,12.706,18.408a31.02,31.02,0,0,1,.391,3.646c.023.778.01,3.046.01,3.165l.656,54.079a13.4,13.4,0,0,1-1.068,5.011,15.82,15.82,0,0,1-6.2,7.573l-41.244,23.813,0,1.482,41.243-23.813c4.728-2.733,8.565-9.379,8.552-14.812Z" fill="#534b48" fill-rule="evenodd"/>
                <path id="Path_21829" data-name="Path 21829" d="M4812.739,2998.253l-2.564-1.491.1,1.427,2.564,1.486Z" fill="#918e8c" fill-rule="evenodd"/>
              </g>
              <g id="Group_10404" data-name="Group 10404">
                <path id="Path_21830" data-name="Path 21830" d="M4853.63,2993.646l-5.061-2.705a19.974,19.974,0,0,1,8.355,9.7l4.806,2.8C4859.884,2999.115,4857.285,2995.77,4853.63,2993.646Z" fill="#03868f" fill-rule="evenodd"/>
                <path id="Path_21831" data-name="Path 21831" d="M4824.965,2987.644l-.294,1.535,3.421,1.834-.219,1.2,1.483.639.61-2.451Z" fill="#03868f" fill-rule="evenodd"/>
                <path id="Path_21832" data-name="Path 21832" d="M4846.288,2988.993c2.923.391,5.9.874,8.46,2.384h0c-3.071-1.787-6.012-3.751-9.435-4.776a26.235,26.235,0,0,0-7.792-1.08,39.3,39.3,0,0,0-10.888,1.627c-.55.155-1.1.319-1.668.5l4.809,2.8A41.776,41.776,0,0,1,4846.288,2988.993Z" fill="#07acb8" fill-rule="evenodd"/>
                <path id="Path_21833" data-name="Path 21833" d="M4829.774,2990.44l-.418,2.409c15.353-4.9,27.455-.94,32.374,10.584l1.795-1.85C4858.375,2989.508,4845.755,2985.34,4829.774,2990.44Z" fill="#079da8" fill-rule="evenodd"/>
              </g>
            </g>
            <g id="Group_10406" data-name="Group 10406">
              <path id="Path_21834" data-name="Path 21834" d="M4811.607,3109.875c-1.6.923-2.4,2.137-2.392,3.351v1.482c0-1.214.8-2.428,2.4-3.351l.114-.922Z" fill="#665c59" fill-rule="evenodd"/>
              <path id="Path_21835" data-name="Path 21835" d="M4836.711,3095.382l-25.1,14.494,0,1.482,25.1-14.493Z" fill="#534b48" fill-rule="evenodd"/>
              <path id="Path_21836" data-name="Path 21836" d="M4808.856,3119.418a1.367,1.367,0,0,0,.141.086l0-1.482a8.227,8.227,0,0,1-2.046-1.692,4.3,4.3,0,0,1-.922-1.245c-.023-.05-.046-.1-.069-.15a4.274,4.274,0,0,1-.377-1.7,13.884,13.884,0,0,0,.027,1.869,4.716,4.716,0,0,0,1.045,2.446A8.223,8.223,0,0,0,4808.856,3119.418Z" fill="#665c59" fill-rule="evenodd"/>
              <path id="Path_21837" data-name="Path 21837" d="M4849.69,3141.534l-40.7-23.511,0,1.482,40.7,23.512Z" fill="#918e8c" fill-rule="evenodd"/>
              <path id="Path_21838" data-name="Path 21838" d="M4891.438,3127.045l-25.1,14.493,0,1.482,25.1-14.492Z" fill="#534b48" fill-rule="evenodd"/>
              <path id="Path_21839" data-name="Path 21839" d="M4866.343,3143.02l0-1.482a14.811,14.811,0,0,1-4.391,1.593,19.9,19.9,0,0,1-7.326.106,15.125,15.125,0,0,1-4.931-1.7l0,1.482a15.64,15.64,0,0,0,5,1.725,20.422,20.422,0,0,0,7.432-.157A14.818,14.818,0,0,0,4866.343,3143.02Z" fill="#665c59" fill-rule="evenodd"/>
              <path id="Path_21840" data-name="Path 21840" d="M4888.874,3125.559l-25.1,14.489a12.693,12.693,0,0,1-11.507-.005l-40.692-23.513c-3.164-1.836-3.145-4.823.032-6.655l25.1-14.493-2.564-1.492-25.1,14.494c-4.6,2.654-4.624,6.978-.05,9.638l40.7,23.512c4.578,2.659,12.047,2.659,16.648,0l25.1-14.493Z" fill="#c9c7c5" fill-rule="evenodd"/>
            </g>
            <g id="Group_10407" data-name="Group 10407">
              <path id="Path_21841" data-name="Path 21841" d="M4924.5,3030.872c-.83-1.361-3.386-2.953-4.115-3.486-9.078-6.638-26.724-16.523-37.385-22.338-4.083-2.144-8.017-4.372-12.234-6.272l-.359-.161c-3.032-1.362-3.5-1.858-6.358-.593-1.107.481-2.264,1.091-3.353,1.63-8.618,4.266-19.025,10.358-27.286,15.473l-19.1,11.832h0l56.806,33.6.254.36c2.069-1.295,4.642-2.935,6.574-4.145,11.633-7.255,20.4-12.475,27-16.23.769-.427,1.542-.859,2.318-1.286,2.628-1.414,5.411-2.892,8.471-4.506q2.154-1.111,4.4-2.246c3.42-1.419,3.659.428,2.805,2.316a2.2,2.2,0,0,0,.618-.355,3.394,3.394,0,0,0,.883-1.079A2.606,2.606,0,0,0,4924.5,3030.872Z" fill="#444044" fill-rule="evenodd"/>
              <path id="Path_21842" data-name="Path 21842" d="M4815.175,3026.424c-.976.558-8.728,2.327-9.979,2.137,15.984,15,48.3,26,58.2,34.184.83.709,2.511-.607,3.621-.464,1.339.212,3.384-.826,4.36-1.391.011-.161-.474-.6-.575-.711C4857.6,3046.217,4826.494,3032.868,4815.175,3026.424Z" fill="#444044" fill-rule="evenodd"/>
              <path id="Path_21843" data-name="Path 21843" d="M4924.5,3030.872c-.83-1.361-3.386-2.953-4.115-3.486-10.778-7.882-25.529-15.872-37.385-22.338-4.083-2.144-8.017-4.372-12.234-6.272l-.359-.161c-2.739-1.23-3.389-1.754-5.593-.911,12.293,6.978,49.2,26.521,59.722,35.458A2.511,2.511,0,0,0,4924.5,3030.872Z" fill="#03868f" fill-rule="evenodd"/>
              <path id="Path_21844" data-name="Path 21844" d="M4870.155,3065.253a11.894,11.894,0,0,1-3.508,1.16l-.091.014a4.307,4.307,0,0,1-2.2-.246c-1.747-.873-2-3.3-1.711-5.261l-11.129-6.424q-23.316-13.46-46.64-26.907a5.62,5.62,0,0,0,.485,4.112c1.195,1.907,4.513,4.013,5.9,4.971,12.253,8.479,34.562,21.543,47.968,27.867a21.434,21.434,0,0,0,5.389,1.925,8.255,8.255,0,0,0,3.224-.256,12.208,12.208,0,0,0,2.362-.925Z" fill="#03868f" fill-rule="evenodd"/>
              <path id="Path_21845" data-name="Path 21845" d="M4923.184,3030.985c-8.528,4.223-15.821,8.114-22.931,12.22-8.9,5.137-17.59,10.6-28.3,17.322-.167.108-.339.217-.576.363-3.337,1.941-5.015,1.568-5.515.741-.464-.951.014-2.564.786-4.092l-2.747-.865c-1.76,3.555-1.912,6.484-.948,8.234,1.163,2.137,4.2,2.123,8.451-.317.232-.151.469-.3.7-.442,10.644-6.692,19.276-12.107,28.137-17.225,7.065-4.078,14.225-7.97,22.836-12.171a3.581,3.581,0,0,0,1.6-2.646C4924.743,3031.052,4924.075,3030.548,4923.184,3030.985Z" fill="#2c282c" fill-rule="evenodd"/>
            </g>
          </g>
          <g id="Group_10411" data-name="Group 10411">
            <g id="Group_10409" data-name="Group 10409">
              <path id="Path_21846" data-name="Path 21846" d="M4915.254,3011.9c6.215-3.5,18.517-12.633,12.848-18.059-5.782-13.755-25.115-7.76-32.472-5.6-11.166,3.281-39.9,10.514-50.868,22.219l-19.208-19.322c-2.174,9.927-6.168,23.568-4.014,34.667,1.32,6.809,2.165,8.877,8.05,12.335,3.878,2.279,8.7,4.377,11.364,4.9a22.679,22.679,0,0,0,14.417-1.875C4869,3034.633,4907.235,3016.423,4915.254,3011.9Z" fill="#001624" fill-rule="evenodd"/>
              <path id="Path_21847" data-name="Path 21847" d="M4887.579,3013.435c4.434-2.5,29.124-7.777,31.828-12.782.624-1.155-.546-3.279-1.171-4.373-11.727.019-37.625,6.7-53.407,12.94Z" fill="#00101a" fill-rule="evenodd"/>
            </g>
            <g id="Group_10410" data-name="Group 10410">
              <path id="Path_21848" data-name="Path 21848" d="M4936.934,3016.7c6.214-3.5,6.168-12.6,1.141-18.628-2.94-3.526-8.653-5.173-15.992-3.893-11.621,2.029-49.9,17.561-60.87,25.4l-22.959-23.414c-2.173,9.927-2.757,27.659-.6,38.759,1.32,6.809,2.506,8.877,8.391,12.335,3.877,2.279,8.7,4.377,11.363,4.9a22.688,22.688,0,0,0,14.418-1.877C4885.457,3043.754,4928.915,3021.225,4936.934,3016.7Z" fill="#001e30" fill-rule="evenodd"/>
              <path id="Path_21849" data-name="Path 21849" d="M4875.5,3011.346a105.606,105.606,0,0,0-14.285,8.238l-22.959-23.414c-2.173,9.927-2.757,27.659-.6,38.759,1.32,6.809,2.506,8.877,8.391,12.335,3.877,2.279,8.7,4.377,11.363,4.9a22.688,22.688,0,0,0,14.418-1.877c7.361-3.528,42.158-20.874,52.336-26.761,4.538-3.967,9.29-14.606,8.637-14.371-16.12,12.787-40.426,20.3-49.607,25.039C4882.5,3031.61,4882.677,3016.283,4875.5,3011.346Z" fill="#001624" fill-rule="evenodd"/>
              <path id="Path_21850" data-name="Path 21850" d="M4930.433,2994.06c10,1.431,16.447,14.468,8.063,22.23a45.005,45.005,0,0,0-.7-10.543A19.41,19.41,0,0,0,4930.433,2994.06Z" fill="#11101a" fill-rule="evenodd"/>
              <path id="Path_21851" data-name="Path 21851" d="M4929.818,3006.668c5.977-2.775,3.037-9.592-.733-10.516-8.06-1.975-37.909,10.523-48.981,15.213,3.645,2.951,5.35,9.746,6.08,14.463C4894.762,3022.237,4920.869,3010.823,4929.818,3006.668Z" fill="#00263d" fill-rule="evenodd"/>
            </g>
          </g>
        </g>
        <g id="Group_10414" data-name="Group 10414">
          <path id="Path_21852" data-name="Path 21852" d="M4864.764,3007.406c9.794-3.184,19.2-6.9,28.983-10.116-2.407-4.092-6.258-5.23-10.387-5.49-13.186,3.982-30.606,10.135-38.6,18.663C4842.322,3008.009,4857.381,3016.293,4864.764,3007.406Z" fill="#e0f5ff" fill-rule="evenodd"/>
          <g id="Group_10413" data-name="Group 10413">
            <path id="Path_21853" data-name="Path 21853" d="M4872.909,3012.989a91.38,91.38,0,0,0-11.7,6.595l-22.959-23.414c-2.173,9.927-2.757,27.659-.6,38.759,1.32,6.809,2.506,8.877,8.391,12.335,3.877,2.279,8.7,4.377,11.363,4.9a22.688,22.688,0,0,0,14.418-1.877c8.8-4.221,30.044-15.11,46.147-23.513.163-8.808-1.826-17.091-8.767-23.69-11.871,3.919-26.011,7.761-35.119,11.365Q4873.5,3013.68,4872.909,3012.989Z" fill="#00263d" fill-rule="evenodd"/>
          </g>
        </g>
      </g>
      <g id="Group_10416" data-name="Group 10416">
        <path id="Path_21854" data-name="Path 21854" d="M4893.527,2944.645l-5.268-2.592a26.736,26.736,0,0,1-2.151,9.894c-2.4,5.78-6.816,11.643-11.979,14.574l4.986,2.9c6.293-3.707,9.871-7.786,12.573-14.608C4892.658,2952.362,4893.828,2947.554,4893.527,2944.645Z" fill="#a8a5a3" fill-rule="evenodd"/>
        <path id="Path_21855" data-name="Path 21855" d="M4887.489,2878.615l.77,63.438,4.987,2.893-.358-63.155-.138-6.351C4891.052,2876.463,4889.293,2877.524,4887.489,2878.615Z" fill="#a8a5a3" fill-rule="evenodd"/>
        <path id="Path_21856" data-name="Path 21856" d="M4797.09,3010.746l1.532,1.089,3.615,1.68c53.663-30.594,23.4-13.213,76.879-44.094l-4.987-2.9C4820.661,2997.477,4850.6,2979.854,4797.09,3010.746Z" fill="#c9c7c5" fill-rule="evenodd"/>
        <path id="Path_21857" data-name="Path 21857" d="M4802.238,3013.515l-5.149-2.769c-3.126,1.789-7.758,2.3-11.1.416C4792.651,3015.937,4796.05,3017.168,4802.238,3013.515Z" fill="#bfbdbb" fill-rule="evenodd"/>
        <path id="Path_21858" data-name="Path 21858" d="M4784.91,3006.64l-5.533-3.3c.014,5.43,1.658,9.181,4.761,10.984l5.814,3.379C4786.848,3015.9,4784.924,3012.07,4784.91,3006.64Z" fill="#c9c7c5" fill-rule="evenodd"/>
        <path id="Path_21859" data-name="Path 21859" d="M4779.312,2941.682l.065,61.665,5.534,3.293.55-67.8C4783.281,2939.862,4781.215,2940.816,4779.312,2941.682Z" fill="#d6d4d2" fill-rule="evenodd"/>
        <path id="Path_21860" data-name="Path 21860" d="M4787.323,2937.965l.185,67.174c.028,9.292,6.627,13.056,14.729,8.377,53.417-30.836,23.465-13.254,76.879-44.1,5.1-2.94,9.566-8.633,12.051-14.73a26.09,26.09,0,0,0,2.079-9.745l-.772-63.6-.07-5.692,2.5-1.5.857,69.349c.026,10.567-7.437,23.494-16.634,28.808-53.457,30.867-23.424,13.329-76.886,44.2-9.519,5.5-17.3,1.08-17.327-9.86-.128-22.344-.742-44.756-.838-67.15C4785.126,2939,4786.213,2938.489,4787.323,2937.965Z" fill="#534b48" fill-rule="evenodd"/>
      </g>
      <g id="Group_10419" data-name="Group 10419">
        <g id="Group_10417" data-name="Group 10417">
          <path id="Path_21861" data-name="Path 21861" d="M5097.086,3061.937l-5.269-2.591a26.713,26.713,0,0,1-2.151,9.894c-2.4,5.78-6.816,11.643-11.98,14.573l4.988,2.9c6.292-3.707,9.869-7.786,12.571-14.608C5096.216,3069.655,5097.386,3064.847,5097.086,3061.937Z" fill="#a8a5a3" fill-rule="evenodd"/>
          <path id="Path_21862" data-name="Path 21862" d="M5091.046,2995.907l.771,63.439,4.987,2.892-.357-63.155-.139-6.35C5094.61,2993.755,5092.851,2994.816,5091.046,2995.907Z" fill="#a8a5a3" fill-rule="evenodd"/>
          <path id="Path_21863" data-name="Path 21863" d="M5000.647,3128.039l1.532,1.089,3.616,1.681c53.663-30.595,23.4-13.214,76.879-44.095l-4.988-2.9C5024.219,3114.769,5054.155,3097.146,5000.647,3128.039Z" fill="#c9c7c5" fill-rule="evenodd"/>
          <path id="Path_21864" data-name="Path 21864" d="M5005.795,3130.809l-5.148-2.77c-3.126,1.788-7.758,2.3-11.1.416C4996.209,3133.23,4999.608,3134.462,5005.795,3130.809Z" fill="#bfbdbb" fill-rule="evenodd"/>
          <path id="Path_21865" data-name="Path 21865" d="M4988.468,3123.932l-5.534-3.3c.015,5.43,1.659,9.181,4.762,10.984l5.814,3.378C4990.406,3133.189,4988.482,3129.362,4988.468,3123.932Z" fill="#c9c7c5" fill-rule="evenodd"/>
          <path id="Path_21866" data-name="Path 21866" d="M4982.87,3058.974l.064,61.666,5.534,3.292.55-67.8C4986.839,3057.155,4984.774,3058.109,4982.87,3058.974Z" fill="#d6d4d2" fill-rule="evenodd"/>
          <path id="Path_21867" data-name="Path 21867" d="M4990.88,3055.258l.186,67.173c.028,9.293,6.628,13.056,14.729,8.378,53.417-30.836,23.465-13.255,76.879-44.095,5.1-2.94,9.566-8.634,12.051-14.73a26.082,26.082,0,0,0,2.079-9.746l-.773-63.6-.068-5.693,2.5-1.5.857,69.348c.026,10.567-7.436,23.5-16.633,28.81-53.459,30.866-23.425,13.328-76.887,44.2-9.52,5.5-17.3,1.082-17.327-9.86-.129-22.344-.743-44.755-.838-67.149C4988.685,3056.292,4989.772,3055.782,4990.88,3055.258Z" fill="#534b48" fill-rule="evenodd"/>
        </g>
        <g id="Group_10418" data-name="Group 10418">
          <path id="Path_21868" data-name="Path 21868" d="M4887.329,2852.134l-7.241,4.212-7.27,4.227c-41.574,24.135-65.211,38.1-106.792,62.222a82.546,82.546,0,0,0-8.668,5.621c-1.527,1.3-2.065,3.571-2.065,5.5v1.894a7.892,7.892,0,0,0,3.463,6.915l14.353,8.279q64.835,37.554,129.78,74.929c42.11,24.309,18.072,9.758,60.182,34.067l3.463,2,14.339,8.274,7.24-4.205,14.568-8.462,7.313-4.257,7.314-4.257,7.341-4.258q22.079-12.84,44.164-25.668c14.657-8.523,11.415-6.814,26.078-15.325l7.27-4.225,7.241-4.216a5.163,5.163,0,0,0,.732-.5c.073-.063.145-.147.23-.209,1.45-1.369,1.662-2.213,2.285-4.017,0-.021.014-.031.014-.052a18.69,18.69,0,0,0,.23-4.013c.014-.221,0-.439,0-.653-.028-.225-.043-.447-.072-.665s-.072-.426-.115-.634a4.436,4.436,0,0,0-.143-.6c-.057-.188-.1-.375-.172-.558s-.116-.349-.187-.518-.158-.32-.231-.475-.157-.29-.229-.43-.158-.257-.23-.383c-.087-.112-.159-.223-.23-.33-.086-.1-.157-.194-.23-.287s-.157-.17-.229-.252a1.3,1.3,0,0,0-.2-.208,1.89,1.89,0,0,0-.188-.187,1.68,1.68,0,0,0-.186-.16,1.725,1.725,0,0,0-.187-.152c-.057-.047-.129-.095-.187-.139-.432-.3-.9-.55-1.355-.813l-13.428-7.752-14.353-8.291c-55.8-32.221-1.629-.581,22.946,13.928l-14.44-8.331-14.425-8.336q-43.374-25.008-86.721-50.065l-14.438-8.336-14.425-8.332-14.424-8.323-14.41-8.316-14.368-8.3Z" fill="#534b48" fill-rule="evenodd"/>
          <path id="Path_21869" data-name="Path 21869" d="M4887.311,2852.89v-.282a.068.068,0,0,1-.015-.051v-.358l-7.241,4.212-7.27,4.227c-41.573,24.135-65.21,38.1-106.792,62.222l-7.226,4.212a2.754,2.754,0,0,1,.387-.205c.1-.047.2-.094.3-.135.072-.03.158-.059.23-.084a1.565,1.565,0,0,1,.187-.058,1.425,1.425,0,0,1,.158-.043c.043-.013.1-.025.158-.037s.072-.02.115-.028l.129-.022c.043-.006.072-.012.115-.017s.086-.013.129-.016a.973.973,0,0,1,.115-.012l.1-.008.116-.007c.029,0,.071,0,.1,0h.086l126.117-73.456Z" fill="#9d908e" fill-rule="evenodd"/>
          <path id="Path_21870" data-name="Path 21870" d="M4944.779,2885.387l-14.41-8.316-14.367-8.3L4887.3,2852.2h0v.389a.5.5,0,0,1,.015.154v.2l219.673,126.147a4.806,4.806,0,0,1,2.385.648c.014,0,.03.01.03.016l-14.34-8.279-14.353-8.29c-55.8-32.222-1.627-.581,22.946,13.928l-14.439-8.331-14.425-8.337q-43.373-25.008-86.72-50.065l-14.44-8.335-14.424-8.332" fill="#9d908e" fill-rule="evenodd"/>
          <path id="Path_21871" data-name="Path 21871" d="M4755.261,2935.871a7.891,7.891,0,0,0,3.462,6.915c90.181,52.013,114.129,65.213,204.316,117.276l3.462,2,14.338,8.272c0,.011.015-1.809.029-4.884l-208.3-120.187Z" fill="#534b48" fill-rule="evenodd"/>
          <path id="Path_21872" data-name="Path 21872" d="M4980.868,3065.448c0,1.6-.029,3.2-.029,4.8h0v.083c46.406-26.946,74.9-43.69,121.289-70.657l7.241-4.215c2.329-1.32,3.492-4.349,3.492-6.858v-.042C5062.839,3017.63,5030.8,3036.407,4980.868,3065.448Z" fill="#534b48" fill-rule="evenodd"/>
          <path id="Path_21873" data-name="Path 21873" d="M4980.868,3063.555v1.893l131.993-76.887v-1.894l-9.983,3.72Z" fill="#534b48" fill-rule="evenodd"/>
          <path id="Path_21874" data-name="Path 21874" d="M4755.261,2933.978v1.893l225.607,129.577v-1.893l-207.239-120.238Z" fill="#534b48" fill-rule="evenodd"/>
          <path id="Path_21875" data-name="Path 21875" d="M5111.711,2982.136l-16.418,6.211-114.41,70v4.541c-.015.219-.015.449-.015.669l131.993-76.889A8.853,8.853,0,0,0,5111.711,2982.136Z" fill="#534b48" fill-rule="evenodd"/>
          <path id="Path_21876" data-name="Path 21876" d="M4756.64,2929.148a8.891,8.891,0,0,0-1.379,4.83l225.607,129.577c.015-.868.015-1.768.015-2.657v-2.96l-217.289-126.272Z" fill="#534b48" fill-rule="evenodd"/>
          <path id="Path_21877" data-name="Path 21877" d="M4980.883,3056.379v-3.838l-197.822-116.068-21.867-10.077a4.784,4.784,0,0,0-.991.109c-.115.024-.23.054-.345.088-.1.03-.2.061-.287.1a2.7,2.7,0,0,0-.274.11,2.547,2.547,0,0,0-.272.126,2.655,2.655,0,0,0-.273.149,2.8,2.8,0,0,0-.273.173c-.1.069-.216.142-.316.218s-.216.176-.316.27a4.645,4.645,0,0,0-.36.342c-.143.143-.272.293-.4.45a4.161,4.161,0,0,0-.446.62l224.243,128.79v-1.559Z" fill="#534b48" fill-rule="evenodd"/>
          <path id="Path_21878" data-name="Path 21878" d="M4980.883,3057.353v.992l130.828-76.209a5.627,5.627,0,0,0-4.712-3.049h-.015l-16.442,6.9-109.659,66.558v4.812Z" fill="#534b48" fill-rule="evenodd"/>
          <path id="Path_21879" data-name="Path 21879" d="M4887.1,2852.94c-47.025,27.325-79.093,46.133-126.117,73.456,94.292,54.435,125.4,71.712,219.689,126.145,47.008-27.322,79.078-46.13,126.1-73.454C5012.484,2924.651,4981.381,2907.375,4887.1,2852.94Z" fill="#ba6a21" fill-rule="evenodd"/>
        </g>
      </g>
      <path id="Path_21880" data-name="Path 21880" d="M4861.85,2951.616c3.207-1.31,8.247-2.825,9.865-5.027,3.512-4.778,7.848-11.147,10.707-11.456l10.944-1.177,8.248,10.06a7.418,7.418,0,0,1-4.929,1.182c-2.739-.321-8.216-4.255-8.785-3.553l-5.21,6.438,7.493-3.314c3.1-.512,4.661.692,4.925,1.829.234,1.008-.759,2.329-2.72,3.254a24.754,24.754,0,0,0-7.87,5.262c-2.695,2.472-5.879,2.8-11.325,3.475-.527.064-9.022,4.037-9.592,4.112Z" fill="#e8a476" fill-rule="evenodd"/>
      <path id="Path_21881" data-name="Path 21881" d="M4883.5,2922.314c-.393-.919-.855-1.3-2.278-.7s-.85,1.625-.457,2.545l6.28,22.267c2.47-1.109.628-1.207,2.687-.954C4889.647,2944.807,4883.682,2922.745,4883.5,2922.314Z" fill="#00263d" fill-rule="evenodd"/>
      <path id="Path_21882" data-name="Path 21882" d="M4826.429,2959.134l41.118-10.421c4.618,0,6.141,9.939,2.979,11.639l-40.276,18.055c-5.178.807-8.96-.167-10.7-2.279-2.077-2.514-1.489-6.562-.041-9.991C4820.833,2963,4822.83,2961.04,4826.429,2959.134Z" fill="#d2eefc" fill-rule="evenodd"/>
      <path id="Path_21883" data-name="Path 21883" d="M4871.9,2953.641c.643,2.766.258,5.834-1.373,6.711l-40.276,18.055c-5.178.807-8.685-.424-10.7-2.279Z" fill="#b2d9ed" fill-rule="evenodd"/>
      <path id="Path_21884" data-name="Path 21884" d="M4828.625,2909.138c13.666,8.415,1.57,54.512,9.751,66.68-6.22,1.88-17.47,3.1-19.738-.061a7.83,7.83,0,0,1-1.85-5.027c-.951-13.856-3.2-27.634-2.923-37.367C4814.175,2922.47,4817.188,2910.966,4828.625,2909.138Z" fill="#c3e6f7" fill-rule="evenodd"/>
      <path id="Path_21885" data-name="Path 21885" d="M4828.625,2909.138c13.666,8.415,1.57,54.512,9.751,66.68a72.429,72.429,0,0,1-12.9,1.852,8.624,8.624,0,0,1-2.553-.159c-2.443-13.278-9.691-35.03-8.867-47.3C4814.64,2921.477,4818.148,2911.086,4828.625,2909.138Z" fill="#b2d9ed" fill-rule="evenodd"/>
      <g id="Group_10426" data-name="Group 10426">
        <path id="Path_21886" data-name="Path 21886" d="M4827.627,2909.49c13.686,8.429-2.008,41.467,6.185,53.654-6.229,1.883-18.519,3.107-20.79-.062a7.84,7.84,0,0,1-1.853-5.034c-.343-5,.635-12.42,1.076-15.994C4813.671,2930.538,4812.262,2911.517,4827.627,2909.49Z" fill="#1abac6" fill-rule="evenodd"/>
        <path id="Path_21887" data-name="Path 21887" d="M4827.627,2909.49c13.686,8.429-2.008,41.467,6.185,53.654a48.783,48.783,0,0,1-15.435,1.809c-.7-6.825-3.907-21.132-4.119-23.038-.317-2.847-.682-5.646-1.262-8.435C4813.88,2922.884,4815.7,2911.064,4827.627,2909.49Z" fill="#169ca6" fill-rule="evenodd"/>
        <path id="Path_21888" data-name="Path 21888" d="M4825.639,2910a16.238,16.238,0,0,0-10.27,12.361c-3.621,16.784,7.962,39.864,9,58.427.561,9.987-4.578,26.654-3.955,43.736.668,18.361,34.924,36.293,51.723,25.485,1.683-1.082,6.594-25.243,6.571-25.315-2.926-9.09-8.261-21.132-8.069-29.9.493-22.516,10.947-41.195,8.61-52.529a20.774,20.774,0,0,0-7.586-11.664C4862.67,2923.377,4835.883,2905.762,4825.639,2910Z" fill="#1abac6" fill-rule="evenodd"/>
        <path id="Path_21889" data-name="Path 21889" d="M4867.625,3052.012c6.331-1.59,8.013-5.816,9.831-11.762,2.384-7.8,2.924-17.681-.172-24.4-.271-.588-.624-1.453-1.023-2.524-1.913-5.147-4.866-15.075-4.711-22.164.494-22.517,9.981-37.558,7.644-48.893a20.772,20.772,0,0,0-7.585-11.664,113.819,113.819,0,0,0-17.653-10.863l.191,2.389c5.774,3.589,7.941,5.58,12.616,10.519-14.588,13.846-6.459,48.1-4.409,63.793C4863.025,3001.587,4866.364,3028.833,4867.625,3052.012Z" fill="#169ca6" fill-rule="evenodd"/>
        <g id="Group_10420" data-name="Group 10420">
          <path id="Path_21890" data-name="Path 21890" d="M4866.274,2910.845c-1.646.815-10-.369-9.757.378.149,4.624,1.817,7,1.7,15.3-9.761,6.962-23.35-1.084-22.374-6.086-.078-3.406,1.625-12.889-.09-15.662-1.945-3.145-5.943-6.65-7.359-11.419-2.264-7.621-1.44-16.088,5.666-21.732,12.977-10.3,29.573-2.972,33.777,12.1.821,2.943-1.5,4.537-1.419,7.053.017.493.668,1.007,1.2,2.1C4868.348,2894.393,4868.291,2909.845,4866.274,2910.845Z" fill="#e8a476" fill-rule="evenodd"/>
          <path id="Path_21891" data-name="Path 21891" d="M4866.188,2910.759c-1.646.816-9.916-.283-9.671.464.149,4.624,1.817,7,1.7,15.3-5.783-8.446-8.22-13.092-21.7-17.762a8.615,8.615,0,0,0-.761-3.986c-1.945-3.145-5.943-6.65-7.359-11.419-2.264-7.621-1.44-16.088,5.666-21.732,12.977-10.3,29.573-2.972,33.777,12.1.821,2.943-1.5,4.537-1.419,7.053.017.493.668,1.007,1.2,2.1C4868.348,2894.393,4868.205,2909.76,4866.188,2910.759Z" fill="#db9669" fill-rule="evenodd"/>
          <path id="Path_21892" data-name="Path 21892" d="M4865.932,2910.845c-.872.468-4.48.16-7.167-.872a12.473,12.473,0,0,1-3.182-2.209c-1.113-.449-3.585-3.958.245-9.544,3.733-5.447-18.877,8.494-20.074,6.559-1.944-3.145-5.943-6.65-7.359-11.419-2.264-7.621-1.44-16.088,5.666-21.732,12.977-10.3,29.573-2.972,33.777,12.1.821,2.943-1.5,4.537-1.419,7.053.017.493.668,1.007,1.2,2.1C4868.348,2894.393,4867.915,2909.78,4865.932,2910.845Z" fill="#e8a476" fill-rule="evenodd"/>
          <path id="Path_21893" data-name="Path 21893" d="M4866.317,2910.781a7.513,7.513,0,0,1-3.39-.208,9.655,9.655,0,0,1-2.292-5.129c.156-4.964,2.662-8.99,2.651-11-.027-4.247-1.439-2.131.181-6.722,1.244-3.523-.389-4.058-1.106-7.08a4.786,4.786,0,0,0,2.922-2.937,25.083,25.083,0,0,1,2.555,6.025c.821,2.943-1.5,4.537-1.419,7.053.017.493.668,1.007,1.2,2.1C4868.348,2894.393,4868.247,2909.623,4866.317,2910.781Z" fill="#f1b287" fill-rule="evenodd"/>
          <path id="Path_21894" data-name="Path 21894" d="M4856.633,2898.384c-4.649-4.334-9.137,9.453-1.656,9.307C4852.059,2904.6,4854.276,2899.707,4856.633,2898.384Z" fill="#db9669" fill-rule="evenodd"/>
          <path id="Path_21895" data-name="Path 21895" d="M4856.61,2900.4c.7-1.928.11-2.629-.738-2.421-.932.23-2.255,1.568-2.944,3.565-1.11,3.222.482,7.293,3.593,5.7-2.676.155-2.426-3.072-1.624-5.062C4855.442,2900.831,4856.286,2899.873,4856.61,2900.4Z" fill="#f1b287" fill-rule="evenodd"/>
          <path id="Path_21896" data-name="Path 21896" d="M4855.38,2901.269c.749,1.394,1.008,2.222.767,2.7-.168.334-.684.713-1.528-.1A4.82,4.82,0,0,1,4855.38,2901.269Z" fill="#db9669" fill-rule="evenodd"/>
          <path id="Path_21897" data-name="Path 21897" d="M4836.16,2906.669c-2.159-4.531-5.989-7.327-7.765-13.309-2.264-7.62-1.44-16.088,5.666-21.732,10.2-8.1,22.631-5.3,29.529,3.581.369.573-3.537,2.409-2.243,5.273,1.848,4.852,1.811,7.027,1.065,8.093-2.892,4.125-2.945,4.712-2.788,10.993l-1.634,1.32c-.675-4.929-2.866-4.541-5-2.9-3.718,2.872-5.148,9.4-11.336,10.681A5.424,5.424,0,0,1,4836.16,2906.669Z" fill="#361d07" fill-rule="evenodd"/>
          <path id="Path_21898" data-name="Path 21898" d="M4859.561,2898.16c.494,3.077.7,5.025,2.04,6.57.509.587,1.843.785,3.171,1.039a18.7,18.7,0,0,1,.687-3.393,6.3,6.3,0,0,1,2.644-3.734,3.936,3.936,0,0,1-.123,2,4.9,4.9,0,0,0-1.018,2.323,10.022,10.022,0,0,0-.37,3.1c.328.032.6.089.832.122.119.017.129-.877.363-.858.108,2.551.144,5.965-.434,6.191-.74.291-5.068-.592-7.289-1.492-2.318-.938-1.636-1.448-1.852-4.184-.179-2.254-.172-4.81-.484-7.217Z" fill="#361d07" fill-rule="evenodd"/>
          <path id="Path_21899" data-name="Path 21899" d="M4860.809,2903.528a5.6,5.6,0,0,0,.792,1.2c.509.587,1.843.785,3.171,1.039a18.7,18.7,0,0,1,.687-3.393,6.3,6.3,0,0,1,2.644-3.734,3.936,3.936,0,0,1-.123,2,4.9,4.9,0,0,0-1.018,2.323,10.022,10.022,0,0,0-.37,3.1c.328.032.6.089.832.122.119.017.129-.877.363-.858.108,2.551.144,5.965-.434,6.191-.559.22-3.168-.231-5.368-.852a16.658,16.658,0,0,1-1.35-5.226A16.865,16.865,0,0,1,4860.809,2903.528Z" fill="#4f2b0c" fill-rule="evenodd"/>
          <path id="Path_21900" data-name="Path 21900" d="M4838.1,2888.478a20.816,20.816,0,0,0,1.651,8.651c.338-2.187.638-4.406,1.058-6.574.141-.728.3-1.445.48-2.158.512,3.238.884,6.511,1.289,9.765.734-3.459,1.54-6.945,2.129-10.426,1.3,1.988,1.663,6.133,2.155,8.687a70.757,70.757,0,0,0,1.568-9.594c1.391,1.411,1.782,5.155,2.167,7.21a74.525,74.525,0,0,0,1.375-8c.872,1.279,1.141,4.309,1.394,5.893a27.668,27.668,0,0,0,1.341-6.242c1.4,2.442,1.444,5.264,1.712,7.992.54-2.841,1.363-6.068,1.123-8.934a29.618,29.618,0,0,1,1.671,5.03c.145-2.178.342-4.386.32-6.567a11.338,11.338,0,0,1,2.533,5.564c1.027-2.18.538-6.482-.777-9.4l-.154-.343-.374.025q-3.3.212-6.61.418-2.18.135-4.357.267c-.707.042-1.5.119-2.192.119-.291-.011-.653-.073-.944-.111q-1.061-.138-2.12-.286-3.062-.422-6.124-.861c-3.087-.44-6.018-1.2-9.1-1.645-4.309,7.572-1.091,14.951.628,18.645a35.173,35.173,0,0,1-.16-7.3c.18,2.061,1.359,4.781,2.09,6.8a27.972,27.972,0,0,1,.483-6.857,13.52,13.52,0,0,0,2.111,8.226c-.165-3.039-.481-5.436.368-8.581a30.415,30.415,0,0,0,1.96,9.658A40.947,40.947,0,0,1,4838.1,2888.478Z" fill="#54321e" fill-rule="evenodd"/>
          <path id="Path_21901" data-name="Path 21901" d="M4828.254,2888.445c2.305-1.682,7.557-3.368,17.43-4.065a37.433,37.433,0,0,0,15.733-4.269c6.246-3.332,5.264-10.222,2.625-12.564-5.1-4.522-18.272-4.051-27.04.465C4830.6,2871.311,4827.056,2877.851,4828.254,2888.445Z" fill="#361d07" fill-rule="evenodd"/>
          <path id="Path_21902" data-name="Path 21902" d="M4828.254,2888.445c2.305-1.682,7.557-3.368,17.43-4.065a37.433,37.433,0,0,0,15.733-4.269c6.246-3.332,5.264-10.222,2.625-12.564a9.093,9.093,0,0,0-1.65-1.149c-1.593,11.882-7.5,8.684-19.211,12.8,1.71-1.645.888-1.332,2.429-2.3-3.729,1.343-6.573,1.107-10.783,3.835,1.331-1.224,1.669-1.96,2.514-2.6a13.211,13.211,0,0,0-8.235,5.687l-.339-5.6A56.445,56.445,0,0,0,4828.254,2888.445Z" fill="#241304" fill-rule="evenodd"/>
          <path id="Path_21903" data-name="Path 21903" d="M4864.7,2877.2c-1.926,2.413-10.2-3.166-21.773-1.037,2.479-7.646,3.912-9.269,7.389-11.507,4.532-2.916,12.164-1.725,14.558,2.293C4867.166,2870.8,4866.247,2875.254,4864.7,2877.2Z" fill="#4f2b0c" fill-rule="evenodd"/>
          <path id="Path_21904" data-name="Path 21904" d="M4848.464,2875c3.54-3.5,8.891-2.87,13.681-1.576-2.769-2.625-8.476-1.637-11.232-.214,3.72-3.455,6.19-3.322,10.869-2.727a10.158,10.158,0,0,0-10.336.7c3.353-3.959,4.769-3.659,9.676-3.367-3.417-1.829-8.543-1.185-10.635.778,2.52-2.949,4.479-3.594,9.143-3.591-4.009-1.22-7.11-1.1-10.421,2.323,2.592-4.575,8.1-4.6,11.707-3.171a8.8,8.8,0,0,1,5.313,7.6c.08,2.758-1.059,4.486-1.848,4.663C4860.632,2877.265,4858.746,2874.2,4848.464,2875Z" fill="#361d07" fill-rule="evenodd"/>
        </g>
        <path id="Path_21905" data-name="Path 21905" d="M4836.3,2910.547c-1.119-.159-2.075-.58-3.259-.846-2.671.945-3.136,7.439-2.131,9.758,2.147,4.954,8.13,8.875,16.744,10.443,9.807,1.786,21.654-.278,24.6,1.185.517.256-8.493-6.776-9.554-6.976C4852.984,2922.281,4834.569,2918.385,4836.3,2910.547Z" fill="#169ca6" fill-rule="evenodd"/>
        <path id="Path_21906" data-name="Path 21906" d="M4836.77,2910.357c-.257,5.052,13.315,8.709,21.191,5.81,2.093,1.065,4.131,5.751,4.174,7.962-9.463,2.257-23.942,1.115-27.56-6.288C4833.782,2916.22,4834.969,2912.374,4836.77,2910.357Z" fill="#1abac6" fill-rule="evenodd"/>
        <g id="Group_10425" data-name="Group 10425">
          <g id="Group_10421" data-name="Group 10421">
            <path id="Path_21907" data-name="Path 21907" d="M4810.646,2946.761c3.774,2.068,8.14,4.616,12.818,7.335a2.7,2.7,0,0,1,2.093-.272c-.036-.019-.174-.1-.335-.19q-1.952-1.136-3.915-2.248c-1.864-1.057-3.735-2.111-5.618-3.134q-1.609-.879-3.242-1.755c-3.025-1.614-6.134-3.229-9.247-4.663a25.255,25.255,0,0,0-3.351-1.338,2.552,2.552,0,0,0-1.445-.131,2.31,2.31,0,0,0-.892.455c.675-.379,3.337.917,5,1.745C4805.294,2943.944,4807.952,2945.254,4810.646,2946.761Z" fill="#444044" fill-rule="evenodd"/>
            <path id="Path_21908" data-name="Path 21908" d="M4835.11,3019.9c.174-17.474-7.223-38.912-11.761-52.061-1.086-3.16-2.028-5.887-2.641-7.933-.638-2.1,1.288-5,2.777-5.883-.427-.245-.854-.5-1.277-.741-5.529-3.193-11.407-6.573-17.171-9.524-1.962-.967-3.727-1.966-5.775-2.808-.732-.3-1.157-.4-1.542-.247a3.185,3.185,0,0,0-1.339,1.7,3.787,3.787,0,0,0,.277,2.783c1.278,4.067,2.758,8.122,4.128,12.17,2.273,6.751,5.042,15.445,7.061,24.173.731,3.362,1.359,6.505,1.866,9.894,1.046,7,1.616,14.369.125,21.154a53.221,53.221,0,0,1-3.651,11.091c-1.059,2.491-2.239,5.773-.821,8.036,1.195,1.907,4.513,4.013,5.9,4.971,5.582,3.863,11.864,7.639,17.7,11.07l2.113,1.237c-1.6-.933-2.025-2.9-1.954-4.606a15.76,15.76,0,0,1,1.645-5.646A49.241,49.241,0,0,0,4835.11,3019.9Z" fill="#2c282c" fill-rule="evenodd"/>
            <path id="Path_21909" data-name="Path 21909" d="M4804.881,3027.589a5.62,5.62,0,0,0,.485,4.112c1.195,1.907,4.513,4.013,5.9,4.971,5.582,3.863,11.864,7.639,17.7,11.07l2.113,1.237c-1.6-.933-2.025-2.9-1.954-4.606a9.756,9.756,0,0,1,.445-2.543Q4817.224,3034.711,4804.881,3027.589Z" fill="#2c282c" fill-rule="evenodd"/>
            <path id="Path_21910" data-name="Path 21910" d="M4820.659,2958.249a7.062,7.062,0,0,1,2.826-4.228c-.427-.245-.854-.5-1.277-.741-5.529-3.193-11.407-6.573-17.171-9.524-1.962-.967-3.727-1.966-5.775-2.808-.732-.3-1.157-.4-1.542-.247a3.185,3.185,0,0,0-1.339,1.7,2.744,2.744,0,0,0-.037,1.815l7.595,4.383,8.84,5.1Z" fill="#444044" fill-rule="evenodd"/>
            <path id="Path_21911" data-name="Path 21911" d="M4832.067,2957.609l-6.517-3.788a1.971,1.971,0,0,0-2.065.2l6.406,3.724A2.554,2.554,0,0,1,4832.067,2957.609Z" fill="#444044" fill-rule="evenodd"/>
            <path id="Path_21912" data-name="Path 21912" d="M4830.952,2971.731c-1.407-4.075-3.672-8.916-1.061-13.986l-6.406-3.724c-1.837,1-5.807,3.716-5.164,5.712.613,2.047,1.384,4.944,2.471,8.1,8.569,24.825,17.536,42.8,6.678,67.817-1.625,3.744-.078,11.172,3.607,13.325l6.406,3.722c-2.807-1.636-.9-5.308.205-8.412C4847.714,3016.19,4841.562,3002.459,4830.952,2971.731Z" fill="#444044" fill-rule="evenodd"/>
            <path id="Path_21913" data-name="Path 21913" d="M4825.164,3039.3c-.869,2.859-.3,6.206,5.913,9.675l6.406,3.722c-2.308-1.345-2.237-4.411-1.524-7.185Z" fill="#2c282c" fill-rule="evenodd"/>
            <path id="Path_21914" data-name="Path 21914" d="M4827.222,2962.039a4.078,4.078,0,0,1,.383-1.411,6.416,6.416,0,0,1,2.286-2.883l-6.406-3.724c-3.778.091-9.476.656-2.864,4.206l1,.576Z" fill="#444044" fill-rule="evenodd"/>
            <path id="Path_21915" data-name="Path 21915" d="M4857.118,2974.5a1.7,1.7,0,0,0-.09-.25c-.491-1.1-3.531-3.167-4.6-3.927-.815-.561-1.629-1.118-2.451-1.669-5.854-3.885-11.868-7.53-17.966-11.07a2.051,2.051,0,0,0-2.123.164q1.674.975,3.341,1.955c.064.036.122.072.187.108,2.724,1.655,5.485,3.246,8.2,4.92,2.784,1.743,13.025,8.085,13.874,9.482.495-.285,1.387-.376,1.589.308Z" fill="#444044" fill-rule="evenodd"/>
            <path id="Path_21916" data-name="Path 21916" d="M4871.622,3038.462c.055-1.08.089-2.346.072-3.8,0-.2,0-.391-.01-.586v-.173c-.027-1.491-.1-3.009-.226-4.546-.933-12.153-4.557-25.1-7.6-34.7,0-.01,0-.018,0-.027l-.019-.045c-.172-.546-.346-1.088-.514-1.61-1.5-4.8-3.223-9.934-5.155-15.444-.05-.145-.1-.286-.151-.427q-.245-.688-.49-1.391l-.4-1.219-.07-.035a1.314,1.314,0,0,1,.043.144c.532,1.769,1.323,4.124,2.264,6.829q1.842,5.571,3.492,10.756c4.009,12.744,6.983,23.645,8.2,33.465q.294,2.462.455,4.892c.009.141.017.287.022.427s.018.314.027.469q.07,1.425.1,2.795a58.2,58.2,0,0,1-.439,7.9c-.086.685-.184,1.346-.318,2.024a62.778,62.778,0,0,1-4.143,13.186l.013.013c.072-.145.14-.3.2-.423l.169-.381a46.018,46.018,0,0,0,3.853-12.485c.1-.594.186-1.194.266-1.79.018-.128.037-.265.059-.405.092-.658.16-1.307.222-1.968.014-.228.032-.474.045-.728C4871.608,3038.782,4871.6,3038.892,4871.622,3038.462Z" fill="#03868f" fill-rule="evenodd"/>
            <path id="Path_21917" data-name="Path 21917" d="M4871.4,3064.6l-.009,0a.026.026,0,0,0,.009-.018h0c-8.385,4.763-8.372-2.187-5.133-9.892,10.938-26.022-12.452-79.71-10.743-80.574,0-.325-5.752-4.37-6.4-4.8-6.045-4.057-16.99-10.269-19.241-11.576a5.535,5.535,0,0,0-2.7,6.142c.609,2.015,1.518,4.646,2.563,7.673,4.638,13.451,12.272,35.577,11.734,53.259a44.068,44.068,0,0,1-2.724,13.4c-.447,1.407-1.262,2.835-1.944,4.475-1.373,3.31-2.391,6.967-.083,9.423a3.506,3.506,0,0,0,.741.581q2.748,1.587,5.506,3.151c4.818,2.717,11.175,6.3,16.242,8.687a21.434,21.434,0,0,0,5.389,1.925,8.255,8.255,0,0,0,3.224-.256,12.644,12.644,0,0,0,3.068-1.314c.155-.081.3-.163.463-.249,0-.005,0-.009,0-.009l.014-.009a.009.009,0,1,1-.01,0l.019-.005c-.009,0-.015.005-.019.005s.01-.009.01-.013Z" fill="#5a555a" fill-rule="evenodd"/>
            <path id="Path_21918" data-name="Path 21918" d="M4870.155,3065.253a11.894,11.894,0,0,1-3.508,1.16l-.091.014a4.307,4.307,0,0,1-2.2-.246c-1.747-.873-2-3.3-1.711-5.261l-11.129-6.424q-7.838-4.526-15.679-9.047c-.7,2.462-.779,4.885.9,6.671a3.506,3.506,0,0,0,.741.581q2.748,1.587,5.506,3.151c4.818,2.717,11.175,6.3,16.242,8.687a21.434,21.434,0,0,0,5.389,1.925,8.255,8.255,0,0,0,3.224-.256,12.208,12.208,0,0,0,2.362-.925Z" fill="#2c282c" fill-rule="evenodd"/>
            <path id="Path_21919" data-name="Path 21919" d="M4854.451,2977.758q-.226-.74-.447-1.479a2.445,2.445,0,0,1,1.527-2.154c0-.325-5.752-4.37-6.4-4.8-6.045-4.057-16.99-10.269-19.241-11.576a5.757,5.757,0,0,0-2.841,4.194l3.416,1.972,8.848,5.112,8.865,5.113Z" fill="#444044" fill-rule="evenodd"/>
            <path id="Path_21920" data-name="Path 21920" d="M4874.391,3059l-2.435,1.529c-.167.108-.339.217-.576.363-3.337,1.941-5.015,1.568-5.515.741-.464-.951.014-2.564.786-4.092a59.979,59.979,0,0,0,4.847-17.589c1.442-19.094-6.842-43.153-11.82-57.587-1.091-3.115-1.984-5.836-2.58-7.815a1.255,1.255,0,0,0-1.865-.509,2.915,2.915,0,0,0-1.247,3.354c.6,2.023,1.56,4.733,2.628,7.893,4.86,14.084,13.043,37.761,11.674,56.173a44.025,44.025,0,0,1-4.384,15.215c-1.76,3.555-1.912,6.484-.948,8.234,1.163,2.137,4.2,2.123,8.451-.317.232-.151.469-.3.7-.442l4.021-2.526Z" fill="#2c282c" fill-rule="evenodd"/>
          </g>
          <g id="Group_10424" data-name="Group 10424">
            <g id="Group_10422" data-name="Group 10422">
              <path id="Path_21921" data-name="Path 21921" d="M4918.307,3103.082l-2.564-1.486a13.754,13.754,0,0,1-1.106,5.086,15.828,15.828,0,0,1-6.16,7.493l2.564,1.491a13.414,13.414,0,0,0,3.938-3.5,18.291,18.291,0,0,0,2.391-4.129A12.5,12.5,0,0,0,4918.307,3103.082Z" fill="#a8a5a3" fill-rule="evenodd"/>
              <path id="Path_21922" data-name="Path 21922" d="M4908.477,3114.175l-41.2,23.851,2.516,1.453,41.244-23.813Z" fill="#c9c7c5" fill-rule="evenodd"/>
              <path id="Path_21923" data-name="Path 21923" d="M4917.649,3049l-2.564-1.491.658,54.084,2.564,1.486Z" fill="#a8a5a3" fill-rule="evenodd"/>
              <path id="Path_21924" data-name="Path 21924" d="M4918.066,3045.839a32.212,32.212,0,0,0-.433-3.732,26.468,26.468,0,0,0-5.371-12.426,19.042,19.042,0,0,0-5.46-4.774l-2.564-1.486c5.651,3.283,9.211,9.174,10.447,17.28a30.392,30.392,0,0,1,.391,3.646c.023.778.009,3.046.009,3.165l2.564,1.491A30.477,30.477,0,0,0,4918.066,3045.839Z" fill="#918e8c" fill-rule="evenodd"/>
              <path id="Path_21925" data-name="Path 21925" d="M4907.725,3023.344v0c-6.187-3.6-9.96-4.969-17.339-4.439-7.908.569-15.875,3.773-22.39,7.553q-1.911,1.1-3.82,2.354l2.564,1.492q1.909-1.255,3.82-2.36a70.454,70.454,0,0,1,7.7-3.828,48.806,48.806,0,0,1,13-3.5,31.261,31.261,0,0,1,8.931.149,22.354,22.354,0,0,1,6.695,2.125C4907.166,3023.034,4907.452,3023.18,4907.725,3023.344Z" fill="#a8a5a3" fill-rule="evenodd"/>
              <path id="Path_21926" data-name="Path 21926" d="M4918.941,3049.216c0-.181.05-3.632-.014-4.792-.059-1.063-.318-2.745-.545-4.045-1.573-9-6.011-15.258-12.994-18.2-9.129-3.855-21.917-1.681-34.828,5.769q-1.911,1.105-3.82,2.36l.1,1.423c1.241-.819,2.492-1.587,3.732-2.306,12.607-7.277,25.082-9.4,33.975-5.637,6.96,2.942,11.311,9.27,12.706,18.408a31.234,31.234,0,0,1,.391,3.647c.023.777.009,3.046.009,3.164l.658,54.079a13.429,13.429,0,0,1-1.069,5.011,15.816,15.816,0,0,1-6.2,7.573l-41.244,23.813,0,1.483,41.244-23.815c4.728-2.731,8.565-9.378,8.551-14.811Z" fill="#534b48" fill-rule="evenodd"/>
              <path id="Path_21927" data-name="Path 21927" d="M4866.74,3030.3l-2.564-1.491.1,1.428,2.564,1.486Z" fill="#918e8c" fill-rule="evenodd"/>
            </g>
            <g id="Group_10423" data-name="Group 10423">
              <path id="Path_21928" data-name="Path 21928" d="M4907.631,3025.7l-5.061-2.706a19.985,19.985,0,0,1,8.355,9.7l4.805,2.8A19.762,19.762,0,0,0,4907.631,3025.7Z" fill="#444044" fill-rule="evenodd"/>
              <path id="Path_21929" data-name="Path 21929" d="M4878.966,3019.7l-.294,1.535,3.421,1.834-.219,1.2,1.483.64.609-2.452Z" fill="#444044" fill-rule="evenodd"/>
              <path id="Path_21930" data-name="Path 21930" d="M4900.289,3021.044c2.922.391,5.9.873,8.459,2.384h0c-3.07-1.786-6.012-3.751-9.434-4.776a26.2,26.2,0,0,0-7.792-1.08,39.256,39.256,0,0,0-10.888,1.628c-.551.155-1.1.318-1.668.5l4.809,2.795A41.757,41.757,0,0,1,4900.289,3021.044Z" fill="#2c282c" fill-rule="evenodd"/>
              <path id="Path_21931" data-name="Path 21931" d="M4883.775,3022.491l-.418,2.41c15.353-4.9,27.455-.941,32.373,10.584l1.8-1.851C4912.376,3021.559,4899.756,3017.391,4883.775,3022.491Z" fill="#2c282c" fill-rule="evenodd"/>
            </g>
          </g>
        </g>
      </g>
      <g id="Group_10428" data-name="Group 10428">
        <path id="Path_21932" data-name="Path 21932" d="M4952.441,2958.807l-16.006-9.7q-8.09-4.9-16.29-9.869-10.656,6.218-21.273,12.4-10.59,6.175-21.143,12.325l16.555,9.6q8.177,4.746,16.266,9.44l20.883-12.064Q4941.909,2964.9,4952.441,2958.807Z" fill="#fff" fill-rule="evenodd"/>
        <path id="Path_21933" data-name="Path 21933" d="M4949.412,2958.869q-7.251-4.389-14.588-8.824l-14.816-8.963c-.554.324-1.109.647-1.658.966l14.827,8.954q7.334,4.428,14.6,8.814C4948.317,2959.5,4948.864,2959.186,4949.412,2958.869Z" fill="#ebe8e8" fill-rule="evenodd"/>
        <path id="Path_21934" data-name="Path 21934" d="M4940.625,2963.947q-7.277-4.363-14.637-8.774-7.393-4.433-14.868-8.912,1.351-.786,2.713-1.582l14.853,8.928q7.347,4.416,14.622,8.79Z" fill="#ebe8e8" fill-rule="evenodd"/>
        <path id="Path_21935" data-name="Path 21935" d="M4928.348,2970.954l-6.53-3.91-6.572-3.938c-.49.284-.976.568-1.461.848l6.575,3.934q3.275,1.959,6.533,3.907C4927.377,2971.516,4927.86,2971.235,4928.348,2970.954Z" fill="#ebe8e8" fill-rule="evenodd"/>
        <path id="Path_21936" data-name="Path 21936" d="M4917.722,2977.1q-3.267-1.938-6.556-3.884l-6.6-3.91q4.191-2.432,8.4-4.869l6.577,3.932,6.536,3.9Z" fill="#ebe8e8" fill-rule="evenodd"/>
        <g id="Group_10427" data-name="Group 10427">
          <path id="Path_21937" data-name="Path 21937" d="M4911.651,2961.677l-6.674-3.947-6.717-3.974-1.376.8q3.369,1.989,6.72,3.97l6.676,3.944Z" fill="#ebe8e8" fill-rule="evenodd"/>
          <path id="Path_21938" data-name="Path 21938" d="M4901.669,2967.474q-3.341-1.958-6.7-3.922l-6.742-3.949q3.939-2.292,7.885-4.594,3.371,1.987,6.722,3.968t6.679,3.941Q4905.584,2965.2,4901.669,2967.474Z" fill="#ebe8e8" fill-rule="evenodd"/>
        </g>
        <path id="Path_21939" data-name="Path 21939" d="M4915.19,2978.652q-7.348-4.293-14.782-8.631-7.466-4.359-15.013-8.767c.515-.3,1.034-.6,1.554-.906q7.543,4.41,15,8.775,7.422,4.341,14.773,8.64C4916.213,2978.061,4915.7,2978.356,4915.19,2978.652Z" fill="#ebe8e8" fill-rule="evenodd"/>
        <path id="Path_21940" data-name="Path 21940" d="M4911.034,2981.056q-7.359-4.282-14.805-8.608-7.476-4.347-15.037-8.744,1.506-.878,3.016-1.758,7.554,4.4,15.021,8.76,7.43,4.332,14.788,8.625Q4912.521,2980.195,4911.034,2981.056Z" fill="#ebe8e8" fill-rule="evenodd"/>
        <path id="Path_21941" data-name="Path 21941" d="M4944.4,2961.764q-7.264-4.375-14.616-8.793-7.382-4.44-14.845-8.934,1.061-.62,2.12-1.235,7.458,4.5,14.834,8.945,7.338,4.426,14.6,8.808C4945.8,2960.957,4945.1,2961.362,4944.4,2961.764Z" fill="#ebe8e8" fill-rule="evenodd"/>
        <path id="Path_21942" data-name="Path 21942" d="M4929.26,2970.539q-7.276-4.364-14.638-8.774-7.394-4.431-14.868-8.913,1.353-.784,2.714-1.581,7.469,4.488,14.852,8.928,7.347,4.416,14.623,8.789Q4930.6,2969.767,4929.26,2970.539Z" fill="#ebe8e8" fill-rule="evenodd"/>
        <path id="Path_21943" data-name="Path 21943" d="M4932.953,2968.323q-7.277-4.365-14.637-8.775l-14.867-8.912q1.351-.786,2.712-1.581,7.47,4.486,14.853,8.928,7.345,4.416,14.622,8.789Q4934.292,2967.549,4932.953,2968.323Z" fill="#ebe8e8" fill-rule="evenodd"/>
        <path id="Path_21944" data-name="Path 21944" d="M4937.467,2965.525l-14.782-8.632q-7.466-4.358-15.014-8.766c.516-.3,1.035-.6,1.554-.907q7.546,4.411,15.006,8.775l14.772,8.64C4938.489,2964.934,4937.976,2965.229,4937.467,2965.525Z" fill="#ebe8e8" fill-rule="evenodd"/>
      </g>
      <g id="Group_10430" data-name="Group 10430">
        <path id="Path_21945" data-name="Path 21945" d="M4930.22,2976.205c4.268-.231,13.822-1.593,14.526-3.476l-.432-2.254c-.371-.968-4.188-2.393-8.246-3.643a65.158,65.158,0,0,0-8.38-1.89c-4.118-.826-7.1-.144-9.079,2.873-2.17,3.309-2.981,3.451-8.186,6.044l1.039,7.148c7.018,3.048,11.922,2.372,14.139-2.63C4926.153,2977.132,4927.387,2976.359,4930.22,2976.205Z" fill="#e8a476" fill-rule="evenodd"/>
        <path id="Path_21946" data-name="Path 21946" d="M4879.779,2973.958l32.834-5.561c7.005,1.491,5.178,13.774.944,15.425l-32.076,7.58c-4.769.4-9.346,1.408-11.73-4.3-1.176-2.814.31-6.24,2.383-8.876C4874.034,2975.817,4876.225,2974.639,4879.779,2973.958Z" fill="#1abac6" fill-rule="evenodd"/>
        <g id="Group_10429" data-name="Group 10429">
          <path id="Path_21947" data-name="Path 21947" d="M4875.319,2934.838c5.832,4.056,8.251,21.684,9.954,38.161.056.535-6.848,17.868-9.311,18.408-2.39.523-6.4.321-6.953-2.822-1.394-7.985-5.979-26.251-6.874-33.849-.987-8.382-1.661-15.351,7.049-19.281C4870.545,2934.841,4873.951,2933.886,4875.319,2934.838Z" fill="#1abac6" fill-rule="evenodd"/>
        </g>
        <path id="Path_21948" data-name="Path 21948" d="M4917.307,2975.435c.074,3.666-1.374,7.584-3.75,8.387l-32.516,7.684c-4.765.493-9.808,2.358-12.049-3a5.608,5.608,0,0,1-.41-2.425C4873.544,2990.589,4904.082,2981.1,4917.307,2975.435Z" fill="#169ca6" fill-rule="evenodd"/>
      </g>
    </g>
  </g>
</svg>
