<svg xmlns="http://www.w3.org/2000/svg" width="133.125" height="202.532" viewBox="0 0 133.125 202.532">
  <g id="Group_13734" data-name="Group 13734" transform="translate(-6458.096 -2837.423)">
    <path id="Path_21807" data-name="Path 21807" d="M6591.221,2923.313l-16.483-16.483-50.079,50.079-50.079-50.079-16.483,16.483,50.079,50.079-50.079,50.079,16.483,16.483,50.079-50.079,50.079,50.079,16.483-16.483-50.079-50.079Z" fill="#ff0048"/>
    <path id="Path_21808" data-name="Path 21808" d="M6568.722,2879.738a3.226,3.226,0,0,0-1.633.454v-.016c-1.571.908-5.932,4.128-11.744.043a28.966,28.966,0,0,0-.645-3.9,7.822,7.822,0,0,1,5.361.1l0-.011a2.382,2.382,0,0,0,1.249.011,2.407,2.407,0,1,0-1.246-4.649,2.371,2.371,0,0,0-1.076.634l0-.011a7.828,7.828,0,0,1-4.583,2.761,28.74,28.74,0,0,0-1.539-4.208c2.991-6.443,8.377-5.834,10.191-5.834l-.008-.013a3.264,3.264,0,1,0-2.81-4.868l-.008-.013c-.906,1.571-3.074,6.542-10.154,5.908a29.2,29.2,0,0,0-6.784-6.785c-.635-7.08,4.336-9.247,5.908-10.154l-.014-.008a3.227,3.227,0,0,0,1.21-1.187,3.264,3.264,0,1,0-6.078-1.623l-.013-.008c0,1.814.609,7.2-5.834,10.191a28.907,28.907,0,0,0-3.221-1.248c-1.251-4.4,1.579-6.7,2.468-7.6l-.011,0a2.406,2.406,0,1,0-4.011-1.046l-.011,0c.337,1.221,1.686,4.612-1.562,7.845a28.79,28.79,0,0,0-2.929-.429c-4.084-5.812-.864-10.173.043-11.743h-.015a3.227,3.227,0,0,0,.453-1.633,3.264,3.264,0,1,0-6.075,1.633h-.015c.908,1.57,4.128,5.931.043,11.743a28.876,28.876,0,0,0-9.277,2.485c-6.443-2.991-5.834-8.377-5.834-10.191l-.013.008a3.264,3.264,0,1,0-4.868,2.81l-.014.008c1.572.907,6.543,3.074,5.909,10.154a29.181,29.181,0,0,0-6.785,6.785c-7.08.634-9.247-4.337-10.154-5.908l-.008.013a3.229,3.229,0,0,0-1.187-1.209,3.264,3.264,0,1,0-1.623,6.077l-.008.013c1.814,0,7.2-.609,10.191,5.834a28.868,28.868,0,0,0-1.579,4.348,7.834,7.834,0,0,1-4.58-2.761l0,.011a2.407,2.407,0,1,0-1.073,4l0,.011a7.82,7.82,0,0,1,5.365-.094,28.846,28.846,0,0,0-.612,3.758c-5.812,4.085-10.173.865-11.743-.043v.016a3.229,3.229,0,0,0-1.633-.454,3.264,3.264,0,1,0,0,6.528,3.228,3.228,0,0,0,1.633-.453v.015c1.57-.907,5.931-4.127,11.743-.042a28.879,28.879,0,0,0,2.485,9.276c-2.991,6.443-8.377,5.835-10.191,5.834l.008.013a3.232,3.232,0,0,0-1.641.424,3.264,3.264,0,0,0,3.264,5.654,3.232,3.232,0,0,0,1.187-1.209l.008.013c.907-1.572,3.074-6.543,10.154-5.908a29.092,29.092,0,0,0,2.2,2.733c-1.307,3.91-4.653,4.418-5.823,4.727l.008.008a2.407,2.407,0,1,0,2.922,2.94l.008.008c.317-1.169.845-4.517,4.772-5.8a29.11,29.11,0,0,0,2.693,2.167c.634,7.08-4.337,9.247-5.909,10.153l.014.008a3.264,3.264,0,1,0,4.868,2.811l.013.007c0-1.814-.609-7.2,5.834-10.191a28.876,28.876,0,0,0,9.277,2.485c4.085,5.813.865,10.173-.043,11.744h.015a3.264,3.264,0,1,0,5.622,0h.015c-.907-1.571-4.127-5.931-.043-11.744a28.876,28.876,0,0,0,9.277-2.485c6.443,2.991,5.835,8.377,5.834,10.191l.013-.007a3.265,3.265,0,1,0,4.868-2.811l.014-.008c-1.572-.906-6.543-3.073-5.908-10.153a29.227,29.227,0,0,0,6.784-6.785c7.08-.635,9.248,4.336,10.154,5.908l.008-.013a3.264,3.264,0,1,0,2.81-4.869l.008-.013c-1.814,0-7.2.609-10.191-5.834a28.736,28.736,0,0,0,1.387-3.673,7.731,7.731,0,0,1,4.772,2.782l0-.011a2.408,2.408,0,1,0,1.073-4l0-.011a7.743,7.743,0,0,1-5.511.029,28.825,28.825,0,0,0,.758-4.389c5.812-4.085,10.173-.865,11.744.042v-.015a3.226,3.226,0,0,0,1.633.453,3.264,3.264,0,0,0,0-6.528Zm-45.178,6.3a1.114,1.114,0,1,1-1.114,1.114A1.114,1.114,0,0,1,6523.544,2886.035Zm-19.442-11.906a1.114,1.114,0,1,1,1.114,1.114A1.114,1.114,0,0,1,6504.1,2874.129Zm8.877,24.911a1.114,1.114,0,1,1,1.114-1.114A1.113,1.113,0,0,1,6512.979,2899.04Zm-3.324-8.738a4.438,4.438,0,1,1,4.438-4.438A4.439,4.439,0,0,1,6509.655,2890.3Zm8.991-12.352a1.114,1.114,0,1,1,1.114-1.114A1.114,1.114,0,0,1,6518.646,2877.95Zm-1.748-5.764a2.862,2.862,0,1,1,2.862-2.862A2.861,2.861,0,0,1,6516.9,2872.186Zm6.646,27.488a2.862,2.862,0,1,1,2.862-2.862A2.861,2.861,0,0,1,6523.544,2899.674Zm5.277-18.791a2.024,2.024,0,1,1,2.024-2.023A2.023,2.023,0,0,1,6528.821,2880.883Zm3.248,25.524a1.114,1.114,0,1,1,1.114-1.114A1.114,1.114,0,0,1,6532.069,2906.407Zm-1.224-34.852a4.438,4.438,0,1,1,4.438-4.438A4.438,4.438,0,0,1,6530.845,2871.555Zm5.271,29.511a2.023,2.023,0,1,1,2.024-2.024A2.023,2.023,0,0,1,6536.116,2901.066Zm1.959-13.917a2.862,2.862,0,1,1,2.862-2.862A2.862,2.862,0,0,1,6538.075,2887.149Zm3.976,9.663a1.114,1.114,0,1,1,1.113-1.114A1.114,1.114,0,0,1,6542.051,2896.812Zm0-22.683a1.113,1.113,0,1,1,1.113-1.114A1.113,1.113,0,0,1,6542.051,2874.129Zm6.147,7.592a2.023,2.023,0,1,1,2.024-2.023A2.024,2.024,0,0,1,6548.2,2881.721Z" fill="#fff"/>
  </g>
</svg>
