<svg xmlns="http://www.w3.org/2000/svg" width="205.944" height="334.206" viewBox="0 0 205.944 334.206"><g data-name="Group 6742"><path data-name="Path 13935" d="M106.614 307.743l-56.528-32.194c-6.163-2.816-14.983-5.057-21.262-1.79-5.72 2.978-15.145 9.071-19.311 11.447-3.165 1.8-14.152 8.387-7.309 12.109 20.131 10.946 40.052 23.257 60.494 34.376 3.866 2.1 9.521 2.864 15.458 2.37a40.915 40.915 0 0 0 16.743-4.986q5.1-2.964 10.024-5.834c4.434-2.582 6.785-5.635 7.018-8.458.228-2.757-1.544-5.313-5.327-7.04z" fill="#231f20" fill-rule="evenodd" opacity=".1" style="mix-blend-mode:multiply;isolation:isolate"/><path data-name="Path 13936" d="M64.026 95.156l33.939-15.005-10.22 16.523-21.545 6.815-2.175-8.332" fill="#bac7d1" fill-rule="evenodd"/><text data-name="?" transform="translate(148.607)" fill="#e8f3f7" font-size="35.24" font-family="Helvetica" letter-spacing="-.04em"><tspan x="-.227" y="27">?</tspan></text><path data-name="Path 13937" d="M64.161 98.535c-1.829 4.192-6.366 6.32-10.563 7.466a3.843 3.843 0 0 0-1.744.983c-.522-12.022 1.6-37.236 2.567-41.9.218-1.058 2.378-2.371 4.234-2.218a7.306 7.306 0 0 1 5.167 2.71s.262 15.533.985 29.582a20.379 20.379 0 0 0 .449 2.115 2.88 2.88 0 0 0-1.095 1.262z" fill="#fcc19a"/><path data-name="Path 13938" d="M58.215 69.503s.167 14.895.362 34.171a1.749 1.749 0 0 0 .055.39 24.557 24.557 0 0 1-5.034 1.937 3.825 3.825 0 0 0-1.8 1.036c-.187-2.684-.064-5.5.04-9.128.4-14.042 2.706-33.18 2.706-33.18a5.384 5.384 0 0 1 7-1.066c1.227.7 1.991 1.266 2.2 1.933-1.96-.796-5.529 3.907-5.529 3.907z" fill="#d8b09e" opacity=".37" style="mix-blend-mode:multiply;isolation:isolate"/><path data-name="Path 13939" d="M39.859 46.624c1.275.1 3.485 3.239 7.12 6.267a13.178 13.178 0 0 0 7.82 3.159s2.845.388-.667-7.225c-1.354-2.956 1.418-3.088 1.418-3.088s.993 1.61 2.928 4.57c2.181 3.323 3.238 4.283 4.773 7.641 1.418 3.122 1.262 5.175 1.146 5.718-.2.958-.051 6.309-6.323 4.544-.606-.17-2.595-1.376-3.746-1.651a33.9 33.9 0 0 1-8.81-3.309c-5.178-2.777-6.4-8.917-7.011-13.04-.218-1.476.058-3.672 1.352-3.586z" fill="#fcc19a"/><g data-name="Group 6727" fill-rule="evenodd"><path data-name="Path 13940" d="M115.752 94.462l-4.17 16.2-7 30.352-.99 19.473.382 9.357 4.183 8.138-.3 1.6-4.336 3.879-28.982 16.127-16.433 10.193-1.825 2.74.152 1.445.685 1.446 23.886 12.551 22.517 14.682 2.852.531 1.179.039 4.565-3.537 45.375-25.865 3.195-7 .151-2.282-4.562-7.15-.915-9.281 1.37-14.149 4.868-25.406 5.629-22.194c1.859-7.328 2.056-6.38-3.878-11.2l-7.683-4.64-22.252-12.971-10.437-5.8c-5.002-2.904-5.892-2.457-7.226 2.722z" fill="#53595c"/><g data-name="Group 6724"><path data-name="Path 13941" d="M109.008 251.462l-36.806 21.251.678.481 1.6.747 35.785-20.4 1.021-.845z" fill="#c9c7c5"/><path data-name="Path 13942" d="M74.482 273.939l-2.28-1.227a5.269 5.269 0 0 1-4.918.184c2.951 2.115 4.462 2.666 7.198 1.043z" fill="#bfbdbb"/><path data-name="Path 13943" d="M66.804 270.891l-2.452-1.463c.005 2.405.735 4.068 2.109 4.867l2.577 1.5c-1.375-.801-2.227-2.497-2.234-4.904z" fill="#c9c7c5"/><path data-name="Path 13944" d="M75.646 186.281c.05-.08.08-.161.13-.242a68.048 68.048 0 0 1 12.227-17.422c.1-.1.218-.207.318-.31a61.51 61.51 0 0 1 12.252-9.559 55.775 55.775 0 0 1 11.563-5.456l.1-.212-2-1.111-.221.071a59.211 59.211 0 0 0-11.16 5.018c-11.717 6.739-20.459 17.055-26.128 29.165l-.5 1.1a100.131 100.131 0 0 0-7.636 29.567 69.806 69.806 0 0 0-.285 8.239l.047 44.3 2.452 1.458.379-46.859c.108-13.299 3.002-26.609 8.462-37.747z" fill="#d6d4d2"/><path data-name="Path 13945" d="M83.277 173.055a60.641 60.641 0 0 1 17.391-15.031 53.243 53.243 0 0 1 11.574-4.945l.075 1.862a58.354 58.354 0 0 0-11.138 4.97 59.193 59.193 0 0 0-16.855 14.593c-7.225 9.095-12.19 20.556-14.826 34.171a92.137 92.137 0 0 0-1.66 19.194l.117 42.357c.012 4.119 2.937 5.785 6.527 3.713l36.806-21.247v1.318l-36.806 21.25c-4.218 2.439-7.665.48-7.678-4.369-.082-14.24-.182-28.537-.256-42.792a95.1 95.1 0 0 1 1.721-19.684c2.655-13.97 7.567-25.978 15.008-35.36z" fill="#534b48"/><path data-name="Path 13946" d="M101.715 158.105c.528-.312 1.412-.495 1.929-.77l-.057 2.322c-.5.265-.988.542-1.5.84-10.012 5.784-22.662 17.158-29.184 39.1l-1.841.184c4.666-22.909 20.011-35.536 30.652-41.677z" fill="#53595c"/><path data-name="Path 13947" d="M90.315 167.04a65.8 65.8 0 0 0-10.3 12.651 81.432 81.432 0 0 0-8.948 20.091l-3.958-2.3a78.729 78.729 0 0 1 10.995-23.149 65.773 65.773 0 0 1 8.25-9.593 62.179 62.179 0 0 1 13.212-9.638.952.952 0 0 0 .125-.069l3.957 2.3a61.3 61.3 0 0 0-13.329 9.705z" fill="#6a7378"/></g><g data-name="Group 6725"><path data-name="Path 13948" d="M163.229 276.262a5.859 5.859 0 0 1-3.043 4.268l-.288.768.282.555.13-.072a7.844 7.844 0 0 0 1.824-1.506 4.874 4.874 0 0 0 .821-1.33c.012-.025.019-.049.031-.073s.012-.041.018-.065c.029-.076.06-.173.089-.278a4.15 4.15 0 0 0 .136-1.182z" fill="#665c59"/><path data-name="Path 13949" d="M157.841 273.256v1.323a4.538 4.538 0 0 1 1.841 1.791 2.666 2.666 0 0 1 .3 1.207v-1.323a3.63 3.63 0 0 0-2.141-2.998z" fill="#d6d4d2"/><path data-name="Path 13950" d="M116.762 252.586a10.511 10.511 0 0 1 4.971 1.224l.475-.358-.475-.965a10.524 10.524 0 0 0-4.957-1.32 10.685 10.685 0 0 0-5.3 1.32v1.323a7.84 7.84 0 0 1 .679-.344 10.994 10.994 0 0 1 4.607-.88z" fill="#a8a5a3"/><path data-name="Path 13951" d="M157.841 273.256v1.323l-36.108-20.769v-1.323z" fill="#b5b3b1"/><path data-name="Path 13952" d="M160.13 271.925l-36.107-20.767a16.375 16.375 0 0 0-14.848 0l-22.165 13 2.21 1.258 22.252-12.932a11.325 11.325 0 0 1 10.261 0l36.108 20.769c2.843 1.639 2.862 4.309.044 5.948l-22.252 12.929 2.295 1.331 22.258-12.934c4.075-2.365 4.06-6.228-.056-8.602z" fill="#c9c7c5"/><path data-name="Path 13953" d="M137.928 293.462v1.323l22.252-12.934.006-1.323z" fill="#534b48"/><path data-name="Path 13954" d="M116.762 252.586l.014-1.419a10.685 10.685 0 0 0-5.3 1.32l-.266.832.266.491a7.84 7.84 0 0 1 .679-.344 10.994 10.994 0 0 1 4.607-.88z" fill="#665c59"/><path data-name="Path 13955" d="M89.22 265.419l-.006 1.323 22.258-12.932v-1.323z" fill="#534b48"/></g><g data-name="Group 6726"><path data-name="Path 13956" d="M110.916 180.586a19.06 19.06 0 0 1-1.642-1.069c-1.034-.759-1.649-1.432-1.643-1.815a1.45 1.45 0 0 1-.194.906c-.024.042.088.179.115.206a12.662 12.662 0 0 0 3.29 2.172.726.726 0 0 0 .074-.4z" fill="#53595c"/><path data-name="Path 13957" d="M110.846 180.987a33.846 33.846 0 0 1-3.094-2.022c-.168-.139-.313-.267-.313-.351-.01.021-.015.036-.022.055-.762 1.859-2.821 3.455-4.611 4.516.414-.241 1.55.163 1.924.3a20.177 20.177 0 0 1 2.251 1.1 13.679 13.679 0 0 0 2.365-1.707 5.438 5.438 0 0 0 1.5-1.891z" fill="#53595c"/><path data-name="Path 13958" d="M153.808 205.511l-42.892-24.925a1.094 1.094 0 0 1-.074.4l42.892 24.925a.8.8 0 0 0 .074-.4z" fill="#53595c"/><path data-name="Path 13959" d="M153.734 205.912l-42.892-24.925a5.965 5.965 0 0 1-1.567 1.859 12.852 12.852 0 0 1-2.3 1.746l42.892 24.926a13.6 13.6 0 0 0 2.364-1.709 4.447 4.447 0 0 0 1.503-1.897z" fill="#5f676b"/><path data-name="Path 13960" d="M159.253 207.362a4.725 4.725 0 0 1-2.147-.307c-.412-.151-.8-.3-1.2-.48a21.524 21.524 0 0 1-2.1-1.067 1.774 1.774 0 0 0-.074.4c.458.277.93.54 1.4.8.217.116 1.177.652 1.995 1.051a11.49 11.49 0 0 0 1.885.735 1.694 1.694 0 0 0 .241-1.132z" fill="#53595c"/><path data-name="Path 13961" d="M157.377 207.853a37.88 37.88 0 0 1-1.261-.627c-.8-.429-1.6-.853-2.382-1.314a4.852 4.852 0 0 1-.716 1.091 6.481 6.481 0 0 1-.417.453 7.05 7.05 0 0 1-.368.352 13.6 13.6 0 0 1-2.364 1.709c.914.656 4.092 2.8 4.244 3.842a15.7 15.7 0 0 0 2.738-1.973 9.806 9.806 0 0 0 1.636-1.882 5.319 5.319 0 0 0 .53-1.011 7.916 7.916 0 0 1-1.64-.64z" fill="#53595c"/><path data-name="Path 13962" d="M102.858 183.162l.018-.01a.251.251 0 0 0-.061.028c-.442.229-1.027.537-1.457.768l-1.437.755c-7.309 3.907-14.645 7.72-21.84 11.848-1.526.874-3.043 1.766-4.563 2.649-6.008 3.491-11.724 7.013-16.169 10.151a4.877 4.877 0 0 0-1.964 1.9 4.453 4.453 0 0 0-.389 1.365 2.909 2.909 0 0 0 .719 2.019 10.912 10.912 0 0 0 2.559 2.229c.11.071.261.163.369.234l.37.221c-1.632-.948-.317-4.147.961-5.4a4.629 4.629 0 0 1 .7-.581c7.669-5.09 14.168-9.1 20.54-12.776 8.069-4.661 15.929-8.786 25.766-13.969-.934-.597-3.38-1.778-4.122-1.431z" fill="#5f676b"/><path data-name="Path 13963" d="M56.551 209.906a3.428 3.428 0 0 0-1.166 1.34 4.453 4.453 0 0 0-.389 1.365 2.909 2.909 0 0 0 .719 2.019 10.912 10.912 0 0 0 2.559 2.229c.11.071.261.163.369.234l.37.221c-1.632-.948-.317-4.147.961-5.4l.012-.013z" fill="#53595c"/><path data-name="Path 13964" d="M122.424 90.887c-.163-.1-.326-.184-.489-.27-.433-.226-.867-.43-1.331-.627a9.55 9.55 0 0 0-1.672-.534 5.032 5.032 0 0 0-1.19-.115 2.683 2.683 0 0 0-1.242.341c.841-.263 3.117.816 4.148 1.428a2.323 2.323 0 0 1 1.343-.33 1.3 1.3 0 0 1 .428.109c.092.043.084.043.005-.002z" fill="#5f676b"/><path data-name="Path 13965" d="M120.646 91.11c-.614-.359-3.34-1.877-4.14-1.43-1.948 1.091-2.524 6.127-3.014 8.163q-.657 2.73-1.321 5.46c-2.511 10.4-4.926 20.659-6.9 31.2-.075.4-.174.921-.244 1.316-.609 3.384-1.176 6.772-1.648 10.18a144.663 144.663 0 0 0-.687 5.827c-.194 2.032-.36 4.064-.453 6.1a49.555 49.555 0 0 0-.043 5.079 23.283 23.283 0 0 0 2.352 9.929 18.58 18.58 0 0 0 1.846 3.085 10.231 10.231 0 0 0 .9 1.025 1.1 1.1 0 0 1 .337.662c0 .559 1.307 1.73 3.285 2.88a1.332 1.332 0 0 0-.111-.507c-.612-1.45-2.373-3.1-3.419-5.546a26.626 26.626 0 0 1-1.927-10.515 101.62 101.62 0 0 1 .85-11.43c.941-8.25 2.553-17.205 4.289-25.427a590.789 590.789 0 0 1 2.951-13.07c1.237-5.275 2.413-10.051 3.335-13.879l.223-.919c.412-1.731.772-3.163 1.095-4.6a5.983 5.983 0 0 1 2.444-3.583z" fill="#4c5154"/><path data-name="Path 13966" d="M120.646 91.11c-.614-.359-3.34-1.877-4.14-1.43a5.053 5.053 0 0 0-1.8 2.89l3.554 1.909a5.92 5.92 0 0 1 2.386-3.369z" fill="#5f676b"/><path data-name="Path 13967" d="M59.998 211.889c-1.341 1.079-2.762 4.393-.985 5.425l42.893 24.925c-1.381-.868.059-4.535.983-5.425z" fill="#5f676b"/><path data-name="Path 13968" d="M106.977 184.592c-9.837 5.183-17.7 9.308-25.766 13.969-6.372 3.679-12.871 7.686-20.54 12.776a4.476 4.476 0 0 0-.673.552l42.891 24.925a4.621 4.621 0 0 1 .672-.551c7.672-5.09 14.169-9.1 20.541-12.776 8.071-4.661 15.929-8.788 25.767-13.969z" fill="#6a7378"/><path data-name="Path 13969" d="M110.312 238.469c5.022-3.278 9.583-6.134 13.97-8.752 5.961-3.471 13.958-7.927 24.666-13.63 1.669-.88 3.379-1.785 5.165-2.727a1.966 1.966 0 0 0-.526-1 15.375 15.375 0 0 0-1.662-1.5c-.6-.425-1.583-1.06-1.745-1.166a10.976 10.976 0 0 0-.311-.183c-9.838 5.181-17.7 9.308-25.767 13.969-6.372 3.678-12.869 7.686-20.541 12.776a4.478 4.478 0 0 0-.7.58 5.652 5.652 0 0 0-1.68 3.991 1.639 1.639 0 0 0 .721 1.405c.2.117.473.265.678.375a12.6 12.6 0 0 0 2.868 1.093 5.433 5.433 0 0 0 1.357.12l.225-.026a3.028 3.028 0 0 0 .833-.265c.057-.027.125-.066.174-.095a.246.246 0 0 0 .125-.243 1.828 1.828 0 0 1-.578.221.218.218 0 0 0-.037.006c-.536.074-.89-.252-.934-.858a2.7 2.7 0 0 1 .261-1.224 16.961 16.961 0 0 1 3.438-2.867z" fill="#5f676b"/><path data-name="Path 13970" d="M102.867 236.838a5.652 5.652 0 0 0-1.68 3.991 1.639 1.639 0 0 0 .721 1.405c.2.117.473.265.678.375a12.6 12.6 0 0 0 2.868 1.093 5.433 5.433 0 0 0 1.357.12l.225-.026a3.028 3.028 0 0 0 .833-.265c.057-.027.125-.066.174-.095a.245.245 0 0 0 .125-.243 1.828 1.828 0 0 1-.578.221.218.218 0 0 0-.037.006c-.536.074-.89-.25-.934-.858a2.7 2.7 0 0 1 .261-1.224 8.682 8.682 0 0 1 1.419-1.347z" fill="#53595c"/><path data-name="Path 13971" d="M165.382 115.852l-42.846-24.9a1.454 1.454 0 0 0-1.16-.142l-.055.015a2.793 2.793 0 0 0-.673.286l42.893 24.924a1.891 1.891 0 0 1 1.841-.183z" fill="#6a7378"/><path data-name="Path 13972" d="M152.017 203.015a15.5 15.5 0 0 1-1.071-1.8 23.992 23.992 0 0 1-1.78-4.608 20 20 0 0 1-.641-3.488 46.824 46.824 0 0 1-.175-4.174 99.35 99.35 0 0 1 .735-11.392q.132-1.184.293-2.4l-42.892-24.925c-.106.808-.2 1.607-.292 2.4a99.32 99.32 0 0 0-.735 11.391c0 1.465.063 2.861.174 4.172a20.778 20.778 0 0 0 .641 3.491 24.073 24.073 0 0 0 1.78 4.606c.624 1.221 2.862 3.324 2.862 4.3l42.892 24.925c.056-.871-1.287-1.785-1.791-2.498z" fill="#53595c"/><path data-name="Path 13973" d="M110.637 126.987a370.743 370.743 0 0 0-2.532 12.846 224.394 224.394 0 0 0-1.619 10.4l42.892 24.925c.436-3.363.99-6.856 1.618-10.4a370.81 370.81 0 0 1 2.533-12.847z" fill="#5f676b"/><path data-name="Path 13974" d="M118.241 94.409c-.026.093-.05.186-.069.278-.317 1.465-.76 3.34-1.288 5.525-.922 3.828-2.1 8.6-3.335 13.879a557.753 557.753 0 0 0-2.912 12.9l42.892 24.924a640.62 640.62 0 0 1 2.9-12.893c1.244-5.277 2.421-10.051 3.342-13.881.522-2.183.971-4.06 1.287-5.523.019-.094.044-.188.07-.28z" fill="#6a7378"/><path data-name="Path 13975" d="M120.646 91.11a5.77 5.77 0 0 0-2.407 3.3l42.892 24.925a5.741 5.741 0 0 1 2.408-3.3z" fill="#5f676b"/><path data-name="Path 13976" d="M169.417 120.132a3.378 3.378 0 0 0-.831-1.722.994.994 0 0 0-.081-.1 10.76 10.76 0 0 0-2.613-2.157 3.739 3.739 0 0 0-.814-.439 1.221 1.221 0 0 0-.228-.039 2.362 2.362 0 0 0-1.309.354c.361.212.717.44 1.072.672.417.276.848.565 1.236.88a8.214 8.214 0 0 1 1.83 1.824 1.014 1.014 0 0 1 .155.439.55.55 0 0 1 .161-.053c1.053-.091 1.428.418 1.17 1.6-.3 1.355-.66 2.9-1.081 4.664-1.347 5.635-2.741 11.258-4.046 16.9-1.226 5.272-2.489 10.951-3.616 16.623-.031.166-.061.329-.1.495-.093.509-.2 1.018-.292 1.527q-1.017 5.211-1.767 10.111a163.545 163.545 0 0 0-.611 4.309 134.684 134.684 0 0 0-.65 5.921c-.846 9.8-1.593 11.852 1.724 17.989 1.441 2.667 3.466 3.475 3.05 7.165-.633 5.6-5.488 5.542-7.683 9.56-.011.081-.026.205-.1.254a20.983 20.983 0 0 0 5.143-4.122 11.6 11.6 0 0 0 .714-.96 13.332 13.332 0 0 0 1.513-2.545 10.7 10.7 0 0 0 .84-2.791 7.91 7.91 0 0 0 .059-1.765 5.913 5.913 0 0 0-1.17-3.006c-.989-1.534-1.763-2.786-2.363-3.905-1.9-3.541-2.061-5.742-1.867-11.31.053-1.544.147-3.068.279-4.622q.189-2.2.472-4.526c.229-1.9.495-3.794.787-5.686.364-2.37.765-4.727 1.194-7.089 1.561-8.586 3.609-17.676 5.679-26.408l2.905-12.06c.324-1.355.647-2.705.954-4.064.066-.289.114-.509.151-.672a3.6 3.6 0 0 0 .134-1.246z" fill="#5f676b"/><path data-name="Path 13977" d="M167.546 120.111c-2.738 3.59-10.355 40.659-11.44 46.79-.74 4.3-1.133 8.634-1.594 12.674-.4 3.936-.728 7.811-.721 11.2.037 1.362.055 2.78.167 4.05a19.4 19.4 0 0 0 .61 3.292 23 23 0 0 0 1.712 4.439c.347.579.672 1.223 1.026 1.719.525.746 1.439 1.418 1.749 2.12a2.377 2.377 0 0 1 .2.973 2.609 2.609 0 0 1-.236 1.129c-.775 2.02-3.1 3.825-4.9 4.866-9.831 5.185-17.677 9.3-25.724 13.943-6.341 3.661-12.837 7.7-20.448 12.722a3.148 3.148 0 0 0-1.324 2.54c.056.817.678 1.128 1.549.631a.282.282 0 0 1-.1.235c7.652-5.083 14.192-9.1 20.658-12.824a931.3 931.3 0 0 1 17.018-9.331c.144-.081.292-.158.442-.237.018-.01.038-.018.051-.027l4.212-2.223c.9-.47 2-1.053 3.527-1.854a.3.3 0 0 0 .151-.267c3.107-2.059 5.709-4.033 7.242-7.582a10.387 10.387 0 0 0 .573-1.751 7.1 7.1 0 0 0 .192-1.657c0-2.231-.794-2.57-2.046-4.1a7.116 7.116 0 0 1-1.033-1.613 20.891 20.891 0 0 1-1.438-3.414 13.131 13.131 0 0 1-.783-3.687 33.055 33.055 0 0 1-.164-3.752 117 117 0 0 1 1.551-17.052c1.437-9.473 3.682-19.9 5.824-29.092 1.065-4.6 2.11-8.882 3.011-12.6.889-3.7 1.655-6.847 2.172-9.2.184-.871-.157-1.312-.625-1.424a.993.993 0 0 0-1.061.364z" fill="#6a7378"/><path data-name="Path 13978" d="M156.408 166.9a367.648 367.648 0 0 1 2.478-12.589c1.925-7.849 4.164-15.631 5.741-23.558.29-1.454 1.885-10.122 3.207-10.9 0-.389-.6-1.032-.871-1.305a18.562 18.562 0 0 0-2.629-2.038 4.455 4.455 0 0 0-.793-.472 5.642 5.642 0 0 0-2.478 3.58c-.316 1.463-.765 3.34-1.287 5.523-.921 3.83-2.1 8.6-3.342 13.881a653.384 653.384 0 0 0-2.017 8.816c-1.246 5.617-2.407 11.247-3.421 16.924-1.347 7.536-2.673 16.559-2.646 24.185 0 1.465.057 2.86.175 4.174a20 20 0 0 0 .641 3.488 23.992 23.992 0 0 0 1.78 4.608 15.5 15.5 0 0 0 1.071 1.8 25.265 25.265 0 0 1 1.679 1.989 1.337 1.337 0 0 1 .112.507c.423.249.844.475 1.264.682.528.259 1.133.541 1.7.752.519.194 1.979.716 2.485.42a2.4 2.4 0 0 0-.172-.992 22.342 22.342 0 0 0-1.776-2.1c-.354-.5-.679-1.14-1.026-1.719a23 23 0 0 1-1.712-4.439 19.4 19.4 0 0 1-.61-3.292c-.112-1.27-.13-2.688-.167-4.05-.007-3.386.323-7.261.721-11.2.457-4.04 1.153-8.371 1.893-12.675z" fill="#4c5154"/><path data-name="Path 13979" d="M166.566 122.422a5.565 5.565 0 0 1 1.268-2.573c0-.389-.6-1.032-.871-1.305a18.562 18.562 0 0 0-2.629-2.038 4.455 4.455 0 0 0-.793-.472 5.614 5.614 0 0 0-2.4 3.247z" fill="#5f676b"/><path data-name="Path 13980" d="M106.614 189.248c-8.084 4.258-14.543 7.648-21.175 11.477-5.234 3.024-10.576 6.317-16.876 10.5a3.771 3.771 0 0 0-.552.453l35.244 20.482a3.662 3.662 0 0 1 .551-.454c6.3-4.181 11.642-7.475 16.879-10.5 6.631-3.831 13.089-7.222 21.172-11.479z" fill="#778187"/></g></g><g data-name="Group 6730" fill-rule="evenodd"><g data-name="Group 6728"><path data-name="Path 13981" d="M84.982 290.822c1.062 3.1 2.032 5.508 1.933 7.461-.1 2.02-.654 3.986-.627 6.541.022 2.193.133 4.057.387 6.538.26 2.537-.005 3.739-1.12 4.753-1.808 1.648-7.2 4.2-9.755 5.062a10.259 10.259 0 0 1-4.472.6 19.952 19.952 0 0 1-5.994-1.092c-.551-.208-1.116-2.348-1.156-4.2-.084-3.887.268-3.558 1.876-9.717.55-2.1.994-4.111 1.75-6.567.942-3.061 2.111-5.754 2.232-8.767l11.38-.444z" fill="#111214"/><path data-name="Path 13982" d="M84.982 290.822c1.062 3.1 2.032 5.508 1.933 7.461-.1 2.02-.654 3.986-.627 6.541.022 2.193.133 4.057.387 6.538.26 2.537-.005 3.739-1.12 4.753-1.808 1.648-7.2 4.2-9.755 5.062a10.259 10.259 0 0 1-4.472.6 19.952 19.952 0 0 1-5.994-1.092c-.5-.189-1.009-1.961-1.131-3.671h.031c3.477 1.186 6.853 1.661 10.195.028 7.052-3.445 6.134-6.306 5.471-14.436-4.589-.809-6.391-1.626-8.721-4.14 3.913 1.151 8.118 1.356 10.2-1.034l.648-6.469z"/><path data-name="Path 13983" d="M69.446 299.092c3.291 2.6 2.14 3.732 6.945 4.361-1.187 4.753-1.338 4.982-3.746 9.367-.194 1.811-.339 4.189-3.866 4.211-6.585.042-2.016-5.394-1.993-5.6a54.375 54.375 0 0 1 2.66-12.339z" fill="#20232e"/></g><g data-name="Group 6729"><path data-name="Path 13984" d="M44.013 272.142c-1.157 4.057-1.447 6.151-3.132 8.513-3.361 4.708-8.316 8.072-15.529 13.186-3.433 2.434-4.158 4.74-.682 6.861 2.736 1.67 9.432.342 13.614-.641 7.848-1.846 11.022-6.569 13.7-7.8l2.032.462c1.664.029 7.8-3.309 9.072-5.017.33-1.469 1.277-3.325 1.431-5.384.243-6.642-.8-5.967-2.576-11.163-6.033.44-11.882.777-17.93.983z" fill="#111214"/><path data-name="Path 13985" d="M22.396 297.662c-.036 1.05.674 2.064 2.274 3.041 2.736 1.67 9.432.342 13.614-.641 7.848-1.846 11.022-6.569 13.7-7.8l2.032.46c1.664.029 7.8-3.251 9.48-4.784a38.977 38.977 0 0 0 1.023-5.617c.243-6.642-.8-5.967-2.576-11.163-2.671.194-5.307.368-7.938.52-.477 4.373.162 11.915-3.437 14.722-4.025 3.139-7.163 3.975-9.852 5.61-8.561 5.21-14.221 9.443-18.32 5.652z"/><path data-name="Path 13986" d="M42.109 279.601c.856 1.262 2.539 1.974 5.322 2.667-4.489 5.06-5.121 4.588-11.15 7.974-3.038 3.471-3.459 4.13-5.4 5.25-2.313 1.337-5.582 2.71-6.955 1.723-.591-.425.2-1.612 2.752-3.46 2.891-2.094 5.834-4.219 8.5-6.433a31.419 31.419 0 0 0 6.931-7.721z" fill="#20232e"/></g><path data-name="Path 13987" d="M57.426 222.603c15.692-14.438 39.381-14.639 51.194-21.908 8.6-5.295 13.152-5.941 7.782-17.119l-28.616-10.814c0 2.709-1.68 6.318-2.531 6.645a189.067 189.067 0 0 0-40.2 21.137c-2.129 1.185-5.438 4.259-5.477 6.912-.054 3.626 9.179 13.635 17.848 15.147z" fill="#002a38"/><path data-name="Path 13988" d="M57.426 222.603c15.692-14.438 39.381-14.639 51.194-21.908 8.6-5.295 13.152-5.941 7.782-17.119l-10.607-4.01-.013.025c-1.491 3.034-5.675 6.327-8.058 8.368a40.75 40.75 0 0 1-6.637 4.611c-5.814 3.286-20.99 10.975-31.432 15.351-4.208 1.763-5.065 3.559-5.315 5.669a27.877 27.877 0 0 0 .367 8.273 16.253 16.253 0 0 0 2.719.74z" fill="#00171f"/><path data-name="Path 13989" d="M39.675 216.617c.8 19.932 1.742 39.708 2.939 59.676 2.84 4.659 16.539 4.945 21.218-1.6.7-18.1 1.833-32.386 1.321-42.288-.426-8.242-2.563-13.107-3.485-20.317-3.11-8.172-15.75-11.338-20.509-7.914-2.957 2.122-1.625 8.946-1.484 12.443z" fill="#002a38"/><path data-name="Path 13990" d="M55.656 279.332c3.3-.648 6.393-2.15 8.176-4.644.7-18.1 1.833-32.386 1.321-42.288-.426-8.242-2.563-13.107-3.485-20.317a11.882 11.882 0 0 0-2.526-3.94c-3.765 1.694-4.561 3.426-4.8 5.447-.852 7.147 1.886 12.968 2.528 19.974 1.141 12.517-.561 30.852-1.214 45.768z" fill="#00171f"/><path data-name="Path 13991" d="M82.697 236.531c8.82-8.114 21.684-13 32.294-16.367 8.268-2.62 14.748-4.229 19.364-6.7 12.442-6.665 9.885-15.691 4.44-22.4-2.931-3.609-5.954-5.578-9.6-8.833l-24.458-.714c-.142 3.209-10.812 8.628-10.665 12.128a3.814 3.814 0 0 0 1.347 2.224c1.862 1.3-1.342 3.158-2.778 4.06-6.215 3.9-16.122 10.49-22.314 14.544-2.07 1.475-5.468 4.4-5.534 6.711-.11 3.621 9.236 13.837 17.904 15.347z" fill="#002a38"/><path data-name="Path 13992" d="M82.697 236.531c8.82-8.114 21.684-13 32.294-16.367 8.268-2.62 14.748-4.229 19.364-6.7 12.442-6.665 9.885-15.691 4.44-22.4-2.931-3.609-5.954-5.578-9.6-8.833l-2.738.915 4.136 10.181c-11.275 7.628-29.694 18.285-43.609 27.474-4.076 2.69-6.518 3.984-7.1 6.942-.4 2.043-.011 4.517.528 8.2a15.937 15.937 0 0 0 2.285.588z" fill="#00171f"/><path data-name="Path 13993" d="M64.577 222.552c.867 22.9 1.907 48.159 3.28 71.036 2.839 4.659 16.537 4.945 21.216-1.606.7-18.1 1.834-34.209 1.322-44.111-.427-8.242-3.61-13.806-3.484-21.132-3.872-10.172-22.515-12.587-22.334-4.187z" fill="#002a38"/><path data-name="Path 13994" d="M80.894 296.627c3.3-.646 6.4-2.148 8.179-4.645.7-18.1 1.834-34.209 1.322-44.111-.427-8.242-3.61-13.806-3.484-21.132a11.953 11.953 0 0 0-2.7-4.121c-2.416 1.629-3.889 2.911-4.322 5.121-.719 3.666 1.1 8.719 1.78 19.678.936 15.205-1.043 33.745-.775 49.21z" fill="#00171f"/><path data-name="Path 13995" d="M103.663 184.482l18.38 10.527c-16.739 9.986-27.514 18.374-44.342 26.816-3.925 1.969-13.071 0-6.988-4.874 8.2-6.564 17.792-11.853 26.943-18.863 1.89-1.447-2.833-2.247-1.925-5.219.675-2.207 6.532-7.843 7.932-8.387z" fill="#013547"/><path data-name="Path 13996" d="M66.558 221.997a10.576 10.576 0 0 0 7.473 3.314c2.715 22.184 1.632 48.181 2.181 70.744-3.311-.662-4.157-.648-7.1-2.325-1.836-23.599-2.125-48.186-2.554-71.733z" fill="#013547"/><path data-name="Path 13997" d="M88.346 178.068a65.441 65.441 0 0 0 9.772 5.7 29.269 29.269 0 0 1-7.862 6.075c-12.254 6.69-24.88 13.828-37.1 17.915a9.129 9.129 0 0 1-7.827-1.291c-1.494-1.1-2.657-2.738-.239-4.549a141.985 141.985 0 0 1 21.794-13.577c4.578-2.286 12.112-4.491 16.879-6.547 2.304-.993 2.941-1.857 4.583-3.726z" fill="#013547"/><path data-name="Path 13998" d="M40.716 208.588a13.184 13.184 0 0 0 8.9 3.663c-.021 5.853 1.849 12.571 2.731 20.559 1.46 13.221.517 30.636-.173 45.394-3.82.418-5.956-.108-8.549-2.208-1.156-22.734-1.916-44.669-2.909-67.408z" fill="#013547"/></g><path data-name="Path 13999" d="M129.046 88.851c21.745 21.458-27.133 22.082-33.92 58.278 1.586-21.255-15.652-53.71 10.469-59.185z" fill="#e8a476" fill-rule="evenodd"/><g data-name="Group 6731" fill-rule="evenodd"><path data-name="Path 14000" d="M129.111 88.051c.554 6.505-18.952 14.095-23.135 8.351a10.5 10.5 0 0 0 .6-3.934 16.928 16.928 0 0 0-1.355-4.582c-.733-1.991-.757-6.2-2.025-10.865l18.373-8.01 3.934-2.084c-1.882 9.172.197 13.435 3.608 21.124z" fill="#e8a476"/><path data-name="Path 14001" d="M129.111 88.051a2.7 2.7 0 0 1-.081.99c-8.709-5.484-14.132-.89-24.347-3.62a67.417 67.417 0 0 0-1.485-8.4l18.373-8.008 3.934-2.086c-1.884 9.172.195 13.435 3.606 21.124z" fill="#db9669"/></g><g data-name="Group 6733"><path data-name="Path 14002" d="M53.882 109.498c-.789-14.12-1.914-21.607-1.5-36.787 6.239 3.077 10.6-.846 11.52-3.623.956 11.659 2.834 25.479 2.382 37.9a165.904 165.904 0 0 1-12.402 2.51z" fill="#aab7c2" fill-rule="evenodd"/><path data-name="Path 14003" d="M60.36 75.687a44.987 44.987 0 0 0 3.838-3.173c.858 9.349 2.666 20.263 2.736 30.139-2.8-.7-4.323-.389-6.821-1.241-.145-3.858-1.303-24.059.247-25.725z" fill="#bac7d1" fill-rule="evenodd"/><g data-name="Group 6732"><path data-name="Path 14004" d="M50.99 113.524c-.783-16.263.948-24.53 1.389-40.813 2.59 1.277 2.651 1.394 5.005 1.1-.486 7.471.246 16.887.875 27.825.318 1.957 5.8 2.762 8.091 3.861l-.025 2.763z" fill="#a2afba" fill-rule="evenodd"/></g></g><path data-name="Path 14005" d="M90.146 172.276a2.559 2.559 0 0 0 .463 1.12c5.2 7.248 37.838 18.175 44.667 17.608-5.172-44.97 34.922-86.35-6.925-103.286-2.312 6.612-11.069 11.374-16.251 11.374-6.636 0-10.847-3.754-8.765-9.372.192-.518-1.5 3.564-1.7 3.039-5.094 6.8-7.646 15.416-8.741 26.672-1.714 17.649 1.989 33.48-2.748 52.845z" fill="#f2f9fc" fill-rule="evenodd"/><path data-name="Path 14006" d="M111.065 184.647c9.048 3.217 21.01 6.623 24.208 6.357-5.42-47.126 44.773-86.408-8.108-101.944-3.555 6.566-7.7 13.389-10.995 19.994-9.37 18.792-13.651 56.008-5.105 75.593z" fill="#e8f3f7" fill-rule="evenodd"/><g data-name="Group 6735" fill-rule="evenodd"><path data-name="Path 14007" d="M142.938 94.401c-2.841-1.576-8.634-5.124-14.88-8.613 5.259 6.3-7.444 21.451-13.338 40.344-2 6.423-3.3 15.785-3.62 25.109-.3 9 2.557 51.908 4.6 59.19 7.207 5.5 11.693 4.543 18.088 1.826a63.273 63.273 0 0 0 15.17-9.593c-2.517-20.582-9.926-21.405-10.5-34.209-.527-11.771 16.088-43.158 15.933-59.406-.071-7.211-6.145-11.703-11.453-14.648z" fill="#aab7c2"/><path data-name="Path 14008" d="M142.938 94.401l-14.467-8.024c2.158 3.463 7.916 7.176 14.125 12.417a28.366 28.366 0 0 0-8.021 14.164c-3.267 12.919-8.265 29.923-9.122 41.739-2.292 31.552 11.919 33.857 12.005 55.646a88.494 88.494 0 0 0 11.425-7.679c-2.1-19.815-9.435-19.729-10.428-34.209-.807-11.755 16.088-43.158 15.933-59.406-.068-7.211-6.142-11.703-11.45-14.648z" fill="#a2afba"/><path data-name="Path 14009" d="M131.18 92.298l7.5 6.386c-7.312 12.038-16.763 34.876-17.035 57.719-.13 11.015 6.807 44.54 12.849 54.579-4.85 3.174-16.8 3.136-17.67-1.971-3.805-22.341-4.072-62.9.632-80.685 4.035-15.251 10.969-26.29 13.724-36.028z" fill="#bac7d1"/><g data-name="Group 6734"><path data-name="Path 14010" d="M132.326 168.652c-7.109-.242-9.063-.253-15.217.851l2.833 17c3.983 1.688 9.637 1.227 14.628-.84z" fill="#aab7c2"/><path data-name="Path 14011" d="M132.326 168.652c-7.109-.242-9.063-.253-15.217.851.885 5.07.464 5.022 5.9 5.346 9.7.579 6.712 1.656 10.059 11.387.147.428 1.011-.363 1.507-.57z" fill="#a2afba"/><path data-name="Path 14012" d="M131.806 166.486c-7.155-.22-10.344-.774-15.652-.793l1.368 6.767c1.812.946 11.329 2.071 15.531.081z" fill="#aab7c2"/><path data-name="Path 14013" d="M131.806 166.486c-7.155-.22-10.344-.774-15.652-.793 5.17 1.919 13.893 1.394 15.417 7.375a8.653 8.653 0 0 0 1.482-.527z" fill="#9da9b3"/><path data-name="Path 14014" d="M118.412 175.428l8.956 1.446 3.618 8.907a30.872 30.872 0 0 1-9.938.555z" fill="#bac7d1"/><path data-name="Path 14015" d="M116.923 166.588c4.18 1.276 10.051 3.051 12.514 6.167a31.6 31.6 0 0 1-10.968-.723 24.875 24.875 0 0 1-1.546-5.444z" fill="#bac7d1"/></g></g><g data-name="Group 6739" fill-rule="evenodd"><path data-name="Path 14016" d="M103.346 77.599c-15.421 4.027-17.468 20.059-16.888 43.5.2 8.263 1.511 15.526 1.614 25.792.075 7.707-1.769 21.817-2.708 32.442 1.859-1.968 3.413-4.083 5.078-6.215 2.789-23.1 3.99-50.912 8.817-69.527a50.134 50.134 0 0 1 6.508-14.273c-.178-.464-.365-.932-.548-1.429a13.333 13.333 0 0 1-.54-2.465l-.014-.1-.008-.051-.006-.047-.015-.1V85.113l-.02-.151-.007-.038-.015-.1v-.017l-.013-.086-.01-.076-.019-.134v-.029l-.023-.165v-.019l-.015-.108-.005-.041-.009-.069-.013-.1v-.009l-.014-.11-.007-.052-.01-.059-.014-.114-.015-.113-.009-.063-.007-.049-.016-.117v-.011l-.015-.1-.01-.076-.006-.04-.016-.118v-.024l-.013-.094-.013-.089v-.029l-.017-.119-.005-.037-.012-.084-.014-.1v-.019l-.017-.121-.006-.049-.012-.075-.018-.116v-.006l-.019-.124-.01-.062-.01-.063-.019-.124v-.007l-.019-.119-.011-.074-.009-.052-.02-.127v-.018l-.017-.11-.015-.087-.006-.041-.022-.129-.005-.031-.017-.1-.023-.129-.022-.131-.008-.044-.015-.087-.021-.117v-.016l-.024-.13-.012-.059-.013-.076-.026-.13-.009-.051-.028-.142v-.012l-.011-.063-.028-.134v-.011l-.039-.19-.007-.032-.037-.174v-.024l-.025-.111-.008-.039-.021-.1-.03-.137-.009-.038-.022-.1-.026-.114-.006-.024-.033-.139v-.011l-.022-.1-.007-.031-.031-.127v-.012l-.034-.138v-.013l-.027-.107z" fill="#aab7c2"/><path data-name="Path 14017" d="M104.463 87.294c-8.879 7.052-12.542 26.578-12.381 44.126.235 25.381-.6 18.525-1.381 42.058-1.235 1.417-3.144 3.085-4.9 4.909 2.751-22.137 3.76-28.561 2.214-49.453-1.316-17.792-1.49-37.07 8.856-47.241 1.047 2.019 6.024 3.956 7.592 5.601z" fill="#bac7d1"/><g data-name="Group 6738"><g data-name="Group 6736"><path data-name="Path 14018" d="M90.724 156.862c-2.106-2.3-2.689-2.872-4.635-3.528l-1.461 18.986c.978 1.544 4.195 2.823 5.174 2.428z" fill="#aab7c2"/><path data-name="Path 14019" d="M90.724 156.862c-2.106-2.3-2.689-2.872-4.635-3.528-.211 5.393-.331 5.222 1.264 7.117 2.85 3.387 1.761 3.614 1.851 14.439a1.958 1.958 0 0 0 .6-.142z" fill="#a2afba"/><path data-name="Path 14020" d="M85.924 159.715l2.545 4.051-.229 10.439a5.448 5.448 0 0 1-3.114-2.287z" fill="#bac7d1"/></g><g data-name="Group 6737"><path data-name="Path 14021" d="M91.494 152.356c-2.354-1.037-3.319-1.981-5.093-2.6l-.823 7.287c.428 1.2 3.4 3.458 5.19 1.835z" fill="#aab7c2"/><path data-name="Path 14022" d="M91.494 152.356c-2.354-1.037-3.319-1.981-5.093-2.6 1.369 2.6 4.391 3.034 3.769 9.509a2.177 2.177 0 0 0 .6-.387z" fill="#a2afba"/><path data-name="Path 14023" d="M86.489 150.787a16.168 16.168 0 0 1 3.025 7.908c-1.641-.114-2.158-.532-3.538-2 .059-1.951.284-3.773.513-5.908z" fill="#bac7d1"/></g></g></g><path data-name="Path 14024" d="M104.369 82.725c-3.791 1.9-5.666 2.525-9.239 8.151l3.211 2.651-4.047 1.327c-1.609 16.391-1.6 34.192-1.082 51.1 1.818-16.793 2.881-31.481 6.93-45.109 1.323-4.451 3.177-7.3 5.814-11.023a34.9 34.9 0 0 1-1.587-7.097z" fill="#ced9e0" fill-rule="evenodd"/><g data-name="Group 6740" fill-rule="evenodd"><path data-name="Path 14025" d="M108.506 88.706c2.448-.938 8.029-1.86 10.254-2.843 4.866-2.146 5.308-7.082 7.878-12.953 4.533-1.933 6.339-3.862 7.244-6.294 2.148-5.773.174-12.945-3.6-17.458-3.3-3.946-7.683-5.815-13.075-5.825-10.475-.022-16.262 6.628-18.7 15.153a5.931 5.931 0 0 0-.192 2.209c.156 1.858.731 2.795.858 4.062.227 2.265-.667 2.519-1.157 3.772-.619 1.586-.018 4.9-.219 7.958a27.7 27.7 0 0 0 .171 3.664c.263 3.072 1.129 6.6 2.115 7.269a21.216 21.216 0 0 0 3.155 1.407c1.072.473 2.154.669 5.268-.121z" fill="#f1b287"/><path data-name="Path 14026" d="M108.506 88.706c2.448-.938 8.03-1.86 10.254-2.843 4.866-2.146 5.308-7.082 7.878-12.953 4.533-1.933 6.339-3.862 7.244-6.294 2.148-5.773.174-12.945-3.6-17.458-3.3-3.946-7.683-5.815-13.075-5.825-9.1-.02-14.662 5-17.565 11.9.218.591 5.04 3.557 9.81 4.857 3.05.831 5.012-.374 8.118-1.048.188 2.578-2.655 8.262-2.872 10-.054.42 1 2.487-.29 4.045-.352.424-1.237.865-1.18 1.667.6 8.381-5.324 12.3-8.153 14.479a13.447 13.447 0 0 0 3.431-.527z" fill="#e8a476"/><path data-name="Path 14027" d="M111.946 58.073c2.619-.923 6.552-5.9 10.824-7.63 4.37-1.773 9.133-3.644 12.149-.61 2.429 4.051 2.4 10.749 1.3 14.345-1.581 5.146-5.66 9.279-10.929 13.5-1.98 1.585-.78-5.841-1.127-7.474-.581 1.131-1.239 2.295-1.916 3.5l-1.313-.789c.24-1.486 2.45-16.593 1.768-17.777-1.573-.787-5.056 1.754-10.756 2.935z" fill="#361d07"/><path data-name="Path 14028" d="M126.493 67.446c4.148-.876 3.618 3.728 2.665 6.441-.655 1.867-2.222 1.533-2.977 2.976a3.646 3.646 0 0 1-3.593 2.214c-2.417-.36-.482-3.781-.022-5.175.003-2.378 1.295-5.9 3.927-6.456z" fill="#e8a476"/><path data-name="Path 14029" d="M135.011 50.233a12.9 12.9 0 0 1 1.858 8.147c-.095-1.84-.243-3.6-1.993-5.167a8.9 8.9 0 0 1 .4 6.905c.056-2.27-.379-4.582-2.172-5.982a13.452 13.452 0 0 1 .12 9.912c.458-3.352-.435-7.173-2.645-9.162 1.194 2.685.325 5.5-.163 7.924-.261-3.345-.185-5.155-2.364-7.114a12.422 12.422 0 0 1-1.418 7.963 22.675 22.675 0 0 0-1.031-7.533 6.114 6.114 0 0 1-2.722 4.357 17.112 17.112 0 0 0 .277-5.511c-.1-.573-1.18-.647-2.025-.865 5.698-1.026 12.261-3.774 13.878-3.874z" fill="#361d07"/><path data-name="Path 14030" d="M135.158 50.199c-5.854-4.5-13.174 5.118-21.292 7.515-3.45 1.018-4.867.539-9.406-1.44-2.849-1.245-5.35-2.792-5.6-4.172-1.414-7.759 1.638-10.23 6.528-11.375 1.994-.465 4.635-.241 6.87-.8 9.006-2.249 20.254-.382 22.9 10.272z" fill="#361d07"/><path data-name="Path 14031" d="M133.91 46.949a6.607 6.607 0 0 1 1.237 3.44c-6.187 3.261-8.6 2.7-14.318 4.648-5.219 1.777-10.614 4.525-15.16.989 3.164-6.238 6.72-8.3 14.327-7.729 2.843.214 4.048 1.64 9.936.822a5.977 5.977 0 0 0-2.156-.557c3.149-.638 5.25.108 6.134-1.613z" fill="#241304"/><path data-name="Path 14032" d="M102.509 41.581c6.331-3.081 16.543-1.95 22.528 9.109-6.357-1.722-8.923.025-11.847 4a7.4 7.4 0 0 1-4.606 2.6c-2.16.14-4.194-.886-6.9-2.281a7.672 7.672 0 0 1-3.659-3.055c-1.56-3.221-.449-7.972 4.484-10.373z" fill="#4a2b12"/><path data-name="Path 14033" d="M108.446 42.39a9.813 9.813 0 0 0-8.087 3.723 9.125 9.125 0 0 1 5.9-2.009 8.936 8.936 0 0 0-4.567 3.3c3.265-1.5 5.139-2.493 9.034-2.358a10.226 10.226 0 0 0-6.482 3.374c3.733-1.52 7.436-3.383 11.875-1.868-3.455-.531-8.44 1.743-10.806 4.558a19.25 19.25 0 0 1 6.887-1.8c-1.81.261-3.6 3.175-4.1 3.752 2.9-1.353 6.046-4.659 10.673-4.012-5.559.782-9.121 9.665-13.076 7.823-2.137-1-6.684-3.205-7.5-4.605a6.648 6.648 0 0 1 2.708-9.184c2.102-1.207 5.213-1.122 7.541-.694z" fill="#361d07"/></g><g data-name="Group 6741" fill-rule="evenodd"><path data-name="Path 14034" d="M157.368 279.607l-36.806 21.25.678.484 1.6.745 35.785-20.4 1.021-.844z" fill="#c9c7c5"/><path data-name="Path 14035" d="M122.846 302.085l-2.281-1.228a5.258 5.258 0 0 1-4.918.184c2.948 2.116 4.453 2.662 7.199 1.044z" fill="#bfbdbb"/><path data-name="Path 14036" d="M115.164 299.037l-2.452-1.464c.005 2.407.735 4.069 2.11 4.869l2.576 1.495c-1.374-.797-2.227-2.494-2.234-4.9z" fill="#c9c7c5"/><path data-name="Path 14037" d="M124.009 214.427c.05-.081.08-.162.13-.242a68.08 68.08 0 0 1 12.227-17.423c.1-.1.218-.207.318-.311a61.521 61.521 0 0 1 12.251-9.556 55.755 55.755 0 0 1 11.564-5.458l.1-.211-2-1.111-.221.072a59.055 59.055 0 0 0-11.161 5.017c-11.716 6.738-20.459 17.055-26.128 29.166q-.252.549-.5 1.1a100.129 100.129 0 0 0-7.636 29.567 70.017 70.017 0 0 0-.285 8.237l.047 44.3 2.452 1.459.38-46.86c.105-13.298 2.999-26.611 8.462-37.746z" fill="#d6d4d2"/><path data-name="Path 14038" d="M131.637 201.2a60.671 60.671 0 0 1 17.392-15.03 53.193 53.193 0 0 1 11.573-4.946l.075 1.862a58.354 58.354 0 0 0-11.138 4.97 59.243 59.243 0 0 0-16.857 14.594c-7.223 9.094-12.187 20.555-14.824 34.17a92.149 92.149 0 0 0-1.66 19.2l.118 42.356c.011 4.118 2.936 5.786 6.527 3.713l36.8-21.247v1.317l-36.8 21.25c-4.219 2.44-7.666.48-7.679-4.368-.082-14.24-.182-28.538-.256-42.793a95.111 95.111 0 0 1 1.721-19.684c2.655-13.969 7.567-25.976 15.008-35.36z" fill="#534b48"/><path data-name="Path 14039" d="M150.075 186.25c.528-.31 1.412-.494 1.929-.77l-.057 2.324c-.5.263-.988.54-1.5.839-10.013 5.785-22.664 17.157-29.184 39.1l-1.842.185c4.666-22.91 20.011-35.537 30.652-41.678z" fill="#53595c"/><path data-name="Path 14040" d="M138.676 195.186a65.792 65.792 0 0 0-10.305 12.651 81.4 81.4 0 0 0-8.948 20.091l-3.959-2.3a78.709 78.709 0 0 1 11-23.15 65.988 65.988 0 0 1 8.25-9.593 62.183 62.183 0 0 1 13.212-9.637 1.119 1.119 0 0 0 .125-.068l3.957 2.3a61.324 61.324 0 0 0-13.328 9.706z" fill="#6a7378"/></g><path data-name="Path 14041" d="M171.156 107.289c.993 4.465 5.038 7.422 8.939 9.35a3.825 3.825 0 0 1 1.523 1.3c2.813-11.7 5.558-36.854 5.5-41.619-.012-1.08-1.881-2.782-3.731-2.987a7.3 7.3 0 0 0-5.591 1.672s-3.229 15.195-6.627 28.847a20.707 20.707 0 0 1-.845 1.99 2.887 2.887 0 0 1 .832 1.447z" fill="#fcc19a"/><path data-name="Path 14042" d="M182.546 79.931s-3.014 14.589-6.894 33.471a1.673 1.673 0 0 1-.129.372 24.626 24.626 0 0 0 4.571 2.865A3.814 3.814 0 0 1 181.66 118c.7-2.6 1.115-5.385 1.708-8.967 2.294-13.86 3.693-33.085 3.693-33.085a5.384 5.384 0 0 0-6.669-2.386c-1.339.453-2.2.862-2.526 1.476 2.08-.405 4.68 4.893 4.68 4.893z" fill="#d8b09e" opacity=".37" style="mix-blend-mode:multiply;isolation:isolate"/><path data-name="Path 14043" d="M204.946 60.988c-1.272-.141-4.041 2.513-8.188 4.789a13.178 13.178 0 0 1-8.28 1.6s-2.866-.164 2.037-6.964c1.9-2.642-.8-3.3-.8-3.3s-1.284 1.39-3.749 3.925c-2.776 2.844-4 3.585-6.147 6.587-1.989 2.792-2.228 4.837-2.219 5.392.013.979-1.157 6.2 5.337 5.671.628-.052 2.81-.854 3.992-.9a33.966 33.966 0 0 0 9.281-1.562c5.613-1.735 7.984-7.528 9.376-11.458.493-1.406.642-3.617-.64-3.78z" fill="#fcc19a"/><path data-name="Path 14044" d="M125.633 102.188c6.479 8.979 23.757 21.342 35.7 28.4 6.072 3.591 11.066 5.962 15.551 2.209 4.251-3.558 2.348-10.455-1.664-14.473-4.753-4.757-10.992-10.028-21.495-19.328-11.215-9.925-36.754-8.812-28.092 3.192z" fill="#aab7c2" fill-rule="evenodd"/><path data-name="Path 14045" d="M125.633 102.188c6.479 8.979 23.757 21.342 35.7 28.4 6.072 3.591 11.066 5.962 15.551 2.209 2.866-2.4 2.934-6.316 1.446-9.844q-1.2.776-2.428 1.559c-4.336 2.767-3.263 3.152-7.547.522-11.856-7.27-36.658-25.307-39.987-31.146a5.81 5.81 0 0 1-.34-.7c-4.005 1.398-5.718 4.397-2.395 9z" fill="#a2afba" fill-rule="evenodd"/><path data-name="Path 14046" d="M172.591 134.146c3.7-1.328 6.358-1.246 8.634-4.886.974-1.56 1.266-3.752 2.091-6.052 3.186-8.9 3.355-22.587 4-36.038-7.082 1.2-11.384-.766-12.277-4.727-3.494 11.429-4.5 25.006-6.772 36.335a22.415 22.415 0 0 0-.437 4.241z" fill="#aab7c2" fill-rule="evenodd"/><path data-name="Path 14047" d="M169.432 134.385c3.159-.239 6.092 0 9.854-2.894 1.066-1.443 1.706-1.653 2.671-3.819 3.727-8.373 4.84-27.553 5.36-40.5-3.224.324-2.906.548-4.954.31-2.672 9.59-4.25 22.486-6.839 34.942-1.011 4.869-2.611 3.9-7.436 5.115l-.415.1z" fill="#a2afba" fill-rule="evenodd"/><path data-name="Path 14048" d="M130.265 94.225c13.112 10.136 29.083 20.881 42.815 30.162l6.206-37.5c-1.712-.818-5.095-2.718-4.246-4.447l-5.815 31.053c-18.894-15.644-21.112-17.299-38.96-19.268z" fill="#bac7d1" fill-rule="evenodd"/><path data-name="Path 14049" d="M50.99 113.524c1.32.219 2.53.8 3.872 1.013a15.264 15.264 0 0 0 4.546-.01 39.121 39.121 0 0 0 7.67-2.2l19.942-7.213.711-8.491c-12.106 3.646-24.244 7.3-36.69 9.525l-.051 7.372" fill="#a2afba" fill-rule="evenodd"/><path data-name="Path 14050" d="M132.516 102.569c2.074 5.039 1.041 13.979-1.453 22.705l-5.074-1.881 2.447 5.527c-10.2 13.326-15.908 33.179-16.7 53.567-6.259-50.08 14.9-67.089 15.738-84.183 2.189 1.466 4.691 3.412 5.042 4.265z" fill="#ced9e0" fill-rule="evenodd"/></g></svg>