<svg xmlns="http://www.w3.org/2000/svg" width="152.287" height="294.432" viewBox="0 0 152.287 294.432">
  <g id="Group_10673" data-name="Group 10673" transform="translate(-1960.442 -2865.459)">
    <g id="Group_10653" data-name="Group 10653">
      <path id="Path_22274" data-name="Path 22274" d="M2057.132,2924.426l-4.319,16.776-7.248,31.435-1.025,20.169.4,9.69,4.333,8.429-.315,1.655-4.492,4.018-30.016,16.7-17.019,10.556-1.89,2.838.157,1.5.709,1.5,24.739,13,23.32,15.206,2.955.55,1.221.041,4.727-3.664,46.995-26.788,3.309-7.248.156-2.364-4.724-7.406-.948-9.611,1.419-14.654,5.042-26.314,5.829-22.986c1.926-7.589,2.13-6.607-4.016-11.6l-7.957-4.806-23.046-13.433-10.809-6.013C2059.436,2918.595,2058.514,2919.058,2057.132,2924.426Z" fill="#53595c" fill-rule="evenodd"/>
      <g id="Group_10650" data-name="Group 10650">
        <path id="Path_22275" data-name="Path 22275" d="M2050.147,3087.025l-38.119,22.009.7.5,1.659.773,37.063-21.131,1.057-.875Z" fill="#c9c7c5" fill-rule="evenodd"/>
        <path id="Path_22276" data-name="Path 22276" d="M2014.389,3110.306l-2.361-1.272a5.455,5.455,0,0,1-5.094.191C2009.99,3111.416,2011.551,3111.981,2014.389,3110.306Z" fill="#bfbdbb" fill-rule="evenodd"/>
        <path id="Path_22277" data-name="Path 22277" d="M2006.437,3107.149l-2.539-1.515c.005,2.49.761,4.213,2.184,5.04l2.669,1.55C2007.327,3111.4,2006.444,3109.641,2006.437,3107.149Z" fill="#c9c7c5" fill-rule="evenodd"/>
        <path id="Path_22278" data-name="Path 22278" d="M2015.6,3019.518c.052-.083.084-.167.136-.251h0a70.511,70.511,0,0,1,12.663-18.044c.1-.107.225-.214.329-.32a63.677,63.677,0,0,1,12.69-9.9,57.773,57.773,0,0,1,11.976-5.65l.1-.22-2.073-1.15-.229.073a61.242,61.242,0,0,0-11.559,5.2c-12.134,6.978-21.189,17.663-27.06,30.205q-.261.573-.522,1.142a103.724,103.724,0,0,0-7.909,30.622,72.456,72.456,0,0,0-.3,8.534l.049,45.882,2.539,1.511.393-48.532C2006.942,3044.839,2009.94,3031.054,2015.6,3019.518Z" fill="#d6d4d2" fill-rule="evenodd"/>
        <path id="Path_22279" data-name="Path 22279" d="M2023.5,3005.82a62.805,62.805,0,0,1,18.012-15.567,55.028,55.028,0,0,1,11.987-5.121l.078,1.928a60.446,60.446,0,0,0-11.536,5.147,61.32,61.32,0,0,0-17.457,15.113c-7.483,9.42-12.624,21.29-15.355,35.392a95.414,95.414,0,0,0-1.719,19.879l.122,43.869c.011,4.265,3.041,5.992,6.759,3.846l38.12-22.006v1.365l-38.12,22.009c-4.369,2.526-7.938.5-7.952-4.525-.085-14.749-.189-29.556-.265-44.32a98.481,98.481,0,0,1,1.782-20.387c2.75-14.468,7.838-26.9,15.544-36.622Z" fill="#534b48" fill-rule="evenodd"/>
        <path id="Path_22280" data-name="Path 22280" d="M2042.594,2990.337c.547-.323,1.462-.514,2-.8l-.059,2.405c-.515.275-1.024.561-1.552.87-10.37,5.99-23.471,17.771-30.226,40.5l-1.907.19c4.833-23.726,20.726-36.8,31.746-43.164Z" fill="#53595c" fill-rule="evenodd"/>
        <path id="Path_22281" data-name="Path 22281" d="M2030.788,2999.591a68.129,68.129,0,0,0-10.673,13.1,84.352,84.352,0,0,0-9.267,20.807l-4.1-2.381a81.549,81.549,0,0,1,11.388-23.977,68.091,68.091,0,0,1,8.544-9.934,64.357,64.357,0,0,1,13.684-9.982,1.2,1.2,0,0,0,.129-.072l4.1,2.384a63.475,63.475,0,0,0-13.8,10.052Z" fill="#6a7378" fill-rule="evenodd"/>
      </g>
      <g id="Group_10651" data-name="Group 10651">
        <path id="Path_22282" data-name="Path 22282" d="M2106.3,3112.711a6.069,6.069,0,0,1-3.152,4.421l-.3.795.291.575.135-.075a8.132,8.132,0,0,0,1.889-1.559,5.067,5.067,0,0,0,.85-1.379c.013-.025.02-.05.033-.075s.012-.042.018-.067c.03-.079.062-.179.092-.287a4.28,4.28,0,0,0,.141-1.225Z" fill="#665c59" fill-rule="evenodd"/>
        <path id="Path_22283" data-name="Path 22283" d="M2100.724,3109.6v1.37a4.71,4.71,0,0,1,1.907,1.855,2.78,2.78,0,0,1,.316,1.25V3112.7A3.761,3.761,0,0,0,2100.724,3109.6Z" fill="#d6d4d2" fill-rule="evenodd"/>
        <path id="Path_22284" data-name="Path 22284" d="M2058.178,3088.19a10.89,10.89,0,0,1,5.149,1.268l.492-.371-.492-1a10.9,10.9,0,0,0-5.134-1.366,11.064,11.064,0,0,0-5.493,1.366v1.371c.225-.129.458-.246.7-.357A11.4,11.4,0,0,1,2058.178,3088.19Z" fill="#a8a5a3" fill-rule="evenodd"/>
        <path id="Path_22285" data-name="Path 22285" d="M2100.724,3109.6v1.37l-37.4-21.51v-1.37Z" fill="#b5b3b1" fill-rule="evenodd"/>
        <path id="Path_22286" data-name="Path 22286" d="M2103.094,3108.219l-37.4-21.508a16.956,16.956,0,0,0-15.378,0l-22.957,13.467,2.29,1.3,23.046-13.394a11.731,11.731,0,0,1,10.627,0l37.4,21.511c2.944,1.7,2.964,4.463.045,6.161l-23.046,13.39,2.377,1.379,23.052-13.4C2107.373,3114.675,2107.355,3110.678,2103.094,3108.219Z" fill="#c9c7c5" fill-rule="evenodd"/>
        <path id="Path_22287" data-name="Path 22287" d="M2080.1,3130.528v1.37l23.046-13.4.007-1.37Z" fill="#534b48" fill-rule="evenodd"/>
        <path id="Path_22288" data-name="Path 22288" d="M2058.178,3088.19l.015-1.469a11.064,11.064,0,0,0-5.493,1.366l-.276.862.276.509c.225-.129.458-.246.7-.357A11.4,11.4,0,0,1,2058.178,3088.19Z" fill="#665c59" fill-rule="evenodd"/>
        <path id="Path_22289" data-name="Path 22289" d="M2029.654,3101.481l-.007,1.37,23.052-13.394v-1.37Z" fill="#534b48" fill-rule="evenodd"/>
      </g>
      <g id="Group_10652" data-name="Group 10652">
        <path id="Path_22290" data-name="Path 22290" d="M2052.124,3013.62a19.6,19.6,0,0,1-1.7-1.107c-1.071-.786-1.708-1.483-1.7-1.88v0h0a1.5,1.5,0,0,1-.2.938c-.025.043.09.185.119.212a13.081,13.081,0,0,0,3.408,2.25A.754.754,0,0,0,2052.124,3013.62Z" fill="#53595c" fill-rule="evenodd"/>
        <path id="Path_22291" data-name="Path 22291" d="M2052.048,3014.035a34.7,34.7,0,0,1-3.205-2.094c-.175-.144-.325-.276-.325-.363a.574.574,0,0,0-.022.057c-.79,1.925-2.922,3.578-4.776,4.676.429-.248,1.606.17,1.993.313a20.883,20.883,0,0,1,2.331,1.145,14.2,14.2,0,0,0,2.449-1.768A5.634,5.634,0,0,0,2052.048,3014.035Z" fill="#53595c" fill-rule="evenodd"/>
        <path id="Path_22292" data-name="Path 22292" d="M2096.547,3039.435l-44.423-25.815a1.142,1.142,0,0,1-.076.415l44.422,25.815A.821.821,0,0,0,2096.547,3039.435Z" fill="#53595c" fill-rule="evenodd"/>
        <path id="Path_22293" data-name="Path 22293" d="M2096.47,3039.85l-44.422-25.815a6.168,6.168,0,0,1-1.624,1.926,13.352,13.352,0,0,1-2.38,1.808l44.423,25.816a14.1,14.1,0,0,0,2.449-1.77A4.6,4.6,0,0,0,2096.47,3039.85Z" fill="#5f676b" fill-rule="evenodd"/>
        <path id="Path_22294" data-name="Path 22294" d="M2102.186,3041.355a4.909,4.909,0,0,1-2.224-.318c-.426-.157-.824-.311-1.244-.5a22.167,22.167,0,0,1-2.171-1.1,1.8,1.8,0,0,0-.077.415c.475.287.963.56,1.454.824.224.121,1.219.676,2.066,1.089a11.85,11.85,0,0,0,1.951.761A1.752,1.752,0,0,0,2102.186,3041.355Z" fill="#53595c" fill-rule="evenodd"/>
        <path id="Path_22295" data-name="Path 22295" d="M2100.244,3041.86c-.439-.208-.872-.423-1.307-.649-.831-.445-1.653-.883-2.467-1.361a5.049,5.049,0,0,1-.741,1.13c-.027.034-.059.069-.091.1-.065.075-.135.153-.212.233-.039.043-.084.088-.129.133-.117.12-.239.24-.381.365a14.1,14.1,0,0,1-2.449,1.77c.947.679,4.238,2.9,4.4,3.979a16.245,16.245,0,0,0,2.835-2.044,10.22,10.22,0,0,0,1.7-1.948,5.488,5.488,0,0,0,.548-1.048A8.238,8.238,0,0,1,2100.244,3041.86Z" fill="#53595c" fill-rule="evenodd"/>
        <path id="Path_22296" data-name="Path 22296" d="M2043.779,3016.287l.018-.01a.274.274,0,0,0-.063.028c-.459.238-1.064.557-1.509.8l-1.489.781c-7.569,4.047-15.167,8-22.619,12.272-1.581.905-3.152,1.828-4.726,2.744-6.223,3.615-12.143,7.263-16.747,10.513a5.062,5.062,0,0,0-2.033,1.963,4.607,4.607,0,0,0-.4,1.414,3.019,3.019,0,0,0,.745,2.091,11.317,11.317,0,0,0,2.651,2.309c.114.074.27.169.382.242s.269.161.383.229c-1.69-.982-.328-4.295.995-5.588a4.807,4.807,0,0,1,.723-.6c7.942-5.271,14.673-9.421,21.272-13.231,8.357-4.828,16.5-9.1,26.686-14.468C2047.079,3017.151,2044.546,3015.929,2043.779,3016.287Z" fill="#5f676b" fill-rule="evenodd"/>
        <path id="Path_22297" data-name="Path 22297" d="M1995.818,3043.986a3.558,3.558,0,0,0-1.207,1.388,4.607,4.607,0,0,0-.4,1.414,3.019,3.019,0,0,0,.745,2.091,11.317,11.317,0,0,0,2.651,2.309c.114.074.27.169.382.242s.269.161.383.229c-1.69-.982-.328-4.295.995-5.588l.013-.014Z" fill="#53595c" fill-rule="evenodd"/>
        <path id="Path_22298" data-name="Path 22298" d="M2064.043,2920.719c-.169-.1-.338-.191-.507-.279-.449-.235-.9-.445-1.378-.65a10.045,10.045,0,0,0-1.732-.553,5.185,5.185,0,0,0-1.233-.119,2.787,2.787,0,0,0-1.286.353c.871-.272,3.228.845,4.3,1.479a2.412,2.412,0,0,1,1.391-.341,1.339,1.339,0,0,1,.443.112C2064.133,2920.766,2064.125,2920.766,2064.043,2920.719Z" fill="#5f676b" fill-rule="evenodd"/>
        <path id="Path_22299" data-name="Path 22299" d="M2062.2,2920.95c-.636-.371-3.46-1.944-4.287-1.481-2.018,1.13-2.615,6.345-3.122,8.454q-.679,2.829-1.369,5.655c-2.6,10.774-5.1,21.4-7.145,32.31-.079.409-.181.953-.253,1.363-.631,3.5-1.218,7.014-1.707,10.544-.264,1.91-.531,4.124-.712,6.035-.2,2.1-.373,4.208-.468,6.321a50.819,50.819,0,0,0-.045,5.261,24.111,24.111,0,0,0,2.435,10.283,19.335,19.335,0,0,0,1.912,3.195,10.688,10.688,0,0,0,.93,1.062,1.128,1.128,0,0,1,.349.686c0,.579,1.354,1.791,3.4,2.982a1.379,1.379,0,0,0-.115-.525c-.634-1.5-2.458-3.207-3.541-5.745a27.553,27.553,0,0,1-2-10.889,105.2,105.2,0,0,1,.88-11.838c.975-8.545,2.644-17.819,4.443-26.335,1-4.69,2.044-9.272,3.056-13.536,1.281-5.463,2.5-10.41,3.454-14.374.077-.325.154-.641.231-.952.427-1.794.8-3.277,1.134-4.764A6.2,6.2,0,0,1,2062.2,2920.95Z" fill="#4c5154" fill-rule="evenodd"/>
        <path id="Path_22300" data-name="Path 22300" d="M2062.2,2920.95c-.636-.371-3.46-1.944-4.287-1.481a5.239,5.239,0,0,0-1.869,2.993l3.681,1.977A6.133,6.133,0,0,1,2062.2,2920.95Z" fill="#5f676b" fill-rule="evenodd"/>
        <path id="Path_22301" data-name="Path 22301" d="M1999.388,3046.041c-1.389,1.117-2.86,4.549-1.02,5.618l44.424,25.814c-1.431-.9.061-4.7,1.019-5.618Z" fill="#5f676b" fill-rule="evenodd"/>
        <path id="Path_22302" data-name="Path 22302" d="M2048.044,3017.769c-10.188,5.368-18.329,9.64-26.686,14.468-6.6,3.81-13.33,7.96-21.272,13.231a4.727,4.727,0,0,0-.7.573l44.423,25.814a4.705,4.705,0,0,1,.695-.571c7.946-5.271,14.675-9.422,21.275-13.232,8.359-4.827,16.5-9.1,26.686-14.467Z" fill="#6a7378" fill-rule="evenodd"/>
        <path id="Path_22303" data-name="Path 22303" d="M2051.5,3073.569c5.2-3.4,9.925-6.353,14.469-9.064,6.173-3.595,14.456-8.21,25.546-14.117l5.35-2.824a2.037,2.037,0,0,0-.545-1.032,15.876,15.876,0,0,0-1.722-1.55c-.622-.44-1.639-1.1-1.806-1.208-.109-.066-.213-.127-.323-.189-10.189,5.366-18.327,9.64-26.686,14.467-6.6,3.81-13.329,7.961-21.275,13.232a4.586,4.586,0,0,0-.721.6,5.859,5.859,0,0,0-1.74,4.133,1.7,1.7,0,0,0,.747,1.455c.207.122.49.275.7.389a13.048,13.048,0,0,0,2.971,1.132,5.569,5.569,0,0,0,1.406.124l.232-.026a3.162,3.162,0,0,0,.863-.275c.059-.028.129-.069.18-.1a.255.255,0,0,0,.13-.251v0a1.916,1.916,0,0,1-.6.228l-.039.007c-.555.077-.922-.261-.967-.888a2.793,2.793,0,0,1,.271-1.269A17.551,17.551,0,0,1,2051.5,3073.569Z" fill="#5f676b" fill-rule="evenodd"/>
        <path id="Path_22304" data-name="Path 22304" d="M2043.787,3071.88l0,.005a5.859,5.859,0,0,0-1.74,4.133,1.7,1.7,0,0,0,.747,1.455c.207.122.49.275.7.389a13.048,13.048,0,0,0,2.971,1.132,5.569,5.569,0,0,0,1.406.124l.232-.026a3.162,3.162,0,0,0,.863-.275c.059-.028.129-.069.18-.1a.254.254,0,0,0,.13-.251v0a1.916,1.916,0,0,1-.6.228l-.039.007c-.555.077-.922-.259-.967-.888a2.793,2.793,0,0,1,.271-1.269,9.07,9.07,0,0,1,1.469-1.4Z" fill="#53595c" fill-rule="evenodd"/>
        <path id="Path_22305" data-name="Path 22305" d="M2108.534,2946.575l-44.375-25.789a1.507,1.507,0,0,0-1.2-.147l-.057.015a2.9,2.9,0,0,0-.7.3l44.424,25.814A1.96,1.96,0,0,1,2108.534,2946.575Z" fill="#6a7378" fill-rule="evenodd"/>
        <path id="Path_22306" data-name="Path 22306" d="M2094.691,3036.85a16.133,16.133,0,0,1-1.109-1.866,24.97,24.97,0,0,1-1.843-4.773,20.85,20.85,0,0,1-.664-3.613c-.122-1.36-.181-2.8-.181-4.323a103.131,103.131,0,0,1,.761-11.8c.091-.818.194-1.648.3-2.484l-44.422-25.814q-.165,1.254-.3,2.484a102.606,102.606,0,0,0-.761,11.8c0,1.517.065,2.963.18,4.32a21.392,21.392,0,0,0,.665,3.616,24.829,24.829,0,0,0,1.843,4.771c.646,1.264,2.964,3.442,2.964,4.452l44.423,25.815C2096.6,3038.535,2095.213,3037.588,2094.691,3036.85Z" fill="#53595c" fill-rule="evenodd"/>
        <path id="Path_22307" data-name="Path 22307" d="M2051.835,2958.107c-.942,4.392-1.837,8.883-2.623,13.306-.651,3.664-1.225,7.281-1.676,10.766l44.422,25.814c.452-3.483,1.026-7.1,1.676-10.766.787-4.423,1.682-8.914,2.623-13.3Z" fill="#5f676b" fill-rule="evenodd"/>
        <path id="Path_22308" data-name="Path 22308" d="M2059.71,2924.367c-.026.1-.052.193-.072.288-.327,1.517-.786,3.46-1.333,5.723-.955,3.964-2.173,8.911-3.454,14.374-1,4.21-2.031,8.726-3.016,13.355l44.422,25.815c.985-4.628,2.018-9.145,3.01-13.354,1.288-5.465,2.507-10.41,3.461-14.376.54-2.262,1-4.2,1.333-5.721.02-.1.045-.194.072-.29Z" fill="#6a7378" fill-rule="evenodd"/>
        <path id="Path_22309" data-name="Path 22309" d="M2062.2,2920.95a5.979,5.979,0,0,0-2.493,3.417l44.423,25.814a5.957,5.957,0,0,1,2.494-3.417Z" fill="#5f676b" fill-rule="evenodd"/>
        <path id="Path_22310" data-name="Path 22310" d="M2112.713,2951.008a3.5,3.5,0,0,0-.86-1.783,1.07,1.07,0,0,0-.084-.1,11.148,11.148,0,0,0-2.706-2.233,3.89,3.89,0,0,0-.844-.455,1.233,1.233,0,0,0-.236-.04,2.443,2.443,0,0,0-1.356.366c.374.219.742.455,1.111.7.431.286.878.585,1.279.912a8.487,8.487,0,0,1,1.9,1.888,1.056,1.056,0,0,1,.16.455.6.6,0,0,1,.167-.055c1.091-.094,1.479.433,1.212,1.659-.309,1.4-.683,3-1.12,4.831-1.4,5.836-2.839,11.66-4.19,17.506-1.269,5.46-2.578,11.342-3.745,17.216-.032.172-.064.342-.1.514-.1.527-.208,1.054-.3,1.581q-1.054,5.4-1.83,10.471c-.226,1.481-.447,2.976-.633,4.464-.277,2.118-.505,4.171-.674,6.132-.876,10.152-1.649,12.274,1.787,18.631,1.492,2.762,3.589,3.6,3.158,7.42-.656,5.806-5.684,5.74-7.957,9.9-.012.083-.027.213-.1.263a21.725,21.725,0,0,0,5.326-4.269,11.906,11.906,0,0,0,.739-.994,13.86,13.86,0,0,0,1.568-2.636,11.1,11.1,0,0,0,.869-2.891,8.185,8.185,0,0,0,.062-1.828,6.123,6.123,0,0,0-1.213-3.113c-1.023-1.589-1.825-2.886-2.447-4.045-1.965-3.667-2.134-5.947-1.933-11.713.055-1.6.152-3.178.289-4.787.131-1.519.3-3.085.488-4.688.238-1.97.514-3.929.815-5.889.378-2.454.793-4.9,1.238-7.342,1.616-8.893,3.737-18.307,5.881-27.351q1.506-6.245,3.009-12.49c.335-1.4.67-2.8.988-4.209.068-.3.118-.527.157-.7A3.732,3.732,0,0,0,2112.713,2951.008Z" fill="#5f676b" fill-rule="evenodd"/>
        <path id="Path_22311" data-name="Path 22311" d="M2110.774,2950.986c-2.835,3.719-10.725,42.111-11.849,48.46-.766,4.457-1.172,8.942-1.651,13.127-.411,4.077-.753,8.09-.746,11.6.039,1.412.057,2.88.173,4.2a20.142,20.142,0,0,0,.632,3.409,23.818,23.818,0,0,0,1.773,4.6c.359.6.7,1.267,1.062,1.78.544.773,1.491,1.469,1.812,2.2a2.459,2.459,0,0,1,.206,1.007,2.685,2.685,0,0,1-.245,1.169c-.8,2.093-3.215,3.962-5.078,5.04-10.183,5.37-18.308,9.631-26.643,14.44-6.567,3.792-13.295,7.977-21.177,13.176a3.263,3.263,0,0,0-1.372,2.632c.058.846.7,1.167,1.6.653a.291.291,0,0,1-.109.243h0c7.925-5.264,14.7-9.428,21.4-13.282,4.757-2.68,10.556-5.873,17.626-9.663.149-.084.3-.164.458-.246a.477.477,0,0,0,.052-.028q2.135-1.128,4.363-2.3c.928-.486,2.074-1.09,3.653-1.92a.308.308,0,0,0,.155-.276h0c3.219-2.133,5.914-4.177,7.5-7.853a10.787,10.787,0,0,0,.593-1.814,7.411,7.411,0,0,0,.2-1.716c0-2.31-.823-2.661-2.119-4.249a7.377,7.377,0,0,1-1.071-1.671,21.731,21.731,0,0,1-1.489-3.535,13.657,13.657,0,0,1-.811-3.818,34.418,34.418,0,0,1-.169-3.886,121.137,121.137,0,0,1,1.606-17.661c1.489-9.812,3.814-20.613,6.032-30.131,1.1-4.765,2.185-9.2,3.118-13.049.921-3.831,1.715-7.091,2.25-9.528.19-.9-.162-1.359-.647-1.474A1.026,1.026,0,0,0,2110.774,2950.986Z" fill="#6a7378" fill-rule="evenodd"/>
        <path id="Path_22312" data-name="Path 22312" d="M2099.24,2999.445c.768-4.331,1.644-8.729,2.566-13.038,1.994-8.129,4.312-16.189,5.946-24.4.3-1.505,1.953-10.483,3.321-11.293,0-.4-.621-1.069-.9-1.351a19.191,19.191,0,0,0-2.724-2.111,4.672,4.672,0,0,0-.821-.489,5.845,5.845,0,0,0-2.566,3.707c-.328,1.516-.793,3.459-1.333,5.721-.954,3.966-2.173,8.911-3.461,14.376-.69,2.918-1.392,5.984-2.09,9.131-1.29,5.817-2.492,11.648-3.543,17.528-1.4,7.8-2.768,17.15-2.74,25.048,0,1.518.059,2.963.181,4.323a20.85,20.85,0,0,0,.664,3.613,24.97,24.97,0,0,0,1.843,4.773,16.133,16.133,0,0,0,1.109,1.866,25.846,25.846,0,0,1,1.74,2.06,1.389,1.389,0,0,1,.116.525c.438.257.874.491,1.309.706.546.269,1.173.56,1.757.779.537.2,2.049.742,2.573.435a2.464,2.464,0,0,0-.178-1.027,23.069,23.069,0,0,0-1.84-2.177c-.366-.513-.7-1.18-1.062-1.78a23.818,23.818,0,0,1-1.773-4.6,20.142,20.142,0,0,1-.632-3.409c-.116-1.315-.134-2.783-.173-4.2-.007-3.506.335-7.519.746-11.6C2097.753,3008.388,2098.473,3003.9,2099.24,2999.445Z" fill="#4c5154" fill-rule="evenodd"/>
        <path id="Path_22313" data-name="Path 22313" d="M2109.76,2953.38a5.767,5.767,0,0,1,1.313-2.665c0-.4-.621-1.069-.9-1.351a19.191,19.191,0,0,0-2.724-2.111,4.672,4.672,0,0,0-.821-.489,5.827,5.827,0,0,0-2.483,3.363Z" fill="#5f676b" fill-rule="evenodd"/>
        <path id="Path_22314" data-name="Path 22314" d="M2047.668,3022.591c-8.373,4.41-15.062,7.921-21.93,11.887-5.422,3.132-10.954,6.542-17.479,10.874a3.916,3.916,0,0,0-.572.469l36.5,21.212a3.88,3.88,0,0,1,.571-.469c6.53-4.331,12.058-7.742,17.481-10.871,6.869-3.968,13.557-7.479,21.928-11.889Z" fill="#778187" fill-rule="evenodd"/>
      </g>
    </g>
    <g id="Group_10656" data-name="Group 10656">
      <g id="Group_10654" data-name="Group 10654">
        <path id="Path_22315" data-name="Path 22315" d="M2025.264,3127.791c1.1,3.214,2.1,5.705,2,7.727-.107,2.092-.678,4.128-.651,6.774.023,2.272.139,4.2.4,6.772.269,2.628-.005,3.872-1.159,4.923-1.873,1.706-7.457,4.346-10.1,5.242a10.613,10.613,0,0,1-4.632.622,20.646,20.646,0,0,1-6.208-1.13c-.571-.216-1.156-2.432-1.2-4.354-.087-4.026.278-3.686,1.944-10.064.569-2.178,1.028-4.257,1.812-6.8.975-3.17,2.186-5.96,2.311-9.08l11.787-.46Z" fill="#111214" fill-rule="evenodd"/>
        <path id="Path_22316" data-name="Path 22316" d="M2025.264,3127.791c1.1,3.214,2.1,5.705,2,7.727-.107,2.092-.678,4.128-.651,6.774.023,2.272.139,4.2.4,6.772.269,2.628-.005,3.872-1.159,4.923-1.873,1.706-7.457,4.346-10.1,5.242a10.613,10.613,0,0,1-4.632.622,20.646,20.646,0,0,1-6.208-1.13c-.517-.2-1.046-2.031-1.171-3.8l.032,0c3.6,1.228,7.1,1.72,10.559.029,7.3-3.569,6.353-6.531,5.665-14.951-4.753-.839-6.619-1.685-9.031-4.288,4.052,1.191,8.407,1.4,10.562-1.071l.671-6.7Z" fill-rule="evenodd"/>
        <path id="Path_22317" data-name="Path 22317" d="M2009.172,3136.356c3.409,2.689,2.217,3.865,7.193,4.517-1.229,4.922-1.385,5.159-3.879,9.7-.2,1.875-.351,4.338-4.005,4.361-6.82.044-2.087-5.586-2.064-5.8A56.4,56.4,0,0,1,2009.172,3136.356Z" fill="#20232e" fill-rule="evenodd"/>
      </g>
      <g id="Group_10655" data-name="Group 10655">
        <path id="Path_22318" data-name="Path 22318" d="M1982.833,3108.444c-1.2,4.2-1.5,6.371-3.244,8.817-3.481,4.876-8.613,8.361-16.084,13.657-3.555,2.52-4.305,4.909-.7,7.1,2.833,1.73,9.768.355,14.1-.663,8.129-1.913,11.415-6.8,14.194-8.077l2.1.479c1.723.03,8.075-3.428,9.4-5.2.342-1.522,1.322-3.444,1.482-5.577.251-6.878-.828-6.179-2.668-11.561C1995.155,3107.882,1989.1,3108.231,1982.833,3108.444Z" fill="#111214" fill-rule="evenodd"/>
        <path id="Path_22319" data-name="Path 22319" d="M1960.444,3134.874c-.037,1.087.7,2.137,2.356,3.149,2.833,1.73,9.768.355,14.1-.663,8.129-1.913,11.415-6.8,14.194-8.075l2.1.477c1.723.03,8.075-3.368,9.818-4.955a40.4,40.4,0,0,0,1.06-5.818c.251-6.878-.828-6.179-2.668-11.561-2.767.2-5.5.382-8.222.539-.493,4.528.168,12.34-3.559,15.247-4.169,3.251-7.419,4.117-10.2,5.81C1970.551,3134.417,1964.69,3138.8,1960.444,3134.874Z" fill-rule="evenodd"/>
        <path id="Path_22320" data-name="Path 22320" d="M1980.861,3116.169c.886,1.308,2.629,2.045,5.511,2.763-4.649,5.241-5.3,4.751-11.547,8.259-3.147,3.594-3.583,4.277-5.592,5.436-2.4,1.385-5.781,2.807-7.2,1.785-.613-.44.21-1.67,2.85-3.583,2.994-2.17,6.042-4.37,8.8-6.663A32.552,32.552,0,0,0,1980.861,3116.169Z" fill="#20232e" fill-rule="evenodd"/>
      </g>
      <path id="Path_22321" data-name="Path 22321" d="M1996.725,3057.136c16.251-14.953,40.786-15.161,53.02-22.689,8.911-5.484,13.622-6.153,8.06-17.731l-29.637-11.2c0,2.806-1.739,6.544-2.621,6.882a195.845,195.845,0,0,0-41.637,21.892c-2.205,1.228-5.632,4.411-5.672,7.159C1978.184,3045.2,1987.746,3055.571,1996.725,3057.136Z" fill="#002a38" fill-rule="evenodd"/>
      <path id="Path_22322" data-name="Path 22322" d="M1996.725,3057.136c16.251-14.953,40.786-15.161,53.02-22.689,8.911-5.484,13.622-6.153,8.06-17.731l-10.986-4.153-.012.027c-1.545,3.141-5.878,6.552-8.346,8.667a42.349,42.349,0,0,1-6.874,4.775c-6.022,3.4-21.739,11.367-32.554,15.9-4.359,1.827-5.245,3.687-5.505,5.872a28.906,28.906,0,0,0,.38,8.568A16.762,16.762,0,0,0,1996.725,3057.136Z" fill="#00171f" fill-rule="evenodd"/>
      <path id="Path_22323" data-name="Path 22323" d="M1978.34,3050.937c.826,20.643,1.8,41.125,3.044,61.806,2.941,4.826,17.129,5.122,21.975-1.663.725-18.742,1.9-33.541,1.369-43.8-.442-8.536-2.655-13.574-3.61-21.042-3.221-8.464-16.312-11.743-21.241-8.2C1976.814,3040.248,1978.194,3047.315,1978.34,3050.937Z" fill="#002a38" fill-rule="evenodd"/>
      <path id="Path_22324" data-name="Path 22324" d="M1994.892,3115.891c3.419-.671,6.621-2.227,8.467-4.811.725-18.742,1.9-33.541,1.369-43.8-.442-8.536-2.655-13.574-3.61-21.042a12.3,12.3,0,0,0-2.616-4.08c-3.9,1.754-4.724,3.548-4.974,5.641-.883,7.4,1.954,13.431,2.619,20.688C1997.33,3081.453,1995.568,3100.443,1994.892,3115.891Z" fill="#00171f" fill-rule="evenodd"/>
      <path id="Path_22325" data-name="Path 22325" d="M2022.9,3071.562c9.135-8.4,22.459-13.469,33.448-16.952,8.562-2.713,15.274-4.379,20.055-6.94,12.885-6.9,10.237-16.251,4.6-23.2-3.036-3.738-6.167-5.778-9.946-9.149l-25.331-.739c-.147,3.324-11.2,8.936-11.045,12.561a3.949,3.949,0,0,0,1.394,2.3c1.929,1.345-1.39,3.27-2.877,4.2-6.436,4.036-16.7,10.864-23.111,15.063-2.143,1.529-5.662,4.562-5.731,6.951C2004.241,3059.418,2013.92,3070,2022.9,3071.562Z" fill="#002a38" fill-rule="evenodd"/>
      <path id="Path_22326" data-name="Path 22326" d="M2022.9,3071.562c9.135-8.4,22.459-13.469,33.448-16.952,8.562-2.713,15.274-4.379,20.055-6.94,12.885-6.9,10.237-16.251,4.6-23.2-3.036-3.738-6.167-5.778-9.946-9.149l-2.836.948,4.284,10.545c-11.677,7.9-30.754,18.937-45.166,28.454-4.221,2.786-6.75,4.127-7.349,7.19-.415,2.116-.012,4.679.547,8.5A16.363,16.363,0,0,0,2022.9,3071.562Z" fill="#00171f" fill-rule="evenodd"/>
      <path id="Path_22327" data-name="Path 22327" d="M2004.13,3057.084c.9,23.714,1.976,49.878,3.4,73.571,2.941,4.826,17.127,5.122,21.973-1.663.727-18.743,1.9-35.429,1.369-45.685-.442-8.536-3.738-14.3-3.608-21.887C2023.252,3050.885,2003.943,3048.384,2004.13,3057.084Z" fill="#002a38" fill-rule="evenodd"/>
      <path id="Path_22328" data-name="Path 22328" d="M2021.031,3133.8c3.42-.669,6.624-2.225,8.47-4.811.727-18.743,1.9-35.429,1.369-45.685-.442-8.536-3.738-14.3-3.608-21.887a12.382,12.382,0,0,0-2.8-4.267c-2.5,1.686-4.028,3.014-4.477,5.3-.744,3.8,1.143,9.031,1.843,20.38C2022.8,3098.584,2020.753,3117.786,2021.031,3133.8Z" fill="#00171f" fill-rule="evenodd"/>
      <path id="Path_22329" data-name="Path 22329" d="M2044.612,3017.655l19.036,10.9c-17.336,10.343-28.5,19.03-45.924,27.773-4.066,2.04-13.538-.005-7.239-5.048,8.493-6.8,18.428-12.276,27.906-19.536,1.957-1.5-2.934-2.327-1.994-5.405C2037.1,3024.052,2043.162,3018.219,2044.612,3017.655Z" fill="#013547" fill-rule="evenodd"/>
      <path id="Path_22330" data-name="Path 22330" d="M2006.183,3056.509a10.953,10.953,0,0,0,7.74,3.432c2.811,22.976,1.689,49.9,2.258,73.27-3.429-.686-4.305-.671-7.349-2.409C2006.926,3106.361,2006.627,3080.9,2006.183,3056.509Z" fill="#013547" fill-rule="evenodd"/>
      <path id="Path_22331" data-name="Path 22331" d="M2028.752,3011.013a67.658,67.658,0,0,0,10.121,5.9,30.328,30.328,0,0,1-8.144,6.291c-12.691,6.929-25.767,14.322-38.425,18.555a9.455,9.455,0,0,1-8.106-1.337c-1.548-1.141-2.752-2.835-.248-4.712a147.091,147.091,0,0,1,22.572-14.061c4.741-2.368,12.545-4.651,17.481-6.78C2026.388,3013.843,2027.048,3012.948,2028.752,3011.013Z" fill="#013547" fill-rule="evenodd"/>
      <path id="Path_22332" data-name="Path 22332" d="M1979.418,3042.621a13.66,13.66,0,0,0,9.217,3.795c-.021,6.061,1.916,13.019,2.829,21.292,1.512,13.693.535,31.729-.179,47.015-3.956.432-6.169-.112-8.854-2.288C1981.233,3088.892,1980.447,3066.173,1979.418,3042.621Z" fill="#013547" fill-rule="evenodd"/>
    </g>
    <path id="Path_22333" data-name="Path 22333" d="M2070.905,2918.611c22.522,22.223-28.1,22.87-35.131,60.358,1.643-22.014-16.21-55.627,10.843-61.3Z" fill="#e8a476" fill-rule="evenodd"/>
    <g id="Group_10657" data-name="Group 10657">
      <path id="Path_22334" data-name="Path 22334" d="M2070.968,2917.782c.574,6.738-19.628,14.6-23.961,8.649a10.9,10.9,0,0,0,.624-4.074,17.568,17.568,0,0,0-1.4-4.746c-.76-2.062-.785-6.425-2.1-11.253l19.03-8.295,4.074-2.159C2065.282,2905.4,2067.435,2909.821,2070.968,2917.782Z" fill="#e8a476" fill-rule="evenodd"/>
      <path id="Path_22335" data-name="Path 22335" d="M2070.968,2917.782a2.808,2.808,0,0,1-.083,1.025c-9.02-5.679-14.637-.922-25.216-3.749a69.926,69.926,0,0,0-1.539-8.7l19.03-8.293,4.074-2.161C2065.282,2905.4,2067.435,2909.821,2070.968,2917.782Z" fill="#db9669" fill-rule="evenodd"/>
    </g>
    <g id="Group_10658" data-name="Group 10658">
      <path id="Path_22336" data-name="Path 22336" d="M1998.818,2975.364c-2.239.965-4.553.552-6.683.671-6.642.367-11.48,1.852-15.186,4.919-.9.743,4.706,10.541,9.816,13.071.245.122.492-.185.7-.309l4.013-2.071,10.824-5.806Z" fill="#db9669" fill-rule="evenodd"/>
      <path id="Path_22337" data-name="Path 22337" d="M1995.013,2976.036c-4.289,0-7.418-1.363-9.782-1.019-2.425.355-5.565,2.9-9.866,4.089,1.549,4.225,6.79.4,8.943.44,1.982.04,2.491,2.351,4.289,2.094C1991.429,2981.235,1995.26,2979.178,1995.013,2976.036Z" fill="#db9669" fill-rule="evenodd"/>
    </g>
    <path id="Path_22338" data-name="Path 22338" d="M2038.919,2978.334c-15.891,5.641-24.941,6.21-41.219,10.645,1.185-7.108-3.519-13.214-6.547-13.291,13.5-5.309,29.673-12.872,44.136-15.289Z" fill="#aab7c2" fill-rule="evenodd"/>
    <path id="Path_22339" data-name="Path 22339" d="M1998.756,2977.224a46.591,46.591,0,0,0-4.294-2.857c9.012-3.647,20.342-8.227,30.113-11.251a58.934,58.934,0,0,1-.237,6.657C2020.556,2971.071,2000.871,2978.262,1998.756,2977.224Z" fill="#bac7d1" fill-rule="evenodd"/>
    <path id="Path_22340" data-name="Path 22340" d="M2038.919,2978.334c-15.891,5.641-24.941,6.21-41.219,10.645a14.029,14.029,0,0,0-1.027-7.975c7.553-1.753,17.784-5.564,28.441-9.459,1.845-.9,1-6.578,1.408-9.179l2.747-.8Z" fill="#a2afba" fill-rule="evenodd"/>
    <path id="Path_22341" data-name="Path 22341" d="M2030.609,3005.014a2.651,2.651,0,0,0,.48,1.16c5.386,7.506,39.188,18.823,46.261,18.236-5.357-46.575,36.169-89.432-7.172-106.973-2.4,6.848-11.465,11.78-16.831,11.78-6.873,0-11.234-3.888-9.078-9.706.2-.537-1.557,3.69-1.759,3.147-5.275,7.04-7.918,15.966-9.053,27.624C2031.683,2968.561,2035.519,2984.957,2030.609,3005.014Z" fill="#f2f9fc" fill-rule="evenodd"/>
    <path id="Path_22342" data-name="Path 22342" d="M2052.278,3017.826c9.371,3.331,21.76,6.86,25.072,6.584-5.613-48.808,46.371-89.493-8.4-105.583-3.682,6.8-7.978,13.867-11.387,20.708C2047.861,2959,2043.427,2997.546,2052.278,3017.826Z" fill="#e8f3f7" fill-rule="evenodd"/>
    <g id="Group_10660" data-name="Group 10660">
      <path id="Path_22343" data-name="Path 22343" d="M2085.289,2924.359c-2.942-1.633-8.943-5.308-15.412-8.921,5.447,6.526-7.709,22.217-13.813,41.784-2.076,6.653-3.423,16.349-3.749,26.006-.315,9.319,2.648,53.761,4.761,61.3,7.464,5.7,12.11,4.706,18.733,1.892a65.55,65.55,0,0,0,15.711-9.936c-2.607-21.317-10.279-22.168-10.875-35.43-.545-12.192,16.663-44.7,16.5-61.527C2097.077,2932.061,2090.789,2927.408,2085.289,2924.359Z" fill="#aab7c2" fill-rule="evenodd"/>
      <path id="Path_22344" data-name="Path 22344" d="M2085.289,2924.359l-14.983-8.31c2.234,3.586,8.2,7.432,14.628,12.86a29.38,29.38,0,0,0-8.307,14.669c-3.384,13.38-8.56,30.992-9.448,43.229-2.373,32.678,12.346,35.065,12.434,57.633a91.786,91.786,0,0,0,11.833-7.954c-2.171-20.522-9.772-20.433-10.8-35.43-.835-12.174,16.663-44.7,16.5-61.527C2097.077,2932.061,2090.789,2927.408,2085.289,2924.359Z" fill="#a2afba" fill-rule="evenodd"/>
      <path id="Path_22345" data-name="Path 22345" d="M2073.111,2922.181l7.77,6.614c-7.573,12.467-17.362,36.121-17.643,59.779-.135,11.408,7.049,46.13,13.307,56.527-5.023,3.288-17.4,3.248-18.3-2.042-3.941-23.138-4.217-65.144.654-83.565C2063.076,2943.7,2070.257,2932.266,2073.111,2922.181Z" fill="#bac7d1" fill-rule="evenodd"/>
      <g id="Group_10659" data-name="Group 10659">
        <path id="Path_22346" data-name="Path 22346" d="M2074.3,3001.26c-7.363-.251-9.387-.262-15.76.882l2.934,17.609c4.125,1.749,9.981,1.272,15.15-.87Z" fill="#aab7c2" fill-rule="evenodd"/>
        <path id="Path_22347" data-name="Path 22347" d="M2074.3,3001.26c-7.363-.251-9.387-.262-15.76.882.916,5.251.48,5.2,6.106,5.537,10.05.6,6.951,1.714,10.417,11.793.153.443,1.047-.377,1.561-.591Z" fill="#a2afba" fill-rule="evenodd"/>
        <path id="Path_22348" data-name="Path 22348" d="M2073.76,2999.017c-7.411-.228-10.714-.8-16.211-.822l1.417,7.009c1.877.98,11.733,2.145,16.085.084Z" fill="#aab7c2" fill-rule="evenodd"/>
        <path id="Path_22349" data-name="Path 22349" d="M2073.76,2999.017c-7.411-.228-10.714-.8-16.211-.822,5.355,1.988,14.389,1.444,15.967,7.639a8.993,8.993,0,0,0,1.535-.546Z" fill="#9da9b3" fill-rule="evenodd"/>
        <path id="Path_22350" data-name="Path 22350" d="M2059.888,3008.278l9.275,1.5,3.747,9.224a31.973,31.973,0,0,1-10.292.576Z" fill="#bac7d1" fill-rule="evenodd"/>
        <path id="Path_22351" data-name="Path 22351" d="M2058.345,2999.123c4.329,1.321,10.41,3.159,12.961,6.386a32.72,32.72,0,0,1-11.36-.748A25.754,25.754,0,0,1,2058.345,2999.123Z" fill="#bac7d1" fill-rule="evenodd"/>
      </g>
    </g>
    <g id="Group_10664" data-name="Group 10664">
      <path id="Path_22352" data-name="Path 22352" d="M2044.287,2906.957c-15.97,4.17-18.091,20.775-17.49,45.05.21,8.558,1.565,16.08,1.671,26.712.078,7.983-1.832,22.6-2.8,33.6,1.925-2.038,3.535-4.229,5.26-6.437,2.888-23.926,4.131-52.729,9.131-72.009a51.934,51.934,0,0,1,6.74-14.782c-.184-.48-.378-.965-.567-1.48a13.711,13.711,0,0,1-.559-2.553l-.015-.1-.008-.053-.007-.049-.015-.1,0-.007v-.007l-.022-.156-.006-.04-.016-.1v-.018l-.013-.089-.01-.079-.02-.138,0-.03-.023-.171,0-.02-.016-.112-.005-.042-.01-.072-.013-.1,0-.01-.015-.114-.007-.053-.01-.062-.014-.117h0l-.016-.117-.01-.066-.006-.051-.017-.121,0-.012-.015-.107-.01-.078-.006-.042-.017-.122,0-.025-.013-.1-.014-.092,0-.03-.018-.123-.005-.039-.012-.087-.015-.105,0-.02-.019-.126-.006-.05-.012-.077-.019-.12v-.007l-.02-.128-.01-.064-.01-.066-.02-.128v-.007l-.02-.124-.011-.076-.009-.054-.022-.132,0-.018-.018-.115-.016-.09-.006-.042-.022-.133-.005-.033-.018-.1-.024-.134-.023-.136-.008-.045-.016-.09-.021-.121,0-.016-.025-.136-.012-.06-.013-.079-.027-.135v0l-.01-.053-.028-.147,0-.012-.011-.066-.029-.138v-.012l-.04-.2-.007-.033-.038-.181-.005-.025-.025-.115-.009-.04-.022-.1-.032-.143-.008-.038-.024-.1-.026-.117-.007-.025-.033-.144,0-.012-.023-.1-.007-.032-.032-.132,0-.012-.035-.143,0-.014-.028-.11Z" fill="#aab7c2" fill-rule="evenodd"/>
      <path id="Path_22353" data-name="Path 22353" d="M2045.44,2917c-9.195,7.3-12.989,27.527-12.822,45.7.242,26.287-.626,19.187-1.43,43.559-1.28,1.467-3.257,3.195-5.072,5.084,2.848-22.927,3.894-29.58,2.293-51.218-1.363-18.427-1.544-38.393,9.172-48.927C2038.662,2913.288,2043.817,2915.294,2045.44,2917Z" fill="#bac7d1" fill-rule="evenodd"/>
      <g id="Group_10663" data-name="Group 10663">
        <g id="Group_10661" data-name="Group 10661">
          <path id="Path_22354" data-name="Path 22354" d="M2031.211,2989.052c-2.181-2.379-2.785-2.974-4.8-3.653l-1.512,19.663c1.012,1.6,4.344,2.924,5.358,2.515Z" fill="#aab7c2" fill-rule="evenodd"/>
          <path id="Path_22355" data-name="Path 22355" d="M2031.211,2989.052c-2.181-2.379-2.785-2.974-4.8-3.653-.218,5.585-.343,5.408,1.31,7.37,2.951,3.508,1.823,3.744,1.917,14.955a2.038,2.038,0,0,0,.619-.147Z" fill="#a2afba" fill-rule="evenodd"/>
          <path id="Path_22356" data-name="Path 22356" d="M2026.24,2992l2.636,4.2-.238,10.811a5.645,5.645,0,0,1-3.225-2.369Z" fill="#bac7d1" fill-rule="evenodd"/>
        </g>
        <g id="Group_10662" data-name="Group 10662">
          <path id="Path_22357" data-name="Path 22357" d="M2032.009,2984.382c-2.439-1.074-3.438-2.051-5.276-2.692l-.851,7.548c.443,1.243,3.524,3.581,5.374,1.9Z" fill="#aab7c2" fill-rule="evenodd"/>
          <path id="Path_22358" data-name="Path 22358" d="M2032.009,2984.382c-2.439-1.074-3.438-2.051-5.276-2.692,1.419,2.7,4.548,3.143,3.9,9.85a2.254,2.254,0,0,0,.619-.4Z" fill="#a2afba" fill-rule="evenodd"/>
          <path id="Path_22359" data-name="Path 22359" d="M2026.825,2982.757a16.743,16.743,0,0,1,3.133,8.191c-1.7-.118-2.235-.551-3.665-2.066C2026.355,2986.856,2026.587,2984.969,2026.825,2982.757Z" fill="#bac7d1" fill-rule="evenodd"/>
        </g>
      </g>
    </g>
    <path id="Path_22360" data-name="Path 22360" d="M2074.494,2918.319c2.148,5.219,1.079,14.477-1.5,23.515l-5.255-1.948,2.534,5.724c-10.564,13.8-16.475,34.364-17.293,55.48-6.482-51.869,15.428-69.484,16.3-87.189C2071.54,2915.42,2074.131,2917.435,2074.494,2918.319Z" fill="#ced9e0" fill-rule="evenodd"/>
    <path id="Path_22361" data-name="Path 22361" d="M2045.343,2912.266c-3.926,1.962-5.868,2.615-9.569,8.442l3.326,2.746-4.192,1.373c-1.666,16.977-1.655,35.413-1.121,52.924,1.884-17.392,2.985-32.6,7.178-46.719,1.37-4.611,3.291-7.561,6.022-11.417A36.151,36.151,0,0,1,2045.343,2912.266Z" fill="#ced9e0" fill-rule="evenodd"/>
    <g id="Group_10665" data-name="Group 10665">
      <path id="Path_22362" data-name="Path 22362" d="M2054.314,2918.87c2.068-1.759,7.2-4.58,9.038-6.305,4.015-3.772,2.748-8.745,3.238-15.365,3.763-3.448,4.863-5.954,4.91-8.641.112-6.379-4.284-12.705-9.524-15.815-4.58-2.719-9.507-3.037-14.777-1.191-10.241,3.584-13.6,12.071-13.055,21.239a6.135,6.135,0,0,0,.572,2.224c.792,1.762,1.676,2.478,2.237,3.672,1,2.135.215,2.69.167,4.083-.059,1.763,1.67,4.8,2.525,7.849a28.657,28.657,0,0,0,1.428,3.521c1.313,2.91,3.375,6.061,4.567,6.372a21.809,21.809,0,0,0,3.566.289C2050.419,2920.894,2051.544,2920.714,2054.314,2918.87Z" fill="#f1b287" fill-rule="evenodd"/>
      <path id="Path_22363" data-name="Path 22363" d="M2054.314,2918.87c2.068-1.759,7.2-4.58,9.038-6.305,4.015-3.772,2.748-8.745,3.238-15.365,3.763-3.448,4.863-5.954,4.91-8.641.112-6.379-4.284-12.705-9.524-15.815-4.58-2.719-9.507-3.037-14.777-1.191-8.9,3.113-12.6,9.928-13.062,17.673.417.5,6.147,1.74,11.255,1.369,3.264-.238,4.767-2.09,7.569-3.817,1.071,2.453.249,8.984.636,10.758.093.429,1.835,2.085,1.109,4.051-.2.536-.911,1.271-.579,2.035,3.468,7.981-.969,13.844-2.981,16.95A14,14,0,0,0,2054.314,2918.87Z" fill="#e8a476" fill-rule="evenodd"/>
      <path id="Path_22364" data-name="Path 22364" d="M2047.132,2887.762c2.241-1.8,4.372-8.013,7.948-11.178,3.658-3.236,7.667-6.7,11.657-4.776,3.768,3.121,6.048,9.673,6.206,13.565.226,5.571-2.336,11.012-6.03,16.947-1.389,2.23-2.772-5.437-3.674-6.913-.178,1.3-.42,2.668-.665,4.081l-1.555-.319c-.277-1.534-3.317-17.052-4.39-17.973C2054.821,2880.966,2052.294,2884.648,2047.132,2887.762Z" fill="#361d07" fill-rule="evenodd"/>
      <path id="Path_22365" data-name="Path 22365" d="M2064.568,2891.913c3.75-2.283,4.817,2.4,4.819,5.374,0,2.049-1.643,2.262-1.883,3.932a3.776,3.776,0,0,1-2.748,3.4c-2.484.48-1.772-3.528-1.8-5.048C2062.138,2897.246,2062.188,2893.361,2064.568,2891.913Z" fill="#e8a476" fill-rule="evenodd"/>
      <path id="Path_22366" data-name="Path 22366" d="M2066.965,2872.167a13.355,13.355,0,0,1,4.619,7.318c-.726-1.764-1.477-3.434-3.725-4.36,1.934,2.286,2.539,3.4,2.762,6.608-.727-2.236-1.947-4.345-4.181-5.1a13.934,13.934,0,0,1,3.529,9.642c-.706-3.433-2.893-6.857-5.737-8.04,2.09,2.212,2.209,5.256,2.568,7.8-1.406-3.177-1.955-4.971-4.757-6.135a12.873,12.873,0,0,1,1.355,8.266,23.519,23.519,0,0,0-3.6-7,6.331,6.331,0,0,1-1.16,5.193,17.711,17.711,0,0,0-1.625-5.478c-.295-.526-1.376-.226-2.276-.149C2059.954,2877.764,2065.42,2872.821,2066.965,2872.167Z" fill="#361d07" fill-rule="evenodd"/>
      <path id="Path_22367" data-name="Path 22367" d="M2067.1,2872.082c-7.267-2.381-11.107,9.534-18.213,14.669-3.02,2.182-4.569,2.2-9.684,1.83-3.211-.235-6.187-.885-6.907-2.148-4.051-7.092-1.92-10.556,2.463-13.358,1.788-1.141,4.444-1.83,6.435-3.144C2049.216,2864.633,2060.847,2862.586,2067.1,2872.082Z" fill="#361d07" fill-rule="evenodd"/>
      <path id="Path_22368" data-name="Path 22368" d="M2064.76,2869.338a6.837,6.837,0,0,1,2.392,2.934c-4.921,5.315-7.471,5.6-12.387,9.468-4.486,3.532-8.811,8.073-14.468,6.183.943-7.182,3.708-10.418,11.335-12.48,2.85-.77,4.518.208,9.989-2.616a6.191,6.191,0,0,0-2.3.2C2062.179,2871.317,2064.489,2871.323,2064.76,2869.338Z" fill="#241304" fill-rule="evenodd"/>
      <path id="Path_22369" data-name="Path 22369" d="M2032.239,2874.9c5.124-5.189,15.488-7.6,25.14,1.145-6.8.506-8.707,3.1-10.194,7.989a7.672,7.672,0,0,1-3.6,4.128c-2.062.88-4.4.577-7.524.145-1.8-.247-3.505-.613-4.626-1.725C2028.8,2883.966,2028.246,2878.943,2032.239,2874.9Z" fill="#4a2b12" fill-rule="evenodd"/>
      <path id="Path_22370" data-name="Path 22370" d="M2038.312,2873.648a10.167,10.167,0,0,0-6.619,6.421,9.451,9.451,0,0,1,5.076-3.994,9.249,9.249,0,0,0-3.327,4.792c2.673-2.589,4.162-4.2,8.013-5.413a10.592,10.592,0,0,0-5.17,5.527c3.123-2.769,6.1-5.863,10.957-5.911-3.558.67-7.645,4.607-8.988,8.171a19.921,19.921,0,0,1,6.109-4.13c-1.68.877-2.424,4.34-2.716,5.076,2.366-2.319,4.3-6.632,9.045-7.592-5.161,2.677-5.583,12.58-10.081,12.142-2.43-.237-7.632-.831-8.907-1.919a6.887,6.887,0,0,1-.515-9.9C2032.827,2875.017,2035.9,2874.028,2038.312,2873.648Z" fill="#361d07" fill-rule="evenodd"/>
    </g>
    <rect id="Rectangle_129" data-name="Rectangle 129" width="27.906" height="3.252" transform="translate(2034.594 2986.356) rotate(127.357)" fill="#000007"/>
    <g id="Group_10666" data-name="Group 10666">
      <path id="Path_22371" data-name="Path 22371" d="M2100.234,3116.175l-38.119,22.009.7.5,1.659.771,37.063-21.131,1.057-.875Z" fill="#c9c7c5" fill-rule="evenodd"/>
      <path id="Path_22372" data-name="Path 22372" d="M2064.476,3139.456l-2.362-1.272a5.45,5.45,0,0,1-5.094.191C2060.077,3140.566,2061.636,3141.132,2064.476,3139.456Z" fill="#bfbdbb" fill-rule="evenodd"/>
      <path id="Path_22373" data-name="Path 22373" d="M2056.524,3136.3l-2.54-1.516c.005,2.493.762,4.214,2.185,5.042l2.669,1.549C2057.414,3140.548,2056.531,3138.791,2056.524,3136.3Z" fill="#c9c7c5" fill-rule="evenodd"/>
      <path id="Path_22374" data-name="Path 22374" d="M2065.684,3048.669c.052-.084.083-.168.135-.251h0a70.529,70.529,0,0,1,12.664-18.045c.1-.107.225-.214.329-.321a63.645,63.645,0,0,1,12.688-9.9,57.723,57.723,0,0,1,11.977-5.652l.1-.219-2.072-1.151-.229.075a61.148,61.148,0,0,0-11.559,5.2c-12.135,6.979-21.189,17.664-27.061,30.207-.174.379-.348.761-.522,1.143a103.7,103.7,0,0,0-7.909,30.622,72.418,72.418,0,0,0-.294,8.53l.048,45.883,2.54,1.511.393-48.533C2057.029,3073.989,2060.027,3060.2,2065.684,3048.669Z" fill="#d6d4d2" fill-rule="evenodd"/>
      <path id="Path_22375" data-name="Path 22375" d="M2073.584,3034.97A62.853,62.853,0,0,1,2091.6,3019.4a55.141,55.141,0,0,1,11.987-5.122l.077,1.928a60.469,60.469,0,0,0-11.536,5.148,61.336,61.336,0,0,0-17.458,15.115c-7.481,9.418-12.623,21.288-15.353,35.39a95.491,95.491,0,0,0-1.72,19.88l.122,43.868c.012,4.265,3.042,5.993,6.76,3.846l38.119-22.006v1.365l-38.119,22.008c-4.369,2.527-7.939.5-7.952-4.524-.085-14.748-.189-29.557-.266-44.32a98.547,98.547,0,0,1,1.783-20.387c2.75-14.468,7.837-26.9,15.543-36.622Z" fill="#534b48" fill-rule="evenodd"/>
      <path id="Path_22376" data-name="Path 22376" d="M2092.681,3019.486c.547-.321,1.462-.511,2-.8l-.06,2.407c-.515.272-1.023.559-1.552.868-10.369,5.992-23.472,17.77-30.225,40.5l-1.907.19c4.832-23.727,20.725-36.8,31.746-43.165Z" fill="#53595c" fill-rule="evenodd"/>
      <path id="Path_22377" data-name="Path 22377" d="M2080.874,3028.741a68.189,68.189,0,0,0-10.672,13.1,84.3,84.3,0,0,0-9.267,20.807l-4.1-2.382a81.518,81.518,0,0,1,11.389-23.976,68.267,68.267,0,0,1,8.544-9.934,64.413,64.413,0,0,1,13.684-9.982,1.175,1.175,0,0,0,.129-.07l4.1,2.382a63.494,63.494,0,0,0-13.8,10.052Z" fill="#6a7378" fill-rule="evenodd"/>
    </g>
    <g id="Group_10672" data-name="Group 10672">
      <g id="Group_10668" data-name="Group 10668">
        <path id="Path_22378" data-name="Path 22378" d="M2042.26,3005.278l1.673-3.623-.941-6.506c-3.161-1.9-5.541-2.539-6.885-1.994C2031.28,2995.111,2036.195,3007.873,2042.26,3005.278Z" fill="#8f9ba6" fill-rule="evenodd"/>
        <g id="Group_10667" data-name="Group 10667">
          <path id="Path_22379" data-name="Path 22379" d="M2040.03,2992.149c-6.373,3.515-16.154,3.827-18.835,7.884-2.319,3.505,1.2,7.724,3.983,9.29,2.263,1.27,8.367-.992,12.442-2.205,3.613-1.077,4.807-4.978,7.433-5.55C2046.055,2997.754,2042.43,2994.688,2040.03,2992.149Z" fill="#f1b287" fill-rule="evenodd"/>
          <path id="Path_22380" data-name="Path 22380" d="M2021.42,2999.723c-.08.1-.155.2-.225.31-2.319,3.505,1.2,7.724,3.983,9.29,2.263,1.27,8.367-.992,12.442-2.205,3.613-1.077,4.807-4.978,7.433-5.55a5.687,5.687,0,0,0-.709-4.351c-3.946,1.616-5.863,4.863-8.652,6.156-3.855,1.786-7.278,2.422-9.193,1.773C2025.9,3004.944,2023.436,3002.075,2021.42,2999.723Z" fill="#db9669" fill-rule="evenodd"/>
          <path id="Path_22381" data-name="Path 22381" d="M2022.449,2998.848c-3.152,1.383-8.314,3.357-11.485,4.674-2.233.926.03,3.981,2.137,3.342,2.066-.626,7.449-2.462,7.465-2.469C2022.561,3003.361,2024.068,3001.085,2022.449,2998.848Z" fill="#f1b287" fill-rule="evenodd"/>
          <path id="Path_22382" data-name="Path 22382" d="M2010.855,3005.949a1.645,1.645,0,0,0,2.246.915c2.065-.626,7.449-2.462,7.465-2.469a4.742,4.742,0,0,0,2.464-2.8Z" fill="#db9669" fill-rule="evenodd"/>
        </g>
      </g>
      <g id="Group_10669" data-name="Group 10669">
        <path id="Path_22383" data-name="Path 22383" d="M2096.259,2935.948c1.9,11.31-1.576,33.038-5.065,46.973-1.777,7.088-3.665,12.493-9.7,13.063-5.716.542-9.411-5.881-9.449-11.761-.043-6.965.616-15.4,1.412-29.906C2074.309,2938.83,2093.723,2920.828,2096.259,2935.948Z" fill="#aab7c2" fill-rule="evenodd"/>
        <path id="Path_22384" data-name="Path 22384" d="M2096.259,2935.948c1.9,11.31-1.576,33.038-5.065,46.973-1.777,7.088-3.665,12.493-9.7,13.063-3.854.365-6.788-2.436-8.3-6.1.964-.214,1.934-.431,2.916-.654,5.2-1.179,4.7-.108,5.88-5.179,3.276-14.026,8.047-45.427,6.169-52.131a5.856,5.856,0,0,0-.266-.758C2091.831,2929.227,2095.287,2930.149,2096.259,2935.948Z" fill="#a2afba" fill-rule="evenodd"/>
        <path id="Path_22385" data-name="Path 22385" d="M2089.071,2985.89c-1.029,3.942-.7,6.674-4.245,9.357-1.519,1.149-3.754,1.652-6.051,2.714-8.882,4.107-22.991,5.542-36.808,7.448.583-7.416-1.838-11.673-6.007-12.23,11.469-4.657,25.381-6.947,36.859-10.333a23.165,23.165,0,0,1,4.335-.841Z" fill="#aab7c2" fill-rule="evenodd"/>
        <path id="Path_22386" data-name="Path 22386" d="M2089.071,2985.89c-1.029,3.942-.7,6.674-4.245,9.357-1.519,1.149-3.754,1.652-6.051,2.714-8.882,4.1-22.991,5.542-36.808,7.448a17.481,17.481,0,0,0-.953-8.112c10.214-3.034,21.806-5.048,35.1-8.068,5.2-1.179,4.7-.108,5.88-5.179.034-.142.067-.289.1-.436Z" fill="#a2afba" fill-rule="evenodd"/>
        <path id="Path_22387" data-name="Path 22387" d="M2087.02,2933.563c-2.079,17.037-4.284,35.1-7.445,51.971l-38.441,9.893c-1.123-1.284-1.594-2.071-3.486-2.705l36.361-9.284C2076.239,2958.129,2075.476,2948.143,2087.02,2933.563Z" fill="#bac7d1" fill-rule="evenodd"/>
      </g>
      <g id="Group_10671" data-name="Group 10671">
        <path id="Path_22388" data-name="Path 22388" d="M1991.265,2974.91c-3.848-.037-6.642-1.284-8.765-.995-2.178.3-5.016,2.551-8.881,3.583,1.353,3.8,6.084.413,8.016.471,1.776.051,2.213,2.129,3.828,1.913C1988.006,2979.542,1991.457,2977.729,1991.265,2974.91Z" fill="#db9669" fill-rule="evenodd"/>
        <g id="Group_10670" data-name="Group 10670">
          <path id="Path_22389" data-name="Path 22389" d="M1987.649,2996.133c-2.508-1.644-2.071-1.483-3.309-4.231-1.295-2.856-14.087-30.374-13.846-30.5,1.864-.948,1.927-1.186,3.852.087l30.151,21.313a13.924,13.924,0,0,1,4.461,5.888l12.591,27.535c.624,1.292.484,2.184.252,2.375l-1.781.9c-.413.209-4.618-3.233-7.475-5.588l-.307.155C2012.041,3014.167,1988.4,2996.673,1987.649,2996.133Z" fill="#fff" fill-rule="evenodd"/>
          <path id="Path_22390" data-name="Path 22390" d="M2002.386,2984.49l-30.174-21.554c-1.126-.767-1.071-.515-.672.4l12.871,28.566c1.088,2.322,1.3,2.593,3.062,3.944,10.3,7.4,20.587,14.6,30.861,21.979,1.342.947,1.1.738.54-.679l-12.668-27.795A12.336,12.336,0,0,0,2002.386,2984.49Z" fill="#aa2142" fill-rule="evenodd"/>
          <path id="Path_22391" data-name="Path 22391" d="M1986.88,2995.382c.429.324.852.654,1.291.965l30.163,21.482c1.335.94,1.112.759.54-.679l-12.668-27.795a11.355,11.355,0,0,0-2.273-3.431c-.527-.485-1.017-1.007-1.526-1.419C1996.674,2983.264,1990.986,2993.214,1986.88,2995.382Z" fill="#d61f51" fill-rule="evenodd"/>
        </g>
        <path id="Path_22392" data-name="Path 22392" d="M1979.636,2978.753c-4.3-.868-4.276-1.912-4.559-.455-.413,2.131,2.424,10.11,6.5,13.193a20.306,20.306,0,0,0,4.329.788c1.228-.022,1.164-.681.531-2.416l-2.81-7.693C1982.695,2979.869,1982.282,2979.288,1979.636,2978.753Z" fill="#db9669" fill-rule="evenodd"/>
      </g>
    </g>
  </g>
</svg>
