<svg xmlns="http://www.w3.org/2000/svg" width="386.713" height="318.916" viewBox="0 0 386.713 318.916">
  <g id="Group_10392" data-name="Group 10392" transform="translate(-6232.01 -2852.134)">
    <path id="Path_21670" data-name="Path 21670" d="M6615.278,3082.855c-79.737-46.339-164.454-95.573-243.743-141.65-8.97,5.181-103.446,59.993-136.075,78.9a6.923,6.923,0,0,0,0,11.976l75.068,43.626a6.927,6.927,0,0,1,0,11.978L6273,3109.5a6.912,6.912,0,0,0-.044,11.928c17.217,10.188,51.492,30.522,69.253,41.033a21.776,21.776,0,0,0,22.044.087l44.36-25.778a6.945,6.945,0,0,1,6.975,0l54.993,31.958a17.156,17.156,0,0,0,17.228.013c26.027-15.084,99.5-57.706,127.465-73.917A6.916,6.916,0,0,0,6615.278,3082.855Z" fill="#c1d5de" fill-rule="evenodd" opacity="0.7" style="mix-blend-mode: multiply;isolation: isolate"/>
    <g id="Group_10376" data-name="Group 10376">
      <g id="Group_10373" data-name="Group 10373">
        <g id="Group_10363" data-name="Group 10363">
          <g id="Group_10360" data-name="Group 10360">
            <g id="Group_10359" data-name="Group 10359">
              <path id="Path_21671" data-name="Path 21671" d="M6406.89,3078.291c-1.282,1.218-2.775,1.816-5.74,3.587v2.614c-3.072,5.378-6.034,7.823-9.922,6.675-5.421-1.6-7.062-2.934-7.127-6.811-.618-6.6-.756-7.842,1.023-12.706a39.057,39.057,0,0,1,11.746-5.495c3.149-1,7.893-3.752,12.465-4.959a3.5,3.5,0,0,1,4.379,3.266C6413.96,3068.593,6410.317,3074.655,6406.89,3078.291Z" fill="#111214" fill-rule="evenodd"/>
              <path id="Path_21672" data-name="Path 21672" d="M6406.89,3078.291c-1.282,1.218-2.775,1.816-5.74,3.587v2.614c-3.072,5.378-6.034,7.823-9.922,6.675-5.421-1.6-7.062-2.933-7.127-6.811a40.562,40.562,0,0,1-.342-7.551c7.21,3.684,13.332,3.347,20.056-3.594,2.017-2.083,7.936-7.47,8.445-11.484a3.881,3.881,0,0,1,1.454,2.735C6413.96,3068.593,6410.317,3074.655,6406.89,3078.291Z" fill-rule="evenodd"/>
            </g>
            <path id="Path_21673" data-name="Path 21673" d="M6415.048,3022.288c-4.772,17.5-8.934,31.125-14.35,48.451a11.271,11.271,0,0,1-5.374,6.67c-4.59,2.464-10.939,2.689-12.185-.872,1.071-17.608,1.648-27.237,3.147-36.751,1.247-7.917,1.927-15.461,5.967-21.851C6396.9,3002.255,6419.93,3004.386,6415.048,3022.288Z" fill="#001624" fill-rule="evenodd"/>
            <path id="Path_21674" data-name="Path 21674" d="M6408.173,3046.381c-2.332,7.826-4.744,15.622-7.475,24.358a11.267,11.267,0,0,1-5.374,6.669,15.474,15.474,0,0,1-6.643,1.826c.826-5.479,2.82-13.548,4.125-18.962a27.237,27.237,0,0,1-8.914,3.46c.173-2.69.3-3.841.471-6.148Z" fill="#00101a" fill-rule="evenodd"/>
          </g>
          <g id="Group_10362" data-name="Group 10362">
            <g id="Group_10361" data-name="Group 10361">
              <path id="Path_21675" data-name="Path 21675" d="M6416.7,3086.047c1.512-.407,5.42-6.36,10.9-5.189,6.577,1.4,14.212-2.321,20.144-2.392,1.057-.013,2.393-.278,3.035.2,2.823,2.107,3.169,4.29.737,7.059a42.431,42.431,0,0,1-7.828,6.467,50.473,50.473,0,0,1-8.849,5.016c-2.664,1.1-4.459.953-6.87,1.81l-.153,2.1a11.466,11.466,0,0,1-5.412,2.768c-3.393.3-7.371-1.874-10.229-4.923-.329-3.467-1.565-6.918.219-12.014Z" fill="#111214" fill-rule="evenodd"/>
              <path id="Path_21676" data-name="Path 21676" d="M6452.476,3080.351c1.108,1.61.825,3.333-.969,5.375a42.431,42.431,0,0,1-7.828,6.467,50.473,50.473,0,0,1-8.849,5.016c-2.664,1.1-4.459.953-6.87,1.81l-.153,2.1a11.466,11.466,0,0,1-5.412,2.768c-3.393.3-7.371-1.874-10.229-4.923-.252-2.646-1.03-5.283-.593-8.648,7.316,5.6,11.821,1.81,14.634,1.667,4.172-.213,10.2.151,19.488-6.518C6447.846,3083.918,6450.165,3082.213,6452.476,3080.351Z" fill-rule="evenodd"/>
              <path id="Path_21677" data-name="Path 21677" d="M6431.6,3087.938c1.7-2.964,1.7-4.909,1.137-6.081l11.687-2.308c5.727-1.188,6.892-.112,5.372,1.24C6444.689,3085.333,6437.969,3086.467,6431.6,3087.938Z" fill="#20232e" fill-rule="evenodd"/>
            </g>
            <path id="Path_21678" data-name="Path 21678" d="M6432.889,3008.87c-.443,18.075-1.015,57.455-2.59,75.856-1.132,5.909-15.084,11.5-20.4,5.622-1-17.58-3.019-32.163-2.21-41.82.674-8.037.887-32.019,3.838-39.1C6413.788,3000.5,6433.275,2993.11,6432.889,3008.87Z" fill="#001e30" fill-rule="evenodd"/>
            <path id="Path_21679" data-name="Path 21679" d="M6433.4,3011.2c-.443,18.076-1.526,55.124-3.1,73.525-.52,2.711-3.74,5.355-7.585,6.854,1-13.3,1.679-27.106,3.3-40.219.731-5.9,1.507-11.171,2.06-15.756.789-6.545,1.6-28.565-1.042-34.8a12.515,12.515,0,0,0-3.932-5.26,11.977,11.977,0,0,1,6.45,3.775,15.665,15.665,0,0,1,3.618,8.8A14.194,14.194,0,0,1,6433.4,3011.2Z" fill="#001624" fill-rule="evenodd"/>
            <path id="Path_21680" data-name="Path 21680" d="M6420.04,3091.015c-4.144,1.225-7.8.2-9.5-1.534-1.065-33.056-2.284-38.245,4.725-50.9,2.453-4.43,5.69-9.013,10.832-17.721C6422.709,3046.1,6423.193,3063.088,6420.04,3091.015Z" fill="#00263d" fill-rule="evenodd"/>
          </g>
        </g>
        <g id="Group_10369" data-name="Group 10369">
          <g id="Group_10366" data-name="Group 10366">
            <g id="Group_10364" data-name="Group 10364">
              <path id="Path_21681" data-name="Path 21681" d="M6354.754,3071.031l-2.564-1.487a13.752,13.752,0,0,1-1.1,5.087,15.821,15.821,0,0,1-6.16,7.492l2.565,1.492a13.421,13.421,0,0,0,3.937-3.5,18.289,18.289,0,0,0,2.391-4.129A12.486,12.486,0,0,0,6354.754,3071.031Z" fill="#a8a5a3" fill-rule="evenodd"/>
              <path id="Path_21682" data-name="Path 21682" d="M6344.925,3082.124l-41.2,23.851,2.517,1.454,41.244-23.813Z" fill="#c9c7c5" fill-rule="evenodd"/>
              <path id="Path_21683" data-name="Path 21683" d="M6354.1,3016.952l-2.564-1.491.657,54.083,2.564,1.487Z" fill="#a8a5a3" fill-rule="evenodd"/>
              <path id="Path_21684" data-name="Path 21684" d="M6354.514,3013.787a32.553,32.553,0,0,0-.432-3.731,26.47,26.47,0,0,0-5.372-12.426,19.04,19.04,0,0,0-5.46-4.774l-2.564-1.486c5.651,3.282,9.211,9.174,10.447,17.28a30.116,30.116,0,0,1,.391,3.647c.023.777.009,3.046.009,3.164l2.564,1.491A30.5,30.5,0,0,0,6354.514,3013.787Z" fill="#918e8c" fill-rule="evenodd"/>
              <path id="Path_21685" data-name="Path 21685" d="M6344.173,2991.293v0c-6.187-3.6-9.96-4.97-17.339-4.439-7.908.569-15.875,3.772-22.39,7.553q-1.911,1.1-3.82,2.355l2.564,1.491q1.911-1.255,3.82-2.36a70.315,70.315,0,0,1,7.7-3.827,48.736,48.736,0,0,1,13-3.5,31.306,31.306,0,0,1,8.931.148,22.369,22.369,0,0,1,6.7,2.125C6343.614,2990.983,6343.9,2991.129,6344.173,2991.293Z" fill="#a8a5a3" fill-rule="evenodd"/>
              <path id="Path_21686" data-name="Path 21686" d="M6355.389,3017.165c0-.182.049-3.633-.013-4.791-.06-1.064-.319-2.746-.546-4.047-1.573-9-6.01-15.256-12.994-18.2-9.129-3.855-21.917-1.682-34.828,5.769q-1.909,1.1-3.82,2.36l.1,1.422c1.24-.817,2.492-1.586,3.732-2.3,12.607-7.279,25.082-9.4,33.975-5.638,6.96,2.942,11.311,9.271,12.706,18.408a30.916,30.916,0,0,1,.391,3.646c.023.778.009,3.046.009,3.165l.657,54.079a13.421,13.421,0,0,1-1.068,5.011,15.822,15.822,0,0,1-6.2,7.573l-41.244,23.813,0,1.482,41.243-23.813c4.728-2.733,8.565-9.379,8.551-14.812Z" fill="#534b48" fill-rule="evenodd"/>
              <path id="Path_21687" data-name="Path 21687" d="M6303.188,2998.253l-2.564-1.491.1,1.427,2.564,1.486Z" fill="#918e8c" fill-rule="evenodd"/>
            </g>
            <g id="Group_10365" data-name="Group 10365">
              <path id="Path_21688" data-name="Path 21688" d="M6344.079,2993.646l-5.061-2.705a19.984,19.984,0,0,1,8.355,9.7l4.806,2.8A19.773,19.773,0,0,0,6344.079,2993.646Z" fill="#03868f" fill-rule="evenodd"/>
              <path id="Path_21689" data-name="Path 21689" d="M6315.415,2987.644l-.294,1.535,3.42,1.834-.219,1.2,1.483.639.61-2.451Z" fill="#03868f" fill-rule="evenodd"/>
              <path id="Path_21690" data-name="Path 21690" d="M6336.737,2988.993c2.923.391,5.9.874,8.459,2.384h0c-3.07-1.787-6.012-3.751-9.434-4.776a26.237,26.237,0,0,0-7.792-1.08,39.294,39.294,0,0,0-10.888,1.627c-.55.155-1.1.319-1.668.5l4.809,2.8A41.774,41.774,0,0,1,6336.737,2988.993Z" fill="#07acb8" fill-rule="evenodd"/>
              <path id="Path_21691" data-name="Path 21691" d="M6320.223,2990.44l-.418,2.409c15.353-4.9,27.455-.94,32.374,10.584l1.795-1.85C6348.824,2989.508,6336.2,2985.34,6320.223,2990.44Z" fill="#079da8" fill-rule="evenodd"/>
            </g>
          </g>
          <g id="Group_10367" data-name="Group 10367">
            <path id="Path_21692" data-name="Path 21692" d="M6302.056,3109.875c-1.6.923-2.4,2.137-2.392,3.351v1.482c0-1.214.795-2.428,2.4-3.351l.114-.922Z" fill="#665c59" fill-rule="evenodd"/>
            <path id="Path_21693" data-name="Path 21693" d="M6327.161,3095.382l-25.1,14.494,0,1.482,25.1-14.493Z" fill="#534b48" fill-rule="evenodd"/>
            <path id="Path_21694" data-name="Path 21694" d="M6299.305,3119.418a1.413,1.413,0,0,0,.141.086l0-1.482a8.233,8.233,0,0,1-2.046-1.692,4.307,4.307,0,0,1-.923-1.245c-.022-.05-.045-.1-.068-.15a4.258,4.258,0,0,1-.377-1.7,13.724,13.724,0,0,0,.027,1.869,4.712,4.712,0,0,0,1.045,2.446A8.223,8.223,0,0,0,6299.305,3119.418Z" fill="#665c59" fill-rule="evenodd"/>
            <path id="Path_21695" data-name="Path 21695" d="M6340.139,3141.534l-40.7-23.511,0,1.482,40.7,23.512Z" fill="#918e8c" fill-rule="evenodd"/>
            <path id="Path_21696" data-name="Path 21696" d="M6381.887,3127.045l-25.1,14.493.005,1.482,25.1-14.492Z" fill="#534b48" fill-rule="evenodd"/>
            <path id="Path_21697" data-name="Path 21697" d="M6356.792,3143.02l0-1.482a14.82,14.82,0,0,1-4.391,1.593,19.907,19.907,0,0,1-7.326.106,15.115,15.115,0,0,1-4.931-1.7l0,1.482a15.635,15.635,0,0,0,5,1.725,20.425,20.425,0,0,0,7.433-.157A14.821,14.821,0,0,0,6356.792,3143.02Z" fill="#665c59" fill-rule="evenodd"/>
            <path id="Path_21698" data-name="Path 21698" d="M6379.323,3125.559l-25.1,14.489a12.694,12.694,0,0,1-11.507-.005l-40.692-23.513c-3.164-1.836-3.146-4.823.032-6.655l25.1-14.493-2.565-1.492-25.1,14.494c-4.6,2.654-4.624,6.978-.05,9.638l40.7,23.512c4.578,2.659,12.047,2.659,16.648,0l25.1-14.493Z" fill="#c9c7c5" fill-rule="evenodd"/>
          </g>
          <g id="Group_10368" data-name="Group 10368">
            <path id="Path_21699" data-name="Path 21699" d="M6414.954,3030.872c-.83-1.361-3.386-2.953-4.115-3.486-9.078-6.638-26.724-16.523-37.385-22.338-4.083-2.144-8.017-4.372-12.234-6.272l-.359-.161c-3.032-1.362-3.5-1.858-6.358-.593-1.107.481-2.264,1.091-3.353,1.63-8.618,4.266-19.025,10.358-27.286,15.473l-19.1,11.832h0l56.806,33.6.254.36c2.069-1.295,4.641-2.935,6.574-4.145,11.633-7.255,20.4-12.475,27-16.23.769-.427,1.542-.859,2.318-1.286,2.628-1.414,5.411-2.892,8.471-4.506q2.152-1.111,4.4-2.246c3.42-1.419,3.659.428,2.8,2.316a2.2,2.2,0,0,0,.618-.355,3.392,3.392,0,0,0,.883-1.079A2.607,2.607,0,0,0,6414.954,3030.872Z" fill="#444044" fill-rule="evenodd"/>
            <path id="Path_21700" data-name="Path 21700" d="M6305.624,3026.424c-.976.558-8.728,2.327-9.979,2.137,15.984,15,48.3,26,58.2,34.184.83.709,2.511-.607,3.621-.464,1.339.212,3.384-.826,4.36-1.391.011-.161-.474-.6-.575-.711C6348.045,3046.217,6316.943,3032.868,6305.624,3026.424Z" fill="#444044" fill-rule="evenodd"/>
            <path id="Path_21701" data-name="Path 21701" d="M6414.954,3030.872c-.83-1.361-3.386-2.953-4.115-3.486-10.778-7.882-25.529-15.872-37.385-22.338-4.083-2.144-8.017-4.372-12.234-6.272l-.359-.161c-2.739-1.23-3.389-1.754-5.594-.911,12.294,6.978,49.2,26.521,59.723,35.458A2.514,2.514,0,0,0,6414.954,3030.872Z" fill="#03868f" fill-rule="evenodd"/>
            <path id="Path_21702" data-name="Path 21702" d="M6360.6,3065.253a11.9,11.9,0,0,1-3.508,1.16l-.091.014a4.306,4.306,0,0,1-2.195-.246c-1.747-.873-2-3.3-1.711-5.261l-11.129-6.424q-23.318-13.46-46.64-26.907a5.62,5.62,0,0,0,.485,4.112c1.195,1.907,4.513,4.013,5.9,4.971,12.253,8.479,34.562,21.543,47.968,27.867a21.431,21.431,0,0,0,5.389,1.925,8.255,8.255,0,0,0,3.224-.256,12.183,12.183,0,0,0,2.362-.925Z" fill="#03868f" fill-rule="evenodd"/>
            <path id="Path_21703" data-name="Path 21703" d="M6413.633,3030.985c-8.528,4.223-15.821,8.114-22.931,12.22-8.9,5.137-17.59,10.6-28.3,17.322-.167.108-.339.217-.576.363-3.337,1.941-5.015,1.568-5.515.741-.464-.951.014-2.564.786-4.092l-2.747-.865c-1.76,3.555-1.912,6.484-.948,8.234,1.163,2.137,4.2,2.123,8.451-.317.232-.151.469-.3.7-.442,10.644-6.692,19.276-12.107,28.137-17.225,7.065-4.078,14.225-7.97,22.835-12.171a3.579,3.579,0,0,0,1.6-2.646C6415.192,3031.052,6414.524,3030.548,6413.633,3030.985Z" fill="#2c282c" fill-rule="evenodd"/>
          </g>
        </g>
        <g id="Group_10372" data-name="Group 10372">
          <g id="Group_10370" data-name="Group 10370">
            <path id="Path_21704" data-name="Path 21704" d="M6405.7,3011.9c6.215-3.5,18.517-12.633,12.848-18.059-5.782-13.755-25.115-7.76-32.472-5.6-11.166,3.281-39.9,10.514-50.868,22.219L6316,2991.141c-2.174,9.927-6.168,23.568-4.014,34.667,1.32,6.809,2.165,8.877,8.05,12.335,3.878,2.279,8.7,4.377,11.364,4.9a22.679,22.679,0,0,0,14.417-1.875C6359.454,3034.633,6397.683,3016.423,6405.7,3011.9Z" fill="#001624" fill-rule="evenodd"/>
            <path id="Path_21705" data-name="Path 21705" d="M6378.028,3013.435c4.433-2.5,29.124-7.777,31.828-12.782.623-1.155-.546-3.279-1.171-4.373-11.727.019-37.625,6.7-53.407,12.94Z" fill="#00101a" fill-rule="evenodd"/>
          </g>
          <g id="Group_10371" data-name="Group 10371">
            <path id="Path_21706" data-name="Path 21706" d="M6427.383,3016.7c6.214-3.5,6.167-12.6,1.141-18.628-2.94-3.526-8.653-5.173-15.992-3.893-11.621,2.029-49.9,17.561-60.87,25.4L6328.7,2996.17c-2.173,9.927-2.757,27.659-.6,38.759,1.321,6.809,2.507,8.877,8.392,12.335,3.877,2.279,8.7,4.377,11.363,4.9a22.686,22.686,0,0,0,14.418-1.877C6375.906,3043.754,6419.364,3021.225,6427.383,3016.7Z" fill="#001e30" fill-rule="evenodd"/>
            <path id="Path_21707" data-name="Path 21707" d="M6365.946,3011.346a105.642,105.642,0,0,0-14.284,8.238L6328.7,2996.17c-2.173,9.927-2.757,27.659-.6,38.759,1.321,6.809,2.507,8.877,8.392,12.335,3.877,2.279,8.7,4.377,11.363,4.9a22.686,22.686,0,0,0,14.418-1.877c7.361-3.528,42.158-20.874,52.336-26.761,4.538-3.967,9.29-14.606,8.637-14.371-16.12,12.787-40.426,20.3-49.607,25.039C6372.945,3031.61,6373.126,3016.283,6365.946,3011.346Z" fill="#001624" fill-rule="evenodd"/>
            <path id="Path_21708" data-name="Path 21708" d="M6420.882,2994.06c10,1.431,16.447,14.468,8.063,22.23a45.009,45.009,0,0,0-.7-10.543A19.409,19.409,0,0,0,6420.882,2994.06Z" fill="#11101a" fill-rule="evenodd"/>
            <path id="Path_21709" data-name="Path 21709" d="M6420.267,3006.668c5.977-2.775,3.036-9.592-.733-10.516-8.06-1.975-37.909,10.523-48.981,15.213,3.645,2.951,5.35,9.746,6.079,14.463C6385.211,3022.237,6411.318,3010.823,6420.267,3006.668Z" fill="#00263d" fill-rule="evenodd"/>
          </g>
        </g>
      </g>
      <g id="Group_10375" data-name="Group 10375">
        <path id="Path_21710" data-name="Path 21710" d="M6355.213,3007.406c9.794-3.184,19.2-6.9,28.983-10.116-2.407-4.092-6.258-5.23-10.387-5.49-13.186,3.982-30.606,10.135-38.6,18.663C6332.771,3008.009,6347.83,3016.293,6355.213,3007.406Z" fill="#e0f5ff" fill-rule="evenodd"/>
        <g id="Group_10374" data-name="Group 10374">
          <path id="Path_21711" data-name="Path 21711" d="M6363.358,3012.989a91.369,91.369,0,0,0-11.7,6.595L6328.7,2996.17c-2.173,9.927-2.757,27.659-.6,38.759,1.321,6.809,2.507,8.877,8.392,12.335,3.877,2.279,8.7,4.377,11.363,4.9a22.686,22.686,0,0,0,14.418-1.877c8.8-4.221,30.044-15.11,46.147-23.513.163-8.808-1.826-17.091-8.767-23.69-11.871,3.919-26.011,7.761-35.119,11.365Q6363.951,3013.68,6363.358,3012.989Z" fill="#00263d" fill-rule="evenodd"/>
        </g>
      </g>
    </g>
    <g id="Group_10377" data-name="Group 10377">
      <path id="Path_21712" data-name="Path 21712" d="M6383.976,2944.645l-5.268-2.592a26.746,26.746,0,0,1-2.151,9.894c-2.4,5.78-6.816,11.643-11.98,14.574l4.987,2.9c6.293-3.707,9.871-7.786,12.572-14.608C6383.107,2952.362,6384.277,2947.554,6383.976,2944.645Z" fill="#a8a5a3" fill-rule="evenodd"/>
      <path id="Path_21713" data-name="Path 21713" d="M6377.938,2878.615l.77,63.438,4.987,2.893-.358-63.155-.138-6.351C6381.5,2876.463,6379.742,2877.524,6377.938,2878.615Z" fill="#a8a5a3" fill-rule="evenodd"/>
      <path id="Path_21714" data-name="Path 21714" d="M6287.539,3010.746l1.532,1.089,3.615,1.68c53.663-30.594,23.4-13.213,76.879-44.094l-4.988-2.9C6311.109,2997.477,6341.046,2979.854,6287.539,3010.746Z" fill="#c9c7c5" fill-rule="evenodd"/>
      <path id="Path_21715" data-name="Path 21715" d="M6292.687,3013.515l-5.149-2.769c-3.126,1.789-7.758,2.3-11.1.416C6283.1,3015.937,6286.5,3017.168,6292.687,3013.515Z" fill="#bfbdbb" fill-rule="evenodd"/>
      <path id="Path_21716" data-name="Path 21716" d="M6275.359,3006.64l-5.533-3.3c.014,5.43,1.658,9.181,4.761,10.984l5.814,3.379C6277.3,3015.9,6275.373,3012.07,6275.359,3006.64Z" fill="#c9c7c5" fill-rule="evenodd"/>
      <path id="Path_21717" data-name="Path 21717" d="M6269.761,2941.682l.065,61.665,5.534,3.293.55-67.8C6273.73,2939.862,6271.664,2940.816,6269.761,2941.682Z" fill="#d6d4d2" fill-rule="evenodd"/>
      <path id="Path_21718" data-name="Path 21718" d="M6277.772,2937.965l.185,67.174c.028,9.292,6.627,13.056,14.729,8.377,53.417-30.836,23.465-13.254,76.879-44.1,5.1-2.94,9.566-8.633,12.051-14.73a26.09,26.09,0,0,0,2.079-9.745l-.772-63.6-.07-5.692,2.5-1.5.857,69.349c.026,10.567-7.437,23.494-16.634,28.808-53.457,30.867-23.424,13.329-76.886,44.2-9.519,5.5-17.3,1.08-17.327-9.86-.128-22.344-.742-44.756-.838-67.15C6275.575,2939,6276.662,2938.489,6277.772,2937.965Z" fill="#534b48" fill-rule="evenodd"/>
    </g>
    <g id="Group_10380" data-name="Group 10380">
      <g id="Group_10378" data-name="Group 10378">
        <path id="Path_21719" data-name="Path 21719" d="M6587.535,3061.937l-5.269-2.591a26.722,26.722,0,0,1-2.151,9.894c-2.4,5.78-6.817,11.643-11.98,14.573l4.988,2.9c6.292-3.707,9.869-7.786,12.571-14.608C6586.665,3069.655,6587.835,3064.847,6587.535,3061.937Z" fill="#a8a5a3" fill-rule="evenodd"/>
        <path id="Path_21720" data-name="Path 21720" d="M6581.5,2995.907l.771,63.439,4.987,2.892-.357-63.155-.14-6.35C6585.059,2993.755,6583.3,2994.816,6581.5,2995.907Z" fill="#a8a5a3" fill-rule="evenodd"/>
        <path id="Path_21721" data-name="Path 21721" d="M6491.1,3128.039l1.532,1.089,3.616,1.681c53.663-30.595,23.394-13.214,76.879-44.095l-4.988-2.9C6514.668,3114.769,6544.6,3097.146,6491.1,3128.039Z" fill="#c9c7c5" fill-rule="evenodd"/>
        <path id="Path_21722" data-name="Path 21722" d="M6496.244,3130.809l-5.148-2.77c-3.126,1.788-7.758,2.3-11.1.416C6486.658,3133.23,6490.057,3134.462,6496.244,3130.809Z" fill="#bfbdbb" fill-rule="evenodd"/>
        <path id="Path_21723" data-name="Path 21723" d="M6478.917,3123.932l-5.534-3.3c.015,5.43,1.659,9.181,4.762,10.984l5.814,3.378C6480.855,3133.189,6478.931,3129.362,6478.917,3123.932Z" fill="#c9c7c5" fill-rule="evenodd"/>
        <path id="Path_21724" data-name="Path 21724" d="M6473.319,3058.974l.064,61.666,5.534,3.292.55-67.8C6477.288,3057.155,6475.223,3058.109,6473.319,3058.974Z" fill="#d6d4d2" fill-rule="evenodd"/>
        <path id="Path_21725" data-name="Path 21725" d="M6481.329,3055.258l.186,67.173c.028,9.293,6.628,13.056,14.729,8.378,53.417-30.836,23.465-13.255,76.879-44.095,5.1-2.94,9.566-8.634,12.051-14.73a26.082,26.082,0,0,0,2.079-9.746l-.773-63.6-.068-5.693,2.5-1.5.857,69.348c.026,10.567-7.437,23.5-16.633,28.81-53.459,30.866-23.426,13.328-76.887,44.2-9.52,5.5-17.3,1.082-17.327-9.86-.129-22.344-.743-44.755-.838-67.149C6479.133,3056.292,6480.221,3055.782,6481.329,3055.258Z" fill="#534b48" fill-rule="evenodd"/>
      </g>
      <g id="Group_10379" data-name="Group 10379">
        <path id="Path_21726" data-name="Path 21726" d="M6377.778,2852.134l-7.241,4.212-7.27,4.227c-41.574,24.135-65.211,38.1-106.792,62.222a82.546,82.546,0,0,0-8.668,5.621c-1.527,1.3-2.065,3.571-2.065,5.5v1.894a7.892,7.892,0,0,0,3.463,6.915l14.353,8.279q64.834,37.554,129.779,74.929c42.11,24.309,18.073,9.758,60.183,34.067l3.463,2,14.338,8.274,7.241-4.205,14.568-8.462,7.313-4.257,7.314-4.257,7.341-4.258q22.078-12.84,44.164-25.668c14.657-8.523,11.415-6.814,26.078-15.325l7.27-4.225,7.241-4.216a5.191,5.191,0,0,0,.732-.5c.073-.063.145-.147.23-.209,1.45-1.369,1.662-2.213,2.285-4.017,0-.021.014-.031.014-.052a18.69,18.69,0,0,0,.23-4.013c.014-.221,0-.439,0-.653-.028-.225-.043-.447-.072-.665s-.072-.426-.115-.634a4.435,4.435,0,0,0-.143-.6c-.058-.188-.1-.375-.173-.558-.057-.176-.115-.349-.186-.518s-.158-.32-.231-.475-.157-.29-.229-.43-.158-.257-.23-.383-.159-.223-.23-.33-.158-.194-.23-.287-.157-.17-.229-.252a1.3,1.3,0,0,0-.2-.208,1.846,1.846,0,0,0-.188-.187,1.63,1.63,0,0,0-.186-.16,1.725,1.725,0,0,0-.187-.152c-.057-.047-.129-.095-.187-.139-.432-.3-.9-.55-1.355-.813l-13.428-7.752-14.353-8.291c-55.8-32.221-1.629-.581,22.946,13.928l-14.44-8.331-14.425-8.336q-43.374-25.008-86.721-50.065l-14.439-8.336-14.424-8.332-14.424-8.323-14.411-8.316-14.367-8.3Z" fill="#534b48" fill-rule="evenodd"/>
        <path id="Path_21727" data-name="Path 21727" d="M6377.76,2852.89v-.282a.07.07,0,0,1-.015-.051v-.358l-7.241,4.212-7.27,4.227c-41.573,24.135-65.21,38.1-106.793,62.222l-7.226,4.212a2.774,2.774,0,0,1,.388-.205c.1-.047.2-.094.3-.135.072-.03.158-.059.23-.084a1.594,1.594,0,0,1,.187-.058,1.385,1.385,0,0,1,.157-.043c.043-.013.1-.025.159-.037.042-.011.072-.02.114-.028l.13-.022c.043-.006.072-.012.115-.017s.086-.013.129-.016a.962.962,0,0,1,.115-.012l.1-.008.116-.007c.029,0,.071,0,.1,0h.086l126.117-73.456Z" fill="#9d908e" fill-rule="evenodd"/>
        <path id="Path_21728" data-name="Path 21728" d="M6435.228,2885.387l-14.41-8.316-14.368-8.3-28.705-16.569h0v.389a.52.52,0,0,1,.015.154v.2l219.673,126.147a4.8,4.8,0,0,1,2.385.648c.014,0,.029.01.029.016l-14.339-8.279-14.353-8.29c-55.8-32.222-1.627-.581,22.946,13.928l-14.439-8.331-14.425-8.337q-43.373-25.008-86.72-50.065l-14.44-8.335-14.424-8.332" fill="#9d908e" fill-rule="evenodd"/>
        <path id="Path_21729" data-name="Path 21729" d="M6245.71,2935.871a7.891,7.891,0,0,0,3.462,6.915c90.181,52.013,114.129,65.213,204.316,117.276l3.462,2,14.338,8.272c0,.011.015-1.809.029-4.884l-208.3-120.187Z" fill="#534b48" fill-rule="evenodd"/>
        <path id="Path_21730" data-name="Path 21730" d="M6471.317,3065.448c0,1.6-.029,3.2-.029,4.8h0v.083c46.406-26.946,74.9-43.69,121.289-70.657l7.241-4.215c2.329-1.32,3.492-4.349,3.492-6.858v-.042C6553.288,3017.63,6521.249,3036.407,6471.317,3065.448Z" fill="#534b48" fill-rule="evenodd"/>
        <path id="Path_21731" data-name="Path 21731" d="M6471.317,3063.555v1.893l131.993-76.887v-1.894l-9.982,3.72Z" fill="#534b48" fill-rule="evenodd"/>
        <path id="Path_21732" data-name="Path 21732" d="M6245.709,2933.978v1.893l225.607,129.577v-1.893l-207.239-120.238Z" fill="#534b48" fill-rule="evenodd"/>
        <path id="Path_21733" data-name="Path 21733" d="M6602.16,2982.136l-16.419,6.211-114.409,70v4.541c-.015.219-.015.449-.015.669l131.993-76.889A8.853,8.853,0,0,0,6602.16,2982.136Z" fill="#534b48" fill-rule="evenodd"/>
        <path id="Path_21734" data-name="Path 21734" d="M6247.089,2929.148a8.9,8.9,0,0,0-1.379,4.83l225.607,129.577c.015-.868.015-1.768.015-2.657v-2.96l-217.289-126.272Z" fill="#534b48" fill-rule="evenodd"/>
        <path id="Path_21735" data-name="Path 21735" d="M6471.332,3056.379v-3.838L6273.51,2936.473l-21.867-10.077a4.788,4.788,0,0,0-.991.109c-.115.024-.231.054-.345.088s-.2.061-.287.1a2.655,2.655,0,0,0-.274.11,2.5,2.5,0,0,0-.272.126,2.557,2.557,0,0,0-.273.149,2.8,2.8,0,0,0-.273.173c-.1.069-.216.142-.316.218s-.216.176-.316.27a4.638,4.638,0,0,0-.36.342c-.143.143-.272.293-.4.45a4.062,4.062,0,0,0-.446.62l224.243,128.79v-1.559Z" fill="#534b48" fill-rule="evenodd"/>
        <path id="Path_21736" data-name="Path 21736" d="M6471.332,3057.353v.992l130.828-76.209a5.627,5.627,0,0,0-4.712-3.049h-.015l-16.442,6.9-109.659,66.558v4.812Z" fill="#534b48" fill-rule="evenodd"/>
        <path id="Path_21737" data-name="Path 21737" d="M6377.552,2852.94c-47.025,27.325-79.093,46.133-126.117,73.456,94.292,54.435,125.4,71.712,219.689,126.145,47.008-27.322,79.078-46.13,126.1-73.454C6502.933,2924.651,6471.83,2907.375,6377.552,2852.94Z" fill="#ba6a21" fill-rule="evenodd"/>
      </g>
    </g>
    <path id="Path_21738" data-name="Path 21738" d="M6352.3,2951.616c3.207-1.31,8.247-2.825,9.865-5.027,3.512-4.778,7.848-11.147,10.707-11.456l10.944-1.177,8.248,10.06a7.42,7.42,0,0,1-4.929,1.182c-2.739-.321-8.217-4.255-8.785-3.553l-5.21,6.438,7.493-3.314c3.1-.512,4.661.692,4.925,1.829.234,1.008-.759,2.329-2.72,3.254a24.754,24.754,0,0,0-7.87,5.262c-2.695,2.472-5.879,2.8-11.325,3.475-.527.064-9.022,4.037-9.592,4.112Z" fill="#e8a476" fill-rule="evenodd"/>
    <path id="Path_21739" data-name="Path 21739" d="M6373.947,2922.314c-.393-.919-.855-1.3-2.278-.7s-.85,1.625-.457,2.545l6.28,22.267c2.47-1.109.628-1.207,2.687-.954C6380.1,2944.807,6374.131,2922.745,6373.947,2922.314Z" fill="#00263d" fill-rule="evenodd"/>
    <path id="Path_21740" data-name="Path 21740" d="M6316.878,2959.134,6358,2948.713c4.618,0,6.141,9.939,2.979,11.639l-40.276,18.055c-5.178.807-8.96-.167-10.7-2.279-2.076-2.514-1.488-6.562-.04-9.991C6311.282,2963,6313.279,2961.04,6316.878,2959.134Z" fill="#d2eefc" fill-rule="evenodd"/>
    <path id="Path_21741" data-name="Path 21741" d="M6362.348,2953.641c.642,2.766.258,5.834-1.373,6.711l-40.276,18.055c-5.178.807-8.685-.424-10.7-2.279Z" fill="#b2d9ed" fill-rule="evenodd"/>
    <path id="Path_21742" data-name="Path 21742" d="M6319.074,2909.138c13.666,8.415,1.57,54.512,9.751,66.68-6.22,1.88-17.47,3.1-19.738-.061a7.835,7.835,0,0,1-1.85-5.027c-.951-13.856-3.2-27.634-2.923-37.367C6304.624,2922.47,6307.637,2910.966,6319.074,2909.138Z" fill="#c3e6f7" fill-rule="evenodd"/>
    <path id="Path_21743" data-name="Path 21743" d="M6319.074,2909.138c13.666,8.415,1.57,54.512,9.751,66.68a72.436,72.436,0,0,1-12.9,1.852,8.62,8.62,0,0,1-2.553-.159c-2.443-13.278-9.691-35.03-8.867-47.3C6305.088,2921.477,6308.6,2911.086,6319.074,2909.138Z" fill="#b2d9ed" fill-rule="evenodd"/>
    <g id="Group_10387" data-name="Group 10387">
      <path id="Path_21744" data-name="Path 21744" d="M6318.076,2909.49c13.686,8.429-2.008,41.467,6.185,53.654-6.229,1.883-18.519,3.107-20.79-.062a7.838,7.838,0,0,1-1.853-5.034c-.343-5,.634-12.42,1.076-15.994C6304.12,2930.538,6302.711,2911.517,6318.076,2909.49Z" fill="#1abac6" fill-rule="evenodd"/>
      <path id="Path_21745" data-name="Path 21745" d="M6318.076,2909.49c13.686,8.429-2.008,41.467,6.185,53.654a48.783,48.783,0,0,1-15.435,1.809c-.7-6.825-3.907-21.132-4.119-23.038-.317-2.847-.682-5.646-1.262-8.435C6304.329,2922.884,6306.146,2911.064,6318.076,2909.49Z" fill="#169ca6" fill-rule="evenodd"/>
      <path id="Path_21746" data-name="Path 21746" d="M6316.088,2910a16.24,16.24,0,0,0-10.27,12.361c-3.621,16.784,7.962,39.864,9,58.427.561,9.987-4.578,26.654-3.955,43.736.668,18.361,34.924,36.293,51.722,25.485,1.684-1.082,6.6-25.243,6.572-25.315-2.926-9.09-8.261-21.132-8.069-29.9.493-22.516,10.947-41.195,8.61-52.529a20.775,20.775,0,0,0-7.586-11.664C6353.119,2923.377,6326.332,2905.762,6316.088,2910Z" fill="#1abac6" fill-rule="evenodd"/>
      <path id="Path_21747" data-name="Path 21747" d="M6358.074,3052.012c6.331-1.59,8.013-5.816,9.831-11.762,2.384-7.8,2.924-17.681-.172-24.4-.271-.588-.624-1.453-1.023-2.524-1.913-5.147-4.866-15.075-4.711-22.164.494-22.517,9.981-37.558,7.644-48.893a20.769,20.769,0,0,0-7.586-11.664,113.763,113.763,0,0,0-17.652-10.863l.191,2.389c5.774,3.589,7.941,5.58,12.616,10.519-14.589,13.846-6.459,48.1-4.409,63.793C6353.474,3001.587,6356.813,3028.833,6358.074,3052.012Z" fill="#169ca6" fill-rule="evenodd"/>
      <g id="Group_10381" data-name="Group 10381">
        <path id="Path_21748" data-name="Path 21748" d="M6356.722,2910.845c-1.646.815-10-.369-9.756.378.149,4.624,1.817,7,1.7,15.3-9.761,6.962-23.351-1.084-22.374-6.086-.078-3.406,1.625-12.889-.09-15.662-1.946-3.145-5.943-6.65-7.359-11.419-2.264-7.621-1.44-16.088,5.666-21.732,12.977-10.3,29.572-2.972,33.777,12.1.821,2.943-1.5,4.537-1.419,7.053.016.493.668,1.007,1.2,2.1C6358.8,2894.393,6358.74,2909.845,6356.722,2910.845Z" fill="#e8a476" fill-rule="evenodd"/>
        <path id="Path_21749" data-name="Path 21749" d="M6356.637,2910.759c-1.646.816-9.916-.283-9.671.464.149,4.624,1.817,7,1.7,15.3-5.783-8.446-8.22-13.092-21.7-17.762a8.616,8.616,0,0,0-.761-3.986c-1.946-3.145-5.943-6.65-7.359-11.419-2.264-7.621-1.44-16.088,5.666-21.732,12.977-10.3,29.572-2.972,33.777,12.1.821,2.943-1.5,4.537-1.419,7.053.016.493.668,1.007,1.2,2.1C6358.8,2894.393,6358.654,2909.76,6356.637,2910.759Z" fill="#db9669" fill-rule="evenodd"/>
        <path id="Path_21750" data-name="Path 21750" d="M6356.381,2910.845c-.873.468-4.481.16-7.167-.872a12.467,12.467,0,0,1-3.182-2.209c-1.113-.449-3.585-3.958.245-9.544,3.733-5.447-18.877,8.494-20.074,6.559-1.944-3.145-5.943-6.65-7.359-11.419-2.264-7.621-1.44-16.088,5.666-21.732,12.977-10.3,29.572-2.972,33.777,12.1.821,2.943-1.5,4.537-1.419,7.053.016.493.668,1.007,1.2,2.1C6358.8,2894.393,6358.364,2909.78,6356.381,2910.845Z" fill="#e8a476" fill-rule="evenodd"/>
        <path id="Path_21751" data-name="Path 21751" d="M6356.765,2910.781a7.509,7.509,0,0,1-3.389-.208,9.651,9.651,0,0,1-2.292-5.129c.156-4.964,2.662-8.99,2.651-11-.027-4.247-1.439-2.131.181-6.722,1.244-3.523-.389-4.058-1.106-7.08a4.786,4.786,0,0,0,2.922-2.937,25.064,25.064,0,0,1,2.555,6.025c.821,2.943-1.5,4.537-1.419,7.053.016.493.668,1.007,1.2,2.1C6358.8,2894.393,6358.7,2909.623,6356.765,2910.781Z" fill="#f1b287" fill-rule="evenodd"/>
        <path id="Path_21752" data-name="Path 21752" d="M6347.082,2898.384c-4.65-4.334-9.137,9.453-1.656,9.307C6342.507,2904.6,6344.725,2899.707,6347.082,2898.384Z" fill="#db9669" fill-rule="evenodd"/>
        <path id="Path_21753" data-name="Path 21753" d="M6347.059,2900.4c.7-1.928.11-2.629-.739-2.421-.932.23-2.254,1.568-2.943,3.565-1.111,3.222.482,7.293,3.593,5.7-2.677.155-2.426-3.072-1.624-5.062C6345.891,2900.831,6346.734,2899.873,6347.059,2900.4Z" fill="#f1b287" fill-rule="evenodd"/>
        <path id="Path_21754" data-name="Path 21754" d="M6345.829,2901.269c.749,1.394,1.008,2.222.767,2.7-.168.334-.684.713-1.528-.1A4.817,4.817,0,0,1,6345.829,2901.269Z" fill="#db9669" fill-rule="evenodd"/>
        <path id="Path_21755" data-name="Path 21755" d="M6326.609,2906.669c-2.159-4.531-5.989-7.327-7.765-13.309-2.264-7.62-1.44-16.088,5.666-21.732,10.2-8.1,22.631-5.3,29.529,3.581.369.573-3.537,2.409-2.243,5.273,1.848,4.852,1.811,7.027,1.065,8.093-2.892,4.125-2.945,4.712-2.788,10.993l-1.634,1.32c-.675-4.929-2.866-4.541-5-2.9-3.718,2.872-5.148,9.4-11.336,10.681A5.424,5.424,0,0,1,6326.609,2906.669Z" fill="#361d07" fill-rule="evenodd"/>
        <path id="Path_21756" data-name="Path 21756" d="M6350.01,2898.16c.494,3.077.7,5.025,2.04,6.57.509.587,1.843.785,3.17,1.039a18.737,18.737,0,0,1,.688-3.393,6.3,6.3,0,0,1,2.644-3.734,3.937,3.937,0,0,1-.123,2,4.9,4.9,0,0,0-1.018,2.323,10.007,10.007,0,0,0-.37,3.1c.328.032.6.089.832.122.119.017.129-.877.363-.858.108,2.551.144,5.965-.434,6.191-.74.291-5.068-.592-7.289-1.492-2.318-.938-1.636-1.448-1.853-4.184-.178-2.254-.172-4.81-.483-7.217Z" fill="#361d07" fill-rule="evenodd"/>
        <path id="Path_21757" data-name="Path 21757" d="M6351.258,2903.528a5.642,5.642,0,0,0,.792,1.2c.509.587,1.843.785,3.17,1.039a18.737,18.737,0,0,1,.688-3.393,6.3,6.3,0,0,1,2.644-3.734,3.937,3.937,0,0,1-.123,2,4.9,4.9,0,0,0-1.018,2.323,10.007,10.007,0,0,0-.37,3.1c.328.032.6.089.832.122.119.017.129-.877.363-.858.108,2.551.144,5.965-.434,6.191-.559.22-3.169-.231-5.368-.852a16.658,16.658,0,0,1-1.35-5.226A16.979,16.979,0,0,1,6351.258,2903.528Z" fill="#4f2b0c" fill-rule="evenodd"/>
        <path id="Path_21758" data-name="Path 21758" d="M6328.544,2888.478a20.823,20.823,0,0,0,1.651,8.651c.338-2.187.638-4.406,1.058-6.574.141-.728.3-1.445.48-2.158.512,3.238.884,6.511,1.289,9.765.734-3.459,1.54-6.945,2.129-10.426,1.3,1.988,1.663,6.133,2.155,8.687a70.91,70.91,0,0,0,1.568-9.594c1.391,1.411,1.782,5.155,2.167,7.21a74.525,74.525,0,0,0,1.375-8c.872,1.279,1.141,4.309,1.394,5.893a27.667,27.667,0,0,0,1.341-6.242c1.4,2.442,1.443,5.264,1.712,7.992.54-2.841,1.362-6.068,1.123-8.934a29.576,29.576,0,0,1,1.671,5.03c.145-2.178.342-4.386.32-6.567a11.338,11.338,0,0,1,2.533,5.564c1.027-2.18.538-6.482-.777-9.4l-.154-.343-.374.025q-3.3.212-6.61.418-2.18.135-4.357.267c-.707.042-1.5.119-2.192.119-.291-.011-.653-.073-.944-.111q-1.061-.138-2.12-.286-3.062-.422-6.124-.861c-3.087-.44-6.019-1.2-9.1-1.645-4.308,7.572-1.091,14.951.629,18.645a35.139,35.139,0,0,1-.161-7.3c.181,2.061,1.36,4.781,2.091,6.8a27.924,27.924,0,0,1,.483-6.857,13.533,13.533,0,0,0,2.11,8.226c-.165-3.039-.48-5.436.369-8.581a30.428,30.428,0,0,0,1.96,9.658A41,41,0,0,1,6328.544,2888.478Z" fill="#54321e" fill-rule="evenodd"/>
        <path id="Path_21759" data-name="Path 21759" d="M6318.7,2888.445c2.3-1.682,7.557-3.368,17.43-4.065a37.437,37.437,0,0,0,15.733-4.269c6.246-3.332,5.264-10.222,2.625-12.564-5.1-4.522-18.272-4.051-27.04.465C6321.044,2871.311,6317.5,2877.851,6318.7,2888.445Z" fill="#361d07" fill-rule="evenodd"/>
        <path id="Path_21760" data-name="Path 21760" d="M6318.7,2888.445c2.3-1.682,7.557-3.368,17.43-4.065a37.437,37.437,0,0,0,15.733-4.269c6.246-3.332,5.264-10.222,2.625-12.564a9.1,9.1,0,0,0-1.65-1.149c-1.593,11.882-7.5,8.684-19.212,12.8,1.711-1.645.889-1.332,2.43-2.3-3.73,1.343-6.573,1.107-10.783,3.835,1.331-1.224,1.669-1.96,2.514-2.6a13.21,13.21,0,0,0-8.235,5.687l-.339-5.6A56.4,56.4,0,0,0,6318.7,2888.445Z" fill="#241304" fill-rule="evenodd"/>
        <path id="Path_21761" data-name="Path 21761" d="M6355.147,2877.2c-1.926,2.413-10.2-3.166-21.773-1.037,2.479-7.646,3.912-9.269,7.389-11.507,4.531-2.916,12.164-1.725,14.558,2.293C6357.615,2870.8,6356.7,2875.254,6355.147,2877.2Z" fill="#4f2b0c" fill-rule="evenodd"/>
        <path id="Path_21762" data-name="Path 21762" d="M6338.913,2875c3.54-3.5,8.891-2.87,13.681-1.576-2.769-2.625-8.477-1.637-11.232-.214,3.72-3.455,6.19-3.322,10.869-2.727a10.157,10.157,0,0,0-10.336.7c3.353-3.959,4.769-3.659,9.676-3.367-3.417-1.829-8.543-1.185-10.635.778,2.52-2.949,4.479-3.594,9.143-3.591-4.009-1.22-7.11-1.1-10.421,2.323,2.592-4.575,8.095-4.6,11.706-3.171a8.8,8.8,0,0,1,5.314,7.6c.08,2.758-1.059,4.486-1.848,4.663C6351.081,2877.265,6349.195,2874.2,6338.913,2875Z" fill="#361d07" fill-rule="evenodd"/>
      </g>
      <path id="Path_21763" data-name="Path 21763" d="M6326.751,2910.547c-1.119-.159-2.075-.58-3.259-.846-2.671.945-3.136,7.439-2.131,9.758,2.147,4.954,8.13,8.875,16.744,10.443,9.807,1.786,21.654-.278,24.6,1.185.517.256-8.493-6.776-9.555-6.976C6343.433,2922.281,6325.018,2918.385,6326.751,2910.547Z" fill="#169ca6" fill-rule="evenodd"/>
      <path id="Path_21764" data-name="Path 21764" d="M6327.219,2910.357c-.257,5.052,13.315,8.709,21.191,5.81,2.093,1.065,4.131,5.751,4.174,7.962-9.463,2.257-23.942,1.115-27.56-6.288C6324.231,2916.22,6325.418,2912.374,6327.219,2910.357Z" fill="#1abac6" fill-rule="evenodd"/>
      <g id="Group_10386" data-name="Group 10386">
        <g id="Group_10382" data-name="Group 10382">
          <path id="Path_21765" data-name="Path 21765" d="M6301.1,2946.761c3.774,2.068,8.14,4.616,12.818,7.335a2.7,2.7,0,0,1,2.093-.272c-.036-.019-.174-.1-.335-.19q-1.951-1.136-3.915-2.248c-1.864-1.057-3.735-2.111-5.618-3.134q-1.61-.879-3.242-1.755c-3.025-1.614-6.135-3.229-9.247-4.663a25.2,25.2,0,0,0-3.351-1.338,2.55,2.55,0,0,0-1.445-.131,2.316,2.316,0,0,0-.892.455c.675-.379,3.337.917,5,1.745C6295.743,2943.944,6298.4,2945.254,6301.1,2946.761Z" fill="#444044" fill-rule="evenodd"/>
          <path id="Path_21766" data-name="Path 21766" d="M6325.559,3019.9c.174-17.474-7.223-38.912-11.761-52.061-1.087-3.16-2.028-5.887-2.641-7.933-.638-2.1,1.288-5,2.777-5.883-.427-.245-.854-.5-1.277-.741-5.529-3.193-11.407-6.573-17.171-9.524-1.962-.967-3.727-1.966-5.775-2.808-.732-.3-1.157-.4-1.542-.247a3.178,3.178,0,0,0-1.339,1.7,3.787,3.787,0,0,0,.277,2.783c1.278,4.067,2.758,8.122,4.128,12.17,2.273,6.751,5.042,15.445,7.06,24.173.731,3.362,1.36,6.505,1.867,9.894,1.046,7,1.616,14.369.125,21.154a53.249,53.249,0,0,1-3.651,11.091c-1.059,2.491-2.239,5.773-.821,8.036,1.195,1.907,4.513,4.013,5.9,4.971,5.582,3.863,11.864,7.639,17.7,11.07l2.113,1.237c-1.6-.933-2.025-2.9-1.954-4.606a15.76,15.76,0,0,1,1.645-5.646A49.241,49.241,0,0,0,6325.559,3019.9Z" fill="#2c282c" fill-rule="evenodd"/>
          <path id="Path_21767" data-name="Path 21767" d="M6295.33,3027.589a5.62,5.62,0,0,0,.485,4.112c1.195,1.907,4.513,4.013,5.9,4.971,5.582,3.863,11.864,7.639,17.7,11.07l2.113,1.237c-1.6-.933-2.025-2.9-1.954-4.606a9.817,9.817,0,0,1,.444-2.543Q6307.674,3034.711,6295.33,3027.589Z" fill="#2c282c" fill-rule="evenodd"/>
          <path id="Path_21768" data-name="Path 21768" d="M6311.108,2958.249a7.063,7.063,0,0,1,2.826-4.228c-.427-.245-.854-.5-1.277-.741-5.529-3.193-11.407-6.573-17.171-9.524-1.962-.967-3.727-1.966-5.775-2.808-.732-.3-1.157-.4-1.542-.247a3.178,3.178,0,0,0-1.339,1.7,2.738,2.738,0,0,0-.037,1.815l7.6,4.383,8.839,5.1Z" fill="#444044" fill-rule="evenodd"/>
          <path id="Path_21769" data-name="Path 21769" d="M6322.515,2957.609l-6.517-3.788a1.969,1.969,0,0,0-2.064.2l6.406,3.724A2.553,2.553,0,0,1,6322.515,2957.609Z" fill="#444044" fill-rule="evenodd"/>
          <path id="Path_21770" data-name="Path 21770" d="M6321.4,2971.731c-1.407-4.075-3.672-8.916-1.061-13.986l-6.406-3.724c-1.837,1-5.807,3.716-5.164,5.712.613,2.047,1.384,4.944,2.471,8.1,8.569,24.825,17.536,42.8,6.678,67.817-1.625,3.744-.078,11.172,3.607,13.325l6.406,3.722c-2.807-1.636-.9-5.308.205-8.412C6338.163,3016.19,6332.011,3002.459,6321.4,2971.731Z" fill="#444044" fill-rule="evenodd"/>
          <path id="Path_21771" data-name="Path 21771" d="M6315.613,3039.3c-.869,2.859-.3,6.206,5.913,9.675l6.406,3.722c-2.308-1.345-2.237-4.411-1.524-7.185Z" fill="#2c282c" fill-rule="evenodd"/>
          <path id="Path_21772" data-name="Path 21772" d="M6317.671,2962.039a4.079,4.079,0,0,1,.383-1.411,6.418,6.418,0,0,1,2.286-2.883l-6.406-3.724c-3.778.091-9.476.656-2.864,4.206l1,.576Z" fill="#444044" fill-rule="evenodd"/>
          <path id="Path_21773" data-name="Path 21773" d="M6347.567,2974.5a1.6,1.6,0,0,0-.091-.25c-.49-1.1-3.53-3.167-4.6-3.927-.815-.561-1.629-1.118-2.451-1.669-5.854-3.885-11.868-7.53-17.966-11.07a2.051,2.051,0,0,0-2.123.164q1.674.975,3.341,1.955c.064.036.122.072.187.108,2.724,1.655,5.485,3.246,8.2,4.92,2.784,1.743,13.025,8.085,13.874,9.482.5-.285,1.387-.376,1.589.308Z" fill="#444044" fill-rule="evenodd"/>
          <path id="Path_21774" data-name="Path 21774" d="M6362.071,3038.462c.055-1.08.089-2.346.072-3.8,0-.2,0-.391-.01-.586v-.173c-.027-1.491-.1-3.009-.226-4.546-.933-12.153-4.557-25.1-7.6-34.7,0-.01,0-.018,0-.027l-.019-.045c-.172-.546-.346-1.088-.514-1.61-1.5-4.8-3.223-9.934-5.155-15.444-.05-.145-.1-.286-.151-.427q-.245-.688-.49-1.391l-.405-1.219-.07-.035a1.431,1.431,0,0,1,.043.144c.532,1.769,1.323,4.124,2.264,6.829q1.842,5.571,3.492,10.756c4.009,12.744,6.983,23.645,8.2,33.465q.294,2.462.455,4.892c.008.141.017.287.022.427s.018.314.027.469q.069,1.425.1,2.795a58.434,58.434,0,0,1-.439,7.9c-.086.685-.184,1.346-.318,2.024a62.75,62.75,0,0,1-4.143,13.186l.013.013c.072-.145.14-.3.2-.423l.168-.381a46.019,46.019,0,0,0,3.854-12.485c.095-.594.186-1.194.266-1.79.018-.128.037-.265.059-.405.091-.658.16-1.307.222-1.968.014-.228.031-.474.045-.728C6362.057,3038.782,6362.05,3038.892,6362.071,3038.462Z" fill="#03868f" fill-rule="evenodd"/>
          <path id="Path_21775" data-name="Path 21775" d="M6361.852,3064.6l-.009,0a.024.024,0,0,0,.009-.018h0c-8.385,4.763-8.372-2.187-5.134-9.892,10.939-26.022-12.451-79.71-10.742-80.574,0-.325-5.752-4.37-6.4-4.8-6.045-4.057-16.991-10.269-19.241-11.576a5.535,5.535,0,0,0-2.695,6.142c.609,2.015,1.518,4.646,2.563,7.673,4.638,13.451,12.272,35.577,11.734,53.259a44.054,44.054,0,0,1-2.724,13.4c-.447,1.407-1.263,2.835-1.944,4.475-1.373,3.31-2.391,6.967-.083,9.423a3.5,3.5,0,0,0,.741.581q2.748,1.587,5.506,3.151c4.818,2.717,11.175,6.3,16.242,8.687a21.431,21.431,0,0,0,5.389,1.925,8.255,8.255,0,0,0,3.224-.256,12.636,12.636,0,0,0,3.068-1.314c.155-.081.305-.163.463-.249,0-.005,0-.009,0-.009l.014-.009a.018.018,0,0,0-.014.009.019.019,0,0,0,0-.014l.019-.005c-.009,0-.015.005-.019.005s.01-.009.01-.013Z" fill="#5a555a" fill-rule="evenodd"/>
          <path id="Path_21776" data-name="Path 21776" d="M6360.6,3065.253a11.9,11.9,0,0,1-3.508,1.16l-.091.014a4.306,4.306,0,0,1-2.195-.246c-1.747-.873-2-3.3-1.711-5.261l-11.129-6.424q-7.838-4.526-15.679-9.047c-.7,2.462-.779,4.885.9,6.671a3.5,3.5,0,0,0,.741.581q2.748,1.587,5.506,3.151c4.818,2.717,11.175,6.3,16.242,8.687a21.431,21.431,0,0,0,5.389,1.925,8.255,8.255,0,0,0,3.224-.256,12.183,12.183,0,0,0,2.362-.925Z" fill="#2c282c" fill-rule="evenodd"/>
          <path id="Path_21777" data-name="Path 21777" d="M6344.9,2977.758q-.225-.74-.447-1.479a2.444,2.444,0,0,1,1.527-2.154c0-.325-5.752-4.37-6.4-4.8-6.045-4.057-16.991-10.269-19.241-11.576a5.757,5.757,0,0,0-2.841,4.194l3.416,1.972,8.847,5.112,8.866,5.113Z" fill="#444044" fill-rule="evenodd"/>
          <path id="Path_21778" data-name="Path 21778" d="M6364.84,3059l-2.435,1.529c-.167.108-.339.217-.576.363-3.337,1.941-5.015,1.568-5.515.741-.464-.951.014-2.564.786-4.092a59.964,59.964,0,0,0,4.847-17.589c1.442-19.094-6.842-43.153-11.82-57.587-1.091-3.115-1.984-5.836-2.58-7.815a1.254,1.254,0,0,0-1.865-.509,2.915,2.915,0,0,0-1.247,3.354c.6,2.023,1.56,4.733,2.628,7.893,4.859,14.084,13.043,37.761,11.674,56.173a44.035,44.035,0,0,1-4.384,15.215c-1.76,3.555-1.912,6.484-.948,8.234,1.163,2.137,4.2,2.123,8.451-.317.232-.151.469-.3.7-.442l4.02-2.526Z" fill="#2c282c" fill-rule="evenodd"/>
        </g>
        <g id="Group_10385" data-name="Group 10385">
          <g id="Group_10383" data-name="Group 10383">
            <path id="Path_21779" data-name="Path 21779" d="M6408.756,3103.082l-2.565-1.486a13.735,13.735,0,0,1-1.106,5.086,15.82,15.82,0,0,1-6.159,7.493l2.564,1.491a13.426,13.426,0,0,0,3.938-3.5,18.252,18.252,0,0,0,2.39-4.129A12.48,12.48,0,0,0,6408.756,3103.082Z" fill="#a8a5a3" fill-rule="evenodd"/>
            <path id="Path_21780" data-name="Path 21780" d="M6398.926,3114.175l-41.2,23.851,2.515,1.453,41.244-23.813Z" fill="#c9c7c5" fill-rule="evenodd"/>
            <path id="Path_21781" data-name="Path 21781" d="M6408.1,3049l-2.564-1.491.657,54.084,2.564,1.486Z" fill="#a8a5a3" fill-rule="evenodd"/>
            <path id="Path_21782" data-name="Path 21782" d="M6408.515,3045.839a32.319,32.319,0,0,0-.433-3.732,26.463,26.463,0,0,0-5.371-12.426,19.04,19.04,0,0,0-5.46-4.774l-2.564-1.486c5.651,3.283,9.211,9.174,10.447,17.28a30.292,30.292,0,0,1,.391,3.646c.023.778.009,3.046.009,3.165L6408.1,3049A30.477,30.477,0,0,0,6408.515,3045.839Z" fill="#918e8c" fill-rule="evenodd"/>
            <path id="Path_21783" data-name="Path 21783" d="M6398.174,3023.344v0c-6.187-3.6-9.96-4.969-17.339-4.439-7.908.569-15.875,3.773-22.39,7.553q-1.911,1.1-3.82,2.354l2.564,1.492q1.909-1.255,3.82-2.36a70.5,70.5,0,0,1,7.7-3.828,48.809,48.809,0,0,1,13-3.5,31.262,31.262,0,0,1,8.931.149,22.354,22.354,0,0,1,6.695,2.125C6397.615,3023.034,6397.9,3023.18,6398.174,3023.344Z" fill="#a8a5a3" fill-rule="evenodd"/>
            <path id="Path_21784" data-name="Path 21784" d="M6409.39,3049.216c0-.181.05-3.632-.014-4.792-.06-1.063-.318-2.745-.546-4.045-1.572-9-6.01-15.258-12.993-18.2-9.129-3.855-21.917-1.681-34.828,5.769q-1.911,1.105-3.82,2.36l.1,1.423c1.241-.819,2.492-1.587,3.732-2.306,12.607-7.277,25.082-9.4,33.975-5.637,6.96,2.942,11.31,9.27,12.706,18.408a31.236,31.236,0,0,1,.391,3.647c.023.777.009,3.046.009,3.164l.658,54.079a13.447,13.447,0,0,1-1.069,5.011,15.819,15.819,0,0,1-6.2,7.573l-41.244,23.813,0,1.483,41.244-23.815c4.728-2.731,8.565-9.378,8.551-14.811Z" fill="#534b48" fill-rule="evenodd"/>
            <path id="Path_21785" data-name="Path 21785" d="M6357.189,3030.3l-2.564-1.491.1,1.428,2.564,1.486Z" fill="#918e8c" fill-rule="evenodd"/>
          </g>
          <g id="Group_10384" data-name="Group 10384">
            <path id="Path_21786" data-name="Path 21786" d="M6398.079,3025.7l-5.06-2.706a19.99,19.99,0,0,1,8.355,9.7l4.805,2.8A19.761,19.761,0,0,0,6398.079,3025.7Z" fill="#444044" fill-rule="evenodd"/>
            <path id="Path_21787" data-name="Path 21787" d="M6369.416,3019.7l-.294,1.535,3.42,1.834-.219,1.2,1.483.64.61-2.452Z" fill="#444044" fill-rule="evenodd"/>
            <path id="Path_21788" data-name="Path 21788" d="M6390.738,3021.044c2.922.391,5.9.873,8.459,2.384h0c-3.07-1.786-6.012-3.751-9.434-4.776a26.2,26.2,0,0,0-7.792-1.08,39.253,39.253,0,0,0-10.888,1.628c-.551.155-1.1.318-1.668.5l4.809,2.795A41.754,41.754,0,0,1,6390.738,3021.044Z" fill="#2c282c" fill-rule="evenodd"/>
            <path id="Path_21789" data-name="Path 21789" d="M6374.224,3022.491l-.418,2.41c15.353-4.9,27.455-.941,32.373,10.584l1.8-1.851C6402.825,3021.559,6390.205,3017.391,6374.224,3022.491Z" fill="#2c282c" fill-rule="evenodd"/>
          </g>
        </g>
      </g>
    </g>
    <g id="Group_10389" data-name="Group 10389">
      <path id="Path_21790" data-name="Path 21790" d="M6442.89,2958.807l-16.006-9.7q-8.089-4.9-16.29-9.869-10.656,6.218-21.273,12.4-10.589,6.175-21.143,12.325l16.555,9.6q8.178,4.746,16.266,9.44l20.883-12.064Q6432.358,2964.9,6442.89,2958.807Z" fill="#fff" fill-rule="evenodd"/>
      <path id="Path_21791" data-name="Path 21791" d="M6439.861,2958.869q-7.251-4.389-14.588-8.824l-14.816-8.963c-.554.324-1.109.647-1.658.966l14.827,8.954q7.334,4.428,14.6,8.814C6438.766,2959.5,6439.313,2959.186,6439.861,2958.869Z" fill="#ebe8e8" fill-rule="evenodd"/>
      <path id="Path_21792" data-name="Path 21792" d="M6431.074,2963.947q-7.277-4.363-14.637-8.774-7.394-4.433-14.868-8.912,1.352-.786,2.713-1.582l14.853,8.928q7.346,4.416,14.622,8.79Z" fill="#ebe8e8" fill-rule="evenodd"/>
      <path id="Path_21793" data-name="Path 21793" d="M6418.8,2970.954q-3.256-1.952-6.53-3.91l-6.572-3.938c-.49.284-.976.568-1.461.848l6.575,3.934q3.275,1.959,6.533,3.907C6417.826,2971.516,6418.309,2971.235,6418.8,2970.954Z" fill="#ebe8e8" fill-rule="evenodd"/>
      <path id="Path_21794" data-name="Path 21794" d="M6408.171,2977.1q-3.267-1.938-6.556-3.884l-6.6-3.91,8.4-4.869q3.3,1.971,6.577,3.932l6.536,3.9Z" fill="#ebe8e8" fill-rule="evenodd"/>
      <g id="Group_10388" data-name="Group 10388">
        <path id="Path_21795" data-name="Path 21795" d="M6402.1,2961.677l-6.673-3.947-6.717-3.974-1.376.8q3.369,1.989,6.719,3.97l6.677,3.944C6401.185,2962.209,6401.639,2961.944,6402.1,2961.677Z" fill="#ebe8e8" fill-rule="evenodd"/>
        <path id="Path_21796" data-name="Path 21796" d="M6392.118,2967.474q-3.341-1.958-6.7-3.922l-6.742-3.949q3.94-2.292,7.885-4.594,3.371,1.987,6.722,3.968t6.679,3.941Q6396.033,2965.2,6392.118,2967.474Z" fill="#ebe8e8" fill-rule="evenodd"/>
      </g>
      <path id="Path_21797" data-name="Path 21797" d="M6405.639,2978.652q-7.348-4.293-14.782-8.631-7.466-4.359-15.013-8.767c.515-.3,1.034-.6,1.554-.906q7.543,4.41,15,8.775,7.422,4.341,14.772,8.64C6406.662,2978.061,6406.148,2978.356,6405.639,2978.652Z" fill="#ebe8e8" fill-rule="evenodd"/>
      <path id="Path_21798" data-name="Path 21798" d="M6401.483,2981.056q-7.359-4.282-14.8-8.608-7.477-4.347-15.038-8.744c1-.585,2.008-1.171,3.017-1.758q7.553,4.4,15.021,8.76,7.429,4.332,14.788,8.625Q6402.971,2980.195,6401.483,2981.056Z" fill="#ebe8e8" fill-rule="evenodd"/>
      <path id="Path_21799" data-name="Path 21799" d="M6434.85,2961.764q-7.265-4.375-14.616-8.793-7.381-4.44-14.845-8.934,1.059-.62,2.12-1.235,7.458,4.5,14.834,8.945,7.338,4.426,14.6,8.808C6436.247,2960.957,6435.549,2961.362,6434.85,2961.764Z" fill="#ebe8e8" fill-rule="evenodd"/>
      <path id="Path_21800" data-name="Path 21800" d="M6419.708,2970.539q-7.275-4.364-14.637-8.774-7.393-4.431-14.868-8.913,1.353-.784,2.714-1.581,7.469,4.488,14.852,8.928,7.347,4.416,14.623,8.789Q6421.048,2969.767,6419.708,2970.539Z" fill="#ebe8e8" fill-rule="evenodd"/>
      <path id="Path_21801" data-name="Path 21801" d="M6423.4,2968.323q-7.277-4.365-14.637-8.775l-14.868-8.912q1.353-.786,2.713-1.581,7.47,4.486,14.853,8.928,7.345,4.416,14.622,8.789Q6424.741,2967.549,6423.4,2968.323Z" fill="#ebe8e8" fill-rule="evenodd"/>
      <path id="Path_21802" data-name="Path 21802" d="M6427.916,2965.525l-14.782-8.632q-7.465-4.358-15.014-8.766c.515-.3,1.035-.6,1.554-.907q7.547,4.411,15.006,8.775l14.772,8.64C6428.938,2964.934,6428.425,2965.229,6427.916,2965.525Z" fill="#ebe8e8" fill-rule="evenodd"/>
    </g>
    <g id="Group_10391" data-name="Group 10391">
      <path id="Path_21803" data-name="Path 21803" d="M6420.669,2976.205c4.268-.231,13.822-1.593,14.526-3.476l-.432-2.254c-.371-.968-4.188-2.393-8.246-3.643a65.176,65.176,0,0,0-8.38-1.89c-4.118-.826-7.1-.144-9.079,2.873-2.17,3.309-2.981,3.451-8.186,6.044l1.039,7.148c7.018,3.048,11.922,2.372,14.139-2.63C6416.6,2977.132,6417.836,2976.359,6420.669,2976.205Z" fill="#e8a476" fill-rule="evenodd"/>
      <path id="Path_21804" data-name="Path 21804" d="M6370.228,2973.958l32.834-5.561c7,1.491,5.178,13.774.944,15.425l-32.076,7.58c-4.769.4-9.346,1.408-11.73-4.3-1.176-2.814.309-6.24,2.383-8.876C6364.483,2975.817,6366.673,2974.639,6370.228,2973.958Z" fill="#1abac6" fill-rule="evenodd"/>
      <g id="Group_10390" data-name="Group 10390">
        <path id="Path_21805" data-name="Path 21805" d="M6365.768,2934.838c5.832,4.056,8.251,21.684,9.954,38.161.056.535-6.848,17.868-9.312,18.408-2.389.523-6.4.321-6.952-2.822-1.394-7.985-5.98-26.251-6.874-33.849-.987-8.382-1.661-15.351,7.049-19.281C6360.994,2934.841,6364.4,2933.886,6365.768,2934.838Z" fill="#1abac6" fill-rule="evenodd"/>
      </g>
      <path id="Path_21806" data-name="Path 21806" d="M6407.756,2975.435c.074,3.666-1.374,7.584-3.75,8.387l-32.516,7.684c-4.765.493-9.808,2.358-12.049-3a5.623,5.623,0,0,1-.41-2.425C6363.993,2990.589,6394.531,2981.1,6407.756,2975.435Z" fill="#169ca6" fill-rule="evenodd"/>
    </g>
  </g>
</svg>
