<svg xmlns="http://www.w3.org/2000/svg" xmlns:xlink="http://www.w3.org/1999/xlink" viewBox="0 0 216.09 154.74" width="200" height="160"><defs><style>.cls-1{fill:none;}.cls-2{opacity:0.1;}.cls-3{clip-path:url(#clip-path);}.cls-4{fill:#c5c5c5;}.cls-5{fill:#999;}.cls-6{fill:#dcdcdc;}.cls-7{fill:#a6a6a6;}.cls-8{fill:#e0e0e0;}.cls-9{fill:#c4c4c4;}.cls-10{clip-path:url(#clip-path-2);}.cls-11{fill:#fff;}.cls-12{fill:#fe2a0d;}.cls-13{clip-path:url(#clip-path-3);}.cls-14{fill:#707070;}.cls-15{clip-path:url(#clip-path-4);}</style><clipPath id="clip-path" transform="translate(-347.79 -240.6)"><rect class="cls-1" x="400.48" y="287.51" width="163.39" height="101.92"/></clipPath><clipPath id="clip-path-2" transform="translate(-347.79 -240.6)"><polygon class="cls-1" points="407.63 282.34 506 340.57 511.47 312.02 412.92 255.12 407.63 282.34"/></clipPath><clipPath id="clip-path-3" transform="translate(-347.79 -240.6)"><rect class="cls-1" width="1440" height="768"/></clipPath><clipPath id="clip-path-4" transform="translate(-347.79 -240.6)"><polygon class="cls-1" points="400.48 316.99 498.86 375.22 504.33 346.67 405.78 289.78 400.48 316.99"/></clipPath></defs><g id="Слой_2" data-name="Слой 2"><g id="Layer_1" data-name="Layer 1"><g class="cls-2"><g class="cls-3"><polygon points="149.13 148.83 216.09 119.84 81.07 46.91 52.7 93.72 146.25 148.83 149.13 148.83"/></g></g><path class="cls-4" d="M535.8,346.58l-1.6-5.76-11.79-42.17L519.52,297l-7.61,4.39L500.4,357l-1.57,7.59L494,387.76l2.89,1.67,6-3.47,4.8-23.18,20-11.53,4.11,14.7,2.88,1.67,6-3.47Zm-18.2-31.46,7.69,27.5-15.2,8.77Z" transform="translate(-347.79 -240.6)"/><polygon class="cls-5" points="182 109.45 179.11 107.77 184.02 125.34 186.91 127.02 182 109.45"/><polygon class="cls-6" points="177.5 102.02 158.63 112.91 161.52 114.58 180.38 103.69 177.5 102.02"/><polygon class="cls-5" points="170.84 69.54 167.96 67.87 177.5 102.02 180.38 103.69 170.84 69.54"/><polygon class="cls-6" points="171.74 56.37 164.12 60.76 167.01 62.44 174.62 58.04 171.74 56.37"/><polygon class="cls-7" points="164.12 60.76 152.61 116.39 151.04 123.98 146.25 147.15 149.13 148.83 153.93 125.66 155.5 118.06 167.01 62.44 164.12 60.76"/><path class="cls-4" d="M535.81,346.58l-1.61-5.76-11.79-42.17L514.79,303l-11.51,55.63-1.57,7.59-4.79,23.17,6-3.47,4.8-23.18,22-12.73,4.91,17.57,6-3.47Zm-26.5,8.61,9.32-45,9.54,34.15Z" transform="translate(-347.79 -240.6)"/><path class="cls-4" d="M439.37,291.46l-1.61-5.75L426,243.54l-2.89-1.68-7.62,4.4L404,301.88l-1.57,7.59-4.79,23.18,2.88,1.67,6-3.47,4.79-23.18,20-11.53,4.1,14.7,2.89,1.67,6-3.47ZM421.17,260l7.68,27.5-15.19,8.77Z" transform="translate(-347.79 -240.6)"/><polygon class="cls-5" points="85.56 54.34 82.68 52.66 87.59 70.23 90.47 71.91 85.56 54.34"/><polygon class="cls-6" points="81.07 46.91 62.2 57.8 65.09 59.47 83.95 48.58 81.07 46.91"/><polygon class="cls-5" points="74.41 14.43 71.52 12.76 81.07 46.91 83.95 48.58 74.41 14.43"/><polygon class="cls-6" points="75.3 1.25 67.69 5.65 70.57 7.33 78.19 2.93 75.3 1.25"/><polygon class="cls-7" points="67.69 5.65 56.18 61.28 54.61 68.87 49.81 92.04 52.7 93.72 57.49 70.55 59.06 62.95 70.57 7.33 67.69 5.65"/><path class="cls-4" d="M439.37,291.47l-1.61-5.76L426,243.54l-7.61,4.39-11.51,55.63-1.57,7.59-4.8,23.17,6-3.47,4.79-23.18,22.05-12.73,4.91,17.57,6-3.47Zm-26.5,8.61,9.32-45,9.55,34.15Z" transform="translate(-347.79 -240.6)"/><polygon class="cls-6" points="67.69 5.65 167.01 62.44 174.62 58.04 75.3 1.25 67.69 5.65"/><polygon class="cls-7" points="70.57 7.33 167.01 62.44 166.66 64.14 70.1 9.63 70.57 7.33"/><polygon class="cls-8" points="59.84 41.74 65.14 14.52 163.69 71.42 158.21 99.96 59.84 41.74"/><polygon class="cls-9" points="158.21 99.96 159.6 99.08 164.93 70.69 163.71 71.41 158.21 99.96"/><g class="cls-10"><polygon class="cls-11" points="15.56 56.92 7.15 52.06 97.32 0 105.74 4.86 15.56 56.92"/><polygon class="cls-11" points="32.4 66.64 23.98 61.78 114.16 9.72 122.57 14.58 32.4 66.64"/><polygon class="cls-11" points="49.23 76.36 40.81 71.5 130.99 19.44 139.41 24.3 49.23 76.36"/><polygon class="cls-11" points="66.06 86.08 57.64 81.22 147.82 29.16 156.24 34.01 66.06 86.08"/><polygon class="cls-11" points="82.89 95.8 74.48 90.94 164.66 38.87 173.07 43.73 82.89 95.8"/><polygon class="cls-11" points="99.73 105.51 91.31 100.66 181.49 48.59 189.9 53.45 99.73 105.51"/><polygon class="cls-11" points="116.56 115.23 108.14 110.37 198.32 58.31 206.74 63.17 116.56 115.23"/><polygon class="cls-12" points="23.98 61.78 15.56 56.92 105.74 4.86 114.16 9.72 23.98 61.78"/><polygon class="cls-12" points="40.81 71.5 32.4 66.64 122.57 14.58 130.99 19.44 40.81 71.5"/><polygon class="cls-12" points="57.65 81.22 49.23 76.36 139.41 24.3 147.82 29.15 57.65 81.22"/><polygon class="cls-12" points="74.48 90.94 66.06 86.08 156.24 34.01 164.66 38.87 74.48 90.94"/><polygon class="cls-12" points="91.31 100.66 82.89 95.8 173.07 43.73 181.49 48.59 91.31 100.66"/><polygon class="cls-12" points="108.14 110.37 99.73 105.51 189.91 53.45 198.32 58.31 108.14 110.37"/><polygon class="cls-12" points="124.98 120.09 116.56 115.23 206.74 63.17 215.15 68.03 124.98 120.09"/></g><g class="cls-13"><path class="cls-14" d="M510.18,314.66c0,.57-.4.8-.89.51a2,2,0,0,1-.9-1.55c0-.57.4-.8.9-.51a2,2,0,0,1,.89,1.55" transform="translate(-347.79 -240.6)"/><path class="cls-14" d="M505.72,337.73c0,.57-.4.8-.9.51a2,2,0,0,1-.89-1.55c0-.57.4-.8.89-.51a2,2,0,0,1,.9,1.55" transform="translate(-347.79 -240.6)"/><path class="cls-14" d="M415.26,259c0,.57-.4.8-.9.52a2,2,0,0,1-.89-1.55c0-.58.4-.81.89-.52a2,2,0,0,1,.9,1.55" transform="translate(-347.79 -240.6)"/><path class="cls-14" d="M410.79,282.1c0,.57-.4.8-.89.52a2,2,0,0,1-.9-1.55c0-.57.4-.81.9-.52a2,2,0,0,1,.89,1.55" transform="translate(-347.79 -240.6)"/><polygon class="cls-8" points="52.7 76.39 57.99 49.17 156.54 106.07 151.07 134.62 52.7 76.39"/><polygon class="cls-9" points="151.07 134.62 152.46 133.73 157.79 105.34 156.56 106.06 151.07 134.62"/><polygon class="cls-11" points="57.99 49.17 156.54 106.07 157.79 105.34 59.44 48.33 57.99 49.17"/></g><g class="cls-15"><polygon class="cls-11" points="8.42 91.58 0 86.72 90.18 34.65 98.59 39.51 8.42 91.58"/><polygon class="cls-11" points="25.25 101.29 16.83 96.44 107.01 44.37 115.43 49.23 25.25 101.29"/><polygon class="cls-11" points="42.08 111.01 33.67 106.15 123.84 54.09 132.26 58.95 42.08 111.01"/><polygon class="cls-11" points="58.92 120.73 50.5 115.87 140.68 63.81 149.09 68.67 58.92 120.73"/><polygon class="cls-11" points="75.75 130.45 67.33 125.59 157.51 73.53 165.93 78.38 75.75 130.45"/><polygon class="cls-11" points="92.58 140.17 84.17 135.31 174.34 83.24 182.76 88.1 92.58 140.17"/><polygon class="cls-11" points="109.41 149.88 101 145.03 191.18 92.96 199.59 97.82 109.41 149.88"/><polygon class="cls-12" points="16.83 96.43 8.42 91.58 98.59 39.51 107.01 44.37 16.83 96.43"/><polygon class="cls-12" points="33.67 106.15 25.25 101.29 115.43 49.23 123.84 54.09 33.67 106.15"/><polygon class="cls-12" points="50.5 115.87 42.08 111.01 132.26 58.95 140.68 63.81 50.5 115.87"/><polygon class="cls-12" points="68.04 126.58 59.51 121.93 148.39 67.68 156.92 72.33 68.04 126.58"/><polygon class="cls-12" points="84.17 135.31 75.75 130.45 165.93 78.38 174.34 83.24 84.17 135.31"/><polygon class="cls-12" points="101 145.03 92.58 140.17 182.76 88.1 191.18 92.96 101 145.03"/><polygon class="cls-12" points="117.83 154.74 109.41 149.88 199.59 97.82 208.01 102.68 117.83 154.74"/></g></g></g></svg>
