<svg xmlns="http://www.w3.org/2000/svg" width="169.31" height="306.004" viewBox="0 0 169.31 306.004"><g data-name="Group 10015"><path data-name="Path 14256" d="M106.614 279.541l-56.528-32.194c-6.163-2.816-14.983-5.057-21.262-1.79-5.72 2.978-15.144 9.071-19.311 11.447-3.165 1.8-14.152 8.387-7.309 12.109 20.131 10.946 40.053 23.257 60.494 34.376 3.866 2.1 9.521 2.864 15.459 2.37a40.915 40.915 0 0 0 16.742-4.986q5.1-2.964 10.024-5.834c4.434-2.582 6.785-5.635 7.018-8.458.228-2.757-1.546-5.313-5.327-7.04z" fill="#231f20" fill-rule="evenodd" opacity=".1" style="mix-blend-mode:multiply;isolation:isolate"/><g data-name="Group 6959"><g data-name="Group 6939" fill-rule="evenodd"><path data-name="Path 14258" d="M113.714 58.967l-4.319 16.776-7.248 31.436-1.026 20.168.4 9.691 4.333 8.429-.314 1.654-4.492 4.018-30.017 16.7-17.018 10.556-1.891 2.838.157 1.5.71 1.5 24.739 13 23.32 15.206 2.954.55 1.221.041 4.728-3.664 46.995-26.788 3.308-7.248.157-2.364-4.725-7.405-.947-9.612 1.419-14.654 5.042-26.314 5.829-22.986c1.926-7.589 2.13-6.607-4.017-11.6l-7.957-4.806-23.046-13.434-10.809-6.012c-5.183-3.007-6.105-2.544-7.486 2.824z" fill="#53595c"/><g data-name="Group 6936"><path data-name="Path 14259" d="M106.729 221.566l-38.119 22.01.7.5 1.659.773 37.063-21.131 1.057-.875z" fill="#c9c7c5"/><path data-name="Path 14260" d="M70.971 244.847l-2.361-1.271a5.458 5.458 0 0 1-5.094.19c3.056 2.194 4.617 2.756 7.455 1.081z" fill="#bfbdbb"/><path data-name="Path 14261" d="M63.019 241.69l-2.54-1.515c.006 2.49.761 4.213 2.185 5.04l2.668 1.55c-1.424-.826-2.306-2.582-2.313-5.075z" fill="#c9c7c5"/><path data-name="Path 14262" d="M72.179 154.06c.052-.083.084-.166.135-.25a70.5 70.5 0 0 1 12.663-18.044c.1-.108.226-.215.33-.321a63.679 63.679 0 0 1 12.69-9.9 57.793 57.793 0 0 1 11.975-5.651l.106-.219-2.073-1.151-.229.074a61.211 61.211 0 0 0-11.559 5.2c-12.135 6.979-21.189 17.663-27.06 30.205l-.523 1.143a103.712 103.712 0 0 0-7.908 30.622 72.232 72.232 0 0 0-.3 8.533l.048 45.882 2.54 1.511.392-48.532c.118-13.782 3.115-27.567 8.773-39.102z" fill="#d6d4d2"/><path data-name="Path 14263" d="M80.079 140.36a62.823 62.823 0 0 1 18.016-15.566 55.093 55.093 0 0 1 11.987-5.121l.077 1.928a60.472 60.472 0 0 0-11.536 5.147 61.33 61.33 0 0 0-17.456 15.114c-7.483 9.419-12.625 21.29-15.355 35.391a95.485 95.485 0 0 0-1.72 19.879l.122 43.869c.012 4.266 3.042 5.992 6.76 3.846l38.119-22.006v1.365l-38.119 22.009c-4.369 2.526-7.939.5-7.952-4.525-.085-14.749-.189-29.556-.266-44.32a98.536 98.536 0 0 1 1.783-20.386c2.75-14.469 7.837-26.905 15.543-36.623z" fill="#534b48"/><path data-name="Path 14264" d="M99.176 124.878c.547-.323 1.462-.513 2-.8l-.059 2.406c-.515.274-1.023.56-1.552.87-10.369 5.99-23.47 17.77-30.225 40.5l-1.907.191c4.833-23.727 20.725-36.805 31.746-43.165z" fill="#53595c"/><path data-name="Path 14265" d="M87.369 134.132a68.161 68.161 0 0 0-10.672 13.1 84.314 84.314 0 0 0-9.267 20.808l-4.1-2.382a81.572 81.572 0 0 1 11.388-23.976 68.1 68.1 0 0 1 8.545-9.935 64.371 64.371 0 0 1 13.683-9.982 1.018 1.018 0 0 0 .129-.072l4.1 2.384a63.517 63.517 0 0 0-13.8 10.052z" fill="#6a7378"/></g><g data-name="Group 6937"><path data-name="Path 14266" d="M162.885 247.252a6.067 6.067 0 0 1-3.151 4.421l-.3.8.291.575.136-.075a8.139 8.139 0 0 0 1.889-1.559 5.061 5.061 0 0 0 .85-1.378c.013-.026.02-.05.032-.076s.012-.042.019-.066c.03-.08.062-.18.092-.288a4.308 4.308 0 0 0 .14-1.225z" fill="#665c59"/><path data-name="Path 14267" d="M157.305 244.139v1.37a4.7 4.7 0 0 1 1.907 1.855 2.767 2.767 0 0 1 .316 1.25v-1.37a3.762 3.762 0 0 0-2.223-3.105z" fill="#d6d4d2"/><path data-name="Path 14268" d="M114.76 222.731a10.891 10.891 0 0 1 5.149 1.268l.491-.371-.491-1a10.907 10.907 0 0 0-5.134-1.367 11.058 11.058 0 0 0-5.494 1.367v1.37c.226-.129.458-.246.7-.357a11.424 11.424 0 0 1 4.779-.91z" fill="#a8a5a3"/><path data-name="Path 14269" d="M157.305 244.139v1.37l-37.4-21.51v-1.37z" fill="#b5b3b1"/><path data-name="Path 14270" d="M159.676 242.76l-37.4-21.508a16.963 16.963 0 0 0-15.378 0L83.942 234.72l2.289 1.3 23.046-13.393a11.73 11.73 0 0 1 10.628 0l37.4 21.51c2.944 1.7 2.964 4.463.046 6.161l-23.046 13.39 2.377 1.379 23.052-13.4c4.221-2.451 4.202-6.447-.058-8.907z" fill="#c9c7c5"/><path data-name="Path 14271" d="M136.681 265.069v1.37l23.046-13.4.007-1.37z" fill="#534b48"/><path data-name="Path 14272" d="M114.76 222.731l.015-1.469a11.058 11.058 0 0 0-5.494 1.367l-.276.861.276.509c.226-.129.458-.246.7-.357a11.424 11.424 0 0 1 4.779-.911z" fill="#665c59"/><path data-name="Path 14273" d="M86.235 236.023l-.007 1.37 23.053-13.394v-1.37z" fill="#534b48"/></g><g data-name="Group 6938"><path data-name="Path 14274" d="M108.706 148.16a19.7 19.7 0 0 1-1.7-1.107c-1.07-.786-1.707-1.483-1.7-1.88a1.505 1.505 0 0 1-.2.938c-.025.043.09.185.119.213a13.092 13.092 0 0 0 3.407 2.249.753.753 0 0 0 .074-.413z" fill="#53595c"/><path data-name="Path 14275" d="M108.629 148.576a34.834 34.834 0 0 1-3.205-2.094c-.174-.144-.324-.276-.324-.363a.417.417 0 0 0-.022.057c-.79 1.925-2.923 3.578-4.776 4.677.428-.249 1.606.169 1.992.313a20.8 20.8 0 0 1 2.332 1.144 14.09 14.09 0 0 0 2.449-1.768 5.632 5.632 0 0 0 1.554-1.966z" fill="#53595c"/><path data-name="Path 14276" d="M153.128 173.976l-44.422-25.816a1.124 1.124 0 0 1-.077.415l44.423 25.815a.832.832 0 0 0 .076-.414z" fill="#53595c"/><path data-name="Path 14277" d="M153.052 174.391l-44.423-25.815a6.181 6.181 0 0 1-1.623 1.926 13.329 13.329 0 0 1-2.38 1.808l44.422 25.816a14 14 0 0 0 2.449-1.77 4.606 4.606 0 0 0 1.555-1.965z" fill="#5f676b"/><path data-name="Path 14278" d="M158.768 175.896a4.9 4.9 0 0 1-2.224-.318 18.797 18.797 0 0 1-1.245-.5 22.294 22.294 0 0 1-2.171-1.1 1.8 1.8 0 0 0-.076.415c.474.287.963.56 1.453.824.224.121 1.219.676 2.066 1.089a11.881 11.881 0 0 0 1.952.761 1.757 1.757 0 0 0 .245-1.171z" fill="#53595c"/><path data-name="Path 14279" d="M156.825 176.402a40.652 40.652 0 0 1-1.306-.65 68.8 68.8 0 0 1-2.467-1.361 5.047 5.047 0 0 1-.742 1.131 1.376 1.376 0 0 1-.09.1 6.929 6.929 0 0 1-.342.366c-.116.12-.239.24-.381.365a14 14 0 0 1-2.449 1.77c.947.679 4.239 2.9 4.4 3.979a16.274 16.274 0 0 0 2.835-2.043 10.168 10.168 0 0 0 1.7-1.949 5.424 5.424 0 0 0 .549-1.048 8.19 8.19 0 0 1-1.707-.66z" fill="#53595c"/><path data-name="Path 14280" d="M100.36 150.828l.019-.01a.287.287 0 0 0-.063.028c-.459.238-1.064.557-1.509.8l-1.489.781c-7.57 4.046-15.168 8-22.62 12.271-1.581.905-3.152 1.829-4.725 2.744-6.223 3.615-12.143 7.263-16.747 10.513a5.067 5.067 0 0 0-2.034 1.964 4.616 4.616 0 0 0-.4 1.414 3.009 3.009 0 0 0 .745 2.09 11.275 11.275 0 0 0 2.651 2.309c.113.074.269.169.381.243l.383.228c-1.689-.982-.328-4.295 1-5.588a4.856 4.856 0 0 1 .722-.6c7.943-5.271 14.674-9.421 21.273-13.231 8.357-4.828 16.5-9.1 26.686-14.468-.972-.623-3.505-1.846-4.273-1.488z" fill="#5f676b"/><path data-name="Path 14281" d="M52.395 178.528a3.554 3.554 0 0 0-1.208 1.388 4.616 4.616 0 0 0-.4 1.414 3.009 3.009 0 0 0 .745 2.09 11.275 11.275 0 0 0 2.651 2.309c.113.074.269.169.381.243l.383.228c-1.689-.982-.328-4.295 1-5.588l.013-.013z" fill="#53595c"/><path data-name="Path 14282" d="M120.624 55.26c-.168-.1-.338-.19-.507-.279-.448-.235-.9-.445-1.378-.65a10.058 10.058 0 0 0-1.731-.553 5.237 5.237 0 0 0-1.233-.119 2.788 2.788 0 0 0-1.287.353c.872-.272 3.229.845 4.3 1.479a2.407 2.407 0 0 1 1.391-.341 1.362 1.362 0 0 1 .443.112c.093.045.084.045.002-.002z" fill="#5f676b"/><path data-name="Path 14283" d="M118.785 55.491c-.636-.371-3.46-1.944-4.288-1.48-2.017 1.129-2.615 6.345-3.122 8.454q-.68 2.828-1.368 5.654c-2.6 10.775-5.1 21.4-7.146 32.31-.078.409-.18.954-.252 1.363-.631 3.5-1.219 7.014-1.707 10.544-.264 1.91-.532 4.125-.712 6.035-.2 2.1-.373 4.209-.469 6.321a51.106 51.106 0 0 0-.045 5.261 24.127 24.127 0 0 0 2.436 10.283 19.216 19.216 0 0 0 1.912 3.2 10.723 10.723 0 0 0 .93 1.062 1.131 1.131 0 0 1 .349.686c0 .579 1.354 1.791 3.4 2.982a1.384 1.384 0 0 0-.115-.525c-.635-1.5-2.458-3.207-3.542-5.744a27.561 27.561 0 0 1-1.995-10.89 105.22 105.22 0 0 1 .879-11.838c.975-8.545 2.645-17.819 4.443-26.335 1-4.69 2.045-9.272 3.056-13.536 1.282-5.463 2.5-10.41 3.455-14.374.077-.325.154-.641.231-.952.426-1.793.8-3.277 1.134-4.764a6.2 6.2 0 0 1 2.536-3.717z" fill="#4c5154"/><path data-name="Path 14284" d="M118.785 55.491c-.636-.371-3.46-1.944-4.288-1.48a5.232 5.232 0 0 0-1.869 2.992l3.682 1.977a6.132 6.132 0 0 1 2.475-3.489z" fill="#5f676b"/><path data-name="Path 14285" d="M55.969 180.582c-1.388 1.117-2.86 4.55-1.02 5.618l44.425 25.815c-1.431-.9.061-4.7 1.018-5.619z" fill="#5f676b"/><path data-name="Path 14286" d="M104.626 152.31c-10.189 5.368-18.329 9.64-26.686 14.468-6.6 3.81-13.33 7.96-21.273 13.231a4.76 4.76 0 0 0-.7.573l44.423 25.814a4.7 4.7 0 0 1 .7-.571c7.946-5.271 14.675-9.422 21.274-13.231 8.359-4.828 16.5-9.1 26.686-14.468z" fill="#6a7378"/><path data-name="Path 14287" d="M108.08 208.111c5.2-3.4 9.925-6.354 14.468-9.065 6.174-3.595 14.456-8.21 25.547-14.117 1.728-.911 3.5-1.848 5.349-2.824a2.031 2.031 0 0 0-.545-1.032 15.835 15.835 0 0 0-1.721-1.55c-.623-.44-1.639-1.1-1.807-1.208-.109-.065-.212-.127-.323-.189-10.189 5.366-18.327 9.64-26.686 14.468-6.6 3.809-13.328 7.96-21.274 13.231a4.571 4.571 0 0 0-.721.6 5.854 5.854 0 0 0-1.74 4.133 1.7 1.7 0 0 0 .747 1.456c.207.121.49.274.7.388a13 13 0 0 0 2.971 1.132 5.564 5.564 0 0 0 1.4.124l.233-.026a3.111 3.111 0 0 0 .862-.275c.06-.028.13-.069.181-.1a.253.253 0 0 0 .129-.25 1.92 1.92 0 0 1-.6.227l-.038.007c-.555.077-.922-.261-.967-.888a2.787 2.787 0 0 1 .27-1.268 17.509 17.509 0 0 1 3.565-2.974z" fill="#5f676b"/><path data-name="Path 14288" d="M100.369 206.421v.005a5.854 5.854 0 0 0-1.74 4.133 1.7 1.7 0 0 0 .747 1.456c.207.121.49.274.7.388a13 13 0 0 0 2.971 1.132 5.564 5.564 0 0 0 1.4.124l.233-.026a3.111 3.111 0 0 0 .862-.275c.06-.028.13-.069.181-.1a.252.252 0 0 0 .129-.25 1.92 1.92 0 0 1-.6.227l-.038.007c-.555.077-.922-.259-.967-.888a2.787 2.787 0 0 1 .27-1.268 9.044 9.044 0 0 1 1.469-1.4z" fill="#53595c"/><path data-name="Path 14289" d="M165.115 81.116L120.74 55.327a1.5 1.5 0 0 0-1.2-.147l-.057.015a2.917 2.917 0 0 0-.7.3l44.424 25.814a1.958 1.958 0 0 1 1.908-.193z" fill="#6a7378"/><path data-name="Path 14290" d="M151.273 171.391a16.121 16.121 0 0 1-1.109-1.866 24.889 24.889 0 0 1-1.844-4.773 20.727 20.727 0 0 1-.663-3.613c-.123-1.36-.181-2.8-.181-4.323a102.665 102.665 0 0 1 .761-11.8c.091-.817.194-1.647.3-2.483l-44.422-25.815q-.167 1.254-.3 2.484a102.651 102.651 0 0 0-.761 11.8c0 1.518.065 2.963.18 4.321a21.42 21.42 0 0 0 .664 3.615 24.894 24.894 0 0 0 1.844 4.771c.645 1.264 2.964 3.442 2.964 4.452l44.422 25.815c.059-.9-1.333-1.847-1.855-2.585z" fill="#53595c"/><path data-name="Path 14291" d="M108.417 92.649a384.67 384.67 0 0 0-2.623 13.3 233.064 233.064 0 0 0-1.676 10.766l44.422 25.815c.452-3.483 1.025-7.1 1.676-10.767a382.38 382.38 0 0 1 2.623-13.3z" fill="#5f676b"/><path data-name="Path 14292" d="M116.295 58.909a4.178 4.178 0 0 0-.072.288 260.085 260.085 0 0 1-1.333 5.722c-.955 3.964-2.173 8.911-3.455 14.374-1 4.211-2.03 8.727-3.015 13.356l44.422 25.814a632.47 632.47 0 0 1 3.009-13.354c1.288-5.465 2.507-10.41 3.461-14.376.541-2.261 1.006-4.205 1.333-5.72.02-.1.046-.2.072-.29z" fill="#6a7378"/><path data-name="Path 14293" d="M118.785 55.491a5.977 5.977 0 0 0-2.493 3.418l44.422 25.814a5.953 5.953 0 0 1 2.495-3.418z" fill="#5f676b"/><path data-name="Path 14294" d="M169.295 85.55a3.5 3.5 0 0 0-.86-1.784 1.041 1.041 0 0 0-.084-.1 11.11 11.11 0 0 0-2.706-2.234 3.862 3.862 0 0 0-.843-.455 1.241 1.241 0 0 0-.236-.04 2.438 2.438 0 0 0-1.356.366c.374.219.742.455 1.11.7.432.286.879.586 1.28.912a8.451 8.451 0 0 1 1.895 1.889 1.049 1.049 0 0 1 .161.455.56.56 0 0 1 .167-.056c1.091-.093 1.478.434 1.211 1.66-.308 1.4-.683 3-1.119 4.83-1.395 5.837-2.839 11.66-4.19 17.506-1.27 5.46-2.578 11.342-3.746 17.217-.031.172-.063.341-.1.513-.1.527-.207 1.054-.3 1.581q-1.055 5.4-1.831 10.472c-.225 1.48-.446 2.975-.632 4.463a140.593 140.593 0 0 0-.674 6.132c-.876 10.152-1.649 12.275 1.786 18.631 1.493 2.762 3.59 3.6 3.159 7.421-.656 5.8-5.685 5.739-7.958 9.9-.011.084-.027.213-.1.263a21.7 21.7 0 0 0 5.326-4.269 11.579 11.579 0 0 0 .74-.994 13.768 13.768 0 0 0 1.567-2.636 11.09 11.09 0 0 0 .87-2.891 8.243 8.243 0 0 0 .062-1.828 6.142 6.142 0 0 0-1.213-3.113c-1.024-1.589-1.825-2.886-2.447-4.045-1.966-3.667-2.135-5.947-1.934-11.713.056-1.6.152-3.178.289-4.787.131-1.519.3-3.085.489-4.687.238-1.971.513-3.93.815-5.89.377-2.454.792-4.9 1.237-7.342 1.617-8.892 3.738-18.307 5.882-27.35q1.506-6.246 3.009-12.491a334.843 334.843 0 0 0 1.144-4.909 3.7 3.7 0 0 0 .13-1.297z" fill="#5f676b"/><path data-name="Path 14295" d="M167.356 85.527c-2.836 3.719-10.725 42.111-11.849 48.461-.766 4.456-1.173 8.941-1.651 13.126-.412 4.077-.753 8.09-.746 11.6.038 1.412.057 2.88.172 4.2a20.231 20.231 0 0 0 .632 3.409 23.953 23.953 0 0 0 1.773 4.6c.36.6.7 1.266 1.063 1.779.543.774 1.49 1.469 1.812 2.2a2.476 2.476 0 0 1 .206 1.007 2.7 2.7 0 0 1-.245 1.169c-.8 2.093-3.215 3.962-5.079 5.04-10.182 5.37-18.308 9.631-26.642 14.44-6.568 3.792-13.295 7.978-21.177 13.177a3.261 3.261 0 0 0-1.372 2.631c.058.846.7 1.168 1.6.654a.289.289 0 0 1-.109.242c7.926-5.263 14.7-9.428 21.4-13.282a968.617 968.617 0 0 1 17.625-9.663c.149-.084.3-.164.459-.246.018-.01.038-.018.052-.028l4.362-2.3c.929-.487 2.075-1.091 3.653-1.921a.311.311 0 0 0 .156-.276c3.218-2.132 5.914-4.177 7.5-7.853a10.744 10.744 0 0 0 .594-1.813 7.42 7.42 0 0 0 .2-1.717c0-2.31-.823-2.661-2.12-4.249a7.353 7.353 0 0 1-1.07-1.671 21.629 21.629 0 0 1-1.489-3.535 13.613 13.613 0 0 1-.811-3.818 34.2 34.2 0 0 1-.169-3.886 121 121 0 0 1 1.606-17.661c1.488-9.811 3.813-20.613 6.032-30.131 1.1-4.765 2.185-9.2 3.117-13.049.922-3.831 1.715-7.091 2.251-9.528.19-.9-.163-1.358-.648-1.474a1.027 1.027 0 0 0-1.088.366z" fill="#6a7378"/><path data-name="Path 14296" d="M155.822 133.986c.767-4.33 1.644-8.728 2.566-13.038 1.993-8.129 4.312-16.188 5.946-24.4.3-1.5 1.952-10.482 3.321-11.292 0-.4-.621-1.069-.9-1.352a19.161 19.161 0 0 0-2.723-2.111 4.734 4.734 0 0 0-.821-.489 5.846 5.846 0 0 0-2.567 3.708c-.327 1.515-.792 3.459-1.333 5.72-.954 3.966-2.173 8.911-3.461 14.376a687.822 687.822 0 0 0-2.089 9.132c-1.29 5.816-2.493 11.647-3.543 17.527-1.395 7.805-2.769 17.15-2.74 25.048 0 1.518.058 2.963.181 4.323a20.727 20.727 0 0 0 .663 3.613 24.889 24.889 0 0 0 1.844 4.773 16.121 16.121 0 0 0 1.109 1.866 26.109 26.109 0 0 1 1.74 2.06 1.385 1.385 0 0 1 .115.525q.658.386 1.31.706c.546.269 1.173.56 1.756.779.538.2 2.049.742 2.574.435a2.483 2.483 0 0 0-.178-1.027 23.318 23.318 0 0 0-1.84-2.177c-.367-.513-.7-1.18-1.063-1.779a23.953 23.953 0 0 1-1.773-4.6 20.231 20.231 0 0 1-.632-3.409c-.115-1.315-.134-2.783-.172-4.2-.007-3.506.334-7.519.746-11.6.476-4.174 1.197-8.659 1.964-13.117z" fill="#4c5154"/><path data-name="Path 14297" d="M166.342 87.921a5.746 5.746 0 0 1 1.313-2.664c0-.4-.621-1.069-.9-1.352a19.161 19.161 0 0 0-2.723-2.111 4.734 4.734 0 0 0-.821-.489 5.818 5.818 0 0 0-2.483 3.363z" fill="#5f676b"/><path data-name="Path 14298" d="M104.25 157.133c-8.373 4.409-15.063 7.92-21.931 11.887-5.421 3.131-10.953 6.542-17.479 10.873a3.98 3.98 0 0 0-.572.469l36.5 21.213a3.771 3.771 0 0 1 .571-.47c6.529-4.331 12.057-7.742 17.481-10.871 6.868-3.968 13.556-7.479 21.928-11.889z" fill="#778187"/></g></g><g data-name="Group 6942" fill-rule="evenodd"><g data-name="Group 6940"><path data-name="Path 14299" d="M81.846 262.332c1.1 3.214 2.1 5.7 2 7.727-.107 2.093-.677 4.128-.65 6.775.023 2.271.138 4.2.4 6.771.269 2.628-.005 3.873-1.159 4.923-1.874 1.706-7.457 4.346-10.1 5.243a10.636 10.636 0 0 1-4.632.622 20.68 20.68 0 0 1-6.207-1.131c-.571-.215-1.156-2.432-1.2-4.354-.087-4.025.278-3.685 1.943-10.064.57-2.177 1.029-4.257 1.812-6.8.976-3.17 2.187-5.96 2.312-9.08l11.786-.46z" fill="#111214"/><path data-name="Path 14300" d="M81.846 262.332c1.1 3.214 2.1 5.7 2 7.727-.107 2.093-.677 4.128-.65 6.775.023 2.271.138 4.2.4 6.771.269 2.628-.005 3.873-1.159 4.923-1.874 1.706-7.457 4.346-10.1 5.243a10.636 10.636 0 0 1-4.632.622 20.68 20.68 0 0 1-6.207-1.131c-.517-.2-1.046-2.031-1.172-3.8h.032c3.6 1.228 7.1 1.72 10.559.029 7.3-3.568 6.353-6.531 5.666-14.951-4.753-.839-6.619-1.685-9.032-4.288 4.052 1.192 8.407 1.4 10.562-1.071l.671-6.7z"/><path data-name="Path 14301" d="M65.754 270.897c3.409 2.69 2.216 3.866 7.193 4.517-1.23 4.923-1.385 5.16-3.88 9.7-.2 1.876-.351 4.338-4 4.361-6.82.044-2.087-5.586-2.064-5.8a56.35 56.35 0 0 1 2.751-12.778z" fill="#20232e"/></g><g data-name="Group 6941"><path data-name="Path 14302" d="M39.414 242.985c-1.2 4.2-1.5 6.371-3.243 8.818-3.482 4.876-8.613 8.36-16.084 13.656-3.555 2.52-4.306 4.909-.706 7.106 2.833 1.729 9.769.354 14.1-.664 8.128-1.912 11.415-6.8 14.193-8.077l2.1.479c1.723.03 8.074-3.427 9.4-5.2.341-1.522 1.321-3.444 1.482-5.577.251-6.878-.828-6.179-2.669-11.561-6.251.458-12.308.807-18.573 1.02z" fill="#111214"/><path data-name="Path 14303" d="M17.026 269.415c-.037 1.087.7 2.138 2.355 3.15 2.833 1.729 9.769.354 14.1-.664 8.128-1.912 11.415-6.8 14.193-8.075l2.1.477c1.723.03 8.074-3.367 9.818-4.955a40.525 40.525 0 0 0 1.06-5.818c.251-6.878-.828-6.179-2.669-11.561-2.766.2-5.5.382-8.221.539-.493 4.528.167 12.34-3.56 15.248-4.168 3.25-7.419 4.116-10.2 5.809-8.869 5.395-14.731 9.777-18.976 5.85z"/><path data-name="Path 14304" d="M37.442 250.71c.887 1.308 2.63 2.045 5.512 2.763-4.649 5.241-5.3 4.751-11.548 8.259-3.146 3.595-3.583 4.277-5.591 5.437-2.4 1.384-5.782 2.806-7.2 1.784-.613-.44.21-1.669 2.85-3.583 2.994-2.169 6.042-4.369 8.8-6.662a32.56 32.56 0 0 0 7.177-7.998z" fill="#20232e"/></g><path data-name="Path 14305" d="M53.306 191.678c16.252-14.954 40.787-15.161 53.021-22.69 8.911-5.484 13.622-6.153 8.06-17.73l-29.637-11.2c0 2.8-1.74 6.543-2.622 6.882a195.85 195.85 0 0 0-41.637 21.891c-2.2 1.228-5.632 4.412-5.672 7.16-.054 3.754 9.508 14.121 18.487 15.687z" fill="#002a38"/><path data-name="Path 14306" d="M53.306 191.678c16.252-14.954 40.787-15.161 53.021-22.69 8.911-5.484 13.622-6.153 8.06-17.73l-10.986-4.154-.013.027c-1.544 3.142-5.878 6.553-8.345 8.667a42.222 42.222 0 0 1-6.874 4.775c-6.022 3.4-21.74 11.367-32.554 15.9-4.359 1.826-5.246 3.686-5.5 5.871a28.869 28.869 0 0 0 .38 8.568 16.759 16.759 0 0 0 2.811.766z" fill="#00171f"/><path data-name="Path 14307" d="M34.921 185.478c.826 20.644 1.805 41.125 3.044 61.806 2.941 4.826 17.13 5.122 21.976-1.662.724-18.743 1.9-33.542 1.368-43.8-.441-8.537-2.654-13.575-3.61-21.042-3.22-8.465-16.311-11.743-21.241-8.2-3.063 2.209-1.683 9.28-1.537 12.898z" fill="#002a38"/><path data-name="Path 14308" d="M51.473 250.432c3.42-.671 6.621-2.226 8.468-4.81.724-18.743 1.9-33.542 1.368-43.8-.441-8.537-2.654-13.575-3.61-21.042a12.276 12.276 0 0 0-2.616-4.081c-3.9 1.754-4.724 3.548-4.973 5.641-.883 7.4 1.954 13.431 2.618 20.688 1.184 12.967-.579 31.956-1.255 47.404z" fill="#00171f"/><path data-name="Path 14309" d="M79.479 206.103c9.135-8.4 22.459-13.469 33.447-16.951 8.563-2.714 15.274-4.38 20.055-6.941 12.886-6.9 10.238-16.251 4.6-23.2-3.037-3.739-6.167-5.778-9.947-9.149l-25.331-.739c-.147 3.323-11.2 8.936-11.045 12.561a3.957 3.957 0 0 0 1.4 2.3c1.928 1.345-1.39 3.27-2.877 4.2-6.437 4.036-16.7 10.865-23.111 15.063-2.143 1.529-5.662 4.562-5.731 6.951-.117 3.762 9.562 14.341 18.54 15.905z" fill="#002a38"/><path data-name="Path 14310" d="M79.479 206.103c9.135-8.4 22.459-13.469 33.447-16.951 8.563-2.714 15.274-4.38 20.055-6.941 12.886-6.9 10.238-16.251 4.6-23.2-3.037-3.739-6.167-5.778-9.947-9.149l-2.836.947 4.285 10.545c-11.678 7.9-30.754 18.937-45.166 28.454-4.221 2.787-6.75 4.127-7.349 7.19-.415 2.116-.012 4.679.547 8.5a16.352 16.352 0 0 0 2.364.605z" fill="#00171f"/><path data-name="Path 14311" d="M60.712 191.625c.9 23.714 1.975 49.878 3.4 73.571 2.941 4.826 17.128 5.122 21.974-1.662.726-18.744 1.9-35.43 1.368-45.686-.441-8.536-3.738-14.3-3.607-21.887-4.013-10.535-23.322-13.036-23.135-4.336z" fill="#002a38"/><path data-name="Path 14312" d="M77.612 268.344c3.421-.669 6.624-2.225 8.471-4.81.726-18.744 1.9-35.43 1.368-45.686-.441-8.536-3.738-14.3-3.607-21.887a12.388 12.388 0 0 0-2.8-4.267c-2.5 1.686-4.028 3.014-4.476 5.3-.745 3.8 1.142 9.031 1.843 20.381.973 15.751-1.077 34.952-.799 50.969z" fill="#00171f"/><path data-name="Path 14313" d="M101.195 152.197l19.037 10.9c-17.337 10.343-28.5 19.03-45.925 27.773-4.065 2.04-13.538 0-7.238-5.048 8.493-6.8 18.428-12.276 27.906-19.536 1.956-1.5-2.935-2.327-1.994-5.405.697-2.288 6.762-8.121 8.214-8.684z" fill="#013547"/><path data-name="Path 14314" d="M62.764 191.05a10.957 10.957 0 0 0 7.74 3.433c2.811 22.975 1.69 49.9 2.259 73.269-3.429-.686-4.306-.671-7.349-2.409-1.907-24.441-2.206-49.905-2.65-74.293z" fill="#013547"/><path data-name="Path 14315" d="M85.333 145.554a67.8 67.8 0 0 0 10.121 5.9 30.328 30.328 0 0 1-8.143 6.291c-12.691 6.929-25.768 14.322-38.426 18.555a9.455 9.455 0 0 1-8.106-1.337c-1.547-1.14-2.751-2.835-.248-4.712a147.126 147.126 0 0 1 22.573-14.061c4.741-2.368 12.544-4.651 17.481-6.78 2.385-1.026 3.044-1.921 4.748-3.856z" fill="#013547"/><path data-name="Path 14316" d="M35.995 177.16a13.664 13.664 0 0 0 9.217 3.794c-.022 6.062 1.916 13.019 2.828 21.293 1.513 13.692.536 31.729-.178 47.014-3.956.432-6.169-.112-8.855-2.288-1.192-23.539-1.978-46.259-3.012-69.813z" fill="#013547"/></g><path data-name="Path 14317" d="M127.486 53.152c22.522 22.223-28.1 22.87-35.13 60.358 1.643-22.014-16.211-55.627 10.843-61.3z" fill="#e8a476" fill-rule="evenodd"/><g data-name="Group 6943" fill-rule="evenodd"><path data-name="Path 14318" d="M127.549 52.323c.575 6.738-19.628 14.6-23.96 8.65a10.9 10.9 0 0 0 .624-4.075 17.539 17.539 0 0 0-1.4-4.746c-.759-2.062-.784-6.425-2.1-11.253l19.03-8.295 4.075-2.159c-1.954 9.499.199 13.915 3.731 21.878z" fill="#e8a476"/><path data-name="Path 14319" d="M127.549 52.323a2.791 2.791 0 0 1-.083 1.026c-9.02-5.68-14.637-.922-25.216-3.75a69.593 69.593 0 0 0-1.539-8.7l19.03-8.293 4.075-2.161c-1.952 9.499.201 13.915 3.733 21.878z" fill="#db9669"/></g><g data-name="Group 6944" fill="#db9669" fill-rule="evenodd"><path data-name="Path 14320" d="M55.395 109.905c-2.238.966-4.553.552-6.682.671-6.643.367-11.481 1.852-15.186 4.919-.9.743 4.706 10.541 9.816 13.071.244.122.492-.185.7-.309l4.012-2.07 10.824-5.807z"/><path data-name="Path 14321" d="M51.595 110.578c-4.289 0-7.418-1.364-9.782-1.019-2.426.354-5.565 2.9-9.866 4.088 1.549 4.225 6.79.4 8.943.44 1.982.04 2.491 2.352 4.289 2.095 2.831-.405 6.662-2.463 6.416-5.604z"/></g><path data-name="Path 14322" d="M95.501 112.876c-15.892 5.641-24.941 6.209-41.219 10.644 1.184-7.108-3.52-13.214-6.547-13.291 13.5-5.309 29.673-12.872 44.136-15.289z" fill="#aab7c2" fill-rule="evenodd"/><path data-name="Path 14323" d="M55.337 111.76a46.577 46.577 0 0 0-4.294-2.857c9.013-3.647 20.343-8.227 30.114-11.251a58.945 58.945 0 0 1-.238 6.658c-3.782 1.302-23.466 8.494-25.582 7.45z" fill="#bac7d1" fill-rule="evenodd"/><path data-name="Path 14324" d="M95.501 112.876c-15.892 5.641-24.941 6.209-41.219 10.644a14.037 14.037 0 0 0-1.028-7.975c7.554-1.752 17.784-5.564 28.441-9.459 1.846-.9 1-6.577 1.409-9.178l2.746-.8z" fill="#a2afba" fill-rule="evenodd"/><path data-name="Path 14325" d="M87.195 139.56a2.659 2.659 0 0 0 .479 1.16c5.387 7.506 39.189 18.823 46.262 18.236-5.357-46.575 36.168-89.432-7.172-106.973-2.395 6.849-11.465 11.78-16.832 11.78-6.873 0-11.234-3.888-9.078-9.706.2-.537-1.557 3.691-1.758 3.147-5.276 7.041-7.919 15.967-9.053 27.624-1.778 18.274 2.057 34.671-2.848 54.732z" fill="#f2f9fc" fill-rule="evenodd"/><path data-name="Path 14326" d="M108.86 152.367c9.371 3.332 21.759 6.86 25.072 6.584-5.613-48.808 46.371-89.492-8.4-105.582-3.681 6.8-7.978 13.867-11.387 20.707-9.703 19.463-14.136 58.011-5.285 78.291z" fill="#e8f3f7" fill-rule="evenodd"/><g data-name="Group 6946" fill-rule="evenodd"><path data-name="Path 14327" d="M141.87 58.9c-2.942-1.633-8.942-5.307-15.411-8.921 5.447 6.526-7.71 22.218-13.814 41.784-2.076 6.653-3.422 16.349-3.749 26.006-.314 9.319 2.648 53.761 4.761 61.3 7.464 5.7 12.111 4.706 18.734 1.892a65.533 65.533 0 0 0 15.711-9.936c-2.607-21.317-10.28-22.168-10.875-35.43-.545-12.191 16.662-44.7 16.5-61.526-.068-7.467-6.356-12.119-11.857-15.169z" fill="#aab7c2"/><path data-name="Path 14328" d="M141.87 58.9l-14.983-8.31c2.235 3.586 8.2 7.432 14.629 12.86a29.379 29.379 0 0 0-8.307 14.669c-3.384 13.38-8.56 30.992-9.448 43.229-2.373 32.678 12.345 35.066 12.434 57.633a91.771 91.771 0 0 0 11.833-7.954c-2.171-20.522-9.773-20.433-10.8-35.43-.835-12.174 16.662-44.7 16.5-61.526-.069-7.469-6.357-12.121-11.858-15.171z" fill="#a2afba"/><path data-name="Path 14329" d="M129.695 56.722l7.769 6.614c-7.572 12.468-17.361 36.121-17.643 59.779-.135 11.408 7.05 46.13 13.308 56.527-5.024 3.288-17.4 3.248-18.3-2.041-3.94-23.138-4.217-65.145.654-83.565 4.175-15.795 11.356-27.229 14.212-37.314z" fill="#bac7d1"/><g data-name="Group 6945"><path data-name="Path 14330" d="M130.88 135.801c-7.364-.251-9.387-.262-15.761.882l2.934 17.609c4.125 1.749 9.982 1.272 15.151-.87z" fill="#aab7c2"/><path data-name="Path 14331" d="M130.88 135.801c-7.364-.251-9.387-.262-15.761.882.917 5.251.481 5.2 6.106 5.537 10.05.6 6.952 1.714 10.418 11.793.152.443 1.047-.377 1.561-.591z" fill="#a2afba"/><path data-name="Path 14332" d="M130.341 133.56c-7.41-.228-10.713-.8-16.21-.821l1.416 7.009c1.877.979 11.733 2.144 16.086.083z" fill="#aab7c2"/><path data-name="Path 14333" d="M130.341 133.56c-7.41-.228-10.713-.8-16.21-.821 5.354 1.987 14.389 1.443 15.967 7.638a9.047 9.047 0 0 0 1.535-.546z" fill="#9da9b3"/><path data-name="Path 14334" d="M116.469 142.819l9.276 1.5 3.747 9.224a31.952 31.952 0 0 1-10.293.576z" fill="#bac7d1"/><path data-name="Path 14335" d="M114.927 133.66c4.329 1.321 10.41 3.159 12.961 6.386a32.7 32.7 0 0 1-11.36-.748 25.694 25.694 0 0 1-1.601-5.638z" fill="#bac7d1"/></g></g><g data-name="Group 6950" fill-rule="evenodd"><path data-name="Path 14336" d="M100.869 41.498c-15.971 4.171-18.091 20.775-17.49 45.05.21 8.558 1.565 16.08 1.671 26.712.078 7.983-1.832 22.6-2.8 33.6 1.925-2.037 3.534-4.229 5.259-6.437 2.888-23.926 4.132-52.729 9.132-72.008a51.915 51.915 0 0 1 6.739-14.782c-.184-.481-.378-.966-.567-1.481a13.787 13.787 0 0 1-.559-2.553l-.014-.1-.009-.053-.007-.049-.015-.1v-.014l-.022-.156-.007-.04-.015-.105v-.018l-.013-.089-.01-.078-.02-.139v-.03l-.024-.171v-.02l-.015-.112-.005-.042-.01-.072-.013-.1v-.01l-.015-.114-.007-.053-.01-.062-.015-.117-.015-.117-.01-.066-.007-.051-.017-.121v-.011l-.015-.107-.01-.079-.007-.042-.017-.122v-.025l-.013-.1-.014-.092v-.03l-.018-.124-.005-.038-.013-.088-.014-.1v-.02l-.018-.125-.006-.05-.012-.078-.019-.12v-.006l-.02-.129-.01-.064-.01-.065-.02-.129v-.007l-.02-.123-.012-.077-.009-.054-.021-.132v-.018l-.019-.114-.015-.09-.006-.042-.022-.134-.006-.032-.018-.1-.023-.134-.023-.135-.009-.045-.015-.09-.022-.122v-.016l-.025-.135-.012-.061-.013-.079-.027-.134-.01-.053-.029-.147v-.012l-.011-.065-.029-.139v-.012l-.04-.2-.008-.033-.038-.18-.005-.026-.025-.115-.008-.04-.022-.1-.032-.142-.008-.039-.024-.1-.026-.118-.007-.025-.034-.144v-.012l-.023-.1-.007-.032-.032-.132v-.011l-.035-.144v-.014l-.029-.11z" fill="#aab7c2"/><path data-name="Path 14337" d="M102.022 51.54c-9.2 7.3-12.99 27.526-12.822 45.7.242 26.288-.626 19.187-1.431 43.559-1.28 1.468-3.256 3.2-5.072 5.084 2.849-22.927 3.9-29.579 2.293-51.218-1.363-18.426-1.543-38.393 9.173-48.926 1.08 2.091 6.232 4.096 7.859 5.801z" fill="#bac7d1"/><g data-name="Group 6949"><g data-name="Group 6947"><path data-name="Path 14338" d="M87.795 123.594c-2.182-2.379-2.785-2.975-4.8-3.654l-1.513 19.663c1.013 1.6 4.345 2.924 5.359 2.515z" fill="#aab7c2"/><path data-name="Path 14339" d="M87.795 123.594c-2.182-2.379-2.785-2.975-4.8-3.654-.218 5.585-.343 5.408 1.309 7.371 2.952 3.507 1.824 3.743 1.918 14.954a2.038 2.038 0 0 0 .619-.147z" fill="#a2afba"/><path data-name="Path 14340" d="M82.821 126.546l2.636 4.2-.237 10.812a5.656 5.656 0 0 1-3.226-2.369z" fill="#bac7d1"/></g><g data-name="Group 6948"><path data-name="Path 14341" d="M88.59 118.923c-2.438-1.074-3.437-2.051-5.275-2.691l-.852 7.547c.443 1.243 3.525 3.582 5.375 1.9z" fill="#aab7c2"/><path data-name="Path 14342" d="M88.59 118.923c-2.438-1.074-3.437-2.051-5.275-2.691 1.418 2.7 4.548 3.142 3.9 9.849a2.25 2.25 0 0 0 .619-.4z" fill="#a2afba"/><path data-name="Path 14343" d="M83.407 117.299a16.755 16.755 0 0 1 3.133 8.19c-1.7-.118-2.235-.551-3.665-2.066.062-2.026.294-3.913.532-6.124z" fill="#bac7d1"/></g></g></g><path data-name="Path 14344" d="M131.076 52.86c2.148 5.219 1.079 14.478-1.5 23.515l-5.256-1.948 2.535 5.724c-10.564 13.8-16.476 34.364-17.294 55.48-6.482-51.868 15.428-69.484 16.3-87.189 2.261 1.518 4.852 3.534 5.215 4.418z" fill="#ced9e0" fill-rule="evenodd"/><path data-name="Path 14345" d="M101.924 46.807c-3.926 1.963-5.867 2.615-9.568 8.442l3.326 2.746-4.192 1.374c-1.666 16.976-1.655 35.412-1.121 52.923 1.883-17.392 2.984-32.6 7.177-46.719 1.371-4.61 3.291-7.561 6.023-11.417a36.148 36.148 0 0 1-1.645-7.349z" fill="#ced9e0" fill-rule="evenodd"/><g data-name="Group 6951" fill-rule="evenodd"><path data-name="Path 14346" d="M110.895 53.411c2.068-1.759 7.2-4.58 9.039-6.3 4.015-3.771 2.747-8.745 3.238-15.365 3.762-3.448 4.863-5.954 4.91-8.641.111-6.379-4.285-12.7-9.525-15.815-4.579-2.719-9.506-3.036-14.777-1.191C93.54 9.683 90.175 18.17 90.726 27.338a6.145 6.145 0 0 0 .571 2.224c.792 1.762 1.677 2.478 2.237 3.672 1 2.135.215 2.691.168 4.084-.06 1.762 1.67 4.8 2.525 7.848a28.427 28.427 0 0 0 1.428 3.521c1.313 2.91 3.374 6.061 4.567 6.372a21.69 21.69 0 0 0 3.566.289c1.213.088 2.337-.093 5.107-1.937z" fill="#f1b287"/><path data-name="Path 14347" d="M110.895 53.411c2.068-1.759 7.205-4.58 9.039-6.3 4.015-3.771 2.747-8.745 3.238-15.365 3.762-3.448 4.863-5.954 4.91-8.641.111-6.379-4.285-12.7-9.525-15.815-4.579-2.719-9.506-3.036-14.777-1.191-8.9 3.113-12.6 9.928-13.061 17.673.417.5 6.147 1.741 11.254 1.37 3.265-.239 4.767-2.091 7.569-3.818 1.071 2.454.25 8.984.637 10.758.092.429 1.835 2.085 1.108 4.052-.2.535-.91 1.27-.579 2.034 3.469 7.981-.968 13.844-2.981 16.95a13.934 13.934 0 0 0 3.168-1.707z" fill="#e8a476"/><path data-name="Path 14348" d="M103.714 22.303c2.24-1.8 4.372-8.013 7.947-11.177 3.659-3.236 7.668-6.7 11.658-4.777 3.767 3.121 6.047 9.673 6.206 13.566.226 5.57-2.336 11.011-6.031 16.947-1.388 2.229-2.772-5.438-3.673-6.914-.178 1.3-.421 2.668-.666 4.082l-1.554-.32c-.277-1.534-3.317-17.052-4.391-17.973-1.807-.229-4.334 3.452-9.496 6.566z" fill="#361d07"/><path data-name="Path 14349" d="M121.149 26.454c3.751-2.283 4.818 2.4 4.82 5.374 0 2.049-1.643 2.262-1.884 3.932a3.777 3.777 0 0 1-2.748 3.4c-2.484.479-1.771-3.529-1.8-5.049-.817-2.324-.768-6.208 1.612-7.657z" fill="#e8a476"/><path data-name="Path 14350" d="M123.547 6.708a13.356 13.356 0 0 1 4.618 7.319c-.725-1.765-1.476-3.435-3.724-4.361 1.933 2.286 2.538 3.4 2.762 6.609-.727-2.237-1.947-4.346-4.181-5.1a13.925 13.925 0 0 1 3.528 9.641c-.706-3.433-2.893-6.857-5.737-8.04 2.091 2.213 2.209 5.256 2.569 7.8-1.407-3.177-1.956-4.971-4.758-6.135a12.869 12.869 0 0 1 1.356 8.266 23.482 23.482 0 0 0-3.6-7 6.325 6.325 0 0 1-1.159 5.192 17.689 17.689 0 0 0-1.626-5.478c-.294-.526-1.375-.226-2.276-.148 5.217-2.968 10.682-7.913 12.228-8.565z" fill="#361d07"/><path data-name="Path 14351" d="M123.679 6.624c-7.268-2.381-11.108 9.533-18.213 14.668-3.02 2.182-4.569 2.2-9.684 1.83-3.211-.235-6.187-.885-6.907-2.148-4.052-7.092-1.921-10.556 2.462-13.357 1.788-1.141 4.445-1.83 6.436-3.145 8.022-5.298 19.655-7.345 25.906 2.152z" fill="#361d07"/><path data-name="Path 14352" d="M121.341 3.879a6.827 6.827 0 0 1 2.392 2.934c-4.921 5.315-7.471 5.6-12.387 9.468-4.486 3.532-8.811 8.073-14.468 6.183.944-7.182 3.709-10.418 11.335-12.48 2.851-.77 4.519.209 9.989-2.616a6.188 6.188 0 0 0-2.3.2c2.859-1.708 5.168-1.708 5.439-3.689z" fill="#241304"/><path data-name="Path 14353" d="M88.82 9.441c5.124-5.188 15.489-7.6 25.141 1.145-6.8.506-8.707 3.1-10.194 7.989a7.668 7.668 0 0 1-3.6 4.128c-2.062.88-4.4.577-7.524.146-1.8-.248-3.505-.614-4.627-1.725-2.639-2.617-3.188-7.64.804-11.683z" fill="#4a2b12"/><path data-name="Path 14354" d="M94.895 8.19a10.163 10.163 0 0 0-6.619 6.42 9.447 9.447 0 0 1 5.076-3.994 9.246 9.246 0 0 0-3.327 4.792c2.672-2.589 4.162-4.2 8.013-5.412a10.588 10.588 0 0 0-5.171 5.527c3.124-2.77 6.1-5.864 10.958-5.912-3.558.67-7.646 4.607-8.988 8.171a19.954 19.954 0 0 1 6.108-4.13c-1.679.877-2.424 4.34-2.716 5.077 2.366-2.32 4.3-6.633 9.046-7.593-5.161 2.678-5.584 12.58-10.081 12.142-2.43-.237-7.632-.83-8.908-1.919a6.886 6.886 0 0 1-.514-9.9c1.636-1.899 4.704-2.889 7.123-3.269z" fill="#361d07"/></g><path data-name="Rectangle 102" fill="#000007" d="M91.176 120.897l-16.933 22.182-2.585-1.974 16.933-22.181z"/><g data-name="Group 6952" fill-rule="evenodd"><path data-name="Path 14355" d="M156.815 250.716l-38.12 22.009.7.5 1.659.771 37.062-21.131 1.057-.875z" fill="#c9c7c5"/><path data-name="Path 14356" d="M121.058 273.997l-2.362-1.272a5.444 5.444 0 0 1-5.094.191c3.056 2.192 4.615 2.757 7.456 1.081z" fill="#bfbdbb"/><path data-name="Path 14357" d="M113.105 270.84l-2.539-1.516c.005 2.493.761 4.214 2.184 5.042l2.669 1.549c-1.424-.826-2.307-2.583-2.314-5.075z" fill="#c9c7c5"/><path data-name="Path 14358" d="M122.265 183.21c.052-.084.084-.168.136-.251a70.5 70.5 0 0 1 12.663-18.045c.1-.106.226-.213.329-.321a63.653 63.653 0 0 1 12.689-9.9 57.715 57.715 0 0 1 11.977-5.653l.1-.219-2.064-1.148-.229.075a61.137 61.137 0 0 0-11.558 5.2c-12.135 6.979-21.19 17.664-27.061 30.207l-.522 1.143a103.68 103.68 0 0 0-7.909 30.622 72.413 72.413 0 0 0-.295 8.531l.049 45.883 2.539 1.51.393-48.533c.108-13.781 3.106-27.565 8.763-39.101z" fill="#d6d4d2"/><path data-name="Path 14359" d="M130.166 169.511a62.871 62.871 0 0 1 18.012-15.567 55.177 55.177 0 0 1 11.987-5.122l.078 1.929a60.414 60.414 0 0 0-11.536 5.147 61.359 61.359 0 0 0-17.459 15.115c-7.481 9.418-12.622 21.288-15.353 35.39a95.492 95.492 0 0 0-1.719 19.881l.122 43.867c.012 4.265 3.041 5.993 6.76 3.846l38.119-22.006v1.365l-38.119 22.009c-4.37 2.526-7.939.5-7.953-4.525-.085-14.748-.189-29.557-.266-44.32a98.607 98.607 0 0 1 1.783-20.386c2.75-14.469 7.838-26.9 15.544-36.623z" fill="#534b48"/><path data-name="Path 14360" d="M149.262 154.028c.547-.322 1.463-.512 2-.8l-.059 2.407c-.515.273-1.023.559-1.552.869-10.369 5.991-23.473 17.769-30.225 40.5l-1.908.191c4.833-23.727 20.726-36.8 31.746-43.165z" fill="#53595c"/><path data-name="Path 14361" d="M137.456 163.282a68.135 68.135 0 0 0-10.672 13.1 84.294 84.294 0 0 0-9.268 20.808l-4.1-2.382a81.477 81.477 0 0 1 11.389-23.977 68.25 68.25 0 0 1 8.544-9.934 64.367 64.367 0 0 1 13.684-9.982 1.083 1.083 0 0 0 .128-.07l4.1 2.382a63.548 63.548 0 0 0-13.8 10.052z" fill="#6a7378"/></g><g data-name="Group 6958" fill-rule="evenodd"><g data-name="Group 6954"><path data-name="Path 14362" d="M98.841 139.819l1.673-3.623-.94-6.5c-3.162-1.9-5.542-2.54-6.885-2-4.828 1.956.087 14.718 6.152 12.123z" fill="#8f9ba6"/><g data-name="Group 6953"><path data-name="Path 14363" d="M96.612 126.69c-6.373 3.516-16.155 3.827-18.836 7.884-2.318 3.506 1.2 7.724 3.983 9.29 2.263 1.27 8.367-.992 12.442-2.205 3.614-1.077 4.808-4.978 7.434-5.55 1.002-3.814-2.623-6.88-5.023-9.419z" fill="#f1b287"/><path data-name="Path 14364" d="M78.002 134.26c-.081.1-.155.2-.226.31-2.318 3.506 1.2 7.724 3.983 9.29 2.263 1.27 8.367-.992 12.442-2.205 3.614-1.077 4.808-4.978 7.434-5.55a5.684 5.684 0 0 0-.71-4.351c-3.946 1.616-5.862 4.863-8.651 6.156-3.855 1.787-7.278 2.422-9.194 1.773-.597-.198-3.062-3.067-5.078-5.423z" fill="#db9669"/><path data-name="Path 14365" d="M79.03 133.389c-3.151 1.384-8.313 3.357-11.484 4.674-2.234.927.029 3.981 2.137 3.342 2.066-.626 7.449-2.462 7.464-2.469 1.995-1.033 3.503-3.31 1.883-5.547z" fill="#f1b287"/><path data-name="Path 14366" d="M67.437 140.49a1.645 1.645 0 0 0 2.246.915c2.064-.626 7.449-2.462 7.464-2.469a4.732 4.732 0 0 0 2.464-2.8z" fill="#db9669"/></g></g><g data-name="Group 6955"><path data-name="Path 14367" d="M152.84 70.489c1.9 11.31-1.575 33.038-5.065 46.974-1.776 7.087-3.665 12.492-9.7 13.063-5.716.541-9.411-5.882-9.45-11.762-.043-6.965.616-15.4 1.412-29.906.853-15.487 20.267-33.489 22.803-18.369z" fill="#aab7c2"/><path data-name="Path 14368" d="M152.84 70.489c1.9 11.31-1.575 33.038-5.065 46.974-1.776 7.087-3.665 12.492-9.7 13.063-3.855.364-6.789-2.436-8.3-6.1a769.83 769.83 0 0 0 2.916-.654c5.2-1.18 4.7-.109 5.88-5.179 3.275-14.026 8.046-45.428 6.169-52.131a6.1 6.1 0 0 0-.266-.759c3.939-1.935 7.394-1.013 8.366 4.786z" fill="#a2afba"/><path data-name="Path 14369" d="M145.652 120.431c-1.028 3.942-.7 6.674-4.245 9.357-1.519 1.149-3.754 1.652-6.05 2.714-8.883 4.107-22.991 5.542-36.808 7.448.582-7.416-1.839-11.673-6.007-12.23 11.468-4.657 25.381-6.947 36.859-10.333a23.153 23.153 0 0 1 4.335-.841z" fill="#aab7c2"/><path data-name="Path 14370" d="M145.652 120.431c-1.028 3.942-.7 6.674-4.245 9.357-1.519 1.149-3.754 1.652-6.05 2.714-8.883 4.1-22.991 5.542-36.808 7.448a17.466 17.466 0 0 0-.954-8.112c10.214-3.034 21.807-5.048 35.1-8.067 5.2-1.18 4.7-.109 5.88-5.179l.1-.437z" fill="#a2afba"/><path data-name="Path 14371" d="M143.602 68.104c-2.079 17.037-4.284 35.1-7.445 51.972l-38.441 9.893c-1.123-1.285-1.594-2.072-3.486-2.705l36.361-9.284c2.229-25.31 1.467-35.296 13.011-49.876z" fill="#bac7d1"/></g><g data-name="Group 6957"><path data-name="Path 14372" d="M47.847 109.452c-3.848-.038-6.643-1.285-8.766-1-2.177.3-5.015 2.551-8.881 3.584 1.354 3.8 6.084.412 8.016.47 1.777.051 2.213 2.129 3.828 1.913 2.544-.336 5.995-2.149 5.803-4.967z" fill="#db9669"/><g data-name="Group 6956"><path data-name="Path 14373" d="M44.231 130.674c-2.508-1.644-2.072-1.483-3.31-4.23-1.294-2.857-14.086-30.375-13.845-30.5 1.863-.948 1.927-1.186 3.852.087l30.15 21.313a13.933 13.933 0 0 1 4.462 5.888l12.59 27.535c.625 1.293.484 2.184.253 2.375l-1.781.9c-.414.209-4.619-3.233-7.476-5.588l-.306.155c-.198.099-23.837-17.394-24.589-17.935z" fill="#fff"/><path data-name="Path 14374" d="M58.967 119.032L28.795 97.478c-1.125-.768-1.07-.516-.672.4l12.872 28.566c1.087 2.322 1.3 2.593 3.061 3.944 10.3 7.4 20.587 14.6 30.861 21.979 1.342.947 1.1.738.541-.679L62.79 123.893a12.328 12.328 0 0 0-3.823-4.861z" fill="#aa2142"/><path data-name="Path 14375" d="M43.462 129.923c.429.325.851.654 1.29.965l30.163 21.482c1.335.94 1.113.759.541-.679l-12.668-27.795a11.4 11.4 0 0 0-2.273-3.431c-.527-.485-1.018-1.007-1.526-1.418-5.733-1.241-11.421 8.713-15.527 10.876z" fill="#d61f51"/></g><path data-name="Path 14376" d="M36.218 113.294c-4.3-.868-4.276-1.912-4.559-.455-.413 2.131 2.424 10.11 6.5 13.193a20.3 20.3 0 0 0 4.33.788c1.228-.022 1.164-.681.53-2.415l-2.81-7.694c-.932-2.301-1.345-2.882-3.991-3.417z" fill="#db9669"/></g></g></g></g></svg>